M48
;DRILL file {KiCad 5.0.2-bee76a0~70~ubuntu18.04.1} date Mon Feb 25 20:46:28 2019
;FORMAT={3:3/ absolute / metric / suppress leading zeros}
FMAT,2
METRIC,TZ
T1C0.400
T2C0.762
T3C0.900
T4C1.000
T5C1.100
T6C1.200
T7C1.300
T8C2.000
T9C4.300
%
G90
G05
T1
X22500Y-100700
X23700Y-101900
X45500Y-111500
X50000Y-131500
X52600Y-114600
X55600Y-112000
X55600Y-116800
X56100Y-99000
X58275Y-120703
X59300Y-120600
X59700Y-121800
X60200Y-131500
X60400Y-101900
X60750Y-98250
X60800Y-95700
X60900Y-78400
X61900Y-121800
X62000Y-84250
X62500Y-101400
X63200Y-112000
X63200Y-116800
X63250Y-89500
X63500Y-101400
X64100Y-102400
X64500Y-116800
X65600Y-96900
X65800Y-101600
X67200Y-112000
X67200Y-116800
X67800Y-78400
X68400Y-96900
X68500Y-87750
X68900Y-102500
X70600Y-78500
X71900Y-101600
X72000Y-103500
X73800Y-96900
X74500Y-98250
X74700Y-95700
X76100Y-116900
X76700Y-90100
X78900Y-75400
X78900Y-90000
X80200Y-85886
X81000Y-100300
X81619Y-85206
X82000Y-76700
X82100Y-92800
X83600Y-86200
X83600Y-88300
X83700Y-81400
X86500Y-111250
X88100Y-76800
X88100Y-77900
X88100Y-85500
X89300Y-83200
X92913Y-89750
X99850Y-111100
X100000Y-116900
X100950Y-98250
X101800Y-94700
X102600Y-102600
X103000Y-120600
X105450Y-95475
X105500Y-98350
X105700Y-77750
X106250Y-120250
X106600Y-83500
X107300Y-101200
X107600Y-111100
X107700Y-116900
X108400Y-88800
X108500Y-101250
X108945Y-102245
X110601Y-101400
X111250Y-96550
X112250Y-77750
X112500Y-117000
X112550Y-111100
X113650Y-87150
X113700Y-96550
X113750Y-102950
X115500Y-77500
X116600Y-101400
X117000Y-103500
X118850Y-96550
X119200Y-89100
X119800Y-95475
X119800Y-98350
X121500Y-107500
X123350Y-75350
X124200Y-89800
X124250Y-99750
X124400Y-94200
X125650Y-85350
X126425Y-84000
X126600Y-76500
X127750Y-81250
X128150Y-86200
X129200Y-87725
X130250Y-111250
X131600Y-86275
X132600Y-84900
X132700Y-76600
X132700Y-77600
X133500Y-83050
X137150Y-90400
T2
X82750Y-94800
X82750Y-117800
X85250Y-94800
X90250Y-94800
X90250Y-117800
X92750Y-94800
X92750Y-117800
X126500Y-95500
X126500Y-118500
X129000Y-95500
X134000Y-95500
X134000Y-118500
X136500Y-95500
X136500Y-118500
T3
X65000Y-132500
X67500Y-132500
X54500Y-132500
X57000Y-132500
T4
X85400Y-70800
X87900Y-70800
X84320Y-127300
X84320Y-129840
X86860Y-127300
X86860Y-129840
X89400Y-127300
X89400Y-129840
X91940Y-127300
X91940Y-129840
X94480Y-127300
X94480Y-129840
X97020Y-127300
X97020Y-129840
X99560Y-127300
X99560Y-129840
X102100Y-127300
X102100Y-129840
X41150Y-133900
X45650Y-133900
X126600Y-71000
X129100Y-71000
X45900Y-70600
X48400Y-70600
X23100Y-70600
X25600Y-70600
T5
X113960Y-63500
X113960Y-68580
X116500Y-63500
X116500Y-68580
X72860Y-63300
X72860Y-68380
X75400Y-63300
X75400Y-68380
X21180Y-76690
X21180Y-79230
X21180Y-81770
X21180Y-84310
X21180Y-86850
X21180Y-89390
X21180Y-91930
X21180Y-94470
X21180Y-97010
X21180Y-99550
X21180Y-102090
X21180Y-104630
X21180Y-107170
X21180Y-109710
X21180Y-112250
X21180Y-114790
X21180Y-117330
X21180Y-119870
X21180Y-122410
X21180Y-124950
X21180Y-127490
X21180Y-130030
X21180Y-132570
X21180Y-135110
X36420Y-76690
X36420Y-79230
X36420Y-81770
X36420Y-84310
X36420Y-86850
X36420Y-89390
X36420Y-91930
X36420Y-94470
X36420Y-97010
X36420Y-99550
X36420Y-102090
X36420Y-104630
X36420Y-107170
X36420Y-109710
X36420Y-112250
X36420Y-114790
X36420Y-117330
X36420Y-119870
X36420Y-122410
X36420Y-124950
X36420Y-127490
X36420Y-130030
X36420Y-132570
X36420Y-135110
T6
X79750Y-97300
X95750Y-115300
X123500Y-98000
X139500Y-116000
T7
X39900Y-131400
X46900Y-131400
T8
X20500Y-65500
X30700Y-65500
X82800Y-65700
X93000Y-65700
X124000Y-65900
X134200Y-65900
X43300Y-65500
X53500Y-65500
T9
X62000Y-66000
X44000Y-91000
X136500Y-126500
X104000Y-66000
T0
M30
