G04 #@! TF.GenerationSoftware,KiCad,Pcbnew,5.0.2-bee76a0~70~ubuntu18.04.1*
G04 #@! TF.CreationDate,2019-02-25T20:46:02+02:00*
G04 #@! TF.ProjectId,stimjim,7374696d-6a69-46d2-9e6b-696361645f70,rev?*
G04 #@! TF.SameCoordinates,Original*
G04 #@! TF.FileFunction,Legend,Bot*
G04 #@! TF.FilePolarity,Positive*
%FSLAX46Y46*%
G04 Gerber Fmt 4.6, Leading zero omitted, Abs format (unit mm)*
G04 Created by KiCad (PCBNEW 5.0.2-bee76a0~70~ubuntu18.04.1) date Mon Feb 25 20:46:02 2019*
%MOMM*%
%LPD*%
G01*
G04 APERTURE LIST*
%ADD10C,0.600000*%
%ADD11C,0.250000*%
%ADD12C,0.120000*%
%ADD13C,0.150000*%
G04 APERTURE END LIST*
D10*
X129854262Y-134236096D02*
G75*
G03X131050666Y-134216513I596405J119582D01*
G01*
X129850666Y-131716514D02*
X129850666Y-133966514D01*
X127535714Y-133758308D02*
X127535714Y-131758308D01*
X127535714Y-132044023D02*
X127392857Y-131901166D01*
X127107142Y-131758308D01*
X126678571Y-131758308D01*
X126392857Y-131901166D01*
X126250000Y-132186880D01*
X126250000Y-133758308D01*
X126250000Y-132186880D02*
X126107142Y-131901166D01*
X125821428Y-131758308D01*
X125392857Y-131758308D01*
X125107142Y-131901166D01*
X124964285Y-132186880D01*
X124964285Y-133758308D01*
X129850666Y-130716514D02*
X129600666Y-130716514D01*
X128700666Y-131716514D02*
X128700666Y-133716514D01*
X130707808Y-128252228D02*
X130993523Y-128109371D01*
X131564951Y-128109371D01*
X131850666Y-128252228D01*
X131993523Y-128537942D01*
X131993523Y-128680799D01*
X131850666Y-128966514D01*
X131564951Y-129109371D01*
X131136380Y-129109371D01*
X130850666Y-129252228D01*
X130707808Y-129537942D01*
X130707808Y-129680799D01*
X130850666Y-129966514D01*
X131136380Y-130109371D01*
X131564951Y-130109371D01*
X131850666Y-129966514D01*
D11*
X116750000Y-128535714D02*
X116511904Y-129202380D01*
X116273809Y-128535714D01*
X115702380Y-128202380D02*
X115607142Y-128202380D01*
X115511904Y-128250000D01*
X115464285Y-128297619D01*
X115416666Y-128392857D01*
X115369047Y-128583333D01*
X115369047Y-128821428D01*
X115416666Y-129011904D01*
X115464285Y-129107142D01*
X115511904Y-129154761D01*
X115607142Y-129202380D01*
X115702380Y-129202380D01*
X115797619Y-129154761D01*
X115845238Y-129107142D01*
X115892857Y-129011904D01*
X115940476Y-128821428D01*
X115940476Y-128583333D01*
X115892857Y-128392857D01*
X115845238Y-128297619D01*
X115797619Y-128250000D01*
X115702380Y-128202380D01*
X114940476Y-129107142D02*
X114892857Y-129154761D01*
X114940476Y-129202380D01*
X114988095Y-129154761D01*
X114940476Y-129107142D01*
X114940476Y-129202380D01*
X113940476Y-129202380D02*
X114511904Y-129202380D01*
X114226190Y-129202380D02*
X114226190Y-128202380D01*
X114321428Y-128345238D01*
X114416666Y-128440476D01*
X114511904Y-128488095D01*
X113083333Y-128202380D02*
X113273809Y-128202380D01*
X113369047Y-128250000D01*
X113416666Y-128297619D01*
X113511904Y-128440476D01*
X113559523Y-128630952D01*
X113559523Y-129011904D01*
X113511904Y-129107142D01*
X113464285Y-129154761D01*
X113369047Y-129202380D01*
X113178571Y-129202380D01*
X113083333Y-129154761D01*
X113035714Y-129107142D01*
X112988095Y-129011904D01*
X112988095Y-128773809D01*
X113035714Y-128678571D01*
X113083333Y-128630952D01*
X113178571Y-128583333D01*
X113369047Y-128583333D01*
X113464285Y-128630952D01*
X113511904Y-128678571D01*
X113559523Y-128773809D01*
X111797619Y-129202380D02*
X111797619Y-128202380D01*
X111797619Y-128583333D02*
X111702380Y-128535714D01*
X111511904Y-128535714D01*
X111416666Y-128583333D01*
X111369047Y-128630952D01*
X111321428Y-128726190D01*
X111321428Y-129011904D01*
X111369047Y-129107142D01*
X111416666Y-129154761D01*
X111511904Y-129202380D01*
X111702380Y-129202380D01*
X111797619Y-129154761D01*
X110988095Y-128535714D02*
X110750000Y-129202380D01*
X110511904Y-128535714D02*
X110750000Y-129202380D01*
X110845238Y-129440476D01*
X110892857Y-129488095D01*
X110988095Y-129535714D01*
X119083333Y-130285714D02*
X119083333Y-130952380D01*
X119083333Y-130380952D02*
X119035714Y-130333333D01*
X118940476Y-130285714D01*
X118797619Y-130285714D01*
X118702380Y-130333333D01*
X118654761Y-130428571D01*
X118654761Y-130952380D01*
X117750000Y-130952380D02*
X117750000Y-130428571D01*
X117797619Y-130333333D01*
X117892857Y-130285714D01*
X118083333Y-130285714D01*
X118178571Y-130333333D01*
X117750000Y-130904761D02*
X117845238Y-130952380D01*
X118083333Y-130952380D01*
X118178571Y-130904761D01*
X118226190Y-130809523D01*
X118226190Y-130714285D01*
X118178571Y-130619047D01*
X118083333Y-130571428D01*
X117845238Y-130571428D01*
X117750000Y-130523809D01*
X117416666Y-130285714D02*
X117035714Y-130285714D01*
X117273809Y-129952380D02*
X117273809Y-130809523D01*
X117226190Y-130904761D01*
X117130952Y-130952380D01*
X117035714Y-130952380D01*
X116321428Y-130904761D02*
X116416666Y-130952380D01*
X116607142Y-130952380D01*
X116702380Y-130904761D01*
X116750000Y-130809523D01*
X116750000Y-130428571D01*
X116702380Y-130333333D01*
X116607142Y-130285714D01*
X116416666Y-130285714D01*
X116321428Y-130333333D01*
X116273809Y-130428571D01*
X116273809Y-130523809D01*
X116750000Y-130619047D01*
X114654761Y-130904761D02*
X114750000Y-130952380D01*
X114940476Y-130952380D01*
X115035714Y-130904761D01*
X115083333Y-130857142D01*
X115130952Y-130761904D01*
X115130952Y-130476190D01*
X115083333Y-130380952D01*
X115035714Y-130333333D01*
X114940476Y-130285714D01*
X114750000Y-130285714D01*
X114654761Y-130333333D01*
X113845238Y-130904761D02*
X113940476Y-130952380D01*
X114130952Y-130952380D01*
X114226190Y-130904761D01*
X114273809Y-130809523D01*
X114273809Y-130428571D01*
X114226190Y-130333333D01*
X114130952Y-130285714D01*
X113940476Y-130285714D01*
X113845238Y-130333333D01*
X113797619Y-130428571D01*
X113797619Y-130523809D01*
X114273809Y-130619047D01*
X113369047Y-130952380D02*
X113369047Y-130285714D01*
X113369047Y-130476190D02*
X113321428Y-130380952D01*
X113273809Y-130333333D01*
X113178571Y-130285714D01*
X113083333Y-130285714D01*
X112750000Y-130952380D02*
X112750000Y-130285714D01*
X112750000Y-130380952D02*
X112702380Y-130333333D01*
X112607142Y-130285714D01*
X112464285Y-130285714D01*
X112369047Y-130333333D01*
X112321428Y-130428571D01*
X112321428Y-130952380D01*
X112321428Y-130428571D02*
X112273809Y-130333333D01*
X112178571Y-130285714D01*
X112035714Y-130285714D01*
X111940476Y-130333333D01*
X111892857Y-130428571D01*
X111892857Y-130952380D01*
X110988095Y-130952380D02*
X110988095Y-130428571D01*
X111035714Y-130333333D01*
X111130952Y-130285714D01*
X111321428Y-130285714D01*
X111416666Y-130333333D01*
X110988095Y-130904761D02*
X111083333Y-130952380D01*
X111321428Y-130952380D01*
X111416666Y-130904761D01*
X111464285Y-130809523D01*
X111464285Y-130714285D01*
X111416666Y-130619047D01*
X111321428Y-130571428D01*
X111083333Y-130571428D01*
X110988095Y-130523809D01*
X110511904Y-130952380D02*
X110511904Y-129952380D01*
X110416666Y-130571428D02*
X110130952Y-130952380D01*
X110130952Y-130285714D02*
X110511904Y-130666666D01*
X108130952Y-130952380D02*
X108178571Y-130952380D01*
X108273809Y-130904761D01*
X108416666Y-130761904D01*
X108654761Y-130476190D01*
X108750000Y-130333333D01*
X108797619Y-130190476D01*
X108797619Y-130095238D01*
X108750000Y-130000000D01*
X108654761Y-129952380D01*
X108607142Y-129952380D01*
X108511904Y-130000000D01*
X108464285Y-130095238D01*
X108464285Y-130142857D01*
X108511904Y-130238095D01*
X108559523Y-130285714D01*
X108845238Y-130476190D01*
X108892857Y-130523809D01*
X108940476Y-130619047D01*
X108940476Y-130761904D01*
X108892857Y-130857142D01*
X108845238Y-130904761D01*
X108750000Y-130952380D01*
X108607142Y-130952380D01*
X108511904Y-130904761D01*
X108464285Y-130857142D01*
X108321428Y-130666666D01*
X108273809Y-130523809D01*
X108273809Y-130428571D01*
X117511904Y-132035714D02*
X117511904Y-132892857D01*
X117559523Y-132988095D01*
X117654761Y-133035714D01*
X117702380Y-133035714D01*
X117511904Y-131702380D02*
X117559523Y-131750000D01*
X117511904Y-131797619D01*
X117464285Y-131750000D01*
X117511904Y-131702380D01*
X117511904Y-131797619D01*
X116892857Y-132702380D02*
X116988095Y-132654761D01*
X117035714Y-132607142D01*
X117083333Y-132511904D01*
X117083333Y-132226190D01*
X117035714Y-132130952D01*
X116988095Y-132083333D01*
X116892857Y-132035714D01*
X116750000Y-132035714D01*
X116654761Y-132083333D01*
X116607142Y-132130952D01*
X116559523Y-132226190D01*
X116559523Y-132511904D01*
X116607142Y-132607142D01*
X116654761Y-132654761D01*
X116750000Y-132702380D01*
X116892857Y-132702380D01*
X116130952Y-132035714D02*
X116130952Y-132702380D01*
X116130952Y-132130952D02*
X116083333Y-132083333D01*
X115988095Y-132035714D01*
X115845238Y-132035714D01*
X115750000Y-132083333D01*
X115702380Y-132178571D01*
X115702380Y-132702380D01*
X114464285Y-132035714D02*
X114464285Y-132702380D01*
X114464285Y-132130952D02*
X114416666Y-132083333D01*
X114321428Y-132035714D01*
X114178571Y-132035714D01*
X114083333Y-132083333D01*
X114035714Y-132178571D01*
X114035714Y-132702380D01*
X113178571Y-132654761D02*
X113273809Y-132702380D01*
X113464285Y-132702380D01*
X113559523Y-132654761D01*
X113607142Y-132559523D01*
X113607142Y-132178571D01*
X113559523Y-132083333D01*
X113464285Y-132035714D01*
X113273809Y-132035714D01*
X113178571Y-132083333D01*
X113130952Y-132178571D01*
X113130952Y-132273809D01*
X113607142Y-132369047D01*
X112797619Y-132035714D02*
X112607142Y-132702380D01*
X112416666Y-132226190D01*
X112226190Y-132702380D01*
X112035714Y-132035714D01*
X111654761Y-132702380D02*
X111654761Y-132035714D01*
X111654761Y-132130952D02*
X111607142Y-132083333D01*
X111511904Y-132035714D01*
X111369047Y-132035714D01*
X111273809Y-132083333D01*
X111226190Y-132178571D01*
X111226190Y-132702380D01*
X111226190Y-132178571D02*
X111178571Y-132083333D01*
X111083333Y-132035714D01*
X110940476Y-132035714D01*
X110845238Y-132083333D01*
X110797619Y-132178571D01*
X110797619Y-132702380D01*
X109892857Y-132702380D02*
X109892857Y-132178571D01*
X109940476Y-132083333D01*
X110035714Y-132035714D01*
X110226190Y-132035714D01*
X110321428Y-132083333D01*
X109892857Y-132654761D02*
X109988095Y-132702380D01*
X110226190Y-132702380D01*
X110321428Y-132654761D01*
X110369047Y-132559523D01*
X110369047Y-132464285D01*
X110321428Y-132369047D01*
X110226190Y-132321428D01*
X109988095Y-132321428D01*
X109892857Y-132273809D01*
X109416666Y-132035714D02*
X109416666Y-132702380D01*
X109416666Y-132130952D02*
X109369047Y-132083333D01*
X109273809Y-132035714D01*
X109130952Y-132035714D01*
X109035714Y-132083333D01*
X108988095Y-132178571D01*
X108988095Y-132702380D01*
D10*
X128700666Y-128716514D02*
X128700666Y-130716514D01*
X127535714Y-130758308D02*
X127535714Y-128758308D01*
X127535714Y-129044023D02*
X127392857Y-128901166D01*
X127107142Y-128758308D01*
X126678571Y-128758308D01*
X126392857Y-128901166D01*
X126250000Y-129186880D01*
X126250000Y-130758308D01*
X126250000Y-129186880D02*
X126107142Y-128901166D01*
X125821428Y-128758308D01*
X125392857Y-128758308D01*
X125107142Y-128901166D01*
X124964285Y-129186880D01*
X124964285Y-130758308D01*
X130400666Y-128216514D02*
X129300666Y-128216514D01*
X129850666Y-130716514D02*
X129850666Y-127216514D01*
X121000000Y-130451166D02*
X122500000Y-130451166D01*
X122500000Y-130451166D02*
X122000000Y-127951166D01*
X122750000Y-133701166D02*
X121000000Y-130451166D01*
X122000000Y-127951166D02*
X124250000Y-131451166D01*
X124250000Y-131451166D02*
X122500000Y-131451166D01*
X122500000Y-131451166D02*
X122750000Y-133701166D01*
X129850666Y-133966514D02*
X129850666Y-134216514D01*
D12*
G04 #@! TO.C,C53*
X85610000Y-112135436D02*
X85610000Y-113339564D01*
X82890000Y-112135436D02*
X82890000Y-113339564D01*
G04 #@! TO.C,C54*
X126640000Y-112160436D02*
X126640000Y-113364564D01*
X129360000Y-112160436D02*
X129360000Y-113364564D01*
G04 #@! TO.C,R19*
X90360000Y-112147936D02*
X90360000Y-113352064D01*
X87640000Y-112147936D02*
X87640000Y-113352064D01*
G04 #@! TO.C,R20*
X131390000Y-112147936D02*
X131390000Y-113352064D01*
X134110000Y-112147936D02*
X134110000Y-113352064D01*
G04 #@! TO.C,C29*
X127410000Y-100102064D02*
X127410000Y-98897936D01*
X125590000Y-100102064D02*
X125590000Y-98897936D01*
G04 #@! TO.C,C28*
X130902064Y-118010000D02*
X129697936Y-118010000D01*
X130902064Y-116190000D02*
X129697936Y-116190000D01*
G04 #@! TO.C,C30*
X135590000Y-98897936D02*
X135590000Y-100102064D01*
X137410000Y-98897936D02*
X137410000Y-100102064D01*
G04 #@! TO.C,C4*
X82090000Y-99352064D02*
X82090000Y-98147936D01*
X83910000Y-99352064D02*
X83910000Y-98147936D01*
G04 #@! TO.C,C5*
X92090000Y-98147936D02*
X92090000Y-99352064D01*
X93910000Y-98147936D02*
X93910000Y-99352064D01*
G04 #@! TO.C,C3*
X87102064Y-117910000D02*
X85897936Y-117910000D01*
X87102064Y-116090000D02*
X85897936Y-116090000D01*
G04 #@! TO.C,C53*
D13*
X82327142Y-112094642D02*
X82374761Y-112047023D01*
X82422380Y-111904166D01*
X82422380Y-111808928D01*
X82374761Y-111666071D01*
X82279523Y-111570833D01*
X82184285Y-111523214D01*
X81993809Y-111475595D01*
X81850952Y-111475595D01*
X81660476Y-111523214D01*
X81565238Y-111570833D01*
X81470000Y-111666071D01*
X81422380Y-111808928D01*
X81422380Y-111904166D01*
X81470000Y-112047023D01*
X81517619Y-112094642D01*
X81422380Y-112999404D02*
X81422380Y-112523214D01*
X81898571Y-112475595D01*
X81850952Y-112523214D01*
X81803333Y-112618452D01*
X81803333Y-112856547D01*
X81850952Y-112951785D01*
X81898571Y-112999404D01*
X81993809Y-113047023D01*
X82231904Y-113047023D01*
X82327142Y-112999404D01*
X82374761Y-112951785D01*
X82422380Y-112856547D01*
X82422380Y-112618452D01*
X82374761Y-112523214D01*
X82327142Y-112475595D01*
X81422380Y-113380357D02*
X81422380Y-113999404D01*
X81803333Y-113666071D01*
X81803333Y-113808928D01*
X81850952Y-113904166D01*
X81898571Y-113951785D01*
X81993809Y-113999404D01*
X82231904Y-113999404D01*
X82327142Y-113951785D01*
X82374761Y-113904166D01*
X82422380Y-113808928D01*
X82422380Y-113523214D01*
X82374761Y-113427976D01*
X82327142Y-113380357D01*
G04 #@! TO.C,C54*
X126077142Y-112119642D02*
X126124761Y-112072023D01*
X126172380Y-111929166D01*
X126172380Y-111833928D01*
X126124761Y-111691071D01*
X126029523Y-111595833D01*
X125934285Y-111548214D01*
X125743809Y-111500595D01*
X125600952Y-111500595D01*
X125410476Y-111548214D01*
X125315238Y-111595833D01*
X125220000Y-111691071D01*
X125172380Y-111833928D01*
X125172380Y-111929166D01*
X125220000Y-112072023D01*
X125267619Y-112119642D01*
X125172380Y-113024404D02*
X125172380Y-112548214D01*
X125648571Y-112500595D01*
X125600952Y-112548214D01*
X125553333Y-112643452D01*
X125553333Y-112881547D01*
X125600952Y-112976785D01*
X125648571Y-113024404D01*
X125743809Y-113072023D01*
X125981904Y-113072023D01*
X126077142Y-113024404D01*
X126124761Y-112976785D01*
X126172380Y-112881547D01*
X126172380Y-112643452D01*
X126124761Y-112548214D01*
X126077142Y-112500595D01*
X125505714Y-113929166D02*
X126172380Y-113929166D01*
X125124761Y-113691071D02*
X125839047Y-113452976D01*
X125839047Y-114072023D01*
G04 #@! TO.C,R19*
X91702380Y-112107142D02*
X91226190Y-111773809D01*
X91702380Y-111535714D02*
X90702380Y-111535714D01*
X90702380Y-111916666D01*
X90750000Y-112011904D01*
X90797619Y-112059523D01*
X90892857Y-112107142D01*
X91035714Y-112107142D01*
X91130952Y-112059523D01*
X91178571Y-112011904D01*
X91226190Y-111916666D01*
X91226190Y-111535714D01*
X91702380Y-113059523D02*
X91702380Y-112488095D01*
X91702380Y-112773809D02*
X90702380Y-112773809D01*
X90845238Y-112678571D01*
X90940476Y-112583333D01*
X90988095Y-112488095D01*
X91702380Y-113535714D02*
X91702380Y-113726190D01*
X91654761Y-113821428D01*
X91607142Y-113869047D01*
X91464285Y-113964285D01*
X91273809Y-114011904D01*
X90892857Y-114011904D01*
X90797619Y-113964285D01*
X90750000Y-113916666D01*
X90702380Y-113821428D01*
X90702380Y-113630952D01*
X90750000Y-113535714D01*
X90797619Y-113488095D01*
X90892857Y-113440476D01*
X91130952Y-113440476D01*
X91226190Y-113488095D01*
X91273809Y-113535714D01*
X91321428Y-113630952D01*
X91321428Y-113821428D01*
X91273809Y-113916666D01*
X91226190Y-113964285D01*
X91130952Y-114011904D01*
G04 #@! TO.C,R20*
X135202380Y-112107142D02*
X134726190Y-111773809D01*
X135202380Y-111535714D02*
X134202380Y-111535714D01*
X134202380Y-111916666D01*
X134250000Y-112011904D01*
X134297619Y-112059523D01*
X134392857Y-112107142D01*
X134535714Y-112107142D01*
X134630952Y-112059523D01*
X134678571Y-112011904D01*
X134726190Y-111916666D01*
X134726190Y-111535714D01*
X134297619Y-112488095D02*
X134250000Y-112535714D01*
X134202380Y-112630952D01*
X134202380Y-112869047D01*
X134250000Y-112964285D01*
X134297619Y-113011904D01*
X134392857Y-113059523D01*
X134488095Y-113059523D01*
X134630952Y-113011904D01*
X135202380Y-112440476D01*
X135202380Y-113059523D01*
X134202380Y-113678571D02*
X134202380Y-113773809D01*
X134250000Y-113869047D01*
X134297619Y-113916666D01*
X134392857Y-113964285D01*
X134583333Y-114011904D01*
X134821428Y-114011904D01*
X135011904Y-113964285D01*
X135107142Y-113916666D01*
X135154761Y-113869047D01*
X135202380Y-113773809D01*
X135202380Y-113678571D01*
X135154761Y-113583333D01*
X135107142Y-113535714D01*
X135011904Y-113488095D01*
X134821428Y-113440476D01*
X134583333Y-113440476D01*
X134392857Y-113488095D01*
X134297619Y-113535714D01*
X134250000Y-113583333D01*
X134202380Y-113678571D01*
G04 #@! TO.C,C29*
X128677142Y-98857142D02*
X128724761Y-98809523D01*
X128772380Y-98666666D01*
X128772380Y-98571428D01*
X128724761Y-98428571D01*
X128629523Y-98333333D01*
X128534285Y-98285714D01*
X128343809Y-98238095D01*
X128200952Y-98238095D01*
X128010476Y-98285714D01*
X127915238Y-98333333D01*
X127820000Y-98428571D01*
X127772380Y-98571428D01*
X127772380Y-98666666D01*
X127820000Y-98809523D01*
X127867619Y-98857142D01*
X127867619Y-99238095D02*
X127820000Y-99285714D01*
X127772380Y-99380952D01*
X127772380Y-99619047D01*
X127820000Y-99714285D01*
X127867619Y-99761904D01*
X127962857Y-99809523D01*
X128058095Y-99809523D01*
X128200952Y-99761904D01*
X128772380Y-99190476D01*
X128772380Y-99809523D01*
X128772380Y-100285714D02*
X128772380Y-100476190D01*
X128724761Y-100571428D01*
X128677142Y-100619047D01*
X128534285Y-100714285D01*
X128343809Y-100761904D01*
X127962857Y-100761904D01*
X127867619Y-100714285D01*
X127820000Y-100666666D01*
X127772380Y-100571428D01*
X127772380Y-100380952D01*
X127820000Y-100285714D01*
X127867619Y-100238095D01*
X127962857Y-100190476D01*
X128200952Y-100190476D01*
X128296190Y-100238095D01*
X128343809Y-100285714D01*
X128391428Y-100380952D01*
X128391428Y-100571428D01*
X128343809Y-100666666D01*
X128296190Y-100714285D01*
X128200952Y-100761904D01*
G04 #@! TO.C,C28*
X130892857Y-119357142D02*
X130940476Y-119404761D01*
X131083333Y-119452380D01*
X131178571Y-119452380D01*
X131321428Y-119404761D01*
X131416666Y-119309523D01*
X131464285Y-119214285D01*
X131511904Y-119023809D01*
X131511904Y-118880952D01*
X131464285Y-118690476D01*
X131416666Y-118595238D01*
X131321428Y-118500000D01*
X131178571Y-118452380D01*
X131083333Y-118452380D01*
X130940476Y-118500000D01*
X130892857Y-118547619D01*
X130511904Y-118547619D02*
X130464285Y-118500000D01*
X130369047Y-118452380D01*
X130130952Y-118452380D01*
X130035714Y-118500000D01*
X129988095Y-118547619D01*
X129940476Y-118642857D01*
X129940476Y-118738095D01*
X129988095Y-118880952D01*
X130559523Y-119452380D01*
X129940476Y-119452380D01*
X129369047Y-118880952D02*
X129464285Y-118833333D01*
X129511904Y-118785714D01*
X129559523Y-118690476D01*
X129559523Y-118642857D01*
X129511904Y-118547619D01*
X129464285Y-118500000D01*
X129369047Y-118452380D01*
X129178571Y-118452380D01*
X129083333Y-118500000D01*
X129035714Y-118547619D01*
X128988095Y-118642857D01*
X128988095Y-118690476D01*
X129035714Y-118785714D01*
X129083333Y-118833333D01*
X129178571Y-118880952D01*
X129369047Y-118880952D01*
X129464285Y-118928571D01*
X129511904Y-118976190D01*
X129559523Y-119071428D01*
X129559523Y-119261904D01*
X129511904Y-119357142D01*
X129464285Y-119404761D01*
X129369047Y-119452380D01*
X129178571Y-119452380D01*
X129083333Y-119404761D01*
X129035714Y-119357142D01*
X128988095Y-119261904D01*
X128988095Y-119071428D01*
X129035714Y-118976190D01*
X129083333Y-118928571D01*
X129178571Y-118880952D01*
G04 #@! TO.C,C30*
X135037142Y-98857142D02*
X135084761Y-98809523D01*
X135132380Y-98666666D01*
X135132380Y-98571428D01*
X135084761Y-98428571D01*
X134989523Y-98333333D01*
X134894285Y-98285714D01*
X134703809Y-98238095D01*
X134560952Y-98238095D01*
X134370476Y-98285714D01*
X134275238Y-98333333D01*
X134180000Y-98428571D01*
X134132380Y-98571428D01*
X134132380Y-98666666D01*
X134180000Y-98809523D01*
X134227619Y-98857142D01*
X134132380Y-99190476D02*
X134132380Y-99809523D01*
X134513333Y-99476190D01*
X134513333Y-99619047D01*
X134560952Y-99714285D01*
X134608571Y-99761904D01*
X134703809Y-99809523D01*
X134941904Y-99809523D01*
X135037142Y-99761904D01*
X135084761Y-99714285D01*
X135132380Y-99619047D01*
X135132380Y-99333333D01*
X135084761Y-99238095D01*
X135037142Y-99190476D01*
X134132380Y-100428571D02*
X134132380Y-100523809D01*
X134180000Y-100619047D01*
X134227619Y-100666666D01*
X134322857Y-100714285D01*
X134513333Y-100761904D01*
X134751428Y-100761904D01*
X134941904Y-100714285D01*
X135037142Y-100666666D01*
X135084761Y-100619047D01*
X135132380Y-100523809D01*
X135132380Y-100428571D01*
X135084761Y-100333333D01*
X135037142Y-100285714D01*
X134941904Y-100238095D01*
X134751428Y-100190476D01*
X134513333Y-100190476D01*
X134322857Y-100238095D01*
X134227619Y-100285714D01*
X134180000Y-100333333D01*
X134132380Y-100428571D01*
G04 #@! TO.C,C4*
X84872143Y-98388334D02*
X84919762Y-98340715D01*
X84967381Y-98197858D01*
X84967381Y-98102620D01*
X84919762Y-97959762D01*
X84824524Y-97864524D01*
X84729286Y-97816905D01*
X84538810Y-97769286D01*
X84395953Y-97769286D01*
X84205477Y-97816905D01*
X84110239Y-97864524D01*
X84015001Y-97959762D01*
X83967381Y-98102620D01*
X83967381Y-98197858D01*
X84015001Y-98340715D01*
X84062620Y-98388334D01*
X84300715Y-99245477D02*
X84967381Y-99245477D01*
X83919762Y-99007381D02*
X84634048Y-98769286D01*
X84634048Y-99388334D01*
G04 #@! TO.C,C5*
X91537142Y-98583333D02*
X91584761Y-98535714D01*
X91632380Y-98392857D01*
X91632380Y-98297619D01*
X91584761Y-98154761D01*
X91489523Y-98059523D01*
X91394285Y-98011904D01*
X91203809Y-97964285D01*
X91060952Y-97964285D01*
X90870476Y-98011904D01*
X90775238Y-98059523D01*
X90680000Y-98154761D01*
X90632380Y-98297619D01*
X90632380Y-98392857D01*
X90680000Y-98535714D01*
X90727619Y-98583333D01*
X90632380Y-99488095D02*
X90632380Y-99011904D01*
X91108571Y-98964285D01*
X91060952Y-99011904D01*
X91013333Y-99107142D01*
X91013333Y-99345238D01*
X91060952Y-99440476D01*
X91108571Y-99488095D01*
X91203809Y-99535714D01*
X91441904Y-99535714D01*
X91537142Y-99488095D01*
X91584761Y-99440476D01*
X91632380Y-99345238D01*
X91632380Y-99107142D01*
X91584761Y-99011904D01*
X91537142Y-98964285D01*
G04 #@! TO.C,C3*
X86666666Y-119107142D02*
X86714285Y-119154761D01*
X86857142Y-119202380D01*
X86952380Y-119202380D01*
X87095238Y-119154761D01*
X87190476Y-119059523D01*
X87238095Y-118964285D01*
X87285714Y-118773809D01*
X87285714Y-118630952D01*
X87238095Y-118440476D01*
X87190476Y-118345238D01*
X87095238Y-118250000D01*
X86952380Y-118202380D01*
X86857142Y-118202380D01*
X86714285Y-118250000D01*
X86666666Y-118297619D01*
X86333333Y-118202380D02*
X85714285Y-118202380D01*
X86047619Y-118583333D01*
X85904761Y-118583333D01*
X85809523Y-118630952D01*
X85761904Y-118678571D01*
X85714285Y-118773809D01*
X85714285Y-119011904D01*
X85761904Y-119107142D01*
X85809523Y-119154761D01*
X85904761Y-119202380D01*
X86190476Y-119202380D01*
X86285714Y-119154761D01*
X86333333Y-119107142D01*
G04 #@! TD*
M02*
