M48
;DRILL file {KiCad 5.0.2-bee76a0~70~ubuntu18.04.1} date Mon Feb 25 13:51:26 2019
;FORMAT={3:3/ absolute / metric / suppress leading zeros}
FMAT,2
METRIC,TZ
T1C0.400
T2C0.762
T3C0.900
T4C1.000
T5C1.100
T6C1.200
T7C1.300
T8C2.000
T9C4.300
%
G90
G05
T1
X37000Y-78450
X38200Y-79650
X60000Y-89250
X64500Y-109250
X67100Y-92350
X70100Y-89750
X70100Y-94550
X70600Y-76750
X72775Y-98453
X73800Y-98350
X74200Y-99550
X74700Y-109250
X74900Y-79650
X75250Y-76000
X75300Y-73450
X75400Y-56150
X76400Y-99550
X76500Y-62000
X77000Y-79150
X77700Y-89750
X77700Y-94550
X77750Y-67250
X78000Y-79150
X78600Y-80150
X79000Y-94550
X80100Y-74650
X80300Y-79350
X81700Y-89750
X81700Y-94550
X82300Y-56150
X82900Y-74650
X83000Y-65500
X83400Y-80250
X85100Y-56250
X86400Y-79350
X86500Y-81250
X88300Y-74650
X89000Y-76000
X89200Y-73450
X90600Y-94650
X91200Y-67850
X93400Y-53150
X93400Y-67750
X94700Y-63636
X95500Y-78050
X96119Y-62956
X96500Y-54450
X96600Y-70550
X98100Y-63950
X98100Y-66050
X98200Y-59150
X101000Y-89000
X102600Y-54550
X102600Y-55650
X102600Y-63250
X103800Y-60950
X107413Y-67500
X114350Y-88850
X114500Y-94650
X115450Y-76000
X116300Y-72450
X117100Y-80350
X117500Y-98350
X119950Y-73225
X120000Y-76100
X120200Y-55500
X120750Y-98000
X121100Y-61250
X121800Y-78950
X122100Y-88850
X122200Y-94650
X122900Y-66550
X123000Y-79000
X123445Y-79995
X125101Y-79150
X125750Y-74300
X126750Y-55500
X127000Y-94750
X127050Y-88850
X128150Y-64900
X128200Y-74300
X128250Y-80700
X130000Y-55250
X131100Y-79150
X131500Y-81250
X133350Y-74300
X133700Y-66850
X134300Y-73225
X134300Y-76100
X136000Y-85250
X137850Y-53100
X138700Y-67550
X138750Y-77500
X138900Y-71950
X140150Y-63100
X140925Y-61750
X141100Y-54250
X142250Y-59000
X142650Y-63950
X143700Y-65475
X144750Y-89000
X146100Y-64025
X147100Y-62650
X147200Y-54350
X147200Y-55350
X148000Y-60800
X151650Y-68150
T2
X141000Y-73250
X141000Y-96250
X143500Y-73250
X148500Y-73250
X148500Y-96250
X151000Y-73250
X151000Y-96250
X97250Y-72550
X97250Y-95550
X99750Y-72550
X104750Y-72550
X104750Y-95550
X107250Y-72550
X107250Y-95550
T3
X79500Y-110250
X82000Y-110250
X69000Y-110250
X71500Y-110250
T4
X99900Y-48550
X102400Y-48550
X98820Y-105050
X98820Y-107590
X101360Y-105050
X101360Y-107590
X103900Y-105050
X103900Y-107590
X106440Y-105050
X106440Y-107590
X108980Y-105050
X108980Y-107590
X111520Y-105050
X111520Y-107590
X114060Y-105050
X114060Y-107590
X116600Y-105050
X116600Y-107590
X60400Y-48350
X62900Y-48350
X141100Y-48750
X143600Y-48750
X37600Y-48350
X40100Y-48350
X55650Y-111650
X60150Y-111650
T5
X35680Y-54440
X35680Y-56980
X35680Y-59520
X35680Y-62060
X35680Y-64600
X35680Y-67140
X35680Y-69680
X35680Y-72220
X35680Y-74760
X35680Y-77300
X35680Y-79840
X35680Y-82380
X35680Y-84920
X35680Y-87460
X35680Y-90000
X35680Y-92540
X35680Y-95080
X35680Y-97620
X35680Y-100160
X35680Y-102700
X35680Y-105240
X35680Y-107780
X35680Y-110320
X35680Y-112860
X50920Y-54440
X50920Y-56980
X50920Y-59520
X50920Y-62060
X50920Y-64600
X50920Y-67140
X50920Y-69680
X50920Y-72220
X50920Y-74760
X50920Y-77300
X50920Y-79840
X50920Y-82380
X50920Y-84920
X50920Y-87460
X50920Y-90000
X50920Y-92540
X50920Y-95080
X50920Y-97620
X50920Y-100160
X50920Y-102700
X50920Y-105240
X50920Y-107780
X50920Y-110320
X50920Y-112860
X87360Y-41050
X87360Y-46130
X89900Y-41050
X89900Y-46130
X128460Y-41250
X128460Y-46330
X131000Y-41250
X131000Y-46330
T6
X138000Y-75750
X154000Y-93750
X94250Y-75050
X110250Y-93050
T7
X54400Y-109150
X61400Y-109150
T8
X138500Y-43650
X148700Y-43650
X35000Y-43250
X45200Y-43250
X97300Y-43450
X107500Y-43450
X57800Y-43250
X68000Y-43250
T9
X58500Y-68750
X76500Y-43750
X151000Y-104250
X118500Y-43750
T0
M30
