G04 #@! TF.GenerationSoftware,KiCad,Pcbnew,5.0.2-bee76a0~70~ubuntu18.04.1*
G04 #@! TF.CreationDate,2019-02-25T13:51:23+02:00*
G04 #@! TF.ProjectId,CombinedPCB,436f6d62-696e-4656-9450-43422e6b6963,rev?*
G04 #@! TF.SameCoordinates,Original*
G04 #@! TF.FileFunction,Soldermask,Bot*
G04 #@! TF.FilePolarity,Negative*
%FSLAX46Y46*%
G04 Gerber Fmt 4.6, Leading zero omitted, Abs format (unit mm)*
G04 Created by KiCad (PCBNEW 5.0.2-bee76a0~70~ubuntu18.04.1) date Mon Feb 25 13:51:23 2019*
%MOMM*%
%LPD*%
G01*
G04 APERTURE LIST*
%ADD10C,0.100000*%
%ADD11C,0.150000*%
%ADD12C,0.300000*%
%ADD13C,0.400000*%
G04 APERTURE END LIST*
D10*
D11*
X177002200Y-166007200D02*
X177002200Y-198007200D01*
X285002200Y-198007200D01*
X285002200Y-166007200D01*
X177002200Y-166007200D01*
D10*
D11*
X10000000Y-10000000D02*
X10000000Y-200007200D01*
X287002200Y-200007200D01*
X287002200Y-10000000D01*
X10000000Y-10000000D01*
D10*
D11*
X12000000Y-12000000D02*
X12000000Y-198007200D01*
X285002200Y-198007200D01*
X285002200Y-12000000D01*
X12000000Y-12000000D01*
D10*
D11*
X60000000Y-12000000D02*
X60000000Y-10000000D01*
D10*
D11*
X110000000Y-12000000D02*
X110000000Y-10000000D01*
D10*
D11*
X160000000Y-12000000D02*
X160000000Y-10000000D01*
D10*
D11*
X210000000Y-12000000D02*
X210000000Y-10000000D01*
D10*
D11*
X260000000Y-12000000D02*
X260000000Y-10000000D01*
D10*
D11*
X36065476Y-11588095D02*
X35322619Y-11588095D01*
X35694047Y-11588095D02*
X35694047Y-10288095D01*
X35570238Y-10473809D01*
X35446428Y-10597619D01*
X35322619Y-10659523D01*
D10*
D11*
X85322619Y-10411904D02*
X85384523Y-10350000D01*
X85508333Y-10288095D01*
X85817857Y-10288095D01*
X85941666Y-10350000D01*
X86003571Y-10411904D01*
X86065476Y-10535714D01*
X86065476Y-10659523D01*
X86003571Y-10845238D01*
X85260714Y-11588095D01*
X86065476Y-11588095D01*
D10*
D11*
X135260714Y-10288095D02*
X136065476Y-10288095D01*
X135632142Y-10783333D01*
X135817857Y-10783333D01*
X135941666Y-10845238D01*
X136003571Y-10907142D01*
X136065476Y-11030952D01*
X136065476Y-11340476D01*
X136003571Y-11464285D01*
X135941666Y-11526190D01*
X135817857Y-11588095D01*
X135446428Y-11588095D01*
X135322619Y-11526190D01*
X135260714Y-11464285D01*
D10*
D11*
X185941666Y-10721428D02*
X185941666Y-11588095D01*
X185632142Y-10226190D02*
X185322619Y-11154761D01*
X186127380Y-11154761D01*
D10*
D11*
X236003571Y-10288095D02*
X235384523Y-10288095D01*
X235322619Y-10907142D01*
X235384523Y-10845238D01*
X235508333Y-10783333D01*
X235817857Y-10783333D01*
X235941666Y-10845238D01*
X236003571Y-10907142D01*
X236065476Y-11030952D01*
X236065476Y-11340476D01*
X236003571Y-11464285D01*
X235941666Y-11526190D01*
X235817857Y-11588095D01*
X235508333Y-11588095D01*
X235384523Y-11526190D01*
X235322619Y-11464285D01*
D10*
D11*
X285941666Y-10288095D02*
X285694047Y-10288095D01*
X285570238Y-10350000D01*
X285508333Y-10411904D01*
X285384523Y-10597619D01*
X285322619Y-10845238D01*
X285322619Y-11340476D01*
X285384523Y-11464285D01*
X285446428Y-11526190D01*
X285570238Y-11588095D01*
X285817857Y-11588095D01*
X285941666Y-11526190D01*
X286003571Y-11464285D01*
X286065476Y-11340476D01*
X286065476Y-11030952D01*
X286003571Y-10907142D01*
X285941666Y-10845238D01*
X285817857Y-10783333D01*
X285570238Y-10783333D01*
X285446428Y-10845238D01*
X285384523Y-10907142D01*
X285322619Y-11030952D01*
D10*
D11*
X60000000Y-198007200D02*
X60000000Y-200007200D01*
D10*
D11*
X110000000Y-198007200D02*
X110000000Y-200007200D01*
D10*
D11*
X160000000Y-198007200D02*
X160000000Y-200007200D01*
D10*
D11*
X210000000Y-198007200D02*
X210000000Y-200007200D01*
D10*
D11*
X260000000Y-198007200D02*
X260000000Y-200007200D01*
D10*
D11*
X36065476Y-199595295D02*
X35322619Y-199595295D01*
X35694047Y-199595295D02*
X35694047Y-198295295D01*
X35570238Y-198481009D01*
X35446428Y-198604819D01*
X35322619Y-198666723D01*
D10*
D11*
X85322619Y-198419104D02*
X85384523Y-198357200D01*
X85508333Y-198295295D01*
X85817857Y-198295295D01*
X85941666Y-198357200D01*
X86003571Y-198419104D01*
X86065476Y-198542914D01*
X86065476Y-198666723D01*
X86003571Y-198852438D01*
X85260714Y-199595295D01*
X86065476Y-199595295D01*
D10*
D11*
X135260714Y-198295295D02*
X136065476Y-198295295D01*
X135632142Y-198790533D01*
X135817857Y-198790533D01*
X135941666Y-198852438D01*
X136003571Y-198914342D01*
X136065476Y-199038152D01*
X136065476Y-199347676D01*
X136003571Y-199471485D01*
X135941666Y-199533390D01*
X135817857Y-199595295D01*
X135446428Y-199595295D01*
X135322619Y-199533390D01*
X135260714Y-199471485D01*
D10*
D11*
X185941666Y-198728628D02*
X185941666Y-199595295D01*
X185632142Y-198233390D02*
X185322619Y-199161961D01*
X186127380Y-199161961D01*
D10*
D11*
X236003571Y-198295295D02*
X235384523Y-198295295D01*
X235322619Y-198914342D01*
X235384523Y-198852438D01*
X235508333Y-198790533D01*
X235817857Y-198790533D01*
X235941666Y-198852438D01*
X236003571Y-198914342D01*
X236065476Y-199038152D01*
X236065476Y-199347676D01*
X236003571Y-199471485D01*
X235941666Y-199533390D01*
X235817857Y-199595295D01*
X235508333Y-199595295D01*
X235384523Y-199533390D01*
X235322619Y-199471485D01*
D10*
D11*
X285941666Y-198295295D02*
X285694047Y-198295295D01*
X285570238Y-198357200D01*
X285508333Y-198419104D01*
X285384523Y-198604819D01*
X285322619Y-198852438D01*
X285322619Y-199347676D01*
X285384523Y-199471485D01*
X285446428Y-199533390D01*
X285570238Y-199595295D01*
X285817857Y-199595295D01*
X285941666Y-199533390D01*
X286003571Y-199471485D01*
X286065476Y-199347676D01*
X286065476Y-199038152D01*
X286003571Y-198914342D01*
X285941666Y-198852438D01*
X285817857Y-198790533D01*
X285570238Y-198790533D01*
X285446428Y-198852438D01*
X285384523Y-198914342D01*
X285322619Y-199038152D01*
D10*
D11*
X10000000Y-60000000D02*
X12000000Y-60000000D01*
D10*
D11*
X10000000Y-110000000D02*
X12000000Y-110000000D01*
D10*
D11*
X10000000Y-160000000D02*
X12000000Y-160000000D01*
D10*
D11*
X10690476Y-35216666D02*
X11309523Y-35216666D01*
X10566666Y-35588095D02*
X11000000Y-34288095D01*
X11433333Y-35588095D01*
D10*
D11*
X11092857Y-84907142D02*
X11278571Y-84969047D01*
X11340476Y-85030952D01*
X11402380Y-85154761D01*
X11402380Y-85340476D01*
X11340476Y-85464285D01*
X11278571Y-85526190D01*
X11154761Y-85588095D01*
X10659523Y-85588095D01*
X10659523Y-84288095D01*
X11092857Y-84288095D01*
X11216666Y-84350000D01*
X11278571Y-84411904D01*
X11340476Y-84535714D01*
X11340476Y-84659523D01*
X11278571Y-84783333D01*
X11216666Y-84845238D01*
X11092857Y-84907142D01*
X10659523Y-84907142D01*
D10*
D11*
X11402380Y-135464285D02*
X11340476Y-135526190D01*
X11154761Y-135588095D01*
X11030952Y-135588095D01*
X10845238Y-135526190D01*
X10721428Y-135402380D01*
X10659523Y-135278571D01*
X10597619Y-135030952D01*
X10597619Y-134845238D01*
X10659523Y-134597619D01*
X10721428Y-134473809D01*
X10845238Y-134350000D01*
X11030952Y-134288095D01*
X11154761Y-134288095D01*
X11340476Y-134350000D01*
X11402380Y-134411904D01*
D10*
D11*
X10659523Y-185588095D02*
X10659523Y-184288095D01*
X10969047Y-184288095D01*
X11154761Y-184350000D01*
X11278571Y-184473809D01*
X11340476Y-184597619D01*
X11402380Y-184845238D01*
X11402380Y-185030952D01*
X11340476Y-185278571D01*
X11278571Y-185402380D01*
X11154761Y-185526190D01*
X10969047Y-185588095D01*
X10659523Y-185588095D01*
D10*
D11*
X287002200Y-60000000D02*
X285002200Y-60000000D01*
D10*
D11*
X287002200Y-110000000D02*
X285002200Y-110000000D01*
D10*
D11*
X287002200Y-160000000D02*
X285002200Y-160000000D01*
D10*
D11*
X285692676Y-35216666D02*
X286311723Y-35216666D01*
X285568866Y-35588095D02*
X286002200Y-34288095D01*
X286435533Y-35588095D01*
D10*
D11*
X286095057Y-84907142D02*
X286280771Y-84969047D01*
X286342676Y-85030952D01*
X286404580Y-85154761D01*
X286404580Y-85340476D01*
X286342676Y-85464285D01*
X286280771Y-85526190D01*
X286156961Y-85588095D01*
X285661723Y-85588095D01*
X285661723Y-84288095D01*
X286095057Y-84288095D01*
X286218866Y-84350000D01*
X286280771Y-84411904D01*
X286342676Y-84535714D01*
X286342676Y-84659523D01*
X286280771Y-84783333D01*
X286218866Y-84845238D01*
X286095057Y-84907142D01*
X285661723Y-84907142D01*
D10*
D11*
X286404580Y-135464285D02*
X286342676Y-135526190D01*
X286156961Y-135588095D01*
X286033152Y-135588095D01*
X285847438Y-135526190D01*
X285723628Y-135402380D01*
X285661723Y-135278571D01*
X285599819Y-135030952D01*
X285599819Y-134845238D01*
X285661723Y-134597619D01*
X285723628Y-134473809D01*
X285847438Y-134350000D01*
X286033152Y-134288095D01*
X286156961Y-134288095D01*
X286342676Y-134350000D01*
X286404580Y-134411904D01*
D10*
D11*
X285661723Y-185588095D02*
X285661723Y-184288095D01*
X285971247Y-184288095D01*
X286156961Y-184350000D01*
X286280771Y-184473809D01*
X286342676Y-184597619D01*
X286404580Y-184845238D01*
X286404580Y-185030952D01*
X286342676Y-185278571D01*
X286280771Y-185402380D01*
X286156961Y-185526190D01*
X285971247Y-185588095D01*
X285661723Y-185588095D01*
D10*
D11*
X200434342Y-193785771D02*
X200434342Y-192285771D01*
X200791485Y-192285771D01*
X201005771Y-192357200D01*
X201148628Y-192500057D01*
X201220057Y-192642914D01*
X201291485Y-192928628D01*
X201291485Y-193142914D01*
X201220057Y-193428628D01*
X201148628Y-193571485D01*
X201005771Y-193714342D01*
X200791485Y-193785771D01*
X200434342Y-193785771D01*
X202577200Y-193785771D02*
X202577200Y-193000057D01*
X202505771Y-192857200D01*
X202362914Y-192785771D01*
X202077200Y-192785771D01*
X201934342Y-192857200D01*
X202577200Y-193714342D02*
X202434342Y-193785771D01*
X202077200Y-193785771D01*
X201934342Y-193714342D01*
X201862914Y-193571485D01*
X201862914Y-193428628D01*
X201934342Y-193285771D01*
X202077200Y-193214342D01*
X202434342Y-193214342D01*
X202577200Y-193142914D01*
X203077200Y-192785771D02*
X203648628Y-192785771D01*
X203291485Y-192285771D02*
X203291485Y-193571485D01*
X203362914Y-193714342D01*
X203505771Y-193785771D01*
X203648628Y-193785771D01*
X204720057Y-193714342D02*
X204577200Y-193785771D01*
X204291485Y-193785771D01*
X204148628Y-193714342D01*
X204077200Y-193571485D01*
X204077200Y-193000057D01*
X204148628Y-192857200D01*
X204291485Y-192785771D01*
X204577200Y-192785771D01*
X204720057Y-192857200D01*
X204791485Y-193000057D01*
X204791485Y-193142914D01*
X204077200Y-193285771D01*
X205434342Y-193642914D02*
X205505771Y-193714342D01*
X205434342Y-193785771D01*
X205362914Y-193714342D01*
X205434342Y-193642914D01*
X205434342Y-193785771D01*
X205434342Y-192857200D02*
X205505771Y-192928628D01*
X205434342Y-193000057D01*
X205362914Y-192928628D01*
X205434342Y-192857200D01*
X205434342Y-193000057D01*
D10*
D11*
X177002200Y-194507200D02*
X285002200Y-194507200D01*
D10*
D11*
X178434342Y-196585771D02*
X178434342Y-195085771D01*
X179291485Y-196585771D02*
X178648628Y-195728628D01*
X179291485Y-195085771D02*
X178434342Y-195942914D01*
X179934342Y-196585771D02*
X179934342Y-195585771D01*
X179934342Y-195085771D02*
X179862914Y-195157200D01*
X179934342Y-195228628D01*
X180005771Y-195157200D01*
X179934342Y-195085771D01*
X179934342Y-195228628D01*
X181505771Y-196442914D02*
X181434342Y-196514342D01*
X181220057Y-196585771D01*
X181077200Y-196585771D01*
X180862914Y-196514342D01*
X180720057Y-196371485D01*
X180648628Y-196228628D01*
X180577200Y-195942914D01*
X180577200Y-195728628D01*
X180648628Y-195442914D01*
X180720057Y-195300057D01*
X180862914Y-195157200D01*
X181077200Y-195085771D01*
X181220057Y-195085771D01*
X181434342Y-195157200D01*
X181505771Y-195228628D01*
X182791485Y-196585771D02*
X182791485Y-195800057D01*
X182720057Y-195657200D01*
X182577200Y-195585771D01*
X182291485Y-195585771D01*
X182148628Y-195657200D01*
X182791485Y-196514342D02*
X182648628Y-196585771D01*
X182291485Y-196585771D01*
X182148628Y-196514342D01*
X182077200Y-196371485D01*
X182077200Y-196228628D01*
X182148628Y-196085771D01*
X182291485Y-196014342D01*
X182648628Y-196014342D01*
X182791485Y-195942914D01*
X184148628Y-196585771D02*
X184148628Y-195085771D01*
X184148628Y-196514342D02*
X184005771Y-196585771D01*
X183720057Y-196585771D01*
X183577200Y-196514342D01*
X183505771Y-196442914D01*
X183434342Y-196300057D01*
X183434342Y-195871485D01*
X183505771Y-195728628D01*
X183577200Y-195657200D01*
X183720057Y-195585771D01*
X184005771Y-195585771D01*
X184148628Y-195657200D01*
X186005771Y-195800057D02*
X186505771Y-195800057D01*
X186720057Y-196585771D02*
X186005771Y-196585771D01*
X186005771Y-195085771D01*
X186720057Y-195085771D01*
X187362914Y-196442914D02*
X187434342Y-196514342D01*
X187362914Y-196585771D01*
X187291485Y-196514342D01*
X187362914Y-196442914D01*
X187362914Y-196585771D01*
X188077200Y-196585771D02*
X188077200Y-195085771D01*
X188434342Y-195085771D01*
X188648628Y-195157200D01*
X188791485Y-195300057D01*
X188862914Y-195442914D01*
X188934342Y-195728628D01*
X188934342Y-195942914D01*
X188862914Y-196228628D01*
X188791485Y-196371485D01*
X188648628Y-196514342D01*
X188434342Y-196585771D01*
X188077200Y-196585771D01*
X189577200Y-196442914D02*
X189648628Y-196514342D01*
X189577200Y-196585771D01*
X189505771Y-196514342D01*
X189577200Y-196442914D01*
X189577200Y-196585771D01*
X190220057Y-196157200D02*
X190934342Y-196157200D01*
X190077200Y-196585771D02*
X190577200Y-195085771D01*
X191077200Y-196585771D01*
X191577200Y-196442914D02*
X191648628Y-196514342D01*
X191577200Y-196585771D01*
X191505771Y-196514342D01*
X191577200Y-196442914D01*
X191577200Y-196585771D01*
X194577200Y-195585771D02*
X194577200Y-197085771D01*
X194577200Y-195657200D02*
X194720057Y-195585771D01*
X195005771Y-195585771D01*
X195148628Y-195657200D01*
X195220057Y-195728628D01*
X195291485Y-195871485D01*
X195291485Y-196300057D01*
X195220057Y-196442914D01*
X195148628Y-196514342D01*
X195005771Y-196585771D01*
X194720057Y-196585771D01*
X194577200Y-196514342D01*
X196577200Y-196514342D02*
X196434342Y-196585771D01*
X196148628Y-196585771D01*
X196005771Y-196514342D01*
X195934342Y-196442914D01*
X195862914Y-196300057D01*
X195862914Y-195871485D01*
X195934342Y-195728628D01*
X196005771Y-195657200D01*
X196148628Y-195585771D01*
X196434342Y-195585771D01*
X196577200Y-195657200D01*
X197220057Y-196585771D02*
X197220057Y-195085771D01*
X197220057Y-195657200D02*
X197362914Y-195585771D01*
X197648628Y-195585771D01*
X197791485Y-195657200D01*
X197862914Y-195728628D01*
X197934342Y-195871485D01*
X197934342Y-196300057D01*
X197862914Y-196442914D01*
X197791485Y-196514342D01*
X197648628Y-196585771D01*
X197362914Y-196585771D01*
X197220057Y-196514342D01*
X198577200Y-195585771D02*
X198577200Y-196585771D01*
X198577200Y-195728628D02*
X198648628Y-195657200D01*
X198791485Y-195585771D01*
X199005771Y-195585771D01*
X199148628Y-195657200D01*
X199220057Y-195800057D01*
X199220057Y-196585771D01*
X200505771Y-196514342D02*
X200362914Y-196585771D01*
X200077200Y-196585771D01*
X199934342Y-196514342D01*
X199862914Y-196371485D01*
X199862914Y-195800057D01*
X199934342Y-195657200D01*
X200077200Y-195585771D01*
X200362914Y-195585771D01*
X200505771Y-195657200D01*
X200577200Y-195800057D01*
X200577200Y-195942914D01*
X199862914Y-196085771D01*
X201077200Y-195585771D02*
X201362914Y-196585771D01*
X201648628Y-195871485D01*
X201934342Y-196585771D01*
X202220057Y-195585771D01*
X204648628Y-195085771D02*
X203934342Y-195085771D01*
X203862914Y-195800057D01*
X203934342Y-195728628D01*
X204077200Y-195657200D01*
X204434342Y-195657200D01*
X204577200Y-195728628D01*
X204648628Y-195800057D01*
X204720057Y-195942914D01*
X204720057Y-196300057D01*
X204648628Y-196442914D01*
X204577200Y-196514342D01*
X204434342Y-196585771D01*
X204077200Y-196585771D01*
X203934342Y-196514342D01*
X203862914Y-196442914D01*
X205362914Y-196442914D02*
X205434342Y-196514342D01*
X205362914Y-196585771D01*
X205291485Y-196514342D01*
X205362914Y-196442914D01*
X205362914Y-196585771D01*
X206362914Y-195085771D02*
X206505771Y-195085771D01*
X206648628Y-195157200D01*
X206720057Y-195228628D01*
X206791485Y-195371485D01*
X206862914Y-195657200D01*
X206862914Y-196014342D01*
X206791485Y-196300057D01*
X206720057Y-196442914D01*
X206648628Y-196514342D01*
X206505771Y-196585771D01*
X206362914Y-196585771D01*
X206220057Y-196514342D01*
X206148628Y-196442914D01*
X206077200Y-196300057D01*
X206005771Y-196014342D01*
X206005771Y-195657200D01*
X206077200Y-195371485D01*
X206148628Y-195228628D01*
X206220057Y-195157200D01*
X206362914Y-195085771D01*
X207505771Y-196442914D02*
X207577200Y-196514342D01*
X207505771Y-196585771D01*
X207434342Y-196514342D01*
X207505771Y-196442914D01*
X207505771Y-196585771D01*
X208148628Y-195228628D02*
X208220057Y-195157200D01*
X208362914Y-195085771D01*
X208720057Y-195085771D01*
X208862914Y-195157200D01*
X208934342Y-195228628D01*
X209005771Y-195371485D01*
X209005771Y-195514342D01*
X208934342Y-195728628D01*
X208077200Y-196585771D01*
X209005771Y-196585771D01*
X209648628Y-196014342D02*
X210791485Y-196014342D01*
X211505771Y-196585771D02*
X211505771Y-195085771D01*
X211505771Y-195657200D02*
X211648628Y-195585771D01*
X211934342Y-195585771D01*
X212077200Y-195657200D01*
X212148628Y-195728628D01*
X212220057Y-195871485D01*
X212220057Y-196300057D01*
X212148628Y-196442914D01*
X212077200Y-196514342D01*
X211934342Y-196585771D01*
X211648628Y-196585771D01*
X211505771Y-196514342D01*
X213434342Y-196514342D02*
X213291485Y-196585771D01*
X213005771Y-196585771D01*
X212862914Y-196514342D01*
X212791485Y-196371485D01*
X212791485Y-195800057D01*
X212862914Y-195657200D01*
X213005771Y-195585771D01*
X213291485Y-195585771D01*
X213434342Y-195657200D01*
X213505771Y-195800057D01*
X213505771Y-195942914D01*
X212791485Y-196085771D01*
X214720057Y-196514342D02*
X214577200Y-196585771D01*
X214291485Y-196585771D01*
X214148628Y-196514342D01*
X214077200Y-196371485D01*
X214077200Y-195800057D01*
X214148628Y-195657200D01*
X214291485Y-195585771D01*
X214577200Y-195585771D01*
X214720057Y-195657200D01*
X214791485Y-195800057D01*
X214791485Y-195942914D01*
X214077200Y-196085771D01*
X215291485Y-195085771D02*
X216291485Y-195085771D01*
X215648628Y-196585771D01*
X217505771Y-195085771D02*
X217220057Y-195085771D01*
X217077200Y-195157200D01*
X217005771Y-195228628D01*
X216862914Y-195442914D01*
X216791485Y-195728628D01*
X216791485Y-196300057D01*
X216862914Y-196442914D01*
X216934342Y-196514342D01*
X217077200Y-196585771D01*
X217362914Y-196585771D01*
X217505771Y-196514342D01*
X217577200Y-196442914D01*
X217648628Y-196300057D01*
X217648628Y-195942914D01*
X217577200Y-195800057D01*
X217505771Y-195728628D01*
X217362914Y-195657200D01*
X217077200Y-195657200D01*
X216934342Y-195728628D01*
X216862914Y-195800057D01*
X216791485Y-195942914D01*
X218934342Y-196585771D02*
X218934342Y-195800057D01*
X218862914Y-195657200D01*
X218720057Y-195585771D01*
X218434342Y-195585771D01*
X218291485Y-195657200D01*
X218934342Y-196514342D02*
X218791485Y-196585771D01*
X218434342Y-196585771D01*
X218291485Y-196514342D01*
X218220057Y-196371485D01*
X218220057Y-196228628D01*
X218291485Y-196085771D01*
X218434342Y-196014342D01*
X218791485Y-196014342D01*
X218934342Y-195942914D01*
X219934342Y-195085771D02*
X220077200Y-195085771D01*
X220220057Y-195157200D01*
X220291485Y-195228628D01*
X220362914Y-195371485D01*
X220434342Y-195657200D01*
X220434342Y-196014342D01*
X220362914Y-196300057D01*
X220291485Y-196442914D01*
X220220057Y-196514342D01*
X220077200Y-196585771D01*
X219934342Y-196585771D01*
X219791485Y-196514342D01*
X219720057Y-196442914D01*
X219648628Y-196300057D01*
X219577200Y-196014342D01*
X219577200Y-195657200D01*
X219648628Y-195371485D01*
X219720057Y-195228628D01*
X219791485Y-195157200D01*
X219934342Y-195085771D01*
X220720057Y-194677200D02*
X222148628Y-194677200D01*
X220934342Y-195085771D02*
X221934342Y-195085771D01*
X221291485Y-196585771D01*
X222148628Y-194677200D02*
X223577200Y-194677200D01*
X222791485Y-195085771D02*
X222934342Y-195085771D01*
X223077200Y-195157200D01*
X223148628Y-195228628D01*
X223220057Y-195371485D01*
X223291485Y-195657200D01*
X223291485Y-196014342D01*
X223220057Y-196300057D01*
X223148628Y-196442914D01*
X223077200Y-196514342D01*
X222934342Y-196585771D01*
X222791485Y-196585771D01*
X222648628Y-196514342D01*
X222577200Y-196442914D01*
X222505771Y-196300057D01*
X222434342Y-196014342D01*
X222434342Y-195657200D01*
X222505771Y-195371485D01*
X222577200Y-195228628D01*
X222648628Y-195157200D01*
X222791485Y-195085771D01*
X224577200Y-195585771D02*
X224577200Y-196585771D01*
X223934342Y-195585771D02*
X223934342Y-196371485D01*
X224005771Y-196514342D01*
X224148628Y-196585771D01*
X224362914Y-196585771D01*
X224505771Y-196514342D01*
X224577200Y-196442914D01*
X225291485Y-196585771D02*
X225291485Y-195085771D01*
X225291485Y-195657200D02*
X225434342Y-195585771D01*
X225720057Y-195585771D01*
X225862914Y-195657200D01*
X225934342Y-195728628D01*
X226005771Y-195871485D01*
X226005771Y-196300057D01*
X225934342Y-196442914D01*
X225862914Y-196514342D01*
X225720057Y-196585771D01*
X225434342Y-196585771D01*
X225291485Y-196514342D01*
X227291485Y-195585771D02*
X227291485Y-196585771D01*
X226648628Y-195585771D02*
X226648628Y-196371485D01*
X226720057Y-196514342D01*
X226862914Y-196585771D01*
X227077200Y-196585771D01*
X227220057Y-196514342D01*
X227291485Y-196442914D01*
X228005771Y-195585771D02*
X228005771Y-196585771D01*
X228005771Y-195728628D02*
X228077200Y-195657200D01*
X228220057Y-195585771D01*
X228434342Y-195585771D01*
X228577200Y-195657200D01*
X228648628Y-195800057D01*
X228648628Y-196585771D01*
X229148628Y-195585771D02*
X229720057Y-195585771D01*
X229362914Y-195085771D02*
X229362914Y-196371485D01*
X229434342Y-196514342D01*
X229577200Y-196585771D01*
X229720057Y-196585771D01*
X230862914Y-195585771D02*
X230862914Y-196585771D01*
X230220057Y-195585771D02*
X230220057Y-196371485D01*
X230291485Y-196514342D01*
X230434342Y-196585771D01*
X230648628Y-196585771D01*
X230791485Y-196514342D01*
X230862914Y-196442914D01*
X232362914Y-196585771D02*
X231505771Y-196585771D01*
X231934342Y-196585771D02*
X231934342Y-195085771D01*
X231791485Y-195300057D01*
X231648628Y-195442914D01*
X231505771Y-195514342D01*
X233220057Y-195728628D02*
X233077200Y-195657200D01*
X233005771Y-195585771D01*
X232934342Y-195442914D01*
X232934342Y-195371485D01*
X233005771Y-195228628D01*
X233077200Y-195157200D01*
X233220057Y-195085771D01*
X233505771Y-195085771D01*
X233648628Y-195157200D01*
X233720057Y-195228628D01*
X233791485Y-195371485D01*
X233791485Y-195442914D01*
X233720057Y-195585771D01*
X233648628Y-195657200D01*
X233505771Y-195728628D01*
X233220057Y-195728628D01*
X233077200Y-195800057D01*
X233005771Y-195871485D01*
X232934342Y-196014342D01*
X232934342Y-196300057D01*
X233005771Y-196442914D01*
X233077200Y-196514342D01*
X233220057Y-196585771D01*
X233505771Y-196585771D01*
X233648628Y-196514342D01*
X233720057Y-196442914D01*
X233791485Y-196300057D01*
X233791485Y-196014342D01*
X233720057Y-195871485D01*
X233648628Y-195800057D01*
X233505771Y-195728628D01*
X234434342Y-196442914D02*
X234505771Y-196514342D01*
X234434342Y-196585771D01*
X234362914Y-196514342D01*
X234434342Y-196442914D01*
X234434342Y-196585771D01*
X235434342Y-195085771D02*
X235577200Y-195085771D01*
X235720057Y-195157200D01*
X235791485Y-195228628D01*
X235862914Y-195371485D01*
X235934342Y-195657200D01*
X235934342Y-196014342D01*
X235862914Y-196300057D01*
X235791485Y-196442914D01*
X235720057Y-196514342D01*
X235577200Y-196585771D01*
X235434342Y-196585771D01*
X235291485Y-196514342D01*
X235220057Y-196442914D01*
X235148628Y-196300057D01*
X235077200Y-196014342D01*
X235077200Y-195657200D01*
X235148628Y-195371485D01*
X235220057Y-195228628D01*
X235291485Y-195157200D01*
X235434342Y-195085771D01*
X237220057Y-195585771D02*
X237220057Y-196585771D01*
X236862914Y-195014342D02*
X236505771Y-196085771D01*
X237434342Y-196085771D01*
X238005771Y-196442914D02*
X238077199Y-196514342D01*
X238005771Y-196585771D01*
X237934342Y-196514342D01*
X238005771Y-196442914D01*
X238005771Y-196585771D01*
X239505771Y-196585771D02*
X238648628Y-196585771D01*
X239077200Y-196585771D02*
X239077200Y-195085771D01*
X238934342Y-195300057D01*
X238791485Y-195442914D01*
X238648628Y-195514342D01*
D10*
D11*
X177002200Y-191507200D02*
X285002200Y-191507200D01*
D10*
D12*
X264411485Y-193785771D02*
X263911485Y-193071485D01*
X263554342Y-193785771D02*
X263554342Y-192285771D01*
X264125771Y-192285771D01*
X264268628Y-192357200D01*
X264340057Y-192428628D01*
X264411485Y-192571485D01*
X264411485Y-192785771D01*
X264340057Y-192928628D01*
X264268628Y-193000057D01*
X264125771Y-193071485D01*
X263554342Y-193071485D01*
X265625771Y-193714342D02*
X265482914Y-193785771D01*
X265197200Y-193785771D01*
X265054342Y-193714342D01*
X264982914Y-193571485D01*
X264982914Y-193000057D01*
X265054342Y-192857200D01*
X265197200Y-192785771D01*
X265482914Y-192785771D01*
X265625771Y-192857200D01*
X265697200Y-193000057D01*
X265697200Y-193142914D01*
X264982914Y-193285771D01*
X266197200Y-192785771D02*
X266554342Y-193785771D01*
X266911485Y-192785771D01*
X267482914Y-193642914D02*
X267554342Y-193714342D01*
X267482914Y-193785771D01*
X267411485Y-193714342D01*
X267482914Y-193642914D01*
X267482914Y-193785771D01*
X267482914Y-192857200D02*
X267554342Y-192928628D01*
X267482914Y-193000057D01*
X267411485Y-192928628D01*
X267482914Y-192857200D01*
X267482914Y-193000057D01*
D10*
D11*
X178362914Y-193714342D02*
X178577200Y-193785771D01*
X178934342Y-193785771D01*
X179077200Y-193714342D01*
X179148628Y-193642914D01*
X179220057Y-193500057D01*
X179220057Y-193357200D01*
X179148628Y-193214342D01*
X179077200Y-193142914D01*
X178934342Y-193071485D01*
X178648628Y-193000057D01*
X178505771Y-192928628D01*
X178434342Y-192857200D01*
X178362914Y-192714342D01*
X178362914Y-192571485D01*
X178434342Y-192428628D01*
X178505771Y-192357200D01*
X178648628Y-192285771D01*
X179005771Y-192285771D01*
X179220057Y-192357200D01*
X179862914Y-193785771D02*
X179862914Y-192785771D01*
X179862914Y-192285771D02*
X179791485Y-192357200D01*
X179862914Y-192428628D01*
X179934342Y-192357200D01*
X179862914Y-192285771D01*
X179862914Y-192428628D01*
X180434342Y-192785771D02*
X181220057Y-192785771D01*
X180434342Y-193785771D01*
X181220057Y-193785771D01*
X182362914Y-193714342D02*
X182220057Y-193785771D01*
X181934342Y-193785771D01*
X181791485Y-193714342D01*
X181720057Y-193571485D01*
X181720057Y-193000057D01*
X181791485Y-192857200D01*
X181934342Y-192785771D01*
X182220057Y-192785771D01*
X182362914Y-192857200D01*
X182434342Y-193000057D01*
X182434342Y-193142914D01*
X181720057Y-193285771D01*
X183077200Y-193642914D02*
X183148628Y-193714342D01*
X183077200Y-193785771D01*
X183005771Y-193714342D01*
X183077200Y-193642914D01*
X183077200Y-193785771D01*
X183077200Y-192857200D02*
X183148628Y-192928628D01*
X183077200Y-193000057D01*
X183005771Y-192928628D01*
X183077200Y-192857200D01*
X183077200Y-193000057D01*
X184862914Y-193357200D02*
X185577200Y-193357200D01*
X184720057Y-193785771D02*
X185220057Y-192285771D01*
X185720057Y-193785771D01*
X186862914Y-192785771D02*
X186862914Y-193785771D01*
X186505771Y-192214342D02*
X186148628Y-193285771D01*
X187077200Y-193285771D01*
D10*
D11*
X263434342Y-196585771D02*
X263434342Y-195085771D01*
X264791485Y-196585771D02*
X264791485Y-195085771D01*
X264791485Y-196514342D02*
X264648628Y-196585771D01*
X264362914Y-196585771D01*
X264220057Y-196514342D01*
X264148628Y-196442914D01*
X264077200Y-196300057D01*
X264077200Y-195871485D01*
X264148628Y-195728628D01*
X264220057Y-195657200D01*
X264362914Y-195585771D01*
X264648628Y-195585771D01*
X264791485Y-195657200D01*
X265505771Y-196442914D02*
X265577200Y-196514342D01*
X265505771Y-196585771D01*
X265434342Y-196514342D01*
X265505771Y-196442914D01*
X265505771Y-196585771D01*
X265505771Y-195657200D02*
X265577200Y-195728628D01*
X265505771Y-195800057D01*
X265434342Y-195728628D01*
X265505771Y-195657200D01*
X265505771Y-195800057D01*
X268148628Y-196585771D02*
X267291485Y-196585771D01*
X267720057Y-196585771D02*
X267720057Y-195085771D01*
X267577200Y-195300057D01*
X267434342Y-195442914D01*
X267291485Y-195514342D01*
X269862914Y-195014342D02*
X268577200Y-196942914D01*
X271148628Y-196585771D02*
X270291485Y-196585771D01*
X270720057Y-196585771D02*
X270720057Y-195085771D01*
X270577200Y-195300057D01*
X270434342Y-195442914D01*
X270291485Y-195514342D01*
D10*
D11*
X177002200Y-187507200D02*
X285002200Y-187507200D01*
D10*
D13*
X178714580Y-188211961D02*
X179857438Y-188211961D01*
X179036009Y-190211961D02*
X179286009Y-188211961D01*
X180274104Y-190211961D02*
X180440771Y-188878628D01*
X180524104Y-188211961D02*
X180416961Y-188307200D01*
X180500295Y-188402438D01*
X180607438Y-188307200D01*
X180524104Y-188211961D01*
X180500295Y-188402438D01*
X181107438Y-188878628D02*
X181869342Y-188878628D01*
X181476485Y-188211961D02*
X181262200Y-189926247D01*
X181333628Y-190116723D01*
X181512200Y-190211961D01*
X181702676Y-190211961D01*
X182655057Y-190211961D02*
X182476485Y-190116723D01*
X182405057Y-189926247D01*
X182619342Y-188211961D01*
X184190771Y-190116723D02*
X183988390Y-190211961D01*
X183607438Y-190211961D01*
X183428866Y-190116723D01*
X183357438Y-189926247D01*
X183452676Y-189164342D01*
X183571723Y-188973866D01*
X183774104Y-188878628D01*
X184155057Y-188878628D01*
X184333628Y-188973866D01*
X184405057Y-189164342D01*
X184381247Y-189354819D01*
X183405057Y-189545295D01*
X185155057Y-190021485D02*
X185238390Y-190116723D01*
X185131247Y-190211961D01*
X185047914Y-190116723D01*
X185155057Y-190021485D01*
X185131247Y-190211961D01*
X185286009Y-188973866D02*
X185369342Y-189069104D01*
X185262200Y-189164342D01*
X185178866Y-189069104D01*
X185286009Y-188973866D01*
X185262200Y-189164342D01*
D10*
D11*
X178934342Y-185600057D02*
X178434342Y-185600057D01*
X178434342Y-186385771D02*
X178434342Y-184885771D01*
X179148628Y-184885771D01*
X179720057Y-186385771D02*
X179720057Y-185385771D01*
X179720057Y-184885771D02*
X179648628Y-184957200D01*
X179720057Y-185028628D01*
X179791485Y-184957200D01*
X179720057Y-184885771D01*
X179720057Y-185028628D01*
X180648628Y-186385771D02*
X180505771Y-186314342D01*
X180434342Y-186171485D01*
X180434342Y-184885771D01*
X181791485Y-186314342D02*
X181648628Y-186385771D01*
X181362914Y-186385771D01*
X181220057Y-186314342D01*
X181148628Y-186171485D01*
X181148628Y-185600057D01*
X181220057Y-185457200D01*
X181362914Y-185385771D01*
X181648628Y-185385771D01*
X181791485Y-185457200D01*
X181862914Y-185600057D01*
X181862914Y-185742914D01*
X181148628Y-185885771D01*
X182505771Y-186242914D02*
X182577200Y-186314342D01*
X182505771Y-186385771D01*
X182434342Y-186314342D01*
X182505771Y-186242914D01*
X182505771Y-186385771D01*
X182505771Y-185457200D02*
X182577200Y-185528628D01*
X182505771Y-185600057D01*
X182434342Y-185528628D01*
X182505771Y-185457200D01*
X182505771Y-185600057D01*
X185220057Y-186242914D02*
X185148628Y-186314342D01*
X184934342Y-186385771D01*
X184791485Y-186385771D01*
X184577200Y-186314342D01*
X184434342Y-186171485D01*
X184362914Y-186028628D01*
X184291485Y-185742914D01*
X184291485Y-185528628D01*
X184362914Y-185242914D01*
X184434342Y-185100057D01*
X184577200Y-184957200D01*
X184791485Y-184885771D01*
X184934342Y-184885771D01*
X185148628Y-184957200D01*
X185220057Y-185028628D01*
X186077200Y-186385771D02*
X185934342Y-186314342D01*
X185862914Y-186242914D01*
X185791485Y-186100057D01*
X185791485Y-185671485D01*
X185862914Y-185528628D01*
X185934342Y-185457200D01*
X186077200Y-185385771D01*
X186291485Y-185385771D01*
X186434342Y-185457200D01*
X186505771Y-185528628D01*
X186577200Y-185671485D01*
X186577200Y-186100057D01*
X186505771Y-186242914D01*
X186434342Y-186314342D01*
X186291485Y-186385771D01*
X186077200Y-186385771D01*
X187220057Y-186385771D02*
X187220057Y-185385771D01*
X187220057Y-185528628D02*
X187291485Y-185457200D01*
X187434342Y-185385771D01*
X187648628Y-185385771D01*
X187791485Y-185457200D01*
X187862914Y-185600057D01*
X187862914Y-186385771D01*
X187862914Y-185600057D02*
X187934342Y-185457200D01*
X188077200Y-185385771D01*
X188291485Y-185385771D01*
X188434342Y-185457200D01*
X188505771Y-185600057D01*
X188505771Y-186385771D01*
X189220057Y-186385771D02*
X189220057Y-184885771D01*
X189220057Y-185457200D02*
X189362914Y-185385771D01*
X189648628Y-185385771D01*
X189791485Y-185457200D01*
X189862914Y-185528628D01*
X189934342Y-185671485D01*
X189934342Y-186100057D01*
X189862914Y-186242914D01*
X189791485Y-186314342D01*
X189648628Y-186385771D01*
X189362914Y-186385771D01*
X189220057Y-186314342D01*
X190577200Y-186385771D02*
X190577200Y-185385771D01*
X190577200Y-184885771D02*
X190505771Y-184957200D01*
X190577200Y-185028628D01*
X190648628Y-184957200D01*
X190577200Y-184885771D01*
X190577200Y-185028628D01*
X191291485Y-185385771D02*
X191291485Y-186385771D01*
X191291485Y-185528628D02*
X191362914Y-185457200D01*
X191505771Y-185385771D01*
X191720057Y-185385771D01*
X191862914Y-185457200D01*
X191934342Y-185600057D01*
X191934342Y-186385771D01*
X193220057Y-186314342D02*
X193077200Y-186385771D01*
X192791485Y-186385771D01*
X192648628Y-186314342D01*
X192577200Y-186171485D01*
X192577200Y-185600057D01*
X192648628Y-185457200D01*
X192791485Y-185385771D01*
X193077200Y-185385771D01*
X193220057Y-185457200D01*
X193291485Y-185600057D01*
X193291485Y-185742914D01*
X192577200Y-185885771D01*
X194577200Y-186385771D02*
X194577200Y-184885771D01*
X194577200Y-186314342D02*
X194434342Y-186385771D01*
X194148628Y-186385771D01*
X194005771Y-186314342D01*
X193934342Y-186242914D01*
X193862914Y-186100057D01*
X193862914Y-185671485D01*
X193934342Y-185528628D01*
X194005771Y-185457200D01*
X194148628Y-185385771D01*
X194434342Y-185385771D01*
X194577200Y-185457200D01*
X195291485Y-186385771D02*
X195291485Y-184885771D01*
X195862914Y-184885771D01*
X196005771Y-184957200D01*
X196077200Y-185028628D01*
X196148628Y-185171485D01*
X196148628Y-185385771D01*
X196077200Y-185528628D01*
X196005771Y-185600057D01*
X195862914Y-185671485D01*
X195291485Y-185671485D01*
X197648628Y-186242914D02*
X197577200Y-186314342D01*
X197362914Y-186385771D01*
X197220057Y-186385771D01*
X197005771Y-186314342D01*
X196862914Y-186171485D01*
X196791485Y-186028628D01*
X196720057Y-185742914D01*
X196720057Y-185528628D01*
X196791485Y-185242914D01*
X196862914Y-185100057D01*
X197005771Y-184957200D01*
X197220057Y-184885771D01*
X197362914Y-184885771D01*
X197577200Y-184957200D01*
X197648628Y-185028628D01*
X198791485Y-185600057D02*
X199005771Y-185671485D01*
X199077200Y-185742914D01*
X199148628Y-185885771D01*
X199148628Y-186100057D01*
X199077200Y-186242914D01*
X199005771Y-186314342D01*
X198862914Y-186385771D01*
X198291485Y-186385771D01*
X198291485Y-184885771D01*
X198791485Y-184885771D01*
X198934342Y-184957200D01*
X199005771Y-185028628D01*
X199077200Y-185171485D01*
X199077200Y-185314342D01*
X199005771Y-185457200D01*
X198934342Y-185528628D01*
X198791485Y-185600057D01*
X198291485Y-185600057D01*
X199791485Y-186242914D02*
X199862914Y-186314342D01*
X199791485Y-186385771D01*
X199720057Y-186314342D01*
X199791485Y-186242914D01*
X199791485Y-186385771D01*
X200505771Y-186385771D02*
X200505771Y-184885771D01*
X200648628Y-185814342D02*
X201077200Y-186385771D01*
X201077200Y-185385771D02*
X200505771Y-185957200D01*
X201720057Y-186385771D02*
X201720057Y-185385771D01*
X201720057Y-184885771D02*
X201648628Y-184957200D01*
X201720057Y-185028628D01*
X201791485Y-184957200D01*
X201720057Y-184885771D01*
X201720057Y-185028628D01*
X203077200Y-186314342D02*
X202934342Y-186385771D01*
X202648628Y-186385771D01*
X202505771Y-186314342D01*
X202434342Y-186242914D01*
X202362914Y-186100057D01*
X202362914Y-185671485D01*
X202434342Y-185528628D01*
X202505771Y-185457200D01*
X202648628Y-185385771D01*
X202934342Y-185385771D01*
X203077200Y-185457200D01*
X204362914Y-186385771D02*
X204362914Y-185600057D01*
X204291485Y-185457200D01*
X204148628Y-185385771D01*
X203862914Y-185385771D01*
X203720057Y-185457200D01*
X204362914Y-186314342D02*
X204220057Y-186385771D01*
X203862914Y-186385771D01*
X203720057Y-186314342D01*
X203648628Y-186171485D01*
X203648628Y-186028628D01*
X203720057Y-185885771D01*
X203862914Y-185814342D01*
X204220057Y-185814342D01*
X204362914Y-185742914D01*
X205720057Y-186385771D02*
X205720057Y-184885771D01*
X205720057Y-186314342D02*
X205577200Y-186385771D01*
X205291485Y-186385771D01*
X205148628Y-186314342D01*
X205077200Y-186242914D01*
X205005771Y-186100057D01*
X205005771Y-185671485D01*
X205077200Y-185528628D01*
X205148628Y-185457200D01*
X205291485Y-185385771D01*
X205577200Y-185385771D01*
X205720057Y-185457200D01*
X206077200Y-186528628D02*
X207220057Y-186528628D01*
X207577200Y-185385771D02*
X207577200Y-186885771D01*
X207577200Y-185457200D02*
X207720057Y-185385771D01*
X208005771Y-185385771D01*
X208148628Y-185457200D01*
X208220057Y-185528628D01*
X208291485Y-185671485D01*
X208291485Y-186100057D01*
X208220057Y-186242914D01*
X208148628Y-186314342D01*
X208005771Y-186385771D01*
X207720057Y-186385771D01*
X207577200Y-186314342D01*
X209577200Y-186314342D02*
X209434342Y-186385771D01*
X209148628Y-186385771D01*
X209005771Y-186314342D01*
X208934342Y-186242914D01*
X208862914Y-186100057D01*
X208862914Y-185671485D01*
X208934342Y-185528628D01*
X209005771Y-185457200D01*
X209148628Y-185385771D01*
X209434342Y-185385771D01*
X209577200Y-185457200D01*
X210220057Y-186385771D02*
X210220057Y-184885771D01*
X210220057Y-185457200D02*
X210362914Y-185385771D01*
X210648628Y-185385771D01*
X210791485Y-185457200D01*
X210862914Y-185528628D01*
X210934342Y-185671485D01*
X210934342Y-186100057D01*
X210862914Y-186242914D01*
X210791485Y-186314342D01*
X210648628Y-186385771D01*
X210362914Y-186385771D01*
X210220057Y-186314342D01*
D10*
D11*
X177002200Y-181507200D02*
X285002200Y-181507200D01*
D10*
D11*
X178362914Y-183614342D02*
X178577200Y-183685771D01*
X178934342Y-183685771D01*
X179077200Y-183614342D01*
X179148628Y-183542914D01*
X179220057Y-183400057D01*
X179220057Y-183257200D01*
X179148628Y-183114342D01*
X179077200Y-183042914D01*
X178934342Y-182971485D01*
X178648628Y-182900057D01*
X178505771Y-182828628D01*
X178434342Y-182757200D01*
X178362914Y-182614342D01*
X178362914Y-182471485D01*
X178434342Y-182328628D01*
X178505771Y-182257200D01*
X178648628Y-182185771D01*
X179005771Y-182185771D01*
X179220057Y-182257200D01*
X179862914Y-183685771D02*
X179862914Y-182185771D01*
X180505771Y-183685771D02*
X180505771Y-182900057D01*
X180434342Y-182757200D01*
X180291485Y-182685771D01*
X180077200Y-182685771D01*
X179934342Y-182757200D01*
X179862914Y-182828628D01*
X181791485Y-183614342D02*
X181648628Y-183685771D01*
X181362914Y-183685771D01*
X181220057Y-183614342D01*
X181148628Y-183471485D01*
X181148628Y-182900057D01*
X181220057Y-182757200D01*
X181362914Y-182685771D01*
X181648628Y-182685771D01*
X181791485Y-182757200D01*
X181862914Y-182900057D01*
X181862914Y-183042914D01*
X181148628Y-183185771D01*
X183077200Y-183614342D02*
X182934342Y-183685771D01*
X182648628Y-183685771D01*
X182505771Y-183614342D01*
X182434342Y-183471485D01*
X182434342Y-182900057D01*
X182505771Y-182757200D01*
X182648628Y-182685771D01*
X182934342Y-182685771D01*
X183077200Y-182757200D01*
X183148628Y-182900057D01*
X183148628Y-183042914D01*
X182434342Y-183185771D01*
X183577200Y-182685771D02*
X184148628Y-182685771D01*
X183791485Y-182185771D02*
X183791485Y-183471485D01*
X183862914Y-183614342D01*
X184005771Y-183685771D01*
X184148628Y-183685771D01*
X184648628Y-183542914D02*
X184720057Y-183614342D01*
X184648628Y-183685771D01*
X184577200Y-183614342D01*
X184648628Y-183542914D01*
X184648628Y-183685771D01*
X184648628Y-182757200D02*
X184720057Y-182828628D01*
X184648628Y-182900057D01*
X184577200Y-182828628D01*
X184648628Y-182757200D01*
X184648628Y-182900057D01*
D10*
D11*
X197002200Y-191507200D02*
X197002200Y-194507200D01*
D10*
D11*
X261002200Y-191507200D02*
X261002200Y-198007200D01*
D10*
G36*
X51920000Y-113860000D02*
X49920000Y-113860000D01*
X49920000Y-111860000D01*
X51920000Y-111860000D01*
X51920000Y-113860000D01*
X51920000Y-113860000D01*
G37*
G36*
X35855770Y-111875372D02*
X35971689Y-111898429D01*
X36153678Y-111973811D01*
X36317463Y-112083249D01*
X36456751Y-112222537D01*
X36566189Y-112386322D01*
X36641571Y-112568311D01*
X36680000Y-112761509D01*
X36680000Y-112958491D01*
X36641571Y-113151689D01*
X36566189Y-113333678D01*
X36456751Y-113497463D01*
X36317463Y-113636751D01*
X36153678Y-113746189D01*
X35971689Y-113821571D01*
X35855770Y-113844628D01*
X35778493Y-113860000D01*
X35581507Y-113860000D01*
X35504230Y-113844628D01*
X35388311Y-113821571D01*
X35206322Y-113746189D01*
X35042537Y-113636751D01*
X34903249Y-113497463D01*
X34793811Y-113333678D01*
X34718429Y-113151689D01*
X34680000Y-112958491D01*
X34680000Y-112761509D01*
X34718429Y-112568311D01*
X34793811Y-112386322D01*
X34903249Y-112222537D01*
X35042537Y-112083249D01*
X35206322Y-111973811D01*
X35388311Y-111898429D01*
X35504230Y-111875372D01*
X35581507Y-111860000D01*
X35778493Y-111860000D01*
X35855770Y-111875372D01*
X35855770Y-111875372D01*
G37*
G36*
X60430603Y-110724968D02*
X60430606Y-110724969D01*
X60430605Y-110724969D01*
X60605678Y-110797486D01*
X60605679Y-110797487D01*
X60763241Y-110902767D01*
X60897233Y-111036759D01*
X60942444Y-111104422D01*
X61002514Y-111194322D01*
X61007429Y-111206189D01*
X61075032Y-111369397D01*
X61112000Y-111555250D01*
X61112000Y-111744750D01*
X61075032Y-111930603D01*
X61075031Y-111930605D01*
X61002514Y-112105678D01*
X61002513Y-112105679D01*
X60897233Y-112263241D01*
X60763241Y-112397233D01*
X60683923Y-112450232D01*
X60605678Y-112502514D01*
X60470266Y-112558603D01*
X60430603Y-112575032D01*
X60244750Y-112612000D01*
X60055250Y-112612000D01*
X59869397Y-112575032D01*
X59829734Y-112558603D01*
X59694322Y-112502514D01*
X59616077Y-112450232D01*
X59536759Y-112397233D01*
X59402767Y-112263241D01*
X59297487Y-112105679D01*
X59297486Y-112105678D01*
X59224969Y-111930605D01*
X59224968Y-111930603D01*
X59188000Y-111744750D01*
X59188000Y-111555250D01*
X59224968Y-111369397D01*
X59292571Y-111206189D01*
X59297486Y-111194322D01*
X59357556Y-111104422D01*
X59402767Y-111036759D01*
X59536759Y-110902767D01*
X59694321Y-110797487D01*
X59694322Y-110797486D01*
X59869395Y-110724969D01*
X59869394Y-110724969D01*
X59869397Y-110724968D01*
X60055250Y-110688000D01*
X60244750Y-110688000D01*
X60430603Y-110724968D01*
X60430603Y-110724968D01*
G37*
G36*
X55930603Y-110724968D02*
X55930606Y-110724969D01*
X55930605Y-110724969D01*
X56105678Y-110797486D01*
X56105679Y-110797487D01*
X56263241Y-110902767D01*
X56397233Y-111036759D01*
X56442444Y-111104422D01*
X56502514Y-111194322D01*
X56507429Y-111206189D01*
X56575032Y-111369397D01*
X56612000Y-111555250D01*
X56612000Y-111744750D01*
X56575032Y-111930603D01*
X56575031Y-111930605D01*
X56502514Y-112105678D01*
X56502513Y-112105679D01*
X56397233Y-112263241D01*
X56263241Y-112397233D01*
X56183923Y-112450232D01*
X56105678Y-112502514D01*
X55970266Y-112558603D01*
X55930603Y-112575032D01*
X55744750Y-112612000D01*
X55555250Y-112612000D01*
X55369397Y-112575032D01*
X55329734Y-112558603D01*
X55194322Y-112502514D01*
X55116077Y-112450232D01*
X55036759Y-112397233D01*
X54902767Y-112263241D01*
X54797487Y-112105679D01*
X54797486Y-112105678D01*
X54724969Y-111930605D01*
X54724968Y-111930603D01*
X54688000Y-111744750D01*
X54688000Y-111555250D01*
X54724968Y-111369397D01*
X54792571Y-111206189D01*
X54797486Y-111194322D01*
X54857556Y-111104422D01*
X54902767Y-111036759D01*
X55036759Y-110902767D01*
X55194321Y-110797487D01*
X55194322Y-110797486D01*
X55369395Y-110724969D01*
X55369394Y-110724969D01*
X55369397Y-110724968D01*
X55555250Y-110688000D01*
X55744750Y-110688000D01*
X55930603Y-110724968D01*
X55930603Y-110724968D01*
G37*
G36*
X83100000Y-111350000D02*
X80900000Y-111350000D01*
X80900000Y-109150000D01*
X83100000Y-109150000D01*
X83100000Y-111350000D01*
X83100000Y-111350000D01*
G37*
G36*
X72600000Y-111350000D02*
X70400000Y-111350000D01*
X70400000Y-109150000D01*
X72600000Y-109150000D01*
X72600000Y-111350000D01*
X72600000Y-111350000D01*
G37*
G36*
X69320857Y-109192272D02*
X69521042Y-109275191D01*
X69701213Y-109395578D01*
X69854422Y-109548787D01*
X69974809Y-109728958D01*
X70057728Y-109929143D01*
X70100000Y-110141658D01*
X70100000Y-110358342D01*
X70057728Y-110570857D01*
X69974809Y-110771042D01*
X69974807Y-110771045D01*
X69886794Y-110902766D01*
X69854422Y-110951213D01*
X69701213Y-111104422D01*
X69521042Y-111224809D01*
X69320857Y-111307728D01*
X69108342Y-111350000D01*
X68891658Y-111350000D01*
X68679143Y-111307728D01*
X68478958Y-111224809D01*
X68298787Y-111104422D01*
X68145578Y-110951213D01*
X68113207Y-110902766D01*
X68025193Y-110771045D01*
X68025191Y-110771042D01*
X67942272Y-110570857D01*
X67900000Y-110358342D01*
X67900000Y-110141658D01*
X67942272Y-109929143D01*
X68025191Y-109728958D01*
X68145578Y-109548787D01*
X68298787Y-109395578D01*
X68478958Y-109275191D01*
X68679143Y-109192272D01*
X68891658Y-109150000D01*
X69108342Y-109150000D01*
X69320857Y-109192272D01*
X69320857Y-109192272D01*
G37*
G36*
X79820857Y-109192272D02*
X80021042Y-109275191D01*
X80201213Y-109395578D01*
X80354422Y-109548787D01*
X80474809Y-109728958D01*
X80557728Y-109929143D01*
X80600000Y-110141658D01*
X80600000Y-110358342D01*
X80557728Y-110570857D01*
X80474809Y-110771042D01*
X80474807Y-110771045D01*
X80386794Y-110902766D01*
X80354422Y-110951213D01*
X80201213Y-111104422D01*
X80021042Y-111224809D01*
X79820857Y-111307728D01*
X79608342Y-111350000D01*
X79391658Y-111350000D01*
X79179143Y-111307728D01*
X78978958Y-111224809D01*
X78798787Y-111104422D01*
X78645578Y-110951213D01*
X78613207Y-110902766D01*
X78525193Y-110771045D01*
X78525191Y-110771042D01*
X78442272Y-110570857D01*
X78400000Y-110358342D01*
X78400000Y-110141658D01*
X78442272Y-109929143D01*
X78525191Y-109728958D01*
X78645578Y-109548787D01*
X78798787Y-109395578D01*
X78978958Y-109275191D01*
X79179143Y-109192272D01*
X79391658Y-109150000D01*
X79608342Y-109150000D01*
X79820857Y-109192272D01*
X79820857Y-109192272D01*
G37*
G36*
X51095770Y-109335372D02*
X51211689Y-109358429D01*
X51393678Y-109433811D01*
X51557463Y-109543249D01*
X51696751Y-109682537D01*
X51806189Y-109846322D01*
X51881571Y-110028311D01*
X51892270Y-110082099D01*
X51918393Y-110213427D01*
X51920000Y-110221509D01*
X51920000Y-110418491D01*
X51881571Y-110611689D01*
X51806189Y-110793678D01*
X51696751Y-110957463D01*
X51557463Y-111096751D01*
X51393678Y-111206189D01*
X51211689Y-111281571D01*
X51095770Y-111304628D01*
X51018493Y-111320000D01*
X50821507Y-111320000D01*
X50744230Y-111304628D01*
X50628311Y-111281571D01*
X50446322Y-111206189D01*
X50282537Y-111096751D01*
X50143249Y-110957463D01*
X50033811Y-110793678D01*
X49958429Y-110611689D01*
X49920000Y-110418491D01*
X49920000Y-110221509D01*
X49921608Y-110213427D01*
X49947730Y-110082099D01*
X49958429Y-110028311D01*
X50033811Y-109846322D01*
X50143249Y-109682537D01*
X50282537Y-109543249D01*
X50446322Y-109433811D01*
X50628311Y-109358429D01*
X50744230Y-109335372D01*
X50821507Y-109320000D01*
X51018493Y-109320000D01*
X51095770Y-109335372D01*
X51095770Y-109335372D01*
G37*
G36*
X35855770Y-109335372D02*
X35971689Y-109358429D01*
X36153678Y-109433811D01*
X36317463Y-109543249D01*
X36456751Y-109682537D01*
X36566189Y-109846322D01*
X36641571Y-110028311D01*
X36652270Y-110082099D01*
X36678393Y-110213427D01*
X36680000Y-110221509D01*
X36680000Y-110418491D01*
X36641571Y-110611689D01*
X36566189Y-110793678D01*
X36456751Y-110957463D01*
X36317463Y-111096751D01*
X36153678Y-111206189D01*
X35971689Y-111281571D01*
X35855770Y-111304628D01*
X35778493Y-111320000D01*
X35581507Y-111320000D01*
X35504230Y-111304628D01*
X35388311Y-111281571D01*
X35206322Y-111206189D01*
X35042537Y-111096751D01*
X34903249Y-110957463D01*
X34793811Y-110793678D01*
X34718429Y-110611689D01*
X34680000Y-110418491D01*
X34680000Y-110221509D01*
X34681608Y-110213427D01*
X34707730Y-110082099D01*
X34718429Y-110028311D01*
X34793811Y-109846322D01*
X34903249Y-109682537D01*
X35042537Y-109543249D01*
X35206322Y-109433811D01*
X35388311Y-109358429D01*
X35504230Y-109335372D01*
X35581507Y-109320000D01*
X35778493Y-109320000D01*
X35855770Y-109335372D01*
X35855770Y-109335372D01*
G37*
G36*
X54750026Y-107996115D02*
X54968412Y-108086573D01*
X55164958Y-108217901D01*
X55332099Y-108385042D01*
X55463427Y-108581588D01*
X55553885Y-108799974D01*
X55600000Y-109031809D01*
X55600000Y-109268191D01*
X55553885Y-109500026D01*
X55463427Y-109718412D01*
X55332099Y-109914958D01*
X55164958Y-110082099D01*
X54968412Y-110213427D01*
X54750026Y-110303885D01*
X54518191Y-110350000D01*
X54281809Y-110350000D01*
X54049974Y-110303885D01*
X53831588Y-110213427D01*
X53635042Y-110082099D01*
X53467901Y-109914958D01*
X53336573Y-109718412D01*
X53246115Y-109500026D01*
X53200000Y-109268191D01*
X53200000Y-109031809D01*
X53246115Y-108799974D01*
X53336573Y-108581588D01*
X53467901Y-108385042D01*
X53635042Y-108217901D01*
X53831588Y-108086573D01*
X54049974Y-107996115D01*
X54281809Y-107950000D01*
X54518191Y-107950000D01*
X54750026Y-107996115D01*
X54750026Y-107996115D01*
G37*
G36*
X61750026Y-107996115D02*
X61968412Y-108086573D01*
X62164958Y-108217901D01*
X62332099Y-108385042D01*
X62463427Y-108581588D01*
X62553885Y-108799974D01*
X62600000Y-109031809D01*
X62600000Y-109268191D01*
X62553885Y-109500026D01*
X62463427Y-109718412D01*
X62332099Y-109914958D01*
X62164958Y-110082099D01*
X61968412Y-110213427D01*
X61750026Y-110303885D01*
X61518191Y-110350000D01*
X61281809Y-110350000D01*
X61049974Y-110303885D01*
X60831588Y-110213427D01*
X60635042Y-110082099D01*
X60467901Y-109914958D01*
X60336573Y-109718412D01*
X60246115Y-109500026D01*
X60200000Y-109268191D01*
X60200000Y-109031809D01*
X60246115Y-108799974D01*
X60336573Y-108581588D01*
X60467901Y-108385042D01*
X60635042Y-108217901D01*
X60831588Y-108086573D01*
X61049974Y-107996115D01*
X61281809Y-107950000D01*
X61518191Y-107950000D01*
X61750026Y-107996115D01*
X61750026Y-107996115D01*
G37*
G36*
X51095770Y-106795372D02*
X51211689Y-106818429D01*
X51393678Y-106893811D01*
X51557463Y-107003249D01*
X51696751Y-107142537D01*
X51806189Y-107306322D01*
X51881571Y-107488311D01*
X51904628Y-107604230D01*
X51920000Y-107681507D01*
X51920000Y-107878493D01*
X51916463Y-107896274D01*
X51881571Y-108071689D01*
X51806189Y-108253678D01*
X51696751Y-108417463D01*
X51557463Y-108556751D01*
X51393678Y-108666189D01*
X51211689Y-108741571D01*
X51095770Y-108764628D01*
X51018493Y-108780000D01*
X50821507Y-108780000D01*
X50744230Y-108764628D01*
X50628311Y-108741571D01*
X50446322Y-108666189D01*
X50282537Y-108556751D01*
X50143249Y-108417463D01*
X50033811Y-108253678D01*
X49958429Y-108071689D01*
X49923537Y-107896274D01*
X49920000Y-107878493D01*
X49920000Y-107681507D01*
X49935372Y-107604230D01*
X49958429Y-107488311D01*
X50033811Y-107306322D01*
X50143249Y-107142537D01*
X50282537Y-107003249D01*
X50446322Y-106893811D01*
X50628311Y-106818429D01*
X50744230Y-106795372D01*
X50821507Y-106780000D01*
X51018493Y-106780000D01*
X51095770Y-106795372D01*
X51095770Y-106795372D01*
G37*
G36*
X35855770Y-106795372D02*
X35971689Y-106818429D01*
X36153678Y-106893811D01*
X36317463Y-107003249D01*
X36456751Y-107142537D01*
X36566189Y-107306322D01*
X36641571Y-107488311D01*
X36664628Y-107604230D01*
X36680000Y-107681507D01*
X36680000Y-107878493D01*
X36676463Y-107896274D01*
X36641571Y-108071689D01*
X36566189Y-108253678D01*
X36456751Y-108417463D01*
X36317463Y-108556751D01*
X36153678Y-108666189D01*
X35971689Y-108741571D01*
X35855770Y-108764628D01*
X35778493Y-108780000D01*
X35581507Y-108780000D01*
X35504230Y-108764628D01*
X35388311Y-108741571D01*
X35206322Y-108666189D01*
X35042537Y-108556751D01*
X34903249Y-108417463D01*
X34793811Y-108253678D01*
X34718429Y-108071689D01*
X34683537Y-107896274D01*
X34680000Y-107878493D01*
X34680000Y-107681507D01*
X34695372Y-107604230D01*
X34718429Y-107488311D01*
X34793811Y-107306322D01*
X34903249Y-107142537D01*
X35042537Y-107003249D01*
X35206322Y-106893811D01*
X35388311Y-106818429D01*
X35504230Y-106795372D01*
X35581507Y-106780000D01*
X35778493Y-106780000D01*
X35855770Y-106795372D01*
X35855770Y-106795372D01*
G37*
G36*
X101485888Y-106544470D02*
X101666274Y-106580350D01*
X101857362Y-106659502D01*
X102029336Y-106774411D01*
X102175589Y-106920664D01*
X102290498Y-107092638D01*
X102369650Y-107283726D01*
X102410000Y-107486584D01*
X102410000Y-107693416D01*
X102369650Y-107896274D01*
X102290498Y-108087362D01*
X102175589Y-108259336D01*
X102029336Y-108405589D01*
X101857362Y-108520498D01*
X101666274Y-108599650D01*
X101485888Y-108635530D01*
X101463417Y-108640000D01*
X101256583Y-108640000D01*
X101234112Y-108635530D01*
X101053726Y-108599650D01*
X100862638Y-108520498D01*
X100690664Y-108405589D01*
X100544411Y-108259336D01*
X100429502Y-108087362D01*
X100350350Y-107896274D01*
X100310000Y-107693416D01*
X100310000Y-107486584D01*
X100350350Y-107283726D01*
X100429502Y-107092638D01*
X100544411Y-106920664D01*
X100690664Y-106774411D01*
X100862638Y-106659502D01*
X101053726Y-106580350D01*
X101234112Y-106544470D01*
X101256583Y-106540000D01*
X101463417Y-106540000D01*
X101485888Y-106544470D01*
X101485888Y-106544470D01*
G37*
G36*
X104025888Y-106544470D02*
X104206274Y-106580350D01*
X104397362Y-106659502D01*
X104569336Y-106774411D01*
X104715589Y-106920664D01*
X104830498Y-107092638D01*
X104909650Y-107283726D01*
X104950000Y-107486584D01*
X104950000Y-107693416D01*
X104909650Y-107896274D01*
X104830498Y-108087362D01*
X104715589Y-108259336D01*
X104569336Y-108405589D01*
X104397362Y-108520498D01*
X104206274Y-108599650D01*
X104025888Y-108635530D01*
X104003417Y-108640000D01*
X103796583Y-108640000D01*
X103774112Y-108635530D01*
X103593726Y-108599650D01*
X103402638Y-108520498D01*
X103230664Y-108405589D01*
X103084411Y-108259336D01*
X102969502Y-108087362D01*
X102890350Y-107896274D01*
X102850000Y-107693416D01*
X102850000Y-107486584D01*
X102890350Y-107283726D01*
X102969502Y-107092638D01*
X103084411Y-106920664D01*
X103230664Y-106774411D01*
X103402638Y-106659502D01*
X103593726Y-106580350D01*
X103774112Y-106544470D01*
X103796583Y-106540000D01*
X104003417Y-106540000D01*
X104025888Y-106544470D01*
X104025888Y-106544470D01*
G37*
G36*
X98945888Y-106544470D02*
X99126274Y-106580350D01*
X99317362Y-106659502D01*
X99489336Y-106774411D01*
X99635589Y-106920664D01*
X99750498Y-107092638D01*
X99829650Y-107283726D01*
X99870000Y-107486584D01*
X99870000Y-107693416D01*
X99829650Y-107896274D01*
X99750498Y-108087362D01*
X99635589Y-108259336D01*
X99489336Y-108405589D01*
X99317362Y-108520498D01*
X99126274Y-108599650D01*
X98945888Y-108635530D01*
X98923417Y-108640000D01*
X98716583Y-108640000D01*
X98694112Y-108635530D01*
X98513726Y-108599650D01*
X98322638Y-108520498D01*
X98150664Y-108405589D01*
X98004411Y-108259336D01*
X97889502Y-108087362D01*
X97810350Y-107896274D01*
X97770000Y-107693416D01*
X97770000Y-107486584D01*
X97810350Y-107283726D01*
X97889502Y-107092638D01*
X98004411Y-106920664D01*
X98150664Y-106774411D01*
X98322638Y-106659502D01*
X98513726Y-106580350D01*
X98694112Y-106544470D01*
X98716583Y-106540000D01*
X98923417Y-106540000D01*
X98945888Y-106544470D01*
X98945888Y-106544470D01*
G37*
G36*
X106565888Y-106544470D02*
X106746274Y-106580350D01*
X106937362Y-106659502D01*
X107109336Y-106774411D01*
X107255589Y-106920664D01*
X107370498Y-107092638D01*
X107449650Y-107283726D01*
X107490000Y-107486584D01*
X107490000Y-107693416D01*
X107449650Y-107896274D01*
X107370498Y-108087362D01*
X107255589Y-108259336D01*
X107109336Y-108405589D01*
X106937362Y-108520498D01*
X106746274Y-108599650D01*
X106565888Y-108635530D01*
X106543417Y-108640000D01*
X106336583Y-108640000D01*
X106314112Y-108635530D01*
X106133726Y-108599650D01*
X105942638Y-108520498D01*
X105770664Y-108405589D01*
X105624411Y-108259336D01*
X105509502Y-108087362D01*
X105430350Y-107896274D01*
X105390000Y-107693416D01*
X105390000Y-107486584D01*
X105430350Y-107283726D01*
X105509502Y-107092638D01*
X105624411Y-106920664D01*
X105770664Y-106774411D01*
X105942638Y-106659502D01*
X106133726Y-106580350D01*
X106314112Y-106544470D01*
X106336583Y-106540000D01*
X106543417Y-106540000D01*
X106565888Y-106544470D01*
X106565888Y-106544470D01*
G37*
G36*
X114185888Y-106544470D02*
X114366274Y-106580350D01*
X114557362Y-106659502D01*
X114729336Y-106774411D01*
X114875589Y-106920664D01*
X114990498Y-107092638D01*
X115069650Y-107283726D01*
X115110000Y-107486584D01*
X115110000Y-107693416D01*
X115069650Y-107896274D01*
X114990498Y-108087362D01*
X114875589Y-108259336D01*
X114729336Y-108405589D01*
X114557362Y-108520498D01*
X114366274Y-108599650D01*
X114185888Y-108635530D01*
X114163417Y-108640000D01*
X113956583Y-108640000D01*
X113934112Y-108635530D01*
X113753726Y-108599650D01*
X113562638Y-108520498D01*
X113390664Y-108405589D01*
X113244411Y-108259336D01*
X113129502Y-108087362D01*
X113050350Y-107896274D01*
X113010000Y-107693416D01*
X113010000Y-107486584D01*
X113050350Y-107283726D01*
X113129502Y-107092638D01*
X113244411Y-106920664D01*
X113390664Y-106774411D01*
X113562638Y-106659502D01*
X113753726Y-106580350D01*
X113934112Y-106544470D01*
X113956583Y-106540000D01*
X114163417Y-106540000D01*
X114185888Y-106544470D01*
X114185888Y-106544470D01*
G37*
G36*
X116725888Y-106544470D02*
X116906274Y-106580350D01*
X117097362Y-106659502D01*
X117269336Y-106774411D01*
X117415589Y-106920664D01*
X117530498Y-107092638D01*
X117609650Y-107283726D01*
X117650000Y-107486584D01*
X117650000Y-107693416D01*
X117609650Y-107896274D01*
X117530498Y-108087362D01*
X117415589Y-108259336D01*
X117269336Y-108405589D01*
X117097362Y-108520498D01*
X116906274Y-108599650D01*
X116725888Y-108635530D01*
X116703417Y-108640000D01*
X116496583Y-108640000D01*
X116474112Y-108635530D01*
X116293726Y-108599650D01*
X116102638Y-108520498D01*
X115930664Y-108405589D01*
X115784411Y-108259336D01*
X115669502Y-108087362D01*
X115590350Y-107896274D01*
X115550000Y-107693416D01*
X115550000Y-107486584D01*
X115590350Y-107283726D01*
X115669502Y-107092638D01*
X115784411Y-106920664D01*
X115930664Y-106774411D01*
X116102638Y-106659502D01*
X116293726Y-106580350D01*
X116474112Y-106544470D01*
X116496583Y-106540000D01*
X116703417Y-106540000D01*
X116725888Y-106544470D01*
X116725888Y-106544470D01*
G37*
G36*
X111645888Y-106544470D02*
X111826274Y-106580350D01*
X112017362Y-106659502D01*
X112189336Y-106774411D01*
X112335589Y-106920664D01*
X112450498Y-107092638D01*
X112529650Y-107283726D01*
X112570000Y-107486584D01*
X112570000Y-107693416D01*
X112529650Y-107896274D01*
X112450498Y-108087362D01*
X112335589Y-108259336D01*
X112189336Y-108405589D01*
X112017362Y-108520498D01*
X111826274Y-108599650D01*
X111645888Y-108635530D01*
X111623417Y-108640000D01*
X111416583Y-108640000D01*
X111394112Y-108635530D01*
X111213726Y-108599650D01*
X111022638Y-108520498D01*
X110850664Y-108405589D01*
X110704411Y-108259336D01*
X110589502Y-108087362D01*
X110510350Y-107896274D01*
X110470000Y-107693416D01*
X110470000Y-107486584D01*
X110510350Y-107283726D01*
X110589502Y-107092638D01*
X110704411Y-106920664D01*
X110850664Y-106774411D01*
X111022638Y-106659502D01*
X111213726Y-106580350D01*
X111394112Y-106544470D01*
X111416583Y-106540000D01*
X111623417Y-106540000D01*
X111645888Y-106544470D01*
X111645888Y-106544470D01*
G37*
G36*
X109105888Y-106544470D02*
X109286274Y-106580350D01*
X109477362Y-106659502D01*
X109649336Y-106774411D01*
X109795589Y-106920664D01*
X109910498Y-107092638D01*
X109989650Y-107283726D01*
X110030000Y-107486584D01*
X110030000Y-107693416D01*
X109989650Y-107896274D01*
X109910498Y-108087362D01*
X109795589Y-108259336D01*
X109649336Y-108405589D01*
X109477362Y-108520498D01*
X109286274Y-108599650D01*
X109105888Y-108635530D01*
X109083417Y-108640000D01*
X108876583Y-108640000D01*
X108854112Y-108635530D01*
X108673726Y-108599650D01*
X108482638Y-108520498D01*
X108310664Y-108405589D01*
X108164411Y-108259336D01*
X108049502Y-108087362D01*
X107970350Y-107896274D01*
X107930000Y-107693416D01*
X107930000Y-107486584D01*
X107970350Y-107283726D01*
X108049502Y-107092638D01*
X108164411Y-106920664D01*
X108310664Y-106774411D01*
X108482638Y-106659502D01*
X108673726Y-106580350D01*
X108854112Y-106544470D01*
X108876583Y-106540000D01*
X109083417Y-106540000D01*
X109105888Y-106544470D01*
X109105888Y-106544470D01*
G37*
G36*
X151344959Y-101922577D02*
X151685470Y-101990309D01*
X152113143Y-102167457D01*
X152498038Y-102424636D01*
X152825364Y-102751962D01*
X153082543Y-103136857D01*
X153259691Y-103564530D01*
X153350000Y-104018545D01*
X153350000Y-104481455D01*
X153259691Y-104935470D01*
X153082543Y-105363143D01*
X152825364Y-105748038D01*
X152498038Y-106075364D01*
X152113143Y-106332543D01*
X151685470Y-106509691D01*
X151344959Y-106577423D01*
X151231456Y-106600000D01*
X150768544Y-106600000D01*
X150655041Y-106577423D01*
X150314530Y-106509691D01*
X149886857Y-106332543D01*
X149501962Y-106075364D01*
X149174636Y-105748038D01*
X148917457Y-105363143D01*
X148740309Y-104935470D01*
X148650000Y-104481455D01*
X148650000Y-104018545D01*
X148740309Y-103564530D01*
X148917457Y-103136857D01*
X149174636Y-102751962D01*
X149501962Y-102424636D01*
X149886857Y-102167457D01*
X150314530Y-101990309D01*
X150655041Y-101922577D01*
X150768544Y-101900000D01*
X151231456Y-101900000D01*
X151344959Y-101922577D01*
X151344959Y-101922577D01*
G37*
G36*
X51095770Y-104255372D02*
X51211689Y-104278429D01*
X51393678Y-104353811D01*
X51557463Y-104463249D01*
X51696751Y-104602537D01*
X51806189Y-104766322D01*
X51881571Y-104948311D01*
X51904628Y-105064230D01*
X51920000Y-105141507D01*
X51920000Y-105338493D01*
X51904628Y-105415770D01*
X51881571Y-105531689D01*
X51806189Y-105713678D01*
X51696751Y-105877463D01*
X51557463Y-106016751D01*
X51393678Y-106126189D01*
X51211689Y-106201571D01*
X51095770Y-106224628D01*
X51018493Y-106240000D01*
X50821507Y-106240000D01*
X50744230Y-106224628D01*
X50628311Y-106201571D01*
X50446322Y-106126189D01*
X50282537Y-106016751D01*
X50143249Y-105877463D01*
X50033811Y-105713678D01*
X49958429Y-105531689D01*
X49935372Y-105415770D01*
X49920000Y-105338493D01*
X49920000Y-105141507D01*
X49935372Y-105064230D01*
X49958429Y-104948311D01*
X50033811Y-104766322D01*
X50143249Y-104602537D01*
X50282537Y-104463249D01*
X50446322Y-104353811D01*
X50628311Y-104278429D01*
X50744230Y-104255372D01*
X50821507Y-104240000D01*
X51018493Y-104240000D01*
X51095770Y-104255372D01*
X51095770Y-104255372D01*
G37*
G36*
X35855770Y-104255372D02*
X35971689Y-104278429D01*
X36153678Y-104353811D01*
X36317463Y-104463249D01*
X36456751Y-104602537D01*
X36566189Y-104766322D01*
X36641571Y-104948311D01*
X36664628Y-105064230D01*
X36680000Y-105141507D01*
X36680000Y-105338493D01*
X36664628Y-105415770D01*
X36641571Y-105531689D01*
X36566189Y-105713678D01*
X36456751Y-105877463D01*
X36317463Y-106016751D01*
X36153678Y-106126189D01*
X35971689Y-106201571D01*
X35855770Y-106224628D01*
X35778493Y-106240000D01*
X35581507Y-106240000D01*
X35504230Y-106224628D01*
X35388311Y-106201571D01*
X35206322Y-106126189D01*
X35042537Y-106016751D01*
X34903249Y-105877463D01*
X34793811Y-105713678D01*
X34718429Y-105531689D01*
X34695372Y-105415770D01*
X34680000Y-105338493D01*
X34680000Y-105141507D01*
X34695372Y-105064230D01*
X34718429Y-104948311D01*
X34793811Y-104766322D01*
X34903249Y-104602537D01*
X35042537Y-104463249D01*
X35206322Y-104353811D01*
X35388311Y-104278429D01*
X35504230Y-104255372D01*
X35581507Y-104240000D01*
X35778493Y-104240000D01*
X35855770Y-104255372D01*
X35855770Y-104255372D01*
G37*
G36*
X109105888Y-104004470D02*
X109286274Y-104040350D01*
X109477362Y-104119502D01*
X109649336Y-104234411D01*
X109795589Y-104380664D01*
X109910498Y-104552638D01*
X109989650Y-104743726D01*
X110030000Y-104946584D01*
X110030000Y-105153416D01*
X109989650Y-105356274D01*
X109910498Y-105547362D01*
X109795589Y-105719336D01*
X109649336Y-105865589D01*
X109477362Y-105980498D01*
X109286274Y-106059650D01*
X109105888Y-106095530D01*
X109083417Y-106100000D01*
X108876583Y-106100000D01*
X108854112Y-106095530D01*
X108673726Y-106059650D01*
X108482638Y-105980498D01*
X108310664Y-105865589D01*
X108164411Y-105719336D01*
X108049502Y-105547362D01*
X107970350Y-105356274D01*
X107930000Y-105153416D01*
X107930000Y-104946584D01*
X107970350Y-104743726D01*
X108049502Y-104552638D01*
X108164411Y-104380664D01*
X108310664Y-104234411D01*
X108482638Y-104119502D01*
X108673726Y-104040350D01*
X108854112Y-104004470D01*
X108876583Y-104000000D01*
X109083417Y-104000000D01*
X109105888Y-104004470D01*
X109105888Y-104004470D01*
G37*
G36*
X117650000Y-106100000D02*
X115550000Y-106100000D01*
X115550000Y-104000000D01*
X117650000Y-104000000D01*
X117650000Y-106100000D01*
X117650000Y-106100000D01*
G37*
G36*
X114185888Y-104004470D02*
X114366274Y-104040350D01*
X114557362Y-104119502D01*
X114729336Y-104234411D01*
X114875589Y-104380664D01*
X114990498Y-104552638D01*
X115069650Y-104743726D01*
X115110000Y-104946584D01*
X115110000Y-105153416D01*
X115069650Y-105356274D01*
X114990498Y-105547362D01*
X114875589Y-105719336D01*
X114729336Y-105865589D01*
X114557362Y-105980498D01*
X114366274Y-106059650D01*
X114185888Y-106095530D01*
X114163417Y-106100000D01*
X113956583Y-106100000D01*
X113934112Y-106095530D01*
X113753726Y-106059650D01*
X113562638Y-105980498D01*
X113390664Y-105865589D01*
X113244411Y-105719336D01*
X113129502Y-105547362D01*
X113050350Y-105356274D01*
X113010000Y-105153416D01*
X113010000Y-104946584D01*
X113050350Y-104743726D01*
X113129502Y-104552638D01*
X113244411Y-104380664D01*
X113390664Y-104234411D01*
X113562638Y-104119502D01*
X113753726Y-104040350D01*
X113934112Y-104004470D01*
X113956583Y-104000000D01*
X114163417Y-104000000D01*
X114185888Y-104004470D01*
X114185888Y-104004470D01*
G37*
G36*
X101485888Y-104004470D02*
X101666274Y-104040350D01*
X101857362Y-104119502D01*
X102029336Y-104234411D01*
X102175589Y-104380664D01*
X102290498Y-104552638D01*
X102369650Y-104743726D01*
X102410000Y-104946584D01*
X102410000Y-105153416D01*
X102369650Y-105356274D01*
X102290498Y-105547362D01*
X102175589Y-105719336D01*
X102029336Y-105865589D01*
X101857362Y-105980498D01*
X101666274Y-106059650D01*
X101485888Y-106095530D01*
X101463417Y-106100000D01*
X101256583Y-106100000D01*
X101234112Y-106095530D01*
X101053726Y-106059650D01*
X100862638Y-105980498D01*
X100690664Y-105865589D01*
X100544411Y-105719336D01*
X100429502Y-105547362D01*
X100350350Y-105356274D01*
X100310000Y-105153416D01*
X100310000Y-104946584D01*
X100350350Y-104743726D01*
X100429502Y-104552638D01*
X100544411Y-104380664D01*
X100690664Y-104234411D01*
X100862638Y-104119502D01*
X101053726Y-104040350D01*
X101234112Y-104004470D01*
X101256583Y-104000000D01*
X101463417Y-104000000D01*
X101485888Y-104004470D01*
X101485888Y-104004470D01*
G37*
G36*
X104025888Y-104004470D02*
X104206274Y-104040350D01*
X104397362Y-104119502D01*
X104569336Y-104234411D01*
X104715589Y-104380664D01*
X104830498Y-104552638D01*
X104909650Y-104743726D01*
X104950000Y-104946584D01*
X104950000Y-105153416D01*
X104909650Y-105356274D01*
X104830498Y-105547362D01*
X104715589Y-105719336D01*
X104569336Y-105865589D01*
X104397362Y-105980498D01*
X104206274Y-106059650D01*
X104025888Y-106095530D01*
X104003417Y-106100000D01*
X103796583Y-106100000D01*
X103774112Y-106095530D01*
X103593726Y-106059650D01*
X103402638Y-105980498D01*
X103230664Y-105865589D01*
X103084411Y-105719336D01*
X102969502Y-105547362D01*
X102890350Y-105356274D01*
X102850000Y-105153416D01*
X102850000Y-104946584D01*
X102890350Y-104743726D01*
X102969502Y-104552638D01*
X103084411Y-104380664D01*
X103230664Y-104234411D01*
X103402638Y-104119502D01*
X103593726Y-104040350D01*
X103774112Y-104004470D01*
X103796583Y-104000000D01*
X104003417Y-104000000D01*
X104025888Y-104004470D01*
X104025888Y-104004470D01*
G37*
G36*
X106565888Y-104004470D02*
X106746274Y-104040350D01*
X106937362Y-104119502D01*
X107109336Y-104234411D01*
X107255589Y-104380664D01*
X107370498Y-104552638D01*
X107449650Y-104743726D01*
X107490000Y-104946584D01*
X107490000Y-105153416D01*
X107449650Y-105356274D01*
X107370498Y-105547362D01*
X107255589Y-105719336D01*
X107109336Y-105865589D01*
X106937362Y-105980498D01*
X106746274Y-106059650D01*
X106565888Y-106095530D01*
X106543417Y-106100000D01*
X106336583Y-106100000D01*
X106314112Y-106095530D01*
X106133726Y-106059650D01*
X105942638Y-105980498D01*
X105770664Y-105865589D01*
X105624411Y-105719336D01*
X105509502Y-105547362D01*
X105430350Y-105356274D01*
X105390000Y-105153416D01*
X105390000Y-104946584D01*
X105430350Y-104743726D01*
X105509502Y-104552638D01*
X105624411Y-104380664D01*
X105770664Y-104234411D01*
X105942638Y-104119502D01*
X106133726Y-104040350D01*
X106314112Y-104004470D01*
X106336583Y-104000000D01*
X106543417Y-104000000D01*
X106565888Y-104004470D01*
X106565888Y-104004470D01*
G37*
G36*
X98945888Y-104004470D02*
X99126274Y-104040350D01*
X99317362Y-104119502D01*
X99489336Y-104234411D01*
X99635589Y-104380664D01*
X99750498Y-104552638D01*
X99829650Y-104743726D01*
X99870000Y-104946584D01*
X99870000Y-105153416D01*
X99829650Y-105356274D01*
X99750498Y-105547362D01*
X99635589Y-105719336D01*
X99489336Y-105865589D01*
X99317362Y-105980498D01*
X99126274Y-106059650D01*
X98945888Y-106095530D01*
X98923417Y-106100000D01*
X98716583Y-106100000D01*
X98694112Y-106095530D01*
X98513726Y-106059650D01*
X98322638Y-105980498D01*
X98150664Y-105865589D01*
X98004411Y-105719336D01*
X97889502Y-105547362D01*
X97810350Y-105356274D01*
X97770000Y-105153416D01*
X97770000Y-104946584D01*
X97810350Y-104743726D01*
X97889502Y-104552638D01*
X98004411Y-104380664D01*
X98150664Y-104234411D01*
X98322638Y-104119502D01*
X98513726Y-104040350D01*
X98694112Y-104004470D01*
X98716583Y-104000000D01*
X98923417Y-104000000D01*
X98945888Y-104004470D01*
X98945888Y-104004470D01*
G37*
G36*
X111645888Y-104004470D02*
X111826274Y-104040350D01*
X112017362Y-104119502D01*
X112189336Y-104234411D01*
X112335589Y-104380664D01*
X112450498Y-104552638D01*
X112529650Y-104743726D01*
X112570000Y-104946584D01*
X112570000Y-105153416D01*
X112529650Y-105356274D01*
X112450498Y-105547362D01*
X112335589Y-105719336D01*
X112189336Y-105865589D01*
X112017362Y-105980498D01*
X111826274Y-106059650D01*
X111645888Y-106095530D01*
X111623417Y-106100000D01*
X111416583Y-106100000D01*
X111394112Y-106095530D01*
X111213726Y-106059650D01*
X111022638Y-105980498D01*
X110850664Y-105865589D01*
X110704411Y-105719336D01*
X110589502Y-105547362D01*
X110510350Y-105356274D01*
X110470000Y-105153416D01*
X110470000Y-104946584D01*
X110510350Y-104743726D01*
X110589502Y-104552638D01*
X110704411Y-104380664D01*
X110850664Y-104234411D01*
X111022638Y-104119502D01*
X111213726Y-104040350D01*
X111394112Y-104004470D01*
X111416583Y-104000000D01*
X111623417Y-104000000D01*
X111645888Y-104004470D01*
X111645888Y-104004470D01*
G37*
G36*
X35855770Y-101715372D02*
X35971689Y-101738429D01*
X36153678Y-101813811D01*
X36317463Y-101923249D01*
X36456751Y-102062537D01*
X36566189Y-102226322D01*
X36641571Y-102408311D01*
X36680000Y-102601509D01*
X36680000Y-102798491D01*
X36641571Y-102991689D01*
X36566189Y-103173678D01*
X36456751Y-103337463D01*
X36317463Y-103476751D01*
X36153678Y-103586189D01*
X35971689Y-103661571D01*
X35855770Y-103684628D01*
X35778493Y-103700000D01*
X35581507Y-103700000D01*
X35504230Y-103684628D01*
X35388311Y-103661571D01*
X35206322Y-103586189D01*
X35042537Y-103476751D01*
X34903249Y-103337463D01*
X34793811Y-103173678D01*
X34718429Y-102991689D01*
X34680000Y-102798491D01*
X34680000Y-102601509D01*
X34718429Y-102408311D01*
X34793811Y-102226322D01*
X34903249Y-102062537D01*
X35042537Y-101923249D01*
X35206322Y-101813811D01*
X35388311Y-101738429D01*
X35504230Y-101715372D01*
X35581507Y-101700000D01*
X35778493Y-101700000D01*
X35855770Y-101715372D01*
X35855770Y-101715372D01*
G37*
G36*
X51095770Y-101715372D02*
X51211689Y-101738429D01*
X51393678Y-101813811D01*
X51557463Y-101923249D01*
X51696751Y-102062537D01*
X51806189Y-102226322D01*
X51881571Y-102408311D01*
X51920000Y-102601509D01*
X51920000Y-102798491D01*
X51881571Y-102991689D01*
X51806189Y-103173678D01*
X51696751Y-103337463D01*
X51557463Y-103476751D01*
X51393678Y-103586189D01*
X51211689Y-103661571D01*
X51095770Y-103684628D01*
X51018493Y-103700000D01*
X50821507Y-103700000D01*
X50744230Y-103684628D01*
X50628311Y-103661571D01*
X50446322Y-103586189D01*
X50282537Y-103476751D01*
X50143249Y-103337463D01*
X50033811Y-103173678D01*
X49958429Y-102991689D01*
X49920000Y-102798491D01*
X49920000Y-102601509D01*
X49958429Y-102408311D01*
X50033811Y-102226322D01*
X50143249Y-102062537D01*
X50282537Y-101923249D01*
X50446322Y-101813811D01*
X50628311Y-101738429D01*
X50744230Y-101715372D01*
X50821507Y-101700000D01*
X51018493Y-101700000D01*
X51095770Y-101715372D01*
X51095770Y-101715372D01*
G37*
G36*
X51095770Y-99175372D02*
X51211689Y-99198429D01*
X51393678Y-99273811D01*
X51557463Y-99383249D01*
X51696751Y-99522537D01*
X51806189Y-99686322D01*
X51881571Y-99868311D01*
X51920000Y-100061509D01*
X51920000Y-100258491D01*
X51881571Y-100451689D01*
X51806189Y-100633678D01*
X51696751Y-100797463D01*
X51557463Y-100936751D01*
X51393678Y-101046189D01*
X51211689Y-101121571D01*
X51095770Y-101144628D01*
X51018493Y-101160000D01*
X50821507Y-101160000D01*
X50744230Y-101144628D01*
X50628311Y-101121571D01*
X50446322Y-101046189D01*
X50282537Y-100936751D01*
X50143249Y-100797463D01*
X50033811Y-100633678D01*
X49958429Y-100451689D01*
X49920000Y-100258491D01*
X49920000Y-100061509D01*
X49958429Y-99868311D01*
X50033811Y-99686322D01*
X50143249Y-99522537D01*
X50282537Y-99383249D01*
X50446322Y-99273811D01*
X50628311Y-99198429D01*
X50744230Y-99175372D01*
X50821507Y-99160000D01*
X51018493Y-99160000D01*
X51095770Y-99175372D01*
X51095770Y-99175372D01*
G37*
G36*
X35855770Y-99175372D02*
X35971689Y-99198429D01*
X36153678Y-99273811D01*
X36317463Y-99383249D01*
X36456751Y-99522537D01*
X36566189Y-99686322D01*
X36641571Y-99868311D01*
X36680000Y-100061509D01*
X36680000Y-100258491D01*
X36641571Y-100451689D01*
X36566189Y-100633678D01*
X36456751Y-100797463D01*
X36317463Y-100936751D01*
X36153678Y-101046189D01*
X35971689Y-101121571D01*
X35855770Y-101144628D01*
X35778493Y-101160000D01*
X35581507Y-101160000D01*
X35504230Y-101144628D01*
X35388311Y-101121571D01*
X35206322Y-101046189D01*
X35042537Y-100936751D01*
X34903249Y-100797463D01*
X34793811Y-100633678D01*
X34718429Y-100451689D01*
X34680000Y-100258491D01*
X34680000Y-100061509D01*
X34718429Y-99868311D01*
X34793811Y-99686322D01*
X34903249Y-99522537D01*
X35042537Y-99383249D01*
X35206322Y-99273811D01*
X35388311Y-99198429D01*
X35504230Y-99175372D01*
X35581507Y-99160000D01*
X35778493Y-99160000D01*
X35855770Y-99175372D01*
X35855770Y-99175372D01*
G37*
G36*
X35855770Y-96635372D02*
X35971689Y-96658429D01*
X36153678Y-96733811D01*
X36317463Y-96843249D01*
X36456751Y-96982537D01*
X36566189Y-97146322D01*
X36641571Y-97328311D01*
X36680000Y-97521509D01*
X36680000Y-97718491D01*
X36641571Y-97911689D01*
X36566189Y-98093678D01*
X36456751Y-98257463D01*
X36317463Y-98396751D01*
X36153678Y-98506189D01*
X35971689Y-98581571D01*
X35855770Y-98604628D01*
X35778493Y-98620000D01*
X35581507Y-98620000D01*
X35504230Y-98604628D01*
X35388311Y-98581571D01*
X35206322Y-98506189D01*
X35042537Y-98396751D01*
X34903249Y-98257463D01*
X34793811Y-98093678D01*
X34718429Y-97911689D01*
X34680000Y-97718491D01*
X34680000Y-97521509D01*
X34718429Y-97328311D01*
X34793811Y-97146322D01*
X34903249Y-96982537D01*
X35042537Y-96843249D01*
X35206322Y-96733811D01*
X35388311Y-96658429D01*
X35504230Y-96635372D01*
X35581507Y-96620000D01*
X35778493Y-96620000D01*
X35855770Y-96635372D01*
X35855770Y-96635372D01*
G37*
G36*
X51095770Y-96635372D02*
X51211689Y-96658429D01*
X51393678Y-96733811D01*
X51557463Y-96843249D01*
X51696751Y-96982537D01*
X51806189Y-97146322D01*
X51881571Y-97328311D01*
X51920000Y-97521509D01*
X51920000Y-97718491D01*
X51881571Y-97911689D01*
X51806189Y-98093678D01*
X51696751Y-98257463D01*
X51557463Y-98396751D01*
X51393678Y-98506189D01*
X51211689Y-98581571D01*
X51095770Y-98604628D01*
X51018493Y-98620000D01*
X50821507Y-98620000D01*
X50744230Y-98604628D01*
X50628311Y-98581571D01*
X50446322Y-98506189D01*
X50282537Y-98396751D01*
X50143249Y-98257463D01*
X50033811Y-98093678D01*
X49958429Y-97911689D01*
X49920000Y-97718491D01*
X49920000Y-97521509D01*
X49958429Y-97328311D01*
X50033811Y-97146322D01*
X50143249Y-96982537D01*
X50282537Y-96843249D01*
X50446322Y-96733811D01*
X50628311Y-96658429D01*
X50744230Y-96635372D01*
X50821507Y-96620000D01*
X51018493Y-96620000D01*
X51095770Y-96635372D01*
X51095770Y-96635372D01*
G37*
G36*
X151280603Y-95324968D02*
X151280606Y-95324969D01*
X151280605Y-95324969D01*
X151455678Y-95397486D01*
X151455679Y-95397487D01*
X151613241Y-95502767D01*
X151747233Y-95636759D01*
X151800232Y-95716077D01*
X151852514Y-95794322D01*
X151896547Y-95900628D01*
X151925032Y-95969397D01*
X151962000Y-96155250D01*
X151962000Y-96344750D01*
X151925032Y-96530603D01*
X151925031Y-96530605D01*
X151852514Y-96705678D01*
X151852513Y-96705679D01*
X151747233Y-96863241D01*
X151613241Y-96997233D01*
X151533923Y-97050232D01*
X151455678Y-97102514D01*
X151349915Y-97146322D01*
X151280603Y-97175032D01*
X151094750Y-97212000D01*
X150905250Y-97212000D01*
X150719397Y-97175032D01*
X150650085Y-97146322D01*
X150544322Y-97102514D01*
X150466077Y-97050232D01*
X150386759Y-96997233D01*
X150252767Y-96863241D01*
X150147487Y-96705679D01*
X150147486Y-96705678D01*
X150074969Y-96530605D01*
X150074968Y-96530603D01*
X150038000Y-96344750D01*
X150038000Y-96155250D01*
X150074968Y-95969397D01*
X150103453Y-95900628D01*
X150147486Y-95794322D01*
X150199768Y-95716077D01*
X150252767Y-95636759D01*
X150386759Y-95502767D01*
X150544321Y-95397487D01*
X150544322Y-95397486D01*
X150719395Y-95324969D01*
X150719394Y-95324969D01*
X150719397Y-95324968D01*
X150905250Y-95288000D01*
X151094750Y-95288000D01*
X151280603Y-95324968D01*
X151280603Y-95324968D01*
G37*
G36*
X148780603Y-95324968D02*
X148780606Y-95324969D01*
X148780605Y-95324969D01*
X148955678Y-95397486D01*
X148955679Y-95397487D01*
X149113241Y-95502767D01*
X149247233Y-95636759D01*
X149300232Y-95716077D01*
X149352514Y-95794322D01*
X149396547Y-95900628D01*
X149425032Y-95969397D01*
X149462000Y-96155250D01*
X149462000Y-96344750D01*
X149425032Y-96530603D01*
X149425031Y-96530605D01*
X149352514Y-96705678D01*
X149352513Y-96705679D01*
X149247233Y-96863241D01*
X149113241Y-96997233D01*
X149033923Y-97050232D01*
X148955678Y-97102514D01*
X148849915Y-97146322D01*
X148780603Y-97175032D01*
X148594750Y-97212000D01*
X148405250Y-97212000D01*
X148219397Y-97175032D01*
X148150085Y-97146322D01*
X148044322Y-97102514D01*
X147966077Y-97050232D01*
X147886759Y-96997233D01*
X147752767Y-96863241D01*
X147647487Y-96705679D01*
X147647486Y-96705678D01*
X147574969Y-96530605D01*
X147574968Y-96530603D01*
X147538000Y-96344750D01*
X147538000Y-96155250D01*
X147574968Y-95969397D01*
X147603453Y-95900628D01*
X147647486Y-95794322D01*
X147699768Y-95716077D01*
X147752767Y-95636759D01*
X147886759Y-95502767D01*
X148044321Y-95397487D01*
X148044322Y-95397486D01*
X148219395Y-95324969D01*
X148219394Y-95324969D01*
X148219397Y-95324968D01*
X148405250Y-95288000D01*
X148594750Y-95288000D01*
X148780603Y-95324968D01*
X148780603Y-95324968D01*
G37*
G36*
X141280603Y-95324968D02*
X141280606Y-95324969D01*
X141280605Y-95324969D01*
X141455678Y-95397486D01*
X141455679Y-95397487D01*
X141613241Y-95502767D01*
X141747233Y-95636759D01*
X141800232Y-95716077D01*
X141852514Y-95794322D01*
X141896547Y-95900628D01*
X141925032Y-95969397D01*
X141962000Y-96155250D01*
X141962000Y-96344750D01*
X141925032Y-96530603D01*
X141925031Y-96530605D01*
X141852514Y-96705678D01*
X141852513Y-96705679D01*
X141747233Y-96863241D01*
X141613241Y-96997233D01*
X141533923Y-97050232D01*
X141455678Y-97102514D01*
X141349915Y-97146322D01*
X141280603Y-97175032D01*
X141094750Y-97212000D01*
X140905250Y-97212000D01*
X140719397Y-97175032D01*
X140650085Y-97146322D01*
X140544322Y-97102514D01*
X140466077Y-97050232D01*
X140386759Y-96997233D01*
X140252767Y-96863241D01*
X140147487Y-96705679D01*
X140147486Y-96705678D01*
X140074969Y-96530605D01*
X140074968Y-96530603D01*
X140038000Y-96344750D01*
X140038000Y-96155250D01*
X140074968Y-95969397D01*
X140103453Y-95900628D01*
X140147486Y-95794322D01*
X140199768Y-95716077D01*
X140252767Y-95636759D01*
X140386759Y-95502767D01*
X140544321Y-95397487D01*
X140544322Y-95397486D01*
X140719395Y-95324969D01*
X140719394Y-95324969D01*
X140719397Y-95324968D01*
X140905250Y-95288000D01*
X141094750Y-95288000D01*
X141280603Y-95324968D01*
X141280603Y-95324968D01*
G37*
G36*
X107530603Y-94624968D02*
X107530606Y-94624969D01*
X107530605Y-94624969D01*
X107705678Y-94697486D01*
X107705679Y-94697487D01*
X107863241Y-94802767D01*
X107997233Y-94936759D01*
X107997234Y-94936761D01*
X108102514Y-95094322D01*
X108137378Y-95178493D01*
X108175032Y-95269397D01*
X108212000Y-95455250D01*
X108212000Y-95644750D01*
X108175032Y-95830603D01*
X108175031Y-95830605D01*
X108102514Y-96005678D01*
X108102513Y-96005679D01*
X107997233Y-96163241D01*
X107863241Y-96297233D01*
X107792129Y-96344749D01*
X107705678Y-96402514D01*
X107570266Y-96458603D01*
X107530603Y-96475032D01*
X107344750Y-96512000D01*
X107155250Y-96512000D01*
X106969397Y-96475032D01*
X106929734Y-96458603D01*
X106794322Y-96402514D01*
X106707871Y-96344749D01*
X106636759Y-96297233D01*
X106502767Y-96163241D01*
X106397487Y-96005679D01*
X106397486Y-96005678D01*
X106324969Y-95830605D01*
X106324968Y-95830603D01*
X106288000Y-95644750D01*
X106288000Y-95455250D01*
X106324968Y-95269397D01*
X106362622Y-95178493D01*
X106397486Y-95094322D01*
X106502766Y-94936761D01*
X106502767Y-94936759D01*
X106636759Y-94802767D01*
X106794321Y-94697487D01*
X106794322Y-94697486D01*
X106969395Y-94624969D01*
X106969394Y-94624969D01*
X106969397Y-94624968D01*
X107155250Y-94588000D01*
X107344750Y-94588000D01*
X107530603Y-94624968D01*
X107530603Y-94624968D01*
G37*
G36*
X97530603Y-94624968D02*
X97530606Y-94624969D01*
X97530605Y-94624969D01*
X97705678Y-94697486D01*
X97705679Y-94697487D01*
X97863241Y-94802767D01*
X97997233Y-94936759D01*
X97997234Y-94936761D01*
X98102514Y-95094322D01*
X98137378Y-95178493D01*
X98175032Y-95269397D01*
X98212000Y-95455250D01*
X98212000Y-95644750D01*
X98175032Y-95830603D01*
X98175031Y-95830605D01*
X98102514Y-96005678D01*
X98102513Y-96005679D01*
X97997233Y-96163241D01*
X97863241Y-96297233D01*
X97792129Y-96344749D01*
X97705678Y-96402514D01*
X97570266Y-96458603D01*
X97530603Y-96475032D01*
X97344750Y-96512000D01*
X97155250Y-96512000D01*
X96969397Y-96475032D01*
X96929734Y-96458603D01*
X96794322Y-96402514D01*
X96707871Y-96344749D01*
X96636759Y-96297233D01*
X96502767Y-96163241D01*
X96397487Y-96005679D01*
X96397486Y-96005678D01*
X96324969Y-95830605D01*
X96324968Y-95830603D01*
X96288000Y-95644750D01*
X96288000Y-95455250D01*
X96324968Y-95269397D01*
X96362622Y-95178493D01*
X96397486Y-95094322D01*
X96502766Y-94936761D01*
X96502767Y-94936759D01*
X96636759Y-94802767D01*
X96794321Y-94697487D01*
X96794322Y-94697486D01*
X96969395Y-94624969D01*
X96969394Y-94624969D01*
X96969397Y-94624968D01*
X97155250Y-94588000D01*
X97344750Y-94588000D01*
X97530603Y-94624968D01*
X97530603Y-94624968D01*
G37*
G36*
X105030603Y-94624968D02*
X105030606Y-94624969D01*
X105030605Y-94624969D01*
X105205678Y-94697486D01*
X105205679Y-94697487D01*
X105363241Y-94802767D01*
X105497233Y-94936759D01*
X105497234Y-94936761D01*
X105602514Y-95094322D01*
X105637378Y-95178493D01*
X105675032Y-95269397D01*
X105712000Y-95455250D01*
X105712000Y-95644750D01*
X105675032Y-95830603D01*
X105675031Y-95830605D01*
X105602514Y-96005678D01*
X105602513Y-96005679D01*
X105497233Y-96163241D01*
X105363241Y-96297233D01*
X105292129Y-96344749D01*
X105205678Y-96402514D01*
X105070266Y-96458603D01*
X105030603Y-96475032D01*
X104844750Y-96512000D01*
X104655250Y-96512000D01*
X104469397Y-96475032D01*
X104429734Y-96458603D01*
X104294322Y-96402514D01*
X104207871Y-96344749D01*
X104136759Y-96297233D01*
X104002767Y-96163241D01*
X103897487Y-96005679D01*
X103897486Y-96005678D01*
X103824969Y-95830605D01*
X103824968Y-95830603D01*
X103788000Y-95644750D01*
X103788000Y-95455250D01*
X103824968Y-95269397D01*
X103862622Y-95178493D01*
X103897486Y-95094322D01*
X104002766Y-94936761D01*
X104002767Y-94936759D01*
X104136759Y-94802767D01*
X104294321Y-94697487D01*
X104294322Y-94697486D01*
X104469395Y-94624969D01*
X104469394Y-94624969D01*
X104469397Y-94624968D01*
X104655250Y-94588000D01*
X104844750Y-94588000D01*
X105030603Y-94624968D01*
X105030603Y-94624968D01*
G37*
G36*
X35854787Y-94095176D02*
X35971689Y-94118429D01*
X36153678Y-94193811D01*
X36317463Y-94303249D01*
X36456751Y-94442537D01*
X36566189Y-94606322D01*
X36641571Y-94788311D01*
X36680000Y-94981509D01*
X36680000Y-95178491D01*
X36641571Y-95371689D01*
X36566189Y-95553678D01*
X36456751Y-95717463D01*
X36317463Y-95856751D01*
X36153678Y-95966189D01*
X35971689Y-96041571D01*
X35855770Y-96064628D01*
X35778493Y-96080000D01*
X35581507Y-96080000D01*
X35504230Y-96064628D01*
X35388311Y-96041571D01*
X35206322Y-95966189D01*
X35042537Y-95856751D01*
X34903249Y-95717463D01*
X34793811Y-95553678D01*
X34718429Y-95371689D01*
X34680000Y-95178491D01*
X34680000Y-94981509D01*
X34718429Y-94788311D01*
X34793811Y-94606322D01*
X34903249Y-94442537D01*
X35042537Y-94303249D01*
X35206322Y-94193811D01*
X35388311Y-94118429D01*
X35505213Y-94095176D01*
X35581507Y-94080000D01*
X35778493Y-94080000D01*
X35854787Y-94095176D01*
X35854787Y-94095176D01*
G37*
G36*
X51094787Y-94095176D02*
X51211689Y-94118429D01*
X51393678Y-94193811D01*
X51557463Y-94303249D01*
X51696751Y-94442537D01*
X51806189Y-94606322D01*
X51881571Y-94788311D01*
X51920000Y-94981509D01*
X51920000Y-95178491D01*
X51881571Y-95371689D01*
X51806189Y-95553678D01*
X51696751Y-95717463D01*
X51557463Y-95856751D01*
X51393678Y-95966189D01*
X51211689Y-96041571D01*
X51095770Y-96064628D01*
X51018493Y-96080000D01*
X50821507Y-96080000D01*
X50744230Y-96064628D01*
X50628311Y-96041571D01*
X50446322Y-95966189D01*
X50282537Y-95856751D01*
X50143249Y-95717463D01*
X50033811Y-95553678D01*
X49958429Y-95371689D01*
X49920000Y-95178491D01*
X49920000Y-94981509D01*
X49958429Y-94788311D01*
X50033811Y-94606322D01*
X50143249Y-94442537D01*
X50282537Y-94303249D01*
X50446322Y-94193811D01*
X50628311Y-94118429D01*
X50745213Y-94095176D01*
X50821507Y-94080000D01*
X51018493Y-94080000D01*
X51094787Y-94095176D01*
X51094787Y-94095176D01*
G37*
G36*
X147007482Y-93780186D02*
X147052204Y-93793753D01*
X147093433Y-93815790D01*
X147129561Y-93845439D01*
X147159210Y-93881567D01*
X147181247Y-93922796D01*
X147194814Y-93967518D01*
X147200000Y-94020175D01*
X147200000Y-95679825D01*
X147194814Y-95732482D01*
X147181247Y-95777204D01*
X147159210Y-95818433D01*
X147129561Y-95854561D01*
X147093433Y-95884210D01*
X147052204Y-95906247D01*
X147007482Y-95919814D01*
X146954825Y-95925000D01*
X145620175Y-95925000D01*
X145567518Y-95919814D01*
X145522796Y-95906247D01*
X145481567Y-95884210D01*
X145445439Y-95854561D01*
X145415790Y-95818433D01*
X145393753Y-95777204D01*
X145380186Y-95732482D01*
X145375000Y-95679825D01*
X145375000Y-94020175D01*
X145380186Y-93967518D01*
X145393753Y-93922796D01*
X145415790Y-93881567D01*
X145445439Y-93845439D01*
X145481567Y-93815790D01*
X145522796Y-93793753D01*
X145567518Y-93780186D01*
X145620175Y-93775000D01*
X146954825Y-93775000D01*
X147007482Y-93780186D01*
X147007482Y-93780186D01*
G37*
G36*
X144032482Y-93780186D02*
X144077204Y-93793753D01*
X144118433Y-93815790D01*
X144154561Y-93845439D01*
X144184210Y-93881567D01*
X144206247Y-93922796D01*
X144219814Y-93967518D01*
X144225000Y-94020175D01*
X144225000Y-95679825D01*
X144219814Y-95732482D01*
X144206247Y-95777204D01*
X144184210Y-95818433D01*
X144154561Y-95854561D01*
X144118433Y-95884210D01*
X144077204Y-95906247D01*
X144032482Y-95919814D01*
X143979825Y-95925000D01*
X142645175Y-95925000D01*
X142592518Y-95919814D01*
X142547796Y-95906247D01*
X142506567Y-95884210D01*
X142470439Y-95854561D01*
X142440790Y-95818433D01*
X142418753Y-95777204D01*
X142405186Y-95732482D01*
X142400000Y-95679825D01*
X142400000Y-94020175D01*
X142405186Y-93967518D01*
X142418753Y-93922796D01*
X142440790Y-93881567D01*
X142470439Y-93845439D01*
X142506567Y-93815790D01*
X142547796Y-93793753D01*
X142592518Y-93780186D01*
X142645175Y-93775000D01*
X143979825Y-93775000D01*
X144032482Y-93780186D01*
X144032482Y-93780186D01*
G37*
G36*
X100232482Y-93680186D02*
X100277204Y-93693753D01*
X100318433Y-93715790D01*
X100354561Y-93745439D01*
X100384210Y-93781567D01*
X100406247Y-93822796D01*
X100419814Y-93867518D01*
X100425000Y-93920175D01*
X100425000Y-95579825D01*
X100419814Y-95632482D01*
X100406247Y-95677204D01*
X100384210Y-95718433D01*
X100354561Y-95754561D01*
X100318433Y-95784210D01*
X100277204Y-95806247D01*
X100232482Y-95819814D01*
X100179825Y-95825000D01*
X98845175Y-95825000D01*
X98792518Y-95819814D01*
X98747796Y-95806247D01*
X98706567Y-95784210D01*
X98670439Y-95754561D01*
X98640790Y-95718433D01*
X98618753Y-95677204D01*
X98605186Y-95632482D01*
X98600000Y-95579825D01*
X98600000Y-93920175D01*
X98605186Y-93867518D01*
X98618753Y-93822796D01*
X98640790Y-93781567D01*
X98670439Y-93745439D01*
X98706567Y-93715790D01*
X98747796Y-93693753D01*
X98792518Y-93680186D01*
X98845175Y-93675000D01*
X100179825Y-93675000D01*
X100232482Y-93680186D01*
X100232482Y-93680186D01*
G37*
G36*
X103207482Y-93680186D02*
X103252204Y-93693753D01*
X103293433Y-93715790D01*
X103329561Y-93745439D01*
X103359210Y-93781567D01*
X103381247Y-93822796D01*
X103394814Y-93867518D01*
X103400000Y-93920175D01*
X103400000Y-95579825D01*
X103394814Y-95632482D01*
X103381247Y-95677204D01*
X103359210Y-95718433D01*
X103329561Y-95754561D01*
X103293433Y-95784210D01*
X103252204Y-95806247D01*
X103207482Y-95819814D01*
X103154825Y-95825000D01*
X101820175Y-95825000D01*
X101767518Y-95819814D01*
X101722796Y-95806247D01*
X101681567Y-95784210D01*
X101645439Y-95754561D01*
X101615790Y-95718433D01*
X101593753Y-95677204D01*
X101580186Y-95632482D01*
X101575000Y-95579825D01*
X101575000Y-93920175D01*
X101580186Y-93867518D01*
X101593753Y-93822796D01*
X101615790Y-93781567D01*
X101645439Y-93745439D01*
X101681567Y-93715790D01*
X101722796Y-93693753D01*
X101767518Y-93680186D01*
X101820175Y-93675000D01*
X103154825Y-93675000D01*
X103207482Y-93680186D01*
X103207482Y-93680186D01*
G37*
G36*
X154320857Y-92692272D02*
X154521042Y-92775191D01*
X154521045Y-92775193D01*
X154690064Y-92888128D01*
X154701213Y-92895578D01*
X154854422Y-93048787D01*
X154974809Y-93228958D01*
X155057728Y-93429143D01*
X155100000Y-93641658D01*
X155100000Y-93858342D01*
X155057728Y-94070857D01*
X154974809Y-94271042D01*
X154854422Y-94451213D01*
X154701213Y-94604422D01*
X154701210Y-94604424D01*
X154701209Y-94604425D01*
X154561934Y-94697486D01*
X154521042Y-94724809D01*
X154320857Y-94807728D01*
X154108342Y-94850000D01*
X153891658Y-94850000D01*
X153679143Y-94807728D01*
X153478958Y-94724809D01*
X153438066Y-94697486D01*
X153298791Y-94604425D01*
X153298790Y-94604424D01*
X153298787Y-94604422D01*
X153145578Y-94451213D01*
X153025191Y-94271042D01*
X152942272Y-94070857D01*
X152900000Y-93858342D01*
X152900000Y-93641658D01*
X152942272Y-93429143D01*
X153025191Y-93228958D01*
X153145578Y-93048787D01*
X153298787Y-92895578D01*
X153309937Y-92888128D01*
X153478955Y-92775193D01*
X153478958Y-92775191D01*
X153679143Y-92692272D01*
X153891658Y-92650000D01*
X154108342Y-92650000D01*
X154320857Y-92692272D01*
X154320857Y-92692272D01*
G37*
G36*
X110570857Y-91992272D02*
X110771042Y-92075191D01*
X110951213Y-92195578D01*
X111104422Y-92348787D01*
X111224809Y-92528958D01*
X111307728Y-92729143D01*
X111350000Y-92941658D01*
X111350000Y-93158342D01*
X111307728Y-93370857D01*
X111224809Y-93571042D01*
X111224807Y-93571045D01*
X111151236Y-93681152D01*
X111104422Y-93751213D01*
X110951213Y-93904422D01*
X110951210Y-93904424D01*
X110951209Y-93904425D01*
X110908873Y-93932713D01*
X110771042Y-94024809D01*
X110570857Y-94107728D01*
X110358342Y-94150000D01*
X110141658Y-94150000D01*
X109929143Y-94107728D01*
X109728958Y-94024809D01*
X109591127Y-93932713D01*
X109548791Y-93904425D01*
X109548790Y-93904424D01*
X109548787Y-93904422D01*
X109395578Y-93751213D01*
X109348765Y-93681152D01*
X109275193Y-93571045D01*
X109275191Y-93571042D01*
X109192272Y-93370857D01*
X109150000Y-93158342D01*
X109150000Y-92941658D01*
X109192272Y-92729143D01*
X109275191Y-92528958D01*
X109395578Y-92348787D01*
X109548787Y-92195578D01*
X109728958Y-92075191D01*
X109929143Y-91992272D01*
X110141658Y-91950000D01*
X110358342Y-91950000D01*
X110570857Y-91992272D01*
X110570857Y-91992272D01*
G37*
G36*
X51095770Y-91555372D02*
X51211689Y-91578429D01*
X51393678Y-91653811D01*
X51557463Y-91763249D01*
X51696751Y-91902537D01*
X51806189Y-92066322D01*
X51881571Y-92248311D01*
X51901557Y-92348787D01*
X51920000Y-92441507D01*
X51920000Y-92638493D01*
X51909302Y-92692273D01*
X51881571Y-92831689D01*
X51806189Y-93013678D01*
X51696751Y-93177463D01*
X51557463Y-93316751D01*
X51393678Y-93426189D01*
X51211689Y-93501571D01*
X51095770Y-93524628D01*
X51018493Y-93540000D01*
X50821507Y-93540000D01*
X50744230Y-93524628D01*
X50628311Y-93501571D01*
X50446322Y-93426189D01*
X50282537Y-93316751D01*
X50143249Y-93177463D01*
X50033811Y-93013678D01*
X49958429Y-92831689D01*
X49930698Y-92692273D01*
X49920000Y-92638493D01*
X49920000Y-92441507D01*
X49938443Y-92348787D01*
X49958429Y-92248311D01*
X50033811Y-92066322D01*
X50143249Y-91902537D01*
X50282537Y-91763249D01*
X50446322Y-91653811D01*
X50628311Y-91578429D01*
X50744230Y-91555372D01*
X50821507Y-91540000D01*
X51018493Y-91540000D01*
X51095770Y-91555372D01*
X51095770Y-91555372D01*
G37*
G36*
X35855770Y-91555372D02*
X35971689Y-91578429D01*
X36153678Y-91653811D01*
X36317463Y-91763249D01*
X36456751Y-91902537D01*
X36566189Y-92066322D01*
X36641571Y-92248311D01*
X36661557Y-92348787D01*
X36680000Y-92441507D01*
X36680000Y-92638493D01*
X36669302Y-92692273D01*
X36641571Y-92831689D01*
X36566189Y-93013678D01*
X36456751Y-93177463D01*
X36317463Y-93316751D01*
X36153678Y-93426189D01*
X35971689Y-93501571D01*
X35855770Y-93524628D01*
X35778493Y-93540000D01*
X35581507Y-93540000D01*
X35504230Y-93524628D01*
X35388311Y-93501571D01*
X35206322Y-93426189D01*
X35042537Y-93316751D01*
X34903249Y-93177463D01*
X34793811Y-93013678D01*
X34718429Y-92831689D01*
X34690698Y-92692273D01*
X34680000Y-92638493D01*
X34680000Y-92441507D01*
X34698443Y-92348787D01*
X34718429Y-92248311D01*
X34793811Y-92066322D01*
X34903249Y-91902537D01*
X35042537Y-91763249D01*
X35206322Y-91653811D01*
X35388311Y-91578429D01*
X35504230Y-91555372D01*
X35581507Y-91540000D01*
X35778493Y-91540000D01*
X35855770Y-91555372D01*
X35855770Y-91555372D01*
G37*
G36*
X143832482Y-91092686D02*
X143877204Y-91106253D01*
X143918433Y-91128290D01*
X143954561Y-91157939D01*
X143984210Y-91194067D01*
X144006247Y-91235296D01*
X144019814Y-91280018D01*
X144025000Y-91332675D01*
X144025000Y-92667325D01*
X144019814Y-92719982D01*
X144006247Y-92764704D01*
X143984210Y-92805933D01*
X143954561Y-92842061D01*
X143918433Y-92871710D01*
X143877204Y-92893747D01*
X143832482Y-92907314D01*
X143779825Y-92912500D01*
X141220175Y-92912500D01*
X141167518Y-92907314D01*
X141122796Y-92893747D01*
X141081567Y-92871710D01*
X141045439Y-92842061D01*
X141015790Y-92805933D01*
X140993753Y-92764704D01*
X140980186Y-92719982D01*
X140975000Y-92667325D01*
X140975000Y-91332675D01*
X140980186Y-91280018D01*
X140993753Y-91235296D01*
X141015790Y-91194067D01*
X141045439Y-91157939D01*
X141081567Y-91128290D01*
X141122796Y-91106253D01*
X141167518Y-91092686D01*
X141220175Y-91087500D01*
X143779825Y-91087500D01*
X143832482Y-91092686D01*
X143832482Y-91092686D01*
G37*
G36*
X148582482Y-91080186D02*
X148627204Y-91093753D01*
X148668433Y-91115790D01*
X148704561Y-91145439D01*
X148734210Y-91181567D01*
X148756247Y-91222796D01*
X148769814Y-91267518D01*
X148775000Y-91320175D01*
X148775000Y-92654825D01*
X148769814Y-92707482D01*
X148756247Y-92752204D01*
X148734210Y-92793433D01*
X148704561Y-92829561D01*
X148668433Y-92859210D01*
X148627204Y-92881247D01*
X148582482Y-92894814D01*
X148529825Y-92900000D01*
X145970175Y-92900000D01*
X145917518Y-92894814D01*
X145872796Y-92881247D01*
X145831567Y-92859210D01*
X145795439Y-92829561D01*
X145765790Y-92793433D01*
X145743753Y-92752204D01*
X145730186Y-92707482D01*
X145725000Y-92654825D01*
X145725000Y-91320175D01*
X145730186Y-91267518D01*
X145743753Y-91222796D01*
X145765790Y-91181567D01*
X145795439Y-91145439D01*
X145831567Y-91115790D01*
X145872796Y-91093753D01*
X145917518Y-91080186D01*
X145970175Y-91075000D01*
X148529825Y-91075000D01*
X148582482Y-91080186D01*
X148582482Y-91080186D01*
G37*
G36*
X104832482Y-91080186D02*
X104877204Y-91093753D01*
X104918433Y-91115790D01*
X104954561Y-91145439D01*
X104984210Y-91181567D01*
X105006247Y-91222796D01*
X105019814Y-91267518D01*
X105025000Y-91320175D01*
X105025000Y-92654825D01*
X105019814Y-92707482D01*
X105006247Y-92752204D01*
X104984210Y-92793433D01*
X104954561Y-92829561D01*
X104918433Y-92859210D01*
X104877204Y-92881247D01*
X104832482Y-92894814D01*
X104779825Y-92900000D01*
X102220175Y-92900000D01*
X102167518Y-92894814D01*
X102122796Y-92881247D01*
X102081567Y-92859210D01*
X102045439Y-92829561D01*
X102015790Y-92793433D01*
X101993753Y-92752204D01*
X101980186Y-92707482D01*
X101975000Y-92654825D01*
X101975000Y-91320175D01*
X101980186Y-91267518D01*
X101993753Y-91222796D01*
X102015790Y-91181567D01*
X102045439Y-91145439D01*
X102081567Y-91115790D01*
X102122796Y-91093753D01*
X102167518Y-91080186D01*
X102220175Y-91075000D01*
X104779825Y-91075000D01*
X104832482Y-91080186D01*
X104832482Y-91080186D01*
G37*
G36*
X100082482Y-91067686D02*
X100127204Y-91081253D01*
X100168433Y-91103290D01*
X100204561Y-91132939D01*
X100234210Y-91169067D01*
X100256247Y-91210296D01*
X100269814Y-91255018D01*
X100275000Y-91307675D01*
X100275000Y-92642325D01*
X100269814Y-92694982D01*
X100256247Y-92739704D01*
X100234210Y-92780933D01*
X100204561Y-92817061D01*
X100168433Y-92846710D01*
X100127204Y-92868747D01*
X100082482Y-92882314D01*
X100029825Y-92887500D01*
X97470175Y-92887500D01*
X97417518Y-92882314D01*
X97372796Y-92868747D01*
X97331567Y-92846710D01*
X97295439Y-92817061D01*
X97265790Y-92780933D01*
X97243753Y-92739704D01*
X97230186Y-92694982D01*
X97225000Y-92642325D01*
X97225000Y-91307675D01*
X97230186Y-91255018D01*
X97243753Y-91210296D01*
X97265790Y-91169067D01*
X97295439Y-91132939D01*
X97331567Y-91103290D01*
X97372796Y-91081253D01*
X97417518Y-91067686D01*
X97470175Y-91062500D01*
X100029825Y-91062500D01*
X100082482Y-91067686D01*
X100082482Y-91067686D01*
G37*
G36*
X35855770Y-89015372D02*
X35971689Y-89038429D01*
X36153678Y-89113811D01*
X36317463Y-89223249D01*
X36456751Y-89362537D01*
X36566189Y-89526322D01*
X36641571Y-89708311D01*
X36657761Y-89789704D01*
X36679046Y-89896710D01*
X36680000Y-89901509D01*
X36680000Y-90098491D01*
X36641571Y-90291689D01*
X36566189Y-90473678D01*
X36456751Y-90637463D01*
X36317463Y-90776751D01*
X36153678Y-90886189D01*
X35971689Y-90961571D01*
X35855770Y-90984628D01*
X35778493Y-91000000D01*
X35581507Y-91000000D01*
X35504230Y-90984628D01*
X35388311Y-90961571D01*
X35206322Y-90886189D01*
X35042537Y-90776751D01*
X34903249Y-90637463D01*
X34793811Y-90473678D01*
X34718429Y-90291689D01*
X34680000Y-90098491D01*
X34680000Y-89901509D01*
X34680955Y-89896710D01*
X34702239Y-89789704D01*
X34718429Y-89708311D01*
X34793811Y-89526322D01*
X34903249Y-89362537D01*
X35042537Y-89223249D01*
X35206322Y-89113811D01*
X35388311Y-89038429D01*
X35504230Y-89015372D01*
X35581507Y-89000000D01*
X35778493Y-89000000D01*
X35855770Y-89015372D01*
X35855770Y-89015372D01*
G37*
G36*
X51095770Y-89015372D02*
X51211689Y-89038429D01*
X51393678Y-89113811D01*
X51557463Y-89223249D01*
X51696751Y-89362537D01*
X51806189Y-89526322D01*
X51881571Y-89708311D01*
X51897761Y-89789704D01*
X51919046Y-89896710D01*
X51920000Y-89901509D01*
X51920000Y-90098491D01*
X51881571Y-90291689D01*
X51806189Y-90473678D01*
X51696751Y-90637463D01*
X51557463Y-90776751D01*
X51393678Y-90886189D01*
X51211689Y-90961571D01*
X51095770Y-90984628D01*
X51018493Y-91000000D01*
X50821507Y-91000000D01*
X50744230Y-90984628D01*
X50628311Y-90961571D01*
X50446322Y-90886189D01*
X50282537Y-90776751D01*
X50143249Y-90637463D01*
X50033811Y-90473678D01*
X49958429Y-90291689D01*
X49920000Y-90098491D01*
X49920000Y-89901509D01*
X49920955Y-89896710D01*
X49942239Y-89789704D01*
X49958429Y-89708311D01*
X50033811Y-89526322D01*
X50143249Y-89362537D01*
X50282537Y-89223249D01*
X50446322Y-89113811D01*
X50628311Y-89038429D01*
X50744230Y-89015372D01*
X50821507Y-89000000D01*
X51018493Y-89000000D01*
X51095770Y-89015372D01*
X51095770Y-89015372D01*
G37*
G36*
X143832482Y-88117686D02*
X143877204Y-88131253D01*
X143918433Y-88153290D01*
X143954561Y-88182939D01*
X143984210Y-88219067D01*
X144006247Y-88260296D01*
X144019814Y-88305018D01*
X144025000Y-88357675D01*
X144025000Y-89692325D01*
X144019814Y-89744982D01*
X144006247Y-89789704D01*
X143984210Y-89830933D01*
X143954561Y-89867061D01*
X143918433Y-89896710D01*
X143877204Y-89918747D01*
X143832482Y-89932314D01*
X143779825Y-89937500D01*
X141220175Y-89937500D01*
X141167518Y-89932314D01*
X141122796Y-89918747D01*
X141081567Y-89896710D01*
X141045439Y-89867061D01*
X141015790Y-89830933D01*
X140993753Y-89789704D01*
X140980186Y-89744982D01*
X140975000Y-89692325D01*
X140975000Y-88357675D01*
X140980186Y-88305018D01*
X140993753Y-88260296D01*
X141015790Y-88219067D01*
X141045439Y-88182939D01*
X141081567Y-88153290D01*
X141122796Y-88131253D01*
X141167518Y-88117686D01*
X141220175Y-88112500D01*
X143779825Y-88112500D01*
X143832482Y-88117686D01*
X143832482Y-88117686D01*
G37*
G36*
X148582482Y-88105186D02*
X148627204Y-88118753D01*
X148668433Y-88140790D01*
X148704561Y-88170439D01*
X148734210Y-88206567D01*
X148756247Y-88247796D01*
X148769814Y-88292518D01*
X148775000Y-88345175D01*
X148775000Y-89679825D01*
X148769814Y-89732482D01*
X148756247Y-89777204D01*
X148734210Y-89818433D01*
X148704561Y-89854561D01*
X148668433Y-89884210D01*
X148627204Y-89906247D01*
X148582482Y-89919814D01*
X148529825Y-89925000D01*
X145970175Y-89925000D01*
X145917518Y-89919814D01*
X145872796Y-89906247D01*
X145831567Y-89884210D01*
X145795439Y-89854561D01*
X145765790Y-89818433D01*
X145743753Y-89777204D01*
X145730186Y-89732482D01*
X145725000Y-89679825D01*
X145725000Y-88345175D01*
X145730186Y-88292518D01*
X145743753Y-88247796D01*
X145765790Y-88206567D01*
X145795439Y-88170439D01*
X145831567Y-88140790D01*
X145872796Y-88118753D01*
X145917518Y-88105186D01*
X145970175Y-88100000D01*
X148529825Y-88100000D01*
X148582482Y-88105186D01*
X148582482Y-88105186D01*
G37*
G36*
X104832482Y-88105186D02*
X104877204Y-88118753D01*
X104918433Y-88140790D01*
X104954561Y-88170439D01*
X104984210Y-88206567D01*
X105006247Y-88247796D01*
X105019814Y-88292518D01*
X105025000Y-88345175D01*
X105025000Y-89679825D01*
X105019814Y-89732482D01*
X105006247Y-89777204D01*
X104984210Y-89818433D01*
X104954561Y-89854561D01*
X104918433Y-89884210D01*
X104877204Y-89906247D01*
X104832482Y-89919814D01*
X104779825Y-89925000D01*
X102220175Y-89925000D01*
X102167518Y-89919814D01*
X102122796Y-89906247D01*
X102081567Y-89884210D01*
X102045439Y-89854561D01*
X102015790Y-89818433D01*
X101993753Y-89777204D01*
X101980186Y-89732482D01*
X101975000Y-89679825D01*
X101975000Y-88345175D01*
X101980186Y-88292518D01*
X101993753Y-88247796D01*
X102015790Y-88206567D01*
X102045439Y-88170439D01*
X102081567Y-88140790D01*
X102122796Y-88118753D01*
X102167518Y-88105186D01*
X102220175Y-88100000D01*
X104779825Y-88100000D01*
X104832482Y-88105186D01*
X104832482Y-88105186D01*
G37*
G36*
X100082482Y-88092686D02*
X100127204Y-88106253D01*
X100168433Y-88128290D01*
X100204561Y-88157939D01*
X100234210Y-88194067D01*
X100256247Y-88235296D01*
X100269814Y-88280018D01*
X100275000Y-88332675D01*
X100275000Y-89667325D01*
X100269814Y-89719982D01*
X100256247Y-89764704D01*
X100234210Y-89805933D01*
X100204561Y-89842061D01*
X100168433Y-89871710D01*
X100127204Y-89893747D01*
X100082482Y-89907314D01*
X100029825Y-89912500D01*
X97470175Y-89912500D01*
X97417518Y-89907314D01*
X97372796Y-89893747D01*
X97331567Y-89871710D01*
X97295439Y-89842061D01*
X97265790Y-89805933D01*
X97243753Y-89764704D01*
X97230186Y-89719982D01*
X97225000Y-89667325D01*
X97225000Y-88332675D01*
X97230186Y-88280018D01*
X97243753Y-88235296D01*
X97265790Y-88194067D01*
X97295439Y-88157939D01*
X97331567Y-88128290D01*
X97372796Y-88106253D01*
X97417518Y-88092686D01*
X97470175Y-88087500D01*
X100029825Y-88087500D01*
X100082482Y-88092686D01*
X100082482Y-88092686D01*
G37*
G36*
X51095770Y-86475372D02*
X51211689Y-86498429D01*
X51393678Y-86573811D01*
X51557463Y-86683249D01*
X51696751Y-86822537D01*
X51806189Y-86986322D01*
X51881571Y-87168311D01*
X51920000Y-87361509D01*
X51920000Y-87558491D01*
X51881571Y-87751689D01*
X51806189Y-87933678D01*
X51696751Y-88097463D01*
X51557463Y-88236751D01*
X51393678Y-88346189D01*
X51211689Y-88421571D01*
X51095770Y-88444628D01*
X51018493Y-88460000D01*
X50821507Y-88460000D01*
X50744230Y-88444628D01*
X50628311Y-88421571D01*
X50446322Y-88346189D01*
X50282537Y-88236751D01*
X50143249Y-88097463D01*
X50033811Y-87933678D01*
X49958429Y-87751689D01*
X49920000Y-87558491D01*
X49920000Y-87361509D01*
X49958429Y-87168311D01*
X50033811Y-86986322D01*
X50143249Y-86822537D01*
X50282537Y-86683249D01*
X50446322Y-86573811D01*
X50628311Y-86498429D01*
X50744230Y-86475372D01*
X50821507Y-86460000D01*
X51018493Y-86460000D01*
X51095770Y-86475372D01*
X51095770Y-86475372D01*
G37*
G36*
X35855770Y-86475372D02*
X35971689Y-86498429D01*
X36153678Y-86573811D01*
X36317463Y-86683249D01*
X36456751Y-86822537D01*
X36566189Y-86986322D01*
X36641571Y-87168311D01*
X36680000Y-87361509D01*
X36680000Y-87558491D01*
X36641571Y-87751689D01*
X36566189Y-87933678D01*
X36456751Y-88097463D01*
X36317463Y-88236751D01*
X36153678Y-88346189D01*
X35971689Y-88421571D01*
X35855770Y-88444628D01*
X35778493Y-88460000D01*
X35581507Y-88460000D01*
X35504230Y-88444628D01*
X35388311Y-88421571D01*
X35206322Y-88346189D01*
X35042537Y-88236751D01*
X34903249Y-88097463D01*
X34793811Y-87933678D01*
X34718429Y-87751689D01*
X34680000Y-87558491D01*
X34680000Y-87361509D01*
X34718429Y-87168311D01*
X34793811Y-86986322D01*
X34903249Y-86822537D01*
X35042537Y-86683249D01*
X35206322Y-86573811D01*
X35388311Y-86498429D01*
X35504230Y-86475372D01*
X35581507Y-86460000D01*
X35778493Y-86460000D01*
X35855770Y-86475372D01*
X35855770Y-86475372D01*
G37*
G36*
X51095770Y-83935372D02*
X51211689Y-83958429D01*
X51393678Y-84033811D01*
X51557463Y-84143249D01*
X51696751Y-84282537D01*
X51806189Y-84446322D01*
X51881571Y-84628311D01*
X51920000Y-84821509D01*
X51920000Y-85018491D01*
X51881571Y-85211689D01*
X51806189Y-85393678D01*
X51696751Y-85557463D01*
X51557463Y-85696751D01*
X51393678Y-85806189D01*
X51211689Y-85881571D01*
X51095770Y-85904628D01*
X51018493Y-85920000D01*
X50821507Y-85920000D01*
X50744230Y-85904628D01*
X50628311Y-85881571D01*
X50446322Y-85806189D01*
X50282537Y-85696751D01*
X50143249Y-85557463D01*
X50033811Y-85393678D01*
X49958429Y-85211689D01*
X49920000Y-85018491D01*
X49920000Y-84821509D01*
X49958429Y-84628311D01*
X50033811Y-84446322D01*
X50143249Y-84282537D01*
X50282537Y-84143249D01*
X50446322Y-84033811D01*
X50628311Y-83958429D01*
X50744230Y-83935372D01*
X50821507Y-83920000D01*
X51018493Y-83920000D01*
X51095770Y-83935372D01*
X51095770Y-83935372D01*
G37*
G36*
X35855770Y-83935372D02*
X35971689Y-83958429D01*
X36153678Y-84033811D01*
X36317463Y-84143249D01*
X36456751Y-84282537D01*
X36566189Y-84446322D01*
X36641571Y-84628311D01*
X36680000Y-84821509D01*
X36680000Y-85018491D01*
X36641571Y-85211689D01*
X36566189Y-85393678D01*
X36456751Y-85557463D01*
X36317463Y-85696751D01*
X36153678Y-85806189D01*
X35971689Y-85881571D01*
X35855770Y-85904628D01*
X35778493Y-85920000D01*
X35581507Y-85920000D01*
X35504230Y-85904628D01*
X35388311Y-85881571D01*
X35206322Y-85806189D01*
X35042537Y-85696751D01*
X34903249Y-85557463D01*
X34793811Y-85393678D01*
X34718429Y-85211689D01*
X34680000Y-85018491D01*
X34680000Y-84821509D01*
X34718429Y-84628311D01*
X34793811Y-84446322D01*
X34903249Y-84282537D01*
X35042537Y-84143249D01*
X35206322Y-84033811D01*
X35388311Y-83958429D01*
X35504230Y-83935372D01*
X35581507Y-83920000D01*
X35778493Y-83920000D01*
X35855770Y-83935372D01*
X35855770Y-83935372D01*
G37*
G36*
X35855770Y-81395372D02*
X35971689Y-81418429D01*
X36153678Y-81493811D01*
X36317463Y-81603249D01*
X36456751Y-81742537D01*
X36566189Y-81906322D01*
X36641571Y-82088311D01*
X36680000Y-82281509D01*
X36680000Y-82478491D01*
X36641571Y-82671689D01*
X36566189Y-82853678D01*
X36456751Y-83017463D01*
X36317463Y-83156751D01*
X36153678Y-83266189D01*
X35971689Y-83341571D01*
X35855770Y-83364628D01*
X35778493Y-83380000D01*
X35581507Y-83380000D01*
X35504230Y-83364628D01*
X35388311Y-83341571D01*
X35206322Y-83266189D01*
X35042537Y-83156751D01*
X34903249Y-83017463D01*
X34793811Y-82853678D01*
X34718429Y-82671689D01*
X34680000Y-82478491D01*
X34680000Y-82281509D01*
X34718429Y-82088311D01*
X34793811Y-81906322D01*
X34903249Y-81742537D01*
X35042537Y-81603249D01*
X35206322Y-81493811D01*
X35388311Y-81418429D01*
X35504230Y-81395372D01*
X35581507Y-81380000D01*
X35778493Y-81380000D01*
X35855770Y-81395372D01*
X35855770Y-81395372D01*
G37*
G36*
X51095770Y-81395372D02*
X51211689Y-81418429D01*
X51393678Y-81493811D01*
X51557463Y-81603249D01*
X51696751Y-81742537D01*
X51806189Y-81906322D01*
X51881571Y-82088311D01*
X51920000Y-82281509D01*
X51920000Y-82478491D01*
X51881571Y-82671689D01*
X51806189Y-82853678D01*
X51696751Y-83017463D01*
X51557463Y-83156751D01*
X51393678Y-83266189D01*
X51211689Y-83341571D01*
X51095770Y-83364628D01*
X51018493Y-83380000D01*
X50821507Y-83380000D01*
X50744230Y-83364628D01*
X50628311Y-83341571D01*
X50446322Y-83266189D01*
X50282537Y-83156751D01*
X50143249Y-83017463D01*
X50033811Y-82853678D01*
X49958429Y-82671689D01*
X49920000Y-82478491D01*
X49920000Y-82281509D01*
X49958429Y-82088311D01*
X50033811Y-81906322D01*
X50143249Y-81742537D01*
X50282537Y-81603249D01*
X50446322Y-81493811D01*
X50628311Y-81418429D01*
X50744230Y-81395372D01*
X50821507Y-81380000D01*
X51018493Y-81380000D01*
X51095770Y-81395372D01*
X51095770Y-81395372D01*
G37*
G36*
X35855770Y-78855372D02*
X35971689Y-78878429D01*
X36153678Y-78953811D01*
X36317463Y-79063249D01*
X36456751Y-79202537D01*
X36566189Y-79366322D01*
X36641571Y-79548311D01*
X36680000Y-79741509D01*
X36680000Y-79938491D01*
X36641571Y-80131689D01*
X36566189Y-80313678D01*
X36456751Y-80477463D01*
X36317463Y-80616751D01*
X36153678Y-80726189D01*
X35971689Y-80801571D01*
X35855770Y-80824628D01*
X35778493Y-80840000D01*
X35581507Y-80840000D01*
X35504230Y-80824628D01*
X35388311Y-80801571D01*
X35206322Y-80726189D01*
X35042537Y-80616751D01*
X34903249Y-80477463D01*
X34793811Y-80313678D01*
X34718429Y-80131689D01*
X34680000Y-79938491D01*
X34680000Y-79741509D01*
X34718429Y-79548311D01*
X34793811Y-79366322D01*
X34903249Y-79202537D01*
X35042537Y-79063249D01*
X35206322Y-78953811D01*
X35388311Y-78878429D01*
X35504230Y-78855372D01*
X35581507Y-78840000D01*
X35778493Y-78840000D01*
X35855770Y-78855372D01*
X35855770Y-78855372D01*
G37*
G36*
X51095770Y-78855372D02*
X51211689Y-78878429D01*
X51393678Y-78953811D01*
X51557463Y-79063249D01*
X51696751Y-79202537D01*
X51806189Y-79366322D01*
X51881571Y-79548311D01*
X51920000Y-79741509D01*
X51920000Y-79938491D01*
X51881571Y-80131689D01*
X51806189Y-80313678D01*
X51696751Y-80477463D01*
X51557463Y-80616751D01*
X51393678Y-80726189D01*
X51211689Y-80801571D01*
X51095770Y-80824628D01*
X51018493Y-80840000D01*
X50821507Y-80840000D01*
X50744230Y-80824628D01*
X50628311Y-80801571D01*
X50446322Y-80726189D01*
X50282537Y-80616751D01*
X50143249Y-80477463D01*
X50033811Y-80313678D01*
X49958429Y-80131689D01*
X49920000Y-79938491D01*
X49920000Y-79741509D01*
X49958429Y-79548311D01*
X50033811Y-79366322D01*
X50143249Y-79202537D01*
X50282537Y-79063249D01*
X50446322Y-78953811D01*
X50628311Y-78878429D01*
X50744230Y-78855372D01*
X50821507Y-78840000D01*
X51018493Y-78840000D01*
X51095770Y-78855372D01*
X51095770Y-78855372D01*
G37*
G36*
X151882482Y-77830186D02*
X151927204Y-77843753D01*
X151968433Y-77865790D01*
X152004561Y-77895439D01*
X152034210Y-77931567D01*
X152056247Y-77972796D01*
X152069814Y-78017518D01*
X152075000Y-78070175D01*
X152075000Y-79404825D01*
X152069814Y-79457482D01*
X152056247Y-79502204D01*
X152034210Y-79543433D01*
X152004561Y-79579561D01*
X151968433Y-79609210D01*
X151927204Y-79631247D01*
X151882482Y-79644814D01*
X151829825Y-79650000D01*
X150170175Y-79650000D01*
X150117518Y-79644814D01*
X150072796Y-79631247D01*
X150031567Y-79609210D01*
X149995439Y-79579561D01*
X149965790Y-79543433D01*
X149943753Y-79502204D01*
X149930186Y-79457482D01*
X149925000Y-79404825D01*
X149925000Y-78070175D01*
X149930186Y-78017518D01*
X149943753Y-77972796D01*
X149965790Y-77931567D01*
X149995439Y-77895439D01*
X150031567Y-77865790D01*
X150072796Y-77843753D01*
X150117518Y-77830186D01*
X150170175Y-77825000D01*
X151829825Y-77825000D01*
X151882482Y-77830186D01*
X151882482Y-77830186D01*
G37*
G36*
X141882482Y-77830186D02*
X141927204Y-77843753D01*
X141968433Y-77865790D01*
X142004561Y-77895439D01*
X142034210Y-77931567D01*
X142056247Y-77972796D01*
X142069814Y-78017518D01*
X142075000Y-78070175D01*
X142075000Y-79404825D01*
X142069814Y-79457482D01*
X142056247Y-79502204D01*
X142034210Y-79543433D01*
X142004561Y-79579561D01*
X141968433Y-79609210D01*
X141927204Y-79631247D01*
X141882482Y-79644814D01*
X141829825Y-79650000D01*
X140170175Y-79650000D01*
X140117518Y-79644814D01*
X140072796Y-79631247D01*
X140031567Y-79609210D01*
X139995439Y-79579561D01*
X139965790Y-79543433D01*
X139943753Y-79502204D01*
X139930186Y-79457482D01*
X139925000Y-79404825D01*
X139925000Y-78070175D01*
X139930186Y-78017518D01*
X139943753Y-77972796D01*
X139965790Y-77931567D01*
X139995439Y-77895439D01*
X140031567Y-77865790D01*
X140072796Y-77843753D01*
X140117518Y-77830186D01*
X140170175Y-77825000D01*
X141829825Y-77825000D01*
X141882482Y-77830186D01*
X141882482Y-77830186D01*
G37*
G36*
X98382482Y-77080186D02*
X98427204Y-77093753D01*
X98468433Y-77115790D01*
X98504561Y-77145439D01*
X98534210Y-77181567D01*
X98556247Y-77222796D01*
X98569814Y-77267518D01*
X98575000Y-77320175D01*
X98575000Y-78654825D01*
X98569814Y-78707482D01*
X98556247Y-78752204D01*
X98534210Y-78793433D01*
X98504561Y-78829561D01*
X98468433Y-78859210D01*
X98427204Y-78881247D01*
X98382482Y-78894814D01*
X98329825Y-78900000D01*
X96670175Y-78900000D01*
X96617518Y-78894814D01*
X96572796Y-78881247D01*
X96531567Y-78859210D01*
X96495439Y-78829561D01*
X96465790Y-78793433D01*
X96443753Y-78752204D01*
X96430186Y-78707482D01*
X96425000Y-78654825D01*
X96425000Y-77320175D01*
X96430186Y-77267518D01*
X96443753Y-77222796D01*
X96465790Y-77181567D01*
X96495439Y-77145439D01*
X96531567Y-77115790D01*
X96572796Y-77093753D01*
X96617518Y-77080186D01*
X96670175Y-77075000D01*
X98329825Y-77075000D01*
X98382482Y-77080186D01*
X98382482Y-77080186D01*
G37*
G36*
X108382482Y-77080186D02*
X108427204Y-77093753D01*
X108468433Y-77115790D01*
X108504561Y-77145439D01*
X108534210Y-77181567D01*
X108556247Y-77222796D01*
X108569814Y-77267518D01*
X108575000Y-77320175D01*
X108575000Y-78654825D01*
X108569814Y-78707482D01*
X108556247Y-78752204D01*
X108534210Y-78793433D01*
X108504561Y-78829561D01*
X108468433Y-78859210D01*
X108427204Y-78881247D01*
X108382482Y-78894814D01*
X108329825Y-78900000D01*
X106670175Y-78900000D01*
X106617518Y-78894814D01*
X106572796Y-78881247D01*
X106531567Y-78859210D01*
X106495439Y-78829561D01*
X106465790Y-78793433D01*
X106443753Y-78752204D01*
X106430186Y-78707482D01*
X106425000Y-78654825D01*
X106425000Y-77320175D01*
X106430186Y-77267518D01*
X106443753Y-77222796D01*
X106465790Y-77181567D01*
X106495439Y-77145439D01*
X106531567Y-77115790D01*
X106572796Y-77093753D01*
X106617518Y-77080186D01*
X106670175Y-77075000D01*
X108329825Y-77075000D01*
X108382482Y-77080186D01*
X108382482Y-77080186D01*
G37*
G36*
X51095770Y-76315372D02*
X51211689Y-76338429D01*
X51393678Y-76413811D01*
X51557463Y-76523249D01*
X51696751Y-76662537D01*
X51806189Y-76826322D01*
X51881571Y-77008311D01*
X51896060Y-77081152D01*
X51916034Y-77181567D01*
X51920000Y-77201509D01*
X51920000Y-77398491D01*
X51881571Y-77591689D01*
X51806189Y-77773678D01*
X51696751Y-77937463D01*
X51557463Y-78076751D01*
X51393678Y-78186189D01*
X51211689Y-78261571D01*
X51095770Y-78284628D01*
X51018493Y-78300000D01*
X50821507Y-78300000D01*
X50744230Y-78284628D01*
X50628311Y-78261571D01*
X50446322Y-78186189D01*
X50282537Y-78076751D01*
X50143249Y-77937463D01*
X50033811Y-77773678D01*
X49958429Y-77591689D01*
X49920000Y-77398491D01*
X49920000Y-77201509D01*
X49923967Y-77181567D01*
X49943940Y-77081152D01*
X49958429Y-77008311D01*
X50033811Y-76826322D01*
X50143249Y-76662537D01*
X50282537Y-76523249D01*
X50446322Y-76413811D01*
X50628311Y-76338429D01*
X50744230Y-76315372D01*
X50821507Y-76300000D01*
X51018493Y-76300000D01*
X51095770Y-76315372D01*
X51095770Y-76315372D01*
G37*
G36*
X35855770Y-76315372D02*
X35971689Y-76338429D01*
X36153678Y-76413811D01*
X36317463Y-76523249D01*
X36456751Y-76662537D01*
X36566189Y-76826322D01*
X36641571Y-77008311D01*
X36656060Y-77081152D01*
X36676034Y-77181567D01*
X36680000Y-77201509D01*
X36680000Y-77398491D01*
X36641571Y-77591689D01*
X36566189Y-77773678D01*
X36456751Y-77937463D01*
X36317463Y-78076751D01*
X36153678Y-78186189D01*
X35971689Y-78261571D01*
X35855770Y-78284628D01*
X35778493Y-78300000D01*
X35581507Y-78300000D01*
X35504230Y-78284628D01*
X35388311Y-78261571D01*
X35206322Y-78186189D01*
X35042537Y-78076751D01*
X34903249Y-77937463D01*
X34793811Y-77773678D01*
X34718429Y-77591689D01*
X34680000Y-77398491D01*
X34680000Y-77201509D01*
X34683967Y-77181567D01*
X34703940Y-77081152D01*
X34718429Y-77008311D01*
X34793811Y-76826322D01*
X34903249Y-76662537D01*
X35042537Y-76523249D01*
X35206322Y-76413811D01*
X35388311Y-76338429D01*
X35504230Y-76315372D01*
X35581507Y-76300000D01*
X35778493Y-76300000D01*
X35855770Y-76315372D01*
X35855770Y-76315372D01*
G37*
G36*
X138320857Y-74692272D02*
X138521042Y-74775191D01*
X138521045Y-74775193D01*
X138694048Y-74890790D01*
X138701213Y-74895578D01*
X138854422Y-75048787D01*
X138854424Y-75048790D01*
X138854425Y-75048791D01*
X138927624Y-75158341D01*
X138974809Y-75228958D01*
X139057728Y-75429143D01*
X139100000Y-75641658D01*
X139100000Y-75858342D01*
X139057728Y-76070857D01*
X138974809Y-76271042D01*
X138974807Y-76271045D01*
X138879414Y-76413811D01*
X138854422Y-76451213D01*
X138701213Y-76604422D01*
X138701210Y-76604424D01*
X138701209Y-76604425D01*
X138595586Y-76675000D01*
X138521042Y-76724809D01*
X138320857Y-76807728D01*
X138108342Y-76850000D01*
X137891658Y-76850000D01*
X137679143Y-76807728D01*
X137478958Y-76724809D01*
X137404414Y-76675000D01*
X137298791Y-76604425D01*
X137298790Y-76604424D01*
X137298787Y-76604422D01*
X137145578Y-76451213D01*
X137120587Y-76413811D01*
X137025193Y-76271045D01*
X137025191Y-76271042D01*
X136942272Y-76070857D01*
X136900000Y-75858342D01*
X136900000Y-75641658D01*
X136942272Y-75429143D01*
X137025191Y-75228958D01*
X137072376Y-75158341D01*
X137145575Y-75048791D01*
X137145576Y-75048790D01*
X137145578Y-75048787D01*
X137298787Y-74895578D01*
X137305953Y-74890790D01*
X137478955Y-74775193D01*
X137478958Y-74775191D01*
X137679143Y-74692272D01*
X137891658Y-74650000D01*
X138108342Y-74650000D01*
X138320857Y-74692272D01*
X138320857Y-74692272D01*
G37*
G36*
X141882482Y-74855186D02*
X141927204Y-74868753D01*
X141968433Y-74890790D01*
X142004561Y-74920439D01*
X142034210Y-74956567D01*
X142056247Y-74997796D01*
X142069814Y-75042518D01*
X142075000Y-75095175D01*
X142075000Y-76429825D01*
X142069814Y-76482482D01*
X142056247Y-76527204D01*
X142034210Y-76568433D01*
X142004561Y-76604561D01*
X141968433Y-76634210D01*
X141927204Y-76656247D01*
X141882482Y-76669814D01*
X141829825Y-76675000D01*
X140170175Y-76675000D01*
X140117518Y-76669814D01*
X140072796Y-76656247D01*
X140031567Y-76634210D01*
X139995439Y-76604561D01*
X139965790Y-76568433D01*
X139943753Y-76527204D01*
X139930186Y-76482482D01*
X139925000Y-76429825D01*
X139925000Y-75095175D01*
X139930186Y-75042518D01*
X139943753Y-74997796D01*
X139965790Y-74956567D01*
X139995439Y-74920439D01*
X140031567Y-74890790D01*
X140072796Y-74868753D01*
X140117518Y-74855186D01*
X140170175Y-74850000D01*
X141829825Y-74850000D01*
X141882482Y-74855186D01*
X141882482Y-74855186D01*
G37*
G36*
X151882482Y-74855186D02*
X151927204Y-74868753D01*
X151968433Y-74890790D01*
X152004561Y-74920439D01*
X152034210Y-74956567D01*
X152056247Y-74997796D01*
X152069814Y-75042518D01*
X152075000Y-75095175D01*
X152075000Y-76429825D01*
X152069814Y-76482482D01*
X152056247Y-76527204D01*
X152034210Y-76568433D01*
X152004561Y-76604561D01*
X151968433Y-76634210D01*
X151927204Y-76656247D01*
X151882482Y-76669814D01*
X151829825Y-76675000D01*
X150170175Y-76675000D01*
X150117518Y-76669814D01*
X150072796Y-76656247D01*
X150031567Y-76634210D01*
X149995439Y-76604561D01*
X149965790Y-76568433D01*
X149943753Y-76527204D01*
X149930186Y-76482482D01*
X149925000Y-76429825D01*
X149925000Y-75095175D01*
X149930186Y-75042518D01*
X149943753Y-74997796D01*
X149965790Y-74956567D01*
X149995439Y-74920439D01*
X150031567Y-74890790D01*
X150072796Y-74868753D01*
X150117518Y-74855186D01*
X150170175Y-74850000D01*
X151829825Y-74850000D01*
X151882482Y-74855186D01*
X151882482Y-74855186D01*
G37*
G36*
X94570857Y-73992272D02*
X94771042Y-74075191D01*
X94771045Y-74075193D01*
X94920463Y-74175031D01*
X94951213Y-74195578D01*
X95104422Y-74348787D01*
X95104424Y-74348790D01*
X95104425Y-74348791D01*
X95152123Y-74420176D01*
X95224809Y-74528958D01*
X95307728Y-74729143D01*
X95350000Y-74941658D01*
X95350000Y-75158342D01*
X95307728Y-75370857D01*
X95224809Y-75571042D01*
X95224807Y-75571045D01*
X95124229Y-75721571D01*
X95104422Y-75751213D01*
X94951213Y-75904422D01*
X94951210Y-75904424D01*
X94951209Y-75904425D01*
X94920416Y-75925000D01*
X94771042Y-76024809D01*
X94570857Y-76107728D01*
X94358342Y-76150000D01*
X94141658Y-76150000D01*
X93929143Y-76107728D01*
X93728958Y-76024809D01*
X93579584Y-75925000D01*
X93548791Y-75904425D01*
X93548790Y-75904424D01*
X93548787Y-75904422D01*
X93395578Y-75751213D01*
X93375772Y-75721571D01*
X93275193Y-75571045D01*
X93275191Y-75571042D01*
X93192272Y-75370857D01*
X93150000Y-75158342D01*
X93150000Y-74941658D01*
X93192272Y-74729143D01*
X93275191Y-74528958D01*
X93347877Y-74420176D01*
X93395575Y-74348791D01*
X93395576Y-74348790D01*
X93395578Y-74348787D01*
X93548787Y-74195578D01*
X93579538Y-74175031D01*
X93728955Y-74075193D01*
X93728958Y-74075191D01*
X93929143Y-73992272D01*
X94141658Y-73950000D01*
X94358342Y-73950000D01*
X94570857Y-73992272D01*
X94570857Y-73992272D01*
G37*
G36*
X108382482Y-74105186D02*
X108427204Y-74118753D01*
X108468433Y-74140790D01*
X108504561Y-74170439D01*
X108534210Y-74206567D01*
X108556247Y-74247796D01*
X108569814Y-74292518D01*
X108575000Y-74345175D01*
X108575000Y-75679825D01*
X108569814Y-75732482D01*
X108556247Y-75777204D01*
X108534210Y-75818433D01*
X108504561Y-75854561D01*
X108468433Y-75884210D01*
X108427204Y-75906247D01*
X108382482Y-75919814D01*
X108329825Y-75925000D01*
X106670175Y-75925000D01*
X106617518Y-75919814D01*
X106572796Y-75906247D01*
X106531567Y-75884210D01*
X106495439Y-75854561D01*
X106465790Y-75818433D01*
X106443753Y-75777204D01*
X106430186Y-75732482D01*
X106425000Y-75679825D01*
X106425000Y-74345175D01*
X106430186Y-74292518D01*
X106443753Y-74247796D01*
X106465790Y-74206567D01*
X106495439Y-74170439D01*
X106531567Y-74140790D01*
X106572796Y-74118753D01*
X106617518Y-74105186D01*
X106670175Y-74100000D01*
X108329825Y-74100000D01*
X108382482Y-74105186D01*
X108382482Y-74105186D01*
G37*
G36*
X98382482Y-74105186D02*
X98427204Y-74118753D01*
X98468433Y-74140790D01*
X98504561Y-74170439D01*
X98534210Y-74206567D01*
X98556247Y-74247796D01*
X98569814Y-74292518D01*
X98575000Y-74345175D01*
X98575000Y-75679825D01*
X98569814Y-75732482D01*
X98556247Y-75777204D01*
X98534210Y-75818433D01*
X98504561Y-75854561D01*
X98468433Y-75884210D01*
X98427204Y-75906247D01*
X98382482Y-75919814D01*
X98329825Y-75925000D01*
X96670175Y-75925000D01*
X96617518Y-75919814D01*
X96572796Y-75906247D01*
X96531567Y-75884210D01*
X96495439Y-75854561D01*
X96465790Y-75818433D01*
X96443753Y-75777204D01*
X96430186Y-75732482D01*
X96425000Y-75679825D01*
X96425000Y-74345175D01*
X96430186Y-74292518D01*
X96443753Y-74247796D01*
X96465790Y-74206567D01*
X96495439Y-74170439D01*
X96531567Y-74140790D01*
X96572796Y-74118753D01*
X96617518Y-74105186D01*
X96670175Y-74100000D01*
X98329825Y-74100000D01*
X98382482Y-74105186D01*
X98382482Y-74105186D01*
G37*
G36*
X51095770Y-73775372D02*
X51211689Y-73798429D01*
X51393678Y-73873811D01*
X51557463Y-73983249D01*
X51696751Y-74122537D01*
X51806189Y-74286322D01*
X51881571Y-74468311D01*
X51893634Y-74528958D01*
X51920000Y-74661507D01*
X51920000Y-74858493D01*
X51912624Y-74895575D01*
X51881571Y-75051689D01*
X51806189Y-75233678D01*
X51696751Y-75397463D01*
X51557463Y-75536751D01*
X51393678Y-75646189D01*
X51211689Y-75721571D01*
X51095770Y-75744628D01*
X51018493Y-75760000D01*
X50821507Y-75760000D01*
X50744230Y-75744628D01*
X50628311Y-75721571D01*
X50446322Y-75646189D01*
X50282537Y-75536751D01*
X50143249Y-75397463D01*
X50033811Y-75233678D01*
X49958429Y-75051689D01*
X49927376Y-74895575D01*
X49920000Y-74858493D01*
X49920000Y-74661507D01*
X49946366Y-74528958D01*
X49958429Y-74468311D01*
X50033811Y-74286322D01*
X50143249Y-74122537D01*
X50282537Y-73983249D01*
X50446322Y-73873811D01*
X50628311Y-73798429D01*
X50744230Y-73775372D01*
X50821507Y-73760000D01*
X51018493Y-73760000D01*
X51095770Y-73775372D01*
X51095770Y-73775372D01*
G37*
G36*
X35855770Y-73775372D02*
X35971689Y-73798429D01*
X36153678Y-73873811D01*
X36317463Y-73983249D01*
X36456751Y-74122537D01*
X36566189Y-74286322D01*
X36641571Y-74468311D01*
X36653634Y-74528958D01*
X36680000Y-74661507D01*
X36680000Y-74858493D01*
X36672624Y-74895575D01*
X36641571Y-75051689D01*
X36566189Y-75233678D01*
X36456751Y-75397463D01*
X36317463Y-75536751D01*
X36153678Y-75646189D01*
X35971689Y-75721571D01*
X35855770Y-75744628D01*
X35778493Y-75760000D01*
X35581507Y-75760000D01*
X35504230Y-75744628D01*
X35388311Y-75721571D01*
X35206322Y-75646189D01*
X35042537Y-75536751D01*
X34903249Y-75397463D01*
X34793811Y-75233678D01*
X34718429Y-75051689D01*
X34687376Y-74895575D01*
X34680000Y-74858493D01*
X34680000Y-74661507D01*
X34706366Y-74528958D01*
X34718429Y-74468311D01*
X34793811Y-74286322D01*
X34903249Y-74122537D01*
X35042537Y-73983249D01*
X35206322Y-73873811D01*
X35388311Y-73798429D01*
X35504230Y-73775372D01*
X35581507Y-73760000D01*
X35778493Y-73760000D01*
X35855770Y-73775372D01*
X35855770Y-73775372D01*
G37*
G36*
X141280603Y-72324968D02*
X141280606Y-72324969D01*
X141280605Y-72324969D01*
X141455678Y-72397486D01*
X141455679Y-72397487D01*
X141613241Y-72502767D01*
X141747233Y-72636759D01*
X141752572Y-72644750D01*
X141852514Y-72794322D01*
X141878669Y-72857466D01*
X141925032Y-72969397D01*
X141962000Y-73155250D01*
X141962000Y-73344750D01*
X141925032Y-73530603D01*
X141925031Y-73530605D01*
X141852514Y-73705678D01*
X141852513Y-73705679D01*
X141747233Y-73863241D01*
X141613241Y-73997233D01*
X141533923Y-74050232D01*
X141455678Y-74102514D01*
X141331478Y-74153959D01*
X141280603Y-74175032D01*
X141094750Y-74212000D01*
X140905250Y-74212000D01*
X140719397Y-74175032D01*
X140668522Y-74153959D01*
X140544322Y-74102514D01*
X140466077Y-74050232D01*
X140386759Y-73997233D01*
X140252767Y-73863241D01*
X140147487Y-73705679D01*
X140147486Y-73705678D01*
X140074969Y-73530605D01*
X140074968Y-73530603D01*
X140038000Y-73344750D01*
X140038000Y-73155250D01*
X140074968Y-72969397D01*
X140121331Y-72857466D01*
X140147486Y-72794322D01*
X140247428Y-72644750D01*
X140252767Y-72636759D01*
X140386759Y-72502767D01*
X140544321Y-72397487D01*
X140544322Y-72397486D01*
X140719395Y-72324969D01*
X140719394Y-72324969D01*
X140719397Y-72324968D01*
X140905250Y-72288000D01*
X141094750Y-72288000D01*
X141280603Y-72324968D01*
X141280603Y-72324968D01*
G37*
G36*
X148780603Y-72324968D02*
X148780606Y-72324969D01*
X148780605Y-72324969D01*
X148955678Y-72397486D01*
X148955679Y-72397487D01*
X149113241Y-72502767D01*
X149247233Y-72636759D01*
X149252572Y-72644750D01*
X149352514Y-72794322D01*
X149378669Y-72857466D01*
X149425032Y-72969397D01*
X149462000Y-73155250D01*
X149462000Y-73344750D01*
X149425032Y-73530603D01*
X149425031Y-73530605D01*
X149352514Y-73705678D01*
X149352513Y-73705679D01*
X149247233Y-73863241D01*
X149113241Y-73997233D01*
X149033923Y-74050232D01*
X148955678Y-74102514D01*
X148831478Y-74153959D01*
X148780603Y-74175032D01*
X148594750Y-74212000D01*
X148405250Y-74212000D01*
X148219397Y-74175032D01*
X148168522Y-74153959D01*
X148044322Y-74102514D01*
X147966077Y-74050232D01*
X147886759Y-73997233D01*
X147752767Y-73863241D01*
X147647487Y-73705679D01*
X147647486Y-73705678D01*
X147574969Y-73530605D01*
X147574968Y-73530603D01*
X147538000Y-73344750D01*
X147538000Y-73155250D01*
X147574968Y-72969397D01*
X147621331Y-72857466D01*
X147647486Y-72794322D01*
X147747428Y-72644750D01*
X147752767Y-72636759D01*
X147886759Y-72502767D01*
X148044321Y-72397487D01*
X148044322Y-72397486D01*
X148219395Y-72324969D01*
X148219394Y-72324969D01*
X148219397Y-72324968D01*
X148405250Y-72288000D01*
X148594750Y-72288000D01*
X148780603Y-72324968D01*
X148780603Y-72324968D01*
G37*
G36*
X143780603Y-72324968D02*
X143780606Y-72324969D01*
X143780605Y-72324969D01*
X143955678Y-72397486D01*
X143955679Y-72397487D01*
X144113241Y-72502767D01*
X144247233Y-72636759D01*
X144252572Y-72644750D01*
X144352514Y-72794322D01*
X144378669Y-72857466D01*
X144425032Y-72969397D01*
X144462000Y-73155250D01*
X144462000Y-73344750D01*
X144425032Y-73530603D01*
X144425031Y-73530605D01*
X144352514Y-73705678D01*
X144352513Y-73705679D01*
X144247233Y-73863241D01*
X144113241Y-73997233D01*
X144033923Y-74050232D01*
X143955678Y-74102514D01*
X143831478Y-74153959D01*
X143780603Y-74175032D01*
X143594750Y-74212000D01*
X143405250Y-74212000D01*
X143219397Y-74175032D01*
X143168522Y-74153959D01*
X143044322Y-74102514D01*
X142966077Y-74050232D01*
X142886759Y-73997233D01*
X142752767Y-73863241D01*
X142647487Y-73705679D01*
X142647486Y-73705678D01*
X142574969Y-73530605D01*
X142574968Y-73530603D01*
X142538000Y-73344750D01*
X142538000Y-73155250D01*
X142574968Y-72969397D01*
X142621331Y-72857466D01*
X142647486Y-72794322D01*
X142747428Y-72644750D01*
X142752767Y-72636759D01*
X142886759Y-72502767D01*
X143044321Y-72397487D01*
X143044322Y-72397486D01*
X143219395Y-72324969D01*
X143219394Y-72324969D01*
X143219397Y-72324968D01*
X143405250Y-72288000D01*
X143594750Y-72288000D01*
X143780603Y-72324968D01*
X143780603Y-72324968D01*
G37*
G36*
X151280603Y-72324968D02*
X151280606Y-72324969D01*
X151280605Y-72324969D01*
X151455678Y-72397486D01*
X151455679Y-72397487D01*
X151613241Y-72502767D01*
X151747233Y-72636759D01*
X151752572Y-72644750D01*
X151852514Y-72794322D01*
X151878669Y-72857466D01*
X151925032Y-72969397D01*
X151962000Y-73155250D01*
X151962000Y-73344750D01*
X151925032Y-73530603D01*
X151925031Y-73530605D01*
X151852514Y-73705678D01*
X151852513Y-73705679D01*
X151747233Y-73863241D01*
X151613241Y-73997233D01*
X151533923Y-74050232D01*
X151455678Y-74102514D01*
X151331478Y-74153959D01*
X151280603Y-74175032D01*
X151094750Y-74212000D01*
X150905250Y-74212000D01*
X150719397Y-74175032D01*
X150668522Y-74153959D01*
X150544322Y-74102514D01*
X150466077Y-74050232D01*
X150386759Y-73997233D01*
X150252767Y-73863241D01*
X150147487Y-73705679D01*
X150147486Y-73705678D01*
X150074969Y-73530605D01*
X150074968Y-73530603D01*
X150038000Y-73344750D01*
X150038000Y-73155250D01*
X150074968Y-72969397D01*
X150121331Y-72857466D01*
X150147486Y-72794322D01*
X150247428Y-72644750D01*
X150252767Y-72636759D01*
X150386759Y-72502767D01*
X150544321Y-72397487D01*
X150544322Y-72397486D01*
X150719395Y-72324969D01*
X150719394Y-72324969D01*
X150719397Y-72324968D01*
X150905250Y-72288000D01*
X151094750Y-72288000D01*
X151280603Y-72324968D01*
X151280603Y-72324968D01*
G37*
G36*
X100030603Y-71624968D02*
X100030606Y-71624969D01*
X100030605Y-71624969D01*
X100205678Y-71697486D01*
X100205679Y-71697487D01*
X100363241Y-71802767D01*
X100497233Y-71936759D01*
X100497234Y-71936761D01*
X100602514Y-72094322D01*
X100613774Y-72121507D01*
X100675032Y-72269397D01*
X100712000Y-72455250D01*
X100712000Y-72644750D01*
X100675032Y-72830603D01*
X100675031Y-72830605D01*
X100602514Y-73005678D01*
X100602513Y-73005679D01*
X100497233Y-73163241D01*
X100363241Y-73297233D01*
X100292129Y-73344749D01*
X100205678Y-73402514D01*
X100070266Y-73458603D01*
X100030603Y-73475032D01*
X99844750Y-73512000D01*
X99655250Y-73512000D01*
X99469397Y-73475032D01*
X99429734Y-73458603D01*
X99294322Y-73402514D01*
X99207871Y-73344749D01*
X99136759Y-73297233D01*
X99002767Y-73163241D01*
X98897487Y-73005679D01*
X98897486Y-73005678D01*
X98824969Y-72830605D01*
X98824968Y-72830603D01*
X98788000Y-72644750D01*
X98788000Y-72455250D01*
X98824968Y-72269397D01*
X98886226Y-72121507D01*
X98897486Y-72094322D01*
X99002766Y-71936761D01*
X99002767Y-71936759D01*
X99136759Y-71802767D01*
X99294321Y-71697487D01*
X99294322Y-71697486D01*
X99469395Y-71624969D01*
X99469394Y-71624969D01*
X99469397Y-71624968D01*
X99655250Y-71588000D01*
X99844750Y-71588000D01*
X100030603Y-71624968D01*
X100030603Y-71624968D01*
G37*
G36*
X97530603Y-71624968D02*
X97530606Y-71624969D01*
X97530605Y-71624969D01*
X97705678Y-71697486D01*
X97705679Y-71697487D01*
X97863241Y-71802767D01*
X97997233Y-71936759D01*
X97997234Y-71936761D01*
X98102514Y-72094322D01*
X98113774Y-72121507D01*
X98175032Y-72269397D01*
X98212000Y-72455250D01*
X98212000Y-72644750D01*
X98175032Y-72830603D01*
X98175031Y-72830605D01*
X98102514Y-73005678D01*
X98102513Y-73005679D01*
X97997233Y-73163241D01*
X97863241Y-73297233D01*
X97792129Y-73344749D01*
X97705678Y-73402514D01*
X97570266Y-73458603D01*
X97530603Y-73475032D01*
X97344750Y-73512000D01*
X97155250Y-73512000D01*
X96969397Y-73475032D01*
X96929734Y-73458603D01*
X96794322Y-73402514D01*
X96707871Y-73344749D01*
X96636759Y-73297233D01*
X96502767Y-73163241D01*
X96397487Y-73005679D01*
X96397486Y-73005678D01*
X96324969Y-72830605D01*
X96324968Y-72830603D01*
X96288000Y-72644750D01*
X96288000Y-72455250D01*
X96324968Y-72269397D01*
X96386226Y-72121507D01*
X96397486Y-72094322D01*
X96502766Y-71936761D01*
X96502767Y-71936759D01*
X96636759Y-71802767D01*
X96794321Y-71697487D01*
X96794322Y-71697486D01*
X96969395Y-71624969D01*
X96969394Y-71624969D01*
X96969397Y-71624968D01*
X97155250Y-71588000D01*
X97344750Y-71588000D01*
X97530603Y-71624968D01*
X97530603Y-71624968D01*
G37*
G36*
X107530603Y-71624968D02*
X107530606Y-71624969D01*
X107530605Y-71624969D01*
X107705678Y-71697486D01*
X107705679Y-71697487D01*
X107863241Y-71802767D01*
X107997233Y-71936759D01*
X107997234Y-71936761D01*
X108102514Y-72094322D01*
X108113774Y-72121507D01*
X108175032Y-72269397D01*
X108212000Y-72455250D01*
X108212000Y-72644750D01*
X108175032Y-72830603D01*
X108175031Y-72830605D01*
X108102514Y-73005678D01*
X108102513Y-73005679D01*
X107997233Y-73163241D01*
X107863241Y-73297233D01*
X107792129Y-73344749D01*
X107705678Y-73402514D01*
X107570266Y-73458603D01*
X107530603Y-73475032D01*
X107344750Y-73512000D01*
X107155250Y-73512000D01*
X106969397Y-73475032D01*
X106929734Y-73458603D01*
X106794322Y-73402514D01*
X106707871Y-73344749D01*
X106636759Y-73297233D01*
X106502767Y-73163241D01*
X106397487Y-73005679D01*
X106397486Y-73005678D01*
X106324969Y-72830605D01*
X106324968Y-72830603D01*
X106288000Y-72644750D01*
X106288000Y-72455250D01*
X106324968Y-72269397D01*
X106386226Y-72121507D01*
X106397486Y-72094322D01*
X106502766Y-71936761D01*
X106502767Y-71936759D01*
X106636759Y-71802767D01*
X106794321Y-71697487D01*
X106794322Y-71697486D01*
X106969395Y-71624969D01*
X106969394Y-71624969D01*
X106969397Y-71624968D01*
X107155250Y-71588000D01*
X107344750Y-71588000D01*
X107530603Y-71624968D01*
X107530603Y-71624968D01*
G37*
G36*
X105030603Y-71624968D02*
X105030606Y-71624969D01*
X105030605Y-71624969D01*
X105205678Y-71697486D01*
X105205679Y-71697487D01*
X105363241Y-71802767D01*
X105497233Y-71936759D01*
X105497234Y-71936761D01*
X105602514Y-72094322D01*
X105613774Y-72121507D01*
X105675032Y-72269397D01*
X105712000Y-72455250D01*
X105712000Y-72644750D01*
X105675032Y-72830603D01*
X105675031Y-72830605D01*
X105602514Y-73005678D01*
X105602513Y-73005679D01*
X105497233Y-73163241D01*
X105363241Y-73297233D01*
X105292129Y-73344749D01*
X105205678Y-73402514D01*
X105070266Y-73458603D01*
X105030603Y-73475032D01*
X104844750Y-73512000D01*
X104655250Y-73512000D01*
X104469397Y-73475032D01*
X104429734Y-73458603D01*
X104294322Y-73402514D01*
X104207871Y-73344749D01*
X104136759Y-73297233D01*
X104002767Y-73163241D01*
X103897487Y-73005679D01*
X103897486Y-73005678D01*
X103824969Y-72830605D01*
X103824968Y-72830603D01*
X103788000Y-72644750D01*
X103788000Y-72455250D01*
X103824968Y-72269397D01*
X103886226Y-72121507D01*
X103897486Y-72094322D01*
X104002766Y-71936761D01*
X104002767Y-71936759D01*
X104136759Y-71802767D01*
X104294321Y-71697487D01*
X104294322Y-71697486D01*
X104469395Y-71624969D01*
X104469394Y-71624969D01*
X104469397Y-71624968D01*
X104655250Y-71588000D01*
X104844750Y-71588000D01*
X105030603Y-71624968D01*
X105030603Y-71624968D01*
G37*
G36*
X35855770Y-71235372D02*
X35971689Y-71258429D01*
X36153678Y-71333811D01*
X36317463Y-71443249D01*
X36456751Y-71582537D01*
X36566189Y-71746322D01*
X36641571Y-71928311D01*
X36664628Y-72044230D01*
X36680000Y-72121507D01*
X36680000Y-72318493D01*
X36664628Y-72395770D01*
X36641571Y-72511689D01*
X36566189Y-72693678D01*
X36456751Y-72857463D01*
X36317463Y-72996751D01*
X36153678Y-73106189D01*
X35971689Y-73181571D01*
X35855770Y-73204628D01*
X35778493Y-73220000D01*
X35581507Y-73220000D01*
X35504230Y-73204628D01*
X35388311Y-73181571D01*
X35206322Y-73106189D01*
X35042537Y-72996751D01*
X34903249Y-72857463D01*
X34793811Y-72693678D01*
X34718429Y-72511689D01*
X34695372Y-72395770D01*
X34680000Y-72318493D01*
X34680000Y-72121507D01*
X34695372Y-72044230D01*
X34718429Y-71928311D01*
X34793811Y-71746322D01*
X34903249Y-71582537D01*
X35042537Y-71443249D01*
X35206322Y-71333811D01*
X35388311Y-71258429D01*
X35504230Y-71235372D01*
X35581507Y-71220000D01*
X35778493Y-71220000D01*
X35855770Y-71235372D01*
X35855770Y-71235372D01*
G37*
G36*
X51095770Y-71235372D02*
X51211689Y-71258429D01*
X51393678Y-71333811D01*
X51557463Y-71443249D01*
X51696751Y-71582537D01*
X51806189Y-71746322D01*
X51881571Y-71928311D01*
X51904628Y-72044230D01*
X51920000Y-72121507D01*
X51920000Y-72318493D01*
X51904628Y-72395770D01*
X51881571Y-72511689D01*
X51806189Y-72693678D01*
X51696751Y-72857463D01*
X51557463Y-72996751D01*
X51393678Y-73106189D01*
X51211689Y-73181571D01*
X51095770Y-73204628D01*
X51018493Y-73220000D01*
X50821507Y-73220000D01*
X50744230Y-73204628D01*
X50628311Y-73181571D01*
X50446322Y-73106189D01*
X50282537Y-72996751D01*
X50143249Y-72857463D01*
X50033811Y-72693678D01*
X49958429Y-72511689D01*
X49935372Y-72395770D01*
X49920000Y-72318493D01*
X49920000Y-72121507D01*
X49935372Y-72044230D01*
X49958429Y-71928311D01*
X50033811Y-71746322D01*
X50143249Y-71582537D01*
X50282537Y-71443249D01*
X50446322Y-71333811D01*
X50628311Y-71258429D01*
X50744230Y-71235372D01*
X50821507Y-71220000D01*
X51018493Y-71220000D01*
X51095770Y-71235372D01*
X51095770Y-71235372D01*
G37*
G36*
X58844959Y-66422577D02*
X59185470Y-66490309D01*
X59613143Y-66667457D01*
X59998038Y-66924636D01*
X60325364Y-67251962D01*
X60582543Y-67636857D01*
X60759691Y-68064530D01*
X60850000Y-68518545D01*
X60850000Y-68981455D01*
X60759691Y-69435470D01*
X60582543Y-69863143D01*
X60325364Y-70248038D01*
X59998038Y-70575364D01*
X59613143Y-70832543D01*
X59185470Y-71009691D01*
X58844959Y-71077423D01*
X58731456Y-71100000D01*
X58268544Y-71100000D01*
X58155041Y-71077423D01*
X57814530Y-71009691D01*
X57386857Y-70832543D01*
X57001962Y-70575364D01*
X56674636Y-70248038D01*
X56417457Y-69863143D01*
X56240309Y-69435470D01*
X56150000Y-68981455D01*
X56150000Y-68518545D01*
X56240309Y-68064530D01*
X56417457Y-67636857D01*
X56674636Y-67251962D01*
X57001962Y-66924636D01*
X57386857Y-66667457D01*
X57814530Y-66490309D01*
X58155041Y-66422577D01*
X58268544Y-66400000D01*
X58731456Y-66400000D01*
X58844959Y-66422577D01*
X58844959Y-66422577D01*
G37*
G36*
X35855770Y-68695372D02*
X35971689Y-68718429D01*
X36153678Y-68793811D01*
X36317463Y-68903249D01*
X36456751Y-69042537D01*
X36566189Y-69206322D01*
X36641571Y-69388311D01*
X36680000Y-69581509D01*
X36680000Y-69778491D01*
X36641571Y-69971689D01*
X36566189Y-70153678D01*
X36456751Y-70317463D01*
X36317463Y-70456751D01*
X36153678Y-70566189D01*
X35971689Y-70641571D01*
X35855770Y-70664628D01*
X35778493Y-70680000D01*
X35581507Y-70680000D01*
X35504230Y-70664628D01*
X35388311Y-70641571D01*
X35206322Y-70566189D01*
X35042537Y-70456751D01*
X34903249Y-70317463D01*
X34793811Y-70153678D01*
X34718429Y-69971689D01*
X34680000Y-69778491D01*
X34680000Y-69581509D01*
X34718429Y-69388311D01*
X34793811Y-69206322D01*
X34903249Y-69042537D01*
X35042537Y-68903249D01*
X35206322Y-68793811D01*
X35388311Y-68718429D01*
X35504230Y-68695372D01*
X35581507Y-68680000D01*
X35778493Y-68680000D01*
X35855770Y-68695372D01*
X35855770Y-68695372D01*
G37*
G36*
X51095770Y-68695372D02*
X51211689Y-68718429D01*
X51393678Y-68793811D01*
X51557463Y-68903249D01*
X51696751Y-69042537D01*
X51806189Y-69206322D01*
X51881571Y-69388311D01*
X51920000Y-69581509D01*
X51920000Y-69778491D01*
X51881571Y-69971689D01*
X51806189Y-70153678D01*
X51696751Y-70317463D01*
X51557463Y-70456751D01*
X51393678Y-70566189D01*
X51211689Y-70641571D01*
X51095770Y-70664628D01*
X51018493Y-70680000D01*
X50821507Y-70680000D01*
X50744230Y-70664628D01*
X50628311Y-70641571D01*
X50446322Y-70566189D01*
X50282537Y-70456751D01*
X50143249Y-70317463D01*
X50033811Y-70153678D01*
X49958429Y-69971689D01*
X49920000Y-69778491D01*
X49920000Y-69581509D01*
X49958429Y-69388311D01*
X50033811Y-69206322D01*
X50143249Y-69042537D01*
X50282537Y-68903249D01*
X50446322Y-68793811D01*
X50628311Y-68718429D01*
X50744230Y-68695372D01*
X50821507Y-68680000D01*
X51018493Y-68680000D01*
X51095770Y-68695372D01*
X51095770Y-68695372D01*
G37*
G36*
X51095770Y-66155372D02*
X51211689Y-66178429D01*
X51393678Y-66253811D01*
X51557463Y-66363249D01*
X51696751Y-66502537D01*
X51806189Y-66666322D01*
X51881571Y-66848311D01*
X51896753Y-66924636D01*
X51920000Y-67041507D01*
X51920000Y-67238493D01*
X51904628Y-67315770D01*
X51881571Y-67431689D01*
X51806189Y-67613678D01*
X51696751Y-67777463D01*
X51557463Y-67916751D01*
X51393678Y-68026189D01*
X51211689Y-68101571D01*
X51095770Y-68124628D01*
X51018493Y-68140000D01*
X50821507Y-68140000D01*
X50744230Y-68124628D01*
X50628311Y-68101571D01*
X50446322Y-68026189D01*
X50282537Y-67916751D01*
X50143249Y-67777463D01*
X50033811Y-67613678D01*
X49958429Y-67431689D01*
X49935372Y-67315770D01*
X49920000Y-67238493D01*
X49920000Y-67041507D01*
X49943247Y-66924636D01*
X49958429Y-66848311D01*
X50033811Y-66666322D01*
X50143249Y-66502537D01*
X50282537Y-66363249D01*
X50446322Y-66253811D01*
X50628311Y-66178429D01*
X50744230Y-66155372D01*
X50821507Y-66140000D01*
X51018493Y-66140000D01*
X51095770Y-66155372D01*
X51095770Y-66155372D01*
G37*
G36*
X35855770Y-66155372D02*
X35971689Y-66178429D01*
X36153678Y-66253811D01*
X36317463Y-66363249D01*
X36456751Y-66502537D01*
X36566189Y-66666322D01*
X36641571Y-66848311D01*
X36656753Y-66924636D01*
X36680000Y-67041507D01*
X36680000Y-67238493D01*
X36664628Y-67315770D01*
X36641571Y-67431689D01*
X36566189Y-67613678D01*
X36456751Y-67777463D01*
X36317463Y-67916751D01*
X36153678Y-68026189D01*
X35971689Y-68101571D01*
X35855770Y-68124628D01*
X35778493Y-68140000D01*
X35581507Y-68140000D01*
X35504230Y-68124628D01*
X35388311Y-68101571D01*
X35206322Y-68026189D01*
X35042537Y-67916751D01*
X34903249Y-67777463D01*
X34793811Y-67613678D01*
X34718429Y-67431689D01*
X34695372Y-67315770D01*
X34680000Y-67238493D01*
X34680000Y-67041507D01*
X34703247Y-66924636D01*
X34718429Y-66848311D01*
X34793811Y-66666322D01*
X34903249Y-66502537D01*
X35042537Y-66363249D01*
X35206322Y-66253811D01*
X35388311Y-66178429D01*
X35504230Y-66155372D01*
X35581507Y-66140000D01*
X35778493Y-66140000D01*
X35855770Y-66155372D01*
X35855770Y-66155372D01*
G37*
G36*
X51095770Y-63615372D02*
X51211689Y-63638429D01*
X51393678Y-63713811D01*
X51557463Y-63823249D01*
X51696751Y-63962537D01*
X51806189Y-64126322D01*
X51881571Y-64308311D01*
X51920000Y-64501509D01*
X51920000Y-64698491D01*
X51881571Y-64891689D01*
X51806189Y-65073678D01*
X51696751Y-65237463D01*
X51557463Y-65376751D01*
X51393678Y-65486189D01*
X51211689Y-65561571D01*
X51095770Y-65584628D01*
X51018493Y-65600000D01*
X50821507Y-65600000D01*
X50744230Y-65584628D01*
X50628311Y-65561571D01*
X50446322Y-65486189D01*
X50282537Y-65376751D01*
X50143249Y-65237463D01*
X50033811Y-65073678D01*
X49958429Y-64891689D01*
X49920000Y-64698491D01*
X49920000Y-64501509D01*
X49958429Y-64308311D01*
X50033811Y-64126322D01*
X50143249Y-63962537D01*
X50282537Y-63823249D01*
X50446322Y-63713811D01*
X50628311Y-63638429D01*
X50744230Y-63615372D01*
X50821507Y-63600000D01*
X51018493Y-63600000D01*
X51095770Y-63615372D01*
X51095770Y-63615372D01*
G37*
G36*
X35855770Y-63615372D02*
X35971689Y-63638429D01*
X36153678Y-63713811D01*
X36317463Y-63823249D01*
X36456751Y-63962537D01*
X36566189Y-64126322D01*
X36641571Y-64308311D01*
X36680000Y-64501509D01*
X36680000Y-64698491D01*
X36641571Y-64891689D01*
X36566189Y-65073678D01*
X36456751Y-65237463D01*
X36317463Y-65376751D01*
X36153678Y-65486189D01*
X35971689Y-65561571D01*
X35855770Y-65584628D01*
X35778493Y-65600000D01*
X35581507Y-65600000D01*
X35504230Y-65584628D01*
X35388311Y-65561571D01*
X35206322Y-65486189D01*
X35042537Y-65376751D01*
X34903249Y-65237463D01*
X34793811Y-65073678D01*
X34718429Y-64891689D01*
X34680000Y-64698491D01*
X34680000Y-64501509D01*
X34718429Y-64308311D01*
X34793811Y-64126322D01*
X34903249Y-63962537D01*
X35042537Y-63823249D01*
X35206322Y-63713811D01*
X35388311Y-63638429D01*
X35504230Y-63615372D01*
X35581507Y-63600000D01*
X35778493Y-63600000D01*
X35855770Y-63615372D01*
X35855770Y-63615372D01*
G37*
G36*
X51095770Y-61075372D02*
X51211689Y-61098429D01*
X51393678Y-61173811D01*
X51557463Y-61283249D01*
X51696751Y-61422537D01*
X51806189Y-61586322D01*
X51881571Y-61768311D01*
X51920000Y-61961509D01*
X51920000Y-62158491D01*
X51881571Y-62351689D01*
X51806189Y-62533678D01*
X51696751Y-62697463D01*
X51557463Y-62836751D01*
X51393678Y-62946189D01*
X51211689Y-63021571D01*
X51095770Y-63044628D01*
X51018493Y-63060000D01*
X50821507Y-63060000D01*
X50744230Y-63044628D01*
X50628311Y-63021571D01*
X50446322Y-62946189D01*
X50282537Y-62836751D01*
X50143249Y-62697463D01*
X50033811Y-62533678D01*
X49958429Y-62351689D01*
X49920000Y-62158491D01*
X49920000Y-61961509D01*
X49958429Y-61768311D01*
X50033811Y-61586322D01*
X50143249Y-61422537D01*
X50282537Y-61283249D01*
X50446322Y-61173811D01*
X50628311Y-61098429D01*
X50744230Y-61075372D01*
X50821507Y-61060000D01*
X51018493Y-61060000D01*
X51095770Y-61075372D01*
X51095770Y-61075372D01*
G37*
G36*
X35855770Y-61075372D02*
X35971689Y-61098429D01*
X36153678Y-61173811D01*
X36317463Y-61283249D01*
X36456751Y-61422537D01*
X36566189Y-61586322D01*
X36641571Y-61768311D01*
X36680000Y-61961509D01*
X36680000Y-62158491D01*
X36641571Y-62351689D01*
X36566189Y-62533678D01*
X36456751Y-62697463D01*
X36317463Y-62836751D01*
X36153678Y-62946189D01*
X35971689Y-63021571D01*
X35855770Y-63044628D01*
X35778493Y-63060000D01*
X35581507Y-63060000D01*
X35504230Y-63044628D01*
X35388311Y-63021571D01*
X35206322Y-62946189D01*
X35042537Y-62836751D01*
X34903249Y-62697463D01*
X34793811Y-62533678D01*
X34718429Y-62351689D01*
X34680000Y-62158491D01*
X34680000Y-61961509D01*
X34718429Y-61768311D01*
X34793811Y-61586322D01*
X34903249Y-61422537D01*
X35042537Y-61283249D01*
X35206322Y-61173811D01*
X35388311Y-61098429D01*
X35504230Y-61075372D01*
X35581507Y-61060000D01*
X35778493Y-61060000D01*
X35855770Y-61075372D01*
X35855770Y-61075372D01*
G37*
G36*
X51095770Y-58535372D02*
X51211689Y-58558429D01*
X51393678Y-58633811D01*
X51557463Y-58743249D01*
X51696751Y-58882537D01*
X51806189Y-59046322D01*
X51881571Y-59228311D01*
X51920000Y-59421509D01*
X51920000Y-59618491D01*
X51881571Y-59811689D01*
X51806189Y-59993678D01*
X51696751Y-60157463D01*
X51557463Y-60296751D01*
X51393678Y-60406189D01*
X51211689Y-60481571D01*
X51095770Y-60504628D01*
X51018493Y-60520000D01*
X50821507Y-60520000D01*
X50744230Y-60504628D01*
X50628311Y-60481571D01*
X50446322Y-60406189D01*
X50282537Y-60296751D01*
X50143249Y-60157463D01*
X50033811Y-59993678D01*
X49958429Y-59811689D01*
X49920000Y-59618491D01*
X49920000Y-59421509D01*
X49958429Y-59228311D01*
X50033811Y-59046322D01*
X50143249Y-58882537D01*
X50282537Y-58743249D01*
X50446322Y-58633811D01*
X50628311Y-58558429D01*
X50744230Y-58535372D01*
X50821507Y-58520000D01*
X51018493Y-58520000D01*
X51095770Y-58535372D01*
X51095770Y-58535372D01*
G37*
G36*
X35855770Y-58535372D02*
X35971689Y-58558429D01*
X36153678Y-58633811D01*
X36317463Y-58743249D01*
X36456751Y-58882537D01*
X36566189Y-59046322D01*
X36641571Y-59228311D01*
X36680000Y-59421509D01*
X36680000Y-59618491D01*
X36641571Y-59811689D01*
X36566189Y-59993678D01*
X36456751Y-60157463D01*
X36317463Y-60296751D01*
X36153678Y-60406189D01*
X35971689Y-60481571D01*
X35855770Y-60504628D01*
X35778493Y-60520000D01*
X35581507Y-60520000D01*
X35504230Y-60504628D01*
X35388311Y-60481571D01*
X35206322Y-60406189D01*
X35042537Y-60296751D01*
X34903249Y-60157463D01*
X34793811Y-59993678D01*
X34718429Y-59811689D01*
X34680000Y-59618491D01*
X34680000Y-59421509D01*
X34718429Y-59228311D01*
X34793811Y-59046322D01*
X34903249Y-58882537D01*
X35042537Y-58743249D01*
X35206322Y-58633811D01*
X35388311Y-58558429D01*
X35504230Y-58535372D01*
X35581507Y-58520000D01*
X35778493Y-58520000D01*
X35855770Y-58535372D01*
X35855770Y-58535372D01*
G37*
G36*
X35855770Y-55995372D02*
X35971689Y-56018429D01*
X36153678Y-56093811D01*
X36317463Y-56203249D01*
X36456751Y-56342537D01*
X36566189Y-56506322D01*
X36641571Y-56688311D01*
X36680000Y-56881509D01*
X36680000Y-57078491D01*
X36641571Y-57271689D01*
X36566189Y-57453678D01*
X36456751Y-57617463D01*
X36317463Y-57756751D01*
X36153678Y-57866189D01*
X35971689Y-57941571D01*
X35855770Y-57964628D01*
X35778493Y-57980000D01*
X35581507Y-57980000D01*
X35504230Y-57964628D01*
X35388311Y-57941571D01*
X35206322Y-57866189D01*
X35042537Y-57756751D01*
X34903249Y-57617463D01*
X34793811Y-57453678D01*
X34718429Y-57271689D01*
X34680000Y-57078491D01*
X34680000Y-56881509D01*
X34718429Y-56688311D01*
X34793811Y-56506322D01*
X34903249Y-56342537D01*
X35042537Y-56203249D01*
X35206322Y-56093811D01*
X35388311Y-56018429D01*
X35504230Y-55995372D01*
X35581507Y-55980000D01*
X35778493Y-55980000D01*
X35855770Y-55995372D01*
X35855770Y-55995372D01*
G37*
G36*
X51095770Y-55995372D02*
X51211689Y-56018429D01*
X51393678Y-56093811D01*
X51557463Y-56203249D01*
X51696751Y-56342537D01*
X51806189Y-56506322D01*
X51881571Y-56688311D01*
X51920000Y-56881509D01*
X51920000Y-57078491D01*
X51881571Y-57271689D01*
X51806189Y-57453678D01*
X51696751Y-57617463D01*
X51557463Y-57756751D01*
X51393678Y-57866189D01*
X51211689Y-57941571D01*
X51095770Y-57964628D01*
X51018493Y-57980000D01*
X50821507Y-57980000D01*
X50744230Y-57964628D01*
X50628311Y-57941571D01*
X50446322Y-57866189D01*
X50282537Y-57756751D01*
X50143249Y-57617463D01*
X50033811Y-57453678D01*
X49958429Y-57271689D01*
X49920000Y-57078491D01*
X49920000Y-56881509D01*
X49958429Y-56688311D01*
X50033811Y-56506322D01*
X50143249Y-56342537D01*
X50282537Y-56203249D01*
X50446322Y-56093811D01*
X50628311Y-56018429D01*
X50744230Y-55995372D01*
X50821507Y-55980000D01*
X51018493Y-55980000D01*
X51095770Y-55995372D01*
X51095770Y-55995372D01*
G37*
G36*
X35855770Y-53455372D02*
X35971689Y-53478429D01*
X36153678Y-53553811D01*
X36317463Y-53663249D01*
X36456751Y-53802537D01*
X36566189Y-53966322D01*
X36641571Y-54148311D01*
X36680000Y-54341509D01*
X36680000Y-54538491D01*
X36641571Y-54731689D01*
X36566189Y-54913678D01*
X36456751Y-55077463D01*
X36317463Y-55216751D01*
X36153678Y-55326189D01*
X35971689Y-55401571D01*
X35855770Y-55424628D01*
X35778493Y-55440000D01*
X35581507Y-55440000D01*
X35504230Y-55424628D01*
X35388311Y-55401571D01*
X35206322Y-55326189D01*
X35042537Y-55216751D01*
X34903249Y-55077463D01*
X34793811Y-54913678D01*
X34718429Y-54731689D01*
X34680000Y-54538491D01*
X34680000Y-54341509D01*
X34718429Y-54148311D01*
X34793811Y-53966322D01*
X34903249Y-53802537D01*
X35042537Y-53663249D01*
X35206322Y-53553811D01*
X35388311Y-53478429D01*
X35504230Y-53455372D01*
X35581507Y-53440000D01*
X35778493Y-53440000D01*
X35855770Y-53455372D01*
X35855770Y-53455372D01*
G37*
G36*
X51095770Y-53455372D02*
X51211689Y-53478429D01*
X51393678Y-53553811D01*
X51557463Y-53663249D01*
X51696751Y-53802537D01*
X51806189Y-53966322D01*
X51881571Y-54148311D01*
X51920000Y-54341509D01*
X51920000Y-54538491D01*
X51881571Y-54731689D01*
X51806189Y-54913678D01*
X51696751Y-55077463D01*
X51557463Y-55216751D01*
X51393678Y-55326189D01*
X51211689Y-55401571D01*
X51095770Y-55424628D01*
X51018493Y-55440000D01*
X50821507Y-55440000D01*
X50744230Y-55424628D01*
X50628311Y-55401571D01*
X50446322Y-55326189D01*
X50282537Y-55216751D01*
X50143249Y-55077463D01*
X50033811Y-54913678D01*
X49958429Y-54731689D01*
X49920000Y-54538491D01*
X49920000Y-54341509D01*
X49958429Y-54148311D01*
X50033811Y-53966322D01*
X50143249Y-53802537D01*
X50282537Y-53663249D01*
X50446322Y-53553811D01*
X50628311Y-53478429D01*
X50744230Y-53455372D01*
X50821507Y-53440000D01*
X51018493Y-53440000D01*
X51095770Y-53455372D01*
X51095770Y-53455372D01*
G37*
G36*
X143725888Y-47704470D02*
X143906274Y-47740350D01*
X144097362Y-47819502D01*
X144269336Y-47934411D01*
X144415589Y-48080664D01*
X144530498Y-48252638D01*
X144609650Y-48443726D01*
X144650000Y-48646584D01*
X144650000Y-48853416D01*
X144609650Y-49056274D01*
X144530498Y-49247362D01*
X144415589Y-49419336D01*
X144269336Y-49565589D01*
X144097362Y-49680498D01*
X143906274Y-49759650D01*
X143725888Y-49795530D01*
X143703417Y-49800000D01*
X143496583Y-49800000D01*
X143474112Y-49795530D01*
X143293726Y-49759650D01*
X143102638Y-49680498D01*
X142930664Y-49565589D01*
X142784411Y-49419336D01*
X142669502Y-49247362D01*
X142590350Y-49056274D01*
X142550000Y-48853416D01*
X142550000Y-48646584D01*
X142590350Y-48443726D01*
X142669502Y-48252638D01*
X142784411Y-48080664D01*
X142930664Y-47934411D01*
X143102638Y-47819502D01*
X143293726Y-47740350D01*
X143474112Y-47704470D01*
X143496583Y-47700000D01*
X143703417Y-47700000D01*
X143725888Y-47704470D01*
X143725888Y-47704470D01*
G37*
G36*
X141225888Y-47704470D02*
X141406274Y-47740350D01*
X141597362Y-47819502D01*
X141769336Y-47934411D01*
X141915589Y-48080664D01*
X142030498Y-48252638D01*
X142109650Y-48443726D01*
X142150000Y-48646584D01*
X142150000Y-48853416D01*
X142109650Y-49056274D01*
X142030498Y-49247362D01*
X141915589Y-49419336D01*
X141769336Y-49565589D01*
X141597362Y-49680498D01*
X141406274Y-49759650D01*
X141225888Y-49795530D01*
X141203417Y-49800000D01*
X140996583Y-49800000D01*
X140974112Y-49795530D01*
X140793726Y-49759650D01*
X140602638Y-49680498D01*
X140430664Y-49565589D01*
X140284411Y-49419336D01*
X140169502Y-49247362D01*
X140090350Y-49056274D01*
X140050000Y-48853416D01*
X140050000Y-48646584D01*
X140090350Y-48443726D01*
X140169502Y-48252638D01*
X140284411Y-48080664D01*
X140430664Y-47934411D01*
X140602638Y-47819502D01*
X140793726Y-47740350D01*
X140974112Y-47704470D01*
X140996583Y-47700000D01*
X141203417Y-47700000D01*
X141225888Y-47704470D01*
X141225888Y-47704470D01*
G37*
G36*
X102525888Y-47504470D02*
X102706274Y-47540350D01*
X102897362Y-47619502D01*
X103069336Y-47734411D01*
X103215589Y-47880664D01*
X103330498Y-48052638D01*
X103409650Y-48243726D01*
X103450000Y-48446584D01*
X103450000Y-48653416D01*
X103409650Y-48856274D01*
X103330498Y-49047362D01*
X103215589Y-49219336D01*
X103069336Y-49365589D01*
X102897362Y-49480498D01*
X102706274Y-49559650D01*
X102525888Y-49595530D01*
X102503417Y-49600000D01*
X102296583Y-49600000D01*
X102274112Y-49595530D01*
X102093726Y-49559650D01*
X101902638Y-49480498D01*
X101730664Y-49365589D01*
X101584411Y-49219336D01*
X101469502Y-49047362D01*
X101390350Y-48856274D01*
X101350000Y-48653416D01*
X101350000Y-48446584D01*
X101390350Y-48243726D01*
X101469502Y-48052638D01*
X101584411Y-47880664D01*
X101730664Y-47734411D01*
X101902638Y-47619502D01*
X102093726Y-47540350D01*
X102274112Y-47504470D01*
X102296583Y-47500000D01*
X102503417Y-47500000D01*
X102525888Y-47504470D01*
X102525888Y-47504470D01*
G37*
G36*
X100025888Y-47504470D02*
X100206274Y-47540350D01*
X100397362Y-47619502D01*
X100569336Y-47734411D01*
X100715589Y-47880664D01*
X100830498Y-48052638D01*
X100909650Y-48243726D01*
X100950000Y-48446584D01*
X100950000Y-48653416D01*
X100909650Y-48856274D01*
X100830498Y-49047362D01*
X100715589Y-49219336D01*
X100569336Y-49365589D01*
X100397362Y-49480498D01*
X100206274Y-49559650D01*
X100025888Y-49595530D01*
X100003417Y-49600000D01*
X99796583Y-49600000D01*
X99774112Y-49595530D01*
X99593726Y-49559650D01*
X99402638Y-49480498D01*
X99230664Y-49365589D01*
X99084411Y-49219336D01*
X98969502Y-49047362D01*
X98890350Y-48856274D01*
X98850000Y-48653416D01*
X98850000Y-48446584D01*
X98890350Y-48243726D01*
X98969502Y-48052638D01*
X99084411Y-47880664D01*
X99230664Y-47734411D01*
X99402638Y-47619502D01*
X99593726Y-47540350D01*
X99774112Y-47504470D01*
X99796583Y-47500000D01*
X100003417Y-47500000D01*
X100025888Y-47504470D01*
X100025888Y-47504470D01*
G37*
G36*
X63025888Y-47304470D02*
X63206274Y-47340350D01*
X63397362Y-47419502D01*
X63569336Y-47534411D01*
X63715589Y-47680664D01*
X63830498Y-47852638D01*
X63909650Y-48043726D01*
X63950000Y-48246584D01*
X63950000Y-48453416D01*
X63909650Y-48656274D01*
X63830498Y-48847362D01*
X63715589Y-49019336D01*
X63569336Y-49165589D01*
X63397362Y-49280498D01*
X63206274Y-49359650D01*
X63025888Y-49395530D01*
X63003417Y-49400000D01*
X62796583Y-49400000D01*
X62774112Y-49395530D01*
X62593726Y-49359650D01*
X62402638Y-49280498D01*
X62230664Y-49165589D01*
X62084411Y-49019336D01*
X61969502Y-48847362D01*
X61890350Y-48656274D01*
X61850000Y-48453416D01*
X61850000Y-48246584D01*
X61890350Y-48043726D01*
X61969502Y-47852638D01*
X62084411Y-47680664D01*
X62230664Y-47534411D01*
X62402638Y-47419502D01*
X62593726Y-47340350D01*
X62774112Y-47304470D01*
X62796583Y-47300000D01*
X63003417Y-47300000D01*
X63025888Y-47304470D01*
X63025888Y-47304470D01*
G37*
G36*
X60525888Y-47304470D02*
X60706274Y-47340350D01*
X60897362Y-47419502D01*
X61069336Y-47534411D01*
X61215589Y-47680664D01*
X61330498Y-47852638D01*
X61409650Y-48043726D01*
X61450000Y-48246584D01*
X61450000Y-48453416D01*
X61409650Y-48656274D01*
X61330498Y-48847362D01*
X61215589Y-49019336D01*
X61069336Y-49165589D01*
X60897362Y-49280498D01*
X60706274Y-49359650D01*
X60525888Y-49395530D01*
X60503417Y-49400000D01*
X60296583Y-49400000D01*
X60274112Y-49395530D01*
X60093726Y-49359650D01*
X59902638Y-49280498D01*
X59730664Y-49165589D01*
X59584411Y-49019336D01*
X59469502Y-48847362D01*
X59390350Y-48656274D01*
X59350000Y-48453416D01*
X59350000Y-48246584D01*
X59390350Y-48043726D01*
X59469502Y-47852638D01*
X59584411Y-47680664D01*
X59730664Y-47534411D01*
X59902638Y-47419502D01*
X60093726Y-47340350D01*
X60274112Y-47304470D01*
X60296583Y-47300000D01*
X60503417Y-47300000D01*
X60525888Y-47304470D01*
X60525888Y-47304470D01*
G37*
G36*
X40225888Y-47304470D02*
X40406274Y-47340350D01*
X40597362Y-47419502D01*
X40769336Y-47534411D01*
X40915589Y-47680664D01*
X41030498Y-47852638D01*
X41109650Y-48043726D01*
X41150000Y-48246584D01*
X41150000Y-48453416D01*
X41109650Y-48656274D01*
X41030498Y-48847362D01*
X40915589Y-49019336D01*
X40769336Y-49165589D01*
X40597362Y-49280498D01*
X40406274Y-49359650D01*
X40225888Y-49395530D01*
X40203417Y-49400000D01*
X39996583Y-49400000D01*
X39974112Y-49395530D01*
X39793726Y-49359650D01*
X39602638Y-49280498D01*
X39430664Y-49165589D01*
X39284411Y-49019336D01*
X39169502Y-48847362D01*
X39090350Y-48656274D01*
X39050000Y-48453416D01*
X39050000Y-48246584D01*
X39090350Y-48043726D01*
X39169502Y-47852638D01*
X39284411Y-47680664D01*
X39430664Y-47534411D01*
X39602638Y-47419502D01*
X39793726Y-47340350D01*
X39974112Y-47304470D01*
X39996583Y-47300000D01*
X40203417Y-47300000D01*
X40225888Y-47304470D01*
X40225888Y-47304470D01*
G37*
G36*
X37725888Y-47304470D02*
X37906274Y-47340350D01*
X38097362Y-47419502D01*
X38269336Y-47534411D01*
X38415589Y-47680664D01*
X38530498Y-47852638D01*
X38609650Y-48043726D01*
X38650000Y-48246584D01*
X38650000Y-48453416D01*
X38609650Y-48656274D01*
X38530498Y-48847362D01*
X38415589Y-49019336D01*
X38269336Y-49165589D01*
X38097362Y-49280498D01*
X37906274Y-49359650D01*
X37725888Y-49395530D01*
X37703417Y-49400000D01*
X37496583Y-49400000D01*
X37474112Y-49395530D01*
X37293726Y-49359650D01*
X37102638Y-49280498D01*
X36930664Y-49165589D01*
X36784411Y-49019336D01*
X36669502Y-48847362D01*
X36590350Y-48656274D01*
X36550000Y-48453416D01*
X36550000Y-48246584D01*
X36590350Y-48043726D01*
X36669502Y-47852638D01*
X36784411Y-47680664D01*
X36930664Y-47534411D01*
X37102638Y-47419502D01*
X37293726Y-47340350D01*
X37474112Y-47304470D01*
X37496583Y-47300000D01*
X37703417Y-47300000D01*
X37725888Y-47304470D01*
X37725888Y-47304470D01*
G37*
G36*
X128585888Y-45284470D02*
X128766274Y-45320350D01*
X128957362Y-45399502D01*
X129129336Y-45514411D01*
X129275589Y-45660664D01*
X129390498Y-45832638D01*
X129469650Y-46023726D01*
X129510000Y-46226584D01*
X129510000Y-46433416D01*
X129469650Y-46636274D01*
X129390498Y-46827362D01*
X129275589Y-46999336D01*
X129129336Y-47145589D01*
X128957362Y-47260498D01*
X128766274Y-47339650D01*
X128585888Y-47375530D01*
X128563417Y-47380000D01*
X128356583Y-47380000D01*
X128334112Y-47375530D01*
X128153726Y-47339650D01*
X127962638Y-47260498D01*
X127790664Y-47145589D01*
X127644411Y-46999336D01*
X127529502Y-46827362D01*
X127450350Y-46636274D01*
X127410000Y-46433416D01*
X127410000Y-46226584D01*
X127450350Y-46023726D01*
X127529502Y-45832638D01*
X127644411Y-45660664D01*
X127790664Y-45514411D01*
X127962638Y-45399502D01*
X128153726Y-45320350D01*
X128334112Y-45284470D01*
X128356583Y-45280000D01*
X128563417Y-45280000D01*
X128585888Y-45284470D01*
X128585888Y-45284470D01*
G37*
G36*
X131125888Y-45284470D02*
X131306274Y-45320350D01*
X131497362Y-45399502D01*
X131669336Y-45514411D01*
X131815589Y-45660664D01*
X131930498Y-45832638D01*
X132009650Y-46023726D01*
X132050000Y-46226584D01*
X132050000Y-46433416D01*
X132009650Y-46636274D01*
X131930498Y-46827362D01*
X131815589Y-46999336D01*
X131669336Y-47145589D01*
X131497362Y-47260498D01*
X131306274Y-47339650D01*
X131125888Y-47375530D01*
X131103417Y-47380000D01*
X130896583Y-47380000D01*
X130874112Y-47375530D01*
X130693726Y-47339650D01*
X130502638Y-47260498D01*
X130330664Y-47145589D01*
X130184411Y-46999336D01*
X130069502Y-46827362D01*
X129990350Y-46636274D01*
X129950000Y-46433416D01*
X129950000Y-46226584D01*
X129990350Y-46023726D01*
X130069502Y-45832638D01*
X130184411Y-45660664D01*
X130330664Y-45514411D01*
X130502638Y-45399502D01*
X130693726Y-45320350D01*
X130874112Y-45284470D01*
X130896583Y-45280000D01*
X131103417Y-45280000D01*
X131125888Y-45284470D01*
X131125888Y-45284470D01*
G37*
G36*
X87485888Y-45084470D02*
X87666274Y-45120350D01*
X87857362Y-45199502D01*
X88029336Y-45314411D01*
X88175589Y-45460664D01*
X88290498Y-45632638D01*
X88369650Y-45823726D01*
X88410000Y-46026584D01*
X88410000Y-46233416D01*
X88369650Y-46436274D01*
X88290498Y-46627362D01*
X88175589Y-46799336D01*
X88029336Y-46945589D01*
X87857362Y-47060498D01*
X87666274Y-47139650D01*
X87485888Y-47175530D01*
X87463417Y-47180000D01*
X87256583Y-47180000D01*
X87234112Y-47175530D01*
X87053726Y-47139650D01*
X86862638Y-47060498D01*
X86690664Y-46945589D01*
X86544411Y-46799336D01*
X86429502Y-46627362D01*
X86350350Y-46436274D01*
X86310000Y-46233416D01*
X86310000Y-46026584D01*
X86350350Y-45823726D01*
X86429502Y-45632638D01*
X86544411Y-45460664D01*
X86690664Y-45314411D01*
X86862638Y-45199502D01*
X87053726Y-45120350D01*
X87234112Y-45084470D01*
X87256583Y-45080000D01*
X87463417Y-45080000D01*
X87485888Y-45084470D01*
X87485888Y-45084470D01*
G37*
G36*
X90025888Y-45084470D02*
X90206274Y-45120350D01*
X90397362Y-45199502D01*
X90569336Y-45314411D01*
X90715589Y-45460664D01*
X90830498Y-45632638D01*
X90909650Y-45823726D01*
X90950000Y-46026584D01*
X90950000Y-46233416D01*
X90909650Y-46436274D01*
X90830498Y-46627362D01*
X90715589Y-46799336D01*
X90569336Y-46945589D01*
X90397362Y-47060498D01*
X90206274Y-47139650D01*
X90025888Y-47175530D01*
X90003417Y-47180000D01*
X89796583Y-47180000D01*
X89774112Y-47175530D01*
X89593726Y-47139650D01*
X89402638Y-47060498D01*
X89230664Y-46945589D01*
X89084411Y-46799336D01*
X88969502Y-46627362D01*
X88890350Y-46436274D01*
X88850000Y-46233416D01*
X88850000Y-46026584D01*
X88890350Y-45823726D01*
X88969502Y-45632638D01*
X89084411Y-45460664D01*
X89230664Y-45314411D01*
X89402638Y-45199502D01*
X89593726Y-45120350D01*
X89774112Y-45084470D01*
X89796583Y-45080000D01*
X90003417Y-45080000D01*
X90025888Y-45084470D01*
X90025888Y-45084470D01*
G37*
G36*
X118844959Y-41422577D02*
X119185470Y-41490309D01*
X119613143Y-41667457D01*
X119998038Y-41924636D01*
X120325364Y-42251962D01*
X120582543Y-42636857D01*
X120759691Y-43064530D01*
X120850000Y-43518545D01*
X120850000Y-43981455D01*
X120759691Y-44435470D01*
X120582543Y-44863143D01*
X120325364Y-45248038D01*
X119998038Y-45575364D01*
X119613143Y-45832543D01*
X119185470Y-46009691D01*
X118844959Y-46077423D01*
X118731456Y-46100000D01*
X118268544Y-46100000D01*
X118155041Y-46077423D01*
X117814530Y-46009691D01*
X117386857Y-45832543D01*
X117001962Y-45575364D01*
X116674636Y-45248038D01*
X116417457Y-44863143D01*
X116240309Y-44435470D01*
X116150000Y-43981455D01*
X116150000Y-43518545D01*
X116240309Y-43064530D01*
X116417457Y-42636857D01*
X116674636Y-42251962D01*
X117001962Y-41924636D01*
X117386857Y-41667457D01*
X117814530Y-41490309D01*
X118155041Y-41422577D01*
X118268544Y-41400000D01*
X118731456Y-41400000D01*
X118844959Y-41422577D01*
X118844959Y-41422577D01*
G37*
G36*
X76844959Y-41422577D02*
X77185470Y-41490309D01*
X77613143Y-41667457D01*
X77998038Y-41924636D01*
X78325364Y-42251962D01*
X78582543Y-42636857D01*
X78759691Y-43064530D01*
X78850000Y-43518545D01*
X78850000Y-43981455D01*
X78759691Y-44435470D01*
X78582543Y-44863143D01*
X78325364Y-45248038D01*
X77998038Y-45575364D01*
X77613143Y-45832543D01*
X77185470Y-46009691D01*
X76844959Y-46077423D01*
X76731456Y-46100000D01*
X76268544Y-46100000D01*
X76155041Y-46077423D01*
X75814530Y-46009691D01*
X75386857Y-45832543D01*
X75001962Y-45575364D01*
X74674636Y-45248038D01*
X74417457Y-44863143D01*
X74240309Y-44435470D01*
X74150000Y-43981455D01*
X74150000Y-43518545D01*
X74240309Y-43064530D01*
X74417457Y-42636857D01*
X74674636Y-42251962D01*
X75001962Y-41924636D01*
X75386857Y-41667457D01*
X75814530Y-41490309D01*
X76155041Y-41422577D01*
X76268544Y-41400000D01*
X76731456Y-41400000D01*
X76844959Y-41422577D01*
X76844959Y-41422577D01*
G37*
G36*
X149086393Y-41993553D02*
X149195872Y-42015330D01*
X149505252Y-42143479D01*
X149783687Y-42329523D01*
X150020477Y-42566313D01*
X150206521Y-42844748D01*
X150334670Y-43154128D01*
X150334670Y-43154129D01*
X150400000Y-43482563D01*
X150400000Y-43817437D01*
X150367374Y-43981456D01*
X150334670Y-44145872D01*
X150206521Y-44455252D01*
X150020477Y-44733687D01*
X149783687Y-44970477D01*
X149505252Y-45156521D01*
X149195872Y-45284670D01*
X149086393Y-45306447D01*
X148867437Y-45350000D01*
X148532563Y-45350000D01*
X148313607Y-45306447D01*
X148204128Y-45284670D01*
X147894748Y-45156521D01*
X147616313Y-44970477D01*
X147379523Y-44733687D01*
X147193479Y-44455252D01*
X147065330Y-44145872D01*
X147032626Y-43981456D01*
X147000000Y-43817437D01*
X147000000Y-43482563D01*
X147065330Y-43154129D01*
X147065330Y-43154128D01*
X147193479Y-42844748D01*
X147379523Y-42566313D01*
X147616313Y-42329523D01*
X147894748Y-42143479D01*
X148204128Y-42015330D01*
X148313607Y-41993553D01*
X148532563Y-41950000D01*
X148867437Y-41950000D01*
X149086393Y-41993553D01*
X149086393Y-41993553D01*
G37*
G36*
X138886393Y-41993553D02*
X138995872Y-42015330D01*
X139305252Y-42143479D01*
X139583687Y-42329523D01*
X139820477Y-42566313D01*
X140006521Y-42844748D01*
X140134670Y-43154128D01*
X140134670Y-43154129D01*
X140200000Y-43482563D01*
X140200000Y-43817437D01*
X140167374Y-43981456D01*
X140134670Y-44145872D01*
X140006521Y-44455252D01*
X139820477Y-44733687D01*
X139583687Y-44970477D01*
X139305252Y-45156521D01*
X138995872Y-45284670D01*
X138886393Y-45306447D01*
X138667437Y-45350000D01*
X138332563Y-45350000D01*
X138113607Y-45306447D01*
X138004128Y-45284670D01*
X137694748Y-45156521D01*
X137416313Y-44970477D01*
X137179523Y-44733687D01*
X136993479Y-44455252D01*
X136865330Y-44145872D01*
X136832626Y-43981456D01*
X136800000Y-43817437D01*
X136800000Y-43482563D01*
X136865330Y-43154129D01*
X136865330Y-43154128D01*
X136993479Y-42844748D01*
X137179523Y-42566313D01*
X137416313Y-42329523D01*
X137694748Y-42143479D01*
X138004128Y-42015330D01*
X138113607Y-41993553D01*
X138332563Y-41950000D01*
X138667437Y-41950000D01*
X138886393Y-41993553D01*
X138886393Y-41993553D01*
G37*
G36*
X97686393Y-41793553D02*
X97795872Y-41815330D01*
X98105252Y-41943479D01*
X98383687Y-42129523D01*
X98620477Y-42366313D01*
X98806521Y-42644748D01*
X98889363Y-42844748D01*
X98934670Y-42954129D01*
X99000000Y-43282563D01*
X99000000Y-43617437D01*
X98960218Y-43817435D01*
X98934670Y-43945872D01*
X98806521Y-44255252D01*
X98620477Y-44533687D01*
X98383687Y-44770477D01*
X98105252Y-44956521D01*
X97795872Y-45084670D01*
X97686393Y-45106447D01*
X97467437Y-45150000D01*
X97132563Y-45150000D01*
X96913607Y-45106447D01*
X96804128Y-45084670D01*
X96494748Y-44956521D01*
X96216313Y-44770477D01*
X95979523Y-44533687D01*
X95793479Y-44255252D01*
X95665330Y-43945872D01*
X95639782Y-43817435D01*
X95600000Y-43617437D01*
X95600000Y-43282563D01*
X95665330Y-42954129D01*
X95710637Y-42844748D01*
X95793479Y-42644748D01*
X95979523Y-42366313D01*
X96216313Y-42129523D01*
X96494748Y-41943479D01*
X96804128Y-41815330D01*
X96913607Y-41793553D01*
X97132563Y-41750000D01*
X97467437Y-41750000D01*
X97686393Y-41793553D01*
X97686393Y-41793553D01*
G37*
G36*
X107886393Y-41793553D02*
X107995872Y-41815330D01*
X108305252Y-41943479D01*
X108583687Y-42129523D01*
X108820477Y-42366313D01*
X109006521Y-42644748D01*
X109089363Y-42844748D01*
X109134670Y-42954129D01*
X109200000Y-43282563D01*
X109200000Y-43617437D01*
X109160218Y-43817435D01*
X109134670Y-43945872D01*
X109006521Y-44255252D01*
X108820477Y-44533687D01*
X108583687Y-44770477D01*
X108305252Y-44956521D01*
X107995872Y-45084670D01*
X107886393Y-45106447D01*
X107667437Y-45150000D01*
X107332563Y-45150000D01*
X107113607Y-45106447D01*
X107004128Y-45084670D01*
X106694748Y-44956521D01*
X106416313Y-44770477D01*
X106179523Y-44533687D01*
X105993479Y-44255252D01*
X105865330Y-43945872D01*
X105839782Y-43817435D01*
X105800000Y-43617437D01*
X105800000Y-43282563D01*
X105865330Y-42954129D01*
X105910637Y-42844748D01*
X105993479Y-42644748D01*
X106179523Y-42366313D01*
X106416313Y-42129523D01*
X106694748Y-41943479D01*
X107004128Y-41815330D01*
X107113607Y-41793553D01*
X107332563Y-41750000D01*
X107667437Y-41750000D01*
X107886393Y-41793553D01*
X107886393Y-41793553D01*
G37*
G36*
X35386393Y-41593553D02*
X35495872Y-41615330D01*
X35805252Y-41743479D01*
X36083687Y-41929523D01*
X36320477Y-42166313D01*
X36506521Y-42444748D01*
X36589363Y-42644748D01*
X36634670Y-42754129D01*
X36700000Y-43082563D01*
X36700000Y-43417437D01*
X36687045Y-43482565D01*
X36634670Y-43745872D01*
X36506521Y-44055252D01*
X36320477Y-44333687D01*
X36083687Y-44570477D01*
X35805252Y-44756521D01*
X35495872Y-44884670D01*
X35386393Y-44906447D01*
X35167437Y-44950000D01*
X34832563Y-44950000D01*
X34613607Y-44906447D01*
X34504128Y-44884670D01*
X34194748Y-44756521D01*
X33916313Y-44570477D01*
X33679523Y-44333687D01*
X33493479Y-44055252D01*
X33365330Y-43745872D01*
X33312955Y-43482565D01*
X33300000Y-43417437D01*
X33300000Y-43082563D01*
X33365330Y-42754129D01*
X33410637Y-42644748D01*
X33493479Y-42444748D01*
X33679523Y-42166313D01*
X33916313Y-41929523D01*
X34194748Y-41743479D01*
X34504128Y-41615330D01*
X34613607Y-41593553D01*
X34832563Y-41550000D01*
X35167437Y-41550000D01*
X35386393Y-41593553D01*
X35386393Y-41593553D01*
G37*
G36*
X45586393Y-41593553D02*
X45695872Y-41615330D01*
X46005252Y-41743479D01*
X46283687Y-41929523D01*
X46520477Y-42166313D01*
X46706521Y-42444748D01*
X46789363Y-42644748D01*
X46834670Y-42754129D01*
X46900000Y-43082563D01*
X46900000Y-43417437D01*
X46887045Y-43482565D01*
X46834670Y-43745872D01*
X46706521Y-44055252D01*
X46520477Y-44333687D01*
X46283687Y-44570477D01*
X46005252Y-44756521D01*
X45695872Y-44884670D01*
X45586393Y-44906447D01*
X45367437Y-44950000D01*
X45032563Y-44950000D01*
X44813607Y-44906447D01*
X44704128Y-44884670D01*
X44394748Y-44756521D01*
X44116313Y-44570477D01*
X43879523Y-44333687D01*
X43693479Y-44055252D01*
X43565330Y-43745872D01*
X43512955Y-43482565D01*
X43500000Y-43417437D01*
X43500000Y-43082563D01*
X43565330Y-42754129D01*
X43610637Y-42644748D01*
X43693479Y-42444748D01*
X43879523Y-42166313D01*
X44116313Y-41929523D01*
X44394748Y-41743479D01*
X44704128Y-41615330D01*
X44813607Y-41593553D01*
X45032563Y-41550000D01*
X45367437Y-41550000D01*
X45586393Y-41593553D01*
X45586393Y-41593553D01*
G37*
G36*
X58186393Y-41593553D02*
X58295872Y-41615330D01*
X58605252Y-41743479D01*
X58883687Y-41929523D01*
X59120477Y-42166313D01*
X59306521Y-42444748D01*
X59389363Y-42644748D01*
X59434670Y-42754129D01*
X59500000Y-43082563D01*
X59500000Y-43417437D01*
X59487045Y-43482565D01*
X59434670Y-43745872D01*
X59306521Y-44055252D01*
X59120477Y-44333687D01*
X58883687Y-44570477D01*
X58605252Y-44756521D01*
X58295872Y-44884670D01*
X58186393Y-44906447D01*
X57967437Y-44950000D01*
X57632563Y-44950000D01*
X57413607Y-44906447D01*
X57304128Y-44884670D01*
X56994748Y-44756521D01*
X56716313Y-44570477D01*
X56479523Y-44333687D01*
X56293479Y-44055252D01*
X56165330Y-43745872D01*
X56112955Y-43482565D01*
X56100000Y-43417437D01*
X56100000Y-43082563D01*
X56165330Y-42754129D01*
X56210637Y-42644748D01*
X56293479Y-42444748D01*
X56479523Y-42166313D01*
X56716313Y-41929523D01*
X56994748Y-41743479D01*
X57304128Y-41615330D01*
X57413607Y-41593553D01*
X57632563Y-41550000D01*
X57967437Y-41550000D01*
X58186393Y-41593553D01*
X58186393Y-41593553D01*
G37*
G36*
X68386393Y-41593553D02*
X68495872Y-41615330D01*
X68805252Y-41743479D01*
X69083687Y-41929523D01*
X69320477Y-42166313D01*
X69506521Y-42444748D01*
X69589363Y-42644748D01*
X69634670Y-42754129D01*
X69700000Y-43082563D01*
X69700000Y-43417437D01*
X69687045Y-43482565D01*
X69634670Y-43745872D01*
X69506521Y-44055252D01*
X69320477Y-44333687D01*
X69083687Y-44570477D01*
X68805252Y-44756521D01*
X68495872Y-44884670D01*
X68386393Y-44906447D01*
X68167437Y-44950000D01*
X67832563Y-44950000D01*
X67613607Y-44906447D01*
X67504128Y-44884670D01*
X67194748Y-44756521D01*
X66916313Y-44570477D01*
X66679523Y-44333687D01*
X66493479Y-44055252D01*
X66365330Y-43745872D01*
X66312955Y-43482565D01*
X66300000Y-43417437D01*
X66300000Y-43082563D01*
X66365330Y-42754129D01*
X66410637Y-42644748D01*
X66493479Y-42444748D01*
X66679523Y-42166313D01*
X66916313Y-41929523D01*
X67194748Y-41743479D01*
X67504128Y-41615330D01*
X67613607Y-41593553D01*
X67832563Y-41550000D01*
X68167437Y-41550000D01*
X68386393Y-41593553D01*
X68386393Y-41593553D01*
G37*
G36*
X131125888Y-40204470D02*
X131306274Y-40240350D01*
X131497362Y-40319502D01*
X131669336Y-40434411D01*
X131815589Y-40580664D01*
X131930498Y-40752638D01*
X132009650Y-40943726D01*
X132050000Y-41146584D01*
X132050000Y-41353416D01*
X132009650Y-41556274D01*
X131930498Y-41747362D01*
X131815589Y-41919336D01*
X131669336Y-42065589D01*
X131497362Y-42180498D01*
X131306274Y-42259650D01*
X131125888Y-42295530D01*
X131103417Y-42300000D01*
X130896583Y-42300000D01*
X130874112Y-42295530D01*
X130693726Y-42259650D01*
X130502638Y-42180498D01*
X130330664Y-42065589D01*
X130184411Y-41919336D01*
X130069502Y-41747362D01*
X129990350Y-41556274D01*
X129950000Y-41353416D01*
X129950000Y-41146584D01*
X129990350Y-40943726D01*
X130069502Y-40752638D01*
X130184411Y-40580664D01*
X130330664Y-40434411D01*
X130502638Y-40319502D01*
X130693726Y-40240350D01*
X130874112Y-40204470D01*
X130896583Y-40200000D01*
X131103417Y-40200000D01*
X131125888Y-40204470D01*
X131125888Y-40204470D01*
G37*
G36*
X128585888Y-40204470D02*
X128766274Y-40240350D01*
X128957362Y-40319502D01*
X129129336Y-40434411D01*
X129275589Y-40580664D01*
X129390498Y-40752638D01*
X129469650Y-40943726D01*
X129510000Y-41146584D01*
X129510000Y-41353416D01*
X129469650Y-41556274D01*
X129390498Y-41747362D01*
X129275589Y-41919336D01*
X129129336Y-42065589D01*
X128957362Y-42180498D01*
X128766274Y-42259650D01*
X128585888Y-42295530D01*
X128563417Y-42300000D01*
X128356583Y-42300000D01*
X128334112Y-42295530D01*
X128153726Y-42259650D01*
X127962638Y-42180498D01*
X127790664Y-42065589D01*
X127644411Y-41919336D01*
X127529502Y-41747362D01*
X127450350Y-41556274D01*
X127410000Y-41353416D01*
X127410000Y-41146584D01*
X127450350Y-40943726D01*
X127529502Y-40752638D01*
X127644411Y-40580664D01*
X127790664Y-40434411D01*
X127962638Y-40319502D01*
X128153726Y-40240350D01*
X128334112Y-40204470D01*
X128356583Y-40200000D01*
X128563417Y-40200000D01*
X128585888Y-40204470D01*
X128585888Y-40204470D01*
G37*
G36*
X90025888Y-40004470D02*
X90206274Y-40040350D01*
X90397362Y-40119502D01*
X90569336Y-40234411D01*
X90715589Y-40380664D01*
X90830498Y-40552638D01*
X90909650Y-40743726D01*
X90950000Y-40946584D01*
X90950000Y-41153416D01*
X90909650Y-41356274D01*
X90830498Y-41547362D01*
X90715589Y-41719336D01*
X90569336Y-41865589D01*
X90397362Y-41980498D01*
X90206274Y-42059650D01*
X90025888Y-42095530D01*
X90003417Y-42100000D01*
X89796583Y-42100000D01*
X89774112Y-42095530D01*
X89593726Y-42059650D01*
X89402638Y-41980498D01*
X89230664Y-41865589D01*
X89084411Y-41719336D01*
X88969502Y-41547362D01*
X88890350Y-41356274D01*
X88850000Y-41153416D01*
X88850000Y-40946584D01*
X88890350Y-40743726D01*
X88969502Y-40552638D01*
X89084411Y-40380664D01*
X89230664Y-40234411D01*
X89402638Y-40119502D01*
X89593726Y-40040350D01*
X89774112Y-40004470D01*
X89796583Y-40000000D01*
X90003417Y-40000000D01*
X90025888Y-40004470D01*
X90025888Y-40004470D01*
G37*
G36*
X87485888Y-40004470D02*
X87666274Y-40040350D01*
X87857362Y-40119502D01*
X88029336Y-40234411D01*
X88175589Y-40380664D01*
X88290498Y-40552638D01*
X88369650Y-40743726D01*
X88410000Y-40946584D01*
X88410000Y-41153416D01*
X88369650Y-41356274D01*
X88290498Y-41547362D01*
X88175589Y-41719336D01*
X88029336Y-41865589D01*
X87857362Y-41980498D01*
X87666274Y-42059650D01*
X87485888Y-42095530D01*
X87463417Y-42100000D01*
X87256583Y-42100000D01*
X87234112Y-42095530D01*
X87053726Y-42059650D01*
X86862638Y-41980498D01*
X86690664Y-41865589D01*
X86544411Y-41719336D01*
X86429502Y-41547362D01*
X86350350Y-41356274D01*
X86310000Y-41153416D01*
X86310000Y-40946584D01*
X86350350Y-40743726D01*
X86429502Y-40552638D01*
X86544411Y-40380664D01*
X86690664Y-40234411D01*
X86862638Y-40119502D01*
X87053726Y-40040350D01*
X87234112Y-40004470D01*
X87256583Y-40000000D01*
X87463417Y-40000000D01*
X87485888Y-40004470D01*
X87485888Y-40004470D01*
G37*
M02*
