G04 #@! TF.GenerationSoftware,KiCad,Pcbnew,5.0.2-bee76a0~70~ubuntu18.04.1*
G04 #@! TF.CreationDate,2019-02-25T13:51:23+02:00*
G04 #@! TF.ProjectId,CombinedPCB,436f6d62-696e-4656-9450-43422e6b6963,rev?*
G04 #@! TF.SameCoordinates,Original*
G04 #@! TF.FileFunction,Legend,Top*
G04 #@! TF.FilePolarity,Positive*
%FSLAX46Y46*%
G04 Gerber Fmt 4.6, Leading zero omitted, Abs format (unit mm)*
G04 Created by KiCad (PCBNEW 5.0.2-bee76a0~70~ubuntu18.04.1) date Mon Feb 25 13:51:23 2019*
%MOMM*%
%LPD*%
G01*
G04 APERTURE LIST*
%ADD10C,0.100000*%
%ADD11C,0.150000*%
%ADD12C,0.300000*%
%ADD13C,0.400000*%
%ADD14C,0.600000*%
%ADD15C,0.200000*%
%ADD16C,0.250000*%
%ADD17C,0.225000*%
%ADD18C,0.120000*%
G04 APERTURE END LIST*
D10*
D11*
X177002200Y-166007200D02*
X177002200Y-198007200D01*
X285002200Y-198007200D01*
X285002200Y-166007200D01*
X177002200Y-166007200D01*
D10*
D11*
X10000000Y-10000000D02*
X10000000Y-200007200D01*
X287002200Y-200007200D01*
X287002200Y-10000000D01*
X10000000Y-10000000D01*
D10*
D11*
X12000000Y-12000000D02*
X12000000Y-198007200D01*
X285002200Y-198007200D01*
X285002200Y-12000000D01*
X12000000Y-12000000D01*
D10*
D11*
X60000000Y-12000000D02*
X60000000Y-10000000D01*
D10*
D11*
X110000000Y-12000000D02*
X110000000Y-10000000D01*
D10*
D11*
X160000000Y-12000000D02*
X160000000Y-10000000D01*
D10*
D11*
X210000000Y-12000000D02*
X210000000Y-10000000D01*
D10*
D11*
X260000000Y-12000000D02*
X260000000Y-10000000D01*
D10*
D11*
X36065476Y-11588095D02*
X35322619Y-11588095D01*
X35694047Y-11588095D02*
X35694047Y-10288095D01*
X35570238Y-10473809D01*
X35446428Y-10597619D01*
X35322619Y-10659523D01*
D10*
D11*
X85322619Y-10411904D02*
X85384523Y-10350000D01*
X85508333Y-10288095D01*
X85817857Y-10288095D01*
X85941666Y-10350000D01*
X86003571Y-10411904D01*
X86065476Y-10535714D01*
X86065476Y-10659523D01*
X86003571Y-10845238D01*
X85260714Y-11588095D01*
X86065476Y-11588095D01*
D10*
D11*
X135260714Y-10288095D02*
X136065476Y-10288095D01*
X135632142Y-10783333D01*
X135817857Y-10783333D01*
X135941666Y-10845238D01*
X136003571Y-10907142D01*
X136065476Y-11030952D01*
X136065476Y-11340476D01*
X136003571Y-11464285D01*
X135941666Y-11526190D01*
X135817857Y-11588095D01*
X135446428Y-11588095D01*
X135322619Y-11526190D01*
X135260714Y-11464285D01*
D10*
D11*
X185941666Y-10721428D02*
X185941666Y-11588095D01*
X185632142Y-10226190D02*
X185322619Y-11154761D01*
X186127380Y-11154761D01*
D10*
D11*
X236003571Y-10288095D02*
X235384523Y-10288095D01*
X235322619Y-10907142D01*
X235384523Y-10845238D01*
X235508333Y-10783333D01*
X235817857Y-10783333D01*
X235941666Y-10845238D01*
X236003571Y-10907142D01*
X236065476Y-11030952D01*
X236065476Y-11340476D01*
X236003571Y-11464285D01*
X235941666Y-11526190D01*
X235817857Y-11588095D01*
X235508333Y-11588095D01*
X235384523Y-11526190D01*
X235322619Y-11464285D01*
D10*
D11*
X285941666Y-10288095D02*
X285694047Y-10288095D01*
X285570238Y-10350000D01*
X285508333Y-10411904D01*
X285384523Y-10597619D01*
X285322619Y-10845238D01*
X285322619Y-11340476D01*
X285384523Y-11464285D01*
X285446428Y-11526190D01*
X285570238Y-11588095D01*
X285817857Y-11588095D01*
X285941666Y-11526190D01*
X286003571Y-11464285D01*
X286065476Y-11340476D01*
X286065476Y-11030952D01*
X286003571Y-10907142D01*
X285941666Y-10845238D01*
X285817857Y-10783333D01*
X285570238Y-10783333D01*
X285446428Y-10845238D01*
X285384523Y-10907142D01*
X285322619Y-11030952D01*
D10*
D11*
X60000000Y-198007200D02*
X60000000Y-200007200D01*
D10*
D11*
X110000000Y-198007200D02*
X110000000Y-200007200D01*
D10*
D11*
X160000000Y-198007200D02*
X160000000Y-200007200D01*
D10*
D11*
X210000000Y-198007200D02*
X210000000Y-200007200D01*
D10*
D11*
X260000000Y-198007200D02*
X260000000Y-200007200D01*
D10*
D11*
X36065476Y-199595295D02*
X35322619Y-199595295D01*
X35694047Y-199595295D02*
X35694047Y-198295295D01*
X35570238Y-198481009D01*
X35446428Y-198604819D01*
X35322619Y-198666723D01*
D10*
D11*
X85322619Y-198419104D02*
X85384523Y-198357200D01*
X85508333Y-198295295D01*
X85817857Y-198295295D01*
X85941666Y-198357200D01*
X86003571Y-198419104D01*
X86065476Y-198542914D01*
X86065476Y-198666723D01*
X86003571Y-198852438D01*
X85260714Y-199595295D01*
X86065476Y-199595295D01*
D10*
D11*
X135260714Y-198295295D02*
X136065476Y-198295295D01*
X135632142Y-198790533D01*
X135817857Y-198790533D01*
X135941666Y-198852438D01*
X136003571Y-198914342D01*
X136065476Y-199038152D01*
X136065476Y-199347676D01*
X136003571Y-199471485D01*
X135941666Y-199533390D01*
X135817857Y-199595295D01*
X135446428Y-199595295D01*
X135322619Y-199533390D01*
X135260714Y-199471485D01*
D10*
D11*
X185941666Y-198728628D02*
X185941666Y-199595295D01*
X185632142Y-198233390D02*
X185322619Y-199161961D01*
X186127380Y-199161961D01*
D10*
D11*
X236003571Y-198295295D02*
X235384523Y-198295295D01*
X235322619Y-198914342D01*
X235384523Y-198852438D01*
X235508333Y-198790533D01*
X235817857Y-198790533D01*
X235941666Y-198852438D01*
X236003571Y-198914342D01*
X236065476Y-199038152D01*
X236065476Y-199347676D01*
X236003571Y-199471485D01*
X235941666Y-199533390D01*
X235817857Y-199595295D01*
X235508333Y-199595295D01*
X235384523Y-199533390D01*
X235322619Y-199471485D01*
D10*
D11*
X285941666Y-198295295D02*
X285694047Y-198295295D01*
X285570238Y-198357200D01*
X285508333Y-198419104D01*
X285384523Y-198604819D01*
X285322619Y-198852438D01*
X285322619Y-199347676D01*
X285384523Y-199471485D01*
X285446428Y-199533390D01*
X285570238Y-199595295D01*
X285817857Y-199595295D01*
X285941666Y-199533390D01*
X286003571Y-199471485D01*
X286065476Y-199347676D01*
X286065476Y-199038152D01*
X286003571Y-198914342D01*
X285941666Y-198852438D01*
X285817857Y-198790533D01*
X285570238Y-198790533D01*
X285446428Y-198852438D01*
X285384523Y-198914342D01*
X285322619Y-199038152D01*
D10*
D11*
X10000000Y-60000000D02*
X12000000Y-60000000D01*
D10*
D11*
X10000000Y-110000000D02*
X12000000Y-110000000D01*
D10*
D11*
X10000000Y-160000000D02*
X12000000Y-160000000D01*
D10*
D11*
X10690476Y-35216666D02*
X11309523Y-35216666D01*
X10566666Y-35588095D02*
X11000000Y-34288095D01*
X11433333Y-35588095D01*
D10*
D11*
X11092857Y-84907142D02*
X11278571Y-84969047D01*
X11340476Y-85030952D01*
X11402380Y-85154761D01*
X11402380Y-85340476D01*
X11340476Y-85464285D01*
X11278571Y-85526190D01*
X11154761Y-85588095D01*
X10659523Y-85588095D01*
X10659523Y-84288095D01*
X11092857Y-84288095D01*
X11216666Y-84350000D01*
X11278571Y-84411904D01*
X11340476Y-84535714D01*
X11340476Y-84659523D01*
X11278571Y-84783333D01*
X11216666Y-84845238D01*
X11092857Y-84907142D01*
X10659523Y-84907142D01*
D10*
D11*
X11402380Y-135464285D02*
X11340476Y-135526190D01*
X11154761Y-135588095D01*
X11030952Y-135588095D01*
X10845238Y-135526190D01*
X10721428Y-135402380D01*
X10659523Y-135278571D01*
X10597619Y-135030952D01*
X10597619Y-134845238D01*
X10659523Y-134597619D01*
X10721428Y-134473809D01*
X10845238Y-134350000D01*
X11030952Y-134288095D01*
X11154761Y-134288095D01*
X11340476Y-134350000D01*
X11402380Y-134411904D01*
D10*
D11*
X10659523Y-185588095D02*
X10659523Y-184288095D01*
X10969047Y-184288095D01*
X11154761Y-184350000D01*
X11278571Y-184473809D01*
X11340476Y-184597619D01*
X11402380Y-184845238D01*
X11402380Y-185030952D01*
X11340476Y-185278571D01*
X11278571Y-185402380D01*
X11154761Y-185526190D01*
X10969047Y-185588095D01*
X10659523Y-185588095D01*
D10*
D11*
X287002200Y-60000000D02*
X285002200Y-60000000D01*
D10*
D11*
X287002200Y-110000000D02*
X285002200Y-110000000D01*
D10*
D11*
X287002200Y-160000000D02*
X285002200Y-160000000D01*
D10*
D11*
X285692676Y-35216666D02*
X286311723Y-35216666D01*
X285568866Y-35588095D02*
X286002200Y-34288095D01*
X286435533Y-35588095D01*
D10*
D11*
X286095057Y-84907142D02*
X286280771Y-84969047D01*
X286342676Y-85030952D01*
X286404580Y-85154761D01*
X286404580Y-85340476D01*
X286342676Y-85464285D01*
X286280771Y-85526190D01*
X286156961Y-85588095D01*
X285661723Y-85588095D01*
X285661723Y-84288095D01*
X286095057Y-84288095D01*
X286218866Y-84350000D01*
X286280771Y-84411904D01*
X286342676Y-84535714D01*
X286342676Y-84659523D01*
X286280771Y-84783333D01*
X286218866Y-84845238D01*
X286095057Y-84907142D01*
X285661723Y-84907142D01*
D10*
D11*
X286404580Y-135464285D02*
X286342676Y-135526190D01*
X286156961Y-135588095D01*
X286033152Y-135588095D01*
X285847438Y-135526190D01*
X285723628Y-135402380D01*
X285661723Y-135278571D01*
X285599819Y-135030952D01*
X285599819Y-134845238D01*
X285661723Y-134597619D01*
X285723628Y-134473809D01*
X285847438Y-134350000D01*
X286033152Y-134288095D01*
X286156961Y-134288095D01*
X286342676Y-134350000D01*
X286404580Y-134411904D01*
D10*
D11*
X285661723Y-185588095D02*
X285661723Y-184288095D01*
X285971247Y-184288095D01*
X286156961Y-184350000D01*
X286280771Y-184473809D01*
X286342676Y-184597619D01*
X286404580Y-184845238D01*
X286404580Y-185030952D01*
X286342676Y-185278571D01*
X286280771Y-185402380D01*
X286156961Y-185526190D01*
X285971247Y-185588095D01*
X285661723Y-185588095D01*
D10*
D11*
X200434342Y-193785771D02*
X200434342Y-192285771D01*
X200791485Y-192285771D01*
X201005771Y-192357200D01*
X201148628Y-192500057D01*
X201220057Y-192642914D01*
X201291485Y-192928628D01*
X201291485Y-193142914D01*
X201220057Y-193428628D01*
X201148628Y-193571485D01*
X201005771Y-193714342D01*
X200791485Y-193785771D01*
X200434342Y-193785771D01*
X202577200Y-193785771D02*
X202577200Y-193000057D01*
X202505771Y-192857200D01*
X202362914Y-192785771D01*
X202077200Y-192785771D01*
X201934342Y-192857200D01*
X202577200Y-193714342D02*
X202434342Y-193785771D01*
X202077200Y-193785771D01*
X201934342Y-193714342D01*
X201862914Y-193571485D01*
X201862914Y-193428628D01*
X201934342Y-193285771D01*
X202077200Y-193214342D01*
X202434342Y-193214342D01*
X202577200Y-193142914D01*
X203077200Y-192785771D02*
X203648628Y-192785771D01*
X203291485Y-192285771D02*
X203291485Y-193571485D01*
X203362914Y-193714342D01*
X203505771Y-193785771D01*
X203648628Y-193785771D01*
X204720057Y-193714342D02*
X204577200Y-193785771D01*
X204291485Y-193785771D01*
X204148628Y-193714342D01*
X204077200Y-193571485D01*
X204077200Y-193000057D01*
X204148628Y-192857200D01*
X204291485Y-192785771D01*
X204577200Y-192785771D01*
X204720057Y-192857200D01*
X204791485Y-193000057D01*
X204791485Y-193142914D01*
X204077200Y-193285771D01*
X205434342Y-193642914D02*
X205505771Y-193714342D01*
X205434342Y-193785771D01*
X205362914Y-193714342D01*
X205434342Y-193642914D01*
X205434342Y-193785771D01*
X205434342Y-192857200D02*
X205505771Y-192928628D01*
X205434342Y-193000057D01*
X205362914Y-192928628D01*
X205434342Y-192857200D01*
X205434342Y-193000057D01*
D10*
D11*
X177002200Y-194507200D02*
X285002200Y-194507200D01*
D10*
D11*
X178434342Y-196585771D02*
X178434342Y-195085771D01*
X179291485Y-196585771D02*
X178648628Y-195728628D01*
X179291485Y-195085771D02*
X178434342Y-195942914D01*
X179934342Y-196585771D02*
X179934342Y-195585771D01*
X179934342Y-195085771D02*
X179862914Y-195157200D01*
X179934342Y-195228628D01*
X180005771Y-195157200D01*
X179934342Y-195085771D01*
X179934342Y-195228628D01*
X181505771Y-196442914D02*
X181434342Y-196514342D01*
X181220057Y-196585771D01*
X181077200Y-196585771D01*
X180862914Y-196514342D01*
X180720057Y-196371485D01*
X180648628Y-196228628D01*
X180577200Y-195942914D01*
X180577200Y-195728628D01*
X180648628Y-195442914D01*
X180720057Y-195300057D01*
X180862914Y-195157200D01*
X181077200Y-195085771D01*
X181220057Y-195085771D01*
X181434342Y-195157200D01*
X181505771Y-195228628D01*
X182791485Y-196585771D02*
X182791485Y-195800057D01*
X182720057Y-195657200D01*
X182577200Y-195585771D01*
X182291485Y-195585771D01*
X182148628Y-195657200D01*
X182791485Y-196514342D02*
X182648628Y-196585771D01*
X182291485Y-196585771D01*
X182148628Y-196514342D01*
X182077200Y-196371485D01*
X182077200Y-196228628D01*
X182148628Y-196085771D01*
X182291485Y-196014342D01*
X182648628Y-196014342D01*
X182791485Y-195942914D01*
X184148628Y-196585771D02*
X184148628Y-195085771D01*
X184148628Y-196514342D02*
X184005771Y-196585771D01*
X183720057Y-196585771D01*
X183577200Y-196514342D01*
X183505771Y-196442914D01*
X183434342Y-196300057D01*
X183434342Y-195871485D01*
X183505771Y-195728628D01*
X183577200Y-195657200D01*
X183720057Y-195585771D01*
X184005771Y-195585771D01*
X184148628Y-195657200D01*
X186005771Y-195800057D02*
X186505771Y-195800057D01*
X186720057Y-196585771D02*
X186005771Y-196585771D01*
X186005771Y-195085771D01*
X186720057Y-195085771D01*
X187362914Y-196442914D02*
X187434342Y-196514342D01*
X187362914Y-196585771D01*
X187291485Y-196514342D01*
X187362914Y-196442914D01*
X187362914Y-196585771D01*
X188077200Y-196585771D02*
X188077200Y-195085771D01*
X188434342Y-195085771D01*
X188648628Y-195157200D01*
X188791485Y-195300057D01*
X188862914Y-195442914D01*
X188934342Y-195728628D01*
X188934342Y-195942914D01*
X188862914Y-196228628D01*
X188791485Y-196371485D01*
X188648628Y-196514342D01*
X188434342Y-196585771D01*
X188077200Y-196585771D01*
X189577200Y-196442914D02*
X189648628Y-196514342D01*
X189577200Y-196585771D01*
X189505771Y-196514342D01*
X189577200Y-196442914D01*
X189577200Y-196585771D01*
X190220057Y-196157200D02*
X190934342Y-196157200D01*
X190077200Y-196585771D02*
X190577200Y-195085771D01*
X191077200Y-196585771D01*
X191577200Y-196442914D02*
X191648628Y-196514342D01*
X191577200Y-196585771D01*
X191505771Y-196514342D01*
X191577200Y-196442914D01*
X191577200Y-196585771D01*
X194577200Y-195585771D02*
X194577200Y-197085771D01*
X194577200Y-195657200D02*
X194720057Y-195585771D01*
X195005771Y-195585771D01*
X195148628Y-195657200D01*
X195220057Y-195728628D01*
X195291485Y-195871485D01*
X195291485Y-196300057D01*
X195220057Y-196442914D01*
X195148628Y-196514342D01*
X195005771Y-196585771D01*
X194720057Y-196585771D01*
X194577200Y-196514342D01*
X196577200Y-196514342D02*
X196434342Y-196585771D01*
X196148628Y-196585771D01*
X196005771Y-196514342D01*
X195934342Y-196442914D01*
X195862914Y-196300057D01*
X195862914Y-195871485D01*
X195934342Y-195728628D01*
X196005771Y-195657200D01*
X196148628Y-195585771D01*
X196434342Y-195585771D01*
X196577200Y-195657200D01*
X197220057Y-196585771D02*
X197220057Y-195085771D01*
X197220057Y-195657200D02*
X197362914Y-195585771D01*
X197648628Y-195585771D01*
X197791485Y-195657200D01*
X197862914Y-195728628D01*
X197934342Y-195871485D01*
X197934342Y-196300057D01*
X197862914Y-196442914D01*
X197791485Y-196514342D01*
X197648628Y-196585771D01*
X197362914Y-196585771D01*
X197220057Y-196514342D01*
X198577200Y-195585771D02*
X198577200Y-196585771D01*
X198577200Y-195728628D02*
X198648628Y-195657200D01*
X198791485Y-195585771D01*
X199005771Y-195585771D01*
X199148628Y-195657200D01*
X199220057Y-195800057D01*
X199220057Y-196585771D01*
X200505771Y-196514342D02*
X200362914Y-196585771D01*
X200077200Y-196585771D01*
X199934342Y-196514342D01*
X199862914Y-196371485D01*
X199862914Y-195800057D01*
X199934342Y-195657200D01*
X200077200Y-195585771D01*
X200362914Y-195585771D01*
X200505771Y-195657200D01*
X200577200Y-195800057D01*
X200577200Y-195942914D01*
X199862914Y-196085771D01*
X201077200Y-195585771D02*
X201362914Y-196585771D01*
X201648628Y-195871485D01*
X201934342Y-196585771D01*
X202220057Y-195585771D01*
X204648628Y-195085771D02*
X203934342Y-195085771D01*
X203862914Y-195800057D01*
X203934342Y-195728628D01*
X204077200Y-195657200D01*
X204434342Y-195657200D01*
X204577200Y-195728628D01*
X204648628Y-195800057D01*
X204720057Y-195942914D01*
X204720057Y-196300057D01*
X204648628Y-196442914D01*
X204577200Y-196514342D01*
X204434342Y-196585771D01*
X204077200Y-196585771D01*
X203934342Y-196514342D01*
X203862914Y-196442914D01*
X205362914Y-196442914D02*
X205434342Y-196514342D01*
X205362914Y-196585771D01*
X205291485Y-196514342D01*
X205362914Y-196442914D01*
X205362914Y-196585771D01*
X206362914Y-195085771D02*
X206505771Y-195085771D01*
X206648628Y-195157200D01*
X206720057Y-195228628D01*
X206791485Y-195371485D01*
X206862914Y-195657200D01*
X206862914Y-196014342D01*
X206791485Y-196300057D01*
X206720057Y-196442914D01*
X206648628Y-196514342D01*
X206505771Y-196585771D01*
X206362914Y-196585771D01*
X206220057Y-196514342D01*
X206148628Y-196442914D01*
X206077200Y-196300057D01*
X206005771Y-196014342D01*
X206005771Y-195657200D01*
X206077200Y-195371485D01*
X206148628Y-195228628D01*
X206220057Y-195157200D01*
X206362914Y-195085771D01*
X207505771Y-196442914D02*
X207577200Y-196514342D01*
X207505771Y-196585771D01*
X207434342Y-196514342D01*
X207505771Y-196442914D01*
X207505771Y-196585771D01*
X208148628Y-195228628D02*
X208220057Y-195157200D01*
X208362914Y-195085771D01*
X208720057Y-195085771D01*
X208862914Y-195157200D01*
X208934342Y-195228628D01*
X209005771Y-195371485D01*
X209005771Y-195514342D01*
X208934342Y-195728628D01*
X208077200Y-196585771D01*
X209005771Y-196585771D01*
X209648628Y-196014342D02*
X210791485Y-196014342D01*
X211505771Y-196585771D02*
X211505771Y-195085771D01*
X211505771Y-195657200D02*
X211648628Y-195585771D01*
X211934342Y-195585771D01*
X212077200Y-195657200D01*
X212148628Y-195728628D01*
X212220057Y-195871485D01*
X212220057Y-196300057D01*
X212148628Y-196442914D01*
X212077200Y-196514342D01*
X211934342Y-196585771D01*
X211648628Y-196585771D01*
X211505771Y-196514342D01*
X213434342Y-196514342D02*
X213291485Y-196585771D01*
X213005771Y-196585771D01*
X212862914Y-196514342D01*
X212791485Y-196371485D01*
X212791485Y-195800057D01*
X212862914Y-195657200D01*
X213005771Y-195585771D01*
X213291485Y-195585771D01*
X213434342Y-195657200D01*
X213505771Y-195800057D01*
X213505771Y-195942914D01*
X212791485Y-196085771D01*
X214720057Y-196514342D02*
X214577200Y-196585771D01*
X214291485Y-196585771D01*
X214148628Y-196514342D01*
X214077200Y-196371485D01*
X214077200Y-195800057D01*
X214148628Y-195657200D01*
X214291485Y-195585771D01*
X214577200Y-195585771D01*
X214720057Y-195657200D01*
X214791485Y-195800057D01*
X214791485Y-195942914D01*
X214077200Y-196085771D01*
X215291485Y-195085771D02*
X216291485Y-195085771D01*
X215648628Y-196585771D01*
X217505771Y-195085771D02*
X217220057Y-195085771D01*
X217077200Y-195157200D01*
X217005771Y-195228628D01*
X216862914Y-195442914D01*
X216791485Y-195728628D01*
X216791485Y-196300057D01*
X216862914Y-196442914D01*
X216934342Y-196514342D01*
X217077200Y-196585771D01*
X217362914Y-196585771D01*
X217505771Y-196514342D01*
X217577200Y-196442914D01*
X217648628Y-196300057D01*
X217648628Y-195942914D01*
X217577200Y-195800057D01*
X217505771Y-195728628D01*
X217362914Y-195657200D01*
X217077200Y-195657200D01*
X216934342Y-195728628D01*
X216862914Y-195800057D01*
X216791485Y-195942914D01*
X218934342Y-196585771D02*
X218934342Y-195800057D01*
X218862914Y-195657200D01*
X218720057Y-195585771D01*
X218434342Y-195585771D01*
X218291485Y-195657200D01*
X218934342Y-196514342D02*
X218791485Y-196585771D01*
X218434342Y-196585771D01*
X218291485Y-196514342D01*
X218220057Y-196371485D01*
X218220057Y-196228628D01*
X218291485Y-196085771D01*
X218434342Y-196014342D01*
X218791485Y-196014342D01*
X218934342Y-195942914D01*
X219934342Y-195085771D02*
X220077200Y-195085771D01*
X220220057Y-195157200D01*
X220291485Y-195228628D01*
X220362914Y-195371485D01*
X220434342Y-195657200D01*
X220434342Y-196014342D01*
X220362914Y-196300057D01*
X220291485Y-196442914D01*
X220220057Y-196514342D01*
X220077200Y-196585771D01*
X219934342Y-196585771D01*
X219791485Y-196514342D01*
X219720057Y-196442914D01*
X219648628Y-196300057D01*
X219577200Y-196014342D01*
X219577200Y-195657200D01*
X219648628Y-195371485D01*
X219720057Y-195228628D01*
X219791485Y-195157200D01*
X219934342Y-195085771D01*
X220720057Y-194677200D02*
X222148628Y-194677200D01*
X220934342Y-195085771D02*
X221934342Y-195085771D01*
X221291485Y-196585771D01*
X222148628Y-194677200D02*
X223577200Y-194677200D01*
X222791485Y-195085771D02*
X222934342Y-195085771D01*
X223077200Y-195157200D01*
X223148628Y-195228628D01*
X223220057Y-195371485D01*
X223291485Y-195657200D01*
X223291485Y-196014342D01*
X223220057Y-196300057D01*
X223148628Y-196442914D01*
X223077200Y-196514342D01*
X222934342Y-196585771D01*
X222791485Y-196585771D01*
X222648628Y-196514342D01*
X222577200Y-196442914D01*
X222505771Y-196300057D01*
X222434342Y-196014342D01*
X222434342Y-195657200D01*
X222505771Y-195371485D01*
X222577200Y-195228628D01*
X222648628Y-195157200D01*
X222791485Y-195085771D01*
X224577200Y-195585771D02*
X224577200Y-196585771D01*
X223934342Y-195585771D02*
X223934342Y-196371485D01*
X224005771Y-196514342D01*
X224148628Y-196585771D01*
X224362914Y-196585771D01*
X224505771Y-196514342D01*
X224577200Y-196442914D01*
X225291485Y-196585771D02*
X225291485Y-195085771D01*
X225291485Y-195657200D02*
X225434342Y-195585771D01*
X225720057Y-195585771D01*
X225862914Y-195657200D01*
X225934342Y-195728628D01*
X226005771Y-195871485D01*
X226005771Y-196300057D01*
X225934342Y-196442914D01*
X225862914Y-196514342D01*
X225720057Y-196585771D01*
X225434342Y-196585771D01*
X225291485Y-196514342D01*
X227291485Y-195585771D02*
X227291485Y-196585771D01*
X226648628Y-195585771D02*
X226648628Y-196371485D01*
X226720057Y-196514342D01*
X226862914Y-196585771D01*
X227077200Y-196585771D01*
X227220057Y-196514342D01*
X227291485Y-196442914D01*
X228005771Y-195585771D02*
X228005771Y-196585771D01*
X228005771Y-195728628D02*
X228077200Y-195657200D01*
X228220057Y-195585771D01*
X228434342Y-195585771D01*
X228577200Y-195657200D01*
X228648628Y-195800057D01*
X228648628Y-196585771D01*
X229148628Y-195585771D02*
X229720057Y-195585771D01*
X229362914Y-195085771D02*
X229362914Y-196371485D01*
X229434342Y-196514342D01*
X229577200Y-196585771D01*
X229720057Y-196585771D01*
X230862914Y-195585771D02*
X230862914Y-196585771D01*
X230220057Y-195585771D02*
X230220057Y-196371485D01*
X230291485Y-196514342D01*
X230434342Y-196585771D01*
X230648628Y-196585771D01*
X230791485Y-196514342D01*
X230862914Y-196442914D01*
X232362914Y-196585771D02*
X231505771Y-196585771D01*
X231934342Y-196585771D02*
X231934342Y-195085771D01*
X231791485Y-195300057D01*
X231648628Y-195442914D01*
X231505771Y-195514342D01*
X233220057Y-195728628D02*
X233077200Y-195657200D01*
X233005771Y-195585771D01*
X232934342Y-195442914D01*
X232934342Y-195371485D01*
X233005771Y-195228628D01*
X233077200Y-195157200D01*
X233220057Y-195085771D01*
X233505771Y-195085771D01*
X233648628Y-195157200D01*
X233720057Y-195228628D01*
X233791485Y-195371485D01*
X233791485Y-195442914D01*
X233720057Y-195585771D01*
X233648628Y-195657200D01*
X233505771Y-195728628D01*
X233220057Y-195728628D01*
X233077200Y-195800057D01*
X233005771Y-195871485D01*
X232934342Y-196014342D01*
X232934342Y-196300057D01*
X233005771Y-196442914D01*
X233077200Y-196514342D01*
X233220057Y-196585771D01*
X233505771Y-196585771D01*
X233648628Y-196514342D01*
X233720057Y-196442914D01*
X233791485Y-196300057D01*
X233791485Y-196014342D01*
X233720057Y-195871485D01*
X233648628Y-195800057D01*
X233505771Y-195728628D01*
X234434342Y-196442914D02*
X234505771Y-196514342D01*
X234434342Y-196585771D01*
X234362914Y-196514342D01*
X234434342Y-196442914D01*
X234434342Y-196585771D01*
X235434342Y-195085771D02*
X235577200Y-195085771D01*
X235720057Y-195157200D01*
X235791485Y-195228628D01*
X235862914Y-195371485D01*
X235934342Y-195657200D01*
X235934342Y-196014342D01*
X235862914Y-196300057D01*
X235791485Y-196442914D01*
X235720057Y-196514342D01*
X235577200Y-196585771D01*
X235434342Y-196585771D01*
X235291485Y-196514342D01*
X235220057Y-196442914D01*
X235148628Y-196300057D01*
X235077200Y-196014342D01*
X235077200Y-195657200D01*
X235148628Y-195371485D01*
X235220057Y-195228628D01*
X235291485Y-195157200D01*
X235434342Y-195085771D01*
X237220057Y-195585771D02*
X237220057Y-196585771D01*
X236862914Y-195014342D02*
X236505771Y-196085771D01*
X237434342Y-196085771D01*
X238005771Y-196442914D02*
X238077199Y-196514342D01*
X238005771Y-196585771D01*
X237934342Y-196514342D01*
X238005771Y-196442914D01*
X238005771Y-196585771D01*
X239505771Y-196585771D02*
X238648628Y-196585771D01*
X239077200Y-196585771D02*
X239077200Y-195085771D01*
X238934342Y-195300057D01*
X238791485Y-195442914D01*
X238648628Y-195514342D01*
D10*
D11*
X177002200Y-191507200D02*
X285002200Y-191507200D01*
D10*
D12*
X264411485Y-193785771D02*
X263911485Y-193071485D01*
X263554342Y-193785771D02*
X263554342Y-192285771D01*
X264125771Y-192285771D01*
X264268628Y-192357200D01*
X264340057Y-192428628D01*
X264411485Y-192571485D01*
X264411485Y-192785771D01*
X264340057Y-192928628D01*
X264268628Y-193000057D01*
X264125771Y-193071485D01*
X263554342Y-193071485D01*
X265625771Y-193714342D02*
X265482914Y-193785771D01*
X265197200Y-193785771D01*
X265054342Y-193714342D01*
X264982914Y-193571485D01*
X264982914Y-193000057D01*
X265054342Y-192857200D01*
X265197200Y-192785771D01*
X265482914Y-192785771D01*
X265625771Y-192857200D01*
X265697200Y-193000057D01*
X265697200Y-193142914D01*
X264982914Y-193285771D01*
X266197200Y-192785771D02*
X266554342Y-193785771D01*
X266911485Y-192785771D01*
X267482914Y-193642914D02*
X267554342Y-193714342D01*
X267482914Y-193785771D01*
X267411485Y-193714342D01*
X267482914Y-193642914D01*
X267482914Y-193785771D01*
X267482914Y-192857200D02*
X267554342Y-192928628D01*
X267482914Y-193000057D01*
X267411485Y-192928628D01*
X267482914Y-192857200D01*
X267482914Y-193000057D01*
D10*
D11*
X178362914Y-193714342D02*
X178577200Y-193785771D01*
X178934342Y-193785771D01*
X179077200Y-193714342D01*
X179148628Y-193642914D01*
X179220057Y-193500057D01*
X179220057Y-193357200D01*
X179148628Y-193214342D01*
X179077200Y-193142914D01*
X178934342Y-193071485D01*
X178648628Y-193000057D01*
X178505771Y-192928628D01*
X178434342Y-192857200D01*
X178362914Y-192714342D01*
X178362914Y-192571485D01*
X178434342Y-192428628D01*
X178505771Y-192357200D01*
X178648628Y-192285771D01*
X179005771Y-192285771D01*
X179220057Y-192357200D01*
X179862914Y-193785771D02*
X179862914Y-192785771D01*
X179862914Y-192285771D02*
X179791485Y-192357200D01*
X179862914Y-192428628D01*
X179934342Y-192357200D01*
X179862914Y-192285771D01*
X179862914Y-192428628D01*
X180434342Y-192785771D02*
X181220057Y-192785771D01*
X180434342Y-193785771D01*
X181220057Y-193785771D01*
X182362914Y-193714342D02*
X182220057Y-193785771D01*
X181934342Y-193785771D01*
X181791485Y-193714342D01*
X181720057Y-193571485D01*
X181720057Y-193000057D01*
X181791485Y-192857200D01*
X181934342Y-192785771D01*
X182220057Y-192785771D01*
X182362914Y-192857200D01*
X182434342Y-193000057D01*
X182434342Y-193142914D01*
X181720057Y-193285771D01*
X183077200Y-193642914D02*
X183148628Y-193714342D01*
X183077200Y-193785771D01*
X183005771Y-193714342D01*
X183077200Y-193642914D01*
X183077200Y-193785771D01*
X183077200Y-192857200D02*
X183148628Y-192928628D01*
X183077200Y-193000057D01*
X183005771Y-192928628D01*
X183077200Y-192857200D01*
X183077200Y-193000057D01*
X184862914Y-193357200D02*
X185577200Y-193357200D01*
X184720057Y-193785771D02*
X185220057Y-192285771D01*
X185720057Y-193785771D01*
X186862914Y-192785771D02*
X186862914Y-193785771D01*
X186505771Y-192214342D02*
X186148628Y-193285771D01*
X187077200Y-193285771D01*
D10*
D11*
X263434342Y-196585771D02*
X263434342Y-195085771D01*
X264791485Y-196585771D02*
X264791485Y-195085771D01*
X264791485Y-196514342D02*
X264648628Y-196585771D01*
X264362914Y-196585771D01*
X264220057Y-196514342D01*
X264148628Y-196442914D01*
X264077200Y-196300057D01*
X264077200Y-195871485D01*
X264148628Y-195728628D01*
X264220057Y-195657200D01*
X264362914Y-195585771D01*
X264648628Y-195585771D01*
X264791485Y-195657200D01*
X265505771Y-196442914D02*
X265577200Y-196514342D01*
X265505771Y-196585771D01*
X265434342Y-196514342D01*
X265505771Y-196442914D01*
X265505771Y-196585771D01*
X265505771Y-195657200D02*
X265577200Y-195728628D01*
X265505771Y-195800057D01*
X265434342Y-195728628D01*
X265505771Y-195657200D01*
X265505771Y-195800057D01*
X268148628Y-196585771D02*
X267291485Y-196585771D01*
X267720057Y-196585771D02*
X267720057Y-195085771D01*
X267577200Y-195300057D01*
X267434342Y-195442914D01*
X267291485Y-195514342D01*
X269862914Y-195014342D02*
X268577200Y-196942914D01*
X271148628Y-196585771D02*
X270291485Y-196585771D01*
X270720057Y-196585771D02*
X270720057Y-195085771D01*
X270577200Y-195300057D01*
X270434342Y-195442914D01*
X270291485Y-195514342D01*
D10*
D11*
X177002200Y-187507200D02*
X285002200Y-187507200D01*
D10*
D13*
X178714580Y-188211961D02*
X179857438Y-188211961D01*
X179036009Y-190211961D02*
X179286009Y-188211961D01*
X180274104Y-190211961D02*
X180440771Y-188878628D01*
X180524104Y-188211961D02*
X180416961Y-188307200D01*
X180500295Y-188402438D01*
X180607438Y-188307200D01*
X180524104Y-188211961D01*
X180500295Y-188402438D01*
X181107438Y-188878628D02*
X181869342Y-188878628D01*
X181476485Y-188211961D02*
X181262200Y-189926247D01*
X181333628Y-190116723D01*
X181512200Y-190211961D01*
X181702676Y-190211961D01*
X182655057Y-190211961D02*
X182476485Y-190116723D01*
X182405057Y-189926247D01*
X182619342Y-188211961D01*
X184190771Y-190116723D02*
X183988390Y-190211961D01*
X183607438Y-190211961D01*
X183428866Y-190116723D01*
X183357438Y-189926247D01*
X183452676Y-189164342D01*
X183571723Y-188973866D01*
X183774104Y-188878628D01*
X184155057Y-188878628D01*
X184333628Y-188973866D01*
X184405057Y-189164342D01*
X184381247Y-189354819D01*
X183405057Y-189545295D01*
X185155057Y-190021485D02*
X185238390Y-190116723D01*
X185131247Y-190211961D01*
X185047914Y-190116723D01*
X185155057Y-190021485D01*
X185131247Y-190211961D01*
X185286009Y-188973866D02*
X185369342Y-189069104D01*
X185262200Y-189164342D01*
X185178866Y-189069104D01*
X185286009Y-188973866D01*
X185262200Y-189164342D01*
D10*
D11*
X178934342Y-185600057D02*
X178434342Y-185600057D01*
X178434342Y-186385771D02*
X178434342Y-184885771D01*
X179148628Y-184885771D01*
X179720057Y-186385771D02*
X179720057Y-185385771D01*
X179720057Y-184885771D02*
X179648628Y-184957200D01*
X179720057Y-185028628D01*
X179791485Y-184957200D01*
X179720057Y-184885771D01*
X179720057Y-185028628D01*
X180648628Y-186385771D02*
X180505771Y-186314342D01*
X180434342Y-186171485D01*
X180434342Y-184885771D01*
X181791485Y-186314342D02*
X181648628Y-186385771D01*
X181362914Y-186385771D01*
X181220057Y-186314342D01*
X181148628Y-186171485D01*
X181148628Y-185600057D01*
X181220057Y-185457200D01*
X181362914Y-185385771D01*
X181648628Y-185385771D01*
X181791485Y-185457200D01*
X181862914Y-185600057D01*
X181862914Y-185742914D01*
X181148628Y-185885771D01*
X182505771Y-186242914D02*
X182577200Y-186314342D01*
X182505771Y-186385771D01*
X182434342Y-186314342D01*
X182505771Y-186242914D01*
X182505771Y-186385771D01*
X182505771Y-185457200D02*
X182577200Y-185528628D01*
X182505771Y-185600057D01*
X182434342Y-185528628D01*
X182505771Y-185457200D01*
X182505771Y-185600057D01*
X185220057Y-186242914D02*
X185148628Y-186314342D01*
X184934342Y-186385771D01*
X184791485Y-186385771D01*
X184577200Y-186314342D01*
X184434342Y-186171485D01*
X184362914Y-186028628D01*
X184291485Y-185742914D01*
X184291485Y-185528628D01*
X184362914Y-185242914D01*
X184434342Y-185100057D01*
X184577200Y-184957200D01*
X184791485Y-184885771D01*
X184934342Y-184885771D01*
X185148628Y-184957200D01*
X185220057Y-185028628D01*
X186077200Y-186385771D02*
X185934342Y-186314342D01*
X185862914Y-186242914D01*
X185791485Y-186100057D01*
X185791485Y-185671485D01*
X185862914Y-185528628D01*
X185934342Y-185457200D01*
X186077200Y-185385771D01*
X186291485Y-185385771D01*
X186434342Y-185457200D01*
X186505771Y-185528628D01*
X186577200Y-185671485D01*
X186577200Y-186100057D01*
X186505771Y-186242914D01*
X186434342Y-186314342D01*
X186291485Y-186385771D01*
X186077200Y-186385771D01*
X187220057Y-186385771D02*
X187220057Y-185385771D01*
X187220057Y-185528628D02*
X187291485Y-185457200D01*
X187434342Y-185385771D01*
X187648628Y-185385771D01*
X187791485Y-185457200D01*
X187862914Y-185600057D01*
X187862914Y-186385771D01*
X187862914Y-185600057D02*
X187934342Y-185457200D01*
X188077200Y-185385771D01*
X188291485Y-185385771D01*
X188434342Y-185457200D01*
X188505771Y-185600057D01*
X188505771Y-186385771D01*
X189220057Y-186385771D02*
X189220057Y-184885771D01*
X189220057Y-185457200D02*
X189362914Y-185385771D01*
X189648628Y-185385771D01*
X189791485Y-185457200D01*
X189862914Y-185528628D01*
X189934342Y-185671485D01*
X189934342Y-186100057D01*
X189862914Y-186242914D01*
X189791485Y-186314342D01*
X189648628Y-186385771D01*
X189362914Y-186385771D01*
X189220057Y-186314342D01*
X190577200Y-186385771D02*
X190577200Y-185385771D01*
X190577200Y-184885771D02*
X190505771Y-184957200D01*
X190577200Y-185028628D01*
X190648628Y-184957200D01*
X190577200Y-184885771D01*
X190577200Y-185028628D01*
X191291485Y-185385771D02*
X191291485Y-186385771D01*
X191291485Y-185528628D02*
X191362914Y-185457200D01*
X191505771Y-185385771D01*
X191720057Y-185385771D01*
X191862914Y-185457200D01*
X191934342Y-185600057D01*
X191934342Y-186385771D01*
X193220057Y-186314342D02*
X193077200Y-186385771D01*
X192791485Y-186385771D01*
X192648628Y-186314342D01*
X192577200Y-186171485D01*
X192577200Y-185600057D01*
X192648628Y-185457200D01*
X192791485Y-185385771D01*
X193077200Y-185385771D01*
X193220057Y-185457200D01*
X193291485Y-185600057D01*
X193291485Y-185742914D01*
X192577200Y-185885771D01*
X194577200Y-186385771D02*
X194577200Y-184885771D01*
X194577200Y-186314342D02*
X194434342Y-186385771D01*
X194148628Y-186385771D01*
X194005771Y-186314342D01*
X193934342Y-186242914D01*
X193862914Y-186100057D01*
X193862914Y-185671485D01*
X193934342Y-185528628D01*
X194005771Y-185457200D01*
X194148628Y-185385771D01*
X194434342Y-185385771D01*
X194577200Y-185457200D01*
X195291485Y-186385771D02*
X195291485Y-184885771D01*
X195862914Y-184885771D01*
X196005771Y-184957200D01*
X196077200Y-185028628D01*
X196148628Y-185171485D01*
X196148628Y-185385771D01*
X196077200Y-185528628D01*
X196005771Y-185600057D01*
X195862914Y-185671485D01*
X195291485Y-185671485D01*
X197648628Y-186242914D02*
X197577200Y-186314342D01*
X197362914Y-186385771D01*
X197220057Y-186385771D01*
X197005771Y-186314342D01*
X196862914Y-186171485D01*
X196791485Y-186028628D01*
X196720057Y-185742914D01*
X196720057Y-185528628D01*
X196791485Y-185242914D01*
X196862914Y-185100057D01*
X197005771Y-184957200D01*
X197220057Y-184885771D01*
X197362914Y-184885771D01*
X197577200Y-184957200D01*
X197648628Y-185028628D01*
X198791485Y-185600057D02*
X199005771Y-185671485D01*
X199077200Y-185742914D01*
X199148628Y-185885771D01*
X199148628Y-186100057D01*
X199077200Y-186242914D01*
X199005771Y-186314342D01*
X198862914Y-186385771D01*
X198291485Y-186385771D01*
X198291485Y-184885771D01*
X198791485Y-184885771D01*
X198934342Y-184957200D01*
X199005771Y-185028628D01*
X199077200Y-185171485D01*
X199077200Y-185314342D01*
X199005771Y-185457200D01*
X198934342Y-185528628D01*
X198791485Y-185600057D01*
X198291485Y-185600057D01*
X199791485Y-186242914D02*
X199862914Y-186314342D01*
X199791485Y-186385771D01*
X199720057Y-186314342D01*
X199791485Y-186242914D01*
X199791485Y-186385771D01*
X200505771Y-186385771D02*
X200505771Y-184885771D01*
X200648628Y-185814342D02*
X201077200Y-186385771D01*
X201077200Y-185385771D02*
X200505771Y-185957200D01*
X201720057Y-186385771D02*
X201720057Y-185385771D01*
X201720057Y-184885771D02*
X201648628Y-184957200D01*
X201720057Y-185028628D01*
X201791485Y-184957200D01*
X201720057Y-184885771D01*
X201720057Y-185028628D01*
X203077200Y-186314342D02*
X202934342Y-186385771D01*
X202648628Y-186385771D01*
X202505771Y-186314342D01*
X202434342Y-186242914D01*
X202362914Y-186100057D01*
X202362914Y-185671485D01*
X202434342Y-185528628D01*
X202505771Y-185457200D01*
X202648628Y-185385771D01*
X202934342Y-185385771D01*
X203077200Y-185457200D01*
X204362914Y-186385771D02*
X204362914Y-185600057D01*
X204291485Y-185457200D01*
X204148628Y-185385771D01*
X203862914Y-185385771D01*
X203720057Y-185457200D01*
X204362914Y-186314342D02*
X204220057Y-186385771D01*
X203862914Y-186385771D01*
X203720057Y-186314342D01*
X203648628Y-186171485D01*
X203648628Y-186028628D01*
X203720057Y-185885771D01*
X203862914Y-185814342D01*
X204220057Y-185814342D01*
X204362914Y-185742914D01*
X205720057Y-186385771D02*
X205720057Y-184885771D01*
X205720057Y-186314342D02*
X205577200Y-186385771D01*
X205291485Y-186385771D01*
X205148628Y-186314342D01*
X205077200Y-186242914D01*
X205005771Y-186100057D01*
X205005771Y-185671485D01*
X205077200Y-185528628D01*
X205148628Y-185457200D01*
X205291485Y-185385771D01*
X205577200Y-185385771D01*
X205720057Y-185457200D01*
X206077200Y-186528628D02*
X207220057Y-186528628D01*
X207577200Y-185385771D02*
X207577200Y-186885771D01*
X207577200Y-185457200D02*
X207720057Y-185385771D01*
X208005771Y-185385771D01*
X208148628Y-185457200D01*
X208220057Y-185528628D01*
X208291485Y-185671485D01*
X208291485Y-186100057D01*
X208220057Y-186242914D01*
X208148628Y-186314342D01*
X208005771Y-186385771D01*
X207720057Y-186385771D01*
X207577200Y-186314342D01*
X209577200Y-186314342D02*
X209434342Y-186385771D01*
X209148628Y-186385771D01*
X209005771Y-186314342D01*
X208934342Y-186242914D01*
X208862914Y-186100057D01*
X208862914Y-185671485D01*
X208934342Y-185528628D01*
X209005771Y-185457200D01*
X209148628Y-185385771D01*
X209434342Y-185385771D01*
X209577200Y-185457200D01*
X210220057Y-186385771D02*
X210220057Y-184885771D01*
X210220057Y-185457200D02*
X210362914Y-185385771D01*
X210648628Y-185385771D01*
X210791485Y-185457200D01*
X210862914Y-185528628D01*
X210934342Y-185671485D01*
X210934342Y-186100057D01*
X210862914Y-186242914D01*
X210791485Y-186314342D01*
X210648628Y-186385771D01*
X210362914Y-186385771D01*
X210220057Y-186314342D01*
D10*
D11*
X177002200Y-181507200D02*
X285002200Y-181507200D01*
D10*
D11*
X178362914Y-183614342D02*
X178577200Y-183685771D01*
X178934342Y-183685771D01*
X179077200Y-183614342D01*
X179148628Y-183542914D01*
X179220057Y-183400057D01*
X179220057Y-183257200D01*
X179148628Y-183114342D01*
X179077200Y-183042914D01*
X178934342Y-182971485D01*
X178648628Y-182900057D01*
X178505771Y-182828628D01*
X178434342Y-182757200D01*
X178362914Y-182614342D01*
X178362914Y-182471485D01*
X178434342Y-182328628D01*
X178505771Y-182257200D01*
X178648628Y-182185771D01*
X179005771Y-182185771D01*
X179220057Y-182257200D01*
X179862914Y-183685771D02*
X179862914Y-182185771D01*
X180505771Y-183685771D02*
X180505771Y-182900057D01*
X180434342Y-182757200D01*
X180291485Y-182685771D01*
X180077200Y-182685771D01*
X179934342Y-182757200D01*
X179862914Y-182828628D01*
X181791485Y-183614342D02*
X181648628Y-183685771D01*
X181362914Y-183685771D01*
X181220057Y-183614342D01*
X181148628Y-183471485D01*
X181148628Y-182900057D01*
X181220057Y-182757200D01*
X181362914Y-182685771D01*
X181648628Y-182685771D01*
X181791485Y-182757200D01*
X181862914Y-182900057D01*
X181862914Y-183042914D01*
X181148628Y-183185771D01*
X183077200Y-183614342D02*
X182934342Y-183685771D01*
X182648628Y-183685771D01*
X182505771Y-183614342D01*
X182434342Y-183471485D01*
X182434342Y-182900057D01*
X182505771Y-182757200D01*
X182648628Y-182685771D01*
X182934342Y-182685771D01*
X183077200Y-182757200D01*
X183148628Y-182900057D01*
X183148628Y-183042914D01*
X182434342Y-183185771D01*
X183577200Y-182685771D02*
X184148628Y-182685771D01*
X183791485Y-182185771D02*
X183791485Y-183471485D01*
X183862914Y-183614342D01*
X184005771Y-183685771D01*
X184148628Y-183685771D01*
X184648628Y-183542914D02*
X184720057Y-183614342D01*
X184648628Y-183685771D01*
X184577200Y-183614342D01*
X184648628Y-183542914D01*
X184648628Y-183685771D01*
X184648628Y-182757200D02*
X184720057Y-182828628D01*
X184648628Y-182900057D01*
X184577200Y-182828628D01*
X184648628Y-182757200D01*
X184648628Y-182900057D01*
D10*
D11*
X197002200Y-191507200D02*
X197002200Y-194507200D01*
D10*
D11*
X261002200Y-191507200D02*
X261002200Y-198007200D01*
D14*
X134500000Y-107500000D02*
X134750000Y-105250000D01*
X136250000Y-107500000D02*
X134500000Y-107500000D01*
X134000000Y-111000000D02*
X136250000Y-107500000D01*
X134500000Y-108500000D02*
X134000000Y-111000000D01*
X133000000Y-108500000D02*
X134500000Y-108500000D01*
X134750000Y-105250000D02*
X133000000Y-108500000D01*
X127496404Y-111519582D02*
G75*
G02X126300000Y-111499999I-596405J119582D01*
G01*
X127500000Y-108000000D02*
X127750000Y-108000000D01*
X126950000Y-105500000D02*
X128050000Y-105500000D01*
X127500000Y-108000000D02*
X127500000Y-104500000D01*
X127500000Y-111250000D02*
X127500000Y-111500000D01*
X127500000Y-109000000D02*
X127500000Y-111250000D01*
X128650000Y-106000000D02*
X128650000Y-108000000D01*
X128650000Y-109000000D02*
X128650000Y-111000000D01*
X129714285Y-111057142D02*
X129714285Y-109057142D01*
X129714285Y-109342857D02*
X129857142Y-109200000D01*
X130142857Y-109057142D01*
X130571428Y-109057142D01*
X130857142Y-109200000D01*
X131000000Y-109485714D01*
X131000000Y-111057142D01*
X131000000Y-109485714D02*
X131142857Y-109200000D01*
X131428571Y-109057142D01*
X131857142Y-109057142D01*
X132142857Y-109200000D01*
X132285714Y-109485714D01*
X132285714Y-111057142D01*
X129714285Y-108057142D02*
X129714285Y-106057142D01*
X129714285Y-106342857D02*
X129857142Y-106200000D01*
X130142857Y-106057142D01*
X130571428Y-106057142D01*
X130857142Y-106200000D01*
X131000000Y-106485714D01*
X131000000Y-108057142D01*
X131000000Y-106485714D02*
X131142857Y-106200000D01*
X131428571Y-106057142D01*
X131857142Y-106057142D01*
X132142857Y-106200000D01*
X132285714Y-106485714D01*
X132285714Y-108057142D01*
X125357142Y-107964285D02*
X125642857Y-108107142D01*
X126214285Y-108107142D01*
X126500000Y-107964285D01*
X126642857Y-107678571D01*
X126642857Y-107535714D01*
X126500000Y-107250000D01*
X126214285Y-107107142D01*
X125785714Y-107107142D01*
X125500000Y-106964285D01*
X125357142Y-106678571D01*
X125357142Y-106535714D01*
X125500000Y-106250000D01*
X125785714Y-106107142D01*
X126214285Y-106107142D01*
X126500000Y-106250000D01*
D15*
X131216228Y-76050000D02*
G75*
G03X131216228Y-76050000I-316228J0D01*
G01*
X121000000Y-76050000D02*
G75*
G03X121000000Y-76050000I-400000J0D01*
G01*
X127400000Y-93750000D02*
G75*
G03X127400000Y-93750000I-400000J0D01*
G01*
X114800000Y-93650000D02*
G75*
G03X114800000Y-93650000I-300000J0D01*
G01*
X70460555Y-93650000D02*
G75*
G03X70460555Y-93650000I-360555J0D01*
G01*
X82147214Y-93450000D02*
G75*
G03X82147214Y-93450000I-447214J0D01*
G01*
X75840312Y-76050000D02*
G75*
G03X75840312Y-76050000I-640312J0D01*
G01*
X86323607Y-75950000D02*
G75*
G03X86323607Y-75950000I-223607J0D01*
G01*
X104060555Y-70150000D02*
G75*
G03X104060555Y-70150000I-360555J0D01*
G01*
X93682843Y-59850000D02*
G75*
G03X93682843Y-59850000I-282843J0D01*
G01*
X73016228Y-62050000D02*
G75*
G03X73016228Y-62050000I-316228J0D01*
G01*
X79660555Y-61950000D02*
G75*
G03X79660555Y-61950000I-360555J0D01*
G01*
X109132777Y-82277306D02*
G75*
G03X109132777Y-82277306I-223607J0D01*
G01*
X147052512Y-70405524D02*
G75*
G03X147052512Y-70405524I-223607J0D01*
G01*
X148780932Y-63402002D02*
G75*
G03X148780932Y-63402002I-223607J0D01*
G01*
X90223607Y-95450000D02*
G75*
G03X90223607Y-95450000I-223607J0D01*
G01*
X112241421Y-102050000D02*
G75*
G03X112241421Y-102050000I-141421J0D01*
G01*
X124302135Y-61957936D02*
G75*
G03X124302135Y-61957936I-223607J0D01*
G01*
X117702135Y-61857936D02*
G75*
G03X117702135Y-61857936I-223607J0D01*
G01*
X113723607Y-102050000D02*
G75*
G03X113723607Y-102050000I-223607J0D01*
G01*
X115382843Y-102050000D02*
G75*
G03X115382843Y-102050000I-282843J0D01*
G01*
X104323607Y-63450000D02*
G75*
G03X104323607Y-63450000I-223607J0D01*
G01*
D16*
X139750000Y-106285714D02*
X139988095Y-106952380D01*
X140226190Y-106285714D01*
X140797619Y-105952380D02*
X140892857Y-105952380D01*
X140988095Y-106000000D01*
X141035714Y-106047619D01*
X141083333Y-106142857D01*
X141130952Y-106333333D01*
X141130952Y-106571428D01*
X141083333Y-106761904D01*
X141035714Y-106857142D01*
X140988095Y-106904761D01*
X140892857Y-106952380D01*
X140797619Y-106952380D01*
X140702380Y-106904761D01*
X140654761Y-106857142D01*
X140607142Y-106761904D01*
X140559523Y-106571428D01*
X140559523Y-106333333D01*
X140607142Y-106142857D01*
X140654761Y-106047619D01*
X140702380Y-106000000D01*
X140797619Y-105952380D01*
X141559523Y-106857142D02*
X141607142Y-106904761D01*
X141559523Y-106952380D01*
X141511904Y-106904761D01*
X141559523Y-106857142D01*
X141559523Y-106952380D01*
X142559523Y-106952380D02*
X141988095Y-106952380D01*
X142273809Y-106952380D02*
X142273809Y-105952380D01*
X142178571Y-106095238D01*
X142083333Y-106190476D01*
X141988095Y-106238095D01*
X143416666Y-105952380D02*
X143226190Y-105952380D01*
X143130952Y-106000000D01*
X143083333Y-106047619D01*
X142988095Y-106190476D01*
X142940476Y-106380952D01*
X142940476Y-106761904D01*
X142988095Y-106857142D01*
X143035714Y-106904761D01*
X143130952Y-106952380D01*
X143321428Y-106952380D01*
X143416666Y-106904761D01*
X143464285Y-106857142D01*
X143511904Y-106761904D01*
X143511904Y-106523809D01*
X143464285Y-106428571D01*
X143416666Y-106380952D01*
X143321428Y-106333333D01*
X143130952Y-106333333D01*
X143035714Y-106380952D01*
X142988095Y-106428571D01*
X142940476Y-106523809D01*
X144702380Y-106952380D02*
X144702380Y-105952380D01*
X144702380Y-106333333D02*
X144797619Y-106285714D01*
X144988095Y-106285714D01*
X145083333Y-106333333D01*
X145130952Y-106380952D01*
X145178571Y-106476190D01*
X145178571Y-106761904D01*
X145130952Y-106857142D01*
X145083333Y-106904761D01*
X144988095Y-106952380D01*
X144797619Y-106952380D01*
X144702380Y-106904761D01*
X145511904Y-106285714D02*
X145750000Y-106952380D01*
X145988095Y-106285714D02*
X145750000Y-106952380D01*
X145654761Y-107190476D01*
X145607142Y-107238095D01*
X145511904Y-107285714D01*
X137416666Y-108035714D02*
X137416666Y-108702380D01*
X137416666Y-108130952D02*
X137464285Y-108083333D01*
X137559523Y-108035714D01*
X137702380Y-108035714D01*
X137797619Y-108083333D01*
X137845238Y-108178571D01*
X137845238Y-108702380D01*
X138750000Y-108702380D02*
X138750000Y-108178571D01*
X138702380Y-108083333D01*
X138607142Y-108035714D01*
X138416666Y-108035714D01*
X138321428Y-108083333D01*
X138750000Y-108654761D02*
X138654761Y-108702380D01*
X138416666Y-108702380D01*
X138321428Y-108654761D01*
X138273809Y-108559523D01*
X138273809Y-108464285D01*
X138321428Y-108369047D01*
X138416666Y-108321428D01*
X138654761Y-108321428D01*
X138750000Y-108273809D01*
X139083333Y-108035714D02*
X139464285Y-108035714D01*
X139226190Y-107702380D02*
X139226190Y-108559523D01*
X139273809Y-108654761D01*
X139369047Y-108702380D01*
X139464285Y-108702380D01*
X140178571Y-108654761D02*
X140083333Y-108702380D01*
X139892857Y-108702380D01*
X139797619Y-108654761D01*
X139750000Y-108559523D01*
X139750000Y-108178571D01*
X139797619Y-108083333D01*
X139892857Y-108035714D01*
X140083333Y-108035714D01*
X140178571Y-108083333D01*
X140226190Y-108178571D01*
X140226190Y-108273809D01*
X139750000Y-108369047D01*
X141845238Y-108654761D02*
X141750000Y-108702380D01*
X141559523Y-108702380D01*
X141464285Y-108654761D01*
X141416666Y-108607142D01*
X141369047Y-108511904D01*
X141369047Y-108226190D01*
X141416666Y-108130952D01*
X141464285Y-108083333D01*
X141559523Y-108035714D01*
X141750000Y-108035714D01*
X141845238Y-108083333D01*
X142654761Y-108654761D02*
X142559523Y-108702380D01*
X142369047Y-108702380D01*
X142273809Y-108654761D01*
X142226190Y-108559523D01*
X142226190Y-108178571D01*
X142273809Y-108083333D01*
X142369047Y-108035714D01*
X142559523Y-108035714D01*
X142654761Y-108083333D01*
X142702380Y-108178571D01*
X142702380Y-108273809D01*
X142226190Y-108369047D01*
X143130952Y-108702380D02*
X143130952Y-108035714D01*
X143130952Y-108226190D02*
X143178571Y-108130952D01*
X143226190Y-108083333D01*
X143321428Y-108035714D01*
X143416666Y-108035714D01*
X143750000Y-108702380D02*
X143750000Y-108035714D01*
X143750000Y-108130952D02*
X143797619Y-108083333D01*
X143892857Y-108035714D01*
X144035714Y-108035714D01*
X144130952Y-108083333D01*
X144178571Y-108178571D01*
X144178571Y-108702380D01*
X144178571Y-108178571D02*
X144226190Y-108083333D01*
X144321428Y-108035714D01*
X144464285Y-108035714D01*
X144559523Y-108083333D01*
X144607142Y-108178571D01*
X144607142Y-108702380D01*
X145511904Y-108702380D02*
X145511904Y-108178571D01*
X145464285Y-108083333D01*
X145369047Y-108035714D01*
X145178571Y-108035714D01*
X145083333Y-108083333D01*
X145511904Y-108654761D02*
X145416666Y-108702380D01*
X145178571Y-108702380D01*
X145083333Y-108654761D01*
X145035714Y-108559523D01*
X145035714Y-108464285D01*
X145083333Y-108369047D01*
X145178571Y-108321428D01*
X145416666Y-108321428D01*
X145511904Y-108273809D01*
X145988095Y-108702380D02*
X145988095Y-107702380D01*
X146083333Y-108321428D02*
X146369047Y-108702380D01*
X146369047Y-108035714D02*
X145988095Y-108416666D01*
X148369047Y-108702380D02*
X148321428Y-108702380D01*
X148226190Y-108654761D01*
X148083333Y-108511904D01*
X147845238Y-108226190D01*
X147750000Y-108083333D01*
X147702380Y-107940476D01*
X147702380Y-107845238D01*
X147750000Y-107750000D01*
X147845238Y-107702380D01*
X147892857Y-107702380D01*
X147988095Y-107750000D01*
X148035714Y-107845238D01*
X148035714Y-107892857D01*
X147988095Y-107988095D01*
X147940476Y-108035714D01*
X147654761Y-108226190D01*
X147607142Y-108273809D01*
X147559523Y-108369047D01*
X147559523Y-108511904D01*
X147607142Y-108607142D01*
X147654761Y-108654761D01*
X147750000Y-108702380D01*
X147892857Y-108702380D01*
X147988095Y-108654761D01*
X148035714Y-108607142D01*
X148178571Y-108416666D01*
X148226190Y-108273809D01*
X148226190Y-108178571D01*
X138988095Y-109785714D02*
X138988095Y-110642857D01*
X138940476Y-110738095D01*
X138845238Y-110785714D01*
X138797619Y-110785714D01*
X138988095Y-109452380D02*
X138940476Y-109500000D01*
X138988095Y-109547619D01*
X139035714Y-109500000D01*
X138988095Y-109452380D01*
X138988095Y-109547619D01*
X139607142Y-110452380D02*
X139511904Y-110404761D01*
X139464285Y-110357142D01*
X139416666Y-110261904D01*
X139416666Y-109976190D01*
X139464285Y-109880952D01*
X139511904Y-109833333D01*
X139607142Y-109785714D01*
X139750000Y-109785714D01*
X139845238Y-109833333D01*
X139892857Y-109880952D01*
X139940476Y-109976190D01*
X139940476Y-110261904D01*
X139892857Y-110357142D01*
X139845238Y-110404761D01*
X139750000Y-110452380D01*
X139607142Y-110452380D01*
X140369047Y-109785714D02*
X140369047Y-110452380D01*
X140369047Y-109880952D02*
X140416666Y-109833333D01*
X140511904Y-109785714D01*
X140654761Y-109785714D01*
X140750000Y-109833333D01*
X140797619Y-109928571D01*
X140797619Y-110452380D01*
X142035714Y-109785714D02*
X142035714Y-110452380D01*
X142035714Y-109880952D02*
X142083333Y-109833333D01*
X142178571Y-109785714D01*
X142321428Y-109785714D01*
X142416666Y-109833333D01*
X142464285Y-109928571D01*
X142464285Y-110452380D01*
X143321428Y-110404761D02*
X143226190Y-110452380D01*
X143035714Y-110452380D01*
X142940476Y-110404761D01*
X142892857Y-110309523D01*
X142892857Y-109928571D01*
X142940476Y-109833333D01*
X143035714Y-109785714D01*
X143226190Y-109785714D01*
X143321428Y-109833333D01*
X143369047Y-109928571D01*
X143369047Y-110023809D01*
X142892857Y-110119047D01*
X143702380Y-109785714D02*
X143892857Y-110452380D01*
X144083333Y-109976190D01*
X144273809Y-110452380D01*
X144464285Y-109785714D01*
X144845238Y-110452380D02*
X144845238Y-109785714D01*
X144845238Y-109880952D02*
X144892857Y-109833333D01*
X144988095Y-109785714D01*
X145130952Y-109785714D01*
X145226190Y-109833333D01*
X145273809Y-109928571D01*
X145273809Y-110452380D01*
X145273809Y-109928571D02*
X145321428Y-109833333D01*
X145416666Y-109785714D01*
X145559523Y-109785714D01*
X145654761Y-109833333D01*
X145702380Y-109928571D01*
X145702380Y-110452380D01*
X146607142Y-110452380D02*
X146607142Y-109928571D01*
X146559523Y-109833333D01*
X146464285Y-109785714D01*
X146273809Y-109785714D01*
X146178571Y-109833333D01*
X146607142Y-110404761D02*
X146511904Y-110452380D01*
X146273809Y-110452380D01*
X146178571Y-110404761D01*
X146130952Y-110309523D01*
X146130952Y-110214285D01*
X146178571Y-110119047D01*
X146273809Y-110071428D01*
X146511904Y-110071428D01*
X146607142Y-110023809D01*
X147083333Y-109785714D02*
X147083333Y-110452380D01*
X147083333Y-109880952D02*
X147130952Y-109833333D01*
X147226190Y-109785714D01*
X147369047Y-109785714D01*
X147464285Y-109833333D01*
X147511904Y-109928571D01*
X147511904Y-110452380D01*
X281595238Y-57035714D02*
X281833333Y-57702380D01*
X282071428Y-57035714D01*
X282642857Y-56702380D02*
X282738095Y-56702380D01*
X282833333Y-56750000D01*
X282880952Y-56797619D01*
X282928571Y-56892857D01*
X282976190Y-57083333D01*
X282976190Y-57321428D01*
X282928571Y-57511904D01*
X282880952Y-57607142D01*
X282833333Y-57654761D01*
X282738095Y-57702380D01*
X282642857Y-57702380D01*
X282547619Y-57654761D01*
X282500000Y-57607142D01*
X282452380Y-57511904D01*
X282404761Y-57321428D01*
X282404761Y-57083333D01*
X282452380Y-56892857D01*
X282500000Y-56797619D01*
X282547619Y-56750000D01*
X282642857Y-56702380D01*
X283404761Y-57607142D02*
X283452380Y-57654761D01*
X283404761Y-57702380D01*
X283357142Y-57654761D01*
X283404761Y-57607142D01*
X283404761Y-57702380D01*
X284404761Y-57702380D02*
X283833333Y-57702380D01*
X284119047Y-57702380D02*
X284119047Y-56702380D01*
X284023809Y-56845238D01*
X283928571Y-56940476D01*
X283833333Y-56988095D01*
X285261904Y-56702380D02*
X285071428Y-56702380D01*
X284976190Y-56750000D01*
X284928571Y-56797619D01*
X284833333Y-56940476D01*
X284785714Y-57130952D01*
X284785714Y-57511904D01*
X284833333Y-57607142D01*
X284880952Y-57654761D01*
X284976190Y-57702380D01*
X285166666Y-57702380D01*
X285261904Y-57654761D01*
X285309523Y-57607142D01*
X285357142Y-57511904D01*
X285357142Y-57273809D01*
X285309523Y-57178571D01*
X285261904Y-57130952D01*
X285166666Y-57083333D01*
X284976190Y-57083333D01*
X284880952Y-57130952D01*
X284833333Y-57178571D01*
X284785714Y-57273809D01*
D14*
X275214285Y-57557142D02*
X275214285Y-55557142D01*
X275214285Y-55842857D02*
X275357142Y-55700000D01*
X275642857Y-55557142D01*
X276071428Y-55557142D01*
X276357142Y-55700000D01*
X276500000Y-55985714D01*
X276500000Y-57557142D01*
X276500000Y-55985714D02*
X276642857Y-55700000D01*
X276928571Y-55557142D01*
X277357142Y-55557142D01*
X277642857Y-55700000D01*
X277785714Y-55985714D01*
X277785714Y-57557142D01*
X278500000Y-55000000D02*
X280000000Y-55000000D01*
X280250000Y-51750000D02*
X278500000Y-55000000D01*
X272996404Y-58019582D02*
G75*
G02X271800000Y-57999999I-596405J119582D01*
G01*
X280000000Y-54000000D02*
X280250000Y-51750000D01*
X281750000Y-54000000D02*
X280000000Y-54000000D01*
X279500000Y-57500000D02*
X281750000Y-54000000D01*
X280000000Y-55000000D02*
X279500000Y-57500000D01*
X270857142Y-54464285D02*
X271142857Y-54607142D01*
X271714285Y-54607142D01*
X272000000Y-54464285D01*
X272142857Y-54178571D01*
X272142857Y-54035714D01*
X272000000Y-53750000D01*
X271714285Y-53607142D01*
X271285714Y-53607142D01*
X271000000Y-53464285D01*
X270857142Y-53178571D01*
X270857142Y-53035714D01*
X271000000Y-52750000D01*
X271285714Y-52607142D01*
X271714285Y-52607142D01*
X272000000Y-52750000D01*
X274150000Y-52500000D02*
X274150000Y-54500000D01*
X274150000Y-55500000D02*
X274150000Y-57500000D01*
X273000000Y-57750000D02*
X273000000Y-58000000D01*
X275214285Y-54557142D02*
X275214285Y-52557142D01*
X275214285Y-52842857D02*
X275357142Y-52700000D01*
X275642857Y-52557142D01*
X276071428Y-52557142D01*
X276357142Y-52700000D01*
X276500000Y-52985714D01*
X276500000Y-54557142D01*
X276500000Y-52985714D02*
X276642857Y-52700000D01*
X276928571Y-52557142D01*
X277357142Y-52557142D01*
X277642857Y-52700000D01*
X277785714Y-52985714D01*
X277785714Y-54557142D01*
X273000000Y-54500000D02*
X273000000Y-51000000D01*
X273000000Y-55500000D02*
X273000000Y-57750000D01*
X272450000Y-52000000D02*
X273550000Y-52000000D01*
X273000000Y-54500000D02*
X273250000Y-54500000D01*
X232214285Y-79807142D02*
X232214285Y-77807142D01*
X232214285Y-78092857D02*
X232357142Y-77950000D01*
X232642857Y-77807142D01*
X233071428Y-77807142D01*
X233357142Y-77950000D01*
X233500000Y-78235714D01*
X233500000Y-79807142D01*
X233500000Y-78235714D02*
X233642857Y-77950000D01*
X233928571Y-77807142D01*
X234357142Y-77807142D01*
X234642857Y-77950000D01*
X234785714Y-78235714D01*
X234785714Y-79807142D01*
D16*
X238595238Y-79285714D02*
X238833333Y-79952380D01*
X239071428Y-79285714D01*
X239642857Y-78952380D02*
X239738095Y-78952380D01*
X239833333Y-79000000D01*
X239880952Y-79047619D01*
X239928571Y-79142857D01*
X239976190Y-79333333D01*
X239976190Y-79571428D01*
X239928571Y-79761904D01*
X239880952Y-79857142D01*
X239833333Y-79904761D01*
X239738095Y-79952380D01*
X239642857Y-79952380D01*
X239547619Y-79904761D01*
X239500000Y-79857142D01*
X239452380Y-79761904D01*
X239404761Y-79571428D01*
X239404761Y-79333333D01*
X239452380Y-79142857D01*
X239500000Y-79047619D01*
X239547619Y-79000000D01*
X239642857Y-78952380D01*
X240404761Y-79857142D02*
X240452380Y-79904761D01*
X240404761Y-79952380D01*
X240357142Y-79904761D01*
X240404761Y-79857142D01*
X240404761Y-79952380D01*
X241404761Y-79952380D02*
X240833333Y-79952380D01*
X241119047Y-79952380D02*
X241119047Y-78952380D01*
X241023809Y-79095238D01*
X240928571Y-79190476D01*
X240833333Y-79238095D01*
X242261904Y-78952380D02*
X242071428Y-78952380D01*
X241976190Y-79000000D01*
X241928571Y-79047619D01*
X241833333Y-79190476D01*
X241785714Y-79380952D01*
X241785714Y-79761904D01*
X241833333Y-79857142D01*
X241880952Y-79904761D01*
X241976190Y-79952380D01*
X242166666Y-79952380D01*
X242261904Y-79904761D01*
X242309523Y-79857142D01*
X242357142Y-79761904D01*
X242357142Y-79523809D01*
X242309523Y-79428571D01*
X242261904Y-79380952D01*
X242166666Y-79333333D01*
X241976190Y-79333333D01*
X241880952Y-79380952D01*
X241833333Y-79428571D01*
X241785714Y-79523809D01*
D14*
X227857142Y-76714285D02*
X228142857Y-76857142D01*
X228714285Y-76857142D01*
X229000000Y-76714285D01*
X229142857Y-76428571D01*
X229142857Y-76285714D01*
X229000000Y-76000000D01*
X228714285Y-75857142D01*
X228285714Y-75857142D01*
X228000000Y-75714285D01*
X227857142Y-75428571D01*
X227857142Y-75285714D01*
X228000000Y-75000000D01*
X228285714Y-74857142D01*
X228714285Y-74857142D01*
X229000000Y-75000000D01*
X232214285Y-76807142D02*
X232214285Y-74807142D01*
X232214285Y-75092857D02*
X232357142Y-74950000D01*
X232642857Y-74807142D01*
X233071428Y-74807142D01*
X233357142Y-74950000D01*
X233500000Y-75235714D01*
X233500000Y-76807142D01*
X233500000Y-75235714D02*
X233642857Y-74950000D01*
X233928571Y-74807142D01*
X234357142Y-74807142D01*
X234642857Y-74950000D01*
X234785714Y-75235714D01*
X234785714Y-76807142D01*
X231150000Y-77750000D02*
X231150000Y-79750000D01*
X231150000Y-74750000D02*
X231150000Y-76750000D01*
X230000000Y-77750000D02*
X230000000Y-80000000D01*
X230000000Y-80000000D02*
X230000000Y-80250000D01*
X230000000Y-76750000D02*
X230000000Y-73250000D01*
X229450000Y-74250000D02*
X230550000Y-74250000D01*
X230000000Y-76750000D02*
X230250000Y-76750000D01*
X229996404Y-80269582D02*
G75*
G02X228800000Y-80249999I-596405J119582D01*
G01*
X237250000Y-74000000D02*
X235500000Y-77250000D01*
X235500000Y-77250000D02*
X237000000Y-77250000D01*
X237000000Y-77250000D02*
X236500000Y-79750000D01*
X236500000Y-79750000D02*
X238750000Y-76250000D01*
X238750000Y-76250000D02*
X237000000Y-76250000D01*
X237000000Y-76250000D02*
X237250000Y-74000000D01*
D15*
X239750000Y-99250000D02*
X241250000Y-97750000D01*
X214500000Y-99250000D02*
X239750000Y-99250000D01*
X213000000Y-97750000D02*
X214500000Y-99250000D01*
X198000000Y-99750000D02*
X199500000Y-98250000D01*
X172750000Y-99750000D02*
X198000000Y-99750000D01*
X171250000Y-98250000D02*
X172750000Y-99750000D01*
D12*
X260250000Y-53500000D02*
X260321428Y-53357142D01*
X260321428Y-53142857D01*
X260250000Y-52928571D01*
X260107142Y-52785714D01*
X259964285Y-52714285D01*
X259678571Y-52642857D01*
X259464285Y-52642857D01*
X259178571Y-52714285D01*
X259035714Y-52785714D01*
X258892857Y-52928571D01*
X258821428Y-53142857D01*
X258821428Y-53285714D01*
X258892857Y-53500000D01*
X258964285Y-53571428D01*
X259464285Y-53571428D01*
X259464285Y-53285714D01*
X258821428Y-54214285D02*
X260321428Y-54214285D01*
X260321428Y-54785714D01*
X260250000Y-54928571D01*
X260178571Y-55000000D01*
X260035714Y-55071428D01*
X259821428Y-55071428D01*
X259678571Y-55000000D01*
X259607142Y-54928571D01*
X259535714Y-54785714D01*
X259535714Y-54214285D01*
X258821428Y-55714285D02*
X260321428Y-55714285D01*
X260321428Y-56714285D02*
X260321428Y-57000000D01*
X260250000Y-57142857D01*
X260107142Y-57285714D01*
X259821428Y-57357142D01*
X259321428Y-57357142D01*
X259035714Y-57285714D01*
X258892857Y-57142857D01*
X258821428Y-57000000D01*
X258821428Y-56714285D01*
X258892857Y-56571428D01*
X259035714Y-56428571D01*
X259321428Y-56357142D01*
X259821428Y-56357142D01*
X260107142Y-56428571D01*
X260250000Y-56571428D01*
X260321428Y-56714285D01*
D17*
X254725000Y-47568035D02*
X254767857Y-47472797D01*
X254767857Y-47329940D01*
X254725000Y-47187083D01*
X254639285Y-47091845D01*
X254553571Y-47044226D01*
X254382142Y-46996607D01*
X254253571Y-46996607D01*
X254082142Y-47044226D01*
X253996428Y-47091845D01*
X253910714Y-47187083D01*
X253867857Y-47329940D01*
X253867857Y-47425178D01*
X253910714Y-47568035D01*
X253953571Y-47615654D01*
X254253571Y-47615654D01*
X254253571Y-47425178D01*
X253867857Y-48044226D02*
X254767857Y-48044226D01*
X253867857Y-48615654D01*
X254767857Y-48615654D01*
X253867857Y-49091845D02*
X254767857Y-49091845D01*
X254767857Y-49329940D01*
X254725000Y-49472797D01*
X254639285Y-49568035D01*
X254553571Y-49615654D01*
X254382142Y-49663273D01*
X254253571Y-49663273D01*
X254082142Y-49615654D01*
X253996428Y-49568035D01*
X253910714Y-49472797D01*
X253867857Y-49329940D01*
X253867857Y-49091845D01*
X251060714Y-45615654D02*
X251060714Y-46377559D01*
X250717857Y-45996607D02*
X251403571Y-45996607D01*
X251617857Y-46758511D02*
X251617857Y-47377559D01*
X251275000Y-47044226D01*
X251275000Y-47187083D01*
X251232142Y-47282321D01*
X251189285Y-47329940D01*
X251103571Y-47377559D01*
X250889285Y-47377559D01*
X250803571Y-47329940D01*
X250760714Y-47282321D01*
X250717857Y-47187083D01*
X250717857Y-46901369D01*
X250760714Y-46806130D01*
X250803571Y-46758511D01*
X250803571Y-47806130D02*
X250760714Y-47853750D01*
X250717857Y-47806130D01*
X250760714Y-47758511D01*
X250803571Y-47806130D01*
X250717857Y-47806130D01*
X251617857Y-48187083D02*
X251617857Y-48806130D01*
X251275000Y-48472797D01*
X251275000Y-48615654D01*
X251232142Y-48710892D01*
X251189285Y-48758511D01*
X251103571Y-48806130D01*
X250889285Y-48806130D01*
X250803571Y-48758511D01*
X250760714Y-48710892D01*
X250717857Y-48615654D01*
X250717857Y-48329940D01*
X250760714Y-48234702D01*
X250803571Y-48187083D01*
X251617857Y-49091845D02*
X250717857Y-49425178D01*
X251617857Y-49758511D01*
X248467857Y-48377559D02*
X248467857Y-48472797D01*
X248425000Y-48568035D01*
X248382142Y-48615654D01*
X248296428Y-48663273D01*
X248125000Y-48710892D01*
X247910714Y-48710892D01*
X247739285Y-48663273D01*
X247653571Y-48615654D01*
X247610714Y-48568035D01*
X247567857Y-48472797D01*
X247567857Y-48377559D01*
X247610714Y-48282321D01*
X247653571Y-48234702D01*
X247739285Y-48187083D01*
X247910714Y-48139464D01*
X248125000Y-48139464D01*
X248296428Y-48187083D01*
X248382142Y-48234702D01*
X248425000Y-48282321D01*
X248467857Y-48377559D01*
X248467857Y-49329940D02*
X248467857Y-49425178D01*
X248425000Y-49520416D01*
X248382142Y-49568035D01*
X248296428Y-49615654D01*
X248125000Y-49663273D01*
X247910714Y-49663273D01*
X247739285Y-49615654D01*
X247653571Y-49568035D01*
X247610714Y-49520416D01*
X247567857Y-49425178D01*
X247567857Y-49329940D01*
X247610714Y-49234702D01*
X247653571Y-49187083D01*
X247739285Y-49139464D01*
X247910714Y-49091845D01*
X248125000Y-49091845D01*
X248296428Y-49139464D01*
X248382142Y-49187083D01*
X248425000Y-49234702D01*
X248467857Y-49329940D01*
X245317857Y-48377559D02*
X245317857Y-48472797D01*
X245275000Y-48568035D01*
X245232142Y-48615654D01*
X245146428Y-48663273D01*
X244975000Y-48710892D01*
X244760714Y-48710892D01*
X244589285Y-48663273D01*
X244503571Y-48615654D01*
X244460714Y-48568035D01*
X244417857Y-48472797D01*
X244417857Y-48377559D01*
X244460714Y-48282321D01*
X244503571Y-48234702D01*
X244589285Y-48187083D01*
X244760714Y-48139464D01*
X244975000Y-48139464D01*
X245146428Y-48187083D01*
X245232142Y-48234702D01*
X245275000Y-48282321D01*
X245317857Y-48377559D01*
X244417857Y-49663273D02*
X244417857Y-49091845D01*
X244417857Y-49377559D02*
X245317857Y-49377559D01*
X245189285Y-49282321D01*
X245103571Y-49187083D01*
X245060714Y-49091845D01*
X242167857Y-48377559D02*
X242167857Y-48472797D01*
X242125000Y-48568035D01*
X242082142Y-48615654D01*
X241996428Y-48663273D01*
X241825000Y-48710892D01*
X241610714Y-48710892D01*
X241439285Y-48663273D01*
X241353571Y-48615654D01*
X241310714Y-48568035D01*
X241267857Y-48472797D01*
X241267857Y-48377559D01*
X241310714Y-48282321D01*
X241353571Y-48234702D01*
X241439285Y-48187083D01*
X241610714Y-48139464D01*
X241825000Y-48139464D01*
X241996428Y-48187083D01*
X242082142Y-48234702D01*
X242125000Y-48282321D01*
X242167857Y-48377559D01*
X242082142Y-49091845D02*
X242125000Y-49139464D01*
X242167857Y-49234702D01*
X242167857Y-49472797D01*
X242125000Y-49568035D01*
X242082142Y-49615654D01*
X241996428Y-49663273D01*
X241910714Y-49663273D01*
X241782142Y-49615654D01*
X241267857Y-49044226D01*
X241267857Y-49663273D01*
X239017857Y-48377559D02*
X239017857Y-48472797D01*
X238975000Y-48568035D01*
X238932142Y-48615654D01*
X238846428Y-48663273D01*
X238675000Y-48710892D01*
X238460714Y-48710892D01*
X238289285Y-48663273D01*
X238203571Y-48615654D01*
X238160714Y-48568035D01*
X238117857Y-48472797D01*
X238117857Y-48377559D01*
X238160714Y-48282321D01*
X238203571Y-48234702D01*
X238289285Y-48187083D01*
X238460714Y-48139464D01*
X238675000Y-48139464D01*
X238846428Y-48187083D01*
X238932142Y-48234702D01*
X238975000Y-48282321D01*
X239017857Y-48377559D01*
X239017857Y-49044226D02*
X239017857Y-49663273D01*
X238675000Y-49329940D01*
X238675000Y-49472797D01*
X238632142Y-49568035D01*
X238589285Y-49615654D01*
X238503571Y-49663273D01*
X238289285Y-49663273D01*
X238203571Y-49615654D01*
X238160714Y-49568035D01*
X238117857Y-49472797D01*
X238117857Y-49187083D01*
X238160714Y-49091845D01*
X238203571Y-49044226D01*
X235867857Y-48377559D02*
X235867857Y-48472797D01*
X235825000Y-48568035D01*
X235782142Y-48615654D01*
X235696428Y-48663273D01*
X235525000Y-48710892D01*
X235310714Y-48710892D01*
X235139285Y-48663273D01*
X235053571Y-48615654D01*
X235010714Y-48568035D01*
X234967857Y-48472797D01*
X234967857Y-48377559D01*
X235010714Y-48282321D01*
X235053571Y-48234702D01*
X235139285Y-48187083D01*
X235310714Y-48139464D01*
X235525000Y-48139464D01*
X235696428Y-48187083D01*
X235782142Y-48234702D01*
X235825000Y-48282321D01*
X235867857Y-48377559D01*
X235567857Y-49568035D02*
X234967857Y-49568035D01*
X235910714Y-49329940D02*
X235267857Y-49091845D01*
X235267857Y-49710892D01*
X232717857Y-48377559D02*
X232717857Y-48472797D01*
X232675000Y-48568035D01*
X232632142Y-48615654D01*
X232546428Y-48663273D01*
X232375000Y-48710892D01*
X232160714Y-48710892D01*
X231989285Y-48663273D01*
X231903571Y-48615654D01*
X231860714Y-48568035D01*
X231817857Y-48472797D01*
X231817857Y-48377559D01*
X231860714Y-48282321D01*
X231903571Y-48234702D01*
X231989285Y-48187083D01*
X232160714Y-48139464D01*
X232375000Y-48139464D01*
X232546428Y-48187083D01*
X232632142Y-48234702D01*
X232675000Y-48282321D01*
X232717857Y-48377559D01*
X232717857Y-49615654D02*
X232717857Y-49139464D01*
X232289285Y-49091845D01*
X232332142Y-49139464D01*
X232375000Y-49234702D01*
X232375000Y-49472797D01*
X232332142Y-49568035D01*
X232289285Y-49615654D01*
X232203571Y-49663273D01*
X231989285Y-49663273D01*
X231903571Y-49615654D01*
X231860714Y-49568035D01*
X231817857Y-49472797D01*
X231817857Y-49234702D01*
X231860714Y-49139464D01*
X231903571Y-49091845D01*
X232882142Y-61539107D02*
X232882142Y-62110535D01*
X232882142Y-61824821D02*
X231982142Y-61824821D01*
X232110714Y-61920059D01*
X232196428Y-62015297D01*
X232239285Y-62110535D01*
X232882142Y-60586726D02*
X232882142Y-61158154D01*
X232882142Y-60872440D02*
X231982142Y-60872440D01*
X232110714Y-60967678D01*
X232196428Y-61062916D01*
X232239285Y-61158154D01*
X236032142Y-61539107D02*
X236032142Y-62110535D01*
X236032142Y-61824821D02*
X235132142Y-61824821D01*
X235260714Y-61920059D01*
X235346428Y-62015297D01*
X235389285Y-62110535D01*
X235132142Y-60920059D02*
X235132142Y-60824821D01*
X235175000Y-60729583D01*
X235217857Y-60681964D01*
X235303571Y-60634345D01*
X235475000Y-60586726D01*
X235689285Y-60586726D01*
X235860714Y-60634345D01*
X235946428Y-60681964D01*
X235989285Y-60729583D01*
X236032142Y-60824821D01*
X236032142Y-60920059D01*
X235989285Y-61015297D01*
X235946428Y-61062916D01*
X235860714Y-61110535D01*
X235689285Y-61158154D01*
X235475000Y-61158154D01*
X235303571Y-61110535D01*
X235217857Y-61062916D01*
X235175000Y-61015297D01*
X235132142Y-60920059D01*
X238282142Y-61872440D02*
X238282142Y-61777202D01*
X238325000Y-61681964D01*
X238367857Y-61634345D01*
X238453571Y-61586726D01*
X238625000Y-61539107D01*
X238839285Y-61539107D01*
X239010714Y-61586726D01*
X239096428Y-61634345D01*
X239139285Y-61681964D01*
X239182142Y-61777202D01*
X239182142Y-61872440D01*
X239139285Y-61967678D01*
X239096428Y-62015297D01*
X239010714Y-62062916D01*
X238839285Y-62110535D01*
X238625000Y-62110535D01*
X238453571Y-62062916D01*
X238367857Y-62015297D01*
X238325000Y-61967678D01*
X238282142Y-61872440D01*
X239182142Y-61062916D02*
X239182142Y-60872440D01*
X239139285Y-60777202D01*
X239096428Y-60729583D01*
X238967857Y-60634345D01*
X238796428Y-60586726D01*
X238453571Y-60586726D01*
X238367857Y-60634345D01*
X238325000Y-60681964D01*
X238282142Y-60777202D01*
X238282142Y-60967678D01*
X238325000Y-61062916D01*
X238367857Y-61110535D01*
X238453571Y-61158154D01*
X238667857Y-61158154D01*
X238753571Y-61110535D01*
X238796428Y-61062916D01*
X238839285Y-60967678D01*
X238839285Y-60777202D01*
X238796428Y-60681964D01*
X238753571Y-60634345D01*
X238667857Y-60586726D01*
X241432142Y-61872440D02*
X241432142Y-61777202D01*
X241475000Y-61681964D01*
X241517857Y-61634345D01*
X241603571Y-61586726D01*
X241775000Y-61539107D01*
X241989285Y-61539107D01*
X242160714Y-61586726D01*
X242246428Y-61634345D01*
X242289285Y-61681964D01*
X242332142Y-61777202D01*
X242332142Y-61872440D01*
X242289285Y-61967678D01*
X242246428Y-62015297D01*
X242160714Y-62062916D01*
X241989285Y-62110535D01*
X241775000Y-62110535D01*
X241603571Y-62062916D01*
X241517857Y-62015297D01*
X241475000Y-61967678D01*
X241432142Y-61872440D01*
X241817857Y-60967678D02*
X241775000Y-61062916D01*
X241732142Y-61110535D01*
X241646428Y-61158154D01*
X241603571Y-61158154D01*
X241517857Y-61110535D01*
X241475000Y-61062916D01*
X241432142Y-60967678D01*
X241432142Y-60777202D01*
X241475000Y-60681964D01*
X241517857Y-60634345D01*
X241603571Y-60586726D01*
X241646428Y-60586726D01*
X241732142Y-60634345D01*
X241775000Y-60681964D01*
X241817857Y-60777202D01*
X241817857Y-60967678D01*
X241860714Y-61062916D01*
X241903571Y-61110535D01*
X241989285Y-61158154D01*
X242160714Y-61158154D01*
X242246428Y-61110535D01*
X242289285Y-61062916D01*
X242332142Y-60967678D01*
X242332142Y-60777202D01*
X242289285Y-60681964D01*
X242246428Y-60634345D01*
X242160714Y-60586726D01*
X241989285Y-60586726D01*
X241903571Y-60634345D01*
X241860714Y-60681964D01*
X241817857Y-60777202D01*
X244582142Y-61872440D02*
X244582142Y-61777202D01*
X244625000Y-61681964D01*
X244667857Y-61634345D01*
X244753571Y-61586726D01*
X244925000Y-61539107D01*
X245139285Y-61539107D01*
X245310714Y-61586726D01*
X245396428Y-61634345D01*
X245439285Y-61681964D01*
X245482142Y-61777202D01*
X245482142Y-61872440D01*
X245439285Y-61967678D01*
X245396428Y-62015297D01*
X245310714Y-62062916D01*
X245139285Y-62110535D01*
X244925000Y-62110535D01*
X244753571Y-62062916D01*
X244667857Y-62015297D01*
X244625000Y-61967678D01*
X244582142Y-61872440D01*
X244582142Y-61205773D02*
X244582142Y-60539107D01*
X245482142Y-60967678D01*
X247732142Y-61872440D02*
X247732142Y-61777202D01*
X247775000Y-61681964D01*
X247817857Y-61634345D01*
X247903571Y-61586726D01*
X248075000Y-61539107D01*
X248289285Y-61539107D01*
X248460714Y-61586726D01*
X248546428Y-61634345D01*
X248589285Y-61681964D01*
X248632142Y-61777202D01*
X248632142Y-61872440D01*
X248589285Y-61967678D01*
X248546428Y-62015297D01*
X248460714Y-62062916D01*
X248289285Y-62110535D01*
X248075000Y-62110535D01*
X247903571Y-62062916D01*
X247817857Y-62015297D01*
X247775000Y-61967678D01*
X247732142Y-61872440D01*
X247732142Y-60681964D02*
X247732142Y-60872440D01*
X247775000Y-60967678D01*
X247817857Y-61015297D01*
X247946428Y-61110535D01*
X248117857Y-61158154D01*
X248460714Y-61158154D01*
X248546428Y-61110535D01*
X248589285Y-61062916D01*
X248632142Y-60967678D01*
X248632142Y-60777202D01*
X248589285Y-60681964D01*
X248546428Y-60634345D01*
X248460714Y-60586726D01*
X248246428Y-60586726D01*
X248160714Y-60634345D01*
X248117857Y-60681964D01*
X248075000Y-60777202D01*
X248075000Y-60967678D01*
X248117857Y-61062916D01*
X248160714Y-61110535D01*
X248246428Y-61158154D01*
X250925000Y-62681964D02*
X250882142Y-62777202D01*
X250882142Y-62920059D01*
X250925000Y-63062916D01*
X251010714Y-63158154D01*
X251096428Y-63205773D01*
X251267857Y-63253392D01*
X251396428Y-63253392D01*
X251567857Y-63205773D01*
X251653571Y-63158154D01*
X251739285Y-63062916D01*
X251782142Y-62920059D01*
X251782142Y-62824821D01*
X251739285Y-62681964D01*
X251696428Y-62634345D01*
X251396428Y-62634345D01*
X251396428Y-62824821D01*
X251782142Y-62205773D02*
X250882142Y-62205773D01*
X251782142Y-61634345D01*
X250882142Y-61634345D01*
X251782142Y-61158154D02*
X250882142Y-61158154D01*
X250882142Y-60920059D01*
X250925000Y-60777202D01*
X251010714Y-60681964D01*
X251096428Y-60634345D01*
X251267857Y-60586726D01*
X251396428Y-60586726D01*
X251567857Y-60634345D01*
X251653571Y-60681964D01*
X251739285Y-60777202D01*
X251782142Y-60920059D01*
X251782142Y-61158154D01*
X254032142Y-64158154D02*
X254932142Y-63824821D01*
X254032142Y-63491488D01*
X254032142Y-63158154D02*
X254760714Y-63158154D01*
X254846428Y-63110535D01*
X254889285Y-63062916D01*
X254932142Y-62967678D01*
X254932142Y-62777202D01*
X254889285Y-62681964D01*
X254846428Y-62634345D01*
X254760714Y-62586726D01*
X254032142Y-62586726D01*
X254889285Y-62158154D02*
X254932142Y-62015297D01*
X254932142Y-61777202D01*
X254889285Y-61681964D01*
X254846428Y-61634345D01*
X254760714Y-61586726D01*
X254675000Y-61586726D01*
X254589285Y-61634345D01*
X254546428Y-61681964D01*
X254503571Y-61777202D01*
X254460714Y-61967678D01*
X254417857Y-62062916D01*
X254375000Y-62110535D01*
X254289285Y-62158154D01*
X254203571Y-62158154D01*
X254117857Y-62110535D01*
X254075000Y-62062916D01*
X254032142Y-61967678D01*
X254032142Y-61729583D01*
X254075000Y-61586726D01*
X254460714Y-60824821D02*
X254503571Y-60681964D01*
X254546428Y-60634345D01*
X254632142Y-60586726D01*
X254760714Y-60586726D01*
X254846428Y-60634345D01*
X254889285Y-60681964D01*
X254932142Y-60777202D01*
X254932142Y-61158154D01*
X254032142Y-61158154D01*
X254032142Y-60824821D01*
X254075000Y-60729583D01*
X254117857Y-60681964D01*
X254203571Y-60634345D01*
X254289285Y-60634345D01*
X254375000Y-60681964D01*
X254417857Y-60729583D01*
X254460714Y-60824821D01*
X254460714Y-61158154D01*
D12*
X226000000Y-56750000D02*
X225928571Y-56892857D01*
X225928571Y-57107142D01*
X226000000Y-57321428D01*
X226142857Y-57464285D01*
X226285714Y-57535714D01*
X226571428Y-57607142D01*
X226785714Y-57607142D01*
X227071428Y-57535714D01*
X227214285Y-57464285D01*
X227357142Y-57321428D01*
X227428571Y-57107142D01*
X227428571Y-56964285D01*
X227357142Y-56750000D01*
X227285714Y-56678571D01*
X226785714Y-56678571D01*
X226785714Y-56964285D01*
X227428571Y-56035714D02*
X225928571Y-56035714D01*
X225928571Y-55464285D01*
X226000000Y-55321428D01*
X226071428Y-55250000D01*
X226214285Y-55178571D01*
X226428571Y-55178571D01*
X226571428Y-55250000D01*
X226642857Y-55321428D01*
X226714285Y-55464285D01*
X226714285Y-56035714D01*
X227428571Y-54535714D02*
X225928571Y-54535714D01*
X225928571Y-53535714D02*
X225928571Y-53250000D01*
X226000000Y-53107142D01*
X226142857Y-52964285D01*
X226428571Y-52892857D01*
X226928571Y-52892857D01*
X227214285Y-52964285D01*
X227357142Y-53107142D01*
X227428571Y-53250000D01*
X227428571Y-53535714D01*
X227357142Y-53678571D01*
X227214285Y-53821428D01*
X226928571Y-53892857D01*
X226428571Y-53892857D01*
X226142857Y-53821428D01*
X226000000Y-53678571D01*
X225928571Y-53535714D01*
X188071428Y-53428571D02*
X188071428Y-51928571D01*
X188642857Y-51928571D01*
X188785714Y-52000000D01*
X188857142Y-52071428D01*
X188928571Y-52214285D01*
X188928571Y-52428571D01*
X188857142Y-52571428D01*
X188785714Y-52642857D01*
X188642857Y-52714285D01*
X188071428Y-52714285D01*
X190428571Y-53428571D02*
X189928571Y-52714285D01*
X189571428Y-53428571D02*
X189571428Y-51928571D01*
X190142857Y-51928571D01*
X190285714Y-52000000D01*
X190357142Y-52071428D01*
X190428571Y-52214285D01*
X190428571Y-52428571D01*
X190357142Y-52571428D01*
X190285714Y-52642857D01*
X190142857Y-52714285D01*
X189571428Y-52714285D01*
X191357142Y-51928571D02*
X191642857Y-51928571D01*
X191785714Y-52000000D01*
X191928571Y-52142857D01*
X192000000Y-52428571D01*
X192000000Y-52928571D01*
X191928571Y-53214285D01*
X191785714Y-53357142D01*
X191642857Y-53428571D01*
X191357142Y-53428571D01*
X191214285Y-53357142D01*
X191071428Y-53214285D01*
X191000000Y-52928571D01*
X191000000Y-52428571D01*
X191071428Y-52142857D01*
X191214285Y-52000000D01*
X191357142Y-51928571D01*
X193428571Y-52000000D02*
X193285714Y-51928571D01*
X193071428Y-51928571D01*
X192857142Y-52000000D01*
X192714285Y-52142857D01*
X192642857Y-52285714D01*
X192571428Y-52571428D01*
X192571428Y-52785714D01*
X192642857Y-53071428D01*
X192714285Y-53214285D01*
X192857142Y-53357142D01*
X193071428Y-53428571D01*
X193214285Y-53428571D01*
X193428571Y-53357142D01*
X193500000Y-53285714D01*
X193500000Y-52785714D01*
X193214285Y-52785714D01*
X195000000Y-53428571D02*
X194500000Y-52714285D01*
X194142857Y-53428571D02*
X194142857Y-51928571D01*
X194714285Y-51928571D01*
X194857142Y-52000000D01*
X194928571Y-52071428D01*
X195000000Y-52214285D01*
X195000000Y-52428571D01*
X194928571Y-52571428D01*
X194857142Y-52642857D01*
X194714285Y-52714285D01*
X194142857Y-52714285D01*
X195571428Y-53000000D02*
X196285714Y-53000000D01*
X195428571Y-53428571D02*
X195928571Y-51928571D01*
X196428571Y-53428571D01*
X196928571Y-53428571D02*
X196928571Y-51928571D01*
X197428571Y-53000000D01*
X197928571Y-51928571D01*
X197928571Y-53428571D01*
X176857142Y-49678571D02*
X176857142Y-50892857D01*
X176928571Y-51035714D01*
X177000000Y-51107142D01*
X177142857Y-51178571D01*
X177428571Y-51178571D01*
X177571428Y-51107142D01*
X177642857Y-51035714D01*
X177714285Y-50892857D01*
X177714285Y-49678571D01*
X178357142Y-51107142D02*
X178571428Y-51178571D01*
X178928571Y-51178571D01*
X179071428Y-51107142D01*
X179142857Y-51035714D01*
X179214285Y-50892857D01*
X179214285Y-50750000D01*
X179142857Y-50607142D01*
X179071428Y-50535714D01*
X178928571Y-50464285D01*
X178642857Y-50392857D01*
X178500000Y-50321428D01*
X178428571Y-50250000D01*
X178357142Y-50107142D01*
X178357142Y-49964285D01*
X178428571Y-49821428D01*
X178500000Y-49750000D01*
X178642857Y-49678571D01*
X179000000Y-49678571D01*
X179214285Y-49750000D01*
X180357142Y-50392857D02*
X180571428Y-50464285D01*
X180642857Y-50535714D01*
X180714285Y-50678571D01*
X180714285Y-50892857D01*
X180642857Y-51035714D01*
X180571428Y-51107142D01*
X180428571Y-51178571D01*
X179857142Y-51178571D01*
X179857142Y-49678571D01*
X180357142Y-49678571D01*
X180500000Y-49750000D01*
X180571428Y-49821428D01*
X180642857Y-49964285D01*
X180642857Y-50107142D01*
X180571428Y-50250000D01*
X180500000Y-50321428D01*
X180357142Y-50392857D01*
X179857142Y-50392857D01*
D15*
X218500000Y-51250000D02*
X219500000Y-52250000D01*
X202750000Y-51250000D02*
X218500000Y-51250000D01*
X201750000Y-52250000D02*
X202750000Y-51250000D01*
D16*
X203642857Y-52452380D02*
X203833333Y-52452380D01*
X203928571Y-52500000D01*
X204023809Y-52595238D01*
X204071428Y-52785714D01*
X204071428Y-53119047D01*
X204023809Y-53309523D01*
X203928571Y-53404761D01*
X203833333Y-53452380D01*
X203642857Y-53452380D01*
X203547619Y-53404761D01*
X203452380Y-53309523D01*
X203404761Y-53119047D01*
X203404761Y-52785714D01*
X203452380Y-52595238D01*
X203547619Y-52500000D01*
X203642857Y-52452380D01*
X204500000Y-52452380D02*
X204500000Y-53261904D01*
X204547619Y-53357142D01*
X204595238Y-53404761D01*
X204690476Y-53452380D01*
X204880952Y-53452380D01*
X204976190Y-53404761D01*
X205023809Y-53357142D01*
X205071428Y-53261904D01*
X205071428Y-52452380D01*
X205404761Y-52452380D02*
X205976190Y-52452380D01*
X205690476Y-53452380D02*
X205690476Y-52452380D01*
X207261904Y-52452380D02*
X207357142Y-52452380D01*
X207452380Y-52500000D01*
X207500000Y-52547619D01*
X207547619Y-52642857D01*
X207595238Y-52833333D01*
X207595238Y-53071428D01*
X207547619Y-53261904D01*
X207500000Y-53357142D01*
X207452380Y-53404761D01*
X207357142Y-53452380D01*
X207261904Y-53452380D01*
X207166666Y-53404761D01*
X207119047Y-53357142D01*
X207071428Y-53261904D01*
X207023809Y-53071428D01*
X207023809Y-52833333D01*
X207071428Y-52642857D01*
X207119047Y-52547619D01*
X207166666Y-52500000D01*
X207261904Y-52452380D01*
X213892857Y-52452380D02*
X214083333Y-52452380D01*
X214178571Y-52500000D01*
X214273809Y-52595238D01*
X214321428Y-52785714D01*
X214321428Y-53119047D01*
X214273809Y-53309523D01*
X214178571Y-53404761D01*
X214083333Y-53452380D01*
X213892857Y-53452380D01*
X213797619Y-53404761D01*
X213702380Y-53309523D01*
X213654761Y-53119047D01*
X213654761Y-52785714D01*
X213702380Y-52595238D01*
X213797619Y-52500000D01*
X213892857Y-52452380D01*
X214750000Y-52452380D02*
X214750000Y-53261904D01*
X214797619Y-53357142D01*
X214845238Y-53404761D01*
X214940476Y-53452380D01*
X215130952Y-53452380D01*
X215226190Y-53404761D01*
X215273809Y-53357142D01*
X215321428Y-53261904D01*
X215321428Y-52452380D01*
X215654761Y-52452380D02*
X216226190Y-52452380D01*
X215940476Y-53452380D02*
X215940476Y-52452380D01*
X217845238Y-53452380D02*
X217273809Y-53452380D01*
X217559523Y-53452380D02*
X217559523Y-52452380D01*
X217464285Y-52595238D01*
X217369047Y-52690476D01*
X217273809Y-52738095D01*
X202011904Y-50154761D02*
X202154761Y-50202380D01*
X202392857Y-50202380D01*
X202488095Y-50154761D01*
X202535714Y-50107142D01*
X202583333Y-50011904D01*
X202583333Y-49916666D01*
X202535714Y-49821428D01*
X202488095Y-49773809D01*
X202392857Y-49726190D01*
X202202380Y-49678571D01*
X202107142Y-49630952D01*
X202059523Y-49583333D01*
X202011904Y-49488095D01*
X202011904Y-49392857D01*
X202059523Y-49297619D01*
X202107142Y-49250000D01*
X202202380Y-49202380D01*
X202440476Y-49202380D01*
X202583333Y-49250000D01*
X202869047Y-49535714D02*
X203250000Y-49535714D01*
X203011904Y-49202380D02*
X203011904Y-50059523D01*
X203059523Y-50154761D01*
X203154761Y-50202380D01*
X203250000Y-50202380D01*
X203583333Y-50202380D02*
X203583333Y-49535714D01*
X203583333Y-49202380D02*
X203535714Y-49250000D01*
X203583333Y-49297619D01*
X203630952Y-49250000D01*
X203583333Y-49202380D01*
X203583333Y-49297619D01*
X204059523Y-50202380D02*
X204059523Y-49535714D01*
X204059523Y-49630952D02*
X204107142Y-49583333D01*
X204202380Y-49535714D01*
X204345238Y-49535714D01*
X204440476Y-49583333D01*
X204488095Y-49678571D01*
X204488095Y-50202380D01*
X204488095Y-49678571D02*
X204535714Y-49583333D01*
X204630952Y-49535714D01*
X204773809Y-49535714D01*
X204869047Y-49583333D01*
X204916666Y-49678571D01*
X204916666Y-50202380D01*
X205821428Y-49535714D02*
X205821428Y-50202380D01*
X205392857Y-49535714D02*
X205392857Y-50059523D01*
X205440476Y-50154761D01*
X205535714Y-50202380D01*
X205678571Y-50202380D01*
X205773809Y-50154761D01*
X205821428Y-50107142D01*
X206440476Y-50202380D02*
X206345238Y-50154761D01*
X206297619Y-50059523D01*
X206297619Y-49202380D01*
X207250000Y-50202380D02*
X207250000Y-49678571D01*
X207202380Y-49583333D01*
X207107142Y-49535714D01*
X206916666Y-49535714D01*
X206821428Y-49583333D01*
X207250000Y-50154761D02*
X207154761Y-50202380D01*
X206916666Y-50202380D01*
X206821428Y-50154761D01*
X206773809Y-50059523D01*
X206773809Y-49964285D01*
X206821428Y-49869047D01*
X206916666Y-49821428D01*
X207154761Y-49821428D01*
X207250000Y-49773809D01*
X207583333Y-49535714D02*
X207964285Y-49535714D01*
X207726190Y-49202380D02*
X207726190Y-50059523D01*
X207773809Y-50154761D01*
X207869047Y-50202380D01*
X207964285Y-50202380D01*
X208297619Y-50202380D02*
X208297619Y-49535714D01*
X208297619Y-49202380D02*
X208250000Y-49250000D01*
X208297619Y-49297619D01*
X208345238Y-49250000D01*
X208297619Y-49202380D01*
X208297619Y-49297619D01*
X208916666Y-50202380D02*
X208821428Y-50154761D01*
X208773809Y-50107142D01*
X208726190Y-50011904D01*
X208726190Y-49726190D01*
X208773809Y-49630952D01*
X208821428Y-49583333D01*
X208916666Y-49535714D01*
X209059523Y-49535714D01*
X209154761Y-49583333D01*
X209202380Y-49630952D01*
X209250000Y-49726190D01*
X209250000Y-50011904D01*
X209202380Y-50107142D01*
X209154761Y-50154761D01*
X209059523Y-50202380D01*
X208916666Y-50202380D01*
X209678571Y-49535714D02*
X209678571Y-50202380D01*
X209678571Y-49630952D02*
X209726190Y-49583333D01*
X209821428Y-49535714D01*
X209964285Y-49535714D01*
X210059523Y-49583333D01*
X210107142Y-49678571D01*
X210107142Y-50202380D01*
X211345238Y-50202380D02*
X211345238Y-49535714D01*
X211345238Y-49202380D02*
X211297619Y-49250000D01*
X211345238Y-49297619D01*
X211392857Y-49250000D01*
X211345238Y-49202380D01*
X211345238Y-49297619D01*
X211821428Y-49535714D02*
X211821428Y-50202380D01*
X211821428Y-49630952D02*
X211869047Y-49583333D01*
X211964285Y-49535714D01*
X212107142Y-49535714D01*
X212202380Y-49583333D01*
X212250000Y-49678571D01*
X212250000Y-50202380D01*
X213488095Y-49535714D02*
X213488095Y-50535714D01*
X213488095Y-49583333D02*
X213583333Y-49535714D01*
X213773809Y-49535714D01*
X213869047Y-49583333D01*
X213916666Y-49630952D01*
X213964285Y-49726190D01*
X213964285Y-50011904D01*
X213916666Y-50107142D01*
X213869047Y-50154761D01*
X213773809Y-50202380D01*
X213583333Y-50202380D01*
X213488095Y-50154761D01*
X214392857Y-50202380D02*
X214392857Y-49535714D01*
X214392857Y-49726190D02*
X214440476Y-49630952D01*
X214488095Y-49583333D01*
X214583333Y-49535714D01*
X214678571Y-49535714D01*
X215154761Y-50202380D02*
X215059523Y-50154761D01*
X215011904Y-50107142D01*
X214964285Y-50011904D01*
X214964285Y-49726190D01*
X215011904Y-49630952D01*
X215059523Y-49583333D01*
X215154761Y-49535714D01*
X215297619Y-49535714D01*
X215392857Y-49583333D01*
X215440476Y-49630952D01*
X215488095Y-49726190D01*
X215488095Y-50011904D01*
X215440476Y-50107142D01*
X215392857Y-50154761D01*
X215297619Y-50202380D01*
X215154761Y-50202380D01*
X216345238Y-49535714D02*
X216345238Y-50345238D01*
X216297619Y-50440476D01*
X216250000Y-50488095D01*
X216154761Y-50535714D01*
X216011904Y-50535714D01*
X215916666Y-50488095D01*
X216345238Y-50154761D02*
X216250000Y-50202380D01*
X216059523Y-50202380D01*
X215964285Y-50154761D01*
X215916666Y-50107142D01*
X215869047Y-50011904D01*
X215869047Y-49726190D01*
X215916666Y-49630952D01*
X215964285Y-49583333D01*
X216059523Y-49535714D01*
X216250000Y-49535714D01*
X216345238Y-49583333D01*
X216821428Y-50202380D02*
X216821428Y-49535714D01*
X216821428Y-49726190D02*
X216869047Y-49630952D01*
X216916666Y-49583333D01*
X217011904Y-49535714D01*
X217107142Y-49535714D01*
X217821428Y-50154761D02*
X217726190Y-50202380D01*
X217535714Y-50202380D01*
X217440476Y-50154761D01*
X217392857Y-50059523D01*
X217392857Y-49678571D01*
X217440476Y-49583333D01*
X217535714Y-49535714D01*
X217726190Y-49535714D01*
X217821428Y-49583333D01*
X217869047Y-49678571D01*
X217869047Y-49773809D01*
X217392857Y-49869047D01*
X218250000Y-50154761D02*
X218345238Y-50202380D01*
X218535714Y-50202380D01*
X218630952Y-50154761D01*
X218678571Y-50059523D01*
X218678571Y-50011904D01*
X218630952Y-49916666D01*
X218535714Y-49869047D01*
X218392857Y-49869047D01*
X218297619Y-49821428D01*
X218250000Y-49726190D01*
X218250000Y-49678571D01*
X218297619Y-49583333D01*
X218392857Y-49535714D01*
X218535714Y-49535714D01*
X218630952Y-49583333D01*
X219059523Y-50154761D02*
X219154761Y-50202380D01*
X219345238Y-50202380D01*
X219440476Y-50154761D01*
X219488095Y-50059523D01*
X219488095Y-50011904D01*
X219440476Y-49916666D01*
X219345238Y-49869047D01*
X219202380Y-49869047D01*
X219107142Y-49821428D01*
X219059523Y-49726190D01*
X219059523Y-49678571D01*
X219107142Y-49583333D01*
X219202380Y-49535714D01*
X219345238Y-49535714D01*
X219440476Y-49583333D01*
D12*
X277821428Y-100178571D02*
X277821428Y-98678571D01*
X278535714Y-100178571D02*
X278535714Y-98678571D01*
X279392857Y-100178571D01*
X279392857Y-98678571D01*
X280107142Y-100178571D02*
X280107142Y-98678571D01*
X280678571Y-98678571D01*
X280821428Y-98750000D01*
X280892857Y-98821428D01*
X280964285Y-98964285D01*
X280964285Y-99178571D01*
X280892857Y-99321428D01*
X280821428Y-99392857D01*
X280678571Y-99464285D01*
X280107142Y-99464285D01*
X281607142Y-98678571D02*
X281607142Y-99892857D01*
X281678571Y-100035714D01*
X281750000Y-100107142D01*
X281892857Y-100178571D01*
X282178571Y-100178571D01*
X282321428Y-100107142D01*
X282392857Y-100035714D01*
X282464285Y-99892857D01*
X282464285Y-98678571D01*
X282964285Y-98678571D02*
X283821428Y-98678571D01*
X283392857Y-100178571D02*
X283392857Y-98678571D01*
X286250000Y-100178571D02*
X285392857Y-100178571D01*
X285821428Y-100178571D02*
X285821428Y-98678571D01*
X285678571Y-98892857D01*
X285535714Y-99035714D01*
X285392857Y-99107142D01*
X254571428Y-100678571D02*
X254571428Y-99178571D01*
X255285714Y-100678571D02*
X255285714Y-99178571D01*
X256142857Y-100678571D01*
X256142857Y-99178571D01*
X256857142Y-100678571D02*
X256857142Y-99178571D01*
X257428571Y-99178571D01*
X257571428Y-99250000D01*
X257642857Y-99321428D01*
X257714285Y-99464285D01*
X257714285Y-99678571D01*
X257642857Y-99821428D01*
X257571428Y-99892857D01*
X257428571Y-99964285D01*
X256857142Y-99964285D01*
X258357142Y-99178571D02*
X258357142Y-100392857D01*
X258428571Y-100535714D01*
X258500000Y-100607142D01*
X258642857Y-100678571D01*
X258928571Y-100678571D01*
X259071428Y-100607142D01*
X259142857Y-100535714D01*
X259214285Y-100392857D01*
X259214285Y-99178571D01*
X259714285Y-99178571D02*
X260571428Y-99178571D01*
X260142857Y-100678571D02*
X260142857Y-99178571D01*
X262500000Y-99178571D02*
X262642857Y-99178571D01*
X262785714Y-99250000D01*
X262857142Y-99321428D01*
X262928571Y-99464285D01*
X263000000Y-99750000D01*
X263000000Y-100107142D01*
X262928571Y-100392857D01*
X262857142Y-100535714D01*
X262785714Y-100607142D01*
X262642857Y-100678571D01*
X262500000Y-100678571D01*
X262357142Y-100607142D01*
X262285714Y-100535714D01*
X262214285Y-100392857D01*
X262142857Y-100107142D01*
X262142857Y-99750000D01*
X262214285Y-99464285D01*
X262285714Y-99321428D01*
X262357142Y-99250000D01*
X262500000Y-99178571D01*
X221607142Y-101178571D02*
X221892857Y-101178571D01*
X222035714Y-101250000D01*
X222178571Y-101392857D01*
X222250000Y-101678571D01*
X222250000Y-102178571D01*
X222178571Y-102464285D01*
X222035714Y-102607142D01*
X221892857Y-102678571D01*
X221607142Y-102678571D01*
X221464285Y-102607142D01*
X221321428Y-102464285D01*
X221250000Y-102178571D01*
X221250000Y-101678571D01*
X221321428Y-101392857D01*
X221464285Y-101250000D01*
X221607142Y-101178571D01*
X222892857Y-101178571D02*
X222892857Y-102392857D01*
X222964285Y-102535714D01*
X223035714Y-102607142D01*
X223178571Y-102678571D01*
X223464285Y-102678571D01*
X223607142Y-102607142D01*
X223678571Y-102535714D01*
X223750000Y-102392857D01*
X223750000Y-101178571D01*
X224250000Y-101178571D02*
X225107142Y-101178571D01*
X224678571Y-102678571D02*
X224678571Y-101178571D01*
X225607142Y-102678571D02*
X225607142Y-101178571D01*
X226178571Y-101178571D01*
X226321428Y-101250000D01*
X226392857Y-101321428D01*
X226464285Y-101464285D01*
X226464285Y-101678571D01*
X226392857Y-101821428D01*
X226321428Y-101892857D01*
X226178571Y-101964285D01*
X225607142Y-101964285D01*
X227107142Y-101178571D02*
X227107142Y-102392857D01*
X227178571Y-102535714D01*
X227250000Y-102607142D01*
X227392857Y-102678571D01*
X227678571Y-102678571D01*
X227821428Y-102607142D01*
X227892857Y-102535714D01*
X227964285Y-102392857D01*
X227964285Y-101178571D01*
X228464285Y-101178571D02*
X229321428Y-101178571D01*
X228892857Y-102678571D02*
X228892857Y-101178571D01*
X231750000Y-102678571D02*
X230892857Y-102678571D01*
X231321428Y-102678571D02*
X231321428Y-101178571D01*
X231178571Y-101392857D01*
X231035714Y-101535714D01*
X230892857Y-101607142D01*
X179857142Y-101678571D02*
X180142857Y-101678571D01*
X180285714Y-101750000D01*
X180428571Y-101892857D01*
X180500000Y-102178571D01*
X180500000Y-102678571D01*
X180428571Y-102964285D01*
X180285714Y-103107142D01*
X180142857Y-103178571D01*
X179857142Y-103178571D01*
X179714285Y-103107142D01*
X179571428Y-102964285D01*
X179500000Y-102678571D01*
X179500000Y-102178571D01*
X179571428Y-101892857D01*
X179714285Y-101750000D01*
X179857142Y-101678571D01*
X181142857Y-101678571D02*
X181142857Y-102892857D01*
X181214285Y-103035714D01*
X181285714Y-103107142D01*
X181428571Y-103178571D01*
X181714285Y-103178571D01*
X181857142Y-103107142D01*
X181928571Y-103035714D01*
X182000000Y-102892857D01*
X182000000Y-101678571D01*
X182500000Y-101678571D02*
X183357142Y-101678571D01*
X182928571Y-103178571D02*
X182928571Y-101678571D01*
X183857142Y-103178571D02*
X183857142Y-101678571D01*
X184428571Y-101678571D01*
X184571428Y-101750000D01*
X184642857Y-101821428D01*
X184714285Y-101964285D01*
X184714285Y-102178571D01*
X184642857Y-102321428D01*
X184571428Y-102392857D01*
X184428571Y-102464285D01*
X183857142Y-102464285D01*
X185357142Y-101678571D02*
X185357142Y-102892857D01*
X185428571Y-103035714D01*
X185500000Y-103107142D01*
X185642857Y-103178571D01*
X185928571Y-103178571D01*
X186071428Y-103107142D01*
X186142857Y-103035714D01*
X186214285Y-102892857D01*
X186214285Y-101678571D01*
X186714285Y-101678571D02*
X187571428Y-101678571D01*
X187142857Y-103178571D02*
X187142857Y-101678571D01*
X189500000Y-101678571D02*
X189642857Y-101678571D01*
X189785714Y-101750000D01*
X189857142Y-101821428D01*
X189928571Y-101964285D01*
X190000000Y-102250000D01*
X190000000Y-102607142D01*
X189928571Y-102892857D01*
X189857142Y-103035714D01*
X189785714Y-103107142D01*
X189642857Y-103178571D01*
X189500000Y-103178571D01*
X189357142Y-103107142D01*
X189285714Y-103035714D01*
X189214285Y-102892857D01*
X189142857Y-102607142D01*
X189142857Y-102250000D01*
X189214285Y-101964285D01*
X189285714Y-101821428D01*
X189357142Y-101750000D01*
X189500000Y-101678571D01*
D18*
G04 #@! TO.C,D1*
X71540000Y-111330000D02*
X71540000Y-111330000D01*
X71540000Y-111460000D02*
X71540000Y-111330000D01*
X71540000Y-111460000D02*
X71540000Y-111460000D01*
X71540000Y-111330000D02*
X71540000Y-111460000D01*
X69000000Y-111330000D02*
X69000000Y-111330000D01*
X69000000Y-111460000D02*
X69000000Y-111330000D01*
X69000000Y-111460000D02*
X69000000Y-111460000D01*
X69000000Y-111330000D02*
X69000000Y-111460000D01*
X72830000Y-111460000D02*
X73230000Y-111460000D01*
X72830000Y-112580000D02*
X72830000Y-111460000D01*
X73230000Y-112580000D02*
X72830000Y-112580000D01*
X73230000Y-111460000D02*
X73230000Y-112580000D01*
X67710000Y-111460000D02*
X72830000Y-111460000D01*
X72830000Y-111460000D02*
X72830000Y-117620000D01*
X67710000Y-111460000D02*
X67710000Y-117620000D01*
X72830000Y-117620000D02*
G75*
G02X67710000Y-117620000I-2560000J0D01*
G01*
G04 #@! TO.C,D2*
X82040000Y-111330000D02*
X82040000Y-111330000D01*
X82040000Y-111460000D02*
X82040000Y-111330000D01*
X82040000Y-111460000D02*
X82040000Y-111460000D01*
X82040000Y-111330000D02*
X82040000Y-111460000D01*
X79500000Y-111330000D02*
X79500000Y-111330000D01*
X79500000Y-111460000D02*
X79500000Y-111330000D01*
X79500000Y-111460000D02*
X79500000Y-111460000D01*
X79500000Y-111330000D02*
X79500000Y-111460000D01*
X83330000Y-111460000D02*
X83730000Y-111460000D01*
X83330000Y-112580000D02*
X83330000Y-111460000D01*
X83730000Y-112580000D02*
X83330000Y-112580000D01*
X83730000Y-111460000D02*
X83730000Y-112580000D01*
X78210000Y-111460000D02*
X83330000Y-111460000D01*
X83330000Y-111460000D02*
X83330000Y-117620000D01*
X78210000Y-111460000D02*
X78210000Y-117620000D01*
X83330000Y-117620000D02*
G75*
G02X78210000Y-117620000I-2560000J0D01*
G01*
D11*
G04 #@! TO.C,SW1*
X54400000Y-108150000D02*
X61400000Y-108150000D01*
X61400000Y-108150000D02*
X61400000Y-115150000D01*
X61400000Y-115150000D02*
X54400000Y-115150000D01*
X54400000Y-115150000D02*
X54400000Y-108150000D01*
D18*
G04 #@! TO.C,R16*
X76710000Y-110212779D02*
X76710000Y-109887221D01*
X75690000Y-110212779D02*
X75690000Y-109887221D01*
G04 #@! TO.C,R15*
X65490000Y-110312779D02*
X65490000Y-109987221D01*
X66510000Y-110312779D02*
X66510000Y-109987221D01*
D11*
G04 #@! TO.C,U2*
X110250000Y-72550000D02*
X110250000Y-95550000D01*
X94250000Y-72550000D02*
X110250000Y-72550000D01*
X94250000Y-95550000D02*
X94250000Y-72550000D01*
X110250000Y-95550000D02*
X94250000Y-95550000D01*
D18*
G04 #@! TO.C,C52*
X115590000Y-78512779D02*
X115590000Y-78187221D01*
X116610000Y-78512779D02*
X116610000Y-78187221D01*
D11*
G04 #@! TO.C,U5*
X104775000Y-70740000D02*
X106175000Y-70740000D01*
X104775000Y-65640000D02*
X100625000Y-65640000D01*
X104775000Y-70790000D02*
X100625000Y-70790000D01*
X104775000Y-65640000D02*
X104775000Y-65785000D01*
X100625000Y-65640000D02*
X100625000Y-65785000D01*
X100625000Y-70790000D02*
X100625000Y-70645000D01*
X104775000Y-70790000D02*
X104775000Y-70740000D01*
D18*
G04 #@! TO.C,C51*
X71190000Y-78912779D02*
X71190000Y-78587221D01*
X72210000Y-78912779D02*
X72210000Y-78587221D01*
D11*
G04 #@! TO.C,J6*
X85700000Y-36050000D02*
X85700000Y-49050000D01*
X88300000Y-36050000D02*
X85700000Y-36050000D01*
X88300000Y-49050000D02*
X88300000Y-36050000D01*
X90800000Y-41050000D02*
X90800000Y-49050000D01*
X90800000Y-49050000D02*
X82800000Y-49050000D01*
X82800000Y-49050000D02*
X82800000Y-36050000D01*
X82800000Y-36050000D02*
X90800000Y-36050000D01*
X90800000Y-36050000D02*
X90800000Y-41050000D01*
G04 #@! TO.C,U13*
X154000000Y-96250000D02*
X138000000Y-96250000D01*
X138000000Y-96250000D02*
X138000000Y-73250000D01*
X138000000Y-73250000D02*
X154000000Y-73250000D01*
X154000000Y-73250000D02*
X154000000Y-96250000D01*
D18*
G04 #@! TO.C,C33*
X141515000Y-69737221D02*
X141515000Y-70062779D01*
X142535000Y-69737221D02*
X142535000Y-70062779D01*
G04 #@! TO.C,C26*
X126462779Y-98860000D02*
X126137221Y-98860000D01*
X126462779Y-97840000D02*
X126137221Y-97840000D01*
G04 #@! TO.C,C27*
X115137221Y-98960000D02*
X115462779Y-98960000D01*
X115137221Y-97940000D02*
X115462779Y-97940000D01*
G04 #@! TO.C,C31*
X115062221Y-84490000D02*
X115387779Y-84490000D01*
X115062221Y-85510000D02*
X115387779Y-85510000D01*
G04 #@! TO.C,C32*
X126037221Y-85560000D02*
X126362779Y-85560000D01*
X126037221Y-84540000D02*
X126362779Y-84540000D01*
G04 #@! TO.C,C34*
X135560000Y-80287221D02*
X135560000Y-80612779D01*
X134540000Y-80287221D02*
X134540000Y-80612779D01*
G04 #@! TO.C,C36*
X132840000Y-80287221D02*
X132840000Y-80612779D01*
X133860000Y-80287221D02*
X133860000Y-80612779D01*
G04 #@! TO.C,C35*
X117590000Y-78512779D02*
X117590000Y-78187221D01*
X118610000Y-78512779D02*
X118610000Y-78187221D01*
G04 #@! TO.C,C37*
X152612779Y-70140000D02*
X152287221Y-70140000D01*
X152612779Y-71160000D02*
X152287221Y-71160000D01*
G04 #@! TO.C,C38*
X120762779Y-70560000D02*
X120437221Y-70560000D01*
X120762779Y-69540000D02*
X120437221Y-69540000D01*
G04 #@! TO.C,C39*
X126390000Y-69187221D02*
X126390000Y-69512779D01*
X127410000Y-69187221D02*
X127410000Y-69512779D01*
G04 #@! TO.C,C40*
X124910000Y-69187221D02*
X124910000Y-69512779D01*
X123890000Y-69187221D02*
X123890000Y-69512779D01*
G04 #@! TO.C,C42*
X133310000Y-69162779D02*
X133310000Y-68837221D01*
X132290000Y-69162779D02*
X132290000Y-68837221D01*
G04 #@! TO.C,C41*
X133965000Y-69162779D02*
X133965000Y-68837221D01*
X134985000Y-69162779D02*
X134985000Y-68837221D01*
D11*
G04 #@! TO.C,U14*
X126450000Y-95625000D02*
X126450000Y-97150000D01*
X136825000Y-95625000D02*
X136825000Y-87875000D01*
X126175000Y-95625000D02*
X126175000Y-87875000D01*
X136825000Y-95625000D02*
X136470000Y-95625000D01*
X136825000Y-87875000D02*
X136470000Y-87875000D01*
X126175000Y-87875000D02*
X126530000Y-87875000D01*
X126175000Y-95625000D02*
X126450000Y-95625000D01*
G04 #@! TO.C,U15*
X113675000Y-95625000D02*
X113950000Y-95625000D01*
X113675000Y-87875000D02*
X114030000Y-87875000D01*
X124325000Y-87875000D02*
X123970000Y-87875000D01*
X124325000Y-95625000D02*
X123970000Y-95625000D01*
X113675000Y-95625000D02*
X113675000Y-87875000D01*
X124325000Y-95625000D02*
X124325000Y-87875000D01*
X113950000Y-95625000D02*
X113950000Y-97150000D01*
G04 #@! TO.C,U16*
X149075000Y-71325000D02*
X149075000Y-71275000D01*
X144925000Y-71325000D02*
X144925000Y-71180000D01*
X144925000Y-66175000D02*
X144925000Y-66320000D01*
X149075000Y-66175000D02*
X149075000Y-66320000D01*
X149075000Y-71325000D02*
X144925000Y-71325000D01*
X149075000Y-66175000D02*
X144925000Y-66175000D01*
X149075000Y-71275000D02*
X150475000Y-71275000D01*
G04 #@! TO.C,U18*
X130375000Y-77075000D02*
X130500000Y-77075000D01*
X130375000Y-72425000D02*
X130600000Y-72425000D01*
X135625000Y-72425000D02*
X135400000Y-72425000D01*
X135625000Y-77075000D02*
X135400000Y-77075000D01*
X130375000Y-77075000D02*
X130375000Y-72425000D01*
X135625000Y-77075000D02*
X135625000Y-72425000D01*
X130500000Y-77075000D02*
X130500000Y-78425000D01*
G04 #@! TO.C,U17*
X119376400Y-72404105D02*
X119401400Y-72404105D01*
X127426400Y-72404105D02*
X127401400Y-72404105D01*
X127426400Y-77054105D02*
X127401400Y-77054105D01*
X119326400Y-78129105D02*
X119326400Y-72404105D01*
X127426400Y-77054105D02*
X127426400Y-72404105D01*
D18*
G04 #@! TO.C,U19*
X115720000Y-75710000D02*
X116650000Y-75710000D01*
X118880000Y-75710000D02*
X117950000Y-75710000D01*
X118880000Y-75710000D02*
X118880000Y-73550000D01*
X115720000Y-75710000D02*
X115720000Y-74250000D01*
D11*
G04 #@! TO.C,U3*
X81099776Y-95483895D02*
X81099776Y-97008895D01*
X91474776Y-95483895D02*
X91474776Y-87733895D01*
X80824776Y-95483895D02*
X80824776Y-87733895D01*
X91474776Y-95483895D02*
X91119776Y-95483895D01*
X91474776Y-87733895D02*
X91119776Y-87733895D01*
X80824776Y-87733895D02*
X81179776Y-87733895D01*
X80824776Y-95483895D02*
X81099776Y-95483895D01*
D18*
G04 #@! TO.C,C2*
X70637221Y-98760000D02*
X70962779Y-98760000D01*
X70637221Y-97740000D02*
X70962779Y-97740000D01*
G04 #@! TO.C,C7*
X80737221Y-85560000D02*
X81062779Y-85560000D01*
X80737221Y-84540000D02*
X81062779Y-84540000D01*
G04 #@! TO.C,C6*
X70337221Y-85560000D02*
X70662779Y-85560000D01*
X70337221Y-84540000D02*
X70662779Y-84540000D01*
D11*
G04 #@! TO.C,U4*
X69469176Y-95556095D02*
X69469176Y-97081095D01*
X79844176Y-95556095D02*
X79844176Y-87806095D01*
X69194176Y-95556095D02*
X69194176Y-87806095D01*
X79844176Y-95556095D02*
X79489176Y-95556095D01*
X79844176Y-87806095D02*
X79489176Y-87806095D01*
X69194176Y-87806095D02*
X69549176Y-87806095D01*
X69194176Y-95556095D02*
X69469176Y-95556095D01*
D18*
G04 #@! TO.C,C1*
X81062779Y-97740000D02*
X80737221Y-97740000D01*
X81062779Y-98760000D02*
X80737221Y-98760000D01*
D11*
G04 #@! TO.C,U20*
X116703528Y-62532936D02*
X116753528Y-62532936D01*
X116703528Y-58382936D02*
X116848528Y-58382936D01*
X121853528Y-58382936D02*
X121708528Y-58382936D01*
X121853528Y-62532936D02*
X121708528Y-62532936D01*
X116703528Y-62532936D02*
X116703528Y-58382936D01*
X121853528Y-62532936D02*
X121853528Y-58382936D01*
X116753528Y-62532936D02*
X116753528Y-63932936D01*
D18*
G04 #@! TO.C,C13*
X75962779Y-69640000D02*
X75637221Y-69640000D01*
X75962779Y-70660000D02*
X75637221Y-70660000D01*
D11*
G04 #@! TO.C,J1*
X121670000Y-109390000D02*
X121670000Y-118290000D01*
X121670000Y-118290000D02*
X93750000Y-118290000D01*
X93750000Y-118290000D02*
X93750000Y-109390000D01*
X93750000Y-109390000D02*
X121670000Y-109390000D01*
X109935000Y-118290000D02*
X109935000Y-111690000D01*
X109935000Y-111690000D02*
X105485000Y-111690000D01*
X105485000Y-111690000D02*
X105485000Y-118290000D01*
X109380000Y-111690000D02*
X109380000Y-117890000D01*
X109380000Y-117890000D02*
X109180000Y-118090000D01*
X109180000Y-118090000D02*
X108780000Y-118090000D01*
X108780000Y-118090000D02*
X108580000Y-117890000D01*
X108580000Y-117890000D02*
X108580000Y-111690000D01*
X106840000Y-111690000D02*
X106840000Y-117890000D01*
X106840000Y-117890000D02*
X106640000Y-118090000D01*
X106640000Y-118090000D02*
X106240000Y-118090000D01*
X106240000Y-118090000D02*
X106040000Y-117890000D01*
X106040000Y-117890000D02*
X106040000Y-111690000D01*
X117600000Y-117550000D02*
X115600000Y-117550000D01*
X115600000Y-117550000D02*
X116600000Y-116050000D01*
X116600000Y-116050000D02*
X117600000Y-117550000D01*
X117000000Y-106150000D02*
X117000000Y-106490000D01*
X116200000Y-106150000D02*
X116200000Y-106490000D01*
X117000000Y-108690000D02*
X117000000Y-109390000D01*
X116200000Y-108690000D02*
X116200000Y-109390000D01*
X114460000Y-106150000D02*
X114460000Y-106490000D01*
X113660000Y-106150000D02*
X113660000Y-106490000D01*
X114460000Y-108690000D02*
X114460000Y-109390000D01*
X113660000Y-108690000D02*
X113660000Y-109390000D01*
X111920000Y-106150000D02*
X111920000Y-106490000D01*
X111120000Y-106150000D02*
X111120000Y-106490000D01*
X111920000Y-108690000D02*
X111920000Y-109390000D01*
X111120000Y-108690000D02*
X111120000Y-109390000D01*
X109380000Y-106150000D02*
X109380000Y-106490000D01*
X108580000Y-106150000D02*
X108580000Y-106490000D01*
X109380000Y-108690000D02*
X109380000Y-109390000D01*
X108580000Y-108690000D02*
X108580000Y-109390000D01*
X106840000Y-106150000D02*
X106840000Y-106490000D01*
X106040000Y-106150000D02*
X106040000Y-106490000D01*
X106840000Y-108690000D02*
X106840000Y-109390000D01*
X106040000Y-108690000D02*
X106040000Y-109390000D01*
X104300000Y-106150000D02*
X104300000Y-106490000D01*
X103500000Y-106150000D02*
X103500000Y-106490000D01*
X104300000Y-108690000D02*
X104300000Y-109390000D01*
X103500000Y-108690000D02*
X103500000Y-109390000D01*
X101760000Y-106150000D02*
X101760000Y-106490000D01*
X100960000Y-106150000D02*
X100960000Y-106490000D01*
X101760000Y-108690000D02*
X101760000Y-109390000D01*
X100960000Y-108690000D02*
X100960000Y-109390000D01*
X99220000Y-106150000D02*
X99220000Y-106490000D01*
X98420000Y-106150000D02*
X98420000Y-106490000D01*
X99220000Y-108690000D02*
X99220000Y-109390000D01*
X98420000Y-108690000D02*
X98420000Y-109390000D01*
G04 #@! TO.C,U6*
X74475000Y-72425000D02*
X74500000Y-72425000D01*
X82525000Y-72425000D02*
X82500000Y-72425000D01*
X82525000Y-77075000D02*
X82500000Y-77075000D01*
X74425000Y-78150000D02*
X74425000Y-72425000D01*
X82525000Y-77075000D02*
X82525000Y-72425000D01*
G04 #@! TO.C,U1*
X39490000Y-97620000D02*
X42030000Y-97620000D01*
X42030000Y-97620000D02*
X42030000Y-95080000D01*
X42030000Y-95080000D02*
X39490000Y-95080000D01*
X39490000Y-95080000D02*
X39490000Y-97620000D01*
X48380000Y-90000000D02*
X48380000Y-93810000D01*
X48380000Y-93810000D02*
X45840000Y-93810000D01*
X45840000Y-93810000D02*
X45840000Y-90000000D01*
X45840000Y-90000000D02*
X48380000Y-90000000D01*
X49650000Y-76030000D02*
X36950000Y-76030000D01*
X36950000Y-88730000D02*
X49650000Y-88730000D01*
X49650000Y-88730000D02*
X49650000Y-76030000D01*
X36950000Y-88730000D02*
X36950000Y-76030000D01*
X48380000Y-54440000D02*
X48380000Y-53170000D01*
X47110000Y-54440000D02*
X47110000Y-53170000D01*
X45840000Y-54440000D02*
X45840000Y-53170000D01*
X44570000Y-54440000D02*
X44570000Y-53170000D01*
X43300000Y-54440000D02*
X43300000Y-53170000D01*
X42030000Y-54440000D02*
X42030000Y-53170000D01*
X40760000Y-54440000D02*
X40760000Y-53170000D01*
X39490000Y-54440000D02*
X39490000Y-53170000D01*
X38220000Y-54440000D02*
X38220000Y-53170000D01*
X49650000Y-53170000D02*
X48380000Y-54440000D01*
X48380000Y-54440000D02*
X38220000Y-54440000D01*
X38220000Y-54440000D02*
X36950000Y-53170000D01*
X36950000Y-53170000D02*
X36950000Y-65870000D01*
X36950000Y-65870000D02*
X49650000Y-65870000D01*
X49650000Y-65870000D02*
X49650000Y-53170000D01*
X34410000Y-53170000D02*
X34410000Y-114130000D01*
X52190000Y-114130000D02*
X52190000Y-53170000D01*
X47110000Y-114130000D02*
X47110000Y-115400000D01*
X47110000Y-115400000D02*
X39490000Y-115400000D01*
X39490000Y-115400000D02*
X39490000Y-114130000D01*
X47110000Y-109050000D02*
X39490000Y-109050000D01*
X39490000Y-109050000D02*
X39490000Y-114130000D01*
X47110000Y-109050000D02*
X47110000Y-114130000D01*
X40760000Y-69680000D02*
X45840000Y-69680000D01*
X45840000Y-69680000D02*
X45840000Y-72220000D01*
X45840000Y-72220000D02*
X40760000Y-72220000D01*
X40760000Y-72220000D02*
X40760000Y-69680000D01*
X34410000Y-53170000D02*
X52190000Y-53170000D01*
X52190000Y-114130000D02*
X34410000Y-114130000D01*
G04 #@! TO.C,J9*
X136200000Y-36250000D02*
X136200000Y-50650000D01*
X136200000Y-50650000D02*
X151000000Y-50650000D01*
X151000000Y-50650000D02*
X151000000Y-36250000D01*
X151000000Y-36250000D02*
X136200000Y-36250000D01*
X150000000Y-27550000D02*
X137000000Y-27550000D01*
X137000000Y-36250000D02*
X137000000Y-27550000D01*
X150000000Y-36250000D02*
X150000000Y-27550000D01*
X149000000Y-27550000D02*
X149000000Y-15550000D01*
X138000000Y-15550000D02*
X138000000Y-27550000D01*
X149000000Y-15550000D02*
X138000000Y-15550000D01*
G04 #@! TO.C,J3*
X68300000Y-15150000D02*
X57300000Y-15150000D01*
X57300000Y-15150000D02*
X57300000Y-27150000D01*
X68300000Y-27150000D02*
X68300000Y-15150000D01*
X69300000Y-35850000D02*
X69300000Y-27150000D01*
X56300000Y-35850000D02*
X56300000Y-27150000D01*
X69300000Y-27150000D02*
X56300000Y-27150000D01*
X70300000Y-35850000D02*
X55500000Y-35850000D01*
X70300000Y-50250000D02*
X70300000Y-35850000D01*
X55500000Y-50250000D02*
X70300000Y-50250000D01*
X55500000Y-35850000D02*
X55500000Y-50250000D01*
G04 #@! TO.C,J7*
X107800000Y-15350000D02*
X96800000Y-15350000D01*
X96800000Y-15350000D02*
X96800000Y-27350000D01*
X107800000Y-27350000D02*
X107800000Y-15350000D01*
X108800000Y-36050000D02*
X108800000Y-27350000D01*
X95800000Y-36050000D02*
X95800000Y-27350000D01*
X108800000Y-27350000D02*
X95800000Y-27350000D01*
X109800000Y-36050000D02*
X95000000Y-36050000D01*
X109800000Y-50450000D02*
X109800000Y-36050000D01*
X95000000Y-50450000D02*
X109800000Y-50450000D01*
X95000000Y-36050000D02*
X95000000Y-50450000D01*
G04 #@! TO.C,J2*
X32700000Y-35850000D02*
X32700000Y-50250000D01*
X32700000Y-50250000D02*
X47500000Y-50250000D01*
X47500000Y-50250000D02*
X47500000Y-35850000D01*
X47500000Y-35850000D02*
X32700000Y-35850000D01*
X46500000Y-27150000D02*
X33500000Y-27150000D01*
X33500000Y-35850000D02*
X33500000Y-27150000D01*
X46500000Y-35850000D02*
X46500000Y-27150000D01*
X45500000Y-27150000D02*
X45500000Y-15150000D01*
X34500000Y-15150000D02*
X34500000Y-27150000D01*
X45500000Y-15150000D02*
X34500000Y-15150000D01*
D18*
G04 #@! TO.C,C10*
X88710000Y-80287221D02*
X88710000Y-80612779D01*
X87690000Y-80287221D02*
X87690000Y-80612779D01*
G04 #@! TO.C,C43*
X117674721Y-56110000D02*
X118000279Y-56110000D01*
X117674721Y-55090000D02*
X118000279Y-55090000D01*
G04 #@! TO.C,C44*
X121937221Y-64840000D02*
X122262779Y-64840000D01*
X121937221Y-65860000D02*
X122262779Y-65860000D01*
G04 #@! TO.C,C18*
X73037221Y-56960000D02*
X73362779Y-56960000D01*
X73037221Y-55940000D02*
X73362779Y-55940000D01*
G04 #@! TO.C,C20*
X77237221Y-65440000D02*
X77562779Y-65440000D01*
X77237221Y-66460000D02*
X77562779Y-66460000D01*
D11*
G04 #@! TO.C,U9*
X72071170Y-63248306D02*
X72121170Y-63248306D01*
X72071170Y-59098306D02*
X72216170Y-59098306D01*
X77221170Y-59098306D02*
X77076170Y-59098306D01*
X77221170Y-63248306D02*
X77076170Y-63248306D01*
X72071170Y-63248306D02*
X72071170Y-59098306D01*
X77221170Y-63248306D02*
X77221170Y-59098306D01*
X72121170Y-63248306D02*
X72121170Y-64648306D01*
D18*
G04 #@! TO.C,R1*
X73037221Y-66460000D02*
X73362779Y-66460000D01*
X73037221Y-65440000D02*
X73362779Y-65440000D01*
G04 #@! TO.C,R8*
X117637221Y-65760000D02*
X117962779Y-65760000D01*
X117637221Y-64740000D02*
X117962779Y-64740000D01*
G04 #@! TO.C,R3*
X70199170Y-61412779D02*
X70199170Y-61087221D01*
X71219170Y-61412779D02*
X71219170Y-61087221D01*
G04 #@! TO.C,R10*
X114590000Y-60512779D02*
X114590000Y-60187221D01*
X115610000Y-60512779D02*
X115610000Y-60187221D01*
G04 #@! TO.C,R13*
X136337221Y-55960000D02*
X136662779Y-55960000D01*
X136337221Y-54940000D02*
X136662779Y-54940000D01*
D11*
G04 #@! TO.C,U7*
X85557170Y-76894306D02*
X85557170Y-78244306D01*
X90682170Y-76894306D02*
X90682170Y-72244306D01*
X85432170Y-76894306D02*
X85432170Y-72244306D01*
X90682170Y-76894306D02*
X90457170Y-76894306D01*
X90682170Y-72244306D02*
X90457170Y-72244306D01*
X85432170Y-72244306D02*
X85657170Y-72244306D01*
X85432170Y-76894306D02*
X85557170Y-76894306D01*
D18*
G04 #@! TO.C,C8*
X97490000Y-69187221D02*
X97490000Y-69512779D01*
X98510000Y-69187221D02*
X98510000Y-69512779D01*
G04 #@! TO.C,C12*
X108362779Y-69640000D02*
X108037221Y-69640000D01*
X108362779Y-70660000D02*
X108037221Y-70660000D01*
G04 #@! TO.C,C15*
X78990000Y-69287221D02*
X78990000Y-69612779D01*
X80010000Y-69287221D02*
X80010000Y-69612779D01*
G04 #@! TO.C,C9*
X90310000Y-80287221D02*
X90310000Y-80612779D01*
X89290000Y-80287221D02*
X89290000Y-80612779D01*
G04 #@! TO.C,C14*
X81590000Y-69287221D02*
X81590000Y-69612779D01*
X82610000Y-69287221D02*
X82610000Y-69612779D01*
G04 #@! TO.C,C16*
X90010000Y-69012779D02*
X90010000Y-68687221D01*
X88990000Y-69012779D02*
X88990000Y-68687221D01*
G04 #@! TO.C,C17*
X88410000Y-69012779D02*
X88410000Y-68687221D01*
X87390000Y-69012779D02*
X87390000Y-68687221D01*
G04 #@! TO.C,C45*
X124487221Y-56260000D02*
X124812779Y-56260000D01*
X124487221Y-55240000D02*
X124812779Y-55240000D01*
G04 #@! TO.C,C46*
X129690000Y-63787221D02*
X129690000Y-64112779D01*
X130710000Y-63787221D02*
X130710000Y-64112779D01*
G04 #@! TO.C,C21*
X84290000Y-64387221D02*
X84290000Y-64712779D01*
X85310000Y-64387221D02*
X85310000Y-64712779D01*
G04 #@! TO.C,C19*
X79549721Y-56860000D02*
X79875279Y-56860000D01*
X79549721Y-55840000D02*
X79875279Y-55840000D01*
G04 #@! TO.C,C48*
X139362779Y-64640000D02*
X139037221Y-64640000D01*
X139362779Y-65660000D02*
X139037221Y-65660000D01*
G04 #@! TO.C,C49*
X133010000Y-64112779D02*
X133010000Y-63787221D01*
X131990000Y-64112779D02*
X131990000Y-63787221D01*
G04 #@! TO.C,C47*
X152716104Y-60344002D02*
X152390546Y-60344002D01*
X152716104Y-61364002D02*
X152390546Y-61364002D01*
G04 #@! TO.C,C50*
X142649325Y-61778781D02*
X142649325Y-61453223D01*
X141629325Y-61778781D02*
X141629325Y-61453223D01*
G04 #@! TO.C,C23*
X94390255Y-65125542D02*
X94064697Y-65125542D01*
X94390255Y-66145542D02*
X94064697Y-66145542D01*
G04 #@! TO.C,C24*
X88310000Y-64512779D02*
X88310000Y-64187221D01*
X87290000Y-64512779D02*
X87290000Y-64187221D01*
G04 #@! TO.C,C22*
X108462779Y-60440000D02*
X108137221Y-60440000D01*
X108462779Y-61460000D02*
X108137221Y-61460000D01*
G04 #@! TO.C,C25*
X98572585Y-61793748D02*
X98572585Y-61468190D01*
X97552585Y-61793748D02*
X97552585Y-61468190D01*
G04 #@! TO.C,R2*
X81162779Y-66240000D02*
X80837221Y-66240000D01*
X81162779Y-67260000D02*
X80837221Y-67260000D01*
G04 #@! TO.C,R9*
X126062779Y-65640000D02*
X125737221Y-65640000D01*
X126062779Y-66660000D02*
X125737221Y-66660000D01*
G04 #@! TO.C,R5*
X87910000Y-61112779D02*
X87910000Y-60787221D01*
X86890000Y-61112779D02*
X86890000Y-60787221D01*
G04 #@! TO.C,R11*
X130568928Y-60795515D02*
X130568928Y-60469957D01*
X129548928Y-60795515D02*
X129548928Y-60469957D01*
G04 #@! TO.C,R4*
X85710000Y-61112779D02*
X85710000Y-60787221D01*
X84690000Y-61112779D02*
X84690000Y-60787221D01*
G04 #@! TO.C,R12*
X132677128Y-60668615D02*
X132677128Y-60343057D01*
X131657128Y-60668615D02*
X131657128Y-60343057D01*
G04 #@! TO.C,R6*
X91364697Y-56645542D02*
X91690255Y-56645542D01*
X91364697Y-55625542D02*
X91690255Y-55625542D01*
G04 #@! TO.C,R14*
X151490000Y-54687221D02*
X151490000Y-55012779D01*
X152510000Y-54687221D02*
X152510000Y-55012779D01*
G04 #@! TO.C,R7*
X108110000Y-55212779D02*
X108110000Y-54887221D01*
X107090000Y-55212779D02*
X107090000Y-54887221D01*
D11*
G04 #@! TO.C,U10*
X78621170Y-63160306D02*
X78621170Y-64560306D01*
X83721170Y-63160306D02*
X83721170Y-59010306D01*
X78571170Y-63160306D02*
X78571170Y-59010306D01*
X83721170Y-63160306D02*
X83576170Y-63160306D01*
X83721170Y-59010306D02*
X83576170Y-59010306D01*
X78571170Y-59010306D02*
X78716170Y-59010306D01*
X78571170Y-63160306D02*
X78621170Y-63160306D01*
G04 #@! TO.C,U21*
X123571528Y-62656936D02*
X123571528Y-64056936D01*
X128671528Y-62656936D02*
X128671528Y-58506936D01*
X123521528Y-62656936D02*
X123521528Y-58506936D01*
X128671528Y-62656936D02*
X128526528Y-62656936D01*
X128671528Y-58506936D02*
X128526528Y-58506936D01*
X123521528Y-58506936D02*
X123666528Y-58506936D01*
X123521528Y-62656936D02*
X123571528Y-62656936D01*
G04 #@! TO.C,U22*
X139031505Y-58356524D02*
X139031505Y-56956524D01*
X133931505Y-58356524D02*
X133931505Y-62506524D01*
X139081505Y-58356524D02*
X139081505Y-62506524D01*
X133931505Y-58356524D02*
X134076505Y-58356524D01*
X133931505Y-62506524D02*
X134076505Y-62506524D01*
X139081505Y-62506524D02*
X138936505Y-62506524D01*
X139081505Y-58356524D02*
X139031505Y-58356524D01*
G04 #@! TO.C,U23*
X149294325Y-63872002D02*
X150669325Y-63872002D01*
X149294325Y-53747002D02*
X145144325Y-53747002D01*
X149294325Y-63897002D02*
X145144325Y-63897002D01*
X149294325Y-53747002D02*
X149294325Y-53852002D01*
X145144325Y-53747002D02*
X145144325Y-53852002D01*
X145144325Y-63897002D02*
X145144325Y-63792002D01*
X149294325Y-63897002D02*
X149294325Y-63872002D01*
G04 #@! TO.C,U12*
X104894891Y-64080799D02*
X106269891Y-64080799D01*
X104894891Y-53955799D02*
X100744891Y-53955799D01*
X104894891Y-64105799D02*
X100744891Y-64105799D01*
X104894891Y-53955799D02*
X104894891Y-54060799D01*
X100744891Y-53955799D02*
X100744891Y-54060799D01*
X100744891Y-64105799D02*
X100744891Y-64000799D01*
X104894891Y-64105799D02*
X104894891Y-64080799D01*
D18*
G04 #@! TO.C,C11*
X73910000Y-78912779D02*
X73910000Y-78587221D01*
X72890000Y-78912779D02*
X72890000Y-78587221D01*
G04 #@! TO.C,U8*
X70819170Y-76157306D02*
X70819170Y-74697306D01*
X73979170Y-76157306D02*
X73979170Y-73997306D01*
X73979170Y-76157306D02*
X73049170Y-76157306D01*
X70819170Y-76157306D02*
X71749170Y-76157306D01*
D11*
G04 #@! TO.C,U11*
X94052476Y-58860542D02*
X94052476Y-57460542D01*
X88952476Y-58860542D02*
X88952476Y-63010542D01*
X94102476Y-58860542D02*
X94102476Y-63010542D01*
X88952476Y-58860542D02*
X89097476Y-58860542D01*
X88952476Y-63010542D02*
X89097476Y-63010542D01*
X94102476Y-63010542D02*
X93957476Y-63010542D01*
X94102476Y-58860542D02*
X94052476Y-58860542D01*
G04 #@! TO.C,J8*
X126800000Y-36250000D02*
X126800000Y-49250000D01*
X129400000Y-36250000D02*
X126800000Y-36250000D01*
X129400000Y-49250000D02*
X129400000Y-36250000D01*
X131900000Y-41250000D02*
X131900000Y-49250000D01*
X131900000Y-49250000D02*
X123900000Y-49250000D01*
X123900000Y-49250000D02*
X123900000Y-36250000D01*
X123900000Y-36250000D02*
X131900000Y-36250000D01*
X131900000Y-36250000D02*
X131900000Y-41250000D01*
G04 #@! TO.C,D1*
X69531904Y-108742380D02*
X69531904Y-107742380D01*
X69770000Y-107742380D01*
X69912857Y-107790000D01*
X70008095Y-107885238D01*
X70055714Y-107980476D01*
X70103333Y-108170952D01*
X70103333Y-108313809D01*
X70055714Y-108504285D01*
X70008095Y-108599523D01*
X69912857Y-108694761D01*
X69770000Y-108742380D01*
X69531904Y-108742380D01*
X71055714Y-108742380D02*
X70484285Y-108742380D01*
X70770000Y-108742380D02*
X70770000Y-107742380D01*
X70674761Y-107885238D01*
X70579523Y-107980476D01*
X70484285Y-108028095D01*
G04 #@! TO.C,D2*
X80031904Y-108742380D02*
X80031904Y-107742380D01*
X80270000Y-107742380D01*
X80412857Y-107790000D01*
X80508095Y-107885238D01*
X80555714Y-107980476D01*
X80603333Y-108170952D01*
X80603333Y-108313809D01*
X80555714Y-108504285D01*
X80508095Y-108599523D01*
X80412857Y-108694761D01*
X80270000Y-108742380D01*
X80031904Y-108742380D01*
X80984285Y-107837619D02*
X81031904Y-107790000D01*
X81127142Y-107742380D01*
X81365238Y-107742380D01*
X81460476Y-107790000D01*
X81508095Y-107837619D01*
X81555714Y-107932857D01*
X81555714Y-108028095D01*
X81508095Y-108170952D01*
X80936666Y-108742380D01*
X81555714Y-108742380D01*
G04 #@! TO.C,SW1*
X56566666Y-108054761D02*
X56709523Y-108102380D01*
X56947619Y-108102380D01*
X57042857Y-108054761D01*
X57090476Y-108007142D01*
X57138095Y-107911904D01*
X57138095Y-107816666D01*
X57090476Y-107721428D01*
X57042857Y-107673809D01*
X56947619Y-107626190D01*
X56757142Y-107578571D01*
X56661904Y-107530952D01*
X56614285Y-107483333D01*
X56566666Y-107388095D01*
X56566666Y-107292857D01*
X56614285Y-107197619D01*
X56661904Y-107150000D01*
X56757142Y-107102380D01*
X56995238Y-107102380D01*
X57138095Y-107150000D01*
X57471428Y-107102380D02*
X57709523Y-108102380D01*
X57900000Y-107388095D01*
X58090476Y-108102380D01*
X58328571Y-107102380D01*
X59233333Y-108102380D02*
X58661904Y-108102380D01*
X58947619Y-108102380D02*
X58947619Y-107102380D01*
X58852380Y-107245238D01*
X58757142Y-107340476D01*
X58661904Y-107388095D01*
G04 #@! TO.C,R16*
X75222380Y-110692857D02*
X74746190Y-111026190D01*
X75222380Y-111264285D02*
X74222380Y-111264285D01*
X74222380Y-110883333D01*
X74270000Y-110788095D01*
X74317619Y-110740476D01*
X74412857Y-110692857D01*
X74555714Y-110692857D01*
X74650952Y-110740476D01*
X74698571Y-110788095D01*
X74746190Y-110883333D01*
X74746190Y-111264285D01*
X75222380Y-109740476D02*
X75222380Y-110311904D01*
X75222380Y-110026190D02*
X74222380Y-110026190D01*
X74365238Y-110121428D01*
X74460476Y-110216666D01*
X74508095Y-110311904D01*
X74222380Y-108883333D02*
X74222380Y-109073809D01*
X74270000Y-109169047D01*
X74317619Y-109216666D01*
X74460476Y-109311904D01*
X74650952Y-109359523D01*
X75031904Y-109359523D01*
X75127142Y-109311904D01*
X75174761Y-109264285D01*
X75222380Y-109169047D01*
X75222380Y-108978571D01*
X75174761Y-108883333D01*
X75127142Y-108835714D01*
X75031904Y-108788095D01*
X74793809Y-108788095D01*
X74698571Y-108835714D01*
X74650952Y-108883333D01*
X74603333Y-108978571D01*
X74603333Y-109169047D01*
X74650952Y-109264285D01*
X74698571Y-109311904D01*
X74793809Y-109359523D01*
G04 #@! TO.C,R15*
X65022380Y-110792857D02*
X64546190Y-111126190D01*
X65022380Y-111364285D02*
X64022380Y-111364285D01*
X64022380Y-110983333D01*
X64070000Y-110888095D01*
X64117619Y-110840476D01*
X64212857Y-110792857D01*
X64355714Y-110792857D01*
X64450952Y-110840476D01*
X64498571Y-110888095D01*
X64546190Y-110983333D01*
X64546190Y-111364285D01*
X65022380Y-109840476D02*
X65022380Y-110411904D01*
X65022380Y-110126190D02*
X64022380Y-110126190D01*
X64165238Y-110221428D01*
X64260476Y-110316666D01*
X64308095Y-110411904D01*
X64022380Y-108935714D02*
X64022380Y-109411904D01*
X64498571Y-109459523D01*
X64450952Y-109411904D01*
X64403333Y-109316666D01*
X64403333Y-109078571D01*
X64450952Y-108983333D01*
X64498571Y-108935714D01*
X64593809Y-108888095D01*
X64831904Y-108888095D01*
X64927142Y-108935714D01*
X64974761Y-108983333D01*
X65022380Y-109078571D01*
X65022380Y-109316666D01*
X64974761Y-109411904D01*
X64927142Y-109459523D01*
G04 #@! TO.C,U2*
X110952380Y-84011904D02*
X111761904Y-84011904D01*
X111857142Y-83964285D01*
X111904761Y-83916666D01*
X111952380Y-83821428D01*
X111952380Y-83630952D01*
X111904761Y-83535714D01*
X111857142Y-83488095D01*
X111761904Y-83440476D01*
X110952380Y-83440476D01*
X111047619Y-83011904D02*
X111000000Y-82964285D01*
X110952380Y-82869047D01*
X110952380Y-82630952D01*
X111000000Y-82535714D01*
X111047619Y-82488095D01*
X111142857Y-82440476D01*
X111238095Y-82440476D01*
X111380952Y-82488095D01*
X111952380Y-83059523D01*
X111952380Y-82440476D01*
G04 #@! TO.C,C52*
X116457142Y-81892857D02*
X116504761Y-81940476D01*
X116552380Y-82083333D01*
X116552380Y-82178571D01*
X116504761Y-82321428D01*
X116409523Y-82416666D01*
X116314285Y-82464285D01*
X116123809Y-82511904D01*
X115980952Y-82511904D01*
X115790476Y-82464285D01*
X115695238Y-82416666D01*
X115600000Y-82321428D01*
X115552380Y-82178571D01*
X115552380Y-82083333D01*
X115600000Y-81940476D01*
X115647619Y-81892857D01*
X115552380Y-80988095D02*
X115552380Y-81464285D01*
X116028571Y-81511904D01*
X115980952Y-81464285D01*
X115933333Y-81369047D01*
X115933333Y-81130952D01*
X115980952Y-81035714D01*
X116028571Y-80988095D01*
X116123809Y-80940476D01*
X116361904Y-80940476D01*
X116457142Y-80988095D01*
X116504761Y-81035714D01*
X116552380Y-81130952D01*
X116552380Y-81369047D01*
X116504761Y-81464285D01*
X116457142Y-81511904D01*
X115647619Y-80559523D02*
X115600000Y-80511904D01*
X115552380Y-80416666D01*
X115552380Y-80178571D01*
X115600000Y-80083333D01*
X115647619Y-80035714D01*
X115742857Y-79988095D01*
X115838095Y-79988095D01*
X115980952Y-80035714D01*
X116552380Y-80607142D01*
X116552380Y-79988095D01*
G04 #@! TO.C,U5*
X101938095Y-64502380D02*
X101938095Y-65311904D01*
X101985714Y-65407142D01*
X102033333Y-65454761D01*
X102128571Y-65502380D01*
X102319047Y-65502380D01*
X102414285Y-65454761D01*
X102461904Y-65407142D01*
X102509523Y-65311904D01*
X102509523Y-64502380D01*
X103461904Y-64502380D02*
X102985714Y-64502380D01*
X102938095Y-64978571D01*
X102985714Y-64930952D01*
X103080952Y-64883333D01*
X103319047Y-64883333D01*
X103414285Y-64930952D01*
X103461904Y-64978571D01*
X103509523Y-65073809D01*
X103509523Y-65311904D01*
X103461904Y-65407142D01*
X103414285Y-65454761D01*
X103319047Y-65502380D01*
X103080952Y-65502380D01*
X102985714Y-65454761D01*
X102938095Y-65407142D01*
G04 #@! TO.C,C51*
X72057142Y-82192857D02*
X72104761Y-82240476D01*
X72152380Y-82383333D01*
X72152380Y-82478571D01*
X72104761Y-82621428D01*
X72009523Y-82716666D01*
X71914285Y-82764285D01*
X71723809Y-82811904D01*
X71580952Y-82811904D01*
X71390476Y-82764285D01*
X71295238Y-82716666D01*
X71200000Y-82621428D01*
X71152380Y-82478571D01*
X71152380Y-82383333D01*
X71200000Y-82240476D01*
X71247619Y-82192857D01*
X71152380Y-81288095D02*
X71152380Y-81764285D01*
X71628571Y-81811904D01*
X71580952Y-81764285D01*
X71533333Y-81669047D01*
X71533333Y-81430952D01*
X71580952Y-81335714D01*
X71628571Y-81288095D01*
X71723809Y-81240476D01*
X71961904Y-81240476D01*
X72057142Y-81288095D01*
X72104761Y-81335714D01*
X72152380Y-81430952D01*
X72152380Y-81669047D01*
X72104761Y-81764285D01*
X72057142Y-81811904D01*
X72152380Y-80288095D02*
X72152380Y-80859523D01*
X72152380Y-80573809D02*
X71152380Y-80573809D01*
X71295238Y-80669047D01*
X71390476Y-80764285D01*
X71438095Y-80859523D01*
G04 #@! TO.C,J6*
X83866666Y-42802380D02*
X83866666Y-43516666D01*
X83819047Y-43659523D01*
X83723809Y-43754761D01*
X83580952Y-43802380D01*
X83485714Y-43802380D01*
X84771428Y-42802380D02*
X84580952Y-42802380D01*
X84485714Y-42850000D01*
X84438095Y-42897619D01*
X84342857Y-43040476D01*
X84295238Y-43230952D01*
X84295238Y-43611904D01*
X84342857Y-43707142D01*
X84390476Y-43754761D01*
X84485714Y-43802380D01*
X84676190Y-43802380D01*
X84771428Y-43754761D01*
X84819047Y-43707142D01*
X84866666Y-43611904D01*
X84866666Y-43373809D01*
X84819047Y-43278571D01*
X84771428Y-43230952D01*
X84676190Y-43183333D01*
X84485714Y-43183333D01*
X84390476Y-43230952D01*
X84342857Y-43278571D01*
X84295238Y-43373809D01*
G04 #@! TO.C,U13*
X153952380Y-84988095D02*
X154761904Y-84988095D01*
X154857142Y-84940476D01*
X154904761Y-84892857D01*
X154952380Y-84797619D01*
X154952380Y-84607142D01*
X154904761Y-84511904D01*
X154857142Y-84464285D01*
X154761904Y-84416666D01*
X153952380Y-84416666D01*
X154952380Y-83416666D02*
X154952380Y-83988095D01*
X154952380Y-83702380D02*
X153952380Y-83702380D01*
X154095238Y-83797619D01*
X154190476Y-83892857D01*
X154238095Y-83988095D01*
X153952380Y-83083333D02*
X153952380Y-82464285D01*
X154333333Y-82797619D01*
X154333333Y-82654761D01*
X154380952Y-82559523D01*
X154428571Y-82511904D01*
X154523809Y-82464285D01*
X154761904Y-82464285D01*
X154857142Y-82511904D01*
X154904761Y-82559523D01*
X154952380Y-82654761D01*
X154952380Y-82940476D01*
X154904761Y-83035714D01*
X154857142Y-83083333D01*
G04 #@! TO.C,C33*
X140982142Y-70642857D02*
X141029761Y-70690476D01*
X141077380Y-70833333D01*
X141077380Y-70928571D01*
X141029761Y-71071428D01*
X140934523Y-71166666D01*
X140839285Y-71214285D01*
X140648809Y-71261904D01*
X140505952Y-71261904D01*
X140315476Y-71214285D01*
X140220238Y-71166666D01*
X140125000Y-71071428D01*
X140077380Y-70928571D01*
X140077380Y-70833333D01*
X140125000Y-70690476D01*
X140172619Y-70642857D01*
X140077380Y-70309523D02*
X140077380Y-69690476D01*
X140458333Y-70023809D01*
X140458333Y-69880952D01*
X140505952Y-69785714D01*
X140553571Y-69738095D01*
X140648809Y-69690476D01*
X140886904Y-69690476D01*
X140982142Y-69738095D01*
X141029761Y-69785714D01*
X141077380Y-69880952D01*
X141077380Y-70166666D01*
X141029761Y-70261904D01*
X140982142Y-70309523D01*
X140077380Y-69357142D02*
X140077380Y-68738095D01*
X140458333Y-69071428D01*
X140458333Y-68928571D01*
X140505952Y-68833333D01*
X140553571Y-68785714D01*
X140648809Y-68738095D01*
X140886904Y-68738095D01*
X140982142Y-68785714D01*
X141029761Y-68833333D01*
X141077380Y-68928571D01*
X141077380Y-69214285D01*
X141029761Y-69309523D01*
X140982142Y-69357142D01*
G04 #@! TO.C,C26*
X125657142Y-100137142D02*
X125609523Y-100184761D01*
X125466666Y-100232380D01*
X125371428Y-100232380D01*
X125228571Y-100184761D01*
X125133333Y-100089523D01*
X125085714Y-99994285D01*
X125038095Y-99803809D01*
X125038095Y-99660952D01*
X125085714Y-99470476D01*
X125133333Y-99375238D01*
X125228571Y-99280000D01*
X125371428Y-99232380D01*
X125466666Y-99232380D01*
X125609523Y-99280000D01*
X125657142Y-99327619D01*
X126038095Y-99327619D02*
X126085714Y-99280000D01*
X126180952Y-99232380D01*
X126419047Y-99232380D01*
X126514285Y-99280000D01*
X126561904Y-99327619D01*
X126609523Y-99422857D01*
X126609523Y-99518095D01*
X126561904Y-99660952D01*
X125990476Y-100232380D01*
X126609523Y-100232380D01*
X127466666Y-99232380D02*
X127276190Y-99232380D01*
X127180952Y-99280000D01*
X127133333Y-99327619D01*
X127038095Y-99470476D01*
X126990476Y-99660952D01*
X126990476Y-100041904D01*
X127038095Y-100137142D01*
X127085714Y-100184761D01*
X127180952Y-100232380D01*
X127371428Y-100232380D01*
X127466666Y-100184761D01*
X127514285Y-100137142D01*
X127561904Y-100041904D01*
X127561904Y-99803809D01*
X127514285Y-99708571D01*
X127466666Y-99660952D01*
X127371428Y-99613333D01*
X127180952Y-99613333D01*
X127085714Y-99660952D01*
X127038095Y-99708571D01*
X126990476Y-99803809D01*
G04 #@! TO.C,C27*
X114557142Y-100207142D02*
X114509523Y-100254761D01*
X114366666Y-100302380D01*
X114271428Y-100302380D01*
X114128571Y-100254761D01*
X114033333Y-100159523D01*
X113985714Y-100064285D01*
X113938095Y-99873809D01*
X113938095Y-99730952D01*
X113985714Y-99540476D01*
X114033333Y-99445238D01*
X114128571Y-99350000D01*
X114271428Y-99302380D01*
X114366666Y-99302380D01*
X114509523Y-99350000D01*
X114557142Y-99397619D01*
X114938095Y-99397619D02*
X114985714Y-99350000D01*
X115080952Y-99302380D01*
X115319047Y-99302380D01*
X115414285Y-99350000D01*
X115461904Y-99397619D01*
X115509523Y-99492857D01*
X115509523Y-99588095D01*
X115461904Y-99730952D01*
X114890476Y-100302380D01*
X115509523Y-100302380D01*
X115842857Y-99302380D02*
X116509523Y-99302380D01*
X116080952Y-100302380D01*
G04 #@! TO.C,C31*
X114582142Y-83927142D02*
X114534523Y-83974761D01*
X114391666Y-84022380D01*
X114296428Y-84022380D01*
X114153571Y-83974761D01*
X114058333Y-83879523D01*
X114010714Y-83784285D01*
X113963095Y-83593809D01*
X113963095Y-83450952D01*
X114010714Y-83260476D01*
X114058333Y-83165238D01*
X114153571Y-83070000D01*
X114296428Y-83022380D01*
X114391666Y-83022380D01*
X114534523Y-83070000D01*
X114582142Y-83117619D01*
X114915476Y-83022380D02*
X115534523Y-83022380D01*
X115201190Y-83403333D01*
X115344047Y-83403333D01*
X115439285Y-83450952D01*
X115486904Y-83498571D01*
X115534523Y-83593809D01*
X115534523Y-83831904D01*
X115486904Y-83927142D01*
X115439285Y-83974761D01*
X115344047Y-84022380D01*
X115058333Y-84022380D01*
X114963095Y-83974761D01*
X114915476Y-83927142D01*
X116486904Y-84022380D02*
X115915476Y-84022380D01*
X116201190Y-84022380D02*
X116201190Y-83022380D01*
X116105952Y-83165238D01*
X116010714Y-83260476D01*
X115915476Y-83308095D01*
G04 #@! TO.C,C32*
X125557142Y-83977142D02*
X125509523Y-84024761D01*
X125366666Y-84072380D01*
X125271428Y-84072380D01*
X125128571Y-84024761D01*
X125033333Y-83929523D01*
X124985714Y-83834285D01*
X124938095Y-83643809D01*
X124938095Y-83500952D01*
X124985714Y-83310476D01*
X125033333Y-83215238D01*
X125128571Y-83120000D01*
X125271428Y-83072380D01*
X125366666Y-83072380D01*
X125509523Y-83120000D01*
X125557142Y-83167619D01*
X125890476Y-83072380D02*
X126509523Y-83072380D01*
X126176190Y-83453333D01*
X126319047Y-83453333D01*
X126414285Y-83500952D01*
X126461904Y-83548571D01*
X126509523Y-83643809D01*
X126509523Y-83881904D01*
X126461904Y-83977142D01*
X126414285Y-84024761D01*
X126319047Y-84072380D01*
X126033333Y-84072380D01*
X125938095Y-84024761D01*
X125890476Y-83977142D01*
X126890476Y-83167619D02*
X126938095Y-83120000D01*
X127033333Y-83072380D01*
X127271428Y-83072380D01*
X127366666Y-83120000D01*
X127414285Y-83167619D01*
X127461904Y-83262857D01*
X127461904Y-83358095D01*
X127414285Y-83500952D01*
X126842857Y-84072380D01*
X127461904Y-84072380D01*
G04 #@! TO.C,C34*
X136957142Y-80992857D02*
X137004761Y-81040476D01*
X137052380Y-81183333D01*
X137052380Y-81278571D01*
X137004761Y-81421428D01*
X136909523Y-81516666D01*
X136814285Y-81564285D01*
X136623809Y-81611904D01*
X136480952Y-81611904D01*
X136290476Y-81564285D01*
X136195238Y-81516666D01*
X136100000Y-81421428D01*
X136052380Y-81278571D01*
X136052380Y-81183333D01*
X136100000Y-81040476D01*
X136147619Y-80992857D01*
X136052380Y-80659523D02*
X136052380Y-80040476D01*
X136433333Y-80373809D01*
X136433333Y-80230952D01*
X136480952Y-80135714D01*
X136528571Y-80088095D01*
X136623809Y-80040476D01*
X136861904Y-80040476D01*
X136957142Y-80088095D01*
X137004761Y-80135714D01*
X137052380Y-80230952D01*
X137052380Y-80516666D01*
X137004761Y-80611904D01*
X136957142Y-80659523D01*
X136385714Y-79183333D02*
X137052380Y-79183333D01*
X136004761Y-79421428D02*
X136719047Y-79659523D01*
X136719047Y-79040476D01*
G04 #@! TO.C,C36*
X132357142Y-81092857D02*
X132404761Y-81140476D01*
X132452380Y-81283333D01*
X132452380Y-81378571D01*
X132404761Y-81521428D01*
X132309523Y-81616666D01*
X132214285Y-81664285D01*
X132023809Y-81711904D01*
X131880952Y-81711904D01*
X131690476Y-81664285D01*
X131595238Y-81616666D01*
X131500000Y-81521428D01*
X131452380Y-81378571D01*
X131452380Y-81283333D01*
X131500000Y-81140476D01*
X131547619Y-81092857D01*
X131452380Y-80759523D02*
X131452380Y-80140476D01*
X131833333Y-80473809D01*
X131833333Y-80330952D01*
X131880952Y-80235714D01*
X131928571Y-80188095D01*
X132023809Y-80140476D01*
X132261904Y-80140476D01*
X132357142Y-80188095D01*
X132404761Y-80235714D01*
X132452380Y-80330952D01*
X132452380Y-80616666D01*
X132404761Y-80711904D01*
X132357142Y-80759523D01*
X131452380Y-79283333D02*
X131452380Y-79473809D01*
X131500000Y-79569047D01*
X131547619Y-79616666D01*
X131690476Y-79711904D01*
X131880952Y-79759523D01*
X132261904Y-79759523D01*
X132357142Y-79711904D01*
X132404761Y-79664285D01*
X132452380Y-79569047D01*
X132452380Y-79378571D01*
X132404761Y-79283333D01*
X132357142Y-79235714D01*
X132261904Y-79188095D01*
X132023809Y-79188095D01*
X131928571Y-79235714D01*
X131880952Y-79283333D01*
X131833333Y-79378571D01*
X131833333Y-79569047D01*
X131880952Y-79664285D01*
X131928571Y-79711904D01*
X132023809Y-79759523D01*
G04 #@! TO.C,C35*
X118557142Y-81792857D02*
X118604761Y-81840476D01*
X118652380Y-81983333D01*
X118652380Y-82078571D01*
X118604761Y-82221428D01*
X118509523Y-82316666D01*
X118414285Y-82364285D01*
X118223809Y-82411904D01*
X118080952Y-82411904D01*
X117890476Y-82364285D01*
X117795238Y-82316666D01*
X117700000Y-82221428D01*
X117652380Y-82078571D01*
X117652380Y-81983333D01*
X117700000Y-81840476D01*
X117747619Y-81792857D01*
X117652380Y-81459523D02*
X117652380Y-80840476D01*
X118033333Y-81173809D01*
X118033333Y-81030952D01*
X118080952Y-80935714D01*
X118128571Y-80888095D01*
X118223809Y-80840476D01*
X118461904Y-80840476D01*
X118557142Y-80888095D01*
X118604761Y-80935714D01*
X118652380Y-81030952D01*
X118652380Y-81316666D01*
X118604761Y-81411904D01*
X118557142Y-81459523D01*
X117652380Y-79935714D02*
X117652380Y-80411904D01*
X118128571Y-80459523D01*
X118080952Y-80411904D01*
X118033333Y-80316666D01*
X118033333Y-80078571D01*
X118080952Y-79983333D01*
X118128571Y-79935714D01*
X118223809Y-79888095D01*
X118461904Y-79888095D01*
X118557142Y-79935714D01*
X118604761Y-79983333D01*
X118652380Y-80078571D01*
X118652380Y-80316666D01*
X118604761Y-80411904D01*
X118557142Y-80459523D01*
G04 #@! TO.C,C37*
X151807142Y-69757142D02*
X151759523Y-69804761D01*
X151616666Y-69852380D01*
X151521428Y-69852380D01*
X151378571Y-69804761D01*
X151283333Y-69709523D01*
X151235714Y-69614285D01*
X151188095Y-69423809D01*
X151188095Y-69280952D01*
X151235714Y-69090476D01*
X151283333Y-68995238D01*
X151378571Y-68900000D01*
X151521428Y-68852380D01*
X151616666Y-68852380D01*
X151759523Y-68900000D01*
X151807142Y-68947619D01*
X152140476Y-68852380D02*
X152759523Y-68852380D01*
X152426190Y-69233333D01*
X152569047Y-69233333D01*
X152664285Y-69280952D01*
X152711904Y-69328571D01*
X152759523Y-69423809D01*
X152759523Y-69661904D01*
X152711904Y-69757142D01*
X152664285Y-69804761D01*
X152569047Y-69852380D01*
X152283333Y-69852380D01*
X152188095Y-69804761D01*
X152140476Y-69757142D01*
X153092857Y-68852380D02*
X153759523Y-68852380D01*
X153330952Y-69852380D01*
G04 #@! TO.C,C38*
X117057142Y-69907142D02*
X117009523Y-69954761D01*
X116866666Y-70002380D01*
X116771428Y-70002380D01*
X116628571Y-69954761D01*
X116533333Y-69859523D01*
X116485714Y-69764285D01*
X116438095Y-69573809D01*
X116438095Y-69430952D01*
X116485714Y-69240476D01*
X116533333Y-69145238D01*
X116628571Y-69050000D01*
X116771428Y-69002380D01*
X116866666Y-69002380D01*
X117009523Y-69050000D01*
X117057142Y-69097619D01*
X117390476Y-69002380D02*
X118009523Y-69002380D01*
X117676190Y-69383333D01*
X117819047Y-69383333D01*
X117914285Y-69430952D01*
X117961904Y-69478571D01*
X118009523Y-69573809D01*
X118009523Y-69811904D01*
X117961904Y-69907142D01*
X117914285Y-69954761D01*
X117819047Y-70002380D01*
X117533333Y-70002380D01*
X117438095Y-69954761D01*
X117390476Y-69907142D01*
X118580952Y-69430952D02*
X118485714Y-69383333D01*
X118438095Y-69335714D01*
X118390476Y-69240476D01*
X118390476Y-69192857D01*
X118438095Y-69097619D01*
X118485714Y-69050000D01*
X118580952Y-69002380D01*
X118771428Y-69002380D01*
X118866666Y-69050000D01*
X118914285Y-69097619D01*
X118961904Y-69192857D01*
X118961904Y-69240476D01*
X118914285Y-69335714D01*
X118866666Y-69383333D01*
X118771428Y-69430952D01*
X118580952Y-69430952D01*
X118485714Y-69478571D01*
X118438095Y-69526190D01*
X118390476Y-69621428D01*
X118390476Y-69811904D01*
X118438095Y-69907142D01*
X118485714Y-69954761D01*
X118580952Y-70002380D01*
X118771428Y-70002380D01*
X118866666Y-69954761D01*
X118914285Y-69907142D01*
X118961904Y-69811904D01*
X118961904Y-69621428D01*
X118914285Y-69526190D01*
X118866666Y-69478571D01*
X118771428Y-69430952D01*
G04 #@! TO.C,C39*
X128687142Y-69992857D02*
X128734761Y-70040476D01*
X128782380Y-70183333D01*
X128782380Y-70278571D01*
X128734761Y-70421428D01*
X128639523Y-70516666D01*
X128544285Y-70564285D01*
X128353809Y-70611904D01*
X128210952Y-70611904D01*
X128020476Y-70564285D01*
X127925238Y-70516666D01*
X127830000Y-70421428D01*
X127782380Y-70278571D01*
X127782380Y-70183333D01*
X127830000Y-70040476D01*
X127877619Y-69992857D01*
X127782380Y-69659523D02*
X127782380Y-69040476D01*
X128163333Y-69373809D01*
X128163333Y-69230952D01*
X128210952Y-69135714D01*
X128258571Y-69088095D01*
X128353809Y-69040476D01*
X128591904Y-69040476D01*
X128687142Y-69088095D01*
X128734761Y-69135714D01*
X128782380Y-69230952D01*
X128782380Y-69516666D01*
X128734761Y-69611904D01*
X128687142Y-69659523D01*
X128782380Y-68564285D02*
X128782380Y-68373809D01*
X128734761Y-68278571D01*
X128687142Y-68230952D01*
X128544285Y-68135714D01*
X128353809Y-68088095D01*
X127972857Y-68088095D01*
X127877619Y-68135714D01*
X127830000Y-68183333D01*
X127782380Y-68278571D01*
X127782380Y-68469047D01*
X127830000Y-68564285D01*
X127877619Y-68611904D01*
X127972857Y-68659523D01*
X128210952Y-68659523D01*
X128306190Y-68611904D01*
X128353809Y-68564285D01*
X128401428Y-68469047D01*
X128401428Y-68278571D01*
X128353809Y-68183333D01*
X128306190Y-68135714D01*
X128210952Y-68088095D01*
G04 #@! TO.C,C40*
X123457142Y-69992857D02*
X123504761Y-70040476D01*
X123552380Y-70183333D01*
X123552380Y-70278571D01*
X123504761Y-70421428D01*
X123409523Y-70516666D01*
X123314285Y-70564285D01*
X123123809Y-70611904D01*
X122980952Y-70611904D01*
X122790476Y-70564285D01*
X122695238Y-70516666D01*
X122600000Y-70421428D01*
X122552380Y-70278571D01*
X122552380Y-70183333D01*
X122600000Y-70040476D01*
X122647619Y-69992857D01*
X122885714Y-69135714D02*
X123552380Y-69135714D01*
X122504761Y-69373809D02*
X123219047Y-69611904D01*
X123219047Y-68992857D01*
X122552380Y-68421428D02*
X122552380Y-68326190D01*
X122600000Y-68230952D01*
X122647619Y-68183333D01*
X122742857Y-68135714D01*
X122933333Y-68088095D01*
X123171428Y-68088095D01*
X123361904Y-68135714D01*
X123457142Y-68183333D01*
X123504761Y-68230952D01*
X123552380Y-68326190D01*
X123552380Y-68421428D01*
X123504761Y-68516666D01*
X123457142Y-68564285D01*
X123361904Y-68611904D01*
X123171428Y-68659523D01*
X122933333Y-68659523D01*
X122742857Y-68611904D01*
X122647619Y-68564285D01*
X122600000Y-68516666D01*
X122552380Y-68421428D01*
G04 #@! TO.C,C42*
X131857142Y-69692857D02*
X131904761Y-69740476D01*
X131952380Y-69883333D01*
X131952380Y-69978571D01*
X131904761Y-70121428D01*
X131809523Y-70216666D01*
X131714285Y-70264285D01*
X131523809Y-70311904D01*
X131380952Y-70311904D01*
X131190476Y-70264285D01*
X131095238Y-70216666D01*
X131000000Y-70121428D01*
X130952380Y-69978571D01*
X130952380Y-69883333D01*
X131000000Y-69740476D01*
X131047619Y-69692857D01*
X131285714Y-68835714D02*
X131952380Y-68835714D01*
X130904761Y-69073809D02*
X131619047Y-69311904D01*
X131619047Y-68692857D01*
X131047619Y-68359523D02*
X131000000Y-68311904D01*
X130952380Y-68216666D01*
X130952380Y-67978571D01*
X131000000Y-67883333D01*
X131047619Y-67835714D01*
X131142857Y-67788095D01*
X131238095Y-67788095D01*
X131380952Y-67835714D01*
X131952380Y-68407142D01*
X131952380Y-67788095D01*
G04 #@! TO.C,C41*
X136282142Y-69505357D02*
X136329761Y-69552976D01*
X136377380Y-69695833D01*
X136377380Y-69791071D01*
X136329761Y-69933928D01*
X136234523Y-70029166D01*
X136139285Y-70076785D01*
X135948809Y-70124404D01*
X135805952Y-70124404D01*
X135615476Y-70076785D01*
X135520238Y-70029166D01*
X135425000Y-69933928D01*
X135377380Y-69791071D01*
X135377380Y-69695833D01*
X135425000Y-69552976D01*
X135472619Y-69505357D01*
X135710714Y-68648214D02*
X136377380Y-68648214D01*
X135329761Y-68886309D02*
X136044047Y-69124404D01*
X136044047Y-68505357D01*
X136377380Y-67600595D02*
X136377380Y-68172023D01*
X136377380Y-67886309D02*
X135377380Y-67886309D01*
X135520238Y-67981547D01*
X135615476Y-68076785D01*
X135663095Y-68172023D01*
G04 #@! TO.C,U14*
X124702380Y-92988095D02*
X125511904Y-92988095D01*
X125607142Y-92940476D01*
X125654761Y-92892857D01*
X125702380Y-92797619D01*
X125702380Y-92607142D01*
X125654761Y-92511904D01*
X125607142Y-92464285D01*
X125511904Y-92416666D01*
X124702380Y-92416666D01*
X125702380Y-91416666D02*
X125702380Y-91988095D01*
X125702380Y-91702380D02*
X124702380Y-91702380D01*
X124845238Y-91797619D01*
X124940476Y-91892857D01*
X124988095Y-91988095D01*
X125035714Y-90559523D02*
X125702380Y-90559523D01*
X124654761Y-90797619D02*
X125369047Y-91035714D01*
X125369047Y-90416666D01*
G04 #@! TO.C,U15*
X112202380Y-92988095D02*
X113011904Y-92988095D01*
X113107142Y-92940476D01*
X113154761Y-92892857D01*
X113202380Y-92797619D01*
X113202380Y-92607142D01*
X113154761Y-92511904D01*
X113107142Y-92464285D01*
X113011904Y-92416666D01*
X112202380Y-92416666D01*
X113202380Y-91416666D02*
X113202380Y-91988095D01*
X113202380Y-91702380D02*
X112202380Y-91702380D01*
X112345238Y-91797619D01*
X112440476Y-91892857D01*
X112488095Y-91988095D01*
X112202380Y-90511904D02*
X112202380Y-90988095D01*
X112678571Y-91035714D01*
X112630952Y-90988095D01*
X112583333Y-90892857D01*
X112583333Y-90654761D01*
X112630952Y-90559523D01*
X112678571Y-90511904D01*
X112773809Y-90464285D01*
X113011904Y-90464285D01*
X113107142Y-90511904D01*
X113154761Y-90559523D01*
X113202380Y-90654761D01*
X113202380Y-90892857D01*
X113154761Y-90988095D01*
X113107142Y-91035714D01*
G04 #@! TO.C,U16*
X145761904Y-71702380D02*
X145761904Y-72511904D01*
X145809523Y-72607142D01*
X145857142Y-72654761D01*
X145952380Y-72702380D01*
X146142857Y-72702380D01*
X146238095Y-72654761D01*
X146285714Y-72607142D01*
X146333333Y-72511904D01*
X146333333Y-71702380D01*
X147333333Y-72702380D02*
X146761904Y-72702380D01*
X147047619Y-72702380D02*
X147047619Y-71702380D01*
X146952380Y-71845238D01*
X146857142Y-71940476D01*
X146761904Y-71988095D01*
X148190476Y-71702380D02*
X148000000Y-71702380D01*
X147904761Y-71750000D01*
X147857142Y-71797619D01*
X147761904Y-71940476D01*
X147714285Y-72130952D01*
X147714285Y-72511904D01*
X147761904Y-72607142D01*
X147809523Y-72654761D01*
X147904761Y-72702380D01*
X148095238Y-72702380D01*
X148190476Y-72654761D01*
X148238095Y-72607142D01*
X148285714Y-72511904D01*
X148285714Y-72273809D01*
X148238095Y-72178571D01*
X148190476Y-72130952D01*
X148095238Y-72083333D01*
X147904761Y-72083333D01*
X147809523Y-72130952D01*
X147761904Y-72178571D01*
X147714285Y-72273809D01*
G04 #@! TO.C,U18*
X128902380Y-75988095D02*
X129711904Y-75988095D01*
X129807142Y-75940476D01*
X129854761Y-75892857D01*
X129902380Y-75797619D01*
X129902380Y-75607142D01*
X129854761Y-75511904D01*
X129807142Y-75464285D01*
X129711904Y-75416666D01*
X128902380Y-75416666D01*
X129902380Y-74416666D02*
X129902380Y-74988095D01*
X129902380Y-74702380D02*
X128902380Y-74702380D01*
X129045238Y-74797619D01*
X129140476Y-74892857D01*
X129188095Y-74988095D01*
X129330952Y-73845238D02*
X129283333Y-73940476D01*
X129235714Y-73988095D01*
X129140476Y-74035714D01*
X129092857Y-74035714D01*
X128997619Y-73988095D01*
X128950000Y-73940476D01*
X128902380Y-73845238D01*
X128902380Y-73654761D01*
X128950000Y-73559523D01*
X128997619Y-73511904D01*
X129092857Y-73464285D01*
X129140476Y-73464285D01*
X129235714Y-73511904D01*
X129283333Y-73559523D01*
X129330952Y-73654761D01*
X129330952Y-73845238D01*
X129378571Y-73940476D01*
X129426190Y-73988095D01*
X129521428Y-74035714D01*
X129711904Y-74035714D01*
X129807142Y-73988095D01*
X129854761Y-73940476D01*
X129902380Y-73845238D01*
X129902380Y-73654761D01*
X129854761Y-73559523D01*
X129807142Y-73511904D01*
X129711904Y-73464285D01*
X129521428Y-73464285D01*
X129426190Y-73511904D01*
X129378571Y-73559523D01*
X129330952Y-73654761D01*
G04 #@! TO.C,U17*
X118052380Y-72888095D02*
X118861904Y-72888095D01*
X118957142Y-72840476D01*
X119004761Y-72792857D01*
X119052380Y-72697619D01*
X119052380Y-72507142D01*
X119004761Y-72411904D01*
X118957142Y-72364285D01*
X118861904Y-72316666D01*
X118052380Y-72316666D01*
X119052380Y-71316666D02*
X119052380Y-71888095D01*
X119052380Y-71602380D02*
X118052380Y-71602380D01*
X118195238Y-71697619D01*
X118290476Y-71792857D01*
X118338095Y-71888095D01*
X118052380Y-70983333D02*
X118052380Y-70316666D01*
X119052380Y-70745238D01*
G04 #@! TO.C,U19*
X114352380Y-76188095D02*
X115161904Y-76188095D01*
X115257142Y-76140476D01*
X115304761Y-76092857D01*
X115352380Y-75997619D01*
X115352380Y-75807142D01*
X115304761Y-75711904D01*
X115257142Y-75664285D01*
X115161904Y-75616666D01*
X114352380Y-75616666D01*
X115352380Y-74616666D02*
X115352380Y-75188095D01*
X115352380Y-74902380D02*
X114352380Y-74902380D01*
X114495238Y-74997619D01*
X114590476Y-75092857D01*
X114638095Y-75188095D01*
X115352380Y-74140476D02*
X115352380Y-73950000D01*
X115304761Y-73854761D01*
X115257142Y-73807142D01*
X115114285Y-73711904D01*
X114923809Y-73664285D01*
X114542857Y-73664285D01*
X114447619Y-73711904D01*
X114400000Y-73759523D01*
X114352380Y-73854761D01*
X114352380Y-74045238D01*
X114400000Y-74140476D01*
X114447619Y-74188095D01*
X114542857Y-74235714D01*
X114780952Y-74235714D01*
X114876190Y-74188095D01*
X114923809Y-74140476D01*
X114971428Y-74045238D01*
X114971428Y-73854761D01*
X114923809Y-73759523D01*
X114876190Y-73711904D01*
X114780952Y-73664285D01*
G04 #@! TO.C,U3*
X91952380Y-92011904D02*
X92761904Y-92011904D01*
X92857142Y-91964285D01*
X92904761Y-91916666D01*
X92952380Y-91821428D01*
X92952380Y-91630952D01*
X92904761Y-91535714D01*
X92857142Y-91488095D01*
X92761904Y-91440476D01*
X91952380Y-91440476D01*
X91952380Y-91059523D02*
X91952380Y-90440476D01*
X92333333Y-90773809D01*
X92333333Y-90630952D01*
X92380952Y-90535714D01*
X92428571Y-90488095D01*
X92523809Y-90440476D01*
X92761904Y-90440476D01*
X92857142Y-90488095D01*
X92904761Y-90535714D01*
X92952380Y-90630952D01*
X92952380Y-90916666D01*
X92904761Y-91011904D01*
X92857142Y-91059523D01*
G04 #@! TO.C,C2*
X70633333Y-100107142D02*
X70585714Y-100154761D01*
X70442857Y-100202380D01*
X70347619Y-100202380D01*
X70204761Y-100154761D01*
X70109523Y-100059523D01*
X70061904Y-99964285D01*
X70014285Y-99773809D01*
X70014285Y-99630952D01*
X70061904Y-99440476D01*
X70109523Y-99345238D01*
X70204761Y-99250000D01*
X70347619Y-99202380D01*
X70442857Y-99202380D01*
X70585714Y-99250000D01*
X70633333Y-99297619D01*
X71014285Y-99297619D02*
X71061904Y-99250000D01*
X71157142Y-99202380D01*
X71395238Y-99202380D01*
X71490476Y-99250000D01*
X71538095Y-99297619D01*
X71585714Y-99392857D01*
X71585714Y-99488095D01*
X71538095Y-99630952D01*
X70966666Y-100202380D01*
X71585714Y-100202380D01*
G04 #@! TO.C,C7*
X80633333Y-84207142D02*
X80585714Y-84254761D01*
X80442857Y-84302380D01*
X80347619Y-84302380D01*
X80204761Y-84254761D01*
X80109523Y-84159523D01*
X80061904Y-84064285D01*
X80014285Y-83873809D01*
X80014285Y-83730952D01*
X80061904Y-83540476D01*
X80109523Y-83445238D01*
X80204761Y-83350000D01*
X80347619Y-83302380D01*
X80442857Y-83302380D01*
X80585714Y-83350000D01*
X80633333Y-83397619D01*
X80966666Y-83302380D02*
X81633333Y-83302380D01*
X81204761Y-84302380D01*
G04 #@! TO.C,C6*
X70333333Y-84207142D02*
X70285714Y-84254761D01*
X70142857Y-84302380D01*
X70047619Y-84302380D01*
X69904761Y-84254761D01*
X69809523Y-84159523D01*
X69761904Y-84064285D01*
X69714285Y-83873809D01*
X69714285Y-83730952D01*
X69761904Y-83540476D01*
X69809523Y-83445238D01*
X69904761Y-83350000D01*
X70047619Y-83302380D01*
X70142857Y-83302380D01*
X70285714Y-83350000D01*
X70333333Y-83397619D01*
X71190476Y-83302380D02*
X71000000Y-83302380D01*
X70904761Y-83350000D01*
X70857142Y-83397619D01*
X70761904Y-83540476D01*
X70714285Y-83730952D01*
X70714285Y-84111904D01*
X70761904Y-84207142D01*
X70809523Y-84254761D01*
X70904761Y-84302380D01*
X71095238Y-84302380D01*
X71190476Y-84254761D01*
X71238095Y-84207142D01*
X71285714Y-84111904D01*
X71285714Y-83873809D01*
X71238095Y-83778571D01*
X71190476Y-83730952D01*
X71095238Y-83683333D01*
X70904761Y-83683333D01*
X70809523Y-83730952D01*
X70761904Y-83778571D01*
X70714285Y-83873809D01*
G04 #@! TO.C,U4*
X67952380Y-95011904D02*
X68761904Y-95011904D01*
X68857142Y-94964285D01*
X68904761Y-94916666D01*
X68952380Y-94821428D01*
X68952380Y-94630952D01*
X68904761Y-94535714D01*
X68857142Y-94488095D01*
X68761904Y-94440476D01*
X67952380Y-94440476D01*
X68285714Y-93535714D02*
X68952380Y-93535714D01*
X67904761Y-93773809D02*
X68619047Y-94011904D01*
X68619047Y-93392857D01*
G04 #@! TO.C,C1*
X80733333Y-100107142D02*
X80685714Y-100154761D01*
X80542857Y-100202380D01*
X80447619Y-100202380D01*
X80304761Y-100154761D01*
X80209523Y-100059523D01*
X80161904Y-99964285D01*
X80114285Y-99773809D01*
X80114285Y-99630952D01*
X80161904Y-99440476D01*
X80209523Y-99345238D01*
X80304761Y-99250000D01*
X80447619Y-99202380D01*
X80542857Y-99202380D01*
X80685714Y-99250000D01*
X80733333Y-99297619D01*
X81685714Y-100202380D02*
X81114285Y-100202380D01*
X81400000Y-100202380D02*
X81400000Y-99202380D01*
X81304761Y-99345238D01*
X81209523Y-99440476D01*
X81114285Y-99488095D01*
G04 #@! TO.C,U20*
X115230908Y-61696031D02*
X116040432Y-61696031D01*
X116135670Y-61648412D01*
X116183289Y-61600793D01*
X116230908Y-61505555D01*
X116230908Y-61315078D01*
X116183289Y-61219840D01*
X116135670Y-61172221D01*
X116040432Y-61124602D01*
X115230908Y-61124602D01*
X115326147Y-60696031D02*
X115278528Y-60648412D01*
X115230908Y-60553174D01*
X115230908Y-60315078D01*
X115278528Y-60219840D01*
X115326147Y-60172221D01*
X115421385Y-60124602D01*
X115516623Y-60124602D01*
X115659480Y-60172221D01*
X116230908Y-60743650D01*
X116230908Y-60124602D01*
X115230908Y-59505555D02*
X115230908Y-59410316D01*
X115278528Y-59315078D01*
X115326147Y-59267459D01*
X115421385Y-59219840D01*
X115611861Y-59172221D01*
X115849956Y-59172221D01*
X116040432Y-59219840D01*
X116135670Y-59267459D01*
X116183289Y-59315078D01*
X116230908Y-59410316D01*
X116230908Y-59505555D01*
X116183289Y-59600793D01*
X116135670Y-59648412D01*
X116040432Y-59696031D01*
X115849956Y-59743650D01*
X115611861Y-59743650D01*
X115421385Y-59696031D01*
X115326147Y-59648412D01*
X115278528Y-59600793D01*
X115230908Y-59505555D01*
G04 #@! TO.C,C13*
X72257142Y-70507142D02*
X72209523Y-70554761D01*
X72066666Y-70602380D01*
X71971428Y-70602380D01*
X71828571Y-70554761D01*
X71733333Y-70459523D01*
X71685714Y-70364285D01*
X71638095Y-70173809D01*
X71638095Y-70030952D01*
X71685714Y-69840476D01*
X71733333Y-69745238D01*
X71828571Y-69650000D01*
X71971428Y-69602380D01*
X72066666Y-69602380D01*
X72209523Y-69650000D01*
X72257142Y-69697619D01*
X73209523Y-70602380D02*
X72638095Y-70602380D01*
X72923809Y-70602380D02*
X72923809Y-69602380D01*
X72828571Y-69745238D01*
X72733333Y-69840476D01*
X72638095Y-69888095D01*
X73542857Y-69602380D02*
X74161904Y-69602380D01*
X73828571Y-69983333D01*
X73971428Y-69983333D01*
X74066666Y-70030952D01*
X74114285Y-70078571D01*
X74161904Y-70173809D01*
X74161904Y-70411904D01*
X74114285Y-70507142D01*
X74066666Y-70554761D01*
X73971428Y-70602380D01*
X73685714Y-70602380D01*
X73590476Y-70554761D01*
X73542857Y-70507142D01*
G04 #@! TO.C,J1*
X119266666Y-119502380D02*
X119266666Y-120216666D01*
X119219047Y-120359523D01*
X119123809Y-120454761D01*
X118980952Y-120502380D01*
X118885714Y-120502380D01*
X120266666Y-120502380D02*
X119695238Y-120502380D01*
X119980952Y-120502380D02*
X119980952Y-119502380D01*
X119885714Y-119645238D01*
X119790476Y-119740476D01*
X119695238Y-119788095D01*
G04 #@! TO.C,U6*
X73252380Y-73411904D02*
X74061904Y-73411904D01*
X74157142Y-73364285D01*
X74204761Y-73316666D01*
X74252380Y-73221428D01*
X74252380Y-73030952D01*
X74204761Y-72935714D01*
X74157142Y-72888095D01*
X74061904Y-72840476D01*
X73252380Y-72840476D01*
X73252380Y-71935714D02*
X73252380Y-72126190D01*
X73300000Y-72221428D01*
X73347619Y-72269047D01*
X73490476Y-72364285D01*
X73680952Y-72411904D01*
X74061904Y-72411904D01*
X74157142Y-72364285D01*
X74204761Y-72316666D01*
X74252380Y-72221428D01*
X74252380Y-72030952D01*
X74204761Y-71935714D01*
X74157142Y-71888095D01*
X74061904Y-71840476D01*
X73823809Y-71840476D01*
X73728571Y-71888095D01*
X73680952Y-71935714D01*
X73633333Y-72030952D01*
X73633333Y-72221428D01*
X73680952Y-72316666D01*
X73728571Y-72364285D01*
X73823809Y-72411904D01*
G04 #@! TO.C,U1*
X32592380Y-84411904D02*
X33401904Y-84411904D01*
X33497142Y-84364285D01*
X33544761Y-84316666D01*
X33592380Y-84221428D01*
X33592380Y-84030952D01*
X33544761Y-83935714D01*
X33497142Y-83888095D01*
X33401904Y-83840476D01*
X32592380Y-83840476D01*
X33592380Y-82840476D02*
X33592380Y-83411904D01*
X33592380Y-83126190D02*
X32592380Y-83126190D01*
X32735238Y-83221428D01*
X32830476Y-83316666D01*
X32878095Y-83411904D01*
G04 #@! TO.C,J9*
X143366666Y-44002380D02*
X143366666Y-44716666D01*
X143319047Y-44859523D01*
X143223809Y-44954761D01*
X143080952Y-45002380D01*
X142985714Y-45002380D01*
X143890476Y-45002380D02*
X144080952Y-45002380D01*
X144176190Y-44954761D01*
X144223809Y-44907142D01*
X144319047Y-44764285D01*
X144366666Y-44573809D01*
X144366666Y-44192857D01*
X144319047Y-44097619D01*
X144271428Y-44050000D01*
X144176190Y-44002380D01*
X143985714Y-44002380D01*
X143890476Y-44050000D01*
X143842857Y-44097619D01*
X143795238Y-44192857D01*
X143795238Y-44430952D01*
X143842857Y-44526190D01*
X143890476Y-44573809D01*
X143985714Y-44621428D01*
X144176190Y-44621428D01*
X144271428Y-44573809D01*
X144319047Y-44526190D01*
X144366666Y-44430952D01*
G04 #@! TO.C,J3*
X62666666Y-43602380D02*
X62666666Y-44316666D01*
X62619047Y-44459523D01*
X62523809Y-44554761D01*
X62380952Y-44602380D01*
X62285714Y-44602380D01*
X63047619Y-43602380D02*
X63666666Y-43602380D01*
X63333333Y-43983333D01*
X63476190Y-43983333D01*
X63571428Y-44030952D01*
X63619047Y-44078571D01*
X63666666Y-44173809D01*
X63666666Y-44411904D01*
X63619047Y-44507142D01*
X63571428Y-44554761D01*
X63476190Y-44602380D01*
X63190476Y-44602380D01*
X63095238Y-44554761D01*
X63047619Y-44507142D01*
G04 #@! TO.C,J7*
X102166666Y-43802380D02*
X102166666Y-44516666D01*
X102119047Y-44659523D01*
X102023809Y-44754761D01*
X101880952Y-44802380D01*
X101785714Y-44802380D01*
X102547619Y-43802380D02*
X103214285Y-43802380D01*
X102785714Y-44802380D01*
G04 #@! TO.C,J2*
X39866666Y-43602380D02*
X39866666Y-44316666D01*
X39819047Y-44459523D01*
X39723809Y-44554761D01*
X39580952Y-44602380D01*
X39485714Y-44602380D01*
X40295238Y-43697619D02*
X40342857Y-43650000D01*
X40438095Y-43602380D01*
X40676190Y-43602380D01*
X40771428Y-43650000D01*
X40819047Y-43697619D01*
X40866666Y-43792857D01*
X40866666Y-43888095D01*
X40819047Y-44030952D01*
X40247619Y-44602380D01*
X40866666Y-44602380D01*
G04 #@! TO.C,C10*
X87157142Y-81292857D02*
X87204761Y-81340476D01*
X87252380Y-81483333D01*
X87252380Y-81578571D01*
X87204761Y-81721428D01*
X87109523Y-81816666D01*
X87014285Y-81864285D01*
X86823809Y-81911904D01*
X86680952Y-81911904D01*
X86490476Y-81864285D01*
X86395238Y-81816666D01*
X86300000Y-81721428D01*
X86252380Y-81578571D01*
X86252380Y-81483333D01*
X86300000Y-81340476D01*
X86347619Y-81292857D01*
X87252380Y-80340476D02*
X87252380Y-80911904D01*
X87252380Y-80626190D02*
X86252380Y-80626190D01*
X86395238Y-80721428D01*
X86490476Y-80816666D01*
X86538095Y-80911904D01*
X86252380Y-79721428D02*
X86252380Y-79626190D01*
X86300000Y-79530952D01*
X86347619Y-79483333D01*
X86442857Y-79435714D01*
X86633333Y-79388095D01*
X86871428Y-79388095D01*
X87061904Y-79435714D01*
X87157142Y-79483333D01*
X87204761Y-79530952D01*
X87252380Y-79626190D01*
X87252380Y-79721428D01*
X87204761Y-79816666D01*
X87157142Y-79864285D01*
X87061904Y-79911904D01*
X86871428Y-79959523D01*
X86633333Y-79959523D01*
X86442857Y-79911904D01*
X86347619Y-79864285D01*
X86300000Y-79816666D01*
X86252380Y-79721428D01*
G04 #@! TO.C,C43*
X117122114Y-54567206D02*
X117074495Y-54614825D01*
X116931638Y-54662444D01*
X116836400Y-54662444D01*
X116693543Y-54614825D01*
X116598305Y-54519587D01*
X116550686Y-54424349D01*
X116503067Y-54233873D01*
X116503067Y-54091016D01*
X116550686Y-53900540D01*
X116598305Y-53805302D01*
X116693543Y-53710064D01*
X116836400Y-53662444D01*
X116931638Y-53662444D01*
X117074495Y-53710064D01*
X117122114Y-53757683D01*
X117979257Y-53995778D02*
X117979257Y-54662444D01*
X117741162Y-53614825D02*
X117503067Y-54329111D01*
X118122114Y-54329111D01*
X118407829Y-53662444D02*
X119026876Y-53662444D01*
X118693543Y-54043397D01*
X118836400Y-54043397D01*
X118931638Y-54091016D01*
X118979257Y-54138635D01*
X119026876Y-54233873D01*
X119026876Y-54471968D01*
X118979257Y-54567206D01*
X118931638Y-54614825D01*
X118836400Y-54662444D01*
X118550686Y-54662444D01*
X118455448Y-54614825D01*
X118407829Y-54567206D01*
G04 #@! TO.C,C44*
X121457142Y-67107142D02*
X121409523Y-67154761D01*
X121266666Y-67202380D01*
X121171428Y-67202380D01*
X121028571Y-67154761D01*
X120933333Y-67059523D01*
X120885714Y-66964285D01*
X120838095Y-66773809D01*
X120838095Y-66630952D01*
X120885714Y-66440476D01*
X120933333Y-66345238D01*
X121028571Y-66250000D01*
X121171428Y-66202380D01*
X121266666Y-66202380D01*
X121409523Y-66250000D01*
X121457142Y-66297619D01*
X122314285Y-66535714D02*
X122314285Y-67202380D01*
X122076190Y-66154761D02*
X121838095Y-66869047D01*
X122457142Y-66869047D01*
X123266666Y-66535714D02*
X123266666Y-67202380D01*
X123028571Y-66154761D02*
X122790476Y-66869047D01*
X123409523Y-66869047D01*
G04 #@! TO.C,C18*
X72557142Y-55377142D02*
X72509523Y-55424761D01*
X72366666Y-55472380D01*
X72271428Y-55472380D01*
X72128571Y-55424761D01*
X72033333Y-55329523D01*
X71985714Y-55234285D01*
X71938095Y-55043809D01*
X71938095Y-54900952D01*
X71985714Y-54710476D01*
X72033333Y-54615238D01*
X72128571Y-54520000D01*
X72271428Y-54472380D01*
X72366666Y-54472380D01*
X72509523Y-54520000D01*
X72557142Y-54567619D01*
X73509523Y-55472380D02*
X72938095Y-55472380D01*
X73223809Y-55472380D02*
X73223809Y-54472380D01*
X73128571Y-54615238D01*
X73033333Y-54710476D01*
X72938095Y-54758095D01*
X74080952Y-54900952D02*
X73985714Y-54853333D01*
X73938095Y-54805714D01*
X73890476Y-54710476D01*
X73890476Y-54662857D01*
X73938095Y-54567619D01*
X73985714Y-54520000D01*
X74080952Y-54472380D01*
X74271428Y-54472380D01*
X74366666Y-54520000D01*
X74414285Y-54567619D01*
X74461904Y-54662857D01*
X74461904Y-54710476D01*
X74414285Y-54805714D01*
X74366666Y-54853333D01*
X74271428Y-54900952D01*
X74080952Y-54900952D01*
X73985714Y-54948571D01*
X73938095Y-54996190D01*
X73890476Y-55091428D01*
X73890476Y-55281904D01*
X73938095Y-55377142D01*
X73985714Y-55424761D01*
X74080952Y-55472380D01*
X74271428Y-55472380D01*
X74366666Y-55424761D01*
X74414285Y-55377142D01*
X74461904Y-55281904D01*
X74461904Y-55091428D01*
X74414285Y-54996190D01*
X74366666Y-54948571D01*
X74271428Y-54900952D01*
G04 #@! TO.C,C20*
X76757142Y-67707142D02*
X76709523Y-67754761D01*
X76566666Y-67802380D01*
X76471428Y-67802380D01*
X76328571Y-67754761D01*
X76233333Y-67659523D01*
X76185714Y-67564285D01*
X76138095Y-67373809D01*
X76138095Y-67230952D01*
X76185714Y-67040476D01*
X76233333Y-66945238D01*
X76328571Y-66850000D01*
X76471428Y-66802380D01*
X76566666Y-66802380D01*
X76709523Y-66850000D01*
X76757142Y-66897619D01*
X77138095Y-66897619D02*
X77185714Y-66850000D01*
X77280952Y-66802380D01*
X77519047Y-66802380D01*
X77614285Y-66850000D01*
X77661904Y-66897619D01*
X77709523Y-66992857D01*
X77709523Y-67088095D01*
X77661904Y-67230952D01*
X77090476Y-67802380D01*
X77709523Y-67802380D01*
X78328571Y-66802380D02*
X78423809Y-66802380D01*
X78519047Y-66850000D01*
X78566666Y-66897619D01*
X78614285Y-66992857D01*
X78661904Y-67183333D01*
X78661904Y-67421428D01*
X78614285Y-67611904D01*
X78566666Y-67707142D01*
X78519047Y-67754761D01*
X78423809Y-67802380D01*
X78328571Y-67802380D01*
X78233333Y-67754761D01*
X78185714Y-67707142D01*
X78138095Y-67611904D01*
X78090476Y-67421428D01*
X78090476Y-67183333D01*
X78138095Y-66992857D01*
X78185714Y-66897619D01*
X78233333Y-66850000D01*
X78328571Y-66802380D01*
G04 #@! TO.C,U9*
X70952380Y-59511904D02*
X71761904Y-59511904D01*
X71857142Y-59464285D01*
X71904761Y-59416666D01*
X71952380Y-59321428D01*
X71952380Y-59130952D01*
X71904761Y-59035714D01*
X71857142Y-58988095D01*
X71761904Y-58940476D01*
X70952380Y-58940476D01*
X71952380Y-58416666D02*
X71952380Y-58226190D01*
X71904761Y-58130952D01*
X71857142Y-58083333D01*
X71714285Y-57988095D01*
X71523809Y-57940476D01*
X71142857Y-57940476D01*
X71047619Y-57988095D01*
X71000000Y-58035714D01*
X70952380Y-58130952D01*
X70952380Y-58321428D01*
X71000000Y-58416666D01*
X71047619Y-58464285D01*
X71142857Y-58511904D01*
X71380952Y-58511904D01*
X71476190Y-58464285D01*
X71523809Y-58416666D01*
X71571428Y-58321428D01*
X71571428Y-58130952D01*
X71523809Y-58035714D01*
X71476190Y-57988095D01*
X71380952Y-57940476D01*
G04 #@! TO.C,R1*
X70633333Y-66402380D02*
X70300000Y-65926190D01*
X70061904Y-66402380D02*
X70061904Y-65402380D01*
X70442857Y-65402380D01*
X70538095Y-65450000D01*
X70585714Y-65497619D01*
X70633333Y-65592857D01*
X70633333Y-65735714D01*
X70585714Y-65830952D01*
X70538095Y-65878571D01*
X70442857Y-65926190D01*
X70061904Y-65926190D01*
X71585714Y-66402380D02*
X71014285Y-66402380D01*
X71300000Y-66402380D02*
X71300000Y-65402380D01*
X71204761Y-65545238D01*
X71109523Y-65640476D01*
X71014285Y-65688095D01*
G04 #@! TO.C,R8*
X115233333Y-65802380D02*
X114900000Y-65326190D01*
X114661904Y-65802380D02*
X114661904Y-64802380D01*
X115042857Y-64802380D01*
X115138095Y-64850000D01*
X115185714Y-64897619D01*
X115233333Y-64992857D01*
X115233333Y-65135714D01*
X115185714Y-65230952D01*
X115138095Y-65278571D01*
X115042857Y-65326190D01*
X114661904Y-65326190D01*
X115804761Y-65230952D02*
X115709523Y-65183333D01*
X115661904Y-65135714D01*
X115614285Y-65040476D01*
X115614285Y-64992857D01*
X115661904Y-64897619D01*
X115709523Y-64850000D01*
X115804761Y-64802380D01*
X115995238Y-64802380D01*
X116090476Y-64850000D01*
X116138095Y-64897619D01*
X116185714Y-64992857D01*
X116185714Y-65040476D01*
X116138095Y-65135714D01*
X116090476Y-65183333D01*
X115995238Y-65230952D01*
X115804761Y-65230952D01*
X115709523Y-65278571D01*
X115661904Y-65326190D01*
X115614285Y-65421428D01*
X115614285Y-65611904D01*
X115661904Y-65707142D01*
X115709523Y-65754761D01*
X115804761Y-65802380D01*
X115995238Y-65802380D01*
X116090476Y-65754761D01*
X116138095Y-65707142D01*
X116185714Y-65611904D01*
X116185714Y-65421428D01*
X116138095Y-65326190D01*
X116090476Y-65278571D01*
X115995238Y-65230952D01*
G04 #@! TO.C,R3*
X69731550Y-61416666D02*
X69255360Y-61750000D01*
X69731550Y-61988095D02*
X68731550Y-61988095D01*
X68731550Y-61607142D01*
X68779170Y-61511904D01*
X68826789Y-61464285D01*
X68922027Y-61416666D01*
X69064884Y-61416666D01*
X69160122Y-61464285D01*
X69207741Y-61511904D01*
X69255360Y-61607142D01*
X69255360Y-61988095D01*
X68731550Y-61083333D02*
X68731550Y-60464285D01*
X69112503Y-60797619D01*
X69112503Y-60654761D01*
X69160122Y-60559523D01*
X69207741Y-60511904D01*
X69302979Y-60464285D01*
X69541074Y-60464285D01*
X69636312Y-60511904D01*
X69683931Y-60559523D01*
X69731550Y-60654761D01*
X69731550Y-60940476D01*
X69683931Y-61035714D01*
X69636312Y-61083333D01*
G04 #@! TO.C,R10*
X113973852Y-60822921D02*
X113497662Y-61156254D01*
X113973852Y-61394349D02*
X112973852Y-61394349D01*
X112973852Y-61013397D01*
X113021472Y-60918159D01*
X113069091Y-60870540D01*
X113164329Y-60822921D01*
X113307186Y-60822921D01*
X113402424Y-60870540D01*
X113450043Y-60918159D01*
X113497662Y-61013397D01*
X113497662Y-61394349D01*
X113973852Y-59870540D02*
X113973852Y-60441968D01*
X113973852Y-60156254D02*
X112973852Y-60156254D01*
X113116710Y-60251492D01*
X113211948Y-60346730D01*
X113259567Y-60441968D01*
X112973852Y-59251492D02*
X112973852Y-59156254D01*
X113021472Y-59061016D01*
X113069091Y-59013397D01*
X113164329Y-58965778D01*
X113354805Y-58918159D01*
X113592900Y-58918159D01*
X113783376Y-58965778D01*
X113878614Y-59013397D01*
X113926233Y-59061016D01*
X113973852Y-59156254D01*
X113973852Y-59251492D01*
X113926233Y-59346730D01*
X113878614Y-59394349D01*
X113783376Y-59441968D01*
X113592900Y-59489587D01*
X113354805Y-59489587D01*
X113164329Y-59441968D01*
X113069091Y-59394349D01*
X113021472Y-59346730D01*
X112973852Y-59251492D01*
G04 #@! TO.C,R13*
X132957142Y-56002380D02*
X132623809Y-55526190D01*
X132385714Y-56002380D02*
X132385714Y-55002380D01*
X132766666Y-55002380D01*
X132861904Y-55050000D01*
X132909523Y-55097619D01*
X132957142Y-55192857D01*
X132957142Y-55335714D01*
X132909523Y-55430952D01*
X132861904Y-55478571D01*
X132766666Y-55526190D01*
X132385714Y-55526190D01*
X133909523Y-56002380D02*
X133338095Y-56002380D01*
X133623809Y-56002380D02*
X133623809Y-55002380D01*
X133528571Y-55145238D01*
X133433333Y-55240476D01*
X133338095Y-55288095D01*
X134242857Y-55002380D02*
X134861904Y-55002380D01*
X134528571Y-55383333D01*
X134671428Y-55383333D01*
X134766666Y-55430952D01*
X134814285Y-55478571D01*
X134861904Y-55573809D01*
X134861904Y-55811904D01*
X134814285Y-55907142D01*
X134766666Y-55954761D01*
X134671428Y-56002380D01*
X134385714Y-56002380D01*
X134290476Y-55954761D01*
X134242857Y-55907142D01*
G04 #@! TO.C,U7*
X83959550Y-75331210D02*
X84769074Y-75331210D01*
X84864312Y-75283591D01*
X84911931Y-75235972D01*
X84959550Y-75140734D01*
X84959550Y-74950258D01*
X84911931Y-74855020D01*
X84864312Y-74807401D01*
X84769074Y-74759782D01*
X83959550Y-74759782D01*
X83959550Y-74378829D02*
X83959550Y-73712163D01*
X84959550Y-74140734D01*
G04 #@! TO.C,C8*
X97157142Y-69516666D02*
X97204761Y-69564285D01*
X97252380Y-69707142D01*
X97252380Y-69802380D01*
X97204761Y-69945238D01*
X97109523Y-70040476D01*
X97014285Y-70088095D01*
X96823809Y-70135714D01*
X96680952Y-70135714D01*
X96490476Y-70088095D01*
X96395238Y-70040476D01*
X96300000Y-69945238D01*
X96252380Y-69802380D01*
X96252380Y-69707142D01*
X96300000Y-69564285D01*
X96347619Y-69516666D01*
X96680952Y-68945238D02*
X96633333Y-69040476D01*
X96585714Y-69088095D01*
X96490476Y-69135714D01*
X96442857Y-69135714D01*
X96347619Y-69088095D01*
X96300000Y-69040476D01*
X96252380Y-68945238D01*
X96252380Y-68754761D01*
X96300000Y-68659523D01*
X96347619Y-68611904D01*
X96442857Y-68564285D01*
X96490476Y-68564285D01*
X96585714Y-68611904D01*
X96633333Y-68659523D01*
X96680952Y-68754761D01*
X96680952Y-68945238D01*
X96728571Y-69040476D01*
X96776190Y-69088095D01*
X96871428Y-69135714D01*
X97061904Y-69135714D01*
X97157142Y-69088095D01*
X97204761Y-69040476D01*
X97252380Y-68945238D01*
X97252380Y-68754761D01*
X97204761Y-68659523D01*
X97157142Y-68611904D01*
X97061904Y-68564285D01*
X96871428Y-68564285D01*
X96776190Y-68611904D01*
X96728571Y-68659523D01*
X96680952Y-68754761D01*
G04 #@! TO.C,C12*
X107557142Y-69207142D02*
X107509523Y-69254761D01*
X107366666Y-69302380D01*
X107271428Y-69302380D01*
X107128571Y-69254761D01*
X107033333Y-69159523D01*
X106985714Y-69064285D01*
X106938095Y-68873809D01*
X106938095Y-68730952D01*
X106985714Y-68540476D01*
X107033333Y-68445238D01*
X107128571Y-68350000D01*
X107271428Y-68302380D01*
X107366666Y-68302380D01*
X107509523Y-68350000D01*
X107557142Y-68397619D01*
X108509523Y-69302380D02*
X107938095Y-69302380D01*
X108223809Y-69302380D02*
X108223809Y-68302380D01*
X108128571Y-68445238D01*
X108033333Y-68540476D01*
X107938095Y-68588095D01*
X108890476Y-68397619D02*
X108938095Y-68350000D01*
X109033333Y-68302380D01*
X109271428Y-68302380D01*
X109366666Y-68350000D01*
X109414285Y-68397619D01*
X109461904Y-68492857D01*
X109461904Y-68588095D01*
X109414285Y-68730952D01*
X108842857Y-69302380D01*
X109461904Y-69302380D01*
G04 #@! TO.C,C15*
X78657142Y-70092857D02*
X78704761Y-70140476D01*
X78752380Y-70283333D01*
X78752380Y-70378571D01*
X78704761Y-70521428D01*
X78609523Y-70616666D01*
X78514285Y-70664285D01*
X78323809Y-70711904D01*
X78180952Y-70711904D01*
X77990476Y-70664285D01*
X77895238Y-70616666D01*
X77800000Y-70521428D01*
X77752380Y-70378571D01*
X77752380Y-70283333D01*
X77800000Y-70140476D01*
X77847619Y-70092857D01*
X78752380Y-69140476D02*
X78752380Y-69711904D01*
X78752380Y-69426190D02*
X77752380Y-69426190D01*
X77895238Y-69521428D01*
X77990476Y-69616666D01*
X78038095Y-69711904D01*
X77752380Y-68235714D02*
X77752380Y-68711904D01*
X78228571Y-68759523D01*
X78180952Y-68711904D01*
X78133333Y-68616666D01*
X78133333Y-68378571D01*
X78180952Y-68283333D01*
X78228571Y-68235714D01*
X78323809Y-68188095D01*
X78561904Y-68188095D01*
X78657142Y-68235714D01*
X78704761Y-68283333D01*
X78752380Y-68378571D01*
X78752380Y-68616666D01*
X78704761Y-68711904D01*
X78657142Y-68759523D01*
G04 #@! TO.C,C9*
X91507142Y-80666666D02*
X91554761Y-80714285D01*
X91602380Y-80857142D01*
X91602380Y-80952380D01*
X91554761Y-81095238D01*
X91459523Y-81190476D01*
X91364285Y-81238095D01*
X91173809Y-81285714D01*
X91030952Y-81285714D01*
X90840476Y-81238095D01*
X90745238Y-81190476D01*
X90650000Y-81095238D01*
X90602380Y-80952380D01*
X90602380Y-80857142D01*
X90650000Y-80714285D01*
X90697619Y-80666666D01*
X91602380Y-80190476D02*
X91602380Y-80000000D01*
X91554761Y-79904761D01*
X91507142Y-79857142D01*
X91364285Y-79761904D01*
X91173809Y-79714285D01*
X90792857Y-79714285D01*
X90697619Y-79761904D01*
X90650000Y-79809523D01*
X90602380Y-79904761D01*
X90602380Y-80095238D01*
X90650000Y-80190476D01*
X90697619Y-80238095D01*
X90792857Y-80285714D01*
X91030952Y-80285714D01*
X91126190Y-80238095D01*
X91173809Y-80190476D01*
X91221428Y-80095238D01*
X91221428Y-79904761D01*
X91173809Y-79809523D01*
X91126190Y-79761904D01*
X91030952Y-79714285D01*
G04 #@! TO.C,C14*
X83757142Y-70092857D02*
X83804761Y-70140476D01*
X83852380Y-70283333D01*
X83852380Y-70378571D01*
X83804761Y-70521428D01*
X83709523Y-70616666D01*
X83614285Y-70664285D01*
X83423809Y-70711904D01*
X83280952Y-70711904D01*
X83090476Y-70664285D01*
X82995238Y-70616666D01*
X82900000Y-70521428D01*
X82852380Y-70378571D01*
X82852380Y-70283333D01*
X82900000Y-70140476D01*
X82947619Y-70092857D01*
X83852380Y-69140476D02*
X83852380Y-69711904D01*
X83852380Y-69426190D02*
X82852380Y-69426190D01*
X82995238Y-69521428D01*
X83090476Y-69616666D01*
X83138095Y-69711904D01*
X83185714Y-68283333D02*
X83852380Y-68283333D01*
X82804761Y-68521428D02*
X83519047Y-68759523D01*
X83519047Y-68140476D01*
G04 #@! TO.C,C16*
X91157142Y-69482027D02*
X91204761Y-69529646D01*
X91252380Y-69672503D01*
X91252380Y-69767741D01*
X91204761Y-69910598D01*
X91109523Y-70005836D01*
X91014285Y-70053455D01*
X90823809Y-70101074D01*
X90680952Y-70101074D01*
X90490476Y-70053455D01*
X90395238Y-70005836D01*
X90300000Y-69910598D01*
X90252380Y-69767741D01*
X90252380Y-69672503D01*
X90300000Y-69529646D01*
X90347619Y-69482027D01*
X91252380Y-68529646D02*
X91252380Y-69101074D01*
X91252380Y-68815360D02*
X90252380Y-68815360D01*
X90395238Y-68910598D01*
X90490476Y-69005836D01*
X90538095Y-69101074D01*
X90252380Y-67672503D02*
X90252380Y-67862979D01*
X90300000Y-67958217D01*
X90347619Y-68005836D01*
X90490476Y-68101074D01*
X90680952Y-68148693D01*
X91061904Y-68148693D01*
X91157142Y-68101074D01*
X91204761Y-68053455D01*
X91252380Y-67958217D01*
X91252380Y-67767741D01*
X91204761Y-67672503D01*
X91157142Y-67624884D01*
X91061904Y-67577265D01*
X90823809Y-67577265D01*
X90728571Y-67624884D01*
X90680952Y-67672503D01*
X90633333Y-67767741D01*
X90633333Y-67958217D01*
X90680952Y-68053455D01*
X90728571Y-68101074D01*
X90823809Y-68148693D01*
G04 #@! TO.C,C17*
X87057142Y-69392857D02*
X87104761Y-69440476D01*
X87152380Y-69583333D01*
X87152380Y-69678571D01*
X87104761Y-69821428D01*
X87009523Y-69916666D01*
X86914285Y-69964285D01*
X86723809Y-70011904D01*
X86580952Y-70011904D01*
X86390476Y-69964285D01*
X86295238Y-69916666D01*
X86200000Y-69821428D01*
X86152380Y-69678571D01*
X86152380Y-69583333D01*
X86200000Y-69440476D01*
X86247619Y-69392857D01*
X87152380Y-68440476D02*
X87152380Y-69011904D01*
X87152380Y-68726190D02*
X86152380Y-68726190D01*
X86295238Y-68821428D01*
X86390476Y-68916666D01*
X86438095Y-69011904D01*
X86152380Y-68107142D02*
X86152380Y-67440476D01*
X87152380Y-67869047D01*
G04 #@! TO.C,C45*
X123980614Y-54701206D02*
X123932995Y-54748825D01*
X123790138Y-54796444D01*
X123694900Y-54796444D01*
X123552043Y-54748825D01*
X123456805Y-54653587D01*
X123409186Y-54558349D01*
X123361567Y-54367873D01*
X123361567Y-54225016D01*
X123409186Y-54034540D01*
X123456805Y-53939302D01*
X123552043Y-53844064D01*
X123694900Y-53796444D01*
X123790138Y-53796444D01*
X123932995Y-53844064D01*
X123980614Y-53891683D01*
X124837757Y-54129778D02*
X124837757Y-54796444D01*
X124599662Y-53748825D02*
X124361567Y-54463111D01*
X124980614Y-54463111D01*
X125837757Y-53796444D02*
X125361567Y-53796444D01*
X125313948Y-54272635D01*
X125361567Y-54225016D01*
X125456805Y-54177397D01*
X125694900Y-54177397D01*
X125790138Y-54225016D01*
X125837757Y-54272635D01*
X125885376Y-54367873D01*
X125885376Y-54605968D01*
X125837757Y-54701206D01*
X125790138Y-54748825D01*
X125694900Y-54796444D01*
X125456805Y-54796444D01*
X125361567Y-54748825D01*
X125313948Y-54701206D01*
G04 #@! TO.C,C46*
X130957142Y-67392857D02*
X131004761Y-67440476D01*
X131052380Y-67583333D01*
X131052380Y-67678571D01*
X131004761Y-67821428D01*
X130909523Y-67916666D01*
X130814285Y-67964285D01*
X130623809Y-68011904D01*
X130480952Y-68011904D01*
X130290476Y-67964285D01*
X130195238Y-67916666D01*
X130100000Y-67821428D01*
X130052380Y-67678571D01*
X130052380Y-67583333D01*
X130100000Y-67440476D01*
X130147619Y-67392857D01*
X130385714Y-66535714D02*
X131052380Y-66535714D01*
X130004761Y-66773809D02*
X130719047Y-67011904D01*
X130719047Y-66392857D01*
X130052380Y-65583333D02*
X130052380Y-65773809D01*
X130100000Y-65869047D01*
X130147619Y-65916666D01*
X130290476Y-66011904D01*
X130480952Y-66059523D01*
X130861904Y-66059523D01*
X130957142Y-66011904D01*
X131004761Y-65964285D01*
X131052380Y-65869047D01*
X131052380Y-65678571D01*
X131004761Y-65583333D01*
X130957142Y-65535714D01*
X130861904Y-65488095D01*
X130623809Y-65488095D01*
X130528571Y-65535714D01*
X130480952Y-65583333D01*
X130433333Y-65678571D01*
X130433333Y-65869047D01*
X130480952Y-65964285D01*
X130528571Y-66011904D01*
X130623809Y-66059523D01*
G04 #@! TO.C,C21*
X85157142Y-67992857D02*
X85204761Y-68040476D01*
X85252380Y-68183333D01*
X85252380Y-68278571D01*
X85204761Y-68421428D01*
X85109523Y-68516666D01*
X85014285Y-68564285D01*
X84823809Y-68611904D01*
X84680952Y-68611904D01*
X84490476Y-68564285D01*
X84395238Y-68516666D01*
X84300000Y-68421428D01*
X84252380Y-68278571D01*
X84252380Y-68183333D01*
X84300000Y-68040476D01*
X84347619Y-67992857D01*
X84347619Y-67611904D02*
X84300000Y-67564285D01*
X84252380Y-67469047D01*
X84252380Y-67230952D01*
X84300000Y-67135714D01*
X84347619Y-67088095D01*
X84442857Y-67040476D01*
X84538095Y-67040476D01*
X84680952Y-67088095D01*
X85252380Y-67659523D01*
X85252380Y-67040476D01*
X85252380Y-66088095D02*
X85252380Y-66659523D01*
X85252380Y-66373809D02*
X84252380Y-66373809D01*
X84395238Y-66469047D01*
X84490476Y-66564285D01*
X84538095Y-66659523D01*
G04 #@! TO.C,C19*
X78957142Y-55407142D02*
X78909523Y-55454761D01*
X78766666Y-55502380D01*
X78671428Y-55502380D01*
X78528571Y-55454761D01*
X78433333Y-55359523D01*
X78385714Y-55264285D01*
X78338095Y-55073809D01*
X78338095Y-54930952D01*
X78385714Y-54740476D01*
X78433333Y-54645238D01*
X78528571Y-54550000D01*
X78671428Y-54502380D01*
X78766666Y-54502380D01*
X78909523Y-54550000D01*
X78957142Y-54597619D01*
X79909523Y-55502380D02*
X79338095Y-55502380D01*
X79623809Y-55502380D02*
X79623809Y-54502380D01*
X79528571Y-54645238D01*
X79433333Y-54740476D01*
X79338095Y-54788095D01*
X80385714Y-55502380D02*
X80576190Y-55502380D01*
X80671428Y-55454761D01*
X80719047Y-55407142D01*
X80814285Y-55264285D01*
X80861904Y-55073809D01*
X80861904Y-54692857D01*
X80814285Y-54597619D01*
X80766666Y-54550000D01*
X80671428Y-54502380D01*
X80480952Y-54502380D01*
X80385714Y-54550000D01*
X80338095Y-54597619D01*
X80290476Y-54692857D01*
X80290476Y-54930952D01*
X80338095Y-55026190D01*
X80385714Y-55073809D01*
X80480952Y-55121428D01*
X80671428Y-55121428D01*
X80766666Y-55073809D01*
X80814285Y-55026190D01*
X80861904Y-54930952D01*
G04 #@! TO.C,C48*
X138557142Y-66907142D02*
X138509523Y-66954761D01*
X138366666Y-67002380D01*
X138271428Y-67002380D01*
X138128571Y-66954761D01*
X138033333Y-66859523D01*
X137985714Y-66764285D01*
X137938095Y-66573809D01*
X137938095Y-66430952D01*
X137985714Y-66240476D01*
X138033333Y-66145238D01*
X138128571Y-66050000D01*
X138271428Y-66002380D01*
X138366666Y-66002380D01*
X138509523Y-66050000D01*
X138557142Y-66097619D01*
X139414285Y-66335714D02*
X139414285Y-67002380D01*
X139176190Y-65954761D02*
X138938095Y-66669047D01*
X139557142Y-66669047D01*
X140080952Y-66430952D02*
X139985714Y-66383333D01*
X139938095Y-66335714D01*
X139890476Y-66240476D01*
X139890476Y-66192857D01*
X139938095Y-66097619D01*
X139985714Y-66050000D01*
X140080952Y-66002380D01*
X140271428Y-66002380D01*
X140366666Y-66050000D01*
X140414285Y-66097619D01*
X140461904Y-66192857D01*
X140461904Y-66240476D01*
X140414285Y-66335714D01*
X140366666Y-66383333D01*
X140271428Y-66430952D01*
X140080952Y-66430952D01*
X139985714Y-66478571D01*
X139938095Y-66526190D01*
X139890476Y-66621428D01*
X139890476Y-66811904D01*
X139938095Y-66907142D01*
X139985714Y-66954761D01*
X140080952Y-67002380D01*
X140271428Y-67002380D01*
X140366666Y-66954761D01*
X140414285Y-66907142D01*
X140461904Y-66811904D01*
X140461904Y-66621428D01*
X140414285Y-66526190D01*
X140366666Y-66478571D01*
X140271428Y-66430952D01*
G04 #@! TO.C,C49*
X132257142Y-67392857D02*
X132304761Y-67440476D01*
X132352380Y-67583333D01*
X132352380Y-67678571D01*
X132304761Y-67821428D01*
X132209523Y-67916666D01*
X132114285Y-67964285D01*
X131923809Y-68011904D01*
X131780952Y-68011904D01*
X131590476Y-67964285D01*
X131495238Y-67916666D01*
X131400000Y-67821428D01*
X131352380Y-67678571D01*
X131352380Y-67583333D01*
X131400000Y-67440476D01*
X131447619Y-67392857D01*
X131685714Y-66535714D02*
X132352380Y-66535714D01*
X131304761Y-66773809D02*
X132019047Y-67011904D01*
X132019047Y-66392857D01*
X132352380Y-65964285D02*
X132352380Y-65773809D01*
X132304761Y-65678571D01*
X132257142Y-65630952D01*
X132114285Y-65535714D01*
X131923809Y-65488095D01*
X131542857Y-65488095D01*
X131447619Y-65535714D01*
X131400000Y-65583333D01*
X131352380Y-65678571D01*
X131352380Y-65869047D01*
X131400000Y-65964285D01*
X131447619Y-66011904D01*
X131542857Y-66059523D01*
X131780952Y-66059523D01*
X131876190Y-66011904D01*
X131923809Y-65964285D01*
X131971428Y-65869047D01*
X131971428Y-65678571D01*
X131923809Y-65583333D01*
X131876190Y-65535714D01*
X131780952Y-65488095D01*
G04 #@! TO.C,C47*
X151910467Y-59941144D02*
X151862848Y-59988763D01*
X151719991Y-60036382D01*
X151624753Y-60036382D01*
X151481896Y-59988763D01*
X151386658Y-59893525D01*
X151339039Y-59798287D01*
X151291420Y-59607811D01*
X151291420Y-59464954D01*
X151339039Y-59274478D01*
X151386658Y-59179240D01*
X151481896Y-59084002D01*
X151624753Y-59036382D01*
X151719991Y-59036382D01*
X151862848Y-59084002D01*
X151910467Y-59131621D01*
X152767610Y-59369716D02*
X152767610Y-60036382D01*
X152529515Y-58988763D02*
X152291420Y-59703049D01*
X152910467Y-59703049D01*
X153196182Y-59036382D02*
X153862848Y-59036382D01*
X153434277Y-60036382D01*
G04 #@! TO.C,C50*
X141066467Y-62258859D02*
X141114086Y-62306478D01*
X141161705Y-62449335D01*
X141161705Y-62544573D01*
X141114086Y-62687430D01*
X141018848Y-62782668D01*
X140923610Y-62830287D01*
X140733134Y-62877906D01*
X140590277Y-62877906D01*
X140399801Y-62830287D01*
X140304563Y-62782668D01*
X140209325Y-62687430D01*
X140161705Y-62544573D01*
X140161705Y-62449335D01*
X140209325Y-62306478D01*
X140256944Y-62258859D01*
X140161705Y-61354097D02*
X140161705Y-61830287D01*
X140637896Y-61877906D01*
X140590277Y-61830287D01*
X140542658Y-61735049D01*
X140542658Y-61496954D01*
X140590277Y-61401716D01*
X140637896Y-61354097D01*
X140733134Y-61306478D01*
X140971229Y-61306478D01*
X141066467Y-61354097D01*
X141114086Y-61401716D01*
X141161705Y-61496954D01*
X141161705Y-61735049D01*
X141114086Y-61830287D01*
X141066467Y-61877906D01*
X140161705Y-60687430D02*
X140161705Y-60592192D01*
X140209325Y-60496954D01*
X140256944Y-60449335D01*
X140352182Y-60401716D01*
X140542658Y-60354097D01*
X140780753Y-60354097D01*
X140971229Y-60401716D01*
X141066467Y-60449335D01*
X141114086Y-60496954D01*
X141161705Y-60592192D01*
X141161705Y-60687430D01*
X141114086Y-60782668D01*
X141066467Y-60830287D01*
X140971229Y-60877906D01*
X140780753Y-60925525D01*
X140542658Y-60925525D01*
X140352182Y-60877906D01*
X140256944Y-60830287D01*
X140209325Y-60782668D01*
X140161705Y-60687430D01*
G04 #@! TO.C,C23*
X93584618Y-67492684D02*
X93536999Y-67540303D01*
X93394142Y-67587922D01*
X93298904Y-67587922D01*
X93156047Y-67540303D01*
X93060809Y-67445065D01*
X93013190Y-67349827D01*
X92965571Y-67159351D01*
X92965571Y-67016494D01*
X93013190Y-66826018D01*
X93060809Y-66730780D01*
X93156047Y-66635542D01*
X93298904Y-66587922D01*
X93394142Y-66587922D01*
X93536999Y-66635542D01*
X93584618Y-66683161D01*
X93965571Y-66683161D02*
X94013190Y-66635542D01*
X94108428Y-66587922D01*
X94346523Y-66587922D01*
X94441761Y-66635542D01*
X94489380Y-66683161D01*
X94536999Y-66778399D01*
X94536999Y-66873637D01*
X94489380Y-67016494D01*
X93917952Y-67587922D01*
X94536999Y-67587922D01*
X94870333Y-66587922D02*
X95489380Y-66587922D01*
X95156047Y-66968875D01*
X95298904Y-66968875D01*
X95394142Y-67016494D01*
X95441761Y-67064113D01*
X95489380Y-67159351D01*
X95489380Y-67397446D01*
X95441761Y-67492684D01*
X95394142Y-67540303D01*
X95298904Y-67587922D01*
X95013190Y-67587922D01*
X94917952Y-67540303D01*
X94870333Y-67492684D01*
G04 #@! TO.C,C24*
X86857142Y-64892857D02*
X86904761Y-64940476D01*
X86952380Y-65083333D01*
X86952380Y-65178571D01*
X86904761Y-65321428D01*
X86809523Y-65416666D01*
X86714285Y-65464285D01*
X86523809Y-65511904D01*
X86380952Y-65511904D01*
X86190476Y-65464285D01*
X86095238Y-65416666D01*
X86000000Y-65321428D01*
X85952380Y-65178571D01*
X85952380Y-65083333D01*
X86000000Y-64940476D01*
X86047619Y-64892857D01*
X86047619Y-64511904D02*
X86000000Y-64464285D01*
X85952380Y-64369047D01*
X85952380Y-64130952D01*
X86000000Y-64035714D01*
X86047619Y-63988095D01*
X86142857Y-63940476D01*
X86238095Y-63940476D01*
X86380952Y-63988095D01*
X86952380Y-64559523D01*
X86952380Y-63940476D01*
X86285714Y-63083333D02*
X86952380Y-63083333D01*
X85904761Y-63321428D02*
X86619047Y-63559523D01*
X86619047Y-62940476D01*
G04 #@! TO.C,C22*
X107657142Y-59907142D02*
X107609523Y-59954761D01*
X107466666Y-60002380D01*
X107371428Y-60002380D01*
X107228571Y-59954761D01*
X107133333Y-59859523D01*
X107085714Y-59764285D01*
X107038095Y-59573809D01*
X107038095Y-59430952D01*
X107085714Y-59240476D01*
X107133333Y-59145238D01*
X107228571Y-59050000D01*
X107371428Y-59002380D01*
X107466666Y-59002380D01*
X107609523Y-59050000D01*
X107657142Y-59097619D01*
X108038095Y-59097619D02*
X108085714Y-59050000D01*
X108180952Y-59002380D01*
X108419047Y-59002380D01*
X108514285Y-59050000D01*
X108561904Y-59097619D01*
X108609523Y-59192857D01*
X108609523Y-59288095D01*
X108561904Y-59430952D01*
X107990476Y-60002380D01*
X108609523Y-60002380D01*
X108990476Y-59097619D02*
X109038095Y-59050000D01*
X109133333Y-59002380D01*
X109371428Y-59002380D01*
X109466666Y-59050000D01*
X109514285Y-59097619D01*
X109561904Y-59192857D01*
X109561904Y-59288095D01*
X109514285Y-59430952D01*
X108942857Y-60002380D01*
X109561904Y-60002380D01*
G04 #@! TO.C,C25*
X97083727Y-62282326D02*
X97131346Y-62329945D01*
X97178965Y-62472802D01*
X97178965Y-62568040D01*
X97131346Y-62710897D01*
X97036108Y-62806135D01*
X96940870Y-62853754D01*
X96750394Y-62901373D01*
X96607537Y-62901373D01*
X96417061Y-62853754D01*
X96321823Y-62806135D01*
X96226585Y-62710897D01*
X96178965Y-62568040D01*
X96178965Y-62472802D01*
X96226585Y-62329945D01*
X96274204Y-62282326D01*
X96274204Y-61901373D02*
X96226585Y-61853754D01*
X96178965Y-61758516D01*
X96178965Y-61520421D01*
X96226585Y-61425183D01*
X96274204Y-61377564D01*
X96369442Y-61329945D01*
X96464680Y-61329945D01*
X96607537Y-61377564D01*
X97178965Y-61948992D01*
X97178965Y-61329945D01*
X96178965Y-60425183D02*
X96178965Y-60901373D01*
X96655156Y-60948992D01*
X96607537Y-60901373D01*
X96559918Y-60806135D01*
X96559918Y-60568040D01*
X96607537Y-60472802D01*
X96655156Y-60425183D01*
X96750394Y-60377564D01*
X96988489Y-60377564D01*
X97083727Y-60425183D01*
X97131346Y-60472802D01*
X97178965Y-60568040D01*
X97178965Y-60806135D01*
X97131346Y-60901373D01*
X97083727Y-60948992D01*
G04 #@! TO.C,R2*
X83133333Y-67302380D02*
X82800000Y-66826190D01*
X82561904Y-67302380D02*
X82561904Y-66302380D01*
X82942857Y-66302380D01*
X83038095Y-66350000D01*
X83085714Y-66397619D01*
X83133333Y-66492857D01*
X83133333Y-66635714D01*
X83085714Y-66730952D01*
X83038095Y-66778571D01*
X82942857Y-66826190D01*
X82561904Y-66826190D01*
X83514285Y-66397619D02*
X83561904Y-66350000D01*
X83657142Y-66302380D01*
X83895238Y-66302380D01*
X83990476Y-66350000D01*
X84038095Y-66397619D01*
X84085714Y-66492857D01*
X84085714Y-66588095D01*
X84038095Y-66730952D01*
X83466666Y-67302380D01*
X84085714Y-67302380D01*
G04 #@! TO.C,R9*
X128133333Y-66702380D02*
X127800000Y-66226190D01*
X127561904Y-66702380D02*
X127561904Y-65702380D01*
X127942857Y-65702380D01*
X128038095Y-65750000D01*
X128085714Y-65797619D01*
X128133333Y-65892857D01*
X128133333Y-66035714D01*
X128085714Y-66130952D01*
X128038095Y-66178571D01*
X127942857Y-66226190D01*
X127561904Y-66226190D01*
X128609523Y-66702380D02*
X128800000Y-66702380D01*
X128895238Y-66654761D01*
X128942857Y-66607142D01*
X129038095Y-66464285D01*
X129085714Y-66273809D01*
X129085714Y-65892857D01*
X129038095Y-65797619D01*
X128990476Y-65750000D01*
X128895238Y-65702380D01*
X128704761Y-65702380D01*
X128609523Y-65750000D01*
X128561904Y-65797619D01*
X128514285Y-65892857D01*
X128514285Y-66130952D01*
X128561904Y-66226190D01*
X128609523Y-66273809D01*
X128704761Y-66321428D01*
X128895238Y-66321428D01*
X128990476Y-66273809D01*
X129038095Y-66226190D01*
X129085714Y-66130952D01*
G04 #@! TO.C,R5*
X87801580Y-58647966D02*
X87325390Y-58981300D01*
X87801580Y-59219395D02*
X86801580Y-59219395D01*
X86801580Y-58838442D01*
X86849200Y-58743204D01*
X86896819Y-58695585D01*
X86992057Y-58647966D01*
X87134914Y-58647966D01*
X87230152Y-58695585D01*
X87277771Y-58743204D01*
X87325390Y-58838442D01*
X87325390Y-59219395D01*
X86801580Y-57743204D02*
X86801580Y-58219395D01*
X87277771Y-58267014D01*
X87230152Y-58219395D01*
X87182533Y-58124157D01*
X87182533Y-57886061D01*
X87230152Y-57790823D01*
X87277771Y-57743204D01*
X87373009Y-57695585D01*
X87611104Y-57695585D01*
X87706342Y-57743204D01*
X87753961Y-57790823D01*
X87801580Y-57886061D01*
X87801580Y-58124157D01*
X87753961Y-58219395D01*
X87706342Y-58267014D01*
G04 #@! TO.C,R11*
X130430908Y-58600793D02*
X129954718Y-58934126D01*
X130430908Y-59172221D02*
X129430908Y-59172221D01*
X129430908Y-58791269D01*
X129478528Y-58696031D01*
X129526147Y-58648412D01*
X129621385Y-58600793D01*
X129764242Y-58600793D01*
X129859480Y-58648412D01*
X129907099Y-58696031D01*
X129954718Y-58791269D01*
X129954718Y-59172221D01*
X130430908Y-57648412D02*
X130430908Y-58219840D01*
X130430908Y-57934126D02*
X129430908Y-57934126D01*
X129573766Y-58029364D01*
X129669004Y-58124602D01*
X129716623Y-58219840D01*
X130430908Y-56696031D02*
X130430908Y-57267459D01*
X130430908Y-56981745D02*
X129430908Y-56981745D01*
X129573766Y-57076983D01*
X129669004Y-57172221D01*
X129716623Y-57267459D01*
G04 #@! TO.C,R4*
X85610380Y-58748166D02*
X85134190Y-59081500D01*
X85610380Y-59319595D02*
X84610380Y-59319595D01*
X84610380Y-58938642D01*
X84658000Y-58843404D01*
X84705619Y-58795785D01*
X84800857Y-58748166D01*
X84943714Y-58748166D01*
X85038952Y-58795785D01*
X85086571Y-58843404D01*
X85134190Y-58938642D01*
X85134190Y-59319595D01*
X84943714Y-57891023D02*
X85610380Y-57891023D01*
X84562761Y-58129119D02*
X85277047Y-58367214D01*
X85277047Y-57748166D01*
G04 #@! TO.C,R12*
X132630908Y-58600793D02*
X132154718Y-58934126D01*
X132630908Y-59172221D02*
X131630908Y-59172221D01*
X131630908Y-58791269D01*
X131678528Y-58696031D01*
X131726147Y-58648412D01*
X131821385Y-58600793D01*
X131964242Y-58600793D01*
X132059480Y-58648412D01*
X132107099Y-58696031D01*
X132154718Y-58791269D01*
X132154718Y-59172221D01*
X132630908Y-57648412D02*
X132630908Y-58219840D01*
X132630908Y-57934126D02*
X131630908Y-57934126D01*
X131773766Y-58029364D01*
X131869004Y-58124602D01*
X131916623Y-58219840D01*
X131726147Y-57267459D02*
X131678528Y-57219840D01*
X131630908Y-57124602D01*
X131630908Y-56886507D01*
X131678528Y-56791269D01*
X131726147Y-56743650D01*
X131821385Y-56696031D01*
X131916623Y-56696031D01*
X132059480Y-56743650D01*
X132630908Y-57315078D01*
X132630908Y-56696031D01*
G04 #@! TO.C,R6*
X88960809Y-56556522D02*
X88627476Y-56080332D01*
X88389380Y-56556522D02*
X88389380Y-55556522D01*
X88770333Y-55556522D01*
X88865571Y-55604142D01*
X88913190Y-55651761D01*
X88960809Y-55746999D01*
X88960809Y-55889856D01*
X88913190Y-55985094D01*
X88865571Y-56032713D01*
X88770333Y-56080332D01*
X88389380Y-56080332D01*
X89817952Y-55556522D02*
X89627476Y-55556522D01*
X89532237Y-55604142D01*
X89484618Y-55651761D01*
X89389380Y-55794618D01*
X89341761Y-55985094D01*
X89341761Y-56366046D01*
X89389380Y-56461284D01*
X89436999Y-56508903D01*
X89532237Y-56556522D01*
X89722714Y-56556522D01*
X89817952Y-56508903D01*
X89865571Y-56461284D01*
X89913190Y-56366046D01*
X89913190Y-56127951D01*
X89865571Y-56032713D01*
X89817952Y-55985094D01*
X89722714Y-55937475D01*
X89532237Y-55937475D01*
X89436999Y-55985094D01*
X89389380Y-56032713D01*
X89341761Y-56127951D01*
G04 #@! TO.C,R14*
X153882380Y-55492857D02*
X153406190Y-55826190D01*
X153882380Y-56064285D02*
X152882380Y-56064285D01*
X152882380Y-55683333D01*
X152930000Y-55588095D01*
X152977619Y-55540476D01*
X153072857Y-55492857D01*
X153215714Y-55492857D01*
X153310952Y-55540476D01*
X153358571Y-55588095D01*
X153406190Y-55683333D01*
X153406190Y-56064285D01*
X153882380Y-54540476D02*
X153882380Y-55111904D01*
X153882380Y-54826190D02*
X152882380Y-54826190D01*
X153025238Y-54921428D01*
X153120476Y-55016666D01*
X153168095Y-55111904D01*
X153215714Y-53683333D02*
X153882380Y-53683333D01*
X152834761Y-53921428D02*
X153549047Y-54159523D01*
X153549047Y-53540476D01*
G04 #@! TO.C,R7*
X109452380Y-55216666D02*
X108976190Y-55550000D01*
X109452380Y-55788095D02*
X108452380Y-55788095D01*
X108452380Y-55407142D01*
X108500000Y-55311904D01*
X108547619Y-55264285D01*
X108642857Y-55216666D01*
X108785714Y-55216666D01*
X108880952Y-55264285D01*
X108928571Y-55311904D01*
X108976190Y-55407142D01*
X108976190Y-55788095D01*
X108452380Y-54883333D02*
X108452380Y-54216666D01*
X109452380Y-54645238D01*
G04 #@! TO.C,U10*
X77452380Y-61988095D02*
X78261904Y-61988095D01*
X78357142Y-61940476D01*
X78404761Y-61892857D01*
X78452380Y-61797619D01*
X78452380Y-61607142D01*
X78404761Y-61511904D01*
X78357142Y-61464285D01*
X78261904Y-61416666D01*
X77452380Y-61416666D01*
X78452380Y-60416666D02*
X78452380Y-60988095D01*
X78452380Y-60702380D02*
X77452380Y-60702380D01*
X77595238Y-60797619D01*
X77690476Y-60892857D01*
X77738095Y-60988095D01*
X77452380Y-59797619D02*
X77452380Y-59702380D01*
X77500000Y-59607142D01*
X77547619Y-59559523D01*
X77642857Y-59511904D01*
X77833333Y-59464285D01*
X78071428Y-59464285D01*
X78261904Y-59511904D01*
X78357142Y-59559523D01*
X78404761Y-59607142D01*
X78452380Y-59702380D01*
X78452380Y-59797619D01*
X78404761Y-59892857D01*
X78357142Y-59940476D01*
X78261904Y-59988095D01*
X78071428Y-60035714D01*
X77833333Y-60035714D01*
X77642857Y-59988095D01*
X77547619Y-59940476D01*
X77500000Y-59892857D01*
X77452380Y-59797619D01*
G04 #@! TO.C,U21*
X122048908Y-61820031D02*
X122858432Y-61820031D01*
X122953670Y-61772412D01*
X123001289Y-61724793D01*
X123048908Y-61629555D01*
X123048908Y-61439078D01*
X123001289Y-61343840D01*
X122953670Y-61296221D01*
X122858432Y-61248602D01*
X122048908Y-61248602D01*
X122144147Y-60820031D02*
X122096528Y-60772412D01*
X122048908Y-60677174D01*
X122048908Y-60439078D01*
X122096528Y-60343840D01*
X122144147Y-60296221D01*
X122239385Y-60248602D01*
X122334623Y-60248602D01*
X122477480Y-60296221D01*
X123048908Y-60867650D01*
X123048908Y-60248602D01*
X123048908Y-59296221D02*
X123048908Y-59867650D01*
X123048908Y-59581936D02*
X122048908Y-59581936D01*
X122191766Y-59677174D01*
X122287004Y-59772412D01*
X122334623Y-59867650D01*
G04 #@! TO.C,U22*
X140376524Y-59211904D02*
X139567000Y-59211904D01*
X139471762Y-59259523D01*
X139424143Y-59307142D01*
X139376524Y-59402380D01*
X139376524Y-59592857D01*
X139424143Y-59688095D01*
X139471762Y-59735714D01*
X139567000Y-59783333D01*
X140376524Y-59783333D01*
X140281285Y-60211904D02*
X140328905Y-60259523D01*
X140376524Y-60354761D01*
X140376524Y-60592857D01*
X140328905Y-60688095D01*
X140281285Y-60735714D01*
X140186047Y-60783333D01*
X140090809Y-60783333D01*
X139947952Y-60735714D01*
X139376524Y-60164285D01*
X139376524Y-60783333D01*
X140281285Y-61164285D02*
X140328905Y-61211904D01*
X140376524Y-61307142D01*
X140376524Y-61545238D01*
X140328905Y-61640476D01*
X140281285Y-61688095D01*
X140186047Y-61735714D01*
X140090809Y-61735714D01*
X139947952Y-61688095D01*
X139376524Y-61116666D01*
X139376524Y-61735714D01*
G04 #@! TO.C,U23*
X146019229Y-52454382D02*
X146019229Y-53263906D01*
X146066848Y-53359144D01*
X146114467Y-53406763D01*
X146209705Y-53454382D01*
X146400182Y-53454382D01*
X146495420Y-53406763D01*
X146543039Y-53359144D01*
X146590658Y-53263906D01*
X146590658Y-52454382D01*
X147019229Y-52549621D02*
X147066848Y-52502002D01*
X147162086Y-52454382D01*
X147400182Y-52454382D01*
X147495420Y-52502002D01*
X147543039Y-52549621D01*
X147590658Y-52644859D01*
X147590658Y-52740097D01*
X147543039Y-52882954D01*
X146971610Y-53454382D01*
X147590658Y-53454382D01*
X147923991Y-52454382D02*
X148543039Y-52454382D01*
X148209705Y-52835335D01*
X148352563Y-52835335D01*
X148447801Y-52882954D01*
X148495420Y-52930573D01*
X148543039Y-53025811D01*
X148543039Y-53263906D01*
X148495420Y-53359144D01*
X148447801Y-53406763D01*
X148352563Y-53454382D01*
X148066848Y-53454382D01*
X147971610Y-53406763D01*
X147923991Y-53359144D01*
G04 #@! TO.C,U12*
X101771795Y-52534179D02*
X101771795Y-53343703D01*
X101819414Y-53438941D01*
X101867033Y-53486560D01*
X101962271Y-53534179D01*
X102152748Y-53534179D01*
X102247986Y-53486560D01*
X102295605Y-53438941D01*
X102343224Y-53343703D01*
X102343224Y-52534179D01*
X103343224Y-53534179D02*
X102771795Y-53534179D01*
X103057510Y-53534179D02*
X103057510Y-52534179D01*
X102962271Y-52677037D01*
X102867033Y-52772275D01*
X102771795Y-52819894D01*
X103724176Y-52629418D02*
X103771795Y-52581799D01*
X103867033Y-52534179D01*
X104105129Y-52534179D01*
X104200367Y-52581799D01*
X104247986Y-52629418D01*
X104295605Y-52724656D01*
X104295605Y-52819894D01*
X104247986Y-52962751D01*
X103676557Y-53534179D01*
X104295605Y-53534179D01*
G04 #@! TO.C,C11*
X73757142Y-82192857D02*
X73804761Y-82240476D01*
X73852380Y-82383333D01*
X73852380Y-82478571D01*
X73804761Y-82621428D01*
X73709523Y-82716666D01*
X73614285Y-82764285D01*
X73423809Y-82811904D01*
X73280952Y-82811904D01*
X73090476Y-82764285D01*
X72995238Y-82716666D01*
X72900000Y-82621428D01*
X72852380Y-82478571D01*
X72852380Y-82383333D01*
X72900000Y-82240476D01*
X72947619Y-82192857D01*
X73852380Y-81240476D02*
X73852380Y-81811904D01*
X73852380Y-81526190D02*
X72852380Y-81526190D01*
X72995238Y-81621428D01*
X73090476Y-81716666D01*
X73138095Y-81811904D01*
X73852380Y-80288095D02*
X73852380Y-80859523D01*
X73852380Y-80573809D02*
X72852380Y-80573809D01*
X72995238Y-80669047D01*
X73090476Y-80764285D01*
X73138095Y-80859523D01*
G04 #@! TO.C,U8*
X69565550Y-76311610D02*
X70375074Y-76311610D01*
X70470312Y-76263991D01*
X70517931Y-76216372D01*
X70565550Y-76121134D01*
X70565550Y-75930658D01*
X70517931Y-75835420D01*
X70470312Y-75787801D01*
X70375074Y-75740182D01*
X69565550Y-75740182D01*
X69994122Y-75121134D02*
X69946503Y-75216372D01*
X69898884Y-75263991D01*
X69803646Y-75311610D01*
X69756027Y-75311610D01*
X69660789Y-75263991D01*
X69613170Y-75216372D01*
X69565550Y-75121134D01*
X69565550Y-74930658D01*
X69613170Y-74835420D01*
X69660789Y-74787801D01*
X69756027Y-74740182D01*
X69803646Y-74740182D01*
X69898884Y-74787801D01*
X69946503Y-74835420D01*
X69994122Y-74930658D01*
X69994122Y-75121134D01*
X70041741Y-75216372D01*
X70089360Y-75263991D01*
X70184598Y-75311610D01*
X70375074Y-75311610D01*
X70470312Y-75263991D01*
X70517931Y-75216372D01*
X70565550Y-75121134D01*
X70565550Y-74930658D01*
X70517931Y-74835420D01*
X70470312Y-74787801D01*
X70375074Y-74740182D01*
X70184598Y-74740182D01*
X70089360Y-74787801D01*
X70041741Y-74835420D01*
X69994122Y-74930658D01*
G04 #@! TO.C,U11*
X95247619Y-59511904D02*
X94438095Y-59511904D01*
X94342857Y-59559523D01*
X94295238Y-59607142D01*
X94247619Y-59702380D01*
X94247619Y-59892857D01*
X94295238Y-59988095D01*
X94342857Y-60035714D01*
X94438095Y-60083333D01*
X95247619Y-60083333D01*
X94247619Y-61083333D02*
X94247619Y-60511904D01*
X94247619Y-60797619D02*
X95247619Y-60797619D01*
X95104761Y-60702380D01*
X95009523Y-60607142D01*
X94961904Y-60511904D01*
X94247619Y-62035714D02*
X94247619Y-61464285D01*
X94247619Y-61750000D02*
X95247619Y-61750000D01*
X95104761Y-61654761D01*
X95009523Y-61559523D01*
X94961904Y-61464285D01*
G04 #@! TO.C,J8*
X125166666Y-42902380D02*
X125166666Y-43616666D01*
X125119047Y-43759523D01*
X125023809Y-43854761D01*
X124880952Y-43902380D01*
X124785714Y-43902380D01*
X125785714Y-43330952D02*
X125690476Y-43283333D01*
X125642857Y-43235714D01*
X125595238Y-43140476D01*
X125595238Y-43092857D01*
X125642857Y-42997619D01*
X125690476Y-42950000D01*
X125785714Y-42902380D01*
X125976190Y-42902380D01*
X126071428Y-42950000D01*
X126119047Y-42997619D01*
X126166666Y-43092857D01*
X126166666Y-43140476D01*
X126119047Y-43235714D01*
X126071428Y-43283333D01*
X125976190Y-43330952D01*
X125785714Y-43330952D01*
X125690476Y-43378571D01*
X125642857Y-43426190D01*
X125595238Y-43521428D01*
X125595238Y-43711904D01*
X125642857Y-43807142D01*
X125690476Y-43854761D01*
X125785714Y-43902380D01*
X125976190Y-43902380D01*
X126071428Y-43854761D01*
X126119047Y-43807142D01*
X126166666Y-43711904D01*
X126166666Y-43521428D01*
X126119047Y-43426190D01*
X126071428Y-43378571D01*
X125976190Y-43330952D01*
G04 #@! TD*
M02*
