G04 #@! TF.GenerationSoftware,KiCad,Pcbnew,5.0.2-bee76a0~70~ubuntu18.04.1*
G04 #@! TF.CreationDate,2019-02-25T13:41:17+02:00*
G04 #@! TF.ProjectId,stimjim,7374696d-6a69-46d2-9e6b-696361645f70,rev?*
G04 #@! TF.SameCoordinates,Original*
G04 #@! TF.FileFunction,Legend,Top*
G04 #@! TF.FilePolarity,Positive*
%FSLAX46Y46*%
G04 Gerber Fmt 4.6, Leading zero omitted, Abs format (unit mm)*
G04 Created by KiCad (PCBNEW 5.0.2-bee76a0~70~ubuntu18.04.1) date Mon Feb 25 13:41:17 2019*
%MOMM*%
%LPD*%
G01*
G04 APERTURE LIST*
%ADD10C,0.100000*%
%ADD11C,0.150000*%
%ADD12C,0.300000*%
%ADD13C,0.400000*%
%ADD14C,0.600000*%
%ADD15C,0.200000*%
%ADD16C,0.250000*%
%ADD17C,0.120000*%
G04 APERTURE END LIST*
D10*
D11*
X177002200Y-166007200D02*
X177002200Y-198007200D01*
X285002200Y-198007200D01*
X285002200Y-166007200D01*
X177002200Y-166007200D01*
D10*
D11*
X10000000Y-10000000D02*
X10000000Y-200007200D01*
X287002200Y-200007200D01*
X287002200Y-10000000D01*
X10000000Y-10000000D01*
D10*
D11*
X12000000Y-12000000D02*
X12000000Y-198007200D01*
X285002200Y-198007200D01*
X285002200Y-12000000D01*
X12000000Y-12000000D01*
D10*
D11*
X60000000Y-12000000D02*
X60000000Y-10000000D01*
D10*
D11*
X110000000Y-12000000D02*
X110000000Y-10000000D01*
D10*
D11*
X160000000Y-12000000D02*
X160000000Y-10000000D01*
D10*
D11*
X210000000Y-12000000D02*
X210000000Y-10000000D01*
D10*
D11*
X260000000Y-12000000D02*
X260000000Y-10000000D01*
D10*
D11*
X36065476Y-11588095D02*
X35322619Y-11588095D01*
X35694047Y-11588095D02*
X35694047Y-10288095D01*
X35570238Y-10473809D01*
X35446428Y-10597619D01*
X35322619Y-10659523D01*
D10*
D11*
X85322619Y-10411904D02*
X85384523Y-10350000D01*
X85508333Y-10288095D01*
X85817857Y-10288095D01*
X85941666Y-10350000D01*
X86003571Y-10411904D01*
X86065476Y-10535714D01*
X86065476Y-10659523D01*
X86003571Y-10845238D01*
X85260714Y-11588095D01*
X86065476Y-11588095D01*
D10*
D11*
X135260714Y-10288095D02*
X136065476Y-10288095D01*
X135632142Y-10783333D01*
X135817857Y-10783333D01*
X135941666Y-10845238D01*
X136003571Y-10907142D01*
X136065476Y-11030952D01*
X136065476Y-11340476D01*
X136003571Y-11464285D01*
X135941666Y-11526190D01*
X135817857Y-11588095D01*
X135446428Y-11588095D01*
X135322619Y-11526190D01*
X135260714Y-11464285D01*
D10*
D11*
X185941666Y-10721428D02*
X185941666Y-11588095D01*
X185632142Y-10226190D02*
X185322619Y-11154761D01*
X186127380Y-11154761D01*
D10*
D11*
X236003571Y-10288095D02*
X235384523Y-10288095D01*
X235322619Y-10907142D01*
X235384523Y-10845238D01*
X235508333Y-10783333D01*
X235817857Y-10783333D01*
X235941666Y-10845238D01*
X236003571Y-10907142D01*
X236065476Y-11030952D01*
X236065476Y-11340476D01*
X236003571Y-11464285D01*
X235941666Y-11526190D01*
X235817857Y-11588095D01*
X235508333Y-11588095D01*
X235384523Y-11526190D01*
X235322619Y-11464285D01*
D10*
D11*
X285941666Y-10288095D02*
X285694047Y-10288095D01*
X285570238Y-10350000D01*
X285508333Y-10411904D01*
X285384523Y-10597619D01*
X285322619Y-10845238D01*
X285322619Y-11340476D01*
X285384523Y-11464285D01*
X285446428Y-11526190D01*
X285570238Y-11588095D01*
X285817857Y-11588095D01*
X285941666Y-11526190D01*
X286003571Y-11464285D01*
X286065476Y-11340476D01*
X286065476Y-11030952D01*
X286003571Y-10907142D01*
X285941666Y-10845238D01*
X285817857Y-10783333D01*
X285570238Y-10783333D01*
X285446428Y-10845238D01*
X285384523Y-10907142D01*
X285322619Y-11030952D01*
D10*
D11*
X60000000Y-198007200D02*
X60000000Y-200007200D01*
D10*
D11*
X110000000Y-198007200D02*
X110000000Y-200007200D01*
D10*
D11*
X160000000Y-198007200D02*
X160000000Y-200007200D01*
D10*
D11*
X210000000Y-198007200D02*
X210000000Y-200007200D01*
D10*
D11*
X260000000Y-198007200D02*
X260000000Y-200007200D01*
D10*
D11*
X36065476Y-199595295D02*
X35322619Y-199595295D01*
X35694047Y-199595295D02*
X35694047Y-198295295D01*
X35570238Y-198481009D01*
X35446428Y-198604819D01*
X35322619Y-198666723D01*
D10*
D11*
X85322619Y-198419104D02*
X85384523Y-198357200D01*
X85508333Y-198295295D01*
X85817857Y-198295295D01*
X85941666Y-198357200D01*
X86003571Y-198419104D01*
X86065476Y-198542914D01*
X86065476Y-198666723D01*
X86003571Y-198852438D01*
X85260714Y-199595295D01*
X86065476Y-199595295D01*
D10*
D11*
X135260714Y-198295295D02*
X136065476Y-198295295D01*
X135632142Y-198790533D01*
X135817857Y-198790533D01*
X135941666Y-198852438D01*
X136003571Y-198914342D01*
X136065476Y-199038152D01*
X136065476Y-199347676D01*
X136003571Y-199471485D01*
X135941666Y-199533390D01*
X135817857Y-199595295D01*
X135446428Y-199595295D01*
X135322619Y-199533390D01*
X135260714Y-199471485D01*
D10*
D11*
X185941666Y-198728628D02*
X185941666Y-199595295D01*
X185632142Y-198233390D02*
X185322619Y-199161961D01*
X186127380Y-199161961D01*
D10*
D11*
X236003571Y-198295295D02*
X235384523Y-198295295D01*
X235322619Y-198914342D01*
X235384523Y-198852438D01*
X235508333Y-198790533D01*
X235817857Y-198790533D01*
X235941666Y-198852438D01*
X236003571Y-198914342D01*
X236065476Y-199038152D01*
X236065476Y-199347676D01*
X236003571Y-199471485D01*
X235941666Y-199533390D01*
X235817857Y-199595295D01*
X235508333Y-199595295D01*
X235384523Y-199533390D01*
X235322619Y-199471485D01*
D10*
D11*
X285941666Y-198295295D02*
X285694047Y-198295295D01*
X285570238Y-198357200D01*
X285508333Y-198419104D01*
X285384523Y-198604819D01*
X285322619Y-198852438D01*
X285322619Y-199347676D01*
X285384523Y-199471485D01*
X285446428Y-199533390D01*
X285570238Y-199595295D01*
X285817857Y-199595295D01*
X285941666Y-199533390D01*
X286003571Y-199471485D01*
X286065476Y-199347676D01*
X286065476Y-199038152D01*
X286003571Y-198914342D01*
X285941666Y-198852438D01*
X285817857Y-198790533D01*
X285570238Y-198790533D01*
X285446428Y-198852438D01*
X285384523Y-198914342D01*
X285322619Y-199038152D01*
D10*
D11*
X10000000Y-60000000D02*
X12000000Y-60000000D01*
D10*
D11*
X10000000Y-110000000D02*
X12000000Y-110000000D01*
D10*
D11*
X10000000Y-160000000D02*
X12000000Y-160000000D01*
D10*
D11*
X10690476Y-35216666D02*
X11309523Y-35216666D01*
X10566666Y-35588095D02*
X11000000Y-34288095D01*
X11433333Y-35588095D01*
D10*
D11*
X11092857Y-84907142D02*
X11278571Y-84969047D01*
X11340476Y-85030952D01*
X11402380Y-85154761D01*
X11402380Y-85340476D01*
X11340476Y-85464285D01*
X11278571Y-85526190D01*
X11154761Y-85588095D01*
X10659523Y-85588095D01*
X10659523Y-84288095D01*
X11092857Y-84288095D01*
X11216666Y-84350000D01*
X11278571Y-84411904D01*
X11340476Y-84535714D01*
X11340476Y-84659523D01*
X11278571Y-84783333D01*
X11216666Y-84845238D01*
X11092857Y-84907142D01*
X10659523Y-84907142D01*
D10*
D11*
X11402380Y-135464285D02*
X11340476Y-135526190D01*
X11154761Y-135588095D01*
X11030952Y-135588095D01*
X10845238Y-135526190D01*
X10721428Y-135402380D01*
X10659523Y-135278571D01*
X10597619Y-135030952D01*
X10597619Y-134845238D01*
X10659523Y-134597619D01*
X10721428Y-134473809D01*
X10845238Y-134350000D01*
X11030952Y-134288095D01*
X11154761Y-134288095D01*
X11340476Y-134350000D01*
X11402380Y-134411904D01*
D10*
D11*
X10659523Y-185588095D02*
X10659523Y-184288095D01*
X10969047Y-184288095D01*
X11154761Y-184350000D01*
X11278571Y-184473809D01*
X11340476Y-184597619D01*
X11402380Y-184845238D01*
X11402380Y-185030952D01*
X11340476Y-185278571D01*
X11278571Y-185402380D01*
X11154761Y-185526190D01*
X10969047Y-185588095D01*
X10659523Y-185588095D01*
D10*
D11*
X287002200Y-60000000D02*
X285002200Y-60000000D01*
D10*
D11*
X287002200Y-110000000D02*
X285002200Y-110000000D01*
D10*
D11*
X287002200Y-160000000D02*
X285002200Y-160000000D01*
D10*
D11*
X285692676Y-35216666D02*
X286311723Y-35216666D01*
X285568866Y-35588095D02*
X286002200Y-34288095D01*
X286435533Y-35588095D01*
D10*
D11*
X286095057Y-84907142D02*
X286280771Y-84969047D01*
X286342676Y-85030952D01*
X286404580Y-85154761D01*
X286404580Y-85340476D01*
X286342676Y-85464285D01*
X286280771Y-85526190D01*
X286156961Y-85588095D01*
X285661723Y-85588095D01*
X285661723Y-84288095D01*
X286095057Y-84288095D01*
X286218866Y-84350000D01*
X286280771Y-84411904D01*
X286342676Y-84535714D01*
X286342676Y-84659523D01*
X286280771Y-84783333D01*
X286218866Y-84845238D01*
X286095057Y-84907142D01*
X285661723Y-84907142D01*
D10*
D11*
X286404580Y-135464285D02*
X286342676Y-135526190D01*
X286156961Y-135588095D01*
X286033152Y-135588095D01*
X285847438Y-135526190D01*
X285723628Y-135402380D01*
X285661723Y-135278571D01*
X285599819Y-135030952D01*
X285599819Y-134845238D01*
X285661723Y-134597619D01*
X285723628Y-134473809D01*
X285847438Y-134350000D01*
X286033152Y-134288095D01*
X286156961Y-134288095D01*
X286342676Y-134350000D01*
X286404580Y-134411904D01*
D10*
D11*
X285661723Y-185588095D02*
X285661723Y-184288095D01*
X285971247Y-184288095D01*
X286156961Y-184350000D01*
X286280771Y-184473809D01*
X286342676Y-184597619D01*
X286404580Y-184845238D01*
X286404580Y-185030952D01*
X286342676Y-185278571D01*
X286280771Y-185402380D01*
X286156961Y-185526190D01*
X285971247Y-185588095D01*
X285661723Y-185588095D01*
D10*
D11*
X200434342Y-193785771D02*
X200434342Y-192285771D01*
X200791485Y-192285771D01*
X201005771Y-192357200D01*
X201148628Y-192500057D01*
X201220057Y-192642914D01*
X201291485Y-192928628D01*
X201291485Y-193142914D01*
X201220057Y-193428628D01*
X201148628Y-193571485D01*
X201005771Y-193714342D01*
X200791485Y-193785771D01*
X200434342Y-193785771D01*
X202577200Y-193785771D02*
X202577200Y-193000057D01*
X202505771Y-192857200D01*
X202362914Y-192785771D01*
X202077200Y-192785771D01*
X201934342Y-192857200D01*
X202577200Y-193714342D02*
X202434342Y-193785771D01*
X202077200Y-193785771D01*
X201934342Y-193714342D01*
X201862914Y-193571485D01*
X201862914Y-193428628D01*
X201934342Y-193285771D01*
X202077200Y-193214342D01*
X202434342Y-193214342D01*
X202577200Y-193142914D01*
X203077200Y-192785771D02*
X203648628Y-192785771D01*
X203291485Y-192285771D02*
X203291485Y-193571485D01*
X203362914Y-193714342D01*
X203505771Y-193785771D01*
X203648628Y-193785771D01*
X204720057Y-193714342D02*
X204577200Y-193785771D01*
X204291485Y-193785771D01*
X204148628Y-193714342D01*
X204077200Y-193571485D01*
X204077200Y-193000057D01*
X204148628Y-192857200D01*
X204291485Y-192785771D01*
X204577200Y-192785771D01*
X204720057Y-192857200D01*
X204791485Y-193000057D01*
X204791485Y-193142914D01*
X204077200Y-193285771D01*
X205434342Y-193642914D02*
X205505771Y-193714342D01*
X205434342Y-193785771D01*
X205362914Y-193714342D01*
X205434342Y-193642914D01*
X205434342Y-193785771D01*
X205434342Y-192857200D02*
X205505771Y-192928628D01*
X205434342Y-193000057D01*
X205362914Y-192928628D01*
X205434342Y-192857200D01*
X205434342Y-193000057D01*
D10*
D11*
X177002200Y-194507200D02*
X285002200Y-194507200D01*
D10*
D11*
X178434342Y-196585771D02*
X178434342Y-195085771D01*
X179291485Y-196585771D02*
X178648628Y-195728628D01*
X179291485Y-195085771D02*
X178434342Y-195942914D01*
X179934342Y-196585771D02*
X179934342Y-195585771D01*
X179934342Y-195085771D02*
X179862914Y-195157200D01*
X179934342Y-195228628D01*
X180005771Y-195157200D01*
X179934342Y-195085771D01*
X179934342Y-195228628D01*
X181505771Y-196442914D02*
X181434342Y-196514342D01*
X181220057Y-196585771D01*
X181077200Y-196585771D01*
X180862914Y-196514342D01*
X180720057Y-196371485D01*
X180648628Y-196228628D01*
X180577200Y-195942914D01*
X180577200Y-195728628D01*
X180648628Y-195442914D01*
X180720057Y-195300057D01*
X180862914Y-195157200D01*
X181077200Y-195085771D01*
X181220057Y-195085771D01*
X181434342Y-195157200D01*
X181505771Y-195228628D01*
X182791485Y-196585771D02*
X182791485Y-195800057D01*
X182720057Y-195657200D01*
X182577200Y-195585771D01*
X182291485Y-195585771D01*
X182148628Y-195657200D01*
X182791485Y-196514342D02*
X182648628Y-196585771D01*
X182291485Y-196585771D01*
X182148628Y-196514342D01*
X182077200Y-196371485D01*
X182077200Y-196228628D01*
X182148628Y-196085771D01*
X182291485Y-196014342D01*
X182648628Y-196014342D01*
X182791485Y-195942914D01*
X184148628Y-196585771D02*
X184148628Y-195085771D01*
X184148628Y-196514342D02*
X184005771Y-196585771D01*
X183720057Y-196585771D01*
X183577200Y-196514342D01*
X183505771Y-196442914D01*
X183434342Y-196300057D01*
X183434342Y-195871485D01*
X183505771Y-195728628D01*
X183577200Y-195657200D01*
X183720057Y-195585771D01*
X184005771Y-195585771D01*
X184148628Y-195657200D01*
X186005771Y-195800057D02*
X186505771Y-195800057D01*
X186720057Y-196585771D02*
X186005771Y-196585771D01*
X186005771Y-195085771D01*
X186720057Y-195085771D01*
X187362914Y-196442914D02*
X187434342Y-196514342D01*
X187362914Y-196585771D01*
X187291485Y-196514342D01*
X187362914Y-196442914D01*
X187362914Y-196585771D01*
X188077200Y-196585771D02*
X188077200Y-195085771D01*
X188434342Y-195085771D01*
X188648628Y-195157200D01*
X188791485Y-195300057D01*
X188862914Y-195442914D01*
X188934342Y-195728628D01*
X188934342Y-195942914D01*
X188862914Y-196228628D01*
X188791485Y-196371485D01*
X188648628Y-196514342D01*
X188434342Y-196585771D01*
X188077200Y-196585771D01*
X189577200Y-196442914D02*
X189648628Y-196514342D01*
X189577200Y-196585771D01*
X189505771Y-196514342D01*
X189577200Y-196442914D01*
X189577200Y-196585771D01*
X190220057Y-196157200D02*
X190934342Y-196157200D01*
X190077200Y-196585771D02*
X190577200Y-195085771D01*
X191077200Y-196585771D01*
X191577200Y-196442914D02*
X191648628Y-196514342D01*
X191577200Y-196585771D01*
X191505771Y-196514342D01*
X191577200Y-196442914D01*
X191577200Y-196585771D01*
X194577200Y-196585771D02*
X194577200Y-195085771D01*
X194720057Y-196014342D02*
X195148628Y-196585771D01*
X195148628Y-195585771D02*
X194577200Y-196157200D01*
X195791485Y-196585771D02*
X195791485Y-195585771D01*
X195791485Y-195085771D02*
X195720057Y-195157200D01*
X195791485Y-195228628D01*
X195862914Y-195157200D01*
X195791485Y-195085771D01*
X195791485Y-195228628D01*
X197148628Y-196514342D02*
X197005771Y-196585771D01*
X196720057Y-196585771D01*
X196577200Y-196514342D01*
X196505771Y-196442914D01*
X196434342Y-196300057D01*
X196434342Y-195871485D01*
X196505771Y-195728628D01*
X196577200Y-195657200D01*
X196720057Y-195585771D01*
X197005771Y-195585771D01*
X197148628Y-195657200D01*
X198434342Y-196585771D02*
X198434342Y-195800057D01*
X198362914Y-195657200D01*
X198220057Y-195585771D01*
X197934342Y-195585771D01*
X197791485Y-195657200D01*
X198434342Y-196514342D02*
X198291485Y-196585771D01*
X197934342Y-196585771D01*
X197791485Y-196514342D01*
X197720057Y-196371485D01*
X197720057Y-196228628D01*
X197791485Y-196085771D01*
X197934342Y-196014342D01*
X198291485Y-196014342D01*
X198434342Y-195942914D01*
X199791485Y-196585771D02*
X199791485Y-195085771D01*
X199791485Y-196514342D02*
X199648628Y-196585771D01*
X199362914Y-196585771D01*
X199220057Y-196514342D01*
X199148628Y-196442914D01*
X199077200Y-196300057D01*
X199077200Y-195871485D01*
X199148628Y-195728628D01*
X199220057Y-195657200D01*
X199362914Y-195585771D01*
X199648628Y-195585771D01*
X199791485Y-195657200D01*
X202362914Y-195085771D02*
X201648628Y-195085771D01*
X201577200Y-195800057D01*
X201648628Y-195728628D01*
X201791485Y-195657200D01*
X202148628Y-195657200D01*
X202291485Y-195728628D01*
X202362914Y-195800057D01*
X202434342Y-195942914D01*
X202434342Y-196300057D01*
X202362914Y-196442914D01*
X202291485Y-196514342D01*
X202148628Y-196585771D01*
X201791485Y-196585771D01*
X201648628Y-196514342D01*
X201577200Y-196442914D01*
X203077200Y-196442914D02*
X203148628Y-196514342D01*
X203077200Y-196585771D01*
X203005771Y-196514342D01*
X203077200Y-196442914D01*
X203077200Y-196585771D01*
X204077200Y-195085771D02*
X204220057Y-195085771D01*
X204362914Y-195157200D01*
X204434342Y-195228628D01*
X204505771Y-195371485D01*
X204577200Y-195657200D01*
X204577200Y-196014342D01*
X204505771Y-196300057D01*
X204434342Y-196442914D01*
X204362914Y-196514342D01*
X204220057Y-196585771D01*
X204077200Y-196585771D01*
X203934342Y-196514342D01*
X203862914Y-196442914D01*
X203791485Y-196300057D01*
X203720057Y-196014342D01*
X203720057Y-195657200D01*
X203791485Y-195371485D01*
X203862914Y-195228628D01*
X203934342Y-195157200D01*
X204077200Y-195085771D01*
X205220057Y-196442914D02*
X205291485Y-196514342D01*
X205220057Y-196585771D01*
X205148628Y-196514342D01*
X205220057Y-196442914D01*
X205220057Y-196585771D01*
X205862914Y-195228628D02*
X205934342Y-195157200D01*
X206077200Y-195085771D01*
X206434342Y-195085771D01*
X206577200Y-195157200D01*
X206648628Y-195228628D01*
X206720057Y-195371485D01*
X206720057Y-195514342D01*
X206648628Y-195728628D01*
X205791485Y-196585771D01*
X206720057Y-196585771D01*
X207362914Y-196014342D02*
X208505771Y-196014342D01*
X209220057Y-196585771D02*
X209220057Y-195085771D01*
X209220057Y-195657200D02*
X209362914Y-195585771D01*
X209648628Y-195585771D01*
X209791485Y-195657200D01*
X209862914Y-195728628D01*
X209934342Y-195871485D01*
X209934342Y-196300057D01*
X209862914Y-196442914D01*
X209791485Y-196514342D01*
X209648628Y-196585771D01*
X209362914Y-196585771D01*
X209220057Y-196514342D01*
X211148628Y-196514342D02*
X211005771Y-196585771D01*
X210720057Y-196585771D01*
X210577200Y-196514342D01*
X210505771Y-196371485D01*
X210505771Y-195800057D01*
X210577200Y-195657200D01*
X210720057Y-195585771D01*
X211005771Y-195585771D01*
X211148628Y-195657200D01*
X211220057Y-195800057D01*
X211220057Y-195942914D01*
X210505771Y-196085771D01*
X212434342Y-196514342D02*
X212291485Y-196585771D01*
X212005771Y-196585771D01*
X211862914Y-196514342D01*
X211791485Y-196371485D01*
X211791485Y-195800057D01*
X211862914Y-195657200D01*
X212005771Y-195585771D01*
X212291485Y-195585771D01*
X212434342Y-195657200D01*
X212505771Y-195800057D01*
X212505771Y-195942914D01*
X211791485Y-196085771D01*
X213005771Y-195085771D02*
X214005771Y-195085771D01*
X213362914Y-196585771D01*
X215220057Y-195085771D02*
X214934342Y-195085771D01*
X214791485Y-195157200D01*
X214720057Y-195228628D01*
X214577200Y-195442914D01*
X214505771Y-195728628D01*
X214505771Y-196300057D01*
X214577200Y-196442914D01*
X214648628Y-196514342D01*
X214791485Y-196585771D01*
X215077200Y-196585771D01*
X215220057Y-196514342D01*
X215291485Y-196442914D01*
X215362914Y-196300057D01*
X215362914Y-195942914D01*
X215291485Y-195800057D01*
X215220057Y-195728628D01*
X215077200Y-195657200D01*
X214791485Y-195657200D01*
X214648628Y-195728628D01*
X214577200Y-195800057D01*
X214505771Y-195942914D01*
X216648628Y-196585771D02*
X216648628Y-195800057D01*
X216577200Y-195657200D01*
X216434342Y-195585771D01*
X216148628Y-195585771D01*
X216005771Y-195657200D01*
X216648628Y-196514342D02*
X216505771Y-196585771D01*
X216148628Y-196585771D01*
X216005771Y-196514342D01*
X215934342Y-196371485D01*
X215934342Y-196228628D01*
X216005771Y-196085771D01*
X216148628Y-196014342D01*
X216505771Y-196014342D01*
X216648628Y-195942914D01*
X217648628Y-195085771D02*
X217791485Y-195085771D01*
X217934342Y-195157200D01*
X218005771Y-195228628D01*
X218077200Y-195371485D01*
X218148628Y-195657200D01*
X218148628Y-196014342D01*
X218077200Y-196300057D01*
X218005771Y-196442914D01*
X217934342Y-196514342D01*
X217791485Y-196585771D01*
X217648628Y-196585771D01*
X217505771Y-196514342D01*
X217434342Y-196442914D01*
X217362914Y-196300057D01*
X217291485Y-196014342D01*
X217291485Y-195657200D01*
X217362914Y-195371485D01*
X217434342Y-195228628D01*
X217505771Y-195157200D01*
X217648628Y-195085771D01*
X218434342Y-194677200D02*
X219862914Y-194677200D01*
X218648628Y-195085771D02*
X219648628Y-195085771D01*
X219005771Y-196585771D01*
X219862914Y-194677200D02*
X221291485Y-194677200D01*
X220505771Y-195085771D02*
X220648628Y-195085771D01*
X220791485Y-195157200D01*
X220862914Y-195228628D01*
X220934342Y-195371485D01*
X221005771Y-195657200D01*
X221005771Y-196014342D01*
X220934342Y-196300057D01*
X220862914Y-196442914D01*
X220791485Y-196514342D01*
X220648628Y-196585771D01*
X220505771Y-196585771D01*
X220362914Y-196514342D01*
X220291485Y-196442914D01*
X220220057Y-196300057D01*
X220148628Y-196014342D01*
X220148628Y-195657200D01*
X220220057Y-195371485D01*
X220291485Y-195228628D01*
X220362914Y-195157200D01*
X220505771Y-195085771D01*
X222291485Y-195585771D02*
X222291485Y-196585771D01*
X221648628Y-195585771D02*
X221648628Y-196371485D01*
X221720057Y-196514342D01*
X221862914Y-196585771D01*
X222077200Y-196585771D01*
X222220057Y-196514342D01*
X222291485Y-196442914D01*
X223005771Y-196585771D02*
X223005771Y-195085771D01*
X223005771Y-195657200D02*
X223148628Y-195585771D01*
X223434342Y-195585771D01*
X223577200Y-195657200D01*
X223648628Y-195728628D01*
X223720057Y-195871485D01*
X223720057Y-196300057D01*
X223648628Y-196442914D01*
X223577200Y-196514342D01*
X223434342Y-196585771D01*
X223148628Y-196585771D01*
X223005771Y-196514342D01*
X225005771Y-195585771D02*
X225005771Y-196585771D01*
X224362914Y-195585771D02*
X224362914Y-196371485D01*
X224434342Y-196514342D01*
X224577200Y-196585771D01*
X224791485Y-196585771D01*
X224934342Y-196514342D01*
X225005771Y-196442914D01*
X225720057Y-195585771D02*
X225720057Y-196585771D01*
X225720057Y-195728628D02*
X225791485Y-195657200D01*
X225934342Y-195585771D01*
X226148628Y-195585771D01*
X226291485Y-195657200D01*
X226362914Y-195800057D01*
X226362914Y-196585771D01*
X226862914Y-195585771D02*
X227434342Y-195585771D01*
X227077200Y-195085771D02*
X227077200Y-196371485D01*
X227148628Y-196514342D01*
X227291485Y-196585771D01*
X227434342Y-196585771D01*
X228577200Y-195585771D02*
X228577200Y-196585771D01*
X227934342Y-195585771D02*
X227934342Y-196371485D01*
X228005771Y-196514342D01*
X228148628Y-196585771D01*
X228362914Y-196585771D01*
X228505771Y-196514342D01*
X228577200Y-196442914D01*
X230077200Y-196585771D02*
X229220057Y-196585771D01*
X229648628Y-196585771D02*
X229648628Y-195085771D01*
X229505771Y-195300057D01*
X229362914Y-195442914D01*
X229220057Y-195514342D01*
X230934342Y-195728628D02*
X230791485Y-195657200D01*
X230720057Y-195585771D01*
X230648628Y-195442914D01*
X230648628Y-195371485D01*
X230720057Y-195228628D01*
X230791485Y-195157200D01*
X230934342Y-195085771D01*
X231220057Y-195085771D01*
X231362914Y-195157200D01*
X231434342Y-195228628D01*
X231505771Y-195371485D01*
X231505771Y-195442914D01*
X231434342Y-195585771D01*
X231362914Y-195657200D01*
X231220057Y-195728628D01*
X230934342Y-195728628D01*
X230791485Y-195800057D01*
X230720057Y-195871485D01*
X230648628Y-196014342D01*
X230648628Y-196300057D01*
X230720057Y-196442914D01*
X230791485Y-196514342D01*
X230934342Y-196585771D01*
X231220057Y-196585771D01*
X231362914Y-196514342D01*
X231434342Y-196442914D01*
X231505771Y-196300057D01*
X231505771Y-196014342D01*
X231434342Y-195871485D01*
X231362914Y-195800057D01*
X231220057Y-195728628D01*
X232148628Y-196442914D02*
X232220057Y-196514342D01*
X232148628Y-196585771D01*
X232077200Y-196514342D01*
X232148628Y-196442914D01*
X232148628Y-196585771D01*
X233148628Y-195085771D02*
X233291485Y-195085771D01*
X233434342Y-195157200D01*
X233505771Y-195228628D01*
X233577200Y-195371485D01*
X233648628Y-195657200D01*
X233648628Y-196014342D01*
X233577200Y-196300057D01*
X233505771Y-196442914D01*
X233434342Y-196514342D01*
X233291485Y-196585771D01*
X233148628Y-196585771D01*
X233005771Y-196514342D01*
X232934342Y-196442914D01*
X232862914Y-196300057D01*
X232791485Y-196014342D01*
X232791485Y-195657200D01*
X232862914Y-195371485D01*
X232934342Y-195228628D01*
X233005771Y-195157200D01*
X233148628Y-195085771D01*
X234934342Y-195585771D02*
X234934342Y-196585771D01*
X234577200Y-195014342D02*
X234220057Y-196085771D01*
X235148628Y-196085771D01*
X235720057Y-196442914D02*
X235791485Y-196514342D01*
X235720057Y-196585771D01*
X235648628Y-196514342D01*
X235720057Y-196442914D01*
X235720057Y-196585771D01*
X237220057Y-196585771D02*
X236362914Y-196585771D01*
X236791485Y-196585771D02*
X236791485Y-195085771D01*
X236648628Y-195300057D01*
X236505771Y-195442914D01*
X236362914Y-195514342D01*
D10*
D11*
X177002200Y-191507200D02*
X285002200Y-191507200D01*
D10*
D12*
X264411485Y-193785771D02*
X263911485Y-193071485D01*
X263554342Y-193785771D02*
X263554342Y-192285771D01*
X264125771Y-192285771D01*
X264268628Y-192357200D01*
X264340057Y-192428628D01*
X264411485Y-192571485D01*
X264411485Y-192785771D01*
X264340057Y-192928628D01*
X264268628Y-193000057D01*
X264125771Y-193071485D01*
X263554342Y-193071485D01*
X265625771Y-193714342D02*
X265482914Y-193785771D01*
X265197200Y-193785771D01*
X265054342Y-193714342D01*
X264982914Y-193571485D01*
X264982914Y-193000057D01*
X265054342Y-192857200D01*
X265197200Y-192785771D01*
X265482914Y-192785771D01*
X265625771Y-192857200D01*
X265697200Y-193000057D01*
X265697200Y-193142914D01*
X264982914Y-193285771D01*
X266197200Y-192785771D02*
X266554342Y-193785771D01*
X266911485Y-192785771D01*
X267482914Y-193642914D02*
X267554342Y-193714342D01*
X267482914Y-193785771D01*
X267411485Y-193714342D01*
X267482914Y-193642914D01*
X267482914Y-193785771D01*
X267482914Y-192857200D02*
X267554342Y-192928628D01*
X267482914Y-193000057D01*
X267411485Y-192928628D01*
X267482914Y-192857200D01*
X267482914Y-193000057D01*
D10*
D11*
X178362914Y-193714342D02*
X178577200Y-193785771D01*
X178934342Y-193785771D01*
X179077200Y-193714342D01*
X179148628Y-193642914D01*
X179220057Y-193500057D01*
X179220057Y-193357200D01*
X179148628Y-193214342D01*
X179077200Y-193142914D01*
X178934342Y-193071485D01*
X178648628Y-193000057D01*
X178505771Y-192928628D01*
X178434342Y-192857200D01*
X178362914Y-192714342D01*
X178362914Y-192571485D01*
X178434342Y-192428628D01*
X178505771Y-192357200D01*
X178648628Y-192285771D01*
X179005771Y-192285771D01*
X179220057Y-192357200D01*
X179862914Y-193785771D02*
X179862914Y-192785771D01*
X179862914Y-192285771D02*
X179791485Y-192357200D01*
X179862914Y-192428628D01*
X179934342Y-192357200D01*
X179862914Y-192285771D01*
X179862914Y-192428628D01*
X180434342Y-192785771D02*
X181220057Y-192785771D01*
X180434342Y-193785771D01*
X181220057Y-193785771D01*
X182362914Y-193714342D02*
X182220057Y-193785771D01*
X181934342Y-193785771D01*
X181791485Y-193714342D01*
X181720057Y-193571485D01*
X181720057Y-193000057D01*
X181791485Y-192857200D01*
X181934342Y-192785771D01*
X182220057Y-192785771D01*
X182362914Y-192857200D01*
X182434342Y-193000057D01*
X182434342Y-193142914D01*
X181720057Y-193285771D01*
X183077200Y-193642914D02*
X183148628Y-193714342D01*
X183077200Y-193785771D01*
X183005771Y-193714342D01*
X183077200Y-193642914D01*
X183077200Y-193785771D01*
X183077200Y-192857200D02*
X183148628Y-192928628D01*
X183077200Y-193000057D01*
X183005771Y-192928628D01*
X183077200Y-192857200D01*
X183077200Y-193000057D01*
X184862914Y-193357200D02*
X185577200Y-193357200D01*
X184720057Y-193785771D02*
X185220057Y-192285771D01*
X185720057Y-193785771D01*
X186862914Y-192785771D02*
X186862914Y-193785771D01*
X186505771Y-192214342D02*
X186148628Y-193285771D01*
X187077200Y-193285771D01*
D10*
D11*
X263434342Y-196585771D02*
X263434342Y-195085771D01*
X264791485Y-196585771D02*
X264791485Y-195085771D01*
X264791485Y-196514342D02*
X264648628Y-196585771D01*
X264362914Y-196585771D01*
X264220057Y-196514342D01*
X264148628Y-196442914D01*
X264077200Y-196300057D01*
X264077200Y-195871485D01*
X264148628Y-195728628D01*
X264220057Y-195657200D01*
X264362914Y-195585771D01*
X264648628Y-195585771D01*
X264791485Y-195657200D01*
X265505771Y-196442914D02*
X265577200Y-196514342D01*
X265505771Y-196585771D01*
X265434342Y-196514342D01*
X265505771Y-196442914D01*
X265505771Y-196585771D01*
X265505771Y-195657200D02*
X265577200Y-195728628D01*
X265505771Y-195800057D01*
X265434342Y-195728628D01*
X265505771Y-195657200D01*
X265505771Y-195800057D01*
X268148628Y-196585771D02*
X267291485Y-196585771D01*
X267720057Y-196585771D02*
X267720057Y-195085771D01*
X267577200Y-195300057D01*
X267434342Y-195442914D01*
X267291485Y-195514342D01*
X269862914Y-195014342D02*
X268577200Y-196942914D01*
X271148628Y-196585771D02*
X270291485Y-196585771D01*
X270720057Y-196585771D02*
X270720057Y-195085771D01*
X270577200Y-195300057D01*
X270434342Y-195442914D01*
X270291485Y-195514342D01*
D10*
D11*
X177002200Y-187507200D02*
X285002200Y-187507200D01*
D10*
D13*
X178714580Y-188211961D02*
X179857438Y-188211961D01*
X179036009Y-190211961D02*
X179286009Y-188211961D01*
X180274104Y-190211961D02*
X180440771Y-188878628D01*
X180524104Y-188211961D02*
X180416961Y-188307200D01*
X180500295Y-188402438D01*
X180607438Y-188307200D01*
X180524104Y-188211961D01*
X180500295Y-188402438D01*
X181107438Y-188878628D02*
X181869342Y-188878628D01*
X181476485Y-188211961D02*
X181262200Y-189926247D01*
X181333628Y-190116723D01*
X181512200Y-190211961D01*
X181702676Y-190211961D01*
X182655057Y-190211961D02*
X182476485Y-190116723D01*
X182405057Y-189926247D01*
X182619342Y-188211961D01*
X184190771Y-190116723D02*
X183988390Y-190211961D01*
X183607438Y-190211961D01*
X183428866Y-190116723D01*
X183357438Y-189926247D01*
X183452676Y-189164342D01*
X183571723Y-188973866D01*
X183774104Y-188878628D01*
X184155057Y-188878628D01*
X184333628Y-188973866D01*
X184405057Y-189164342D01*
X184381247Y-189354819D01*
X183405057Y-189545295D01*
X185155057Y-190021485D02*
X185238390Y-190116723D01*
X185131247Y-190211961D01*
X185047914Y-190116723D01*
X185155057Y-190021485D01*
X185131247Y-190211961D01*
X185286009Y-188973866D02*
X185369342Y-189069104D01*
X185262200Y-189164342D01*
X185178866Y-189069104D01*
X185286009Y-188973866D01*
X185262200Y-189164342D01*
D10*
D11*
X178934342Y-185600057D02*
X178434342Y-185600057D01*
X178434342Y-186385771D02*
X178434342Y-184885771D01*
X179148628Y-184885771D01*
X179720057Y-186385771D02*
X179720057Y-185385771D01*
X179720057Y-184885771D02*
X179648628Y-184957200D01*
X179720057Y-185028628D01*
X179791485Y-184957200D01*
X179720057Y-184885771D01*
X179720057Y-185028628D01*
X180648628Y-186385771D02*
X180505771Y-186314342D01*
X180434342Y-186171485D01*
X180434342Y-184885771D01*
X181791485Y-186314342D02*
X181648628Y-186385771D01*
X181362914Y-186385771D01*
X181220057Y-186314342D01*
X181148628Y-186171485D01*
X181148628Y-185600057D01*
X181220057Y-185457200D01*
X181362914Y-185385771D01*
X181648628Y-185385771D01*
X181791485Y-185457200D01*
X181862914Y-185600057D01*
X181862914Y-185742914D01*
X181148628Y-185885771D01*
X182505771Y-186242914D02*
X182577200Y-186314342D01*
X182505771Y-186385771D01*
X182434342Y-186314342D01*
X182505771Y-186242914D01*
X182505771Y-186385771D01*
X182505771Y-185457200D02*
X182577200Y-185528628D01*
X182505771Y-185600057D01*
X182434342Y-185528628D01*
X182505771Y-185457200D01*
X182505771Y-185600057D01*
X184291485Y-186314342D02*
X184434342Y-186385771D01*
X184720057Y-186385771D01*
X184862914Y-186314342D01*
X184934342Y-186171485D01*
X184934342Y-186100057D01*
X184862914Y-185957200D01*
X184720057Y-185885771D01*
X184505771Y-185885771D01*
X184362914Y-185814342D01*
X184291485Y-185671485D01*
X184291485Y-185600057D01*
X184362914Y-185457200D01*
X184505771Y-185385771D01*
X184720057Y-185385771D01*
X184862914Y-185457200D01*
X185362914Y-185385771D02*
X185934342Y-185385771D01*
X185577200Y-184885771D02*
X185577200Y-186171485D01*
X185648628Y-186314342D01*
X185791485Y-186385771D01*
X185934342Y-186385771D01*
X186434342Y-186385771D02*
X186434342Y-185385771D01*
X186434342Y-184885771D02*
X186362914Y-184957200D01*
X186434342Y-185028628D01*
X186505771Y-184957200D01*
X186434342Y-184885771D01*
X186434342Y-185028628D01*
X187148628Y-186385771D02*
X187148628Y-185385771D01*
X187148628Y-185528628D02*
X187220057Y-185457200D01*
X187362914Y-185385771D01*
X187577200Y-185385771D01*
X187720057Y-185457200D01*
X187791485Y-185600057D01*
X187791485Y-186385771D01*
X187791485Y-185600057D02*
X187862914Y-185457200D01*
X188005771Y-185385771D01*
X188220057Y-185385771D01*
X188362914Y-185457200D01*
X188434342Y-185600057D01*
X188434342Y-186385771D01*
X189148628Y-185385771D02*
X189148628Y-186671485D01*
X189077200Y-186814342D01*
X188934342Y-186885771D01*
X188862914Y-186885771D01*
X189148628Y-184885771D02*
X189077200Y-184957200D01*
X189148628Y-185028628D01*
X189220057Y-184957200D01*
X189148628Y-184885771D01*
X189148628Y-185028628D01*
X189862914Y-186385771D02*
X189862914Y-185385771D01*
X189862914Y-184885771D02*
X189791485Y-184957200D01*
X189862914Y-185028628D01*
X189934342Y-184957200D01*
X189862914Y-184885771D01*
X189862914Y-185028628D01*
X190577200Y-186385771D02*
X190577200Y-185385771D01*
X190577200Y-185528628D02*
X190648628Y-185457200D01*
X190791485Y-185385771D01*
X191005771Y-185385771D01*
X191148628Y-185457200D01*
X191220057Y-185600057D01*
X191220057Y-186385771D01*
X191220057Y-185600057D02*
X191291485Y-185457200D01*
X191434342Y-185385771D01*
X191648628Y-185385771D01*
X191791485Y-185457200D01*
X191862914Y-185600057D01*
X191862914Y-186385771D01*
X192577200Y-186242914D02*
X192648628Y-186314342D01*
X192577200Y-186385771D01*
X192505771Y-186314342D01*
X192577200Y-186242914D01*
X192577200Y-186385771D01*
X193291485Y-186385771D02*
X193291485Y-184885771D01*
X193434342Y-185814342D02*
X193862914Y-186385771D01*
X193862914Y-185385771D02*
X193291485Y-185957200D01*
X194505771Y-186385771D02*
X194505771Y-185385771D01*
X194505771Y-184885771D02*
X194434342Y-184957200D01*
X194505771Y-185028628D01*
X194577200Y-184957200D01*
X194505771Y-184885771D01*
X194505771Y-185028628D01*
X195862914Y-186314342D02*
X195720057Y-186385771D01*
X195434342Y-186385771D01*
X195291485Y-186314342D01*
X195220057Y-186242914D01*
X195148628Y-186100057D01*
X195148628Y-185671485D01*
X195220057Y-185528628D01*
X195291485Y-185457200D01*
X195434342Y-185385771D01*
X195720057Y-185385771D01*
X195862914Y-185457200D01*
X197148628Y-186385771D02*
X197148628Y-185600057D01*
X197077200Y-185457200D01*
X196934342Y-185385771D01*
X196648628Y-185385771D01*
X196505771Y-185457200D01*
X197148628Y-186314342D02*
X197005771Y-186385771D01*
X196648628Y-186385771D01*
X196505771Y-186314342D01*
X196434342Y-186171485D01*
X196434342Y-186028628D01*
X196505771Y-185885771D01*
X196648628Y-185814342D01*
X197005771Y-185814342D01*
X197148628Y-185742914D01*
X198505771Y-186385771D02*
X198505771Y-184885771D01*
X198505771Y-186314342D02*
X198362914Y-186385771D01*
X198077200Y-186385771D01*
X197934342Y-186314342D01*
X197862914Y-186242914D01*
X197791485Y-186100057D01*
X197791485Y-185671485D01*
X197862914Y-185528628D01*
X197934342Y-185457200D01*
X198077200Y-185385771D01*
X198362914Y-185385771D01*
X198505771Y-185457200D01*
X198862914Y-186528628D02*
X200005771Y-186528628D01*
X200362914Y-185385771D02*
X200362914Y-186885771D01*
X200362914Y-185457200D02*
X200505771Y-185385771D01*
X200791485Y-185385771D01*
X200934342Y-185457200D01*
X201005771Y-185528628D01*
X201077200Y-185671485D01*
X201077200Y-186100057D01*
X201005771Y-186242914D01*
X200934342Y-186314342D01*
X200791485Y-186385771D01*
X200505771Y-186385771D01*
X200362914Y-186314342D01*
X202362914Y-186314342D02*
X202220057Y-186385771D01*
X201934342Y-186385771D01*
X201791485Y-186314342D01*
X201720057Y-186242914D01*
X201648628Y-186100057D01*
X201648628Y-185671485D01*
X201720057Y-185528628D01*
X201791485Y-185457200D01*
X201934342Y-185385771D01*
X202220057Y-185385771D01*
X202362914Y-185457200D01*
X203005771Y-186385771D02*
X203005771Y-184885771D01*
X203005771Y-185457200D02*
X203148628Y-185385771D01*
X203434342Y-185385771D01*
X203577200Y-185457200D01*
X203648628Y-185528628D01*
X203720057Y-185671485D01*
X203720057Y-186100057D01*
X203648628Y-186242914D01*
X203577200Y-186314342D01*
X203434342Y-186385771D01*
X203148628Y-186385771D01*
X203005771Y-186314342D01*
D10*
D11*
X177002200Y-181507200D02*
X285002200Y-181507200D01*
D10*
D11*
X178362914Y-183614342D02*
X178577200Y-183685771D01*
X178934342Y-183685771D01*
X179077200Y-183614342D01*
X179148628Y-183542914D01*
X179220057Y-183400057D01*
X179220057Y-183257200D01*
X179148628Y-183114342D01*
X179077200Y-183042914D01*
X178934342Y-182971485D01*
X178648628Y-182900057D01*
X178505771Y-182828628D01*
X178434342Y-182757200D01*
X178362914Y-182614342D01*
X178362914Y-182471485D01*
X178434342Y-182328628D01*
X178505771Y-182257200D01*
X178648628Y-182185771D01*
X179005771Y-182185771D01*
X179220057Y-182257200D01*
X179862914Y-183685771D02*
X179862914Y-182185771D01*
X180505771Y-183685771D02*
X180505771Y-182900057D01*
X180434342Y-182757200D01*
X180291485Y-182685771D01*
X180077200Y-182685771D01*
X179934342Y-182757200D01*
X179862914Y-182828628D01*
X181791485Y-183614342D02*
X181648628Y-183685771D01*
X181362914Y-183685771D01*
X181220057Y-183614342D01*
X181148628Y-183471485D01*
X181148628Y-182900057D01*
X181220057Y-182757200D01*
X181362914Y-182685771D01*
X181648628Y-182685771D01*
X181791485Y-182757200D01*
X181862914Y-182900057D01*
X181862914Y-183042914D01*
X181148628Y-183185771D01*
X183077200Y-183614342D02*
X182934342Y-183685771D01*
X182648628Y-183685771D01*
X182505771Y-183614342D01*
X182434342Y-183471485D01*
X182434342Y-182900057D01*
X182505771Y-182757200D01*
X182648628Y-182685771D01*
X182934342Y-182685771D01*
X183077200Y-182757200D01*
X183148628Y-182900057D01*
X183148628Y-183042914D01*
X182434342Y-183185771D01*
X183577200Y-182685771D02*
X184148628Y-182685771D01*
X183791485Y-182185771D02*
X183791485Y-183471485D01*
X183862914Y-183614342D01*
X184005771Y-183685771D01*
X184148628Y-183685771D01*
X184648628Y-183542914D02*
X184720057Y-183614342D01*
X184648628Y-183685771D01*
X184577200Y-183614342D01*
X184648628Y-183542914D01*
X184648628Y-183685771D01*
X184648628Y-182757200D02*
X184720057Y-182828628D01*
X184648628Y-182900057D01*
X184577200Y-182828628D01*
X184648628Y-182757200D01*
X184648628Y-182900057D01*
D10*
D11*
X197002200Y-191507200D02*
X197002200Y-194507200D01*
D10*
D11*
X261002200Y-191507200D02*
X261002200Y-198007200D01*
D14*
X186500000Y-123250000D02*
X186750000Y-121000000D01*
X188250000Y-123250000D02*
X186500000Y-123250000D01*
X186000000Y-126750000D02*
X188250000Y-123250000D01*
X186500000Y-124250000D02*
X186000000Y-126750000D01*
X185000000Y-124250000D02*
X186500000Y-124250000D01*
X186750000Y-121000000D02*
X185000000Y-124250000D01*
X179496404Y-127269582D02*
G75*
G02X178300000Y-127249999I-596405J119582D01*
G01*
X179500000Y-123750000D02*
X179750000Y-123750000D01*
X178950000Y-121250000D02*
X180050000Y-121250000D01*
X179500000Y-123750000D02*
X179500000Y-120250000D01*
X179500000Y-127000000D02*
X179500000Y-127250000D01*
X179500000Y-124750000D02*
X179500000Y-127000000D01*
X180650000Y-121750000D02*
X180650000Y-123750000D01*
X180650000Y-124750000D02*
X180650000Y-126750000D01*
X181714285Y-126807142D02*
X181714285Y-124807142D01*
X181714285Y-125092857D02*
X181857142Y-124950000D01*
X182142857Y-124807142D01*
X182571428Y-124807142D01*
X182857142Y-124950000D01*
X183000000Y-125235714D01*
X183000000Y-126807142D01*
X183000000Y-125235714D02*
X183142857Y-124950000D01*
X183428571Y-124807142D01*
X183857142Y-124807142D01*
X184142857Y-124950000D01*
X184285714Y-125235714D01*
X184285714Y-126807142D01*
X181714285Y-123807142D02*
X181714285Y-121807142D01*
X181714285Y-122092857D02*
X181857142Y-121950000D01*
X182142857Y-121807142D01*
X182571428Y-121807142D01*
X182857142Y-121950000D01*
X183000000Y-122235714D01*
X183000000Y-123807142D01*
X183000000Y-122235714D02*
X183142857Y-121950000D01*
X183428571Y-121807142D01*
X183857142Y-121807142D01*
X184142857Y-121950000D01*
X184285714Y-122235714D01*
X184285714Y-123807142D01*
X177357142Y-123714285D02*
X177642857Y-123857142D01*
X178214285Y-123857142D01*
X178500000Y-123714285D01*
X178642857Y-123428571D01*
X178642857Y-123285714D01*
X178500000Y-123000000D01*
X178214285Y-122857142D01*
X177785714Y-122857142D01*
X177500000Y-122714285D01*
X177357142Y-122428571D01*
X177357142Y-122285714D01*
X177500000Y-122000000D01*
X177785714Y-121857142D01*
X178214285Y-121857142D01*
X178500000Y-122000000D01*
D15*
X183216228Y-91800000D02*
G75*
G03X183216228Y-91800000I-316228J0D01*
G01*
X173000000Y-91800000D02*
G75*
G03X173000000Y-91800000I-400000J0D01*
G01*
X179400000Y-109500000D02*
G75*
G03X179400000Y-109500000I-400000J0D01*
G01*
X166800000Y-109400000D02*
G75*
G03X166800000Y-109400000I-300000J0D01*
G01*
X122460555Y-109400000D02*
G75*
G03X122460555Y-109400000I-360555J0D01*
G01*
X134147214Y-109200000D02*
G75*
G03X134147214Y-109200000I-447214J0D01*
G01*
X127840312Y-91800000D02*
G75*
G03X127840312Y-91800000I-640312J0D01*
G01*
X138323607Y-91700000D02*
G75*
G03X138323607Y-91700000I-223607J0D01*
G01*
X156060555Y-85900000D02*
G75*
G03X156060555Y-85900000I-360555J0D01*
G01*
X145682843Y-75600000D02*
G75*
G03X145682843Y-75600000I-282843J0D01*
G01*
X125016228Y-77800000D02*
G75*
G03X125016228Y-77800000I-316228J0D01*
G01*
X131660555Y-77700000D02*
G75*
G03X131660555Y-77700000I-360555J0D01*
G01*
X161132777Y-98027306D02*
G75*
G03X161132777Y-98027306I-223607J0D01*
G01*
X199052512Y-86155524D02*
G75*
G03X199052512Y-86155524I-223607J0D01*
G01*
X200780932Y-79152002D02*
G75*
G03X200780932Y-79152002I-223607J0D01*
G01*
X142223607Y-111200000D02*
G75*
G03X142223607Y-111200000I-223607J0D01*
G01*
X164241421Y-117800000D02*
G75*
G03X164241421Y-117800000I-141421J0D01*
G01*
X176302135Y-77707936D02*
G75*
G03X176302135Y-77707936I-223607J0D01*
G01*
X169702135Y-77607936D02*
G75*
G03X169702135Y-77607936I-223607J0D01*
G01*
X165723607Y-117800000D02*
G75*
G03X165723607Y-117800000I-223607J0D01*
G01*
X167382843Y-117800000D02*
G75*
G03X167382843Y-117800000I-282843J0D01*
G01*
X156323607Y-79200000D02*
G75*
G03X156323607Y-79200000I-223607J0D01*
G01*
D16*
X191750000Y-122035714D02*
X191988095Y-122702380D01*
X192226190Y-122035714D01*
X192797619Y-121702380D02*
X192892857Y-121702380D01*
X192988095Y-121750000D01*
X193035714Y-121797619D01*
X193083333Y-121892857D01*
X193130952Y-122083333D01*
X193130952Y-122321428D01*
X193083333Y-122511904D01*
X193035714Y-122607142D01*
X192988095Y-122654761D01*
X192892857Y-122702380D01*
X192797619Y-122702380D01*
X192702380Y-122654761D01*
X192654761Y-122607142D01*
X192607142Y-122511904D01*
X192559523Y-122321428D01*
X192559523Y-122083333D01*
X192607142Y-121892857D01*
X192654761Y-121797619D01*
X192702380Y-121750000D01*
X192797619Y-121702380D01*
X193559523Y-122607142D02*
X193607142Y-122654761D01*
X193559523Y-122702380D01*
X193511904Y-122654761D01*
X193559523Y-122607142D01*
X193559523Y-122702380D01*
X194559523Y-122702380D02*
X193988095Y-122702380D01*
X194273809Y-122702380D02*
X194273809Y-121702380D01*
X194178571Y-121845238D01*
X194083333Y-121940476D01*
X193988095Y-121988095D01*
X195416666Y-121702380D02*
X195226190Y-121702380D01*
X195130952Y-121750000D01*
X195083333Y-121797619D01*
X194988095Y-121940476D01*
X194940476Y-122130952D01*
X194940476Y-122511904D01*
X194988095Y-122607142D01*
X195035714Y-122654761D01*
X195130952Y-122702380D01*
X195321428Y-122702380D01*
X195416666Y-122654761D01*
X195464285Y-122607142D01*
X195511904Y-122511904D01*
X195511904Y-122273809D01*
X195464285Y-122178571D01*
X195416666Y-122130952D01*
X195321428Y-122083333D01*
X195130952Y-122083333D01*
X195035714Y-122130952D01*
X194988095Y-122178571D01*
X194940476Y-122273809D01*
X196702380Y-122702380D02*
X196702380Y-121702380D01*
X196702380Y-122083333D02*
X196797619Y-122035714D01*
X196988095Y-122035714D01*
X197083333Y-122083333D01*
X197130952Y-122130952D01*
X197178571Y-122226190D01*
X197178571Y-122511904D01*
X197130952Y-122607142D01*
X197083333Y-122654761D01*
X196988095Y-122702380D01*
X196797619Y-122702380D01*
X196702380Y-122654761D01*
X197511904Y-122035714D02*
X197750000Y-122702380D01*
X197988095Y-122035714D02*
X197750000Y-122702380D01*
X197654761Y-122940476D01*
X197607142Y-122988095D01*
X197511904Y-123035714D01*
X189416666Y-123785714D02*
X189416666Y-124452380D01*
X189416666Y-123880952D02*
X189464285Y-123833333D01*
X189559523Y-123785714D01*
X189702380Y-123785714D01*
X189797619Y-123833333D01*
X189845238Y-123928571D01*
X189845238Y-124452380D01*
X190750000Y-124452380D02*
X190750000Y-123928571D01*
X190702380Y-123833333D01*
X190607142Y-123785714D01*
X190416666Y-123785714D01*
X190321428Y-123833333D01*
X190750000Y-124404761D02*
X190654761Y-124452380D01*
X190416666Y-124452380D01*
X190321428Y-124404761D01*
X190273809Y-124309523D01*
X190273809Y-124214285D01*
X190321428Y-124119047D01*
X190416666Y-124071428D01*
X190654761Y-124071428D01*
X190750000Y-124023809D01*
X191083333Y-123785714D02*
X191464285Y-123785714D01*
X191226190Y-123452380D02*
X191226190Y-124309523D01*
X191273809Y-124404761D01*
X191369047Y-124452380D01*
X191464285Y-124452380D01*
X192178571Y-124404761D02*
X192083333Y-124452380D01*
X191892857Y-124452380D01*
X191797619Y-124404761D01*
X191750000Y-124309523D01*
X191750000Y-123928571D01*
X191797619Y-123833333D01*
X191892857Y-123785714D01*
X192083333Y-123785714D01*
X192178571Y-123833333D01*
X192226190Y-123928571D01*
X192226190Y-124023809D01*
X191750000Y-124119047D01*
X193845238Y-124404761D02*
X193750000Y-124452380D01*
X193559523Y-124452380D01*
X193464285Y-124404761D01*
X193416666Y-124357142D01*
X193369047Y-124261904D01*
X193369047Y-123976190D01*
X193416666Y-123880952D01*
X193464285Y-123833333D01*
X193559523Y-123785714D01*
X193750000Y-123785714D01*
X193845238Y-123833333D01*
X194654761Y-124404761D02*
X194559523Y-124452380D01*
X194369047Y-124452380D01*
X194273809Y-124404761D01*
X194226190Y-124309523D01*
X194226190Y-123928571D01*
X194273809Y-123833333D01*
X194369047Y-123785714D01*
X194559523Y-123785714D01*
X194654761Y-123833333D01*
X194702380Y-123928571D01*
X194702380Y-124023809D01*
X194226190Y-124119047D01*
X195130952Y-124452380D02*
X195130952Y-123785714D01*
X195130952Y-123976190D02*
X195178571Y-123880952D01*
X195226190Y-123833333D01*
X195321428Y-123785714D01*
X195416666Y-123785714D01*
X195750000Y-124452380D02*
X195750000Y-123785714D01*
X195750000Y-123880952D02*
X195797619Y-123833333D01*
X195892857Y-123785714D01*
X196035714Y-123785714D01*
X196130952Y-123833333D01*
X196178571Y-123928571D01*
X196178571Y-124452380D01*
X196178571Y-123928571D02*
X196226190Y-123833333D01*
X196321428Y-123785714D01*
X196464285Y-123785714D01*
X196559523Y-123833333D01*
X196607142Y-123928571D01*
X196607142Y-124452380D01*
X197511904Y-124452380D02*
X197511904Y-123928571D01*
X197464285Y-123833333D01*
X197369047Y-123785714D01*
X197178571Y-123785714D01*
X197083333Y-123833333D01*
X197511904Y-124404761D02*
X197416666Y-124452380D01*
X197178571Y-124452380D01*
X197083333Y-124404761D01*
X197035714Y-124309523D01*
X197035714Y-124214285D01*
X197083333Y-124119047D01*
X197178571Y-124071428D01*
X197416666Y-124071428D01*
X197511904Y-124023809D01*
X197988095Y-124452380D02*
X197988095Y-123452380D01*
X198083333Y-124071428D02*
X198369047Y-124452380D01*
X198369047Y-123785714D02*
X197988095Y-124166666D01*
X200369047Y-124452380D02*
X200321428Y-124452380D01*
X200226190Y-124404761D01*
X200083333Y-124261904D01*
X199845238Y-123976190D01*
X199750000Y-123833333D01*
X199702380Y-123690476D01*
X199702380Y-123595238D01*
X199750000Y-123500000D01*
X199845238Y-123452380D01*
X199892857Y-123452380D01*
X199988095Y-123500000D01*
X200035714Y-123595238D01*
X200035714Y-123642857D01*
X199988095Y-123738095D01*
X199940476Y-123785714D01*
X199654761Y-123976190D01*
X199607142Y-124023809D01*
X199559523Y-124119047D01*
X199559523Y-124261904D01*
X199607142Y-124357142D01*
X199654761Y-124404761D01*
X199750000Y-124452380D01*
X199892857Y-124452380D01*
X199988095Y-124404761D01*
X200035714Y-124357142D01*
X200178571Y-124166666D01*
X200226190Y-124023809D01*
X200226190Y-123928571D01*
X190988095Y-125535714D02*
X190988095Y-126392857D01*
X190940476Y-126488095D01*
X190845238Y-126535714D01*
X190797619Y-126535714D01*
X190988095Y-125202380D02*
X190940476Y-125250000D01*
X190988095Y-125297619D01*
X191035714Y-125250000D01*
X190988095Y-125202380D01*
X190988095Y-125297619D01*
X191607142Y-126202380D02*
X191511904Y-126154761D01*
X191464285Y-126107142D01*
X191416666Y-126011904D01*
X191416666Y-125726190D01*
X191464285Y-125630952D01*
X191511904Y-125583333D01*
X191607142Y-125535714D01*
X191750000Y-125535714D01*
X191845238Y-125583333D01*
X191892857Y-125630952D01*
X191940476Y-125726190D01*
X191940476Y-126011904D01*
X191892857Y-126107142D01*
X191845238Y-126154761D01*
X191750000Y-126202380D01*
X191607142Y-126202380D01*
X192369047Y-125535714D02*
X192369047Y-126202380D01*
X192369047Y-125630952D02*
X192416666Y-125583333D01*
X192511904Y-125535714D01*
X192654761Y-125535714D01*
X192750000Y-125583333D01*
X192797619Y-125678571D01*
X192797619Y-126202380D01*
X194035714Y-125535714D02*
X194035714Y-126202380D01*
X194035714Y-125630952D02*
X194083333Y-125583333D01*
X194178571Y-125535714D01*
X194321428Y-125535714D01*
X194416666Y-125583333D01*
X194464285Y-125678571D01*
X194464285Y-126202380D01*
X195321428Y-126154761D02*
X195226190Y-126202380D01*
X195035714Y-126202380D01*
X194940476Y-126154761D01*
X194892857Y-126059523D01*
X194892857Y-125678571D01*
X194940476Y-125583333D01*
X195035714Y-125535714D01*
X195226190Y-125535714D01*
X195321428Y-125583333D01*
X195369047Y-125678571D01*
X195369047Y-125773809D01*
X194892857Y-125869047D01*
X195702380Y-125535714D02*
X195892857Y-126202380D01*
X196083333Y-125726190D01*
X196273809Y-126202380D01*
X196464285Y-125535714D01*
X196845238Y-126202380D02*
X196845238Y-125535714D01*
X196845238Y-125630952D02*
X196892857Y-125583333D01*
X196988095Y-125535714D01*
X197130952Y-125535714D01*
X197226190Y-125583333D01*
X197273809Y-125678571D01*
X197273809Y-126202380D01*
X197273809Y-125678571D02*
X197321428Y-125583333D01*
X197416666Y-125535714D01*
X197559523Y-125535714D01*
X197654761Y-125583333D01*
X197702380Y-125678571D01*
X197702380Y-126202380D01*
X198607142Y-126202380D02*
X198607142Y-125678571D01*
X198559523Y-125583333D01*
X198464285Y-125535714D01*
X198273809Y-125535714D01*
X198178571Y-125583333D01*
X198607142Y-126154761D02*
X198511904Y-126202380D01*
X198273809Y-126202380D01*
X198178571Y-126154761D01*
X198130952Y-126059523D01*
X198130952Y-125964285D01*
X198178571Y-125869047D01*
X198273809Y-125821428D01*
X198511904Y-125821428D01*
X198607142Y-125773809D01*
X199083333Y-125535714D02*
X199083333Y-126202380D01*
X199083333Y-125630952D02*
X199130952Y-125583333D01*
X199226190Y-125535714D01*
X199369047Y-125535714D01*
X199464285Y-125583333D01*
X199511904Y-125678571D01*
X199511904Y-126202380D01*
D17*
G04 #@! TO.C,D1*
X123540000Y-127080000D02*
X123540000Y-127080000D01*
X123540000Y-127210000D02*
X123540000Y-127080000D01*
X123540000Y-127210000D02*
X123540000Y-127210000D01*
X123540000Y-127080000D02*
X123540000Y-127210000D01*
X121000000Y-127080000D02*
X121000000Y-127080000D01*
X121000000Y-127210000D02*
X121000000Y-127080000D01*
X121000000Y-127210000D02*
X121000000Y-127210000D01*
X121000000Y-127080000D02*
X121000000Y-127210000D01*
X124830000Y-127210000D02*
X125230000Y-127210000D01*
X124830000Y-128330000D02*
X124830000Y-127210000D01*
X125230000Y-128330000D02*
X124830000Y-128330000D01*
X125230000Y-127210000D02*
X125230000Y-128330000D01*
X119710000Y-127210000D02*
X124830000Y-127210000D01*
X124830000Y-127210000D02*
X124830000Y-133370000D01*
X119710000Y-127210000D02*
X119710000Y-133370000D01*
X124830000Y-133370000D02*
G75*
G02X119710000Y-133370000I-2560000J0D01*
G01*
G04 #@! TO.C,D2*
X134040000Y-127080000D02*
X134040000Y-127080000D01*
X134040000Y-127210000D02*
X134040000Y-127080000D01*
X134040000Y-127210000D02*
X134040000Y-127210000D01*
X134040000Y-127080000D02*
X134040000Y-127210000D01*
X131500000Y-127080000D02*
X131500000Y-127080000D01*
X131500000Y-127210000D02*
X131500000Y-127080000D01*
X131500000Y-127210000D02*
X131500000Y-127210000D01*
X131500000Y-127080000D02*
X131500000Y-127210000D01*
X135330000Y-127210000D02*
X135730000Y-127210000D01*
X135330000Y-128330000D02*
X135330000Y-127210000D01*
X135730000Y-128330000D02*
X135330000Y-128330000D01*
X135730000Y-127210000D02*
X135730000Y-128330000D01*
X130210000Y-127210000D02*
X135330000Y-127210000D01*
X135330000Y-127210000D02*
X135330000Y-133370000D01*
X130210000Y-127210000D02*
X130210000Y-133370000D01*
X135330000Y-133370000D02*
G75*
G02X130210000Y-133370000I-2560000J0D01*
G01*
D11*
G04 #@! TO.C,SW1*
X106400000Y-123900000D02*
X113400000Y-123900000D01*
X113400000Y-123900000D02*
X113400000Y-130900000D01*
X113400000Y-130900000D02*
X106400000Y-130900000D01*
X106400000Y-130900000D02*
X106400000Y-123900000D01*
D17*
G04 #@! TO.C,R16*
X128710000Y-125962779D02*
X128710000Y-125637221D01*
X127690000Y-125962779D02*
X127690000Y-125637221D01*
G04 #@! TO.C,R15*
X117490000Y-126062779D02*
X117490000Y-125737221D01*
X118510000Y-126062779D02*
X118510000Y-125737221D01*
D11*
G04 #@! TO.C,U2*
X162250000Y-88300000D02*
X162250000Y-111300000D01*
X146250000Y-88300000D02*
X162250000Y-88300000D01*
X146250000Y-111300000D02*
X146250000Y-88300000D01*
X162250000Y-111300000D02*
X146250000Y-111300000D01*
D17*
G04 #@! TO.C,C52*
X167590000Y-94262779D02*
X167590000Y-93937221D01*
X168610000Y-94262779D02*
X168610000Y-93937221D01*
D11*
G04 #@! TO.C,U5*
X156775000Y-86490000D02*
X158175000Y-86490000D01*
X156775000Y-81390000D02*
X152625000Y-81390000D01*
X156775000Y-86540000D02*
X152625000Y-86540000D01*
X156775000Y-81390000D02*
X156775000Y-81535000D01*
X152625000Y-81390000D02*
X152625000Y-81535000D01*
X152625000Y-86540000D02*
X152625000Y-86395000D01*
X156775000Y-86540000D02*
X156775000Y-86490000D01*
D17*
G04 #@! TO.C,C51*
X123190000Y-94662779D02*
X123190000Y-94337221D01*
X124210000Y-94662779D02*
X124210000Y-94337221D01*
D11*
G04 #@! TO.C,J6*
X137700000Y-51800000D02*
X137700000Y-64800000D01*
X140300000Y-51800000D02*
X137700000Y-51800000D01*
X140300000Y-64800000D02*
X140300000Y-51800000D01*
X142800000Y-56800000D02*
X142800000Y-64800000D01*
X142800000Y-64800000D02*
X134800000Y-64800000D01*
X134800000Y-64800000D02*
X134800000Y-51800000D01*
X134800000Y-51800000D02*
X142800000Y-51800000D01*
X142800000Y-51800000D02*
X142800000Y-56800000D01*
G04 #@! TO.C,U13*
X206000000Y-112000000D02*
X190000000Y-112000000D01*
X190000000Y-112000000D02*
X190000000Y-89000000D01*
X190000000Y-89000000D02*
X206000000Y-89000000D01*
X206000000Y-89000000D02*
X206000000Y-112000000D01*
D17*
G04 #@! TO.C,C33*
X193515000Y-85487221D02*
X193515000Y-85812779D01*
X194535000Y-85487221D02*
X194535000Y-85812779D01*
G04 #@! TO.C,C26*
X178462779Y-114610000D02*
X178137221Y-114610000D01*
X178462779Y-113590000D02*
X178137221Y-113590000D01*
G04 #@! TO.C,C27*
X167137221Y-114710000D02*
X167462779Y-114710000D01*
X167137221Y-113690000D02*
X167462779Y-113690000D01*
G04 #@! TO.C,C31*
X167062221Y-100240000D02*
X167387779Y-100240000D01*
X167062221Y-101260000D02*
X167387779Y-101260000D01*
G04 #@! TO.C,C32*
X178037221Y-101310000D02*
X178362779Y-101310000D01*
X178037221Y-100290000D02*
X178362779Y-100290000D01*
G04 #@! TO.C,C34*
X187560000Y-96037221D02*
X187560000Y-96362779D01*
X186540000Y-96037221D02*
X186540000Y-96362779D01*
G04 #@! TO.C,C36*
X184840000Y-96037221D02*
X184840000Y-96362779D01*
X185860000Y-96037221D02*
X185860000Y-96362779D01*
G04 #@! TO.C,C35*
X169590000Y-94262779D02*
X169590000Y-93937221D01*
X170610000Y-94262779D02*
X170610000Y-93937221D01*
G04 #@! TO.C,C37*
X204612779Y-85890000D02*
X204287221Y-85890000D01*
X204612779Y-86910000D02*
X204287221Y-86910000D01*
G04 #@! TO.C,C38*
X172762779Y-86310000D02*
X172437221Y-86310000D01*
X172762779Y-85290000D02*
X172437221Y-85290000D01*
G04 #@! TO.C,C39*
X178390000Y-84937221D02*
X178390000Y-85262779D01*
X179410000Y-84937221D02*
X179410000Y-85262779D01*
G04 #@! TO.C,C40*
X176910000Y-84937221D02*
X176910000Y-85262779D01*
X175890000Y-84937221D02*
X175890000Y-85262779D01*
G04 #@! TO.C,C42*
X185310000Y-84912779D02*
X185310000Y-84587221D01*
X184290000Y-84912779D02*
X184290000Y-84587221D01*
G04 #@! TO.C,C41*
X185965000Y-84912779D02*
X185965000Y-84587221D01*
X186985000Y-84912779D02*
X186985000Y-84587221D01*
D11*
G04 #@! TO.C,U14*
X178450000Y-111375000D02*
X178450000Y-112900000D01*
X188825000Y-111375000D02*
X188825000Y-103625000D01*
X178175000Y-111375000D02*
X178175000Y-103625000D01*
X188825000Y-111375000D02*
X188470000Y-111375000D01*
X188825000Y-103625000D02*
X188470000Y-103625000D01*
X178175000Y-103625000D02*
X178530000Y-103625000D01*
X178175000Y-111375000D02*
X178450000Y-111375000D01*
G04 #@! TO.C,U15*
X165675000Y-111375000D02*
X165950000Y-111375000D01*
X165675000Y-103625000D02*
X166030000Y-103625000D01*
X176325000Y-103625000D02*
X175970000Y-103625000D01*
X176325000Y-111375000D02*
X175970000Y-111375000D01*
X165675000Y-111375000D02*
X165675000Y-103625000D01*
X176325000Y-111375000D02*
X176325000Y-103625000D01*
X165950000Y-111375000D02*
X165950000Y-112900000D01*
G04 #@! TO.C,U16*
X201075000Y-87075000D02*
X201075000Y-87025000D01*
X196925000Y-87075000D02*
X196925000Y-86930000D01*
X196925000Y-81925000D02*
X196925000Y-82070000D01*
X201075000Y-81925000D02*
X201075000Y-82070000D01*
X201075000Y-87075000D02*
X196925000Y-87075000D01*
X201075000Y-81925000D02*
X196925000Y-81925000D01*
X201075000Y-87025000D02*
X202475000Y-87025000D01*
G04 #@! TO.C,U18*
X182375000Y-92825000D02*
X182500000Y-92825000D01*
X182375000Y-88175000D02*
X182600000Y-88175000D01*
X187625000Y-88175000D02*
X187400000Y-88175000D01*
X187625000Y-92825000D02*
X187400000Y-92825000D01*
X182375000Y-92825000D02*
X182375000Y-88175000D01*
X187625000Y-92825000D02*
X187625000Y-88175000D01*
X182500000Y-92825000D02*
X182500000Y-94175000D01*
G04 #@! TO.C,U17*
X171376400Y-88154105D02*
X171401400Y-88154105D01*
X179426400Y-88154105D02*
X179401400Y-88154105D01*
X179426400Y-92804105D02*
X179401400Y-92804105D01*
X171326400Y-93879105D02*
X171326400Y-88154105D01*
X179426400Y-92804105D02*
X179426400Y-88154105D01*
D17*
G04 #@! TO.C,U19*
X167720000Y-91460000D02*
X168650000Y-91460000D01*
X170880000Y-91460000D02*
X169950000Y-91460000D01*
X170880000Y-91460000D02*
X170880000Y-89300000D01*
X167720000Y-91460000D02*
X167720000Y-90000000D01*
D11*
G04 #@! TO.C,U3*
X133099776Y-111233895D02*
X133099776Y-112758895D01*
X143474776Y-111233895D02*
X143474776Y-103483895D01*
X132824776Y-111233895D02*
X132824776Y-103483895D01*
X143474776Y-111233895D02*
X143119776Y-111233895D01*
X143474776Y-103483895D02*
X143119776Y-103483895D01*
X132824776Y-103483895D02*
X133179776Y-103483895D01*
X132824776Y-111233895D02*
X133099776Y-111233895D01*
D17*
G04 #@! TO.C,C2*
X122637221Y-114510000D02*
X122962779Y-114510000D01*
X122637221Y-113490000D02*
X122962779Y-113490000D01*
G04 #@! TO.C,C7*
X132737221Y-101310000D02*
X133062779Y-101310000D01*
X132737221Y-100290000D02*
X133062779Y-100290000D01*
G04 #@! TO.C,C6*
X122337221Y-101310000D02*
X122662779Y-101310000D01*
X122337221Y-100290000D02*
X122662779Y-100290000D01*
D11*
G04 #@! TO.C,U4*
X121469176Y-111306095D02*
X121469176Y-112831095D01*
X131844176Y-111306095D02*
X131844176Y-103556095D01*
X121194176Y-111306095D02*
X121194176Y-103556095D01*
X131844176Y-111306095D02*
X131489176Y-111306095D01*
X131844176Y-103556095D02*
X131489176Y-103556095D01*
X121194176Y-103556095D02*
X121549176Y-103556095D01*
X121194176Y-111306095D02*
X121469176Y-111306095D01*
D17*
G04 #@! TO.C,C1*
X133062779Y-113490000D02*
X132737221Y-113490000D01*
X133062779Y-114510000D02*
X132737221Y-114510000D01*
D11*
G04 #@! TO.C,U20*
X168703528Y-78282936D02*
X168753528Y-78282936D01*
X168703528Y-74132936D02*
X168848528Y-74132936D01*
X173853528Y-74132936D02*
X173708528Y-74132936D01*
X173853528Y-78282936D02*
X173708528Y-78282936D01*
X168703528Y-78282936D02*
X168703528Y-74132936D01*
X173853528Y-78282936D02*
X173853528Y-74132936D01*
X168753528Y-78282936D02*
X168753528Y-79682936D01*
D17*
G04 #@! TO.C,C13*
X127962779Y-85390000D02*
X127637221Y-85390000D01*
X127962779Y-86410000D02*
X127637221Y-86410000D01*
D11*
G04 #@! TO.C,J1*
X173670000Y-125140000D02*
X173670000Y-134040000D01*
X173670000Y-134040000D02*
X145750000Y-134040000D01*
X145750000Y-134040000D02*
X145750000Y-125140000D01*
X145750000Y-125140000D02*
X173670000Y-125140000D01*
X161935000Y-134040000D02*
X161935000Y-127440000D01*
X161935000Y-127440000D02*
X157485000Y-127440000D01*
X157485000Y-127440000D02*
X157485000Y-134040000D01*
X161380000Y-127440000D02*
X161380000Y-133640000D01*
X161380000Y-133640000D02*
X161180000Y-133840000D01*
X161180000Y-133840000D02*
X160780000Y-133840000D01*
X160780000Y-133840000D02*
X160580000Y-133640000D01*
X160580000Y-133640000D02*
X160580000Y-127440000D01*
X158840000Y-127440000D02*
X158840000Y-133640000D01*
X158840000Y-133640000D02*
X158640000Y-133840000D01*
X158640000Y-133840000D02*
X158240000Y-133840000D01*
X158240000Y-133840000D02*
X158040000Y-133640000D01*
X158040000Y-133640000D02*
X158040000Y-127440000D01*
X169600000Y-133300000D02*
X167600000Y-133300000D01*
X167600000Y-133300000D02*
X168600000Y-131800000D01*
X168600000Y-131800000D02*
X169600000Y-133300000D01*
X169000000Y-121900000D02*
X169000000Y-122240000D01*
X168200000Y-121900000D02*
X168200000Y-122240000D01*
X169000000Y-124440000D02*
X169000000Y-125140000D01*
X168200000Y-124440000D02*
X168200000Y-125140000D01*
X166460000Y-121900000D02*
X166460000Y-122240000D01*
X165660000Y-121900000D02*
X165660000Y-122240000D01*
X166460000Y-124440000D02*
X166460000Y-125140000D01*
X165660000Y-124440000D02*
X165660000Y-125140000D01*
X163920000Y-121900000D02*
X163920000Y-122240000D01*
X163120000Y-121900000D02*
X163120000Y-122240000D01*
X163920000Y-124440000D02*
X163920000Y-125140000D01*
X163120000Y-124440000D02*
X163120000Y-125140000D01*
X161380000Y-121900000D02*
X161380000Y-122240000D01*
X160580000Y-121900000D02*
X160580000Y-122240000D01*
X161380000Y-124440000D02*
X161380000Y-125140000D01*
X160580000Y-124440000D02*
X160580000Y-125140000D01*
X158840000Y-121900000D02*
X158840000Y-122240000D01*
X158040000Y-121900000D02*
X158040000Y-122240000D01*
X158840000Y-124440000D02*
X158840000Y-125140000D01*
X158040000Y-124440000D02*
X158040000Y-125140000D01*
X156300000Y-121900000D02*
X156300000Y-122240000D01*
X155500000Y-121900000D02*
X155500000Y-122240000D01*
X156300000Y-124440000D02*
X156300000Y-125140000D01*
X155500000Y-124440000D02*
X155500000Y-125140000D01*
X153760000Y-121900000D02*
X153760000Y-122240000D01*
X152960000Y-121900000D02*
X152960000Y-122240000D01*
X153760000Y-124440000D02*
X153760000Y-125140000D01*
X152960000Y-124440000D02*
X152960000Y-125140000D01*
X151220000Y-121900000D02*
X151220000Y-122240000D01*
X150420000Y-121900000D02*
X150420000Y-122240000D01*
X151220000Y-124440000D02*
X151220000Y-125140000D01*
X150420000Y-124440000D02*
X150420000Y-125140000D01*
G04 #@! TO.C,U6*
X126475000Y-88175000D02*
X126500000Y-88175000D01*
X134525000Y-88175000D02*
X134500000Y-88175000D01*
X134525000Y-92825000D02*
X134500000Y-92825000D01*
X126425000Y-93900000D02*
X126425000Y-88175000D01*
X134525000Y-92825000D02*
X134525000Y-88175000D01*
G04 #@! TO.C,U1*
X91490000Y-113370000D02*
X94030000Y-113370000D01*
X94030000Y-113370000D02*
X94030000Y-110830000D01*
X94030000Y-110830000D02*
X91490000Y-110830000D01*
X91490000Y-110830000D02*
X91490000Y-113370000D01*
X100380000Y-105750000D02*
X100380000Y-109560000D01*
X100380000Y-109560000D02*
X97840000Y-109560000D01*
X97840000Y-109560000D02*
X97840000Y-105750000D01*
X97840000Y-105750000D02*
X100380000Y-105750000D01*
X101650000Y-91780000D02*
X88950000Y-91780000D01*
X88950000Y-104480000D02*
X101650000Y-104480000D01*
X101650000Y-104480000D02*
X101650000Y-91780000D01*
X88950000Y-104480000D02*
X88950000Y-91780000D01*
X100380000Y-70190000D02*
X100380000Y-68920000D01*
X99110000Y-70190000D02*
X99110000Y-68920000D01*
X97840000Y-70190000D02*
X97840000Y-68920000D01*
X96570000Y-70190000D02*
X96570000Y-68920000D01*
X95300000Y-70190000D02*
X95300000Y-68920000D01*
X94030000Y-70190000D02*
X94030000Y-68920000D01*
X92760000Y-70190000D02*
X92760000Y-68920000D01*
X91490000Y-70190000D02*
X91490000Y-68920000D01*
X90220000Y-70190000D02*
X90220000Y-68920000D01*
X101650000Y-68920000D02*
X100380000Y-70190000D01*
X100380000Y-70190000D02*
X90220000Y-70190000D01*
X90220000Y-70190000D02*
X88950000Y-68920000D01*
X88950000Y-68920000D02*
X88950000Y-81620000D01*
X88950000Y-81620000D02*
X101650000Y-81620000D01*
X101650000Y-81620000D02*
X101650000Y-68920000D01*
X86410000Y-68920000D02*
X86410000Y-129880000D01*
X104190000Y-129880000D02*
X104190000Y-68920000D01*
X99110000Y-129880000D02*
X99110000Y-131150000D01*
X99110000Y-131150000D02*
X91490000Y-131150000D01*
X91490000Y-131150000D02*
X91490000Y-129880000D01*
X99110000Y-124800000D02*
X91490000Y-124800000D01*
X91490000Y-124800000D02*
X91490000Y-129880000D01*
X99110000Y-124800000D02*
X99110000Y-129880000D01*
X92760000Y-85430000D02*
X97840000Y-85430000D01*
X97840000Y-85430000D02*
X97840000Y-87970000D01*
X97840000Y-87970000D02*
X92760000Y-87970000D01*
X92760000Y-87970000D02*
X92760000Y-85430000D01*
X86410000Y-68920000D02*
X104190000Y-68920000D01*
X104190000Y-129880000D02*
X86410000Y-129880000D01*
G04 #@! TO.C,J9*
X188200000Y-52000000D02*
X188200000Y-66400000D01*
X188200000Y-66400000D02*
X203000000Y-66400000D01*
X203000000Y-66400000D02*
X203000000Y-52000000D01*
X203000000Y-52000000D02*
X188200000Y-52000000D01*
X202000000Y-43300000D02*
X189000000Y-43300000D01*
X189000000Y-52000000D02*
X189000000Y-43300000D01*
X202000000Y-52000000D02*
X202000000Y-43300000D01*
X201000000Y-43300000D02*
X201000000Y-31300000D01*
X190000000Y-31300000D02*
X190000000Y-43300000D01*
X201000000Y-31300000D02*
X190000000Y-31300000D01*
G04 #@! TO.C,J3*
X120300000Y-30900000D02*
X109300000Y-30900000D01*
X109300000Y-30900000D02*
X109300000Y-42900000D01*
X120300000Y-42900000D02*
X120300000Y-30900000D01*
X121300000Y-51600000D02*
X121300000Y-42900000D01*
X108300000Y-51600000D02*
X108300000Y-42900000D01*
X121300000Y-42900000D02*
X108300000Y-42900000D01*
X122300000Y-51600000D02*
X107500000Y-51600000D01*
X122300000Y-66000000D02*
X122300000Y-51600000D01*
X107500000Y-66000000D02*
X122300000Y-66000000D01*
X107500000Y-51600000D02*
X107500000Y-66000000D01*
G04 #@! TO.C,J7*
X159800000Y-31100000D02*
X148800000Y-31100000D01*
X148800000Y-31100000D02*
X148800000Y-43100000D01*
X159800000Y-43100000D02*
X159800000Y-31100000D01*
X160800000Y-51800000D02*
X160800000Y-43100000D01*
X147800000Y-51800000D02*
X147800000Y-43100000D01*
X160800000Y-43100000D02*
X147800000Y-43100000D01*
X161800000Y-51800000D02*
X147000000Y-51800000D01*
X161800000Y-66200000D02*
X161800000Y-51800000D01*
X147000000Y-66200000D02*
X161800000Y-66200000D01*
X147000000Y-51800000D02*
X147000000Y-66200000D01*
G04 #@! TO.C,J2*
X84700000Y-51600000D02*
X84700000Y-66000000D01*
X84700000Y-66000000D02*
X99500000Y-66000000D01*
X99500000Y-66000000D02*
X99500000Y-51600000D01*
X99500000Y-51600000D02*
X84700000Y-51600000D01*
X98500000Y-42900000D02*
X85500000Y-42900000D01*
X85500000Y-51600000D02*
X85500000Y-42900000D01*
X98500000Y-51600000D02*
X98500000Y-42900000D01*
X97500000Y-42900000D02*
X97500000Y-30900000D01*
X86500000Y-30900000D02*
X86500000Y-42900000D01*
X97500000Y-30900000D02*
X86500000Y-30900000D01*
D17*
G04 #@! TO.C,C10*
X140710000Y-96037221D02*
X140710000Y-96362779D01*
X139690000Y-96037221D02*
X139690000Y-96362779D01*
G04 #@! TO.C,C43*
X169674721Y-71860000D02*
X170000279Y-71860000D01*
X169674721Y-70840000D02*
X170000279Y-70840000D01*
G04 #@! TO.C,C44*
X173937221Y-80590000D02*
X174262779Y-80590000D01*
X173937221Y-81610000D02*
X174262779Y-81610000D01*
G04 #@! TO.C,C18*
X125037221Y-72710000D02*
X125362779Y-72710000D01*
X125037221Y-71690000D02*
X125362779Y-71690000D01*
G04 #@! TO.C,C20*
X129237221Y-81190000D02*
X129562779Y-81190000D01*
X129237221Y-82210000D02*
X129562779Y-82210000D01*
D11*
G04 #@! TO.C,U9*
X124071170Y-78998306D02*
X124121170Y-78998306D01*
X124071170Y-74848306D02*
X124216170Y-74848306D01*
X129221170Y-74848306D02*
X129076170Y-74848306D01*
X129221170Y-78998306D02*
X129076170Y-78998306D01*
X124071170Y-78998306D02*
X124071170Y-74848306D01*
X129221170Y-78998306D02*
X129221170Y-74848306D01*
X124121170Y-78998306D02*
X124121170Y-80398306D01*
D17*
G04 #@! TO.C,R1*
X125037221Y-82210000D02*
X125362779Y-82210000D01*
X125037221Y-81190000D02*
X125362779Y-81190000D01*
G04 #@! TO.C,R8*
X169637221Y-81510000D02*
X169962779Y-81510000D01*
X169637221Y-80490000D02*
X169962779Y-80490000D01*
G04 #@! TO.C,R3*
X122199170Y-77162779D02*
X122199170Y-76837221D01*
X123219170Y-77162779D02*
X123219170Y-76837221D01*
G04 #@! TO.C,R10*
X166590000Y-76262779D02*
X166590000Y-75937221D01*
X167610000Y-76262779D02*
X167610000Y-75937221D01*
G04 #@! TO.C,R13*
X188337221Y-71710000D02*
X188662779Y-71710000D01*
X188337221Y-70690000D02*
X188662779Y-70690000D01*
D11*
G04 #@! TO.C,U7*
X137557170Y-92644306D02*
X137557170Y-93994306D01*
X142682170Y-92644306D02*
X142682170Y-87994306D01*
X137432170Y-92644306D02*
X137432170Y-87994306D01*
X142682170Y-92644306D02*
X142457170Y-92644306D01*
X142682170Y-87994306D02*
X142457170Y-87994306D01*
X137432170Y-87994306D02*
X137657170Y-87994306D01*
X137432170Y-92644306D02*
X137557170Y-92644306D01*
D17*
G04 #@! TO.C,C8*
X149490000Y-84937221D02*
X149490000Y-85262779D01*
X150510000Y-84937221D02*
X150510000Y-85262779D01*
G04 #@! TO.C,C12*
X160362779Y-85390000D02*
X160037221Y-85390000D01*
X160362779Y-86410000D02*
X160037221Y-86410000D01*
G04 #@! TO.C,C15*
X130990000Y-85037221D02*
X130990000Y-85362779D01*
X132010000Y-85037221D02*
X132010000Y-85362779D01*
G04 #@! TO.C,C9*
X142310000Y-96037221D02*
X142310000Y-96362779D01*
X141290000Y-96037221D02*
X141290000Y-96362779D01*
G04 #@! TO.C,C14*
X133590000Y-85037221D02*
X133590000Y-85362779D01*
X134610000Y-85037221D02*
X134610000Y-85362779D01*
G04 #@! TO.C,C16*
X142010000Y-84762779D02*
X142010000Y-84437221D01*
X140990000Y-84762779D02*
X140990000Y-84437221D01*
G04 #@! TO.C,C17*
X140410000Y-84762779D02*
X140410000Y-84437221D01*
X139390000Y-84762779D02*
X139390000Y-84437221D01*
G04 #@! TO.C,C45*
X176487221Y-72010000D02*
X176812779Y-72010000D01*
X176487221Y-70990000D02*
X176812779Y-70990000D01*
G04 #@! TO.C,C46*
X181690000Y-79537221D02*
X181690000Y-79862779D01*
X182710000Y-79537221D02*
X182710000Y-79862779D01*
G04 #@! TO.C,C21*
X136290000Y-80137221D02*
X136290000Y-80462779D01*
X137310000Y-80137221D02*
X137310000Y-80462779D01*
G04 #@! TO.C,C19*
X131549721Y-72610000D02*
X131875279Y-72610000D01*
X131549721Y-71590000D02*
X131875279Y-71590000D01*
G04 #@! TO.C,C48*
X191362779Y-80390000D02*
X191037221Y-80390000D01*
X191362779Y-81410000D02*
X191037221Y-81410000D01*
G04 #@! TO.C,C49*
X185010000Y-79862779D02*
X185010000Y-79537221D01*
X183990000Y-79862779D02*
X183990000Y-79537221D01*
G04 #@! TO.C,C47*
X204716104Y-76094002D02*
X204390546Y-76094002D01*
X204716104Y-77114002D02*
X204390546Y-77114002D01*
G04 #@! TO.C,C50*
X194649325Y-77528781D02*
X194649325Y-77203223D01*
X193629325Y-77528781D02*
X193629325Y-77203223D01*
G04 #@! TO.C,C23*
X146390255Y-80875542D02*
X146064697Y-80875542D01*
X146390255Y-81895542D02*
X146064697Y-81895542D01*
G04 #@! TO.C,C24*
X140310000Y-80262779D02*
X140310000Y-79937221D01*
X139290000Y-80262779D02*
X139290000Y-79937221D01*
G04 #@! TO.C,C22*
X160462779Y-76190000D02*
X160137221Y-76190000D01*
X160462779Y-77210000D02*
X160137221Y-77210000D01*
G04 #@! TO.C,C25*
X150572585Y-77543748D02*
X150572585Y-77218190D01*
X149552585Y-77543748D02*
X149552585Y-77218190D01*
G04 #@! TO.C,R2*
X133162779Y-81990000D02*
X132837221Y-81990000D01*
X133162779Y-83010000D02*
X132837221Y-83010000D01*
G04 #@! TO.C,R9*
X178062779Y-81390000D02*
X177737221Y-81390000D01*
X178062779Y-82410000D02*
X177737221Y-82410000D01*
G04 #@! TO.C,R5*
X139910000Y-76862779D02*
X139910000Y-76537221D01*
X138890000Y-76862779D02*
X138890000Y-76537221D01*
G04 #@! TO.C,R11*
X182568928Y-76545515D02*
X182568928Y-76219957D01*
X181548928Y-76545515D02*
X181548928Y-76219957D01*
G04 #@! TO.C,R4*
X137710000Y-76862779D02*
X137710000Y-76537221D01*
X136690000Y-76862779D02*
X136690000Y-76537221D01*
G04 #@! TO.C,R12*
X184677128Y-76418615D02*
X184677128Y-76093057D01*
X183657128Y-76418615D02*
X183657128Y-76093057D01*
G04 #@! TO.C,R6*
X143364697Y-72395542D02*
X143690255Y-72395542D01*
X143364697Y-71375542D02*
X143690255Y-71375542D01*
G04 #@! TO.C,R14*
X203490000Y-70437221D02*
X203490000Y-70762779D01*
X204510000Y-70437221D02*
X204510000Y-70762779D01*
G04 #@! TO.C,R7*
X160110000Y-70962779D02*
X160110000Y-70637221D01*
X159090000Y-70962779D02*
X159090000Y-70637221D01*
D11*
G04 #@! TO.C,U10*
X130621170Y-78910306D02*
X130621170Y-80310306D01*
X135721170Y-78910306D02*
X135721170Y-74760306D01*
X130571170Y-78910306D02*
X130571170Y-74760306D01*
X135721170Y-78910306D02*
X135576170Y-78910306D01*
X135721170Y-74760306D02*
X135576170Y-74760306D01*
X130571170Y-74760306D02*
X130716170Y-74760306D01*
X130571170Y-78910306D02*
X130621170Y-78910306D01*
G04 #@! TO.C,U21*
X175571528Y-78406936D02*
X175571528Y-79806936D01*
X180671528Y-78406936D02*
X180671528Y-74256936D01*
X175521528Y-78406936D02*
X175521528Y-74256936D01*
X180671528Y-78406936D02*
X180526528Y-78406936D01*
X180671528Y-74256936D02*
X180526528Y-74256936D01*
X175521528Y-74256936D02*
X175666528Y-74256936D01*
X175521528Y-78406936D02*
X175571528Y-78406936D01*
G04 #@! TO.C,U22*
X191031505Y-74106524D02*
X191031505Y-72706524D01*
X185931505Y-74106524D02*
X185931505Y-78256524D01*
X191081505Y-74106524D02*
X191081505Y-78256524D01*
X185931505Y-74106524D02*
X186076505Y-74106524D01*
X185931505Y-78256524D02*
X186076505Y-78256524D01*
X191081505Y-78256524D02*
X190936505Y-78256524D01*
X191081505Y-74106524D02*
X191031505Y-74106524D01*
G04 #@! TO.C,U23*
X201294325Y-79622002D02*
X202669325Y-79622002D01*
X201294325Y-69497002D02*
X197144325Y-69497002D01*
X201294325Y-79647002D02*
X197144325Y-79647002D01*
X201294325Y-69497002D02*
X201294325Y-69602002D01*
X197144325Y-69497002D02*
X197144325Y-69602002D01*
X197144325Y-79647002D02*
X197144325Y-79542002D01*
X201294325Y-79647002D02*
X201294325Y-79622002D01*
G04 #@! TO.C,U12*
X156894891Y-79830799D02*
X158269891Y-79830799D01*
X156894891Y-69705799D02*
X152744891Y-69705799D01*
X156894891Y-79855799D02*
X152744891Y-79855799D01*
X156894891Y-69705799D02*
X156894891Y-69810799D01*
X152744891Y-69705799D02*
X152744891Y-69810799D01*
X152744891Y-79855799D02*
X152744891Y-79750799D01*
X156894891Y-79855799D02*
X156894891Y-79830799D01*
D17*
G04 #@! TO.C,C11*
X125910000Y-94662779D02*
X125910000Y-94337221D01*
X124890000Y-94662779D02*
X124890000Y-94337221D01*
G04 #@! TO.C,U8*
X122819170Y-91907306D02*
X122819170Y-90447306D01*
X125979170Y-91907306D02*
X125979170Y-89747306D01*
X125979170Y-91907306D02*
X125049170Y-91907306D01*
X122819170Y-91907306D02*
X123749170Y-91907306D01*
D11*
G04 #@! TO.C,U11*
X146052476Y-74610542D02*
X146052476Y-73210542D01*
X140952476Y-74610542D02*
X140952476Y-78760542D01*
X146102476Y-74610542D02*
X146102476Y-78760542D01*
X140952476Y-74610542D02*
X141097476Y-74610542D01*
X140952476Y-78760542D02*
X141097476Y-78760542D01*
X146102476Y-78760542D02*
X145957476Y-78760542D01*
X146102476Y-74610542D02*
X146052476Y-74610542D01*
G04 #@! TO.C,J8*
X178800000Y-52000000D02*
X178800000Y-65000000D01*
X181400000Y-52000000D02*
X178800000Y-52000000D01*
X181400000Y-65000000D02*
X181400000Y-52000000D01*
X183900000Y-57000000D02*
X183900000Y-65000000D01*
X183900000Y-65000000D02*
X175900000Y-65000000D01*
X175900000Y-65000000D02*
X175900000Y-52000000D01*
X175900000Y-52000000D02*
X183900000Y-52000000D01*
X183900000Y-52000000D02*
X183900000Y-57000000D01*
G04 #@! TO.C,D1*
X121531904Y-124492380D02*
X121531904Y-123492380D01*
X121770000Y-123492380D01*
X121912857Y-123540000D01*
X122008095Y-123635238D01*
X122055714Y-123730476D01*
X122103333Y-123920952D01*
X122103333Y-124063809D01*
X122055714Y-124254285D01*
X122008095Y-124349523D01*
X121912857Y-124444761D01*
X121770000Y-124492380D01*
X121531904Y-124492380D01*
X123055714Y-124492380D02*
X122484285Y-124492380D01*
X122770000Y-124492380D02*
X122770000Y-123492380D01*
X122674761Y-123635238D01*
X122579523Y-123730476D01*
X122484285Y-123778095D01*
G04 #@! TO.C,D2*
X132031904Y-124492380D02*
X132031904Y-123492380D01*
X132270000Y-123492380D01*
X132412857Y-123540000D01*
X132508095Y-123635238D01*
X132555714Y-123730476D01*
X132603333Y-123920952D01*
X132603333Y-124063809D01*
X132555714Y-124254285D01*
X132508095Y-124349523D01*
X132412857Y-124444761D01*
X132270000Y-124492380D01*
X132031904Y-124492380D01*
X132984285Y-123587619D02*
X133031904Y-123540000D01*
X133127142Y-123492380D01*
X133365238Y-123492380D01*
X133460476Y-123540000D01*
X133508095Y-123587619D01*
X133555714Y-123682857D01*
X133555714Y-123778095D01*
X133508095Y-123920952D01*
X132936666Y-124492380D01*
X133555714Y-124492380D01*
G04 #@! TO.C,SW1*
X108566666Y-123804761D02*
X108709523Y-123852380D01*
X108947619Y-123852380D01*
X109042857Y-123804761D01*
X109090476Y-123757142D01*
X109138095Y-123661904D01*
X109138095Y-123566666D01*
X109090476Y-123471428D01*
X109042857Y-123423809D01*
X108947619Y-123376190D01*
X108757142Y-123328571D01*
X108661904Y-123280952D01*
X108614285Y-123233333D01*
X108566666Y-123138095D01*
X108566666Y-123042857D01*
X108614285Y-122947619D01*
X108661904Y-122900000D01*
X108757142Y-122852380D01*
X108995238Y-122852380D01*
X109138095Y-122900000D01*
X109471428Y-122852380D02*
X109709523Y-123852380D01*
X109900000Y-123138095D01*
X110090476Y-123852380D01*
X110328571Y-122852380D01*
X111233333Y-123852380D02*
X110661904Y-123852380D01*
X110947619Y-123852380D02*
X110947619Y-122852380D01*
X110852380Y-122995238D01*
X110757142Y-123090476D01*
X110661904Y-123138095D01*
G04 #@! TO.C,R16*
X127222380Y-126442857D02*
X126746190Y-126776190D01*
X127222380Y-127014285D02*
X126222380Y-127014285D01*
X126222380Y-126633333D01*
X126270000Y-126538095D01*
X126317619Y-126490476D01*
X126412857Y-126442857D01*
X126555714Y-126442857D01*
X126650952Y-126490476D01*
X126698571Y-126538095D01*
X126746190Y-126633333D01*
X126746190Y-127014285D01*
X127222380Y-125490476D02*
X127222380Y-126061904D01*
X127222380Y-125776190D02*
X126222380Y-125776190D01*
X126365238Y-125871428D01*
X126460476Y-125966666D01*
X126508095Y-126061904D01*
X126222380Y-124633333D02*
X126222380Y-124823809D01*
X126270000Y-124919047D01*
X126317619Y-124966666D01*
X126460476Y-125061904D01*
X126650952Y-125109523D01*
X127031904Y-125109523D01*
X127127142Y-125061904D01*
X127174761Y-125014285D01*
X127222380Y-124919047D01*
X127222380Y-124728571D01*
X127174761Y-124633333D01*
X127127142Y-124585714D01*
X127031904Y-124538095D01*
X126793809Y-124538095D01*
X126698571Y-124585714D01*
X126650952Y-124633333D01*
X126603333Y-124728571D01*
X126603333Y-124919047D01*
X126650952Y-125014285D01*
X126698571Y-125061904D01*
X126793809Y-125109523D01*
G04 #@! TO.C,R15*
X117022380Y-126542857D02*
X116546190Y-126876190D01*
X117022380Y-127114285D02*
X116022380Y-127114285D01*
X116022380Y-126733333D01*
X116070000Y-126638095D01*
X116117619Y-126590476D01*
X116212857Y-126542857D01*
X116355714Y-126542857D01*
X116450952Y-126590476D01*
X116498571Y-126638095D01*
X116546190Y-126733333D01*
X116546190Y-127114285D01*
X117022380Y-125590476D02*
X117022380Y-126161904D01*
X117022380Y-125876190D02*
X116022380Y-125876190D01*
X116165238Y-125971428D01*
X116260476Y-126066666D01*
X116308095Y-126161904D01*
X116022380Y-124685714D02*
X116022380Y-125161904D01*
X116498571Y-125209523D01*
X116450952Y-125161904D01*
X116403333Y-125066666D01*
X116403333Y-124828571D01*
X116450952Y-124733333D01*
X116498571Y-124685714D01*
X116593809Y-124638095D01*
X116831904Y-124638095D01*
X116927142Y-124685714D01*
X116974761Y-124733333D01*
X117022380Y-124828571D01*
X117022380Y-125066666D01*
X116974761Y-125161904D01*
X116927142Y-125209523D01*
G04 #@! TO.C,U2*
X162952380Y-99761904D02*
X163761904Y-99761904D01*
X163857142Y-99714285D01*
X163904761Y-99666666D01*
X163952380Y-99571428D01*
X163952380Y-99380952D01*
X163904761Y-99285714D01*
X163857142Y-99238095D01*
X163761904Y-99190476D01*
X162952380Y-99190476D01*
X163047619Y-98761904D02*
X163000000Y-98714285D01*
X162952380Y-98619047D01*
X162952380Y-98380952D01*
X163000000Y-98285714D01*
X163047619Y-98238095D01*
X163142857Y-98190476D01*
X163238095Y-98190476D01*
X163380952Y-98238095D01*
X163952380Y-98809523D01*
X163952380Y-98190476D01*
G04 #@! TO.C,C52*
X168457142Y-97642857D02*
X168504761Y-97690476D01*
X168552380Y-97833333D01*
X168552380Y-97928571D01*
X168504761Y-98071428D01*
X168409523Y-98166666D01*
X168314285Y-98214285D01*
X168123809Y-98261904D01*
X167980952Y-98261904D01*
X167790476Y-98214285D01*
X167695238Y-98166666D01*
X167600000Y-98071428D01*
X167552380Y-97928571D01*
X167552380Y-97833333D01*
X167600000Y-97690476D01*
X167647619Y-97642857D01*
X167552380Y-96738095D02*
X167552380Y-97214285D01*
X168028571Y-97261904D01*
X167980952Y-97214285D01*
X167933333Y-97119047D01*
X167933333Y-96880952D01*
X167980952Y-96785714D01*
X168028571Y-96738095D01*
X168123809Y-96690476D01*
X168361904Y-96690476D01*
X168457142Y-96738095D01*
X168504761Y-96785714D01*
X168552380Y-96880952D01*
X168552380Y-97119047D01*
X168504761Y-97214285D01*
X168457142Y-97261904D01*
X167647619Y-96309523D02*
X167600000Y-96261904D01*
X167552380Y-96166666D01*
X167552380Y-95928571D01*
X167600000Y-95833333D01*
X167647619Y-95785714D01*
X167742857Y-95738095D01*
X167838095Y-95738095D01*
X167980952Y-95785714D01*
X168552380Y-96357142D01*
X168552380Y-95738095D01*
G04 #@! TO.C,U5*
X153938095Y-80252380D02*
X153938095Y-81061904D01*
X153985714Y-81157142D01*
X154033333Y-81204761D01*
X154128571Y-81252380D01*
X154319047Y-81252380D01*
X154414285Y-81204761D01*
X154461904Y-81157142D01*
X154509523Y-81061904D01*
X154509523Y-80252380D01*
X155461904Y-80252380D02*
X154985714Y-80252380D01*
X154938095Y-80728571D01*
X154985714Y-80680952D01*
X155080952Y-80633333D01*
X155319047Y-80633333D01*
X155414285Y-80680952D01*
X155461904Y-80728571D01*
X155509523Y-80823809D01*
X155509523Y-81061904D01*
X155461904Y-81157142D01*
X155414285Y-81204761D01*
X155319047Y-81252380D01*
X155080952Y-81252380D01*
X154985714Y-81204761D01*
X154938095Y-81157142D01*
G04 #@! TO.C,C51*
X124057142Y-97942857D02*
X124104761Y-97990476D01*
X124152380Y-98133333D01*
X124152380Y-98228571D01*
X124104761Y-98371428D01*
X124009523Y-98466666D01*
X123914285Y-98514285D01*
X123723809Y-98561904D01*
X123580952Y-98561904D01*
X123390476Y-98514285D01*
X123295238Y-98466666D01*
X123200000Y-98371428D01*
X123152380Y-98228571D01*
X123152380Y-98133333D01*
X123200000Y-97990476D01*
X123247619Y-97942857D01*
X123152380Y-97038095D02*
X123152380Y-97514285D01*
X123628571Y-97561904D01*
X123580952Y-97514285D01*
X123533333Y-97419047D01*
X123533333Y-97180952D01*
X123580952Y-97085714D01*
X123628571Y-97038095D01*
X123723809Y-96990476D01*
X123961904Y-96990476D01*
X124057142Y-97038095D01*
X124104761Y-97085714D01*
X124152380Y-97180952D01*
X124152380Y-97419047D01*
X124104761Y-97514285D01*
X124057142Y-97561904D01*
X124152380Y-96038095D02*
X124152380Y-96609523D01*
X124152380Y-96323809D02*
X123152380Y-96323809D01*
X123295238Y-96419047D01*
X123390476Y-96514285D01*
X123438095Y-96609523D01*
G04 #@! TO.C,J6*
X135866666Y-58552380D02*
X135866666Y-59266666D01*
X135819047Y-59409523D01*
X135723809Y-59504761D01*
X135580952Y-59552380D01*
X135485714Y-59552380D01*
X136771428Y-58552380D02*
X136580952Y-58552380D01*
X136485714Y-58600000D01*
X136438095Y-58647619D01*
X136342857Y-58790476D01*
X136295238Y-58980952D01*
X136295238Y-59361904D01*
X136342857Y-59457142D01*
X136390476Y-59504761D01*
X136485714Y-59552380D01*
X136676190Y-59552380D01*
X136771428Y-59504761D01*
X136819047Y-59457142D01*
X136866666Y-59361904D01*
X136866666Y-59123809D01*
X136819047Y-59028571D01*
X136771428Y-58980952D01*
X136676190Y-58933333D01*
X136485714Y-58933333D01*
X136390476Y-58980952D01*
X136342857Y-59028571D01*
X136295238Y-59123809D01*
G04 #@! TO.C,U13*
X205952380Y-100738095D02*
X206761904Y-100738095D01*
X206857142Y-100690476D01*
X206904761Y-100642857D01*
X206952380Y-100547619D01*
X206952380Y-100357142D01*
X206904761Y-100261904D01*
X206857142Y-100214285D01*
X206761904Y-100166666D01*
X205952380Y-100166666D01*
X206952380Y-99166666D02*
X206952380Y-99738095D01*
X206952380Y-99452380D02*
X205952380Y-99452380D01*
X206095238Y-99547619D01*
X206190476Y-99642857D01*
X206238095Y-99738095D01*
X205952380Y-98833333D02*
X205952380Y-98214285D01*
X206333333Y-98547619D01*
X206333333Y-98404761D01*
X206380952Y-98309523D01*
X206428571Y-98261904D01*
X206523809Y-98214285D01*
X206761904Y-98214285D01*
X206857142Y-98261904D01*
X206904761Y-98309523D01*
X206952380Y-98404761D01*
X206952380Y-98690476D01*
X206904761Y-98785714D01*
X206857142Y-98833333D01*
G04 #@! TO.C,C33*
X192982142Y-86392857D02*
X193029761Y-86440476D01*
X193077380Y-86583333D01*
X193077380Y-86678571D01*
X193029761Y-86821428D01*
X192934523Y-86916666D01*
X192839285Y-86964285D01*
X192648809Y-87011904D01*
X192505952Y-87011904D01*
X192315476Y-86964285D01*
X192220238Y-86916666D01*
X192125000Y-86821428D01*
X192077380Y-86678571D01*
X192077380Y-86583333D01*
X192125000Y-86440476D01*
X192172619Y-86392857D01*
X192077380Y-86059523D02*
X192077380Y-85440476D01*
X192458333Y-85773809D01*
X192458333Y-85630952D01*
X192505952Y-85535714D01*
X192553571Y-85488095D01*
X192648809Y-85440476D01*
X192886904Y-85440476D01*
X192982142Y-85488095D01*
X193029761Y-85535714D01*
X193077380Y-85630952D01*
X193077380Y-85916666D01*
X193029761Y-86011904D01*
X192982142Y-86059523D01*
X192077380Y-85107142D02*
X192077380Y-84488095D01*
X192458333Y-84821428D01*
X192458333Y-84678571D01*
X192505952Y-84583333D01*
X192553571Y-84535714D01*
X192648809Y-84488095D01*
X192886904Y-84488095D01*
X192982142Y-84535714D01*
X193029761Y-84583333D01*
X193077380Y-84678571D01*
X193077380Y-84964285D01*
X193029761Y-85059523D01*
X192982142Y-85107142D01*
G04 #@! TO.C,C26*
X177657142Y-115887142D02*
X177609523Y-115934761D01*
X177466666Y-115982380D01*
X177371428Y-115982380D01*
X177228571Y-115934761D01*
X177133333Y-115839523D01*
X177085714Y-115744285D01*
X177038095Y-115553809D01*
X177038095Y-115410952D01*
X177085714Y-115220476D01*
X177133333Y-115125238D01*
X177228571Y-115030000D01*
X177371428Y-114982380D01*
X177466666Y-114982380D01*
X177609523Y-115030000D01*
X177657142Y-115077619D01*
X178038095Y-115077619D02*
X178085714Y-115030000D01*
X178180952Y-114982380D01*
X178419047Y-114982380D01*
X178514285Y-115030000D01*
X178561904Y-115077619D01*
X178609523Y-115172857D01*
X178609523Y-115268095D01*
X178561904Y-115410952D01*
X177990476Y-115982380D01*
X178609523Y-115982380D01*
X179466666Y-114982380D02*
X179276190Y-114982380D01*
X179180952Y-115030000D01*
X179133333Y-115077619D01*
X179038095Y-115220476D01*
X178990476Y-115410952D01*
X178990476Y-115791904D01*
X179038095Y-115887142D01*
X179085714Y-115934761D01*
X179180952Y-115982380D01*
X179371428Y-115982380D01*
X179466666Y-115934761D01*
X179514285Y-115887142D01*
X179561904Y-115791904D01*
X179561904Y-115553809D01*
X179514285Y-115458571D01*
X179466666Y-115410952D01*
X179371428Y-115363333D01*
X179180952Y-115363333D01*
X179085714Y-115410952D01*
X179038095Y-115458571D01*
X178990476Y-115553809D01*
G04 #@! TO.C,C27*
X166557142Y-115957142D02*
X166509523Y-116004761D01*
X166366666Y-116052380D01*
X166271428Y-116052380D01*
X166128571Y-116004761D01*
X166033333Y-115909523D01*
X165985714Y-115814285D01*
X165938095Y-115623809D01*
X165938095Y-115480952D01*
X165985714Y-115290476D01*
X166033333Y-115195238D01*
X166128571Y-115100000D01*
X166271428Y-115052380D01*
X166366666Y-115052380D01*
X166509523Y-115100000D01*
X166557142Y-115147619D01*
X166938095Y-115147619D02*
X166985714Y-115100000D01*
X167080952Y-115052380D01*
X167319047Y-115052380D01*
X167414285Y-115100000D01*
X167461904Y-115147619D01*
X167509523Y-115242857D01*
X167509523Y-115338095D01*
X167461904Y-115480952D01*
X166890476Y-116052380D01*
X167509523Y-116052380D01*
X167842857Y-115052380D02*
X168509523Y-115052380D01*
X168080952Y-116052380D01*
G04 #@! TO.C,C31*
X166582142Y-99677142D02*
X166534523Y-99724761D01*
X166391666Y-99772380D01*
X166296428Y-99772380D01*
X166153571Y-99724761D01*
X166058333Y-99629523D01*
X166010714Y-99534285D01*
X165963095Y-99343809D01*
X165963095Y-99200952D01*
X166010714Y-99010476D01*
X166058333Y-98915238D01*
X166153571Y-98820000D01*
X166296428Y-98772380D01*
X166391666Y-98772380D01*
X166534523Y-98820000D01*
X166582142Y-98867619D01*
X166915476Y-98772380D02*
X167534523Y-98772380D01*
X167201190Y-99153333D01*
X167344047Y-99153333D01*
X167439285Y-99200952D01*
X167486904Y-99248571D01*
X167534523Y-99343809D01*
X167534523Y-99581904D01*
X167486904Y-99677142D01*
X167439285Y-99724761D01*
X167344047Y-99772380D01*
X167058333Y-99772380D01*
X166963095Y-99724761D01*
X166915476Y-99677142D01*
X168486904Y-99772380D02*
X167915476Y-99772380D01*
X168201190Y-99772380D02*
X168201190Y-98772380D01*
X168105952Y-98915238D01*
X168010714Y-99010476D01*
X167915476Y-99058095D01*
G04 #@! TO.C,C32*
X177557142Y-99727142D02*
X177509523Y-99774761D01*
X177366666Y-99822380D01*
X177271428Y-99822380D01*
X177128571Y-99774761D01*
X177033333Y-99679523D01*
X176985714Y-99584285D01*
X176938095Y-99393809D01*
X176938095Y-99250952D01*
X176985714Y-99060476D01*
X177033333Y-98965238D01*
X177128571Y-98870000D01*
X177271428Y-98822380D01*
X177366666Y-98822380D01*
X177509523Y-98870000D01*
X177557142Y-98917619D01*
X177890476Y-98822380D02*
X178509523Y-98822380D01*
X178176190Y-99203333D01*
X178319047Y-99203333D01*
X178414285Y-99250952D01*
X178461904Y-99298571D01*
X178509523Y-99393809D01*
X178509523Y-99631904D01*
X178461904Y-99727142D01*
X178414285Y-99774761D01*
X178319047Y-99822380D01*
X178033333Y-99822380D01*
X177938095Y-99774761D01*
X177890476Y-99727142D01*
X178890476Y-98917619D02*
X178938095Y-98870000D01*
X179033333Y-98822380D01*
X179271428Y-98822380D01*
X179366666Y-98870000D01*
X179414285Y-98917619D01*
X179461904Y-99012857D01*
X179461904Y-99108095D01*
X179414285Y-99250952D01*
X178842857Y-99822380D01*
X179461904Y-99822380D01*
G04 #@! TO.C,C34*
X188957142Y-96742857D02*
X189004761Y-96790476D01*
X189052380Y-96933333D01*
X189052380Y-97028571D01*
X189004761Y-97171428D01*
X188909523Y-97266666D01*
X188814285Y-97314285D01*
X188623809Y-97361904D01*
X188480952Y-97361904D01*
X188290476Y-97314285D01*
X188195238Y-97266666D01*
X188100000Y-97171428D01*
X188052380Y-97028571D01*
X188052380Y-96933333D01*
X188100000Y-96790476D01*
X188147619Y-96742857D01*
X188052380Y-96409523D02*
X188052380Y-95790476D01*
X188433333Y-96123809D01*
X188433333Y-95980952D01*
X188480952Y-95885714D01*
X188528571Y-95838095D01*
X188623809Y-95790476D01*
X188861904Y-95790476D01*
X188957142Y-95838095D01*
X189004761Y-95885714D01*
X189052380Y-95980952D01*
X189052380Y-96266666D01*
X189004761Y-96361904D01*
X188957142Y-96409523D01*
X188385714Y-94933333D02*
X189052380Y-94933333D01*
X188004761Y-95171428D02*
X188719047Y-95409523D01*
X188719047Y-94790476D01*
G04 #@! TO.C,C36*
X184357142Y-96842857D02*
X184404761Y-96890476D01*
X184452380Y-97033333D01*
X184452380Y-97128571D01*
X184404761Y-97271428D01*
X184309523Y-97366666D01*
X184214285Y-97414285D01*
X184023809Y-97461904D01*
X183880952Y-97461904D01*
X183690476Y-97414285D01*
X183595238Y-97366666D01*
X183500000Y-97271428D01*
X183452380Y-97128571D01*
X183452380Y-97033333D01*
X183500000Y-96890476D01*
X183547619Y-96842857D01*
X183452380Y-96509523D02*
X183452380Y-95890476D01*
X183833333Y-96223809D01*
X183833333Y-96080952D01*
X183880952Y-95985714D01*
X183928571Y-95938095D01*
X184023809Y-95890476D01*
X184261904Y-95890476D01*
X184357142Y-95938095D01*
X184404761Y-95985714D01*
X184452380Y-96080952D01*
X184452380Y-96366666D01*
X184404761Y-96461904D01*
X184357142Y-96509523D01*
X183452380Y-95033333D02*
X183452380Y-95223809D01*
X183500000Y-95319047D01*
X183547619Y-95366666D01*
X183690476Y-95461904D01*
X183880952Y-95509523D01*
X184261904Y-95509523D01*
X184357142Y-95461904D01*
X184404761Y-95414285D01*
X184452380Y-95319047D01*
X184452380Y-95128571D01*
X184404761Y-95033333D01*
X184357142Y-94985714D01*
X184261904Y-94938095D01*
X184023809Y-94938095D01*
X183928571Y-94985714D01*
X183880952Y-95033333D01*
X183833333Y-95128571D01*
X183833333Y-95319047D01*
X183880952Y-95414285D01*
X183928571Y-95461904D01*
X184023809Y-95509523D01*
G04 #@! TO.C,C35*
X170557142Y-97542857D02*
X170604761Y-97590476D01*
X170652380Y-97733333D01*
X170652380Y-97828571D01*
X170604761Y-97971428D01*
X170509523Y-98066666D01*
X170414285Y-98114285D01*
X170223809Y-98161904D01*
X170080952Y-98161904D01*
X169890476Y-98114285D01*
X169795238Y-98066666D01*
X169700000Y-97971428D01*
X169652380Y-97828571D01*
X169652380Y-97733333D01*
X169700000Y-97590476D01*
X169747619Y-97542857D01*
X169652380Y-97209523D02*
X169652380Y-96590476D01*
X170033333Y-96923809D01*
X170033333Y-96780952D01*
X170080952Y-96685714D01*
X170128571Y-96638095D01*
X170223809Y-96590476D01*
X170461904Y-96590476D01*
X170557142Y-96638095D01*
X170604761Y-96685714D01*
X170652380Y-96780952D01*
X170652380Y-97066666D01*
X170604761Y-97161904D01*
X170557142Y-97209523D01*
X169652380Y-95685714D02*
X169652380Y-96161904D01*
X170128571Y-96209523D01*
X170080952Y-96161904D01*
X170033333Y-96066666D01*
X170033333Y-95828571D01*
X170080952Y-95733333D01*
X170128571Y-95685714D01*
X170223809Y-95638095D01*
X170461904Y-95638095D01*
X170557142Y-95685714D01*
X170604761Y-95733333D01*
X170652380Y-95828571D01*
X170652380Y-96066666D01*
X170604761Y-96161904D01*
X170557142Y-96209523D01*
G04 #@! TO.C,C37*
X203807142Y-85507142D02*
X203759523Y-85554761D01*
X203616666Y-85602380D01*
X203521428Y-85602380D01*
X203378571Y-85554761D01*
X203283333Y-85459523D01*
X203235714Y-85364285D01*
X203188095Y-85173809D01*
X203188095Y-85030952D01*
X203235714Y-84840476D01*
X203283333Y-84745238D01*
X203378571Y-84650000D01*
X203521428Y-84602380D01*
X203616666Y-84602380D01*
X203759523Y-84650000D01*
X203807142Y-84697619D01*
X204140476Y-84602380D02*
X204759523Y-84602380D01*
X204426190Y-84983333D01*
X204569047Y-84983333D01*
X204664285Y-85030952D01*
X204711904Y-85078571D01*
X204759523Y-85173809D01*
X204759523Y-85411904D01*
X204711904Y-85507142D01*
X204664285Y-85554761D01*
X204569047Y-85602380D01*
X204283333Y-85602380D01*
X204188095Y-85554761D01*
X204140476Y-85507142D01*
X205092857Y-84602380D02*
X205759523Y-84602380D01*
X205330952Y-85602380D01*
G04 #@! TO.C,C38*
X169057142Y-85657142D02*
X169009523Y-85704761D01*
X168866666Y-85752380D01*
X168771428Y-85752380D01*
X168628571Y-85704761D01*
X168533333Y-85609523D01*
X168485714Y-85514285D01*
X168438095Y-85323809D01*
X168438095Y-85180952D01*
X168485714Y-84990476D01*
X168533333Y-84895238D01*
X168628571Y-84800000D01*
X168771428Y-84752380D01*
X168866666Y-84752380D01*
X169009523Y-84800000D01*
X169057142Y-84847619D01*
X169390476Y-84752380D02*
X170009523Y-84752380D01*
X169676190Y-85133333D01*
X169819047Y-85133333D01*
X169914285Y-85180952D01*
X169961904Y-85228571D01*
X170009523Y-85323809D01*
X170009523Y-85561904D01*
X169961904Y-85657142D01*
X169914285Y-85704761D01*
X169819047Y-85752380D01*
X169533333Y-85752380D01*
X169438095Y-85704761D01*
X169390476Y-85657142D01*
X170580952Y-85180952D02*
X170485714Y-85133333D01*
X170438095Y-85085714D01*
X170390476Y-84990476D01*
X170390476Y-84942857D01*
X170438095Y-84847619D01*
X170485714Y-84800000D01*
X170580952Y-84752380D01*
X170771428Y-84752380D01*
X170866666Y-84800000D01*
X170914285Y-84847619D01*
X170961904Y-84942857D01*
X170961904Y-84990476D01*
X170914285Y-85085714D01*
X170866666Y-85133333D01*
X170771428Y-85180952D01*
X170580952Y-85180952D01*
X170485714Y-85228571D01*
X170438095Y-85276190D01*
X170390476Y-85371428D01*
X170390476Y-85561904D01*
X170438095Y-85657142D01*
X170485714Y-85704761D01*
X170580952Y-85752380D01*
X170771428Y-85752380D01*
X170866666Y-85704761D01*
X170914285Y-85657142D01*
X170961904Y-85561904D01*
X170961904Y-85371428D01*
X170914285Y-85276190D01*
X170866666Y-85228571D01*
X170771428Y-85180952D01*
G04 #@! TO.C,C39*
X180687142Y-85742857D02*
X180734761Y-85790476D01*
X180782380Y-85933333D01*
X180782380Y-86028571D01*
X180734761Y-86171428D01*
X180639523Y-86266666D01*
X180544285Y-86314285D01*
X180353809Y-86361904D01*
X180210952Y-86361904D01*
X180020476Y-86314285D01*
X179925238Y-86266666D01*
X179830000Y-86171428D01*
X179782380Y-86028571D01*
X179782380Y-85933333D01*
X179830000Y-85790476D01*
X179877619Y-85742857D01*
X179782380Y-85409523D02*
X179782380Y-84790476D01*
X180163333Y-85123809D01*
X180163333Y-84980952D01*
X180210952Y-84885714D01*
X180258571Y-84838095D01*
X180353809Y-84790476D01*
X180591904Y-84790476D01*
X180687142Y-84838095D01*
X180734761Y-84885714D01*
X180782380Y-84980952D01*
X180782380Y-85266666D01*
X180734761Y-85361904D01*
X180687142Y-85409523D01*
X180782380Y-84314285D02*
X180782380Y-84123809D01*
X180734761Y-84028571D01*
X180687142Y-83980952D01*
X180544285Y-83885714D01*
X180353809Y-83838095D01*
X179972857Y-83838095D01*
X179877619Y-83885714D01*
X179830000Y-83933333D01*
X179782380Y-84028571D01*
X179782380Y-84219047D01*
X179830000Y-84314285D01*
X179877619Y-84361904D01*
X179972857Y-84409523D01*
X180210952Y-84409523D01*
X180306190Y-84361904D01*
X180353809Y-84314285D01*
X180401428Y-84219047D01*
X180401428Y-84028571D01*
X180353809Y-83933333D01*
X180306190Y-83885714D01*
X180210952Y-83838095D01*
G04 #@! TO.C,C40*
X175457142Y-85742857D02*
X175504761Y-85790476D01*
X175552380Y-85933333D01*
X175552380Y-86028571D01*
X175504761Y-86171428D01*
X175409523Y-86266666D01*
X175314285Y-86314285D01*
X175123809Y-86361904D01*
X174980952Y-86361904D01*
X174790476Y-86314285D01*
X174695238Y-86266666D01*
X174600000Y-86171428D01*
X174552380Y-86028571D01*
X174552380Y-85933333D01*
X174600000Y-85790476D01*
X174647619Y-85742857D01*
X174885714Y-84885714D02*
X175552380Y-84885714D01*
X174504761Y-85123809D02*
X175219047Y-85361904D01*
X175219047Y-84742857D01*
X174552380Y-84171428D02*
X174552380Y-84076190D01*
X174600000Y-83980952D01*
X174647619Y-83933333D01*
X174742857Y-83885714D01*
X174933333Y-83838095D01*
X175171428Y-83838095D01*
X175361904Y-83885714D01*
X175457142Y-83933333D01*
X175504761Y-83980952D01*
X175552380Y-84076190D01*
X175552380Y-84171428D01*
X175504761Y-84266666D01*
X175457142Y-84314285D01*
X175361904Y-84361904D01*
X175171428Y-84409523D01*
X174933333Y-84409523D01*
X174742857Y-84361904D01*
X174647619Y-84314285D01*
X174600000Y-84266666D01*
X174552380Y-84171428D01*
G04 #@! TO.C,C42*
X183857142Y-85442857D02*
X183904761Y-85490476D01*
X183952380Y-85633333D01*
X183952380Y-85728571D01*
X183904761Y-85871428D01*
X183809523Y-85966666D01*
X183714285Y-86014285D01*
X183523809Y-86061904D01*
X183380952Y-86061904D01*
X183190476Y-86014285D01*
X183095238Y-85966666D01*
X183000000Y-85871428D01*
X182952380Y-85728571D01*
X182952380Y-85633333D01*
X183000000Y-85490476D01*
X183047619Y-85442857D01*
X183285714Y-84585714D02*
X183952380Y-84585714D01*
X182904761Y-84823809D02*
X183619047Y-85061904D01*
X183619047Y-84442857D01*
X183047619Y-84109523D02*
X183000000Y-84061904D01*
X182952380Y-83966666D01*
X182952380Y-83728571D01*
X183000000Y-83633333D01*
X183047619Y-83585714D01*
X183142857Y-83538095D01*
X183238095Y-83538095D01*
X183380952Y-83585714D01*
X183952380Y-84157142D01*
X183952380Y-83538095D01*
G04 #@! TO.C,C41*
X188282142Y-85255357D02*
X188329761Y-85302976D01*
X188377380Y-85445833D01*
X188377380Y-85541071D01*
X188329761Y-85683928D01*
X188234523Y-85779166D01*
X188139285Y-85826785D01*
X187948809Y-85874404D01*
X187805952Y-85874404D01*
X187615476Y-85826785D01*
X187520238Y-85779166D01*
X187425000Y-85683928D01*
X187377380Y-85541071D01*
X187377380Y-85445833D01*
X187425000Y-85302976D01*
X187472619Y-85255357D01*
X187710714Y-84398214D02*
X188377380Y-84398214D01*
X187329761Y-84636309D02*
X188044047Y-84874404D01*
X188044047Y-84255357D01*
X188377380Y-83350595D02*
X188377380Y-83922023D01*
X188377380Y-83636309D02*
X187377380Y-83636309D01*
X187520238Y-83731547D01*
X187615476Y-83826785D01*
X187663095Y-83922023D01*
G04 #@! TO.C,U14*
X176702380Y-108738095D02*
X177511904Y-108738095D01*
X177607142Y-108690476D01*
X177654761Y-108642857D01*
X177702380Y-108547619D01*
X177702380Y-108357142D01*
X177654761Y-108261904D01*
X177607142Y-108214285D01*
X177511904Y-108166666D01*
X176702380Y-108166666D01*
X177702380Y-107166666D02*
X177702380Y-107738095D01*
X177702380Y-107452380D02*
X176702380Y-107452380D01*
X176845238Y-107547619D01*
X176940476Y-107642857D01*
X176988095Y-107738095D01*
X177035714Y-106309523D02*
X177702380Y-106309523D01*
X176654761Y-106547619D02*
X177369047Y-106785714D01*
X177369047Y-106166666D01*
G04 #@! TO.C,U15*
X164202380Y-108738095D02*
X165011904Y-108738095D01*
X165107142Y-108690476D01*
X165154761Y-108642857D01*
X165202380Y-108547619D01*
X165202380Y-108357142D01*
X165154761Y-108261904D01*
X165107142Y-108214285D01*
X165011904Y-108166666D01*
X164202380Y-108166666D01*
X165202380Y-107166666D02*
X165202380Y-107738095D01*
X165202380Y-107452380D02*
X164202380Y-107452380D01*
X164345238Y-107547619D01*
X164440476Y-107642857D01*
X164488095Y-107738095D01*
X164202380Y-106261904D02*
X164202380Y-106738095D01*
X164678571Y-106785714D01*
X164630952Y-106738095D01*
X164583333Y-106642857D01*
X164583333Y-106404761D01*
X164630952Y-106309523D01*
X164678571Y-106261904D01*
X164773809Y-106214285D01*
X165011904Y-106214285D01*
X165107142Y-106261904D01*
X165154761Y-106309523D01*
X165202380Y-106404761D01*
X165202380Y-106642857D01*
X165154761Y-106738095D01*
X165107142Y-106785714D01*
G04 #@! TO.C,U16*
X197761904Y-87452380D02*
X197761904Y-88261904D01*
X197809523Y-88357142D01*
X197857142Y-88404761D01*
X197952380Y-88452380D01*
X198142857Y-88452380D01*
X198238095Y-88404761D01*
X198285714Y-88357142D01*
X198333333Y-88261904D01*
X198333333Y-87452380D01*
X199333333Y-88452380D02*
X198761904Y-88452380D01*
X199047619Y-88452380D02*
X199047619Y-87452380D01*
X198952380Y-87595238D01*
X198857142Y-87690476D01*
X198761904Y-87738095D01*
X200190476Y-87452380D02*
X200000000Y-87452380D01*
X199904761Y-87500000D01*
X199857142Y-87547619D01*
X199761904Y-87690476D01*
X199714285Y-87880952D01*
X199714285Y-88261904D01*
X199761904Y-88357142D01*
X199809523Y-88404761D01*
X199904761Y-88452380D01*
X200095238Y-88452380D01*
X200190476Y-88404761D01*
X200238095Y-88357142D01*
X200285714Y-88261904D01*
X200285714Y-88023809D01*
X200238095Y-87928571D01*
X200190476Y-87880952D01*
X200095238Y-87833333D01*
X199904761Y-87833333D01*
X199809523Y-87880952D01*
X199761904Y-87928571D01*
X199714285Y-88023809D01*
G04 #@! TO.C,U18*
X180902380Y-91738095D02*
X181711904Y-91738095D01*
X181807142Y-91690476D01*
X181854761Y-91642857D01*
X181902380Y-91547619D01*
X181902380Y-91357142D01*
X181854761Y-91261904D01*
X181807142Y-91214285D01*
X181711904Y-91166666D01*
X180902380Y-91166666D01*
X181902380Y-90166666D02*
X181902380Y-90738095D01*
X181902380Y-90452380D02*
X180902380Y-90452380D01*
X181045238Y-90547619D01*
X181140476Y-90642857D01*
X181188095Y-90738095D01*
X181330952Y-89595238D02*
X181283333Y-89690476D01*
X181235714Y-89738095D01*
X181140476Y-89785714D01*
X181092857Y-89785714D01*
X180997619Y-89738095D01*
X180950000Y-89690476D01*
X180902380Y-89595238D01*
X180902380Y-89404761D01*
X180950000Y-89309523D01*
X180997619Y-89261904D01*
X181092857Y-89214285D01*
X181140476Y-89214285D01*
X181235714Y-89261904D01*
X181283333Y-89309523D01*
X181330952Y-89404761D01*
X181330952Y-89595238D01*
X181378571Y-89690476D01*
X181426190Y-89738095D01*
X181521428Y-89785714D01*
X181711904Y-89785714D01*
X181807142Y-89738095D01*
X181854761Y-89690476D01*
X181902380Y-89595238D01*
X181902380Y-89404761D01*
X181854761Y-89309523D01*
X181807142Y-89261904D01*
X181711904Y-89214285D01*
X181521428Y-89214285D01*
X181426190Y-89261904D01*
X181378571Y-89309523D01*
X181330952Y-89404761D01*
G04 #@! TO.C,U17*
X170052380Y-88638095D02*
X170861904Y-88638095D01*
X170957142Y-88590476D01*
X171004761Y-88542857D01*
X171052380Y-88447619D01*
X171052380Y-88257142D01*
X171004761Y-88161904D01*
X170957142Y-88114285D01*
X170861904Y-88066666D01*
X170052380Y-88066666D01*
X171052380Y-87066666D02*
X171052380Y-87638095D01*
X171052380Y-87352380D02*
X170052380Y-87352380D01*
X170195238Y-87447619D01*
X170290476Y-87542857D01*
X170338095Y-87638095D01*
X170052380Y-86733333D02*
X170052380Y-86066666D01*
X171052380Y-86495238D01*
G04 #@! TO.C,U19*
X166352380Y-91938095D02*
X167161904Y-91938095D01*
X167257142Y-91890476D01*
X167304761Y-91842857D01*
X167352380Y-91747619D01*
X167352380Y-91557142D01*
X167304761Y-91461904D01*
X167257142Y-91414285D01*
X167161904Y-91366666D01*
X166352380Y-91366666D01*
X167352380Y-90366666D02*
X167352380Y-90938095D01*
X167352380Y-90652380D02*
X166352380Y-90652380D01*
X166495238Y-90747619D01*
X166590476Y-90842857D01*
X166638095Y-90938095D01*
X167352380Y-89890476D02*
X167352380Y-89700000D01*
X167304761Y-89604761D01*
X167257142Y-89557142D01*
X167114285Y-89461904D01*
X166923809Y-89414285D01*
X166542857Y-89414285D01*
X166447619Y-89461904D01*
X166400000Y-89509523D01*
X166352380Y-89604761D01*
X166352380Y-89795238D01*
X166400000Y-89890476D01*
X166447619Y-89938095D01*
X166542857Y-89985714D01*
X166780952Y-89985714D01*
X166876190Y-89938095D01*
X166923809Y-89890476D01*
X166971428Y-89795238D01*
X166971428Y-89604761D01*
X166923809Y-89509523D01*
X166876190Y-89461904D01*
X166780952Y-89414285D01*
G04 #@! TO.C,U3*
X143952380Y-107761904D02*
X144761904Y-107761904D01*
X144857142Y-107714285D01*
X144904761Y-107666666D01*
X144952380Y-107571428D01*
X144952380Y-107380952D01*
X144904761Y-107285714D01*
X144857142Y-107238095D01*
X144761904Y-107190476D01*
X143952380Y-107190476D01*
X143952380Y-106809523D02*
X143952380Y-106190476D01*
X144333333Y-106523809D01*
X144333333Y-106380952D01*
X144380952Y-106285714D01*
X144428571Y-106238095D01*
X144523809Y-106190476D01*
X144761904Y-106190476D01*
X144857142Y-106238095D01*
X144904761Y-106285714D01*
X144952380Y-106380952D01*
X144952380Y-106666666D01*
X144904761Y-106761904D01*
X144857142Y-106809523D01*
G04 #@! TO.C,C2*
X122633333Y-115857142D02*
X122585714Y-115904761D01*
X122442857Y-115952380D01*
X122347619Y-115952380D01*
X122204761Y-115904761D01*
X122109523Y-115809523D01*
X122061904Y-115714285D01*
X122014285Y-115523809D01*
X122014285Y-115380952D01*
X122061904Y-115190476D01*
X122109523Y-115095238D01*
X122204761Y-115000000D01*
X122347619Y-114952380D01*
X122442857Y-114952380D01*
X122585714Y-115000000D01*
X122633333Y-115047619D01*
X123014285Y-115047619D02*
X123061904Y-115000000D01*
X123157142Y-114952380D01*
X123395238Y-114952380D01*
X123490476Y-115000000D01*
X123538095Y-115047619D01*
X123585714Y-115142857D01*
X123585714Y-115238095D01*
X123538095Y-115380952D01*
X122966666Y-115952380D01*
X123585714Y-115952380D01*
G04 #@! TO.C,C7*
X132633333Y-99957142D02*
X132585714Y-100004761D01*
X132442857Y-100052380D01*
X132347619Y-100052380D01*
X132204761Y-100004761D01*
X132109523Y-99909523D01*
X132061904Y-99814285D01*
X132014285Y-99623809D01*
X132014285Y-99480952D01*
X132061904Y-99290476D01*
X132109523Y-99195238D01*
X132204761Y-99100000D01*
X132347619Y-99052380D01*
X132442857Y-99052380D01*
X132585714Y-99100000D01*
X132633333Y-99147619D01*
X132966666Y-99052380D02*
X133633333Y-99052380D01*
X133204761Y-100052380D01*
G04 #@! TO.C,C6*
X122333333Y-99957142D02*
X122285714Y-100004761D01*
X122142857Y-100052380D01*
X122047619Y-100052380D01*
X121904761Y-100004761D01*
X121809523Y-99909523D01*
X121761904Y-99814285D01*
X121714285Y-99623809D01*
X121714285Y-99480952D01*
X121761904Y-99290476D01*
X121809523Y-99195238D01*
X121904761Y-99100000D01*
X122047619Y-99052380D01*
X122142857Y-99052380D01*
X122285714Y-99100000D01*
X122333333Y-99147619D01*
X123190476Y-99052380D02*
X123000000Y-99052380D01*
X122904761Y-99100000D01*
X122857142Y-99147619D01*
X122761904Y-99290476D01*
X122714285Y-99480952D01*
X122714285Y-99861904D01*
X122761904Y-99957142D01*
X122809523Y-100004761D01*
X122904761Y-100052380D01*
X123095238Y-100052380D01*
X123190476Y-100004761D01*
X123238095Y-99957142D01*
X123285714Y-99861904D01*
X123285714Y-99623809D01*
X123238095Y-99528571D01*
X123190476Y-99480952D01*
X123095238Y-99433333D01*
X122904761Y-99433333D01*
X122809523Y-99480952D01*
X122761904Y-99528571D01*
X122714285Y-99623809D01*
G04 #@! TO.C,U4*
X119952380Y-110761904D02*
X120761904Y-110761904D01*
X120857142Y-110714285D01*
X120904761Y-110666666D01*
X120952380Y-110571428D01*
X120952380Y-110380952D01*
X120904761Y-110285714D01*
X120857142Y-110238095D01*
X120761904Y-110190476D01*
X119952380Y-110190476D01*
X120285714Y-109285714D02*
X120952380Y-109285714D01*
X119904761Y-109523809D02*
X120619047Y-109761904D01*
X120619047Y-109142857D01*
G04 #@! TO.C,C1*
X132733333Y-115857142D02*
X132685714Y-115904761D01*
X132542857Y-115952380D01*
X132447619Y-115952380D01*
X132304761Y-115904761D01*
X132209523Y-115809523D01*
X132161904Y-115714285D01*
X132114285Y-115523809D01*
X132114285Y-115380952D01*
X132161904Y-115190476D01*
X132209523Y-115095238D01*
X132304761Y-115000000D01*
X132447619Y-114952380D01*
X132542857Y-114952380D01*
X132685714Y-115000000D01*
X132733333Y-115047619D01*
X133685714Y-115952380D02*
X133114285Y-115952380D01*
X133400000Y-115952380D02*
X133400000Y-114952380D01*
X133304761Y-115095238D01*
X133209523Y-115190476D01*
X133114285Y-115238095D01*
G04 #@! TO.C,U20*
X167230908Y-77446031D02*
X168040432Y-77446031D01*
X168135670Y-77398412D01*
X168183289Y-77350793D01*
X168230908Y-77255555D01*
X168230908Y-77065078D01*
X168183289Y-76969840D01*
X168135670Y-76922221D01*
X168040432Y-76874602D01*
X167230908Y-76874602D01*
X167326147Y-76446031D02*
X167278528Y-76398412D01*
X167230908Y-76303174D01*
X167230908Y-76065078D01*
X167278528Y-75969840D01*
X167326147Y-75922221D01*
X167421385Y-75874602D01*
X167516623Y-75874602D01*
X167659480Y-75922221D01*
X168230908Y-76493650D01*
X168230908Y-75874602D01*
X167230908Y-75255555D02*
X167230908Y-75160316D01*
X167278528Y-75065078D01*
X167326147Y-75017459D01*
X167421385Y-74969840D01*
X167611861Y-74922221D01*
X167849956Y-74922221D01*
X168040432Y-74969840D01*
X168135670Y-75017459D01*
X168183289Y-75065078D01*
X168230908Y-75160316D01*
X168230908Y-75255555D01*
X168183289Y-75350793D01*
X168135670Y-75398412D01*
X168040432Y-75446031D01*
X167849956Y-75493650D01*
X167611861Y-75493650D01*
X167421385Y-75446031D01*
X167326147Y-75398412D01*
X167278528Y-75350793D01*
X167230908Y-75255555D01*
G04 #@! TO.C,C13*
X124257142Y-86257142D02*
X124209523Y-86304761D01*
X124066666Y-86352380D01*
X123971428Y-86352380D01*
X123828571Y-86304761D01*
X123733333Y-86209523D01*
X123685714Y-86114285D01*
X123638095Y-85923809D01*
X123638095Y-85780952D01*
X123685714Y-85590476D01*
X123733333Y-85495238D01*
X123828571Y-85400000D01*
X123971428Y-85352380D01*
X124066666Y-85352380D01*
X124209523Y-85400000D01*
X124257142Y-85447619D01*
X125209523Y-86352380D02*
X124638095Y-86352380D01*
X124923809Y-86352380D02*
X124923809Y-85352380D01*
X124828571Y-85495238D01*
X124733333Y-85590476D01*
X124638095Y-85638095D01*
X125542857Y-85352380D02*
X126161904Y-85352380D01*
X125828571Y-85733333D01*
X125971428Y-85733333D01*
X126066666Y-85780952D01*
X126114285Y-85828571D01*
X126161904Y-85923809D01*
X126161904Y-86161904D01*
X126114285Y-86257142D01*
X126066666Y-86304761D01*
X125971428Y-86352380D01*
X125685714Y-86352380D01*
X125590476Y-86304761D01*
X125542857Y-86257142D01*
G04 #@! TO.C,J1*
X171266666Y-135252380D02*
X171266666Y-135966666D01*
X171219047Y-136109523D01*
X171123809Y-136204761D01*
X170980952Y-136252380D01*
X170885714Y-136252380D01*
X172266666Y-136252380D02*
X171695238Y-136252380D01*
X171980952Y-136252380D02*
X171980952Y-135252380D01*
X171885714Y-135395238D01*
X171790476Y-135490476D01*
X171695238Y-135538095D01*
G04 #@! TO.C,U6*
X125252380Y-89161904D02*
X126061904Y-89161904D01*
X126157142Y-89114285D01*
X126204761Y-89066666D01*
X126252380Y-88971428D01*
X126252380Y-88780952D01*
X126204761Y-88685714D01*
X126157142Y-88638095D01*
X126061904Y-88590476D01*
X125252380Y-88590476D01*
X125252380Y-87685714D02*
X125252380Y-87876190D01*
X125300000Y-87971428D01*
X125347619Y-88019047D01*
X125490476Y-88114285D01*
X125680952Y-88161904D01*
X126061904Y-88161904D01*
X126157142Y-88114285D01*
X126204761Y-88066666D01*
X126252380Y-87971428D01*
X126252380Y-87780952D01*
X126204761Y-87685714D01*
X126157142Y-87638095D01*
X126061904Y-87590476D01*
X125823809Y-87590476D01*
X125728571Y-87638095D01*
X125680952Y-87685714D01*
X125633333Y-87780952D01*
X125633333Y-87971428D01*
X125680952Y-88066666D01*
X125728571Y-88114285D01*
X125823809Y-88161904D01*
G04 #@! TO.C,U1*
X84592380Y-100161904D02*
X85401904Y-100161904D01*
X85497142Y-100114285D01*
X85544761Y-100066666D01*
X85592380Y-99971428D01*
X85592380Y-99780952D01*
X85544761Y-99685714D01*
X85497142Y-99638095D01*
X85401904Y-99590476D01*
X84592380Y-99590476D01*
X85592380Y-98590476D02*
X85592380Y-99161904D01*
X85592380Y-98876190D02*
X84592380Y-98876190D01*
X84735238Y-98971428D01*
X84830476Y-99066666D01*
X84878095Y-99161904D01*
G04 #@! TO.C,J9*
X195366666Y-59752380D02*
X195366666Y-60466666D01*
X195319047Y-60609523D01*
X195223809Y-60704761D01*
X195080952Y-60752380D01*
X194985714Y-60752380D01*
X195890476Y-60752380D02*
X196080952Y-60752380D01*
X196176190Y-60704761D01*
X196223809Y-60657142D01*
X196319047Y-60514285D01*
X196366666Y-60323809D01*
X196366666Y-59942857D01*
X196319047Y-59847619D01*
X196271428Y-59800000D01*
X196176190Y-59752380D01*
X195985714Y-59752380D01*
X195890476Y-59800000D01*
X195842857Y-59847619D01*
X195795238Y-59942857D01*
X195795238Y-60180952D01*
X195842857Y-60276190D01*
X195890476Y-60323809D01*
X195985714Y-60371428D01*
X196176190Y-60371428D01*
X196271428Y-60323809D01*
X196319047Y-60276190D01*
X196366666Y-60180952D01*
G04 #@! TO.C,J3*
X114666666Y-59352380D02*
X114666666Y-60066666D01*
X114619047Y-60209523D01*
X114523809Y-60304761D01*
X114380952Y-60352380D01*
X114285714Y-60352380D01*
X115047619Y-59352380D02*
X115666666Y-59352380D01*
X115333333Y-59733333D01*
X115476190Y-59733333D01*
X115571428Y-59780952D01*
X115619047Y-59828571D01*
X115666666Y-59923809D01*
X115666666Y-60161904D01*
X115619047Y-60257142D01*
X115571428Y-60304761D01*
X115476190Y-60352380D01*
X115190476Y-60352380D01*
X115095238Y-60304761D01*
X115047619Y-60257142D01*
G04 #@! TO.C,J7*
X154166666Y-59552380D02*
X154166666Y-60266666D01*
X154119047Y-60409523D01*
X154023809Y-60504761D01*
X153880952Y-60552380D01*
X153785714Y-60552380D01*
X154547619Y-59552380D02*
X155214285Y-59552380D01*
X154785714Y-60552380D01*
G04 #@! TO.C,J2*
X91866666Y-59352380D02*
X91866666Y-60066666D01*
X91819047Y-60209523D01*
X91723809Y-60304761D01*
X91580952Y-60352380D01*
X91485714Y-60352380D01*
X92295238Y-59447619D02*
X92342857Y-59400000D01*
X92438095Y-59352380D01*
X92676190Y-59352380D01*
X92771428Y-59400000D01*
X92819047Y-59447619D01*
X92866666Y-59542857D01*
X92866666Y-59638095D01*
X92819047Y-59780952D01*
X92247619Y-60352380D01*
X92866666Y-60352380D01*
G04 #@! TO.C,C10*
X139157142Y-97042857D02*
X139204761Y-97090476D01*
X139252380Y-97233333D01*
X139252380Y-97328571D01*
X139204761Y-97471428D01*
X139109523Y-97566666D01*
X139014285Y-97614285D01*
X138823809Y-97661904D01*
X138680952Y-97661904D01*
X138490476Y-97614285D01*
X138395238Y-97566666D01*
X138300000Y-97471428D01*
X138252380Y-97328571D01*
X138252380Y-97233333D01*
X138300000Y-97090476D01*
X138347619Y-97042857D01*
X139252380Y-96090476D02*
X139252380Y-96661904D01*
X139252380Y-96376190D02*
X138252380Y-96376190D01*
X138395238Y-96471428D01*
X138490476Y-96566666D01*
X138538095Y-96661904D01*
X138252380Y-95471428D02*
X138252380Y-95376190D01*
X138300000Y-95280952D01*
X138347619Y-95233333D01*
X138442857Y-95185714D01*
X138633333Y-95138095D01*
X138871428Y-95138095D01*
X139061904Y-95185714D01*
X139157142Y-95233333D01*
X139204761Y-95280952D01*
X139252380Y-95376190D01*
X139252380Y-95471428D01*
X139204761Y-95566666D01*
X139157142Y-95614285D01*
X139061904Y-95661904D01*
X138871428Y-95709523D01*
X138633333Y-95709523D01*
X138442857Y-95661904D01*
X138347619Y-95614285D01*
X138300000Y-95566666D01*
X138252380Y-95471428D01*
G04 #@! TO.C,C43*
X169122114Y-70317206D02*
X169074495Y-70364825D01*
X168931638Y-70412444D01*
X168836400Y-70412444D01*
X168693543Y-70364825D01*
X168598305Y-70269587D01*
X168550686Y-70174349D01*
X168503067Y-69983873D01*
X168503067Y-69841016D01*
X168550686Y-69650540D01*
X168598305Y-69555302D01*
X168693543Y-69460064D01*
X168836400Y-69412444D01*
X168931638Y-69412444D01*
X169074495Y-69460064D01*
X169122114Y-69507683D01*
X169979257Y-69745778D02*
X169979257Y-70412444D01*
X169741162Y-69364825D02*
X169503067Y-70079111D01*
X170122114Y-70079111D01*
X170407829Y-69412444D02*
X171026876Y-69412444D01*
X170693543Y-69793397D01*
X170836400Y-69793397D01*
X170931638Y-69841016D01*
X170979257Y-69888635D01*
X171026876Y-69983873D01*
X171026876Y-70221968D01*
X170979257Y-70317206D01*
X170931638Y-70364825D01*
X170836400Y-70412444D01*
X170550686Y-70412444D01*
X170455448Y-70364825D01*
X170407829Y-70317206D01*
G04 #@! TO.C,C44*
X173457142Y-82857142D02*
X173409523Y-82904761D01*
X173266666Y-82952380D01*
X173171428Y-82952380D01*
X173028571Y-82904761D01*
X172933333Y-82809523D01*
X172885714Y-82714285D01*
X172838095Y-82523809D01*
X172838095Y-82380952D01*
X172885714Y-82190476D01*
X172933333Y-82095238D01*
X173028571Y-82000000D01*
X173171428Y-81952380D01*
X173266666Y-81952380D01*
X173409523Y-82000000D01*
X173457142Y-82047619D01*
X174314285Y-82285714D02*
X174314285Y-82952380D01*
X174076190Y-81904761D02*
X173838095Y-82619047D01*
X174457142Y-82619047D01*
X175266666Y-82285714D02*
X175266666Y-82952380D01*
X175028571Y-81904761D02*
X174790476Y-82619047D01*
X175409523Y-82619047D01*
G04 #@! TO.C,C18*
X124557142Y-71127142D02*
X124509523Y-71174761D01*
X124366666Y-71222380D01*
X124271428Y-71222380D01*
X124128571Y-71174761D01*
X124033333Y-71079523D01*
X123985714Y-70984285D01*
X123938095Y-70793809D01*
X123938095Y-70650952D01*
X123985714Y-70460476D01*
X124033333Y-70365238D01*
X124128571Y-70270000D01*
X124271428Y-70222380D01*
X124366666Y-70222380D01*
X124509523Y-70270000D01*
X124557142Y-70317619D01*
X125509523Y-71222380D02*
X124938095Y-71222380D01*
X125223809Y-71222380D02*
X125223809Y-70222380D01*
X125128571Y-70365238D01*
X125033333Y-70460476D01*
X124938095Y-70508095D01*
X126080952Y-70650952D02*
X125985714Y-70603333D01*
X125938095Y-70555714D01*
X125890476Y-70460476D01*
X125890476Y-70412857D01*
X125938095Y-70317619D01*
X125985714Y-70270000D01*
X126080952Y-70222380D01*
X126271428Y-70222380D01*
X126366666Y-70270000D01*
X126414285Y-70317619D01*
X126461904Y-70412857D01*
X126461904Y-70460476D01*
X126414285Y-70555714D01*
X126366666Y-70603333D01*
X126271428Y-70650952D01*
X126080952Y-70650952D01*
X125985714Y-70698571D01*
X125938095Y-70746190D01*
X125890476Y-70841428D01*
X125890476Y-71031904D01*
X125938095Y-71127142D01*
X125985714Y-71174761D01*
X126080952Y-71222380D01*
X126271428Y-71222380D01*
X126366666Y-71174761D01*
X126414285Y-71127142D01*
X126461904Y-71031904D01*
X126461904Y-70841428D01*
X126414285Y-70746190D01*
X126366666Y-70698571D01*
X126271428Y-70650952D01*
G04 #@! TO.C,C20*
X128757142Y-83457142D02*
X128709523Y-83504761D01*
X128566666Y-83552380D01*
X128471428Y-83552380D01*
X128328571Y-83504761D01*
X128233333Y-83409523D01*
X128185714Y-83314285D01*
X128138095Y-83123809D01*
X128138095Y-82980952D01*
X128185714Y-82790476D01*
X128233333Y-82695238D01*
X128328571Y-82600000D01*
X128471428Y-82552380D01*
X128566666Y-82552380D01*
X128709523Y-82600000D01*
X128757142Y-82647619D01*
X129138095Y-82647619D02*
X129185714Y-82600000D01*
X129280952Y-82552380D01*
X129519047Y-82552380D01*
X129614285Y-82600000D01*
X129661904Y-82647619D01*
X129709523Y-82742857D01*
X129709523Y-82838095D01*
X129661904Y-82980952D01*
X129090476Y-83552380D01*
X129709523Y-83552380D01*
X130328571Y-82552380D02*
X130423809Y-82552380D01*
X130519047Y-82600000D01*
X130566666Y-82647619D01*
X130614285Y-82742857D01*
X130661904Y-82933333D01*
X130661904Y-83171428D01*
X130614285Y-83361904D01*
X130566666Y-83457142D01*
X130519047Y-83504761D01*
X130423809Y-83552380D01*
X130328571Y-83552380D01*
X130233333Y-83504761D01*
X130185714Y-83457142D01*
X130138095Y-83361904D01*
X130090476Y-83171428D01*
X130090476Y-82933333D01*
X130138095Y-82742857D01*
X130185714Y-82647619D01*
X130233333Y-82600000D01*
X130328571Y-82552380D01*
G04 #@! TO.C,U9*
X122952380Y-75261904D02*
X123761904Y-75261904D01*
X123857142Y-75214285D01*
X123904761Y-75166666D01*
X123952380Y-75071428D01*
X123952380Y-74880952D01*
X123904761Y-74785714D01*
X123857142Y-74738095D01*
X123761904Y-74690476D01*
X122952380Y-74690476D01*
X123952380Y-74166666D02*
X123952380Y-73976190D01*
X123904761Y-73880952D01*
X123857142Y-73833333D01*
X123714285Y-73738095D01*
X123523809Y-73690476D01*
X123142857Y-73690476D01*
X123047619Y-73738095D01*
X123000000Y-73785714D01*
X122952380Y-73880952D01*
X122952380Y-74071428D01*
X123000000Y-74166666D01*
X123047619Y-74214285D01*
X123142857Y-74261904D01*
X123380952Y-74261904D01*
X123476190Y-74214285D01*
X123523809Y-74166666D01*
X123571428Y-74071428D01*
X123571428Y-73880952D01*
X123523809Y-73785714D01*
X123476190Y-73738095D01*
X123380952Y-73690476D01*
G04 #@! TO.C,R1*
X122633333Y-82152380D02*
X122300000Y-81676190D01*
X122061904Y-82152380D02*
X122061904Y-81152380D01*
X122442857Y-81152380D01*
X122538095Y-81200000D01*
X122585714Y-81247619D01*
X122633333Y-81342857D01*
X122633333Y-81485714D01*
X122585714Y-81580952D01*
X122538095Y-81628571D01*
X122442857Y-81676190D01*
X122061904Y-81676190D01*
X123585714Y-82152380D02*
X123014285Y-82152380D01*
X123300000Y-82152380D02*
X123300000Y-81152380D01*
X123204761Y-81295238D01*
X123109523Y-81390476D01*
X123014285Y-81438095D01*
G04 #@! TO.C,R8*
X167233333Y-81552380D02*
X166900000Y-81076190D01*
X166661904Y-81552380D02*
X166661904Y-80552380D01*
X167042857Y-80552380D01*
X167138095Y-80600000D01*
X167185714Y-80647619D01*
X167233333Y-80742857D01*
X167233333Y-80885714D01*
X167185714Y-80980952D01*
X167138095Y-81028571D01*
X167042857Y-81076190D01*
X166661904Y-81076190D01*
X167804761Y-80980952D02*
X167709523Y-80933333D01*
X167661904Y-80885714D01*
X167614285Y-80790476D01*
X167614285Y-80742857D01*
X167661904Y-80647619D01*
X167709523Y-80600000D01*
X167804761Y-80552380D01*
X167995238Y-80552380D01*
X168090476Y-80600000D01*
X168138095Y-80647619D01*
X168185714Y-80742857D01*
X168185714Y-80790476D01*
X168138095Y-80885714D01*
X168090476Y-80933333D01*
X167995238Y-80980952D01*
X167804761Y-80980952D01*
X167709523Y-81028571D01*
X167661904Y-81076190D01*
X167614285Y-81171428D01*
X167614285Y-81361904D01*
X167661904Y-81457142D01*
X167709523Y-81504761D01*
X167804761Y-81552380D01*
X167995238Y-81552380D01*
X168090476Y-81504761D01*
X168138095Y-81457142D01*
X168185714Y-81361904D01*
X168185714Y-81171428D01*
X168138095Y-81076190D01*
X168090476Y-81028571D01*
X167995238Y-80980952D01*
G04 #@! TO.C,R3*
X121731550Y-77166666D02*
X121255360Y-77500000D01*
X121731550Y-77738095D02*
X120731550Y-77738095D01*
X120731550Y-77357142D01*
X120779170Y-77261904D01*
X120826789Y-77214285D01*
X120922027Y-77166666D01*
X121064884Y-77166666D01*
X121160122Y-77214285D01*
X121207741Y-77261904D01*
X121255360Y-77357142D01*
X121255360Y-77738095D01*
X120731550Y-76833333D02*
X120731550Y-76214285D01*
X121112503Y-76547619D01*
X121112503Y-76404761D01*
X121160122Y-76309523D01*
X121207741Y-76261904D01*
X121302979Y-76214285D01*
X121541074Y-76214285D01*
X121636312Y-76261904D01*
X121683931Y-76309523D01*
X121731550Y-76404761D01*
X121731550Y-76690476D01*
X121683931Y-76785714D01*
X121636312Y-76833333D01*
G04 #@! TO.C,R10*
X165973852Y-76572921D02*
X165497662Y-76906254D01*
X165973852Y-77144349D02*
X164973852Y-77144349D01*
X164973852Y-76763397D01*
X165021472Y-76668159D01*
X165069091Y-76620540D01*
X165164329Y-76572921D01*
X165307186Y-76572921D01*
X165402424Y-76620540D01*
X165450043Y-76668159D01*
X165497662Y-76763397D01*
X165497662Y-77144349D01*
X165973852Y-75620540D02*
X165973852Y-76191968D01*
X165973852Y-75906254D02*
X164973852Y-75906254D01*
X165116710Y-76001492D01*
X165211948Y-76096730D01*
X165259567Y-76191968D01*
X164973852Y-75001492D02*
X164973852Y-74906254D01*
X165021472Y-74811016D01*
X165069091Y-74763397D01*
X165164329Y-74715778D01*
X165354805Y-74668159D01*
X165592900Y-74668159D01*
X165783376Y-74715778D01*
X165878614Y-74763397D01*
X165926233Y-74811016D01*
X165973852Y-74906254D01*
X165973852Y-75001492D01*
X165926233Y-75096730D01*
X165878614Y-75144349D01*
X165783376Y-75191968D01*
X165592900Y-75239587D01*
X165354805Y-75239587D01*
X165164329Y-75191968D01*
X165069091Y-75144349D01*
X165021472Y-75096730D01*
X164973852Y-75001492D01*
G04 #@! TO.C,R13*
X184957142Y-71752380D02*
X184623809Y-71276190D01*
X184385714Y-71752380D02*
X184385714Y-70752380D01*
X184766666Y-70752380D01*
X184861904Y-70800000D01*
X184909523Y-70847619D01*
X184957142Y-70942857D01*
X184957142Y-71085714D01*
X184909523Y-71180952D01*
X184861904Y-71228571D01*
X184766666Y-71276190D01*
X184385714Y-71276190D01*
X185909523Y-71752380D02*
X185338095Y-71752380D01*
X185623809Y-71752380D02*
X185623809Y-70752380D01*
X185528571Y-70895238D01*
X185433333Y-70990476D01*
X185338095Y-71038095D01*
X186242857Y-70752380D02*
X186861904Y-70752380D01*
X186528571Y-71133333D01*
X186671428Y-71133333D01*
X186766666Y-71180952D01*
X186814285Y-71228571D01*
X186861904Y-71323809D01*
X186861904Y-71561904D01*
X186814285Y-71657142D01*
X186766666Y-71704761D01*
X186671428Y-71752380D01*
X186385714Y-71752380D01*
X186290476Y-71704761D01*
X186242857Y-71657142D01*
G04 #@! TO.C,U7*
X135959550Y-91081210D02*
X136769074Y-91081210D01*
X136864312Y-91033591D01*
X136911931Y-90985972D01*
X136959550Y-90890734D01*
X136959550Y-90700258D01*
X136911931Y-90605020D01*
X136864312Y-90557401D01*
X136769074Y-90509782D01*
X135959550Y-90509782D01*
X135959550Y-90128829D02*
X135959550Y-89462163D01*
X136959550Y-89890734D01*
G04 #@! TO.C,C8*
X149157142Y-85266666D02*
X149204761Y-85314285D01*
X149252380Y-85457142D01*
X149252380Y-85552380D01*
X149204761Y-85695238D01*
X149109523Y-85790476D01*
X149014285Y-85838095D01*
X148823809Y-85885714D01*
X148680952Y-85885714D01*
X148490476Y-85838095D01*
X148395238Y-85790476D01*
X148300000Y-85695238D01*
X148252380Y-85552380D01*
X148252380Y-85457142D01*
X148300000Y-85314285D01*
X148347619Y-85266666D01*
X148680952Y-84695238D02*
X148633333Y-84790476D01*
X148585714Y-84838095D01*
X148490476Y-84885714D01*
X148442857Y-84885714D01*
X148347619Y-84838095D01*
X148300000Y-84790476D01*
X148252380Y-84695238D01*
X148252380Y-84504761D01*
X148300000Y-84409523D01*
X148347619Y-84361904D01*
X148442857Y-84314285D01*
X148490476Y-84314285D01*
X148585714Y-84361904D01*
X148633333Y-84409523D01*
X148680952Y-84504761D01*
X148680952Y-84695238D01*
X148728571Y-84790476D01*
X148776190Y-84838095D01*
X148871428Y-84885714D01*
X149061904Y-84885714D01*
X149157142Y-84838095D01*
X149204761Y-84790476D01*
X149252380Y-84695238D01*
X149252380Y-84504761D01*
X149204761Y-84409523D01*
X149157142Y-84361904D01*
X149061904Y-84314285D01*
X148871428Y-84314285D01*
X148776190Y-84361904D01*
X148728571Y-84409523D01*
X148680952Y-84504761D01*
G04 #@! TO.C,C12*
X159557142Y-84957142D02*
X159509523Y-85004761D01*
X159366666Y-85052380D01*
X159271428Y-85052380D01*
X159128571Y-85004761D01*
X159033333Y-84909523D01*
X158985714Y-84814285D01*
X158938095Y-84623809D01*
X158938095Y-84480952D01*
X158985714Y-84290476D01*
X159033333Y-84195238D01*
X159128571Y-84100000D01*
X159271428Y-84052380D01*
X159366666Y-84052380D01*
X159509523Y-84100000D01*
X159557142Y-84147619D01*
X160509523Y-85052380D02*
X159938095Y-85052380D01*
X160223809Y-85052380D02*
X160223809Y-84052380D01*
X160128571Y-84195238D01*
X160033333Y-84290476D01*
X159938095Y-84338095D01*
X160890476Y-84147619D02*
X160938095Y-84100000D01*
X161033333Y-84052380D01*
X161271428Y-84052380D01*
X161366666Y-84100000D01*
X161414285Y-84147619D01*
X161461904Y-84242857D01*
X161461904Y-84338095D01*
X161414285Y-84480952D01*
X160842857Y-85052380D01*
X161461904Y-85052380D01*
G04 #@! TO.C,C15*
X130657142Y-85842857D02*
X130704761Y-85890476D01*
X130752380Y-86033333D01*
X130752380Y-86128571D01*
X130704761Y-86271428D01*
X130609523Y-86366666D01*
X130514285Y-86414285D01*
X130323809Y-86461904D01*
X130180952Y-86461904D01*
X129990476Y-86414285D01*
X129895238Y-86366666D01*
X129800000Y-86271428D01*
X129752380Y-86128571D01*
X129752380Y-86033333D01*
X129800000Y-85890476D01*
X129847619Y-85842857D01*
X130752380Y-84890476D02*
X130752380Y-85461904D01*
X130752380Y-85176190D02*
X129752380Y-85176190D01*
X129895238Y-85271428D01*
X129990476Y-85366666D01*
X130038095Y-85461904D01*
X129752380Y-83985714D02*
X129752380Y-84461904D01*
X130228571Y-84509523D01*
X130180952Y-84461904D01*
X130133333Y-84366666D01*
X130133333Y-84128571D01*
X130180952Y-84033333D01*
X130228571Y-83985714D01*
X130323809Y-83938095D01*
X130561904Y-83938095D01*
X130657142Y-83985714D01*
X130704761Y-84033333D01*
X130752380Y-84128571D01*
X130752380Y-84366666D01*
X130704761Y-84461904D01*
X130657142Y-84509523D01*
G04 #@! TO.C,C9*
X143507142Y-96416666D02*
X143554761Y-96464285D01*
X143602380Y-96607142D01*
X143602380Y-96702380D01*
X143554761Y-96845238D01*
X143459523Y-96940476D01*
X143364285Y-96988095D01*
X143173809Y-97035714D01*
X143030952Y-97035714D01*
X142840476Y-96988095D01*
X142745238Y-96940476D01*
X142650000Y-96845238D01*
X142602380Y-96702380D01*
X142602380Y-96607142D01*
X142650000Y-96464285D01*
X142697619Y-96416666D01*
X143602380Y-95940476D02*
X143602380Y-95750000D01*
X143554761Y-95654761D01*
X143507142Y-95607142D01*
X143364285Y-95511904D01*
X143173809Y-95464285D01*
X142792857Y-95464285D01*
X142697619Y-95511904D01*
X142650000Y-95559523D01*
X142602380Y-95654761D01*
X142602380Y-95845238D01*
X142650000Y-95940476D01*
X142697619Y-95988095D01*
X142792857Y-96035714D01*
X143030952Y-96035714D01*
X143126190Y-95988095D01*
X143173809Y-95940476D01*
X143221428Y-95845238D01*
X143221428Y-95654761D01*
X143173809Y-95559523D01*
X143126190Y-95511904D01*
X143030952Y-95464285D01*
G04 #@! TO.C,C14*
X135757142Y-85842857D02*
X135804761Y-85890476D01*
X135852380Y-86033333D01*
X135852380Y-86128571D01*
X135804761Y-86271428D01*
X135709523Y-86366666D01*
X135614285Y-86414285D01*
X135423809Y-86461904D01*
X135280952Y-86461904D01*
X135090476Y-86414285D01*
X134995238Y-86366666D01*
X134900000Y-86271428D01*
X134852380Y-86128571D01*
X134852380Y-86033333D01*
X134900000Y-85890476D01*
X134947619Y-85842857D01*
X135852380Y-84890476D02*
X135852380Y-85461904D01*
X135852380Y-85176190D02*
X134852380Y-85176190D01*
X134995238Y-85271428D01*
X135090476Y-85366666D01*
X135138095Y-85461904D01*
X135185714Y-84033333D02*
X135852380Y-84033333D01*
X134804761Y-84271428D02*
X135519047Y-84509523D01*
X135519047Y-83890476D01*
G04 #@! TO.C,C16*
X143157142Y-85232027D02*
X143204761Y-85279646D01*
X143252380Y-85422503D01*
X143252380Y-85517741D01*
X143204761Y-85660598D01*
X143109523Y-85755836D01*
X143014285Y-85803455D01*
X142823809Y-85851074D01*
X142680952Y-85851074D01*
X142490476Y-85803455D01*
X142395238Y-85755836D01*
X142300000Y-85660598D01*
X142252380Y-85517741D01*
X142252380Y-85422503D01*
X142300000Y-85279646D01*
X142347619Y-85232027D01*
X143252380Y-84279646D02*
X143252380Y-84851074D01*
X143252380Y-84565360D02*
X142252380Y-84565360D01*
X142395238Y-84660598D01*
X142490476Y-84755836D01*
X142538095Y-84851074D01*
X142252380Y-83422503D02*
X142252380Y-83612979D01*
X142300000Y-83708217D01*
X142347619Y-83755836D01*
X142490476Y-83851074D01*
X142680952Y-83898693D01*
X143061904Y-83898693D01*
X143157142Y-83851074D01*
X143204761Y-83803455D01*
X143252380Y-83708217D01*
X143252380Y-83517741D01*
X143204761Y-83422503D01*
X143157142Y-83374884D01*
X143061904Y-83327265D01*
X142823809Y-83327265D01*
X142728571Y-83374884D01*
X142680952Y-83422503D01*
X142633333Y-83517741D01*
X142633333Y-83708217D01*
X142680952Y-83803455D01*
X142728571Y-83851074D01*
X142823809Y-83898693D01*
G04 #@! TO.C,C17*
X139057142Y-85142857D02*
X139104761Y-85190476D01*
X139152380Y-85333333D01*
X139152380Y-85428571D01*
X139104761Y-85571428D01*
X139009523Y-85666666D01*
X138914285Y-85714285D01*
X138723809Y-85761904D01*
X138580952Y-85761904D01*
X138390476Y-85714285D01*
X138295238Y-85666666D01*
X138200000Y-85571428D01*
X138152380Y-85428571D01*
X138152380Y-85333333D01*
X138200000Y-85190476D01*
X138247619Y-85142857D01*
X139152380Y-84190476D02*
X139152380Y-84761904D01*
X139152380Y-84476190D02*
X138152380Y-84476190D01*
X138295238Y-84571428D01*
X138390476Y-84666666D01*
X138438095Y-84761904D01*
X138152380Y-83857142D02*
X138152380Y-83190476D01*
X139152380Y-83619047D01*
G04 #@! TO.C,C45*
X175980614Y-70451206D02*
X175932995Y-70498825D01*
X175790138Y-70546444D01*
X175694900Y-70546444D01*
X175552043Y-70498825D01*
X175456805Y-70403587D01*
X175409186Y-70308349D01*
X175361567Y-70117873D01*
X175361567Y-69975016D01*
X175409186Y-69784540D01*
X175456805Y-69689302D01*
X175552043Y-69594064D01*
X175694900Y-69546444D01*
X175790138Y-69546444D01*
X175932995Y-69594064D01*
X175980614Y-69641683D01*
X176837757Y-69879778D02*
X176837757Y-70546444D01*
X176599662Y-69498825D02*
X176361567Y-70213111D01*
X176980614Y-70213111D01*
X177837757Y-69546444D02*
X177361567Y-69546444D01*
X177313948Y-70022635D01*
X177361567Y-69975016D01*
X177456805Y-69927397D01*
X177694900Y-69927397D01*
X177790138Y-69975016D01*
X177837757Y-70022635D01*
X177885376Y-70117873D01*
X177885376Y-70355968D01*
X177837757Y-70451206D01*
X177790138Y-70498825D01*
X177694900Y-70546444D01*
X177456805Y-70546444D01*
X177361567Y-70498825D01*
X177313948Y-70451206D01*
G04 #@! TO.C,C46*
X182957142Y-83142857D02*
X183004761Y-83190476D01*
X183052380Y-83333333D01*
X183052380Y-83428571D01*
X183004761Y-83571428D01*
X182909523Y-83666666D01*
X182814285Y-83714285D01*
X182623809Y-83761904D01*
X182480952Y-83761904D01*
X182290476Y-83714285D01*
X182195238Y-83666666D01*
X182100000Y-83571428D01*
X182052380Y-83428571D01*
X182052380Y-83333333D01*
X182100000Y-83190476D01*
X182147619Y-83142857D01*
X182385714Y-82285714D02*
X183052380Y-82285714D01*
X182004761Y-82523809D02*
X182719047Y-82761904D01*
X182719047Y-82142857D01*
X182052380Y-81333333D02*
X182052380Y-81523809D01*
X182100000Y-81619047D01*
X182147619Y-81666666D01*
X182290476Y-81761904D01*
X182480952Y-81809523D01*
X182861904Y-81809523D01*
X182957142Y-81761904D01*
X183004761Y-81714285D01*
X183052380Y-81619047D01*
X183052380Y-81428571D01*
X183004761Y-81333333D01*
X182957142Y-81285714D01*
X182861904Y-81238095D01*
X182623809Y-81238095D01*
X182528571Y-81285714D01*
X182480952Y-81333333D01*
X182433333Y-81428571D01*
X182433333Y-81619047D01*
X182480952Y-81714285D01*
X182528571Y-81761904D01*
X182623809Y-81809523D01*
G04 #@! TO.C,C21*
X137157142Y-83742857D02*
X137204761Y-83790476D01*
X137252380Y-83933333D01*
X137252380Y-84028571D01*
X137204761Y-84171428D01*
X137109523Y-84266666D01*
X137014285Y-84314285D01*
X136823809Y-84361904D01*
X136680952Y-84361904D01*
X136490476Y-84314285D01*
X136395238Y-84266666D01*
X136300000Y-84171428D01*
X136252380Y-84028571D01*
X136252380Y-83933333D01*
X136300000Y-83790476D01*
X136347619Y-83742857D01*
X136347619Y-83361904D02*
X136300000Y-83314285D01*
X136252380Y-83219047D01*
X136252380Y-82980952D01*
X136300000Y-82885714D01*
X136347619Y-82838095D01*
X136442857Y-82790476D01*
X136538095Y-82790476D01*
X136680952Y-82838095D01*
X137252380Y-83409523D01*
X137252380Y-82790476D01*
X137252380Y-81838095D02*
X137252380Y-82409523D01*
X137252380Y-82123809D02*
X136252380Y-82123809D01*
X136395238Y-82219047D01*
X136490476Y-82314285D01*
X136538095Y-82409523D01*
G04 #@! TO.C,C19*
X130957142Y-71157142D02*
X130909523Y-71204761D01*
X130766666Y-71252380D01*
X130671428Y-71252380D01*
X130528571Y-71204761D01*
X130433333Y-71109523D01*
X130385714Y-71014285D01*
X130338095Y-70823809D01*
X130338095Y-70680952D01*
X130385714Y-70490476D01*
X130433333Y-70395238D01*
X130528571Y-70300000D01*
X130671428Y-70252380D01*
X130766666Y-70252380D01*
X130909523Y-70300000D01*
X130957142Y-70347619D01*
X131909523Y-71252380D02*
X131338095Y-71252380D01*
X131623809Y-71252380D02*
X131623809Y-70252380D01*
X131528571Y-70395238D01*
X131433333Y-70490476D01*
X131338095Y-70538095D01*
X132385714Y-71252380D02*
X132576190Y-71252380D01*
X132671428Y-71204761D01*
X132719047Y-71157142D01*
X132814285Y-71014285D01*
X132861904Y-70823809D01*
X132861904Y-70442857D01*
X132814285Y-70347619D01*
X132766666Y-70300000D01*
X132671428Y-70252380D01*
X132480952Y-70252380D01*
X132385714Y-70300000D01*
X132338095Y-70347619D01*
X132290476Y-70442857D01*
X132290476Y-70680952D01*
X132338095Y-70776190D01*
X132385714Y-70823809D01*
X132480952Y-70871428D01*
X132671428Y-70871428D01*
X132766666Y-70823809D01*
X132814285Y-70776190D01*
X132861904Y-70680952D01*
G04 #@! TO.C,C48*
X190557142Y-82657142D02*
X190509523Y-82704761D01*
X190366666Y-82752380D01*
X190271428Y-82752380D01*
X190128571Y-82704761D01*
X190033333Y-82609523D01*
X189985714Y-82514285D01*
X189938095Y-82323809D01*
X189938095Y-82180952D01*
X189985714Y-81990476D01*
X190033333Y-81895238D01*
X190128571Y-81800000D01*
X190271428Y-81752380D01*
X190366666Y-81752380D01*
X190509523Y-81800000D01*
X190557142Y-81847619D01*
X191414285Y-82085714D02*
X191414285Y-82752380D01*
X191176190Y-81704761D02*
X190938095Y-82419047D01*
X191557142Y-82419047D01*
X192080952Y-82180952D02*
X191985714Y-82133333D01*
X191938095Y-82085714D01*
X191890476Y-81990476D01*
X191890476Y-81942857D01*
X191938095Y-81847619D01*
X191985714Y-81800000D01*
X192080952Y-81752380D01*
X192271428Y-81752380D01*
X192366666Y-81800000D01*
X192414285Y-81847619D01*
X192461904Y-81942857D01*
X192461904Y-81990476D01*
X192414285Y-82085714D01*
X192366666Y-82133333D01*
X192271428Y-82180952D01*
X192080952Y-82180952D01*
X191985714Y-82228571D01*
X191938095Y-82276190D01*
X191890476Y-82371428D01*
X191890476Y-82561904D01*
X191938095Y-82657142D01*
X191985714Y-82704761D01*
X192080952Y-82752380D01*
X192271428Y-82752380D01*
X192366666Y-82704761D01*
X192414285Y-82657142D01*
X192461904Y-82561904D01*
X192461904Y-82371428D01*
X192414285Y-82276190D01*
X192366666Y-82228571D01*
X192271428Y-82180952D01*
G04 #@! TO.C,C49*
X184257142Y-83142857D02*
X184304761Y-83190476D01*
X184352380Y-83333333D01*
X184352380Y-83428571D01*
X184304761Y-83571428D01*
X184209523Y-83666666D01*
X184114285Y-83714285D01*
X183923809Y-83761904D01*
X183780952Y-83761904D01*
X183590476Y-83714285D01*
X183495238Y-83666666D01*
X183400000Y-83571428D01*
X183352380Y-83428571D01*
X183352380Y-83333333D01*
X183400000Y-83190476D01*
X183447619Y-83142857D01*
X183685714Y-82285714D02*
X184352380Y-82285714D01*
X183304761Y-82523809D02*
X184019047Y-82761904D01*
X184019047Y-82142857D01*
X184352380Y-81714285D02*
X184352380Y-81523809D01*
X184304761Y-81428571D01*
X184257142Y-81380952D01*
X184114285Y-81285714D01*
X183923809Y-81238095D01*
X183542857Y-81238095D01*
X183447619Y-81285714D01*
X183400000Y-81333333D01*
X183352380Y-81428571D01*
X183352380Y-81619047D01*
X183400000Y-81714285D01*
X183447619Y-81761904D01*
X183542857Y-81809523D01*
X183780952Y-81809523D01*
X183876190Y-81761904D01*
X183923809Y-81714285D01*
X183971428Y-81619047D01*
X183971428Y-81428571D01*
X183923809Y-81333333D01*
X183876190Y-81285714D01*
X183780952Y-81238095D01*
G04 #@! TO.C,C47*
X203910467Y-75691144D02*
X203862848Y-75738763D01*
X203719991Y-75786382D01*
X203624753Y-75786382D01*
X203481896Y-75738763D01*
X203386658Y-75643525D01*
X203339039Y-75548287D01*
X203291420Y-75357811D01*
X203291420Y-75214954D01*
X203339039Y-75024478D01*
X203386658Y-74929240D01*
X203481896Y-74834002D01*
X203624753Y-74786382D01*
X203719991Y-74786382D01*
X203862848Y-74834002D01*
X203910467Y-74881621D01*
X204767610Y-75119716D02*
X204767610Y-75786382D01*
X204529515Y-74738763D02*
X204291420Y-75453049D01*
X204910467Y-75453049D01*
X205196182Y-74786382D02*
X205862848Y-74786382D01*
X205434277Y-75786382D01*
G04 #@! TO.C,C50*
X193066467Y-78008859D02*
X193114086Y-78056478D01*
X193161705Y-78199335D01*
X193161705Y-78294573D01*
X193114086Y-78437430D01*
X193018848Y-78532668D01*
X192923610Y-78580287D01*
X192733134Y-78627906D01*
X192590277Y-78627906D01*
X192399801Y-78580287D01*
X192304563Y-78532668D01*
X192209325Y-78437430D01*
X192161705Y-78294573D01*
X192161705Y-78199335D01*
X192209325Y-78056478D01*
X192256944Y-78008859D01*
X192161705Y-77104097D02*
X192161705Y-77580287D01*
X192637896Y-77627906D01*
X192590277Y-77580287D01*
X192542658Y-77485049D01*
X192542658Y-77246954D01*
X192590277Y-77151716D01*
X192637896Y-77104097D01*
X192733134Y-77056478D01*
X192971229Y-77056478D01*
X193066467Y-77104097D01*
X193114086Y-77151716D01*
X193161705Y-77246954D01*
X193161705Y-77485049D01*
X193114086Y-77580287D01*
X193066467Y-77627906D01*
X192161705Y-76437430D02*
X192161705Y-76342192D01*
X192209325Y-76246954D01*
X192256944Y-76199335D01*
X192352182Y-76151716D01*
X192542658Y-76104097D01*
X192780753Y-76104097D01*
X192971229Y-76151716D01*
X193066467Y-76199335D01*
X193114086Y-76246954D01*
X193161705Y-76342192D01*
X193161705Y-76437430D01*
X193114086Y-76532668D01*
X193066467Y-76580287D01*
X192971229Y-76627906D01*
X192780753Y-76675525D01*
X192542658Y-76675525D01*
X192352182Y-76627906D01*
X192256944Y-76580287D01*
X192209325Y-76532668D01*
X192161705Y-76437430D01*
G04 #@! TO.C,C23*
X145584618Y-83242684D02*
X145536999Y-83290303D01*
X145394142Y-83337922D01*
X145298904Y-83337922D01*
X145156047Y-83290303D01*
X145060809Y-83195065D01*
X145013190Y-83099827D01*
X144965571Y-82909351D01*
X144965571Y-82766494D01*
X145013190Y-82576018D01*
X145060809Y-82480780D01*
X145156047Y-82385542D01*
X145298904Y-82337922D01*
X145394142Y-82337922D01*
X145536999Y-82385542D01*
X145584618Y-82433161D01*
X145965571Y-82433161D02*
X146013190Y-82385542D01*
X146108428Y-82337922D01*
X146346523Y-82337922D01*
X146441761Y-82385542D01*
X146489380Y-82433161D01*
X146536999Y-82528399D01*
X146536999Y-82623637D01*
X146489380Y-82766494D01*
X145917952Y-83337922D01*
X146536999Y-83337922D01*
X146870333Y-82337922D02*
X147489380Y-82337922D01*
X147156047Y-82718875D01*
X147298904Y-82718875D01*
X147394142Y-82766494D01*
X147441761Y-82814113D01*
X147489380Y-82909351D01*
X147489380Y-83147446D01*
X147441761Y-83242684D01*
X147394142Y-83290303D01*
X147298904Y-83337922D01*
X147013190Y-83337922D01*
X146917952Y-83290303D01*
X146870333Y-83242684D01*
G04 #@! TO.C,C24*
X138857142Y-80642857D02*
X138904761Y-80690476D01*
X138952380Y-80833333D01*
X138952380Y-80928571D01*
X138904761Y-81071428D01*
X138809523Y-81166666D01*
X138714285Y-81214285D01*
X138523809Y-81261904D01*
X138380952Y-81261904D01*
X138190476Y-81214285D01*
X138095238Y-81166666D01*
X138000000Y-81071428D01*
X137952380Y-80928571D01*
X137952380Y-80833333D01*
X138000000Y-80690476D01*
X138047619Y-80642857D01*
X138047619Y-80261904D02*
X138000000Y-80214285D01*
X137952380Y-80119047D01*
X137952380Y-79880952D01*
X138000000Y-79785714D01*
X138047619Y-79738095D01*
X138142857Y-79690476D01*
X138238095Y-79690476D01*
X138380952Y-79738095D01*
X138952380Y-80309523D01*
X138952380Y-79690476D01*
X138285714Y-78833333D02*
X138952380Y-78833333D01*
X137904761Y-79071428D02*
X138619047Y-79309523D01*
X138619047Y-78690476D01*
G04 #@! TO.C,C22*
X159657142Y-75657142D02*
X159609523Y-75704761D01*
X159466666Y-75752380D01*
X159371428Y-75752380D01*
X159228571Y-75704761D01*
X159133333Y-75609523D01*
X159085714Y-75514285D01*
X159038095Y-75323809D01*
X159038095Y-75180952D01*
X159085714Y-74990476D01*
X159133333Y-74895238D01*
X159228571Y-74800000D01*
X159371428Y-74752380D01*
X159466666Y-74752380D01*
X159609523Y-74800000D01*
X159657142Y-74847619D01*
X160038095Y-74847619D02*
X160085714Y-74800000D01*
X160180952Y-74752380D01*
X160419047Y-74752380D01*
X160514285Y-74800000D01*
X160561904Y-74847619D01*
X160609523Y-74942857D01*
X160609523Y-75038095D01*
X160561904Y-75180952D01*
X159990476Y-75752380D01*
X160609523Y-75752380D01*
X160990476Y-74847619D02*
X161038095Y-74800000D01*
X161133333Y-74752380D01*
X161371428Y-74752380D01*
X161466666Y-74800000D01*
X161514285Y-74847619D01*
X161561904Y-74942857D01*
X161561904Y-75038095D01*
X161514285Y-75180952D01*
X160942857Y-75752380D01*
X161561904Y-75752380D01*
G04 #@! TO.C,C25*
X149083727Y-78032326D02*
X149131346Y-78079945D01*
X149178965Y-78222802D01*
X149178965Y-78318040D01*
X149131346Y-78460897D01*
X149036108Y-78556135D01*
X148940870Y-78603754D01*
X148750394Y-78651373D01*
X148607537Y-78651373D01*
X148417061Y-78603754D01*
X148321823Y-78556135D01*
X148226585Y-78460897D01*
X148178965Y-78318040D01*
X148178965Y-78222802D01*
X148226585Y-78079945D01*
X148274204Y-78032326D01*
X148274204Y-77651373D02*
X148226585Y-77603754D01*
X148178965Y-77508516D01*
X148178965Y-77270421D01*
X148226585Y-77175183D01*
X148274204Y-77127564D01*
X148369442Y-77079945D01*
X148464680Y-77079945D01*
X148607537Y-77127564D01*
X149178965Y-77698992D01*
X149178965Y-77079945D01*
X148178965Y-76175183D02*
X148178965Y-76651373D01*
X148655156Y-76698992D01*
X148607537Y-76651373D01*
X148559918Y-76556135D01*
X148559918Y-76318040D01*
X148607537Y-76222802D01*
X148655156Y-76175183D01*
X148750394Y-76127564D01*
X148988489Y-76127564D01*
X149083727Y-76175183D01*
X149131346Y-76222802D01*
X149178965Y-76318040D01*
X149178965Y-76556135D01*
X149131346Y-76651373D01*
X149083727Y-76698992D01*
G04 #@! TO.C,R2*
X135133333Y-83052380D02*
X134800000Y-82576190D01*
X134561904Y-83052380D02*
X134561904Y-82052380D01*
X134942857Y-82052380D01*
X135038095Y-82100000D01*
X135085714Y-82147619D01*
X135133333Y-82242857D01*
X135133333Y-82385714D01*
X135085714Y-82480952D01*
X135038095Y-82528571D01*
X134942857Y-82576190D01*
X134561904Y-82576190D01*
X135514285Y-82147619D02*
X135561904Y-82100000D01*
X135657142Y-82052380D01*
X135895238Y-82052380D01*
X135990476Y-82100000D01*
X136038095Y-82147619D01*
X136085714Y-82242857D01*
X136085714Y-82338095D01*
X136038095Y-82480952D01*
X135466666Y-83052380D01*
X136085714Y-83052380D01*
G04 #@! TO.C,R9*
X180133333Y-82452380D02*
X179800000Y-81976190D01*
X179561904Y-82452380D02*
X179561904Y-81452380D01*
X179942857Y-81452380D01*
X180038095Y-81500000D01*
X180085714Y-81547619D01*
X180133333Y-81642857D01*
X180133333Y-81785714D01*
X180085714Y-81880952D01*
X180038095Y-81928571D01*
X179942857Y-81976190D01*
X179561904Y-81976190D01*
X180609523Y-82452380D02*
X180800000Y-82452380D01*
X180895238Y-82404761D01*
X180942857Y-82357142D01*
X181038095Y-82214285D01*
X181085714Y-82023809D01*
X181085714Y-81642857D01*
X181038095Y-81547619D01*
X180990476Y-81500000D01*
X180895238Y-81452380D01*
X180704761Y-81452380D01*
X180609523Y-81500000D01*
X180561904Y-81547619D01*
X180514285Y-81642857D01*
X180514285Y-81880952D01*
X180561904Y-81976190D01*
X180609523Y-82023809D01*
X180704761Y-82071428D01*
X180895238Y-82071428D01*
X180990476Y-82023809D01*
X181038095Y-81976190D01*
X181085714Y-81880952D01*
G04 #@! TO.C,R5*
X139801580Y-74397966D02*
X139325390Y-74731300D01*
X139801580Y-74969395D02*
X138801580Y-74969395D01*
X138801580Y-74588442D01*
X138849200Y-74493204D01*
X138896819Y-74445585D01*
X138992057Y-74397966D01*
X139134914Y-74397966D01*
X139230152Y-74445585D01*
X139277771Y-74493204D01*
X139325390Y-74588442D01*
X139325390Y-74969395D01*
X138801580Y-73493204D02*
X138801580Y-73969395D01*
X139277771Y-74017014D01*
X139230152Y-73969395D01*
X139182533Y-73874157D01*
X139182533Y-73636061D01*
X139230152Y-73540823D01*
X139277771Y-73493204D01*
X139373009Y-73445585D01*
X139611104Y-73445585D01*
X139706342Y-73493204D01*
X139753961Y-73540823D01*
X139801580Y-73636061D01*
X139801580Y-73874157D01*
X139753961Y-73969395D01*
X139706342Y-74017014D01*
G04 #@! TO.C,R11*
X182430908Y-74350793D02*
X181954718Y-74684126D01*
X182430908Y-74922221D02*
X181430908Y-74922221D01*
X181430908Y-74541269D01*
X181478528Y-74446031D01*
X181526147Y-74398412D01*
X181621385Y-74350793D01*
X181764242Y-74350793D01*
X181859480Y-74398412D01*
X181907099Y-74446031D01*
X181954718Y-74541269D01*
X181954718Y-74922221D01*
X182430908Y-73398412D02*
X182430908Y-73969840D01*
X182430908Y-73684126D02*
X181430908Y-73684126D01*
X181573766Y-73779364D01*
X181669004Y-73874602D01*
X181716623Y-73969840D01*
X182430908Y-72446031D02*
X182430908Y-73017459D01*
X182430908Y-72731745D02*
X181430908Y-72731745D01*
X181573766Y-72826983D01*
X181669004Y-72922221D01*
X181716623Y-73017459D01*
G04 #@! TO.C,R4*
X137610380Y-74498166D02*
X137134190Y-74831500D01*
X137610380Y-75069595D02*
X136610380Y-75069595D01*
X136610380Y-74688642D01*
X136658000Y-74593404D01*
X136705619Y-74545785D01*
X136800857Y-74498166D01*
X136943714Y-74498166D01*
X137038952Y-74545785D01*
X137086571Y-74593404D01*
X137134190Y-74688642D01*
X137134190Y-75069595D01*
X136943714Y-73641023D02*
X137610380Y-73641023D01*
X136562761Y-73879119D02*
X137277047Y-74117214D01*
X137277047Y-73498166D01*
G04 #@! TO.C,R12*
X184630908Y-74350793D02*
X184154718Y-74684126D01*
X184630908Y-74922221D02*
X183630908Y-74922221D01*
X183630908Y-74541269D01*
X183678528Y-74446031D01*
X183726147Y-74398412D01*
X183821385Y-74350793D01*
X183964242Y-74350793D01*
X184059480Y-74398412D01*
X184107099Y-74446031D01*
X184154718Y-74541269D01*
X184154718Y-74922221D01*
X184630908Y-73398412D02*
X184630908Y-73969840D01*
X184630908Y-73684126D02*
X183630908Y-73684126D01*
X183773766Y-73779364D01*
X183869004Y-73874602D01*
X183916623Y-73969840D01*
X183726147Y-73017459D02*
X183678528Y-72969840D01*
X183630908Y-72874602D01*
X183630908Y-72636507D01*
X183678528Y-72541269D01*
X183726147Y-72493650D01*
X183821385Y-72446031D01*
X183916623Y-72446031D01*
X184059480Y-72493650D01*
X184630908Y-73065078D01*
X184630908Y-72446031D01*
G04 #@! TO.C,R6*
X140960809Y-72306522D02*
X140627476Y-71830332D01*
X140389380Y-72306522D02*
X140389380Y-71306522D01*
X140770333Y-71306522D01*
X140865571Y-71354142D01*
X140913190Y-71401761D01*
X140960809Y-71496999D01*
X140960809Y-71639856D01*
X140913190Y-71735094D01*
X140865571Y-71782713D01*
X140770333Y-71830332D01*
X140389380Y-71830332D01*
X141817952Y-71306522D02*
X141627476Y-71306522D01*
X141532237Y-71354142D01*
X141484618Y-71401761D01*
X141389380Y-71544618D01*
X141341761Y-71735094D01*
X141341761Y-72116046D01*
X141389380Y-72211284D01*
X141436999Y-72258903D01*
X141532237Y-72306522D01*
X141722714Y-72306522D01*
X141817952Y-72258903D01*
X141865571Y-72211284D01*
X141913190Y-72116046D01*
X141913190Y-71877951D01*
X141865571Y-71782713D01*
X141817952Y-71735094D01*
X141722714Y-71687475D01*
X141532237Y-71687475D01*
X141436999Y-71735094D01*
X141389380Y-71782713D01*
X141341761Y-71877951D01*
G04 #@! TO.C,R14*
X205882380Y-71242857D02*
X205406190Y-71576190D01*
X205882380Y-71814285D02*
X204882380Y-71814285D01*
X204882380Y-71433333D01*
X204930000Y-71338095D01*
X204977619Y-71290476D01*
X205072857Y-71242857D01*
X205215714Y-71242857D01*
X205310952Y-71290476D01*
X205358571Y-71338095D01*
X205406190Y-71433333D01*
X205406190Y-71814285D01*
X205882380Y-70290476D02*
X205882380Y-70861904D01*
X205882380Y-70576190D02*
X204882380Y-70576190D01*
X205025238Y-70671428D01*
X205120476Y-70766666D01*
X205168095Y-70861904D01*
X205215714Y-69433333D02*
X205882380Y-69433333D01*
X204834761Y-69671428D02*
X205549047Y-69909523D01*
X205549047Y-69290476D01*
G04 #@! TO.C,R7*
X161452380Y-70966666D02*
X160976190Y-71300000D01*
X161452380Y-71538095D02*
X160452380Y-71538095D01*
X160452380Y-71157142D01*
X160500000Y-71061904D01*
X160547619Y-71014285D01*
X160642857Y-70966666D01*
X160785714Y-70966666D01*
X160880952Y-71014285D01*
X160928571Y-71061904D01*
X160976190Y-71157142D01*
X160976190Y-71538095D01*
X160452380Y-70633333D02*
X160452380Y-69966666D01*
X161452380Y-70395238D01*
G04 #@! TO.C,U10*
X129452380Y-77738095D02*
X130261904Y-77738095D01*
X130357142Y-77690476D01*
X130404761Y-77642857D01*
X130452380Y-77547619D01*
X130452380Y-77357142D01*
X130404761Y-77261904D01*
X130357142Y-77214285D01*
X130261904Y-77166666D01*
X129452380Y-77166666D01*
X130452380Y-76166666D02*
X130452380Y-76738095D01*
X130452380Y-76452380D02*
X129452380Y-76452380D01*
X129595238Y-76547619D01*
X129690476Y-76642857D01*
X129738095Y-76738095D01*
X129452380Y-75547619D02*
X129452380Y-75452380D01*
X129500000Y-75357142D01*
X129547619Y-75309523D01*
X129642857Y-75261904D01*
X129833333Y-75214285D01*
X130071428Y-75214285D01*
X130261904Y-75261904D01*
X130357142Y-75309523D01*
X130404761Y-75357142D01*
X130452380Y-75452380D01*
X130452380Y-75547619D01*
X130404761Y-75642857D01*
X130357142Y-75690476D01*
X130261904Y-75738095D01*
X130071428Y-75785714D01*
X129833333Y-75785714D01*
X129642857Y-75738095D01*
X129547619Y-75690476D01*
X129500000Y-75642857D01*
X129452380Y-75547619D01*
G04 #@! TO.C,U21*
X174048908Y-77570031D02*
X174858432Y-77570031D01*
X174953670Y-77522412D01*
X175001289Y-77474793D01*
X175048908Y-77379555D01*
X175048908Y-77189078D01*
X175001289Y-77093840D01*
X174953670Y-77046221D01*
X174858432Y-76998602D01*
X174048908Y-76998602D01*
X174144147Y-76570031D02*
X174096528Y-76522412D01*
X174048908Y-76427174D01*
X174048908Y-76189078D01*
X174096528Y-76093840D01*
X174144147Y-76046221D01*
X174239385Y-75998602D01*
X174334623Y-75998602D01*
X174477480Y-76046221D01*
X175048908Y-76617650D01*
X175048908Y-75998602D01*
X175048908Y-75046221D02*
X175048908Y-75617650D01*
X175048908Y-75331936D02*
X174048908Y-75331936D01*
X174191766Y-75427174D01*
X174287004Y-75522412D01*
X174334623Y-75617650D01*
G04 #@! TO.C,U22*
X192376524Y-74961904D02*
X191567000Y-74961904D01*
X191471762Y-75009523D01*
X191424143Y-75057142D01*
X191376524Y-75152380D01*
X191376524Y-75342857D01*
X191424143Y-75438095D01*
X191471762Y-75485714D01*
X191567000Y-75533333D01*
X192376524Y-75533333D01*
X192281285Y-75961904D02*
X192328905Y-76009523D01*
X192376524Y-76104761D01*
X192376524Y-76342857D01*
X192328905Y-76438095D01*
X192281285Y-76485714D01*
X192186047Y-76533333D01*
X192090809Y-76533333D01*
X191947952Y-76485714D01*
X191376524Y-75914285D01*
X191376524Y-76533333D01*
X192281285Y-76914285D02*
X192328905Y-76961904D01*
X192376524Y-77057142D01*
X192376524Y-77295238D01*
X192328905Y-77390476D01*
X192281285Y-77438095D01*
X192186047Y-77485714D01*
X192090809Y-77485714D01*
X191947952Y-77438095D01*
X191376524Y-76866666D01*
X191376524Y-77485714D01*
G04 #@! TO.C,U23*
X198019229Y-68204382D02*
X198019229Y-69013906D01*
X198066848Y-69109144D01*
X198114467Y-69156763D01*
X198209705Y-69204382D01*
X198400182Y-69204382D01*
X198495420Y-69156763D01*
X198543039Y-69109144D01*
X198590658Y-69013906D01*
X198590658Y-68204382D01*
X199019229Y-68299621D02*
X199066848Y-68252002D01*
X199162086Y-68204382D01*
X199400182Y-68204382D01*
X199495420Y-68252002D01*
X199543039Y-68299621D01*
X199590658Y-68394859D01*
X199590658Y-68490097D01*
X199543039Y-68632954D01*
X198971610Y-69204382D01*
X199590658Y-69204382D01*
X199923991Y-68204382D02*
X200543039Y-68204382D01*
X200209705Y-68585335D01*
X200352563Y-68585335D01*
X200447801Y-68632954D01*
X200495420Y-68680573D01*
X200543039Y-68775811D01*
X200543039Y-69013906D01*
X200495420Y-69109144D01*
X200447801Y-69156763D01*
X200352563Y-69204382D01*
X200066848Y-69204382D01*
X199971610Y-69156763D01*
X199923991Y-69109144D01*
G04 #@! TO.C,U12*
X153771795Y-68284179D02*
X153771795Y-69093703D01*
X153819414Y-69188941D01*
X153867033Y-69236560D01*
X153962271Y-69284179D01*
X154152748Y-69284179D01*
X154247986Y-69236560D01*
X154295605Y-69188941D01*
X154343224Y-69093703D01*
X154343224Y-68284179D01*
X155343224Y-69284179D02*
X154771795Y-69284179D01*
X155057510Y-69284179D02*
X155057510Y-68284179D01*
X154962271Y-68427037D01*
X154867033Y-68522275D01*
X154771795Y-68569894D01*
X155724176Y-68379418D02*
X155771795Y-68331799D01*
X155867033Y-68284179D01*
X156105129Y-68284179D01*
X156200367Y-68331799D01*
X156247986Y-68379418D01*
X156295605Y-68474656D01*
X156295605Y-68569894D01*
X156247986Y-68712751D01*
X155676557Y-69284179D01*
X156295605Y-69284179D01*
G04 #@! TO.C,C11*
X125757142Y-97942857D02*
X125804761Y-97990476D01*
X125852380Y-98133333D01*
X125852380Y-98228571D01*
X125804761Y-98371428D01*
X125709523Y-98466666D01*
X125614285Y-98514285D01*
X125423809Y-98561904D01*
X125280952Y-98561904D01*
X125090476Y-98514285D01*
X124995238Y-98466666D01*
X124900000Y-98371428D01*
X124852380Y-98228571D01*
X124852380Y-98133333D01*
X124900000Y-97990476D01*
X124947619Y-97942857D01*
X125852380Y-96990476D02*
X125852380Y-97561904D01*
X125852380Y-97276190D02*
X124852380Y-97276190D01*
X124995238Y-97371428D01*
X125090476Y-97466666D01*
X125138095Y-97561904D01*
X125852380Y-96038095D02*
X125852380Y-96609523D01*
X125852380Y-96323809D02*
X124852380Y-96323809D01*
X124995238Y-96419047D01*
X125090476Y-96514285D01*
X125138095Y-96609523D01*
G04 #@! TO.C,U8*
X121565550Y-92061610D02*
X122375074Y-92061610D01*
X122470312Y-92013991D01*
X122517931Y-91966372D01*
X122565550Y-91871134D01*
X122565550Y-91680658D01*
X122517931Y-91585420D01*
X122470312Y-91537801D01*
X122375074Y-91490182D01*
X121565550Y-91490182D01*
X121994122Y-90871134D02*
X121946503Y-90966372D01*
X121898884Y-91013991D01*
X121803646Y-91061610D01*
X121756027Y-91061610D01*
X121660789Y-91013991D01*
X121613170Y-90966372D01*
X121565550Y-90871134D01*
X121565550Y-90680658D01*
X121613170Y-90585420D01*
X121660789Y-90537801D01*
X121756027Y-90490182D01*
X121803646Y-90490182D01*
X121898884Y-90537801D01*
X121946503Y-90585420D01*
X121994122Y-90680658D01*
X121994122Y-90871134D01*
X122041741Y-90966372D01*
X122089360Y-91013991D01*
X122184598Y-91061610D01*
X122375074Y-91061610D01*
X122470312Y-91013991D01*
X122517931Y-90966372D01*
X122565550Y-90871134D01*
X122565550Y-90680658D01*
X122517931Y-90585420D01*
X122470312Y-90537801D01*
X122375074Y-90490182D01*
X122184598Y-90490182D01*
X122089360Y-90537801D01*
X122041741Y-90585420D01*
X121994122Y-90680658D01*
G04 #@! TO.C,U11*
X147247619Y-75261904D02*
X146438095Y-75261904D01*
X146342857Y-75309523D01*
X146295238Y-75357142D01*
X146247619Y-75452380D01*
X146247619Y-75642857D01*
X146295238Y-75738095D01*
X146342857Y-75785714D01*
X146438095Y-75833333D01*
X147247619Y-75833333D01*
X146247619Y-76833333D02*
X146247619Y-76261904D01*
X146247619Y-76547619D02*
X147247619Y-76547619D01*
X147104761Y-76452380D01*
X147009523Y-76357142D01*
X146961904Y-76261904D01*
X146247619Y-77785714D02*
X146247619Y-77214285D01*
X146247619Y-77500000D02*
X147247619Y-77500000D01*
X147104761Y-77404761D01*
X147009523Y-77309523D01*
X146961904Y-77214285D01*
G04 #@! TO.C,J8*
X177166666Y-58652380D02*
X177166666Y-59366666D01*
X177119047Y-59509523D01*
X177023809Y-59604761D01*
X176880952Y-59652380D01*
X176785714Y-59652380D01*
X177785714Y-59080952D02*
X177690476Y-59033333D01*
X177642857Y-58985714D01*
X177595238Y-58890476D01*
X177595238Y-58842857D01*
X177642857Y-58747619D01*
X177690476Y-58700000D01*
X177785714Y-58652380D01*
X177976190Y-58652380D01*
X178071428Y-58700000D01*
X178119047Y-58747619D01*
X178166666Y-58842857D01*
X178166666Y-58890476D01*
X178119047Y-58985714D01*
X178071428Y-59033333D01*
X177976190Y-59080952D01*
X177785714Y-59080952D01*
X177690476Y-59128571D01*
X177642857Y-59176190D01*
X177595238Y-59271428D01*
X177595238Y-59461904D01*
X177642857Y-59557142D01*
X177690476Y-59604761D01*
X177785714Y-59652380D01*
X177976190Y-59652380D01*
X178071428Y-59604761D01*
X178119047Y-59557142D01*
X178166666Y-59461904D01*
X178166666Y-59271428D01*
X178119047Y-59176190D01*
X178071428Y-59128571D01*
X177976190Y-59080952D01*
G04 #@! TD*
M02*
