G04 #@! TF.GenerationSoftware,KiCad,Pcbnew,5.0.2-bee76a0~70~ubuntu18.04.1*
G04 #@! TF.CreationDate,2019-02-25T13:41:17+02:00*
G04 #@! TF.ProjectId,stimjim,7374696d-6a69-46d2-9e6b-696361645f70,rev?*
G04 #@! TF.SameCoordinates,Original*
G04 #@! TF.FileFunction,Soldermask,Bot*
G04 #@! TF.FilePolarity,Negative*
%FSLAX46Y46*%
G04 Gerber Fmt 4.6, Leading zero omitted, Abs format (unit mm)*
G04 Created by KiCad (PCBNEW 5.0.2-bee76a0~70~ubuntu18.04.1) date Mon Feb 25 13:41:17 2019*
%MOMM*%
%LPD*%
G01*
G04 APERTURE LIST*
%ADD10C,0.100000*%
%ADD11C,0.150000*%
%ADD12C,0.300000*%
%ADD13C,0.400000*%
G04 APERTURE END LIST*
D10*
D11*
X177002200Y-166007200D02*
X177002200Y-198007200D01*
X285002200Y-198007200D01*
X285002200Y-166007200D01*
X177002200Y-166007200D01*
D10*
D11*
X10000000Y-10000000D02*
X10000000Y-200007200D01*
X287002200Y-200007200D01*
X287002200Y-10000000D01*
X10000000Y-10000000D01*
D10*
D11*
X12000000Y-12000000D02*
X12000000Y-198007200D01*
X285002200Y-198007200D01*
X285002200Y-12000000D01*
X12000000Y-12000000D01*
D10*
D11*
X60000000Y-12000000D02*
X60000000Y-10000000D01*
D10*
D11*
X110000000Y-12000000D02*
X110000000Y-10000000D01*
D10*
D11*
X160000000Y-12000000D02*
X160000000Y-10000000D01*
D10*
D11*
X210000000Y-12000000D02*
X210000000Y-10000000D01*
D10*
D11*
X260000000Y-12000000D02*
X260000000Y-10000000D01*
D10*
D11*
X36065476Y-11588095D02*
X35322619Y-11588095D01*
X35694047Y-11588095D02*
X35694047Y-10288095D01*
X35570238Y-10473809D01*
X35446428Y-10597619D01*
X35322619Y-10659523D01*
D10*
D11*
X85322619Y-10411904D02*
X85384523Y-10350000D01*
X85508333Y-10288095D01*
X85817857Y-10288095D01*
X85941666Y-10350000D01*
X86003571Y-10411904D01*
X86065476Y-10535714D01*
X86065476Y-10659523D01*
X86003571Y-10845238D01*
X85260714Y-11588095D01*
X86065476Y-11588095D01*
D10*
D11*
X135260714Y-10288095D02*
X136065476Y-10288095D01*
X135632142Y-10783333D01*
X135817857Y-10783333D01*
X135941666Y-10845238D01*
X136003571Y-10907142D01*
X136065476Y-11030952D01*
X136065476Y-11340476D01*
X136003571Y-11464285D01*
X135941666Y-11526190D01*
X135817857Y-11588095D01*
X135446428Y-11588095D01*
X135322619Y-11526190D01*
X135260714Y-11464285D01*
D10*
D11*
X185941666Y-10721428D02*
X185941666Y-11588095D01*
X185632142Y-10226190D02*
X185322619Y-11154761D01*
X186127380Y-11154761D01*
D10*
D11*
X236003571Y-10288095D02*
X235384523Y-10288095D01*
X235322619Y-10907142D01*
X235384523Y-10845238D01*
X235508333Y-10783333D01*
X235817857Y-10783333D01*
X235941666Y-10845238D01*
X236003571Y-10907142D01*
X236065476Y-11030952D01*
X236065476Y-11340476D01*
X236003571Y-11464285D01*
X235941666Y-11526190D01*
X235817857Y-11588095D01*
X235508333Y-11588095D01*
X235384523Y-11526190D01*
X235322619Y-11464285D01*
D10*
D11*
X285941666Y-10288095D02*
X285694047Y-10288095D01*
X285570238Y-10350000D01*
X285508333Y-10411904D01*
X285384523Y-10597619D01*
X285322619Y-10845238D01*
X285322619Y-11340476D01*
X285384523Y-11464285D01*
X285446428Y-11526190D01*
X285570238Y-11588095D01*
X285817857Y-11588095D01*
X285941666Y-11526190D01*
X286003571Y-11464285D01*
X286065476Y-11340476D01*
X286065476Y-11030952D01*
X286003571Y-10907142D01*
X285941666Y-10845238D01*
X285817857Y-10783333D01*
X285570238Y-10783333D01*
X285446428Y-10845238D01*
X285384523Y-10907142D01*
X285322619Y-11030952D01*
D10*
D11*
X60000000Y-198007200D02*
X60000000Y-200007200D01*
D10*
D11*
X110000000Y-198007200D02*
X110000000Y-200007200D01*
D10*
D11*
X160000000Y-198007200D02*
X160000000Y-200007200D01*
D10*
D11*
X210000000Y-198007200D02*
X210000000Y-200007200D01*
D10*
D11*
X260000000Y-198007200D02*
X260000000Y-200007200D01*
D10*
D11*
X36065476Y-199595295D02*
X35322619Y-199595295D01*
X35694047Y-199595295D02*
X35694047Y-198295295D01*
X35570238Y-198481009D01*
X35446428Y-198604819D01*
X35322619Y-198666723D01*
D10*
D11*
X85322619Y-198419104D02*
X85384523Y-198357200D01*
X85508333Y-198295295D01*
X85817857Y-198295295D01*
X85941666Y-198357200D01*
X86003571Y-198419104D01*
X86065476Y-198542914D01*
X86065476Y-198666723D01*
X86003571Y-198852438D01*
X85260714Y-199595295D01*
X86065476Y-199595295D01*
D10*
D11*
X135260714Y-198295295D02*
X136065476Y-198295295D01*
X135632142Y-198790533D01*
X135817857Y-198790533D01*
X135941666Y-198852438D01*
X136003571Y-198914342D01*
X136065476Y-199038152D01*
X136065476Y-199347676D01*
X136003571Y-199471485D01*
X135941666Y-199533390D01*
X135817857Y-199595295D01*
X135446428Y-199595295D01*
X135322619Y-199533390D01*
X135260714Y-199471485D01*
D10*
D11*
X185941666Y-198728628D02*
X185941666Y-199595295D01*
X185632142Y-198233390D02*
X185322619Y-199161961D01*
X186127380Y-199161961D01*
D10*
D11*
X236003571Y-198295295D02*
X235384523Y-198295295D01*
X235322619Y-198914342D01*
X235384523Y-198852438D01*
X235508333Y-198790533D01*
X235817857Y-198790533D01*
X235941666Y-198852438D01*
X236003571Y-198914342D01*
X236065476Y-199038152D01*
X236065476Y-199347676D01*
X236003571Y-199471485D01*
X235941666Y-199533390D01*
X235817857Y-199595295D01*
X235508333Y-199595295D01*
X235384523Y-199533390D01*
X235322619Y-199471485D01*
D10*
D11*
X285941666Y-198295295D02*
X285694047Y-198295295D01*
X285570238Y-198357200D01*
X285508333Y-198419104D01*
X285384523Y-198604819D01*
X285322619Y-198852438D01*
X285322619Y-199347676D01*
X285384523Y-199471485D01*
X285446428Y-199533390D01*
X285570238Y-199595295D01*
X285817857Y-199595295D01*
X285941666Y-199533390D01*
X286003571Y-199471485D01*
X286065476Y-199347676D01*
X286065476Y-199038152D01*
X286003571Y-198914342D01*
X285941666Y-198852438D01*
X285817857Y-198790533D01*
X285570238Y-198790533D01*
X285446428Y-198852438D01*
X285384523Y-198914342D01*
X285322619Y-199038152D01*
D10*
D11*
X10000000Y-60000000D02*
X12000000Y-60000000D01*
D10*
D11*
X10000000Y-110000000D02*
X12000000Y-110000000D01*
D10*
D11*
X10000000Y-160000000D02*
X12000000Y-160000000D01*
D10*
D11*
X10690476Y-35216666D02*
X11309523Y-35216666D01*
X10566666Y-35588095D02*
X11000000Y-34288095D01*
X11433333Y-35588095D01*
D10*
D11*
X11092857Y-84907142D02*
X11278571Y-84969047D01*
X11340476Y-85030952D01*
X11402380Y-85154761D01*
X11402380Y-85340476D01*
X11340476Y-85464285D01*
X11278571Y-85526190D01*
X11154761Y-85588095D01*
X10659523Y-85588095D01*
X10659523Y-84288095D01*
X11092857Y-84288095D01*
X11216666Y-84350000D01*
X11278571Y-84411904D01*
X11340476Y-84535714D01*
X11340476Y-84659523D01*
X11278571Y-84783333D01*
X11216666Y-84845238D01*
X11092857Y-84907142D01*
X10659523Y-84907142D01*
D10*
D11*
X11402380Y-135464285D02*
X11340476Y-135526190D01*
X11154761Y-135588095D01*
X11030952Y-135588095D01*
X10845238Y-135526190D01*
X10721428Y-135402380D01*
X10659523Y-135278571D01*
X10597619Y-135030952D01*
X10597619Y-134845238D01*
X10659523Y-134597619D01*
X10721428Y-134473809D01*
X10845238Y-134350000D01*
X11030952Y-134288095D01*
X11154761Y-134288095D01*
X11340476Y-134350000D01*
X11402380Y-134411904D01*
D10*
D11*
X10659523Y-185588095D02*
X10659523Y-184288095D01*
X10969047Y-184288095D01*
X11154761Y-184350000D01*
X11278571Y-184473809D01*
X11340476Y-184597619D01*
X11402380Y-184845238D01*
X11402380Y-185030952D01*
X11340476Y-185278571D01*
X11278571Y-185402380D01*
X11154761Y-185526190D01*
X10969047Y-185588095D01*
X10659523Y-185588095D01*
D10*
D11*
X287002200Y-60000000D02*
X285002200Y-60000000D01*
D10*
D11*
X287002200Y-110000000D02*
X285002200Y-110000000D01*
D10*
D11*
X287002200Y-160000000D02*
X285002200Y-160000000D01*
D10*
D11*
X285692676Y-35216666D02*
X286311723Y-35216666D01*
X285568866Y-35588095D02*
X286002200Y-34288095D01*
X286435533Y-35588095D01*
D10*
D11*
X286095057Y-84907142D02*
X286280771Y-84969047D01*
X286342676Y-85030952D01*
X286404580Y-85154761D01*
X286404580Y-85340476D01*
X286342676Y-85464285D01*
X286280771Y-85526190D01*
X286156961Y-85588095D01*
X285661723Y-85588095D01*
X285661723Y-84288095D01*
X286095057Y-84288095D01*
X286218866Y-84350000D01*
X286280771Y-84411904D01*
X286342676Y-84535714D01*
X286342676Y-84659523D01*
X286280771Y-84783333D01*
X286218866Y-84845238D01*
X286095057Y-84907142D01*
X285661723Y-84907142D01*
D10*
D11*
X286404580Y-135464285D02*
X286342676Y-135526190D01*
X286156961Y-135588095D01*
X286033152Y-135588095D01*
X285847438Y-135526190D01*
X285723628Y-135402380D01*
X285661723Y-135278571D01*
X285599819Y-135030952D01*
X285599819Y-134845238D01*
X285661723Y-134597619D01*
X285723628Y-134473809D01*
X285847438Y-134350000D01*
X286033152Y-134288095D01*
X286156961Y-134288095D01*
X286342676Y-134350000D01*
X286404580Y-134411904D01*
D10*
D11*
X285661723Y-185588095D02*
X285661723Y-184288095D01*
X285971247Y-184288095D01*
X286156961Y-184350000D01*
X286280771Y-184473809D01*
X286342676Y-184597619D01*
X286404580Y-184845238D01*
X286404580Y-185030952D01*
X286342676Y-185278571D01*
X286280771Y-185402380D01*
X286156961Y-185526190D01*
X285971247Y-185588095D01*
X285661723Y-185588095D01*
D10*
D11*
X200434342Y-193785771D02*
X200434342Y-192285771D01*
X200791485Y-192285771D01*
X201005771Y-192357200D01*
X201148628Y-192500057D01*
X201220057Y-192642914D01*
X201291485Y-192928628D01*
X201291485Y-193142914D01*
X201220057Y-193428628D01*
X201148628Y-193571485D01*
X201005771Y-193714342D01*
X200791485Y-193785771D01*
X200434342Y-193785771D01*
X202577200Y-193785771D02*
X202577200Y-193000057D01*
X202505771Y-192857200D01*
X202362914Y-192785771D01*
X202077200Y-192785771D01*
X201934342Y-192857200D01*
X202577200Y-193714342D02*
X202434342Y-193785771D01*
X202077200Y-193785771D01*
X201934342Y-193714342D01*
X201862914Y-193571485D01*
X201862914Y-193428628D01*
X201934342Y-193285771D01*
X202077200Y-193214342D01*
X202434342Y-193214342D01*
X202577200Y-193142914D01*
X203077200Y-192785771D02*
X203648628Y-192785771D01*
X203291485Y-192285771D02*
X203291485Y-193571485D01*
X203362914Y-193714342D01*
X203505771Y-193785771D01*
X203648628Y-193785771D01*
X204720057Y-193714342D02*
X204577200Y-193785771D01*
X204291485Y-193785771D01*
X204148628Y-193714342D01*
X204077200Y-193571485D01*
X204077200Y-193000057D01*
X204148628Y-192857200D01*
X204291485Y-192785771D01*
X204577200Y-192785771D01*
X204720057Y-192857200D01*
X204791485Y-193000057D01*
X204791485Y-193142914D01*
X204077200Y-193285771D01*
X205434342Y-193642914D02*
X205505771Y-193714342D01*
X205434342Y-193785771D01*
X205362914Y-193714342D01*
X205434342Y-193642914D01*
X205434342Y-193785771D01*
X205434342Y-192857200D02*
X205505771Y-192928628D01*
X205434342Y-193000057D01*
X205362914Y-192928628D01*
X205434342Y-192857200D01*
X205434342Y-193000057D01*
D10*
D11*
X177002200Y-194507200D02*
X285002200Y-194507200D01*
D10*
D11*
X178434342Y-196585771D02*
X178434342Y-195085771D01*
X179291485Y-196585771D02*
X178648628Y-195728628D01*
X179291485Y-195085771D02*
X178434342Y-195942914D01*
X179934342Y-196585771D02*
X179934342Y-195585771D01*
X179934342Y-195085771D02*
X179862914Y-195157200D01*
X179934342Y-195228628D01*
X180005771Y-195157200D01*
X179934342Y-195085771D01*
X179934342Y-195228628D01*
X181505771Y-196442914D02*
X181434342Y-196514342D01*
X181220057Y-196585771D01*
X181077200Y-196585771D01*
X180862914Y-196514342D01*
X180720057Y-196371485D01*
X180648628Y-196228628D01*
X180577200Y-195942914D01*
X180577200Y-195728628D01*
X180648628Y-195442914D01*
X180720057Y-195300057D01*
X180862914Y-195157200D01*
X181077200Y-195085771D01*
X181220057Y-195085771D01*
X181434342Y-195157200D01*
X181505771Y-195228628D01*
X182791485Y-196585771D02*
X182791485Y-195800057D01*
X182720057Y-195657200D01*
X182577200Y-195585771D01*
X182291485Y-195585771D01*
X182148628Y-195657200D01*
X182791485Y-196514342D02*
X182648628Y-196585771D01*
X182291485Y-196585771D01*
X182148628Y-196514342D01*
X182077200Y-196371485D01*
X182077200Y-196228628D01*
X182148628Y-196085771D01*
X182291485Y-196014342D01*
X182648628Y-196014342D01*
X182791485Y-195942914D01*
X184148628Y-196585771D02*
X184148628Y-195085771D01*
X184148628Y-196514342D02*
X184005771Y-196585771D01*
X183720057Y-196585771D01*
X183577200Y-196514342D01*
X183505771Y-196442914D01*
X183434342Y-196300057D01*
X183434342Y-195871485D01*
X183505771Y-195728628D01*
X183577200Y-195657200D01*
X183720057Y-195585771D01*
X184005771Y-195585771D01*
X184148628Y-195657200D01*
X186005771Y-195800057D02*
X186505771Y-195800057D01*
X186720057Y-196585771D02*
X186005771Y-196585771D01*
X186005771Y-195085771D01*
X186720057Y-195085771D01*
X187362914Y-196442914D02*
X187434342Y-196514342D01*
X187362914Y-196585771D01*
X187291485Y-196514342D01*
X187362914Y-196442914D01*
X187362914Y-196585771D01*
X188077200Y-196585771D02*
X188077200Y-195085771D01*
X188434342Y-195085771D01*
X188648628Y-195157200D01*
X188791485Y-195300057D01*
X188862914Y-195442914D01*
X188934342Y-195728628D01*
X188934342Y-195942914D01*
X188862914Y-196228628D01*
X188791485Y-196371485D01*
X188648628Y-196514342D01*
X188434342Y-196585771D01*
X188077200Y-196585771D01*
X189577200Y-196442914D02*
X189648628Y-196514342D01*
X189577200Y-196585771D01*
X189505771Y-196514342D01*
X189577200Y-196442914D01*
X189577200Y-196585771D01*
X190220057Y-196157200D02*
X190934342Y-196157200D01*
X190077200Y-196585771D02*
X190577200Y-195085771D01*
X191077200Y-196585771D01*
X191577200Y-196442914D02*
X191648628Y-196514342D01*
X191577200Y-196585771D01*
X191505771Y-196514342D01*
X191577200Y-196442914D01*
X191577200Y-196585771D01*
X194577200Y-196585771D02*
X194577200Y-195085771D01*
X194720057Y-196014342D02*
X195148628Y-196585771D01*
X195148628Y-195585771D02*
X194577200Y-196157200D01*
X195791485Y-196585771D02*
X195791485Y-195585771D01*
X195791485Y-195085771D02*
X195720057Y-195157200D01*
X195791485Y-195228628D01*
X195862914Y-195157200D01*
X195791485Y-195085771D01*
X195791485Y-195228628D01*
X197148628Y-196514342D02*
X197005771Y-196585771D01*
X196720057Y-196585771D01*
X196577200Y-196514342D01*
X196505771Y-196442914D01*
X196434342Y-196300057D01*
X196434342Y-195871485D01*
X196505771Y-195728628D01*
X196577200Y-195657200D01*
X196720057Y-195585771D01*
X197005771Y-195585771D01*
X197148628Y-195657200D01*
X198434342Y-196585771D02*
X198434342Y-195800057D01*
X198362914Y-195657200D01*
X198220057Y-195585771D01*
X197934342Y-195585771D01*
X197791485Y-195657200D01*
X198434342Y-196514342D02*
X198291485Y-196585771D01*
X197934342Y-196585771D01*
X197791485Y-196514342D01*
X197720057Y-196371485D01*
X197720057Y-196228628D01*
X197791485Y-196085771D01*
X197934342Y-196014342D01*
X198291485Y-196014342D01*
X198434342Y-195942914D01*
X199791485Y-196585771D02*
X199791485Y-195085771D01*
X199791485Y-196514342D02*
X199648628Y-196585771D01*
X199362914Y-196585771D01*
X199220057Y-196514342D01*
X199148628Y-196442914D01*
X199077200Y-196300057D01*
X199077200Y-195871485D01*
X199148628Y-195728628D01*
X199220057Y-195657200D01*
X199362914Y-195585771D01*
X199648628Y-195585771D01*
X199791485Y-195657200D01*
X202362914Y-195085771D02*
X201648628Y-195085771D01*
X201577200Y-195800057D01*
X201648628Y-195728628D01*
X201791485Y-195657200D01*
X202148628Y-195657200D01*
X202291485Y-195728628D01*
X202362914Y-195800057D01*
X202434342Y-195942914D01*
X202434342Y-196300057D01*
X202362914Y-196442914D01*
X202291485Y-196514342D01*
X202148628Y-196585771D01*
X201791485Y-196585771D01*
X201648628Y-196514342D01*
X201577200Y-196442914D01*
X203077200Y-196442914D02*
X203148628Y-196514342D01*
X203077200Y-196585771D01*
X203005771Y-196514342D01*
X203077200Y-196442914D01*
X203077200Y-196585771D01*
X204077200Y-195085771D02*
X204220057Y-195085771D01*
X204362914Y-195157200D01*
X204434342Y-195228628D01*
X204505771Y-195371485D01*
X204577200Y-195657200D01*
X204577200Y-196014342D01*
X204505771Y-196300057D01*
X204434342Y-196442914D01*
X204362914Y-196514342D01*
X204220057Y-196585771D01*
X204077200Y-196585771D01*
X203934342Y-196514342D01*
X203862914Y-196442914D01*
X203791485Y-196300057D01*
X203720057Y-196014342D01*
X203720057Y-195657200D01*
X203791485Y-195371485D01*
X203862914Y-195228628D01*
X203934342Y-195157200D01*
X204077200Y-195085771D01*
X205220057Y-196442914D02*
X205291485Y-196514342D01*
X205220057Y-196585771D01*
X205148628Y-196514342D01*
X205220057Y-196442914D01*
X205220057Y-196585771D01*
X205862914Y-195228628D02*
X205934342Y-195157200D01*
X206077200Y-195085771D01*
X206434342Y-195085771D01*
X206577200Y-195157200D01*
X206648628Y-195228628D01*
X206720057Y-195371485D01*
X206720057Y-195514342D01*
X206648628Y-195728628D01*
X205791485Y-196585771D01*
X206720057Y-196585771D01*
X207362914Y-196014342D02*
X208505771Y-196014342D01*
X209220057Y-196585771D02*
X209220057Y-195085771D01*
X209220057Y-195657200D02*
X209362914Y-195585771D01*
X209648628Y-195585771D01*
X209791485Y-195657200D01*
X209862914Y-195728628D01*
X209934342Y-195871485D01*
X209934342Y-196300057D01*
X209862914Y-196442914D01*
X209791485Y-196514342D01*
X209648628Y-196585771D01*
X209362914Y-196585771D01*
X209220057Y-196514342D01*
X211148628Y-196514342D02*
X211005771Y-196585771D01*
X210720057Y-196585771D01*
X210577200Y-196514342D01*
X210505771Y-196371485D01*
X210505771Y-195800057D01*
X210577200Y-195657200D01*
X210720057Y-195585771D01*
X211005771Y-195585771D01*
X211148628Y-195657200D01*
X211220057Y-195800057D01*
X211220057Y-195942914D01*
X210505771Y-196085771D01*
X212434342Y-196514342D02*
X212291485Y-196585771D01*
X212005771Y-196585771D01*
X211862914Y-196514342D01*
X211791485Y-196371485D01*
X211791485Y-195800057D01*
X211862914Y-195657200D01*
X212005771Y-195585771D01*
X212291485Y-195585771D01*
X212434342Y-195657200D01*
X212505771Y-195800057D01*
X212505771Y-195942914D01*
X211791485Y-196085771D01*
X213005771Y-195085771D02*
X214005771Y-195085771D01*
X213362914Y-196585771D01*
X215220057Y-195085771D02*
X214934342Y-195085771D01*
X214791485Y-195157200D01*
X214720057Y-195228628D01*
X214577200Y-195442914D01*
X214505771Y-195728628D01*
X214505771Y-196300057D01*
X214577200Y-196442914D01*
X214648628Y-196514342D01*
X214791485Y-196585771D01*
X215077200Y-196585771D01*
X215220057Y-196514342D01*
X215291485Y-196442914D01*
X215362914Y-196300057D01*
X215362914Y-195942914D01*
X215291485Y-195800057D01*
X215220057Y-195728628D01*
X215077200Y-195657200D01*
X214791485Y-195657200D01*
X214648628Y-195728628D01*
X214577200Y-195800057D01*
X214505771Y-195942914D01*
X216648628Y-196585771D02*
X216648628Y-195800057D01*
X216577200Y-195657200D01*
X216434342Y-195585771D01*
X216148628Y-195585771D01*
X216005771Y-195657200D01*
X216648628Y-196514342D02*
X216505771Y-196585771D01*
X216148628Y-196585771D01*
X216005771Y-196514342D01*
X215934342Y-196371485D01*
X215934342Y-196228628D01*
X216005771Y-196085771D01*
X216148628Y-196014342D01*
X216505771Y-196014342D01*
X216648628Y-195942914D01*
X217648628Y-195085771D02*
X217791485Y-195085771D01*
X217934342Y-195157200D01*
X218005771Y-195228628D01*
X218077200Y-195371485D01*
X218148628Y-195657200D01*
X218148628Y-196014342D01*
X218077200Y-196300057D01*
X218005771Y-196442914D01*
X217934342Y-196514342D01*
X217791485Y-196585771D01*
X217648628Y-196585771D01*
X217505771Y-196514342D01*
X217434342Y-196442914D01*
X217362914Y-196300057D01*
X217291485Y-196014342D01*
X217291485Y-195657200D01*
X217362914Y-195371485D01*
X217434342Y-195228628D01*
X217505771Y-195157200D01*
X217648628Y-195085771D01*
X218434342Y-194677200D02*
X219862914Y-194677200D01*
X218648628Y-195085771D02*
X219648628Y-195085771D01*
X219005771Y-196585771D01*
X219862914Y-194677200D02*
X221291485Y-194677200D01*
X220505771Y-195085771D02*
X220648628Y-195085771D01*
X220791485Y-195157200D01*
X220862914Y-195228628D01*
X220934342Y-195371485D01*
X221005771Y-195657200D01*
X221005771Y-196014342D01*
X220934342Y-196300057D01*
X220862914Y-196442914D01*
X220791485Y-196514342D01*
X220648628Y-196585771D01*
X220505771Y-196585771D01*
X220362914Y-196514342D01*
X220291485Y-196442914D01*
X220220057Y-196300057D01*
X220148628Y-196014342D01*
X220148628Y-195657200D01*
X220220057Y-195371485D01*
X220291485Y-195228628D01*
X220362914Y-195157200D01*
X220505771Y-195085771D01*
X222291485Y-195585771D02*
X222291485Y-196585771D01*
X221648628Y-195585771D02*
X221648628Y-196371485D01*
X221720057Y-196514342D01*
X221862914Y-196585771D01*
X222077200Y-196585771D01*
X222220057Y-196514342D01*
X222291485Y-196442914D01*
X223005771Y-196585771D02*
X223005771Y-195085771D01*
X223005771Y-195657200D02*
X223148628Y-195585771D01*
X223434342Y-195585771D01*
X223577200Y-195657200D01*
X223648628Y-195728628D01*
X223720057Y-195871485D01*
X223720057Y-196300057D01*
X223648628Y-196442914D01*
X223577200Y-196514342D01*
X223434342Y-196585771D01*
X223148628Y-196585771D01*
X223005771Y-196514342D01*
X225005771Y-195585771D02*
X225005771Y-196585771D01*
X224362914Y-195585771D02*
X224362914Y-196371485D01*
X224434342Y-196514342D01*
X224577200Y-196585771D01*
X224791485Y-196585771D01*
X224934342Y-196514342D01*
X225005771Y-196442914D01*
X225720057Y-195585771D02*
X225720057Y-196585771D01*
X225720057Y-195728628D02*
X225791485Y-195657200D01*
X225934342Y-195585771D01*
X226148628Y-195585771D01*
X226291485Y-195657200D01*
X226362914Y-195800057D01*
X226362914Y-196585771D01*
X226862914Y-195585771D02*
X227434342Y-195585771D01*
X227077200Y-195085771D02*
X227077200Y-196371485D01*
X227148628Y-196514342D01*
X227291485Y-196585771D01*
X227434342Y-196585771D01*
X228577200Y-195585771D02*
X228577200Y-196585771D01*
X227934342Y-195585771D02*
X227934342Y-196371485D01*
X228005771Y-196514342D01*
X228148628Y-196585771D01*
X228362914Y-196585771D01*
X228505771Y-196514342D01*
X228577200Y-196442914D01*
X230077200Y-196585771D02*
X229220057Y-196585771D01*
X229648628Y-196585771D02*
X229648628Y-195085771D01*
X229505771Y-195300057D01*
X229362914Y-195442914D01*
X229220057Y-195514342D01*
X230934342Y-195728628D02*
X230791485Y-195657200D01*
X230720057Y-195585771D01*
X230648628Y-195442914D01*
X230648628Y-195371485D01*
X230720057Y-195228628D01*
X230791485Y-195157200D01*
X230934342Y-195085771D01*
X231220057Y-195085771D01*
X231362914Y-195157200D01*
X231434342Y-195228628D01*
X231505771Y-195371485D01*
X231505771Y-195442914D01*
X231434342Y-195585771D01*
X231362914Y-195657200D01*
X231220057Y-195728628D01*
X230934342Y-195728628D01*
X230791485Y-195800057D01*
X230720057Y-195871485D01*
X230648628Y-196014342D01*
X230648628Y-196300057D01*
X230720057Y-196442914D01*
X230791485Y-196514342D01*
X230934342Y-196585771D01*
X231220057Y-196585771D01*
X231362914Y-196514342D01*
X231434342Y-196442914D01*
X231505771Y-196300057D01*
X231505771Y-196014342D01*
X231434342Y-195871485D01*
X231362914Y-195800057D01*
X231220057Y-195728628D01*
X232148628Y-196442914D02*
X232220057Y-196514342D01*
X232148628Y-196585771D01*
X232077200Y-196514342D01*
X232148628Y-196442914D01*
X232148628Y-196585771D01*
X233148628Y-195085771D02*
X233291485Y-195085771D01*
X233434342Y-195157200D01*
X233505771Y-195228628D01*
X233577200Y-195371485D01*
X233648628Y-195657200D01*
X233648628Y-196014342D01*
X233577200Y-196300057D01*
X233505771Y-196442914D01*
X233434342Y-196514342D01*
X233291485Y-196585771D01*
X233148628Y-196585771D01*
X233005771Y-196514342D01*
X232934342Y-196442914D01*
X232862914Y-196300057D01*
X232791485Y-196014342D01*
X232791485Y-195657200D01*
X232862914Y-195371485D01*
X232934342Y-195228628D01*
X233005771Y-195157200D01*
X233148628Y-195085771D01*
X234934342Y-195585771D02*
X234934342Y-196585771D01*
X234577200Y-195014342D02*
X234220057Y-196085771D01*
X235148628Y-196085771D01*
X235720057Y-196442914D02*
X235791485Y-196514342D01*
X235720057Y-196585771D01*
X235648628Y-196514342D01*
X235720057Y-196442914D01*
X235720057Y-196585771D01*
X237220057Y-196585771D02*
X236362914Y-196585771D01*
X236791485Y-196585771D02*
X236791485Y-195085771D01*
X236648628Y-195300057D01*
X236505771Y-195442914D01*
X236362914Y-195514342D01*
D10*
D11*
X177002200Y-191507200D02*
X285002200Y-191507200D01*
D10*
D12*
X264411485Y-193785771D02*
X263911485Y-193071485D01*
X263554342Y-193785771D02*
X263554342Y-192285771D01*
X264125771Y-192285771D01*
X264268628Y-192357200D01*
X264340057Y-192428628D01*
X264411485Y-192571485D01*
X264411485Y-192785771D01*
X264340057Y-192928628D01*
X264268628Y-193000057D01*
X264125771Y-193071485D01*
X263554342Y-193071485D01*
X265625771Y-193714342D02*
X265482914Y-193785771D01*
X265197200Y-193785771D01*
X265054342Y-193714342D01*
X264982914Y-193571485D01*
X264982914Y-193000057D01*
X265054342Y-192857200D01*
X265197200Y-192785771D01*
X265482914Y-192785771D01*
X265625771Y-192857200D01*
X265697200Y-193000057D01*
X265697200Y-193142914D01*
X264982914Y-193285771D01*
X266197200Y-192785771D02*
X266554342Y-193785771D01*
X266911485Y-192785771D01*
X267482914Y-193642914D02*
X267554342Y-193714342D01*
X267482914Y-193785771D01*
X267411485Y-193714342D01*
X267482914Y-193642914D01*
X267482914Y-193785771D01*
X267482914Y-192857200D02*
X267554342Y-192928628D01*
X267482914Y-193000057D01*
X267411485Y-192928628D01*
X267482914Y-192857200D01*
X267482914Y-193000057D01*
D10*
D11*
X178362914Y-193714342D02*
X178577200Y-193785771D01*
X178934342Y-193785771D01*
X179077200Y-193714342D01*
X179148628Y-193642914D01*
X179220057Y-193500057D01*
X179220057Y-193357200D01*
X179148628Y-193214342D01*
X179077200Y-193142914D01*
X178934342Y-193071485D01*
X178648628Y-193000057D01*
X178505771Y-192928628D01*
X178434342Y-192857200D01*
X178362914Y-192714342D01*
X178362914Y-192571485D01*
X178434342Y-192428628D01*
X178505771Y-192357200D01*
X178648628Y-192285771D01*
X179005771Y-192285771D01*
X179220057Y-192357200D01*
X179862914Y-193785771D02*
X179862914Y-192785771D01*
X179862914Y-192285771D02*
X179791485Y-192357200D01*
X179862914Y-192428628D01*
X179934342Y-192357200D01*
X179862914Y-192285771D01*
X179862914Y-192428628D01*
X180434342Y-192785771D02*
X181220057Y-192785771D01*
X180434342Y-193785771D01*
X181220057Y-193785771D01*
X182362914Y-193714342D02*
X182220057Y-193785771D01*
X181934342Y-193785771D01*
X181791485Y-193714342D01*
X181720057Y-193571485D01*
X181720057Y-193000057D01*
X181791485Y-192857200D01*
X181934342Y-192785771D01*
X182220057Y-192785771D01*
X182362914Y-192857200D01*
X182434342Y-193000057D01*
X182434342Y-193142914D01*
X181720057Y-193285771D01*
X183077200Y-193642914D02*
X183148628Y-193714342D01*
X183077200Y-193785771D01*
X183005771Y-193714342D01*
X183077200Y-193642914D01*
X183077200Y-193785771D01*
X183077200Y-192857200D02*
X183148628Y-192928628D01*
X183077200Y-193000057D01*
X183005771Y-192928628D01*
X183077200Y-192857200D01*
X183077200Y-193000057D01*
X184862914Y-193357200D02*
X185577200Y-193357200D01*
X184720057Y-193785771D02*
X185220057Y-192285771D01*
X185720057Y-193785771D01*
X186862914Y-192785771D02*
X186862914Y-193785771D01*
X186505771Y-192214342D02*
X186148628Y-193285771D01*
X187077200Y-193285771D01*
D10*
D11*
X263434342Y-196585771D02*
X263434342Y-195085771D01*
X264791485Y-196585771D02*
X264791485Y-195085771D01*
X264791485Y-196514342D02*
X264648628Y-196585771D01*
X264362914Y-196585771D01*
X264220057Y-196514342D01*
X264148628Y-196442914D01*
X264077200Y-196300057D01*
X264077200Y-195871485D01*
X264148628Y-195728628D01*
X264220057Y-195657200D01*
X264362914Y-195585771D01*
X264648628Y-195585771D01*
X264791485Y-195657200D01*
X265505771Y-196442914D02*
X265577200Y-196514342D01*
X265505771Y-196585771D01*
X265434342Y-196514342D01*
X265505771Y-196442914D01*
X265505771Y-196585771D01*
X265505771Y-195657200D02*
X265577200Y-195728628D01*
X265505771Y-195800057D01*
X265434342Y-195728628D01*
X265505771Y-195657200D01*
X265505771Y-195800057D01*
X268148628Y-196585771D02*
X267291485Y-196585771D01*
X267720057Y-196585771D02*
X267720057Y-195085771D01*
X267577200Y-195300057D01*
X267434342Y-195442914D01*
X267291485Y-195514342D01*
X269862914Y-195014342D02*
X268577200Y-196942914D01*
X271148628Y-196585771D02*
X270291485Y-196585771D01*
X270720057Y-196585771D02*
X270720057Y-195085771D01*
X270577200Y-195300057D01*
X270434342Y-195442914D01*
X270291485Y-195514342D01*
D10*
D11*
X177002200Y-187507200D02*
X285002200Y-187507200D01*
D10*
D13*
X178714580Y-188211961D02*
X179857438Y-188211961D01*
X179036009Y-190211961D02*
X179286009Y-188211961D01*
X180274104Y-190211961D02*
X180440771Y-188878628D01*
X180524104Y-188211961D02*
X180416961Y-188307200D01*
X180500295Y-188402438D01*
X180607438Y-188307200D01*
X180524104Y-188211961D01*
X180500295Y-188402438D01*
X181107438Y-188878628D02*
X181869342Y-188878628D01*
X181476485Y-188211961D02*
X181262200Y-189926247D01*
X181333628Y-190116723D01*
X181512200Y-190211961D01*
X181702676Y-190211961D01*
X182655057Y-190211961D02*
X182476485Y-190116723D01*
X182405057Y-189926247D01*
X182619342Y-188211961D01*
X184190771Y-190116723D02*
X183988390Y-190211961D01*
X183607438Y-190211961D01*
X183428866Y-190116723D01*
X183357438Y-189926247D01*
X183452676Y-189164342D01*
X183571723Y-188973866D01*
X183774104Y-188878628D01*
X184155057Y-188878628D01*
X184333628Y-188973866D01*
X184405057Y-189164342D01*
X184381247Y-189354819D01*
X183405057Y-189545295D01*
X185155057Y-190021485D02*
X185238390Y-190116723D01*
X185131247Y-190211961D01*
X185047914Y-190116723D01*
X185155057Y-190021485D01*
X185131247Y-190211961D01*
X185286009Y-188973866D02*
X185369342Y-189069104D01*
X185262200Y-189164342D01*
X185178866Y-189069104D01*
X185286009Y-188973866D01*
X185262200Y-189164342D01*
D10*
D11*
X178934342Y-185600057D02*
X178434342Y-185600057D01*
X178434342Y-186385771D02*
X178434342Y-184885771D01*
X179148628Y-184885771D01*
X179720057Y-186385771D02*
X179720057Y-185385771D01*
X179720057Y-184885771D02*
X179648628Y-184957200D01*
X179720057Y-185028628D01*
X179791485Y-184957200D01*
X179720057Y-184885771D01*
X179720057Y-185028628D01*
X180648628Y-186385771D02*
X180505771Y-186314342D01*
X180434342Y-186171485D01*
X180434342Y-184885771D01*
X181791485Y-186314342D02*
X181648628Y-186385771D01*
X181362914Y-186385771D01*
X181220057Y-186314342D01*
X181148628Y-186171485D01*
X181148628Y-185600057D01*
X181220057Y-185457200D01*
X181362914Y-185385771D01*
X181648628Y-185385771D01*
X181791485Y-185457200D01*
X181862914Y-185600057D01*
X181862914Y-185742914D01*
X181148628Y-185885771D01*
X182505771Y-186242914D02*
X182577200Y-186314342D01*
X182505771Y-186385771D01*
X182434342Y-186314342D01*
X182505771Y-186242914D01*
X182505771Y-186385771D01*
X182505771Y-185457200D02*
X182577200Y-185528628D01*
X182505771Y-185600057D01*
X182434342Y-185528628D01*
X182505771Y-185457200D01*
X182505771Y-185600057D01*
X184291485Y-186314342D02*
X184434342Y-186385771D01*
X184720057Y-186385771D01*
X184862914Y-186314342D01*
X184934342Y-186171485D01*
X184934342Y-186100057D01*
X184862914Y-185957200D01*
X184720057Y-185885771D01*
X184505771Y-185885771D01*
X184362914Y-185814342D01*
X184291485Y-185671485D01*
X184291485Y-185600057D01*
X184362914Y-185457200D01*
X184505771Y-185385771D01*
X184720057Y-185385771D01*
X184862914Y-185457200D01*
X185362914Y-185385771D02*
X185934342Y-185385771D01*
X185577200Y-184885771D02*
X185577200Y-186171485D01*
X185648628Y-186314342D01*
X185791485Y-186385771D01*
X185934342Y-186385771D01*
X186434342Y-186385771D02*
X186434342Y-185385771D01*
X186434342Y-184885771D02*
X186362914Y-184957200D01*
X186434342Y-185028628D01*
X186505771Y-184957200D01*
X186434342Y-184885771D01*
X186434342Y-185028628D01*
X187148628Y-186385771D02*
X187148628Y-185385771D01*
X187148628Y-185528628D02*
X187220057Y-185457200D01*
X187362914Y-185385771D01*
X187577200Y-185385771D01*
X187720057Y-185457200D01*
X187791485Y-185600057D01*
X187791485Y-186385771D01*
X187791485Y-185600057D02*
X187862914Y-185457200D01*
X188005771Y-185385771D01*
X188220057Y-185385771D01*
X188362914Y-185457200D01*
X188434342Y-185600057D01*
X188434342Y-186385771D01*
X189148628Y-185385771D02*
X189148628Y-186671485D01*
X189077200Y-186814342D01*
X188934342Y-186885771D01*
X188862914Y-186885771D01*
X189148628Y-184885771D02*
X189077200Y-184957200D01*
X189148628Y-185028628D01*
X189220057Y-184957200D01*
X189148628Y-184885771D01*
X189148628Y-185028628D01*
X189862914Y-186385771D02*
X189862914Y-185385771D01*
X189862914Y-184885771D02*
X189791485Y-184957200D01*
X189862914Y-185028628D01*
X189934342Y-184957200D01*
X189862914Y-184885771D01*
X189862914Y-185028628D01*
X190577200Y-186385771D02*
X190577200Y-185385771D01*
X190577200Y-185528628D02*
X190648628Y-185457200D01*
X190791485Y-185385771D01*
X191005771Y-185385771D01*
X191148628Y-185457200D01*
X191220057Y-185600057D01*
X191220057Y-186385771D01*
X191220057Y-185600057D02*
X191291485Y-185457200D01*
X191434342Y-185385771D01*
X191648628Y-185385771D01*
X191791485Y-185457200D01*
X191862914Y-185600057D01*
X191862914Y-186385771D01*
X192577200Y-186242914D02*
X192648628Y-186314342D01*
X192577200Y-186385771D01*
X192505771Y-186314342D01*
X192577200Y-186242914D01*
X192577200Y-186385771D01*
X193291485Y-186385771D02*
X193291485Y-184885771D01*
X193434342Y-185814342D02*
X193862914Y-186385771D01*
X193862914Y-185385771D02*
X193291485Y-185957200D01*
X194505771Y-186385771D02*
X194505771Y-185385771D01*
X194505771Y-184885771D02*
X194434342Y-184957200D01*
X194505771Y-185028628D01*
X194577200Y-184957200D01*
X194505771Y-184885771D01*
X194505771Y-185028628D01*
X195862914Y-186314342D02*
X195720057Y-186385771D01*
X195434342Y-186385771D01*
X195291485Y-186314342D01*
X195220057Y-186242914D01*
X195148628Y-186100057D01*
X195148628Y-185671485D01*
X195220057Y-185528628D01*
X195291485Y-185457200D01*
X195434342Y-185385771D01*
X195720057Y-185385771D01*
X195862914Y-185457200D01*
X197148628Y-186385771D02*
X197148628Y-185600057D01*
X197077200Y-185457200D01*
X196934342Y-185385771D01*
X196648628Y-185385771D01*
X196505771Y-185457200D01*
X197148628Y-186314342D02*
X197005771Y-186385771D01*
X196648628Y-186385771D01*
X196505771Y-186314342D01*
X196434342Y-186171485D01*
X196434342Y-186028628D01*
X196505771Y-185885771D01*
X196648628Y-185814342D01*
X197005771Y-185814342D01*
X197148628Y-185742914D01*
X198505771Y-186385771D02*
X198505771Y-184885771D01*
X198505771Y-186314342D02*
X198362914Y-186385771D01*
X198077200Y-186385771D01*
X197934342Y-186314342D01*
X197862914Y-186242914D01*
X197791485Y-186100057D01*
X197791485Y-185671485D01*
X197862914Y-185528628D01*
X197934342Y-185457200D01*
X198077200Y-185385771D01*
X198362914Y-185385771D01*
X198505771Y-185457200D01*
X198862914Y-186528628D02*
X200005771Y-186528628D01*
X200362914Y-185385771D02*
X200362914Y-186885771D01*
X200362914Y-185457200D02*
X200505771Y-185385771D01*
X200791485Y-185385771D01*
X200934342Y-185457200D01*
X201005771Y-185528628D01*
X201077200Y-185671485D01*
X201077200Y-186100057D01*
X201005771Y-186242914D01*
X200934342Y-186314342D01*
X200791485Y-186385771D01*
X200505771Y-186385771D01*
X200362914Y-186314342D01*
X202362914Y-186314342D02*
X202220057Y-186385771D01*
X201934342Y-186385771D01*
X201791485Y-186314342D01*
X201720057Y-186242914D01*
X201648628Y-186100057D01*
X201648628Y-185671485D01*
X201720057Y-185528628D01*
X201791485Y-185457200D01*
X201934342Y-185385771D01*
X202220057Y-185385771D01*
X202362914Y-185457200D01*
X203005771Y-186385771D02*
X203005771Y-184885771D01*
X203005771Y-185457200D02*
X203148628Y-185385771D01*
X203434342Y-185385771D01*
X203577200Y-185457200D01*
X203648628Y-185528628D01*
X203720057Y-185671485D01*
X203720057Y-186100057D01*
X203648628Y-186242914D01*
X203577200Y-186314342D01*
X203434342Y-186385771D01*
X203148628Y-186385771D01*
X203005771Y-186314342D01*
D10*
D11*
X177002200Y-181507200D02*
X285002200Y-181507200D01*
D10*
D11*
X178362914Y-183614342D02*
X178577200Y-183685771D01*
X178934342Y-183685771D01*
X179077200Y-183614342D01*
X179148628Y-183542914D01*
X179220057Y-183400057D01*
X179220057Y-183257200D01*
X179148628Y-183114342D01*
X179077200Y-183042914D01*
X178934342Y-182971485D01*
X178648628Y-182900057D01*
X178505771Y-182828628D01*
X178434342Y-182757200D01*
X178362914Y-182614342D01*
X178362914Y-182471485D01*
X178434342Y-182328628D01*
X178505771Y-182257200D01*
X178648628Y-182185771D01*
X179005771Y-182185771D01*
X179220057Y-182257200D01*
X179862914Y-183685771D02*
X179862914Y-182185771D01*
X180505771Y-183685771D02*
X180505771Y-182900057D01*
X180434342Y-182757200D01*
X180291485Y-182685771D01*
X180077200Y-182685771D01*
X179934342Y-182757200D01*
X179862914Y-182828628D01*
X181791485Y-183614342D02*
X181648628Y-183685771D01*
X181362914Y-183685771D01*
X181220057Y-183614342D01*
X181148628Y-183471485D01*
X181148628Y-182900057D01*
X181220057Y-182757200D01*
X181362914Y-182685771D01*
X181648628Y-182685771D01*
X181791485Y-182757200D01*
X181862914Y-182900057D01*
X181862914Y-183042914D01*
X181148628Y-183185771D01*
X183077200Y-183614342D02*
X182934342Y-183685771D01*
X182648628Y-183685771D01*
X182505771Y-183614342D01*
X182434342Y-183471485D01*
X182434342Y-182900057D01*
X182505771Y-182757200D01*
X182648628Y-182685771D01*
X182934342Y-182685771D01*
X183077200Y-182757200D01*
X183148628Y-182900057D01*
X183148628Y-183042914D01*
X182434342Y-183185771D01*
X183577200Y-182685771D02*
X184148628Y-182685771D01*
X183791485Y-182185771D02*
X183791485Y-183471485D01*
X183862914Y-183614342D01*
X184005771Y-183685771D01*
X184148628Y-183685771D01*
X184648628Y-183542914D02*
X184720057Y-183614342D01*
X184648628Y-183685771D01*
X184577200Y-183614342D01*
X184648628Y-183542914D01*
X184648628Y-183685771D01*
X184648628Y-182757200D02*
X184720057Y-182828628D01*
X184648628Y-182900057D01*
X184577200Y-182828628D01*
X184648628Y-182757200D01*
X184648628Y-182900057D01*
D10*
D11*
X197002200Y-191507200D02*
X197002200Y-194507200D01*
D10*
D11*
X261002200Y-191507200D02*
X261002200Y-198007200D01*
D10*
G36*
X103920000Y-129610000D02*
X101920000Y-129610000D01*
X101920000Y-127610000D01*
X103920000Y-127610000D01*
X103920000Y-129610000D01*
X103920000Y-129610000D01*
G37*
G36*
X87855770Y-127625372D02*
X87971689Y-127648429D01*
X88153678Y-127723811D01*
X88317463Y-127833249D01*
X88456751Y-127972537D01*
X88566189Y-128136322D01*
X88641571Y-128318311D01*
X88680000Y-128511509D01*
X88680000Y-128708491D01*
X88641571Y-128901689D01*
X88566189Y-129083678D01*
X88456751Y-129247463D01*
X88317463Y-129386751D01*
X88153678Y-129496189D01*
X87971689Y-129571571D01*
X87855770Y-129594628D01*
X87778493Y-129610000D01*
X87581507Y-129610000D01*
X87504230Y-129594628D01*
X87388311Y-129571571D01*
X87206322Y-129496189D01*
X87042537Y-129386751D01*
X86903249Y-129247463D01*
X86793811Y-129083678D01*
X86718429Y-128901689D01*
X86680000Y-128708491D01*
X86680000Y-128511509D01*
X86718429Y-128318311D01*
X86793811Y-128136322D01*
X86903249Y-127972537D01*
X87042537Y-127833249D01*
X87206322Y-127723811D01*
X87388311Y-127648429D01*
X87504230Y-127625372D01*
X87581507Y-127610000D01*
X87778493Y-127610000D01*
X87855770Y-127625372D01*
X87855770Y-127625372D01*
G37*
G36*
X112430603Y-126474968D02*
X112430606Y-126474969D01*
X112430605Y-126474969D01*
X112605678Y-126547486D01*
X112605679Y-126547487D01*
X112763241Y-126652767D01*
X112897233Y-126786759D01*
X112942444Y-126854422D01*
X113002514Y-126944322D01*
X113007429Y-126956189D01*
X113075032Y-127119397D01*
X113112000Y-127305250D01*
X113112000Y-127494750D01*
X113075032Y-127680603D01*
X113075031Y-127680605D01*
X113002514Y-127855678D01*
X113002513Y-127855679D01*
X112897233Y-128013241D01*
X112763241Y-128147233D01*
X112683923Y-128200232D01*
X112605678Y-128252514D01*
X112470266Y-128308603D01*
X112430603Y-128325032D01*
X112244750Y-128362000D01*
X112055250Y-128362000D01*
X111869397Y-128325032D01*
X111829734Y-128308603D01*
X111694322Y-128252514D01*
X111616077Y-128200232D01*
X111536759Y-128147233D01*
X111402767Y-128013241D01*
X111297487Y-127855679D01*
X111297486Y-127855678D01*
X111224969Y-127680605D01*
X111224968Y-127680603D01*
X111188000Y-127494750D01*
X111188000Y-127305250D01*
X111224968Y-127119397D01*
X111292571Y-126956189D01*
X111297486Y-126944322D01*
X111357556Y-126854422D01*
X111402767Y-126786759D01*
X111536759Y-126652767D01*
X111694321Y-126547487D01*
X111694322Y-126547486D01*
X111869395Y-126474969D01*
X111869394Y-126474969D01*
X111869397Y-126474968D01*
X112055250Y-126438000D01*
X112244750Y-126438000D01*
X112430603Y-126474968D01*
X112430603Y-126474968D01*
G37*
G36*
X107930603Y-126474968D02*
X107930606Y-126474969D01*
X107930605Y-126474969D01*
X108105678Y-126547486D01*
X108105679Y-126547487D01*
X108263241Y-126652767D01*
X108397233Y-126786759D01*
X108442444Y-126854422D01*
X108502514Y-126944322D01*
X108507429Y-126956189D01*
X108575032Y-127119397D01*
X108612000Y-127305250D01*
X108612000Y-127494750D01*
X108575032Y-127680603D01*
X108575031Y-127680605D01*
X108502514Y-127855678D01*
X108502513Y-127855679D01*
X108397233Y-128013241D01*
X108263241Y-128147233D01*
X108183923Y-128200232D01*
X108105678Y-128252514D01*
X107970266Y-128308603D01*
X107930603Y-128325032D01*
X107744750Y-128362000D01*
X107555250Y-128362000D01*
X107369397Y-128325032D01*
X107329734Y-128308603D01*
X107194322Y-128252514D01*
X107116077Y-128200232D01*
X107036759Y-128147233D01*
X106902767Y-128013241D01*
X106797487Y-127855679D01*
X106797486Y-127855678D01*
X106724969Y-127680605D01*
X106724968Y-127680603D01*
X106688000Y-127494750D01*
X106688000Y-127305250D01*
X106724968Y-127119397D01*
X106792571Y-126956189D01*
X106797486Y-126944322D01*
X106857556Y-126854422D01*
X106902767Y-126786759D01*
X107036759Y-126652767D01*
X107194321Y-126547487D01*
X107194322Y-126547486D01*
X107369395Y-126474969D01*
X107369394Y-126474969D01*
X107369397Y-126474968D01*
X107555250Y-126438000D01*
X107744750Y-126438000D01*
X107930603Y-126474968D01*
X107930603Y-126474968D01*
G37*
G36*
X135100000Y-127100000D02*
X132900000Y-127100000D01*
X132900000Y-124900000D01*
X135100000Y-124900000D01*
X135100000Y-127100000D01*
X135100000Y-127100000D01*
G37*
G36*
X124600000Y-127100000D02*
X122400000Y-127100000D01*
X122400000Y-124900000D01*
X124600000Y-124900000D01*
X124600000Y-127100000D01*
X124600000Y-127100000D01*
G37*
G36*
X121320857Y-124942272D02*
X121521042Y-125025191D01*
X121701213Y-125145578D01*
X121854422Y-125298787D01*
X121974809Y-125478958D01*
X122057728Y-125679143D01*
X122100000Y-125891658D01*
X122100000Y-126108342D01*
X122057728Y-126320857D01*
X121974809Y-126521042D01*
X121974807Y-126521045D01*
X121886794Y-126652766D01*
X121854422Y-126701213D01*
X121701213Y-126854422D01*
X121521042Y-126974809D01*
X121320857Y-127057728D01*
X121108342Y-127100000D01*
X120891658Y-127100000D01*
X120679143Y-127057728D01*
X120478958Y-126974809D01*
X120298787Y-126854422D01*
X120145578Y-126701213D01*
X120113207Y-126652766D01*
X120025193Y-126521045D01*
X120025191Y-126521042D01*
X119942272Y-126320857D01*
X119900000Y-126108342D01*
X119900000Y-125891658D01*
X119942272Y-125679143D01*
X120025191Y-125478958D01*
X120145578Y-125298787D01*
X120298787Y-125145578D01*
X120478958Y-125025191D01*
X120679143Y-124942272D01*
X120891658Y-124900000D01*
X121108342Y-124900000D01*
X121320857Y-124942272D01*
X121320857Y-124942272D01*
G37*
G36*
X131820857Y-124942272D02*
X132021042Y-125025191D01*
X132201213Y-125145578D01*
X132354422Y-125298787D01*
X132474809Y-125478958D01*
X132557728Y-125679143D01*
X132600000Y-125891658D01*
X132600000Y-126108342D01*
X132557728Y-126320857D01*
X132474809Y-126521042D01*
X132474807Y-126521045D01*
X132386794Y-126652766D01*
X132354422Y-126701213D01*
X132201213Y-126854422D01*
X132021042Y-126974809D01*
X131820857Y-127057728D01*
X131608342Y-127100000D01*
X131391658Y-127100000D01*
X131179143Y-127057728D01*
X130978958Y-126974809D01*
X130798787Y-126854422D01*
X130645578Y-126701213D01*
X130613207Y-126652766D01*
X130525193Y-126521045D01*
X130525191Y-126521042D01*
X130442272Y-126320857D01*
X130400000Y-126108342D01*
X130400000Y-125891658D01*
X130442272Y-125679143D01*
X130525191Y-125478958D01*
X130645578Y-125298787D01*
X130798787Y-125145578D01*
X130978958Y-125025191D01*
X131179143Y-124942272D01*
X131391658Y-124900000D01*
X131608342Y-124900000D01*
X131820857Y-124942272D01*
X131820857Y-124942272D01*
G37*
G36*
X103095770Y-125085372D02*
X103211689Y-125108429D01*
X103393678Y-125183811D01*
X103557463Y-125293249D01*
X103696751Y-125432537D01*
X103806189Y-125596322D01*
X103881571Y-125778311D01*
X103892270Y-125832099D01*
X103918393Y-125963427D01*
X103920000Y-125971509D01*
X103920000Y-126168491D01*
X103881571Y-126361689D01*
X103806189Y-126543678D01*
X103696751Y-126707463D01*
X103557463Y-126846751D01*
X103393678Y-126956189D01*
X103211689Y-127031571D01*
X103095770Y-127054628D01*
X103018493Y-127070000D01*
X102821507Y-127070000D01*
X102744230Y-127054628D01*
X102628311Y-127031571D01*
X102446322Y-126956189D01*
X102282537Y-126846751D01*
X102143249Y-126707463D01*
X102033811Y-126543678D01*
X101958429Y-126361689D01*
X101920000Y-126168491D01*
X101920000Y-125971509D01*
X101921608Y-125963427D01*
X101947730Y-125832099D01*
X101958429Y-125778311D01*
X102033811Y-125596322D01*
X102143249Y-125432537D01*
X102282537Y-125293249D01*
X102446322Y-125183811D01*
X102628311Y-125108429D01*
X102744230Y-125085372D01*
X102821507Y-125070000D01*
X103018493Y-125070000D01*
X103095770Y-125085372D01*
X103095770Y-125085372D01*
G37*
G36*
X87855770Y-125085372D02*
X87971689Y-125108429D01*
X88153678Y-125183811D01*
X88317463Y-125293249D01*
X88456751Y-125432537D01*
X88566189Y-125596322D01*
X88641571Y-125778311D01*
X88652270Y-125832099D01*
X88678393Y-125963427D01*
X88680000Y-125971509D01*
X88680000Y-126168491D01*
X88641571Y-126361689D01*
X88566189Y-126543678D01*
X88456751Y-126707463D01*
X88317463Y-126846751D01*
X88153678Y-126956189D01*
X87971689Y-127031571D01*
X87855770Y-127054628D01*
X87778493Y-127070000D01*
X87581507Y-127070000D01*
X87504230Y-127054628D01*
X87388311Y-127031571D01*
X87206322Y-126956189D01*
X87042537Y-126846751D01*
X86903249Y-126707463D01*
X86793811Y-126543678D01*
X86718429Y-126361689D01*
X86680000Y-126168491D01*
X86680000Y-125971509D01*
X86681608Y-125963427D01*
X86707730Y-125832099D01*
X86718429Y-125778311D01*
X86793811Y-125596322D01*
X86903249Y-125432537D01*
X87042537Y-125293249D01*
X87206322Y-125183811D01*
X87388311Y-125108429D01*
X87504230Y-125085372D01*
X87581507Y-125070000D01*
X87778493Y-125070000D01*
X87855770Y-125085372D01*
X87855770Y-125085372D01*
G37*
G36*
X106750026Y-123746115D02*
X106968412Y-123836573D01*
X107164958Y-123967901D01*
X107332099Y-124135042D01*
X107463427Y-124331588D01*
X107553885Y-124549974D01*
X107600000Y-124781809D01*
X107600000Y-125018191D01*
X107553885Y-125250026D01*
X107463427Y-125468412D01*
X107332099Y-125664958D01*
X107164958Y-125832099D01*
X106968412Y-125963427D01*
X106750026Y-126053885D01*
X106518191Y-126100000D01*
X106281809Y-126100000D01*
X106049974Y-126053885D01*
X105831588Y-125963427D01*
X105635042Y-125832099D01*
X105467901Y-125664958D01*
X105336573Y-125468412D01*
X105246115Y-125250026D01*
X105200000Y-125018191D01*
X105200000Y-124781809D01*
X105246115Y-124549974D01*
X105336573Y-124331588D01*
X105467901Y-124135042D01*
X105635042Y-123967901D01*
X105831588Y-123836573D01*
X106049974Y-123746115D01*
X106281809Y-123700000D01*
X106518191Y-123700000D01*
X106750026Y-123746115D01*
X106750026Y-123746115D01*
G37*
G36*
X113750026Y-123746115D02*
X113968412Y-123836573D01*
X114164958Y-123967901D01*
X114332099Y-124135042D01*
X114463427Y-124331588D01*
X114553885Y-124549974D01*
X114600000Y-124781809D01*
X114600000Y-125018191D01*
X114553885Y-125250026D01*
X114463427Y-125468412D01*
X114332099Y-125664958D01*
X114164958Y-125832099D01*
X113968412Y-125963427D01*
X113750026Y-126053885D01*
X113518191Y-126100000D01*
X113281809Y-126100000D01*
X113049974Y-126053885D01*
X112831588Y-125963427D01*
X112635042Y-125832099D01*
X112467901Y-125664958D01*
X112336573Y-125468412D01*
X112246115Y-125250026D01*
X112200000Y-125018191D01*
X112200000Y-124781809D01*
X112246115Y-124549974D01*
X112336573Y-124331588D01*
X112467901Y-124135042D01*
X112635042Y-123967901D01*
X112831588Y-123836573D01*
X113049974Y-123746115D01*
X113281809Y-123700000D01*
X113518191Y-123700000D01*
X113750026Y-123746115D01*
X113750026Y-123746115D01*
G37*
G36*
X103095770Y-122545372D02*
X103211689Y-122568429D01*
X103393678Y-122643811D01*
X103557463Y-122753249D01*
X103696751Y-122892537D01*
X103806189Y-123056322D01*
X103881571Y-123238311D01*
X103904628Y-123354230D01*
X103920000Y-123431507D01*
X103920000Y-123628493D01*
X103916463Y-123646274D01*
X103881571Y-123821689D01*
X103806189Y-124003678D01*
X103696751Y-124167463D01*
X103557463Y-124306751D01*
X103393678Y-124416189D01*
X103211689Y-124491571D01*
X103095770Y-124514628D01*
X103018493Y-124530000D01*
X102821507Y-124530000D01*
X102744230Y-124514628D01*
X102628311Y-124491571D01*
X102446322Y-124416189D01*
X102282537Y-124306751D01*
X102143249Y-124167463D01*
X102033811Y-124003678D01*
X101958429Y-123821689D01*
X101923537Y-123646274D01*
X101920000Y-123628493D01*
X101920000Y-123431507D01*
X101935372Y-123354230D01*
X101958429Y-123238311D01*
X102033811Y-123056322D01*
X102143249Y-122892537D01*
X102282537Y-122753249D01*
X102446322Y-122643811D01*
X102628311Y-122568429D01*
X102744230Y-122545372D01*
X102821507Y-122530000D01*
X103018493Y-122530000D01*
X103095770Y-122545372D01*
X103095770Y-122545372D01*
G37*
G36*
X87855770Y-122545372D02*
X87971689Y-122568429D01*
X88153678Y-122643811D01*
X88317463Y-122753249D01*
X88456751Y-122892537D01*
X88566189Y-123056322D01*
X88641571Y-123238311D01*
X88664628Y-123354230D01*
X88680000Y-123431507D01*
X88680000Y-123628493D01*
X88676463Y-123646274D01*
X88641571Y-123821689D01*
X88566189Y-124003678D01*
X88456751Y-124167463D01*
X88317463Y-124306751D01*
X88153678Y-124416189D01*
X87971689Y-124491571D01*
X87855770Y-124514628D01*
X87778493Y-124530000D01*
X87581507Y-124530000D01*
X87504230Y-124514628D01*
X87388311Y-124491571D01*
X87206322Y-124416189D01*
X87042537Y-124306751D01*
X86903249Y-124167463D01*
X86793811Y-124003678D01*
X86718429Y-123821689D01*
X86683537Y-123646274D01*
X86680000Y-123628493D01*
X86680000Y-123431507D01*
X86695372Y-123354230D01*
X86718429Y-123238311D01*
X86793811Y-123056322D01*
X86903249Y-122892537D01*
X87042537Y-122753249D01*
X87206322Y-122643811D01*
X87388311Y-122568429D01*
X87504230Y-122545372D01*
X87581507Y-122530000D01*
X87778493Y-122530000D01*
X87855770Y-122545372D01*
X87855770Y-122545372D01*
G37*
G36*
X153485888Y-122294470D02*
X153666274Y-122330350D01*
X153857362Y-122409502D01*
X154029336Y-122524411D01*
X154175589Y-122670664D01*
X154290498Y-122842638D01*
X154369650Y-123033726D01*
X154410000Y-123236584D01*
X154410000Y-123443416D01*
X154369650Y-123646274D01*
X154290498Y-123837362D01*
X154175589Y-124009336D01*
X154029336Y-124155589D01*
X153857362Y-124270498D01*
X153666274Y-124349650D01*
X153485888Y-124385530D01*
X153463417Y-124390000D01*
X153256583Y-124390000D01*
X153234112Y-124385530D01*
X153053726Y-124349650D01*
X152862638Y-124270498D01*
X152690664Y-124155589D01*
X152544411Y-124009336D01*
X152429502Y-123837362D01*
X152350350Y-123646274D01*
X152310000Y-123443416D01*
X152310000Y-123236584D01*
X152350350Y-123033726D01*
X152429502Y-122842638D01*
X152544411Y-122670664D01*
X152690664Y-122524411D01*
X152862638Y-122409502D01*
X153053726Y-122330350D01*
X153234112Y-122294470D01*
X153256583Y-122290000D01*
X153463417Y-122290000D01*
X153485888Y-122294470D01*
X153485888Y-122294470D01*
G37*
G36*
X156025888Y-122294470D02*
X156206274Y-122330350D01*
X156397362Y-122409502D01*
X156569336Y-122524411D01*
X156715589Y-122670664D01*
X156830498Y-122842638D01*
X156909650Y-123033726D01*
X156950000Y-123236584D01*
X156950000Y-123443416D01*
X156909650Y-123646274D01*
X156830498Y-123837362D01*
X156715589Y-124009336D01*
X156569336Y-124155589D01*
X156397362Y-124270498D01*
X156206274Y-124349650D01*
X156025888Y-124385530D01*
X156003417Y-124390000D01*
X155796583Y-124390000D01*
X155774112Y-124385530D01*
X155593726Y-124349650D01*
X155402638Y-124270498D01*
X155230664Y-124155589D01*
X155084411Y-124009336D01*
X154969502Y-123837362D01*
X154890350Y-123646274D01*
X154850000Y-123443416D01*
X154850000Y-123236584D01*
X154890350Y-123033726D01*
X154969502Y-122842638D01*
X155084411Y-122670664D01*
X155230664Y-122524411D01*
X155402638Y-122409502D01*
X155593726Y-122330350D01*
X155774112Y-122294470D01*
X155796583Y-122290000D01*
X156003417Y-122290000D01*
X156025888Y-122294470D01*
X156025888Y-122294470D01*
G37*
G36*
X150945888Y-122294470D02*
X151126274Y-122330350D01*
X151317362Y-122409502D01*
X151489336Y-122524411D01*
X151635589Y-122670664D01*
X151750498Y-122842638D01*
X151829650Y-123033726D01*
X151870000Y-123236584D01*
X151870000Y-123443416D01*
X151829650Y-123646274D01*
X151750498Y-123837362D01*
X151635589Y-124009336D01*
X151489336Y-124155589D01*
X151317362Y-124270498D01*
X151126274Y-124349650D01*
X150945888Y-124385530D01*
X150923417Y-124390000D01*
X150716583Y-124390000D01*
X150694112Y-124385530D01*
X150513726Y-124349650D01*
X150322638Y-124270498D01*
X150150664Y-124155589D01*
X150004411Y-124009336D01*
X149889502Y-123837362D01*
X149810350Y-123646274D01*
X149770000Y-123443416D01*
X149770000Y-123236584D01*
X149810350Y-123033726D01*
X149889502Y-122842638D01*
X150004411Y-122670664D01*
X150150664Y-122524411D01*
X150322638Y-122409502D01*
X150513726Y-122330350D01*
X150694112Y-122294470D01*
X150716583Y-122290000D01*
X150923417Y-122290000D01*
X150945888Y-122294470D01*
X150945888Y-122294470D01*
G37*
G36*
X158565888Y-122294470D02*
X158746274Y-122330350D01*
X158937362Y-122409502D01*
X159109336Y-122524411D01*
X159255589Y-122670664D01*
X159370498Y-122842638D01*
X159449650Y-123033726D01*
X159490000Y-123236584D01*
X159490000Y-123443416D01*
X159449650Y-123646274D01*
X159370498Y-123837362D01*
X159255589Y-124009336D01*
X159109336Y-124155589D01*
X158937362Y-124270498D01*
X158746274Y-124349650D01*
X158565888Y-124385530D01*
X158543417Y-124390000D01*
X158336583Y-124390000D01*
X158314112Y-124385530D01*
X158133726Y-124349650D01*
X157942638Y-124270498D01*
X157770664Y-124155589D01*
X157624411Y-124009336D01*
X157509502Y-123837362D01*
X157430350Y-123646274D01*
X157390000Y-123443416D01*
X157390000Y-123236584D01*
X157430350Y-123033726D01*
X157509502Y-122842638D01*
X157624411Y-122670664D01*
X157770664Y-122524411D01*
X157942638Y-122409502D01*
X158133726Y-122330350D01*
X158314112Y-122294470D01*
X158336583Y-122290000D01*
X158543417Y-122290000D01*
X158565888Y-122294470D01*
X158565888Y-122294470D01*
G37*
G36*
X166185888Y-122294470D02*
X166366274Y-122330350D01*
X166557362Y-122409502D01*
X166729336Y-122524411D01*
X166875589Y-122670664D01*
X166990498Y-122842638D01*
X167069650Y-123033726D01*
X167110000Y-123236584D01*
X167110000Y-123443416D01*
X167069650Y-123646274D01*
X166990498Y-123837362D01*
X166875589Y-124009336D01*
X166729336Y-124155589D01*
X166557362Y-124270498D01*
X166366274Y-124349650D01*
X166185888Y-124385530D01*
X166163417Y-124390000D01*
X165956583Y-124390000D01*
X165934112Y-124385530D01*
X165753726Y-124349650D01*
X165562638Y-124270498D01*
X165390664Y-124155589D01*
X165244411Y-124009336D01*
X165129502Y-123837362D01*
X165050350Y-123646274D01*
X165010000Y-123443416D01*
X165010000Y-123236584D01*
X165050350Y-123033726D01*
X165129502Y-122842638D01*
X165244411Y-122670664D01*
X165390664Y-122524411D01*
X165562638Y-122409502D01*
X165753726Y-122330350D01*
X165934112Y-122294470D01*
X165956583Y-122290000D01*
X166163417Y-122290000D01*
X166185888Y-122294470D01*
X166185888Y-122294470D01*
G37*
G36*
X168725888Y-122294470D02*
X168906274Y-122330350D01*
X169097362Y-122409502D01*
X169269336Y-122524411D01*
X169415589Y-122670664D01*
X169530498Y-122842638D01*
X169609650Y-123033726D01*
X169650000Y-123236584D01*
X169650000Y-123443416D01*
X169609650Y-123646274D01*
X169530498Y-123837362D01*
X169415589Y-124009336D01*
X169269336Y-124155589D01*
X169097362Y-124270498D01*
X168906274Y-124349650D01*
X168725888Y-124385530D01*
X168703417Y-124390000D01*
X168496583Y-124390000D01*
X168474112Y-124385530D01*
X168293726Y-124349650D01*
X168102638Y-124270498D01*
X167930664Y-124155589D01*
X167784411Y-124009336D01*
X167669502Y-123837362D01*
X167590350Y-123646274D01*
X167550000Y-123443416D01*
X167550000Y-123236584D01*
X167590350Y-123033726D01*
X167669502Y-122842638D01*
X167784411Y-122670664D01*
X167930664Y-122524411D01*
X168102638Y-122409502D01*
X168293726Y-122330350D01*
X168474112Y-122294470D01*
X168496583Y-122290000D01*
X168703417Y-122290000D01*
X168725888Y-122294470D01*
X168725888Y-122294470D01*
G37*
G36*
X163645888Y-122294470D02*
X163826274Y-122330350D01*
X164017362Y-122409502D01*
X164189336Y-122524411D01*
X164335589Y-122670664D01*
X164450498Y-122842638D01*
X164529650Y-123033726D01*
X164570000Y-123236584D01*
X164570000Y-123443416D01*
X164529650Y-123646274D01*
X164450498Y-123837362D01*
X164335589Y-124009336D01*
X164189336Y-124155589D01*
X164017362Y-124270498D01*
X163826274Y-124349650D01*
X163645888Y-124385530D01*
X163623417Y-124390000D01*
X163416583Y-124390000D01*
X163394112Y-124385530D01*
X163213726Y-124349650D01*
X163022638Y-124270498D01*
X162850664Y-124155589D01*
X162704411Y-124009336D01*
X162589502Y-123837362D01*
X162510350Y-123646274D01*
X162470000Y-123443416D01*
X162470000Y-123236584D01*
X162510350Y-123033726D01*
X162589502Y-122842638D01*
X162704411Y-122670664D01*
X162850664Y-122524411D01*
X163022638Y-122409502D01*
X163213726Y-122330350D01*
X163394112Y-122294470D01*
X163416583Y-122290000D01*
X163623417Y-122290000D01*
X163645888Y-122294470D01*
X163645888Y-122294470D01*
G37*
G36*
X161105888Y-122294470D02*
X161286274Y-122330350D01*
X161477362Y-122409502D01*
X161649336Y-122524411D01*
X161795589Y-122670664D01*
X161910498Y-122842638D01*
X161989650Y-123033726D01*
X162030000Y-123236584D01*
X162030000Y-123443416D01*
X161989650Y-123646274D01*
X161910498Y-123837362D01*
X161795589Y-124009336D01*
X161649336Y-124155589D01*
X161477362Y-124270498D01*
X161286274Y-124349650D01*
X161105888Y-124385530D01*
X161083417Y-124390000D01*
X160876583Y-124390000D01*
X160854112Y-124385530D01*
X160673726Y-124349650D01*
X160482638Y-124270498D01*
X160310664Y-124155589D01*
X160164411Y-124009336D01*
X160049502Y-123837362D01*
X159970350Y-123646274D01*
X159930000Y-123443416D01*
X159930000Y-123236584D01*
X159970350Y-123033726D01*
X160049502Y-122842638D01*
X160164411Y-122670664D01*
X160310664Y-122524411D01*
X160482638Y-122409502D01*
X160673726Y-122330350D01*
X160854112Y-122294470D01*
X160876583Y-122290000D01*
X161083417Y-122290000D01*
X161105888Y-122294470D01*
X161105888Y-122294470D01*
G37*
G36*
X203344959Y-117672577D02*
X203685470Y-117740309D01*
X204113143Y-117917457D01*
X204498038Y-118174636D01*
X204825364Y-118501962D01*
X205082543Y-118886857D01*
X205259691Y-119314530D01*
X205350000Y-119768545D01*
X205350000Y-120231455D01*
X205259691Y-120685470D01*
X205082543Y-121113143D01*
X204825364Y-121498038D01*
X204498038Y-121825364D01*
X204113143Y-122082543D01*
X203685470Y-122259691D01*
X203344959Y-122327423D01*
X203231456Y-122350000D01*
X202768544Y-122350000D01*
X202655041Y-122327423D01*
X202314530Y-122259691D01*
X201886857Y-122082543D01*
X201501962Y-121825364D01*
X201174636Y-121498038D01*
X200917457Y-121113143D01*
X200740309Y-120685470D01*
X200650000Y-120231455D01*
X200650000Y-119768545D01*
X200740309Y-119314530D01*
X200917457Y-118886857D01*
X201174636Y-118501962D01*
X201501962Y-118174636D01*
X201886857Y-117917457D01*
X202314530Y-117740309D01*
X202655041Y-117672577D01*
X202768544Y-117650000D01*
X203231456Y-117650000D01*
X203344959Y-117672577D01*
X203344959Y-117672577D01*
G37*
G36*
X103095770Y-120005372D02*
X103211689Y-120028429D01*
X103393678Y-120103811D01*
X103557463Y-120213249D01*
X103696751Y-120352537D01*
X103806189Y-120516322D01*
X103881571Y-120698311D01*
X103904628Y-120814230D01*
X103920000Y-120891507D01*
X103920000Y-121088493D01*
X103904628Y-121165770D01*
X103881571Y-121281689D01*
X103806189Y-121463678D01*
X103696751Y-121627463D01*
X103557463Y-121766751D01*
X103393678Y-121876189D01*
X103211689Y-121951571D01*
X103095770Y-121974628D01*
X103018493Y-121990000D01*
X102821507Y-121990000D01*
X102744230Y-121974628D01*
X102628311Y-121951571D01*
X102446322Y-121876189D01*
X102282537Y-121766751D01*
X102143249Y-121627463D01*
X102033811Y-121463678D01*
X101958429Y-121281689D01*
X101935372Y-121165770D01*
X101920000Y-121088493D01*
X101920000Y-120891507D01*
X101935372Y-120814230D01*
X101958429Y-120698311D01*
X102033811Y-120516322D01*
X102143249Y-120352537D01*
X102282537Y-120213249D01*
X102446322Y-120103811D01*
X102628311Y-120028429D01*
X102744230Y-120005372D01*
X102821507Y-119990000D01*
X103018493Y-119990000D01*
X103095770Y-120005372D01*
X103095770Y-120005372D01*
G37*
G36*
X87855770Y-120005372D02*
X87971689Y-120028429D01*
X88153678Y-120103811D01*
X88317463Y-120213249D01*
X88456751Y-120352537D01*
X88566189Y-120516322D01*
X88641571Y-120698311D01*
X88664628Y-120814230D01*
X88680000Y-120891507D01*
X88680000Y-121088493D01*
X88664628Y-121165770D01*
X88641571Y-121281689D01*
X88566189Y-121463678D01*
X88456751Y-121627463D01*
X88317463Y-121766751D01*
X88153678Y-121876189D01*
X87971689Y-121951571D01*
X87855770Y-121974628D01*
X87778493Y-121990000D01*
X87581507Y-121990000D01*
X87504230Y-121974628D01*
X87388311Y-121951571D01*
X87206322Y-121876189D01*
X87042537Y-121766751D01*
X86903249Y-121627463D01*
X86793811Y-121463678D01*
X86718429Y-121281689D01*
X86695372Y-121165770D01*
X86680000Y-121088493D01*
X86680000Y-120891507D01*
X86695372Y-120814230D01*
X86718429Y-120698311D01*
X86793811Y-120516322D01*
X86903249Y-120352537D01*
X87042537Y-120213249D01*
X87206322Y-120103811D01*
X87388311Y-120028429D01*
X87504230Y-120005372D01*
X87581507Y-119990000D01*
X87778493Y-119990000D01*
X87855770Y-120005372D01*
X87855770Y-120005372D01*
G37*
G36*
X161105888Y-119754470D02*
X161286274Y-119790350D01*
X161477362Y-119869502D01*
X161649336Y-119984411D01*
X161795589Y-120130664D01*
X161910498Y-120302638D01*
X161989650Y-120493726D01*
X162030000Y-120696584D01*
X162030000Y-120903416D01*
X161989650Y-121106274D01*
X161910498Y-121297362D01*
X161795589Y-121469336D01*
X161649336Y-121615589D01*
X161477362Y-121730498D01*
X161286274Y-121809650D01*
X161105888Y-121845530D01*
X161083417Y-121850000D01*
X160876583Y-121850000D01*
X160854112Y-121845530D01*
X160673726Y-121809650D01*
X160482638Y-121730498D01*
X160310664Y-121615589D01*
X160164411Y-121469336D01*
X160049502Y-121297362D01*
X159970350Y-121106274D01*
X159930000Y-120903416D01*
X159930000Y-120696584D01*
X159970350Y-120493726D01*
X160049502Y-120302638D01*
X160164411Y-120130664D01*
X160310664Y-119984411D01*
X160482638Y-119869502D01*
X160673726Y-119790350D01*
X160854112Y-119754470D01*
X160876583Y-119750000D01*
X161083417Y-119750000D01*
X161105888Y-119754470D01*
X161105888Y-119754470D01*
G37*
G36*
X169650000Y-121850000D02*
X167550000Y-121850000D01*
X167550000Y-119750000D01*
X169650000Y-119750000D01*
X169650000Y-121850000D01*
X169650000Y-121850000D01*
G37*
G36*
X166185888Y-119754470D02*
X166366274Y-119790350D01*
X166557362Y-119869502D01*
X166729336Y-119984411D01*
X166875589Y-120130664D01*
X166990498Y-120302638D01*
X167069650Y-120493726D01*
X167110000Y-120696584D01*
X167110000Y-120903416D01*
X167069650Y-121106274D01*
X166990498Y-121297362D01*
X166875589Y-121469336D01*
X166729336Y-121615589D01*
X166557362Y-121730498D01*
X166366274Y-121809650D01*
X166185888Y-121845530D01*
X166163417Y-121850000D01*
X165956583Y-121850000D01*
X165934112Y-121845530D01*
X165753726Y-121809650D01*
X165562638Y-121730498D01*
X165390664Y-121615589D01*
X165244411Y-121469336D01*
X165129502Y-121297362D01*
X165050350Y-121106274D01*
X165010000Y-120903416D01*
X165010000Y-120696584D01*
X165050350Y-120493726D01*
X165129502Y-120302638D01*
X165244411Y-120130664D01*
X165390664Y-119984411D01*
X165562638Y-119869502D01*
X165753726Y-119790350D01*
X165934112Y-119754470D01*
X165956583Y-119750000D01*
X166163417Y-119750000D01*
X166185888Y-119754470D01*
X166185888Y-119754470D01*
G37*
G36*
X153485888Y-119754470D02*
X153666274Y-119790350D01*
X153857362Y-119869502D01*
X154029336Y-119984411D01*
X154175589Y-120130664D01*
X154290498Y-120302638D01*
X154369650Y-120493726D01*
X154410000Y-120696584D01*
X154410000Y-120903416D01*
X154369650Y-121106274D01*
X154290498Y-121297362D01*
X154175589Y-121469336D01*
X154029336Y-121615589D01*
X153857362Y-121730498D01*
X153666274Y-121809650D01*
X153485888Y-121845530D01*
X153463417Y-121850000D01*
X153256583Y-121850000D01*
X153234112Y-121845530D01*
X153053726Y-121809650D01*
X152862638Y-121730498D01*
X152690664Y-121615589D01*
X152544411Y-121469336D01*
X152429502Y-121297362D01*
X152350350Y-121106274D01*
X152310000Y-120903416D01*
X152310000Y-120696584D01*
X152350350Y-120493726D01*
X152429502Y-120302638D01*
X152544411Y-120130664D01*
X152690664Y-119984411D01*
X152862638Y-119869502D01*
X153053726Y-119790350D01*
X153234112Y-119754470D01*
X153256583Y-119750000D01*
X153463417Y-119750000D01*
X153485888Y-119754470D01*
X153485888Y-119754470D01*
G37*
G36*
X156025888Y-119754470D02*
X156206274Y-119790350D01*
X156397362Y-119869502D01*
X156569336Y-119984411D01*
X156715589Y-120130664D01*
X156830498Y-120302638D01*
X156909650Y-120493726D01*
X156950000Y-120696584D01*
X156950000Y-120903416D01*
X156909650Y-121106274D01*
X156830498Y-121297362D01*
X156715589Y-121469336D01*
X156569336Y-121615589D01*
X156397362Y-121730498D01*
X156206274Y-121809650D01*
X156025888Y-121845530D01*
X156003417Y-121850000D01*
X155796583Y-121850000D01*
X155774112Y-121845530D01*
X155593726Y-121809650D01*
X155402638Y-121730498D01*
X155230664Y-121615589D01*
X155084411Y-121469336D01*
X154969502Y-121297362D01*
X154890350Y-121106274D01*
X154850000Y-120903416D01*
X154850000Y-120696584D01*
X154890350Y-120493726D01*
X154969502Y-120302638D01*
X155084411Y-120130664D01*
X155230664Y-119984411D01*
X155402638Y-119869502D01*
X155593726Y-119790350D01*
X155774112Y-119754470D01*
X155796583Y-119750000D01*
X156003417Y-119750000D01*
X156025888Y-119754470D01*
X156025888Y-119754470D01*
G37*
G36*
X158565888Y-119754470D02*
X158746274Y-119790350D01*
X158937362Y-119869502D01*
X159109336Y-119984411D01*
X159255589Y-120130664D01*
X159370498Y-120302638D01*
X159449650Y-120493726D01*
X159490000Y-120696584D01*
X159490000Y-120903416D01*
X159449650Y-121106274D01*
X159370498Y-121297362D01*
X159255589Y-121469336D01*
X159109336Y-121615589D01*
X158937362Y-121730498D01*
X158746274Y-121809650D01*
X158565888Y-121845530D01*
X158543417Y-121850000D01*
X158336583Y-121850000D01*
X158314112Y-121845530D01*
X158133726Y-121809650D01*
X157942638Y-121730498D01*
X157770664Y-121615589D01*
X157624411Y-121469336D01*
X157509502Y-121297362D01*
X157430350Y-121106274D01*
X157390000Y-120903416D01*
X157390000Y-120696584D01*
X157430350Y-120493726D01*
X157509502Y-120302638D01*
X157624411Y-120130664D01*
X157770664Y-119984411D01*
X157942638Y-119869502D01*
X158133726Y-119790350D01*
X158314112Y-119754470D01*
X158336583Y-119750000D01*
X158543417Y-119750000D01*
X158565888Y-119754470D01*
X158565888Y-119754470D01*
G37*
G36*
X150945888Y-119754470D02*
X151126274Y-119790350D01*
X151317362Y-119869502D01*
X151489336Y-119984411D01*
X151635589Y-120130664D01*
X151750498Y-120302638D01*
X151829650Y-120493726D01*
X151870000Y-120696584D01*
X151870000Y-120903416D01*
X151829650Y-121106274D01*
X151750498Y-121297362D01*
X151635589Y-121469336D01*
X151489336Y-121615589D01*
X151317362Y-121730498D01*
X151126274Y-121809650D01*
X150945888Y-121845530D01*
X150923417Y-121850000D01*
X150716583Y-121850000D01*
X150694112Y-121845530D01*
X150513726Y-121809650D01*
X150322638Y-121730498D01*
X150150664Y-121615589D01*
X150004411Y-121469336D01*
X149889502Y-121297362D01*
X149810350Y-121106274D01*
X149770000Y-120903416D01*
X149770000Y-120696584D01*
X149810350Y-120493726D01*
X149889502Y-120302638D01*
X150004411Y-120130664D01*
X150150664Y-119984411D01*
X150322638Y-119869502D01*
X150513726Y-119790350D01*
X150694112Y-119754470D01*
X150716583Y-119750000D01*
X150923417Y-119750000D01*
X150945888Y-119754470D01*
X150945888Y-119754470D01*
G37*
G36*
X163645888Y-119754470D02*
X163826274Y-119790350D01*
X164017362Y-119869502D01*
X164189336Y-119984411D01*
X164335589Y-120130664D01*
X164450498Y-120302638D01*
X164529650Y-120493726D01*
X164570000Y-120696584D01*
X164570000Y-120903416D01*
X164529650Y-121106274D01*
X164450498Y-121297362D01*
X164335589Y-121469336D01*
X164189336Y-121615589D01*
X164017362Y-121730498D01*
X163826274Y-121809650D01*
X163645888Y-121845530D01*
X163623417Y-121850000D01*
X163416583Y-121850000D01*
X163394112Y-121845530D01*
X163213726Y-121809650D01*
X163022638Y-121730498D01*
X162850664Y-121615589D01*
X162704411Y-121469336D01*
X162589502Y-121297362D01*
X162510350Y-121106274D01*
X162470000Y-120903416D01*
X162470000Y-120696584D01*
X162510350Y-120493726D01*
X162589502Y-120302638D01*
X162704411Y-120130664D01*
X162850664Y-119984411D01*
X163022638Y-119869502D01*
X163213726Y-119790350D01*
X163394112Y-119754470D01*
X163416583Y-119750000D01*
X163623417Y-119750000D01*
X163645888Y-119754470D01*
X163645888Y-119754470D01*
G37*
G36*
X87855770Y-117465372D02*
X87971689Y-117488429D01*
X88153678Y-117563811D01*
X88317463Y-117673249D01*
X88456751Y-117812537D01*
X88566189Y-117976322D01*
X88641571Y-118158311D01*
X88680000Y-118351509D01*
X88680000Y-118548491D01*
X88641571Y-118741689D01*
X88566189Y-118923678D01*
X88456751Y-119087463D01*
X88317463Y-119226751D01*
X88153678Y-119336189D01*
X87971689Y-119411571D01*
X87855770Y-119434628D01*
X87778493Y-119450000D01*
X87581507Y-119450000D01*
X87504230Y-119434628D01*
X87388311Y-119411571D01*
X87206322Y-119336189D01*
X87042537Y-119226751D01*
X86903249Y-119087463D01*
X86793811Y-118923678D01*
X86718429Y-118741689D01*
X86680000Y-118548491D01*
X86680000Y-118351509D01*
X86718429Y-118158311D01*
X86793811Y-117976322D01*
X86903249Y-117812537D01*
X87042537Y-117673249D01*
X87206322Y-117563811D01*
X87388311Y-117488429D01*
X87504230Y-117465372D01*
X87581507Y-117450000D01*
X87778493Y-117450000D01*
X87855770Y-117465372D01*
X87855770Y-117465372D01*
G37*
G36*
X103095770Y-117465372D02*
X103211689Y-117488429D01*
X103393678Y-117563811D01*
X103557463Y-117673249D01*
X103696751Y-117812537D01*
X103806189Y-117976322D01*
X103881571Y-118158311D01*
X103920000Y-118351509D01*
X103920000Y-118548491D01*
X103881571Y-118741689D01*
X103806189Y-118923678D01*
X103696751Y-119087463D01*
X103557463Y-119226751D01*
X103393678Y-119336189D01*
X103211689Y-119411571D01*
X103095770Y-119434628D01*
X103018493Y-119450000D01*
X102821507Y-119450000D01*
X102744230Y-119434628D01*
X102628311Y-119411571D01*
X102446322Y-119336189D01*
X102282537Y-119226751D01*
X102143249Y-119087463D01*
X102033811Y-118923678D01*
X101958429Y-118741689D01*
X101920000Y-118548491D01*
X101920000Y-118351509D01*
X101958429Y-118158311D01*
X102033811Y-117976322D01*
X102143249Y-117812537D01*
X102282537Y-117673249D01*
X102446322Y-117563811D01*
X102628311Y-117488429D01*
X102744230Y-117465372D01*
X102821507Y-117450000D01*
X103018493Y-117450000D01*
X103095770Y-117465372D01*
X103095770Y-117465372D01*
G37*
G36*
X103095770Y-114925372D02*
X103211689Y-114948429D01*
X103393678Y-115023811D01*
X103557463Y-115133249D01*
X103696751Y-115272537D01*
X103806189Y-115436322D01*
X103881571Y-115618311D01*
X103920000Y-115811509D01*
X103920000Y-116008491D01*
X103881571Y-116201689D01*
X103806189Y-116383678D01*
X103696751Y-116547463D01*
X103557463Y-116686751D01*
X103393678Y-116796189D01*
X103211689Y-116871571D01*
X103095770Y-116894628D01*
X103018493Y-116910000D01*
X102821507Y-116910000D01*
X102744230Y-116894628D01*
X102628311Y-116871571D01*
X102446322Y-116796189D01*
X102282537Y-116686751D01*
X102143249Y-116547463D01*
X102033811Y-116383678D01*
X101958429Y-116201689D01*
X101920000Y-116008491D01*
X101920000Y-115811509D01*
X101958429Y-115618311D01*
X102033811Y-115436322D01*
X102143249Y-115272537D01*
X102282537Y-115133249D01*
X102446322Y-115023811D01*
X102628311Y-114948429D01*
X102744230Y-114925372D01*
X102821507Y-114910000D01*
X103018493Y-114910000D01*
X103095770Y-114925372D01*
X103095770Y-114925372D01*
G37*
G36*
X87855770Y-114925372D02*
X87971689Y-114948429D01*
X88153678Y-115023811D01*
X88317463Y-115133249D01*
X88456751Y-115272537D01*
X88566189Y-115436322D01*
X88641571Y-115618311D01*
X88680000Y-115811509D01*
X88680000Y-116008491D01*
X88641571Y-116201689D01*
X88566189Y-116383678D01*
X88456751Y-116547463D01*
X88317463Y-116686751D01*
X88153678Y-116796189D01*
X87971689Y-116871571D01*
X87855770Y-116894628D01*
X87778493Y-116910000D01*
X87581507Y-116910000D01*
X87504230Y-116894628D01*
X87388311Y-116871571D01*
X87206322Y-116796189D01*
X87042537Y-116686751D01*
X86903249Y-116547463D01*
X86793811Y-116383678D01*
X86718429Y-116201689D01*
X86680000Y-116008491D01*
X86680000Y-115811509D01*
X86718429Y-115618311D01*
X86793811Y-115436322D01*
X86903249Y-115272537D01*
X87042537Y-115133249D01*
X87206322Y-115023811D01*
X87388311Y-114948429D01*
X87504230Y-114925372D01*
X87581507Y-114910000D01*
X87778493Y-114910000D01*
X87855770Y-114925372D01*
X87855770Y-114925372D01*
G37*
G36*
X87855770Y-112385372D02*
X87971689Y-112408429D01*
X88153678Y-112483811D01*
X88317463Y-112593249D01*
X88456751Y-112732537D01*
X88566189Y-112896322D01*
X88641571Y-113078311D01*
X88680000Y-113271509D01*
X88680000Y-113468491D01*
X88641571Y-113661689D01*
X88566189Y-113843678D01*
X88456751Y-114007463D01*
X88317463Y-114146751D01*
X88153678Y-114256189D01*
X87971689Y-114331571D01*
X87855770Y-114354628D01*
X87778493Y-114370000D01*
X87581507Y-114370000D01*
X87504230Y-114354628D01*
X87388311Y-114331571D01*
X87206322Y-114256189D01*
X87042537Y-114146751D01*
X86903249Y-114007463D01*
X86793811Y-113843678D01*
X86718429Y-113661689D01*
X86680000Y-113468491D01*
X86680000Y-113271509D01*
X86718429Y-113078311D01*
X86793811Y-112896322D01*
X86903249Y-112732537D01*
X87042537Y-112593249D01*
X87206322Y-112483811D01*
X87388311Y-112408429D01*
X87504230Y-112385372D01*
X87581507Y-112370000D01*
X87778493Y-112370000D01*
X87855770Y-112385372D01*
X87855770Y-112385372D01*
G37*
G36*
X103095770Y-112385372D02*
X103211689Y-112408429D01*
X103393678Y-112483811D01*
X103557463Y-112593249D01*
X103696751Y-112732537D01*
X103806189Y-112896322D01*
X103881571Y-113078311D01*
X103920000Y-113271509D01*
X103920000Y-113468491D01*
X103881571Y-113661689D01*
X103806189Y-113843678D01*
X103696751Y-114007463D01*
X103557463Y-114146751D01*
X103393678Y-114256189D01*
X103211689Y-114331571D01*
X103095770Y-114354628D01*
X103018493Y-114370000D01*
X102821507Y-114370000D01*
X102744230Y-114354628D01*
X102628311Y-114331571D01*
X102446322Y-114256189D01*
X102282537Y-114146751D01*
X102143249Y-114007463D01*
X102033811Y-113843678D01*
X101958429Y-113661689D01*
X101920000Y-113468491D01*
X101920000Y-113271509D01*
X101958429Y-113078311D01*
X102033811Y-112896322D01*
X102143249Y-112732537D01*
X102282537Y-112593249D01*
X102446322Y-112483811D01*
X102628311Y-112408429D01*
X102744230Y-112385372D01*
X102821507Y-112370000D01*
X103018493Y-112370000D01*
X103095770Y-112385372D01*
X103095770Y-112385372D01*
G37*
G36*
X203280603Y-111074968D02*
X203280606Y-111074969D01*
X203280605Y-111074969D01*
X203455678Y-111147486D01*
X203455679Y-111147487D01*
X203613241Y-111252767D01*
X203747233Y-111386759D01*
X203800232Y-111466077D01*
X203852514Y-111544322D01*
X203896547Y-111650628D01*
X203925032Y-111719397D01*
X203962000Y-111905250D01*
X203962000Y-112094750D01*
X203925032Y-112280603D01*
X203925031Y-112280605D01*
X203852514Y-112455678D01*
X203852513Y-112455679D01*
X203747233Y-112613241D01*
X203613241Y-112747233D01*
X203533923Y-112800232D01*
X203455678Y-112852514D01*
X203349915Y-112896322D01*
X203280603Y-112925032D01*
X203094750Y-112962000D01*
X202905250Y-112962000D01*
X202719397Y-112925032D01*
X202650085Y-112896322D01*
X202544322Y-112852514D01*
X202466077Y-112800232D01*
X202386759Y-112747233D01*
X202252767Y-112613241D01*
X202147487Y-112455679D01*
X202147486Y-112455678D01*
X202074969Y-112280605D01*
X202074968Y-112280603D01*
X202038000Y-112094750D01*
X202038000Y-111905250D01*
X202074968Y-111719397D01*
X202103453Y-111650628D01*
X202147486Y-111544322D01*
X202199768Y-111466077D01*
X202252767Y-111386759D01*
X202386759Y-111252767D01*
X202544321Y-111147487D01*
X202544322Y-111147486D01*
X202719395Y-111074969D01*
X202719394Y-111074969D01*
X202719397Y-111074968D01*
X202905250Y-111038000D01*
X203094750Y-111038000D01*
X203280603Y-111074968D01*
X203280603Y-111074968D01*
G37*
G36*
X200780603Y-111074968D02*
X200780606Y-111074969D01*
X200780605Y-111074969D01*
X200955678Y-111147486D01*
X200955679Y-111147487D01*
X201113241Y-111252767D01*
X201247233Y-111386759D01*
X201300232Y-111466077D01*
X201352514Y-111544322D01*
X201396547Y-111650628D01*
X201425032Y-111719397D01*
X201462000Y-111905250D01*
X201462000Y-112094750D01*
X201425032Y-112280603D01*
X201425031Y-112280605D01*
X201352514Y-112455678D01*
X201352513Y-112455679D01*
X201247233Y-112613241D01*
X201113241Y-112747233D01*
X201033923Y-112800232D01*
X200955678Y-112852514D01*
X200849915Y-112896322D01*
X200780603Y-112925032D01*
X200594750Y-112962000D01*
X200405250Y-112962000D01*
X200219397Y-112925032D01*
X200150085Y-112896322D01*
X200044322Y-112852514D01*
X199966077Y-112800232D01*
X199886759Y-112747233D01*
X199752767Y-112613241D01*
X199647487Y-112455679D01*
X199647486Y-112455678D01*
X199574969Y-112280605D01*
X199574968Y-112280603D01*
X199538000Y-112094750D01*
X199538000Y-111905250D01*
X199574968Y-111719397D01*
X199603453Y-111650628D01*
X199647486Y-111544322D01*
X199699768Y-111466077D01*
X199752767Y-111386759D01*
X199886759Y-111252767D01*
X200044321Y-111147487D01*
X200044322Y-111147486D01*
X200219395Y-111074969D01*
X200219394Y-111074969D01*
X200219397Y-111074968D01*
X200405250Y-111038000D01*
X200594750Y-111038000D01*
X200780603Y-111074968D01*
X200780603Y-111074968D01*
G37*
G36*
X193280603Y-111074968D02*
X193280606Y-111074969D01*
X193280605Y-111074969D01*
X193455678Y-111147486D01*
X193455679Y-111147487D01*
X193613241Y-111252767D01*
X193747233Y-111386759D01*
X193800232Y-111466077D01*
X193852514Y-111544322D01*
X193896547Y-111650628D01*
X193925032Y-111719397D01*
X193962000Y-111905250D01*
X193962000Y-112094750D01*
X193925032Y-112280603D01*
X193925031Y-112280605D01*
X193852514Y-112455678D01*
X193852513Y-112455679D01*
X193747233Y-112613241D01*
X193613241Y-112747233D01*
X193533923Y-112800232D01*
X193455678Y-112852514D01*
X193349915Y-112896322D01*
X193280603Y-112925032D01*
X193094750Y-112962000D01*
X192905250Y-112962000D01*
X192719397Y-112925032D01*
X192650085Y-112896322D01*
X192544322Y-112852514D01*
X192466077Y-112800232D01*
X192386759Y-112747233D01*
X192252767Y-112613241D01*
X192147487Y-112455679D01*
X192147486Y-112455678D01*
X192074969Y-112280605D01*
X192074968Y-112280603D01*
X192038000Y-112094750D01*
X192038000Y-111905250D01*
X192074968Y-111719397D01*
X192103453Y-111650628D01*
X192147486Y-111544322D01*
X192199768Y-111466077D01*
X192252767Y-111386759D01*
X192386759Y-111252767D01*
X192544321Y-111147487D01*
X192544322Y-111147486D01*
X192719395Y-111074969D01*
X192719394Y-111074969D01*
X192719397Y-111074968D01*
X192905250Y-111038000D01*
X193094750Y-111038000D01*
X193280603Y-111074968D01*
X193280603Y-111074968D01*
G37*
G36*
X159530603Y-110374968D02*
X159530606Y-110374969D01*
X159530605Y-110374969D01*
X159705678Y-110447486D01*
X159705679Y-110447487D01*
X159863241Y-110552767D01*
X159997233Y-110686759D01*
X159997234Y-110686761D01*
X160102514Y-110844322D01*
X160137378Y-110928493D01*
X160175032Y-111019397D01*
X160212000Y-111205250D01*
X160212000Y-111394750D01*
X160175032Y-111580603D01*
X160175031Y-111580605D01*
X160102514Y-111755678D01*
X160102513Y-111755679D01*
X159997233Y-111913241D01*
X159863241Y-112047233D01*
X159792129Y-112094749D01*
X159705678Y-112152514D01*
X159570266Y-112208603D01*
X159530603Y-112225032D01*
X159344750Y-112262000D01*
X159155250Y-112262000D01*
X158969397Y-112225032D01*
X158929734Y-112208603D01*
X158794322Y-112152514D01*
X158707871Y-112094749D01*
X158636759Y-112047233D01*
X158502767Y-111913241D01*
X158397487Y-111755679D01*
X158397486Y-111755678D01*
X158324969Y-111580605D01*
X158324968Y-111580603D01*
X158288000Y-111394750D01*
X158288000Y-111205250D01*
X158324968Y-111019397D01*
X158362622Y-110928493D01*
X158397486Y-110844322D01*
X158502766Y-110686761D01*
X158502767Y-110686759D01*
X158636759Y-110552767D01*
X158794321Y-110447487D01*
X158794322Y-110447486D01*
X158969395Y-110374969D01*
X158969394Y-110374969D01*
X158969397Y-110374968D01*
X159155250Y-110338000D01*
X159344750Y-110338000D01*
X159530603Y-110374968D01*
X159530603Y-110374968D01*
G37*
G36*
X149530603Y-110374968D02*
X149530606Y-110374969D01*
X149530605Y-110374969D01*
X149705678Y-110447486D01*
X149705679Y-110447487D01*
X149863241Y-110552767D01*
X149997233Y-110686759D01*
X149997234Y-110686761D01*
X150102514Y-110844322D01*
X150137378Y-110928493D01*
X150175032Y-111019397D01*
X150212000Y-111205250D01*
X150212000Y-111394750D01*
X150175032Y-111580603D01*
X150175031Y-111580605D01*
X150102514Y-111755678D01*
X150102513Y-111755679D01*
X149997233Y-111913241D01*
X149863241Y-112047233D01*
X149792129Y-112094749D01*
X149705678Y-112152514D01*
X149570266Y-112208603D01*
X149530603Y-112225032D01*
X149344750Y-112262000D01*
X149155250Y-112262000D01*
X148969397Y-112225032D01*
X148929734Y-112208603D01*
X148794322Y-112152514D01*
X148707871Y-112094749D01*
X148636759Y-112047233D01*
X148502767Y-111913241D01*
X148397487Y-111755679D01*
X148397486Y-111755678D01*
X148324969Y-111580605D01*
X148324968Y-111580603D01*
X148288000Y-111394750D01*
X148288000Y-111205250D01*
X148324968Y-111019397D01*
X148362622Y-110928493D01*
X148397486Y-110844322D01*
X148502766Y-110686761D01*
X148502767Y-110686759D01*
X148636759Y-110552767D01*
X148794321Y-110447487D01*
X148794322Y-110447486D01*
X148969395Y-110374969D01*
X148969394Y-110374969D01*
X148969397Y-110374968D01*
X149155250Y-110338000D01*
X149344750Y-110338000D01*
X149530603Y-110374968D01*
X149530603Y-110374968D01*
G37*
G36*
X157030603Y-110374968D02*
X157030606Y-110374969D01*
X157030605Y-110374969D01*
X157205678Y-110447486D01*
X157205679Y-110447487D01*
X157363241Y-110552767D01*
X157497233Y-110686759D01*
X157497234Y-110686761D01*
X157602514Y-110844322D01*
X157637378Y-110928493D01*
X157675032Y-111019397D01*
X157712000Y-111205250D01*
X157712000Y-111394750D01*
X157675032Y-111580603D01*
X157675031Y-111580605D01*
X157602514Y-111755678D01*
X157602513Y-111755679D01*
X157497233Y-111913241D01*
X157363241Y-112047233D01*
X157292129Y-112094749D01*
X157205678Y-112152514D01*
X157070266Y-112208603D01*
X157030603Y-112225032D01*
X156844750Y-112262000D01*
X156655250Y-112262000D01*
X156469397Y-112225032D01*
X156429734Y-112208603D01*
X156294322Y-112152514D01*
X156207871Y-112094749D01*
X156136759Y-112047233D01*
X156002767Y-111913241D01*
X155897487Y-111755679D01*
X155897486Y-111755678D01*
X155824969Y-111580605D01*
X155824968Y-111580603D01*
X155788000Y-111394750D01*
X155788000Y-111205250D01*
X155824968Y-111019397D01*
X155862622Y-110928493D01*
X155897486Y-110844322D01*
X156002766Y-110686761D01*
X156002767Y-110686759D01*
X156136759Y-110552767D01*
X156294321Y-110447487D01*
X156294322Y-110447486D01*
X156469395Y-110374969D01*
X156469394Y-110374969D01*
X156469397Y-110374968D01*
X156655250Y-110338000D01*
X156844750Y-110338000D01*
X157030603Y-110374968D01*
X157030603Y-110374968D01*
G37*
G36*
X87854787Y-109845176D02*
X87971689Y-109868429D01*
X88153678Y-109943811D01*
X88317463Y-110053249D01*
X88456751Y-110192537D01*
X88566189Y-110356322D01*
X88641571Y-110538311D01*
X88680000Y-110731509D01*
X88680000Y-110928491D01*
X88641571Y-111121689D01*
X88566189Y-111303678D01*
X88456751Y-111467463D01*
X88317463Y-111606751D01*
X88153678Y-111716189D01*
X87971689Y-111791571D01*
X87855770Y-111814628D01*
X87778493Y-111830000D01*
X87581507Y-111830000D01*
X87504230Y-111814628D01*
X87388311Y-111791571D01*
X87206322Y-111716189D01*
X87042537Y-111606751D01*
X86903249Y-111467463D01*
X86793811Y-111303678D01*
X86718429Y-111121689D01*
X86680000Y-110928491D01*
X86680000Y-110731509D01*
X86718429Y-110538311D01*
X86793811Y-110356322D01*
X86903249Y-110192537D01*
X87042537Y-110053249D01*
X87206322Y-109943811D01*
X87388311Y-109868429D01*
X87505213Y-109845176D01*
X87581507Y-109830000D01*
X87778493Y-109830000D01*
X87854787Y-109845176D01*
X87854787Y-109845176D01*
G37*
G36*
X103094787Y-109845176D02*
X103211689Y-109868429D01*
X103393678Y-109943811D01*
X103557463Y-110053249D01*
X103696751Y-110192537D01*
X103806189Y-110356322D01*
X103881571Y-110538311D01*
X103920000Y-110731509D01*
X103920000Y-110928491D01*
X103881571Y-111121689D01*
X103806189Y-111303678D01*
X103696751Y-111467463D01*
X103557463Y-111606751D01*
X103393678Y-111716189D01*
X103211689Y-111791571D01*
X103095770Y-111814628D01*
X103018493Y-111830000D01*
X102821507Y-111830000D01*
X102744230Y-111814628D01*
X102628311Y-111791571D01*
X102446322Y-111716189D01*
X102282537Y-111606751D01*
X102143249Y-111467463D01*
X102033811Y-111303678D01*
X101958429Y-111121689D01*
X101920000Y-110928491D01*
X101920000Y-110731509D01*
X101958429Y-110538311D01*
X102033811Y-110356322D01*
X102143249Y-110192537D01*
X102282537Y-110053249D01*
X102446322Y-109943811D01*
X102628311Y-109868429D01*
X102745213Y-109845176D01*
X102821507Y-109830000D01*
X103018493Y-109830000D01*
X103094787Y-109845176D01*
X103094787Y-109845176D01*
G37*
G36*
X199007482Y-109530186D02*
X199052204Y-109543753D01*
X199093433Y-109565790D01*
X199129561Y-109595439D01*
X199159210Y-109631567D01*
X199181247Y-109672796D01*
X199194814Y-109717518D01*
X199200000Y-109770175D01*
X199200000Y-111429825D01*
X199194814Y-111482482D01*
X199181247Y-111527204D01*
X199159210Y-111568433D01*
X199129561Y-111604561D01*
X199093433Y-111634210D01*
X199052204Y-111656247D01*
X199007482Y-111669814D01*
X198954825Y-111675000D01*
X197620175Y-111675000D01*
X197567518Y-111669814D01*
X197522796Y-111656247D01*
X197481567Y-111634210D01*
X197445439Y-111604561D01*
X197415790Y-111568433D01*
X197393753Y-111527204D01*
X197380186Y-111482482D01*
X197375000Y-111429825D01*
X197375000Y-109770175D01*
X197380186Y-109717518D01*
X197393753Y-109672796D01*
X197415790Y-109631567D01*
X197445439Y-109595439D01*
X197481567Y-109565790D01*
X197522796Y-109543753D01*
X197567518Y-109530186D01*
X197620175Y-109525000D01*
X198954825Y-109525000D01*
X199007482Y-109530186D01*
X199007482Y-109530186D01*
G37*
G36*
X196032482Y-109530186D02*
X196077204Y-109543753D01*
X196118433Y-109565790D01*
X196154561Y-109595439D01*
X196184210Y-109631567D01*
X196206247Y-109672796D01*
X196219814Y-109717518D01*
X196225000Y-109770175D01*
X196225000Y-111429825D01*
X196219814Y-111482482D01*
X196206247Y-111527204D01*
X196184210Y-111568433D01*
X196154561Y-111604561D01*
X196118433Y-111634210D01*
X196077204Y-111656247D01*
X196032482Y-111669814D01*
X195979825Y-111675000D01*
X194645175Y-111675000D01*
X194592518Y-111669814D01*
X194547796Y-111656247D01*
X194506567Y-111634210D01*
X194470439Y-111604561D01*
X194440790Y-111568433D01*
X194418753Y-111527204D01*
X194405186Y-111482482D01*
X194400000Y-111429825D01*
X194400000Y-109770175D01*
X194405186Y-109717518D01*
X194418753Y-109672796D01*
X194440790Y-109631567D01*
X194470439Y-109595439D01*
X194506567Y-109565790D01*
X194547796Y-109543753D01*
X194592518Y-109530186D01*
X194645175Y-109525000D01*
X195979825Y-109525000D01*
X196032482Y-109530186D01*
X196032482Y-109530186D01*
G37*
G36*
X152232482Y-109430186D02*
X152277204Y-109443753D01*
X152318433Y-109465790D01*
X152354561Y-109495439D01*
X152384210Y-109531567D01*
X152406247Y-109572796D01*
X152419814Y-109617518D01*
X152425000Y-109670175D01*
X152425000Y-111329825D01*
X152419814Y-111382482D01*
X152406247Y-111427204D01*
X152384210Y-111468433D01*
X152354561Y-111504561D01*
X152318433Y-111534210D01*
X152277204Y-111556247D01*
X152232482Y-111569814D01*
X152179825Y-111575000D01*
X150845175Y-111575000D01*
X150792518Y-111569814D01*
X150747796Y-111556247D01*
X150706567Y-111534210D01*
X150670439Y-111504561D01*
X150640790Y-111468433D01*
X150618753Y-111427204D01*
X150605186Y-111382482D01*
X150600000Y-111329825D01*
X150600000Y-109670175D01*
X150605186Y-109617518D01*
X150618753Y-109572796D01*
X150640790Y-109531567D01*
X150670439Y-109495439D01*
X150706567Y-109465790D01*
X150747796Y-109443753D01*
X150792518Y-109430186D01*
X150845175Y-109425000D01*
X152179825Y-109425000D01*
X152232482Y-109430186D01*
X152232482Y-109430186D01*
G37*
G36*
X155207482Y-109430186D02*
X155252204Y-109443753D01*
X155293433Y-109465790D01*
X155329561Y-109495439D01*
X155359210Y-109531567D01*
X155381247Y-109572796D01*
X155394814Y-109617518D01*
X155400000Y-109670175D01*
X155400000Y-111329825D01*
X155394814Y-111382482D01*
X155381247Y-111427204D01*
X155359210Y-111468433D01*
X155329561Y-111504561D01*
X155293433Y-111534210D01*
X155252204Y-111556247D01*
X155207482Y-111569814D01*
X155154825Y-111575000D01*
X153820175Y-111575000D01*
X153767518Y-111569814D01*
X153722796Y-111556247D01*
X153681567Y-111534210D01*
X153645439Y-111504561D01*
X153615790Y-111468433D01*
X153593753Y-111427204D01*
X153580186Y-111382482D01*
X153575000Y-111329825D01*
X153575000Y-109670175D01*
X153580186Y-109617518D01*
X153593753Y-109572796D01*
X153615790Y-109531567D01*
X153645439Y-109495439D01*
X153681567Y-109465790D01*
X153722796Y-109443753D01*
X153767518Y-109430186D01*
X153820175Y-109425000D01*
X155154825Y-109425000D01*
X155207482Y-109430186D01*
X155207482Y-109430186D01*
G37*
G36*
X206320857Y-108442272D02*
X206521042Y-108525191D01*
X206521045Y-108525193D01*
X206690064Y-108638128D01*
X206701213Y-108645578D01*
X206854422Y-108798787D01*
X206974809Y-108978958D01*
X207057728Y-109179143D01*
X207100000Y-109391658D01*
X207100000Y-109608342D01*
X207057728Y-109820857D01*
X206974809Y-110021042D01*
X206854422Y-110201213D01*
X206701213Y-110354422D01*
X206701210Y-110354424D01*
X206701209Y-110354425D01*
X206561934Y-110447486D01*
X206521042Y-110474809D01*
X206320857Y-110557728D01*
X206108342Y-110600000D01*
X205891658Y-110600000D01*
X205679143Y-110557728D01*
X205478958Y-110474809D01*
X205438066Y-110447486D01*
X205298791Y-110354425D01*
X205298790Y-110354424D01*
X205298787Y-110354422D01*
X205145578Y-110201213D01*
X205025191Y-110021042D01*
X204942272Y-109820857D01*
X204900000Y-109608342D01*
X204900000Y-109391658D01*
X204942272Y-109179143D01*
X205025191Y-108978958D01*
X205145578Y-108798787D01*
X205298787Y-108645578D01*
X205309937Y-108638128D01*
X205478955Y-108525193D01*
X205478958Y-108525191D01*
X205679143Y-108442272D01*
X205891658Y-108400000D01*
X206108342Y-108400000D01*
X206320857Y-108442272D01*
X206320857Y-108442272D01*
G37*
G36*
X162570857Y-107742272D02*
X162771042Y-107825191D01*
X162951213Y-107945578D01*
X163104422Y-108098787D01*
X163224809Y-108278958D01*
X163307728Y-108479143D01*
X163350000Y-108691658D01*
X163350000Y-108908342D01*
X163307728Y-109120857D01*
X163224809Y-109321042D01*
X163224807Y-109321045D01*
X163151236Y-109431152D01*
X163104422Y-109501213D01*
X162951213Y-109654422D01*
X162951210Y-109654424D01*
X162951209Y-109654425D01*
X162908873Y-109682713D01*
X162771042Y-109774809D01*
X162570857Y-109857728D01*
X162358342Y-109900000D01*
X162141658Y-109900000D01*
X161929143Y-109857728D01*
X161728958Y-109774809D01*
X161591127Y-109682713D01*
X161548791Y-109654425D01*
X161548790Y-109654424D01*
X161548787Y-109654422D01*
X161395578Y-109501213D01*
X161348765Y-109431152D01*
X161275193Y-109321045D01*
X161275191Y-109321042D01*
X161192272Y-109120857D01*
X161150000Y-108908342D01*
X161150000Y-108691658D01*
X161192272Y-108479143D01*
X161275191Y-108278958D01*
X161395578Y-108098787D01*
X161548787Y-107945578D01*
X161728958Y-107825191D01*
X161929143Y-107742272D01*
X162141658Y-107700000D01*
X162358342Y-107700000D01*
X162570857Y-107742272D01*
X162570857Y-107742272D01*
G37*
G36*
X103095770Y-107305372D02*
X103211689Y-107328429D01*
X103393678Y-107403811D01*
X103557463Y-107513249D01*
X103696751Y-107652537D01*
X103806189Y-107816322D01*
X103881571Y-107998311D01*
X103901557Y-108098787D01*
X103920000Y-108191507D01*
X103920000Y-108388493D01*
X103909302Y-108442273D01*
X103881571Y-108581689D01*
X103806189Y-108763678D01*
X103696751Y-108927463D01*
X103557463Y-109066751D01*
X103393678Y-109176189D01*
X103211689Y-109251571D01*
X103095770Y-109274628D01*
X103018493Y-109290000D01*
X102821507Y-109290000D01*
X102744230Y-109274628D01*
X102628311Y-109251571D01*
X102446322Y-109176189D01*
X102282537Y-109066751D01*
X102143249Y-108927463D01*
X102033811Y-108763678D01*
X101958429Y-108581689D01*
X101930698Y-108442273D01*
X101920000Y-108388493D01*
X101920000Y-108191507D01*
X101938443Y-108098787D01*
X101958429Y-107998311D01*
X102033811Y-107816322D01*
X102143249Y-107652537D01*
X102282537Y-107513249D01*
X102446322Y-107403811D01*
X102628311Y-107328429D01*
X102744230Y-107305372D01*
X102821507Y-107290000D01*
X103018493Y-107290000D01*
X103095770Y-107305372D01*
X103095770Y-107305372D01*
G37*
G36*
X87855770Y-107305372D02*
X87971689Y-107328429D01*
X88153678Y-107403811D01*
X88317463Y-107513249D01*
X88456751Y-107652537D01*
X88566189Y-107816322D01*
X88641571Y-107998311D01*
X88661557Y-108098787D01*
X88680000Y-108191507D01*
X88680000Y-108388493D01*
X88669302Y-108442273D01*
X88641571Y-108581689D01*
X88566189Y-108763678D01*
X88456751Y-108927463D01*
X88317463Y-109066751D01*
X88153678Y-109176189D01*
X87971689Y-109251571D01*
X87855770Y-109274628D01*
X87778493Y-109290000D01*
X87581507Y-109290000D01*
X87504230Y-109274628D01*
X87388311Y-109251571D01*
X87206322Y-109176189D01*
X87042537Y-109066751D01*
X86903249Y-108927463D01*
X86793811Y-108763678D01*
X86718429Y-108581689D01*
X86690698Y-108442273D01*
X86680000Y-108388493D01*
X86680000Y-108191507D01*
X86698443Y-108098787D01*
X86718429Y-107998311D01*
X86793811Y-107816322D01*
X86903249Y-107652537D01*
X87042537Y-107513249D01*
X87206322Y-107403811D01*
X87388311Y-107328429D01*
X87504230Y-107305372D01*
X87581507Y-107290000D01*
X87778493Y-107290000D01*
X87855770Y-107305372D01*
X87855770Y-107305372D01*
G37*
G36*
X195832482Y-106842686D02*
X195877204Y-106856253D01*
X195918433Y-106878290D01*
X195954561Y-106907939D01*
X195984210Y-106944067D01*
X196006247Y-106985296D01*
X196019814Y-107030018D01*
X196025000Y-107082675D01*
X196025000Y-108417325D01*
X196019814Y-108469982D01*
X196006247Y-108514704D01*
X195984210Y-108555933D01*
X195954561Y-108592061D01*
X195918433Y-108621710D01*
X195877204Y-108643747D01*
X195832482Y-108657314D01*
X195779825Y-108662500D01*
X193220175Y-108662500D01*
X193167518Y-108657314D01*
X193122796Y-108643747D01*
X193081567Y-108621710D01*
X193045439Y-108592061D01*
X193015790Y-108555933D01*
X192993753Y-108514704D01*
X192980186Y-108469982D01*
X192975000Y-108417325D01*
X192975000Y-107082675D01*
X192980186Y-107030018D01*
X192993753Y-106985296D01*
X193015790Y-106944067D01*
X193045439Y-106907939D01*
X193081567Y-106878290D01*
X193122796Y-106856253D01*
X193167518Y-106842686D01*
X193220175Y-106837500D01*
X195779825Y-106837500D01*
X195832482Y-106842686D01*
X195832482Y-106842686D01*
G37*
G36*
X200582482Y-106830186D02*
X200627204Y-106843753D01*
X200668433Y-106865790D01*
X200704561Y-106895439D01*
X200734210Y-106931567D01*
X200756247Y-106972796D01*
X200769814Y-107017518D01*
X200775000Y-107070175D01*
X200775000Y-108404825D01*
X200769814Y-108457482D01*
X200756247Y-108502204D01*
X200734210Y-108543433D01*
X200704561Y-108579561D01*
X200668433Y-108609210D01*
X200627204Y-108631247D01*
X200582482Y-108644814D01*
X200529825Y-108650000D01*
X197970175Y-108650000D01*
X197917518Y-108644814D01*
X197872796Y-108631247D01*
X197831567Y-108609210D01*
X197795439Y-108579561D01*
X197765790Y-108543433D01*
X197743753Y-108502204D01*
X197730186Y-108457482D01*
X197725000Y-108404825D01*
X197725000Y-107070175D01*
X197730186Y-107017518D01*
X197743753Y-106972796D01*
X197765790Y-106931567D01*
X197795439Y-106895439D01*
X197831567Y-106865790D01*
X197872796Y-106843753D01*
X197917518Y-106830186D01*
X197970175Y-106825000D01*
X200529825Y-106825000D01*
X200582482Y-106830186D01*
X200582482Y-106830186D01*
G37*
G36*
X156832482Y-106830186D02*
X156877204Y-106843753D01*
X156918433Y-106865790D01*
X156954561Y-106895439D01*
X156984210Y-106931567D01*
X157006247Y-106972796D01*
X157019814Y-107017518D01*
X157025000Y-107070175D01*
X157025000Y-108404825D01*
X157019814Y-108457482D01*
X157006247Y-108502204D01*
X156984210Y-108543433D01*
X156954561Y-108579561D01*
X156918433Y-108609210D01*
X156877204Y-108631247D01*
X156832482Y-108644814D01*
X156779825Y-108650000D01*
X154220175Y-108650000D01*
X154167518Y-108644814D01*
X154122796Y-108631247D01*
X154081567Y-108609210D01*
X154045439Y-108579561D01*
X154015790Y-108543433D01*
X153993753Y-108502204D01*
X153980186Y-108457482D01*
X153975000Y-108404825D01*
X153975000Y-107070175D01*
X153980186Y-107017518D01*
X153993753Y-106972796D01*
X154015790Y-106931567D01*
X154045439Y-106895439D01*
X154081567Y-106865790D01*
X154122796Y-106843753D01*
X154167518Y-106830186D01*
X154220175Y-106825000D01*
X156779825Y-106825000D01*
X156832482Y-106830186D01*
X156832482Y-106830186D01*
G37*
G36*
X152082482Y-106817686D02*
X152127204Y-106831253D01*
X152168433Y-106853290D01*
X152204561Y-106882939D01*
X152234210Y-106919067D01*
X152256247Y-106960296D01*
X152269814Y-107005018D01*
X152275000Y-107057675D01*
X152275000Y-108392325D01*
X152269814Y-108444982D01*
X152256247Y-108489704D01*
X152234210Y-108530933D01*
X152204561Y-108567061D01*
X152168433Y-108596710D01*
X152127204Y-108618747D01*
X152082482Y-108632314D01*
X152029825Y-108637500D01*
X149470175Y-108637500D01*
X149417518Y-108632314D01*
X149372796Y-108618747D01*
X149331567Y-108596710D01*
X149295439Y-108567061D01*
X149265790Y-108530933D01*
X149243753Y-108489704D01*
X149230186Y-108444982D01*
X149225000Y-108392325D01*
X149225000Y-107057675D01*
X149230186Y-107005018D01*
X149243753Y-106960296D01*
X149265790Y-106919067D01*
X149295439Y-106882939D01*
X149331567Y-106853290D01*
X149372796Y-106831253D01*
X149417518Y-106817686D01*
X149470175Y-106812500D01*
X152029825Y-106812500D01*
X152082482Y-106817686D01*
X152082482Y-106817686D01*
G37*
G36*
X87855770Y-104765372D02*
X87971689Y-104788429D01*
X88153678Y-104863811D01*
X88317463Y-104973249D01*
X88456751Y-105112537D01*
X88566189Y-105276322D01*
X88641571Y-105458311D01*
X88657761Y-105539704D01*
X88679046Y-105646710D01*
X88680000Y-105651509D01*
X88680000Y-105848491D01*
X88641571Y-106041689D01*
X88566189Y-106223678D01*
X88456751Y-106387463D01*
X88317463Y-106526751D01*
X88153678Y-106636189D01*
X87971689Y-106711571D01*
X87855770Y-106734628D01*
X87778493Y-106750000D01*
X87581507Y-106750000D01*
X87504230Y-106734628D01*
X87388311Y-106711571D01*
X87206322Y-106636189D01*
X87042537Y-106526751D01*
X86903249Y-106387463D01*
X86793811Y-106223678D01*
X86718429Y-106041689D01*
X86680000Y-105848491D01*
X86680000Y-105651509D01*
X86680955Y-105646710D01*
X86702239Y-105539704D01*
X86718429Y-105458311D01*
X86793811Y-105276322D01*
X86903249Y-105112537D01*
X87042537Y-104973249D01*
X87206322Y-104863811D01*
X87388311Y-104788429D01*
X87504230Y-104765372D01*
X87581507Y-104750000D01*
X87778493Y-104750000D01*
X87855770Y-104765372D01*
X87855770Y-104765372D01*
G37*
G36*
X103095770Y-104765372D02*
X103211689Y-104788429D01*
X103393678Y-104863811D01*
X103557463Y-104973249D01*
X103696751Y-105112537D01*
X103806189Y-105276322D01*
X103881571Y-105458311D01*
X103897761Y-105539704D01*
X103919046Y-105646710D01*
X103920000Y-105651509D01*
X103920000Y-105848491D01*
X103881571Y-106041689D01*
X103806189Y-106223678D01*
X103696751Y-106387463D01*
X103557463Y-106526751D01*
X103393678Y-106636189D01*
X103211689Y-106711571D01*
X103095770Y-106734628D01*
X103018493Y-106750000D01*
X102821507Y-106750000D01*
X102744230Y-106734628D01*
X102628311Y-106711571D01*
X102446322Y-106636189D01*
X102282537Y-106526751D01*
X102143249Y-106387463D01*
X102033811Y-106223678D01*
X101958429Y-106041689D01*
X101920000Y-105848491D01*
X101920000Y-105651509D01*
X101920955Y-105646710D01*
X101942239Y-105539704D01*
X101958429Y-105458311D01*
X102033811Y-105276322D01*
X102143249Y-105112537D01*
X102282537Y-104973249D01*
X102446322Y-104863811D01*
X102628311Y-104788429D01*
X102744230Y-104765372D01*
X102821507Y-104750000D01*
X103018493Y-104750000D01*
X103095770Y-104765372D01*
X103095770Y-104765372D01*
G37*
G36*
X195832482Y-103867686D02*
X195877204Y-103881253D01*
X195918433Y-103903290D01*
X195954561Y-103932939D01*
X195984210Y-103969067D01*
X196006247Y-104010296D01*
X196019814Y-104055018D01*
X196025000Y-104107675D01*
X196025000Y-105442325D01*
X196019814Y-105494982D01*
X196006247Y-105539704D01*
X195984210Y-105580933D01*
X195954561Y-105617061D01*
X195918433Y-105646710D01*
X195877204Y-105668747D01*
X195832482Y-105682314D01*
X195779825Y-105687500D01*
X193220175Y-105687500D01*
X193167518Y-105682314D01*
X193122796Y-105668747D01*
X193081567Y-105646710D01*
X193045439Y-105617061D01*
X193015790Y-105580933D01*
X192993753Y-105539704D01*
X192980186Y-105494982D01*
X192975000Y-105442325D01*
X192975000Y-104107675D01*
X192980186Y-104055018D01*
X192993753Y-104010296D01*
X193015790Y-103969067D01*
X193045439Y-103932939D01*
X193081567Y-103903290D01*
X193122796Y-103881253D01*
X193167518Y-103867686D01*
X193220175Y-103862500D01*
X195779825Y-103862500D01*
X195832482Y-103867686D01*
X195832482Y-103867686D01*
G37*
G36*
X200582482Y-103855186D02*
X200627204Y-103868753D01*
X200668433Y-103890790D01*
X200704561Y-103920439D01*
X200734210Y-103956567D01*
X200756247Y-103997796D01*
X200769814Y-104042518D01*
X200775000Y-104095175D01*
X200775000Y-105429825D01*
X200769814Y-105482482D01*
X200756247Y-105527204D01*
X200734210Y-105568433D01*
X200704561Y-105604561D01*
X200668433Y-105634210D01*
X200627204Y-105656247D01*
X200582482Y-105669814D01*
X200529825Y-105675000D01*
X197970175Y-105675000D01*
X197917518Y-105669814D01*
X197872796Y-105656247D01*
X197831567Y-105634210D01*
X197795439Y-105604561D01*
X197765790Y-105568433D01*
X197743753Y-105527204D01*
X197730186Y-105482482D01*
X197725000Y-105429825D01*
X197725000Y-104095175D01*
X197730186Y-104042518D01*
X197743753Y-103997796D01*
X197765790Y-103956567D01*
X197795439Y-103920439D01*
X197831567Y-103890790D01*
X197872796Y-103868753D01*
X197917518Y-103855186D01*
X197970175Y-103850000D01*
X200529825Y-103850000D01*
X200582482Y-103855186D01*
X200582482Y-103855186D01*
G37*
G36*
X156832482Y-103855186D02*
X156877204Y-103868753D01*
X156918433Y-103890790D01*
X156954561Y-103920439D01*
X156984210Y-103956567D01*
X157006247Y-103997796D01*
X157019814Y-104042518D01*
X157025000Y-104095175D01*
X157025000Y-105429825D01*
X157019814Y-105482482D01*
X157006247Y-105527204D01*
X156984210Y-105568433D01*
X156954561Y-105604561D01*
X156918433Y-105634210D01*
X156877204Y-105656247D01*
X156832482Y-105669814D01*
X156779825Y-105675000D01*
X154220175Y-105675000D01*
X154167518Y-105669814D01*
X154122796Y-105656247D01*
X154081567Y-105634210D01*
X154045439Y-105604561D01*
X154015790Y-105568433D01*
X153993753Y-105527204D01*
X153980186Y-105482482D01*
X153975000Y-105429825D01*
X153975000Y-104095175D01*
X153980186Y-104042518D01*
X153993753Y-103997796D01*
X154015790Y-103956567D01*
X154045439Y-103920439D01*
X154081567Y-103890790D01*
X154122796Y-103868753D01*
X154167518Y-103855186D01*
X154220175Y-103850000D01*
X156779825Y-103850000D01*
X156832482Y-103855186D01*
X156832482Y-103855186D01*
G37*
G36*
X152082482Y-103842686D02*
X152127204Y-103856253D01*
X152168433Y-103878290D01*
X152204561Y-103907939D01*
X152234210Y-103944067D01*
X152256247Y-103985296D01*
X152269814Y-104030018D01*
X152275000Y-104082675D01*
X152275000Y-105417325D01*
X152269814Y-105469982D01*
X152256247Y-105514704D01*
X152234210Y-105555933D01*
X152204561Y-105592061D01*
X152168433Y-105621710D01*
X152127204Y-105643747D01*
X152082482Y-105657314D01*
X152029825Y-105662500D01*
X149470175Y-105662500D01*
X149417518Y-105657314D01*
X149372796Y-105643747D01*
X149331567Y-105621710D01*
X149295439Y-105592061D01*
X149265790Y-105555933D01*
X149243753Y-105514704D01*
X149230186Y-105469982D01*
X149225000Y-105417325D01*
X149225000Y-104082675D01*
X149230186Y-104030018D01*
X149243753Y-103985296D01*
X149265790Y-103944067D01*
X149295439Y-103907939D01*
X149331567Y-103878290D01*
X149372796Y-103856253D01*
X149417518Y-103842686D01*
X149470175Y-103837500D01*
X152029825Y-103837500D01*
X152082482Y-103842686D01*
X152082482Y-103842686D01*
G37*
G36*
X103095770Y-102225372D02*
X103211689Y-102248429D01*
X103393678Y-102323811D01*
X103557463Y-102433249D01*
X103696751Y-102572537D01*
X103806189Y-102736322D01*
X103881571Y-102918311D01*
X103920000Y-103111509D01*
X103920000Y-103308491D01*
X103881571Y-103501689D01*
X103806189Y-103683678D01*
X103696751Y-103847463D01*
X103557463Y-103986751D01*
X103393678Y-104096189D01*
X103211689Y-104171571D01*
X103095770Y-104194628D01*
X103018493Y-104210000D01*
X102821507Y-104210000D01*
X102744230Y-104194628D01*
X102628311Y-104171571D01*
X102446322Y-104096189D01*
X102282537Y-103986751D01*
X102143249Y-103847463D01*
X102033811Y-103683678D01*
X101958429Y-103501689D01*
X101920000Y-103308491D01*
X101920000Y-103111509D01*
X101958429Y-102918311D01*
X102033811Y-102736322D01*
X102143249Y-102572537D01*
X102282537Y-102433249D01*
X102446322Y-102323811D01*
X102628311Y-102248429D01*
X102744230Y-102225372D01*
X102821507Y-102210000D01*
X103018493Y-102210000D01*
X103095770Y-102225372D01*
X103095770Y-102225372D01*
G37*
G36*
X87855770Y-102225372D02*
X87971689Y-102248429D01*
X88153678Y-102323811D01*
X88317463Y-102433249D01*
X88456751Y-102572537D01*
X88566189Y-102736322D01*
X88641571Y-102918311D01*
X88680000Y-103111509D01*
X88680000Y-103308491D01*
X88641571Y-103501689D01*
X88566189Y-103683678D01*
X88456751Y-103847463D01*
X88317463Y-103986751D01*
X88153678Y-104096189D01*
X87971689Y-104171571D01*
X87855770Y-104194628D01*
X87778493Y-104210000D01*
X87581507Y-104210000D01*
X87504230Y-104194628D01*
X87388311Y-104171571D01*
X87206322Y-104096189D01*
X87042537Y-103986751D01*
X86903249Y-103847463D01*
X86793811Y-103683678D01*
X86718429Y-103501689D01*
X86680000Y-103308491D01*
X86680000Y-103111509D01*
X86718429Y-102918311D01*
X86793811Y-102736322D01*
X86903249Y-102572537D01*
X87042537Y-102433249D01*
X87206322Y-102323811D01*
X87388311Y-102248429D01*
X87504230Y-102225372D01*
X87581507Y-102210000D01*
X87778493Y-102210000D01*
X87855770Y-102225372D01*
X87855770Y-102225372D01*
G37*
G36*
X103095770Y-99685372D02*
X103211689Y-99708429D01*
X103393678Y-99783811D01*
X103557463Y-99893249D01*
X103696751Y-100032537D01*
X103806189Y-100196322D01*
X103881571Y-100378311D01*
X103920000Y-100571509D01*
X103920000Y-100768491D01*
X103881571Y-100961689D01*
X103806189Y-101143678D01*
X103696751Y-101307463D01*
X103557463Y-101446751D01*
X103393678Y-101556189D01*
X103211689Y-101631571D01*
X103095770Y-101654628D01*
X103018493Y-101670000D01*
X102821507Y-101670000D01*
X102744230Y-101654628D01*
X102628311Y-101631571D01*
X102446322Y-101556189D01*
X102282537Y-101446751D01*
X102143249Y-101307463D01*
X102033811Y-101143678D01*
X101958429Y-100961689D01*
X101920000Y-100768491D01*
X101920000Y-100571509D01*
X101958429Y-100378311D01*
X102033811Y-100196322D01*
X102143249Y-100032537D01*
X102282537Y-99893249D01*
X102446322Y-99783811D01*
X102628311Y-99708429D01*
X102744230Y-99685372D01*
X102821507Y-99670000D01*
X103018493Y-99670000D01*
X103095770Y-99685372D01*
X103095770Y-99685372D01*
G37*
G36*
X87855770Y-99685372D02*
X87971689Y-99708429D01*
X88153678Y-99783811D01*
X88317463Y-99893249D01*
X88456751Y-100032537D01*
X88566189Y-100196322D01*
X88641571Y-100378311D01*
X88680000Y-100571509D01*
X88680000Y-100768491D01*
X88641571Y-100961689D01*
X88566189Y-101143678D01*
X88456751Y-101307463D01*
X88317463Y-101446751D01*
X88153678Y-101556189D01*
X87971689Y-101631571D01*
X87855770Y-101654628D01*
X87778493Y-101670000D01*
X87581507Y-101670000D01*
X87504230Y-101654628D01*
X87388311Y-101631571D01*
X87206322Y-101556189D01*
X87042537Y-101446751D01*
X86903249Y-101307463D01*
X86793811Y-101143678D01*
X86718429Y-100961689D01*
X86680000Y-100768491D01*
X86680000Y-100571509D01*
X86718429Y-100378311D01*
X86793811Y-100196322D01*
X86903249Y-100032537D01*
X87042537Y-99893249D01*
X87206322Y-99783811D01*
X87388311Y-99708429D01*
X87504230Y-99685372D01*
X87581507Y-99670000D01*
X87778493Y-99670000D01*
X87855770Y-99685372D01*
X87855770Y-99685372D01*
G37*
G36*
X87855770Y-97145372D02*
X87971689Y-97168429D01*
X88153678Y-97243811D01*
X88317463Y-97353249D01*
X88456751Y-97492537D01*
X88566189Y-97656322D01*
X88641571Y-97838311D01*
X88680000Y-98031509D01*
X88680000Y-98228491D01*
X88641571Y-98421689D01*
X88566189Y-98603678D01*
X88456751Y-98767463D01*
X88317463Y-98906751D01*
X88153678Y-99016189D01*
X87971689Y-99091571D01*
X87855770Y-99114628D01*
X87778493Y-99130000D01*
X87581507Y-99130000D01*
X87504230Y-99114628D01*
X87388311Y-99091571D01*
X87206322Y-99016189D01*
X87042537Y-98906751D01*
X86903249Y-98767463D01*
X86793811Y-98603678D01*
X86718429Y-98421689D01*
X86680000Y-98228491D01*
X86680000Y-98031509D01*
X86718429Y-97838311D01*
X86793811Y-97656322D01*
X86903249Y-97492537D01*
X87042537Y-97353249D01*
X87206322Y-97243811D01*
X87388311Y-97168429D01*
X87504230Y-97145372D01*
X87581507Y-97130000D01*
X87778493Y-97130000D01*
X87855770Y-97145372D01*
X87855770Y-97145372D01*
G37*
G36*
X103095770Y-97145372D02*
X103211689Y-97168429D01*
X103393678Y-97243811D01*
X103557463Y-97353249D01*
X103696751Y-97492537D01*
X103806189Y-97656322D01*
X103881571Y-97838311D01*
X103920000Y-98031509D01*
X103920000Y-98228491D01*
X103881571Y-98421689D01*
X103806189Y-98603678D01*
X103696751Y-98767463D01*
X103557463Y-98906751D01*
X103393678Y-99016189D01*
X103211689Y-99091571D01*
X103095770Y-99114628D01*
X103018493Y-99130000D01*
X102821507Y-99130000D01*
X102744230Y-99114628D01*
X102628311Y-99091571D01*
X102446322Y-99016189D01*
X102282537Y-98906751D01*
X102143249Y-98767463D01*
X102033811Y-98603678D01*
X101958429Y-98421689D01*
X101920000Y-98228491D01*
X101920000Y-98031509D01*
X101958429Y-97838311D01*
X102033811Y-97656322D01*
X102143249Y-97492537D01*
X102282537Y-97353249D01*
X102446322Y-97243811D01*
X102628311Y-97168429D01*
X102744230Y-97145372D01*
X102821507Y-97130000D01*
X103018493Y-97130000D01*
X103095770Y-97145372D01*
X103095770Y-97145372D01*
G37*
G36*
X87855770Y-94605372D02*
X87971689Y-94628429D01*
X88153678Y-94703811D01*
X88317463Y-94813249D01*
X88456751Y-94952537D01*
X88566189Y-95116322D01*
X88641571Y-95298311D01*
X88680000Y-95491509D01*
X88680000Y-95688491D01*
X88641571Y-95881689D01*
X88566189Y-96063678D01*
X88456751Y-96227463D01*
X88317463Y-96366751D01*
X88153678Y-96476189D01*
X87971689Y-96551571D01*
X87855770Y-96574628D01*
X87778493Y-96590000D01*
X87581507Y-96590000D01*
X87504230Y-96574628D01*
X87388311Y-96551571D01*
X87206322Y-96476189D01*
X87042537Y-96366751D01*
X86903249Y-96227463D01*
X86793811Y-96063678D01*
X86718429Y-95881689D01*
X86680000Y-95688491D01*
X86680000Y-95491509D01*
X86718429Y-95298311D01*
X86793811Y-95116322D01*
X86903249Y-94952537D01*
X87042537Y-94813249D01*
X87206322Y-94703811D01*
X87388311Y-94628429D01*
X87504230Y-94605372D01*
X87581507Y-94590000D01*
X87778493Y-94590000D01*
X87855770Y-94605372D01*
X87855770Y-94605372D01*
G37*
G36*
X103095770Y-94605372D02*
X103211689Y-94628429D01*
X103393678Y-94703811D01*
X103557463Y-94813249D01*
X103696751Y-94952537D01*
X103806189Y-95116322D01*
X103881571Y-95298311D01*
X103920000Y-95491509D01*
X103920000Y-95688491D01*
X103881571Y-95881689D01*
X103806189Y-96063678D01*
X103696751Y-96227463D01*
X103557463Y-96366751D01*
X103393678Y-96476189D01*
X103211689Y-96551571D01*
X103095770Y-96574628D01*
X103018493Y-96590000D01*
X102821507Y-96590000D01*
X102744230Y-96574628D01*
X102628311Y-96551571D01*
X102446322Y-96476189D01*
X102282537Y-96366751D01*
X102143249Y-96227463D01*
X102033811Y-96063678D01*
X101958429Y-95881689D01*
X101920000Y-95688491D01*
X101920000Y-95491509D01*
X101958429Y-95298311D01*
X102033811Y-95116322D01*
X102143249Y-94952537D01*
X102282537Y-94813249D01*
X102446322Y-94703811D01*
X102628311Y-94628429D01*
X102744230Y-94605372D01*
X102821507Y-94590000D01*
X103018493Y-94590000D01*
X103095770Y-94605372D01*
X103095770Y-94605372D01*
G37*
G36*
X203882482Y-93580186D02*
X203927204Y-93593753D01*
X203968433Y-93615790D01*
X204004561Y-93645439D01*
X204034210Y-93681567D01*
X204056247Y-93722796D01*
X204069814Y-93767518D01*
X204075000Y-93820175D01*
X204075000Y-95154825D01*
X204069814Y-95207482D01*
X204056247Y-95252204D01*
X204034210Y-95293433D01*
X204004561Y-95329561D01*
X203968433Y-95359210D01*
X203927204Y-95381247D01*
X203882482Y-95394814D01*
X203829825Y-95400000D01*
X202170175Y-95400000D01*
X202117518Y-95394814D01*
X202072796Y-95381247D01*
X202031567Y-95359210D01*
X201995439Y-95329561D01*
X201965790Y-95293433D01*
X201943753Y-95252204D01*
X201930186Y-95207482D01*
X201925000Y-95154825D01*
X201925000Y-93820175D01*
X201930186Y-93767518D01*
X201943753Y-93722796D01*
X201965790Y-93681567D01*
X201995439Y-93645439D01*
X202031567Y-93615790D01*
X202072796Y-93593753D01*
X202117518Y-93580186D01*
X202170175Y-93575000D01*
X203829825Y-93575000D01*
X203882482Y-93580186D01*
X203882482Y-93580186D01*
G37*
G36*
X193882482Y-93580186D02*
X193927204Y-93593753D01*
X193968433Y-93615790D01*
X194004561Y-93645439D01*
X194034210Y-93681567D01*
X194056247Y-93722796D01*
X194069814Y-93767518D01*
X194075000Y-93820175D01*
X194075000Y-95154825D01*
X194069814Y-95207482D01*
X194056247Y-95252204D01*
X194034210Y-95293433D01*
X194004561Y-95329561D01*
X193968433Y-95359210D01*
X193927204Y-95381247D01*
X193882482Y-95394814D01*
X193829825Y-95400000D01*
X192170175Y-95400000D01*
X192117518Y-95394814D01*
X192072796Y-95381247D01*
X192031567Y-95359210D01*
X191995439Y-95329561D01*
X191965790Y-95293433D01*
X191943753Y-95252204D01*
X191930186Y-95207482D01*
X191925000Y-95154825D01*
X191925000Y-93820175D01*
X191930186Y-93767518D01*
X191943753Y-93722796D01*
X191965790Y-93681567D01*
X191995439Y-93645439D01*
X192031567Y-93615790D01*
X192072796Y-93593753D01*
X192117518Y-93580186D01*
X192170175Y-93575000D01*
X193829825Y-93575000D01*
X193882482Y-93580186D01*
X193882482Y-93580186D01*
G37*
G36*
X150382482Y-92830186D02*
X150427204Y-92843753D01*
X150468433Y-92865790D01*
X150504561Y-92895439D01*
X150534210Y-92931567D01*
X150556247Y-92972796D01*
X150569814Y-93017518D01*
X150575000Y-93070175D01*
X150575000Y-94404825D01*
X150569814Y-94457482D01*
X150556247Y-94502204D01*
X150534210Y-94543433D01*
X150504561Y-94579561D01*
X150468433Y-94609210D01*
X150427204Y-94631247D01*
X150382482Y-94644814D01*
X150329825Y-94650000D01*
X148670175Y-94650000D01*
X148617518Y-94644814D01*
X148572796Y-94631247D01*
X148531567Y-94609210D01*
X148495439Y-94579561D01*
X148465790Y-94543433D01*
X148443753Y-94502204D01*
X148430186Y-94457482D01*
X148425000Y-94404825D01*
X148425000Y-93070175D01*
X148430186Y-93017518D01*
X148443753Y-92972796D01*
X148465790Y-92931567D01*
X148495439Y-92895439D01*
X148531567Y-92865790D01*
X148572796Y-92843753D01*
X148617518Y-92830186D01*
X148670175Y-92825000D01*
X150329825Y-92825000D01*
X150382482Y-92830186D01*
X150382482Y-92830186D01*
G37*
G36*
X160382482Y-92830186D02*
X160427204Y-92843753D01*
X160468433Y-92865790D01*
X160504561Y-92895439D01*
X160534210Y-92931567D01*
X160556247Y-92972796D01*
X160569814Y-93017518D01*
X160575000Y-93070175D01*
X160575000Y-94404825D01*
X160569814Y-94457482D01*
X160556247Y-94502204D01*
X160534210Y-94543433D01*
X160504561Y-94579561D01*
X160468433Y-94609210D01*
X160427204Y-94631247D01*
X160382482Y-94644814D01*
X160329825Y-94650000D01*
X158670175Y-94650000D01*
X158617518Y-94644814D01*
X158572796Y-94631247D01*
X158531567Y-94609210D01*
X158495439Y-94579561D01*
X158465790Y-94543433D01*
X158443753Y-94502204D01*
X158430186Y-94457482D01*
X158425000Y-94404825D01*
X158425000Y-93070175D01*
X158430186Y-93017518D01*
X158443753Y-92972796D01*
X158465790Y-92931567D01*
X158495439Y-92895439D01*
X158531567Y-92865790D01*
X158572796Y-92843753D01*
X158617518Y-92830186D01*
X158670175Y-92825000D01*
X160329825Y-92825000D01*
X160382482Y-92830186D01*
X160382482Y-92830186D01*
G37*
G36*
X103095770Y-92065372D02*
X103211689Y-92088429D01*
X103393678Y-92163811D01*
X103557463Y-92273249D01*
X103696751Y-92412537D01*
X103806189Y-92576322D01*
X103881571Y-92758311D01*
X103896060Y-92831152D01*
X103916034Y-92931567D01*
X103920000Y-92951509D01*
X103920000Y-93148491D01*
X103881571Y-93341689D01*
X103806189Y-93523678D01*
X103696751Y-93687463D01*
X103557463Y-93826751D01*
X103393678Y-93936189D01*
X103211689Y-94011571D01*
X103095770Y-94034628D01*
X103018493Y-94050000D01*
X102821507Y-94050000D01*
X102744230Y-94034628D01*
X102628311Y-94011571D01*
X102446322Y-93936189D01*
X102282537Y-93826751D01*
X102143249Y-93687463D01*
X102033811Y-93523678D01*
X101958429Y-93341689D01*
X101920000Y-93148491D01*
X101920000Y-92951509D01*
X101923967Y-92931567D01*
X101943940Y-92831152D01*
X101958429Y-92758311D01*
X102033811Y-92576322D01*
X102143249Y-92412537D01*
X102282537Y-92273249D01*
X102446322Y-92163811D01*
X102628311Y-92088429D01*
X102744230Y-92065372D01*
X102821507Y-92050000D01*
X103018493Y-92050000D01*
X103095770Y-92065372D01*
X103095770Y-92065372D01*
G37*
G36*
X87855770Y-92065372D02*
X87971689Y-92088429D01*
X88153678Y-92163811D01*
X88317463Y-92273249D01*
X88456751Y-92412537D01*
X88566189Y-92576322D01*
X88641571Y-92758311D01*
X88656060Y-92831152D01*
X88676034Y-92931567D01*
X88680000Y-92951509D01*
X88680000Y-93148491D01*
X88641571Y-93341689D01*
X88566189Y-93523678D01*
X88456751Y-93687463D01*
X88317463Y-93826751D01*
X88153678Y-93936189D01*
X87971689Y-94011571D01*
X87855770Y-94034628D01*
X87778493Y-94050000D01*
X87581507Y-94050000D01*
X87504230Y-94034628D01*
X87388311Y-94011571D01*
X87206322Y-93936189D01*
X87042537Y-93826751D01*
X86903249Y-93687463D01*
X86793811Y-93523678D01*
X86718429Y-93341689D01*
X86680000Y-93148491D01*
X86680000Y-92951509D01*
X86683967Y-92931567D01*
X86703940Y-92831152D01*
X86718429Y-92758311D01*
X86793811Y-92576322D01*
X86903249Y-92412537D01*
X87042537Y-92273249D01*
X87206322Y-92163811D01*
X87388311Y-92088429D01*
X87504230Y-92065372D01*
X87581507Y-92050000D01*
X87778493Y-92050000D01*
X87855770Y-92065372D01*
X87855770Y-92065372D01*
G37*
G36*
X190320857Y-90442272D02*
X190521042Y-90525191D01*
X190521045Y-90525193D01*
X190694048Y-90640790D01*
X190701213Y-90645578D01*
X190854422Y-90798787D01*
X190854424Y-90798790D01*
X190854425Y-90798791D01*
X190927624Y-90908341D01*
X190974809Y-90978958D01*
X191057728Y-91179143D01*
X191100000Y-91391658D01*
X191100000Y-91608342D01*
X191057728Y-91820857D01*
X190974809Y-92021042D01*
X190974807Y-92021045D01*
X190879414Y-92163811D01*
X190854422Y-92201213D01*
X190701213Y-92354422D01*
X190701210Y-92354424D01*
X190701209Y-92354425D01*
X190595586Y-92425000D01*
X190521042Y-92474809D01*
X190320857Y-92557728D01*
X190108342Y-92600000D01*
X189891658Y-92600000D01*
X189679143Y-92557728D01*
X189478958Y-92474809D01*
X189404414Y-92425000D01*
X189298791Y-92354425D01*
X189298790Y-92354424D01*
X189298787Y-92354422D01*
X189145578Y-92201213D01*
X189120587Y-92163811D01*
X189025193Y-92021045D01*
X189025191Y-92021042D01*
X188942272Y-91820857D01*
X188900000Y-91608342D01*
X188900000Y-91391658D01*
X188942272Y-91179143D01*
X189025191Y-90978958D01*
X189072376Y-90908341D01*
X189145575Y-90798791D01*
X189145576Y-90798790D01*
X189145578Y-90798787D01*
X189298787Y-90645578D01*
X189305953Y-90640790D01*
X189478955Y-90525193D01*
X189478958Y-90525191D01*
X189679143Y-90442272D01*
X189891658Y-90400000D01*
X190108342Y-90400000D01*
X190320857Y-90442272D01*
X190320857Y-90442272D01*
G37*
G36*
X193882482Y-90605186D02*
X193927204Y-90618753D01*
X193968433Y-90640790D01*
X194004561Y-90670439D01*
X194034210Y-90706567D01*
X194056247Y-90747796D01*
X194069814Y-90792518D01*
X194075000Y-90845175D01*
X194075000Y-92179825D01*
X194069814Y-92232482D01*
X194056247Y-92277204D01*
X194034210Y-92318433D01*
X194004561Y-92354561D01*
X193968433Y-92384210D01*
X193927204Y-92406247D01*
X193882482Y-92419814D01*
X193829825Y-92425000D01*
X192170175Y-92425000D01*
X192117518Y-92419814D01*
X192072796Y-92406247D01*
X192031567Y-92384210D01*
X191995439Y-92354561D01*
X191965790Y-92318433D01*
X191943753Y-92277204D01*
X191930186Y-92232482D01*
X191925000Y-92179825D01*
X191925000Y-90845175D01*
X191930186Y-90792518D01*
X191943753Y-90747796D01*
X191965790Y-90706567D01*
X191995439Y-90670439D01*
X192031567Y-90640790D01*
X192072796Y-90618753D01*
X192117518Y-90605186D01*
X192170175Y-90600000D01*
X193829825Y-90600000D01*
X193882482Y-90605186D01*
X193882482Y-90605186D01*
G37*
G36*
X203882482Y-90605186D02*
X203927204Y-90618753D01*
X203968433Y-90640790D01*
X204004561Y-90670439D01*
X204034210Y-90706567D01*
X204056247Y-90747796D01*
X204069814Y-90792518D01*
X204075000Y-90845175D01*
X204075000Y-92179825D01*
X204069814Y-92232482D01*
X204056247Y-92277204D01*
X204034210Y-92318433D01*
X204004561Y-92354561D01*
X203968433Y-92384210D01*
X203927204Y-92406247D01*
X203882482Y-92419814D01*
X203829825Y-92425000D01*
X202170175Y-92425000D01*
X202117518Y-92419814D01*
X202072796Y-92406247D01*
X202031567Y-92384210D01*
X201995439Y-92354561D01*
X201965790Y-92318433D01*
X201943753Y-92277204D01*
X201930186Y-92232482D01*
X201925000Y-92179825D01*
X201925000Y-90845175D01*
X201930186Y-90792518D01*
X201943753Y-90747796D01*
X201965790Y-90706567D01*
X201995439Y-90670439D01*
X202031567Y-90640790D01*
X202072796Y-90618753D01*
X202117518Y-90605186D01*
X202170175Y-90600000D01*
X203829825Y-90600000D01*
X203882482Y-90605186D01*
X203882482Y-90605186D01*
G37*
G36*
X146570857Y-89742272D02*
X146771042Y-89825191D01*
X146771045Y-89825193D01*
X146920463Y-89925031D01*
X146951213Y-89945578D01*
X147104422Y-90098787D01*
X147104424Y-90098790D01*
X147104425Y-90098791D01*
X147152123Y-90170176D01*
X147224809Y-90278958D01*
X147307728Y-90479143D01*
X147350000Y-90691658D01*
X147350000Y-90908342D01*
X147307728Y-91120857D01*
X147224809Y-91321042D01*
X147224807Y-91321045D01*
X147124229Y-91471571D01*
X147104422Y-91501213D01*
X146951213Y-91654422D01*
X146951210Y-91654424D01*
X146951209Y-91654425D01*
X146920416Y-91675000D01*
X146771042Y-91774809D01*
X146570857Y-91857728D01*
X146358342Y-91900000D01*
X146141658Y-91900000D01*
X145929143Y-91857728D01*
X145728958Y-91774809D01*
X145579584Y-91675000D01*
X145548791Y-91654425D01*
X145548790Y-91654424D01*
X145548787Y-91654422D01*
X145395578Y-91501213D01*
X145375772Y-91471571D01*
X145275193Y-91321045D01*
X145275191Y-91321042D01*
X145192272Y-91120857D01*
X145150000Y-90908342D01*
X145150000Y-90691658D01*
X145192272Y-90479143D01*
X145275191Y-90278958D01*
X145347877Y-90170176D01*
X145395575Y-90098791D01*
X145395576Y-90098790D01*
X145395578Y-90098787D01*
X145548787Y-89945578D01*
X145579538Y-89925031D01*
X145728955Y-89825193D01*
X145728958Y-89825191D01*
X145929143Y-89742272D01*
X146141658Y-89700000D01*
X146358342Y-89700000D01*
X146570857Y-89742272D01*
X146570857Y-89742272D01*
G37*
G36*
X160382482Y-89855186D02*
X160427204Y-89868753D01*
X160468433Y-89890790D01*
X160504561Y-89920439D01*
X160534210Y-89956567D01*
X160556247Y-89997796D01*
X160569814Y-90042518D01*
X160575000Y-90095175D01*
X160575000Y-91429825D01*
X160569814Y-91482482D01*
X160556247Y-91527204D01*
X160534210Y-91568433D01*
X160504561Y-91604561D01*
X160468433Y-91634210D01*
X160427204Y-91656247D01*
X160382482Y-91669814D01*
X160329825Y-91675000D01*
X158670175Y-91675000D01*
X158617518Y-91669814D01*
X158572796Y-91656247D01*
X158531567Y-91634210D01*
X158495439Y-91604561D01*
X158465790Y-91568433D01*
X158443753Y-91527204D01*
X158430186Y-91482482D01*
X158425000Y-91429825D01*
X158425000Y-90095175D01*
X158430186Y-90042518D01*
X158443753Y-89997796D01*
X158465790Y-89956567D01*
X158495439Y-89920439D01*
X158531567Y-89890790D01*
X158572796Y-89868753D01*
X158617518Y-89855186D01*
X158670175Y-89850000D01*
X160329825Y-89850000D01*
X160382482Y-89855186D01*
X160382482Y-89855186D01*
G37*
G36*
X150382482Y-89855186D02*
X150427204Y-89868753D01*
X150468433Y-89890790D01*
X150504561Y-89920439D01*
X150534210Y-89956567D01*
X150556247Y-89997796D01*
X150569814Y-90042518D01*
X150575000Y-90095175D01*
X150575000Y-91429825D01*
X150569814Y-91482482D01*
X150556247Y-91527204D01*
X150534210Y-91568433D01*
X150504561Y-91604561D01*
X150468433Y-91634210D01*
X150427204Y-91656247D01*
X150382482Y-91669814D01*
X150329825Y-91675000D01*
X148670175Y-91675000D01*
X148617518Y-91669814D01*
X148572796Y-91656247D01*
X148531567Y-91634210D01*
X148495439Y-91604561D01*
X148465790Y-91568433D01*
X148443753Y-91527204D01*
X148430186Y-91482482D01*
X148425000Y-91429825D01*
X148425000Y-90095175D01*
X148430186Y-90042518D01*
X148443753Y-89997796D01*
X148465790Y-89956567D01*
X148495439Y-89920439D01*
X148531567Y-89890790D01*
X148572796Y-89868753D01*
X148617518Y-89855186D01*
X148670175Y-89850000D01*
X150329825Y-89850000D01*
X150382482Y-89855186D01*
X150382482Y-89855186D01*
G37*
G36*
X103095770Y-89525372D02*
X103211689Y-89548429D01*
X103393678Y-89623811D01*
X103557463Y-89733249D01*
X103696751Y-89872537D01*
X103806189Y-90036322D01*
X103881571Y-90218311D01*
X103893634Y-90278958D01*
X103920000Y-90411507D01*
X103920000Y-90608493D01*
X103912624Y-90645575D01*
X103881571Y-90801689D01*
X103806189Y-90983678D01*
X103696751Y-91147463D01*
X103557463Y-91286751D01*
X103393678Y-91396189D01*
X103211689Y-91471571D01*
X103095770Y-91494628D01*
X103018493Y-91510000D01*
X102821507Y-91510000D01*
X102744230Y-91494628D01*
X102628311Y-91471571D01*
X102446322Y-91396189D01*
X102282537Y-91286751D01*
X102143249Y-91147463D01*
X102033811Y-90983678D01*
X101958429Y-90801689D01*
X101927376Y-90645575D01*
X101920000Y-90608493D01*
X101920000Y-90411507D01*
X101946366Y-90278958D01*
X101958429Y-90218311D01*
X102033811Y-90036322D01*
X102143249Y-89872537D01*
X102282537Y-89733249D01*
X102446322Y-89623811D01*
X102628311Y-89548429D01*
X102744230Y-89525372D01*
X102821507Y-89510000D01*
X103018493Y-89510000D01*
X103095770Y-89525372D01*
X103095770Y-89525372D01*
G37*
G36*
X87855770Y-89525372D02*
X87971689Y-89548429D01*
X88153678Y-89623811D01*
X88317463Y-89733249D01*
X88456751Y-89872537D01*
X88566189Y-90036322D01*
X88641571Y-90218311D01*
X88653634Y-90278958D01*
X88680000Y-90411507D01*
X88680000Y-90608493D01*
X88672624Y-90645575D01*
X88641571Y-90801689D01*
X88566189Y-90983678D01*
X88456751Y-91147463D01*
X88317463Y-91286751D01*
X88153678Y-91396189D01*
X87971689Y-91471571D01*
X87855770Y-91494628D01*
X87778493Y-91510000D01*
X87581507Y-91510000D01*
X87504230Y-91494628D01*
X87388311Y-91471571D01*
X87206322Y-91396189D01*
X87042537Y-91286751D01*
X86903249Y-91147463D01*
X86793811Y-90983678D01*
X86718429Y-90801689D01*
X86687376Y-90645575D01*
X86680000Y-90608493D01*
X86680000Y-90411507D01*
X86706366Y-90278958D01*
X86718429Y-90218311D01*
X86793811Y-90036322D01*
X86903249Y-89872537D01*
X87042537Y-89733249D01*
X87206322Y-89623811D01*
X87388311Y-89548429D01*
X87504230Y-89525372D01*
X87581507Y-89510000D01*
X87778493Y-89510000D01*
X87855770Y-89525372D01*
X87855770Y-89525372D01*
G37*
G36*
X193280603Y-88074968D02*
X193280606Y-88074969D01*
X193280605Y-88074969D01*
X193455678Y-88147486D01*
X193455679Y-88147487D01*
X193613241Y-88252767D01*
X193747233Y-88386759D01*
X193752572Y-88394750D01*
X193852514Y-88544322D01*
X193878669Y-88607466D01*
X193925032Y-88719397D01*
X193962000Y-88905250D01*
X193962000Y-89094750D01*
X193925032Y-89280603D01*
X193925031Y-89280605D01*
X193852514Y-89455678D01*
X193852513Y-89455679D01*
X193747233Y-89613241D01*
X193613241Y-89747233D01*
X193533923Y-89800232D01*
X193455678Y-89852514D01*
X193331478Y-89903959D01*
X193280603Y-89925032D01*
X193094750Y-89962000D01*
X192905250Y-89962000D01*
X192719397Y-89925032D01*
X192668522Y-89903959D01*
X192544322Y-89852514D01*
X192466077Y-89800232D01*
X192386759Y-89747233D01*
X192252767Y-89613241D01*
X192147487Y-89455679D01*
X192147486Y-89455678D01*
X192074969Y-89280605D01*
X192074968Y-89280603D01*
X192038000Y-89094750D01*
X192038000Y-88905250D01*
X192074968Y-88719397D01*
X192121331Y-88607466D01*
X192147486Y-88544322D01*
X192247428Y-88394750D01*
X192252767Y-88386759D01*
X192386759Y-88252767D01*
X192544321Y-88147487D01*
X192544322Y-88147486D01*
X192719395Y-88074969D01*
X192719394Y-88074969D01*
X192719397Y-88074968D01*
X192905250Y-88038000D01*
X193094750Y-88038000D01*
X193280603Y-88074968D01*
X193280603Y-88074968D01*
G37*
G36*
X200780603Y-88074968D02*
X200780606Y-88074969D01*
X200780605Y-88074969D01*
X200955678Y-88147486D01*
X200955679Y-88147487D01*
X201113241Y-88252767D01*
X201247233Y-88386759D01*
X201252572Y-88394750D01*
X201352514Y-88544322D01*
X201378669Y-88607466D01*
X201425032Y-88719397D01*
X201462000Y-88905250D01*
X201462000Y-89094750D01*
X201425032Y-89280603D01*
X201425031Y-89280605D01*
X201352514Y-89455678D01*
X201352513Y-89455679D01*
X201247233Y-89613241D01*
X201113241Y-89747233D01*
X201033923Y-89800232D01*
X200955678Y-89852514D01*
X200831478Y-89903959D01*
X200780603Y-89925032D01*
X200594750Y-89962000D01*
X200405250Y-89962000D01*
X200219397Y-89925032D01*
X200168522Y-89903959D01*
X200044322Y-89852514D01*
X199966077Y-89800232D01*
X199886759Y-89747233D01*
X199752767Y-89613241D01*
X199647487Y-89455679D01*
X199647486Y-89455678D01*
X199574969Y-89280605D01*
X199574968Y-89280603D01*
X199538000Y-89094750D01*
X199538000Y-88905250D01*
X199574968Y-88719397D01*
X199621331Y-88607466D01*
X199647486Y-88544322D01*
X199747428Y-88394750D01*
X199752767Y-88386759D01*
X199886759Y-88252767D01*
X200044321Y-88147487D01*
X200044322Y-88147486D01*
X200219395Y-88074969D01*
X200219394Y-88074969D01*
X200219397Y-88074968D01*
X200405250Y-88038000D01*
X200594750Y-88038000D01*
X200780603Y-88074968D01*
X200780603Y-88074968D01*
G37*
G36*
X195780603Y-88074968D02*
X195780606Y-88074969D01*
X195780605Y-88074969D01*
X195955678Y-88147486D01*
X195955679Y-88147487D01*
X196113241Y-88252767D01*
X196247233Y-88386759D01*
X196252572Y-88394750D01*
X196352514Y-88544322D01*
X196378669Y-88607466D01*
X196425032Y-88719397D01*
X196462000Y-88905250D01*
X196462000Y-89094750D01*
X196425032Y-89280603D01*
X196425031Y-89280605D01*
X196352514Y-89455678D01*
X196352513Y-89455679D01*
X196247233Y-89613241D01*
X196113241Y-89747233D01*
X196033923Y-89800232D01*
X195955678Y-89852514D01*
X195831478Y-89903959D01*
X195780603Y-89925032D01*
X195594750Y-89962000D01*
X195405250Y-89962000D01*
X195219397Y-89925032D01*
X195168522Y-89903959D01*
X195044322Y-89852514D01*
X194966077Y-89800232D01*
X194886759Y-89747233D01*
X194752767Y-89613241D01*
X194647487Y-89455679D01*
X194647486Y-89455678D01*
X194574969Y-89280605D01*
X194574968Y-89280603D01*
X194538000Y-89094750D01*
X194538000Y-88905250D01*
X194574968Y-88719397D01*
X194621331Y-88607466D01*
X194647486Y-88544322D01*
X194747428Y-88394750D01*
X194752767Y-88386759D01*
X194886759Y-88252767D01*
X195044321Y-88147487D01*
X195044322Y-88147486D01*
X195219395Y-88074969D01*
X195219394Y-88074969D01*
X195219397Y-88074968D01*
X195405250Y-88038000D01*
X195594750Y-88038000D01*
X195780603Y-88074968D01*
X195780603Y-88074968D01*
G37*
G36*
X203280603Y-88074968D02*
X203280606Y-88074969D01*
X203280605Y-88074969D01*
X203455678Y-88147486D01*
X203455679Y-88147487D01*
X203613241Y-88252767D01*
X203747233Y-88386759D01*
X203752572Y-88394750D01*
X203852514Y-88544322D01*
X203878669Y-88607466D01*
X203925032Y-88719397D01*
X203962000Y-88905250D01*
X203962000Y-89094750D01*
X203925032Y-89280603D01*
X203925031Y-89280605D01*
X203852514Y-89455678D01*
X203852513Y-89455679D01*
X203747233Y-89613241D01*
X203613241Y-89747233D01*
X203533923Y-89800232D01*
X203455678Y-89852514D01*
X203331478Y-89903959D01*
X203280603Y-89925032D01*
X203094750Y-89962000D01*
X202905250Y-89962000D01*
X202719397Y-89925032D01*
X202668522Y-89903959D01*
X202544322Y-89852514D01*
X202466077Y-89800232D01*
X202386759Y-89747233D01*
X202252767Y-89613241D01*
X202147487Y-89455679D01*
X202147486Y-89455678D01*
X202074969Y-89280605D01*
X202074968Y-89280603D01*
X202038000Y-89094750D01*
X202038000Y-88905250D01*
X202074968Y-88719397D01*
X202121331Y-88607466D01*
X202147486Y-88544322D01*
X202247428Y-88394750D01*
X202252767Y-88386759D01*
X202386759Y-88252767D01*
X202544321Y-88147487D01*
X202544322Y-88147486D01*
X202719395Y-88074969D01*
X202719394Y-88074969D01*
X202719397Y-88074968D01*
X202905250Y-88038000D01*
X203094750Y-88038000D01*
X203280603Y-88074968D01*
X203280603Y-88074968D01*
G37*
G36*
X152030603Y-87374968D02*
X152030606Y-87374969D01*
X152030605Y-87374969D01*
X152205678Y-87447486D01*
X152205679Y-87447487D01*
X152363241Y-87552767D01*
X152497233Y-87686759D01*
X152497234Y-87686761D01*
X152602514Y-87844322D01*
X152613774Y-87871507D01*
X152675032Y-88019397D01*
X152712000Y-88205250D01*
X152712000Y-88394750D01*
X152675032Y-88580603D01*
X152675031Y-88580605D01*
X152602514Y-88755678D01*
X152602513Y-88755679D01*
X152497233Y-88913241D01*
X152363241Y-89047233D01*
X152292129Y-89094749D01*
X152205678Y-89152514D01*
X152070266Y-89208603D01*
X152030603Y-89225032D01*
X151844750Y-89262000D01*
X151655250Y-89262000D01*
X151469397Y-89225032D01*
X151429734Y-89208603D01*
X151294322Y-89152514D01*
X151207871Y-89094749D01*
X151136759Y-89047233D01*
X151002767Y-88913241D01*
X150897487Y-88755679D01*
X150897486Y-88755678D01*
X150824969Y-88580605D01*
X150824968Y-88580603D01*
X150788000Y-88394750D01*
X150788000Y-88205250D01*
X150824968Y-88019397D01*
X150886226Y-87871507D01*
X150897486Y-87844322D01*
X151002766Y-87686761D01*
X151002767Y-87686759D01*
X151136759Y-87552767D01*
X151294321Y-87447487D01*
X151294322Y-87447486D01*
X151469395Y-87374969D01*
X151469394Y-87374969D01*
X151469397Y-87374968D01*
X151655250Y-87338000D01*
X151844750Y-87338000D01*
X152030603Y-87374968D01*
X152030603Y-87374968D01*
G37*
G36*
X149530603Y-87374968D02*
X149530606Y-87374969D01*
X149530605Y-87374969D01*
X149705678Y-87447486D01*
X149705679Y-87447487D01*
X149863241Y-87552767D01*
X149997233Y-87686759D01*
X149997234Y-87686761D01*
X150102514Y-87844322D01*
X150113774Y-87871507D01*
X150175032Y-88019397D01*
X150212000Y-88205250D01*
X150212000Y-88394750D01*
X150175032Y-88580603D01*
X150175031Y-88580605D01*
X150102514Y-88755678D01*
X150102513Y-88755679D01*
X149997233Y-88913241D01*
X149863241Y-89047233D01*
X149792129Y-89094749D01*
X149705678Y-89152514D01*
X149570266Y-89208603D01*
X149530603Y-89225032D01*
X149344750Y-89262000D01*
X149155250Y-89262000D01*
X148969397Y-89225032D01*
X148929734Y-89208603D01*
X148794322Y-89152514D01*
X148707871Y-89094749D01*
X148636759Y-89047233D01*
X148502767Y-88913241D01*
X148397487Y-88755679D01*
X148397486Y-88755678D01*
X148324969Y-88580605D01*
X148324968Y-88580603D01*
X148288000Y-88394750D01*
X148288000Y-88205250D01*
X148324968Y-88019397D01*
X148386226Y-87871507D01*
X148397486Y-87844322D01*
X148502766Y-87686761D01*
X148502767Y-87686759D01*
X148636759Y-87552767D01*
X148794321Y-87447487D01*
X148794322Y-87447486D01*
X148969395Y-87374969D01*
X148969394Y-87374969D01*
X148969397Y-87374968D01*
X149155250Y-87338000D01*
X149344750Y-87338000D01*
X149530603Y-87374968D01*
X149530603Y-87374968D01*
G37*
G36*
X159530603Y-87374968D02*
X159530606Y-87374969D01*
X159530605Y-87374969D01*
X159705678Y-87447486D01*
X159705679Y-87447487D01*
X159863241Y-87552767D01*
X159997233Y-87686759D01*
X159997234Y-87686761D01*
X160102514Y-87844322D01*
X160113774Y-87871507D01*
X160175032Y-88019397D01*
X160212000Y-88205250D01*
X160212000Y-88394750D01*
X160175032Y-88580603D01*
X160175031Y-88580605D01*
X160102514Y-88755678D01*
X160102513Y-88755679D01*
X159997233Y-88913241D01*
X159863241Y-89047233D01*
X159792129Y-89094749D01*
X159705678Y-89152514D01*
X159570266Y-89208603D01*
X159530603Y-89225032D01*
X159344750Y-89262000D01*
X159155250Y-89262000D01*
X158969397Y-89225032D01*
X158929734Y-89208603D01*
X158794322Y-89152514D01*
X158707871Y-89094749D01*
X158636759Y-89047233D01*
X158502767Y-88913241D01*
X158397487Y-88755679D01*
X158397486Y-88755678D01*
X158324969Y-88580605D01*
X158324968Y-88580603D01*
X158288000Y-88394750D01*
X158288000Y-88205250D01*
X158324968Y-88019397D01*
X158386226Y-87871507D01*
X158397486Y-87844322D01*
X158502766Y-87686761D01*
X158502767Y-87686759D01*
X158636759Y-87552767D01*
X158794321Y-87447487D01*
X158794322Y-87447486D01*
X158969395Y-87374969D01*
X158969394Y-87374969D01*
X158969397Y-87374968D01*
X159155250Y-87338000D01*
X159344750Y-87338000D01*
X159530603Y-87374968D01*
X159530603Y-87374968D01*
G37*
G36*
X157030603Y-87374968D02*
X157030606Y-87374969D01*
X157030605Y-87374969D01*
X157205678Y-87447486D01*
X157205679Y-87447487D01*
X157363241Y-87552767D01*
X157497233Y-87686759D01*
X157497234Y-87686761D01*
X157602514Y-87844322D01*
X157613774Y-87871507D01*
X157675032Y-88019397D01*
X157712000Y-88205250D01*
X157712000Y-88394750D01*
X157675032Y-88580603D01*
X157675031Y-88580605D01*
X157602514Y-88755678D01*
X157602513Y-88755679D01*
X157497233Y-88913241D01*
X157363241Y-89047233D01*
X157292129Y-89094749D01*
X157205678Y-89152514D01*
X157070266Y-89208603D01*
X157030603Y-89225032D01*
X156844750Y-89262000D01*
X156655250Y-89262000D01*
X156469397Y-89225032D01*
X156429734Y-89208603D01*
X156294322Y-89152514D01*
X156207871Y-89094749D01*
X156136759Y-89047233D01*
X156002767Y-88913241D01*
X155897487Y-88755679D01*
X155897486Y-88755678D01*
X155824969Y-88580605D01*
X155824968Y-88580603D01*
X155788000Y-88394750D01*
X155788000Y-88205250D01*
X155824968Y-88019397D01*
X155886226Y-87871507D01*
X155897486Y-87844322D01*
X156002766Y-87686761D01*
X156002767Y-87686759D01*
X156136759Y-87552767D01*
X156294321Y-87447487D01*
X156294322Y-87447486D01*
X156469395Y-87374969D01*
X156469394Y-87374969D01*
X156469397Y-87374968D01*
X156655250Y-87338000D01*
X156844750Y-87338000D01*
X157030603Y-87374968D01*
X157030603Y-87374968D01*
G37*
G36*
X87855770Y-86985372D02*
X87971689Y-87008429D01*
X88153678Y-87083811D01*
X88317463Y-87193249D01*
X88456751Y-87332537D01*
X88566189Y-87496322D01*
X88641571Y-87678311D01*
X88664628Y-87794230D01*
X88680000Y-87871507D01*
X88680000Y-88068493D01*
X88664628Y-88145770D01*
X88641571Y-88261689D01*
X88566189Y-88443678D01*
X88456751Y-88607463D01*
X88317463Y-88746751D01*
X88153678Y-88856189D01*
X87971689Y-88931571D01*
X87855770Y-88954628D01*
X87778493Y-88970000D01*
X87581507Y-88970000D01*
X87504230Y-88954628D01*
X87388311Y-88931571D01*
X87206322Y-88856189D01*
X87042537Y-88746751D01*
X86903249Y-88607463D01*
X86793811Y-88443678D01*
X86718429Y-88261689D01*
X86695372Y-88145770D01*
X86680000Y-88068493D01*
X86680000Y-87871507D01*
X86695372Y-87794230D01*
X86718429Y-87678311D01*
X86793811Y-87496322D01*
X86903249Y-87332537D01*
X87042537Y-87193249D01*
X87206322Y-87083811D01*
X87388311Y-87008429D01*
X87504230Y-86985372D01*
X87581507Y-86970000D01*
X87778493Y-86970000D01*
X87855770Y-86985372D01*
X87855770Y-86985372D01*
G37*
G36*
X103095770Y-86985372D02*
X103211689Y-87008429D01*
X103393678Y-87083811D01*
X103557463Y-87193249D01*
X103696751Y-87332537D01*
X103806189Y-87496322D01*
X103881571Y-87678311D01*
X103904628Y-87794230D01*
X103920000Y-87871507D01*
X103920000Y-88068493D01*
X103904628Y-88145770D01*
X103881571Y-88261689D01*
X103806189Y-88443678D01*
X103696751Y-88607463D01*
X103557463Y-88746751D01*
X103393678Y-88856189D01*
X103211689Y-88931571D01*
X103095770Y-88954628D01*
X103018493Y-88970000D01*
X102821507Y-88970000D01*
X102744230Y-88954628D01*
X102628311Y-88931571D01*
X102446322Y-88856189D01*
X102282537Y-88746751D01*
X102143249Y-88607463D01*
X102033811Y-88443678D01*
X101958429Y-88261689D01*
X101935372Y-88145770D01*
X101920000Y-88068493D01*
X101920000Y-87871507D01*
X101935372Y-87794230D01*
X101958429Y-87678311D01*
X102033811Y-87496322D01*
X102143249Y-87332537D01*
X102282537Y-87193249D01*
X102446322Y-87083811D01*
X102628311Y-87008429D01*
X102744230Y-86985372D01*
X102821507Y-86970000D01*
X103018493Y-86970000D01*
X103095770Y-86985372D01*
X103095770Y-86985372D01*
G37*
G36*
X110844959Y-82172577D02*
X111185470Y-82240309D01*
X111613143Y-82417457D01*
X111998038Y-82674636D01*
X112325364Y-83001962D01*
X112582543Y-83386857D01*
X112759691Y-83814530D01*
X112850000Y-84268545D01*
X112850000Y-84731455D01*
X112759691Y-85185470D01*
X112582543Y-85613143D01*
X112325364Y-85998038D01*
X111998038Y-86325364D01*
X111613143Y-86582543D01*
X111185470Y-86759691D01*
X110844959Y-86827423D01*
X110731456Y-86850000D01*
X110268544Y-86850000D01*
X110155041Y-86827423D01*
X109814530Y-86759691D01*
X109386857Y-86582543D01*
X109001962Y-86325364D01*
X108674636Y-85998038D01*
X108417457Y-85613143D01*
X108240309Y-85185470D01*
X108150000Y-84731455D01*
X108150000Y-84268545D01*
X108240309Y-83814530D01*
X108417457Y-83386857D01*
X108674636Y-83001962D01*
X109001962Y-82674636D01*
X109386857Y-82417457D01*
X109814530Y-82240309D01*
X110155041Y-82172577D01*
X110268544Y-82150000D01*
X110731456Y-82150000D01*
X110844959Y-82172577D01*
X110844959Y-82172577D01*
G37*
G36*
X87855770Y-84445372D02*
X87971689Y-84468429D01*
X88153678Y-84543811D01*
X88317463Y-84653249D01*
X88456751Y-84792537D01*
X88566189Y-84956322D01*
X88641571Y-85138311D01*
X88680000Y-85331509D01*
X88680000Y-85528491D01*
X88641571Y-85721689D01*
X88566189Y-85903678D01*
X88456751Y-86067463D01*
X88317463Y-86206751D01*
X88153678Y-86316189D01*
X87971689Y-86391571D01*
X87855770Y-86414628D01*
X87778493Y-86430000D01*
X87581507Y-86430000D01*
X87504230Y-86414628D01*
X87388311Y-86391571D01*
X87206322Y-86316189D01*
X87042537Y-86206751D01*
X86903249Y-86067463D01*
X86793811Y-85903678D01*
X86718429Y-85721689D01*
X86680000Y-85528491D01*
X86680000Y-85331509D01*
X86718429Y-85138311D01*
X86793811Y-84956322D01*
X86903249Y-84792537D01*
X87042537Y-84653249D01*
X87206322Y-84543811D01*
X87388311Y-84468429D01*
X87504230Y-84445372D01*
X87581507Y-84430000D01*
X87778493Y-84430000D01*
X87855770Y-84445372D01*
X87855770Y-84445372D01*
G37*
G36*
X103095770Y-84445372D02*
X103211689Y-84468429D01*
X103393678Y-84543811D01*
X103557463Y-84653249D01*
X103696751Y-84792537D01*
X103806189Y-84956322D01*
X103881571Y-85138311D01*
X103920000Y-85331509D01*
X103920000Y-85528491D01*
X103881571Y-85721689D01*
X103806189Y-85903678D01*
X103696751Y-86067463D01*
X103557463Y-86206751D01*
X103393678Y-86316189D01*
X103211689Y-86391571D01*
X103095770Y-86414628D01*
X103018493Y-86430000D01*
X102821507Y-86430000D01*
X102744230Y-86414628D01*
X102628311Y-86391571D01*
X102446322Y-86316189D01*
X102282537Y-86206751D01*
X102143249Y-86067463D01*
X102033811Y-85903678D01*
X101958429Y-85721689D01*
X101920000Y-85528491D01*
X101920000Y-85331509D01*
X101958429Y-85138311D01*
X102033811Y-84956322D01*
X102143249Y-84792537D01*
X102282537Y-84653249D01*
X102446322Y-84543811D01*
X102628311Y-84468429D01*
X102744230Y-84445372D01*
X102821507Y-84430000D01*
X103018493Y-84430000D01*
X103095770Y-84445372D01*
X103095770Y-84445372D01*
G37*
G36*
X103095770Y-81905372D02*
X103211689Y-81928429D01*
X103393678Y-82003811D01*
X103557463Y-82113249D01*
X103696751Y-82252537D01*
X103806189Y-82416322D01*
X103881571Y-82598311D01*
X103896753Y-82674636D01*
X103920000Y-82791507D01*
X103920000Y-82988493D01*
X103904628Y-83065770D01*
X103881571Y-83181689D01*
X103806189Y-83363678D01*
X103696751Y-83527463D01*
X103557463Y-83666751D01*
X103393678Y-83776189D01*
X103211689Y-83851571D01*
X103095770Y-83874628D01*
X103018493Y-83890000D01*
X102821507Y-83890000D01*
X102744230Y-83874628D01*
X102628311Y-83851571D01*
X102446322Y-83776189D01*
X102282537Y-83666751D01*
X102143249Y-83527463D01*
X102033811Y-83363678D01*
X101958429Y-83181689D01*
X101935372Y-83065770D01*
X101920000Y-82988493D01*
X101920000Y-82791507D01*
X101943247Y-82674636D01*
X101958429Y-82598311D01*
X102033811Y-82416322D01*
X102143249Y-82252537D01*
X102282537Y-82113249D01*
X102446322Y-82003811D01*
X102628311Y-81928429D01*
X102744230Y-81905372D01*
X102821507Y-81890000D01*
X103018493Y-81890000D01*
X103095770Y-81905372D01*
X103095770Y-81905372D01*
G37*
G36*
X87855770Y-81905372D02*
X87971689Y-81928429D01*
X88153678Y-82003811D01*
X88317463Y-82113249D01*
X88456751Y-82252537D01*
X88566189Y-82416322D01*
X88641571Y-82598311D01*
X88656753Y-82674636D01*
X88680000Y-82791507D01*
X88680000Y-82988493D01*
X88664628Y-83065770D01*
X88641571Y-83181689D01*
X88566189Y-83363678D01*
X88456751Y-83527463D01*
X88317463Y-83666751D01*
X88153678Y-83776189D01*
X87971689Y-83851571D01*
X87855770Y-83874628D01*
X87778493Y-83890000D01*
X87581507Y-83890000D01*
X87504230Y-83874628D01*
X87388311Y-83851571D01*
X87206322Y-83776189D01*
X87042537Y-83666751D01*
X86903249Y-83527463D01*
X86793811Y-83363678D01*
X86718429Y-83181689D01*
X86695372Y-83065770D01*
X86680000Y-82988493D01*
X86680000Y-82791507D01*
X86703247Y-82674636D01*
X86718429Y-82598311D01*
X86793811Y-82416322D01*
X86903249Y-82252537D01*
X87042537Y-82113249D01*
X87206322Y-82003811D01*
X87388311Y-81928429D01*
X87504230Y-81905372D01*
X87581507Y-81890000D01*
X87778493Y-81890000D01*
X87855770Y-81905372D01*
X87855770Y-81905372D01*
G37*
G36*
X103095770Y-79365372D02*
X103211689Y-79388429D01*
X103393678Y-79463811D01*
X103557463Y-79573249D01*
X103696751Y-79712537D01*
X103806189Y-79876322D01*
X103881571Y-80058311D01*
X103920000Y-80251509D01*
X103920000Y-80448491D01*
X103881571Y-80641689D01*
X103806189Y-80823678D01*
X103696751Y-80987463D01*
X103557463Y-81126751D01*
X103393678Y-81236189D01*
X103211689Y-81311571D01*
X103095770Y-81334628D01*
X103018493Y-81350000D01*
X102821507Y-81350000D01*
X102744230Y-81334628D01*
X102628311Y-81311571D01*
X102446322Y-81236189D01*
X102282537Y-81126751D01*
X102143249Y-80987463D01*
X102033811Y-80823678D01*
X101958429Y-80641689D01*
X101920000Y-80448491D01*
X101920000Y-80251509D01*
X101958429Y-80058311D01*
X102033811Y-79876322D01*
X102143249Y-79712537D01*
X102282537Y-79573249D01*
X102446322Y-79463811D01*
X102628311Y-79388429D01*
X102744230Y-79365372D01*
X102821507Y-79350000D01*
X103018493Y-79350000D01*
X103095770Y-79365372D01*
X103095770Y-79365372D01*
G37*
G36*
X87855770Y-79365372D02*
X87971689Y-79388429D01*
X88153678Y-79463811D01*
X88317463Y-79573249D01*
X88456751Y-79712537D01*
X88566189Y-79876322D01*
X88641571Y-80058311D01*
X88680000Y-80251509D01*
X88680000Y-80448491D01*
X88641571Y-80641689D01*
X88566189Y-80823678D01*
X88456751Y-80987463D01*
X88317463Y-81126751D01*
X88153678Y-81236189D01*
X87971689Y-81311571D01*
X87855770Y-81334628D01*
X87778493Y-81350000D01*
X87581507Y-81350000D01*
X87504230Y-81334628D01*
X87388311Y-81311571D01*
X87206322Y-81236189D01*
X87042537Y-81126751D01*
X86903249Y-80987463D01*
X86793811Y-80823678D01*
X86718429Y-80641689D01*
X86680000Y-80448491D01*
X86680000Y-80251509D01*
X86718429Y-80058311D01*
X86793811Y-79876322D01*
X86903249Y-79712537D01*
X87042537Y-79573249D01*
X87206322Y-79463811D01*
X87388311Y-79388429D01*
X87504230Y-79365372D01*
X87581507Y-79350000D01*
X87778493Y-79350000D01*
X87855770Y-79365372D01*
X87855770Y-79365372D01*
G37*
G36*
X103095770Y-76825372D02*
X103211689Y-76848429D01*
X103393678Y-76923811D01*
X103557463Y-77033249D01*
X103696751Y-77172537D01*
X103806189Y-77336322D01*
X103881571Y-77518311D01*
X103920000Y-77711509D01*
X103920000Y-77908491D01*
X103881571Y-78101689D01*
X103806189Y-78283678D01*
X103696751Y-78447463D01*
X103557463Y-78586751D01*
X103393678Y-78696189D01*
X103211689Y-78771571D01*
X103095770Y-78794628D01*
X103018493Y-78810000D01*
X102821507Y-78810000D01*
X102744230Y-78794628D01*
X102628311Y-78771571D01*
X102446322Y-78696189D01*
X102282537Y-78586751D01*
X102143249Y-78447463D01*
X102033811Y-78283678D01*
X101958429Y-78101689D01*
X101920000Y-77908491D01*
X101920000Y-77711509D01*
X101958429Y-77518311D01*
X102033811Y-77336322D01*
X102143249Y-77172537D01*
X102282537Y-77033249D01*
X102446322Y-76923811D01*
X102628311Y-76848429D01*
X102744230Y-76825372D01*
X102821507Y-76810000D01*
X103018493Y-76810000D01*
X103095770Y-76825372D01*
X103095770Y-76825372D01*
G37*
G36*
X87855770Y-76825372D02*
X87971689Y-76848429D01*
X88153678Y-76923811D01*
X88317463Y-77033249D01*
X88456751Y-77172537D01*
X88566189Y-77336322D01*
X88641571Y-77518311D01*
X88680000Y-77711509D01*
X88680000Y-77908491D01*
X88641571Y-78101689D01*
X88566189Y-78283678D01*
X88456751Y-78447463D01*
X88317463Y-78586751D01*
X88153678Y-78696189D01*
X87971689Y-78771571D01*
X87855770Y-78794628D01*
X87778493Y-78810000D01*
X87581507Y-78810000D01*
X87504230Y-78794628D01*
X87388311Y-78771571D01*
X87206322Y-78696189D01*
X87042537Y-78586751D01*
X86903249Y-78447463D01*
X86793811Y-78283678D01*
X86718429Y-78101689D01*
X86680000Y-77908491D01*
X86680000Y-77711509D01*
X86718429Y-77518311D01*
X86793811Y-77336322D01*
X86903249Y-77172537D01*
X87042537Y-77033249D01*
X87206322Y-76923811D01*
X87388311Y-76848429D01*
X87504230Y-76825372D01*
X87581507Y-76810000D01*
X87778493Y-76810000D01*
X87855770Y-76825372D01*
X87855770Y-76825372D01*
G37*
G36*
X103095770Y-74285372D02*
X103211689Y-74308429D01*
X103393678Y-74383811D01*
X103557463Y-74493249D01*
X103696751Y-74632537D01*
X103806189Y-74796322D01*
X103881571Y-74978311D01*
X103920000Y-75171509D01*
X103920000Y-75368491D01*
X103881571Y-75561689D01*
X103806189Y-75743678D01*
X103696751Y-75907463D01*
X103557463Y-76046751D01*
X103393678Y-76156189D01*
X103211689Y-76231571D01*
X103095770Y-76254628D01*
X103018493Y-76270000D01*
X102821507Y-76270000D01*
X102744230Y-76254628D01*
X102628311Y-76231571D01*
X102446322Y-76156189D01*
X102282537Y-76046751D01*
X102143249Y-75907463D01*
X102033811Y-75743678D01*
X101958429Y-75561689D01*
X101920000Y-75368491D01*
X101920000Y-75171509D01*
X101958429Y-74978311D01*
X102033811Y-74796322D01*
X102143249Y-74632537D01*
X102282537Y-74493249D01*
X102446322Y-74383811D01*
X102628311Y-74308429D01*
X102744230Y-74285372D01*
X102821507Y-74270000D01*
X103018493Y-74270000D01*
X103095770Y-74285372D01*
X103095770Y-74285372D01*
G37*
G36*
X87855770Y-74285372D02*
X87971689Y-74308429D01*
X88153678Y-74383811D01*
X88317463Y-74493249D01*
X88456751Y-74632537D01*
X88566189Y-74796322D01*
X88641571Y-74978311D01*
X88680000Y-75171509D01*
X88680000Y-75368491D01*
X88641571Y-75561689D01*
X88566189Y-75743678D01*
X88456751Y-75907463D01*
X88317463Y-76046751D01*
X88153678Y-76156189D01*
X87971689Y-76231571D01*
X87855770Y-76254628D01*
X87778493Y-76270000D01*
X87581507Y-76270000D01*
X87504230Y-76254628D01*
X87388311Y-76231571D01*
X87206322Y-76156189D01*
X87042537Y-76046751D01*
X86903249Y-75907463D01*
X86793811Y-75743678D01*
X86718429Y-75561689D01*
X86680000Y-75368491D01*
X86680000Y-75171509D01*
X86718429Y-74978311D01*
X86793811Y-74796322D01*
X86903249Y-74632537D01*
X87042537Y-74493249D01*
X87206322Y-74383811D01*
X87388311Y-74308429D01*
X87504230Y-74285372D01*
X87581507Y-74270000D01*
X87778493Y-74270000D01*
X87855770Y-74285372D01*
X87855770Y-74285372D01*
G37*
G36*
X87855770Y-71745372D02*
X87971689Y-71768429D01*
X88153678Y-71843811D01*
X88317463Y-71953249D01*
X88456751Y-72092537D01*
X88566189Y-72256322D01*
X88641571Y-72438311D01*
X88680000Y-72631509D01*
X88680000Y-72828491D01*
X88641571Y-73021689D01*
X88566189Y-73203678D01*
X88456751Y-73367463D01*
X88317463Y-73506751D01*
X88153678Y-73616189D01*
X87971689Y-73691571D01*
X87855770Y-73714628D01*
X87778493Y-73730000D01*
X87581507Y-73730000D01*
X87504230Y-73714628D01*
X87388311Y-73691571D01*
X87206322Y-73616189D01*
X87042537Y-73506751D01*
X86903249Y-73367463D01*
X86793811Y-73203678D01*
X86718429Y-73021689D01*
X86680000Y-72828491D01*
X86680000Y-72631509D01*
X86718429Y-72438311D01*
X86793811Y-72256322D01*
X86903249Y-72092537D01*
X87042537Y-71953249D01*
X87206322Y-71843811D01*
X87388311Y-71768429D01*
X87504230Y-71745372D01*
X87581507Y-71730000D01*
X87778493Y-71730000D01*
X87855770Y-71745372D01*
X87855770Y-71745372D01*
G37*
G36*
X103095770Y-71745372D02*
X103211689Y-71768429D01*
X103393678Y-71843811D01*
X103557463Y-71953249D01*
X103696751Y-72092537D01*
X103806189Y-72256322D01*
X103881571Y-72438311D01*
X103920000Y-72631509D01*
X103920000Y-72828491D01*
X103881571Y-73021689D01*
X103806189Y-73203678D01*
X103696751Y-73367463D01*
X103557463Y-73506751D01*
X103393678Y-73616189D01*
X103211689Y-73691571D01*
X103095770Y-73714628D01*
X103018493Y-73730000D01*
X102821507Y-73730000D01*
X102744230Y-73714628D01*
X102628311Y-73691571D01*
X102446322Y-73616189D01*
X102282537Y-73506751D01*
X102143249Y-73367463D01*
X102033811Y-73203678D01*
X101958429Y-73021689D01*
X101920000Y-72828491D01*
X101920000Y-72631509D01*
X101958429Y-72438311D01*
X102033811Y-72256322D01*
X102143249Y-72092537D01*
X102282537Y-71953249D01*
X102446322Y-71843811D01*
X102628311Y-71768429D01*
X102744230Y-71745372D01*
X102821507Y-71730000D01*
X103018493Y-71730000D01*
X103095770Y-71745372D01*
X103095770Y-71745372D01*
G37*
G36*
X87855770Y-69205372D02*
X87971689Y-69228429D01*
X88153678Y-69303811D01*
X88317463Y-69413249D01*
X88456751Y-69552537D01*
X88566189Y-69716322D01*
X88641571Y-69898311D01*
X88680000Y-70091509D01*
X88680000Y-70288491D01*
X88641571Y-70481689D01*
X88566189Y-70663678D01*
X88456751Y-70827463D01*
X88317463Y-70966751D01*
X88153678Y-71076189D01*
X87971689Y-71151571D01*
X87855770Y-71174628D01*
X87778493Y-71190000D01*
X87581507Y-71190000D01*
X87504230Y-71174628D01*
X87388311Y-71151571D01*
X87206322Y-71076189D01*
X87042537Y-70966751D01*
X86903249Y-70827463D01*
X86793811Y-70663678D01*
X86718429Y-70481689D01*
X86680000Y-70288491D01*
X86680000Y-70091509D01*
X86718429Y-69898311D01*
X86793811Y-69716322D01*
X86903249Y-69552537D01*
X87042537Y-69413249D01*
X87206322Y-69303811D01*
X87388311Y-69228429D01*
X87504230Y-69205372D01*
X87581507Y-69190000D01*
X87778493Y-69190000D01*
X87855770Y-69205372D01*
X87855770Y-69205372D01*
G37*
G36*
X103095770Y-69205372D02*
X103211689Y-69228429D01*
X103393678Y-69303811D01*
X103557463Y-69413249D01*
X103696751Y-69552537D01*
X103806189Y-69716322D01*
X103881571Y-69898311D01*
X103920000Y-70091509D01*
X103920000Y-70288491D01*
X103881571Y-70481689D01*
X103806189Y-70663678D01*
X103696751Y-70827463D01*
X103557463Y-70966751D01*
X103393678Y-71076189D01*
X103211689Y-71151571D01*
X103095770Y-71174628D01*
X103018493Y-71190000D01*
X102821507Y-71190000D01*
X102744230Y-71174628D01*
X102628311Y-71151571D01*
X102446322Y-71076189D01*
X102282537Y-70966751D01*
X102143249Y-70827463D01*
X102033811Y-70663678D01*
X101958429Y-70481689D01*
X101920000Y-70288491D01*
X101920000Y-70091509D01*
X101958429Y-69898311D01*
X102033811Y-69716322D01*
X102143249Y-69552537D01*
X102282537Y-69413249D01*
X102446322Y-69303811D01*
X102628311Y-69228429D01*
X102744230Y-69205372D01*
X102821507Y-69190000D01*
X103018493Y-69190000D01*
X103095770Y-69205372D01*
X103095770Y-69205372D01*
G37*
G36*
X195725888Y-63454470D02*
X195906274Y-63490350D01*
X196097362Y-63569502D01*
X196269336Y-63684411D01*
X196415589Y-63830664D01*
X196530498Y-64002638D01*
X196609650Y-64193726D01*
X196650000Y-64396584D01*
X196650000Y-64603416D01*
X196609650Y-64806274D01*
X196530498Y-64997362D01*
X196415589Y-65169336D01*
X196269336Y-65315589D01*
X196097362Y-65430498D01*
X195906274Y-65509650D01*
X195725888Y-65545530D01*
X195703417Y-65550000D01*
X195496583Y-65550000D01*
X195474112Y-65545530D01*
X195293726Y-65509650D01*
X195102638Y-65430498D01*
X194930664Y-65315589D01*
X194784411Y-65169336D01*
X194669502Y-64997362D01*
X194590350Y-64806274D01*
X194550000Y-64603416D01*
X194550000Y-64396584D01*
X194590350Y-64193726D01*
X194669502Y-64002638D01*
X194784411Y-63830664D01*
X194930664Y-63684411D01*
X195102638Y-63569502D01*
X195293726Y-63490350D01*
X195474112Y-63454470D01*
X195496583Y-63450000D01*
X195703417Y-63450000D01*
X195725888Y-63454470D01*
X195725888Y-63454470D01*
G37*
G36*
X193225888Y-63454470D02*
X193406274Y-63490350D01*
X193597362Y-63569502D01*
X193769336Y-63684411D01*
X193915589Y-63830664D01*
X194030498Y-64002638D01*
X194109650Y-64193726D01*
X194150000Y-64396584D01*
X194150000Y-64603416D01*
X194109650Y-64806274D01*
X194030498Y-64997362D01*
X193915589Y-65169336D01*
X193769336Y-65315589D01*
X193597362Y-65430498D01*
X193406274Y-65509650D01*
X193225888Y-65545530D01*
X193203417Y-65550000D01*
X192996583Y-65550000D01*
X192974112Y-65545530D01*
X192793726Y-65509650D01*
X192602638Y-65430498D01*
X192430664Y-65315589D01*
X192284411Y-65169336D01*
X192169502Y-64997362D01*
X192090350Y-64806274D01*
X192050000Y-64603416D01*
X192050000Y-64396584D01*
X192090350Y-64193726D01*
X192169502Y-64002638D01*
X192284411Y-63830664D01*
X192430664Y-63684411D01*
X192602638Y-63569502D01*
X192793726Y-63490350D01*
X192974112Y-63454470D01*
X192996583Y-63450000D01*
X193203417Y-63450000D01*
X193225888Y-63454470D01*
X193225888Y-63454470D01*
G37*
G36*
X154525888Y-63254470D02*
X154706274Y-63290350D01*
X154897362Y-63369502D01*
X155069336Y-63484411D01*
X155215589Y-63630664D01*
X155330498Y-63802638D01*
X155409650Y-63993726D01*
X155450000Y-64196584D01*
X155450000Y-64403416D01*
X155409650Y-64606274D01*
X155330498Y-64797362D01*
X155215589Y-64969336D01*
X155069336Y-65115589D01*
X154897362Y-65230498D01*
X154706274Y-65309650D01*
X154525888Y-65345530D01*
X154503417Y-65350000D01*
X154296583Y-65350000D01*
X154274112Y-65345530D01*
X154093726Y-65309650D01*
X153902638Y-65230498D01*
X153730664Y-65115589D01*
X153584411Y-64969336D01*
X153469502Y-64797362D01*
X153390350Y-64606274D01*
X153350000Y-64403416D01*
X153350000Y-64196584D01*
X153390350Y-63993726D01*
X153469502Y-63802638D01*
X153584411Y-63630664D01*
X153730664Y-63484411D01*
X153902638Y-63369502D01*
X154093726Y-63290350D01*
X154274112Y-63254470D01*
X154296583Y-63250000D01*
X154503417Y-63250000D01*
X154525888Y-63254470D01*
X154525888Y-63254470D01*
G37*
G36*
X152025888Y-63254470D02*
X152206274Y-63290350D01*
X152397362Y-63369502D01*
X152569336Y-63484411D01*
X152715589Y-63630664D01*
X152830498Y-63802638D01*
X152909650Y-63993726D01*
X152950000Y-64196584D01*
X152950000Y-64403416D01*
X152909650Y-64606274D01*
X152830498Y-64797362D01*
X152715589Y-64969336D01*
X152569336Y-65115589D01*
X152397362Y-65230498D01*
X152206274Y-65309650D01*
X152025888Y-65345530D01*
X152003417Y-65350000D01*
X151796583Y-65350000D01*
X151774112Y-65345530D01*
X151593726Y-65309650D01*
X151402638Y-65230498D01*
X151230664Y-65115589D01*
X151084411Y-64969336D01*
X150969502Y-64797362D01*
X150890350Y-64606274D01*
X150850000Y-64403416D01*
X150850000Y-64196584D01*
X150890350Y-63993726D01*
X150969502Y-63802638D01*
X151084411Y-63630664D01*
X151230664Y-63484411D01*
X151402638Y-63369502D01*
X151593726Y-63290350D01*
X151774112Y-63254470D01*
X151796583Y-63250000D01*
X152003417Y-63250000D01*
X152025888Y-63254470D01*
X152025888Y-63254470D01*
G37*
G36*
X115025888Y-63054470D02*
X115206274Y-63090350D01*
X115397362Y-63169502D01*
X115569336Y-63284411D01*
X115715589Y-63430664D01*
X115830498Y-63602638D01*
X115909650Y-63793726D01*
X115950000Y-63996584D01*
X115950000Y-64203416D01*
X115909650Y-64406274D01*
X115830498Y-64597362D01*
X115715589Y-64769336D01*
X115569336Y-64915589D01*
X115397362Y-65030498D01*
X115206274Y-65109650D01*
X115025888Y-65145530D01*
X115003417Y-65150000D01*
X114796583Y-65150000D01*
X114774112Y-65145530D01*
X114593726Y-65109650D01*
X114402638Y-65030498D01*
X114230664Y-64915589D01*
X114084411Y-64769336D01*
X113969502Y-64597362D01*
X113890350Y-64406274D01*
X113850000Y-64203416D01*
X113850000Y-63996584D01*
X113890350Y-63793726D01*
X113969502Y-63602638D01*
X114084411Y-63430664D01*
X114230664Y-63284411D01*
X114402638Y-63169502D01*
X114593726Y-63090350D01*
X114774112Y-63054470D01*
X114796583Y-63050000D01*
X115003417Y-63050000D01*
X115025888Y-63054470D01*
X115025888Y-63054470D01*
G37*
G36*
X112525888Y-63054470D02*
X112706274Y-63090350D01*
X112897362Y-63169502D01*
X113069336Y-63284411D01*
X113215589Y-63430664D01*
X113330498Y-63602638D01*
X113409650Y-63793726D01*
X113450000Y-63996584D01*
X113450000Y-64203416D01*
X113409650Y-64406274D01*
X113330498Y-64597362D01*
X113215589Y-64769336D01*
X113069336Y-64915589D01*
X112897362Y-65030498D01*
X112706274Y-65109650D01*
X112525888Y-65145530D01*
X112503417Y-65150000D01*
X112296583Y-65150000D01*
X112274112Y-65145530D01*
X112093726Y-65109650D01*
X111902638Y-65030498D01*
X111730664Y-64915589D01*
X111584411Y-64769336D01*
X111469502Y-64597362D01*
X111390350Y-64406274D01*
X111350000Y-64203416D01*
X111350000Y-63996584D01*
X111390350Y-63793726D01*
X111469502Y-63602638D01*
X111584411Y-63430664D01*
X111730664Y-63284411D01*
X111902638Y-63169502D01*
X112093726Y-63090350D01*
X112274112Y-63054470D01*
X112296583Y-63050000D01*
X112503417Y-63050000D01*
X112525888Y-63054470D01*
X112525888Y-63054470D01*
G37*
G36*
X92225888Y-63054470D02*
X92406274Y-63090350D01*
X92597362Y-63169502D01*
X92769336Y-63284411D01*
X92915589Y-63430664D01*
X93030498Y-63602638D01*
X93109650Y-63793726D01*
X93150000Y-63996584D01*
X93150000Y-64203416D01*
X93109650Y-64406274D01*
X93030498Y-64597362D01*
X92915589Y-64769336D01*
X92769336Y-64915589D01*
X92597362Y-65030498D01*
X92406274Y-65109650D01*
X92225888Y-65145530D01*
X92203417Y-65150000D01*
X91996583Y-65150000D01*
X91974112Y-65145530D01*
X91793726Y-65109650D01*
X91602638Y-65030498D01*
X91430664Y-64915589D01*
X91284411Y-64769336D01*
X91169502Y-64597362D01*
X91090350Y-64406274D01*
X91050000Y-64203416D01*
X91050000Y-63996584D01*
X91090350Y-63793726D01*
X91169502Y-63602638D01*
X91284411Y-63430664D01*
X91430664Y-63284411D01*
X91602638Y-63169502D01*
X91793726Y-63090350D01*
X91974112Y-63054470D01*
X91996583Y-63050000D01*
X92203417Y-63050000D01*
X92225888Y-63054470D01*
X92225888Y-63054470D01*
G37*
G36*
X89725888Y-63054470D02*
X89906274Y-63090350D01*
X90097362Y-63169502D01*
X90269336Y-63284411D01*
X90415589Y-63430664D01*
X90530498Y-63602638D01*
X90609650Y-63793726D01*
X90650000Y-63996584D01*
X90650000Y-64203416D01*
X90609650Y-64406274D01*
X90530498Y-64597362D01*
X90415589Y-64769336D01*
X90269336Y-64915589D01*
X90097362Y-65030498D01*
X89906274Y-65109650D01*
X89725888Y-65145530D01*
X89703417Y-65150000D01*
X89496583Y-65150000D01*
X89474112Y-65145530D01*
X89293726Y-65109650D01*
X89102638Y-65030498D01*
X88930664Y-64915589D01*
X88784411Y-64769336D01*
X88669502Y-64597362D01*
X88590350Y-64406274D01*
X88550000Y-64203416D01*
X88550000Y-63996584D01*
X88590350Y-63793726D01*
X88669502Y-63602638D01*
X88784411Y-63430664D01*
X88930664Y-63284411D01*
X89102638Y-63169502D01*
X89293726Y-63090350D01*
X89474112Y-63054470D01*
X89496583Y-63050000D01*
X89703417Y-63050000D01*
X89725888Y-63054470D01*
X89725888Y-63054470D01*
G37*
G36*
X180585888Y-61034470D02*
X180766274Y-61070350D01*
X180957362Y-61149502D01*
X181129336Y-61264411D01*
X181275589Y-61410664D01*
X181390498Y-61582638D01*
X181469650Y-61773726D01*
X181510000Y-61976584D01*
X181510000Y-62183416D01*
X181469650Y-62386274D01*
X181390498Y-62577362D01*
X181275589Y-62749336D01*
X181129336Y-62895589D01*
X180957362Y-63010498D01*
X180766274Y-63089650D01*
X180585888Y-63125530D01*
X180563417Y-63130000D01*
X180356583Y-63130000D01*
X180334112Y-63125530D01*
X180153726Y-63089650D01*
X179962638Y-63010498D01*
X179790664Y-62895589D01*
X179644411Y-62749336D01*
X179529502Y-62577362D01*
X179450350Y-62386274D01*
X179410000Y-62183416D01*
X179410000Y-61976584D01*
X179450350Y-61773726D01*
X179529502Y-61582638D01*
X179644411Y-61410664D01*
X179790664Y-61264411D01*
X179962638Y-61149502D01*
X180153726Y-61070350D01*
X180334112Y-61034470D01*
X180356583Y-61030000D01*
X180563417Y-61030000D01*
X180585888Y-61034470D01*
X180585888Y-61034470D01*
G37*
G36*
X183125888Y-61034470D02*
X183306274Y-61070350D01*
X183497362Y-61149502D01*
X183669336Y-61264411D01*
X183815589Y-61410664D01*
X183930498Y-61582638D01*
X184009650Y-61773726D01*
X184050000Y-61976584D01*
X184050000Y-62183416D01*
X184009650Y-62386274D01*
X183930498Y-62577362D01*
X183815589Y-62749336D01*
X183669336Y-62895589D01*
X183497362Y-63010498D01*
X183306274Y-63089650D01*
X183125888Y-63125530D01*
X183103417Y-63130000D01*
X182896583Y-63130000D01*
X182874112Y-63125530D01*
X182693726Y-63089650D01*
X182502638Y-63010498D01*
X182330664Y-62895589D01*
X182184411Y-62749336D01*
X182069502Y-62577362D01*
X181990350Y-62386274D01*
X181950000Y-62183416D01*
X181950000Y-61976584D01*
X181990350Y-61773726D01*
X182069502Y-61582638D01*
X182184411Y-61410664D01*
X182330664Y-61264411D01*
X182502638Y-61149502D01*
X182693726Y-61070350D01*
X182874112Y-61034470D01*
X182896583Y-61030000D01*
X183103417Y-61030000D01*
X183125888Y-61034470D01*
X183125888Y-61034470D01*
G37*
G36*
X139485888Y-60834470D02*
X139666274Y-60870350D01*
X139857362Y-60949502D01*
X140029336Y-61064411D01*
X140175589Y-61210664D01*
X140290498Y-61382638D01*
X140369650Y-61573726D01*
X140410000Y-61776584D01*
X140410000Y-61983416D01*
X140369650Y-62186274D01*
X140290498Y-62377362D01*
X140175589Y-62549336D01*
X140029336Y-62695589D01*
X139857362Y-62810498D01*
X139666274Y-62889650D01*
X139485888Y-62925530D01*
X139463417Y-62930000D01*
X139256583Y-62930000D01*
X139234112Y-62925530D01*
X139053726Y-62889650D01*
X138862638Y-62810498D01*
X138690664Y-62695589D01*
X138544411Y-62549336D01*
X138429502Y-62377362D01*
X138350350Y-62186274D01*
X138310000Y-61983416D01*
X138310000Y-61776584D01*
X138350350Y-61573726D01*
X138429502Y-61382638D01*
X138544411Y-61210664D01*
X138690664Y-61064411D01*
X138862638Y-60949502D01*
X139053726Y-60870350D01*
X139234112Y-60834470D01*
X139256583Y-60830000D01*
X139463417Y-60830000D01*
X139485888Y-60834470D01*
X139485888Y-60834470D01*
G37*
G36*
X142025888Y-60834470D02*
X142206274Y-60870350D01*
X142397362Y-60949502D01*
X142569336Y-61064411D01*
X142715589Y-61210664D01*
X142830498Y-61382638D01*
X142909650Y-61573726D01*
X142950000Y-61776584D01*
X142950000Y-61983416D01*
X142909650Y-62186274D01*
X142830498Y-62377362D01*
X142715589Y-62549336D01*
X142569336Y-62695589D01*
X142397362Y-62810498D01*
X142206274Y-62889650D01*
X142025888Y-62925530D01*
X142003417Y-62930000D01*
X141796583Y-62930000D01*
X141774112Y-62925530D01*
X141593726Y-62889650D01*
X141402638Y-62810498D01*
X141230664Y-62695589D01*
X141084411Y-62549336D01*
X140969502Y-62377362D01*
X140890350Y-62186274D01*
X140850000Y-61983416D01*
X140850000Y-61776584D01*
X140890350Y-61573726D01*
X140969502Y-61382638D01*
X141084411Y-61210664D01*
X141230664Y-61064411D01*
X141402638Y-60949502D01*
X141593726Y-60870350D01*
X141774112Y-60834470D01*
X141796583Y-60830000D01*
X142003417Y-60830000D01*
X142025888Y-60834470D01*
X142025888Y-60834470D01*
G37*
G36*
X170844959Y-57172577D02*
X171185470Y-57240309D01*
X171613143Y-57417457D01*
X171998038Y-57674636D01*
X172325364Y-58001962D01*
X172582543Y-58386857D01*
X172759691Y-58814530D01*
X172850000Y-59268545D01*
X172850000Y-59731455D01*
X172759691Y-60185470D01*
X172582543Y-60613143D01*
X172325364Y-60998038D01*
X171998038Y-61325364D01*
X171613143Y-61582543D01*
X171185470Y-61759691D01*
X170844959Y-61827423D01*
X170731456Y-61850000D01*
X170268544Y-61850000D01*
X170155041Y-61827423D01*
X169814530Y-61759691D01*
X169386857Y-61582543D01*
X169001962Y-61325364D01*
X168674636Y-60998038D01*
X168417457Y-60613143D01*
X168240309Y-60185470D01*
X168150000Y-59731455D01*
X168150000Y-59268545D01*
X168240309Y-58814530D01*
X168417457Y-58386857D01*
X168674636Y-58001962D01*
X169001962Y-57674636D01*
X169386857Y-57417457D01*
X169814530Y-57240309D01*
X170155041Y-57172577D01*
X170268544Y-57150000D01*
X170731456Y-57150000D01*
X170844959Y-57172577D01*
X170844959Y-57172577D01*
G37*
G36*
X128844959Y-57172577D02*
X129185470Y-57240309D01*
X129613143Y-57417457D01*
X129998038Y-57674636D01*
X130325364Y-58001962D01*
X130582543Y-58386857D01*
X130759691Y-58814530D01*
X130850000Y-59268545D01*
X130850000Y-59731455D01*
X130759691Y-60185470D01*
X130582543Y-60613143D01*
X130325364Y-60998038D01*
X129998038Y-61325364D01*
X129613143Y-61582543D01*
X129185470Y-61759691D01*
X128844959Y-61827423D01*
X128731456Y-61850000D01*
X128268544Y-61850000D01*
X128155041Y-61827423D01*
X127814530Y-61759691D01*
X127386857Y-61582543D01*
X127001962Y-61325364D01*
X126674636Y-60998038D01*
X126417457Y-60613143D01*
X126240309Y-60185470D01*
X126150000Y-59731455D01*
X126150000Y-59268545D01*
X126240309Y-58814530D01*
X126417457Y-58386857D01*
X126674636Y-58001962D01*
X127001962Y-57674636D01*
X127386857Y-57417457D01*
X127814530Y-57240309D01*
X128155041Y-57172577D01*
X128268544Y-57150000D01*
X128731456Y-57150000D01*
X128844959Y-57172577D01*
X128844959Y-57172577D01*
G37*
G36*
X201086393Y-57743553D02*
X201195872Y-57765330D01*
X201505252Y-57893479D01*
X201783687Y-58079523D01*
X202020477Y-58316313D01*
X202206521Y-58594748D01*
X202334670Y-58904128D01*
X202334670Y-58904129D01*
X202400000Y-59232563D01*
X202400000Y-59567437D01*
X202367374Y-59731456D01*
X202334670Y-59895872D01*
X202206521Y-60205252D01*
X202020477Y-60483687D01*
X201783687Y-60720477D01*
X201505252Y-60906521D01*
X201195872Y-61034670D01*
X201086393Y-61056447D01*
X200867437Y-61100000D01*
X200532563Y-61100000D01*
X200313607Y-61056447D01*
X200204128Y-61034670D01*
X199894748Y-60906521D01*
X199616313Y-60720477D01*
X199379523Y-60483687D01*
X199193479Y-60205252D01*
X199065330Y-59895872D01*
X199032626Y-59731456D01*
X199000000Y-59567437D01*
X199000000Y-59232563D01*
X199065330Y-58904129D01*
X199065330Y-58904128D01*
X199193479Y-58594748D01*
X199379523Y-58316313D01*
X199616313Y-58079523D01*
X199894748Y-57893479D01*
X200204128Y-57765330D01*
X200313607Y-57743553D01*
X200532563Y-57700000D01*
X200867437Y-57700000D01*
X201086393Y-57743553D01*
X201086393Y-57743553D01*
G37*
G36*
X190886393Y-57743553D02*
X190995872Y-57765330D01*
X191305252Y-57893479D01*
X191583687Y-58079523D01*
X191820477Y-58316313D01*
X192006521Y-58594748D01*
X192134670Y-58904128D01*
X192134670Y-58904129D01*
X192200000Y-59232563D01*
X192200000Y-59567437D01*
X192167374Y-59731456D01*
X192134670Y-59895872D01*
X192006521Y-60205252D01*
X191820477Y-60483687D01*
X191583687Y-60720477D01*
X191305252Y-60906521D01*
X190995872Y-61034670D01*
X190886393Y-61056447D01*
X190667437Y-61100000D01*
X190332563Y-61100000D01*
X190113607Y-61056447D01*
X190004128Y-61034670D01*
X189694748Y-60906521D01*
X189416313Y-60720477D01*
X189179523Y-60483687D01*
X188993479Y-60205252D01*
X188865330Y-59895872D01*
X188832626Y-59731456D01*
X188800000Y-59567437D01*
X188800000Y-59232563D01*
X188865330Y-58904129D01*
X188865330Y-58904128D01*
X188993479Y-58594748D01*
X189179523Y-58316313D01*
X189416313Y-58079523D01*
X189694748Y-57893479D01*
X190004128Y-57765330D01*
X190113607Y-57743553D01*
X190332563Y-57700000D01*
X190667437Y-57700000D01*
X190886393Y-57743553D01*
X190886393Y-57743553D01*
G37*
G36*
X149686393Y-57543553D02*
X149795872Y-57565330D01*
X150105252Y-57693479D01*
X150383687Y-57879523D01*
X150620477Y-58116313D01*
X150806521Y-58394748D01*
X150889363Y-58594748D01*
X150934670Y-58704129D01*
X151000000Y-59032563D01*
X151000000Y-59367437D01*
X150960218Y-59567435D01*
X150934670Y-59695872D01*
X150806521Y-60005252D01*
X150620477Y-60283687D01*
X150383687Y-60520477D01*
X150105252Y-60706521D01*
X149795872Y-60834670D01*
X149686393Y-60856447D01*
X149467437Y-60900000D01*
X149132563Y-60900000D01*
X148913607Y-60856447D01*
X148804128Y-60834670D01*
X148494748Y-60706521D01*
X148216313Y-60520477D01*
X147979523Y-60283687D01*
X147793479Y-60005252D01*
X147665330Y-59695872D01*
X147639782Y-59567435D01*
X147600000Y-59367437D01*
X147600000Y-59032563D01*
X147665330Y-58704129D01*
X147710637Y-58594748D01*
X147793479Y-58394748D01*
X147979523Y-58116313D01*
X148216313Y-57879523D01*
X148494748Y-57693479D01*
X148804128Y-57565330D01*
X148913607Y-57543553D01*
X149132563Y-57500000D01*
X149467437Y-57500000D01*
X149686393Y-57543553D01*
X149686393Y-57543553D01*
G37*
G36*
X159886393Y-57543553D02*
X159995872Y-57565330D01*
X160305252Y-57693479D01*
X160583687Y-57879523D01*
X160820477Y-58116313D01*
X161006521Y-58394748D01*
X161089363Y-58594748D01*
X161134670Y-58704129D01*
X161200000Y-59032563D01*
X161200000Y-59367437D01*
X161160218Y-59567435D01*
X161134670Y-59695872D01*
X161006521Y-60005252D01*
X160820477Y-60283687D01*
X160583687Y-60520477D01*
X160305252Y-60706521D01*
X159995872Y-60834670D01*
X159886393Y-60856447D01*
X159667437Y-60900000D01*
X159332563Y-60900000D01*
X159113607Y-60856447D01*
X159004128Y-60834670D01*
X158694748Y-60706521D01*
X158416313Y-60520477D01*
X158179523Y-60283687D01*
X157993479Y-60005252D01*
X157865330Y-59695872D01*
X157839782Y-59567435D01*
X157800000Y-59367437D01*
X157800000Y-59032563D01*
X157865330Y-58704129D01*
X157910637Y-58594748D01*
X157993479Y-58394748D01*
X158179523Y-58116313D01*
X158416313Y-57879523D01*
X158694748Y-57693479D01*
X159004128Y-57565330D01*
X159113607Y-57543553D01*
X159332563Y-57500000D01*
X159667437Y-57500000D01*
X159886393Y-57543553D01*
X159886393Y-57543553D01*
G37*
G36*
X87386393Y-57343553D02*
X87495872Y-57365330D01*
X87805252Y-57493479D01*
X88083687Y-57679523D01*
X88320477Y-57916313D01*
X88506521Y-58194748D01*
X88589363Y-58394748D01*
X88634670Y-58504129D01*
X88700000Y-58832563D01*
X88700000Y-59167437D01*
X88687045Y-59232565D01*
X88634670Y-59495872D01*
X88506521Y-59805252D01*
X88320477Y-60083687D01*
X88083687Y-60320477D01*
X87805252Y-60506521D01*
X87495872Y-60634670D01*
X87386393Y-60656447D01*
X87167437Y-60700000D01*
X86832563Y-60700000D01*
X86613607Y-60656447D01*
X86504128Y-60634670D01*
X86194748Y-60506521D01*
X85916313Y-60320477D01*
X85679523Y-60083687D01*
X85493479Y-59805252D01*
X85365330Y-59495872D01*
X85312955Y-59232565D01*
X85300000Y-59167437D01*
X85300000Y-58832563D01*
X85365330Y-58504129D01*
X85410637Y-58394748D01*
X85493479Y-58194748D01*
X85679523Y-57916313D01*
X85916313Y-57679523D01*
X86194748Y-57493479D01*
X86504128Y-57365330D01*
X86613607Y-57343553D01*
X86832563Y-57300000D01*
X87167437Y-57300000D01*
X87386393Y-57343553D01*
X87386393Y-57343553D01*
G37*
G36*
X97586393Y-57343553D02*
X97695872Y-57365330D01*
X98005252Y-57493479D01*
X98283687Y-57679523D01*
X98520477Y-57916313D01*
X98706521Y-58194748D01*
X98789363Y-58394748D01*
X98834670Y-58504129D01*
X98900000Y-58832563D01*
X98900000Y-59167437D01*
X98887045Y-59232565D01*
X98834670Y-59495872D01*
X98706521Y-59805252D01*
X98520477Y-60083687D01*
X98283687Y-60320477D01*
X98005252Y-60506521D01*
X97695872Y-60634670D01*
X97586393Y-60656447D01*
X97367437Y-60700000D01*
X97032563Y-60700000D01*
X96813607Y-60656447D01*
X96704128Y-60634670D01*
X96394748Y-60506521D01*
X96116313Y-60320477D01*
X95879523Y-60083687D01*
X95693479Y-59805252D01*
X95565330Y-59495872D01*
X95512955Y-59232565D01*
X95500000Y-59167437D01*
X95500000Y-58832563D01*
X95565330Y-58504129D01*
X95610637Y-58394748D01*
X95693479Y-58194748D01*
X95879523Y-57916313D01*
X96116313Y-57679523D01*
X96394748Y-57493479D01*
X96704128Y-57365330D01*
X96813607Y-57343553D01*
X97032563Y-57300000D01*
X97367437Y-57300000D01*
X97586393Y-57343553D01*
X97586393Y-57343553D01*
G37*
G36*
X110186393Y-57343553D02*
X110295872Y-57365330D01*
X110605252Y-57493479D01*
X110883687Y-57679523D01*
X111120477Y-57916313D01*
X111306521Y-58194748D01*
X111389363Y-58394748D01*
X111434670Y-58504129D01*
X111500000Y-58832563D01*
X111500000Y-59167437D01*
X111487045Y-59232565D01*
X111434670Y-59495872D01*
X111306521Y-59805252D01*
X111120477Y-60083687D01*
X110883687Y-60320477D01*
X110605252Y-60506521D01*
X110295872Y-60634670D01*
X110186393Y-60656447D01*
X109967437Y-60700000D01*
X109632563Y-60700000D01*
X109413607Y-60656447D01*
X109304128Y-60634670D01*
X108994748Y-60506521D01*
X108716313Y-60320477D01*
X108479523Y-60083687D01*
X108293479Y-59805252D01*
X108165330Y-59495872D01*
X108112955Y-59232565D01*
X108100000Y-59167437D01*
X108100000Y-58832563D01*
X108165330Y-58504129D01*
X108210637Y-58394748D01*
X108293479Y-58194748D01*
X108479523Y-57916313D01*
X108716313Y-57679523D01*
X108994748Y-57493479D01*
X109304128Y-57365330D01*
X109413607Y-57343553D01*
X109632563Y-57300000D01*
X109967437Y-57300000D01*
X110186393Y-57343553D01*
X110186393Y-57343553D01*
G37*
G36*
X120386393Y-57343553D02*
X120495872Y-57365330D01*
X120805252Y-57493479D01*
X121083687Y-57679523D01*
X121320477Y-57916313D01*
X121506521Y-58194748D01*
X121589363Y-58394748D01*
X121634670Y-58504129D01*
X121700000Y-58832563D01*
X121700000Y-59167437D01*
X121687045Y-59232565D01*
X121634670Y-59495872D01*
X121506521Y-59805252D01*
X121320477Y-60083687D01*
X121083687Y-60320477D01*
X120805252Y-60506521D01*
X120495872Y-60634670D01*
X120386393Y-60656447D01*
X120167437Y-60700000D01*
X119832563Y-60700000D01*
X119613607Y-60656447D01*
X119504128Y-60634670D01*
X119194748Y-60506521D01*
X118916313Y-60320477D01*
X118679523Y-60083687D01*
X118493479Y-59805252D01*
X118365330Y-59495872D01*
X118312955Y-59232565D01*
X118300000Y-59167437D01*
X118300000Y-58832563D01*
X118365330Y-58504129D01*
X118410637Y-58394748D01*
X118493479Y-58194748D01*
X118679523Y-57916313D01*
X118916313Y-57679523D01*
X119194748Y-57493479D01*
X119504128Y-57365330D01*
X119613607Y-57343553D01*
X119832563Y-57300000D01*
X120167437Y-57300000D01*
X120386393Y-57343553D01*
X120386393Y-57343553D01*
G37*
G36*
X183125888Y-55954470D02*
X183306274Y-55990350D01*
X183497362Y-56069502D01*
X183669336Y-56184411D01*
X183815589Y-56330664D01*
X183930498Y-56502638D01*
X184009650Y-56693726D01*
X184050000Y-56896584D01*
X184050000Y-57103416D01*
X184009650Y-57306274D01*
X183930498Y-57497362D01*
X183815589Y-57669336D01*
X183669336Y-57815589D01*
X183497362Y-57930498D01*
X183306274Y-58009650D01*
X183125888Y-58045530D01*
X183103417Y-58050000D01*
X182896583Y-58050000D01*
X182874112Y-58045530D01*
X182693726Y-58009650D01*
X182502638Y-57930498D01*
X182330664Y-57815589D01*
X182184411Y-57669336D01*
X182069502Y-57497362D01*
X181990350Y-57306274D01*
X181950000Y-57103416D01*
X181950000Y-56896584D01*
X181990350Y-56693726D01*
X182069502Y-56502638D01*
X182184411Y-56330664D01*
X182330664Y-56184411D01*
X182502638Y-56069502D01*
X182693726Y-55990350D01*
X182874112Y-55954470D01*
X182896583Y-55950000D01*
X183103417Y-55950000D01*
X183125888Y-55954470D01*
X183125888Y-55954470D01*
G37*
G36*
X180585888Y-55954470D02*
X180766274Y-55990350D01*
X180957362Y-56069502D01*
X181129336Y-56184411D01*
X181275589Y-56330664D01*
X181390498Y-56502638D01*
X181469650Y-56693726D01*
X181510000Y-56896584D01*
X181510000Y-57103416D01*
X181469650Y-57306274D01*
X181390498Y-57497362D01*
X181275589Y-57669336D01*
X181129336Y-57815589D01*
X180957362Y-57930498D01*
X180766274Y-58009650D01*
X180585888Y-58045530D01*
X180563417Y-58050000D01*
X180356583Y-58050000D01*
X180334112Y-58045530D01*
X180153726Y-58009650D01*
X179962638Y-57930498D01*
X179790664Y-57815589D01*
X179644411Y-57669336D01*
X179529502Y-57497362D01*
X179450350Y-57306274D01*
X179410000Y-57103416D01*
X179410000Y-56896584D01*
X179450350Y-56693726D01*
X179529502Y-56502638D01*
X179644411Y-56330664D01*
X179790664Y-56184411D01*
X179962638Y-56069502D01*
X180153726Y-55990350D01*
X180334112Y-55954470D01*
X180356583Y-55950000D01*
X180563417Y-55950000D01*
X180585888Y-55954470D01*
X180585888Y-55954470D01*
G37*
G36*
X142025888Y-55754470D02*
X142206274Y-55790350D01*
X142397362Y-55869502D01*
X142569336Y-55984411D01*
X142715589Y-56130664D01*
X142830498Y-56302638D01*
X142909650Y-56493726D01*
X142950000Y-56696584D01*
X142950000Y-56903416D01*
X142909650Y-57106274D01*
X142830498Y-57297362D01*
X142715589Y-57469336D01*
X142569336Y-57615589D01*
X142397362Y-57730498D01*
X142206274Y-57809650D01*
X142025888Y-57845530D01*
X142003417Y-57850000D01*
X141796583Y-57850000D01*
X141774112Y-57845530D01*
X141593726Y-57809650D01*
X141402638Y-57730498D01*
X141230664Y-57615589D01*
X141084411Y-57469336D01*
X140969502Y-57297362D01*
X140890350Y-57106274D01*
X140850000Y-56903416D01*
X140850000Y-56696584D01*
X140890350Y-56493726D01*
X140969502Y-56302638D01*
X141084411Y-56130664D01*
X141230664Y-55984411D01*
X141402638Y-55869502D01*
X141593726Y-55790350D01*
X141774112Y-55754470D01*
X141796583Y-55750000D01*
X142003417Y-55750000D01*
X142025888Y-55754470D01*
X142025888Y-55754470D01*
G37*
G36*
X139485888Y-55754470D02*
X139666274Y-55790350D01*
X139857362Y-55869502D01*
X140029336Y-55984411D01*
X140175589Y-56130664D01*
X140290498Y-56302638D01*
X140369650Y-56493726D01*
X140410000Y-56696584D01*
X140410000Y-56903416D01*
X140369650Y-57106274D01*
X140290498Y-57297362D01*
X140175589Y-57469336D01*
X140029336Y-57615589D01*
X139857362Y-57730498D01*
X139666274Y-57809650D01*
X139485888Y-57845530D01*
X139463417Y-57850000D01*
X139256583Y-57850000D01*
X139234112Y-57845530D01*
X139053726Y-57809650D01*
X138862638Y-57730498D01*
X138690664Y-57615589D01*
X138544411Y-57469336D01*
X138429502Y-57297362D01*
X138350350Y-57106274D01*
X138310000Y-56903416D01*
X138310000Y-56696584D01*
X138350350Y-56493726D01*
X138429502Y-56302638D01*
X138544411Y-56130664D01*
X138690664Y-55984411D01*
X138862638Y-55869502D01*
X139053726Y-55790350D01*
X139234112Y-55754470D01*
X139256583Y-55750000D01*
X139463417Y-55750000D01*
X139485888Y-55754470D01*
X139485888Y-55754470D01*
G37*
M02*
