M48
;DRILL file {KiCad 5.0.2-bee76a0~70~ubuntu18.04.1} date Mon Feb 25 13:41:20 2019
;FORMAT={3:3/ absolute / metric / suppress leading zeros}
FMAT,2
METRIC,TZ
T1C0.400
T2C0.762
T3C0.900
T4C1.000
T5C1.100
T6C1.200
T7C1.300
T8C2.000
T9C4.300
%
G90
G05
T1
X89000Y-94200
X90200Y-95400
X112000Y-105000
X116500Y-125000
X119100Y-108100
X122100Y-105500
X122100Y-110300
X122600Y-92500
X124775Y-114203
X125800Y-114100
X126200Y-115300
X126700Y-125000
X126900Y-95400
X127250Y-91750
X127300Y-89200
X127400Y-71900
X128400Y-115300
X128500Y-77750
X129000Y-94900
X129700Y-105500
X129700Y-110300
X129750Y-83000
X130000Y-94900
X130600Y-95900
X131000Y-110300
X132100Y-90400
X132300Y-95100
X133700Y-105500
X133700Y-110300
X134300Y-71900
X134900Y-90400
X135000Y-81250
X135400Y-96000
X137100Y-72000
X138400Y-95100
X138500Y-97000
X140300Y-90400
X141000Y-91750
X141200Y-89200
X142600Y-110400
X143200Y-83600
X145400Y-68900
X145400Y-83500
X146700Y-79386
X147500Y-93800
X148119Y-78706
X148500Y-70200
X148600Y-86300
X150100Y-79700
X150100Y-81800
X150200Y-74900
X153000Y-104750
X154600Y-70300
X154600Y-71400
X154600Y-79000
X155800Y-76700
X159413Y-83250
X166350Y-104600
X166500Y-110400
X167450Y-91750
X168300Y-88200
X169100Y-96100
X169500Y-114100
X171950Y-88975
X172000Y-91850
X172200Y-71250
X172750Y-113750
X173100Y-77000
X173800Y-94700
X174100Y-104600
X174200Y-110400
X174900Y-82300
X175000Y-94750
X175445Y-95745
X177101Y-94900
X177750Y-90050
X178750Y-71250
X179000Y-110500
X179050Y-104600
X180150Y-80650
X180200Y-90050
X180250Y-96450
X182000Y-71000
X183100Y-94900
X183500Y-97000
X185350Y-90050
X185700Y-82600
X186300Y-88975
X186300Y-91850
X188000Y-101000
X189850Y-68850
X190700Y-83300
X190750Y-93250
X190900Y-87700
X192150Y-78850
X192925Y-77500
X193100Y-70000
X194250Y-74750
X194650Y-79700
X195700Y-81225
X196750Y-104750
X198100Y-79775
X199100Y-78400
X199200Y-70100
X199200Y-71100
X200000Y-76550
X203650Y-83900
T2
X149250Y-88300
X149250Y-111300
X151750Y-88300
X156750Y-88300
X156750Y-111300
X159250Y-88300
X159250Y-111300
X193000Y-89000
X193000Y-112000
X195500Y-89000
X200500Y-89000
X200500Y-112000
X203000Y-89000
X203000Y-112000
T3
X131500Y-126000
X134000Y-126000
X121000Y-126000
X123500Y-126000
T4
X89600Y-64100
X92100Y-64100
X112400Y-64100
X114900Y-64100
X107650Y-127400
X112150Y-127400
X193100Y-64500
X195600Y-64500
X150820Y-120800
X150820Y-123340
X153360Y-120800
X153360Y-123340
X155900Y-120800
X155900Y-123340
X158440Y-120800
X158440Y-123340
X160980Y-120800
X160980Y-123340
X163520Y-120800
X163520Y-123340
X166060Y-120800
X166060Y-123340
X168600Y-120800
X168600Y-123340
X151900Y-64300
X154400Y-64300
T5
X180460Y-57000
X180460Y-62080
X183000Y-57000
X183000Y-62080
X139360Y-56800
X139360Y-61880
X141900Y-56800
X141900Y-61880
X87680Y-70190
X87680Y-72730
X87680Y-75270
X87680Y-77810
X87680Y-80350
X87680Y-82890
X87680Y-85430
X87680Y-87970
X87680Y-90510
X87680Y-93050
X87680Y-95590
X87680Y-98130
X87680Y-100670
X87680Y-103210
X87680Y-105750
X87680Y-108290
X87680Y-110830
X87680Y-113370
X87680Y-115910
X87680Y-118450
X87680Y-120990
X87680Y-123530
X87680Y-126070
X87680Y-128610
X102920Y-70190
X102920Y-72730
X102920Y-75270
X102920Y-77810
X102920Y-80350
X102920Y-82890
X102920Y-85430
X102920Y-87970
X102920Y-90510
X102920Y-93050
X102920Y-95590
X102920Y-98130
X102920Y-100670
X102920Y-103210
X102920Y-105750
X102920Y-108290
X102920Y-110830
X102920Y-113370
X102920Y-115910
X102920Y-118450
X102920Y-120990
X102920Y-123530
X102920Y-126070
X102920Y-128610
T6
X146250Y-90800
X162250Y-108800
X190000Y-91500
X206000Y-109500
T7
X106400Y-124900
X113400Y-124900
T8
X149300Y-59200
X159500Y-59200
X87000Y-59000
X97200Y-59000
X109800Y-59000
X120000Y-59000
X190500Y-59400
X200700Y-59400
T9
X203000Y-120000
X128500Y-59500
X110500Y-84500
X170500Y-59500
T0
M30
