G04 #@! TF.GenerationSoftware,KiCad,Pcbnew,5.0.2-bee76a0~70~ubuntu18.04.1*
G04 #@! TF.CreationDate,2018-12-10T21:57:33+02:00*
G04 #@! TF.ProjectId,microstim,6d696372-6f73-4746-996d-2e6b69636164,rev?*
G04 #@! TF.SameCoordinates,Original*
G04 #@! TF.FileFunction,Copper,L2,Bot*
G04 #@! TF.FilePolarity,Positive*
%FSLAX46Y46*%
G04 Gerber Fmt 4.6, Leading zero omitted, Abs format (unit mm)*
G04 Created by KiCad (PCBNEW 5.0.2-bee76a0~70~ubuntu18.04.1) date Mon Dec 10 21:57:33 2018*
%MOMM*%
%LPD*%
G01*
G04 APERTURE LIST*
G04 #@! TA.AperFunction,ComponentPad*
%ADD10C,1.600000*%
G04 #@! TD*
G04 #@! TA.AperFunction,ComponentPad*
%ADD11R,1.600000X1.600000*%
G04 #@! TD*
G04 #@! TA.AperFunction,ComponentPad*
%ADD12C,3.000000*%
G04 #@! TD*
G04 #@! TA.AperFunction,ComponentPad*
%ADD13C,1.700000*%
G04 #@! TD*
G04 #@! TA.AperFunction,ComponentPad*
%ADD14C,1.524000*%
G04 #@! TD*
G04 #@! TA.AperFunction,ComponentPad*
%ADD15C,1.800000*%
G04 #@! TD*
G04 #@! TA.AperFunction,ViaPad*
%ADD16C,0.800000*%
G04 #@! TD*
G04 #@! TA.AperFunction,Conductor*
%ADD17C,0.250000*%
G04 #@! TD*
G04 #@! TA.AperFunction,Conductor*
%ADD18C,0.500000*%
G04 #@! TD*
G04 #@! TA.AperFunction,Conductor*
%ADD19C,0.254000*%
G04 #@! TD*
G04 APERTURE END LIST*
D10*
G04 #@! TO.P,U1,17*
G04 #@! TO.N,Net-(U1-Pad17)*
X125120000Y-95070000D03*
G04 #@! TO.P,U1,18*
G04 #@! TO.N,Net-(U1-Pad18)*
X125120000Y-92530000D03*
G04 #@! TO.P,U1,19*
G04 #@! TO.N,Net-(U1-Pad19)*
X125120000Y-89990000D03*
G04 #@! TO.P,U1,20*
G04 #@! TO.N,Net-(U1-Pad20)*
X125120000Y-87450000D03*
G04 #@! TO.P,U1,16*
G04 #@! TO.N,Net-(U1-Pad16)*
X125120000Y-97610000D03*
G04 #@! TO.P,U1,15*
G04 #@! TO.N,+3V3*
X125120000Y-100150000D03*
G04 #@! TO.P,U1,14*
G04 #@! TO.N,MISO*
X125120000Y-102690000D03*
G04 #@! TO.P,U1,21*
G04 #@! TO.N,Net-(U1-Pad21)*
X125120000Y-84910000D03*
G04 #@! TO.P,U1,22*
G04 #@! TO.N,Net-(U1-Pad22)*
X125120000Y-82370000D03*
G04 #@! TO.P,U1,23*
G04 #@! TO.N,Net-(U1-Pad23)*
X125120000Y-79830000D03*
G04 #@! TO.P,U1,24*
G04 #@! TO.N,Net-(U1-Pad24)*
X125120000Y-77290000D03*
G04 #@! TO.P,U1,30*
G04 #@! TO.N,Net-(U1-Pad30)*
X109880000Y-77290000D03*
G04 #@! TO.P,U1,31*
G04 #@! TO.N,Net-(U1-Pad31)*
X109880000Y-79830000D03*
G04 #@! TO.P,U1,32*
G04 #@! TO.N,Net-(U1-Pad32)*
X109880000Y-82370000D03*
G04 #@! TO.P,U1,33*
G04 #@! TO.N,Net-(U1-Pad33)*
X109880000Y-84910000D03*
G04 #@! TO.P,U1,34*
G04 #@! TO.N,Net-(U1-Pad34)*
X109880000Y-87450000D03*
G04 #@! TO.P,U1,35*
G04 #@! TO.N,Net-(U1-Pad35)*
X109880000Y-89990000D03*
G04 #@! TO.P,U1,36*
G04 #@! TO.N,Net-(U1-Pad36)*
X109880000Y-92530000D03*
G04 #@! TO.P,U1,37*
G04 #@! TO.N,Net-(U1-Pad37)*
X109880000Y-95070000D03*
G04 #@! TO.P,U1,13*
G04 #@! TO.N,MOSI*
X125120000Y-105230000D03*
G04 #@! TO.P,U1,12*
G04 #@! TO.N,Net-(U1-Pad12)*
X125120000Y-107770000D03*
G04 #@! TO.P,U1,11*
G04 #@! TO.N,NLDAC*
X125120000Y-110310000D03*
G04 #@! TO.P,U1,10*
G04 #@! TO.N,CS0*
X125120000Y-112850000D03*
G04 #@! TO.P,U1,9*
G04 #@! TO.N,CS1*
X125120000Y-115390000D03*
G04 #@! TO.P,U1,8*
G04 #@! TO.N,OE0*
X125120000Y-117930000D03*
G04 #@! TO.P,U1,7*
G04 #@! TO.N,OE1*
X125120000Y-120470000D03*
G04 #@! TO.P,U1,6*
G04 #@! TO.N,OE2*
X125120000Y-123010000D03*
G04 #@! TO.P,U1,5*
G04 #@! TO.N,OE3*
X125120000Y-125550000D03*
G04 #@! TO.P,U1,4*
G04 #@! TO.N,Net-(U1-Pad4)*
X125120000Y-128090000D03*
G04 #@! TO.P,U1,3*
G04 #@! TO.N,Net-(U1-Pad3)*
X125120000Y-130630000D03*
G04 #@! TO.P,U1,2*
G04 #@! TO.N,Net-(U1-Pad2)*
X125120000Y-133170000D03*
D11*
G04 #@! TO.P,U1,1*
G04 #@! TO.N,GND*
X125120000Y-135710000D03*
D10*
G04 #@! TO.P,U1,38*
G04 #@! TO.N,Net-(U1-Pad38)*
X109880000Y-97610000D03*
G04 #@! TO.P,U1,39*
G04 #@! TO.N,Net-(U1-Pad39)*
X109880000Y-100150000D03*
G04 #@! TO.P,U1,40*
G04 #@! TO.N,SCK0*
X109880000Y-102690000D03*
G04 #@! TO.P,U1,41*
G04 #@! TO.N,Net-(U1-Pad41)*
X109880000Y-105230000D03*
G04 #@! TO.P,U1,42*
G04 #@! TO.N,Net-(U1-Pad42)*
X109880000Y-107770000D03*
G04 #@! TO.P,U1,43*
G04 #@! TO.N,Net-(U1-Pad43)*
X109880000Y-110310000D03*
G04 #@! TO.P,U1,44*
G04 #@! TO.N,Net-(U1-Pad44)*
X109880000Y-112850000D03*
G04 #@! TO.P,U1,45*
G04 #@! TO.N,Net-(U1-Pad45)*
X109880000Y-115390000D03*
G04 #@! TO.P,U1,46*
G04 #@! TO.N,Net-(U1-Pad46)*
X109880000Y-117930000D03*
G04 #@! TO.P,U1,47*
G04 #@! TO.N,Net-(U1-Pad47)*
X109880000Y-120470000D03*
G04 #@! TO.P,U1,48*
G04 #@! TO.N,Net-(U1-Pad48)*
X109880000Y-123010000D03*
G04 #@! TO.P,U1,49*
G04 #@! TO.N,Net-(J1-Pad1)*
X109880000Y-125550000D03*
G04 #@! TO.P,U1,50*
G04 #@! TO.N,Net-(J5-Pad1)*
X109880000Y-128090000D03*
G04 #@! TO.P,U1,51*
G04 #@! TO.N,+3V3*
X109880000Y-130630000D03*
G04 #@! TO.P,U1,52*
G04 #@! TO.N,Net-(U1-Pad52)*
X109880000Y-133170000D03*
G04 #@! TO.P,U1,53*
G04 #@! TO.N,VUSB*
X109880000Y-135710000D03*
G04 #@! TD*
D12*
G04 #@! TO.P,J12,NC*
G04 #@! TO.N,N/C*
X205200000Y-65900000D03*
X195000000Y-65900000D03*
D13*
G04 #@! TO.P,J12,1*
G04 #@! TO.N,OUT1*
X200100000Y-71000000D03*
G04 #@! TO.P,J12,2*
G04 #@! TO.N,GNDREF*
X197600000Y-71000000D03*
G04 #@! TD*
G04 #@! TO.P,J1,2*
G04 #@! TO.N,GND*
X106500000Y-71000000D03*
G04 #@! TO.P,J1,1*
G04 #@! TO.N,Net-(J1-Pad1)*
X109000000Y-71000000D03*
D12*
G04 #@! TO.P,J1,NC*
G04 #@! TO.N,N/C*
X103900000Y-65900000D03*
X114100000Y-65900000D03*
G04 #@! TD*
D13*
G04 #@! TO.P,J10,2*
G04 #@! TO.N,GNDREF*
X166600000Y-71000000D03*
G04 #@! TO.P,J10,1*
G04 #@! TO.N,OUT0*
X169100000Y-71000000D03*
D12*
G04 #@! TO.P,J10,NC*
G04 #@! TO.N,N/C*
X164000000Y-65900000D03*
X174200000Y-65900000D03*
G04 #@! TD*
G04 #@! TO.P,J5,NC*
G04 #@! TO.N,N/C*
X144500000Y-65900000D03*
X134300000Y-65900000D03*
D13*
G04 #@! TO.P,J5,1*
G04 #@! TO.N,Net-(J5-Pad1)*
X139400000Y-71000000D03*
G04 #@! TO.P,J5,2*
G04 #@! TO.N,GND*
X136900000Y-71000000D03*
G04 #@! TD*
D14*
G04 #@! TO.P,U2,4*
G04 #@! TO.N,-15V*
X152190000Y-92090000D03*
G04 #@! TO.P,U2,5*
G04 #@! TO.N,GNDREF*
X152190000Y-89590000D03*
G04 #@! TO.P,U2,6*
G04 #@! TO.N,-15V*
X152190000Y-84590000D03*
G04 #@! TO.P,U2,7*
G04 #@! TO.N,+15V*
X152190000Y-82090000D03*
D15*
G04 #@! TO.P,U2,a*
G04 #@! TO.N,N/C*
X149690000Y-79090000D03*
X131690000Y-95090000D03*
D14*
G04 #@! TO.P,U2,1*
G04 #@! TO.N,VUSB*
X129190000Y-82090000D03*
G04 #@! TO.P,U2,2*
G04 #@! TO.N,GND*
X129190000Y-89590000D03*
G04 #@! TO.P,U2,3*
X129190000Y-92090000D03*
G04 #@! TD*
D13*
G04 #@! TO.P,J3,1*
G04 #@! TO.N,Net-(J1-Pad1)*
X96500000Y-68580000D03*
G04 #@! TO.P,J3,2*
G04 #@! TO.N,GND*
X93960000Y-68580000D03*
X93960000Y-63500000D03*
G04 #@! TO.P,J3,1*
G04 #@! TO.N,Net-(J1-Pad1)*
X96500000Y-63500000D03*
G04 #@! TD*
G04 #@! TO.P,J7,1*
G04 #@! TO.N,Net-(J5-Pad1)*
X127500000Y-68580000D03*
G04 #@! TO.P,J7,2*
G04 #@! TO.N,GND*
X124960000Y-68580000D03*
X124960000Y-63500000D03*
G04 #@! TO.P,J7,1*
G04 #@! TO.N,Net-(J5-Pad1)*
X127500000Y-63500000D03*
G04 #@! TD*
G04 #@! TO.P,J9,1*
G04 #@! TO.N,OUT0*
X156600000Y-63500000D03*
G04 #@! TO.P,J9,2*
G04 #@! TO.N,GNDREF*
X154060000Y-63500000D03*
X154060000Y-68580000D03*
G04 #@! TO.P,J9,1*
G04 #@! TO.N,OUT0*
X156600000Y-68580000D03*
G04 #@! TD*
G04 #@! TO.P,J11,1*
G04 #@! TO.N,OUT1*
X187500000Y-63500000D03*
G04 #@! TO.P,J11,2*
G04 #@! TO.N,GNDREF*
X184960000Y-63500000D03*
X184960000Y-68580000D03*
G04 #@! TO.P,J11,1*
G04 #@! TO.N,OUT1*
X187500000Y-68580000D03*
G04 #@! TD*
D16*
G04 #@! TO.N,*
X153701000Y-87978000D03*
G04 #@! TO.N,+5V*
X178212000Y-97122000D03*
X177450000Y-126078000D03*
X154717000Y-126459000D03*
X156114000Y-122141000D03*
X158146000Y-120871000D03*
X160432000Y-110228500D03*
X164597500Y-110228500D03*
X170900000Y-83406000D03*
X171600000Y-111600000D03*
G04 #@! TO.N,GNDREF*
X159600000Y-83500000D03*
X182530000Y-96360000D03*
X183038000Y-125316000D03*
X147224000Y-100170000D03*
X153828000Y-113124000D03*
X144303000Y-112870000D03*
X161702000Y-119728000D03*
X144557000Y-128364000D03*
X161321000Y-111854000D03*
X175164000Y-130650000D03*
X173500000Y-133400000D03*
X161700000Y-97300000D03*
X160559000Y-130650000D03*
X156622000Y-115537000D03*
X165512000Y-126078000D03*
X166528000Y-101186000D03*
X159289000Y-116172000D03*
X172497000Y-81442000D03*
X157892000Y-88232000D03*
X157511000Y-95725000D03*
X150272000Y-74770000D03*
X152812000Y-110711000D03*
X163480000Y-131031000D03*
X145446000Y-86200000D03*
X157300000Y-75300000D03*
X182400000Y-92900000D03*
X173700000Y-97700000D03*
X147500000Y-124400000D03*
X154600000Y-130300000D03*
X165800000Y-83100000D03*
X175500000Y-108300000D03*
X174800000Y-87300000D03*
X183000000Y-123100000D03*
X144700000Y-134400000D03*
X174200000Y-106000000D03*
X153300000Y-104400000D03*
X169600000Y-113200000D03*
X158000000Y-107500000D03*
X154500000Y-109800000D03*
X203400000Y-97700000D03*
X203400000Y-95000000D03*
X203400000Y-100200000D03*
X199400000Y-95000000D03*
X199400000Y-97700000D03*
X199400000Y-100200000D03*
X183100000Y-132500000D03*
G04 #@! TO.N,+15V*
X162200000Y-76100000D03*
X172500000Y-76100000D03*
G04 #@! TO.N,+12V*
X173386000Y-88486000D03*
X187864000Y-88486000D03*
X187864000Y-100170000D03*
X174148000Y-104488000D03*
X188118000Y-116680000D03*
X188118000Y-128872000D03*
X174402000Y-116934000D03*
X160432000Y-113378000D03*
X170338000Y-115283000D03*
X175200000Y-81200000D03*
X174700000Y-132472000D03*
G04 #@! TO.N,GND*
X131603000Y-97249000D03*
X135413000Y-112108000D03*
X98500000Y-95500000D03*
X98500000Y-97500000D03*
X98500000Y-99500000D03*
X98500000Y-101500000D03*
X98500000Y-103500000D03*
X98500000Y-105500000D03*
X98500000Y-107500000D03*
X131600000Y-102100000D03*
X137700000Y-114400000D03*
G04 #@! TO.N,MOSIi*
X148240000Y-103980000D03*
X149002000Y-110838000D03*
G04 #@! TO.N,SCK0i*
X149002000Y-104996000D03*
X149256000Y-102964000D03*
X155987000Y-108806000D03*
G04 #@! TO.N,OE1i*
X159000000Y-119700000D03*
X155600000Y-135100000D03*
G04 #@! TO.N,-15V*
X183038000Y-77263170D03*
G04 #@! TO.N,-12V*
X176688000Y-100170000D03*
X178466000Y-90772000D03*
X165004000Y-105758000D03*
X163734000Y-91534000D03*
X180244000Y-119474000D03*
X177958000Y-128872000D03*
X165004000Y-119728000D03*
X154717000Y-117569000D03*
X152558000Y-113378000D03*
X161227339Y-127600000D03*
X167800000Y-130105000D03*
G04 #@! TO.N,ISENSE0*
X161702000Y-114902000D03*
X169576000Y-106266000D03*
G04 #@! TO.N,MISO*
X133500000Y-108200000D03*
G04 #@! TO.N,VOUT1*
X185324000Y-111600000D03*
X188118000Y-131158000D03*
G04 #@! TO.N,VOUT0*
X184816000Y-83660000D03*
X187864000Y-101694000D03*
G04 #@! TO.N,DAC0*
X161702000Y-89756000D03*
X161700000Y-85800000D03*
G04 #@! TO.N,DAC1*
X162972000Y-114902000D03*
X177196000Y-115918000D03*
G04 #@! TO.N,OE3i*
X157100000Y-131600000D03*
X157400000Y-129300000D03*
G04 #@! TO.N,CS0i*
X146800000Y-110000000D03*
X149200000Y-101500000D03*
G04 #@! TO.N,OUT0*
X149000000Y-118900000D03*
X164600000Y-104400000D03*
X184900000Y-106500000D03*
G04 #@! TO.N,OUT1*
X187500000Y-132500000D03*
G04 #@! TD*
D17*
G04 #@! TO.N,+5V*
X178212000Y-97122000D02*
X172370000Y-91280000D01*
X154717000Y-126459000D02*
X154717000Y-125893315D01*
X154717000Y-125893315D02*
X154717000Y-123538000D01*
X154717000Y-123538000D02*
X156114000Y-122141000D01*
X158146000Y-120871000D02*
X158146000Y-112514500D01*
X158146000Y-112514500D02*
X160432000Y-110228500D01*
X160432000Y-110228500D02*
X164597500Y-110228500D01*
X172370000Y-84876000D02*
X170900000Y-83406000D01*
X172370000Y-91280000D02*
X172370000Y-84876000D01*
X171600000Y-111600000D02*
X171608000Y-120236000D01*
X171608000Y-120236000D02*
X177450000Y-126078000D01*
D18*
G04 #@! TO.N,+15V*
X152190000Y-82090000D02*
X158180000Y-76100000D01*
X158180000Y-76100000D02*
X162200000Y-76100000D01*
X162200000Y-76100000D02*
X162765685Y-76100000D01*
X162765685Y-76100000D02*
X172500000Y-76100000D01*
D17*
G04 #@! TO.N,+12V*
X187864000Y-100170000D02*
X187864000Y-88486000D01*
X183546000Y-104488000D02*
X187864000Y-100170000D01*
X174148000Y-104488000D02*
X183546000Y-104488000D01*
X188118000Y-116680000D02*
X188118000Y-128872000D01*
X187718001Y-117079999D02*
X188118000Y-116680000D01*
X187464001Y-117333999D02*
X187718001Y-117079999D01*
X174402000Y-116934000D02*
X174801999Y-117333999D01*
X177921001Y-117297000D02*
X177958000Y-117333999D01*
X177921001Y-108261001D02*
X177921001Y-117297000D01*
X174148000Y-104488000D02*
X177921001Y-108261001D01*
X174801999Y-117333999D02*
X177958000Y-117333999D01*
X177958000Y-117333999D02*
X187464001Y-117333999D01*
X160432000Y-114705002D02*
X162406998Y-116680000D01*
X160432000Y-113378000D02*
X160432000Y-114705002D01*
X162406998Y-116680000D02*
X168941000Y-116680000D01*
X168941000Y-116680000D02*
X170338000Y-115283000D01*
X178700000Y-84700000D02*
X178700000Y-88486000D01*
X175200000Y-81200000D02*
X178700000Y-84700000D01*
X173386000Y-88486000D02*
X178700000Y-88486000D01*
X178700000Y-88486000D02*
X187864000Y-88486000D01*
X174700000Y-132472000D02*
X175563999Y-133335999D01*
X187718001Y-129271999D02*
X188118000Y-128872000D01*
X183654001Y-133335999D02*
X187718001Y-129271999D01*
X175563999Y-133335999D02*
X183654001Y-133335999D01*
G04 #@! TO.N,MOSIi*
X148240000Y-110076000D02*
X148240000Y-103980000D01*
X149002000Y-110838000D02*
X148240000Y-110076000D01*
G04 #@! TO.N,SCK0i*
X149401999Y-104596001D02*
X149401999Y-103109999D01*
X149002000Y-104996000D02*
X149401999Y-104596001D01*
X149401999Y-103109999D02*
X149256000Y-102964000D01*
X149002000Y-107663000D02*
X149002000Y-104996000D01*
X155987000Y-108806000D02*
X150145000Y-108806000D01*
X150145000Y-108806000D02*
X149002000Y-107663000D01*
G04 #@! TO.N,OE1i*
X159000000Y-119700000D02*
X159000000Y-131700000D01*
X159000000Y-131700000D02*
X155600000Y-135100000D01*
D18*
G04 #@! TO.N,-15V*
X152190000Y-84590000D02*
X159516830Y-77263170D01*
X159516830Y-77263170D02*
X183038000Y-77263170D01*
D17*
G04 #@! TO.N,-12V*
X176688000Y-100170000D02*
X177958000Y-100170000D01*
X179482000Y-98646000D02*
X179482000Y-91788000D01*
X177958000Y-100170000D02*
X179482000Y-98646000D01*
X179482000Y-91788000D02*
X178466000Y-90772000D01*
X170592000Y-100170000D02*
X176688000Y-100170000D01*
X165004000Y-105758000D02*
X170592000Y-100170000D01*
X170592000Y-98392000D02*
X170592000Y-100170000D01*
X163734000Y-91534000D02*
X170592000Y-98392000D01*
X180244000Y-119474000D02*
X180244000Y-126332000D01*
X180244000Y-126332000D02*
X177958000Y-128618000D01*
X177958000Y-128618000D02*
X177958000Y-128872000D01*
X171100000Y-128872000D02*
X177958000Y-128872000D01*
X165004000Y-119728000D02*
X165004000Y-122776000D01*
X154717000Y-117569000D02*
X152558000Y-115410000D01*
X152558000Y-115410000D02*
X152558000Y-113378000D01*
X152957999Y-112978001D02*
X152558000Y-113378000D01*
X152957999Y-112920999D02*
X152957999Y-112978001D01*
X161865999Y-108896001D02*
X156982997Y-108896001D01*
X156982997Y-108896001D02*
X152957999Y-112920999D01*
X165004000Y-105758000D02*
X161865999Y-108896001D01*
X162464000Y-126274315D02*
X165004000Y-123734315D01*
X165004000Y-123734315D02*
X165004000Y-122776000D01*
X161227339Y-127600000D02*
X162464000Y-126274315D01*
X165004000Y-123734315D02*
X165034315Y-123734315D01*
X170172000Y-128872000D02*
X171100000Y-128872000D01*
X165034315Y-123734315D02*
X170172000Y-128872000D01*
X170172000Y-128872000D02*
X169033000Y-128872000D01*
X169033000Y-128872000D02*
X167800000Y-130105000D01*
D18*
G04 #@! TO.N,VUSB*
X129190000Y-77690000D02*
X129190000Y-82090000D01*
X109880000Y-135710000D02*
X111011370Y-135710000D01*
X111011370Y-135710000D02*
X117500000Y-129221370D01*
X117500000Y-129221370D02*
X117500000Y-77000000D01*
X117500000Y-77000000D02*
X119500000Y-75000000D01*
X119500000Y-75000000D02*
X126500000Y-75000000D01*
X126500000Y-75000000D02*
X129190000Y-77690000D01*
D17*
G04 #@! TO.N,ISENSE0*
X161702000Y-114902000D02*
X169576000Y-107028000D01*
X169576000Y-107028000D02*
X169576000Y-106266000D01*
D18*
G04 #@! TO.N,Net-(J5-Pad1)*
X114500000Y-123970000D02*
X114500000Y-77000000D01*
X114500000Y-77000000D02*
X118500000Y-73000000D01*
X123080000Y-73000000D02*
X127500000Y-68580000D01*
X118500000Y-73000000D02*
X123080000Y-73000000D01*
X136880000Y-68480000D02*
X139400000Y-71000000D01*
X127500000Y-68480000D02*
X136880000Y-68480000D01*
X127500000Y-63500000D02*
X127500000Y-68580000D01*
X111179999Y-127290001D02*
X114500000Y-123970000D01*
X110679999Y-127290001D02*
X111179999Y-127290001D01*
X109880000Y-128090000D02*
X110679999Y-127290001D01*
G04 #@! TO.N,Net-(J1-Pad1)*
X106500000Y-122670000D02*
X106500000Y-73500000D01*
X96500000Y-63500000D02*
X96500000Y-68580000D01*
X106000000Y-73500000D02*
X106500000Y-73500000D01*
X96500000Y-68580000D02*
X101080000Y-68580000D01*
X101080000Y-68580000D02*
X106000000Y-73500000D01*
X108100000Y-71900000D02*
X106500000Y-73500000D01*
X109000000Y-71000000D02*
X108100000Y-71900000D01*
X106500000Y-123301370D02*
X106500000Y-122670000D01*
X108748630Y-125550000D02*
X106500000Y-123301370D01*
X109880000Y-125550000D02*
X108748630Y-125550000D01*
D17*
G04 #@! TO.N,MISO*
X125120000Y-103190000D02*
X125919999Y-103989999D01*
X125919999Y-103989999D02*
X125919999Y-104019999D01*
X125919999Y-104019999D02*
X130100000Y-108200000D01*
X130100000Y-108200000D02*
X133500000Y-108200000D01*
G04 #@! TO.N,VOUT1*
X185324000Y-111600000D02*
X189642000Y-115918000D01*
X189642000Y-115918000D02*
X189642000Y-129634000D01*
X189642000Y-129634000D02*
X188118000Y-131158000D01*
G04 #@! TO.N,VOUT0*
X187356000Y-83660000D02*
X184816000Y-83660000D01*
X189134000Y-85438000D02*
X187356000Y-83660000D01*
X189134000Y-100424000D02*
X189134000Y-85438000D01*
X187864000Y-101694000D02*
X189134000Y-100424000D01*
G04 #@! TO.N,DAC0*
X161702000Y-89756000D02*
X161702000Y-85802000D01*
X161702000Y-85802000D02*
X161700000Y-85800000D01*
G04 #@! TO.N,DAC1*
X177196000Y-112362000D02*
X177196000Y-115918000D01*
X174656000Y-109822000D02*
X177196000Y-112362000D01*
X162972000Y-114902000D02*
X168052000Y-109822000D01*
X168052000Y-109822000D02*
X174656000Y-109822000D01*
G04 #@! TO.N,OE3i*
X157100000Y-131600000D02*
X157100000Y-129600000D01*
X157100000Y-129600000D02*
X157400000Y-129300000D01*
G04 #@! TO.N,CS0i*
X146800000Y-110000000D02*
X146800000Y-103900000D01*
X146800000Y-103900000D02*
X149200000Y-101500000D01*
G04 #@! TO.N,OUT0*
X146074999Y-115974999D02*
X146074999Y-103425001D01*
X149000000Y-118900000D02*
X146074999Y-115974999D01*
X160974999Y-100774999D02*
X164600000Y-104400000D01*
X146074999Y-103425001D02*
X148725001Y-100774999D01*
X148725001Y-100774999D02*
X160974999Y-100774999D01*
D18*
X191600000Y-106500000D02*
X184900000Y-106500000D01*
X192100000Y-106000000D02*
X191600000Y-106500000D01*
X192100000Y-106000000D02*
X192100000Y-74100000D01*
X192100000Y-74100000D02*
X190700000Y-72700000D01*
X170800000Y-72700000D02*
X169100000Y-71000000D01*
X190700000Y-72700000D02*
X170800000Y-72700000D01*
X166680000Y-68580000D02*
X169100000Y-71000000D01*
X156600000Y-68580000D02*
X166680000Y-68580000D01*
X156600000Y-67377919D02*
X156600000Y-63500000D01*
X156600000Y-68580000D02*
X156600000Y-67377919D01*
G04 #@! TO.N,OUT1*
X187500000Y-68580000D02*
X187500000Y-63500000D01*
X197700000Y-68600000D02*
X200100000Y-71000000D01*
X187500000Y-132500000D02*
X194000000Y-132500000D01*
X193900000Y-68600000D02*
X197700000Y-68600000D01*
X194000000Y-132500000D02*
X193900000Y-68600000D01*
X193900000Y-68600000D02*
X187500000Y-68580000D01*
G04 #@! TD*
D19*
G04 #@! TO.N,GND*
G36*
X146373000Y-64842798D02*
X146309966Y-64690620D01*
X145709380Y-64090034D01*
X144924678Y-63765000D01*
X144075322Y-63765000D01*
X143290620Y-64090034D01*
X142690034Y-64690620D01*
X142365000Y-65475322D01*
X142365000Y-66324678D01*
X142690034Y-67109380D01*
X143290620Y-67709966D01*
X144075322Y-68035000D01*
X144924678Y-68035000D01*
X145709380Y-67709966D01*
X146309966Y-67109380D01*
X146373000Y-66957202D01*
X146373000Y-70955452D01*
X138400830Y-80920664D01*
X138378018Y-80964654D01*
X138373000Y-81000000D01*
X138373000Y-136790000D01*
X126491339Y-136790000D01*
X126555000Y-136636309D01*
X126555000Y-135995750D01*
X126396250Y-135837000D01*
X125247000Y-135837000D01*
X125247000Y-135857000D01*
X124993000Y-135857000D01*
X124993000Y-135837000D01*
X123843750Y-135837000D01*
X123685000Y-135995750D01*
X123685000Y-136636309D01*
X123748661Y-136790000D01*
X110829396Y-136790000D01*
X111007774Y-136611622D01*
X111011370Y-136612337D01*
X111098531Y-136595000D01*
X111098535Y-136595000D01*
X111356680Y-136543652D01*
X111649419Y-136348049D01*
X111698795Y-136274153D01*
X118064156Y-129908792D01*
X118138049Y-129859419D01*
X118333652Y-129566680D01*
X118385000Y-129308535D01*
X118385000Y-129308531D01*
X118402337Y-129221370D01*
X118385000Y-129134209D01*
X118385000Y-77366578D01*
X119866579Y-75885000D01*
X124762135Y-75885000D01*
X124307138Y-76073466D01*
X123903466Y-76477138D01*
X123685000Y-77004561D01*
X123685000Y-77575439D01*
X123903466Y-78102862D01*
X124307138Y-78506534D01*
X124436216Y-78560000D01*
X124307138Y-78613466D01*
X123903466Y-79017138D01*
X123685000Y-79544561D01*
X123685000Y-80115439D01*
X123903466Y-80642862D01*
X124307138Y-81046534D01*
X124436216Y-81100000D01*
X124307138Y-81153466D01*
X123903466Y-81557138D01*
X123685000Y-82084561D01*
X123685000Y-82655439D01*
X123903466Y-83182862D01*
X124307138Y-83586534D01*
X124436216Y-83640000D01*
X124307138Y-83693466D01*
X123903466Y-84097138D01*
X123685000Y-84624561D01*
X123685000Y-85195439D01*
X123903466Y-85722862D01*
X124307138Y-86126534D01*
X124436216Y-86180000D01*
X124307138Y-86233466D01*
X123903466Y-86637138D01*
X123685000Y-87164561D01*
X123685000Y-87735439D01*
X123903466Y-88262862D01*
X124307138Y-88666534D01*
X124436216Y-88720000D01*
X124307138Y-88773466D01*
X123903466Y-89177138D01*
X123685000Y-89704561D01*
X123685000Y-90275439D01*
X123903466Y-90802862D01*
X124307138Y-91206534D01*
X124436216Y-91260000D01*
X124307138Y-91313466D01*
X123903466Y-91717138D01*
X123685000Y-92244561D01*
X123685000Y-92815439D01*
X123903466Y-93342862D01*
X124307138Y-93746534D01*
X124436216Y-93800000D01*
X124307138Y-93853466D01*
X123903466Y-94257138D01*
X123685000Y-94784561D01*
X123685000Y-95355439D01*
X123903466Y-95882862D01*
X124307138Y-96286534D01*
X124436216Y-96340000D01*
X124307138Y-96393466D01*
X123903466Y-96797138D01*
X123685000Y-97324561D01*
X123685000Y-97895439D01*
X123903466Y-98422862D01*
X124307138Y-98826534D01*
X124436216Y-98880000D01*
X124307138Y-98933466D01*
X123903466Y-99337138D01*
X123685000Y-99864561D01*
X123685000Y-100435439D01*
X123903466Y-100962862D01*
X124307138Y-101366534D01*
X124436216Y-101420000D01*
X124307138Y-101473466D01*
X123903466Y-101877138D01*
X123685000Y-102404561D01*
X123685000Y-102975439D01*
X123903466Y-103502862D01*
X124307138Y-103906534D01*
X124436216Y-103960000D01*
X124307138Y-104013466D01*
X123903466Y-104417138D01*
X123685000Y-104944561D01*
X123685000Y-105515439D01*
X123903466Y-106042862D01*
X124307138Y-106446534D01*
X124436216Y-106500000D01*
X124307138Y-106553466D01*
X123903466Y-106957138D01*
X123685000Y-107484561D01*
X123685000Y-108055439D01*
X123903466Y-108582862D01*
X124307138Y-108986534D01*
X124436216Y-109040000D01*
X124307138Y-109093466D01*
X123903466Y-109497138D01*
X123685000Y-110024561D01*
X123685000Y-110595439D01*
X123903466Y-111122862D01*
X124307138Y-111526534D01*
X124436216Y-111580000D01*
X124307138Y-111633466D01*
X123903466Y-112037138D01*
X123685000Y-112564561D01*
X123685000Y-113135439D01*
X123903466Y-113662862D01*
X124307138Y-114066534D01*
X124436216Y-114120000D01*
X124307138Y-114173466D01*
X123903466Y-114577138D01*
X123685000Y-115104561D01*
X123685000Y-115675439D01*
X123903466Y-116202862D01*
X124307138Y-116606534D01*
X124436216Y-116660000D01*
X124307138Y-116713466D01*
X123903466Y-117117138D01*
X123685000Y-117644561D01*
X123685000Y-118215439D01*
X123903466Y-118742862D01*
X124307138Y-119146534D01*
X124436216Y-119200000D01*
X124307138Y-119253466D01*
X123903466Y-119657138D01*
X123685000Y-120184561D01*
X123685000Y-120755439D01*
X123903466Y-121282862D01*
X124307138Y-121686534D01*
X124436216Y-121740000D01*
X124307138Y-121793466D01*
X123903466Y-122197138D01*
X123685000Y-122724561D01*
X123685000Y-123295439D01*
X123903466Y-123822862D01*
X124307138Y-124226534D01*
X124436216Y-124280000D01*
X124307138Y-124333466D01*
X123903466Y-124737138D01*
X123685000Y-125264561D01*
X123685000Y-125835439D01*
X123903466Y-126362862D01*
X124307138Y-126766534D01*
X124436216Y-126820000D01*
X124307138Y-126873466D01*
X123903466Y-127277138D01*
X123685000Y-127804561D01*
X123685000Y-128375439D01*
X123903466Y-128902862D01*
X124307138Y-129306534D01*
X124436216Y-129360000D01*
X124307138Y-129413466D01*
X123903466Y-129817138D01*
X123685000Y-130344561D01*
X123685000Y-130915439D01*
X123903466Y-131442862D01*
X124307138Y-131846534D01*
X124436216Y-131900000D01*
X124307138Y-131953466D01*
X123903466Y-132357138D01*
X123685000Y-132884561D01*
X123685000Y-133455439D01*
X123903466Y-133982862D01*
X124195604Y-134275000D01*
X124193690Y-134275000D01*
X123960301Y-134371673D01*
X123781673Y-134550302D01*
X123685000Y-134783691D01*
X123685000Y-135424250D01*
X123843750Y-135583000D01*
X124993000Y-135583000D01*
X124993000Y-135563000D01*
X125247000Y-135563000D01*
X125247000Y-135583000D01*
X126396250Y-135583000D01*
X126555000Y-135424250D01*
X126555000Y-134783691D01*
X126458327Y-134550302D01*
X126279699Y-134371673D01*
X126046310Y-134275000D01*
X126044396Y-134275000D01*
X126336534Y-133982862D01*
X126555000Y-133455439D01*
X126555000Y-132884561D01*
X126336534Y-132357138D01*
X125932862Y-131953466D01*
X125803784Y-131900000D01*
X125932862Y-131846534D01*
X126336534Y-131442862D01*
X126555000Y-130915439D01*
X126555000Y-130344561D01*
X126336534Y-129817138D01*
X125932862Y-129413466D01*
X125803784Y-129360000D01*
X125932862Y-129306534D01*
X126336534Y-128902862D01*
X126555000Y-128375439D01*
X126555000Y-127804561D01*
X126336534Y-127277138D01*
X125932862Y-126873466D01*
X125803784Y-126820000D01*
X125932862Y-126766534D01*
X126336534Y-126362862D01*
X126555000Y-125835439D01*
X126555000Y-125264561D01*
X126336534Y-124737138D01*
X125932862Y-124333466D01*
X125803784Y-124280000D01*
X125932862Y-124226534D01*
X126336534Y-123822862D01*
X126555000Y-123295439D01*
X126555000Y-122724561D01*
X126336534Y-122197138D01*
X125932862Y-121793466D01*
X125803784Y-121740000D01*
X125932862Y-121686534D01*
X126336534Y-121282862D01*
X126555000Y-120755439D01*
X126555000Y-120184561D01*
X126336534Y-119657138D01*
X125932862Y-119253466D01*
X125803784Y-119200000D01*
X125932862Y-119146534D01*
X126336534Y-118742862D01*
X126555000Y-118215439D01*
X126555000Y-117644561D01*
X126336534Y-117117138D01*
X125932862Y-116713466D01*
X125803784Y-116660000D01*
X125932862Y-116606534D01*
X126336534Y-116202862D01*
X126555000Y-115675439D01*
X126555000Y-115104561D01*
X126336534Y-114577138D01*
X125932862Y-114173466D01*
X125803784Y-114120000D01*
X125932862Y-114066534D01*
X126336534Y-113662862D01*
X126555000Y-113135439D01*
X126555000Y-112564561D01*
X126336534Y-112037138D01*
X125932862Y-111633466D01*
X125803784Y-111580000D01*
X125932862Y-111526534D01*
X126336534Y-111122862D01*
X126555000Y-110595439D01*
X126555000Y-110024561D01*
X126336534Y-109497138D01*
X125932862Y-109093466D01*
X125803784Y-109040000D01*
X125932862Y-108986534D01*
X126336534Y-108582862D01*
X126555000Y-108055439D01*
X126555000Y-107484561D01*
X126336534Y-106957138D01*
X125932862Y-106553466D01*
X125803784Y-106500000D01*
X125932862Y-106446534D01*
X126336534Y-106042862D01*
X126492215Y-105667016D01*
X129509671Y-108684473D01*
X129552071Y-108747929D01*
X129803463Y-108915904D01*
X130025148Y-108960000D01*
X130025152Y-108960000D01*
X130099999Y-108974888D01*
X130174846Y-108960000D01*
X132796289Y-108960000D01*
X132913720Y-109077431D01*
X133294126Y-109235000D01*
X133705874Y-109235000D01*
X134086280Y-109077431D01*
X134377431Y-108786280D01*
X134535000Y-108405874D01*
X134535000Y-107994126D01*
X134377431Y-107613720D01*
X134086280Y-107322569D01*
X133705874Y-107165000D01*
X133294126Y-107165000D01*
X132913720Y-107322569D01*
X132796289Y-107440000D01*
X130414802Y-107440000D01*
X126570741Y-103595940D01*
X126510328Y-103505525D01*
X126510326Y-103505523D01*
X126467928Y-103442070D01*
X126404475Y-103399672D01*
X126386657Y-103381854D01*
X126555000Y-102975439D01*
X126555000Y-102404561D01*
X126336534Y-101877138D01*
X125932862Y-101473466D01*
X125803784Y-101420000D01*
X125932862Y-101366534D01*
X126336534Y-100962862D01*
X126555000Y-100435439D01*
X126555000Y-99864561D01*
X126336534Y-99337138D01*
X125932862Y-98933466D01*
X125803784Y-98880000D01*
X125932862Y-98826534D01*
X126336534Y-98422862D01*
X126555000Y-97895439D01*
X126555000Y-97324561D01*
X126336534Y-96797138D01*
X125932862Y-96393466D01*
X125803784Y-96340000D01*
X125932862Y-96286534D01*
X126336534Y-95882862D01*
X126555000Y-95355439D01*
X126555000Y-94784670D01*
X130155000Y-94784670D01*
X130155000Y-95395330D01*
X130388690Y-95959507D01*
X130820493Y-96391310D01*
X131384670Y-96625000D01*
X131995330Y-96625000D01*
X132559507Y-96391310D01*
X132991310Y-95959507D01*
X133225000Y-95395330D01*
X133225000Y-94784670D01*
X132991310Y-94220493D01*
X132559507Y-93788690D01*
X131995330Y-93555000D01*
X131384670Y-93555000D01*
X130820493Y-93788690D01*
X130388690Y-94220493D01*
X130155000Y-94784670D01*
X126555000Y-94784670D01*
X126555000Y-94784561D01*
X126336534Y-94257138D01*
X125932862Y-93853466D01*
X125803784Y-93800000D01*
X125932862Y-93746534D01*
X126336534Y-93342862D01*
X126449469Y-93070213D01*
X128389392Y-93070213D01*
X128458857Y-93312397D01*
X128982302Y-93499144D01*
X129537368Y-93471362D01*
X129921143Y-93312397D01*
X129990608Y-93070213D01*
X129190000Y-92269605D01*
X128389392Y-93070213D01*
X126449469Y-93070213D01*
X126555000Y-92815439D01*
X126555000Y-92244561D01*
X126404948Y-91882302D01*
X127780856Y-91882302D01*
X127808638Y-92437368D01*
X127967603Y-92821143D01*
X128209787Y-92890608D01*
X129010395Y-92090000D01*
X129369605Y-92090000D01*
X130170213Y-92890608D01*
X130412397Y-92821143D01*
X130599144Y-92297698D01*
X130571362Y-91742632D01*
X130412397Y-91358857D01*
X130170213Y-91289392D01*
X129369605Y-92090000D01*
X129010395Y-92090000D01*
X128209787Y-91289392D01*
X127967603Y-91358857D01*
X127780856Y-91882302D01*
X126404948Y-91882302D01*
X126336534Y-91717138D01*
X125932862Y-91313466D01*
X125803784Y-91260000D01*
X125932862Y-91206534D01*
X126336534Y-90802862D01*
X126432900Y-90570213D01*
X128389392Y-90570213D01*
X128458857Y-90812397D01*
X128530462Y-90837943D01*
X128458857Y-90867603D01*
X128389392Y-91109787D01*
X129190000Y-91910395D01*
X129990608Y-91109787D01*
X129921143Y-90867603D01*
X129849538Y-90842057D01*
X129921143Y-90812397D01*
X129990608Y-90570213D01*
X129190000Y-89769605D01*
X128389392Y-90570213D01*
X126432900Y-90570213D01*
X126555000Y-90275439D01*
X126555000Y-89704561D01*
X126421516Y-89382302D01*
X127780856Y-89382302D01*
X127808638Y-89937368D01*
X127967603Y-90321143D01*
X128209787Y-90390608D01*
X129010395Y-89590000D01*
X129369605Y-89590000D01*
X130170213Y-90390608D01*
X130412397Y-90321143D01*
X130599144Y-89797698D01*
X130571362Y-89242632D01*
X130412397Y-88858857D01*
X130170213Y-88789392D01*
X129369605Y-89590000D01*
X129010395Y-89590000D01*
X128209787Y-88789392D01*
X127967603Y-88858857D01*
X127780856Y-89382302D01*
X126421516Y-89382302D01*
X126336534Y-89177138D01*
X125932862Y-88773466D01*
X125803784Y-88720000D01*
X125932862Y-88666534D01*
X125989609Y-88609787D01*
X128389392Y-88609787D01*
X129190000Y-89410395D01*
X129990608Y-88609787D01*
X129921143Y-88367603D01*
X129397698Y-88180856D01*
X128842632Y-88208638D01*
X128458857Y-88367603D01*
X128389392Y-88609787D01*
X125989609Y-88609787D01*
X126336534Y-88262862D01*
X126555000Y-87735439D01*
X126555000Y-87164561D01*
X126336534Y-86637138D01*
X125932862Y-86233466D01*
X125803784Y-86180000D01*
X125932862Y-86126534D01*
X126336534Y-85722862D01*
X126555000Y-85195439D01*
X126555000Y-84624561D01*
X126336534Y-84097138D01*
X125932862Y-83693466D01*
X125803784Y-83640000D01*
X125932862Y-83586534D01*
X126336534Y-83182862D01*
X126555000Y-82655439D01*
X126555000Y-82084561D01*
X126336534Y-81557138D01*
X125932862Y-81153466D01*
X125803784Y-81100000D01*
X125932862Y-81046534D01*
X126336534Y-80642862D01*
X126555000Y-80115439D01*
X126555000Y-79544561D01*
X126336534Y-79017138D01*
X125932862Y-78613466D01*
X125803784Y-78560000D01*
X125932862Y-78506534D01*
X126336534Y-78102862D01*
X126555000Y-77575439D01*
X126555000Y-77004561D01*
X126336534Y-76477138D01*
X125932862Y-76073466D01*
X125477865Y-75885000D01*
X126133422Y-75885000D01*
X128305000Y-78056579D01*
X128305001Y-80999342D01*
X128005680Y-81298663D01*
X127793000Y-81812119D01*
X127793000Y-82367881D01*
X128005680Y-82881337D01*
X128398663Y-83274320D01*
X128912119Y-83487000D01*
X129467881Y-83487000D01*
X129981337Y-83274320D01*
X130374320Y-82881337D01*
X130587000Y-82367881D01*
X130587000Y-81812119D01*
X130374320Y-81298663D01*
X130075000Y-80999343D01*
X130075000Y-77777159D01*
X130092337Y-77689999D01*
X130075000Y-77602839D01*
X130075000Y-77602835D01*
X130023652Y-77344690D01*
X129828049Y-77051951D01*
X129754156Y-77002577D01*
X127187425Y-74435847D01*
X127138049Y-74361951D01*
X126845310Y-74166348D01*
X126587165Y-74115000D01*
X126587161Y-74115000D01*
X126500000Y-74097663D01*
X126412839Y-74115000D01*
X119587159Y-74115000D01*
X119499999Y-74097663D01*
X119412839Y-74115000D01*
X119412835Y-74115000D01*
X119154690Y-74166348D01*
X119154688Y-74166349D01*
X119154689Y-74166349D01*
X118935845Y-74312576D01*
X118935844Y-74312577D01*
X118861951Y-74361951D01*
X118812577Y-74435844D01*
X116935845Y-76312577D01*
X116861952Y-76361951D01*
X116812578Y-76435844D01*
X116812576Y-76435846D01*
X116666348Y-76654691D01*
X116597663Y-77000000D01*
X116615001Y-77087166D01*
X116615000Y-128854791D01*
X110834594Y-134635198D01*
X110692862Y-134493466D01*
X110563784Y-134440000D01*
X110692862Y-134386534D01*
X111096534Y-133982862D01*
X111315000Y-133455439D01*
X111315000Y-132884561D01*
X111096534Y-132357138D01*
X110692862Y-131953466D01*
X110563784Y-131900000D01*
X110692862Y-131846534D01*
X111096534Y-131442862D01*
X111315000Y-130915439D01*
X111315000Y-130344561D01*
X111096534Y-129817138D01*
X110692862Y-129413466D01*
X110563784Y-129360000D01*
X110692862Y-129306534D01*
X111096534Y-128902862D01*
X111315000Y-128375439D01*
X111315000Y-128165486D01*
X111525309Y-128123653D01*
X111818048Y-127928050D01*
X111867424Y-127854154D01*
X115064156Y-124657423D01*
X115138049Y-124608049D01*
X115246996Y-124445000D01*
X115333651Y-124315311D01*
X115333652Y-124315310D01*
X115385000Y-124057165D01*
X115385000Y-124057161D01*
X115402337Y-123970001D01*
X115385000Y-123882841D01*
X115385000Y-77366578D01*
X118866579Y-73885000D01*
X122992839Y-73885000D01*
X123080000Y-73902337D01*
X123167161Y-73885000D01*
X123167165Y-73885000D01*
X123425310Y-73833652D01*
X123718049Y-73638049D01*
X123767425Y-73564153D01*
X125287620Y-72043958D01*
X136035647Y-72043958D01*
X136115920Y-72295259D01*
X136671279Y-72496718D01*
X137261458Y-72470315D01*
X137684080Y-72295259D01*
X137764353Y-72043958D01*
X136900000Y-71179605D01*
X136035647Y-72043958D01*
X125287620Y-72043958D01*
X126560299Y-70771279D01*
X135403282Y-70771279D01*
X135429685Y-71361458D01*
X135604741Y-71784080D01*
X135856042Y-71864353D01*
X136720395Y-71000000D01*
X135856042Y-70135647D01*
X135604741Y-70215920D01*
X135403282Y-70771279D01*
X126560299Y-70771279D01*
X127266579Y-70065000D01*
X127795385Y-70065000D01*
X128341185Y-69838922D01*
X128758922Y-69421185D01*
X128782195Y-69365000D01*
X136513422Y-69365000D01*
X136672130Y-69523709D01*
X136538542Y-69529685D01*
X136115920Y-69704741D01*
X136035647Y-69956042D01*
X136900000Y-70820395D01*
X136914143Y-70806253D01*
X137093748Y-70985858D01*
X137079605Y-71000000D01*
X137943958Y-71864353D01*
X138126519Y-71806037D01*
X138141078Y-71841185D01*
X138558815Y-72258922D01*
X139104615Y-72485000D01*
X139695385Y-72485000D01*
X140241185Y-72258922D01*
X140658922Y-71841185D01*
X140885000Y-71295385D01*
X140885000Y-70704615D01*
X140658922Y-70158815D01*
X140241185Y-69741078D01*
X139695385Y-69515000D01*
X139166579Y-69515000D01*
X137567425Y-67915847D01*
X137518049Y-67841951D01*
X137225310Y-67646348D01*
X136967165Y-67595000D01*
X136967161Y-67595000D01*
X136880000Y-67577663D01*
X136792839Y-67595000D01*
X135624346Y-67595000D01*
X136109966Y-67109380D01*
X136435000Y-66324678D01*
X136435000Y-65475322D01*
X136109966Y-64690620D01*
X135509380Y-64090034D01*
X134724678Y-63765000D01*
X133875322Y-63765000D01*
X133090620Y-64090034D01*
X132490034Y-64690620D01*
X132165000Y-65475322D01*
X132165000Y-66324678D01*
X132490034Y-67109380D01*
X132975654Y-67595000D01*
X128615107Y-67595000D01*
X128385000Y-67364893D01*
X128385000Y-64715107D01*
X128758922Y-64341185D01*
X128985000Y-63795385D01*
X128985000Y-63204615D01*
X128758922Y-62658815D01*
X128341185Y-62241078D01*
X127795385Y-62015000D01*
X127204615Y-62015000D01*
X126658815Y-62241078D01*
X126241078Y-62658815D01*
X126221845Y-62705247D01*
X126003958Y-62635647D01*
X125139605Y-63500000D01*
X126003958Y-64364353D01*
X126221845Y-64294753D01*
X126241078Y-64341185D01*
X126615000Y-64715107D01*
X126615001Y-67364892D01*
X126241078Y-67738815D01*
X126221845Y-67785247D01*
X126003958Y-67715647D01*
X125139605Y-68580000D01*
X125153748Y-68594143D01*
X124974143Y-68773748D01*
X124960000Y-68759605D01*
X124095647Y-69623958D01*
X124175920Y-69875259D01*
X124731279Y-70076718D01*
X124752660Y-70075761D01*
X122713422Y-72115000D01*
X118587159Y-72115000D01*
X118499999Y-72097663D01*
X118412839Y-72115000D01*
X118412835Y-72115000D01*
X118154690Y-72166348D01*
X118154688Y-72166349D01*
X118154689Y-72166349D01*
X117935845Y-72312576D01*
X117935844Y-72312577D01*
X117861951Y-72361951D01*
X117812577Y-72435844D01*
X113935845Y-76312577D01*
X113861952Y-76361951D01*
X113812578Y-76435844D01*
X113812576Y-76435846D01*
X113666348Y-76654691D01*
X113597663Y-77000000D01*
X113615001Y-77087166D01*
X113615000Y-123603421D01*
X111266929Y-125951493D01*
X111315000Y-125835439D01*
X111315000Y-125264561D01*
X111096534Y-124737138D01*
X110692862Y-124333466D01*
X110563784Y-124280000D01*
X110692862Y-124226534D01*
X111096534Y-123822862D01*
X111315000Y-123295439D01*
X111315000Y-122724561D01*
X111096534Y-122197138D01*
X110692862Y-121793466D01*
X110563784Y-121740000D01*
X110692862Y-121686534D01*
X111096534Y-121282862D01*
X111315000Y-120755439D01*
X111315000Y-120184561D01*
X111096534Y-119657138D01*
X110692862Y-119253466D01*
X110563784Y-119200000D01*
X110692862Y-119146534D01*
X111096534Y-118742862D01*
X111315000Y-118215439D01*
X111315000Y-117644561D01*
X111096534Y-117117138D01*
X110692862Y-116713466D01*
X110563784Y-116660000D01*
X110692862Y-116606534D01*
X111096534Y-116202862D01*
X111315000Y-115675439D01*
X111315000Y-115104561D01*
X111096534Y-114577138D01*
X110692862Y-114173466D01*
X110563784Y-114120000D01*
X110692862Y-114066534D01*
X111096534Y-113662862D01*
X111315000Y-113135439D01*
X111315000Y-112564561D01*
X111096534Y-112037138D01*
X110692862Y-111633466D01*
X110563784Y-111580000D01*
X110692862Y-111526534D01*
X111096534Y-111122862D01*
X111315000Y-110595439D01*
X111315000Y-110024561D01*
X111096534Y-109497138D01*
X110692862Y-109093466D01*
X110563784Y-109040000D01*
X110692862Y-108986534D01*
X111096534Y-108582862D01*
X111315000Y-108055439D01*
X111315000Y-107484561D01*
X111096534Y-106957138D01*
X110692862Y-106553466D01*
X110563784Y-106500000D01*
X110692862Y-106446534D01*
X111096534Y-106042862D01*
X111315000Y-105515439D01*
X111315000Y-104944561D01*
X111096534Y-104417138D01*
X110692862Y-104013466D01*
X110563784Y-103960000D01*
X110692862Y-103906534D01*
X111096534Y-103502862D01*
X111315000Y-102975439D01*
X111315000Y-102404561D01*
X111096534Y-101877138D01*
X110692862Y-101473466D01*
X110563784Y-101420000D01*
X110692862Y-101366534D01*
X111096534Y-100962862D01*
X111315000Y-100435439D01*
X111315000Y-99864561D01*
X111096534Y-99337138D01*
X110692862Y-98933466D01*
X110563784Y-98880000D01*
X110692862Y-98826534D01*
X111096534Y-98422862D01*
X111315000Y-97895439D01*
X111315000Y-97324561D01*
X111096534Y-96797138D01*
X110692862Y-96393466D01*
X110563784Y-96340000D01*
X110692862Y-96286534D01*
X111096534Y-95882862D01*
X111315000Y-95355439D01*
X111315000Y-94784561D01*
X111096534Y-94257138D01*
X110692862Y-93853466D01*
X110563784Y-93800000D01*
X110692862Y-93746534D01*
X111096534Y-93342862D01*
X111315000Y-92815439D01*
X111315000Y-92244561D01*
X111096534Y-91717138D01*
X110692862Y-91313466D01*
X110563784Y-91260000D01*
X110692862Y-91206534D01*
X111096534Y-90802862D01*
X111315000Y-90275439D01*
X111315000Y-89704561D01*
X111096534Y-89177138D01*
X110692862Y-88773466D01*
X110563784Y-88720000D01*
X110692862Y-88666534D01*
X111096534Y-88262862D01*
X111315000Y-87735439D01*
X111315000Y-87164561D01*
X111096534Y-86637138D01*
X110692862Y-86233466D01*
X110563784Y-86180000D01*
X110692862Y-86126534D01*
X111096534Y-85722862D01*
X111315000Y-85195439D01*
X111315000Y-84624561D01*
X111096534Y-84097138D01*
X110692862Y-83693466D01*
X110563784Y-83640000D01*
X110692862Y-83586534D01*
X111096534Y-83182862D01*
X111315000Y-82655439D01*
X111315000Y-82084561D01*
X111096534Y-81557138D01*
X110692862Y-81153466D01*
X110563784Y-81100000D01*
X110692862Y-81046534D01*
X111096534Y-80642862D01*
X111315000Y-80115439D01*
X111315000Y-79544561D01*
X111096534Y-79017138D01*
X110692862Y-78613466D01*
X110563784Y-78560000D01*
X110692862Y-78506534D01*
X111096534Y-78102862D01*
X111315000Y-77575439D01*
X111315000Y-77004561D01*
X111096534Y-76477138D01*
X110692862Y-76073466D01*
X110165439Y-75855000D01*
X109594561Y-75855000D01*
X109067138Y-76073466D01*
X108663466Y-76477138D01*
X108445000Y-77004561D01*
X108445000Y-77575439D01*
X108663466Y-78102862D01*
X109067138Y-78506534D01*
X109196216Y-78560000D01*
X109067138Y-78613466D01*
X108663466Y-79017138D01*
X108445000Y-79544561D01*
X108445000Y-80115439D01*
X108663466Y-80642862D01*
X109067138Y-81046534D01*
X109196216Y-81100000D01*
X109067138Y-81153466D01*
X108663466Y-81557138D01*
X108445000Y-82084561D01*
X108445000Y-82655439D01*
X108663466Y-83182862D01*
X109067138Y-83586534D01*
X109196216Y-83640000D01*
X109067138Y-83693466D01*
X108663466Y-84097138D01*
X108445000Y-84624561D01*
X108445000Y-85195439D01*
X108663466Y-85722862D01*
X109067138Y-86126534D01*
X109196216Y-86180000D01*
X109067138Y-86233466D01*
X108663466Y-86637138D01*
X108445000Y-87164561D01*
X108445000Y-87735439D01*
X108663466Y-88262862D01*
X109067138Y-88666534D01*
X109196216Y-88720000D01*
X109067138Y-88773466D01*
X108663466Y-89177138D01*
X108445000Y-89704561D01*
X108445000Y-90275439D01*
X108663466Y-90802862D01*
X109067138Y-91206534D01*
X109196216Y-91260000D01*
X109067138Y-91313466D01*
X108663466Y-91717138D01*
X108445000Y-92244561D01*
X108445000Y-92815439D01*
X108663466Y-93342862D01*
X109067138Y-93746534D01*
X109196216Y-93800000D01*
X109067138Y-93853466D01*
X108663466Y-94257138D01*
X108445000Y-94784561D01*
X108445000Y-95355439D01*
X108663466Y-95882862D01*
X109067138Y-96286534D01*
X109196216Y-96340000D01*
X109067138Y-96393466D01*
X108663466Y-96797138D01*
X108445000Y-97324561D01*
X108445000Y-97895439D01*
X108663466Y-98422862D01*
X109067138Y-98826534D01*
X109196216Y-98880000D01*
X109067138Y-98933466D01*
X108663466Y-99337138D01*
X108445000Y-99864561D01*
X108445000Y-100435439D01*
X108663466Y-100962862D01*
X109067138Y-101366534D01*
X109196216Y-101420000D01*
X109067138Y-101473466D01*
X108663466Y-101877138D01*
X108445000Y-102404561D01*
X108445000Y-102975439D01*
X108663466Y-103502862D01*
X109067138Y-103906534D01*
X109196216Y-103960000D01*
X109067138Y-104013466D01*
X108663466Y-104417138D01*
X108445000Y-104944561D01*
X108445000Y-105515439D01*
X108663466Y-106042862D01*
X109067138Y-106446534D01*
X109196216Y-106500000D01*
X109067138Y-106553466D01*
X108663466Y-106957138D01*
X108445000Y-107484561D01*
X108445000Y-108055439D01*
X108663466Y-108582862D01*
X109067138Y-108986534D01*
X109196216Y-109040000D01*
X109067138Y-109093466D01*
X108663466Y-109497138D01*
X108445000Y-110024561D01*
X108445000Y-110595439D01*
X108663466Y-111122862D01*
X109067138Y-111526534D01*
X109196216Y-111580000D01*
X109067138Y-111633466D01*
X108663466Y-112037138D01*
X108445000Y-112564561D01*
X108445000Y-113135439D01*
X108663466Y-113662862D01*
X109067138Y-114066534D01*
X109196216Y-114120000D01*
X109067138Y-114173466D01*
X108663466Y-114577138D01*
X108445000Y-115104561D01*
X108445000Y-115675439D01*
X108663466Y-116202862D01*
X109067138Y-116606534D01*
X109196216Y-116660000D01*
X109067138Y-116713466D01*
X108663466Y-117117138D01*
X108445000Y-117644561D01*
X108445000Y-118215439D01*
X108663466Y-118742862D01*
X109067138Y-119146534D01*
X109196216Y-119200000D01*
X109067138Y-119253466D01*
X108663466Y-119657138D01*
X108445000Y-120184561D01*
X108445000Y-120755439D01*
X108663466Y-121282862D01*
X109067138Y-121686534D01*
X109196216Y-121740000D01*
X109067138Y-121793466D01*
X108663466Y-122197138D01*
X108445000Y-122724561D01*
X108445000Y-123295439D01*
X108663466Y-123822862D01*
X109067138Y-124226534D01*
X109196216Y-124280000D01*
X109067138Y-124333466D01*
X108925406Y-124475198D01*
X107385000Y-122934792D01*
X107385000Y-73866578D01*
X108766579Y-72485000D01*
X109295385Y-72485000D01*
X109841185Y-72258922D01*
X110258922Y-71841185D01*
X110485000Y-71295385D01*
X110485000Y-70704615D01*
X110258922Y-70158815D01*
X109841185Y-69741078D01*
X109295385Y-69515000D01*
X108704615Y-69515000D01*
X108158815Y-69741078D01*
X107741078Y-70158815D01*
X107726519Y-70193963D01*
X107543958Y-70135647D01*
X106679605Y-71000000D01*
X106693748Y-71014143D01*
X106514143Y-71193748D01*
X106500000Y-71179605D01*
X106485858Y-71193748D01*
X106306253Y-71014143D01*
X106320395Y-71000000D01*
X105456042Y-70135647D01*
X105204741Y-70215920D01*
X105003282Y-70771279D01*
X105025781Y-71274203D01*
X103707620Y-69956042D01*
X105635647Y-69956042D01*
X106500000Y-70820395D01*
X107364353Y-69956042D01*
X107284080Y-69704741D01*
X106728721Y-69503282D01*
X106138542Y-69529685D01*
X105715920Y-69704741D01*
X105635647Y-69956042D01*
X103707620Y-69956042D01*
X102102857Y-68351279D01*
X123463282Y-68351279D01*
X123489685Y-68941458D01*
X123664741Y-69364080D01*
X123916042Y-69444353D01*
X124780395Y-68580000D01*
X123916042Y-67715647D01*
X123664741Y-67795920D01*
X123463282Y-68351279D01*
X102102857Y-68351279D01*
X101767425Y-68015847D01*
X101718049Y-67941951D01*
X101425310Y-67746348D01*
X101167165Y-67695000D01*
X101167161Y-67695000D01*
X101080000Y-67677663D01*
X100992839Y-67695000D01*
X97715107Y-67695000D01*
X97385000Y-67364893D01*
X97385000Y-65475322D01*
X101765000Y-65475322D01*
X101765000Y-66324678D01*
X102090034Y-67109380D01*
X102690620Y-67709966D01*
X103475322Y-68035000D01*
X104324678Y-68035000D01*
X105109380Y-67709966D01*
X105709966Y-67109380D01*
X106035000Y-66324678D01*
X106035000Y-65475322D01*
X111965000Y-65475322D01*
X111965000Y-66324678D01*
X112290034Y-67109380D01*
X112890620Y-67709966D01*
X113675322Y-68035000D01*
X114524678Y-68035000D01*
X115309380Y-67709966D01*
X115483304Y-67536042D01*
X124095647Y-67536042D01*
X124960000Y-68400395D01*
X125824353Y-67536042D01*
X125744080Y-67284741D01*
X125188721Y-67083282D01*
X124598542Y-67109685D01*
X124175920Y-67284741D01*
X124095647Y-67536042D01*
X115483304Y-67536042D01*
X115909966Y-67109380D01*
X116235000Y-66324678D01*
X116235000Y-65475322D01*
X115909966Y-64690620D01*
X115763304Y-64543958D01*
X124095647Y-64543958D01*
X124175920Y-64795259D01*
X124731279Y-64996718D01*
X125321458Y-64970315D01*
X125744080Y-64795259D01*
X125824353Y-64543958D01*
X124960000Y-63679605D01*
X124095647Y-64543958D01*
X115763304Y-64543958D01*
X115309380Y-64090034D01*
X114524678Y-63765000D01*
X113675322Y-63765000D01*
X112890620Y-64090034D01*
X112290034Y-64690620D01*
X111965000Y-65475322D01*
X106035000Y-65475322D01*
X105709966Y-64690620D01*
X105109380Y-64090034D01*
X104324678Y-63765000D01*
X103475322Y-63765000D01*
X102690620Y-64090034D01*
X102090034Y-64690620D01*
X101765000Y-65475322D01*
X97385000Y-65475322D01*
X97385000Y-64715107D01*
X97758922Y-64341185D01*
X97985000Y-63795385D01*
X97985000Y-63271279D01*
X123463282Y-63271279D01*
X123489685Y-63861458D01*
X123664741Y-64284080D01*
X123916042Y-64364353D01*
X124780395Y-63500000D01*
X123916042Y-62635647D01*
X123664741Y-62715920D01*
X123463282Y-63271279D01*
X97985000Y-63271279D01*
X97985000Y-63204615D01*
X97758922Y-62658815D01*
X97556149Y-62456042D01*
X124095647Y-62456042D01*
X124960000Y-63320395D01*
X125824353Y-62456042D01*
X125744080Y-62204741D01*
X125188721Y-62003282D01*
X124598542Y-62029685D01*
X124175920Y-62204741D01*
X124095647Y-62456042D01*
X97556149Y-62456042D01*
X97341185Y-62241078D01*
X96795385Y-62015000D01*
X96204615Y-62015000D01*
X95658815Y-62241078D01*
X95241078Y-62658815D01*
X95221845Y-62705247D01*
X95003958Y-62635647D01*
X94139605Y-63500000D01*
X95003958Y-64364353D01*
X95221845Y-64294753D01*
X95241078Y-64341185D01*
X95615000Y-64715107D01*
X95615001Y-67364892D01*
X95241078Y-67738815D01*
X95221845Y-67785247D01*
X95003958Y-67715647D01*
X94139605Y-68580000D01*
X95003958Y-69444353D01*
X95221845Y-69374753D01*
X95241078Y-69421185D01*
X95658815Y-69838922D01*
X96204615Y-70065000D01*
X96795385Y-70065000D01*
X97341185Y-69838922D01*
X97715107Y-69465000D01*
X100713422Y-69465000D01*
X105312577Y-74064156D01*
X105361951Y-74138049D01*
X105435844Y-74187423D01*
X105435845Y-74187424D01*
X105615001Y-74307133D01*
X105615000Y-122582835D01*
X105615000Y-123214209D01*
X105597663Y-123301370D01*
X105615000Y-123388531D01*
X105615000Y-123388534D01*
X105666348Y-123646679D01*
X105861951Y-123939419D01*
X105935847Y-123988795D01*
X108061207Y-126114156D01*
X108110581Y-126188049D01*
X108184474Y-126237423D01*
X108184475Y-126237424D01*
X108240216Y-126274669D01*
X108403320Y-126383652D01*
X108661465Y-126435000D01*
X108661470Y-126435000D01*
X108748629Y-126452337D01*
X108752226Y-126451622D01*
X109067138Y-126766534D01*
X109196216Y-126820000D01*
X109067138Y-126873466D01*
X108663466Y-127277138D01*
X108445000Y-127804561D01*
X108445000Y-128375439D01*
X108663466Y-128902862D01*
X109067138Y-129306534D01*
X109196216Y-129360000D01*
X109067138Y-129413466D01*
X108663466Y-129817138D01*
X108445000Y-130344561D01*
X108445000Y-130915439D01*
X108663466Y-131442862D01*
X109067138Y-131846534D01*
X109196216Y-131900000D01*
X109067138Y-131953466D01*
X108663466Y-132357138D01*
X108445000Y-132884561D01*
X108445000Y-133455439D01*
X108663466Y-133982862D01*
X109067138Y-134386534D01*
X109196216Y-134440000D01*
X109067138Y-134493466D01*
X108663466Y-134897138D01*
X108445000Y-135424561D01*
X108445000Y-135995439D01*
X108663466Y-136522862D01*
X108930604Y-136790000D01*
X88210000Y-136790000D01*
X88210000Y-132446029D01*
X89715000Y-132446029D01*
X89715000Y-133553971D01*
X90138991Y-134577576D01*
X90922424Y-135361009D01*
X91946029Y-135785000D01*
X93053971Y-135785000D01*
X94077576Y-135361009D01*
X94861009Y-134577576D01*
X95285000Y-133553971D01*
X95285000Y-132446029D01*
X94861009Y-131422424D01*
X94077576Y-130638991D01*
X93053971Y-130215000D01*
X91946029Y-130215000D01*
X90922424Y-130638991D01*
X90138991Y-131422424D01*
X89715000Y-132446029D01*
X88210000Y-132446029D01*
X88210000Y-81446029D01*
X89715000Y-81446029D01*
X89715000Y-82553971D01*
X90138991Y-83577576D01*
X90922424Y-84361009D01*
X91946029Y-84785000D01*
X93053971Y-84785000D01*
X94077576Y-84361009D01*
X94861009Y-83577576D01*
X95285000Y-82553971D01*
X95285000Y-81446029D01*
X94861009Y-80422424D01*
X94077576Y-79638991D01*
X93053971Y-79215000D01*
X91946029Y-79215000D01*
X90922424Y-79638991D01*
X90138991Y-80422424D01*
X89715000Y-81446029D01*
X88210000Y-81446029D01*
X88210000Y-69623958D01*
X93095647Y-69623958D01*
X93175920Y-69875259D01*
X93731279Y-70076718D01*
X94321458Y-70050315D01*
X94744080Y-69875259D01*
X94824353Y-69623958D01*
X93960000Y-68759605D01*
X93095647Y-69623958D01*
X88210000Y-69623958D01*
X88210000Y-68351279D01*
X92463282Y-68351279D01*
X92489685Y-68941458D01*
X92664741Y-69364080D01*
X92916042Y-69444353D01*
X93780395Y-68580000D01*
X92916042Y-67715647D01*
X92664741Y-67795920D01*
X92463282Y-68351279D01*
X88210000Y-68351279D01*
X88210000Y-67536042D01*
X93095647Y-67536042D01*
X93960000Y-68400395D01*
X94824353Y-67536042D01*
X94744080Y-67284741D01*
X94188721Y-67083282D01*
X93598542Y-67109685D01*
X93175920Y-67284741D01*
X93095647Y-67536042D01*
X88210000Y-67536042D01*
X88210000Y-64543958D01*
X93095647Y-64543958D01*
X93175920Y-64795259D01*
X93731279Y-64996718D01*
X94321458Y-64970315D01*
X94744080Y-64795259D01*
X94824353Y-64543958D01*
X93960000Y-63679605D01*
X93095647Y-64543958D01*
X88210000Y-64543958D01*
X88210000Y-63271279D01*
X92463282Y-63271279D01*
X92489685Y-63861458D01*
X92664741Y-64284080D01*
X92916042Y-64364353D01*
X93780395Y-63500000D01*
X92916042Y-62635647D01*
X92664741Y-62715920D01*
X92463282Y-63271279D01*
X88210000Y-63271279D01*
X88210000Y-62456042D01*
X93095647Y-62456042D01*
X93960000Y-63320395D01*
X94824353Y-62456042D01*
X94744080Y-62204741D01*
X94188721Y-62003282D01*
X93598542Y-62029685D01*
X93175920Y-62204741D01*
X93095647Y-62456042D01*
X88210000Y-62456042D01*
X88210000Y-58710000D01*
X146373000Y-58710000D01*
X146373000Y-64842798D01*
X146373000Y-64842798D01*
G37*
X146373000Y-64842798D02*
X146309966Y-64690620D01*
X145709380Y-64090034D01*
X144924678Y-63765000D01*
X144075322Y-63765000D01*
X143290620Y-64090034D01*
X142690034Y-64690620D01*
X142365000Y-65475322D01*
X142365000Y-66324678D01*
X142690034Y-67109380D01*
X143290620Y-67709966D01*
X144075322Y-68035000D01*
X144924678Y-68035000D01*
X145709380Y-67709966D01*
X146309966Y-67109380D01*
X146373000Y-66957202D01*
X146373000Y-70955452D01*
X138400830Y-80920664D01*
X138378018Y-80964654D01*
X138373000Y-81000000D01*
X138373000Y-136790000D01*
X126491339Y-136790000D01*
X126555000Y-136636309D01*
X126555000Y-135995750D01*
X126396250Y-135837000D01*
X125247000Y-135837000D01*
X125247000Y-135857000D01*
X124993000Y-135857000D01*
X124993000Y-135837000D01*
X123843750Y-135837000D01*
X123685000Y-135995750D01*
X123685000Y-136636309D01*
X123748661Y-136790000D01*
X110829396Y-136790000D01*
X111007774Y-136611622D01*
X111011370Y-136612337D01*
X111098531Y-136595000D01*
X111098535Y-136595000D01*
X111356680Y-136543652D01*
X111649419Y-136348049D01*
X111698795Y-136274153D01*
X118064156Y-129908792D01*
X118138049Y-129859419D01*
X118333652Y-129566680D01*
X118385000Y-129308535D01*
X118385000Y-129308531D01*
X118402337Y-129221370D01*
X118385000Y-129134209D01*
X118385000Y-77366578D01*
X119866579Y-75885000D01*
X124762135Y-75885000D01*
X124307138Y-76073466D01*
X123903466Y-76477138D01*
X123685000Y-77004561D01*
X123685000Y-77575439D01*
X123903466Y-78102862D01*
X124307138Y-78506534D01*
X124436216Y-78560000D01*
X124307138Y-78613466D01*
X123903466Y-79017138D01*
X123685000Y-79544561D01*
X123685000Y-80115439D01*
X123903466Y-80642862D01*
X124307138Y-81046534D01*
X124436216Y-81100000D01*
X124307138Y-81153466D01*
X123903466Y-81557138D01*
X123685000Y-82084561D01*
X123685000Y-82655439D01*
X123903466Y-83182862D01*
X124307138Y-83586534D01*
X124436216Y-83640000D01*
X124307138Y-83693466D01*
X123903466Y-84097138D01*
X123685000Y-84624561D01*
X123685000Y-85195439D01*
X123903466Y-85722862D01*
X124307138Y-86126534D01*
X124436216Y-86180000D01*
X124307138Y-86233466D01*
X123903466Y-86637138D01*
X123685000Y-87164561D01*
X123685000Y-87735439D01*
X123903466Y-88262862D01*
X124307138Y-88666534D01*
X124436216Y-88720000D01*
X124307138Y-88773466D01*
X123903466Y-89177138D01*
X123685000Y-89704561D01*
X123685000Y-90275439D01*
X123903466Y-90802862D01*
X124307138Y-91206534D01*
X124436216Y-91260000D01*
X124307138Y-91313466D01*
X123903466Y-91717138D01*
X123685000Y-92244561D01*
X123685000Y-92815439D01*
X123903466Y-93342862D01*
X124307138Y-93746534D01*
X124436216Y-93800000D01*
X124307138Y-93853466D01*
X123903466Y-94257138D01*
X123685000Y-94784561D01*
X123685000Y-95355439D01*
X123903466Y-95882862D01*
X124307138Y-96286534D01*
X124436216Y-96340000D01*
X124307138Y-96393466D01*
X123903466Y-96797138D01*
X123685000Y-97324561D01*
X123685000Y-97895439D01*
X123903466Y-98422862D01*
X124307138Y-98826534D01*
X124436216Y-98880000D01*
X124307138Y-98933466D01*
X123903466Y-99337138D01*
X123685000Y-99864561D01*
X123685000Y-100435439D01*
X123903466Y-100962862D01*
X124307138Y-101366534D01*
X124436216Y-101420000D01*
X124307138Y-101473466D01*
X123903466Y-101877138D01*
X123685000Y-102404561D01*
X123685000Y-102975439D01*
X123903466Y-103502862D01*
X124307138Y-103906534D01*
X124436216Y-103960000D01*
X124307138Y-104013466D01*
X123903466Y-104417138D01*
X123685000Y-104944561D01*
X123685000Y-105515439D01*
X123903466Y-106042862D01*
X124307138Y-106446534D01*
X124436216Y-106500000D01*
X124307138Y-106553466D01*
X123903466Y-106957138D01*
X123685000Y-107484561D01*
X123685000Y-108055439D01*
X123903466Y-108582862D01*
X124307138Y-108986534D01*
X124436216Y-109040000D01*
X124307138Y-109093466D01*
X123903466Y-109497138D01*
X123685000Y-110024561D01*
X123685000Y-110595439D01*
X123903466Y-111122862D01*
X124307138Y-111526534D01*
X124436216Y-111580000D01*
X124307138Y-111633466D01*
X123903466Y-112037138D01*
X123685000Y-112564561D01*
X123685000Y-113135439D01*
X123903466Y-113662862D01*
X124307138Y-114066534D01*
X124436216Y-114120000D01*
X124307138Y-114173466D01*
X123903466Y-114577138D01*
X123685000Y-115104561D01*
X123685000Y-115675439D01*
X123903466Y-116202862D01*
X124307138Y-116606534D01*
X124436216Y-116660000D01*
X124307138Y-116713466D01*
X123903466Y-117117138D01*
X123685000Y-117644561D01*
X123685000Y-118215439D01*
X123903466Y-118742862D01*
X124307138Y-119146534D01*
X124436216Y-119200000D01*
X124307138Y-119253466D01*
X123903466Y-119657138D01*
X123685000Y-120184561D01*
X123685000Y-120755439D01*
X123903466Y-121282862D01*
X124307138Y-121686534D01*
X124436216Y-121740000D01*
X124307138Y-121793466D01*
X123903466Y-122197138D01*
X123685000Y-122724561D01*
X123685000Y-123295439D01*
X123903466Y-123822862D01*
X124307138Y-124226534D01*
X124436216Y-124280000D01*
X124307138Y-124333466D01*
X123903466Y-124737138D01*
X123685000Y-125264561D01*
X123685000Y-125835439D01*
X123903466Y-126362862D01*
X124307138Y-126766534D01*
X124436216Y-126820000D01*
X124307138Y-126873466D01*
X123903466Y-127277138D01*
X123685000Y-127804561D01*
X123685000Y-128375439D01*
X123903466Y-128902862D01*
X124307138Y-129306534D01*
X124436216Y-129360000D01*
X124307138Y-129413466D01*
X123903466Y-129817138D01*
X123685000Y-130344561D01*
X123685000Y-130915439D01*
X123903466Y-131442862D01*
X124307138Y-131846534D01*
X124436216Y-131900000D01*
X124307138Y-131953466D01*
X123903466Y-132357138D01*
X123685000Y-132884561D01*
X123685000Y-133455439D01*
X123903466Y-133982862D01*
X124195604Y-134275000D01*
X124193690Y-134275000D01*
X123960301Y-134371673D01*
X123781673Y-134550302D01*
X123685000Y-134783691D01*
X123685000Y-135424250D01*
X123843750Y-135583000D01*
X124993000Y-135583000D01*
X124993000Y-135563000D01*
X125247000Y-135563000D01*
X125247000Y-135583000D01*
X126396250Y-135583000D01*
X126555000Y-135424250D01*
X126555000Y-134783691D01*
X126458327Y-134550302D01*
X126279699Y-134371673D01*
X126046310Y-134275000D01*
X126044396Y-134275000D01*
X126336534Y-133982862D01*
X126555000Y-133455439D01*
X126555000Y-132884561D01*
X126336534Y-132357138D01*
X125932862Y-131953466D01*
X125803784Y-131900000D01*
X125932862Y-131846534D01*
X126336534Y-131442862D01*
X126555000Y-130915439D01*
X126555000Y-130344561D01*
X126336534Y-129817138D01*
X125932862Y-129413466D01*
X125803784Y-129360000D01*
X125932862Y-129306534D01*
X126336534Y-128902862D01*
X126555000Y-128375439D01*
X126555000Y-127804561D01*
X126336534Y-127277138D01*
X125932862Y-126873466D01*
X125803784Y-126820000D01*
X125932862Y-126766534D01*
X126336534Y-126362862D01*
X126555000Y-125835439D01*
X126555000Y-125264561D01*
X126336534Y-124737138D01*
X125932862Y-124333466D01*
X125803784Y-124280000D01*
X125932862Y-124226534D01*
X126336534Y-123822862D01*
X126555000Y-123295439D01*
X126555000Y-122724561D01*
X126336534Y-122197138D01*
X125932862Y-121793466D01*
X125803784Y-121740000D01*
X125932862Y-121686534D01*
X126336534Y-121282862D01*
X126555000Y-120755439D01*
X126555000Y-120184561D01*
X126336534Y-119657138D01*
X125932862Y-119253466D01*
X125803784Y-119200000D01*
X125932862Y-119146534D01*
X126336534Y-118742862D01*
X126555000Y-118215439D01*
X126555000Y-117644561D01*
X126336534Y-117117138D01*
X125932862Y-116713466D01*
X125803784Y-116660000D01*
X125932862Y-116606534D01*
X126336534Y-116202862D01*
X126555000Y-115675439D01*
X126555000Y-115104561D01*
X126336534Y-114577138D01*
X125932862Y-114173466D01*
X125803784Y-114120000D01*
X125932862Y-114066534D01*
X126336534Y-113662862D01*
X126555000Y-113135439D01*
X126555000Y-112564561D01*
X126336534Y-112037138D01*
X125932862Y-111633466D01*
X125803784Y-111580000D01*
X125932862Y-111526534D01*
X126336534Y-111122862D01*
X126555000Y-110595439D01*
X126555000Y-110024561D01*
X126336534Y-109497138D01*
X125932862Y-109093466D01*
X125803784Y-109040000D01*
X125932862Y-108986534D01*
X126336534Y-108582862D01*
X126555000Y-108055439D01*
X126555000Y-107484561D01*
X126336534Y-106957138D01*
X125932862Y-106553466D01*
X125803784Y-106500000D01*
X125932862Y-106446534D01*
X126336534Y-106042862D01*
X126492215Y-105667016D01*
X129509671Y-108684473D01*
X129552071Y-108747929D01*
X129803463Y-108915904D01*
X130025148Y-108960000D01*
X130025152Y-108960000D01*
X130099999Y-108974888D01*
X130174846Y-108960000D01*
X132796289Y-108960000D01*
X132913720Y-109077431D01*
X133294126Y-109235000D01*
X133705874Y-109235000D01*
X134086280Y-109077431D01*
X134377431Y-108786280D01*
X134535000Y-108405874D01*
X134535000Y-107994126D01*
X134377431Y-107613720D01*
X134086280Y-107322569D01*
X133705874Y-107165000D01*
X133294126Y-107165000D01*
X132913720Y-107322569D01*
X132796289Y-107440000D01*
X130414802Y-107440000D01*
X126570741Y-103595940D01*
X126510328Y-103505525D01*
X126510326Y-103505523D01*
X126467928Y-103442070D01*
X126404475Y-103399672D01*
X126386657Y-103381854D01*
X126555000Y-102975439D01*
X126555000Y-102404561D01*
X126336534Y-101877138D01*
X125932862Y-101473466D01*
X125803784Y-101420000D01*
X125932862Y-101366534D01*
X126336534Y-100962862D01*
X126555000Y-100435439D01*
X126555000Y-99864561D01*
X126336534Y-99337138D01*
X125932862Y-98933466D01*
X125803784Y-98880000D01*
X125932862Y-98826534D01*
X126336534Y-98422862D01*
X126555000Y-97895439D01*
X126555000Y-97324561D01*
X126336534Y-96797138D01*
X125932862Y-96393466D01*
X125803784Y-96340000D01*
X125932862Y-96286534D01*
X126336534Y-95882862D01*
X126555000Y-95355439D01*
X126555000Y-94784670D01*
X130155000Y-94784670D01*
X130155000Y-95395330D01*
X130388690Y-95959507D01*
X130820493Y-96391310D01*
X131384670Y-96625000D01*
X131995330Y-96625000D01*
X132559507Y-96391310D01*
X132991310Y-95959507D01*
X133225000Y-95395330D01*
X133225000Y-94784670D01*
X132991310Y-94220493D01*
X132559507Y-93788690D01*
X131995330Y-93555000D01*
X131384670Y-93555000D01*
X130820493Y-93788690D01*
X130388690Y-94220493D01*
X130155000Y-94784670D01*
X126555000Y-94784670D01*
X126555000Y-94784561D01*
X126336534Y-94257138D01*
X125932862Y-93853466D01*
X125803784Y-93800000D01*
X125932862Y-93746534D01*
X126336534Y-93342862D01*
X126449469Y-93070213D01*
X128389392Y-93070213D01*
X128458857Y-93312397D01*
X128982302Y-93499144D01*
X129537368Y-93471362D01*
X129921143Y-93312397D01*
X129990608Y-93070213D01*
X129190000Y-92269605D01*
X128389392Y-93070213D01*
X126449469Y-93070213D01*
X126555000Y-92815439D01*
X126555000Y-92244561D01*
X126404948Y-91882302D01*
X127780856Y-91882302D01*
X127808638Y-92437368D01*
X127967603Y-92821143D01*
X128209787Y-92890608D01*
X129010395Y-92090000D01*
X129369605Y-92090000D01*
X130170213Y-92890608D01*
X130412397Y-92821143D01*
X130599144Y-92297698D01*
X130571362Y-91742632D01*
X130412397Y-91358857D01*
X130170213Y-91289392D01*
X129369605Y-92090000D01*
X129010395Y-92090000D01*
X128209787Y-91289392D01*
X127967603Y-91358857D01*
X127780856Y-91882302D01*
X126404948Y-91882302D01*
X126336534Y-91717138D01*
X125932862Y-91313466D01*
X125803784Y-91260000D01*
X125932862Y-91206534D01*
X126336534Y-90802862D01*
X126432900Y-90570213D01*
X128389392Y-90570213D01*
X128458857Y-90812397D01*
X128530462Y-90837943D01*
X128458857Y-90867603D01*
X128389392Y-91109787D01*
X129190000Y-91910395D01*
X129990608Y-91109787D01*
X129921143Y-90867603D01*
X129849538Y-90842057D01*
X129921143Y-90812397D01*
X129990608Y-90570213D01*
X129190000Y-89769605D01*
X128389392Y-90570213D01*
X126432900Y-90570213D01*
X126555000Y-90275439D01*
X126555000Y-89704561D01*
X126421516Y-89382302D01*
X127780856Y-89382302D01*
X127808638Y-89937368D01*
X127967603Y-90321143D01*
X128209787Y-90390608D01*
X129010395Y-89590000D01*
X129369605Y-89590000D01*
X130170213Y-90390608D01*
X130412397Y-90321143D01*
X130599144Y-89797698D01*
X130571362Y-89242632D01*
X130412397Y-88858857D01*
X130170213Y-88789392D01*
X129369605Y-89590000D01*
X129010395Y-89590000D01*
X128209787Y-88789392D01*
X127967603Y-88858857D01*
X127780856Y-89382302D01*
X126421516Y-89382302D01*
X126336534Y-89177138D01*
X125932862Y-88773466D01*
X125803784Y-88720000D01*
X125932862Y-88666534D01*
X125989609Y-88609787D01*
X128389392Y-88609787D01*
X129190000Y-89410395D01*
X129990608Y-88609787D01*
X129921143Y-88367603D01*
X129397698Y-88180856D01*
X128842632Y-88208638D01*
X128458857Y-88367603D01*
X128389392Y-88609787D01*
X125989609Y-88609787D01*
X126336534Y-88262862D01*
X126555000Y-87735439D01*
X126555000Y-87164561D01*
X126336534Y-86637138D01*
X125932862Y-86233466D01*
X125803784Y-86180000D01*
X125932862Y-86126534D01*
X126336534Y-85722862D01*
X126555000Y-85195439D01*
X126555000Y-84624561D01*
X126336534Y-84097138D01*
X125932862Y-83693466D01*
X125803784Y-83640000D01*
X125932862Y-83586534D01*
X126336534Y-83182862D01*
X126555000Y-82655439D01*
X126555000Y-82084561D01*
X126336534Y-81557138D01*
X125932862Y-81153466D01*
X125803784Y-81100000D01*
X125932862Y-81046534D01*
X126336534Y-80642862D01*
X126555000Y-80115439D01*
X126555000Y-79544561D01*
X126336534Y-79017138D01*
X125932862Y-78613466D01*
X125803784Y-78560000D01*
X125932862Y-78506534D01*
X126336534Y-78102862D01*
X126555000Y-77575439D01*
X126555000Y-77004561D01*
X126336534Y-76477138D01*
X125932862Y-76073466D01*
X125477865Y-75885000D01*
X126133422Y-75885000D01*
X128305000Y-78056579D01*
X128305001Y-80999342D01*
X128005680Y-81298663D01*
X127793000Y-81812119D01*
X127793000Y-82367881D01*
X128005680Y-82881337D01*
X128398663Y-83274320D01*
X128912119Y-83487000D01*
X129467881Y-83487000D01*
X129981337Y-83274320D01*
X130374320Y-82881337D01*
X130587000Y-82367881D01*
X130587000Y-81812119D01*
X130374320Y-81298663D01*
X130075000Y-80999343D01*
X130075000Y-77777159D01*
X130092337Y-77689999D01*
X130075000Y-77602839D01*
X130075000Y-77602835D01*
X130023652Y-77344690D01*
X129828049Y-77051951D01*
X129754156Y-77002577D01*
X127187425Y-74435847D01*
X127138049Y-74361951D01*
X126845310Y-74166348D01*
X126587165Y-74115000D01*
X126587161Y-74115000D01*
X126500000Y-74097663D01*
X126412839Y-74115000D01*
X119587159Y-74115000D01*
X119499999Y-74097663D01*
X119412839Y-74115000D01*
X119412835Y-74115000D01*
X119154690Y-74166348D01*
X119154688Y-74166349D01*
X119154689Y-74166349D01*
X118935845Y-74312576D01*
X118935844Y-74312577D01*
X118861951Y-74361951D01*
X118812577Y-74435844D01*
X116935845Y-76312577D01*
X116861952Y-76361951D01*
X116812578Y-76435844D01*
X116812576Y-76435846D01*
X116666348Y-76654691D01*
X116597663Y-77000000D01*
X116615001Y-77087166D01*
X116615000Y-128854791D01*
X110834594Y-134635198D01*
X110692862Y-134493466D01*
X110563784Y-134440000D01*
X110692862Y-134386534D01*
X111096534Y-133982862D01*
X111315000Y-133455439D01*
X111315000Y-132884561D01*
X111096534Y-132357138D01*
X110692862Y-131953466D01*
X110563784Y-131900000D01*
X110692862Y-131846534D01*
X111096534Y-131442862D01*
X111315000Y-130915439D01*
X111315000Y-130344561D01*
X111096534Y-129817138D01*
X110692862Y-129413466D01*
X110563784Y-129360000D01*
X110692862Y-129306534D01*
X111096534Y-128902862D01*
X111315000Y-128375439D01*
X111315000Y-128165486D01*
X111525309Y-128123653D01*
X111818048Y-127928050D01*
X111867424Y-127854154D01*
X115064156Y-124657423D01*
X115138049Y-124608049D01*
X115246996Y-124445000D01*
X115333651Y-124315311D01*
X115333652Y-124315310D01*
X115385000Y-124057165D01*
X115385000Y-124057161D01*
X115402337Y-123970001D01*
X115385000Y-123882841D01*
X115385000Y-77366578D01*
X118866579Y-73885000D01*
X122992839Y-73885000D01*
X123080000Y-73902337D01*
X123167161Y-73885000D01*
X123167165Y-73885000D01*
X123425310Y-73833652D01*
X123718049Y-73638049D01*
X123767425Y-73564153D01*
X125287620Y-72043958D01*
X136035647Y-72043958D01*
X136115920Y-72295259D01*
X136671279Y-72496718D01*
X137261458Y-72470315D01*
X137684080Y-72295259D01*
X137764353Y-72043958D01*
X136900000Y-71179605D01*
X136035647Y-72043958D01*
X125287620Y-72043958D01*
X126560299Y-70771279D01*
X135403282Y-70771279D01*
X135429685Y-71361458D01*
X135604741Y-71784080D01*
X135856042Y-71864353D01*
X136720395Y-71000000D01*
X135856042Y-70135647D01*
X135604741Y-70215920D01*
X135403282Y-70771279D01*
X126560299Y-70771279D01*
X127266579Y-70065000D01*
X127795385Y-70065000D01*
X128341185Y-69838922D01*
X128758922Y-69421185D01*
X128782195Y-69365000D01*
X136513422Y-69365000D01*
X136672130Y-69523709D01*
X136538542Y-69529685D01*
X136115920Y-69704741D01*
X136035647Y-69956042D01*
X136900000Y-70820395D01*
X136914143Y-70806253D01*
X137093748Y-70985858D01*
X137079605Y-71000000D01*
X137943958Y-71864353D01*
X138126519Y-71806037D01*
X138141078Y-71841185D01*
X138558815Y-72258922D01*
X139104615Y-72485000D01*
X139695385Y-72485000D01*
X140241185Y-72258922D01*
X140658922Y-71841185D01*
X140885000Y-71295385D01*
X140885000Y-70704615D01*
X140658922Y-70158815D01*
X140241185Y-69741078D01*
X139695385Y-69515000D01*
X139166579Y-69515000D01*
X137567425Y-67915847D01*
X137518049Y-67841951D01*
X137225310Y-67646348D01*
X136967165Y-67595000D01*
X136967161Y-67595000D01*
X136880000Y-67577663D01*
X136792839Y-67595000D01*
X135624346Y-67595000D01*
X136109966Y-67109380D01*
X136435000Y-66324678D01*
X136435000Y-65475322D01*
X136109966Y-64690620D01*
X135509380Y-64090034D01*
X134724678Y-63765000D01*
X133875322Y-63765000D01*
X133090620Y-64090034D01*
X132490034Y-64690620D01*
X132165000Y-65475322D01*
X132165000Y-66324678D01*
X132490034Y-67109380D01*
X132975654Y-67595000D01*
X128615107Y-67595000D01*
X128385000Y-67364893D01*
X128385000Y-64715107D01*
X128758922Y-64341185D01*
X128985000Y-63795385D01*
X128985000Y-63204615D01*
X128758922Y-62658815D01*
X128341185Y-62241078D01*
X127795385Y-62015000D01*
X127204615Y-62015000D01*
X126658815Y-62241078D01*
X126241078Y-62658815D01*
X126221845Y-62705247D01*
X126003958Y-62635647D01*
X125139605Y-63500000D01*
X126003958Y-64364353D01*
X126221845Y-64294753D01*
X126241078Y-64341185D01*
X126615000Y-64715107D01*
X126615001Y-67364892D01*
X126241078Y-67738815D01*
X126221845Y-67785247D01*
X126003958Y-67715647D01*
X125139605Y-68580000D01*
X125153748Y-68594143D01*
X124974143Y-68773748D01*
X124960000Y-68759605D01*
X124095647Y-69623958D01*
X124175920Y-69875259D01*
X124731279Y-70076718D01*
X124752660Y-70075761D01*
X122713422Y-72115000D01*
X118587159Y-72115000D01*
X118499999Y-72097663D01*
X118412839Y-72115000D01*
X118412835Y-72115000D01*
X118154690Y-72166348D01*
X118154688Y-72166349D01*
X118154689Y-72166349D01*
X117935845Y-72312576D01*
X117935844Y-72312577D01*
X117861951Y-72361951D01*
X117812577Y-72435844D01*
X113935845Y-76312577D01*
X113861952Y-76361951D01*
X113812578Y-76435844D01*
X113812576Y-76435846D01*
X113666348Y-76654691D01*
X113597663Y-77000000D01*
X113615001Y-77087166D01*
X113615000Y-123603421D01*
X111266929Y-125951493D01*
X111315000Y-125835439D01*
X111315000Y-125264561D01*
X111096534Y-124737138D01*
X110692862Y-124333466D01*
X110563784Y-124280000D01*
X110692862Y-124226534D01*
X111096534Y-123822862D01*
X111315000Y-123295439D01*
X111315000Y-122724561D01*
X111096534Y-122197138D01*
X110692862Y-121793466D01*
X110563784Y-121740000D01*
X110692862Y-121686534D01*
X111096534Y-121282862D01*
X111315000Y-120755439D01*
X111315000Y-120184561D01*
X111096534Y-119657138D01*
X110692862Y-119253466D01*
X110563784Y-119200000D01*
X110692862Y-119146534D01*
X111096534Y-118742862D01*
X111315000Y-118215439D01*
X111315000Y-117644561D01*
X111096534Y-117117138D01*
X110692862Y-116713466D01*
X110563784Y-116660000D01*
X110692862Y-116606534D01*
X111096534Y-116202862D01*
X111315000Y-115675439D01*
X111315000Y-115104561D01*
X111096534Y-114577138D01*
X110692862Y-114173466D01*
X110563784Y-114120000D01*
X110692862Y-114066534D01*
X111096534Y-113662862D01*
X111315000Y-113135439D01*
X111315000Y-112564561D01*
X111096534Y-112037138D01*
X110692862Y-111633466D01*
X110563784Y-111580000D01*
X110692862Y-111526534D01*
X111096534Y-111122862D01*
X111315000Y-110595439D01*
X111315000Y-110024561D01*
X111096534Y-109497138D01*
X110692862Y-109093466D01*
X110563784Y-109040000D01*
X110692862Y-108986534D01*
X111096534Y-108582862D01*
X111315000Y-108055439D01*
X111315000Y-107484561D01*
X111096534Y-106957138D01*
X110692862Y-106553466D01*
X110563784Y-106500000D01*
X110692862Y-106446534D01*
X111096534Y-106042862D01*
X111315000Y-105515439D01*
X111315000Y-104944561D01*
X111096534Y-104417138D01*
X110692862Y-104013466D01*
X110563784Y-103960000D01*
X110692862Y-103906534D01*
X111096534Y-103502862D01*
X111315000Y-102975439D01*
X111315000Y-102404561D01*
X111096534Y-101877138D01*
X110692862Y-101473466D01*
X110563784Y-101420000D01*
X110692862Y-101366534D01*
X111096534Y-100962862D01*
X111315000Y-100435439D01*
X111315000Y-99864561D01*
X111096534Y-99337138D01*
X110692862Y-98933466D01*
X110563784Y-98880000D01*
X110692862Y-98826534D01*
X111096534Y-98422862D01*
X111315000Y-97895439D01*
X111315000Y-97324561D01*
X111096534Y-96797138D01*
X110692862Y-96393466D01*
X110563784Y-96340000D01*
X110692862Y-96286534D01*
X111096534Y-95882862D01*
X111315000Y-95355439D01*
X111315000Y-94784561D01*
X111096534Y-94257138D01*
X110692862Y-93853466D01*
X110563784Y-93800000D01*
X110692862Y-93746534D01*
X111096534Y-93342862D01*
X111315000Y-92815439D01*
X111315000Y-92244561D01*
X111096534Y-91717138D01*
X110692862Y-91313466D01*
X110563784Y-91260000D01*
X110692862Y-91206534D01*
X111096534Y-90802862D01*
X111315000Y-90275439D01*
X111315000Y-89704561D01*
X111096534Y-89177138D01*
X110692862Y-88773466D01*
X110563784Y-88720000D01*
X110692862Y-88666534D01*
X111096534Y-88262862D01*
X111315000Y-87735439D01*
X111315000Y-87164561D01*
X111096534Y-86637138D01*
X110692862Y-86233466D01*
X110563784Y-86180000D01*
X110692862Y-86126534D01*
X111096534Y-85722862D01*
X111315000Y-85195439D01*
X111315000Y-84624561D01*
X111096534Y-84097138D01*
X110692862Y-83693466D01*
X110563784Y-83640000D01*
X110692862Y-83586534D01*
X111096534Y-83182862D01*
X111315000Y-82655439D01*
X111315000Y-82084561D01*
X111096534Y-81557138D01*
X110692862Y-81153466D01*
X110563784Y-81100000D01*
X110692862Y-81046534D01*
X111096534Y-80642862D01*
X111315000Y-80115439D01*
X111315000Y-79544561D01*
X111096534Y-79017138D01*
X110692862Y-78613466D01*
X110563784Y-78560000D01*
X110692862Y-78506534D01*
X111096534Y-78102862D01*
X111315000Y-77575439D01*
X111315000Y-77004561D01*
X111096534Y-76477138D01*
X110692862Y-76073466D01*
X110165439Y-75855000D01*
X109594561Y-75855000D01*
X109067138Y-76073466D01*
X108663466Y-76477138D01*
X108445000Y-77004561D01*
X108445000Y-77575439D01*
X108663466Y-78102862D01*
X109067138Y-78506534D01*
X109196216Y-78560000D01*
X109067138Y-78613466D01*
X108663466Y-79017138D01*
X108445000Y-79544561D01*
X108445000Y-80115439D01*
X108663466Y-80642862D01*
X109067138Y-81046534D01*
X109196216Y-81100000D01*
X109067138Y-81153466D01*
X108663466Y-81557138D01*
X108445000Y-82084561D01*
X108445000Y-82655439D01*
X108663466Y-83182862D01*
X109067138Y-83586534D01*
X109196216Y-83640000D01*
X109067138Y-83693466D01*
X108663466Y-84097138D01*
X108445000Y-84624561D01*
X108445000Y-85195439D01*
X108663466Y-85722862D01*
X109067138Y-86126534D01*
X109196216Y-86180000D01*
X109067138Y-86233466D01*
X108663466Y-86637138D01*
X108445000Y-87164561D01*
X108445000Y-87735439D01*
X108663466Y-88262862D01*
X109067138Y-88666534D01*
X109196216Y-88720000D01*
X109067138Y-88773466D01*
X108663466Y-89177138D01*
X108445000Y-89704561D01*
X108445000Y-90275439D01*
X108663466Y-90802862D01*
X109067138Y-91206534D01*
X109196216Y-91260000D01*
X109067138Y-91313466D01*
X108663466Y-91717138D01*
X108445000Y-92244561D01*
X108445000Y-92815439D01*
X108663466Y-93342862D01*
X109067138Y-93746534D01*
X109196216Y-93800000D01*
X109067138Y-93853466D01*
X108663466Y-94257138D01*
X108445000Y-94784561D01*
X108445000Y-95355439D01*
X108663466Y-95882862D01*
X109067138Y-96286534D01*
X109196216Y-96340000D01*
X109067138Y-96393466D01*
X108663466Y-96797138D01*
X108445000Y-97324561D01*
X108445000Y-97895439D01*
X108663466Y-98422862D01*
X109067138Y-98826534D01*
X109196216Y-98880000D01*
X109067138Y-98933466D01*
X108663466Y-99337138D01*
X108445000Y-99864561D01*
X108445000Y-100435439D01*
X108663466Y-100962862D01*
X109067138Y-101366534D01*
X109196216Y-101420000D01*
X109067138Y-101473466D01*
X108663466Y-101877138D01*
X108445000Y-102404561D01*
X108445000Y-102975439D01*
X108663466Y-103502862D01*
X109067138Y-103906534D01*
X109196216Y-103960000D01*
X109067138Y-104013466D01*
X108663466Y-104417138D01*
X108445000Y-104944561D01*
X108445000Y-105515439D01*
X108663466Y-106042862D01*
X109067138Y-106446534D01*
X109196216Y-106500000D01*
X109067138Y-106553466D01*
X108663466Y-106957138D01*
X108445000Y-107484561D01*
X108445000Y-108055439D01*
X108663466Y-108582862D01*
X109067138Y-108986534D01*
X109196216Y-109040000D01*
X109067138Y-109093466D01*
X108663466Y-109497138D01*
X108445000Y-110024561D01*
X108445000Y-110595439D01*
X108663466Y-111122862D01*
X109067138Y-111526534D01*
X109196216Y-111580000D01*
X109067138Y-111633466D01*
X108663466Y-112037138D01*
X108445000Y-112564561D01*
X108445000Y-113135439D01*
X108663466Y-113662862D01*
X109067138Y-114066534D01*
X109196216Y-114120000D01*
X109067138Y-114173466D01*
X108663466Y-114577138D01*
X108445000Y-115104561D01*
X108445000Y-115675439D01*
X108663466Y-116202862D01*
X109067138Y-116606534D01*
X109196216Y-116660000D01*
X109067138Y-116713466D01*
X108663466Y-117117138D01*
X108445000Y-117644561D01*
X108445000Y-118215439D01*
X108663466Y-118742862D01*
X109067138Y-119146534D01*
X109196216Y-119200000D01*
X109067138Y-119253466D01*
X108663466Y-119657138D01*
X108445000Y-120184561D01*
X108445000Y-120755439D01*
X108663466Y-121282862D01*
X109067138Y-121686534D01*
X109196216Y-121740000D01*
X109067138Y-121793466D01*
X108663466Y-122197138D01*
X108445000Y-122724561D01*
X108445000Y-123295439D01*
X108663466Y-123822862D01*
X109067138Y-124226534D01*
X109196216Y-124280000D01*
X109067138Y-124333466D01*
X108925406Y-124475198D01*
X107385000Y-122934792D01*
X107385000Y-73866578D01*
X108766579Y-72485000D01*
X109295385Y-72485000D01*
X109841185Y-72258922D01*
X110258922Y-71841185D01*
X110485000Y-71295385D01*
X110485000Y-70704615D01*
X110258922Y-70158815D01*
X109841185Y-69741078D01*
X109295385Y-69515000D01*
X108704615Y-69515000D01*
X108158815Y-69741078D01*
X107741078Y-70158815D01*
X107726519Y-70193963D01*
X107543958Y-70135647D01*
X106679605Y-71000000D01*
X106693748Y-71014143D01*
X106514143Y-71193748D01*
X106500000Y-71179605D01*
X106485858Y-71193748D01*
X106306253Y-71014143D01*
X106320395Y-71000000D01*
X105456042Y-70135647D01*
X105204741Y-70215920D01*
X105003282Y-70771279D01*
X105025781Y-71274203D01*
X103707620Y-69956042D01*
X105635647Y-69956042D01*
X106500000Y-70820395D01*
X107364353Y-69956042D01*
X107284080Y-69704741D01*
X106728721Y-69503282D01*
X106138542Y-69529685D01*
X105715920Y-69704741D01*
X105635647Y-69956042D01*
X103707620Y-69956042D01*
X102102857Y-68351279D01*
X123463282Y-68351279D01*
X123489685Y-68941458D01*
X123664741Y-69364080D01*
X123916042Y-69444353D01*
X124780395Y-68580000D01*
X123916042Y-67715647D01*
X123664741Y-67795920D01*
X123463282Y-68351279D01*
X102102857Y-68351279D01*
X101767425Y-68015847D01*
X101718049Y-67941951D01*
X101425310Y-67746348D01*
X101167165Y-67695000D01*
X101167161Y-67695000D01*
X101080000Y-67677663D01*
X100992839Y-67695000D01*
X97715107Y-67695000D01*
X97385000Y-67364893D01*
X97385000Y-65475322D01*
X101765000Y-65475322D01*
X101765000Y-66324678D01*
X102090034Y-67109380D01*
X102690620Y-67709966D01*
X103475322Y-68035000D01*
X104324678Y-68035000D01*
X105109380Y-67709966D01*
X105709966Y-67109380D01*
X106035000Y-66324678D01*
X106035000Y-65475322D01*
X111965000Y-65475322D01*
X111965000Y-66324678D01*
X112290034Y-67109380D01*
X112890620Y-67709966D01*
X113675322Y-68035000D01*
X114524678Y-68035000D01*
X115309380Y-67709966D01*
X115483304Y-67536042D01*
X124095647Y-67536042D01*
X124960000Y-68400395D01*
X125824353Y-67536042D01*
X125744080Y-67284741D01*
X125188721Y-67083282D01*
X124598542Y-67109685D01*
X124175920Y-67284741D01*
X124095647Y-67536042D01*
X115483304Y-67536042D01*
X115909966Y-67109380D01*
X116235000Y-66324678D01*
X116235000Y-65475322D01*
X115909966Y-64690620D01*
X115763304Y-64543958D01*
X124095647Y-64543958D01*
X124175920Y-64795259D01*
X124731279Y-64996718D01*
X125321458Y-64970315D01*
X125744080Y-64795259D01*
X125824353Y-64543958D01*
X124960000Y-63679605D01*
X124095647Y-64543958D01*
X115763304Y-64543958D01*
X115309380Y-64090034D01*
X114524678Y-63765000D01*
X113675322Y-63765000D01*
X112890620Y-64090034D01*
X112290034Y-64690620D01*
X111965000Y-65475322D01*
X106035000Y-65475322D01*
X105709966Y-64690620D01*
X105109380Y-64090034D01*
X104324678Y-63765000D01*
X103475322Y-63765000D01*
X102690620Y-64090034D01*
X102090034Y-64690620D01*
X101765000Y-65475322D01*
X97385000Y-65475322D01*
X97385000Y-64715107D01*
X97758922Y-64341185D01*
X97985000Y-63795385D01*
X97985000Y-63271279D01*
X123463282Y-63271279D01*
X123489685Y-63861458D01*
X123664741Y-64284080D01*
X123916042Y-64364353D01*
X124780395Y-63500000D01*
X123916042Y-62635647D01*
X123664741Y-62715920D01*
X123463282Y-63271279D01*
X97985000Y-63271279D01*
X97985000Y-63204615D01*
X97758922Y-62658815D01*
X97556149Y-62456042D01*
X124095647Y-62456042D01*
X124960000Y-63320395D01*
X125824353Y-62456042D01*
X125744080Y-62204741D01*
X125188721Y-62003282D01*
X124598542Y-62029685D01*
X124175920Y-62204741D01*
X124095647Y-62456042D01*
X97556149Y-62456042D01*
X97341185Y-62241078D01*
X96795385Y-62015000D01*
X96204615Y-62015000D01*
X95658815Y-62241078D01*
X95241078Y-62658815D01*
X95221845Y-62705247D01*
X95003958Y-62635647D01*
X94139605Y-63500000D01*
X95003958Y-64364353D01*
X95221845Y-64294753D01*
X95241078Y-64341185D01*
X95615000Y-64715107D01*
X95615001Y-67364892D01*
X95241078Y-67738815D01*
X95221845Y-67785247D01*
X95003958Y-67715647D01*
X94139605Y-68580000D01*
X95003958Y-69444353D01*
X95221845Y-69374753D01*
X95241078Y-69421185D01*
X95658815Y-69838922D01*
X96204615Y-70065000D01*
X96795385Y-70065000D01*
X97341185Y-69838922D01*
X97715107Y-69465000D01*
X100713422Y-69465000D01*
X105312577Y-74064156D01*
X105361951Y-74138049D01*
X105435844Y-74187423D01*
X105435845Y-74187424D01*
X105615001Y-74307133D01*
X105615000Y-122582835D01*
X105615000Y-123214209D01*
X105597663Y-123301370D01*
X105615000Y-123388531D01*
X105615000Y-123388534D01*
X105666348Y-123646679D01*
X105861951Y-123939419D01*
X105935847Y-123988795D01*
X108061207Y-126114156D01*
X108110581Y-126188049D01*
X108184474Y-126237423D01*
X108184475Y-126237424D01*
X108240216Y-126274669D01*
X108403320Y-126383652D01*
X108661465Y-126435000D01*
X108661470Y-126435000D01*
X108748629Y-126452337D01*
X108752226Y-126451622D01*
X109067138Y-126766534D01*
X109196216Y-126820000D01*
X109067138Y-126873466D01*
X108663466Y-127277138D01*
X108445000Y-127804561D01*
X108445000Y-128375439D01*
X108663466Y-128902862D01*
X109067138Y-129306534D01*
X109196216Y-129360000D01*
X109067138Y-129413466D01*
X108663466Y-129817138D01*
X108445000Y-130344561D01*
X108445000Y-130915439D01*
X108663466Y-131442862D01*
X109067138Y-131846534D01*
X109196216Y-131900000D01*
X109067138Y-131953466D01*
X108663466Y-132357138D01*
X108445000Y-132884561D01*
X108445000Y-133455439D01*
X108663466Y-133982862D01*
X109067138Y-134386534D01*
X109196216Y-134440000D01*
X109067138Y-134493466D01*
X108663466Y-134897138D01*
X108445000Y-135424561D01*
X108445000Y-135995439D01*
X108663466Y-136522862D01*
X108930604Y-136790000D01*
X88210000Y-136790000D01*
X88210000Y-132446029D01*
X89715000Y-132446029D01*
X89715000Y-133553971D01*
X90138991Y-134577576D01*
X90922424Y-135361009D01*
X91946029Y-135785000D01*
X93053971Y-135785000D01*
X94077576Y-135361009D01*
X94861009Y-134577576D01*
X95285000Y-133553971D01*
X95285000Y-132446029D01*
X94861009Y-131422424D01*
X94077576Y-130638991D01*
X93053971Y-130215000D01*
X91946029Y-130215000D01*
X90922424Y-130638991D01*
X90138991Y-131422424D01*
X89715000Y-132446029D01*
X88210000Y-132446029D01*
X88210000Y-81446029D01*
X89715000Y-81446029D01*
X89715000Y-82553971D01*
X90138991Y-83577576D01*
X90922424Y-84361009D01*
X91946029Y-84785000D01*
X93053971Y-84785000D01*
X94077576Y-84361009D01*
X94861009Y-83577576D01*
X95285000Y-82553971D01*
X95285000Y-81446029D01*
X94861009Y-80422424D01*
X94077576Y-79638991D01*
X93053971Y-79215000D01*
X91946029Y-79215000D01*
X90922424Y-79638991D01*
X90138991Y-80422424D01*
X89715000Y-81446029D01*
X88210000Y-81446029D01*
X88210000Y-69623958D01*
X93095647Y-69623958D01*
X93175920Y-69875259D01*
X93731279Y-70076718D01*
X94321458Y-70050315D01*
X94744080Y-69875259D01*
X94824353Y-69623958D01*
X93960000Y-68759605D01*
X93095647Y-69623958D01*
X88210000Y-69623958D01*
X88210000Y-68351279D01*
X92463282Y-68351279D01*
X92489685Y-68941458D01*
X92664741Y-69364080D01*
X92916042Y-69444353D01*
X93780395Y-68580000D01*
X92916042Y-67715647D01*
X92664741Y-67795920D01*
X92463282Y-68351279D01*
X88210000Y-68351279D01*
X88210000Y-67536042D01*
X93095647Y-67536042D01*
X93960000Y-68400395D01*
X94824353Y-67536042D01*
X94744080Y-67284741D01*
X94188721Y-67083282D01*
X93598542Y-67109685D01*
X93175920Y-67284741D01*
X93095647Y-67536042D01*
X88210000Y-67536042D01*
X88210000Y-64543958D01*
X93095647Y-64543958D01*
X93175920Y-64795259D01*
X93731279Y-64996718D01*
X94321458Y-64970315D01*
X94744080Y-64795259D01*
X94824353Y-64543958D01*
X93960000Y-63679605D01*
X93095647Y-64543958D01*
X88210000Y-64543958D01*
X88210000Y-63271279D01*
X92463282Y-63271279D01*
X92489685Y-63861458D01*
X92664741Y-64284080D01*
X92916042Y-64364353D01*
X93780395Y-63500000D01*
X92916042Y-62635647D01*
X92664741Y-62715920D01*
X92463282Y-63271279D01*
X88210000Y-63271279D01*
X88210000Y-62456042D01*
X93095647Y-62456042D01*
X93960000Y-63320395D01*
X94824353Y-62456042D01*
X94744080Y-62204741D01*
X94188721Y-62003282D01*
X93598542Y-62029685D01*
X93175920Y-62204741D01*
X93095647Y-62456042D01*
X88210000Y-62456042D01*
X88210000Y-58710000D01*
X146373000Y-58710000D01*
X146373000Y-64842798D01*
G04 #@! TO.N,GNDREF*
G36*
X211290000Y-136790000D02*
X141627000Y-136790000D01*
X141627000Y-126253126D01*
X153682000Y-126253126D01*
X153682000Y-126664874D01*
X153839569Y-127045280D01*
X154130720Y-127336431D01*
X154511126Y-127494000D01*
X154922874Y-127494000D01*
X155303280Y-127336431D01*
X155594431Y-127045280D01*
X155752000Y-126664874D01*
X155752000Y-126253126D01*
X155594431Y-125872720D01*
X155477000Y-125755289D01*
X155477000Y-123852801D01*
X156153802Y-123176000D01*
X156319874Y-123176000D01*
X156700280Y-123018431D01*
X156991431Y-122727280D01*
X157149000Y-122346874D01*
X157149000Y-121935126D01*
X156991431Y-121554720D01*
X156700280Y-121263569D01*
X156319874Y-121106000D01*
X155908126Y-121106000D01*
X155527720Y-121263569D01*
X155236569Y-121554720D01*
X155079000Y-121935126D01*
X155079000Y-122101198D01*
X154232528Y-122947671D01*
X154169072Y-122990071D01*
X154126672Y-123053527D01*
X154126671Y-123053528D01*
X154001097Y-123241463D01*
X153942112Y-123538000D01*
X153957001Y-123612852D01*
X153957000Y-125755289D01*
X153839569Y-125872720D01*
X153682000Y-126253126D01*
X141627000Y-126253126D01*
X141627000Y-103425001D01*
X145300111Y-103425001D01*
X145315000Y-103499853D01*
X145314999Y-115900152D01*
X145300111Y-115974999D01*
X145314999Y-116049846D01*
X145314999Y-116049850D01*
X145359095Y-116271535D01*
X145527070Y-116522928D01*
X145590529Y-116565330D01*
X147965000Y-118939802D01*
X147965000Y-119105874D01*
X148122569Y-119486280D01*
X148413720Y-119777431D01*
X148794126Y-119935000D01*
X149205874Y-119935000D01*
X149586280Y-119777431D01*
X149877431Y-119486280D01*
X150035000Y-119105874D01*
X150035000Y-118694126D01*
X149877431Y-118313720D01*
X149586280Y-118022569D01*
X149205874Y-117865000D01*
X149039802Y-117865000D01*
X146834999Y-115660198D01*
X146834999Y-111035000D01*
X147005874Y-111035000D01*
X147386280Y-110877431D01*
X147671127Y-110592584D01*
X147692071Y-110623929D01*
X147755530Y-110666331D01*
X147967000Y-110877801D01*
X147967000Y-111043874D01*
X148124569Y-111424280D01*
X148415720Y-111715431D01*
X148796126Y-111873000D01*
X149207874Y-111873000D01*
X149588280Y-111715431D01*
X149879431Y-111424280D01*
X150037000Y-111043874D01*
X150037000Y-110632126D01*
X149879431Y-110251720D01*
X149588280Y-109960569D01*
X149207874Y-109803000D01*
X149041801Y-109803000D01*
X149000000Y-109761199D01*
X149000000Y-108735801D01*
X149554671Y-109290473D01*
X149597071Y-109353929D01*
X149848463Y-109521904D01*
X150070148Y-109566000D01*
X150070152Y-109566000D01*
X150144999Y-109580888D01*
X150219846Y-109566000D01*
X155238196Y-109566000D01*
X152473529Y-112330668D01*
X152455073Y-112343000D01*
X152352126Y-112343000D01*
X151971720Y-112500569D01*
X151680569Y-112791720D01*
X151523000Y-113172126D01*
X151523000Y-113583874D01*
X151680569Y-113964280D01*
X151798001Y-114081712D01*
X151798000Y-115335153D01*
X151783112Y-115410000D01*
X151798000Y-115484847D01*
X151798000Y-115484851D01*
X151842096Y-115706536D01*
X152010071Y-115957929D01*
X152073530Y-116000331D01*
X153682000Y-117608802D01*
X153682000Y-117774874D01*
X153839569Y-118155280D01*
X154130720Y-118446431D01*
X154511126Y-118604000D01*
X154922874Y-118604000D01*
X155303280Y-118446431D01*
X155594431Y-118155280D01*
X155752000Y-117774874D01*
X155752000Y-117363126D01*
X155594431Y-116982720D01*
X155303280Y-116691569D01*
X154922874Y-116534000D01*
X154756802Y-116534000D01*
X153318000Y-115095199D01*
X153318000Y-114081711D01*
X153435431Y-113964280D01*
X153593000Y-113583874D01*
X153593000Y-113395617D01*
X153663112Y-113290687D01*
X157297799Y-109656001D01*
X159548861Y-109656001D01*
X159397000Y-110022626D01*
X159397000Y-110188698D01*
X157661528Y-111924171D01*
X157598072Y-111966571D01*
X157555672Y-112030027D01*
X157555671Y-112030028D01*
X157430097Y-112217963D01*
X157371112Y-112514500D01*
X157386001Y-112589352D01*
X157386000Y-120167289D01*
X157268569Y-120284720D01*
X157111000Y-120665126D01*
X157111000Y-121076874D01*
X157268569Y-121457280D01*
X157559720Y-121748431D01*
X157940126Y-121906000D01*
X158240000Y-121906000D01*
X158240001Y-128676290D01*
X157986280Y-128422569D01*
X157605874Y-128265000D01*
X157194126Y-128265000D01*
X156813720Y-128422569D01*
X156522569Y-128713720D01*
X156365000Y-129094126D01*
X156365000Y-129399470D01*
X156325112Y-129600000D01*
X156340001Y-129674852D01*
X156340000Y-130896289D01*
X156222569Y-131013720D01*
X156065000Y-131394126D01*
X156065000Y-131805874D01*
X156222569Y-132186280D01*
X156513720Y-132477431D01*
X156894126Y-132635000D01*
X156990198Y-132635000D01*
X155560199Y-134065000D01*
X155394126Y-134065000D01*
X155013720Y-134222569D01*
X154722569Y-134513720D01*
X154565000Y-134894126D01*
X154565000Y-135305874D01*
X154722569Y-135686280D01*
X155013720Y-135977431D01*
X155394126Y-136135000D01*
X155805874Y-136135000D01*
X156186280Y-135977431D01*
X156477431Y-135686280D01*
X156635000Y-135305874D01*
X156635000Y-135139801D01*
X159484473Y-132290329D01*
X159547929Y-132247929D01*
X159715904Y-131996537D01*
X159760000Y-131774852D01*
X159760000Y-131774848D01*
X159774888Y-131700001D01*
X159760000Y-131625154D01*
X159760000Y-127394126D01*
X160192339Y-127394126D01*
X160192339Y-127805874D01*
X160349908Y-128186280D01*
X160641059Y-128477431D01*
X161021465Y-128635000D01*
X161433213Y-128635000D01*
X161813619Y-128477431D01*
X162104770Y-128186280D01*
X162262339Y-127805874D01*
X162262339Y-127604653D01*
X163010755Y-126802361D01*
X165019158Y-124793959D01*
X168523555Y-128298357D01*
X168485071Y-128324071D01*
X168442673Y-128387524D01*
X167760198Y-129070000D01*
X167594126Y-129070000D01*
X167213720Y-129227569D01*
X166922569Y-129518720D01*
X166765000Y-129899126D01*
X166765000Y-130310874D01*
X166922569Y-130691280D01*
X167213720Y-130982431D01*
X167594126Y-131140000D01*
X168005874Y-131140000D01*
X168386280Y-130982431D01*
X168677431Y-130691280D01*
X168835000Y-130310874D01*
X168835000Y-130144802D01*
X169347803Y-129632000D01*
X170097152Y-129632000D01*
X170172000Y-129646888D01*
X170246848Y-129632000D01*
X177254289Y-129632000D01*
X177371720Y-129749431D01*
X177752126Y-129907000D01*
X178163874Y-129907000D01*
X178544280Y-129749431D01*
X178835431Y-129458280D01*
X178993000Y-129077874D01*
X178993000Y-128666126D01*
X178990562Y-128660239D01*
X180728473Y-126922329D01*
X180791929Y-126879929D01*
X180959904Y-126628537D01*
X181004000Y-126406852D01*
X181004000Y-126406848D01*
X181018888Y-126332001D01*
X181004000Y-126257154D01*
X181004000Y-120177711D01*
X181121431Y-120060280D01*
X181279000Y-119679874D01*
X181279000Y-119268126D01*
X181121431Y-118887720D01*
X180830280Y-118596569D01*
X180449874Y-118439000D01*
X180038126Y-118439000D01*
X179657720Y-118596569D01*
X179366569Y-118887720D01*
X179209000Y-119268126D01*
X179209000Y-119679874D01*
X179366569Y-120060280D01*
X179484000Y-120177711D01*
X179484001Y-126017197D01*
X177602025Y-127899174D01*
X177371720Y-127994569D01*
X177254289Y-128112000D01*
X170486802Y-128112000D01*
X165764000Y-123389199D01*
X165764000Y-120431711D01*
X165881431Y-120314280D01*
X166039000Y-119933874D01*
X166039000Y-119522126D01*
X165881431Y-119141720D01*
X165590280Y-118850569D01*
X165209874Y-118693000D01*
X164798126Y-118693000D01*
X164417720Y-118850569D01*
X164126569Y-119141720D01*
X163969000Y-119522126D01*
X163969000Y-119933874D01*
X164126569Y-120314280D01*
X164244000Y-120431711D01*
X164244001Y-122701148D01*
X164244000Y-123419512D01*
X161970124Y-125693390D01*
X161959321Y-125701164D01*
X161917245Y-125746269D01*
X161873671Y-125789843D01*
X161866284Y-125800899D01*
X161153495Y-126565000D01*
X161021465Y-126565000D01*
X160641059Y-126722569D01*
X160349908Y-127013720D01*
X160192339Y-127394126D01*
X159760000Y-127394126D01*
X159760000Y-120403711D01*
X159877431Y-120286280D01*
X160035000Y-119905874D01*
X160035000Y-119494126D01*
X159877431Y-119113720D01*
X159586280Y-118822569D01*
X159205874Y-118665000D01*
X158906000Y-118665000D01*
X158906000Y-112829301D01*
X160471802Y-111263500D01*
X160637874Y-111263500D01*
X161018280Y-111105931D01*
X161135711Y-110988500D01*
X163893789Y-110988500D01*
X164011220Y-111105931D01*
X164302582Y-111226617D01*
X161662199Y-113867000D01*
X161496126Y-113867000D01*
X161319405Y-113940200D01*
X161467000Y-113583874D01*
X161467000Y-113172126D01*
X161309431Y-112791720D01*
X161018280Y-112500569D01*
X160637874Y-112343000D01*
X160226126Y-112343000D01*
X159845720Y-112500569D01*
X159554569Y-112791720D01*
X159397000Y-113172126D01*
X159397000Y-113583874D01*
X159554569Y-113964280D01*
X159672001Y-114081712D01*
X159672001Y-114630151D01*
X159657112Y-114705002D01*
X159716097Y-115001539D01*
X159810693Y-115143111D01*
X159884072Y-115252931D01*
X159947528Y-115295331D01*
X161816668Y-117164472D01*
X161859069Y-117227929D01*
X162110461Y-117395904D01*
X162332146Y-117440000D01*
X162332151Y-117440000D01*
X162406998Y-117454888D01*
X162481845Y-117440000D01*
X168866153Y-117440000D01*
X168941000Y-117454888D01*
X169015847Y-117440000D01*
X169015852Y-117440000D01*
X169237537Y-117395904D01*
X169488929Y-117227929D01*
X169531331Y-117164470D01*
X170377802Y-116318000D01*
X170543874Y-116318000D01*
X170844255Y-116193578D01*
X170847931Y-120161500D01*
X170833112Y-120236000D01*
X170848070Y-120311197D01*
X170848070Y-120311556D01*
X170862768Y-120385088D01*
X170892097Y-120532537D01*
X170892300Y-120532841D01*
X170892372Y-120533200D01*
X170976308Y-120658567D01*
X171017671Y-120720472D01*
X171017922Y-120720723D01*
X171060579Y-120784436D01*
X171123780Y-120826581D01*
X176415000Y-126117802D01*
X176415000Y-126283874D01*
X176572569Y-126664280D01*
X176863720Y-126955431D01*
X177244126Y-127113000D01*
X177655874Y-127113000D01*
X178036280Y-126955431D01*
X178327431Y-126664280D01*
X178485000Y-126283874D01*
X178485000Y-125872126D01*
X178327431Y-125491720D01*
X178036280Y-125200569D01*
X177655874Y-125043000D01*
X177489802Y-125043000D01*
X172367708Y-119920907D01*
X172360651Y-112303060D01*
X172477431Y-112186280D01*
X172635000Y-111805874D01*
X172635000Y-111394126D01*
X172477431Y-111013720D01*
X172186280Y-110722569D01*
X171846916Y-110582000D01*
X174341199Y-110582000D01*
X176436000Y-112676803D01*
X176436001Y-115214288D01*
X176318569Y-115331720D01*
X176161000Y-115712126D01*
X176161000Y-116123874D01*
X176318569Y-116504280D01*
X176388288Y-116573999D01*
X175373159Y-116573999D01*
X175279431Y-116347720D01*
X174988280Y-116056569D01*
X174607874Y-115899000D01*
X174196126Y-115899000D01*
X173815720Y-116056569D01*
X173524569Y-116347720D01*
X173367000Y-116728126D01*
X173367000Y-117139874D01*
X173524569Y-117520280D01*
X173815720Y-117811431D01*
X174196126Y-117969000D01*
X174384382Y-117969000D01*
X174505462Y-118049903D01*
X174727147Y-118093999D01*
X174727151Y-118093999D01*
X174801998Y-118108887D01*
X174876845Y-118093999D01*
X177883152Y-118093999D01*
X177957999Y-118108887D01*
X178032846Y-118093999D01*
X187358000Y-118093999D01*
X187358001Y-128168288D01*
X187240569Y-128285720D01*
X187083000Y-128666126D01*
X187083000Y-128832198D01*
X183339200Y-132575999D01*
X175878801Y-132575999D01*
X175735000Y-132432198D01*
X175735000Y-132266126D01*
X175577431Y-131885720D01*
X175286280Y-131594569D01*
X174905874Y-131437000D01*
X174494126Y-131437000D01*
X174113720Y-131594569D01*
X173822569Y-131885720D01*
X173665000Y-132266126D01*
X173665000Y-132677874D01*
X173822569Y-133058280D01*
X174113720Y-133349431D01*
X174494126Y-133507000D01*
X174660198Y-133507000D01*
X174973670Y-133820472D01*
X175016070Y-133883928D01*
X175267462Y-134051903D01*
X175489147Y-134095999D01*
X175489151Y-134095999D01*
X175563998Y-134110887D01*
X175638845Y-134095999D01*
X183579154Y-134095999D01*
X183654001Y-134110887D01*
X183728848Y-134095999D01*
X183728853Y-134095999D01*
X183950538Y-134051903D01*
X184201930Y-133883928D01*
X184244332Y-133820469D01*
X187083000Y-130981802D01*
X187083000Y-131363874D01*
X187149672Y-131524835D01*
X186913720Y-131622569D01*
X186622569Y-131913720D01*
X186465000Y-132294126D01*
X186465000Y-132705874D01*
X186622569Y-133086280D01*
X186913720Y-133377431D01*
X187294126Y-133535000D01*
X187705874Y-133535000D01*
X188068007Y-133385000D01*
X193913539Y-133385000D01*
X194001412Y-133402336D01*
X194172822Y-133367962D01*
X194345310Y-133333652D01*
X194345910Y-133333251D01*
X194346614Y-133333110D01*
X194491835Y-133235747D01*
X194638049Y-133138049D01*
X194638450Y-133137448D01*
X194639046Y-133137049D01*
X194735907Y-132991594D01*
X194833652Y-132845310D01*
X194833793Y-132844602D01*
X194834191Y-132844004D01*
X194868073Y-132672261D01*
X194902338Y-132500000D01*
X194891603Y-132446029D01*
X204715000Y-132446029D01*
X204715000Y-133553971D01*
X205138991Y-134577576D01*
X205922424Y-135361009D01*
X206946029Y-135785000D01*
X208053971Y-135785000D01*
X209077576Y-135361009D01*
X209861009Y-134577576D01*
X210285000Y-133553971D01*
X210285000Y-132446029D01*
X209861009Y-131422424D01*
X209077576Y-130638991D01*
X208053971Y-130215000D01*
X206946029Y-130215000D01*
X205922424Y-130638991D01*
X205138991Y-131422424D01*
X204715000Y-132446029D01*
X194891603Y-132446029D01*
X194884863Y-132412148D01*
X194805105Y-81446029D01*
X204715000Y-81446029D01*
X204715000Y-82553971D01*
X205138991Y-83577576D01*
X205922424Y-84361009D01*
X206946029Y-84785000D01*
X208053971Y-84785000D01*
X209077576Y-84361009D01*
X209861009Y-83577576D01*
X210285000Y-82553971D01*
X210285000Y-81446029D01*
X209861009Y-80422424D01*
X209077576Y-79638991D01*
X208053971Y-79215000D01*
X206946029Y-79215000D01*
X205922424Y-79638991D01*
X205138991Y-80422424D01*
X204715000Y-81446029D01*
X194805105Y-81446029D01*
X194790391Y-72043958D01*
X196735647Y-72043958D01*
X196815920Y-72295259D01*
X197371279Y-72496718D01*
X197961458Y-72470315D01*
X198384080Y-72295259D01*
X198464353Y-72043958D01*
X197600000Y-71179605D01*
X196735647Y-72043958D01*
X194790391Y-72043958D01*
X194788399Y-70771279D01*
X196103282Y-70771279D01*
X196129685Y-71361458D01*
X196304741Y-71784080D01*
X196556042Y-71864353D01*
X197420395Y-71000000D01*
X196556042Y-70135647D01*
X196304741Y-70215920D01*
X196103282Y-70771279D01*
X194788399Y-70771279D01*
X194786386Y-69485000D01*
X197333422Y-69485000D01*
X197372130Y-69523709D01*
X197238542Y-69529685D01*
X196815920Y-69704741D01*
X196735647Y-69956042D01*
X197600000Y-70820395D01*
X197614143Y-70806253D01*
X197793748Y-70985858D01*
X197779605Y-71000000D01*
X198643958Y-71864353D01*
X198826519Y-71806037D01*
X198841078Y-71841185D01*
X199258815Y-72258922D01*
X199804615Y-72485000D01*
X200395385Y-72485000D01*
X200941185Y-72258922D01*
X201358922Y-71841185D01*
X201585000Y-71295385D01*
X201585000Y-70704615D01*
X201358922Y-70158815D01*
X200941185Y-69741078D01*
X200395385Y-69515000D01*
X199866579Y-69515000D01*
X198387425Y-68035847D01*
X198338049Y-67961951D01*
X198045310Y-67766348D01*
X197787165Y-67715000D01*
X197787161Y-67715000D01*
X197700000Y-67697663D01*
X197612839Y-67715000D01*
X196197227Y-67715000D01*
X196209380Y-67709966D01*
X196809966Y-67109380D01*
X197135000Y-66324678D01*
X197135000Y-65475322D01*
X203065000Y-65475322D01*
X203065000Y-66324678D01*
X203390034Y-67109380D01*
X203990620Y-67709966D01*
X204775322Y-68035000D01*
X205624678Y-68035000D01*
X206409380Y-67709966D01*
X207009966Y-67109380D01*
X207335000Y-66324678D01*
X207335000Y-65475322D01*
X207009966Y-64690620D01*
X206409380Y-64090034D01*
X205624678Y-63765000D01*
X204775322Y-63765000D01*
X203990620Y-64090034D01*
X203390034Y-64690620D01*
X203065000Y-65475322D01*
X197135000Y-65475322D01*
X196809966Y-64690620D01*
X196209380Y-64090034D01*
X195424678Y-63765000D01*
X194575322Y-63765000D01*
X193790620Y-64090034D01*
X193190034Y-64690620D01*
X192865000Y-65475322D01*
X192865000Y-66324678D01*
X193190034Y-67109380D01*
X193790620Y-67709966D01*
X193802024Y-67714690D01*
X188718912Y-67698805D01*
X188385000Y-67364893D01*
X188385000Y-64715107D01*
X188758922Y-64341185D01*
X188985000Y-63795385D01*
X188985000Y-63204615D01*
X188758922Y-62658815D01*
X188341185Y-62241078D01*
X187795385Y-62015000D01*
X187204615Y-62015000D01*
X186658815Y-62241078D01*
X186241078Y-62658815D01*
X186221845Y-62705247D01*
X186003958Y-62635647D01*
X185139605Y-63500000D01*
X186003958Y-64364353D01*
X186221845Y-64294753D01*
X186241078Y-64341185D01*
X186615001Y-64715108D01*
X186615000Y-67364893D01*
X186241078Y-67738815D01*
X186221845Y-67785247D01*
X186003958Y-67715647D01*
X185139605Y-68580000D01*
X186003958Y-69444353D01*
X186221845Y-69374753D01*
X186241078Y-69421185D01*
X186658815Y-69838922D01*
X187204615Y-70065000D01*
X187795385Y-70065000D01*
X188341185Y-69838922D01*
X188711318Y-69468789D01*
X193016380Y-69482243D01*
X193113614Y-131615000D01*
X189048980Y-131615000D01*
X189153000Y-131363874D01*
X189153000Y-131197802D01*
X190126476Y-130224327D01*
X190189929Y-130181929D01*
X190232327Y-130118476D01*
X190232329Y-130118474D01*
X190357903Y-129930538D01*
X190357904Y-129930537D01*
X190402000Y-129708852D01*
X190402000Y-129708848D01*
X190416888Y-129634001D01*
X190402000Y-129559154D01*
X190402000Y-115992846D01*
X190416888Y-115917999D01*
X190402000Y-115843152D01*
X190402000Y-115843148D01*
X190357904Y-115621463D01*
X190189929Y-115370071D01*
X190126473Y-115327671D01*
X186359000Y-111560199D01*
X186359000Y-111394126D01*
X186201431Y-111013720D01*
X185910280Y-110722569D01*
X185529874Y-110565000D01*
X185118126Y-110565000D01*
X184737720Y-110722569D01*
X184446569Y-111013720D01*
X184289000Y-111394126D01*
X184289000Y-111805874D01*
X184446569Y-112186280D01*
X184737720Y-112477431D01*
X185118126Y-112635000D01*
X185284199Y-112635000D01*
X188294198Y-115645000D01*
X187912126Y-115645000D01*
X187531720Y-115802569D01*
X187240569Y-116093720D01*
X187083000Y-116474126D01*
X187083000Y-116573999D01*
X178681001Y-116573999D01*
X178681001Y-108335847D01*
X178695889Y-108261000D01*
X178681001Y-108186153D01*
X178681001Y-108186149D01*
X178636905Y-107964464D01*
X178468930Y-107713072D01*
X178405474Y-107670672D01*
X175982801Y-105248000D01*
X183471153Y-105248000D01*
X183546000Y-105262888D01*
X183620847Y-105248000D01*
X183620852Y-105248000D01*
X183842537Y-105203904D01*
X184093929Y-105035929D01*
X184136331Y-104972470D01*
X186940278Y-102168524D01*
X186986569Y-102280280D01*
X187277720Y-102571431D01*
X187658126Y-102729000D01*
X188069874Y-102729000D01*
X188450280Y-102571431D01*
X188741431Y-102280280D01*
X188899000Y-101899874D01*
X188899000Y-101733801D01*
X189618473Y-101014329D01*
X189681929Y-100971929D01*
X189849904Y-100720537D01*
X189894000Y-100498852D01*
X189894000Y-100498848D01*
X189908888Y-100424001D01*
X189894000Y-100349154D01*
X189894000Y-85512848D01*
X189908888Y-85438000D01*
X189894000Y-85363152D01*
X189894000Y-85363148D01*
X189849904Y-85141463D01*
X189849904Y-85141462D01*
X189724329Y-84953527D01*
X189681929Y-84890071D01*
X189618473Y-84847671D01*
X187946331Y-83175530D01*
X187903929Y-83112071D01*
X187652537Y-82944096D01*
X187430852Y-82900000D01*
X187430847Y-82900000D01*
X187356000Y-82885112D01*
X187281153Y-82900000D01*
X185519711Y-82900000D01*
X185402280Y-82782569D01*
X185021874Y-82625000D01*
X184610126Y-82625000D01*
X184229720Y-82782569D01*
X183938569Y-83073720D01*
X183781000Y-83454126D01*
X183781000Y-83865874D01*
X183938569Y-84246280D01*
X184229720Y-84537431D01*
X184610126Y-84695000D01*
X185021874Y-84695000D01*
X185402280Y-84537431D01*
X185519711Y-84420000D01*
X187041199Y-84420000D01*
X188374001Y-85752803D01*
X188374001Y-87576973D01*
X188069874Y-87451000D01*
X187658126Y-87451000D01*
X187277720Y-87608569D01*
X187160289Y-87726000D01*
X179460000Y-87726000D01*
X179460000Y-84774846D01*
X179474888Y-84699999D01*
X179460000Y-84625152D01*
X179460000Y-84625148D01*
X179415904Y-84403463D01*
X179309816Y-84244691D01*
X179290329Y-84215526D01*
X179290327Y-84215524D01*
X179247929Y-84152071D01*
X179184476Y-84109673D01*
X176235000Y-81160199D01*
X176235000Y-80994126D01*
X176077431Y-80613720D01*
X175786280Y-80322569D01*
X175405874Y-80165000D01*
X174994126Y-80165000D01*
X174613720Y-80322569D01*
X174322569Y-80613720D01*
X174165000Y-80994126D01*
X174165000Y-81405874D01*
X174322569Y-81786280D01*
X174613720Y-82077431D01*
X174994126Y-82235000D01*
X175160199Y-82235000D01*
X177940000Y-85014803D01*
X177940001Y-87726000D01*
X174089711Y-87726000D01*
X173972280Y-87608569D01*
X173591874Y-87451000D01*
X173180126Y-87451000D01*
X173130000Y-87471763D01*
X173130000Y-84950847D01*
X173144888Y-84876000D01*
X173130000Y-84801153D01*
X173130000Y-84801148D01*
X173085904Y-84579463D01*
X172917929Y-84328071D01*
X172854473Y-84285671D01*
X171935000Y-83366199D01*
X171935000Y-83200126D01*
X171777431Y-82819720D01*
X171486280Y-82528569D01*
X171105874Y-82371000D01*
X170694126Y-82371000D01*
X170313720Y-82528569D01*
X170022569Y-82819720D01*
X169865000Y-83200126D01*
X169865000Y-83611874D01*
X170022569Y-83992280D01*
X170313720Y-84283431D01*
X170694126Y-84441000D01*
X170860199Y-84441000D01*
X171610001Y-85190803D01*
X171610000Y-91205153D01*
X171595112Y-91280000D01*
X171610000Y-91354847D01*
X171610000Y-91354851D01*
X171654096Y-91576536D01*
X171822071Y-91827929D01*
X171885530Y-91870331D01*
X177177000Y-97161802D01*
X177177000Y-97327874D01*
X177334569Y-97708280D01*
X177625720Y-97999431D01*
X178006126Y-98157000D01*
X178417874Y-98157000D01*
X178722000Y-98031027D01*
X178722000Y-98331197D01*
X177643199Y-99410000D01*
X177391711Y-99410000D01*
X177274280Y-99292569D01*
X176893874Y-99135000D01*
X176482126Y-99135000D01*
X176101720Y-99292569D01*
X175984289Y-99410000D01*
X171352000Y-99410000D01*
X171352000Y-98466848D01*
X171366888Y-98392000D01*
X171352000Y-98317152D01*
X171352000Y-98317148D01*
X171307904Y-98095463D01*
X171139929Y-97844071D01*
X171076473Y-97801671D01*
X164769000Y-91494199D01*
X164769000Y-91328126D01*
X164611431Y-90947720D01*
X164320280Y-90656569D01*
X163939874Y-90499000D01*
X163528126Y-90499000D01*
X163147720Y-90656569D01*
X162856569Y-90947720D01*
X162699000Y-91328126D01*
X162699000Y-91739874D01*
X162856569Y-92120280D01*
X163147720Y-92411431D01*
X163528126Y-92569000D01*
X163694199Y-92569000D01*
X169832000Y-98706802D01*
X169832001Y-99855196D01*
X165593430Y-104093768D01*
X165477431Y-103813720D01*
X165186280Y-103522569D01*
X164805874Y-103365000D01*
X164639802Y-103365000D01*
X161565330Y-100290529D01*
X161522928Y-100227070D01*
X161271536Y-100059095D01*
X161049851Y-100014999D01*
X161049846Y-100014999D01*
X160974999Y-100000111D01*
X160900152Y-100014999D01*
X148799849Y-100014999D01*
X148725001Y-100000111D01*
X148650153Y-100014999D01*
X148650149Y-100014999D01*
X148476606Y-100049519D01*
X148428463Y-100059095D01*
X148326144Y-100127463D01*
X148177072Y-100227070D01*
X148134672Y-100290526D01*
X145590527Y-102834672D01*
X145527071Y-102877072D01*
X145484671Y-102940528D01*
X145484670Y-102940529D01*
X145359096Y-103128464D01*
X145300111Y-103425001D01*
X141627000Y-103425001D01*
X141627000Y-91812119D01*
X150793000Y-91812119D01*
X150793000Y-92367881D01*
X151005680Y-92881337D01*
X151398663Y-93274320D01*
X151912119Y-93487000D01*
X152467881Y-93487000D01*
X152981337Y-93274320D01*
X153374320Y-92881337D01*
X153587000Y-92367881D01*
X153587000Y-91812119D01*
X153374320Y-91298663D01*
X152981337Y-90905680D01*
X152838637Y-90846572D01*
X152921143Y-90812397D01*
X152990608Y-90570213D01*
X152190000Y-89769605D01*
X151389392Y-90570213D01*
X151458857Y-90812397D01*
X151547510Y-90844025D01*
X151398663Y-90905680D01*
X151005680Y-91298663D01*
X150793000Y-91812119D01*
X141627000Y-91812119D01*
X141627000Y-89382302D01*
X150780856Y-89382302D01*
X150808638Y-89937368D01*
X150967603Y-90321143D01*
X151209787Y-90390608D01*
X152010395Y-89590000D01*
X151209787Y-88789392D01*
X150967603Y-88858857D01*
X150780856Y-89382302D01*
X141627000Y-89382302D01*
X141627000Y-88609787D01*
X151389392Y-88609787D01*
X152190000Y-89410395D01*
X152204143Y-89396253D01*
X152383748Y-89575858D01*
X152369605Y-89590000D01*
X153170213Y-90390608D01*
X153412397Y-90321143D01*
X153599144Y-89797698D01*
X153571362Y-89242632D01*
X153472335Y-89003560D01*
X153495126Y-89013000D01*
X153906874Y-89013000D01*
X154287280Y-88855431D01*
X154578431Y-88564280D01*
X154736000Y-88183874D01*
X154736000Y-87772126D01*
X154578431Y-87391720D01*
X154287280Y-87100569D01*
X153906874Y-86943000D01*
X153495126Y-86943000D01*
X153114720Y-87100569D01*
X152823569Y-87391720D01*
X152666000Y-87772126D01*
X152666000Y-88183874D01*
X152711057Y-88292652D01*
X152397698Y-88180856D01*
X151842632Y-88208638D01*
X151458857Y-88367603D01*
X151389392Y-88609787D01*
X141627000Y-88609787D01*
X141627000Y-81812119D01*
X150793000Y-81812119D01*
X150793000Y-82367881D01*
X151005680Y-82881337D01*
X151398663Y-83274320D01*
X151557229Y-83340000D01*
X151398663Y-83405680D01*
X151005680Y-83798663D01*
X150793000Y-84312119D01*
X150793000Y-84867881D01*
X151005680Y-85381337D01*
X151398663Y-85774320D01*
X151912119Y-85987000D01*
X152467881Y-85987000D01*
X152981337Y-85774320D01*
X153161531Y-85594126D01*
X160665000Y-85594126D01*
X160665000Y-86005874D01*
X160822569Y-86386280D01*
X160942001Y-86505712D01*
X160942000Y-89052289D01*
X160824569Y-89169720D01*
X160667000Y-89550126D01*
X160667000Y-89961874D01*
X160824569Y-90342280D01*
X161115720Y-90633431D01*
X161496126Y-90791000D01*
X161907874Y-90791000D01*
X162288280Y-90633431D01*
X162579431Y-90342280D01*
X162737000Y-89961874D01*
X162737000Y-89550126D01*
X162579431Y-89169720D01*
X162462000Y-89052289D01*
X162462000Y-86501711D01*
X162577431Y-86386280D01*
X162735000Y-86005874D01*
X162735000Y-85594126D01*
X162577431Y-85213720D01*
X162286280Y-84922569D01*
X161905874Y-84765000D01*
X161494126Y-84765000D01*
X161113720Y-84922569D01*
X160822569Y-85213720D01*
X160665000Y-85594126D01*
X153161531Y-85594126D01*
X153374320Y-85381337D01*
X153587000Y-84867881D01*
X153587000Y-84444578D01*
X159883409Y-78148170D01*
X182469993Y-78148170D01*
X182832126Y-78298170D01*
X183243874Y-78298170D01*
X183624280Y-78140601D01*
X183915431Y-77849450D01*
X184073000Y-77469044D01*
X184073000Y-77057296D01*
X183915431Y-76676890D01*
X183624280Y-76385739D01*
X183243874Y-76228170D01*
X182832126Y-76228170D01*
X182469993Y-76378170D01*
X173505054Y-76378170D01*
X173535000Y-76305874D01*
X173535000Y-75894126D01*
X173377431Y-75513720D01*
X173086280Y-75222569D01*
X172705874Y-75065000D01*
X172294126Y-75065000D01*
X171931993Y-75215000D01*
X162768007Y-75215000D01*
X162405874Y-75065000D01*
X161994126Y-75065000D01*
X161631993Y-75215000D01*
X158267159Y-75215000D01*
X158179999Y-75197663D01*
X158092839Y-75215000D01*
X158092835Y-75215000D01*
X157834690Y-75266348D01*
X157834688Y-75266349D01*
X157834689Y-75266349D01*
X157615845Y-75412576D01*
X157615844Y-75412577D01*
X157541951Y-75461951D01*
X157492577Y-75535844D01*
X152335422Y-80693000D01*
X151912119Y-80693000D01*
X151398663Y-80905680D01*
X151005680Y-81298663D01*
X150793000Y-81812119D01*
X141627000Y-81812119D01*
X141627000Y-81044549D01*
X143434903Y-78784670D01*
X148155000Y-78784670D01*
X148155000Y-79395330D01*
X148388690Y-79959507D01*
X148820493Y-80391310D01*
X149384670Y-80625000D01*
X149995330Y-80625000D01*
X150559507Y-80391310D01*
X150991310Y-79959507D01*
X151225000Y-79395330D01*
X151225000Y-78784670D01*
X150991310Y-78220493D01*
X150559507Y-77788690D01*
X149995330Y-77555000D01*
X149384670Y-77555000D01*
X148820493Y-77788690D01*
X148388690Y-78220493D01*
X148155000Y-78784670D01*
X143434903Y-78784670D01*
X148827472Y-72043958D01*
X165735647Y-72043958D01*
X165815920Y-72295259D01*
X166371279Y-72496718D01*
X166961458Y-72470315D01*
X167384080Y-72295259D01*
X167464353Y-72043958D01*
X166600000Y-71179605D01*
X165735647Y-72043958D01*
X148827472Y-72043958D01*
X149599170Y-71079336D01*
X149621982Y-71035346D01*
X149627000Y-71000000D01*
X149627000Y-70771279D01*
X165103282Y-70771279D01*
X165129685Y-71361458D01*
X165304741Y-71784080D01*
X165556042Y-71864353D01*
X166420395Y-71000000D01*
X165556042Y-70135647D01*
X165304741Y-70215920D01*
X165103282Y-70771279D01*
X149627000Y-70771279D01*
X149627000Y-69623958D01*
X153195647Y-69623958D01*
X153275920Y-69875259D01*
X153831279Y-70076718D01*
X154421458Y-70050315D01*
X154844080Y-69875259D01*
X154924353Y-69623958D01*
X154060000Y-68759605D01*
X153195647Y-69623958D01*
X149627000Y-69623958D01*
X149627000Y-68351279D01*
X152563282Y-68351279D01*
X152589685Y-68941458D01*
X152764741Y-69364080D01*
X153016042Y-69444353D01*
X153880395Y-68580000D01*
X153016042Y-67715647D01*
X152764741Y-67795920D01*
X152563282Y-68351279D01*
X149627000Y-68351279D01*
X149627000Y-67536042D01*
X153195647Y-67536042D01*
X154060000Y-68400395D01*
X154924353Y-67536042D01*
X154844080Y-67284741D01*
X154288721Y-67083282D01*
X153698542Y-67109685D01*
X153275920Y-67284741D01*
X153195647Y-67536042D01*
X149627000Y-67536042D01*
X149627000Y-64543958D01*
X153195647Y-64543958D01*
X153275920Y-64795259D01*
X153831279Y-64996718D01*
X154421458Y-64970315D01*
X154844080Y-64795259D01*
X154924353Y-64543958D01*
X154060000Y-63679605D01*
X153195647Y-64543958D01*
X149627000Y-64543958D01*
X149627000Y-63271279D01*
X152563282Y-63271279D01*
X152589685Y-63861458D01*
X152764741Y-64284080D01*
X153016042Y-64364353D01*
X153880395Y-63500000D01*
X154239605Y-63500000D01*
X155103958Y-64364353D01*
X155321845Y-64294753D01*
X155341078Y-64341185D01*
X155715001Y-64715108D01*
X155715000Y-67364893D01*
X155341078Y-67738815D01*
X155321845Y-67785247D01*
X155103958Y-67715647D01*
X154239605Y-68580000D01*
X155103958Y-69444353D01*
X155321845Y-69374753D01*
X155341078Y-69421185D01*
X155758815Y-69838922D01*
X156304615Y-70065000D01*
X156895385Y-70065000D01*
X157441185Y-69838922D01*
X157815107Y-69465000D01*
X166313422Y-69465000D01*
X166372130Y-69523709D01*
X166238542Y-69529685D01*
X165815920Y-69704741D01*
X165735647Y-69956042D01*
X166600000Y-70820395D01*
X166614143Y-70806253D01*
X166793748Y-70985858D01*
X166779605Y-71000000D01*
X167643958Y-71864353D01*
X167826519Y-71806037D01*
X167841078Y-71841185D01*
X168258815Y-72258922D01*
X168804615Y-72485000D01*
X169333421Y-72485000D01*
X170112577Y-73264156D01*
X170161951Y-73338049D01*
X170235844Y-73387423D01*
X170235845Y-73387424D01*
X170291586Y-73424669D01*
X170454690Y-73533652D01*
X170712835Y-73585000D01*
X170712840Y-73585000D01*
X170799999Y-73602337D01*
X170887159Y-73585000D01*
X190333422Y-73585000D01*
X191215001Y-74466580D01*
X191215000Y-105615000D01*
X185468007Y-105615000D01*
X185105874Y-105465000D01*
X184694126Y-105465000D01*
X184313720Y-105622569D01*
X184022569Y-105913720D01*
X183865000Y-106294126D01*
X183865000Y-106705874D01*
X184022569Y-107086280D01*
X184313720Y-107377431D01*
X184694126Y-107535000D01*
X185105874Y-107535000D01*
X185468007Y-107385000D01*
X191512839Y-107385000D01*
X191600000Y-107402337D01*
X191687161Y-107385000D01*
X191687165Y-107385000D01*
X191945310Y-107333652D01*
X192238049Y-107138049D01*
X192287425Y-107064153D01*
X192664154Y-106687424D01*
X192738049Y-106638049D01*
X192933652Y-106345310D01*
X192985000Y-106087165D01*
X192985000Y-106087161D01*
X193002337Y-106000000D01*
X192985000Y-105912839D01*
X192985000Y-74187161D01*
X193002337Y-74100000D01*
X192985000Y-74012839D01*
X192985000Y-74012835D01*
X192933652Y-73754690D01*
X192787424Y-73535845D01*
X192787423Y-73535844D01*
X192738049Y-73461951D01*
X192664156Y-73412577D01*
X191387425Y-72135847D01*
X191338049Y-72061951D01*
X191045310Y-71866348D01*
X190787165Y-71815000D01*
X190787161Y-71815000D01*
X190700000Y-71797663D01*
X190612839Y-71815000D01*
X171166579Y-71815000D01*
X170585000Y-71233421D01*
X170585000Y-70704615D01*
X170358922Y-70158815D01*
X169941185Y-69741078D01*
X169658433Y-69623958D01*
X184095647Y-69623958D01*
X184175920Y-69875259D01*
X184731279Y-70076718D01*
X185321458Y-70050315D01*
X185744080Y-69875259D01*
X185824353Y-69623958D01*
X184960000Y-68759605D01*
X184095647Y-69623958D01*
X169658433Y-69623958D01*
X169395385Y-69515000D01*
X168866579Y-69515000D01*
X167702858Y-68351279D01*
X183463282Y-68351279D01*
X183489685Y-68941458D01*
X183664741Y-69364080D01*
X183916042Y-69444353D01*
X184780395Y-68580000D01*
X183916042Y-67715647D01*
X183664741Y-67795920D01*
X183463282Y-68351279D01*
X167702858Y-68351279D01*
X167367425Y-68015847D01*
X167318049Y-67941951D01*
X167025310Y-67746348D01*
X166767165Y-67695000D01*
X166767161Y-67695000D01*
X166680000Y-67677663D01*
X166592839Y-67695000D01*
X165224346Y-67695000D01*
X165809966Y-67109380D01*
X166135000Y-66324678D01*
X166135000Y-65475322D01*
X172065000Y-65475322D01*
X172065000Y-66324678D01*
X172390034Y-67109380D01*
X172990620Y-67709966D01*
X173775322Y-68035000D01*
X174624678Y-68035000D01*
X175409380Y-67709966D01*
X175583304Y-67536042D01*
X184095647Y-67536042D01*
X184960000Y-68400395D01*
X185824353Y-67536042D01*
X185744080Y-67284741D01*
X185188721Y-67083282D01*
X184598542Y-67109685D01*
X184175920Y-67284741D01*
X184095647Y-67536042D01*
X175583304Y-67536042D01*
X176009966Y-67109380D01*
X176335000Y-66324678D01*
X176335000Y-65475322D01*
X176009966Y-64690620D01*
X175863304Y-64543958D01*
X184095647Y-64543958D01*
X184175920Y-64795259D01*
X184731279Y-64996718D01*
X185321458Y-64970315D01*
X185744080Y-64795259D01*
X185824353Y-64543958D01*
X184960000Y-63679605D01*
X184095647Y-64543958D01*
X175863304Y-64543958D01*
X175409380Y-64090034D01*
X174624678Y-63765000D01*
X173775322Y-63765000D01*
X172990620Y-64090034D01*
X172390034Y-64690620D01*
X172065000Y-65475322D01*
X166135000Y-65475322D01*
X165809966Y-64690620D01*
X165209380Y-64090034D01*
X164424678Y-63765000D01*
X163575322Y-63765000D01*
X162790620Y-64090034D01*
X162190034Y-64690620D01*
X161865000Y-65475322D01*
X161865000Y-66324678D01*
X162190034Y-67109380D01*
X162775654Y-67695000D01*
X157815107Y-67695000D01*
X157485000Y-67364893D01*
X157485000Y-64715107D01*
X157858922Y-64341185D01*
X158085000Y-63795385D01*
X158085000Y-63271279D01*
X183463282Y-63271279D01*
X183489685Y-63861458D01*
X183664741Y-64284080D01*
X183916042Y-64364353D01*
X184780395Y-63500000D01*
X183916042Y-62635647D01*
X183664741Y-62715920D01*
X183463282Y-63271279D01*
X158085000Y-63271279D01*
X158085000Y-63204615D01*
X157858922Y-62658815D01*
X157656149Y-62456042D01*
X184095647Y-62456042D01*
X184960000Y-63320395D01*
X185824353Y-62456042D01*
X185744080Y-62204741D01*
X185188721Y-62003282D01*
X184598542Y-62029685D01*
X184175920Y-62204741D01*
X184095647Y-62456042D01*
X157656149Y-62456042D01*
X157441185Y-62241078D01*
X156895385Y-62015000D01*
X156304615Y-62015000D01*
X155758815Y-62241078D01*
X155341078Y-62658815D01*
X155321845Y-62705247D01*
X155103958Y-62635647D01*
X154239605Y-63500000D01*
X153880395Y-63500000D01*
X153016042Y-62635647D01*
X152764741Y-62715920D01*
X152563282Y-63271279D01*
X149627000Y-63271279D01*
X149627000Y-62456042D01*
X153195647Y-62456042D01*
X154060000Y-63320395D01*
X154924353Y-62456042D01*
X154844080Y-62204741D01*
X154288721Y-62003282D01*
X153698542Y-62029685D01*
X153275920Y-62204741D01*
X153195647Y-62456042D01*
X149627000Y-62456042D01*
X149627000Y-58710000D01*
X211290001Y-58710000D01*
X211290000Y-136790000D01*
X211290000Y-136790000D01*
G37*
X211290000Y-136790000D02*
X141627000Y-136790000D01*
X141627000Y-126253126D01*
X153682000Y-126253126D01*
X153682000Y-126664874D01*
X153839569Y-127045280D01*
X154130720Y-127336431D01*
X154511126Y-127494000D01*
X154922874Y-127494000D01*
X155303280Y-127336431D01*
X155594431Y-127045280D01*
X155752000Y-126664874D01*
X155752000Y-126253126D01*
X155594431Y-125872720D01*
X155477000Y-125755289D01*
X155477000Y-123852801D01*
X156153802Y-123176000D01*
X156319874Y-123176000D01*
X156700280Y-123018431D01*
X156991431Y-122727280D01*
X157149000Y-122346874D01*
X157149000Y-121935126D01*
X156991431Y-121554720D01*
X156700280Y-121263569D01*
X156319874Y-121106000D01*
X155908126Y-121106000D01*
X155527720Y-121263569D01*
X155236569Y-121554720D01*
X155079000Y-121935126D01*
X155079000Y-122101198D01*
X154232528Y-122947671D01*
X154169072Y-122990071D01*
X154126672Y-123053527D01*
X154126671Y-123053528D01*
X154001097Y-123241463D01*
X153942112Y-123538000D01*
X153957001Y-123612852D01*
X153957000Y-125755289D01*
X153839569Y-125872720D01*
X153682000Y-126253126D01*
X141627000Y-126253126D01*
X141627000Y-103425001D01*
X145300111Y-103425001D01*
X145315000Y-103499853D01*
X145314999Y-115900152D01*
X145300111Y-115974999D01*
X145314999Y-116049846D01*
X145314999Y-116049850D01*
X145359095Y-116271535D01*
X145527070Y-116522928D01*
X145590529Y-116565330D01*
X147965000Y-118939802D01*
X147965000Y-119105874D01*
X148122569Y-119486280D01*
X148413720Y-119777431D01*
X148794126Y-119935000D01*
X149205874Y-119935000D01*
X149586280Y-119777431D01*
X149877431Y-119486280D01*
X150035000Y-119105874D01*
X150035000Y-118694126D01*
X149877431Y-118313720D01*
X149586280Y-118022569D01*
X149205874Y-117865000D01*
X149039802Y-117865000D01*
X146834999Y-115660198D01*
X146834999Y-111035000D01*
X147005874Y-111035000D01*
X147386280Y-110877431D01*
X147671127Y-110592584D01*
X147692071Y-110623929D01*
X147755530Y-110666331D01*
X147967000Y-110877801D01*
X147967000Y-111043874D01*
X148124569Y-111424280D01*
X148415720Y-111715431D01*
X148796126Y-111873000D01*
X149207874Y-111873000D01*
X149588280Y-111715431D01*
X149879431Y-111424280D01*
X150037000Y-111043874D01*
X150037000Y-110632126D01*
X149879431Y-110251720D01*
X149588280Y-109960569D01*
X149207874Y-109803000D01*
X149041801Y-109803000D01*
X149000000Y-109761199D01*
X149000000Y-108735801D01*
X149554671Y-109290473D01*
X149597071Y-109353929D01*
X149848463Y-109521904D01*
X150070148Y-109566000D01*
X150070152Y-109566000D01*
X150144999Y-109580888D01*
X150219846Y-109566000D01*
X155238196Y-109566000D01*
X152473529Y-112330668D01*
X152455073Y-112343000D01*
X152352126Y-112343000D01*
X151971720Y-112500569D01*
X151680569Y-112791720D01*
X151523000Y-113172126D01*
X151523000Y-113583874D01*
X151680569Y-113964280D01*
X151798001Y-114081712D01*
X151798000Y-115335153D01*
X151783112Y-115410000D01*
X151798000Y-115484847D01*
X151798000Y-115484851D01*
X151842096Y-115706536D01*
X152010071Y-115957929D01*
X152073530Y-116000331D01*
X153682000Y-117608802D01*
X153682000Y-117774874D01*
X153839569Y-118155280D01*
X154130720Y-118446431D01*
X154511126Y-118604000D01*
X154922874Y-118604000D01*
X155303280Y-118446431D01*
X155594431Y-118155280D01*
X155752000Y-117774874D01*
X155752000Y-117363126D01*
X155594431Y-116982720D01*
X155303280Y-116691569D01*
X154922874Y-116534000D01*
X154756802Y-116534000D01*
X153318000Y-115095199D01*
X153318000Y-114081711D01*
X153435431Y-113964280D01*
X153593000Y-113583874D01*
X153593000Y-113395617D01*
X153663112Y-113290687D01*
X157297799Y-109656001D01*
X159548861Y-109656001D01*
X159397000Y-110022626D01*
X159397000Y-110188698D01*
X157661528Y-111924171D01*
X157598072Y-111966571D01*
X157555672Y-112030027D01*
X157555671Y-112030028D01*
X157430097Y-112217963D01*
X157371112Y-112514500D01*
X157386001Y-112589352D01*
X157386000Y-120167289D01*
X157268569Y-120284720D01*
X157111000Y-120665126D01*
X157111000Y-121076874D01*
X157268569Y-121457280D01*
X157559720Y-121748431D01*
X157940126Y-121906000D01*
X158240000Y-121906000D01*
X158240001Y-128676290D01*
X157986280Y-128422569D01*
X157605874Y-128265000D01*
X157194126Y-128265000D01*
X156813720Y-128422569D01*
X156522569Y-128713720D01*
X156365000Y-129094126D01*
X156365000Y-129399470D01*
X156325112Y-129600000D01*
X156340001Y-129674852D01*
X156340000Y-130896289D01*
X156222569Y-131013720D01*
X156065000Y-131394126D01*
X156065000Y-131805874D01*
X156222569Y-132186280D01*
X156513720Y-132477431D01*
X156894126Y-132635000D01*
X156990198Y-132635000D01*
X155560199Y-134065000D01*
X155394126Y-134065000D01*
X155013720Y-134222569D01*
X154722569Y-134513720D01*
X154565000Y-134894126D01*
X154565000Y-135305874D01*
X154722569Y-135686280D01*
X155013720Y-135977431D01*
X155394126Y-136135000D01*
X155805874Y-136135000D01*
X156186280Y-135977431D01*
X156477431Y-135686280D01*
X156635000Y-135305874D01*
X156635000Y-135139801D01*
X159484473Y-132290329D01*
X159547929Y-132247929D01*
X159715904Y-131996537D01*
X159760000Y-131774852D01*
X159760000Y-131774848D01*
X159774888Y-131700001D01*
X159760000Y-131625154D01*
X159760000Y-127394126D01*
X160192339Y-127394126D01*
X160192339Y-127805874D01*
X160349908Y-128186280D01*
X160641059Y-128477431D01*
X161021465Y-128635000D01*
X161433213Y-128635000D01*
X161813619Y-128477431D01*
X162104770Y-128186280D01*
X162262339Y-127805874D01*
X162262339Y-127604653D01*
X163010755Y-126802361D01*
X165019158Y-124793959D01*
X168523555Y-128298357D01*
X168485071Y-128324071D01*
X168442673Y-128387524D01*
X167760198Y-129070000D01*
X167594126Y-129070000D01*
X167213720Y-129227569D01*
X166922569Y-129518720D01*
X166765000Y-129899126D01*
X166765000Y-130310874D01*
X166922569Y-130691280D01*
X167213720Y-130982431D01*
X167594126Y-131140000D01*
X168005874Y-131140000D01*
X168386280Y-130982431D01*
X168677431Y-130691280D01*
X168835000Y-130310874D01*
X168835000Y-130144802D01*
X169347803Y-129632000D01*
X170097152Y-129632000D01*
X170172000Y-129646888D01*
X170246848Y-129632000D01*
X177254289Y-129632000D01*
X177371720Y-129749431D01*
X177752126Y-129907000D01*
X178163874Y-129907000D01*
X178544280Y-129749431D01*
X178835431Y-129458280D01*
X178993000Y-129077874D01*
X178993000Y-128666126D01*
X178990562Y-128660239D01*
X180728473Y-126922329D01*
X180791929Y-126879929D01*
X180959904Y-126628537D01*
X181004000Y-126406852D01*
X181004000Y-126406848D01*
X181018888Y-126332001D01*
X181004000Y-126257154D01*
X181004000Y-120177711D01*
X181121431Y-120060280D01*
X181279000Y-119679874D01*
X181279000Y-119268126D01*
X181121431Y-118887720D01*
X180830280Y-118596569D01*
X180449874Y-118439000D01*
X180038126Y-118439000D01*
X179657720Y-118596569D01*
X179366569Y-118887720D01*
X179209000Y-119268126D01*
X179209000Y-119679874D01*
X179366569Y-120060280D01*
X179484000Y-120177711D01*
X179484001Y-126017197D01*
X177602025Y-127899174D01*
X177371720Y-127994569D01*
X177254289Y-128112000D01*
X170486802Y-128112000D01*
X165764000Y-123389199D01*
X165764000Y-120431711D01*
X165881431Y-120314280D01*
X166039000Y-119933874D01*
X166039000Y-119522126D01*
X165881431Y-119141720D01*
X165590280Y-118850569D01*
X165209874Y-118693000D01*
X164798126Y-118693000D01*
X164417720Y-118850569D01*
X164126569Y-119141720D01*
X163969000Y-119522126D01*
X163969000Y-119933874D01*
X164126569Y-120314280D01*
X164244000Y-120431711D01*
X164244001Y-122701148D01*
X164244000Y-123419512D01*
X161970124Y-125693390D01*
X161959321Y-125701164D01*
X161917245Y-125746269D01*
X161873671Y-125789843D01*
X161866284Y-125800899D01*
X161153495Y-126565000D01*
X161021465Y-126565000D01*
X160641059Y-126722569D01*
X160349908Y-127013720D01*
X160192339Y-127394126D01*
X159760000Y-127394126D01*
X159760000Y-120403711D01*
X159877431Y-120286280D01*
X160035000Y-119905874D01*
X160035000Y-119494126D01*
X159877431Y-119113720D01*
X159586280Y-118822569D01*
X159205874Y-118665000D01*
X158906000Y-118665000D01*
X158906000Y-112829301D01*
X160471802Y-111263500D01*
X160637874Y-111263500D01*
X161018280Y-111105931D01*
X161135711Y-110988500D01*
X163893789Y-110988500D01*
X164011220Y-111105931D01*
X164302582Y-111226617D01*
X161662199Y-113867000D01*
X161496126Y-113867000D01*
X161319405Y-113940200D01*
X161467000Y-113583874D01*
X161467000Y-113172126D01*
X161309431Y-112791720D01*
X161018280Y-112500569D01*
X160637874Y-112343000D01*
X160226126Y-112343000D01*
X159845720Y-112500569D01*
X159554569Y-112791720D01*
X159397000Y-113172126D01*
X159397000Y-113583874D01*
X159554569Y-113964280D01*
X159672001Y-114081712D01*
X159672001Y-114630151D01*
X159657112Y-114705002D01*
X159716097Y-115001539D01*
X159810693Y-115143111D01*
X159884072Y-115252931D01*
X159947528Y-115295331D01*
X161816668Y-117164472D01*
X161859069Y-117227929D01*
X162110461Y-117395904D01*
X162332146Y-117440000D01*
X162332151Y-117440000D01*
X162406998Y-117454888D01*
X162481845Y-117440000D01*
X168866153Y-117440000D01*
X168941000Y-117454888D01*
X169015847Y-117440000D01*
X169015852Y-117440000D01*
X169237537Y-117395904D01*
X169488929Y-117227929D01*
X169531331Y-117164470D01*
X170377802Y-116318000D01*
X170543874Y-116318000D01*
X170844255Y-116193578D01*
X170847931Y-120161500D01*
X170833112Y-120236000D01*
X170848070Y-120311197D01*
X170848070Y-120311556D01*
X170862768Y-120385088D01*
X170892097Y-120532537D01*
X170892300Y-120532841D01*
X170892372Y-120533200D01*
X170976308Y-120658567D01*
X171017671Y-120720472D01*
X171017922Y-120720723D01*
X171060579Y-120784436D01*
X171123780Y-120826581D01*
X176415000Y-126117802D01*
X176415000Y-126283874D01*
X176572569Y-126664280D01*
X176863720Y-126955431D01*
X177244126Y-127113000D01*
X177655874Y-127113000D01*
X178036280Y-126955431D01*
X178327431Y-126664280D01*
X178485000Y-126283874D01*
X178485000Y-125872126D01*
X178327431Y-125491720D01*
X178036280Y-125200569D01*
X177655874Y-125043000D01*
X177489802Y-125043000D01*
X172367708Y-119920907D01*
X172360651Y-112303060D01*
X172477431Y-112186280D01*
X172635000Y-111805874D01*
X172635000Y-111394126D01*
X172477431Y-111013720D01*
X172186280Y-110722569D01*
X171846916Y-110582000D01*
X174341199Y-110582000D01*
X176436000Y-112676803D01*
X176436001Y-115214288D01*
X176318569Y-115331720D01*
X176161000Y-115712126D01*
X176161000Y-116123874D01*
X176318569Y-116504280D01*
X176388288Y-116573999D01*
X175373159Y-116573999D01*
X175279431Y-116347720D01*
X174988280Y-116056569D01*
X174607874Y-115899000D01*
X174196126Y-115899000D01*
X173815720Y-116056569D01*
X173524569Y-116347720D01*
X173367000Y-116728126D01*
X173367000Y-117139874D01*
X173524569Y-117520280D01*
X173815720Y-117811431D01*
X174196126Y-117969000D01*
X174384382Y-117969000D01*
X174505462Y-118049903D01*
X174727147Y-118093999D01*
X174727151Y-118093999D01*
X174801998Y-118108887D01*
X174876845Y-118093999D01*
X177883152Y-118093999D01*
X177957999Y-118108887D01*
X178032846Y-118093999D01*
X187358000Y-118093999D01*
X187358001Y-128168288D01*
X187240569Y-128285720D01*
X187083000Y-128666126D01*
X187083000Y-128832198D01*
X183339200Y-132575999D01*
X175878801Y-132575999D01*
X175735000Y-132432198D01*
X175735000Y-132266126D01*
X175577431Y-131885720D01*
X175286280Y-131594569D01*
X174905874Y-131437000D01*
X174494126Y-131437000D01*
X174113720Y-131594569D01*
X173822569Y-131885720D01*
X173665000Y-132266126D01*
X173665000Y-132677874D01*
X173822569Y-133058280D01*
X174113720Y-133349431D01*
X174494126Y-133507000D01*
X174660198Y-133507000D01*
X174973670Y-133820472D01*
X175016070Y-133883928D01*
X175267462Y-134051903D01*
X175489147Y-134095999D01*
X175489151Y-134095999D01*
X175563998Y-134110887D01*
X175638845Y-134095999D01*
X183579154Y-134095999D01*
X183654001Y-134110887D01*
X183728848Y-134095999D01*
X183728853Y-134095999D01*
X183950538Y-134051903D01*
X184201930Y-133883928D01*
X184244332Y-133820469D01*
X187083000Y-130981802D01*
X187083000Y-131363874D01*
X187149672Y-131524835D01*
X186913720Y-131622569D01*
X186622569Y-131913720D01*
X186465000Y-132294126D01*
X186465000Y-132705874D01*
X186622569Y-133086280D01*
X186913720Y-133377431D01*
X187294126Y-133535000D01*
X187705874Y-133535000D01*
X188068007Y-133385000D01*
X193913539Y-133385000D01*
X194001412Y-133402336D01*
X194172822Y-133367962D01*
X194345310Y-133333652D01*
X194345910Y-133333251D01*
X194346614Y-133333110D01*
X194491835Y-133235747D01*
X194638049Y-133138049D01*
X194638450Y-133137448D01*
X194639046Y-133137049D01*
X194735907Y-132991594D01*
X194833652Y-132845310D01*
X194833793Y-132844602D01*
X194834191Y-132844004D01*
X194868073Y-132672261D01*
X194902338Y-132500000D01*
X194891603Y-132446029D01*
X204715000Y-132446029D01*
X204715000Y-133553971D01*
X205138991Y-134577576D01*
X205922424Y-135361009D01*
X206946029Y-135785000D01*
X208053971Y-135785000D01*
X209077576Y-135361009D01*
X209861009Y-134577576D01*
X210285000Y-133553971D01*
X210285000Y-132446029D01*
X209861009Y-131422424D01*
X209077576Y-130638991D01*
X208053971Y-130215000D01*
X206946029Y-130215000D01*
X205922424Y-130638991D01*
X205138991Y-131422424D01*
X204715000Y-132446029D01*
X194891603Y-132446029D01*
X194884863Y-132412148D01*
X194805105Y-81446029D01*
X204715000Y-81446029D01*
X204715000Y-82553971D01*
X205138991Y-83577576D01*
X205922424Y-84361009D01*
X206946029Y-84785000D01*
X208053971Y-84785000D01*
X209077576Y-84361009D01*
X209861009Y-83577576D01*
X210285000Y-82553971D01*
X210285000Y-81446029D01*
X209861009Y-80422424D01*
X209077576Y-79638991D01*
X208053971Y-79215000D01*
X206946029Y-79215000D01*
X205922424Y-79638991D01*
X205138991Y-80422424D01*
X204715000Y-81446029D01*
X194805105Y-81446029D01*
X194790391Y-72043958D01*
X196735647Y-72043958D01*
X196815920Y-72295259D01*
X197371279Y-72496718D01*
X197961458Y-72470315D01*
X198384080Y-72295259D01*
X198464353Y-72043958D01*
X197600000Y-71179605D01*
X196735647Y-72043958D01*
X194790391Y-72043958D01*
X194788399Y-70771279D01*
X196103282Y-70771279D01*
X196129685Y-71361458D01*
X196304741Y-71784080D01*
X196556042Y-71864353D01*
X197420395Y-71000000D01*
X196556042Y-70135647D01*
X196304741Y-70215920D01*
X196103282Y-70771279D01*
X194788399Y-70771279D01*
X194786386Y-69485000D01*
X197333422Y-69485000D01*
X197372130Y-69523709D01*
X197238542Y-69529685D01*
X196815920Y-69704741D01*
X196735647Y-69956042D01*
X197600000Y-70820395D01*
X197614143Y-70806253D01*
X197793748Y-70985858D01*
X197779605Y-71000000D01*
X198643958Y-71864353D01*
X198826519Y-71806037D01*
X198841078Y-71841185D01*
X199258815Y-72258922D01*
X199804615Y-72485000D01*
X200395385Y-72485000D01*
X200941185Y-72258922D01*
X201358922Y-71841185D01*
X201585000Y-71295385D01*
X201585000Y-70704615D01*
X201358922Y-70158815D01*
X200941185Y-69741078D01*
X200395385Y-69515000D01*
X199866579Y-69515000D01*
X198387425Y-68035847D01*
X198338049Y-67961951D01*
X198045310Y-67766348D01*
X197787165Y-67715000D01*
X197787161Y-67715000D01*
X197700000Y-67697663D01*
X197612839Y-67715000D01*
X196197227Y-67715000D01*
X196209380Y-67709966D01*
X196809966Y-67109380D01*
X197135000Y-66324678D01*
X197135000Y-65475322D01*
X203065000Y-65475322D01*
X203065000Y-66324678D01*
X203390034Y-67109380D01*
X203990620Y-67709966D01*
X204775322Y-68035000D01*
X205624678Y-68035000D01*
X206409380Y-67709966D01*
X207009966Y-67109380D01*
X207335000Y-66324678D01*
X207335000Y-65475322D01*
X207009966Y-64690620D01*
X206409380Y-64090034D01*
X205624678Y-63765000D01*
X204775322Y-63765000D01*
X203990620Y-64090034D01*
X203390034Y-64690620D01*
X203065000Y-65475322D01*
X197135000Y-65475322D01*
X196809966Y-64690620D01*
X196209380Y-64090034D01*
X195424678Y-63765000D01*
X194575322Y-63765000D01*
X193790620Y-64090034D01*
X193190034Y-64690620D01*
X192865000Y-65475322D01*
X192865000Y-66324678D01*
X193190034Y-67109380D01*
X193790620Y-67709966D01*
X193802024Y-67714690D01*
X188718912Y-67698805D01*
X188385000Y-67364893D01*
X188385000Y-64715107D01*
X188758922Y-64341185D01*
X188985000Y-63795385D01*
X188985000Y-63204615D01*
X188758922Y-62658815D01*
X188341185Y-62241078D01*
X187795385Y-62015000D01*
X187204615Y-62015000D01*
X186658815Y-62241078D01*
X186241078Y-62658815D01*
X186221845Y-62705247D01*
X186003958Y-62635647D01*
X185139605Y-63500000D01*
X186003958Y-64364353D01*
X186221845Y-64294753D01*
X186241078Y-64341185D01*
X186615001Y-64715108D01*
X186615000Y-67364893D01*
X186241078Y-67738815D01*
X186221845Y-67785247D01*
X186003958Y-67715647D01*
X185139605Y-68580000D01*
X186003958Y-69444353D01*
X186221845Y-69374753D01*
X186241078Y-69421185D01*
X186658815Y-69838922D01*
X187204615Y-70065000D01*
X187795385Y-70065000D01*
X188341185Y-69838922D01*
X188711318Y-69468789D01*
X193016380Y-69482243D01*
X193113614Y-131615000D01*
X189048980Y-131615000D01*
X189153000Y-131363874D01*
X189153000Y-131197802D01*
X190126476Y-130224327D01*
X190189929Y-130181929D01*
X190232327Y-130118476D01*
X190232329Y-130118474D01*
X190357903Y-129930538D01*
X190357904Y-129930537D01*
X190402000Y-129708852D01*
X190402000Y-129708848D01*
X190416888Y-129634001D01*
X190402000Y-129559154D01*
X190402000Y-115992846D01*
X190416888Y-115917999D01*
X190402000Y-115843152D01*
X190402000Y-115843148D01*
X190357904Y-115621463D01*
X190189929Y-115370071D01*
X190126473Y-115327671D01*
X186359000Y-111560199D01*
X186359000Y-111394126D01*
X186201431Y-111013720D01*
X185910280Y-110722569D01*
X185529874Y-110565000D01*
X185118126Y-110565000D01*
X184737720Y-110722569D01*
X184446569Y-111013720D01*
X184289000Y-111394126D01*
X184289000Y-111805874D01*
X184446569Y-112186280D01*
X184737720Y-112477431D01*
X185118126Y-112635000D01*
X185284199Y-112635000D01*
X188294198Y-115645000D01*
X187912126Y-115645000D01*
X187531720Y-115802569D01*
X187240569Y-116093720D01*
X187083000Y-116474126D01*
X187083000Y-116573999D01*
X178681001Y-116573999D01*
X178681001Y-108335847D01*
X178695889Y-108261000D01*
X178681001Y-108186153D01*
X178681001Y-108186149D01*
X178636905Y-107964464D01*
X178468930Y-107713072D01*
X178405474Y-107670672D01*
X175982801Y-105248000D01*
X183471153Y-105248000D01*
X183546000Y-105262888D01*
X183620847Y-105248000D01*
X183620852Y-105248000D01*
X183842537Y-105203904D01*
X184093929Y-105035929D01*
X184136331Y-104972470D01*
X186940278Y-102168524D01*
X186986569Y-102280280D01*
X187277720Y-102571431D01*
X187658126Y-102729000D01*
X188069874Y-102729000D01*
X188450280Y-102571431D01*
X188741431Y-102280280D01*
X188899000Y-101899874D01*
X188899000Y-101733801D01*
X189618473Y-101014329D01*
X189681929Y-100971929D01*
X189849904Y-100720537D01*
X189894000Y-100498852D01*
X189894000Y-100498848D01*
X189908888Y-100424001D01*
X189894000Y-100349154D01*
X189894000Y-85512848D01*
X189908888Y-85438000D01*
X189894000Y-85363152D01*
X189894000Y-85363148D01*
X189849904Y-85141463D01*
X189849904Y-85141462D01*
X189724329Y-84953527D01*
X189681929Y-84890071D01*
X189618473Y-84847671D01*
X187946331Y-83175530D01*
X187903929Y-83112071D01*
X187652537Y-82944096D01*
X187430852Y-82900000D01*
X187430847Y-82900000D01*
X187356000Y-82885112D01*
X187281153Y-82900000D01*
X185519711Y-82900000D01*
X185402280Y-82782569D01*
X185021874Y-82625000D01*
X184610126Y-82625000D01*
X184229720Y-82782569D01*
X183938569Y-83073720D01*
X183781000Y-83454126D01*
X183781000Y-83865874D01*
X183938569Y-84246280D01*
X184229720Y-84537431D01*
X184610126Y-84695000D01*
X185021874Y-84695000D01*
X185402280Y-84537431D01*
X185519711Y-84420000D01*
X187041199Y-84420000D01*
X188374001Y-85752803D01*
X188374001Y-87576973D01*
X188069874Y-87451000D01*
X187658126Y-87451000D01*
X187277720Y-87608569D01*
X187160289Y-87726000D01*
X179460000Y-87726000D01*
X179460000Y-84774846D01*
X179474888Y-84699999D01*
X179460000Y-84625152D01*
X179460000Y-84625148D01*
X179415904Y-84403463D01*
X179309816Y-84244691D01*
X179290329Y-84215526D01*
X179290327Y-84215524D01*
X179247929Y-84152071D01*
X179184476Y-84109673D01*
X176235000Y-81160199D01*
X176235000Y-80994126D01*
X176077431Y-80613720D01*
X175786280Y-80322569D01*
X175405874Y-80165000D01*
X174994126Y-80165000D01*
X174613720Y-80322569D01*
X174322569Y-80613720D01*
X174165000Y-80994126D01*
X174165000Y-81405874D01*
X174322569Y-81786280D01*
X174613720Y-82077431D01*
X174994126Y-82235000D01*
X175160199Y-82235000D01*
X177940000Y-85014803D01*
X177940001Y-87726000D01*
X174089711Y-87726000D01*
X173972280Y-87608569D01*
X173591874Y-87451000D01*
X173180126Y-87451000D01*
X173130000Y-87471763D01*
X173130000Y-84950847D01*
X173144888Y-84876000D01*
X173130000Y-84801153D01*
X173130000Y-84801148D01*
X173085904Y-84579463D01*
X172917929Y-84328071D01*
X172854473Y-84285671D01*
X171935000Y-83366199D01*
X171935000Y-83200126D01*
X171777431Y-82819720D01*
X171486280Y-82528569D01*
X171105874Y-82371000D01*
X170694126Y-82371000D01*
X170313720Y-82528569D01*
X170022569Y-82819720D01*
X169865000Y-83200126D01*
X169865000Y-83611874D01*
X170022569Y-83992280D01*
X170313720Y-84283431D01*
X170694126Y-84441000D01*
X170860199Y-84441000D01*
X171610001Y-85190803D01*
X171610000Y-91205153D01*
X171595112Y-91280000D01*
X171610000Y-91354847D01*
X171610000Y-91354851D01*
X171654096Y-91576536D01*
X171822071Y-91827929D01*
X171885530Y-91870331D01*
X177177000Y-97161802D01*
X177177000Y-97327874D01*
X177334569Y-97708280D01*
X177625720Y-97999431D01*
X178006126Y-98157000D01*
X178417874Y-98157000D01*
X178722000Y-98031027D01*
X178722000Y-98331197D01*
X177643199Y-99410000D01*
X177391711Y-99410000D01*
X177274280Y-99292569D01*
X176893874Y-99135000D01*
X176482126Y-99135000D01*
X176101720Y-99292569D01*
X175984289Y-99410000D01*
X171352000Y-99410000D01*
X171352000Y-98466848D01*
X171366888Y-98392000D01*
X171352000Y-98317152D01*
X171352000Y-98317148D01*
X171307904Y-98095463D01*
X171139929Y-97844071D01*
X171076473Y-97801671D01*
X164769000Y-91494199D01*
X164769000Y-91328126D01*
X164611431Y-90947720D01*
X164320280Y-90656569D01*
X163939874Y-90499000D01*
X163528126Y-90499000D01*
X163147720Y-90656569D01*
X162856569Y-90947720D01*
X162699000Y-91328126D01*
X162699000Y-91739874D01*
X162856569Y-92120280D01*
X163147720Y-92411431D01*
X163528126Y-92569000D01*
X163694199Y-92569000D01*
X169832000Y-98706802D01*
X169832001Y-99855196D01*
X165593430Y-104093768D01*
X165477431Y-103813720D01*
X165186280Y-103522569D01*
X164805874Y-103365000D01*
X164639802Y-103365000D01*
X161565330Y-100290529D01*
X161522928Y-100227070D01*
X161271536Y-100059095D01*
X161049851Y-100014999D01*
X161049846Y-100014999D01*
X160974999Y-100000111D01*
X160900152Y-100014999D01*
X148799849Y-100014999D01*
X148725001Y-100000111D01*
X148650153Y-100014999D01*
X148650149Y-100014999D01*
X148476606Y-100049519D01*
X148428463Y-100059095D01*
X148326144Y-100127463D01*
X148177072Y-100227070D01*
X148134672Y-100290526D01*
X145590527Y-102834672D01*
X145527071Y-102877072D01*
X145484671Y-102940528D01*
X145484670Y-102940529D01*
X145359096Y-103128464D01*
X145300111Y-103425001D01*
X141627000Y-103425001D01*
X141627000Y-91812119D01*
X150793000Y-91812119D01*
X150793000Y-92367881D01*
X151005680Y-92881337D01*
X151398663Y-93274320D01*
X151912119Y-93487000D01*
X152467881Y-93487000D01*
X152981337Y-93274320D01*
X153374320Y-92881337D01*
X153587000Y-92367881D01*
X153587000Y-91812119D01*
X153374320Y-91298663D01*
X152981337Y-90905680D01*
X152838637Y-90846572D01*
X152921143Y-90812397D01*
X152990608Y-90570213D01*
X152190000Y-89769605D01*
X151389392Y-90570213D01*
X151458857Y-90812397D01*
X151547510Y-90844025D01*
X151398663Y-90905680D01*
X151005680Y-91298663D01*
X150793000Y-91812119D01*
X141627000Y-91812119D01*
X141627000Y-89382302D01*
X150780856Y-89382302D01*
X150808638Y-89937368D01*
X150967603Y-90321143D01*
X151209787Y-90390608D01*
X152010395Y-89590000D01*
X151209787Y-88789392D01*
X150967603Y-88858857D01*
X150780856Y-89382302D01*
X141627000Y-89382302D01*
X141627000Y-88609787D01*
X151389392Y-88609787D01*
X152190000Y-89410395D01*
X152204143Y-89396253D01*
X152383748Y-89575858D01*
X152369605Y-89590000D01*
X153170213Y-90390608D01*
X153412397Y-90321143D01*
X153599144Y-89797698D01*
X153571362Y-89242632D01*
X153472335Y-89003560D01*
X153495126Y-89013000D01*
X153906874Y-89013000D01*
X154287280Y-88855431D01*
X154578431Y-88564280D01*
X154736000Y-88183874D01*
X154736000Y-87772126D01*
X154578431Y-87391720D01*
X154287280Y-87100569D01*
X153906874Y-86943000D01*
X153495126Y-86943000D01*
X153114720Y-87100569D01*
X152823569Y-87391720D01*
X152666000Y-87772126D01*
X152666000Y-88183874D01*
X152711057Y-88292652D01*
X152397698Y-88180856D01*
X151842632Y-88208638D01*
X151458857Y-88367603D01*
X151389392Y-88609787D01*
X141627000Y-88609787D01*
X141627000Y-81812119D01*
X150793000Y-81812119D01*
X150793000Y-82367881D01*
X151005680Y-82881337D01*
X151398663Y-83274320D01*
X151557229Y-83340000D01*
X151398663Y-83405680D01*
X151005680Y-83798663D01*
X150793000Y-84312119D01*
X150793000Y-84867881D01*
X151005680Y-85381337D01*
X151398663Y-85774320D01*
X151912119Y-85987000D01*
X152467881Y-85987000D01*
X152981337Y-85774320D01*
X153161531Y-85594126D01*
X160665000Y-85594126D01*
X160665000Y-86005874D01*
X160822569Y-86386280D01*
X160942001Y-86505712D01*
X160942000Y-89052289D01*
X160824569Y-89169720D01*
X160667000Y-89550126D01*
X160667000Y-89961874D01*
X160824569Y-90342280D01*
X161115720Y-90633431D01*
X161496126Y-90791000D01*
X161907874Y-90791000D01*
X162288280Y-90633431D01*
X162579431Y-90342280D01*
X162737000Y-89961874D01*
X162737000Y-89550126D01*
X162579431Y-89169720D01*
X162462000Y-89052289D01*
X162462000Y-86501711D01*
X162577431Y-86386280D01*
X162735000Y-86005874D01*
X162735000Y-85594126D01*
X162577431Y-85213720D01*
X162286280Y-84922569D01*
X161905874Y-84765000D01*
X161494126Y-84765000D01*
X161113720Y-84922569D01*
X160822569Y-85213720D01*
X160665000Y-85594126D01*
X153161531Y-85594126D01*
X153374320Y-85381337D01*
X153587000Y-84867881D01*
X153587000Y-84444578D01*
X159883409Y-78148170D01*
X182469993Y-78148170D01*
X182832126Y-78298170D01*
X183243874Y-78298170D01*
X183624280Y-78140601D01*
X183915431Y-77849450D01*
X184073000Y-77469044D01*
X184073000Y-77057296D01*
X183915431Y-76676890D01*
X183624280Y-76385739D01*
X183243874Y-76228170D01*
X182832126Y-76228170D01*
X182469993Y-76378170D01*
X173505054Y-76378170D01*
X173535000Y-76305874D01*
X173535000Y-75894126D01*
X173377431Y-75513720D01*
X173086280Y-75222569D01*
X172705874Y-75065000D01*
X172294126Y-75065000D01*
X171931993Y-75215000D01*
X162768007Y-75215000D01*
X162405874Y-75065000D01*
X161994126Y-75065000D01*
X161631993Y-75215000D01*
X158267159Y-75215000D01*
X158179999Y-75197663D01*
X158092839Y-75215000D01*
X158092835Y-75215000D01*
X157834690Y-75266348D01*
X157834688Y-75266349D01*
X157834689Y-75266349D01*
X157615845Y-75412576D01*
X157615844Y-75412577D01*
X157541951Y-75461951D01*
X157492577Y-75535844D01*
X152335422Y-80693000D01*
X151912119Y-80693000D01*
X151398663Y-80905680D01*
X151005680Y-81298663D01*
X150793000Y-81812119D01*
X141627000Y-81812119D01*
X141627000Y-81044549D01*
X143434903Y-78784670D01*
X148155000Y-78784670D01*
X148155000Y-79395330D01*
X148388690Y-79959507D01*
X148820493Y-80391310D01*
X149384670Y-80625000D01*
X149995330Y-80625000D01*
X150559507Y-80391310D01*
X150991310Y-79959507D01*
X151225000Y-79395330D01*
X151225000Y-78784670D01*
X150991310Y-78220493D01*
X150559507Y-77788690D01*
X149995330Y-77555000D01*
X149384670Y-77555000D01*
X148820493Y-77788690D01*
X148388690Y-78220493D01*
X148155000Y-78784670D01*
X143434903Y-78784670D01*
X148827472Y-72043958D01*
X165735647Y-72043958D01*
X165815920Y-72295259D01*
X166371279Y-72496718D01*
X166961458Y-72470315D01*
X167384080Y-72295259D01*
X167464353Y-72043958D01*
X166600000Y-71179605D01*
X165735647Y-72043958D01*
X148827472Y-72043958D01*
X149599170Y-71079336D01*
X149621982Y-71035346D01*
X149627000Y-71000000D01*
X149627000Y-70771279D01*
X165103282Y-70771279D01*
X165129685Y-71361458D01*
X165304741Y-71784080D01*
X165556042Y-71864353D01*
X166420395Y-71000000D01*
X165556042Y-70135647D01*
X165304741Y-70215920D01*
X165103282Y-70771279D01*
X149627000Y-70771279D01*
X149627000Y-69623958D01*
X153195647Y-69623958D01*
X153275920Y-69875259D01*
X153831279Y-70076718D01*
X154421458Y-70050315D01*
X154844080Y-69875259D01*
X154924353Y-69623958D01*
X154060000Y-68759605D01*
X153195647Y-69623958D01*
X149627000Y-69623958D01*
X149627000Y-68351279D01*
X152563282Y-68351279D01*
X152589685Y-68941458D01*
X152764741Y-69364080D01*
X153016042Y-69444353D01*
X153880395Y-68580000D01*
X153016042Y-67715647D01*
X152764741Y-67795920D01*
X152563282Y-68351279D01*
X149627000Y-68351279D01*
X149627000Y-67536042D01*
X153195647Y-67536042D01*
X154060000Y-68400395D01*
X154924353Y-67536042D01*
X154844080Y-67284741D01*
X154288721Y-67083282D01*
X153698542Y-67109685D01*
X153275920Y-67284741D01*
X153195647Y-67536042D01*
X149627000Y-67536042D01*
X149627000Y-64543958D01*
X153195647Y-64543958D01*
X153275920Y-64795259D01*
X153831279Y-64996718D01*
X154421458Y-64970315D01*
X154844080Y-64795259D01*
X154924353Y-64543958D01*
X154060000Y-63679605D01*
X153195647Y-64543958D01*
X149627000Y-64543958D01*
X149627000Y-63271279D01*
X152563282Y-63271279D01*
X152589685Y-63861458D01*
X152764741Y-64284080D01*
X153016042Y-64364353D01*
X153880395Y-63500000D01*
X154239605Y-63500000D01*
X155103958Y-64364353D01*
X155321845Y-64294753D01*
X155341078Y-64341185D01*
X155715001Y-64715108D01*
X155715000Y-67364893D01*
X155341078Y-67738815D01*
X155321845Y-67785247D01*
X155103958Y-67715647D01*
X154239605Y-68580000D01*
X155103958Y-69444353D01*
X155321845Y-69374753D01*
X155341078Y-69421185D01*
X155758815Y-69838922D01*
X156304615Y-70065000D01*
X156895385Y-70065000D01*
X157441185Y-69838922D01*
X157815107Y-69465000D01*
X166313422Y-69465000D01*
X166372130Y-69523709D01*
X166238542Y-69529685D01*
X165815920Y-69704741D01*
X165735647Y-69956042D01*
X166600000Y-70820395D01*
X166614143Y-70806253D01*
X166793748Y-70985858D01*
X166779605Y-71000000D01*
X167643958Y-71864353D01*
X167826519Y-71806037D01*
X167841078Y-71841185D01*
X168258815Y-72258922D01*
X168804615Y-72485000D01*
X169333421Y-72485000D01*
X170112577Y-73264156D01*
X170161951Y-73338049D01*
X170235844Y-73387423D01*
X170235845Y-73387424D01*
X170291586Y-73424669D01*
X170454690Y-73533652D01*
X170712835Y-73585000D01*
X170712840Y-73585000D01*
X170799999Y-73602337D01*
X170887159Y-73585000D01*
X190333422Y-73585000D01*
X191215001Y-74466580D01*
X191215000Y-105615000D01*
X185468007Y-105615000D01*
X185105874Y-105465000D01*
X184694126Y-105465000D01*
X184313720Y-105622569D01*
X184022569Y-105913720D01*
X183865000Y-106294126D01*
X183865000Y-106705874D01*
X184022569Y-107086280D01*
X184313720Y-107377431D01*
X184694126Y-107535000D01*
X185105874Y-107535000D01*
X185468007Y-107385000D01*
X191512839Y-107385000D01*
X191600000Y-107402337D01*
X191687161Y-107385000D01*
X191687165Y-107385000D01*
X191945310Y-107333652D01*
X192238049Y-107138049D01*
X192287425Y-107064153D01*
X192664154Y-106687424D01*
X192738049Y-106638049D01*
X192933652Y-106345310D01*
X192985000Y-106087165D01*
X192985000Y-106087161D01*
X193002337Y-106000000D01*
X192985000Y-105912839D01*
X192985000Y-74187161D01*
X193002337Y-74100000D01*
X192985000Y-74012839D01*
X192985000Y-74012835D01*
X192933652Y-73754690D01*
X192787424Y-73535845D01*
X192787423Y-73535844D01*
X192738049Y-73461951D01*
X192664156Y-73412577D01*
X191387425Y-72135847D01*
X191338049Y-72061951D01*
X191045310Y-71866348D01*
X190787165Y-71815000D01*
X190787161Y-71815000D01*
X190700000Y-71797663D01*
X190612839Y-71815000D01*
X171166579Y-71815000D01*
X170585000Y-71233421D01*
X170585000Y-70704615D01*
X170358922Y-70158815D01*
X169941185Y-69741078D01*
X169658433Y-69623958D01*
X184095647Y-69623958D01*
X184175920Y-69875259D01*
X184731279Y-70076718D01*
X185321458Y-70050315D01*
X185744080Y-69875259D01*
X185824353Y-69623958D01*
X184960000Y-68759605D01*
X184095647Y-69623958D01*
X169658433Y-69623958D01*
X169395385Y-69515000D01*
X168866579Y-69515000D01*
X167702858Y-68351279D01*
X183463282Y-68351279D01*
X183489685Y-68941458D01*
X183664741Y-69364080D01*
X183916042Y-69444353D01*
X184780395Y-68580000D01*
X183916042Y-67715647D01*
X183664741Y-67795920D01*
X183463282Y-68351279D01*
X167702858Y-68351279D01*
X167367425Y-68015847D01*
X167318049Y-67941951D01*
X167025310Y-67746348D01*
X166767165Y-67695000D01*
X166767161Y-67695000D01*
X166680000Y-67677663D01*
X166592839Y-67695000D01*
X165224346Y-67695000D01*
X165809966Y-67109380D01*
X166135000Y-66324678D01*
X166135000Y-65475322D01*
X172065000Y-65475322D01*
X172065000Y-66324678D01*
X172390034Y-67109380D01*
X172990620Y-67709966D01*
X173775322Y-68035000D01*
X174624678Y-68035000D01*
X175409380Y-67709966D01*
X175583304Y-67536042D01*
X184095647Y-67536042D01*
X184960000Y-68400395D01*
X185824353Y-67536042D01*
X185744080Y-67284741D01*
X185188721Y-67083282D01*
X184598542Y-67109685D01*
X184175920Y-67284741D01*
X184095647Y-67536042D01*
X175583304Y-67536042D01*
X176009966Y-67109380D01*
X176335000Y-66324678D01*
X176335000Y-65475322D01*
X176009966Y-64690620D01*
X175863304Y-64543958D01*
X184095647Y-64543958D01*
X184175920Y-64795259D01*
X184731279Y-64996718D01*
X185321458Y-64970315D01*
X185744080Y-64795259D01*
X185824353Y-64543958D01*
X184960000Y-63679605D01*
X184095647Y-64543958D01*
X175863304Y-64543958D01*
X175409380Y-64090034D01*
X174624678Y-63765000D01*
X173775322Y-63765000D01*
X172990620Y-64090034D01*
X172390034Y-64690620D01*
X172065000Y-65475322D01*
X166135000Y-65475322D01*
X165809966Y-64690620D01*
X165209380Y-64090034D01*
X164424678Y-63765000D01*
X163575322Y-63765000D01*
X162790620Y-64090034D01*
X162190034Y-64690620D01*
X161865000Y-65475322D01*
X161865000Y-66324678D01*
X162190034Y-67109380D01*
X162775654Y-67695000D01*
X157815107Y-67695000D01*
X157485000Y-67364893D01*
X157485000Y-64715107D01*
X157858922Y-64341185D01*
X158085000Y-63795385D01*
X158085000Y-63271279D01*
X183463282Y-63271279D01*
X183489685Y-63861458D01*
X183664741Y-64284080D01*
X183916042Y-64364353D01*
X184780395Y-63500000D01*
X183916042Y-62635647D01*
X183664741Y-62715920D01*
X183463282Y-63271279D01*
X158085000Y-63271279D01*
X158085000Y-63204615D01*
X157858922Y-62658815D01*
X157656149Y-62456042D01*
X184095647Y-62456042D01*
X184960000Y-63320395D01*
X185824353Y-62456042D01*
X185744080Y-62204741D01*
X185188721Y-62003282D01*
X184598542Y-62029685D01*
X184175920Y-62204741D01*
X184095647Y-62456042D01*
X157656149Y-62456042D01*
X157441185Y-62241078D01*
X156895385Y-62015000D01*
X156304615Y-62015000D01*
X155758815Y-62241078D01*
X155341078Y-62658815D01*
X155321845Y-62705247D01*
X155103958Y-62635647D01*
X154239605Y-63500000D01*
X153880395Y-63500000D01*
X153016042Y-62635647D01*
X152764741Y-62715920D01*
X152563282Y-63271279D01*
X149627000Y-63271279D01*
X149627000Y-62456042D01*
X153195647Y-62456042D01*
X154060000Y-63320395D01*
X154924353Y-62456042D01*
X154844080Y-62204741D01*
X154288721Y-62003282D01*
X153698542Y-62029685D01*
X153275920Y-62204741D01*
X153195647Y-62456042D01*
X149627000Y-62456042D01*
X149627000Y-58710000D01*
X211290001Y-58710000D01*
X211290000Y-136790000D01*
G36*
X171013720Y-110722569D02*
X170722569Y-111013720D01*
X170565000Y-111394126D01*
X170565000Y-111805874D01*
X170722569Y-112186280D01*
X170840652Y-112304363D01*
X170842567Y-114371723D01*
X170543874Y-114248000D01*
X170132126Y-114248000D01*
X169751720Y-114405569D01*
X169460569Y-114696720D01*
X169303000Y-115077126D01*
X169303000Y-115243198D01*
X168626199Y-115920000D01*
X163218916Y-115920000D01*
X163558280Y-115779431D01*
X163849431Y-115488280D01*
X164007000Y-115107874D01*
X164007000Y-114941801D01*
X168366802Y-110582000D01*
X171353084Y-110582000D01*
X171013720Y-110722569D01*
X171013720Y-110722569D01*
G37*
X171013720Y-110722569D02*
X170722569Y-111013720D01*
X170565000Y-111394126D01*
X170565000Y-111805874D01*
X170722569Y-112186280D01*
X170840652Y-112304363D01*
X170842567Y-114371723D01*
X170543874Y-114248000D01*
X170132126Y-114248000D01*
X169751720Y-114405569D01*
X169460569Y-114696720D01*
X169303000Y-115077126D01*
X169303000Y-115243198D01*
X168626199Y-115920000D01*
X163218916Y-115920000D01*
X163558280Y-115779431D01*
X163849431Y-115488280D01*
X164007000Y-115107874D01*
X164007000Y-114941801D01*
X168366802Y-110582000D01*
X171353084Y-110582000D01*
X171013720Y-110722569D01*
G36*
X178700000Y-89260889D02*
X178774852Y-89246000D01*
X187104001Y-89246000D01*
X187104000Y-99466289D01*
X186986569Y-99583720D01*
X186829000Y-99964126D01*
X186829000Y-100130198D01*
X183231199Y-103728000D01*
X174851711Y-103728000D01*
X174734280Y-103610569D01*
X174353874Y-103453000D01*
X173942126Y-103453000D01*
X173561720Y-103610569D01*
X173270569Y-103901720D01*
X173113000Y-104282126D01*
X173113000Y-104693874D01*
X173270569Y-105074280D01*
X173561720Y-105365431D01*
X173942126Y-105523000D01*
X174108199Y-105523000D01*
X177161001Y-108575803D01*
X177161001Y-111252199D01*
X175246331Y-109337530D01*
X175203929Y-109274071D01*
X174952537Y-109106096D01*
X174730852Y-109062000D01*
X174730847Y-109062000D01*
X174656000Y-109047112D01*
X174581153Y-109062000D01*
X168616802Y-109062000D01*
X170060473Y-107618329D01*
X170123929Y-107575929D01*
X170291904Y-107324537D01*
X170336000Y-107102852D01*
X170336000Y-107102848D01*
X170350888Y-107028000D01*
X170338747Y-106966964D01*
X170453431Y-106852280D01*
X170611000Y-106471874D01*
X170611000Y-106060126D01*
X170453431Y-105679720D01*
X170162280Y-105388569D01*
X169781874Y-105231000D01*
X169370126Y-105231000D01*
X168989720Y-105388569D01*
X168698569Y-105679720D01*
X168541000Y-106060126D01*
X168541000Y-106471874D01*
X168692228Y-106836970D01*
X165595617Y-109933582D01*
X165474931Y-109642220D01*
X165183780Y-109351069D01*
X164803374Y-109193500D01*
X164391626Y-109193500D01*
X164011220Y-109351069D01*
X163893789Y-109468500D01*
X162377156Y-109468500D01*
X162413928Y-109443930D01*
X162456330Y-109380471D01*
X165043802Y-106793000D01*
X165209874Y-106793000D01*
X165590280Y-106635431D01*
X165881431Y-106344280D01*
X166039000Y-105963874D01*
X166039000Y-105797801D01*
X170906803Y-100930000D01*
X175984289Y-100930000D01*
X176101720Y-101047431D01*
X176482126Y-101205000D01*
X176893874Y-101205000D01*
X177274280Y-101047431D01*
X177391711Y-100930000D01*
X177883153Y-100930000D01*
X177958000Y-100944888D01*
X178032847Y-100930000D01*
X178032852Y-100930000D01*
X178254537Y-100885904D01*
X178505929Y-100717929D01*
X178548331Y-100654470D01*
X179966476Y-99236327D01*
X180029929Y-99193929D01*
X180072327Y-99130476D01*
X180072329Y-99130474D01*
X180197903Y-98942538D01*
X180197904Y-98942537D01*
X180242000Y-98720852D01*
X180242000Y-98720848D01*
X180256888Y-98646001D01*
X180242000Y-98571154D01*
X180242000Y-91862847D01*
X180256888Y-91788000D01*
X180242000Y-91713153D01*
X180242000Y-91713148D01*
X180197904Y-91491463D01*
X180029929Y-91240071D01*
X179966473Y-91197671D01*
X179501000Y-90732199D01*
X179501000Y-90566126D01*
X179343431Y-90185720D01*
X179052280Y-89894569D01*
X178671874Y-89737000D01*
X178260126Y-89737000D01*
X177879720Y-89894569D01*
X177588569Y-90185720D01*
X177431000Y-90566126D01*
X177431000Y-90977874D01*
X177588569Y-91358280D01*
X177879720Y-91649431D01*
X178260126Y-91807000D01*
X178426199Y-91807000D01*
X178722001Y-92102803D01*
X178722000Y-96212973D01*
X178417874Y-96087000D01*
X178251802Y-96087000D01*
X173130000Y-90965199D01*
X173130000Y-89500237D01*
X173180126Y-89521000D01*
X173591874Y-89521000D01*
X173972280Y-89363431D01*
X174089711Y-89246000D01*
X178625148Y-89246000D01*
X178700000Y-89260889D01*
X178700000Y-89260889D01*
G37*
X178700000Y-89260889D02*
X178774852Y-89246000D01*
X187104001Y-89246000D01*
X187104000Y-99466289D01*
X186986569Y-99583720D01*
X186829000Y-99964126D01*
X186829000Y-100130198D01*
X183231199Y-103728000D01*
X174851711Y-103728000D01*
X174734280Y-103610569D01*
X174353874Y-103453000D01*
X173942126Y-103453000D01*
X173561720Y-103610569D01*
X173270569Y-103901720D01*
X173113000Y-104282126D01*
X173113000Y-104693874D01*
X173270569Y-105074280D01*
X173561720Y-105365431D01*
X173942126Y-105523000D01*
X174108199Y-105523000D01*
X177161001Y-108575803D01*
X177161001Y-111252199D01*
X175246331Y-109337530D01*
X175203929Y-109274071D01*
X174952537Y-109106096D01*
X174730852Y-109062000D01*
X174730847Y-109062000D01*
X174656000Y-109047112D01*
X174581153Y-109062000D01*
X168616802Y-109062000D01*
X170060473Y-107618329D01*
X170123929Y-107575929D01*
X170291904Y-107324537D01*
X170336000Y-107102852D01*
X170336000Y-107102848D01*
X170350888Y-107028000D01*
X170338747Y-106966964D01*
X170453431Y-106852280D01*
X170611000Y-106471874D01*
X170611000Y-106060126D01*
X170453431Y-105679720D01*
X170162280Y-105388569D01*
X169781874Y-105231000D01*
X169370126Y-105231000D01*
X168989720Y-105388569D01*
X168698569Y-105679720D01*
X168541000Y-106060126D01*
X168541000Y-106471874D01*
X168692228Y-106836970D01*
X165595617Y-109933582D01*
X165474931Y-109642220D01*
X165183780Y-109351069D01*
X164803374Y-109193500D01*
X164391626Y-109193500D01*
X164011220Y-109351069D01*
X163893789Y-109468500D01*
X162377156Y-109468500D01*
X162413928Y-109443930D01*
X162456330Y-109380471D01*
X165043802Y-106793000D01*
X165209874Y-106793000D01*
X165590280Y-106635431D01*
X165881431Y-106344280D01*
X166039000Y-105963874D01*
X166039000Y-105797801D01*
X170906803Y-100930000D01*
X175984289Y-100930000D01*
X176101720Y-101047431D01*
X176482126Y-101205000D01*
X176893874Y-101205000D01*
X177274280Y-101047431D01*
X177391711Y-100930000D01*
X177883153Y-100930000D01*
X177958000Y-100944888D01*
X178032847Y-100930000D01*
X178032852Y-100930000D01*
X178254537Y-100885904D01*
X178505929Y-100717929D01*
X178548331Y-100654470D01*
X179966476Y-99236327D01*
X180029929Y-99193929D01*
X180072327Y-99130476D01*
X180072329Y-99130474D01*
X180197903Y-98942538D01*
X180197904Y-98942537D01*
X180242000Y-98720852D01*
X180242000Y-98720848D01*
X180256888Y-98646001D01*
X180242000Y-98571154D01*
X180242000Y-91862847D01*
X180256888Y-91788000D01*
X180242000Y-91713153D01*
X180242000Y-91713148D01*
X180197904Y-91491463D01*
X180029929Y-91240071D01*
X179966473Y-91197671D01*
X179501000Y-90732199D01*
X179501000Y-90566126D01*
X179343431Y-90185720D01*
X179052280Y-89894569D01*
X178671874Y-89737000D01*
X178260126Y-89737000D01*
X177879720Y-89894569D01*
X177588569Y-90185720D01*
X177431000Y-90566126D01*
X177431000Y-90977874D01*
X177588569Y-91358280D01*
X177879720Y-91649431D01*
X178260126Y-91807000D01*
X178426199Y-91807000D01*
X178722001Y-92102803D01*
X178722000Y-96212973D01*
X178417874Y-96087000D01*
X178251802Y-96087000D01*
X173130000Y-90965199D01*
X173130000Y-89500237D01*
X173180126Y-89521000D01*
X173591874Y-89521000D01*
X173972280Y-89363431D01*
X174089711Y-89246000D01*
X178625148Y-89246000D01*
X178700000Y-89260889D01*
G36*
X163565000Y-104439802D02*
X163565000Y-104605874D01*
X163722569Y-104986280D01*
X164013720Y-105277431D01*
X164072668Y-105301848D01*
X163969000Y-105552126D01*
X163969000Y-105718198D01*
X161551198Y-108136001D01*
X157057845Y-108136001D01*
X156982997Y-108121113D01*
X156908149Y-108136001D01*
X156908145Y-108136001D01*
X156801855Y-108157144D01*
X156573280Y-107928569D01*
X156192874Y-107771000D01*
X155781126Y-107771000D01*
X155400720Y-107928569D01*
X155283289Y-108046000D01*
X150459802Y-108046000D01*
X149762000Y-107348199D01*
X149762000Y-105699711D01*
X149879431Y-105582280D01*
X150037000Y-105201874D01*
X150037000Y-105013618D01*
X150117903Y-104892538D01*
X150161999Y-104670853D01*
X150161999Y-104670849D01*
X150176887Y-104596002D01*
X150161999Y-104521155D01*
X150161999Y-103481311D01*
X150291000Y-103169874D01*
X150291000Y-102758126D01*
X150133431Y-102377720D01*
X149959711Y-102204000D01*
X150077431Y-102086280D01*
X150235000Y-101705874D01*
X150235000Y-101534999D01*
X160660198Y-101534999D01*
X163565000Y-104439802D01*
X163565000Y-104439802D01*
G37*
X163565000Y-104439802D02*
X163565000Y-104605874D01*
X163722569Y-104986280D01*
X164013720Y-105277431D01*
X164072668Y-105301848D01*
X163969000Y-105552126D01*
X163969000Y-105718198D01*
X161551198Y-108136001D01*
X157057845Y-108136001D01*
X156982997Y-108121113D01*
X156908149Y-108136001D01*
X156908145Y-108136001D01*
X156801855Y-108157144D01*
X156573280Y-107928569D01*
X156192874Y-107771000D01*
X155781126Y-107771000D01*
X155400720Y-107928569D01*
X155283289Y-108046000D01*
X150459802Y-108046000D01*
X149762000Y-107348199D01*
X149762000Y-105699711D01*
X149879431Y-105582280D01*
X150037000Y-105201874D01*
X150037000Y-105013618D01*
X150117903Y-104892538D01*
X150161999Y-104670853D01*
X150161999Y-104670849D01*
X150176887Y-104596002D01*
X150161999Y-104521155D01*
X150161999Y-103481311D01*
X150291000Y-103169874D01*
X150291000Y-102758126D01*
X150133431Y-102377720D01*
X149959711Y-102204000D01*
X150077431Y-102086280D01*
X150235000Y-101705874D01*
X150235000Y-101534999D01*
X160660198Y-101534999D01*
X163565000Y-104439802D01*
G04 #@! TD*
M02*
