M48
;DRILL file {KiCad 5.0.2-bee76a0~70~ubuntu18.04.1} date Mon Dec 10 21:57:56 2018
;FORMAT={3:3/ absolute / metric / suppress leading zeros}
FMAT,2
METRIC,TZ
T1C0.400
T2C0.762
T3C1.000
T4C1.100
T5C1.200
T6C2.000
T7C4.300
%
G90
G05
T1
X98500Y-95500
X98500Y-97500
X98500Y-99500
X98500Y-101500
X98500Y-103500
X98500Y-105500
X98500Y-107500
X131600Y-102100
X131603Y-97249
X133500Y-108200
X135413Y-112108
X137700Y-114400
X144303Y-112870
X144557Y-128364
X144700Y-134400
X145446Y-86200
X146800Y-110000
X147224Y-100170
X147500Y-124400
X148240Y-103980
X149000Y-118900
X149002Y-104996
X149002Y-110838
X149200Y-101500
X149256Y-102964
X150272Y-74770
X152558Y-113378
X152812Y-110711
X153300Y-104400
X153701Y-87978
X153828Y-113124
X154500Y-109800
X154600Y-130300
X154717Y-117569
X154717Y-126459
X155600Y-135100
X155987Y-108806
X156114Y-122141
X156622Y-115537
X157100Y-131600
X157300Y-75300
X157400Y-129300
X157511Y-95725
X157892Y-88232
X158000Y-107500
X158146Y-120871
X159000Y-119700
X159289Y-116172
X159600Y-83500
X160432Y-110228
X160432Y-113378
X160559Y-130650
X161227Y-127600
X161321Y-111854
X161700Y-85800
X161700Y-97300
X161702Y-89756
X161702Y-114902
X161702Y-119728
X162200Y-76100
X162972Y-114902
X163480Y-131031
X163734Y-91534
X164598Y-110228
X164600Y-104400
X165004Y-105758
X165004Y-119728
X165512Y-126078
X165800Y-83100
X166528Y-101186
X167800Y-130105
X169576Y-106266
X169600Y-113200
X170338Y-115283
X170900Y-83406
X171600Y-111600
X172497Y-81442
X172500Y-76100
X173386Y-88486
X173500Y-133400
X173700Y-97700
X174148Y-104488
X174200Y-106000
X174402Y-116934
X174700Y-132472
X174800Y-87300
X175164Y-130650
X175200Y-81200
X175500Y-108300
X176688Y-100170
X177196Y-115918
X177450Y-126078
X177958Y-128872
X178212Y-97122
X178466Y-90772
X180244Y-119474
X182400Y-92900
X182530Y-96360
X183000Y-123100
X183038Y-77263
X183038Y-125316
X183100Y-132500
X184816Y-83660
X184900Y-106500
X185324Y-111600
X187500Y-132500
X187864Y-88486
X187864Y-100170
X187864Y-101694
X188118Y-116680
X188118Y-128872
X188118Y-131158
X199400Y-95000
X199400Y-97700
X199400Y-100200
X203400Y-95000
X203400Y-97700
X203400Y-100200
T2
X129190Y-82090
X129190Y-89590
X129190Y-92090
X152190Y-82090
X152190Y-84590
X152190Y-89590
X152190Y-92090
T3
X136900Y-71000
X139400Y-71000
X106500Y-71000
X109000Y-71000
X197600Y-71000
X200100Y-71000
X166600Y-71000
X169100Y-71000
T4
X184960Y-63500
X184960Y-68580
X187500Y-63500
X187500Y-68580
X93960Y-63500
X93960Y-68580
X96500Y-63500
X96500Y-68580
X154060Y-63500
X154060Y-68580
X156600Y-63500
X156600Y-68580
X124960Y-63500
X124960Y-68580
X127500Y-63500
X127500Y-68580
X109880Y-77290
X109880Y-79830
X109880Y-82370
X109880Y-84910
X109880Y-87450
X109880Y-89990
X109880Y-92530
X109880Y-95070
X109880Y-97610
X109880Y-100150
X109880Y-102690
X109880Y-105230
X109880Y-107770
X109880Y-110310
X109880Y-112850
X109880Y-115390
X109880Y-117930
X109880Y-120470
X109880Y-123010
X109880Y-125550
X109880Y-128090
X109880Y-130630
X109880Y-133170
X109880Y-135710
X125120Y-77290
X125120Y-79830
X125120Y-82370
X125120Y-84910
X125120Y-87450
X125120Y-89990
X125120Y-92530
X125120Y-95070
X125120Y-97610
X125120Y-100150
X125120Y-102690
X125120Y-105230
X125120Y-107770
X125120Y-110310
X125120Y-112850
X125120Y-115390
X125120Y-117930
X125120Y-120470
X125120Y-123010
X125120Y-125550
X125120Y-128090
X125120Y-130630
X125120Y-133170
X125120Y-135710
T5
X131690Y-95090
X149690Y-79090
T6
X134300Y-65900
X144500Y-65900
X103900Y-65900
X114100Y-65900
X195000Y-65900
X205200Y-65900
X164000Y-65900
X174200Y-65900
T7
X207500Y-82000
X92500Y-133000
X207500Y-133000
X92500Y-82000
T0
M30
