G04 #@! TF.GenerationSoftware,KiCad,Pcbnew,5.0.2-bee76a0~70~ubuntu18.04.1*
G04 #@! TF.CreationDate,2018-12-10T21:57:33+02:00*
G04 #@! TF.ProjectId,microstim,6d696372-6f73-4746-996d-2e6b69636164,rev?*
G04 #@! TF.SameCoordinates,Original*
G04 #@! TF.FileFunction,Soldermask,Bot*
G04 #@! TF.FilePolarity,Negative*
%FSLAX46Y46*%
G04 Gerber Fmt 4.6, Leading zero omitted, Abs format (unit mm)*
G04 Created by KiCad (PCBNEW 5.0.2-bee76a0~70~ubuntu18.04.1) date Mon Dec 10 21:57:33 2018*
%MOMM*%
%LPD*%
G01*
G04 APERTURE LIST*
%ADD10C,0.100000*%
G04 APERTURE END LIST*
D10*
G36*
X126120000Y-136710000D02*
X124120000Y-136710000D01*
X124120000Y-134710000D01*
X126120000Y-134710000D01*
X126120000Y-136710000D01*
X126120000Y-136710000D01*
G37*
G36*
X110055770Y-134725372D02*
X110171689Y-134748429D01*
X110353678Y-134823811D01*
X110517463Y-134933249D01*
X110656751Y-135072537D01*
X110766189Y-135236322D01*
X110841571Y-135418311D01*
X110880000Y-135611509D01*
X110880000Y-135808491D01*
X110841571Y-136001689D01*
X110766189Y-136183678D01*
X110656751Y-136347463D01*
X110517463Y-136486751D01*
X110353678Y-136596189D01*
X110171689Y-136671571D01*
X110055770Y-136694628D01*
X109978493Y-136710000D01*
X109781507Y-136710000D01*
X109704230Y-136694628D01*
X109588311Y-136671571D01*
X109406322Y-136596189D01*
X109242537Y-136486751D01*
X109103249Y-136347463D01*
X108993811Y-136183678D01*
X108918429Y-136001689D01*
X108880000Y-135808491D01*
X108880000Y-135611509D01*
X108918429Y-135418311D01*
X108993811Y-135236322D01*
X109103249Y-135072537D01*
X109242537Y-134933249D01*
X109406322Y-134823811D01*
X109588311Y-134748429D01*
X109704230Y-134725372D01*
X109781507Y-134710000D01*
X109978493Y-134710000D01*
X110055770Y-134725372D01*
X110055770Y-134725372D01*
G37*
G36*
X92844959Y-130672577D02*
X93185470Y-130740309D01*
X93613143Y-130917457D01*
X93998038Y-131174636D01*
X94325364Y-131501962D01*
X94582543Y-131886857D01*
X94759691Y-132314530D01*
X94850000Y-132768545D01*
X94850000Y-133231455D01*
X94759691Y-133685470D01*
X94582543Y-134113143D01*
X94325364Y-134498038D01*
X93998038Y-134825364D01*
X93613143Y-135082543D01*
X93185470Y-135259691D01*
X92844959Y-135327423D01*
X92731456Y-135350000D01*
X92268544Y-135350000D01*
X92155041Y-135327423D01*
X91814530Y-135259691D01*
X91386857Y-135082543D01*
X91001962Y-134825364D01*
X90674636Y-134498038D01*
X90417457Y-134113143D01*
X90240309Y-133685470D01*
X90150000Y-133231455D01*
X90150000Y-132768545D01*
X90240309Y-132314530D01*
X90417457Y-131886857D01*
X90674636Y-131501962D01*
X91001962Y-131174636D01*
X91386857Y-130917457D01*
X91814530Y-130740309D01*
X92155041Y-130672577D01*
X92268544Y-130650000D01*
X92731456Y-130650000D01*
X92844959Y-130672577D01*
X92844959Y-130672577D01*
G37*
G36*
X207844959Y-130672577D02*
X208185470Y-130740309D01*
X208613143Y-130917457D01*
X208998038Y-131174636D01*
X209325364Y-131501962D01*
X209582543Y-131886857D01*
X209759691Y-132314530D01*
X209850000Y-132768545D01*
X209850000Y-133231455D01*
X209759691Y-133685470D01*
X209582543Y-134113143D01*
X209325364Y-134498038D01*
X208998038Y-134825364D01*
X208613143Y-135082543D01*
X208185470Y-135259691D01*
X207844959Y-135327423D01*
X207731456Y-135350000D01*
X207268544Y-135350000D01*
X207155041Y-135327423D01*
X206814530Y-135259691D01*
X206386857Y-135082543D01*
X206001962Y-134825364D01*
X205674636Y-134498038D01*
X205417457Y-134113143D01*
X205240309Y-133685470D01*
X205150000Y-133231455D01*
X205150000Y-132768545D01*
X205240309Y-132314530D01*
X205417457Y-131886857D01*
X205674636Y-131501962D01*
X206001962Y-131174636D01*
X206386857Y-130917457D01*
X206814530Y-130740309D01*
X207155041Y-130672577D01*
X207268544Y-130650000D01*
X207731456Y-130650000D01*
X207844959Y-130672577D01*
X207844959Y-130672577D01*
G37*
G36*
X125295770Y-132185372D02*
X125411689Y-132208429D01*
X125593678Y-132283811D01*
X125757463Y-132393249D01*
X125896751Y-132532537D01*
X126006189Y-132696322D01*
X126081571Y-132878311D01*
X126120000Y-133071509D01*
X126120000Y-133268491D01*
X126081571Y-133461689D01*
X126006189Y-133643678D01*
X125896751Y-133807463D01*
X125757463Y-133946751D01*
X125593678Y-134056189D01*
X125411689Y-134131571D01*
X125295770Y-134154628D01*
X125218493Y-134170000D01*
X125021507Y-134170000D01*
X124944230Y-134154628D01*
X124828311Y-134131571D01*
X124646322Y-134056189D01*
X124482537Y-133946751D01*
X124343249Y-133807463D01*
X124233811Y-133643678D01*
X124158429Y-133461689D01*
X124120000Y-133268491D01*
X124120000Y-133071509D01*
X124158429Y-132878311D01*
X124233811Y-132696322D01*
X124343249Y-132532537D01*
X124482537Y-132393249D01*
X124646322Y-132283811D01*
X124828311Y-132208429D01*
X124944230Y-132185372D01*
X125021507Y-132170000D01*
X125218493Y-132170000D01*
X125295770Y-132185372D01*
X125295770Y-132185372D01*
G37*
G36*
X110055770Y-132185372D02*
X110171689Y-132208429D01*
X110353678Y-132283811D01*
X110517463Y-132393249D01*
X110656751Y-132532537D01*
X110766189Y-132696322D01*
X110841571Y-132878311D01*
X110880000Y-133071509D01*
X110880000Y-133268491D01*
X110841571Y-133461689D01*
X110766189Y-133643678D01*
X110656751Y-133807463D01*
X110517463Y-133946751D01*
X110353678Y-134056189D01*
X110171689Y-134131571D01*
X110055770Y-134154628D01*
X109978493Y-134170000D01*
X109781507Y-134170000D01*
X109704230Y-134154628D01*
X109588311Y-134131571D01*
X109406322Y-134056189D01*
X109242537Y-133946751D01*
X109103249Y-133807463D01*
X108993811Y-133643678D01*
X108918429Y-133461689D01*
X108880000Y-133268491D01*
X108880000Y-133071509D01*
X108918429Y-132878311D01*
X108993811Y-132696322D01*
X109103249Y-132532537D01*
X109242537Y-132393249D01*
X109406322Y-132283811D01*
X109588311Y-132208429D01*
X109704230Y-132185372D01*
X109781507Y-132170000D01*
X109978493Y-132170000D01*
X110055770Y-132185372D01*
X110055770Y-132185372D01*
G37*
G36*
X125295770Y-129645372D02*
X125411689Y-129668429D01*
X125593678Y-129743811D01*
X125757463Y-129853249D01*
X125896751Y-129992537D01*
X126006189Y-130156322D01*
X126081571Y-130338311D01*
X126104628Y-130454230D01*
X126120000Y-130531507D01*
X126120000Y-130728493D01*
X126104628Y-130805770D01*
X126081571Y-130921689D01*
X126006189Y-131103678D01*
X125896751Y-131267463D01*
X125757463Y-131406751D01*
X125593678Y-131516189D01*
X125411689Y-131591571D01*
X125295770Y-131614628D01*
X125218493Y-131630000D01*
X125021507Y-131630000D01*
X124944230Y-131614628D01*
X124828311Y-131591571D01*
X124646322Y-131516189D01*
X124482537Y-131406751D01*
X124343249Y-131267463D01*
X124233811Y-131103678D01*
X124158429Y-130921689D01*
X124135372Y-130805770D01*
X124120000Y-130728493D01*
X124120000Y-130531507D01*
X124135372Y-130454230D01*
X124158429Y-130338311D01*
X124233811Y-130156322D01*
X124343249Y-129992537D01*
X124482537Y-129853249D01*
X124646322Y-129743811D01*
X124828311Y-129668429D01*
X124944230Y-129645372D01*
X125021507Y-129630000D01*
X125218493Y-129630000D01*
X125295770Y-129645372D01*
X125295770Y-129645372D01*
G37*
G36*
X110055770Y-129645372D02*
X110171689Y-129668429D01*
X110353678Y-129743811D01*
X110517463Y-129853249D01*
X110656751Y-129992537D01*
X110766189Y-130156322D01*
X110841571Y-130338311D01*
X110864628Y-130454230D01*
X110880000Y-130531507D01*
X110880000Y-130728493D01*
X110864628Y-130805770D01*
X110841571Y-130921689D01*
X110766189Y-131103678D01*
X110656751Y-131267463D01*
X110517463Y-131406751D01*
X110353678Y-131516189D01*
X110171689Y-131591571D01*
X110055770Y-131614628D01*
X109978493Y-131630000D01*
X109781507Y-131630000D01*
X109704230Y-131614628D01*
X109588311Y-131591571D01*
X109406322Y-131516189D01*
X109242537Y-131406751D01*
X109103249Y-131267463D01*
X108993811Y-131103678D01*
X108918429Y-130921689D01*
X108895372Y-130805770D01*
X108880000Y-130728493D01*
X108880000Y-130531507D01*
X108895372Y-130454230D01*
X108918429Y-130338311D01*
X108993811Y-130156322D01*
X109103249Y-129992537D01*
X109242537Y-129853249D01*
X109406322Y-129743811D01*
X109588311Y-129668429D01*
X109704230Y-129645372D01*
X109781507Y-129630000D01*
X109978493Y-129630000D01*
X110055770Y-129645372D01*
X110055770Y-129645372D01*
G37*
G36*
X125295770Y-127105372D02*
X125411689Y-127128429D01*
X125593678Y-127203811D01*
X125757463Y-127313249D01*
X125896751Y-127452537D01*
X126006189Y-127616322D01*
X126081571Y-127798311D01*
X126120000Y-127991509D01*
X126120000Y-128188491D01*
X126081571Y-128381689D01*
X126006189Y-128563678D01*
X125896751Y-128727463D01*
X125757463Y-128866751D01*
X125593678Y-128976189D01*
X125411689Y-129051571D01*
X125295770Y-129074628D01*
X125218493Y-129090000D01*
X125021507Y-129090000D01*
X124944230Y-129074628D01*
X124828311Y-129051571D01*
X124646322Y-128976189D01*
X124482537Y-128866751D01*
X124343249Y-128727463D01*
X124233811Y-128563678D01*
X124158429Y-128381689D01*
X124120000Y-128188491D01*
X124120000Y-127991509D01*
X124158429Y-127798311D01*
X124233811Y-127616322D01*
X124343249Y-127452537D01*
X124482537Y-127313249D01*
X124646322Y-127203811D01*
X124828311Y-127128429D01*
X124944230Y-127105372D01*
X125021507Y-127090000D01*
X125218493Y-127090000D01*
X125295770Y-127105372D01*
X125295770Y-127105372D01*
G37*
G36*
X110055770Y-127105372D02*
X110171689Y-127128429D01*
X110353678Y-127203811D01*
X110517463Y-127313249D01*
X110656751Y-127452537D01*
X110766189Y-127616322D01*
X110841571Y-127798311D01*
X110880000Y-127991509D01*
X110880000Y-128188491D01*
X110841571Y-128381689D01*
X110766189Y-128563678D01*
X110656751Y-128727463D01*
X110517463Y-128866751D01*
X110353678Y-128976189D01*
X110171689Y-129051571D01*
X110055770Y-129074628D01*
X109978493Y-129090000D01*
X109781507Y-129090000D01*
X109704230Y-129074628D01*
X109588311Y-129051571D01*
X109406322Y-128976189D01*
X109242537Y-128866751D01*
X109103249Y-128727463D01*
X108993811Y-128563678D01*
X108918429Y-128381689D01*
X108880000Y-128188491D01*
X108880000Y-127991509D01*
X108918429Y-127798311D01*
X108993811Y-127616322D01*
X109103249Y-127452537D01*
X109242537Y-127313249D01*
X109406322Y-127203811D01*
X109588311Y-127128429D01*
X109704230Y-127105372D01*
X109781507Y-127090000D01*
X109978493Y-127090000D01*
X110055770Y-127105372D01*
X110055770Y-127105372D01*
G37*
G36*
X110055770Y-124565372D02*
X110171689Y-124588429D01*
X110353678Y-124663811D01*
X110517463Y-124773249D01*
X110656751Y-124912537D01*
X110766189Y-125076322D01*
X110841571Y-125258311D01*
X110880000Y-125451509D01*
X110880000Y-125648491D01*
X110841571Y-125841689D01*
X110766189Y-126023678D01*
X110656751Y-126187463D01*
X110517463Y-126326751D01*
X110353678Y-126436189D01*
X110171689Y-126511571D01*
X110055770Y-126534628D01*
X109978493Y-126550000D01*
X109781507Y-126550000D01*
X109704230Y-126534628D01*
X109588311Y-126511571D01*
X109406322Y-126436189D01*
X109242537Y-126326751D01*
X109103249Y-126187463D01*
X108993811Y-126023678D01*
X108918429Y-125841689D01*
X108880000Y-125648491D01*
X108880000Y-125451509D01*
X108918429Y-125258311D01*
X108993811Y-125076322D01*
X109103249Y-124912537D01*
X109242537Y-124773249D01*
X109406322Y-124663811D01*
X109588311Y-124588429D01*
X109704230Y-124565372D01*
X109781507Y-124550000D01*
X109978493Y-124550000D01*
X110055770Y-124565372D01*
X110055770Y-124565372D01*
G37*
G36*
X125295770Y-124565372D02*
X125411689Y-124588429D01*
X125593678Y-124663811D01*
X125757463Y-124773249D01*
X125896751Y-124912537D01*
X126006189Y-125076322D01*
X126081571Y-125258311D01*
X126120000Y-125451509D01*
X126120000Y-125648491D01*
X126081571Y-125841689D01*
X126006189Y-126023678D01*
X125896751Y-126187463D01*
X125757463Y-126326751D01*
X125593678Y-126436189D01*
X125411689Y-126511571D01*
X125295770Y-126534628D01*
X125218493Y-126550000D01*
X125021507Y-126550000D01*
X124944230Y-126534628D01*
X124828311Y-126511571D01*
X124646322Y-126436189D01*
X124482537Y-126326751D01*
X124343249Y-126187463D01*
X124233811Y-126023678D01*
X124158429Y-125841689D01*
X124120000Y-125648491D01*
X124120000Y-125451509D01*
X124158429Y-125258311D01*
X124233811Y-125076322D01*
X124343249Y-124912537D01*
X124482537Y-124773249D01*
X124646322Y-124663811D01*
X124828311Y-124588429D01*
X124944230Y-124565372D01*
X125021507Y-124550000D01*
X125218493Y-124550000D01*
X125295770Y-124565372D01*
X125295770Y-124565372D01*
G37*
G36*
X125295770Y-122025372D02*
X125411689Y-122048429D01*
X125593678Y-122123811D01*
X125757463Y-122233249D01*
X125896751Y-122372537D01*
X126006189Y-122536322D01*
X126081571Y-122718311D01*
X126120000Y-122911509D01*
X126120000Y-123108491D01*
X126081571Y-123301689D01*
X126006189Y-123483678D01*
X125896751Y-123647463D01*
X125757463Y-123786751D01*
X125593678Y-123896189D01*
X125411689Y-123971571D01*
X125295770Y-123994628D01*
X125218493Y-124010000D01*
X125021507Y-124010000D01*
X124944230Y-123994628D01*
X124828311Y-123971571D01*
X124646322Y-123896189D01*
X124482537Y-123786751D01*
X124343249Y-123647463D01*
X124233811Y-123483678D01*
X124158429Y-123301689D01*
X124120000Y-123108491D01*
X124120000Y-122911509D01*
X124158429Y-122718311D01*
X124233811Y-122536322D01*
X124343249Y-122372537D01*
X124482537Y-122233249D01*
X124646322Y-122123811D01*
X124828311Y-122048429D01*
X124944230Y-122025372D01*
X125021507Y-122010000D01*
X125218493Y-122010000D01*
X125295770Y-122025372D01*
X125295770Y-122025372D01*
G37*
G36*
X110055770Y-122025372D02*
X110171689Y-122048429D01*
X110353678Y-122123811D01*
X110517463Y-122233249D01*
X110656751Y-122372537D01*
X110766189Y-122536322D01*
X110841571Y-122718311D01*
X110880000Y-122911509D01*
X110880000Y-123108491D01*
X110841571Y-123301689D01*
X110766189Y-123483678D01*
X110656751Y-123647463D01*
X110517463Y-123786751D01*
X110353678Y-123896189D01*
X110171689Y-123971571D01*
X110055770Y-123994628D01*
X109978493Y-124010000D01*
X109781507Y-124010000D01*
X109704230Y-123994628D01*
X109588311Y-123971571D01*
X109406322Y-123896189D01*
X109242537Y-123786751D01*
X109103249Y-123647463D01*
X108993811Y-123483678D01*
X108918429Y-123301689D01*
X108880000Y-123108491D01*
X108880000Y-122911509D01*
X108918429Y-122718311D01*
X108993811Y-122536322D01*
X109103249Y-122372537D01*
X109242537Y-122233249D01*
X109406322Y-122123811D01*
X109588311Y-122048429D01*
X109704230Y-122025372D01*
X109781507Y-122010000D01*
X109978493Y-122010000D01*
X110055770Y-122025372D01*
X110055770Y-122025372D01*
G37*
G36*
X110055770Y-119485372D02*
X110171689Y-119508429D01*
X110353678Y-119583811D01*
X110517463Y-119693249D01*
X110656751Y-119832537D01*
X110766189Y-119996322D01*
X110841571Y-120178311D01*
X110880000Y-120371509D01*
X110880000Y-120568491D01*
X110841571Y-120761689D01*
X110766189Y-120943678D01*
X110656751Y-121107463D01*
X110517463Y-121246751D01*
X110353678Y-121356189D01*
X110171689Y-121431571D01*
X110055770Y-121454628D01*
X109978493Y-121470000D01*
X109781507Y-121470000D01*
X109704230Y-121454628D01*
X109588311Y-121431571D01*
X109406322Y-121356189D01*
X109242537Y-121246751D01*
X109103249Y-121107463D01*
X108993811Y-120943678D01*
X108918429Y-120761689D01*
X108880000Y-120568491D01*
X108880000Y-120371509D01*
X108918429Y-120178311D01*
X108993811Y-119996322D01*
X109103249Y-119832537D01*
X109242537Y-119693249D01*
X109406322Y-119583811D01*
X109588311Y-119508429D01*
X109704230Y-119485372D01*
X109781507Y-119470000D01*
X109978493Y-119470000D01*
X110055770Y-119485372D01*
X110055770Y-119485372D01*
G37*
G36*
X125295770Y-119485372D02*
X125411689Y-119508429D01*
X125593678Y-119583811D01*
X125757463Y-119693249D01*
X125896751Y-119832537D01*
X126006189Y-119996322D01*
X126081571Y-120178311D01*
X126120000Y-120371509D01*
X126120000Y-120568491D01*
X126081571Y-120761689D01*
X126006189Y-120943678D01*
X125896751Y-121107463D01*
X125757463Y-121246751D01*
X125593678Y-121356189D01*
X125411689Y-121431571D01*
X125295770Y-121454628D01*
X125218493Y-121470000D01*
X125021507Y-121470000D01*
X124944230Y-121454628D01*
X124828311Y-121431571D01*
X124646322Y-121356189D01*
X124482537Y-121246751D01*
X124343249Y-121107463D01*
X124233811Y-120943678D01*
X124158429Y-120761689D01*
X124120000Y-120568491D01*
X124120000Y-120371509D01*
X124158429Y-120178311D01*
X124233811Y-119996322D01*
X124343249Y-119832537D01*
X124482537Y-119693249D01*
X124646322Y-119583811D01*
X124828311Y-119508429D01*
X124944230Y-119485372D01*
X125021507Y-119470000D01*
X125218493Y-119470000D01*
X125295770Y-119485372D01*
X125295770Y-119485372D01*
G37*
G36*
X125295770Y-116945372D02*
X125411689Y-116968429D01*
X125593678Y-117043811D01*
X125757463Y-117153249D01*
X125896751Y-117292537D01*
X126006189Y-117456322D01*
X126081571Y-117638311D01*
X126120000Y-117831509D01*
X126120000Y-118028491D01*
X126081571Y-118221689D01*
X126006189Y-118403678D01*
X125896751Y-118567463D01*
X125757463Y-118706751D01*
X125593678Y-118816189D01*
X125411689Y-118891571D01*
X125295770Y-118914628D01*
X125218493Y-118930000D01*
X125021507Y-118930000D01*
X124944230Y-118914628D01*
X124828311Y-118891571D01*
X124646322Y-118816189D01*
X124482537Y-118706751D01*
X124343249Y-118567463D01*
X124233811Y-118403678D01*
X124158429Y-118221689D01*
X124120000Y-118028491D01*
X124120000Y-117831509D01*
X124158429Y-117638311D01*
X124233811Y-117456322D01*
X124343249Y-117292537D01*
X124482537Y-117153249D01*
X124646322Y-117043811D01*
X124828311Y-116968429D01*
X124944230Y-116945372D01*
X125021507Y-116930000D01*
X125218493Y-116930000D01*
X125295770Y-116945372D01*
X125295770Y-116945372D01*
G37*
G36*
X110055770Y-116945372D02*
X110171689Y-116968429D01*
X110353678Y-117043811D01*
X110517463Y-117153249D01*
X110656751Y-117292537D01*
X110766189Y-117456322D01*
X110841571Y-117638311D01*
X110880000Y-117831509D01*
X110880000Y-118028491D01*
X110841571Y-118221689D01*
X110766189Y-118403678D01*
X110656751Y-118567463D01*
X110517463Y-118706751D01*
X110353678Y-118816189D01*
X110171689Y-118891571D01*
X110055770Y-118914628D01*
X109978493Y-118930000D01*
X109781507Y-118930000D01*
X109704230Y-118914628D01*
X109588311Y-118891571D01*
X109406322Y-118816189D01*
X109242537Y-118706751D01*
X109103249Y-118567463D01*
X108993811Y-118403678D01*
X108918429Y-118221689D01*
X108880000Y-118028491D01*
X108880000Y-117831509D01*
X108918429Y-117638311D01*
X108993811Y-117456322D01*
X109103249Y-117292537D01*
X109242537Y-117153249D01*
X109406322Y-117043811D01*
X109588311Y-116968429D01*
X109704230Y-116945372D01*
X109781507Y-116930000D01*
X109978493Y-116930000D01*
X110055770Y-116945372D01*
X110055770Y-116945372D01*
G37*
G36*
X125295770Y-114405372D02*
X125411689Y-114428429D01*
X125593678Y-114503811D01*
X125757463Y-114613249D01*
X125896751Y-114752537D01*
X126006189Y-114916322D01*
X126081571Y-115098311D01*
X126120000Y-115291509D01*
X126120000Y-115488491D01*
X126081571Y-115681689D01*
X126006189Y-115863678D01*
X125896751Y-116027463D01*
X125757463Y-116166751D01*
X125593678Y-116276189D01*
X125411689Y-116351571D01*
X125295770Y-116374628D01*
X125218493Y-116390000D01*
X125021507Y-116390000D01*
X124944230Y-116374628D01*
X124828311Y-116351571D01*
X124646322Y-116276189D01*
X124482537Y-116166751D01*
X124343249Y-116027463D01*
X124233811Y-115863678D01*
X124158429Y-115681689D01*
X124120000Y-115488491D01*
X124120000Y-115291509D01*
X124158429Y-115098311D01*
X124233811Y-114916322D01*
X124343249Y-114752537D01*
X124482537Y-114613249D01*
X124646322Y-114503811D01*
X124828311Y-114428429D01*
X124944230Y-114405372D01*
X125021507Y-114390000D01*
X125218493Y-114390000D01*
X125295770Y-114405372D01*
X125295770Y-114405372D01*
G37*
G36*
X110055770Y-114405372D02*
X110171689Y-114428429D01*
X110353678Y-114503811D01*
X110517463Y-114613249D01*
X110656751Y-114752537D01*
X110766189Y-114916322D01*
X110841571Y-115098311D01*
X110880000Y-115291509D01*
X110880000Y-115488491D01*
X110841571Y-115681689D01*
X110766189Y-115863678D01*
X110656751Y-116027463D01*
X110517463Y-116166751D01*
X110353678Y-116276189D01*
X110171689Y-116351571D01*
X110055770Y-116374628D01*
X109978493Y-116390000D01*
X109781507Y-116390000D01*
X109704230Y-116374628D01*
X109588311Y-116351571D01*
X109406322Y-116276189D01*
X109242537Y-116166751D01*
X109103249Y-116027463D01*
X108993811Y-115863678D01*
X108918429Y-115681689D01*
X108880000Y-115488491D01*
X108880000Y-115291509D01*
X108918429Y-115098311D01*
X108993811Y-114916322D01*
X109103249Y-114752537D01*
X109242537Y-114613249D01*
X109406322Y-114503811D01*
X109588311Y-114428429D01*
X109704230Y-114405372D01*
X109781507Y-114390000D01*
X109978493Y-114390000D01*
X110055770Y-114405372D01*
X110055770Y-114405372D01*
G37*
G36*
X125295770Y-111865372D02*
X125411689Y-111888429D01*
X125593678Y-111963811D01*
X125757463Y-112073249D01*
X125896751Y-112212537D01*
X126006189Y-112376322D01*
X126081571Y-112558311D01*
X126120000Y-112751509D01*
X126120000Y-112948491D01*
X126081571Y-113141689D01*
X126006189Y-113323678D01*
X125896751Y-113487463D01*
X125757463Y-113626751D01*
X125593678Y-113736189D01*
X125411689Y-113811571D01*
X125295770Y-113834628D01*
X125218493Y-113850000D01*
X125021507Y-113850000D01*
X124944230Y-113834628D01*
X124828311Y-113811571D01*
X124646322Y-113736189D01*
X124482537Y-113626751D01*
X124343249Y-113487463D01*
X124233811Y-113323678D01*
X124158429Y-113141689D01*
X124120000Y-112948491D01*
X124120000Y-112751509D01*
X124158429Y-112558311D01*
X124233811Y-112376322D01*
X124343249Y-112212537D01*
X124482537Y-112073249D01*
X124646322Y-111963811D01*
X124828311Y-111888429D01*
X124944230Y-111865372D01*
X125021507Y-111850000D01*
X125218493Y-111850000D01*
X125295770Y-111865372D01*
X125295770Y-111865372D01*
G37*
G36*
X110055770Y-111865372D02*
X110171689Y-111888429D01*
X110353678Y-111963811D01*
X110517463Y-112073249D01*
X110656751Y-112212537D01*
X110766189Y-112376322D01*
X110841571Y-112558311D01*
X110880000Y-112751509D01*
X110880000Y-112948491D01*
X110841571Y-113141689D01*
X110766189Y-113323678D01*
X110656751Y-113487463D01*
X110517463Y-113626751D01*
X110353678Y-113736189D01*
X110171689Y-113811571D01*
X110055770Y-113834628D01*
X109978493Y-113850000D01*
X109781507Y-113850000D01*
X109704230Y-113834628D01*
X109588311Y-113811571D01*
X109406322Y-113736189D01*
X109242537Y-113626751D01*
X109103249Y-113487463D01*
X108993811Y-113323678D01*
X108918429Y-113141689D01*
X108880000Y-112948491D01*
X108880000Y-112751509D01*
X108918429Y-112558311D01*
X108993811Y-112376322D01*
X109103249Y-112212537D01*
X109242537Y-112073249D01*
X109406322Y-111963811D01*
X109588311Y-111888429D01*
X109704230Y-111865372D01*
X109781507Y-111850000D01*
X109978493Y-111850000D01*
X110055770Y-111865372D01*
X110055770Y-111865372D01*
G37*
G36*
X125295770Y-109325372D02*
X125411689Y-109348429D01*
X125593678Y-109423811D01*
X125757463Y-109533249D01*
X125896751Y-109672537D01*
X126006189Y-109836322D01*
X126081571Y-110018311D01*
X126120000Y-110211509D01*
X126120000Y-110408491D01*
X126081571Y-110601689D01*
X126006189Y-110783678D01*
X125896751Y-110947463D01*
X125757463Y-111086751D01*
X125593678Y-111196189D01*
X125411689Y-111271571D01*
X125295770Y-111294628D01*
X125218493Y-111310000D01*
X125021507Y-111310000D01*
X124944230Y-111294628D01*
X124828311Y-111271571D01*
X124646322Y-111196189D01*
X124482537Y-111086751D01*
X124343249Y-110947463D01*
X124233811Y-110783678D01*
X124158429Y-110601689D01*
X124120000Y-110408491D01*
X124120000Y-110211509D01*
X124158429Y-110018311D01*
X124233811Y-109836322D01*
X124343249Y-109672537D01*
X124482537Y-109533249D01*
X124646322Y-109423811D01*
X124828311Y-109348429D01*
X124944230Y-109325372D01*
X125021507Y-109310000D01*
X125218493Y-109310000D01*
X125295770Y-109325372D01*
X125295770Y-109325372D01*
G37*
G36*
X110055770Y-109325372D02*
X110171689Y-109348429D01*
X110353678Y-109423811D01*
X110517463Y-109533249D01*
X110656751Y-109672537D01*
X110766189Y-109836322D01*
X110841571Y-110018311D01*
X110880000Y-110211509D01*
X110880000Y-110408491D01*
X110841571Y-110601689D01*
X110766189Y-110783678D01*
X110656751Y-110947463D01*
X110517463Y-111086751D01*
X110353678Y-111196189D01*
X110171689Y-111271571D01*
X110055770Y-111294628D01*
X109978493Y-111310000D01*
X109781507Y-111310000D01*
X109704230Y-111294628D01*
X109588311Y-111271571D01*
X109406322Y-111196189D01*
X109242537Y-111086751D01*
X109103249Y-110947463D01*
X108993811Y-110783678D01*
X108918429Y-110601689D01*
X108880000Y-110408491D01*
X108880000Y-110211509D01*
X108918429Y-110018311D01*
X108993811Y-109836322D01*
X109103249Y-109672537D01*
X109242537Y-109533249D01*
X109406322Y-109423811D01*
X109588311Y-109348429D01*
X109704230Y-109325372D01*
X109781507Y-109310000D01*
X109978493Y-109310000D01*
X110055770Y-109325372D01*
X110055770Y-109325372D01*
G37*
G36*
X125295770Y-106785372D02*
X125411689Y-106808429D01*
X125593678Y-106883811D01*
X125757463Y-106993249D01*
X125896751Y-107132537D01*
X126006189Y-107296322D01*
X126081571Y-107478311D01*
X126120000Y-107671509D01*
X126120000Y-107868491D01*
X126081571Y-108061689D01*
X126006189Y-108243678D01*
X125896751Y-108407463D01*
X125757463Y-108546751D01*
X125593678Y-108656189D01*
X125411689Y-108731571D01*
X125295770Y-108754628D01*
X125218493Y-108770000D01*
X125021507Y-108770000D01*
X124944230Y-108754628D01*
X124828311Y-108731571D01*
X124646322Y-108656189D01*
X124482537Y-108546751D01*
X124343249Y-108407463D01*
X124233811Y-108243678D01*
X124158429Y-108061689D01*
X124120000Y-107868491D01*
X124120000Y-107671509D01*
X124158429Y-107478311D01*
X124233811Y-107296322D01*
X124343249Y-107132537D01*
X124482537Y-106993249D01*
X124646322Y-106883811D01*
X124828311Y-106808429D01*
X124944230Y-106785372D01*
X125021507Y-106770000D01*
X125218493Y-106770000D01*
X125295770Y-106785372D01*
X125295770Y-106785372D01*
G37*
G36*
X110055770Y-106785372D02*
X110171689Y-106808429D01*
X110353678Y-106883811D01*
X110517463Y-106993249D01*
X110656751Y-107132537D01*
X110766189Y-107296322D01*
X110841571Y-107478311D01*
X110880000Y-107671509D01*
X110880000Y-107868491D01*
X110841571Y-108061689D01*
X110766189Y-108243678D01*
X110656751Y-108407463D01*
X110517463Y-108546751D01*
X110353678Y-108656189D01*
X110171689Y-108731571D01*
X110055770Y-108754628D01*
X109978493Y-108770000D01*
X109781507Y-108770000D01*
X109704230Y-108754628D01*
X109588311Y-108731571D01*
X109406322Y-108656189D01*
X109242537Y-108546751D01*
X109103249Y-108407463D01*
X108993811Y-108243678D01*
X108918429Y-108061689D01*
X108880000Y-107868491D01*
X108880000Y-107671509D01*
X108918429Y-107478311D01*
X108993811Y-107296322D01*
X109103249Y-107132537D01*
X109242537Y-106993249D01*
X109406322Y-106883811D01*
X109588311Y-106808429D01*
X109704230Y-106785372D01*
X109781507Y-106770000D01*
X109978493Y-106770000D01*
X110055770Y-106785372D01*
X110055770Y-106785372D01*
G37*
G36*
X110055770Y-104245372D02*
X110171689Y-104268429D01*
X110353678Y-104343811D01*
X110517463Y-104453249D01*
X110656751Y-104592537D01*
X110766189Y-104756322D01*
X110841571Y-104938311D01*
X110880000Y-105131509D01*
X110880000Y-105328491D01*
X110841571Y-105521689D01*
X110766189Y-105703678D01*
X110656751Y-105867463D01*
X110517463Y-106006751D01*
X110353678Y-106116189D01*
X110171689Y-106191571D01*
X110055770Y-106214628D01*
X109978493Y-106230000D01*
X109781507Y-106230000D01*
X109704230Y-106214628D01*
X109588311Y-106191571D01*
X109406322Y-106116189D01*
X109242537Y-106006751D01*
X109103249Y-105867463D01*
X108993811Y-105703678D01*
X108918429Y-105521689D01*
X108880000Y-105328491D01*
X108880000Y-105131509D01*
X108918429Y-104938311D01*
X108993811Y-104756322D01*
X109103249Y-104592537D01*
X109242537Y-104453249D01*
X109406322Y-104343811D01*
X109588311Y-104268429D01*
X109704230Y-104245372D01*
X109781507Y-104230000D01*
X109978493Y-104230000D01*
X110055770Y-104245372D01*
X110055770Y-104245372D01*
G37*
G36*
X125295770Y-104245372D02*
X125411689Y-104268429D01*
X125593678Y-104343811D01*
X125757463Y-104453249D01*
X125896751Y-104592537D01*
X126006189Y-104756322D01*
X126081571Y-104938311D01*
X126120000Y-105131509D01*
X126120000Y-105328491D01*
X126081571Y-105521689D01*
X126006189Y-105703678D01*
X125896751Y-105867463D01*
X125757463Y-106006751D01*
X125593678Y-106116189D01*
X125411689Y-106191571D01*
X125295770Y-106214628D01*
X125218493Y-106230000D01*
X125021507Y-106230000D01*
X124944230Y-106214628D01*
X124828311Y-106191571D01*
X124646322Y-106116189D01*
X124482537Y-106006751D01*
X124343249Y-105867463D01*
X124233811Y-105703678D01*
X124158429Y-105521689D01*
X124120000Y-105328491D01*
X124120000Y-105131509D01*
X124158429Y-104938311D01*
X124233811Y-104756322D01*
X124343249Y-104592537D01*
X124482537Y-104453249D01*
X124646322Y-104343811D01*
X124828311Y-104268429D01*
X124944230Y-104245372D01*
X125021507Y-104230000D01*
X125218493Y-104230000D01*
X125295770Y-104245372D01*
X125295770Y-104245372D01*
G37*
G36*
X125295770Y-101705372D02*
X125411689Y-101728429D01*
X125593678Y-101803811D01*
X125757463Y-101913249D01*
X125896751Y-102052537D01*
X126006189Y-102216322D01*
X126081571Y-102398311D01*
X126120000Y-102591509D01*
X126120000Y-102788491D01*
X126081571Y-102981689D01*
X126006189Y-103163678D01*
X125896751Y-103327463D01*
X125757463Y-103466751D01*
X125593678Y-103576189D01*
X125411689Y-103651571D01*
X125295770Y-103674628D01*
X125218493Y-103690000D01*
X125021507Y-103690000D01*
X124944230Y-103674628D01*
X124828311Y-103651571D01*
X124646322Y-103576189D01*
X124482537Y-103466751D01*
X124343249Y-103327463D01*
X124233811Y-103163678D01*
X124158429Y-102981689D01*
X124120000Y-102788491D01*
X124120000Y-102591509D01*
X124158429Y-102398311D01*
X124233811Y-102216322D01*
X124343249Y-102052537D01*
X124482537Y-101913249D01*
X124646322Y-101803811D01*
X124828311Y-101728429D01*
X124944230Y-101705372D01*
X125021507Y-101690000D01*
X125218493Y-101690000D01*
X125295770Y-101705372D01*
X125295770Y-101705372D01*
G37*
G36*
X110055770Y-101705372D02*
X110171689Y-101728429D01*
X110353678Y-101803811D01*
X110517463Y-101913249D01*
X110656751Y-102052537D01*
X110766189Y-102216322D01*
X110841571Y-102398311D01*
X110880000Y-102591509D01*
X110880000Y-102788491D01*
X110841571Y-102981689D01*
X110766189Y-103163678D01*
X110656751Y-103327463D01*
X110517463Y-103466751D01*
X110353678Y-103576189D01*
X110171689Y-103651571D01*
X110055770Y-103674628D01*
X109978493Y-103690000D01*
X109781507Y-103690000D01*
X109704230Y-103674628D01*
X109588311Y-103651571D01*
X109406322Y-103576189D01*
X109242537Y-103466751D01*
X109103249Y-103327463D01*
X108993811Y-103163678D01*
X108918429Y-102981689D01*
X108880000Y-102788491D01*
X108880000Y-102591509D01*
X108918429Y-102398311D01*
X108993811Y-102216322D01*
X109103249Y-102052537D01*
X109242537Y-101913249D01*
X109406322Y-101803811D01*
X109588311Y-101728429D01*
X109704230Y-101705372D01*
X109781507Y-101690000D01*
X109978493Y-101690000D01*
X110055770Y-101705372D01*
X110055770Y-101705372D01*
G37*
G36*
X110055770Y-99165372D02*
X110171689Y-99188429D01*
X110353678Y-99263811D01*
X110517463Y-99373249D01*
X110656751Y-99512537D01*
X110766189Y-99676322D01*
X110841571Y-99858311D01*
X110880000Y-100051509D01*
X110880000Y-100248491D01*
X110841571Y-100441689D01*
X110766189Y-100623678D01*
X110656751Y-100787463D01*
X110517463Y-100926751D01*
X110353678Y-101036189D01*
X110171689Y-101111571D01*
X110055770Y-101134628D01*
X109978493Y-101150000D01*
X109781507Y-101150000D01*
X109704230Y-101134628D01*
X109588311Y-101111571D01*
X109406322Y-101036189D01*
X109242537Y-100926751D01*
X109103249Y-100787463D01*
X108993811Y-100623678D01*
X108918429Y-100441689D01*
X108880000Y-100248491D01*
X108880000Y-100051509D01*
X108918429Y-99858311D01*
X108993811Y-99676322D01*
X109103249Y-99512537D01*
X109242537Y-99373249D01*
X109406322Y-99263811D01*
X109588311Y-99188429D01*
X109704230Y-99165372D01*
X109781507Y-99150000D01*
X109978493Y-99150000D01*
X110055770Y-99165372D01*
X110055770Y-99165372D01*
G37*
G36*
X125295770Y-99165372D02*
X125411689Y-99188429D01*
X125593678Y-99263811D01*
X125757463Y-99373249D01*
X125896751Y-99512537D01*
X126006189Y-99676322D01*
X126081571Y-99858311D01*
X126120000Y-100051509D01*
X126120000Y-100248491D01*
X126081571Y-100441689D01*
X126006189Y-100623678D01*
X125896751Y-100787463D01*
X125757463Y-100926751D01*
X125593678Y-101036189D01*
X125411689Y-101111571D01*
X125295770Y-101134628D01*
X125218493Y-101150000D01*
X125021507Y-101150000D01*
X124944230Y-101134628D01*
X124828311Y-101111571D01*
X124646322Y-101036189D01*
X124482537Y-100926751D01*
X124343249Y-100787463D01*
X124233811Y-100623678D01*
X124158429Y-100441689D01*
X124120000Y-100248491D01*
X124120000Y-100051509D01*
X124158429Y-99858311D01*
X124233811Y-99676322D01*
X124343249Y-99512537D01*
X124482537Y-99373249D01*
X124646322Y-99263811D01*
X124828311Y-99188429D01*
X124944230Y-99165372D01*
X125021507Y-99150000D01*
X125218493Y-99150000D01*
X125295770Y-99165372D01*
X125295770Y-99165372D01*
G37*
G36*
X110055770Y-96625372D02*
X110171689Y-96648429D01*
X110353678Y-96723811D01*
X110517463Y-96833249D01*
X110656751Y-96972537D01*
X110766189Y-97136322D01*
X110841571Y-97318311D01*
X110880000Y-97511509D01*
X110880000Y-97708491D01*
X110841571Y-97901689D01*
X110766189Y-98083678D01*
X110656751Y-98247463D01*
X110517463Y-98386751D01*
X110353678Y-98496189D01*
X110171689Y-98571571D01*
X110055770Y-98594628D01*
X109978493Y-98610000D01*
X109781507Y-98610000D01*
X109704230Y-98594628D01*
X109588311Y-98571571D01*
X109406322Y-98496189D01*
X109242537Y-98386751D01*
X109103249Y-98247463D01*
X108993811Y-98083678D01*
X108918429Y-97901689D01*
X108880000Y-97708491D01*
X108880000Y-97511509D01*
X108918429Y-97318311D01*
X108993811Y-97136322D01*
X109103249Y-96972537D01*
X109242537Y-96833249D01*
X109406322Y-96723811D01*
X109588311Y-96648429D01*
X109704230Y-96625372D01*
X109781507Y-96610000D01*
X109978493Y-96610000D01*
X110055770Y-96625372D01*
X110055770Y-96625372D01*
G37*
G36*
X125295770Y-96625372D02*
X125411689Y-96648429D01*
X125593678Y-96723811D01*
X125757463Y-96833249D01*
X125896751Y-96972537D01*
X126006189Y-97136322D01*
X126081571Y-97318311D01*
X126120000Y-97511509D01*
X126120000Y-97708491D01*
X126081571Y-97901689D01*
X126006189Y-98083678D01*
X125896751Y-98247463D01*
X125757463Y-98386751D01*
X125593678Y-98496189D01*
X125411689Y-98571571D01*
X125295770Y-98594628D01*
X125218493Y-98610000D01*
X125021507Y-98610000D01*
X124944230Y-98594628D01*
X124828311Y-98571571D01*
X124646322Y-98496189D01*
X124482537Y-98386751D01*
X124343249Y-98247463D01*
X124233811Y-98083678D01*
X124158429Y-97901689D01*
X124120000Y-97708491D01*
X124120000Y-97511509D01*
X124158429Y-97318311D01*
X124233811Y-97136322D01*
X124343249Y-96972537D01*
X124482537Y-96833249D01*
X124646322Y-96723811D01*
X124828311Y-96648429D01*
X124944230Y-96625372D01*
X125021507Y-96610000D01*
X125218493Y-96610000D01*
X125295770Y-96625372D01*
X125295770Y-96625372D01*
G37*
G36*
X132010857Y-94032272D02*
X132211042Y-94115191D01*
X132391213Y-94235578D01*
X132544422Y-94388787D01*
X132664809Y-94568958D01*
X132747728Y-94769143D01*
X132790000Y-94981658D01*
X132790000Y-95198342D01*
X132747728Y-95410857D01*
X132664809Y-95611042D01*
X132544422Y-95791213D01*
X132391213Y-95944422D01*
X132211042Y-96064809D01*
X132010857Y-96147728D01*
X131798342Y-96190000D01*
X131581658Y-96190000D01*
X131369143Y-96147728D01*
X131168958Y-96064809D01*
X130988787Y-95944422D01*
X130835578Y-95791213D01*
X130715191Y-95611042D01*
X130632272Y-95410857D01*
X130590000Y-95198342D01*
X130590000Y-94981658D01*
X130632272Y-94769143D01*
X130715191Y-94568958D01*
X130835578Y-94388787D01*
X130988787Y-94235578D01*
X131168958Y-94115191D01*
X131369143Y-94032272D01*
X131581658Y-93990000D01*
X131798342Y-93990000D01*
X132010857Y-94032272D01*
X132010857Y-94032272D01*
G37*
G36*
X110055770Y-94085372D02*
X110171689Y-94108429D01*
X110353678Y-94183811D01*
X110517463Y-94293249D01*
X110656751Y-94432537D01*
X110766189Y-94596322D01*
X110841571Y-94778311D01*
X110864628Y-94894230D01*
X110880000Y-94971507D01*
X110880000Y-95168493D01*
X110864628Y-95245770D01*
X110841571Y-95361689D01*
X110766189Y-95543678D01*
X110656751Y-95707463D01*
X110517463Y-95846751D01*
X110353678Y-95956189D01*
X110171689Y-96031571D01*
X110055770Y-96054628D01*
X109978493Y-96070000D01*
X109781507Y-96070000D01*
X109704230Y-96054628D01*
X109588311Y-96031571D01*
X109406322Y-95956189D01*
X109242537Y-95846751D01*
X109103249Y-95707463D01*
X108993811Y-95543678D01*
X108918429Y-95361689D01*
X108895372Y-95245770D01*
X108880000Y-95168493D01*
X108880000Y-94971507D01*
X108895372Y-94894230D01*
X108918429Y-94778311D01*
X108993811Y-94596322D01*
X109103249Y-94432537D01*
X109242537Y-94293249D01*
X109406322Y-94183811D01*
X109588311Y-94108429D01*
X109704230Y-94085372D01*
X109781507Y-94070000D01*
X109978493Y-94070000D01*
X110055770Y-94085372D01*
X110055770Y-94085372D01*
G37*
G36*
X125295770Y-94085372D02*
X125411689Y-94108429D01*
X125593678Y-94183811D01*
X125757463Y-94293249D01*
X125896751Y-94432537D01*
X126006189Y-94596322D01*
X126081571Y-94778311D01*
X126104628Y-94894230D01*
X126120000Y-94971507D01*
X126120000Y-95168493D01*
X126104628Y-95245770D01*
X126081571Y-95361689D01*
X126006189Y-95543678D01*
X125896751Y-95707463D01*
X125757463Y-95846751D01*
X125593678Y-95956189D01*
X125411689Y-96031571D01*
X125295770Y-96054628D01*
X125218493Y-96070000D01*
X125021507Y-96070000D01*
X124944230Y-96054628D01*
X124828311Y-96031571D01*
X124646322Y-95956189D01*
X124482537Y-95846751D01*
X124343249Y-95707463D01*
X124233811Y-95543678D01*
X124158429Y-95361689D01*
X124135372Y-95245770D01*
X124120000Y-95168493D01*
X124120000Y-94971507D01*
X124135372Y-94894230D01*
X124158429Y-94778311D01*
X124233811Y-94596322D01*
X124343249Y-94432537D01*
X124482537Y-94293249D01*
X124646322Y-94183811D01*
X124828311Y-94108429D01*
X124944230Y-94085372D01*
X125021507Y-94070000D01*
X125218493Y-94070000D01*
X125295770Y-94085372D01*
X125295770Y-94085372D01*
G37*
G36*
X125295770Y-91545372D02*
X125411689Y-91568429D01*
X125593678Y-91643811D01*
X125757463Y-91753249D01*
X125896751Y-91892537D01*
X126006189Y-92056322D01*
X126081571Y-92238311D01*
X126120000Y-92431509D01*
X126120000Y-92628491D01*
X126081571Y-92821689D01*
X126006189Y-93003678D01*
X125896751Y-93167463D01*
X125757463Y-93306751D01*
X125593678Y-93416189D01*
X125411689Y-93491571D01*
X125295770Y-93514628D01*
X125218493Y-93530000D01*
X125021507Y-93530000D01*
X124944230Y-93514628D01*
X124828311Y-93491571D01*
X124646322Y-93416189D01*
X124482537Y-93306751D01*
X124343249Y-93167463D01*
X124233811Y-93003678D01*
X124158429Y-92821689D01*
X124120000Y-92628491D01*
X124120000Y-92431509D01*
X124158429Y-92238311D01*
X124233811Y-92056322D01*
X124343249Y-91892537D01*
X124482537Y-91753249D01*
X124646322Y-91643811D01*
X124828311Y-91568429D01*
X124944230Y-91545372D01*
X125021507Y-91530000D01*
X125218493Y-91530000D01*
X125295770Y-91545372D01*
X125295770Y-91545372D01*
G37*
G36*
X110055770Y-91545372D02*
X110171689Y-91568429D01*
X110353678Y-91643811D01*
X110517463Y-91753249D01*
X110656751Y-91892537D01*
X110766189Y-92056322D01*
X110841571Y-92238311D01*
X110880000Y-92431509D01*
X110880000Y-92628491D01*
X110841571Y-92821689D01*
X110766189Y-93003678D01*
X110656751Y-93167463D01*
X110517463Y-93306751D01*
X110353678Y-93416189D01*
X110171689Y-93491571D01*
X110055770Y-93514628D01*
X109978493Y-93530000D01*
X109781507Y-93530000D01*
X109704230Y-93514628D01*
X109588311Y-93491571D01*
X109406322Y-93416189D01*
X109242537Y-93306751D01*
X109103249Y-93167463D01*
X108993811Y-93003678D01*
X108918429Y-92821689D01*
X108880000Y-92628491D01*
X108880000Y-92431509D01*
X108918429Y-92238311D01*
X108993811Y-92056322D01*
X109103249Y-91892537D01*
X109242537Y-91753249D01*
X109406322Y-91643811D01*
X109588311Y-91568429D01*
X109704230Y-91545372D01*
X109781507Y-91530000D01*
X109978493Y-91530000D01*
X110055770Y-91545372D01*
X110055770Y-91545372D01*
G37*
G36*
X152470603Y-91164968D02*
X152470606Y-91164969D01*
X152470605Y-91164969D01*
X152645678Y-91237486D01*
X152645679Y-91237487D01*
X152803241Y-91342767D01*
X152937233Y-91476759D01*
X152937234Y-91476761D01*
X153042514Y-91634322D01*
X153046444Y-91643811D01*
X153115032Y-91809397D01*
X153152000Y-91995250D01*
X153152000Y-92184750D01*
X153115032Y-92370603D01*
X153115031Y-92370605D01*
X153042514Y-92545678D01*
X153042513Y-92545679D01*
X152937233Y-92703241D01*
X152803241Y-92837233D01*
X152723923Y-92890232D01*
X152645678Y-92942514D01*
X152510266Y-92998603D01*
X152470603Y-93015032D01*
X152284750Y-93052000D01*
X152095250Y-93052000D01*
X151909397Y-93015032D01*
X151869734Y-92998603D01*
X151734322Y-92942514D01*
X151656077Y-92890232D01*
X151576759Y-92837233D01*
X151442767Y-92703241D01*
X151337487Y-92545679D01*
X151337486Y-92545678D01*
X151264969Y-92370605D01*
X151264968Y-92370603D01*
X151228000Y-92184750D01*
X151228000Y-91995250D01*
X151264968Y-91809397D01*
X151333556Y-91643811D01*
X151337486Y-91634322D01*
X151442766Y-91476761D01*
X151442767Y-91476759D01*
X151576759Y-91342767D01*
X151734321Y-91237487D01*
X151734322Y-91237486D01*
X151909395Y-91164969D01*
X151909394Y-91164969D01*
X151909397Y-91164968D01*
X152095250Y-91128000D01*
X152284750Y-91128000D01*
X152470603Y-91164968D01*
X152470603Y-91164968D01*
G37*
G36*
X129470603Y-91164968D02*
X129470606Y-91164969D01*
X129470605Y-91164969D01*
X129645678Y-91237486D01*
X129645679Y-91237487D01*
X129803241Y-91342767D01*
X129937233Y-91476759D01*
X129937234Y-91476761D01*
X130042514Y-91634322D01*
X130046444Y-91643811D01*
X130115032Y-91809397D01*
X130152000Y-91995250D01*
X130152000Y-92184750D01*
X130115032Y-92370603D01*
X130115031Y-92370605D01*
X130042514Y-92545678D01*
X130042513Y-92545679D01*
X129937233Y-92703241D01*
X129803241Y-92837233D01*
X129723923Y-92890232D01*
X129645678Y-92942514D01*
X129510266Y-92998603D01*
X129470603Y-93015032D01*
X129284750Y-93052000D01*
X129095250Y-93052000D01*
X128909397Y-93015032D01*
X128869734Y-92998603D01*
X128734322Y-92942514D01*
X128656077Y-92890232D01*
X128576759Y-92837233D01*
X128442767Y-92703241D01*
X128337487Y-92545679D01*
X128337486Y-92545678D01*
X128264969Y-92370605D01*
X128264968Y-92370603D01*
X128228000Y-92184750D01*
X128228000Y-91995250D01*
X128264968Y-91809397D01*
X128333556Y-91643811D01*
X128337486Y-91634322D01*
X128442766Y-91476761D01*
X128442767Y-91476759D01*
X128576759Y-91342767D01*
X128734321Y-91237487D01*
X128734322Y-91237486D01*
X128909395Y-91164969D01*
X128909394Y-91164969D01*
X128909397Y-91164968D01*
X129095250Y-91128000D01*
X129284750Y-91128000D01*
X129470603Y-91164968D01*
X129470603Y-91164968D01*
G37*
G36*
X110055770Y-89005372D02*
X110171689Y-89028429D01*
X110353678Y-89103811D01*
X110517463Y-89213249D01*
X110656751Y-89352537D01*
X110766189Y-89516322D01*
X110841571Y-89698311D01*
X110880000Y-89891509D01*
X110880000Y-90088491D01*
X110841571Y-90281689D01*
X110766189Y-90463678D01*
X110656751Y-90627463D01*
X110517463Y-90766751D01*
X110353678Y-90876189D01*
X110171689Y-90951571D01*
X110055770Y-90974628D01*
X109978493Y-90990000D01*
X109781507Y-90990000D01*
X109704230Y-90974628D01*
X109588311Y-90951571D01*
X109406322Y-90876189D01*
X109242537Y-90766751D01*
X109103249Y-90627463D01*
X108993811Y-90463678D01*
X108918429Y-90281689D01*
X108880000Y-90088491D01*
X108880000Y-89891509D01*
X108918429Y-89698311D01*
X108993811Y-89516322D01*
X109103249Y-89352537D01*
X109242537Y-89213249D01*
X109406322Y-89103811D01*
X109588311Y-89028429D01*
X109704230Y-89005372D01*
X109781507Y-88990000D01*
X109978493Y-88990000D01*
X110055770Y-89005372D01*
X110055770Y-89005372D01*
G37*
G36*
X125295770Y-89005372D02*
X125411689Y-89028429D01*
X125593678Y-89103811D01*
X125757463Y-89213249D01*
X125896751Y-89352537D01*
X126006189Y-89516322D01*
X126081571Y-89698311D01*
X126120000Y-89891509D01*
X126120000Y-90088491D01*
X126081571Y-90281689D01*
X126006189Y-90463678D01*
X125896751Y-90627463D01*
X125757463Y-90766751D01*
X125593678Y-90876189D01*
X125411689Y-90951571D01*
X125295770Y-90974628D01*
X125218493Y-90990000D01*
X125021507Y-90990000D01*
X124944230Y-90974628D01*
X124828311Y-90951571D01*
X124646322Y-90876189D01*
X124482537Y-90766751D01*
X124343249Y-90627463D01*
X124233811Y-90463678D01*
X124158429Y-90281689D01*
X124120000Y-90088491D01*
X124120000Y-89891509D01*
X124158429Y-89698311D01*
X124233811Y-89516322D01*
X124343249Y-89352537D01*
X124482537Y-89213249D01*
X124646322Y-89103811D01*
X124828311Y-89028429D01*
X124944230Y-89005372D01*
X125021507Y-88990000D01*
X125218493Y-88990000D01*
X125295770Y-89005372D01*
X125295770Y-89005372D01*
G37*
G36*
X129470603Y-88664968D02*
X129470606Y-88664969D01*
X129470605Y-88664969D01*
X129645678Y-88737486D01*
X129645679Y-88737487D01*
X129803241Y-88842767D01*
X129937233Y-88976759D01*
X129937234Y-88976761D01*
X130042514Y-89134322D01*
X130075206Y-89213249D01*
X130115032Y-89309397D01*
X130152000Y-89495250D01*
X130152000Y-89684750D01*
X130115032Y-89870603D01*
X130115031Y-89870605D01*
X130042514Y-90045678D01*
X129990232Y-90123923D01*
X129937233Y-90203241D01*
X129803241Y-90337233D01*
X129723923Y-90390232D01*
X129645678Y-90442514D01*
X129510266Y-90498603D01*
X129470603Y-90515032D01*
X129284750Y-90552000D01*
X129095250Y-90552000D01*
X128909397Y-90515032D01*
X128869734Y-90498603D01*
X128734322Y-90442514D01*
X128656077Y-90390232D01*
X128576759Y-90337233D01*
X128442767Y-90203241D01*
X128389768Y-90123923D01*
X128337486Y-90045678D01*
X128264969Y-89870605D01*
X128264968Y-89870603D01*
X128228000Y-89684750D01*
X128228000Y-89495250D01*
X128264968Y-89309397D01*
X128304794Y-89213249D01*
X128337486Y-89134322D01*
X128442766Y-88976761D01*
X128442767Y-88976759D01*
X128576759Y-88842767D01*
X128734321Y-88737487D01*
X128734322Y-88737486D01*
X128909395Y-88664969D01*
X128909394Y-88664969D01*
X128909397Y-88664968D01*
X129095250Y-88628000D01*
X129284750Y-88628000D01*
X129470603Y-88664968D01*
X129470603Y-88664968D01*
G37*
G36*
X152470603Y-88664968D02*
X152470606Y-88664969D01*
X152470605Y-88664969D01*
X152645678Y-88737486D01*
X152645679Y-88737487D01*
X152803241Y-88842767D01*
X152937233Y-88976759D01*
X152937234Y-88976761D01*
X153042514Y-89134322D01*
X153075206Y-89213249D01*
X153115032Y-89309397D01*
X153152000Y-89495250D01*
X153152000Y-89684750D01*
X153115032Y-89870603D01*
X153115031Y-89870605D01*
X153042514Y-90045678D01*
X152990232Y-90123923D01*
X152937233Y-90203241D01*
X152803241Y-90337233D01*
X152723923Y-90390232D01*
X152645678Y-90442514D01*
X152510266Y-90498603D01*
X152470603Y-90515032D01*
X152284750Y-90552000D01*
X152095250Y-90552000D01*
X151909397Y-90515032D01*
X151869734Y-90498603D01*
X151734322Y-90442514D01*
X151656077Y-90390232D01*
X151576759Y-90337233D01*
X151442767Y-90203241D01*
X151389768Y-90123923D01*
X151337486Y-90045678D01*
X151264969Y-89870605D01*
X151264968Y-89870603D01*
X151228000Y-89684750D01*
X151228000Y-89495250D01*
X151264968Y-89309397D01*
X151304794Y-89213249D01*
X151337486Y-89134322D01*
X151442766Y-88976761D01*
X151442767Y-88976759D01*
X151576759Y-88842767D01*
X151734321Y-88737487D01*
X151734322Y-88737486D01*
X151909395Y-88664969D01*
X151909394Y-88664969D01*
X151909397Y-88664968D01*
X152095250Y-88628000D01*
X152284750Y-88628000D01*
X152470603Y-88664968D01*
X152470603Y-88664968D01*
G37*
G36*
X110055770Y-86465372D02*
X110171689Y-86488429D01*
X110353678Y-86563811D01*
X110517463Y-86673249D01*
X110656751Y-86812537D01*
X110766189Y-86976322D01*
X110841571Y-87158311D01*
X110880000Y-87351509D01*
X110880000Y-87548491D01*
X110841571Y-87741689D01*
X110766189Y-87923678D01*
X110656751Y-88087463D01*
X110517463Y-88226751D01*
X110353678Y-88336189D01*
X110171689Y-88411571D01*
X110055770Y-88434628D01*
X109978493Y-88450000D01*
X109781507Y-88450000D01*
X109704230Y-88434628D01*
X109588311Y-88411571D01*
X109406322Y-88336189D01*
X109242537Y-88226751D01*
X109103249Y-88087463D01*
X108993811Y-87923678D01*
X108918429Y-87741689D01*
X108880000Y-87548491D01*
X108880000Y-87351509D01*
X108918429Y-87158311D01*
X108993811Y-86976322D01*
X109103249Y-86812537D01*
X109242537Y-86673249D01*
X109406322Y-86563811D01*
X109588311Y-86488429D01*
X109704230Y-86465372D01*
X109781507Y-86450000D01*
X109978493Y-86450000D01*
X110055770Y-86465372D01*
X110055770Y-86465372D01*
G37*
G36*
X125295770Y-86465372D02*
X125411689Y-86488429D01*
X125593678Y-86563811D01*
X125757463Y-86673249D01*
X125896751Y-86812537D01*
X126006189Y-86976322D01*
X126081571Y-87158311D01*
X126120000Y-87351509D01*
X126120000Y-87548491D01*
X126081571Y-87741689D01*
X126006189Y-87923678D01*
X125896751Y-88087463D01*
X125757463Y-88226751D01*
X125593678Y-88336189D01*
X125411689Y-88411571D01*
X125295770Y-88434628D01*
X125218493Y-88450000D01*
X125021507Y-88450000D01*
X124944230Y-88434628D01*
X124828311Y-88411571D01*
X124646322Y-88336189D01*
X124482537Y-88226751D01*
X124343249Y-88087463D01*
X124233811Y-87923678D01*
X124158429Y-87741689D01*
X124120000Y-87548491D01*
X124120000Y-87351509D01*
X124158429Y-87158311D01*
X124233811Y-86976322D01*
X124343249Y-86812537D01*
X124482537Y-86673249D01*
X124646322Y-86563811D01*
X124828311Y-86488429D01*
X124944230Y-86465372D01*
X125021507Y-86450000D01*
X125218493Y-86450000D01*
X125295770Y-86465372D01*
X125295770Y-86465372D01*
G37*
G36*
X125295770Y-83925372D02*
X125411689Y-83948429D01*
X125593678Y-84023811D01*
X125757463Y-84133249D01*
X125896751Y-84272537D01*
X126006189Y-84436322D01*
X126081571Y-84618311D01*
X126120000Y-84811509D01*
X126120000Y-85008491D01*
X126081571Y-85201689D01*
X126006189Y-85383678D01*
X125896751Y-85547463D01*
X125757463Y-85686751D01*
X125593678Y-85796189D01*
X125411689Y-85871571D01*
X125295770Y-85894628D01*
X125218493Y-85910000D01*
X125021507Y-85910000D01*
X124944230Y-85894628D01*
X124828311Y-85871571D01*
X124646322Y-85796189D01*
X124482537Y-85686751D01*
X124343249Y-85547463D01*
X124233811Y-85383678D01*
X124158429Y-85201689D01*
X124120000Y-85008491D01*
X124120000Y-84811509D01*
X124158429Y-84618311D01*
X124233811Y-84436322D01*
X124343249Y-84272537D01*
X124482537Y-84133249D01*
X124646322Y-84023811D01*
X124828311Y-83948429D01*
X124944230Y-83925372D01*
X125021507Y-83910000D01*
X125218493Y-83910000D01*
X125295770Y-83925372D01*
X125295770Y-83925372D01*
G37*
G36*
X110055770Y-83925372D02*
X110171689Y-83948429D01*
X110353678Y-84023811D01*
X110517463Y-84133249D01*
X110656751Y-84272537D01*
X110766189Y-84436322D01*
X110841571Y-84618311D01*
X110880000Y-84811509D01*
X110880000Y-85008491D01*
X110841571Y-85201689D01*
X110766189Y-85383678D01*
X110656751Y-85547463D01*
X110517463Y-85686751D01*
X110353678Y-85796189D01*
X110171689Y-85871571D01*
X110055770Y-85894628D01*
X109978493Y-85910000D01*
X109781507Y-85910000D01*
X109704230Y-85894628D01*
X109588311Y-85871571D01*
X109406322Y-85796189D01*
X109242537Y-85686751D01*
X109103249Y-85547463D01*
X108993811Y-85383678D01*
X108918429Y-85201689D01*
X108880000Y-85008491D01*
X108880000Y-84811509D01*
X108918429Y-84618311D01*
X108993811Y-84436322D01*
X109103249Y-84272537D01*
X109242537Y-84133249D01*
X109406322Y-84023811D01*
X109588311Y-83948429D01*
X109704230Y-83925372D01*
X109781507Y-83910000D01*
X109978493Y-83910000D01*
X110055770Y-83925372D01*
X110055770Y-83925372D01*
G37*
G36*
X152470603Y-83664968D02*
X152470606Y-83664969D01*
X152470605Y-83664969D01*
X152645678Y-83737486D01*
X152645679Y-83737487D01*
X152803241Y-83842767D01*
X152937233Y-83976759D01*
X152937234Y-83976761D01*
X153042514Y-84134322D01*
X153094443Y-84259691D01*
X153115032Y-84309397D01*
X153152000Y-84495250D01*
X153152000Y-84684750D01*
X153115032Y-84870603D01*
X153115031Y-84870605D01*
X153042514Y-85045678D01*
X153042513Y-85045679D01*
X152937233Y-85203241D01*
X152803241Y-85337233D01*
X152733736Y-85383675D01*
X152645678Y-85442514D01*
X152510266Y-85498603D01*
X152470603Y-85515032D01*
X152284750Y-85552000D01*
X152095250Y-85552000D01*
X151909397Y-85515032D01*
X151869734Y-85498603D01*
X151734322Y-85442514D01*
X151646264Y-85383675D01*
X151576759Y-85337233D01*
X151442767Y-85203241D01*
X151337487Y-85045679D01*
X151337486Y-85045678D01*
X151264969Y-84870605D01*
X151264968Y-84870603D01*
X151228000Y-84684750D01*
X151228000Y-84495250D01*
X151264968Y-84309397D01*
X151285557Y-84259691D01*
X151337486Y-84134322D01*
X151442766Y-83976761D01*
X151442767Y-83976759D01*
X151576759Y-83842767D01*
X151734321Y-83737487D01*
X151734322Y-83737486D01*
X151909395Y-83664969D01*
X151909394Y-83664969D01*
X151909397Y-83664968D01*
X152095250Y-83628000D01*
X152284750Y-83628000D01*
X152470603Y-83664968D01*
X152470603Y-83664968D01*
G37*
G36*
X92844959Y-79672577D02*
X93185470Y-79740309D01*
X93613143Y-79917457D01*
X93998038Y-80174636D01*
X94325364Y-80501962D01*
X94582543Y-80886857D01*
X94759691Y-81314530D01*
X94850000Y-81768545D01*
X94850000Y-82231455D01*
X94759691Y-82685470D01*
X94582543Y-83113143D01*
X94325364Y-83498038D01*
X93998038Y-83825364D01*
X93613143Y-84082543D01*
X93185470Y-84259691D01*
X92844959Y-84327423D01*
X92731456Y-84350000D01*
X92268544Y-84350000D01*
X92155041Y-84327423D01*
X91814530Y-84259691D01*
X91386857Y-84082543D01*
X91001962Y-83825364D01*
X90674636Y-83498038D01*
X90417457Y-83113143D01*
X90240309Y-82685470D01*
X90150000Y-82231455D01*
X90150000Y-81768545D01*
X90240309Y-81314530D01*
X90417457Y-80886857D01*
X90674636Y-80501962D01*
X91001962Y-80174636D01*
X91386857Y-79917457D01*
X91814530Y-79740309D01*
X92155041Y-79672577D01*
X92268544Y-79650000D01*
X92731456Y-79650000D01*
X92844959Y-79672577D01*
X92844959Y-79672577D01*
G37*
G36*
X207844959Y-79672577D02*
X208185470Y-79740309D01*
X208613143Y-79917457D01*
X208998038Y-80174636D01*
X209325364Y-80501962D01*
X209582543Y-80886857D01*
X209759691Y-81314530D01*
X209850000Y-81768545D01*
X209850000Y-82231455D01*
X209759691Y-82685470D01*
X209582543Y-83113143D01*
X209325364Y-83498038D01*
X208998038Y-83825364D01*
X208613143Y-84082543D01*
X208185470Y-84259691D01*
X207844959Y-84327423D01*
X207731456Y-84350000D01*
X207268544Y-84350000D01*
X207155041Y-84327423D01*
X206814530Y-84259691D01*
X206386857Y-84082543D01*
X206001962Y-83825364D01*
X205674636Y-83498038D01*
X205417457Y-83113143D01*
X205240309Y-82685470D01*
X205150000Y-82231455D01*
X205150000Y-81768545D01*
X205240309Y-81314530D01*
X205417457Y-80886857D01*
X205674636Y-80501962D01*
X206001962Y-80174636D01*
X206386857Y-79917457D01*
X206814530Y-79740309D01*
X207155041Y-79672577D01*
X207268544Y-79650000D01*
X207731456Y-79650000D01*
X207844959Y-79672577D01*
X207844959Y-79672577D01*
G37*
G36*
X110055770Y-81385372D02*
X110171689Y-81408429D01*
X110353678Y-81483811D01*
X110517463Y-81593249D01*
X110656751Y-81732537D01*
X110766189Y-81896322D01*
X110841571Y-82078311D01*
X110880000Y-82271509D01*
X110880000Y-82468491D01*
X110841571Y-82661689D01*
X110766189Y-82843678D01*
X110656751Y-83007463D01*
X110517463Y-83146751D01*
X110353678Y-83256189D01*
X110171689Y-83331571D01*
X110055770Y-83354628D01*
X109978493Y-83370000D01*
X109781507Y-83370000D01*
X109704230Y-83354628D01*
X109588311Y-83331571D01*
X109406322Y-83256189D01*
X109242537Y-83146751D01*
X109103249Y-83007463D01*
X108993811Y-82843678D01*
X108918429Y-82661689D01*
X108880000Y-82468491D01*
X108880000Y-82271509D01*
X108918429Y-82078311D01*
X108993811Y-81896322D01*
X109103249Y-81732537D01*
X109242537Y-81593249D01*
X109406322Y-81483811D01*
X109588311Y-81408429D01*
X109704230Y-81385372D01*
X109781507Y-81370000D01*
X109978493Y-81370000D01*
X110055770Y-81385372D01*
X110055770Y-81385372D01*
G37*
G36*
X125295770Y-81385372D02*
X125411689Y-81408429D01*
X125593678Y-81483811D01*
X125757463Y-81593249D01*
X125896751Y-81732537D01*
X126006189Y-81896322D01*
X126081571Y-82078311D01*
X126120000Y-82271509D01*
X126120000Y-82468491D01*
X126081571Y-82661689D01*
X126006189Y-82843678D01*
X125896751Y-83007463D01*
X125757463Y-83146751D01*
X125593678Y-83256189D01*
X125411689Y-83331571D01*
X125295770Y-83354628D01*
X125218493Y-83370000D01*
X125021507Y-83370000D01*
X124944230Y-83354628D01*
X124828311Y-83331571D01*
X124646322Y-83256189D01*
X124482537Y-83146751D01*
X124343249Y-83007463D01*
X124233811Y-82843678D01*
X124158429Y-82661689D01*
X124120000Y-82468491D01*
X124120000Y-82271509D01*
X124158429Y-82078311D01*
X124233811Y-81896322D01*
X124343249Y-81732537D01*
X124482537Y-81593249D01*
X124646322Y-81483811D01*
X124828311Y-81408429D01*
X124944230Y-81385372D01*
X125021507Y-81370000D01*
X125218493Y-81370000D01*
X125295770Y-81385372D01*
X125295770Y-81385372D01*
G37*
G36*
X129470603Y-81164968D02*
X129470606Y-81164969D01*
X129470605Y-81164969D01*
X129645678Y-81237486D01*
X129645679Y-81237487D01*
X129803241Y-81342767D01*
X129937233Y-81476759D01*
X129937234Y-81476761D01*
X130042514Y-81634322D01*
X130098110Y-81768544D01*
X130115032Y-81809397D01*
X130152000Y-81995250D01*
X130152000Y-82184750D01*
X130115032Y-82370603D01*
X130115031Y-82370605D01*
X130042514Y-82545678D01*
X130042513Y-82545679D01*
X129937233Y-82703241D01*
X129803241Y-82837233D01*
X129793595Y-82843678D01*
X129645678Y-82942514D01*
X129510266Y-82998603D01*
X129470603Y-83015032D01*
X129284750Y-83052000D01*
X129095250Y-83052000D01*
X128909397Y-83015032D01*
X128869734Y-82998603D01*
X128734322Y-82942514D01*
X128586405Y-82843678D01*
X128576759Y-82837233D01*
X128442767Y-82703241D01*
X128337487Y-82545679D01*
X128337486Y-82545678D01*
X128264969Y-82370605D01*
X128264968Y-82370603D01*
X128228000Y-82184750D01*
X128228000Y-81995250D01*
X128264968Y-81809397D01*
X128281890Y-81768544D01*
X128337486Y-81634322D01*
X128442766Y-81476761D01*
X128442767Y-81476759D01*
X128576759Y-81342767D01*
X128734321Y-81237487D01*
X128734322Y-81237486D01*
X128909395Y-81164969D01*
X128909394Y-81164969D01*
X128909397Y-81164968D01*
X129095250Y-81128000D01*
X129284750Y-81128000D01*
X129470603Y-81164968D01*
X129470603Y-81164968D01*
G37*
G36*
X152470603Y-81164968D02*
X152470606Y-81164969D01*
X152470605Y-81164969D01*
X152645678Y-81237486D01*
X152645679Y-81237487D01*
X152803241Y-81342767D01*
X152937233Y-81476759D01*
X152937234Y-81476761D01*
X153042514Y-81634322D01*
X153098110Y-81768544D01*
X153115032Y-81809397D01*
X153152000Y-81995250D01*
X153152000Y-82184750D01*
X153115032Y-82370603D01*
X153115031Y-82370605D01*
X153042514Y-82545678D01*
X153042513Y-82545679D01*
X152937233Y-82703241D01*
X152803241Y-82837233D01*
X152793595Y-82843678D01*
X152645678Y-82942514D01*
X152510266Y-82998603D01*
X152470603Y-83015032D01*
X152284750Y-83052000D01*
X152095250Y-83052000D01*
X151909397Y-83015032D01*
X151869734Y-82998603D01*
X151734322Y-82942514D01*
X151586405Y-82843678D01*
X151576759Y-82837233D01*
X151442767Y-82703241D01*
X151337487Y-82545679D01*
X151337486Y-82545678D01*
X151264969Y-82370605D01*
X151264968Y-82370603D01*
X151228000Y-82184750D01*
X151228000Y-81995250D01*
X151264968Y-81809397D01*
X151281890Y-81768544D01*
X151337486Y-81634322D01*
X151442766Y-81476761D01*
X151442767Y-81476759D01*
X151576759Y-81342767D01*
X151734321Y-81237487D01*
X151734322Y-81237486D01*
X151909395Y-81164969D01*
X151909394Y-81164969D01*
X151909397Y-81164968D01*
X152095250Y-81128000D01*
X152284750Y-81128000D01*
X152470603Y-81164968D01*
X152470603Y-81164968D01*
G37*
G36*
X125295770Y-78845372D02*
X125411689Y-78868429D01*
X125593678Y-78943811D01*
X125757463Y-79053249D01*
X125896751Y-79192537D01*
X126006189Y-79356322D01*
X126081571Y-79538311D01*
X126120000Y-79731509D01*
X126120000Y-79928491D01*
X126081571Y-80121689D01*
X126006189Y-80303678D01*
X125896751Y-80467463D01*
X125757463Y-80606751D01*
X125593678Y-80716189D01*
X125411689Y-80791571D01*
X125295770Y-80814628D01*
X125218493Y-80830000D01*
X125021507Y-80830000D01*
X124944230Y-80814628D01*
X124828311Y-80791571D01*
X124646322Y-80716189D01*
X124482537Y-80606751D01*
X124343249Y-80467463D01*
X124233811Y-80303678D01*
X124158429Y-80121689D01*
X124120000Y-79928491D01*
X124120000Y-79731509D01*
X124158429Y-79538311D01*
X124233811Y-79356322D01*
X124343249Y-79192537D01*
X124482537Y-79053249D01*
X124646322Y-78943811D01*
X124828311Y-78868429D01*
X124944230Y-78845372D01*
X125021507Y-78830000D01*
X125218493Y-78830000D01*
X125295770Y-78845372D01*
X125295770Y-78845372D01*
G37*
G36*
X110055770Y-78845372D02*
X110171689Y-78868429D01*
X110353678Y-78943811D01*
X110517463Y-79053249D01*
X110656751Y-79192537D01*
X110766189Y-79356322D01*
X110841571Y-79538311D01*
X110880000Y-79731509D01*
X110880000Y-79928491D01*
X110841571Y-80121689D01*
X110766189Y-80303678D01*
X110656751Y-80467463D01*
X110517463Y-80606751D01*
X110353678Y-80716189D01*
X110171689Y-80791571D01*
X110055770Y-80814628D01*
X109978493Y-80830000D01*
X109781507Y-80830000D01*
X109704230Y-80814628D01*
X109588311Y-80791571D01*
X109406322Y-80716189D01*
X109242537Y-80606751D01*
X109103249Y-80467463D01*
X108993811Y-80303678D01*
X108918429Y-80121689D01*
X108880000Y-79928491D01*
X108880000Y-79731509D01*
X108918429Y-79538311D01*
X108993811Y-79356322D01*
X109103249Y-79192537D01*
X109242537Y-79053249D01*
X109406322Y-78943811D01*
X109588311Y-78868429D01*
X109704230Y-78845372D01*
X109781507Y-78830000D01*
X109978493Y-78830000D01*
X110055770Y-78845372D01*
X110055770Y-78845372D01*
G37*
G36*
X150010857Y-78032272D02*
X150211042Y-78115191D01*
X150391213Y-78235578D01*
X150544422Y-78388787D01*
X150664809Y-78568958D01*
X150747728Y-78769143D01*
X150790000Y-78981658D01*
X150790000Y-79198342D01*
X150747728Y-79410857D01*
X150664809Y-79611042D01*
X150664807Y-79611045D01*
X150584317Y-79731507D01*
X150544422Y-79791213D01*
X150391213Y-79944422D01*
X150211042Y-80064809D01*
X150010857Y-80147728D01*
X149798342Y-80190000D01*
X149581658Y-80190000D01*
X149369143Y-80147728D01*
X149168958Y-80064809D01*
X148988787Y-79944422D01*
X148835578Y-79791213D01*
X148795684Y-79731507D01*
X148715193Y-79611045D01*
X148715191Y-79611042D01*
X148632272Y-79410857D01*
X148590000Y-79198342D01*
X148590000Y-78981658D01*
X148632272Y-78769143D01*
X148715191Y-78568958D01*
X148835578Y-78388787D01*
X148988787Y-78235578D01*
X149168958Y-78115191D01*
X149369143Y-78032272D01*
X149581658Y-77990000D01*
X149798342Y-77990000D01*
X150010857Y-78032272D01*
X150010857Y-78032272D01*
G37*
G36*
X110055770Y-76305372D02*
X110171689Y-76328429D01*
X110353678Y-76403811D01*
X110517463Y-76513249D01*
X110656751Y-76652537D01*
X110766189Y-76816322D01*
X110841571Y-76998311D01*
X110880000Y-77191509D01*
X110880000Y-77388491D01*
X110841571Y-77581689D01*
X110766189Y-77763678D01*
X110656751Y-77927463D01*
X110517463Y-78066751D01*
X110353678Y-78176189D01*
X110171689Y-78251571D01*
X110055770Y-78274628D01*
X109978493Y-78290000D01*
X109781507Y-78290000D01*
X109704230Y-78274628D01*
X109588311Y-78251571D01*
X109406322Y-78176189D01*
X109242537Y-78066751D01*
X109103249Y-77927463D01*
X108993811Y-77763678D01*
X108918429Y-77581689D01*
X108880000Y-77388491D01*
X108880000Y-77191509D01*
X108918429Y-76998311D01*
X108993811Y-76816322D01*
X109103249Y-76652537D01*
X109242537Y-76513249D01*
X109406322Y-76403811D01*
X109588311Y-76328429D01*
X109704230Y-76305372D01*
X109781507Y-76290000D01*
X109978493Y-76290000D01*
X110055770Y-76305372D01*
X110055770Y-76305372D01*
G37*
G36*
X125295770Y-76305372D02*
X125411689Y-76328429D01*
X125593678Y-76403811D01*
X125757463Y-76513249D01*
X125896751Y-76652537D01*
X126006189Y-76816322D01*
X126081571Y-76998311D01*
X126120000Y-77191509D01*
X126120000Y-77388491D01*
X126081571Y-77581689D01*
X126006189Y-77763678D01*
X125896751Y-77927463D01*
X125757463Y-78066751D01*
X125593678Y-78176189D01*
X125411689Y-78251571D01*
X125295770Y-78274628D01*
X125218493Y-78290000D01*
X125021507Y-78290000D01*
X124944230Y-78274628D01*
X124828311Y-78251571D01*
X124646322Y-78176189D01*
X124482537Y-78066751D01*
X124343249Y-77927463D01*
X124233811Y-77763678D01*
X124158429Y-77581689D01*
X124120000Y-77388491D01*
X124120000Y-77191509D01*
X124158429Y-76998311D01*
X124233811Y-76816322D01*
X124343249Y-76652537D01*
X124482537Y-76513249D01*
X124646322Y-76403811D01*
X124828311Y-76328429D01*
X124944230Y-76305372D01*
X125021507Y-76290000D01*
X125218493Y-76290000D01*
X125295770Y-76305372D01*
X125295770Y-76305372D01*
G37*
G36*
X109125888Y-69954470D02*
X109306274Y-69990350D01*
X109497362Y-70069502D01*
X109669336Y-70184411D01*
X109815589Y-70330664D01*
X109930498Y-70502638D01*
X110009650Y-70693726D01*
X110050000Y-70896584D01*
X110050000Y-71103416D01*
X110009650Y-71306274D01*
X109930498Y-71497362D01*
X109815589Y-71669336D01*
X109669336Y-71815589D01*
X109497362Y-71930498D01*
X109306274Y-72009650D01*
X109125888Y-72045530D01*
X109103417Y-72050000D01*
X108896583Y-72050000D01*
X108874112Y-72045530D01*
X108693726Y-72009650D01*
X108502638Y-71930498D01*
X108330664Y-71815589D01*
X108184411Y-71669336D01*
X108069502Y-71497362D01*
X107990350Y-71306274D01*
X107950000Y-71103416D01*
X107950000Y-70896584D01*
X107990350Y-70693726D01*
X108069502Y-70502638D01*
X108184411Y-70330664D01*
X108330664Y-70184411D01*
X108502638Y-70069502D01*
X108693726Y-69990350D01*
X108874112Y-69954470D01*
X108896583Y-69950000D01*
X109103417Y-69950000D01*
X109125888Y-69954470D01*
X109125888Y-69954470D01*
G37*
G36*
X106625888Y-69954470D02*
X106806274Y-69990350D01*
X106997362Y-70069502D01*
X107169336Y-70184411D01*
X107315589Y-70330664D01*
X107430498Y-70502638D01*
X107509650Y-70693726D01*
X107550000Y-70896584D01*
X107550000Y-71103416D01*
X107509650Y-71306274D01*
X107430498Y-71497362D01*
X107315589Y-71669336D01*
X107169336Y-71815589D01*
X106997362Y-71930498D01*
X106806274Y-72009650D01*
X106625888Y-72045530D01*
X106603417Y-72050000D01*
X106396583Y-72050000D01*
X106374112Y-72045530D01*
X106193726Y-72009650D01*
X106002638Y-71930498D01*
X105830664Y-71815589D01*
X105684411Y-71669336D01*
X105569502Y-71497362D01*
X105490350Y-71306274D01*
X105450000Y-71103416D01*
X105450000Y-70896584D01*
X105490350Y-70693726D01*
X105569502Y-70502638D01*
X105684411Y-70330664D01*
X105830664Y-70184411D01*
X106002638Y-70069502D01*
X106193726Y-69990350D01*
X106374112Y-69954470D01*
X106396583Y-69950000D01*
X106603417Y-69950000D01*
X106625888Y-69954470D01*
X106625888Y-69954470D01*
G37*
G36*
X197725888Y-69954470D02*
X197906274Y-69990350D01*
X198097362Y-70069502D01*
X198269336Y-70184411D01*
X198415589Y-70330664D01*
X198530498Y-70502638D01*
X198609650Y-70693726D01*
X198650000Y-70896584D01*
X198650000Y-71103416D01*
X198609650Y-71306274D01*
X198530498Y-71497362D01*
X198415589Y-71669336D01*
X198269336Y-71815589D01*
X198097362Y-71930498D01*
X197906274Y-72009650D01*
X197725888Y-72045530D01*
X197703417Y-72050000D01*
X197496583Y-72050000D01*
X197474112Y-72045530D01*
X197293726Y-72009650D01*
X197102638Y-71930498D01*
X196930664Y-71815589D01*
X196784411Y-71669336D01*
X196669502Y-71497362D01*
X196590350Y-71306274D01*
X196550000Y-71103416D01*
X196550000Y-70896584D01*
X196590350Y-70693726D01*
X196669502Y-70502638D01*
X196784411Y-70330664D01*
X196930664Y-70184411D01*
X197102638Y-70069502D01*
X197293726Y-69990350D01*
X197474112Y-69954470D01*
X197496583Y-69950000D01*
X197703417Y-69950000D01*
X197725888Y-69954470D01*
X197725888Y-69954470D01*
G37*
G36*
X200225888Y-69954470D02*
X200406274Y-69990350D01*
X200597362Y-70069502D01*
X200769336Y-70184411D01*
X200915589Y-70330664D01*
X201030498Y-70502638D01*
X201109650Y-70693726D01*
X201150000Y-70896584D01*
X201150000Y-71103416D01*
X201109650Y-71306274D01*
X201030498Y-71497362D01*
X200915589Y-71669336D01*
X200769336Y-71815589D01*
X200597362Y-71930498D01*
X200406274Y-72009650D01*
X200225888Y-72045530D01*
X200203417Y-72050000D01*
X199996583Y-72050000D01*
X199974112Y-72045530D01*
X199793726Y-72009650D01*
X199602638Y-71930498D01*
X199430664Y-71815589D01*
X199284411Y-71669336D01*
X199169502Y-71497362D01*
X199090350Y-71306274D01*
X199050000Y-71103416D01*
X199050000Y-70896584D01*
X199090350Y-70693726D01*
X199169502Y-70502638D01*
X199284411Y-70330664D01*
X199430664Y-70184411D01*
X199602638Y-70069502D01*
X199793726Y-69990350D01*
X199974112Y-69954470D01*
X199996583Y-69950000D01*
X200203417Y-69950000D01*
X200225888Y-69954470D01*
X200225888Y-69954470D01*
G37*
G36*
X166725888Y-69954470D02*
X166906274Y-69990350D01*
X167097362Y-70069502D01*
X167269336Y-70184411D01*
X167415589Y-70330664D01*
X167530498Y-70502638D01*
X167609650Y-70693726D01*
X167650000Y-70896584D01*
X167650000Y-71103416D01*
X167609650Y-71306274D01*
X167530498Y-71497362D01*
X167415589Y-71669336D01*
X167269336Y-71815589D01*
X167097362Y-71930498D01*
X166906274Y-72009650D01*
X166725888Y-72045530D01*
X166703417Y-72050000D01*
X166496583Y-72050000D01*
X166474112Y-72045530D01*
X166293726Y-72009650D01*
X166102638Y-71930498D01*
X165930664Y-71815589D01*
X165784411Y-71669336D01*
X165669502Y-71497362D01*
X165590350Y-71306274D01*
X165550000Y-71103416D01*
X165550000Y-70896584D01*
X165590350Y-70693726D01*
X165669502Y-70502638D01*
X165784411Y-70330664D01*
X165930664Y-70184411D01*
X166102638Y-70069502D01*
X166293726Y-69990350D01*
X166474112Y-69954470D01*
X166496583Y-69950000D01*
X166703417Y-69950000D01*
X166725888Y-69954470D01*
X166725888Y-69954470D01*
G37*
G36*
X169225888Y-69954470D02*
X169406274Y-69990350D01*
X169597362Y-70069502D01*
X169769336Y-70184411D01*
X169915589Y-70330664D01*
X170030498Y-70502638D01*
X170109650Y-70693726D01*
X170150000Y-70896584D01*
X170150000Y-71103416D01*
X170109650Y-71306274D01*
X170030498Y-71497362D01*
X169915589Y-71669336D01*
X169769336Y-71815589D01*
X169597362Y-71930498D01*
X169406274Y-72009650D01*
X169225888Y-72045530D01*
X169203417Y-72050000D01*
X168996583Y-72050000D01*
X168974112Y-72045530D01*
X168793726Y-72009650D01*
X168602638Y-71930498D01*
X168430664Y-71815589D01*
X168284411Y-71669336D01*
X168169502Y-71497362D01*
X168090350Y-71306274D01*
X168050000Y-71103416D01*
X168050000Y-70896584D01*
X168090350Y-70693726D01*
X168169502Y-70502638D01*
X168284411Y-70330664D01*
X168430664Y-70184411D01*
X168602638Y-70069502D01*
X168793726Y-69990350D01*
X168974112Y-69954470D01*
X168996583Y-69950000D01*
X169203417Y-69950000D01*
X169225888Y-69954470D01*
X169225888Y-69954470D01*
G37*
G36*
X137025888Y-69954470D02*
X137206274Y-69990350D01*
X137397362Y-70069502D01*
X137569336Y-70184411D01*
X137715589Y-70330664D01*
X137830498Y-70502638D01*
X137909650Y-70693726D01*
X137950000Y-70896584D01*
X137950000Y-71103416D01*
X137909650Y-71306274D01*
X137830498Y-71497362D01*
X137715589Y-71669336D01*
X137569336Y-71815589D01*
X137397362Y-71930498D01*
X137206274Y-72009650D01*
X137025888Y-72045530D01*
X137003417Y-72050000D01*
X136796583Y-72050000D01*
X136774112Y-72045530D01*
X136593726Y-72009650D01*
X136402638Y-71930498D01*
X136230664Y-71815589D01*
X136084411Y-71669336D01*
X135969502Y-71497362D01*
X135890350Y-71306274D01*
X135850000Y-71103416D01*
X135850000Y-70896584D01*
X135890350Y-70693726D01*
X135969502Y-70502638D01*
X136084411Y-70330664D01*
X136230664Y-70184411D01*
X136402638Y-70069502D01*
X136593726Y-69990350D01*
X136774112Y-69954470D01*
X136796583Y-69950000D01*
X137003417Y-69950000D01*
X137025888Y-69954470D01*
X137025888Y-69954470D01*
G37*
G36*
X139525888Y-69954470D02*
X139706274Y-69990350D01*
X139897362Y-70069502D01*
X140069336Y-70184411D01*
X140215589Y-70330664D01*
X140330498Y-70502638D01*
X140409650Y-70693726D01*
X140450000Y-70896584D01*
X140450000Y-71103416D01*
X140409650Y-71306274D01*
X140330498Y-71497362D01*
X140215589Y-71669336D01*
X140069336Y-71815589D01*
X139897362Y-71930498D01*
X139706274Y-72009650D01*
X139525888Y-72045530D01*
X139503417Y-72050000D01*
X139296583Y-72050000D01*
X139274112Y-72045530D01*
X139093726Y-72009650D01*
X138902638Y-71930498D01*
X138730664Y-71815589D01*
X138584411Y-71669336D01*
X138469502Y-71497362D01*
X138390350Y-71306274D01*
X138350000Y-71103416D01*
X138350000Y-70896584D01*
X138390350Y-70693726D01*
X138469502Y-70502638D01*
X138584411Y-70330664D01*
X138730664Y-70184411D01*
X138902638Y-70069502D01*
X139093726Y-69990350D01*
X139274112Y-69954470D01*
X139296583Y-69950000D01*
X139503417Y-69950000D01*
X139525888Y-69954470D01*
X139525888Y-69954470D01*
G37*
G36*
X96625888Y-67534470D02*
X96806274Y-67570350D01*
X96997362Y-67649502D01*
X97169336Y-67764411D01*
X97315589Y-67910664D01*
X97430498Y-68082638D01*
X97509650Y-68273726D01*
X97550000Y-68476584D01*
X97550000Y-68683416D01*
X97509650Y-68886274D01*
X97430498Y-69077362D01*
X97315589Y-69249336D01*
X97169336Y-69395589D01*
X96997362Y-69510498D01*
X96806274Y-69589650D01*
X96625888Y-69625530D01*
X96603417Y-69630000D01*
X96396583Y-69630000D01*
X96374112Y-69625530D01*
X96193726Y-69589650D01*
X96002638Y-69510498D01*
X95830664Y-69395589D01*
X95684411Y-69249336D01*
X95569502Y-69077362D01*
X95490350Y-68886274D01*
X95450000Y-68683416D01*
X95450000Y-68476584D01*
X95490350Y-68273726D01*
X95569502Y-68082638D01*
X95684411Y-67910664D01*
X95830664Y-67764411D01*
X96002638Y-67649502D01*
X96193726Y-67570350D01*
X96374112Y-67534470D01*
X96396583Y-67530000D01*
X96603417Y-67530000D01*
X96625888Y-67534470D01*
X96625888Y-67534470D01*
G37*
G36*
X187625888Y-67534470D02*
X187806274Y-67570350D01*
X187997362Y-67649502D01*
X188169336Y-67764411D01*
X188315589Y-67910664D01*
X188430498Y-68082638D01*
X188509650Y-68273726D01*
X188550000Y-68476584D01*
X188550000Y-68683416D01*
X188509650Y-68886274D01*
X188430498Y-69077362D01*
X188315589Y-69249336D01*
X188169336Y-69395589D01*
X187997362Y-69510498D01*
X187806274Y-69589650D01*
X187625888Y-69625530D01*
X187603417Y-69630000D01*
X187396583Y-69630000D01*
X187374112Y-69625530D01*
X187193726Y-69589650D01*
X187002638Y-69510498D01*
X186830664Y-69395589D01*
X186684411Y-69249336D01*
X186569502Y-69077362D01*
X186490350Y-68886274D01*
X186450000Y-68683416D01*
X186450000Y-68476584D01*
X186490350Y-68273726D01*
X186569502Y-68082638D01*
X186684411Y-67910664D01*
X186830664Y-67764411D01*
X187002638Y-67649502D01*
X187193726Y-67570350D01*
X187374112Y-67534470D01*
X187396583Y-67530000D01*
X187603417Y-67530000D01*
X187625888Y-67534470D01*
X187625888Y-67534470D01*
G37*
G36*
X185085888Y-67534470D02*
X185266274Y-67570350D01*
X185457362Y-67649502D01*
X185629336Y-67764411D01*
X185775589Y-67910664D01*
X185890498Y-68082638D01*
X185969650Y-68273726D01*
X186010000Y-68476584D01*
X186010000Y-68683416D01*
X185969650Y-68886274D01*
X185890498Y-69077362D01*
X185775589Y-69249336D01*
X185629336Y-69395589D01*
X185457362Y-69510498D01*
X185266274Y-69589650D01*
X185085888Y-69625530D01*
X185063417Y-69630000D01*
X184856583Y-69630000D01*
X184834112Y-69625530D01*
X184653726Y-69589650D01*
X184462638Y-69510498D01*
X184290664Y-69395589D01*
X184144411Y-69249336D01*
X184029502Y-69077362D01*
X183950350Y-68886274D01*
X183910000Y-68683416D01*
X183910000Y-68476584D01*
X183950350Y-68273726D01*
X184029502Y-68082638D01*
X184144411Y-67910664D01*
X184290664Y-67764411D01*
X184462638Y-67649502D01*
X184653726Y-67570350D01*
X184834112Y-67534470D01*
X184856583Y-67530000D01*
X185063417Y-67530000D01*
X185085888Y-67534470D01*
X185085888Y-67534470D01*
G37*
G36*
X156725888Y-67534470D02*
X156906274Y-67570350D01*
X157097362Y-67649502D01*
X157269336Y-67764411D01*
X157415589Y-67910664D01*
X157530498Y-68082638D01*
X157609650Y-68273726D01*
X157650000Y-68476584D01*
X157650000Y-68683416D01*
X157609650Y-68886274D01*
X157530498Y-69077362D01*
X157415589Y-69249336D01*
X157269336Y-69395589D01*
X157097362Y-69510498D01*
X156906274Y-69589650D01*
X156725888Y-69625530D01*
X156703417Y-69630000D01*
X156496583Y-69630000D01*
X156474112Y-69625530D01*
X156293726Y-69589650D01*
X156102638Y-69510498D01*
X155930664Y-69395589D01*
X155784411Y-69249336D01*
X155669502Y-69077362D01*
X155590350Y-68886274D01*
X155550000Y-68683416D01*
X155550000Y-68476584D01*
X155590350Y-68273726D01*
X155669502Y-68082638D01*
X155784411Y-67910664D01*
X155930664Y-67764411D01*
X156102638Y-67649502D01*
X156293726Y-67570350D01*
X156474112Y-67534470D01*
X156496583Y-67530000D01*
X156703417Y-67530000D01*
X156725888Y-67534470D01*
X156725888Y-67534470D01*
G37*
G36*
X125085888Y-67534470D02*
X125266274Y-67570350D01*
X125457362Y-67649502D01*
X125629336Y-67764411D01*
X125775589Y-67910664D01*
X125890498Y-68082638D01*
X125969650Y-68273726D01*
X126010000Y-68476584D01*
X126010000Y-68683416D01*
X125969650Y-68886274D01*
X125890498Y-69077362D01*
X125775589Y-69249336D01*
X125629336Y-69395589D01*
X125457362Y-69510498D01*
X125266274Y-69589650D01*
X125085888Y-69625530D01*
X125063417Y-69630000D01*
X124856583Y-69630000D01*
X124834112Y-69625530D01*
X124653726Y-69589650D01*
X124462638Y-69510498D01*
X124290664Y-69395589D01*
X124144411Y-69249336D01*
X124029502Y-69077362D01*
X123950350Y-68886274D01*
X123910000Y-68683416D01*
X123910000Y-68476584D01*
X123950350Y-68273726D01*
X124029502Y-68082638D01*
X124144411Y-67910664D01*
X124290664Y-67764411D01*
X124462638Y-67649502D01*
X124653726Y-67570350D01*
X124834112Y-67534470D01*
X124856583Y-67530000D01*
X125063417Y-67530000D01*
X125085888Y-67534470D01*
X125085888Y-67534470D01*
G37*
G36*
X127625888Y-67534470D02*
X127806274Y-67570350D01*
X127997362Y-67649502D01*
X128169336Y-67764411D01*
X128315589Y-67910664D01*
X128430498Y-68082638D01*
X128509650Y-68273726D01*
X128550000Y-68476584D01*
X128550000Y-68683416D01*
X128509650Y-68886274D01*
X128430498Y-69077362D01*
X128315589Y-69249336D01*
X128169336Y-69395589D01*
X127997362Y-69510498D01*
X127806274Y-69589650D01*
X127625888Y-69625530D01*
X127603417Y-69630000D01*
X127396583Y-69630000D01*
X127374112Y-69625530D01*
X127193726Y-69589650D01*
X127002638Y-69510498D01*
X126830664Y-69395589D01*
X126684411Y-69249336D01*
X126569502Y-69077362D01*
X126490350Y-68886274D01*
X126450000Y-68683416D01*
X126450000Y-68476584D01*
X126490350Y-68273726D01*
X126569502Y-68082638D01*
X126684411Y-67910664D01*
X126830664Y-67764411D01*
X127002638Y-67649502D01*
X127193726Y-67570350D01*
X127374112Y-67534470D01*
X127396583Y-67530000D01*
X127603417Y-67530000D01*
X127625888Y-67534470D01*
X127625888Y-67534470D01*
G37*
G36*
X94085888Y-67534470D02*
X94266274Y-67570350D01*
X94457362Y-67649502D01*
X94629336Y-67764411D01*
X94775589Y-67910664D01*
X94890498Y-68082638D01*
X94969650Y-68273726D01*
X95010000Y-68476584D01*
X95010000Y-68683416D01*
X94969650Y-68886274D01*
X94890498Y-69077362D01*
X94775589Y-69249336D01*
X94629336Y-69395589D01*
X94457362Y-69510498D01*
X94266274Y-69589650D01*
X94085888Y-69625530D01*
X94063417Y-69630000D01*
X93856583Y-69630000D01*
X93834112Y-69625530D01*
X93653726Y-69589650D01*
X93462638Y-69510498D01*
X93290664Y-69395589D01*
X93144411Y-69249336D01*
X93029502Y-69077362D01*
X92950350Y-68886274D01*
X92910000Y-68683416D01*
X92910000Y-68476584D01*
X92950350Y-68273726D01*
X93029502Y-68082638D01*
X93144411Y-67910664D01*
X93290664Y-67764411D01*
X93462638Y-67649502D01*
X93653726Y-67570350D01*
X93834112Y-67534470D01*
X93856583Y-67530000D01*
X94063417Y-67530000D01*
X94085888Y-67534470D01*
X94085888Y-67534470D01*
G37*
G36*
X154185888Y-67534470D02*
X154366274Y-67570350D01*
X154557362Y-67649502D01*
X154729336Y-67764411D01*
X154875589Y-67910664D01*
X154990498Y-68082638D01*
X155069650Y-68273726D01*
X155110000Y-68476584D01*
X155110000Y-68683416D01*
X155069650Y-68886274D01*
X154990498Y-69077362D01*
X154875589Y-69249336D01*
X154729336Y-69395589D01*
X154557362Y-69510498D01*
X154366274Y-69589650D01*
X154185888Y-69625530D01*
X154163417Y-69630000D01*
X153956583Y-69630000D01*
X153934112Y-69625530D01*
X153753726Y-69589650D01*
X153562638Y-69510498D01*
X153390664Y-69395589D01*
X153244411Y-69249336D01*
X153129502Y-69077362D01*
X153050350Y-68886274D01*
X153010000Y-68683416D01*
X153010000Y-68476584D01*
X153050350Y-68273726D01*
X153129502Y-68082638D01*
X153244411Y-67910664D01*
X153390664Y-67764411D01*
X153562638Y-67649502D01*
X153753726Y-67570350D01*
X153934112Y-67534470D01*
X153956583Y-67530000D01*
X154163417Y-67530000D01*
X154185888Y-67534470D01*
X154185888Y-67534470D01*
G37*
G36*
X134686393Y-64243553D02*
X134795872Y-64265330D01*
X135105252Y-64393479D01*
X135383687Y-64579523D01*
X135620477Y-64816313D01*
X135806521Y-65094748D01*
X135934670Y-65404128D01*
X136000000Y-65732565D01*
X136000000Y-66067435D01*
X135934670Y-66395872D01*
X135806521Y-66705252D01*
X135620477Y-66983687D01*
X135383687Y-67220477D01*
X135105252Y-67406521D01*
X134795872Y-67534670D01*
X134686393Y-67556447D01*
X134467437Y-67600000D01*
X134132563Y-67600000D01*
X133913607Y-67556447D01*
X133804128Y-67534670D01*
X133494748Y-67406521D01*
X133216313Y-67220477D01*
X132979523Y-66983687D01*
X132793479Y-66705252D01*
X132665330Y-66395872D01*
X132600000Y-66067435D01*
X132600000Y-65732565D01*
X132665330Y-65404128D01*
X132793479Y-65094748D01*
X132979523Y-64816313D01*
X133216313Y-64579523D01*
X133494748Y-64393479D01*
X133804128Y-64265330D01*
X133913607Y-64243553D01*
X134132563Y-64200000D01*
X134467437Y-64200000D01*
X134686393Y-64243553D01*
X134686393Y-64243553D01*
G37*
G36*
X114486393Y-64243553D02*
X114595872Y-64265330D01*
X114905252Y-64393479D01*
X115183687Y-64579523D01*
X115420477Y-64816313D01*
X115606521Y-65094748D01*
X115734670Y-65404128D01*
X115800000Y-65732565D01*
X115800000Y-66067435D01*
X115734670Y-66395872D01*
X115606521Y-66705252D01*
X115420477Y-66983687D01*
X115183687Y-67220477D01*
X114905252Y-67406521D01*
X114595872Y-67534670D01*
X114486393Y-67556447D01*
X114267437Y-67600000D01*
X113932563Y-67600000D01*
X113713607Y-67556447D01*
X113604128Y-67534670D01*
X113294748Y-67406521D01*
X113016313Y-67220477D01*
X112779523Y-66983687D01*
X112593479Y-66705252D01*
X112465330Y-66395872D01*
X112400000Y-66067435D01*
X112400000Y-65732565D01*
X112465330Y-65404128D01*
X112593479Y-65094748D01*
X112779523Y-64816313D01*
X113016313Y-64579523D01*
X113294748Y-64393479D01*
X113604128Y-64265330D01*
X113713607Y-64243553D01*
X113932563Y-64200000D01*
X114267437Y-64200000D01*
X114486393Y-64243553D01*
X114486393Y-64243553D01*
G37*
G36*
X144886393Y-64243553D02*
X144995872Y-64265330D01*
X145305252Y-64393479D01*
X145583687Y-64579523D01*
X145820477Y-64816313D01*
X146006521Y-65094748D01*
X146134670Y-65404128D01*
X146200000Y-65732565D01*
X146200000Y-66067435D01*
X146134670Y-66395872D01*
X146006521Y-66705252D01*
X145820477Y-66983687D01*
X145583687Y-67220477D01*
X145305252Y-67406521D01*
X144995872Y-67534670D01*
X144886393Y-67556447D01*
X144667437Y-67600000D01*
X144332563Y-67600000D01*
X144113607Y-67556447D01*
X144004128Y-67534670D01*
X143694748Y-67406521D01*
X143416313Y-67220477D01*
X143179523Y-66983687D01*
X142993479Y-66705252D01*
X142865330Y-66395872D01*
X142800000Y-66067435D01*
X142800000Y-65732565D01*
X142865330Y-65404128D01*
X142993479Y-65094748D01*
X143179523Y-64816313D01*
X143416313Y-64579523D01*
X143694748Y-64393479D01*
X144004128Y-64265330D01*
X144113607Y-64243553D01*
X144332563Y-64200000D01*
X144667437Y-64200000D01*
X144886393Y-64243553D01*
X144886393Y-64243553D01*
G37*
G36*
X164386393Y-64243553D02*
X164495872Y-64265330D01*
X164805252Y-64393479D01*
X165083687Y-64579523D01*
X165320477Y-64816313D01*
X165506521Y-65094748D01*
X165634670Y-65404128D01*
X165700000Y-65732565D01*
X165700000Y-66067435D01*
X165634670Y-66395872D01*
X165506521Y-66705252D01*
X165320477Y-66983687D01*
X165083687Y-67220477D01*
X164805252Y-67406521D01*
X164495872Y-67534670D01*
X164386393Y-67556447D01*
X164167437Y-67600000D01*
X163832563Y-67600000D01*
X163613607Y-67556447D01*
X163504128Y-67534670D01*
X163194748Y-67406521D01*
X162916313Y-67220477D01*
X162679523Y-66983687D01*
X162493479Y-66705252D01*
X162365330Y-66395872D01*
X162300000Y-66067435D01*
X162300000Y-65732565D01*
X162365330Y-65404128D01*
X162493479Y-65094748D01*
X162679523Y-64816313D01*
X162916313Y-64579523D01*
X163194748Y-64393479D01*
X163504128Y-64265330D01*
X163613607Y-64243553D01*
X163832563Y-64200000D01*
X164167437Y-64200000D01*
X164386393Y-64243553D01*
X164386393Y-64243553D01*
G37*
G36*
X174586393Y-64243553D02*
X174695872Y-64265330D01*
X175005252Y-64393479D01*
X175283687Y-64579523D01*
X175520477Y-64816313D01*
X175706521Y-65094748D01*
X175834670Y-65404128D01*
X175900000Y-65732565D01*
X175900000Y-66067435D01*
X175834670Y-66395872D01*
X175706521Y-66705252D01*
X175520477Y-66983687D01*
X175283687Y-67220477D01*
X175005252Y-67406521D01*
X174695872Y-67534670D01*
X174586393Y-67556447D01*
X174367437Y-67600000D01*
X174032563Y-67600000D01*
X173813607Y-67556447D01*
X173704128Y-67534670D01*
X173394748Y-67406521D01*
X173116313Y-67220477D01*
X172879523Y-66983687D01*
X172693479Y-66705252D01*
X172565330Y-66395872D01*
X172500000Y-66067435D01*
X172500000Y-65732565D01*
X172565330Y-65404128D01*
X172693479Y-65094748D01*
X172879523Y-64816313D01*
X173116313Y-64579523D01*
X173394748Y-64393479D01*
X173704128Y-64265330D01*
X173813607Y-64243553D01*
X174032563Y-64200000D01*
X174367437Y-64200000D01*
X174586393Y-64243553D01*
X174586393Y-64243553D01*
G37*
G36*
X195386393Y-64243553D02*
X195495872Y-64265330D01*
X195805252Y-64393479D01*
X196083687Y-64579523D01*
X196320477Y-64816313D01*
X196506521Y-65094748D01*
X196634670Y-65404128D01*
X196700000Y-65732565D01*
X196700000Y-66067435D01*
X196634670Y-66395872D01*
X196506521Y-66705252D01*
X196320477Y-66983687D01*
X196083687Y-67220477D01*
X195805252Y-67406521D01*
X195495872Y-67534670D01*
X195386393Y-67556447D01*
X195167437Y-67600000D01*
X194832563Y-67600000D01*
X194613607Y-67556447D01*
X194504128Y-67534670D01*
X194194748Y-67406521D01*
X193916313Y-67220477D01*
X193679523Y-66983687D01*
X193493479Y-66705252D01*
X193365330Y-66395872D01*
X193300000Y-66067435D01*
X193300000Y-65732565D01*
X193365330Y-65404128D01*
X193493479Y-65094748D01*
X193679523Y-64816313D01*
X193916313Y-64579523D01*
X194194748Y-64393479D01*
X194504128Y-64265330D01*
X194613607Y-64243553D01*
X194832563Y-64200000D01*
X195167437Y-64200000D01*
X195386393Y-64243553D01*
X195386393Y-64243553D01*
G37*
G36*
X205586393Y-64243553D02*
X205695872Y-64265330D01*
X206005252Y-64393479D01*
X206283687Y-64579523D01*
X206520477Y-64816313D01*
X206706521Y-65094748D01*
X206834670Y-65404128D01*
X206900000Y-65732565D01*
X206900000Y-66067435D01*
X206834670Y-66395872D01*
X206706521Y-66705252D01*
X206520477Y-66983687D01*
X206283687Y-67220477D01*
X206005252Y-67406521D01*
X205695872Y-67534670D01*
X205586393Y-67556447D01*
X205367437Y-67600000D01*
X205032563Y-67600000D01*
X204813607Y-67556447D01*
X204704128Y-67534670D01*
X204394748Y-67406521D01*
X204116313Y-67220477D01*
X203879523Y-66983687D01*
X203693479Y-66705252D01*
X203565330Y-66395872D01*
X203500000Y-66067435D01*
X203500000Y-65732565D01*
X203565330Y-65404128D01*
X203693479Y-65094748D01*
X203879523Y-64816313D01*
X204116313Y-64579523D01*
X204394748Y-64393479D01*
X204704128Y-64265330D01*
X204813607Y-64243553D01*
X205032563Y-64200000D01*
X205367437Y-64200000D01*
X205586393Y-64243553D01*
X205586393Y-64243553D01*
G37*
G36*
X104286393Y-64243553D02*
X104395872Y-64265330D01*
X104705252Y-64393479D01*
X104983687Y-64579523D01*
X105220477Y-64816313D01*
X105406521Y-65094748D01*
X105534670Y-65404128D01*
X105600000Y-65732565D01*
X105600000Y-66067435D01*
X105534670Y-66395872D01*
X105406521Y-66705252D01*
X105220477Y-66983687D01*
X104983687Y-67220477D01*
X104705252Y-67406521D01*
X104395872Y-67534670D01*
X104286393Y-67556447D01*
X104067437Y-67600000D01*
X103732563Y-67600000D01*
X103513607Y-67556447D01*
X103404128Y-67534670D01*
X103094748Y-67406521D01*
X102816313Y-67220477D01*
X102579523Y-66983687D01*
X102393479Y-66705252D01*
X102265330Y-66395872D01*
X102200000Y-66067435D01*
X102200000Y-65732565D01*
X102265330Y-65404128D01*
X102393479Y-65094748D01*
X102579523Y-64816313D01*
X102816313Y-64579523D01*
X103094748Y-64393479D01*
X103404128Y-64265330D01*
X103513607Y-64243553D01*
X103732563Y-64200000D01*
X104067437Y-64200000D01*
X104286393Y-64243553D01*
X104286393Y-64243553D01*
G37*
G36*
X94085888Y-62454470D02*
X94266274Y-62490350D01*
X94457362Y-62569502D01*
X94629336Y-62684411D01*
X94775589Y-62830664D01*
X94890498Y-63002638D01*
X94969650Y-63193726D01*
X95010000Y-63396584D01*
X95010000Y-63603416D01*
X94969650Y-63806274D01*
X94890498Y-63997362D01*
X94775589Y-64169336D01*
X94629336Y-64315589D01*
X94457362Y-64430498D01*
X94266274Y-64509650D01*
X94085888Y-64545530D01*
X94063417Y-64550000D01*
X93856583Y-64550000D01*
X93834112Y-64545530D01*
X93653726Y-64509650D01*
X93462638Y-64430498D01*
X93290664Y-64315589D01*
X93144411Y-64169336D01*
X93029502Y-63997362D01*
X92950350Y-63806274D01*
X92910000Y-63603416D01*
X92910000Y-63396584D01*
X92950350Y-63193726D01*
X93029502Y-63002638D01*
X93144411Y-62830664D01*
X93290664Y-62684411D01*
X93462638Y-62569502D01*
X93653726Y-62490350D01*
X93834112Y-62454470D01*
X93856583Y-62450000D01*
X94063417Y-62450000D01*
X94085888Y-62454470D01*
X94085888Y-62454470D01*
G37*
G36*
X96625888Y-62454470D02*
X96806274Y-62490350D01*
X96997362Y-62569502D01*
X97169336Y-62684411D01*
X97315589Y-62830664D01*
X97430498Y-63002638D01*
X97509650Y-63193726D01*
X97550000Y-63396584D01*
X97550000Y-63603416D01*
X97509650Y-63806274D01*
X97430498Y-63997362D01*
X97315589Y-64169336D01*
X97169336Y-64315589D01*
X96997362Y-64430498D01*
X96806274Y-64509650D01*
X96625888Y-64545530D01*
X96603417Y-64550000D01*
X96396583Y-64550000D01*
X96374112Y-64545530D01*
X96193726Y-64509650D01*
X96002638Y-64430498D01*
X95830664Y-64315589D01*
X95684411Y-64169336D01*
X95569502Y-63997362D01*
X95490350Y-63806274D01*
X95450000Y-63603416D01*
X95450000Y-63396584D01*
X95490350Y-63193726D01*
X95569502Y-63002638D01*
X95684411Y-62830664D01*
X95830664Y-62684411D01*
X96002638Y-62569502D01*
X96193726Y-62490350D01*
X96374112Y-62454470D01*
X96396583Y-62450000D01*
X96603417Y-62450000D01*
X96625888Y-62454470D01*
X96625888Y-62454470D01*
G37*
G36*
X156725888Y-62454470D02*
X156906274Y-62490350D01*
X157097362Y-62569502D01*
X157269336Y-62684411D01*
X157415589Y-62830664D01*
X157530498Y-63002638D01*
X157609650Y-63193726D01*
X157650000Y-63396584D01*
X157650000Y-63603416D01*
X157609650Y-63806274D01*
X157530498Y-63997362D01*
X157415589Y-64169336D01*
X157269336Y-64315589D01*
X157097362Y-64430498D01*
X156906274Y-64509650D01*
X156725888Y-64545530D01*
X156703417Y-64550000D01*
X156496583Y-64550000D01*
X156474112Y-64545530D01*
X156293726Y-64509650D01*
X156102638Y-64430498D01*
X155930664Y-64315589D01*
X155784411Y-64169336D01*
X155669502Y-63997362D01*
X155590350Y-63806274D01*
X155550000Y-63603416D01*
X155550000Y-63396584D01*
X155590350Y-63193726D01*
X155669502Y-63002638D01*
X155784411Y-62830664D01*
X155930664Y-62684411D01*
X156102638Y-62569502D01*
X156293726Y-62490350D01*
X156474112Y-62454470D01*
X156496583Y-62450000D01*
X156703417Y-62450000D01*
X156725888Y-62454470D01*
X156725888Y-62454470D01*
G37*
G36*
X125085888Y-62454470D02*
X125266274Y-62490350D01*
X125457362Y-62569502D01*
X125629336Y-62684411D01*
X125775589Y-62830664D01*
X125890498Y-63002638D01*
X125969650Y-63193726D01*
X126010000Y-63396584D01*
X126010000Y-63603416D01*
X125969650Y-63806274D01*
X125890498Y-63997362D01*
X125775589Y-64169336D01*
X125629336Y-64315589D01*
X125457362Y-64430498D01*
X125266274Y-64509650D01*
X125085888Y-64545530D01*
X125063417Y-64550000D01*
X124856583Y-64550000D01*
X124834112Y-64545530D01*
X124653726Y-64509650D01*
X124462638Y-64430498D01*
X124290664Y-64315589D01*
X124144411Y-64169336D01*
X124029502Y-63997362D01*
X123950350Y-63806274D01*
X123910000Y-63603416D01*
X123910000Y-63396584D01*
X123950350Y-63193726D01*
X124029502Y-63002638D01*
X124144411Y-62830664D01*
X124290664Y-62684411D01*
X124462638Y-62569502D01*
X124653726Y-62490350D01*
X124834112Y-62454470D01*
X124856583Y-62450000D01*
X125063417Y-62450000D01*
X125085888Y-62454470D01*
X125085888Y-62454470D01*
G37*
G36*
X127625888Y-62454470D02*
X127806274Y-62490350D01*
X127997362Y-62569502D01*
X128169336Y-62684411D01*
X128315589Y-62830664D01*
X128430498Y-63002638D01*
X128509650Y-63193726D01*
X128550000Y-63396584D01*
X128550000Y-63603416D01*
X128509650Y-63806274D01*
X128430498Y-63997362D01*
X128315589Y-64169336D01*
X128169336Y-64315589D01*
X127997362Y-64430498D01*
X127806274Y-64509650D01*
X127625888Y-64545530D01*
X127603417Y-64550000D01*
X127396583Y-64550000D01*
X127374112Y-64545530D01*
X127193726Y-64509650D01*
X127002638Y-64430498D01*
X126830664Y-64315589D01*
X126684411Y-64169336D01*
X126569502Y-63997362D01*
X126490350Y-63806274D01*
X126450000Y-63603416D01*
X126450000Y-63396584D01*
X126490350Y-63193726D01*
X126569502Y-63002638D01*
X126684411Y-62830664D01*
X126830664Y-62684411D01*
X127002638Y-62569502D01*
X127193726Y-62490350D01*
X127374112Y-62454470D01*
X127396583Y-62450000D01*
X127603417Y-62450000D01*
X127625888Y-62454470D01*
X127625888Y-62454470D01*
G37*
G36*
X154185888Y-62454470D02*
X154366274Y-62490350D01*
X154557362Y-62569502D01*
X154729336Y-62684411D01*
X154875589Y-62830664D01*
X154990498Y-63002638D01*
X155069650Y-63193726D01*
X155110000Y-63396584D01*
X155110000Y-63603416D01*
X155069650Y-63806274D01*
X154990498Y-63997362D01*
X154875589Y-64169336D01*
X154729336Y-64315589D01*
X154557362Y-64430498D01*
X154366274Y-64509650D01*
X154185888Y-64545530D01*
X154163417Y-64550000D01*
X153956583Y-64550000D01*
X153934112Y-64545530D01*
X153753726Y-64509650D01*
X153562638Y-64430498D01*
X153390664Y-64315589D01*
X153244411Y-64169336D01*
X153129502Y-63997362D01*
X153050350Y-63806274D01*
X153010000Y-63603416D01*
X153010000Y-63396584D01*
X153050350Y-63193726D01*
X153129502Y-63002638D01*
X153244411Y-62830664D01*
X153390664Y-62684411D01*
X153562638Y-62569502D01*
X153753726Y-62490350D01*
X153934112Y-62454470D01*
X153956583Y-62450000D01*
X154163417Y-62450000D01*
X154185888Y-62454470D01*
X154185888Y-62454470D01*
G37*
G36*
X187625888Y-62454470D02*
X187806274Y-62490350D01*
X187997362Y-62569502D01*
X188169336Y-62684411D01*
X188315589Y-62830664D01*
X188430498Y-63002638D01*
X188509650Y-63193726D01*
X188550000Y-63396584D01*
X188550000Y-63603416D01*
X188509650Y-63806274D01*
X188430498Y-63997362D01*
X188315589Y-64169336D01*
X188169336Y-64315589D01*
X187997362Y-64430498D01*
X187806274Y-64509650D01*
X187625888Y-64545530D01*
X187603417Y-64550000D01*
X187396583Y-64550000D01*
X187374112Y-64545530D01*
X187193726Y-64509650D01*
X187002638Y-64430498D01*
X186830664Y-64315589D01*
X186684411Y-64169336D01*
X186569502Y-63997362D01*
X186490350Y-63806274D01*
X186450000Y-63603416D01*
X186450000Y-63396584D01*
X186490350Y-63193726D01*
X186569502Y-63002638D01*
X186684411Y-62830664D01*
X186830664Y-62684411D01*
X187002638Y-62569502D01*
X187193726Y-62490350D01*
X187374112Y-62454470D01*
X187396583Y-62450000D01*
X187603417Y-62450000D01*
X187625888Y-62454470D01*
X187625888Y-62454470D01*
G37*
G36*
X185085888Y-62454470D02*
X185266274Y-62490350D01*
X185457362Y-62569502D01*
X185629336Y-62684411D01*
X185775589Y-62830664D01*
X185890498Y-63002638D01*
X185969650Y-63193726D01*
X186010000Y-63396584D01*
X186010000Y-63603416D01*
X185969650Y-63806274D01*
X185890498Y-63997362D01*
X185775589Y-64169336D01*
X185629336Y-64315589D01*
X185457362Y-64430498D01*
X185266274Y-64509650D01*
X185085888Y-64545530D01*
X185063417Y-64550000D01*
X184856583Y-64550000D01*
X184834112Y-64545530D01*
X184653726Y-64509650D01*
X184462638Y-64430498D01*
X184290664Y-64315589D01*
X184144411Y-64169336D01*
X184029502Y-63997362D01*
X183950350Y-63806274D01*
X183910000Y-63603416D01*
X183910000Y-63396584D01*
X183950350Y-63193726D01*
X184029502Y-63002638D01*
X184144411Y-62830664D01*
X184290664Y-62684411D01*
X184462638Y-62569502D01*
X184653726Y-62490350D01*
X184834112Y-62454470D01*
X184856583Y-62450000D01*
X185063417Y-62450000D01*
X185085888Y-62454470D01*
X185085888Y-62454470D01*
G37*
M02*
