%TF.GenerationSoftware,KiCad,Pcbnew,10.0.1*%
%TF.CreationDate,2026-07-06T15:22:37+01:00*%
%TF.ProjectId,stimjim,7374696d-6a69-46d2-9e6b-696361645f70,C*%
%TF.SameCoordinates,PX8c30ac0PYa037a00*%
%TF.FileFunction,AssemblyDrawing,Bot*%
%FSLAX46Y46*%
G04 Gerber Fmt 4.6, Leading zero omitted, Abs format (unit mm)*
G04 Created by KiCad (PCBNEW 10.0.1) date 2026-07-06 15:22:37*
%MOMM*%
%LPD*%
G01*
G04 APERTURE LIST*
%ADD10C,0.120000*%
%ADD11C,0.080000*%
%ADD12C,0.075000*%
%ADD13C,0.100000*%
G04 APERTURE END LIST*
D10*
X119113855Y25264286D02*
X118732902Y25530953D01*
X119113855Y25721429D02*
X118313855Y25721429D01*
X118313855Y25721429D02*
X118313855Y25416667D01*
X118313855Y25416667D02*
X118351950Y25340477D01*
X118351950Y25340477D02*
X118390045Y25302382D01*
X118390045Y25302382D02*
X118466236Y25264286D01*
X118466236Y25264286D02*
X118580521Y25264286D01*
X118580521Y25264286D02*
X118656712Y25302382D01*
X118656712Y25302382D02*
X118694807Y25340477D01*
X118694807Y25340477D02*
X118732902Y25416667D01*
X118732902Y25416667D02*
X118732902Y25721429D01*
X118390045Y24959525D02*
X118351950Y24921429D01*
X118351950Y24921429D02*
X118313855Y24845239D01*
X118313855Y24845239D02*
X118313855Y24654763D01*
X118313855Y24654763D02*
X118351950Y24578572D01*
X118351950Y24578572D02*
X118390045Y24540477D01*
X118390045Y24540477D02*
X118466236Y24502382D01*
X118466236Y24502382D02*
X118542426Y24502382D01*
X118542426Y24502382D02*
X118656712Y24540477D01*
X118656712Y24540477D02*
X119113855Y24997620D01*
X119113855Y24997620D02*
X119113855Y24502382D01*
X118313855Y24007143D02*
X118313855Y23930953D01*
X118313855Y23930953D02*
X118351950Y23854762D01*
X118351950Y23854762D02*
X118390045Y23816667D01*
X118390045Y23816667D02*
X118466236Y23778572D01*
X118466236Y23778572D02*
X118618617Y23740477D01*
X118618617Y23740477D02*
X118809093Y23740477D01*
X118809093Y23740477D02*
X118961474Y23778572D01*
X118961474Y23778572D02*
X119037664Y23816667D01*
X119037664Y23816667D02*
X119075760Y23854762D01*
X119075760Y23854762D02*
X119113855Y23930953D01*
X119113855Y23930953D02*
X119113855Y24007143D01*
X119113855Y24007143D02*
X119075760Y24083334D01*
X119075760Y24083334D02*
X119037664Y24121429D01*
X119037664Y24121429D02*
X118961474Y24159524D01*
X118961474Y24159524D02*
X118809093Y24197620D01*
X118809093Y24197620D02*
X118618617Y24197620D01*
X118618617Y24197620D02*
X118466236Y24159524D01*
X118466236Y24159524D02*
X118390045Y24121429D01*
X118390045Y24121429D02*
X118351950Y24083334D01*
X118351950Y24083334D02*
X118313855Y24007143D01*
X114287664Y25251786D02*
X114325760Y25289882D01*
X114325760Y25289882D02*
X114363855Y25404167D01*
X114363855Y25404167D02*
X114363855Y25480358D01*
X114363855Y25480358D02*
X114325760Y25594644D01*
X114325760Y25594644D02*
X114249569Y25670834D01*
X114249569Y25670834D02*
X114173379Y25708929D01*
X114173379Y25708929D02*
X114020998Y25747025D01*
X114020998Y25747025D02*
X113906712Y25747025D01*
X113906712Y25747025D02*
X113754331Y25708929D01*
X113754331Y25708929D02*
X113678140Y25670834D01*
X113678140Y25670834D02*
X113601950Y25594644D01*
X113601950Y25594644D02*
X113563855Y25480358D01*
X113563855Y25480358D02*
X113563855Y25404167D01*
X113563855Y25404167D02*
X113601950Y25289882D01*
X113601950Y25289882D02*
X113640045Y25251786D01*
X113563855Y24527977D02*
X113563855Y24908929D01*
X113563855Y24908929D02*
X113944807Y24947025D01*
X113944807Y24947025D02*
X113906712Y24908929D01*
X113906712Y24908929D02*
X113868617Y24832739D01*
X113868617Y24832739D02*
X113868617Y24642263D01*
X113868617Y24642263D02*
X113906712Y24566072D01*
X113906712Y24566072D02*
X113944807Y24527977D01*
X113944807Y24527977D02*
X114020998Y24489882D01*
X114020998Y24489882D02*
X114211474Y24489882D01*
X114211474Y24489882D02*
X114287664Y24527977D01*
X114287664Y24527977D02*
X114325760Y24566072D01*
X114325760Y24566072D02*
X114363855Y24642263D01*
X114363855Y24642263D02*
X114363855Y24832739D01*
X114363855Y24832739D02*
X114325760Y24908929D01*
X114325760Y24908929D02*
X114287664Y24947025D01*
X113830521Y23804167D02*
X114363855Y23804167D01*
X113525760Y23994643D02*
X114097188Y24185120D01*
X114097188Y24185120D02*
X114097188Y23689881D01*
X113944883Y23514448D02*
X113944883Y25927025D01*
X79867664Y38133333D02*
X79905760Y38171429D01*
X79905760Y38171429D02*
X79943855Y38285714D01*
X79943855Y38285714D02*
X79943855Y38361905D01*
X79943855Y38361905D02*
X79905760Y38476191D01*
X79905760Y38476191D02*
X79829569Y38552381D01*
X79829569Y38552381D02*
X79753379Y38590476D01*
X79753379Y38590476D02*
X79600998Y38628572D01*
X79600998Y38628572D02*
X79486712Y38628572D01*
X79486712Y38628572D02*
X79334331Y38590476D01*
X79334331Y38590476D02*
X79258140Y38552381D01*
X79258140Y38552381D02*
X79181950Y38476191D01*
X79181950Y38476191D02*
X79143855Y38361905D01*
X79143855Y38361905D02*
X79143855Y38285714D01*
X79143855Y38285714D02*
X79181950Y38171429D01*
X79181950Y38171429D02*
X79220045Y38133333D01*
X79143855Y37409524D02*
X79143855Y37790476D01*
X79143855Y37790476D02*
X79524807Y37828572D01*
X79524807Y37828572D02*
X79486712Y37790476D01*
X79486712Y37790476D02*
X79448617Y37714286D01*
X79448617Y37714286D02*
X79448617Y37523810D01*
X79448617Y37523810D02*
X79486712Y37447619D01*
X79486712Y37447619D02*
X79524807Y37409524D01*
X79524807Y37409524D02*
X79600998Y37371429D01*
X79600998Y37371429D02*
X79791474Y37371429D01*
X79791474Y37371429D02*
X79867664Y37409524D01*
X79867664Y37409524D02*
X79905760Y37447619D01*
X79905760Y37447619D02*
X79943855Y37523810D01*
X79943855Y37523810D02*
X79943855Y37714286D01*
X79943855Y37714286D02*
X79905760Y37790476D01*
X79905760Y37790476D02*
X79867664Y37828572D01*
X69787664Y38133333D02*
X69825760Y38171429D01*
X69825760Y38171429D02*
X69863855Y38285714D01*
X69863855Y38285714D02*
X69863855Y38361905D01*
X69863855Y38361905D02*
X69825760Y38476191D01*
X69825760Y38476191D02*
X69749569Y38552381D01*
X69749569Y38552381D02*
X69673379Y38590476D01*
X69673379Y38590476D02*
X69520998Y38628572D01*
X69520998Y38628572D02*
X69406712Y38628572D01*
X69406712Y38628572D02*
X69254331Y38590476D01*
X69254331Y38590476D02*
X69178140Y38552381D01*
X69178140Y38552381D02*
X69101950Y38476191D01*
X69101950Y38476191D02*
X69063855Y38361905D01*
X69063855Y38361905D02*
X69063855Y38285714D01*
X69063855Y38285714D02*
X69101950Y38171429D01*
X69101950Y38171429D02*
X69140045Y38133333D01*
X69330521Y37447619D02*
X69863855Y37447619D01*
X69025760Y37638095D02*
X69597188Y37828572D01*
X69597188Y37828572D02*
X69597188Y37333333D01*
X116814285Y20112336D02*
X116852381Y20074240D01*
X116852381Y20074240D02*
X116966666Y20036145D01*
X116966666Y20036145D02*
X117042857Y20036145D01*
X117042857Y20036145D02*
X117157143Y20074240D01*
X117157143Y20074240D02*
X117233333Y20150431D01*
X117233333Y20150431D02*
X117271428Y20226621D01*
X117271428Y20226621D02*
X117309524Y20379002D01*
X117309524Y20379002D02*
X117309524Y20493288D01*
X117309524Y20493288D02*
X117271428Y20645669D01*
X117271428Y20645669D02*
X117233333Y20721860D01*
X117233333Y20721860D02*
X117157143Y20798050D01*
X117157143Y20798050D02*
X117042857Y20836145D01*
X117042857Y20836145D02*
X116966666Y20836145D01*
X116966666Y20836145D02*
X116852381Y20798050D01*
X116852381Y20798050D02*
X116814285Y20759955D01*
X116509524Y20759955D02*
X116471428Y20798050D01*
X116471428Y20798050D02*
X116395238Y20836145D01*
X116395238Y20836145D02*
X116204762Y20836145D01*
X116204762Y20836145D02*
X116128571Y20798050D01*
X116128571Y20798050D02*
X116090476Y20759955D01*
X116090476Y20759955D02*
X116052381Y20683764D01*
X116052381Y20683764D02*
X116052381Y20607574D01*
X116052381Y20607574D02*
X116090476Y20493288D01*
X116090476Y20493288D02*
X116547619Y20036145D01*
X116547619Y20036145D02*
X116052381Y20036145D01*
X115595238Y20493288D02*
X115671428Y20531383D01*
X115671428Y20531383D02*
X115709523Y20569479D01*
X115709523Y20569479D02*
X115747619Y20645669D01*
X115747619Y20645669D02*
X115747619Y20683764D01*
X115747619Y20683764D02*
X115709523Y20759955D01*
X115709523Y20759955D02*
X115671428Y20798050D01*
X115671428Y20798050D02*
X115595238Y20836145D01*
X115595238Y20836145D02*
X115442857Y20836145D01*
X115442857Y20836145D02*
X115366666Y20798050D01*
X115366666Y20798050D02*
X115328571Y20759955D01*
X115328571Y20759955D02*
X115290476Y20683764D01*
X115290476Y20683764D02*
X115290476Y20645669D01*
X115290476Y20645669D02*
X115328571Y20569479D01*
X115328571Y20569479D02*
X115366666Y20531383D01*
X115366666Y20531383D02*
X115442857Y20493288D01*
X115442857Y20493288D02*
X115595238Y20493288D01*
X115595238Y20493288D02*
X115671428Y20455193D01*
X115671428Y20455193D02*
X115709523Y20417098D01*
X115709523Y20417098D02*
X115747619Y20340907D01*
X115747619Y20340907D02*
X115747619Y20188526D01*
X115747619Y20188526D02*
X115709523Y20112336D01*
X115709523Y20112336D02*
X115671428Y20074240D01*
X115671428Y20074240D02*
X115595238Y20036145D01*
X115595238Y20036145D02*
X115442857Y20036145D01*
X115442857Y20036145D02*
X115366666Y20074240D01*
X115366666Y20074240D02*
X115328571Y20112336D01*
X115328571Y20112336D02*
X115290476Y20188526D01*
X115290476Y20188526D02*
X115290476Y20340907D01*
X115290476Y20340907D02*
X115328571Y20417098D01*
X115328571Y20417098D02*
X115366666Y20455193D01*
X115366666Y20455193D02*
X115442857Y20493288D01*
X122867664Y38514286D02*
X122905760Y38552382D01*
X122905760Y38552382D02*
X122943855Y38666667D01*
X122943855Y38666667D02*
X122943855Y38742858D01*
X122943855Y38742858D02*
X122905760Y38857144D01*
X122905760Y38857144D02*
X122829569Y38933334D01*
X122829569Y38933334D02*
X122753379Y38971429D01*
X122753379Y38971429D02*
X122600998Y39009525D01*
X122600998Y39009525D02*
X122486712Y39009525D01*
X122486712Y39009525D02*
X122334331Y38971429D01*
X122334331Y38971429D02*
X122258140Y38933334D01*
X122258140Y38933334D02*
X122181950Y38857144D01*
X122181950Y38857144D02*
X122143855Y38742858D01*
X122143855Y38742858D02*
X122143855Y38666667D01*
X122143855Y38666667D02*
X122181950Y38552382D01*
X122181950Y38552382D02*
X122220045Y38514286D01*
X122143855Y38247620D02*
X122143855Y37752382D01*
X122143855Y37752382D02*
X122448617Y38019048D01*
X122448617Y38019048D02*
X122448617Y37904763D01*
X122448617Y37904763D02*
X122486712Y37828572D01*
X122486712Y37828572D02*
X122524807Y37790477D01*
X122524807Y37790477D02*
X122600998Y37752382D01*
X122600998Y37752382D02*
X122791474Y37752382D01*
X122791474Y37752382D02*
X122867664Y37790477D01*
X122867664Y37790477D02*
X122905760Y37828572D01*
X122905760Y37828572D02*
X122943855Y37904763D01*
X122943855Y37904763D02*
X122943855Y38133334D01*
X122943855Y38133334D02*
X122905760Y38209525D01*
X122905760Y38209525D02*
X122867664Y38247620D01*
X122143855Y37257143D02*
X122143855Y37180953D01*
X122143855Y37180953D02*
X122181950Y37104762D01*
X122181950Y37104762D02*
X122220045Y37066667D01*
X122220045Y37066667D02*
X122296236Y37028572D01*
X122296236Y37028572D02*
X122448617Y36990477D01*
X122448617Y36990477D02*
X122639093Y36990477D01*
X122639093Y36990477D02*
X122791474Y37028572D01*
X122791474Y37028572D02*
X122867664Y37066667D01*
X122867664Y37066667D02*
X122905760Y37104762D01*
X122905760Y37104762D02*
X122943855Y37180953D01*
X122943855Y37180953D02*
X122943855Y37257143D01*
X122943855Y37257143D02*
X122905760Y37333334D01*
X122905760Y37333334D02*
X122867664Y37371429D01*
X122867664Y37371429D02*
X122791474Y37409524D01*
X122791474Y37409524D02*
X122639093Y37447620D01*
X122639093Y37447620D02*
X122448617Y37447620D01*
X122448617Y37447620D02*
X122296236Y37409524D01*
X122296236Y37409524D02*
X122220045Y37371429D01*
X122220045Y37371429D02*
X122181950Y37333334D01*
X122181950Y37333334D02*
X122143855Y37257143D01*
X112787664Y38514286D02*
X112825760Y38552382D01*
X112825760Y38552382D02*
X112863855Y38666667D01*
X112863855Y38666667D02*
X112863855Y38742858D01*
X112863855Y38742858D02*
X112825760Y38857144D01*
X112825760Y38857144D02*
X112749569Y38933334D01*
X112749569Y38933334D02*
X112673379Y38971429D01*
X112673379Y38971429D02*
X112520998Y39009525D01*
X112520998Y39009525D02*
X112406712Y39009525D01*
X112406712Y39009525D02*
X112254331Y38971429D01*
X112254331Y38971429D02*
X112178140Y38933334D01*
X112178140Y38933334D02*
X112101950Y38857144D01*
X112101950Y38857144D02*
X112063855Y38742858D01*
X112063855Y38742858D02*
X112063855Y38666667D01*
X112063855Y38666667D02*
X112101950Y38552382D01*
X112101950Y38552382D02*
X112140045Y38514286D01*
X112140045Y38209525D02*
X112101950Y38171429D01*
X112101950Y38171429D02*
X112063855Y38095239D01*
X112063855Y38095239D02*
X112063855Y37904763D01*
X112063855Y37904763D02*
X112101950Y37828572D01*
X112101950Y37828572D02*
X112140045Y37790477D01*
X112140045Y37790477D02*
X112216236Y37752382D01*
X112216236Y37752382D02*
X112292426Y37752382D01*
X112292426Y37752382D02*
X112406712Y37790477D01*
X112406712Y37790477D02*
X112863855Y38247620D01*
X112863855Y38247620D02*
X112863855Y37752382D01*
X112863855Y37371429D02*
X112863855Y37219048D01*
X112863855Y37219048D02*
X112825760Y37142858D01*
X112825760Y37142858D02*
X112787664Y37104762D01*
X112787664Y37104762D02*
X112673379Y37028572D01*
X112673379Y37028572D02*
X112520998Y36990477D01*
X112520998Y36990477D02*
X112216236Y36990477D01*
X112216236Y36990477D02*
X112140045Y37028572D01*
X112140045Y37028572D02*
X112101950Y37066667D01*
X112101950Y37066667D02*
X112063855Y37142858D01*
X112063855Y37142858D02*
X112063855Y37295239D01*
X112063855Y37295239D02*
X112101950Y37371429D01*
X112101950Y37371429D02*
X112140045Y37409524D01*
X112140045Y37409524D02*
X112216236Y37447620D01*
X112216236Y37447620D02*
X112406712Y37447620D01*
X112406712Y37447620D02*
X112482902Y37409524D01*
X112482902Y37409524D02*
X112520998Y37371429D01*
X112520998Y37371429D02*
X112559093Y37295239D01*
X112559093Y37295239D02*
X112559093Y37142858D01*
X112559093Y37142858D02*
X112520998Y37066667D01*
X112520998Y37066667D02*
X112482902Y37028572D01*
X112482902Y37028572D02*
X112406712Y36990477D01*
X73433332Y20112336D02*
X73471428Y20074240D01*
X73471428Y20074240D02*
X73585713Y20036145D01*
X73585713Y20036145D02*
X73661904Y20036145D01*
X73661904Y20036145D02*
X73776190Y20074240D01*
X73776190Y20074240D02*
X73852380Y20150431D01*
X73852380Y20150431D02*
X73890475Y20226621D01*
X73890475Y20226621D02*
X73928571Y20379002D01*
X73928571Y20379002D02*
X73928571Y20493288D01*
X73928571Y20493288D02*
X73890475Y20645669D01*
X73890475Y20645669D02*
X73852380Y20721860D01*
X73852380Y20721860D02*
X73776190Y20798050D01*
X73776190Y20798050D02*
X73661904Y20836145D01*
X73661904Y20836145D02*
X73585713Y20836145D01*
X73585713Y20836145D02*
X73471428Y20798050D01*
X73471428Y20798050D02*
X73433332Y20759955D01*
X73166666Y20836145D02*
X72671428Y20836145D01*
X72671428Y20836145D02*
X72938094Y20531383D01*
X72938094Y20531383D02*
X72823809Y20531383D01*
X72823809Y20531383D02*
X72747618Y20493288D01*
X72747618Y20493288D02*
X72709523Y20455193D01*
X72709523Y20455193D02*
X72671428Y20379002D01*
X72671428Y20379002D02*
X72671428Y20188526D01*
X72671428Y20188526D02*
X72709523Y20112336D01*
X72709523Y20112336D02*
X72747618Y20074240D01*
X72747618Y20074240D02*
X72823809Y20036145D01*
X72823809Y20036145D02*
X73052380Y20036145D01*
X73052380Y20036145D02*
X73128571Y20074240D01*
X73128571Y20074240D02*
X73166666Y20112336D01*
X76113855Y25264286D02*
X75732902Y25530953D01*
X76113855Y25721429D02*
X75313855Y25721429D01*
X75313855Y25721429D02*
X75313855Y25416667D01*
X75313855Y25416667D02*
X75351950Y25340477D01*
X75351950Y25340477D02*
X75390045Y25302382D01*
X75390045Y25302382D02*
X75466236Y25264286D01*
X75466236Y25264286D02*
X75580521Y25264286D01*
X75580521Y25264286D02*
X75656712Y25302382D01*
X75656712Y25302382D02*
X75694807Y25340477D01*
X75694807Y25340477D02*
X75732902Y25416667D01*
X75732902Y25416667D02*
X75732902Y25721429D01*
X76113855Y24502382D02*
X76113855Y24959525D01*
X76113855Y24730953D02*
X75313855Y24730953D01*
X75313855Y24730953D02*
X75428140Y24807144D01*
X75428140Y24807144D02*
X75504331Y24883334D01*
X75504331Y24883334D02*
X75542426Y24959525D01*
X76113855Y24121429D02*
X76113855Y23969048D01*
X76113855Y23969048D02*
X76075760Y23892858D01*
X76075760Y23892858D02*
X76037664Y23854762D01*
X76037664Y23854762D02*
X75923379Y23778572D01*
X75923379Y23778572D02*
X75770998Y23740477D01*
X75770998Y23740477D02*
X75466236Y23740477D01*
X75466236Y23740477D02*
X75390045Y23778572D01*
X75390045Y23778572D02*
X75351950Y23816667D01*
X75351950Y23816667D02*
X75313855Y23892858D01*
X75313855Y23892858D02*
X75313855Y24045239D01*
X75313855Y24045239D02*
X75351950Y24121429D01*
X75351950Y24121429D02*
X75390045Y24159524D01*
X75390045Y24159524D02*
X75466236Y24197620D01*
X75466236Y24197620D02*
X75656712Y24197620D01*
X75656712Y24197620D02*
X75732902Y24159524D01*
X75732902Y24159524D02*
X75770998Y24121429D01*
X75770998Y24121429D02*
X75809093Y24045239D01*
X75809093Y24045239D02*
X75809093Y23892858D01*
X75809093Y23892858D02*
X75770998Y23816667D01*
X75770998Y23816667D02*
X75732902Y23778572D01*
X75732902Y23778572D02*
X75656712Y23740477D01*
X71287664Y25251786D02*
X71325760Y25289882D01*
X71325760Y25289882D02*
X71363855Y25404167D01*
X71363855Y25404167D02*
X71363855Y25480358D01*
X71363855Y25480358D02*
X71325760Y25594644D01*
X71325760Y25594644D02*
X71249569Y25670834D01*
X71249569Y25670834D02*
X71173379Y25708929D01*
X71173379Y25708929D02*
X71020998Y25747025D01*
X71020998Y25747025D02*
X70906712Y25747025D01*
X70906712Y25747025D02*
X70754331Y25708929D01*
X70754331Y25708929D02*
X70678140Y25670834D01*
X70678140Y25670834D02*
X70601950Y25594644D01*
X70601950Y25594644D02*
X70563855Y25480358D01*
X70563855Y25480358D02*
X70563855Y25404167D01*
X70563855Y25404167D02*
X70601950Y25289882D01*
X70601950Y25289882D02*
X70640045Y25251786D01*
X70563855Y24527977D02*
X70563855Y24908929D01*
X70563855Y24908929D02*
X70944807Y24947025D01*
X70944807Y24947025D02*
X70906712Y24908929D01*
X70906712Y24908929D02*
X70868617Y24832739D01*
X70868617Y24832739D02*
X70868617Y24642263D01*
X70868617Y24642263D02*
X70906712Y24566072D01*
X70906712Y24566072D02*
X70944807Y24527977D01*
X70944807Y24527977D02*
X71020998Y24489882D01*
X71020998Y24489882D02*
X71211474Y24489882D01*
X71211474Y24489882D02*
X71287664Y24527977D01*
X71287664Y24527977D02*
X71325760Y24566072D01*
X71325760Y24566072D02*
X71363855Y24642263D01*
X71363855Y24642263D02*
X71363855Y24832739D01*
X71363855Y24832739D02*
X71325760Y24908929D01*
X71325760Y24908929D02*
X71287664Y24947025D01*
X70563855Y24223215D02*
X70563855Y23727977D01*
X70563855Y23727977D02*
X70868617Y23994643D01*
X70868617Y23994643D02*
X70868617Y23880358D01*
X70868617Y23880358D02*
X70906712Y23804167D01*
X70906712Y23804167D02*
X70944807Y23766072D01*
X70944807Y23766072D02*
X71020998Y23727977D01*
X71020998Y23727977D02*
X71211474Y23727977D01*
X71211474Y23727977D02*
X71287664Y23766072D01*
X71287664Y23766072D02*
X71325760Y23804167D01*
X71325760Y23804167D02*
X71363855Y23880358D01*
X71363855Y23880358D02*
X71363855Y24108929D01*
X71363855Y24108929D02*
X71325760Y24185120D01*
X71325760Y24185120D02*
X71287664Y24223215D01*
X70963855Y23547977D02*
X70963855Y25927025D01*
D11*
X35027149Y27821429D02*
X34789054Y27988095D01*
X35027149Y28107143D02*
X34527149Y28107143D01*
X34527149Y28107143D02*
X34527149Y27916667D01*
X34527149Y27916667D02*
X34550959Y27869048D01*
X34550959Y27869048D02*
X34574768Y27845238D01*
X34574768Y27845238D02*
X34622387Y27821429D01*
X34622387Y27821429D02*
X34693816Y27821429D01*
X34693816Y27821429D02*
X34741435Y27845238D01*
X34741435Y27845238D02*
X34765244Y27869048D01*
X34765244Y27869048D02*
X34789054Y27916667D01*
X34789054Y27916667D02*
X34789054Y28107143D01*
X34527149Y27654762D02*
X34527149Y27345238D01*
X34527149Y27345238D02*
X34717625Y27511905D01*
X34717625Y27511905D02*
X34717625Y27440476D01*
X34717625Y27440476D02*
X34741435Y27392857D01*
X34741435Y27392857D02*
X34765244Y27369048D01*
X34765244Y27369048D02*
X34812863Y27345238D01*
X34812863Y27345238D02*
X34931911Y27345238D01*
X34931911Y27345238D02*
X34979530Y27369048D01*
X34979530Y27369048D02*
X35003340Y27392857D01*
X35003340Y27392857D02*
X35027149Y27440476D01*
X35027149Y27440476D02*
X35027149Y27583333D01*
X35027149Y27583333D02*
X35003340Y27630952D01*
X35003340Y27630952D02*
X34979530Y27654762D01*
X34527149Y27178572D02*
X34527149Y26845239D01*
X34527149Y26845239D02*
X35027149Y27059524D01*
D12*
X12369047Y58172591D02*
X12369047Y58672591D01*
X12369047Y58672591D02*
X12249999Y58672591D01*
X12249999Y58672591D02*
X12178571Y58648781D01*
X12178571Y58648781D02*
X12130952Y58601162D01*
X12130952Y58601162D02*
X12107142Y58553543D01*
X12107142Y58553543D02*
X12083333Y58458305D01*
X12083333Y58458305D02*
X12083333Y58386877D01*
X12083333Y58386877D02*
X12107142Y58291639D01*
X12107142Y58291639D02*
X12130952Y58244020D01*
X12130952Y58244020D02*
X12178571Y58196400D01*
X12178571Y58196400D02*
X12249999Y58172591D01*
X12249999Y58172591D02*
X12369047Y58172591D01*
X11654761Y58672591D02*
X11749999Y58672591D01*
X11749999Y58672591D02*
X11797618Y58648781D01*
X11797618Y58648781D02*
X11821428Y58624972D01*
X11821428Y58624972D02*
X11869047Y58553543D01*
X11869047Y58553543D02*
X11892856Y58458305D01*
X11892856Y58458305D02*
X11892856Y58267829D01*
X11892856Y58267829D02*
X11869047Y58220210D01*
X11869047Y58220210D02*
X11845237Y58196400D01*
X11845237Y58196400D02*
X11797618Y58172591D01*
X11797618Y58172591D02*
X11702380Y58172591D01*
X11702380Y58172591D02*
X11654761Y58196400D01*
X11654761Y58196400D02*
X11630952Y58220210D01*
X11630952Y58220210D02*
X11607142Y58267829D01*
X11607142Y58267829D02*
X11607142Y58386877D01*
X11607142Y58386877D02*
X11630952Y58434496D01*
X11630952Y58434496D02*
X11654761Y58458305D01*
X11654761Y58458305D02*
X11702380Y58482115D01*
X11702380Y58482115D02*
X11797618Y58482115D01*
X11797618Y58482115D02*
X11845237Y58458305D01*
X11845237Y58458305D02*
X11869047Y58434496D01*
X11869047Y58434496D02*
X11892856Y58386877D01*
X35407142Y30672591D02*
X35407142Y31172591D01*
X35407142Y31172591D02*
X35288094Y31172591D01*
X35288094Y31172591D02*
X35216666Y31148781D01*
X35216666Y31148781D02*
X35169047Y31101162D01*
X35169047Y31101162D02*
X35145237Y31053543D01*
X35145237Y31053543D02*
X35121428Y30958305D01*
X35121428Y30958305D02*
X35121428Y30886877D01*
X35121428Y30886877D02*
X35145237Y30791639D01*
X35145237Y30791639D02*
X35169047Y30744020D01*
X35169047Y30744020D02*
X35216666Y30696400D01*
X35216666Y30696400D02*
X35288094Y30672591D01*
X35288094Y30672591D02*
X35407142Y30672591D01*
X34645237Y30672591D02*
X34930951Y30672591D01*
X34788094Y30672591D02*
X34788094Y31172591D01*
X34788094Y31172591D02*
X34835713Y31101162D01*
X34835713Y31101162D02*
X34883332Y31053543D01*
X34883332Y31053543D02*
X34930951Y31029734D01*
X34192857Y31172591D02*
X34430952Y31172591D01*
X34430952Y31172591D02*
X34454761Y30934496D01*
X34454761Y30934496D02*
X34430952Y30958305D01*
X34430952Y30958305D02*
X34383333Y30982115D01*
X34383333Y30982115D02*
X34264285Y30982115D01*
X34264285Y30982115D02*
X34216666Y30958305D01*
X34216666Y30958305D02*
X34192857Y30934496D01*
X34192857Y30934496D02*
X34169047Y30886877D01*
X34169047Y30886877D02*
X34169047Y30767829D01*
X34169047Y30767829D02*
X34192857Y30720210D01*
X34192857Y30720210D02*
X34216666Y30696400D01*
X34216666Y30696400D02*
X34264285Y30672591D01*
X34264285Y30672591D02*
X34383333Y30672591D01*
X34383333Y30672591D02*
X34430952Y30696400D01*
X34430952Y30696400D02*
X34454761Y30720210D01*
X30207142Y22572591D02*
X30207142Y23072591D01*
X30207142Y23072591D02*
X30088094Y23072591D01*
X30088094Y23072591D02*
X30016666Y23048781D01*
X30016666Y23048781D02*
X29969047Y23001162D01*
X29969047Y23001162D02*
X29945237Y22953543D01*
X29945237Y22953543D02*
X29921428Y22858305D01*
X29921428Y22858305D02*
X29921428Y22786877D01*
X29921428Y22786877D02*
X29945237Y22691639D01*
X29945237Y22691639D02*
X29969047Y22644020D01*
X29969047Y22644020D02*
X30016666Y22596400D01*
X30016666Y22596400D02*
X30088094Y22572591D01*
X30088094Y22572591D02*
X30207142Y22572591D01*
X29445237Y22572591D02*
X29730951Y22572591D01*
X29588094Y22572591D02*
X29588094Y23072591D01*
X29588094Y23072591D02*
X29635713Y23001162D01*
X29635713Y23001162D02*
X29683332Y22953543D01*
X29683332Y22953543D02*
X29730951Y22929734D01*
X28969047Y22572591D02*
X29254761Y22572591D01*
X29111904Y22572591D02*
X29111904Y23072591D01*
X29111904Y23072591D02*
X29159523Y23001162D01*
X29159523Y23001162D02*
X29207142Y22953543D01*
X29207142Y22953543D02*
X29254761Y22929734D01*
X27607142Y30672591D02*
X27607142Y31172591D01*
X27607142Y31172591D02*
X27488094Y31172591D01*
X27488094Y31172591D02*
X27416666Y31148781D01*
X27416666Y31148781D02*
X27369047Y31101162D01*
X27369047Y31101162D02*
X27345237Y31053543D01*
X27345237Y31053543D02*
X27321428Y30958305D01*
X27321428Y30958305D02*
X27321428Y30886877D01*
X27321428Y30886877D02*
X27345237Y30791639D01*
X27345237Y30791639D02*
X27369047Y30744020D01*
X27369047Y30744020D02*
X27416666Y30696400D01*
X27416666Y30696400D02*
X27488094Y30672591D01*
X27488094Y30672591D02*
X27607142Y30672591D01*
X26845237Y30672591D02*
X27130951Y30672591D01*
X26988094Y30672591D02*
X26988094Y31172591D01*
X26988094Y31172591D02*
X27035713Y31101162D01*
X27035713Y31101162D02*
X27083332Y31053543D01*
X27083332Y31053543D02*
X27130951Y31029734D01*
X26416666Y31005924D02*
X26416666Y30672591D01*
X26535714Y31196400D02*
X26654761Y30839258D01*
X26654761Y30839258D02*
X26345238Y30839258D01*
X32807142Y30672591D02*
X32807142Y31172591D01*
X32807142Y31172591D02*
X32688094Y31172591D01*
X32688094Y31172591D02*
X32616666Y31148781D01*
X32616666Y31148781D02*
X32569047Y31101162D01*
X32569047Y31101162D02*
X32545237Y31053543D01*
X32545237Y31053543D02*
X32521428Y30958305D01*
X32521428Y30958305D02*
X32521428Y30886877D01*
X32521428Y30886877D02*
X32545237Y30791639D01*
X32545237Y30791639D02*
X32569047Y30744020D01*
X32569047Y30744020D02*
X32616666Y30696400D01*
X32616666Y30696400D02*
X32688094Y30672591D01*
X32688094Y30672591D02*
X32807142Y30672591D01*
X32045237Y30672591D02*
X32330951Y30672591D01*
X32188094Y30672591D02*
X32188094Y31172591D01*
X32188094Y31172591D02*
X32235713Y31101162D01*
X32235713Y31101162D02*
X32283332Y31053543D01*
X32283332Y31053543D02*
X32330951Y31029734D01*
X31735714Y31172591D02*
X31688095Y31172591D01*
X31688095Y31172591D02*
X31640476Y31148781D01*
X31640476Y31148781D02*
X31616666Y31124972D01*
X31616666Y31124972D02*
X31592857Y31077353D01*
X31592857Y31077353D02*
X31569047Y30982115D01*
X31569047Y30982115D02*
X31569047Y30863067D01*
X31569047Y30863067D02*
X31592857Y30767829D01*
X31592857Y30767829D02*
X31616666Y30720210D01*
X31616666Y30720210D02*
X31640476Y30696400D01*
X31640476Y30696400D02*
X31688095Y30672591D01*
X31688095Y30672591D02*
X31735714Y30672591D01*
X31735714Y30672591D02*
X31783333Y30696400D01*
X31783333Y30696400D02*
X31807142Y30720210D01*
X31807142Y30720210D02*
X31830952Y30767829D01*
X31830952Y30767829D02*
X31854761Y30863067D01*
X31854761Y30863067D02*
X31854761Y30982115D01*
X31854761Y30982115D02*
X31830952Y31077353D01*
X31830952Y31077353D02*
X31807142Y31124972D01*
X31807142Y31124972D02*
X31783333Y31148781D01*
X31783333Y31148781D02*
X31735714Y31172591D01*
X27607142Y22572591D02*
X27607142Y23072591D01*
X27607142Y23072591D02*
X27488094Y23072591D01*
X27488094Y23072591D02*
X27416666Y23048781D01*
X27416666Y23048781D02*
X27369047Y23001162D01*
X27369047Y23001162D02*
X27345237Y22953543D01*
X27345237Y22953543D02*
X27321428Y22858305D01*
X27321428Y22858305D02*
X27321428Y22786877D01*
X27321428Y22786877D02*
X27345237Y22691639D01*
X27345237Y22691639D02*
X27369047Y22644020D01*
X27369047Y22644020D02*
X27416666Y22596400D01*
X27416666Y22596400D02*
X27488094Y22572591D01*
X27488094Y22572591D02*
X27607142Y22572591D01*
X26845237Y22572591D02*
X27130951Y22572591D01*
X26988094Y22572591D02*
X26988094Y23072591D01*
X26988094Y23072591D02*
X27035713Y23001162D01*
X27035713Y23001162D02*
X27083332Y22953543D01*
X27083332Y22953543D02*
X27130951Y22929734D01*
X26678571Y23072591D02*
X26369047Y23072591D01*
X26369047Y23072591D02*
X26535714Y22882115D01*
X26535714Y22882115D02*
X26464285Y22882115D01*
X26464285Y22882115D02*
X26416666Y22858305D01*
X26416666Y22858305D02*
X26392857Y22834496D01*
X26392857Y22834496D02*
X26369047Y22786877D01*
X26369047Y22786877D02*
X26369047Y22667829D01*
X26369047Y22667829D02*
X26392857Y22620210D01*
X26392857Y22620210D02*
X26416666Y22596400D01*
X26416666Y22596400D02*
X26464285Y22572591D01*
X26464285Y22572591D02*
X26607142Y22572591D01*
X26607142Y22572591D02*
X26654761Y22596400D01*
X26654761Y22596400D02*
X26678571Y22620210D01*
D11*
X29827149Y19721429D02*
X29589054Y19888095D01*
X29827149Y20007143D02*
X29327149Y20007143D01*
X29327149Y20007143D02*
X29327149Y19816667D01*
X29327149Y19816667D02*
X29350959Y19769048D01*
X29350959Y19769048D02*
X29374768Y19745238D01*
X29374768Y19745238D02*
X29422387Y19721429D01*
X29422387Y19721429D02*
X29493816Y19721429D01*
X29493816Y19721429D02*
X29541435Y19745238D01*
X29541435Y19745238D02*
X29565244Y19769048D01*
X29565244Y19769048D02*
X29589054Y19816667D01*
X29589054Y19816667D02*
X29589054Y20007143D01*
X29374768Y19530952D02*
X29350959Y19507143D01*
X29350959Y19507143D02*
X29327149Y19459524D01*
X29327149Y19459524D02*
X29327149Y19340476D01*
X29327149Y19340476D02*
X29350959Y19292857D01*
X29350959Y19292857D02*
X29374768Y19269048D01*
X29374768Y19269048D02*
X29422387Y19245238D01*
X29422387Y19245238D02*
X29470006Y19245238D01*
X29470006Y19245238D02*
X29541435Y19269048D01*
X29541435Y19269048D02*
X29827149Y19554762D01*
X29827149Y19554762D02*
X29827149Y19245238D01*
X29327149Y19078572D02*
X29327149Y18769048D01*
X29327149Y18769048D02*
X29517625Y18935715D01*
X29517625Y18935715D02*
X29517625Y18864286D01*
X29517625Y18864286D02*
X29541435Y18816667D01*
X29541435Y18816667D02*
X29565244Y18792858D01*
X29565244Y18792858D02*
X29612863Y18769048D01*
X29612863Y18769048D02*
X29731911Y18769048D01*
X29731911Y18769048D02*
X29779530Y18792858D01*
X29779530Y18792858D02*
X29803340Y18816667D01*
X29803340Y18816667D02*
X29827149Y18864286D01*
X29827149Y18864286D02*
X29827149Y19007143D01*
X29827149Y19007143D02*
X29803340Y19054762D01*
X29803340Y19054762D02*
X29779530Y19078572D01*
D12*
X35407142Y22572591D02*
X35407142Y23072591D01*
X35407142Y23072591D02*
X35288094Y23072591D01*
X35288094Y23072591D02*
X35216666Y23048781D01*
X35216666Y23048781D02*
X35169047Y23001162D01*
X35169047Y23001162D02*
X35145237Y22953543D01*
X35145237Y22953543D02*
X35121428Y22858305D01*
X35121428Y22858305D02*
X35121428Y22786877D01*
X35121428Y22786877D02*
X35145237Y22691639D01*
X35145237Y22691639D02*
X35169047Y22644020D01*
X35169047Y22644020D02*
X35216666Y22596400D01*
X35216666Y22596400D02*
X35288094Y22572591D01*
X35288094Y22572591D02*
X35407142Y22572591D01*
X34645237Y22572591D02*
X34930951Y22572591D01*
X34788094Y22572591D02*
X34788094Y23072591D01*
X34788094Y23072591D02*
X34835713Y23001162D01*
X34835713Y23001162D02*
X34883332Y22953543D01*
X34883332Y22953543D02*
X34930951Y22929734D01*
X34216666Y23072591D02*
X34311904Y23072591D01*
X34311904Y23072591D02*
X34359523Y23048781D01*
X34359523Y23048781D02*
X34383333Y23024972D01*
X34383333Y23024972D02*
X34430952Y22953543D01*
X34430952Y22953543D02*
X34454761Y22858305D01*
X34454761Y22858305D02*
X34454761Y22667829D01*
X34454761Y22667829D02*
X34430952Y22620210D01*
X34430952Y22620210D02*
X34407142Y22596400D01*
X34407142Y22596400D02*
X34359523Y22572591D01*
X34359523Y22572591D02*
X34264285Y22572591D01*
X34264285Y22572591D02*
X34216666Y22596400D01*
X34216666Y22596400D02*
X34192857Y22620210D01*
X34192857Y22620210D02*
X34169047Y22667829D01*
X34169047Y22667829D02*
X34169047Y22786877D01*
X34169047Y22786877D02*
X34192857Y22834496D01*
X34192857Y22834496D02*
X34216666Y22858305D01*
X34216666Y22858305D02*
X34264285Y22882115D01*
X34264285Y22882115D02*
X34359523Y22882115D01*
X34359523Y22882115D02*
X34407142Y22858305D01*
X34407142Y22858305D02*
X34430952Y22834496D01*
X34430952Y22834496D02*
X34454761Y22786877D01*
D11*
X35027149Y19721429D02*
X34789054Y19888095D01*
X35027149Y20007143D02*
X34527149Y20007143D01*
X34527149Y20007143D02*
X34527149Y19816667D01*
X34527149Y19816667D02*
X34550959Y19769048D01*
X34550959Y19769048D02*
X34574768Y19745238D01*
X34574768Y19745238D02*
X34622387Y19721429D01*
X34622387Y19721429D02*
X34693816Y19721429D01*
X34693816Y19721429D02*
X34741435Y19745238D01*
X34741435Y19745238D02*
X34765244Y19769048D01*
X34765244Y19769048D02*
X34789054Y19816667D01*
X34789054Y19816667D02*
X34789054Y20007143D01*
X34527149Y19554762D02*
X34527149Y19245238D01*
X34527149Y19245238D02*
X34717625Y19411905D01*
X34717625Y19411905D02*
X34717625Y19340476D01*
X34717625Y19340476D02*
X34741435Y19292857D01*
X34741435Y19292857D02*
X34765244Y19269048D01*
X34765244Y19269048D02*
X34812863Y19245238D01*
X34812863Y19245238D02*
X34931911Y19245238D01*
X34931911Y19245238D02*
X34979530Y19269048D01*
X34979530Y19269048D02*
X35003340Y19292857D01*
X35003340Y19292857D02*
X35027149Y19340476D01*
X35027149Y19340476D02*
X35027149Y19483333D01*
X35027149Y19483333D02*
X35003340Y19530952D01*
X35003340Y19530952D02*
X34979530Y19554762D01*
X34741435Y18959524D02*
X34717625Y19007143D01*
X34717625Y19007143D02*
X34693816Y19030953D01*
X34693816Y19030953D02*
X34646197Y19054762D01*
X34646197Y19054762D02*
X34622387Y19054762D01*
X34622387Y19054762D02*
X34574768Y19030953D01*
X34574768Y19030953D02*
X34550959Y19007143D01*
X34550959Y19007143D02*
X34527149Y18959524D01*
X34527149Y18959524D02*
X34527149Y18864286D01*
X34527149Y18864286D02*
X34550959Y18816667D01*
X34550959Y18816667D02*
X34574768Y18792858D01*
X34574768Y18792858D02*
X34622387Y18769048D01*
X34622387Y18769048D02*
X34646197Y18769048D01*
X34646197Y18769048D02*
X34693816Y18792858D01*
X34693816Y18792858D02*
X34717625Y18816667D01*
X34717625Y18816667D02*
X34741435Y18864286D01*
X34741435Y18864286D02*
X34741435Y18959524D01*
X34741435Y18959524D02*
X34765244Y19007143D01*
X34765244Y19007143D02*
X34789054Y19030953D01*
X34789054Y19030953D02*
X34836673Y19054762D01*
X34836673Y19054762D02*
X34931911Y19054762D01*
X34931911Y19054762D02*
X34979530Y19030953D01*
X34979530Y19030953D02*
X35003340Y19007143D01*
X35003340Y19007143D02*
X35027149Y18959524D01*
X35027149Y18959524D02*
X35027149Y18864286D01*
X35027149Y18864286D02*
X35003340Y18816667D01*
X35003340Y18816667D02*
X34979530Y18792858D01*
X34979530Y18792858D02*
X34931911Y18769048D01*
X34931911Y18769048D02*
X34836673Y18769048D01*
X34836673Y18769048D02*
X34789054Y18792858D01*
X34789054Y18792858D02*
X34765244Y18816667D01*
X34765244Y18816667D02*
X34741435Y18864286D01*
X29827149Y27821429D02*
X29589054Y27988095D01*
X29827149Y28107143D02*
X29327149Y28107143D01*
X29327149Y28107143D02*
X29327149Y27916667D01*
X29327149Y27916667D02*
X29350959Y27869048D01*
X29350959Y27869048D02*
X29374768Y27845238D01*
X29374768Y27845238D02*
X29422387Y27821429D01*
X29422387Y27821429D02*
X29493816Y27821429D01*
X29493816Y27821429D02*
X29541435Y27845238D01*
X29541435Y27845238D02*
X29565244Y27869048D01*
X29565244Y27869048D02*
X29589054Y27916667D01*
X29589054Y27916667D02*
X29589054Y28107143D01*
X29374768Y27630952D02*
X29350959Y27607143D01*
X29350959Y27607143D02*
X29327149Y27559524D01*
X29327149Y27559524D02*
X29327149Y27440476D01*
X29327149Y27440476D02*
X29350959Y27392857D01*
X29350959Y27392857D02*
X29374768Y27369048D01*
X29374768Y27369048D02*
X29422387Y27345238D01*
X29422387Y27345238D02*
X29470006Y27345238D01*
X29470006Y27345238D02*
X29541435Y27369048D01*
X29541435Y27369048D02*
X29827149Y27654762D01*
X29827149Y27654762D02*
X29827149Y27345238D01*
X29493816Y26916667D02*
X29827149Y26916667D01*
X29303340Y27035715D02*
X29660482Y27154762D01*
X29660482Y27154762D02*
X29660482Y26845239D01*
D12*
X32569047Y22572591D02*
X32569047Y23072591D01*
X32569047Y23072591D02*
X32449999Y23072591D01*
X32449999Y23072591D02*
X32378571Y23048781D01*
X32378571Y23048781D02*
X32330952Y23001162D01*
X32330952Y23001162D02*
X32307142Y22953543D01*
X32307142Y22953543D02*
X32283333Y22858305D01*
X32283333Y22858305D02*
X32283333Y22786877D01*
X32283333Y22786877D02*
X32307142Y22691639D01*
X32307142Y22691639D02*
X32330952Y22644020D01*
X32330952Y22644020D02*
X32378571Y22596400D01*
X32378571Y22596400D02*
X32449999Y22572591D01*
X32449999Y22572591D02*
X32569047Y22572591D01*
X31997618Y22858305D02*
X32045237Y22882115D01*
X32045237Y22882115D02*
X32069047Y22905924D01*
X32069047Y22905924D02*
X32092856Y22953543D01*
X32092856Y22953543D02*
X32092856Y22977353D01*
X32092856Y22977353D02*
X32069047Y23024972D01*
X32069047Y23024972D02*
X32045237Y23048781D01*
X32045237Y23048781D02*
X31997618Y23072591D01*
X31997618Y23072591D02*
X31902380Y23072591D01*
X31902380Y23072591D02*
X31854761Y23048781D01*
X31854761Y23048781D02*
X31830952Y23024972D01*
X31830952Y23024972D02*
X31807142Y22977353D01*
X31807142Y22977353D02*
X31807142Y22953543D01*
X31807142Y22953543D02*
X31830952Y22905924D01*
X31830952Y22905924D02*
X31854761Y22882115D01*
X31854761Y22882115D02*
X31902380Y22858305D01*
X31902380Y22858305D02*
X31997618Y22858305D01*
X31997618Y22858305D02*
X32045237Y22834496D01*
X32045237Y22834496D02*
X32069047Y22810686D01*
X32069047Y22810686D02*
X32092856Y22763067D01*
X32092856Y22763067D02*
X32092856Y22667829D01*
X32092856Y22667829D02*
X32069047Y22620210D01*
X32069047Y22620210D02*
X32045237Y22596400D01*
X32045237Y22596400D02*
X31997618Y22572591D01*
X31997618Y22572591D02*
X31902380Y22572591D01*
X31902380Y22572591D02*
X31854761Y22596400D01*
X31854761Y22596400D02*
X31830952Y22620210D01*
X31830952Y22620210D02*
X31807142Y22667829D01*
X31807142Y22667829D02*
X31807142Y22763067D01*
X31807142Y22763067D02*
X31830952Y22810686D01*
X31830952Y22810686D02*
X31854761Y22834496D01*
X31854761Y22834496D02*
X31902380Y22858305D01*
D11*
X35227149Y61921429D02*
X34989054Y62088095D01*
X35227149Y62207143D02*
X34727149Y62207143D01*
X34727149Y62207143D02*
X34727149Y62016667D01*
X34727149Y62016667D02*
X34750959Y61969048D01*
X34750959Y61969048D02*
X34774768Y61945238D01*
X34774768Y61945238D02*
X34822387Y61921429D01*
X34822387Y61921429D02*
X34893816Y61921429D01*
X34893816Y61921429D02*
X34941435Y61945238D01*
X34941435Y61945238D02*
X34965244Y61969048D01*
X34965244Y61969048D02*
X34989054Y62016667D01*
X34989054Y62016667D02*
X34989054Y62207143D01*
X34727149Y61754762D02*
X34727149Y61445238D01*
X34727149Y61445238D02*
X34917625Y61611905D01*
X34917625Y61611905D02*
X34917625Y61540476D01*
X34917625Y61540476D02*
X34941435Y61492857D01*
X34941435Y61492857D02*
X34965244Y61469048D01*
X34965244Y61469048D02*
X35012863Y61445238D01*
X35012863Y61445238D02*
X35131911Y61445238D01*
X35131911Y61445238D02*
X35179530Y61469048D01*
X35179530Y61469048D02*
X35203340Y61492857D01*
X35203340Y61492857D02*
X35227149Y61540476D01*
X35227149Y61540476D02*
X35227149Y61683333D01*
X35227149Y61683333D02*
X35203340Y61730952D01*
X35203340Y61730952D02*
X35179530Y61754762D01*
X35227149Y61207143D02*
X35227149Y61111905D01*
X35227149Y61111905D02*
X35203340Y61064286D01*
X35203340Y61064286D02*
X35179530Y61040477D01*
X35179530Y61040477D02*
X35108101Y60992858D01*
X35108101Y60992858D02*
X35012863Y60969048D01*
X35012863Y60969048D02*
X34822387Y60969048D01*
X34822387Y60969048D02*
X34774768Y60992858D01*
X34774768Y60992858D02*
X34750959Y61016667D01*
X34750959Y61016667D02*
X34727149Y61064286D01*
X34727149Y61064286D02*
X34727149Y61159524D01*
X34727149Y61159524D02*
X34750959Y61207143D01*
X34750959Y61207143D02*
X34774768Y61230953D01*
X34774768Y61230953D02*
X34822387Y61254762D01*
X34822387Y61254762D02*
X34941435Y61254762D01*
X34941435Y61254762D02*
X34989054Y61230953D01*
X34989054Y61230953D02*
X35012863Y61207143D01*
X35012863Y61207143D02*
X35036673Y61159524D01*
X35036673Y61159524D02*
X35036673Y61064286D01*
X35036673Y61064286D02*
X35012863Y61016667D01*
X35012863Y61016667D02*
X34989054Y60992858D01*
X34989054Y60992858D02*
X34941435Y60969048D01*
X12227149Y62321429D02*
X11989054Y62488095D01*
X12227149Y62607143D02*
X11727149Y62607143D01*
X11727149Y62607143D02*
X11727149Y62416667D01*
X11727149Y62416667D02*
X11750959Y62369048D01*
X11750959Y62369048D02*
X11774768Y62345238D01*
X11774768Y62345238D02*
X11822387Y62321429D01*
X11822387Y62321429D02*
X11893816Y62321429D01*
X11893816Y62321429D02*
X11941435Y62345238D01*
X11941435Y62345238D02*
X11965244Y62369048D01*
X11965244Y62369048D02*
X11989054Y62416667D01*
X11989054Y62416667D02*
X11989054Y62607143D01*
X12227149Y61845238D02*
X12227149Y62130952D01*
X12227149Y61988095D02*
X11727149Y61988095D01*
X11727149Y61988095D02*
X11798578Y62035714D01*
X11798578Y62035714D02*
X11846197Y62083333D01*
X11846197Y62083333D02*
X11870006Y62130952D01*
X11727149Y61416667D02*
X11727149Y61511905D01*
X11727149Y61511905D02*
X11750959Y61559524D01*
X11750959Y61559524D02*
X11774768Y61583334D01*
X11774768Y61583334D02*
X11846197Y61630953D01*
X11846197Y61630953D02*
X11941435Y61654762D01*
X11941435Y61654762D02*
X12131911Y61654762D01*
X12131911Y61654762D02*
X12179530Y61630953D01*
X12179530Y61630953D02*
X12203340Y61607143D01*
X12203340Y61607143D02*
X12227149Y61559524D01*
X12227149Y61559524D02*
X12227149Y61464286D01*
X12227149Y61464286D02*
X12203340Y61416667D01*
X12203340Y61416667D02*
X12179530Y61392858D01*
X12179530Y61392858D02*
X12131911Y61369048D01*
X12131911Y61369048D02*
X12012863Y61369048D01*
X12012863Y61369048D02*
X11965244Y61392858D01*
X11965244Y61392858D02*
X11941435Y61416667D01*
X11941435Y61416667D02*
X11917625Y61464286D01*
X11917625Y61464286D02*
X11917625Y61559524D01*
X11917625Y61559524D02*
X11941435Y61607143D01*
X11941435Y61607143D02*
X11965244Y61630953D01*
X11965244Y61630953D02*
X12012863Y61654762D01*
X32427149Y27821429D02*
X32189054Y27988095D01*
X32427149Y28107143D02*
X31927149Y28107143D01*
X31927149Y28107143D02*
X31927149Y27916667D01*
X31927149Y27916667D02*
X31950959Y27869048D01*
X31950959Y27869048D02*
X31974768Y27845238D01*
X31974768Y27845238D02*
X32022387Y27821429D01*
X32022387Y27821429D02*
X32093816Y27821429D01*
X32093816Y27821429D02*
X32141435Y27845238D01*
X32141435Y27845238D02*
X32165244Y27869048D01*
X32165244Y27869048D02*
X32189054Y27916667D01*
X32189054Y27916667D02*
X32189054Y28107143D01*
X31974768Y27630952D02*
X31950959Y27607143D01*
X31950959Y27607143D02*
X31927149Y27559524D01*
X31927149Y27559524D02*
X31927149Y27440476D01*
X31927149Y27440476D02*
X31950959Y27392857D01*
X31950959Y27392857D02*
X31974768Y27369048D01*
X31974768Y27369048D02*
X32022387Y27345238D01*
X32022387Y27345238D02*
X32070006Y27345238D01*
X32070006Y27345238D02*
X32141435Y27369048D01*
X32141435Y27369048D02*
X32427149Y27654762D01*
X32427149Y27654762D02*
X32427149Y27345238D01*
X31974768Y27154762D02*
X31950959Y27130953D01*
X31950959Y27130953D02*
X31927149Y27083334D01*
X31927149Y27083334D02*
X31927149Y26964286D01*
X31927149Y26964286D02*
X31950959Y26916667D01*
X31950959Y26916667D02*
X31974768Y26892858D01*
X31974768Y26892858D02*
X32022387Y26869048D01*
X32022387Y26869048D02*
X32070006Y26869048D01*
X32070006Y26869048D02*
X32141435Y26892858D01*
X32141435Y26892858D02*
X32427149Y27178572D01*
X32427149Y27178572D02*
X32427149Y26869048D01*
X32427149Y19721429D02*
X32189054Y19888095D01*
X32427149Y20007143D02*
X31927149Y20007143D01*
X31927149Y20007143D02*
X31927149Y19816667D01*
X31927149Y19816667D02*
X31950959Y19769048D01*
X31950959Y19769048D02*
X31974768Y19745238D01*
X31974768Y19745238D02*
X32022387Y19721429D01*
X32022387Y19721429D02*
X32093816Y19721429D01*
X32093816Y19721429D02*
X32141435Y19745238D01*
X32141435Y19745238D02*
X32165244Y19769048D01*
X32165244Y19769048D02*
X32189054Y19816667D01*
X32189054Y19816667D02*
X32189054Y20007143D01*
X31974768Y19530952D02*
X31950959Y19507143D01*
X31950959Y19507143D02*
X31927149Y19459524D01*
X31927149Y19459524D02*
X31927149Y19340476D01*
X31927149Y19340476D02*
X31950959Y19292857D01*
X31950959Y19292857D02*
X31974768Y19269048D01*
X31974768Y19269048D02*
X32022387Y19245238D01*
X32022387Y19245238D02*
X32070006Y19245238D01*
X32070006Y19245238D02*
X32141435Y19269048D01*
X32141435Y19269048D02*
X32427149Y19554762D01*
X32427149Y19554762D02*
X32427149Y19245238D01*
X32427149Y18769048D02*
X32427149Y19054762D01*
X32427149Y18911905D02*
X31927149Y18911905D01*
X31927149Y18911905D02*
X31998578Y18959524D01*
X31998578Y18959524D02*
X32046197Y19007143D01*
X32046197Y19007143D02*
X32070006Y19054762D01*
D12*
X29627409Y60869048D02*
X29127409Y60869048D01*
X29127409Y60869048D02*
X29127409Y60750000D01*
X29127409Y60750000D02*
X29151219Y60678572D01*
X29151219Y60678572D02*
X29198838Y60630953D01*
X29198838Y60630953D02*
X29246457Y60607143D01*
X29246457Y60607143D02*
X29341695Y60583334D01*
X29341695Y60583334D02*
X29413123Y60583334D01*
X29413123Y60583334D02*
X29508361Y60607143D01*
X29508361Y60607143D02*
X29555980Y60630953D01*
X29555980Y60630953D02*
X29603600Y60678572D01*
X29603600Y60678572D02*
X29627409Y60750000D01*
X29627409Y60750000D02*
X29627409Y60869048D01*
X29627409Y60107143D02*
X29627409Y60392857D01*
X29627409Y60250000D02*
X29127409Y60250000D01*
X29127409Y60250000D02*
X29198838Y60297619D01*
X29198838Y60297619D02*
X29246457Y60345238D01*
X29246457Y60345238D02*
X29270266Y60392857D01*
D11*
X27227149Y27821429D02*
X26989054Y27988095D01*
X27227149Y28107143D02*
X26727149Y28107143D01*
X26727149Y28107143D02*
X26727149Y27916667D01*
X26727149Y27916667D02*
X26750959Y27869048D01*
X26750959Y27869048D02*
X26774768Y27845238D01*
X26774768Y27845238D02*
X26822387Y27821429D01*
X26822387Y27821429D02*
X26893816Y27821429D01*
X26893816Y27821429D02*
X26941435Y27845238D01*
X26941435Y27845238D02*
X26965244Y27869048D01*
X26965244Y27869048D02*
X26989054Y27916667D01*
X26989054Y27916667D02*
X26989054Y28107143D01*
X26727149Y27654762D02*
X26727149Y27345238D01*
X26727149Y27345238D02*
X26917625Y27511905D01*
X26917625Y27511905D02*
X26917625Y27440476D01*
X26917625Y27440476D02*
X26941435Y27392857D01*
X26941435Y27392857D02*
X26965244Y27369048D01*
X26965244Y27369048D02*
X27012863Y27345238D01*
X27012863Y27345238D02*
X27131911Y27345238D01*
X27131911Y27345238D02*
X27179530Y27369048D01*
X27179530Y27369048D02*
X27203340Y27392857D01*
X27203340Y27392857D02*
X27227149Y27440476D01*
X27227149Y27440476D02*
X27227149Y27583333D01*
X27227149Y27583333D02*
X27203340Y27630952D01*
X27203340Y27630952D02*
X27179530Y27654762D01*
X26727149Y26916667D02*
X26727149Y27011905D01*
X26727149Y27011905D02*
X26750959Y27059524D01*
X26750959Y27059524D02*
X26774768Y27083334D01*
X26774768Y27083334D02*
X26846197Y27130953D01*
X26846197Y27130953D02*
X26941435Y27154762D01*
X26941435Y27154762D02*
X27131911Y27154762D01*
X27131911Y27154762D02*
X27179530Y27130953D01*
X27179530Y27130953D02*
X27203340Y27107143D01*
X27203340Y27107143D02*
X27227149Y27059524D01*
X27227149Y27059524D02*
X27227149Y26964286D01*
X27227149Y26964286D02*
X27203340Y26916667D01*
X27203340Y26916667D02*
X27179530Y26892858D01*
X27179530Y26892858D02*
X27131911Y26869048D01*
X27131911Y26869048D02*
X27012863Y26869048D01*
X27012863Y26869048D02*
X26965244Y26892858D01*
X26965244Y26892858D02*
X26941435Y26916667D01*
X26941435Y26916667D02*
X26917625Y26964286D01*
X26917625Y26964286D02*
X26917625Y27059524D01*
X26917625Y27059524D02*
X26941435Y27107143D01*
X26941435Y27107143D02*
X26965244Y27130953D01*
X26965244Y27130953D02*
X27012863Y27154762D01*
D12*
X30207142Y30672591D02*
X30207142Y31172591D01*
X30207142Y31172591D02*
X30088094Y31172591D01*
X30088094Y31172591D02*
X30016666Y31148781D01*
X30016666Y31148781D02*
X29969047Y31101162D01*
X29969047Y31101162D02*
X29945237Y31053543D01*
X29945237Y31053543D02*
X29921428Y30958305D01*
X29921428Y30958305D02*
X29921428Y30886877D01*
X29921428Y30886877D02*
X29945237Y30791639D01*
X29945237Y30791639D02*
X29969047Y30744020D01*
X29969047Y30744020D02*
X30016666Y30696400D01*
X30016666Y30696400D02*
X30088094Y30672591D01*
X30088094Y30672591D02*
X30207142Y30672591D01*
X29445237Y30672591D02*
X29730951Y30672591D01*
X29588094Y30672591D02*
X29588094Y31172591D01*
X29588094Y31172591D02*
X29635713Y31101162D01*
X29635713Y31101162D02*
X29683332Y31053543D01*
X29683332Y31053543D02*
X29730951Y31029734D01*
X29254761Y31124972D02*
X29230952Y31148781D01*
X29230952Y31148781D02*
X29183333Y31172591D01*
X29183333Y31172591D02*
X29064285Y31172591D01*
X29064285Y31172591D02*
X29016666Y31148781D01*
X29016666Y31148781D02*
X28992857Y31124972D01*
X28992857Y31124972D02*
X28969047Y31077353D01*
X28969047Y31077353D02*
X28969047Y31029734D01*
X28969047Y31029734D02*
X28992857Y30958305D01*
X28992857Y30958305D02*
X29278571Y30672591D01*
X29278571Y30672591D02*
X28969047Y30672591D01*
D11*
X27227149Y19721429D02*
X26989054Y19888095D01*
X27227149Y20007143D02*
X26727149Y20007143D01*
X26727149Y20007143D02*
X26727149Y19816667D01*
X26727149Y19816667D02*
X26750959Y19769048D01*
X26750959Y19769048D02*
X26774768Y19745238D01*
X26774768Y19745238D02*
X26822387Y19721429D01*
X26822387Y19721429D02*
X26893816Y19721429D01*
X26893816Y19721429D02*
X26941435Y19745238D01*
X26941435Y19745238D02*
X26965244Y19769048D01*
X26965244Y19769048D02*
X26989054Y19816667D01*
X26989054Y19816667D02*
X26989054Y20007143D01*
X26774768Y19530952D02*
X26750959Y19507143D01*
X26750959Y19507143D02*
X26727149Y19459524D01*
X26727149Y19459524D02*
X26727149Y19340476D01*
X26727149Y19340476D02*
X26750959Y19292857D01*
X26750959Y19292857D02*
X26774768Y19269048D01*
X26774768Y19269048D02*
X26822387Y19245238D01*
X26822387Y19245238D02*
X26870006Y19245238D01*
X26870006Y19245238D02*
X26941435Y19269048D01*
X26941435Y19269048D02*
X27227149Y19554762D01*
X27227149Y19554762D02*
X27227149Y19245238D01*
X26727149Y18792858D02*
X26727149Y19030953D01*
X26727149Y19030953D02*
X26965244Y19054762D01*
X26965244Y19054762D02*
X26941435Y19030953D01*
X26941435Y19030953D02*
X26917625Y18983334D01*
X26917625Y18983334D02*
X26917625Y18864286D01*
X26917625Y18864286D02*
X26941435Y18816667D01*
X26941435Y18816667D02*
X26965244Y18792858D01*
X26965244Y18792858D02*
X27012863Y18769048D01*
X27012863Y18769048D02*
X27131911Y18769048D01*
X27131911Y18769048D02*
X27179530Y18792858D01*
X27179530Y18792858D02*
X27203340Y18816667D01*
X27203340Y18816667D02*
X27227149Y18864286D01*
X27227149Y18864286D02*
X27227149Y18983334D01*
X27227149Y18983334D02*
X27203340Y19030953D01*
X27203340Y19030953D02*
X27179530Y19054762D01*
%TO.C,R20*%
D13*
X117505000Y26350000D02*
X119995000Y26350000D01*
X119995000Y23150000D01*
X117505000Y23150000D01*
X117505000Y26350000D01*
%TO.C,C54*%
X112750000Y26337500D02*
X115250000Y26337500D01*
X115250000Y23137500D01*
X112750000Y23137500D01*
X112750000Y26337500D01*
%TO.C,C5*%
X78780000Y39600000D02*
X80380000Y39600000D01*
X80380000Y36400000D01*
X78780000Y36400000D01*
X78780000Y39600000D01*
%TO.C,C4*%
X68700000Y39600000D02*
X70300000Y39600000D01*
X70300000Y36400000D01*
X68700000Y36400000D01*
X68700000Y39600000D01*
%TO.C,C28*%
X114700000Y21200000D02*
X117900000Y21200000D01*
X117900000Y19600000D01*
X114700000Y19600000D01*
X114700000Y21200000D01*
%TO.C,C30*%
X121780000Y39600000D02*
X123380000Y39600000D01*
X123380000Y36400000D01*
X121780000Y36400000D01*
X121780000Y39600000D01*
%TO.C,C29*%
X111700000Y39600000D02*
X113300000Y39600000D01*
X113300000Y36400000D01*
X111700000Y36400000D01*
X111700000Y39600000D01*
%TO.C,C3*%
X71700000Y21200000D02*
X74900000Y21200000D01*
X74900000Y19600000D01*
X71700000Y19600000D01*
X71700000Y21200000D01*
%TO.C,R19*%
X74505000Y26350000D02*
X76995000Y26350000D01*
X76995000Y23150000D01*
X74505000Y23150000D01*
X74505000Y26350000D01*
%TO.C,C53*%
X69750000Y26337500D02*
X72250000Y26337500D01*
X72250000Y23137500D01*
X69750000Y23137500D01*
X69750000Y26337500D01*
%TO.C,R37*%
X34175000Y28500000D02*
X35425000Y28500000D01*
X35425000Y26500000D01*
X34175000Y26500000D01*
X34175000Y28500000D01*
%TO.C,D6*%
X13000000Y58087500D02*
X12687500Y57775000D01*
X11000000Y57775000D01*
X11000000Y59025000D01*
X13000000Y59025000D01*
X13000000Y58087500D01*
%TO.C,D15*%
X35800000Y30275000D02*
X33800000Y30275000D01*
X33800000Y31212500D01*
X34112500Y31525000D01*
X35800000Y31525000D01*
X35800000Y30275000D01*
%TO.C,D11*%
X30600000Y22175000D02*
X28600000Y22175000D01*
X28600000Y23112500D01*
X28912500Y23425000D01*
X30600000Y23425000D01*
X30600000Y22175000D01*
%TO.C,D14*%
X28000000Y30275000D02*
X26000000Y30275000D01*
X26000000Y31212500D01*
X26312500Y31525000D01*
X28000000Y31525000D01*
X28000000Y30275000D01*
%TO.C,D10*%
X33200000Y30275000D02*
X31200000Y30275000D01*
X31200000Y31212500D01*
X31512500Y31525000D01*
X33200000Y31525000D01*
X33200000Y30275000D01*
%TO.C,D13*%
X28000000Y22175000D02*
X26000000Y22175000D01*
X26000000Y23112500D01*
X26312500Y23425000D01*
X28000000Y23425000D01*
X28000000Y22175000D01*
%TO.C,R23*%
X28975000Y20400000D02*
X30225000Y20400000D01*
X30225000Y18400000D01*
X28975000Y18400000D01*
X28975000Y20400000D01*
%TO.C,D16*%
X35800000Y22175000D02*
X33800000Y22175000D01*
X33800000Y23112500D01*
X34112500Y23425000D01*
X35800000Y23425000D01*
X35800000Y22175000D01*
%TO.C,R38*%
X34175000Y20400000D02*
X35425000Y20400000D01*
X35425000Y18400000D01*
X34175000Y18400000D01*
X34175000Y20400000D01*
%TO.C,R24*%
X28975000Y28500000D02*
X30225000Y28500000D01*
X30225000Y26500000D01*
X28975000Y26500000D01*
X28975000Y28500000D01*
%TO.C,D8*%
X33200000Y22175000D02*
X31200000Y22175000D01*
X31200000Y23112500D01*
X31512500Y23425000D01*
X33200000Y23425000D01*
X33200000Y22175000D01*
%TO.C,R39*%
X34375000Y62600000D02*
X35625000Y62600000D01*
X35625000Y60600000D01*
X34375000Y60600000D01*
X34375000Y62600000D01*
%TO.C,R16*%
X11375000Y63000000D02*
X12625000Y63000000D01*
X12625000Y61000000D01*
X11375000Y61000000D01*
X11375000Y63000000D01*
%TO.C,R22*%
X31575000Y28500000D02*
X32825000Y28500000D01*
X32825000Y26500000D01*
X31575000Y26500000D01*
X31575000Y28500000D01*
%TO.C,R21*%
X31575000Y20400000D02*
X32825000Y20400000D01*
X32825000Y18400000D01*
X31575000Y18400000D01*
X31575000Y20400000D01*
%TO.C,D1*%
X30025000Y59500000D02*
X29087500Y59500000D01*
X28775000Y59812500D01*
X28775000Y61500000D01*
X30025000Y61500000D01*
X30025000Y59500000D01*
%TO.C,R36*%
X26375000Y28500000D02*
X27625000Y28500000D01*
X27625000Y26500000D01*
X26375000Y26500000D01*
X26375000Y28500000D01*
%TO.C,D12*%
X30600000Y30275000D02*
X28600000Y30275000D01*
X28600000Y31212500D01*
X28912500Y31525000D01*
X30600000Y31525000D01*
X30600000Y30275000D01*
%TO.C,R25*%
X26375000Y20400000D02*
X27625000Y20400000D01*
X27625000Y18400000D01*
X26375000Y18400000D01*
X26375000Y20400000D01*
%TD*%
X115645000Y27262500D02*
X112355000Y22212500D01*
X115645000Y22212500D02*
X112355000Y27262500D01*
X72645000Y27262500D02*
X69355000Y22212500D01*
X72645000Y22212500D02*
X69355000Y27262500D01*
M02*
