G04 #@! TF.GenerationSoftware,KiCad,Pcbnew,9.0.6*
G04 #@! TF.CreationDate,2026-01-16T18:41:02-05:00*
G04 #@! TF.ProjectId,stimjim,7374696d-6a69-46d2-9e6b-696361645f70,B*
G04 #@! TF.SameCoordinates,PX8c30ac0PYa037a00*
G04 #@! TF.FileFunction,AssemblyDrawing,Bot*
%FSLAX46Y46*%
G04 Gerber Fmt 4.6, Leading zero omitted, Abs format (unit mm)*
G04 Created by KiCad (PCBNEW 9.0.6) date 2026-01-16 18:41:02*
%MOMM*%
%LPD*%
G01*
G04 APERTURE LIST*
%ADD10C,0.150000*%
%ADD11C,0.120000*%
%ADD12C,0.100000*%
G04 APERTURE END LIST*
D10*
X90116033Y24366667D02*
X90682700Y24366667D01*
X90682700Y24366667D02*
X90749366Y24333333D01*
X90749366Y24333333D02*
X90782700Y24300000D01*
X90782700Y24300000D02*
X90816033Y24233333D01*
X90816033Y24233333D02*
X90816033Y24100000D01*
X90816033Y24100000D02*
X90782700Y24033333D01*
X90782700Y24033333D02*
X90749366Y24000000D01*
X90749366Y24000000D02*
X90682700Y23966667D01*
X90682700Y23966667D02*
X90116033Y23966667D01*
X90816033Y23266667D02*
X90816033Y23666667D01*
X90816033Y23466667D02*
X90116033Y23466667D01*
X90116033Y23466667D02*
X90216033Y23533334D01*
X90216033Y23533334D02*
X90282700Y23600000D01*
X90282700Y23600000D02*
X90316033Y23666667D01*
X90116033Y22633333D02*
X90116033Y22966667D01*
X90116033Y22966667D02*
X90449366Y23000000D01*
X90449366Y23000000D02*
X90416033Y22966667D01*
X90416033Y22966667D02*
X90382700Y22900000D01*
X90382700Y22900000D02*
X90382700Y22733333D01*
X90382700Y22733333D02*
X90416033Y22666667D01*
X90416033Y22666667D02*
X90449366Y22633333D01*
X90449366Y22633333D02*
X90516033Y22600000D01*
X90516033Y22600000D02*
X90682700Y22600000D01*
X90682700Y22600000D02*
X90749366Y22633333D01*
X90749366Y22633333D02*
X90782700Y22666667D01*
X90782700Y22666667D02*
X90816033Y22733333D01*
X90816033Y22733333D02*
X90816033Y22900000D01*
X90816033Y22900000D02*
X90782700Y22966667D01*
X90782700Y22966667D02*
X90749366Y23000000D01*
X121484819Y25035715D02*
X121484819Y25607143D01*
X121484819Y25321429D02*
X120484819Y25321429D01*
X120484819Y25321429D02*
X120627676Y25416667D01*
X120627676Y25416667D02*
X120722914Y25511905D01*
X120722914Y25511905D02*
X120770533Y25607143D01*
X121484819Y24607143D02*
X120484819Y24607143D01*
X120484819Y24607143D02*
X121199104Y24273810D01*
X121199104Y24273810D02*
X120484819Y23940477D01*
X120484819Y23940477D02*
X121484819Y23940477D01*
D11*
X119113855Y25264286D02*
X118732902Y25530953D01*
X119113855Y25721429D02*
X118313855Y25721429D01*
X118313855Y25721429D02*
X118313855Y25416667D01*
X118313855Y25416667D02*
X118351950Y25340477D01*
X118351950Y25340477D02*
X118390045Y25302382D01*
X118390045Y25302382D02*
X118466236Y25264286D01*
X118466236Y25264286D02*
X118580521Y25264286D01*
X118580521Y25264286D02*
X118656712Y25302382D01*
X118656712Y25302382D02*
X118694807Y25340477D01*
X118694807Y25340477D02*
X118732902Y25416667D01*
X118732902Y25416667D02*
X118732902Y25721429D01*
X118390045Y24959525D02*
X118351950Y24921429D01*
X118351950Y24921429D02*
X118313855Y24845239D01*
X118313855Y24845239D02*
X118313855Y24654763D01*
X118313855Y24654763D02*
X118351950Y24578572D01*
X118351950Y24578572D02*
X118390045Y24540477D01*
X118390045Y24540477D02*
X118466236Y24502382D01*
X118466236Y24502382D02*
X118542426Y24502382D01*
X118542426Y24502382D02*
X118656712Y24540477D01*
X118656712Y24540477D02*
X119113855Y24997620D01*
X119113855Y24997620D02*
X119113855Y24502382D01*
X118313855Y24007143D02*
X118313855Y23930953D01*
X118313855Y23930953D02*
X118351950Y23854762D01*
X118351950Y23854762D02*
X118390045Y23816667D01*
X118390045Y23816667D02*
X118466236Y23778572D01*
X118466236Y23778572D02*
X118618617Y23740477D01*
X118618617Y23740477D02*
X118809093Y23740477D01*
X118809093Y23740477D02*
X118961474Y23778572D01*
X118961474Y23778572D02*
X119037664Y23816667D01*
X119037664Y23816667D02*
X119075760Y23854762D01*
X119075760Y23854762D02*
X119113855Y23930953D01*
X119113855Y23930953D02*
X119113855Y24007143D01*
X119113855Y24007143D02*
X119075760Y24083334D01*
X119075760Y24083334D02*
X119037664Y24121429D01*
X119037664Y24121429D02*
X118961474Y24159524D01*
X118961474Y24159524D02*
X118809093Y24197620D01*
X118809093Y24197620D02*
X118618617Y24197620D01*
X118618617Y24197620D02*
X118466236Y24159524D01*
X118466236Y24159524D02*
X118390045Y24121429D01*
X118390045Y24121429D02*
X118351950Y24083334D01*
X118351950Y24083334D02*
X118313855Y24007143D01*
D10*
X115850057Y26618452D02*
X115802438Y26570833D01*
X115802438Y26570833D02*
X115754819Y26475595D01*
X115754819Y26475595D02*
X115754819Y26237500D01*
X115754819Y26237500D02*
X115802438Y26142262D01*
X115802438Y26142262D02*
X115850057Y26094643D01*
X115850057Y26094643D02*
X115945295Y26047024D01*
X115945295Y26047024D02*
X116040533Y26047024D01*
X116040533Y26047024D02*
X116183390Y26094643D01*
X116183390Y26094643D02*
X116754819Y26666071D01*
X116754819Y26666071D02*
X116754819Y26047024D01*
X116659580Y25618452D02*
X116707200Y25570833D01*
X116707200Y25570833D02*
X116754819Y25618452D01*
X116754819Y25618452D02*
X116707200Y25666071D01*
X116707200Y25666071D02*
X116659580Y25618452D01*
X116659580Y25618452D02*
X116754819Y25618452D01*
X115850057Y25189881D02*
X115802438Y25142262D01*
X115802438Y25142262D02*
X115754819Y25047024D01*
X115754819Y25047024D02*
X115754819Y24808929D01*
X115754819Y24808929D02*
X115802438Y24713691D01*
X115802438Y24713691D02*
X115850057Y24666072D01*
X115850057Y24666072D02*
X115945295Y24618453D01*
X115945295Y24618453D02*
X116040533Y24618453D01*
X116040533Y24618453D02*
X116183390Y24666072D01*
X116183390Y24666072D02*
X116754819Y25237500D01*
X116754819Y25237500D02*
X116754819Y24618453D01*
X116088152Y24189881D02*
X116754819Y24189881D01*
X116183390Y24189881D02*
X116135771Y24142262D01*
X116135771Y24142262D02*
X116088152Y24047024D01*
X116088152Y24047024D02*
X116088152Y23904167D01*
X116088152Y23904167D02*
X116135771Y23808929D01*
X116135771Y23808929D02*
X116231009Y23761310D01*
X116231009Y23761310D02*
X116754819Y23761310D01*
X116231009Y22951786D02*
X116231009Y23285119D01*
X116754819Y23285119D02*
X115754819Y23285119D01*
X115754819Y23285119D02*
X115754819Y22808929D01*
D11*
X114287664Y25251786D02*
X114325760Y25289882D01*
X114325760Y25289882D02*
X114363855Y25404167D01*
X114363855Y25404167D02*
X114363855Y25480358D01*
X114363855Y25480358D02*
X114325760Y25594644D01*
X114325760Y25594644D02*
X114249569Y25670834D01*
X114249569Y25670834D02*
X114173379Y25708929D01*
X114173379Y25708929D02*
X114020998Y25747025D01*
X114020998Y25747025D02*
X113906712Y25747025D01*
X113906712Y25747025D02*
X113754331Y25708929D01*
X113754331Y25708929D02*
X113678140Y25670834D01*
X113678140Y25670834D02*
X113601950Y25594644D01*
X113601950Y25594644D02*
X113563855Y25480358D01*
X113563855Y25480358D02*
X113563855Y25404167D01*
X113563855Y25404167D02*
X113601950Y25289882D01*
X113601950Y25289882D02*
X113640045Y25251786D01*
X113563855Y24527977D02*
X113563855Y24908929D01*
X113563855Y24908929D02*
X113944807Y24947025D01*
X113944807Y24947025D02*
X113906712Y24908929D01*
X113906712Y24908929D02*
X113868617Y24832739D01*
X113868617Y24832739D02*
X113868617Y24642263D01*
X113868617Y24642263D02*
X113906712Y24566072D01*
X113906712Y24566072D02*
X113944807Y24527977D01*
X113944807Y24527977D02*
X114020998Y24489882D01*
X114020998Y24489882D02*
X114211474Y24489882D01*
X114211474Y24489882D02*
X114287664Y24527977D01*
X114287664Y24527977D02*
X114325760Y24566072D01*
X114325760Y24566072D02*
X114363855Y24642263D01*
X114363855Y24642263D02*
X114363855Y24832739D01*
X114363855Y24832739D02*
X114325760Y24908929D01*
X114325760Y24908929D02*
X114287664Y24947025D01*
X113830521Y23804167D02*
X114363855Y23804167D01*
X113525760Y23994643D02*
X114097188Y24185120D01*
X114097188Y24185120D02*
X114097188Y23689881D01*
D10*
X81304819Y39821429D02*
X81304819Y40392857D01*
X81304819Y40107143D02*
X80304819Y40107143D01*
X80304819Y40107143D02*
X80447676Y40202381D01*
X80447676Y40202381D02*
X80542914Y40297619D01*
X80542914Y40297619D02*
X80590533Y40392857D01*
X80304819Y39202381D02*
X80304819Y39107143D01*
X80304819Y39107143D02*
X80352438Y39011905D01*
X80352438Y39011905D02*
X80400057Y38964286D01*
X80400057Y38964286D02*
X80495295Y38916667D01*
X80495295Y38916667D02*
X80685771Y38869048D01*
X80685771Y38869048D02*
X80923866Y38869048D01*
X80923866Y38869048D02*
X81114342Y38916667D01*
X81114342Y38916667D02*
X81209580Y38964286D01*
X81209580Y38964286D02*
X81257200Y39011905D01*
X81257200Y39011905D02*
X81304819Y39107143D01*
X81304819Y39107143D02*
X81304819Y39202381D01*
X81304819Y39202381D02*
X81257200Y39297619D01*
X81257200Y39297619D02*
X81209580Y39345238D01*
X81209580Y39345238D02*
X81114342Y39392857D01*
X81114342Y39392857D02*
X80923866Y39440476D01*
X80923866Y39440476D02*
X80685771Y39440476D01*
X80685771Y39440476D02*
X80495295Y39392857D01*
X80495295Y39392857D02*
X80400057Y39345238D01*
X80400057Y39345238D02*
X80352438Y39297619D01*
X80352438Y39297619D02*
X80304819Y39202381D01*
X80638152Y38011905D02*
X81304819Y38011905D01*
X80638152Y38440476D02*
X81161961Y38440476D01*
X81161961Y38440476D02*
X81257200Y38392857D01*
X81257200Y38392857D02*
X81304819Y38297619D01*
X81304819Y38297619D02*
X81304819Y38154762D01*
X81304819Y38154762D02*
X81257200Y38059524D01*
X81257200Y38059524D02*
X81209580Y38011905D01*
X80781009Y37202381D02*
X80781009Y37535714D01*
X81304819Y37535714D02*
X80304819Y37535714D01*
X80304819Y37535714D02*
X80304819Y37059524D01*
D11*
X79287664Y38883333D02*
X79325760Y38921429D01*
X79325760Y38921429D02*
X79363855Y39035714D01*
X79363855Y39035714D02*
X79363855Y39111905D01*
X79363855Y39111905D02*
X79325760Y39226191D01*
X79325760Y39226191D02*
X79249569Y39302381D01*
X79249569Y39302381D02*
X79173379Y39340476D01*
X79173379Y39340476D02*
X79020998Y39378572D01*
X79020998Y39378572D02*
X78906712Y39378572D01*
X78906712Y39378572D02*
X78754331Y39340476D01*
X78754331Y39340476D02*
X78678140Y39302381D01*
X78678140Y39302381D02*
X78601950Y39226191D01*
X78601950Y39226191D02*
X78563855Y39111905D01*
X78563855Y39111905D02*
X78563855Y39035714D01*
X78563855Y39035714D02*
X78601950Y38921429D01*
X78601950Y38921429D02*
X78640045Y38883333D01*
X78563855Y38159524D02*
X78563855Y38540476D01*
X78563855Y38540476D02*
X78944807Y38578572D01*
X78944807Y38578572D02*
X78906712Y38540476D01*
X78906712Y38540476D02*
X78868617Y38464286D01*
X78868617Y38464286D02*
X78868617Y38273810D01*
X78868617Y38273810D02*
X78906712Y38197619D01*
X78906712Y38197619D02*
X78944807Y38159524D01*
X78944807Y38159524D02*
X79020998Y38121429D01*
X79020998Y38121429D02*
X79211474Y38121429D01*
X79211474Y38121429D02*
X79287664Y38159524D01*
X79287664Y38159524D02*
X79325760Y38197619D01*
X79325760Y38197619D02*
X79363855Y38273810D01*
X79363855Y38273810D02*
X79363855Y38464286D01*
X79363855Y38464286D02*
X79325760Y38540476D01*
X79325760Y38540476D02*
X79287664Y38578572D01*
D10*
X67604819Y39821429D02*
X67604819Y40392857D01*
X67604819Y40107143D02*
X66604819Y40107143D01*
X66604819Y40107143D02*
X66747676Y40202381D01*
X66747676Y40202381D02*
X66842914Y40297619D01*
X66842914Y40297619D02*
X66890533Y40392857D01*
X66604819Y39202381D02*
X66604819Y39107143D01*
X66604819Y39107143D02*
X66652438Y39011905D01*
X66652438Y39011905D02*
X66700057Y38964286D01*
X66700057Y38964286D02*
X66795295Y38916667D01*
X66795295Y38916667D02*
X66985771Y38869048D01*
X66985771Y38869048D02*
X67223866Y38869048D01*
X67223866Y38869048D02*
X67414342Y38916667D01*
X67414342Y38916667D02*
X67509580Y38964286D01*
X67509580Y38964286D02*
X67557200Y39011905D01*
X67557200Y39011905D02*
X67604819Y39107143D01*
X67604819Y39107143D02*
X67604819Y39202381D01*
X67604819Y39202381D02*
X67557200Y39297619D01*
X67557200Y39297619D02*
X67509580Y39345238D01*
X67509580Y39345238D02*
X67414342Y39392857D01*
X67414342Y39392857D02*
X67223866Y39440476D01*
X67223866Y39440476D02*
X66985771Y39440476D01*
X66985771Y39440476D02*
X66795295Y39392857D01*
X66795295Y39392857D02*
X66700057Y39345238D01*
X66700057Y39345238D02*
X66652438Y39297619D01*
X66652438Y39297619D02*
X66604819Y39202381D01*
X66938152Y38011905D02*
X67604819Y38011905D01*
X66938152Y38440476D02*
X67461961Y38440476D01*
X67461961Y38440476D02*
X67557200Y38392857D01*
X67557200Y38392857D02*
X67604819Y38297619D01*
X67604819Y38297619D02*
X67604819Y38154762D01*
X67604819Y38154762D02*
X67557200Y38059524D01*
X67557200Y38059524D02*
X67509580Y38011905D01*
X67081009Y37202381D02*
X67081009Y37535714D01*
X67604819Y37535714D02*
X66604819Y37535714D01*
X66604819Y37535714D02*
X66604819Y37059524D01*
D11*
X69287664Y38883333D02*
X69325760Y38921429D01*
X69325760Y38921429D02*
X69363855Y39035714D01*
X69363855Y39035714D02*
X69363855Y39111905D01*
X69363855Y39111905D02*
X69325760Y39226191D01*
X69325760Y39226191D02*
X69249569Y39302381D01*
X69249569Y39302381D02*
X69173379Y39340476D01*
X69173379Y39340476D02*
X69020998Y39378572D01*
X69020998Y39378572D02*
X68906712Y39378572D01*
X68906712Y39378572D02*
X68754331Y39340476D01*
X68754331Y39340476D02*
X68678140Y39302381D01*
X68678140Y39302381D02*
X68601950Y39226191D01*
X68601950Y39226191D02*
X68563855Y39111905D01*
X68563855Y39111905D02*
X68563855Y39035714D01*
X68563855Y39035714D02*
X68601950Y38921429D01*
X68601950Y38921429D02*
X68640045Y38883333D01*
X68830521Y38197619D02*
X69363855Y38197619D01*
X68525760Y38388095D02*
X69097188Y38578572D01*
X69097188Y38578572D02*
X69097188Y38083333D01*
D10*
X117371428Y18095181D02*
X117942856Y18095181D01*
X117657142Y18095181D02*
X117657142Y19095181D01*
X117657142Y19095181D02*
X117752380Y18952324D01*
X117752380Y18952324D02*
X117847618Y18857086D01*
X117847618Y18857086D02*
X117942856Y18809467D01*
X116752380Y19095181D02*
X116657142Y19095181D01*
X116657142Y19095181D02*
X116561904Y19047562D01*
X116561904Y19047562D02*
X116514285Y18999943D01*
X116514285Y18999943D02*
X116466666Y18904705D01*
X116466666Y18904705D02*
X116419047Y18714229D01*
X116419047Y18714229D02*
X116419047Y18476134D01*
X116419047Y18476134D02*
X116466666Y18285658D01*
X116466666Y18285658D02*
X116514285Y18190420D01*
X116514285Y18190420D02*
X116561904Y18142800D01*
X116561904Y18142800D02*
X116657142Y18095181D01*
X116657142Y18095181D02*
X116752380Y18095181D01*
X116752380Y18095181D02*
X116847618Y18142800D01*
X116847618Y18142800D02*
X116895237Y18190420D01*
X116895237Y18190420D02*
X116942856Y18285658D01*
X116942856Y18285658D02*
X116990475Y18476134D01*
X116990475Y18476134D02*
X116990475Y18714229D01*
X116990475Y18714229D02*
X116942856Y18904705D01*
X116942856Y18904705D02*
X116895237Y18999943D01*
X116895237Y18999943D02*
X116847618Y19047562D01*
X116847618Y19047562D02*
X116752380Y19095181D01*
X115561904Y18761848D02*
X115561904Y18095181D01*
X115990475Y18761848D02*
X115990475Y18238039D01*
X115990475Y18238039D02*
X115942856Y18142800D01*
X115942856Y18142800D02*
X115847618Y18095181D01*
X115847618Y18095181D02*
X115704761Y18095181D01*
X115704761Y18095181D02*
X115609523Y18142800D01*
X115609523Y18142800D02*
X115561904Y18190420D01*
X114752380Y18618991D02*
X115085713Y18618991D01*
X115085713Y18095181D02*
X115085713Y19095181D01*
X115085713Y19095181D02*
X114609523Y19095181D01*
D11*
X116814285Y20112336D02*
X116852381Y20074240D01*
X116852381Y20074240D02*
X116966666Y20036145D01*
X116966666Y20036145D02*
X117042857Y20036145D01*
X117042857Y20036145D02*
X117157143Y20074240D01*
X117157143Y20074240D02*
X117233333Y20150431D01*
X117233333Y20150431D02*
X117271428Y20226621D01*
X117271428Y20226621D02*
X117309524Y20379002D01*
X117309524Y20379002D02*
X117309524Y20493288D01*
X117309524Y20493288D02*
X117271428Y20645669D01*
X117271428Y20645669D02*
X117233333Y20721860D01*
X117233333Y20721860D02*
X117157143Y20798050D01*
X117157143Y20798050D02*
X117042857Y20836145D01*
X117042857Y20836145D02*
X116966666Y20836145D01*
X116966666Y20836145D02*
X116852381Y20798050D01*
X116852381Y20798050D02*
X116814285Y20759955D01*
X116509524Y20759955D02*
X116471428Y20798050D01*
X116471428Y20798050D02*
X116395238Y20836145D01*
X116395238Y20836145D02*
X116204762Y20836145D01*
X116204762Y20836145D02*
X116128571Y20798050D01*
X116128571Y20798050D02*
X116090476Y20759955D01*
X116090476Y20759955D02*
X116052381Y20683764D01*
X116052381Y20683764D02*
X116052381Y20607574D01*
X116052381Y20607574D02*
X116090476Y20493288D01*
X116090476Y20493288D02*
X116547619Y20036145D01*
X116547619Y20036145D02*
X116052381Y20036145D01*
X115595238Y20493288D02*
X115671428Y20531383D01*
X115671428Y20531383D02*
X115709523Y20569479D01*
X115709523Y20569479D02*
X115747619Y20645669D01*
X115747619Y20645669D02*
X115747619Y20683764D01*
X115747619Y20683764D02*
X115709523Y20759955D01*
X115709523Y20759955D02*
X115671428Y20798050D01*
X115671428Y20798050D02*
X115595238Y20836145D01*
X115595238Y20836145D02*
X115442857Y20836145D01*
X115442857Y20836145D02*
X115366666Y20798050D01*
X115366666Y20798050D02*
X115328571Y20759955D01*
X115328571Y20759955D02*
X115290476Y20683764D01*
X115290476Y20683764D02*
X115290476Y20645669D01*
X115290476Y20645669D02*
X115328571Y20569479D01*
X115328571Y20569479D02*
X115366666Y20531383D01*
X115366666Y20531383D02*
X115442857Y20493288D01*
X115442857Y20493288D02*
X115595238Y20493288D01*
X115595238Y20493288D02*
X115671428Y20455193D01*
X115671428Y20455193D02*
X115709523Y20417098D01*
X115709523Y20417098D02*
X115747619Y20340907D01*
X115747619Y20340907D02*
X115747619Y20188526D01*
X115747619Y20188526D02*
X115709523Y20112336D01*
X115709523Y20112336D02*
X115671428Y20074240D01*
X115671428Y20074240D02*
X115595238Y20036145D01*
X115595238Y20036145D02*
X115442857Y20036145D01*
X115442857Y20036145D02*
X115366666Y20074240D01*
X115366666Y20074240D02*
X115328571Y20112336D01*
X115328571Y20112336D02*
X115290476Y20188526D01*
X115290476Y20188526D02*
X115290476Y20340907D01*
X115290476Y20340907D02*
X115328571Y20417098D01*
X115328571Y20417098D02*
X115366666Y20455193D01*
X115366666Y20455193D02*
X115442857Y20493288D01*
D10*
X124804819Y39071429D02*
X124804819Y39642857D01*
X124804819Y39357143D02*
X123804819Y39357143D01*
X123804819Y39357143D02*
X123947676Y39452381D01*
X123947676Y39452381D02*
X124042914Y39547619D01*
X124042914Y39547619D02*
X124090533Y39642857D01*
X123804819Y38452381D02*
X123804819Y38357143D01*
X123804819Y38357143D02*
X123852438Y38261905D01*
X123852438Y38261905D02*
X123900057Y38214286D01*
X123900057Y38214286D02*
X123995295Y38166667D01*
X123995295Y38166667D02*
X124185771Y38119048D01*
X124185771Y38119048D02*
X124423866Y38119048D01*
X124423866Y38119048D02*
X124614342Y38166667D01*
X124614342Y38166667D02*
X124709580Y38214286D01*
X124709580Y38214286D02*
X124757200Y38261905D01*
X124757200Y38261905D02*
X124804819Y38357143D01*
X124804819Y38357143D02*
X124804819Y38452381D01*
X124804819Y38452381D02*
X124757200Y38547619D01*
X124757200Y38547619D02*
X124709580Y38595238D01*
X124709580Y38595238D02*
X124614342Y38642857D01*
X124614342Y38642857D02*
X124423866Y38690476D01*
X124423866Y38690476D02*
X124185771Y38690476D01*
X124185771Y38690476D02*
X123995295Y38642857D01*
X123995295Y38642857D02*
X123900057Y38595238D01*
X123900057Y38595238D02*
X123852438Y38547619D01*
X123852438Y38547619D02*
X123804819Y38452381D01*
X124138152Y37261905D02*
X124804819Y37261905D01*
X124138152Y37690476D02*
X124661961Y37690476D01*
X124661961Y37690476D02*
X124757200Y37642857D01*
X124757200Y37642857D02*
X124804819Y37547619D01*
X124804819Y37547619D02*
X124804819Y37404762D01*
X124804819Y37404762D02*
X124757200Y37309524D01*
X124757200Y37309524D02*
X124709580Y37261905D01*
X124281009Y36452381D02*
X124281009Y36785714D01*
X124804819Y36785714D02*
X123804819Y36785714D01*
X123804819Y36785714D02*
X123804819Y36309524D01*
D11*
X122787664Y38514286D02*
X122825760Y38552382D01*
X122825760Y38552382D02*
X122863855Y38666667D01*
X122863855Y38666667D02*
X122863855Y38742858D01*
X122863855Y38742858D02*
X122825760Y38857144D01*
X122825760Y38857144D02*
X122749569Y38933334D01*
X122749569Y38933334D02*
X122673379Y38971429D01*
X122673379Y38971429D02*
X122520998Y39009525D01*
X122520998Y39009525D02*
X122406712Y39009525D01*
X122406712Y39009525D02*
X122254331Y38971429D01*
X122254331Y38971429D02*
X122178140Y38933334D01*
X122178140Y38933334D02*
X122101950Y38857144D01*
X122101950Y38857144D02*
X122063855Y38742858D01*
X122063855Y38742858D02*
X122063855Y38666667D01*
X122063855Y38666667D02*
X122101950Y38552382D01*
X122101950Y38552382D02*
X122140045Y38514286D01*
X122063855Y38247620D02*
X122063855Y37752382D01*
X122063855Y37752382D02*
X122368617Y38019048D01*
X122368617Y38019048D02*
X122368617Y37904763D01*
X122368617Y37904763D02*
X122406712Y37828572D01*
X122406712Y37828572D02*
X122444807Y37790477D01*
X122444807Y37790477D02*
X122520998Y37752382D01*
X122520998Y37752382D02*
X122711474Y37752382D01*
X122711474Y37752382D02*
X122787664Y37790477D01*
X122787664Y37790477D02*
X122825760Y37828572D01*
X122825760Y37828572D02*
X122863855Y37904763D01*
X122863855Y37904763D02*
X122863855Y38133334D01*
X122863855Y38133334D02*
X122825760Y38209525D01*
X122825760Y38209525D02*
X122787664Y38247620D01*
X122063855Y37257143D02*
X122063855Y37180953D01*
X122063855Y37180953D02*
X122101950Y37104762D01*
X122101950Y37104762D02*
X122140045Y37066667D01*
X122140045Y37066667D02*
X122216236Y37028572D01*
X122216236Y37028572D02*
X122368617Y36990477D01*
X122368617Y36990477D02*
X122559093Y36990477D01*
X122559093Y36990477D02*
X122711474Y37028572D01*
X122711474Y37028572D02*
X122787664Y37066667D01*
X122787664Y37066667D02*
X122825760Y37104762D01*
X122825760Y37104762D02*
X122863855Y37180953D01*
X122863855Y37180953D02*
X122863855Y37257143D01*
X122863855Y37257143D02*
X122825760Y37333334D01*
X122825760Y37333334D02*
X122787664Y37371429D01*
X122787664Y37371429D02*
X122711474Y37409524D01*
X122711474Y37409524D02*
X122559093Y37447620D01*
X122559093Y37447620D02*
X122368617Y37447620D01*
X122368617Y37447620D02*
X122216236Y37409524D01*
X122216236Y37409524D02*
X122140045Y37371429D01*
X122140045Y37371429D02*
X122101950Y37333334D01*
X122101950Y37333334D02*
X122063855Y37257143D01*
D10*
X111104819Y39071429D02*
X111104819Y39642857D01*
X111104819Y39357143D02*
X110104819Y39357143D01*
X110104819Y39357143D02*
X110247676Y39452381D01*
X110247676Y39452381D02*
X110342914Y39547619D01*
X110342914Y39547619D02*
X110390533Y39642857D01*
X110104819Y38452381D02*
X110104819Y38357143D01*
X110104819Y38357143D02*
X110152438Y38261905D01*
X110152438Y38261905D02*
X110200057Y38214286D01*
X110200057Y38214286D02*
X110295295Y38166667D01*
X110295295Y38166667D02*
X110485771Y38119048D01*
X110485771Y38119048D02*
X110723866Y38119048D01*
X110723866Y38119048D02*
X110914342Y38166667D01*
X110914342Y38166667D02*
X111009580Y38214286D01*
X111009580Y38214286D02*
X111057200Y38261905D01*
X111057200Y38261905D02*
X111104819Y38357143D01*
X111104819Y38357143D02*
X111104819Y38452381D01*
X111104819Y38452381D02*
X111057200Y38547619D01*
X111057200Y38547619D02*
X111009580Y38595238D01*
X111009580Y38595238D02*
X110914342Y38642857D01*
X110914342Y38642857D02*
X110723866Y38690476D01*
X110723866Y38690476D02*
X110485771Y38690476D01*
X110485771Y38690476D02*
X110295295Y38642857D01*
X110295295Y38642857D02*
X110200057Y38595238D01*
X110200057Y38595238D02*
X110152438Y38547619D01*
X110152438Y38547619D02*
X110104819Y38452381D01*
X110438152Y37261905D02*
X111104819Y37261905D01*
X110438152Y37690476D02*
X110961961Y37690476D01*
X110961961Y37690476D02*
X111057200Y37642857D01*
X111057200Y37642857D02*
X111104819Y37547619D01*
X111104819Y37547619D02*
X111104819Y37404762D01*
X111104819Y37404762D02*
X111057200Y37309524D01*
X111057200Y37309524D02*
X111009580Y37261905D01*
X110581009Y36452381D02*
X110581009Y36785714D01*
X111104819Y36785714D02*
X110104819Y36785714D01*
X110104819Y36785714D02*
X110104819Y36309524D01*
D11*
X112787664Y38514286D02*
X112825760Y38552382D01*
X112825760Y38552382D02*
X112863855Y38666667D01*
X112863855Y38666667D02*
X112863855Y38742858D01*
X112863855Y38742858D02*
X112825760Y38857144D01*
X112825760Y38857144D02*
X112749569Y38933334D01*
X112749569Y38933334D02*
X112673379Y38971429D01*
X112673379Y38971429D02*
X112520998Y39009525D01*
X112520998Y39009525D02*
X112406712Y39009525D01*
X112406712Y39009525D02*
X112254331Y38971429D01*
X112254331Y38971429D02*
X112178140Y38933334D01*
X112178140Y38933334D02*
X112101950Y38857144D01*
X112101950Y38857144D02*
X112063855Y38742858D01*
X112063855Y38742858D02*
X112063855Y38666667D01*
X112063855Y38666667D02*
X112101950Y38552382D01*
X112101950Y38552382D02*
X112140045Y38514286D01*
X112140045Y38209525D02*
X112101950Y38171429D01*
X112101950Y38171429D02*
X112063855Y38095239D01*
X112063855Y38095239D02*
X112063855Y37904763D01*
X112063855Y37904763D02*
X112101950Y37828572D01*
X112101950Y37828572D02*
X112140045Y37790477D01*
X112140045Y37790477D02*
X112216236Y37752382D01*
X112216236Y37752382D02*
X112292426Y37752382D01*
X112292426Y37752382D02*
X112406712Y37790477D01*
X112406712Y37790477D02*
X112863855Y38247620D01*
X112863855Y38247620D02*
X112863855Y37752382D01*
X112863855Y37371429D02*
X112863855Y37219048D01*
X112863855Y37219048D02*
X112825760Y37142858D01*
X112825760Y37142858D02*
X112787664Y37104762D01*
X112787664Y37104762D02*
X112673379Y37028572D01*
X112673379Y37028572D02*
X112520998Y36990477D01*
X112520998Y36990477D02*
X112216236Y36990477D01*
X112216236Y36990477D02*
X112140045Y37028572D01*
X112140045Y37028572D02*
X112101950Y37066667D01*
X112101950Y37066667D02*
X112063855Y37142858D01*
X112063855Y37142858D02*
X112063855Y37295239D01*
X112063855Y37295239D02*
X112101950Y37371429D01*
X112101950Y37371429D02*
X112140045Y37409524D01*
X112140045Y37409524D02*
X112216236Y37447620D01*
X112216236Y37447620D02*
X112406712Y37447620D01*
X112406712Y37447620D02*
X112482902Y37409524D01*
X112482902Y37409524D02*
X112520998Y37371429D01*
X112520998Y37371429D02*
X112559093Y37295239D01*
X112559093Y37295239D02*
X112559093Y37142858D01*
X112559093Y37142858D02*
X112520998Y37066667D01*
X112520998Y37066667D02*
X112482902Y37028572D01*
X112482902Y37028572D02*
X112406712Y36990477D01*
D10*
X73571428Y18195181D02*
X74142856Y18195181D01*
X73857142Y18195181D02*
X73857142Y19195181D01*
X73857142Y19195181D02*
X73952380Y19052324D01*
X73952380Y19052324D02*
X74047618Y18957086D01*
X74047618Y18957086D02*
X74142856Y18909467D01*
X72952380Y19195181D02*
X72857142Y19195181D01*
X72857142Y19195181D02*
X72761904Y19147562D01*
X72761904Y19147562D02*
X72714285Y19099943D01*
X72714285Y19099943D02*
X72666666Y19004705D01*
X72666666Y19004705D02*
X72619047Y18814229D01*
X72619047Y18814229D02*
X72619047Y18576134D01*
X72619047Y18576134D02*
X72666666Y18385658D01*
X72666666Y18385658D02*
X72714285Y18290420D01*
X72714285Y18290420D02*
X72761904Y18242800D01*
X72761904Y18242800D02*
X72857142Y18195181D01*
X72857142Y18195181D02*
X72952380Y18195181D01*
X72952380Y18195181D02*
X73047618Y18242800D01*
X73047618Y18242800D02*
X73095237Y18290420D01*
X73095237Y18290420D02*
X73142856Y18385658D01*
X73142856Y18385658D02*
X73190475Y18576134D01*
X73190475Y18576134D02*
X73190475Y18814229D01*
X73190475Y18814229D02*
X73142856Y19004705D01*
X73142856Y19004705D02*
X73095237Y19099943D01*
X73095237Y19099943D02*
X73047618Y19147562D01*
X73047618Y19147562D02*
X72952380Y19195181D01*
X71761904Y18861848D02*
X71761904Y18195181D01*
X72190475Y18861848D02*
X72190475Y18338039D01*
X72190475Y18338039D02*
X72142856Y18242800D01*
X72142856Y18242800D02*
X72047618Y18195181D01*
X72047618Y18195181D02*
X71904761Y18195181D01*
X71904761Y18195181D02*
X71809523Y18242800D01*
X71809523Y18242800D02*
X71761904Y18290420D01*
X70952380Y18718991D02*
X71285713Y18718991D01*
X71285713Y18195181D02*
X71285713Y19195181D01*
X71285713Y19195181D02*
X70809523Y19195181D01*
D11*
X72633332Y20212336D02*
X72671428Y20174240D01*
X72671428Y20174240D02*
X72785713Y20136145D01*
X72785713Y20136145D02*
X72861904Y20136145D01*
X72861904Y20136145D02*
X72976190Y20174240D01*
X72976190Y20174240D02*
X73052380Y20250431D01*
X73052380Y20250431D02*
X73090475Y20326621D01*
X73090475Y20326621D02*
X73128571Y20479002D01*
X73128571Y20479002D02*
X73128571Y20593288D01*
X73128571Y20593288D02*
X73090475Y20745669D01*
X73090475Y20745669D02*
X73052380Y20821860D01*
X73052380Y20821860D02*
X72976190Y20898050D01*
X72976190Y20898050D02*
X72861904Y20936145D01*
X72861904Y20936145D02*
X72785713Y20936145D01*
X72785713Y20936145D02*
X72671428Y20898050D01*
X72671428Y20898050D02*
X72633332Y20859955D01*
X72366666Y20936145D02*
X71871428Y20936145D01*
X71871428Y20936145D02*
X72138094Y20631383D01*
X72138094Y20631383D02*
X72023809Y20631383D01*
X72023809Y20631383D02*
X71947618Y20593288D01*
X71947618Y20593288D02*
X71909523Y20555193D01*
X71909523Y20555193D02*
X71871428Y20479002D01*
X71871428Y20479002D02*
X71871428Y20288526D01*
X71871428Y20288526D02*
X71909523Y20212336D01*
X71909523Y20212336D02*
X71947618Y20174240D01*
X71947618Y20174240D02*
X72023809Y20136145D01*
X72023809Y20136145D02*
X72252380Y20136145D01*
X72252380Y20136145D02*
X72328571Y20174240D01*
X72328571Y20174240D02*
X72366666Y20212336D01*
D10*
X77734819Y25035715D02*
X77734819Y25607143D01*
X77734819Y25321429D02*
X76734819Y25321429D01*
X76734819Y25321429D02*
X76877676Y25416667D01*
X76877676Y25416667D02*
X76972914Y25511905D01*
X76972914Y25511905D02*
X77020533Y25607143D01*
X77734819Y24607143D02*
X76734819Y24607143D01*
X76734819Y24607143D02*
X77449104Y24273810D01*
X77449104Y24273810D02*
X76734819Y23940477D01*
X76734819Y23940477D02*
X77734819Y23940477D01*
D11*
X75363855Y25264286D02*
X74982902Y25530953D01*
X75363855Y25721429D02*
X74563855Y25721429D01*
X74563855Y25721429D02*
X74563855Y25416667D01*
X74563855Y25416667D02*
X74601950Y25340477D01*
X74601950Y25340477D02*
X74640045Y25302382D01*
X74640045Y25302382D02*
X74716236Y25264286D01*
X74716236Y25264286D02*
X74830521Y25264286D01*
X74830521Y25264286D02*
X74906712Y25302382D01*
X74906712Y25302382D02*
X74944807Y25340477D01*
X74944807Y25340477D02*
X74982902Y25416667D01*
X74982902Y25416667D02*
X74982902Y25721429D01*
X75363855Y24502382D02*
X75363855Y24959525D01*
X75363855Y24730953D02*
X74563855Y24730953D01*
X74563855Y24730953D02*
X74678140Y24807144D01*
X74678140Y24807144D02*
X74754331Y24883334D01*
X74754331Y24883334D02*
X74792426Y24959525D01*
X75363855Y24121429D02*
X75363855Y23969048D01*
X75363855Y23969048D02*
X75325760Y23892858D01*
X75325760Y23892858D02*
X75287664Y23854762D01*
X75287664Y23854762D02*
X75173379Y23778572D01*
X75173379Y23778572D02*
X75020998Y23740477D01*
X75020998Y23740477D02*
X74716236Y23740477D01*
X74716236Y23740477D02*
X74640045Y23778572D01*
X74640045Y23778572D02*
X74601950Y23816667D01*
X74601950Y23816667D02*
X74563855Y23892858D01*
X74563855Y23892858D02*
X74563855Y24045239D01*
X74563855Y24045239D02*
X74601950Y24121429D01*
X74601950Y24121429D02*
X74640045Y24159524D01*
X74640045Y24159524D02*
X74716236Y24197620D01*
X74716236Y24197620D02*
X74906712Y24197620D01*
X74906712Y24197620D02*
X74982902Y24159524D01*
X74982902Y24159524D02*
X75020998Y24121429D01*
X75020998Y24121429D02*
X75059093Y24045239D01*
X75059093Y24045239D02*
X75059093Y23892858D01*
X75059093Y23892858D02*
X75020998Y23816667D01*
X75020998Y23816667D02*
X74982902Y23778572D01*
X74982902Y23778572D02*
X74906712Y23740477D01*
D10*
X72100057Y26643452D02*
X72052438Y26595833D01*
X72052438Y26595833D02*
X72004819Y26500595D01*
X72004819Y26500595D02*
X72004819Y26262500D01*
X72004819Y26262500D02*
X72052438Y26167262D01*
X72052438Y26167262D02*
X72100057Y26119643D01*
X72100057Y26119643D02*
X72195295Y26072024D01*
X72195295Y26072024D02*
X72290533Y26072024D01*
X72290533Y26072024D02*
X72433390Y26119643D01*
X72433390Y26119643D02*
X73004819Y26691071D01*
X73004819Y26691071D02*
X73004819Y26072024D01*
X72909580Y25643452D02*
X72957200Y25595833D01*
X72957200Y25595833D02*
X73004819Y25643452D01*
X73004819Y25643452D02*
X72957200Y25691071D01*
X72957200Y25691071D02*
X72909580Y25643452D01*
X72909580Y25643452D02*
X73004819Y25643452D01*
X72100057Y25214881D02*
X72052438Y25167262D01*
X72052438Y25167262D02*
X72004819Y25072024D01*
X72004819Y25072024D02*
X72004819Y24833929D01*
X72004819Y24833929D02*
X72052438Y24738691D01*
X72052438Y24738691D02*
X72100057Y24691072D01*
X72100057Y24691072D02*
X72195295Y24643453D01*
X72195295Y24643453D02*
X72290533Y24643453D01*
X72290533Y24643453D02*
X72433390Y24691072D01*
X72433390Y24691072D02*
X73004819Y25262500D01*
X73004819Y25262500D02*
X73004819Y24643453D01*
X72338152Y24214881D02*
X73004819Y24214881D01*
X72433390Y24214881D02*
X72385771Y24167262D01*
X72385771Y24167262D02*
X72338152Y24072024D01*
X72338152Y24072024D02*
X72338152Y23929167D01*
X72338152Y23929167D02*
X72385771Y23833929D01*
X72385771Y23833929D02*
X72481009Y23786310D01*
X72481009Y23786310D02*
X73004819Y23786310D01*
X72481009Y22976786D02*
X72481009Y23310119D01*
X73004819Y23310119D02*
X72004819Y23310119D01*
X72004819Y23310119D02*
X72004819Y22833929D01*
D11*
X70537664Y25276786D02*
X70575760Y25314882D01*
X70575760Y25314882D02*
X70613855Y25429167D01*
X70613855Y25429167D02*
X70613855Y25505358D01*
X70613855Y25505358D02*
X70575760Y25619644D01*
X70575760Y25619644D02*
X70499569Y25695834D01*
X70499569Y25695834D02*
X70423379Y25733929D01*
X70423379Y25733929D02*
X70270998Y25772025D01*
X70270998Y25772025D02*
X70156712Y25772025D01*
X70156712Y25772025D02*
X70004331Y25733929D01*
X70004331Y25733929D02*
X69928140Y25695834D01*
X69928140Y25695834D02*
X69851950Y25619644D01*
X69851950Y25619644D02*
X69813855Y25505358D01*
X69813855Y25505358D02*
X69813855Y25429167D01*
X69813855Y25429167D02*
X69851950Y25314882D01*
X69851950Y25314882D02*
X69890045Y25276786D01*
X69813855Y24552977D02*
X69813855Y24933929D01*
X69813855Y24933929D02*
X70194807Y24972025D01*
X70194807Y24972025D02*
X70156712Y24933929D01*
X70156712Y24933929D02*
X70118617Y24857739D01*
X70118617Y24857739D02*
X70118617Y24667263D01*
X70118617Y24667263D02*
X70156712Y24591072D01*
X70156712Y24591072D02*
X70194807Y24552977D01*
X70194807Y24552977D02*
X70270998Y24514882D01*
X70270998Y24514882D02*
X70461474Y24514882D01*
X70461474Y24514882D02*
X70537664Y24552977D01*
X70537664Y24552977D02*
X70575760Y24591072D01*
X70575760Y24591072D02*
X70613855Y24667263D01*
X70613855Y24667263D02*
X70613855Y24857739D01*
X70613855Y24857739D02*
X70575760Y24933929D01*
X70575760Y24933929D02*
X70537664Y24972025D01*
X69813855Y24248215D02*
X69813855Y23752977D01*
X69813855Y23752977D02*
X70118617Y24019643D01*
X70118617Y24019643D02*
X70118617Y23905358D01*
X70118617Y23905358D02*
X70156712Y23829167D01*
X70156712Y23829167D02*
X70194807Y23791072D01*
X70194807Y23791072D02*
X70270998Y23752977D01*
X70270998Y23752977D02*
X70461474Y23752977D01*
X70461474Y23752977D02*
X70537664Y23791072D01*
X70537664Y23791072D02*
X70575760Y23829167D01*
X70575760Y23829167D02*
X70613855Y23905358D01*
X70613855Y23905358D02*
X70613855Y24133929D01*
X70613855Y24133929D02*
X70575760Y24210120D01*
X70575760Y24210120D02*
X70537664Y24248215D01*
D12*
X117505000Y26350000D02*
X117505000Y23150000D01*
X117505000Y23150000D02*
X119995000Y23150000D01*
X119995000Y26350000D02*
X117505000Y26350000D01*
X119995000Y23150000D02*
X119995000Y26350000D01*
X112750000Y26337500D02*
X112750000Y23137500D01*
X112750000Y23137500D02*
X115250000Y23137500D01*
X115250000Y26337500D02*
X112750000Y26337500D01*
X115250000Y23137500D02*
X115250000Y26337500D01*
X78200000Y40350000D02*
X78200000Y37150000D01*
X78200000Y37150000D02*
X79800000Y37150000D01*
X79800000Y40350000D02*
X78200000Y40350000D01*
X79800000Y37150000D02*
X79800000Y40350000D01*
X68200000Y40350000D02*
X68200000Y37150000D01*
X68200000Y37150000D02*
X69800000Y37150000D01*
X69800000Y40350000D02*
X68200000Y40350000D01*
X69800000Y37150000D02*
X69800000Y40350000D01*
X114700000Y21200000D02*
X114700000Y19600000D01*
X114700000Y19600000D02*
X117900000Y19600000D01*
X117900000Y21200000D02*
X114700000Y21200000D01*
X117900000Y19600000D02*
X117900000Y21200000D01*
X121700000Y39600000D02*
X121700000Y36400000D01*
X121700000Y36400000D02*
X123300000Y36400000D01*
X123300000Y39600000D02*
X121700000Y39600000D01*
X123300000Y36400000D02*
X123300000Y39600000D01*
X111700000Y39600000D02*
X111700000Y36400000D01*
X111700000Y36400000D02*
X113300000Y36400000D01*
X113300000Y39600000D02*
X111700000Y39600000D01*
X113300000Y36400000D02*
X113300000Y39600000D01*
X70900000Y21300000D02*
X70900000Y19700000D01*
X70900000Y19700000D02*
X74100000Y19700000D01*
X74100000Y21300000D02*
X70900000Y21300000D01*
X74100000Y19700000D02*
X74100000Y21300000D01*
X73755000Y26350000D02*
X73755000Y23150000D01*
X73755000Y23150000D02*
X76245000Y23150000D01*
X76245000Y26350000D02*
X73755000Y26350000D01*
X76245000Y23150000D02*
X76245000Y26350000D01*
X69000000Y26362500D02*
X69000000Y23162500D01*
X69000000Y23162500D02*
X71500000Y23162500D01*
X71500000Y26362500D02*
X69000000Y26362500D01*
X71500000Y23162500D02*
X71500000Y26362500D01*
M02*
