%TF.GenerationSoftware,KiCad,Pcbnew,9.0.6*%
%TF.CreationDate,2026-01-20T12:08:31-05:00*%
%TF.ProjectId,stimjim,7374696d-6a69-46d2-9e6b-696361645f70,B*%
%TF.SameCoordinates,PX8c30ac0PYa037a00*%
%TF.FileFunction,Soldermask,Top*%
%TF.FilePolarity,Negative*%
%FSLAX46Y46*%
G04 Gerber Fmt 4.6, Leading zero omitted, Abs format (unit mm)*
G04 Created by KiCad (PCBNEW 9.0.6) date 2026-01-20 12:08:31*
%MOMM*%
%LPD*%
G01*
G04 APERTURE LIST*
G04 Aperture macros list*
%AMRoundRect*
0 Rectangle with rounded corners*
0 $1 Rounding radius*
0 $2 $3 $4 $5 $6 $7 $8 $9 X,Y pos of 4 corners*
0 Add a 4 corners polygon primitive as box body*
4,1,4,$2,$3,$4,$5,$6,$7,$8,$9,$2,$3,0*
0 Add four circle primitives for the rounded corners*
1,1,$1+$1,$2,$3*
1,1,$1+$1,$4,$5*
1,1,$1+$1,$6,$7*
1,1,$1+$1,$8,$9*
0 Add four rect primitives between the rounded corners*
20,1,$1+$1,$2,$3,$4,$5,0*
20,1,$1+$1,$4,$5,$6,$7,0*
20,1,$1+$1,$6,$7,$8,$9,0*
20,1,$1+$1,$8,$9,$2,$3,0*%
G04 Aperture macros list end*
%ADD10C,0.000000*%
%ADD11RoundRect,0.050000X0.350000X0.050000X-0.350000X0.050000X-0.350000X-0.050000X0.350000X-0.050000X0*%
%ADD12RoundRect,0.050000X0.050000X0.350000X-0.050000X0.350000X-0.050000X-0.350000X0.050000X-0.350000X0*%
%ADD13R,3.400000X3.400000*%
%ADD14RoundRect,0.150000X0.150000X-0.825000X0.150000X0.825000X-0.150000X0.825000X-0.150000X-0.825000X0*%
%ADD15RoundRect,0.225000X-0.225000X-0.250000X0.225000X-0.250000X0.225000X0.250000X-0.225000X0.250000X0*%
%ADD16RoundRect,0.200000X0.275000X-0.200000X0.275000X0.200000X-0.275000X0.200000X-0.275000X-0.200000X0*%
%ADD17RoundRect,0.200000X-0.200000X-0.275000X0.200000X-0.275000X0.200000X0.275000X-0.200000X0.275000X0*%
%ADD18RoundRect,0.225000X0.250000X-0.225000X0.250000X0.225000X-0.250000X0.225000X-0.250000X-0.225000X0*%
%ADD19RoundRect,0.225000X-0.250000X0.225000X-0.250000X-0.225000X0.250000X-0.225000X0.250000X0.225000X0*%
%ADD20RoundRect,0.150000X0.150000X-0.875000X0.150000X0.875000X-0.150000X0.875000X-0.150000X-0.875000X0*%
%ADD21RoundRect,0.150000X0.825000X0.150000X-0.825000X0.150000X-0.825000X-0.150000X0.825000X-0.150000X0*%
%ADD22RoundRect,0.150000X-0.150000X0.587500X-0.150000X-0.587500X0.150000X-0.587500X0.150000X0.587500X0*%
%ADD23RoundRect,0.100000X0.100000X-0.637500X0.100000X0.637500X-0.100000X0.637500X-0.100000X-0.637500X0*%
%ADD24O,1.600000X2.500000*%
%ADD25O,3.500000X7.000000*%
%ADD26C,4.300000*%
%ADD27RoundRect,0.225000X0.225000X0.250000X-0.225000X0.250000X-0.225000X-0.250000X0.225000X-0.250000X0*%
%ADD28RoundRect,0.200000X0.200000X0.275000X-0.200000X0.275000X-0.200000X-0.275000X0.200000X-0.275000X0*%
%ADD29C,1.524000*%
%ADD30C,2.500000*%
%ADD31C,1.700000*%
%ADD32RoundRect,0.150000X-0.150000X0.825000X-0.150000X-0.825000X0.150000X-0.825000X0.150000X0.825000X0*%
%ADD33RoundRect,0.200000X-0.275000X0.200000X-0.275000X-0.200000X0.275000X-0.200000X0.275000X0.200000X0*%
%ADD34RoundRect,0.150000X0.725000X0.150000X-0.725000X0.150000X-0.725000X-0.150000X0.725000X-0.150000X0*%
%ADD35C,1.000000*%
%ADD36R,1.000000X1.000000*%
%ADD37C,2.000000*%
%ADD38RoundRect,0.140000X-0.170000X0.140000X-0.170000X-0.140000X0.170000X-0.140000X0.170000X0.140000X0*%
%ADD39RoundRect,0.150000X-0.512500X-0.150000X0.512500X-0.150000X0.512500X0.150000X-0.512500X0.150000X0*%
%ADD40RoundRect,0.140000X-0.140000X-0.170000X0.140000X-0.170000X0.140000X0.170000X-0.140000X0.170000X0*%
%ADD41RoundRect,0.135000X-0.185000X0.135000X-0.185000X-0.135000X0.185000X-0.135000X0.185000X0.135000X0*%
%ADD42RoundRect,0.135000X-0.135000X-0.185000X0.135000X-0.185000X0.135000X0.185000X-0.135000X0.185000X0*%
%ADD43R,1.400000X1.200000*%
%ADD44RoundRect,0.140000X0.170000X-0.140000X0.170000X0.140000X-0.170000X0.140000X-0.170000X-0.140000X0*%
%ADD45RoundRect,0.140000X0.140000X0.170000X-0.140000X0.170000X-0.140000X-0.170000X0.140000X-0.170000X0*%
%ADD46R,7.500000X4.600000*%
%ADD47R,1.800000X1.800000*%
%ADD48C,1.800000*%
%ADD49RoundRect,0.150000X0.625000X-0.150000X0.625000X0.150000X-0.625000X0.150000X-0.625000X-0.150000X0*%
%ADD50RoundRect,0.250000X0.650000X-0.350000X0.650000X0.350000X-0.650000X0.350000X-0.650000X-0.350000X0*%
%ADD51R,1.000000X1.600000*%
%ADD52RoundRect,0.250000X-0.600000X0.600000X-0.600000X-0.600000X0.600000X-0.600000X0.600000X0.600000X0*%
%ADD53RoundRect,0.162500X0.650000X0.162500X-0.650000X0.162500X-0.650000X-0.162500X0.650000X-0.162500X0*%
%ADD54R,1.000000X3.150000*%
%ADD55RoundRect,0.075000X-0.075000X-0.200000X0.075000X-0.200000X0.075000X0.200000X-0.075000X0.200000X0*%
%ADD56C,2.100000*%
%ADD57C,1.750000*%
%ADD58RoundRect,0.250000X0.400000X-0.525000X0.400000X0.525000X-0.400000X0.525000X-0.400000X-0.525000X0*%
%ADD59C,0.650000*%
%ADD60RoundRect,0.150000X-0.150000X-0.425000X0.150000X-0.425000X0.150000X0.425000X-0.150000X0.425000X0*%
%ADD61RoundRect,0.075000X-0.075000X-0.500000X0.075000X-0.500000X0.075000X0.500000X-0.075000X0.500000X0*%
%ADD62O,1.000000X2.100000*%
%ADD63O,1.000000X1.800000*%
%ADD64RoundRect,0.135000X0.135000X0.185000X-0.135000X0.185000X-0.135000X-0.185000X0.135000X-0.185000X0*%
G04 APERTURE END LIST*
D10*
%TO.C,G\u002A\u002A\u002A*%
G36*
X29360227Y56695779D02*
G01*
X29410462Y56685492D01*
X29466767Y56659776D01*
X29522799Y56616759D01*
X29570909Y56563893D01*
X29603449Y56508634D01*
X29609323Y56491670D01*
X29612805Y56466764D01*
X29615807Y56418632D01*
X29618338Y56346787D01*
X29620404Y56250736D01*
X29622013Y56129992D01*
X29623175Y55984064D01*
X29623897Y55812462D01*
X29624186Y55614697D01*
X29624193Y55585772D01*
X29624238Y55410247D01*
X29624224Y55259404D01*
X29623977Y55131204D01*
X29623324Y55023607D01*
X29622092Y54934572D01*
X29620107Y54862060D01*
X29617195Y54804031D01*
X29613182Y54758445D01*
X29607896Y54723262D01*
X29601163Y54696441D01*
X29592808Y54675944D01*
X29582659Y54659729D01*
X29570542Y54645758D01*
X29556284Y54631990D01*
X29541899Y54618491D01*
X29465752Y54563232D01*
X29379044Y54530385D01*
X29287018Y54520815D01*
X29194917Y54535388D01*
X29147394Y54553415D01*
X29076631Y54599190D01*
X29037163Y54642139D01*
X28996282Y54698572D01*
X28996282Y55603137D01*
X28996282Y56507702D01*
X29036263Y56562895D01*
X29100016Y56629358D01*
X29177666Y56674448D01*
X29265605Y56696982D01*
X29360227Y56695779D01*
G37*
G36*
X29428000Y58911325D02*
G01*
X29502477Y58882913D01*
X29519892Y58872453D01*
X29553264Y58841978D01*
X29584790Y58800150D01*
X29594204Y58783549D01*
X29624267Y58724040D01*
X29624267Y57844356D01*
X29624193Y57665376D01*
X29623944Y57511244D01*
X29623481Y57380086D01*
X29622763Y57270029D01*
X29621752Y57179198D01*
X29620408Y57105719D01*
X29618692Y57047718D01*
X29616563Y57003322D01*
X29613983Y56970656D01*
X29610911Y56947846D01*
X29607308Y56933018D01*
X29604908Y56927235D01*
X29559435Y56866836D01*
X29495248Y56819216D01*
X29417866Y56785890D01*
X29332806Y56768369D01*
X29245588Y56768169D01*
X29161729Y56786803D01*
X29134096Y56798099D01*
X29066019Y56841764D01*
X29029582Y56883591D01*
X28994354Y56936824D01*
X28991978Y57843284D01*
X28991446Y58026791D01*
X28991011Y58185499D01*
X28990871Y58321333D01*
X28991221Y58436215D01*
X28992258Y58532071D01*
X28994178Y58610823D01*
X28997178Y58674396D01*
X29001455Y58724714D01*
X29007204Y58763700D01*
X29014622Y58793279D01*
X29023906Y58815374D01*
X29035253Y58831909D01*
X29048857Y58844808D01*
X29064917Y58855995D01*
X29083628Y58867394D01*
X29097424Y58875904D01*
X29168261Y58907255D01*
X29252538Y58923564D01*
X29341902Y58924898D01*
X29428000Y58911325D01*
G37*
G36*
X28414968Y56691271D02*
G01*
X28454368Y56687824D01*
X28483591Y56679676D01*
X28510902Y56664913D01*
X28530093Y56651884D01*
X28581106Y56604429D01*
X28621433Y56545359D01*
X28655567Y56479040D01*
X28659303Y55403082D01*
X28659756Y55226774D01*
X28659880Y55057827D01*
X28659691Y54898363D01*
X28659204Y54750501D01*
X28658435Y54616360D01*
X28657399Y54498060D01*
X28656113Y54397722D01*
X28654591Y54317464D01*
X28652849Y54259406D01*
X28650903Y54225668D01*
X28650629Y54223123D01*
X28629405Y54118568D01*
X28590363Y54025070D01*
X28530228Y53935808D01*
X28490596Y53889951D01*
X28381410Y53788579D01*
X28260436Y53708883D01*
X28126414Y53650447D01*
X27978084Y53612854D01*
X27814188Y53595689D01*
X27633466Y53598534D01*
X27613378Y53599984D01*
X27449078Y53624385D01*
X27299238Y53671190D01*
X27163542Y53740534D01*
X27041675Y53832554D01*
X27011842Y53860578D01*
X26943600Y53934050D01*
X26894070Y54004712D01*
X26857978Y54081531D01*
X26831750Y54166736D01*
X26809902Y54285021D01*
X26807941Y54388937D01*
X26825256Y54477365D01*
X26861239Y54549187D01*
X26915281Y54603284D01*
X26986771Y54638537D01*
X27075101Y54653829D01*
X27097415Y54654404D01*
X27188473Y54643921D01*
X27265421Y54611700D01*
X27329269Y54556958D01*
X27381024Y54478914D01*
X27409861Y54412035D01*
X27446499Y54331317D01*
X27492802Y54259926D01*
X27544463Y54203389D01*
X27597175Y54167238D01*
X27602333Y54164959D01*
X27656974Y54151382D01*
X27724935Y54147336D01*
X27794686Y54152527D01*
X27854697Y54166659D01*
X27867245Y54171744D01*
X27922121Y54204775D01*
X27969283Y54247673D01*
X28002335Y54293710D01*
X28014001Y54326157D01*
X28015115Y54345773D01*
X28016260Y54389985D01*
X28017416Y54456670D01*
X28018562Y54543699D01*
X28019680Y54648949D01*
X28020748Y54770293D01*
X28021747Y54905606D01*
X28022656Y55052762D01*
X28023457Y55209635D01*
X28024128Y55374099D01*
X28024273Y55416078D01*
X28024946Y55609087D01*
X28025626Y55777198D01*
X28026358Y55922232D01*
X28027187Y56046015D01*
X28028158Y56150369D01*
X28029317Y56237119D01*
X28030709Y56308087D01*
X28032380Y56365098D01*
X28034375Y56409974D01*
X28036739Y56444541D01*
X28039518Y56470620D01*
X28042757Y56490037D01*
X28046501Y56504613D01*
X28050796Y56516174D01*
X28051692Y56518210D01*
X28093580Y56589878D01*
X28147230Y56641190D01*
X28215725Y56673899D01*
X28302146Y56689757D01*
X28357125Y56691930D01*
X28414968Y56691271D01*
G37*
G36*
X28405919Y59970349D02*
G01*
X28485440Y59954005D01*
X28552394Y59922411D01*
X28568783Y59910080D01*
X28600770Y59879974D01*
X28623931Y59848368D01*
X28639854Y59810108D01*
X28650127Y59760042D01*
X28656337Y59693016D01*
X28659735Y59614894D01*
X28665343Y59437856D01*
X28757988Y59437856D01*
X28829430Y59433647D01*
X28883532Y59418915D01*
X28928641Y59390505D01*
X28958013Y59362221D01*
X28996991Y59313444D01*
X29022951Y59261978D01*
X29038561Y59200254D01*
X29046489Y59120704D01*
X29047053Y59109549D01*
X29046618Y59022967D01*
X29034670Y58956118D01*
X29008988Y58903678D01*
X28967354Y58860325D01*
X28932917Y58835904D01*
X28897260Y58815290D01*
X28864967Y58803397D01*
X28826261Y58797910D01*
X28771362Y58796514D01*
X28766523Y58796509D01*
X28662247Y58796509D01*
X28661954Y57884595D01*
X28661865Y57705726D01*
X28661686Y57551601D01*
X28661366Y57420240D01*
X28660854Y57309664D01*
X28660097Y57217892D01*
X28659045Y57142945D01*
X28657646Y57082844D01*
X28655848Y57035610D01*
X28653600Y56999262D01*
X28650851Y56971822D01*
X28647548Y56951310D01*
X28643640Y56935746D01*
X28639076Y56923152D01*
X28636788Y56917912D01*
X28594936Y56857082D01*
X28532763Y56810481D01*
X28453525Y56779754D01*
X28360475Y56766546D01*
X28336554Y56766165D01*
X28282483Y56769531D01*
X28230877Y56777560D01*
X28204741Y56784591D01*
X28133800Y56817237D01*
X28083438Y56858622D01*
X28060397Y56889897D01*
X28055355Y56898964D01*
X28051009Y56909717D01*
X28047307Y56924089D01*
X28044198Y56944012D01*
X28041629Y56971422D01*
X28039550Y57008249D01*
X28037908Y57056427D01*
X28036651Y57117890D01*
X28035728Y57194570D01*
X28035088Y57288401D01*
X28034677Y57401315D01*
X28034446Y57535245D01*
X28034341Y57692125D01*
X28034312Y57864553D01*
X28034262Y58796509D01*
X27950665Y58796509D01*
X27863811Y58801844D01*
X27796878Y58819575D01*
X27744927Y58852297D01*
X27703020Y58902601D01*
X27683437Y58936804D01*
X27663576Y58995789D01*
X27653623Y59070089D01*
X27653532Y59150222D01*
X27663257Y59226703D01*
X27682753Y59290047D01*
X27685144Y59295103D01*
X27720893Y59352183D01*
X27765844Y59391995D01*
X27825053Y59417452D01*
X27903580Y59431471D01*
X27925049Y59433395D01*
X28034262Y59441817D01*
X28034262Y59612665D01*
X28035168Y59680334D01*
X28037641Y59740610D01*
X28041309Y59787197D01*
X28045803Y59813800D01*
X28046138Y59814748D01*
X28062991Y59843330D01*
X28091067Y59877684D01*
X28102466Y59889444D01*
X28162105Y59930992D01*
X28237237Y59958532D01*
X28320846Y59971755D01*
X28405919Y59970349D01*
G37*
G36*
X27080557Y58966591D02*
G01*
X27239701Y58952223D01*
X27377545Y58923205D01*
X27495460Y58879035D01*
X27594817Y58819214D01*
X27669916Y58751127D01*
X27737625Y58663872D01*
X27782562Y58576800D01*
X27804788Y58492255D01*
X27804366Y58412578D01*
X27781360Y58340114D01*
X27735831Y58277203D01*
X27667842Y58226190D01*
X27655695Y58219700D01*
X27593804Y58197545D01*
X27521580Y58185727D01*
X27450749Y58185389D01*
X27400763Y58194862D01*
X27369056Y58210664D01*
X27324806Y58239598D01*
X27275196Y58276765D01*
X27248499Y58298709D01*
X27199794Y58338350D01*
X27153593Y58372767D01*
X27116704Y58397029D01*
X27102734Y58404306D01*
X27040936Y58419311D01*
X26969555Y58419918D01*
X26898026Y58407481D01*
X26835782Y58383352D01*
X26804130Y58361464D01*
X26781605Y58327380D01*
X26783444Y58290576D01*
X26807747Y58253284D01*
X26852619Y58217735D01*
X26916160Y58186159D01*
X26968420Y58168284D01*
X27030292Y58150252D01*
X27103125Y58128973D01*
X27172244Y58108737D01*
X27179133Y58106717D01*
X27327346Y58059070D01*
X27451534Y58009499D01*
X27554392Y57956287D01*
X27638617Y57897714D01*
X27706905Y57832062D01*
X27761952Y57757613D01*
X27782337Y57722256D01*
X27804244Y57678071D01*
X27818013Y57639031D01*
X27825989Y57595389D01*
X27830517Y57537397D01*
X27831448Y57518105D01*
X27826419Y57370335D01*
X27798209Y57231517D01*
X27751869Y57113586D01*
X27707448Y57042503D01*
X27647279Y56970654D01*
X27578765Y56905550D01*
X27509310Y56854699D01*
X27481442Y56839302D01*
X27391939Y56805152D01*
X27283143Y56779114D01*
X27161375Y56761688D01*
X27032960Y56753375D01*
X26904218Y56754674D01*
X26781473Y56766085D01*
X26711485Y56778388D01*
X26559442Y56818979D01*
X26424749Y56871453D01*
X26308844Y56934675D01*
X26213165Y57007508D01*
X26139153Y57088819D01*
X26088245Y57177471D01*
X26061880Y57272329D01*
X26059613Y57292733D01*
X26062386Y57389128D01*
X26086845Y57470934D01*
X26131539Y57536550D01*
X26195015Y57584376D01*
X26275821Y57612809D01*
X26356899Y57620535D01*
X26435150Y57615509D01*
X26499658Y57598528D01*
X26556552Y57566263D01*
X26611963Y57515382D01*
X26663149Y57454135D01*
X26714837Y57390334D01*
X26758654Y57345853D01*
X26800821Y57317309D01*
X26847558Y57301317D01*
X26905088Y57294492D01*
X26958670Y57293353D01*
X27048234Y57298613D01*
X27113856Y57314549D01*
X27156193Y57341400D01*
X27173683Y57370717D01*
X27173910Y57413114D01*
X27150471Y57456812D01*
X27106157Y57499367D01*
X27043761Y57538337D01*
X26966076Y57571280D01*
X26932129Y57581997D01*
X26794704Y57622498D01*
X26680243Y57658721D01*
X26585609Y57692107D01*
X26507661Y57724097D01*
X26443262Y57756133D01*
X26389272Y57789655D01*
X26342553Y57826105D01*
X26299965Y57866924D01*
X26291171Y57876274D01*
X26245610Y57930251D01*
X26215040Y57980235D01*
X26192610Y58037632D01*
X26190843Y58043271D01*
X26168715Y58149063D01*
X26163302Y58262761D01*
X26173473Y58378631D01*
X26198093Y58490939D01*
X26236029Y58593951D01*
X26286147Y58681933D01*
X26326658Y58730301D01*
X26407867Y58796797D01*
X26509501Y58856425D01*
X26625577Y58906396D01*
X26750112Y58943923D01*
X26813330Y58957086D01*
X26892046Y58965872D01*
X26992011Y58968654D01*
X27080557Y58966591D01*
G37*
G36*
X30815329Y56711557D02*
G01*
X30953323Y56683954D01*
X31077337Y56639795D01*
X31183519Y56579888D01*
X31197097Y56570025D01*
X31240047Y56537798D01*
X31307559Y56586300D01*
X31403310Y56640695D01*
X31517401Y56681524D01*
X31644863Y56708287D01*
X31780728Y56720489D01*
X31920025Y56717631D01*
X32057787Y56699215D01*
X32165759Y56672267D01*
X32247990Y56635075D01*
X32328328Y56577440D01*
X32400209Y56505233D01*
X32457067Y56424321D01*
X32469491Y56400722D01*
X32491581Y56352171D01*
X32510494Y56302565D01*
X32526467Y56249481D01*
X32539736Y56190493D01*
X32550537Y56123179D01*
X32559107Y56045113D01*
X32565682Y55953872D01*
X32570498Y55847033D01*
X32573791Y55722170D01*
X32575798Y55576860D01*
X32576755Y55408679D01*
X32576923Y55298634D01*
X32576918Y55162213D01*
X32576715Y55049881D01*
X32576198Y54959003D01*
X32575254Y54886944D01*
X32573768Y54831071D01*
X32571626Y54788750D01*
X32568716Y54757344D01*
X32564921Y54734222D01*
X32560129Y54716748D01*
X32554225Y54702287D01*
X32550799Y54695323D01*
X32501828Y54626612D01*
X32436794Y54575084D01*
X32360381Y54541078D01*
X32277274Y54524935D01*
X32192156Y54526994D01*
X32109711Y54547595D01*
X32034623Y54587078D01*
X31971577Y54645782D01*
X31965974Y54652907D01*
X31922426Y54710002D01*
X31922426Y55354941D01*
X31922426Y55999880D01*
X31875616Y56048079D01*
X31816113Y56093438D01*
X31752120Y56114377D01*
X31687727Y56110844D01*
X31627024Y56082787D01*
X31591732Y56051646D01*
X31548307Y56004372D01*
X31548307Y55367343D01*
X31548307Y54730314D01*
X31516210Y54675695D01*
X31465716Y54612954D01*
X31400648Y54566485D01*
X31325714Y54536367D01*
X31245626Y54522678D01*
X31165094Y54525497D01*
X31088827Y54544902D01*
X31021535Y54580972D01*
X30967930Y54633786D01*
X30947873Y54666217D01*
X30942026Y54679085D01*
X30937119Y54694386D01*
X30933049Y54714518D01*
X30929713Y54741876D01*
X30927008Y54778857D01*
X30924831Y54827859D01*
X30923080Y54891278D01*
X30921650Y54971511D01*
X30920439Y55070954D01*
X30919344Y55192004D01*
X30918262Y55337058D01*
X30918112Y55358492D01*
X30917049Y55506262D01*
X30916022Y55629637D01*
X30914925Y55730945D01*
X30913649Y55812516D01*
X30912086Y55876676D01*
X30910128Y55925754D01*
X30907667Y55962077D01*
X30904595Y55987974D01*
X30900804Y56005773D01*
X30896186Y56017801D01*
X30890632Y56026388D01*
X30886919Y56030732D01*
X30850857Y56060955D01*
X30803710Y56088694D01*
X30757635Y56107312D01*
X30739865Y56111016D01*
X30703398Y56112403D01*
X30672830Y56104864D01*
X30638712Y56084894D01*
X30608522Y56062318D01*
X30546203Y56013766D01*
X30546203Y55373543D01*
X30546119Y55223934D01*
X30545816Y55098715D01*
X30545221Y54995553D01*
X30544259Y54912113D01*
X30542859Y54846064D01*
X30540944Y54795073D01*
X30538443Y54756805D01*
X30535280Y54728929D01*
X30531382Y54709112D01*
X30526675Y54695019D01*
X30524598Y54690559D01*
X30477874Y54620663D01*
X30417163Y54570673D01*
X30339855Y54539069D01*
X30243344Y54524331D01*
X30238891Y54524062D01*
X30183913Y54522090D01*
X30144642Y54525152D01*
X30110227Y54535306D01*
X30069819Y54554610D01*
X30065288Y54556988D01*
X29993031Y54607411D01*
X29943126Y54671532D01*
X29918432Y54733075D01*
X29915004Y54759157D01*
X29912102Y54808575D01*
X29909725Y54877949D01*
X29907877Y54963898D01*
X29906556Y55063042D01*
X29905764Y55172000D01*
X29905502Y55287391D01*
X29905771Y55405834D01*
X29906572Y55523948D01*
X29907905Y55638353D01*
X29909771Y55745668D01*
X29912172Y55842513D01*
X29915108Y55925505D01*
X29918106Y55983937D01*
X29928929Y56115259D01*
X29944395Y56224252D01*
X29966041Y56315126D01*
X29995404Y56392092D01*
X30034020Y56459363D01*
X30083425Y56521151D01*
X30131660Y56569379D01*
X30192140Y56618112D01*
X30257843Y56655097D01*
X30334418Y56682477D01*
X30427515Y56702394D01*
X30512800Y56713857D01*
X30667204Y56721794D01*
X30815329Y56711557D01*
G37*
G36*
X37036688Y57396904D02*
G01*
X37033157Y53765947D01*
X37001423Y53652375D01*
X36934877Y53458634D01*
X36848296Y53282373D01*
X36741389Y53123058D01*
X36654034Y53021050D01*
X36548463Y52919515D01*
X36436067Y52833303D01*
X36308721Y52756509D01*
X36244835Y52723678D01*
X36100033Y52660540D01*
X35958734Y52616672D01*
X35809973Y52588874D01*
X35763825Y52583357D01*
X35741090Y52582362D01*
X35692829Y52581413D01*
X35620238Y52580511D01*
X35524513Y52579655D01*
X35406852Y52578846D01*
X35268451Y52578083D01*
X35110507Y52577366D01*
X34934216Y52576695D01*
X34740774Y52576071D01*
X34531378Y52575493D01*
X34307225Y52574960D01*
X34069510Y52574474D01*
X33819432Y52574034D01*
X33558186Y52573640D01*
X33286968Y52573292D01*
X33006976Y52572990D01*
X32719406Y52572734D01*
X32425454Y52572523D01*
X32126317Y52572359D01*
X31823191Y52572240D01*
X31517273Y52572167D01*
X31209760Y52572139D01*
X30901847Y52572157D01*
X30594733Y52572221D01*
X30289612Y52572330D01*
X29987682Y52572485D01*
X29690139Y52572685D01*
X29398180Y52572931D01*
X29113001Y52573222D01*
X28835799Y52573558D01*
X28567770Y52573940D01*
X28310111Y52574367D01*
X28064019Y52574839D01*
X27830689Y52575356D01*
X27611318Y52575918D01*
X27407104Y52576526D01*
X27219242Y52577179D01*
X27048929Y52577876D01*
X26897362Y52578619D01*
X26765737Y52579406D01*
X26655251Y52580239D01*
X26567099Y52581116D01*
X26502480Y52582038D01*
X26462588Y52583005D01*
X26450347Y52583672D01*
X26264746Y52616385D01*
X26087002Y52673509D01*
X25919238Y52753355D01*
X25763574Y52854236D01*
X25622130Y52974463D01*
X25497029Y53112346D01*
X25390390Y53266199D01*
X25304335Y53434331D01*
X25269497Y53523771D01*
X25261347Y53546468D01*
X25253760Y53567047D01*
X25246716Y53586482D01*
X25240196Y53605750D01*
X25234178Y53625826D01*
X25228643Y53647686D01*
X25223571Y53672305D01*
X25218942Y53700658D01*
X25214735Y53733722D01*
X25210931Y53772471D01*
X25207508Y53817881D01*
X25204448Y53870929D01*
X25201730Y53932588D01*
X25199334Y54003836D01*
X25197239Y54085647D01*
X25195426Y54178997D01*
X25193875Y54284861D01*
X25192564Y54404215D01*
X25191475Y54538035D01*
X25190587Y54687296D01*
X25189880Y54852973D01*
X25189334Y55036043D01*
X25188929Y55237480D01*
X25188644Y55458261D01*
X25188459Y55699360D01*
X25188355Y55961753D01*
X25188311Y56246417D01*
X25188307Y56554325D01*
X25188323Y56886455D01*
X25188339Y57243781D01*
X25188340Y57457030D01*
X25188300Y60119287D01*
X25907952Y60119287D01*
X25912347Y57096273D01*
X25916742Y54073258D01*
X25951996Y53990794D01*
X25995331Y53902891D01*
X26049287Y53820113D01*
X26118920Y53735187D01*
X26161733Y53689084D01*
X26239594Y53615367D01*
X26315659Y53560515D01*
X26398489Y53518758D01*
X26436085Y53504195D01*
X26442891Y53501970D01*
X26451138Y53499884D01*
X26461667Y53497934D01*
X26475320Y53496115D01*
X26492936Y53494423D01*
X26515356Y53492855D01*
X26543421Y53491407D01*
X26577971Y53490075D01*
X26619847Y53488854D01*
X26669889Y53487742D01*
X26728939Y53486734D01*
X26797836Y53485826D01*
X26877422Y53485014D01*
X26968537Y53484295D01*
X27072021Y53483664D01*
X27188716Y53483118D01*
X27319461Y53482653D01*
X27465098Y53482264D01*
X27626466Y53481949D01*
X27804407Y53481702D01*
X27999762Y53481521D01*
X28213370Y53481401D01*
X28446073Y53481339D01*
X28698711Y53481330D01*
X28972124Y53481371D01*
X29267154Y53481457D01*
X29584640Y53481585D01*
X29925425Y53481752D01*
X30290347Y53481952D01*
X30680247Y53482182D01*
X31095968Y53482439D01*
X31128117Y53482459D01*
X35751852Y53485357D01*
X35855808Y53536736D01*
X35976802Y53611099D01*
X36083182Y53706019D01*
X36171813Y53817918D01*
X36239562Y53943222D01*
X36261039Y53998998D01*
X36290910Y54086620D01*
X36291255Y57102953D01*
X36291600Y60119287D01*
X31099776Y60119287D01*
X25907952Y60119287D01*
X25188300Y60119287D01*
X25188286Y61027861D01*
X31114252Y61027861D01*
X37040218Y61027861D01*
X37036688Y57396904D01*
G37*
G36*
X31953145Y58962191D02*
G01*
X32094295Y58937482D01*
X32174001Y58914881D01*
X32259624Y58874232D01*
X32341186Y58811944D01*
X32413310Y58733068D01*
X32470616Y58642655D01*
X32476419Y58630901D01*
X32495510Y58589537D01*
X32511758Y58549883D01*
X32525416Y58509401D01*
X32536737Y58465553D01*
X32545973Y58415801D01*
X32553378Y58357609D01*
X32559203Y58288438D01*
X32563703Y58205751D01*
X32567128Y58107010D01*
X32569733Y57989677D01*
X32571770Y57851214D01*
X32573491Y57689085D01*
X32573826Y57652848D01*
X32575158Y57503491D01*
X32576151Y57378467D01*
X32576731Y57275388D01*
X32576825Y57191865D01*
X32576361Y57125510D01*
X32575265Y57073935D01*
X32573465Y57034751D01*
X32570887Y57005570D01*
X32567459Y56984003D01*
X32563108Y56967663D01*
X32557760Y56954160D01*
X32552131Y56942647D01*
X32502163Y56872876D01*
X32433908Y56818805D01*
X32352352Y56783002D01*
X32262485Y56768037D01*
X32215482Y56769217D01*
X32133080Y56786960D01*
X32055009Y56822406D01*
X31989618Y56871128D01*
X31960200Y56904537D01*
X31922426Y56956647D01*
X31922426Y57602670D01*
X31922426Y58248692D01*
X31870394Y58300725D01*
X31811238Y58345617D01*
X31749027Y58364194D01*
X31682125Y58356823D01*
X31658247Y58348564D01*
X31635597Y58339664D01*
X31616533Y58331120D01*
X31600720Y58320690D01*
X31587828Y58306131D01*
X31577525Y58285203D01*
X31569478Y58255665D01*
X31563356Y58215274D01*
X31558826Y58161790D01*
X31555556Y58092971D01*
X31553215Y58006575D01*
X31551470Y57900362D01*
X31549990Y57772089D01*
X31548442Y57619516D01*
X31548307Y57606348D01*
X31541627Y56957323D01*
X31505631Y56902951D01*
X31458794Y56852449D01*
X31394324Y56809864D01*
X31321092Y56779688D01*
X31247967Y56766413D01*
X31235521Y56766165D01*
X31148295Y56776978D01*
X31068185Y56805902D01*
X31001027Y56849958D01*
X30952655Y56906168D01*
X30949086Y56912324D01*
X30943080Y56924420D01*
X30938001Y56938846D01*
X30933729Y56957975D01*
X30930140Y56984178D01*
X30927113Y57019827D01*
X30924527Y57067294D01*
X30922260Y57128951D01*
X30920189Y57207170D01*
X30918194Y57304322D01*
X30916151Y57422779D01*
X30913941Y57564913D01*
X30913267Y57609819D01*
X30903552Y58260320D01*
X30868323Y58294071D01*
X30832859Y58320033D01*
X30787639Y58343373D01*
X30774365Y58348543D01*
X30736128Y58360387D01*
X30708559Y58361357D01*
X30677676Y58350662D01*
X30659408Y58342045D01*
X30636276Y58331347D01*
X30616832Y58322034D01*
X30600732Y58311832D01*
X30587631Y58298469D01*
X30577186Y58279674D01*
X30569052Y58253176D01*
X30562884Y58216701D01*
X30558340Y58167979D01*
X30555075Y58104736D01*
X30552743Y58024703D01*
X30551002Y57925606D01*
X30549507Y57805173D01*
X30547914Y57661133D01*
X30547234Y57601616D01*
X30539522Y56941707D01*
X30498014Y56890446D01*
X30437239Y56835252D01*
X30360293Y56795300D01*
X30274090Y56772375D01*
X30185546Y56768259D01*
X30101574Y56784737D01*
X30095963Y56786739D01*
X30052658Y56808874D01*
X30006510Y56841538D01*
X29986921Y56858816D01*
X29968324Y56877703D01*
X29952625Y56896848D01*
X29939608Y56918550D01*
X29929057Y56945106D01*
X29920757Y56978814D01*
X29914492Y57021972D01*
X29910047Y57076878D01*
X29907205Y57145829D01*
X29905752Y57231125D01*
X29905470Y57335062D01*
X29906145Y57459939D01*
X29907562Y57608054D01*
X29908510Y57694195D01*
X29910638Y57862345D01*
X29913103Y58006280D01*
X29916140Y58128506D01*
X29919982Y58231531D01*
X29924862Y58317861D01*
X29931015Y58390003D01*
X29938674Y58450464D01*
X29948072Y58501752D01*
X29959443Y58546373D01*
X29973022Y58586834D01*
X29989041Y58625642D01*
X29996929Y58642853D01*
X30040710Y58715828D01*
X30100129Y58787005D01*
X30167792Y58848795D01*
X30236310Y58893611D01*
X30245572Y58898109D01*
X30330137Y58928194D01*
X30433381Y58950410D01*
X30548150Y58963724D01*
X30667292Y58967105D01*
X30713221Y58965519D01*
X30867113Y58949631D01*
X30998898Y58919483D01*
X31109181Y58874893D01*
X31190195Y58822552D01*
X31239606Y58783006D01*
X31315045Y58835851D01*
X31417666Y58892967D01*
X31537580Y58934599D01*
X31669994Y58960308D01*
X31810114Y58969652D01*
X31953145Y58962191D01*
G37*
G36*
X34650169Y59673932D02*
G01*
X34728244Y59652724D01*
X34792839Y59611258D01*
X34840413Y59553053D01*
X34867422Y59481627D01*
X34871362Y59454152D01*
X34870881Y59429525D01*
X34867575Y59380925D01*
X34861696Y59310927D01*
X34853493Y59222104D01*
X34843217Y59117028D01*
X34831119Y58998274D01*
X34817450Y58868414D01*
X34802460Y58730021D01*
X34789194Y58610510D01*
X34773290Y58468391D01*
X34758317Y58333793D01*
X34744536Y58209131D01*
X34732210Y58096822D01*
X34721603Y57999283D01*
X34712978Y57918927D01*
X34706596Y57858173D01*
X34702722Y57819435D01*
X34701595Y57805486D01*
X34702638Y57799784D01*
X34707270Y57795043D01*
X34717744Y57791175D01*
X34736314Y57788093D01*
X34765233Y57785706D01*
X34806755Y57783927D01*
X34863133Y57782667D01*
X34936621Y57781838D01*
X35029473Y57781350D01*
X35143941Y57781116D01*
X35282280Y57781046D01*
X35323329Y57781044D01*
X35474921Y57781023D01*
X35602191Y57780778D01*
X35707537Y57780041D01*
X35793361Y57778540D01*
X35862063Y57776005D01*
X35916042Y57772166D01*
X35957698Y57766752D01*
X35989431Y57759493D01*
X36013642Y57750118D01*
X36032730Y57738358D01*
X36049095Y57723941D01*
X36065138Y57706597D01*
X36074027Y57696471D01*
X36110748Y57640624D01*
X36128545Y57575489D01*
X36128982Y57495098D01*
X36128422Y57488944D01*
X36126524Y57478267D01*
X36122190Y57464569D01*
X36114707Y57446702D01*
X36103364Y57423521D01*
X36087447Y57393879D01*
X36066246Y57356630D01*
X36039048Y57310627D01*
X36005140Y57254724D01*
X35963810Y57187775D01*
X35914346Y57108633D01*
X35856036Y57016151D01*
X35788168Y56909184D01*
X35710030Y56786585D01*
X35620908Y56647207D01*
X35520092Y56489905D01*
X35406869Y56313531D01*
X35280526Y56116940D01*
X35148763Y55912062D01*
X35007389Y55692227D01*
X34879760Y55493729D01*
X34765079Y55315484D01*
X34662553Y55156407D01*
X34571387Y55015412D01*
X34490785Y54891417D01*
X34419952Y54783335D01*
X34358094Y54690083D01*
X34304415Y54610577D01*
X34258120Y54543731D01*
X34218416Y54488461D01*
X34184505Y54443682D01*
X34155595Y54408311D01*
X34130889Y54381262D01*
X34109592Y54361451D01*
X34090911Y54347793D01*
X34074049Y54339204D01*
X34058212Y54334600D01*
X34042604Y54332896D01*
X34026432Y54333006D01*
X34008899Y54333848D01*
X33992268Y54334329D01*
X33942530Y54338027D01*
X33897210Y54346848D01*
X33879870Y54352818D01*
X33823974Y54389711D01*
X33776155Y54443001D01*
X33741922Y54504719D01*
X33726785Y54566899D01*
X33726507Y54574591D01*
X33729029Y54593109D01*
X33736412Y54635600D01*
X33748227Y54699845D01*
X33764048Y54783624D01*
X33783445Y54884716D01*
X33805993Y55000901D01*
X33831262Y55129958D01*
X33858827Y55269668D01*
X33888258Y55417810D01*
X33906592Y55509608D01*
X33936859Y55660990D01*
X33965532Y55804689D01*
X33992187Y55938557D01*
X34016400Y56060447D01*
X34037746Y56168214D01*
X34055799Y56259709D01*
X34070136Y56332787D01*
X34080332Y56385300D01*
X34085961Y56415102D01*
X34086971Y56421242D01*
X34074098Y56423575D01*
X34037434Y56425738D01*
X33979909Y56427670D01*
X33904454Y56429307D01*
X33814000Y56430587D01*
X33711478Y56431449D01*
X33599818Y56431828D01*
X33589259Y56431837D01*
X33459420Y56432005D01*
X33353497Y56432426D01*
X33268684Y56433225D01*
X33202177Y56434529D01*
X33151168Y56436464D01*
X33112853Y56439157D01*
X33084424Y56442733D01*
X33063076Y56447318D01*
X33046004Y56453040D01*
X33037549Y56456658D01*
X32972417Y56499819D01*
X32923855Y56559730D01*
X32894965Y56630671D01*
X32888846Y56706926D01*
X32891284Y56726427D01*
X32898608Y56744371D01*
X32917744Y56784005D01*
X32947735Y56843544D01*
X32987625Y56921205D01*
X33013059Y56970164D01*
X33596526Y56970164D01*
X33601366Y56965550D01*
X33621052Y56961678D01*
X33657500Y56958460D01*
X33712630Y56955809D01*
X33788360Y56953636D01*
X33886608Y56951855D01*
X34009291Y56950377D01*
X34035753Y56950121D01*
X34162101Y56948880D01*
X34264698Y56947453D01*
X34346515Y56945384D01*
X34410522Y56942215D01*
X34459690Y56937488D01*
X34496990Y56930745D01*
X34525392Y56921530D01*
X34547866Y56909385D01*
X34567383Y56893852D01*
X34586914Y56874473D01*
X34597194Y56863641D01*
X34638850Y56805071D01*
X34658800Y56737467D01*
X34661511Y56693873D01*
X34658908Y56665999D01*
X34651566Y56615991D01*
X34640186Y56547876D01*
X34625468Y56465684D01*
X34608113Y56373443D01*
X34588821Y56275182D01*
X34588023Y56271207D01*
X34568939Y56175904D01*
X34551699Y56089346D01*
X34536973Y56014935D01*
X34525431Y55956073D01*
X34517743Y55916162D01*
X34514580Y55898605D01*
X34514536Y55898143D01*
X34514832Y55896408D01*
X34516419Y55896999D01*
X34520340Y55901517D01*
X34527642Y55911564D01*
X34539369Y55928744D01*
X34556567Y55954657D01*
X34580280Y55990907D01*
X34611554Y56039095D01*
X34651434Y56100823D01*
X34700964Y56177693D01*
X34761191Y56271308D01*
X34833159Y56383270D01*
X34917913Y56515181D01*
X34973638Y56601923D01*
X35050348Y56721443D01*
X35122576Y56834194D01*
X35189055Y56938186D01*
X35248520Y57031426D01*
X35299704Y57111923D01*
X35341339Y57177685D01*
X35372159Y57226720D01*
X35390897Y57257036D01*
X35396387Y57266652D01*
X35383503Y57268122D01*
X35346760Y57269479D01*
X35289020Y57270687D01*
X35213147Y57271710D01*
X35122005Y57272511D01*
X35018456Y57273053D01*
X34905363Y57273300D01*
X34874864Y57273311D01*
X34738962Y57273451D01*
X34627186Y57273933D01*
X34536937Y57274851D01*
X34465619Y57276299D01*
X34410635Y57278369D01*
X34369388Y57281156D01*
X34339282Y57284752D01*
X34317719Y57289252D01*
X34304154Y57293863D01*
X34246038Y57325217D01*
X34204566Y57367170D01*
X34179079Y57409733D01*
X34167372Y57437408D01*
X34159578Y57469350D01*
X34155708Y57509217D01*
X34155776Y57560668D01*
X34159793Y57627364D01*
X34167773Y57712963D01*
X34179727Y57821126D01*
X34180501Y57827809D01*
X34189235Y57904551D01*
X34196764Y57973450D01*
X34202565Y58029515D01*
X34206118Y58067753D01*
X34206994Y58081675D01*
X34200924Y58074093D01*
X34183667Y58045700D01*
X34156715Y57999207D01*
X34121555Y57937327D01*
X34079678Y57862773D01*
X34032575Y57778258D01*
X33981735Y57686495D01*
X33928647Y57590196D01*
X33874802Y57492073D01*
X33821690Y57394841D01*
X33770800Y57301211D01*
X33723622Y57213896D01*
X33681647Y57135608D01*
X33646364Y57069062D01*
X33619263Y57016968D01*
X33601834Y56982041D01*
X33596526Y56970164D01*
X33013059Y56970164D01*
X33036456Y57015203D01*
X33093271Y57123752D01*
X33157115Y57245070D01*
X33227029Y57377370D01*
X33302057Y57518869D01*
X33381242Y57667783D01*
X33463627Y57822326D01*
X33548255Y57980714D01*
X33634170Y58141163D01*
X33720415Y58301888D01*
X33806032Y58461105D01*
X33890064Y58617029D01*
X33971556Y58767876D01*
X34049550Y58911861D01*
X34123088Y59047199D01*
X34191215Y59172107D01*
X34252973Y59284799D01*
X34307406Y59383492D01*
X34353556Y59466401D01*
X34390467Y59531740D01*
X34417182Y59577727D01*
X34432744Y59602575D01*
X34435292Y59605858D01*
X34488931Y59645211D01*
X34557524Y59669315D01*
X34632409Y59675426D01*
X34650169Y59673932D01*
G37*
%TD*%
D11*
%TO.C,U24*%
X22950000Y33700000D03*
X22950000Y34100000D03*
X22950000Y34500000D03*
X22950000Y34900000D03*
X22950000Y35300000D03*
X22950000Y35700000D03*
X22950000Y36100000D03*
X22950000Y36500000D03*
X22950000Y36900000D03*
X22950000Y37300000D03*
X22950000Y37700000D03*
X22950000Y38100000D03*
X22950000Y38500000D03*
X22950000Y38900000D03*
X22950000Y39300000D03*
X22950000Y39700000D03*
X22950000Y40100000D03*
X22950000Y40500000D03*
X22950000Y40900000D03*
X22950000Y41300000D03*
D12*
X21800000Y42450000D03*
X21400000Y42450000D03*
X21000000Y42450000D03*
X20600000Y42450000D03*
X20200000Y42450000D03*
X19800000Y42450000D03*
X19400000Y42450000D03*
X19000000Y42450000D03*
X18600000Y42450000D03*
X18200000Y42450000D03*
X17800000Y42450000D03*
X17400000Y42450000D03*
X17000000Y42450000D03*
X16600000Y42450000D03*
X16200000Y42450000D03*
X15800000Y42450000D03*
X15400000Y42450000D03*
X15000000Y42450000D03*
X14600000Y42450000D03*
X14200000Y42450000D03*
D11*
X13050000Y41300000D03*
X13050000Y40900000D03*
X13050000Y40500000D03*
X13050000Y40100000D03*
X13050000Y39700000D03*
X13050000Y39300000D03*
X13050000Y38900000D03*
X13050000Y38500000D03*
X13050000Y38100000D03*
X13050000Y37700000D03*
X13050000Y37300000D03*
X13050000Y36900000D03*
X13050000Y36500000D03*
X13050000Y36100000D03*
X13050000Y35700000D03*
X13050000Y35300000D03*
X13050000Y34900000D03*
X13050000Y34500000D03*
X13050000Y34100000D03*
X13050000Y33700000D03*
D12*
X14200000Y32550000D03*
X14600000Y32550000D03*
X15000000Y32550000D03*
X15400000Y32550000D03*
X15800000Y32550000D03*
X16200000Y32550000D03*
X16600000Y32550000D03*
X17000000Y32550000D03*
X17400000Y32550000D03*
X17800000Y32550000D03*
X18200000Y32550000D03*
X18600000Y32550000D03*
X19000000Y32550000D03*
X19400000Y32550000D03*
X19800000Y32550000D03*
X20200000Y32550000D03*
X20600000Y32550000D03*
X21000000Y32550000D03*
X21400000Y32550000D03*
X21800000Y32550000D03*
D13*
X18000000Y37500000D03*
%TD*%
D14*
%TO.C,U21*%
X95691528Y52193064D03*
X96961528Y52193064D03*
X98231528Y52193064D03*
X99501528Y52193064D03*
X99501528Y57143064D03*
X98231528Y57143064D03*
X96961528Y57143064D03*
X95691528Y57143064D03*
%TD*%
D15*
%TO.C,C43*%
X88562500Y59650000D03*
X90112500Y59650000D03*
%TD*%
D16*
%TO.C,R11*%
X101558928Y53792264D03*
X101558928Y55442264D03*
%TD*%
D15*
%TO.C,C44*%
X92825000Y49900000D03*
X94375000Y49900000D03*
%TD*%
%TO.C,C20*%
X48125000Y49300000D03*
X49675000Y49300000D03*
%TD*%
D17*
%TO.C,R15*%
X23245000Y19400000D03*
X24895000Y19400000D03*
%TD*%
D15*
%TO.C,C18*%
X43925000Y58800000D03*
X45475000Y58800000D03*
%TD*%
D18*
%TO.C,C41*%
X105975000Y45475000D03*
X105975000Y47025000D03*
%TD*%
D19*
%TO.C,C39*%
X98400000Y46675000D03*
X98400000Y45125000D03*
%TD*%
D20*
%TO.C,U14*%
X98555000Y18850000D03*
X99825000Y18850000D03*
X101095000Y18850000D03*
X102365000Y18850000D03*
X103635000Y18850000D03*
X104905000Y18850000D03*
X106175000Y18850000D03*
X107445000Y18850000D03*
X107445000Y28150000D03*
X106175000Y28150000D03*
X104905000Y28150000D03*
X103635000Y28150000D03*
X102365000Y28150000D03*
X101095000Y28150000D03*
X99825000Y28150000D03*
X98555000Y28150000D03*
%TD*%
D19*
%TO.C,C34*%
X106550000Y35575000D03*
X106550000Y34025000D03*
%TD*%
D15*
%TO.C,C32*%
X96490000Y30312000D03*
X98040000Y30312000D03*
%TD*%
D21*
%TO.C,U16*%
X120975000Y44595000D03*
X120975000Y45865000D03*
X120975000Y47135000D03*
X120975000Y48405000D03*
X116025000Y48405000D03*
X116025000Y47135000D03*
X116025000Y45865000D03*
X116025000Y44595000D03*
%TD*%
D20*
%TO.C,U15*%
X86055000Y18850000D03*
X87325000Y18850000D03*
X88595000Y18850000D03*
X89865000Y18850000D03*
X91135000Y18850000D03*
X92405000Y18850000D03*
X93675000Y18850000D03*
X94945000Y18850000D03*
X94945000Y28150000D03*
X93675000Y28150000D03*
X92405000Y28150000D03*
X91135000Y28150000D03*
X89865000Y28150000D03*
X88595000Y28150000D03*
X87325000Y28150000D03*
X86055000Y28150000D03*
%TD*%
D14*
%TO.C,U10*%
X50741170Y51689694D03*
X52011170Y51689694D03*
X53281170Y51689694D03*
X54551170Y51689694D03*
X54551170Y56639694D03*
X53281170Y56639694D03*
X52011170Y56639694D03*
X50741170Y56639694D03*
%TD*%
D22*
%TO.C,U8*%
X44849170Y40980000D03*
X42949170Y40980000D03*
X43899170Y39105000D03*
%TD*%
D23*
%TO.C,U17*%
X91326400Y37658395D03*
X91976400Y37658395D03*
X92626400Y37658395D03*
X93276400Y37658395D03*
X93926400Y37658395D03*
X94576400Y37658395D03*
X95226400Y37658395D03*
X95876400Y37658395D03*
X96526400Y37658395D03*
X97176400Y37658395D03*
X97826400Y37658395D03*
X98476400Y37658395D03*
X98476400Y43383395D03*
X97826400Y43383395D03*
X97176400Y43383395D03*
X96526400Y43383395D03*
X95876400Y43383395D03*
X95226400Y43383395D03*
X94576400Y43383395D03*
X93926400Y43383395D03*
X93276400Y43383395D03*
X92626400Y43383395D03*
X91976400Y43383395D03*
X91326400Y43383395D03*
%TD*%
D17*
%TO.C,R1*%
X43875000Y49300000D03*
X45525000Y49300000D03*
%TD*%
D18*
%TO.C,C35*%
X89600000Y36014000D03*
X89600000Y37564000D03*
%TD*%
D24*
%TO.C,J7*%
X74000000Y66500000D03*
D25*
X68920000Y71580000D03*
D24*
X71460000Y66500000D03*
D25*
X79080000Y71580000D03*
%TD*%
D20*
%TO.C,U4*%
X41574176Y18918905D03*
X42844176Y18918905D03*
X44114176Y18918905D03*
X45384176Y18918905D03*
X46654176Y18918905D03*
X47924176Y18918905D03*
X49194176Y18918905D03*
X50464176Y18918905D03*
X50464176Y28218905D03*
X49194176Y28218905D03*
X47924176Y28218905D03*
X46654176Y28218905D03*
X45384176Y28218905D03*
X44114176Y28218905D03*
X42844176Y28218905D03*
X41574176Y28218905D03*
%TD*%
D24*
%TO.C,J9*%
X117000000Y66500000D03*
D25*
X111920000Y71580000D03*
D24*
X114460000Y66500000D03*
D25*
X122080000Y71580000D03*
%TD*%
D19*
%TO.C,C10*%
X59700000Y35575000D03*
X59700000Y34025000D03*
%TD*%
D21*
%TO.C,U5*%
X76675000Y45130000D03*
X76675000Y46400000D03*
X76675000Y47670000D03*
X76675000Y48940000D03*
X71725000Y48940000D03*
X71725000Y47670000D03*
X71725000Y46400000D03*
X71725000Y45130000D03*
%TD*%
D26*
%TO.C,H2*%
X48000000Y71500000D03*
%TD*%
D18*
%TO.C,C42*%
X104300000Y45475000D03*
X104300000Y47025000D03*
%TD*%
D26*
%TO.C,H4*%
X122500000Y11000000D03*
%TD*%
D19*
%TO.C,C40*%
X95900000Y46675000D03*
X95900000Y45125000D03*
%TD*%
%TO.C,C33*%
X113525000Y46125000D03*
X113525000Y44575000D03*
%TD*%
D23*
%TO.C,U18*%
X102550000Y37637500D03*
X103200000Y37637500D03*
X103850000Y37637500D03*
X104500000Y37637500D03*
X105150000Y37637500D03*
X105800000Y37637500D03*
X106450000Y37637500D03*
X106450000Y43362500D03*
X105800000Y43362500D03*
X105150000Y43362500D03*
X104500000Y43362500D03*
X103850000Y43362500D03*
X103200000Y43362500D03*
X102550000Y43362500D03*
%TD*%
D27*
%TO.C,C38*%
X92875000Y45200000D03*
X91325000Y45200000D03*
%TD*%
D15*
%TO.C,C31*%
X85950000Y30250000D03*
X87500000Y30250000D03*
%TD*%
D18*
%TO.C,C11*%
X44900000Y35725000D03*
X44900000Y37275000D03*
%TD*%
D26*
%TO.C,H3*%
X8200000Y48300000D03*
%TD*%
%TO.C,H1*%
X90000000Y71500000D03*
%TD*%
D28*
%TO.C,R2*%
X53325000Y48500000D03*
X51675000Y48500000D03*
%TD*%
D15*
%TO.C,C6*%
X41359000Y30312000D03*
X42909000Y30312000D03*
%TD*%
D29*
%TO.C,U2*%
X68670000Y19700000D03*
X76290000Y19700000D03*
X78830000Y19700000D03*
X78830000Y42700000D03*
X76290000Y42700000D03*
X71210000Y42700000D03*
X68670000Y42700000D03*
D30*
X81750000Y22200000D03*
X65750000Y40200000D03*
%TD*%
D18*
%TO.C,C52*%
X87600000Y36014000D03*
X87600000Y37564000D03*
%TD*%
D31*
%TO.C,J8*%
X103500000Y68920000D03*
X103500000Y74000000D03*
X100960000Y68920000D03*
X100960000Y74000000D03*
%TD*%
D27*
%TO.C,C13*%
X48075000Y45100000D03*
X46525000Y45100000D03*
%TD*%
D22*
%TO.C,U19*%
X89750000Y41237500D03*
X87850000Y41237500D03*
X88800000Y39362500D03*
%TD*%
D15*
%TO.C,C19*%
X50437500Y58900000D03*
X51987500Y58900000D03*
%TD*%
D31*
%TO.C,J6*%
X60500000Y68920000D03*
X60500000Y74000000D03*
X57960000Y68920000D03*
X57960000Y74000000D03*
%TD*%
D18*
%TO.C,C17*%
X59400000Y45625000D03*
X59400000Y47175000D03*
%TD*%
D17*
%TO.C,R13*%
X107175000Y59800000D03*
X108825000Y59800000D03*
%TD*%
D16*
%TO.C,R10*%
X86600000Y54075000D03*
X86600000Y55725000D03*
%TD*%
D27*
%TO.C,C47*%
X124828325Y54395998D03*
X123278325Y54395998D03*
%TD*%
D18*
%TO.C,C50*%
X113639325Y52858998D03*
X113639325Y54408998D03*
%TD*%
D19*
%TO.C,C8*%
X69500000Y46675000D03*
X69500000Y45125000D03*
%TD*%
D27*
%TO.C,C22*%
X80575000Y54300000D03*
X79025000Y54300000D03*
%TD*%
D16*
%TO.C,R4*%
X56700000Y53475000D03*
X56700000Y55125000D03*
%TD*%
D18*
%TO.C,C24*%
X59300000Y50125000D03*
X59300000Y51675000D03*
%TD*%
D19*
%TO.C,C21*%
X56300000Y51475000D03*
X56300000Y49925000D03*
%TD*%
D28*
%TO.C,R9*%
X98225000Y49100000D03*
X96575000Y49100000D03*
%TD*%
D27*
%TO.C,C48*%
X111475000Y50100000D03*
X109925000Y50100000D03*
%TD*%
D19*
%TO.C,C15*%
X51000000Y46708000D03*
X51000000Y45158000D03*
%TD*%
D16*
%TO.C,R12*%
X103667128Y53919164D03*
X103667128Y55569164D03*
%TD*%
D23*
%TO.C,U7*%
X57607170Y37818194D03*
X58257170Y37818194D03*
X58907170Y37818194D03*
X59557170Y37818194D03*
X60207170Y37818194D03*
X60857170Y37818194D03*
X61507170Y37818194D03*
X61507170Y43543194D03*
X60857170Y43543194D03*
X60207170Y43543194D03*
X59557170Y43543194D03*
X58907170Y43543194D03*
X58257170Y43543194D03*
X57607170Y43543194D03*
%TD*%
D14*
%TO.C,U20*%
X88873528Y52317064D03*
X90143528Y52317064D03*
X91413528Y52317064D03*
X92683528Y52317064D03*
X92683528Y57267064D03*
X91413528Y57267064D03*
X90143528Y57267064D03*
X88873528Y57267064D03*
%TD*%
D15*
%TO.C,C45*%
X95375000Y59500000D03*
X96925000Y59500000D03*
%TD*%
D27*
%TO.C,C12*%
X80475000Y45100000D03*
X78925000Y45100000D03*
%TD*%
D18*
%TO.C,C16*%
X61000000Y45625000D03*
X61000000Y47175000D03*
%TD*%
D16*
%TO.C,R3*%
X42209170Y53175000D03*
X42209170Y54825000D03*
%TD*%
D18*
%TO.C,C25*%
X69562585Y52844031D03*
X69562585Y54394031D03*
%TD*%
%TO.C,C49*%
X104000000Y50525000D03*
X104000000Y52075000D03*
%TD*%
D27*
%TO.C,C1*%
X53175000Y16850000D03*
X51625000Y16850000D03*
%TD*%
%TO.C,C23*%
X66502476Y49614458D03*
X64952476Y49614458D03*
%TD*%
D17*
%TO.C,R6*%
X62202476Y59114458D03*
X63852476Y59114458D03*
%TD*%
D27*
%TO.C,C26*%
X98575000Y16723000D03*
X97025000Y16723000D03*
%TD*%
D17*
%TO.C,R8*%
X88475000Y50000000D03*
X90125000Y50000000D03*
%TD*%
D20*
%TO.C,U3*%
X53204776Y18991105D03*
X54474776Y18991105D03*
X55744776Y18991105D03*
X57014776Y18991105D03*
X58284776Y18991105D03*
X59554776Y18991105D03*
X60824776Y18991105D03*
X62094776Y18991105D03*
X62094776Y28291105D03*
X60824776Y28291105D03*
X59554776Y28291105D03*
X58284776Y28291105D03*
X57014776Y28291105D03*
X55744776Y28291105D03*
X54474776Y28291105D03*
X53204776Y28291105D03*
%TD*%
D32*
%TO.C,U11*%
X64932476Y56789458D03*
X63662476Y56789458D03*
X62392476Y56789458D03*
X61122476Y56789458D03*
X61122476Y51839458D03*
X62392476Y51839458D03*
X63662476Y51839458D03*
X64932476Y51839458D03*
%TD*%
%TO.C,U22*%
X109911505Y57293476D03*
X108641505Y57293476D03*
X107371505Y57293476D03*
X106101505Y57293476D03*
X106101505Y52343476D03*
X107371505Y52343476D03*
X108641505Y52343476D03*
X109911505Y52343476D03*
%TD*%
D16*
%TO.C,R5*%
X58900000Y53475000D03*
X58900000Y55125000D03*
%TD*%
D19*
%TO.C,C36*%
X104850000Y35575000D03*
X104850000Y34025000D03*
%TD*%
D27*
%TO.C,C27*%
X86116250Y16800000D03*
X84566250Y16800000D03*
%TD*%
D33*
%TO.C,R14*%
X123500000Y61225000D03*
X123500000Y59575000D03*
%TD*%
D23*
%TO.C,U6*%
X46425000Y37637500D03*
X47075000Y37637500D03*
X47725000Y37637500D03*
X48375000Y37637500D03*
X49025000Y37637500D03*
X49675000Y37637500D03*
X50325000Y37637500D03*
X50975000Y37637500D03*
X51625000Y37637500D03*
X52275000Y37637500D03*
X52925000Y37637500D03*
X53575000Y37637500D03*
X53575000Y43362500D03*
X52925000Y43362500D03*
X52275000Y43362500D03*
X51625000Y43362500D03*
X50975000Y43362500D03*
X50325000Y43362500D03*
X49675000Y43362500D03*
X49025000Y43362500D03*
X48375000Y43362500D03*
X47725000Y43362500D03*
X47075000Y43362500D03*
X46425000Y43362500D03*
%TD*%
D27*
%TO.C,C37*%
X124725000Y44600000D03*
X123175000Y44600000D03*
%TD*%
D34*
%TO.C,U12*%
X76894891Y51774201D03*
X76894891Y53044201D03*
X76894891Y54314201D03*
X76894891Y55584201D03*
X76894891Y56854201D03*
X76894891Y58124201D03*
X76894891Y59394201D03*
X76894891Y60664201D03*
X71744891Y60664201D03*
X71744891Y59394201D03*
X71744891Y58124201D03*
X71744891Y56854201D03*
X71744891Y55584201D03*
X71744891Y54314201D03*
X71744891Y53044201D03*
X71744891Y51774201D03*
%TD*%
D15*
%TO.C,C7*%
X51425000Y30439000D03*
X52975000Y30439000D03*
%TD*%
D33*
%TO.C,R7*%
X79100000Y61025000D03*
X79100000Y59375000D03*
%TD*%
D18*
%TO.C,C2*%
X39600000Y18612500D03*
X39600000Y20162500D03*
%TD*%
D19*
%TO.C,C9*%
X61300000Y35575000D03*
X61300000Y34025000D03*
%TD*%
%TO.C,C14*%
X53600000Y46708000D03*
X53600000Y45158000D03*
%TD*%
D18*
%TO.C,C51*%
X43200000Y35725000D03*
X43200000Y37275000D03*
%TD*%
D34*
%TO.C,U23*%
X121294325Y51982998D03*
X121294325Y53252998D03*
X121294325Y54522998D03*
X121294325Y55792998D03*
X121294325Y57062998D03*
X121294325Y58332998D03*
X121294325Y59602998D03*
X121294325Y60872998D03*
X116144325Y60872998D03*
X116144325Y59602998D03*
X116144325Y58332998D03*
X116144325Y57062998D03*
X116144325Y55792998D03*
X116144325Y54522998D03*
X116144325Y53252998D03*
X116144325Y51982998D03*
%TD*%
D29*
%TO.C,U13*%
X112420000Y19000000D03*
X120040000Y19000000D03*
X122580000Y19000000D03*
X122580000Y42000000D03*
X120040000Y42000000D03*
X114960000Y42000000D03*
X112420000Y42000000D03*
D30*
X125500000Y21500000D03*
X109500000Y39500000D03*
%TD*%
D19*
%TO.C,C46*%
X101700000Y52075000D03*
X101700000Y50525000D03*
%TD*%
D28*
%TO.C,R18*%
X98525000Y33194900D03*
X96875000Y33194900D03*
%TD*%
%TO.C,R17*%
X53025000Y32800000D03*
X51375000Y32800000D03*
%TD*%
D35*
%TO.C,TP24*%
X85700000Y44650000D03*
%TD*%
%TO.C,TP26*%
X109300000Y62200000D03*
%TD*%
%TO.C,TP27*%
X69400000Y62100000D03*
%TD*%
%TO.C,TP28*%
X114050000Y62100000D03*
%TD*%
%TO.C,TP29*%
X63650000Y46100000D03*
%TD*%
%TO.C,TP30*%
X108650000Y46900000D03*
%TD*%
%TO.C,TP23*%
X41300000Y44300000D03*
%TD*%
%TO.C,TP25*%
X64850000Y62000000D03*
%TD*%
D36*
%TO.C,TP16*%
X80950000Y57400000D03*
%TD*%
%TO.C,TP21*%
X43800000Y43200000D03*
%TD*%
%TO.C,TP20*%
X123400000Y48600000D03*
%TD*%
%TO.C,TP19*%
X79200000Y48900000D03*
%TD*%
%TO.C,TP17*%
X91700000Y62550000D03*
%TD*%
%TO.C,TP22*%
X88650000Y43750000D03*
%TD*%
%TO.C,TP15*%
X46850000Y62350000D03*
%TD*%
%TO.C,TP18*%
X125450000Y57250000D03*
%TD*%
D35*
%TO.C,TP52*%
X54707000Y31582000D03*
%TD*%
%TO.C,TP51*%
X55800000Y33600000D03*
%TD*%
%TO.C,TP50*%
X59100000Y31600000D03*
%TD*%
%TO.C,TP49*%
X62700000Y31500000D03*
%TD*%
%TO.C,TP48*%
X44200000Y32000000D03*
%TD*%
%TO.C,TP45*%
X49700000Y31500000D03*
%TD*%
%TO.C,TP44*%
X51100000Y63600000D03*
%TD*%
%TO.C,TP43*%
X57950000Y63600000D03*
%TD*%
%TO.C,TP42*%
X73850000Y31750000D03*
%TD*%
%TO.C,TP40*%
X101150000Y33400000D03*
%TD*%
%TO.C,TP41*%
X99750000Y31600000D03*
%TD*%
%TO.C,TP31*%
X117650000Y30900000D03*
%TD*%
%TO.C,TP32*%
X97350000Y63600000D03*
%TD*%
%TO.C,TP33*%
X104100000Y63600000D03*
%TD*%
%TO.C,TP34*%
X94600000Y31100000D03*
%TD*%
%TO.C,TP39*%
X103900000Y31350000D03*
%TD*%
%TO.C,TP37*%
X89950000Y31200000D03*
%TD*%
%TO.C,TP38*%
X108000000Y31200000D03*
%TD*%
D37*
%TO.C,TP56*%
X23200000Y16800000D03*
%TD*%
D38*
%TO.C,C64*%
X18080000Y30990000D03*
X18080000Y30030000D03*
%TD*%
D39*
%TO.C,U151*%
X19025000Y13400001D03*
X19025000Y12450001D03*
X19025000Y11500001D03*
X21300000Y11500001D03*
X21300000Y13400001D03*
%TD*%
D37*
%TO.C,TP53*%
X6820000Y6000000D03*
%TD*%
D40*
%TO.C,C83*%
X24761250Y37287500D03*
X25721250Y37287500D03*
%TD*%
D41*
%TO.C,R31*%
X14940000Y25850000D03*
X14940000Y24830000D03*
%TD*%
D17*
%TO.C,R32*%
X24365001Y9040000D03*
X26015001Y9040000D03*
%TD*%
D28*
%TO.C,R34*%
X106730000Y5980000D03*
X105080000Y5980000D03*
%TD*%
D42*
%TO.C,R33*%
X9731250Y32567500D03*
X10751250Y32567500D03*
%TD*%
D41*
%TO.C,R30*%
X14000000Y25850000D03*
X14000000Y24830000D03*
%TD*%
D43*
%TO.C,Y1*%
X18300000Y49287500D03*
X20500000Y49287500D03*
X20500000Y50887500D03*
X18300000Y50887500D03*
%TD*%
D44*
%TO.C,C71*%
X22158750Y49420000D03*
X22158750Y50380000D03*
%TD*%
D38*
%TO.C,C81*%
X20741250Y30667500D03*
X20741250Y29707500D03*
%TD*%
D14*
%TO.C,U9*%
X44166000Y51651000D03*
X45436000Y51651000D03*
X46706000Y51651000D03*
X47976000Y51651000D03*
X47976000Y56601000D03*
X46706000Y56601000D03*
X45436000Y56601000D03*
X44166000Y56601000D03*
%TD*%
D45*
%TO.C,C62*%
X16508750Y20087500D03*
X15548750Y20087500D03*
%TD*%
D44*
%TO.C,C57*%
X20841250Y44557500D03*
X20841250Y45517500D03*
%TD*%
D33*
%TO.C,R28*%
X15200000Y50125000D03*
X15200000Y48475000D03*
%TD*%
D38*
%TO.C,C86*%
X11791250Y32547500D03*
X11791250Y31587500D03*
%TD*%
D19*
%TO.C,C297*%
X22942500Y13400002D03*
X22942500Y11850002D03*
%TD*%
D37*
%TO.C,N1*%
X36625000Y2312500D03*
D46*
X39000000Y2312500D03*
D37*
X41375000Y2312500D03*
%TD*%
%TO.C,TP54*%
X110400000Y15400000D03*
%TD*%
D47*
%TO.C,D3*%
X90230000Y4000000D03*
D48*
X87730000Y4000000D03*
%TD*%
D49*
%TO.C,J11*%
X9366250Y56737500D03*
X9366250Y57737500D03*
X9366250Y58737500D03*
D50*
X6841250Y55437500D03*
X6841250Y60037500D03*
%TD*%
D45*
%TO.C,C87*%
X15480000Y31440000D03*
X14520000Y31440000D03*
%TD*%
D33*
%TO.C,R29*%
X13700000Y50125000D03*
X13700000Y48475000D03*
%TD*%
D51*
%TO.C,L1*%
X15591250Y28737500D03*
X13591250Y28737500D03*
%TD*%
D24*
%TO.C,J2*%
X35000000Y66500000D03*
D25*
X29920000Y71580000D03*
D24*
X32460000Y66500000D03*
D25*
X40080000Y71580000D03*
%TD*%
D52*
%TO.C,J1*%
X68880000Y10000000D03*
D31*
X68880000Y7460000D03*
X66340000Y10000000D03*
X66340000Y7460000D03*
X63800000Y10000000D03*
X63800000Y7460000D03*
X61260000Y10000000D03*
X61260000Y7460000D03*
X58720000Y10000000D03*
X58720000Y7460000D03*
X56180000Y10000000D03*
X56180000Y7460000D03*
X53640000Y10000000D03*
X53640000Y7460000D03*
X51100000Y10000000D03*
X51100000Y7460000D03*
%TD*%
D45*
%TO.C,C60*%
X11071250Y38187500D03*
X10111250Y38187500D03*
%TD*%
D44*
%TO.C,C58*%
X19141250Y44407500D03*
X19141250Y45367500D03*
%TD*%
D28*
%TO.C,R35*%
X114730000Y5980000D03*
X113080000Y5980000D03*
%TD*%
D53*
%TO.C,U25*%
X24216250Y21382500D03*
X24216250Y22652500D03*
X24216250Y23922500D03*
X24216250Y25192500D03*
X17041250Y25192500D03*
X17041250Y23922500D03*
X17041250Y22652500D03*
X17041250Y21382500D03*
%TD*%
D45*
%TO.C,C61*%
X11970000Y33687500D03*
X11010000Y33687500D03*
%TD*%
D54*
%TO.C,J4*%
X14231250Y55362500D03*
X14231250Y60412500D03*
X16771250Y55362500D03*
X16771250Y60412500D03*
X19311250Y55362500D03*
X19311250Y60412500D03*
X21851250Y55362500D03*
X21851250Y60412500D03*
%TD*%
D40*
%TO.C,C55*%
X25361250Y35287500D03*
X26321250Y35287500D03*
%TD*%
D55*
%TO.C,D9*%
X13275000Y9757150D03*
X13775000Y9757150D03*
X14275000Y9757150D03*
X14775000Y9757150D03*
X15275000Y9757150D03*
X15275000Y10527150D03*
X14775000Y10527150D03*
X14275000Y10527150D03*
X13775000Y10527150D03*
X13275000Y10527150D03*
%TD*%
D17*
%TO.C,R27*%
X17275000Y47600000D03*
X18925000Y47600000D03*
%TD*%
D38*
%TO.C,C70*%
X16558750Y49860000D03*
X16558750Y48900000D03*
%TD*%
D47*
%TO.C,D4*%
X109230000Y4000000D03*
D48*
X106730000Y4000000D03*
%TD*%
D44*
%TO.C,C85*%
X16841250Y45207500D03*
X16841250Y46167500D03*
%TD*%
D56*
%TO.C,SW2*%
X31750000Y5522500D03*
X24740000Y5522500D03*
D57*
X30500000Y3032500D03*
X26000000Y3032500D03*
%TD*%
D58*
%TO.C,SW3*%
X6250000Y18670000D03*
X6250000Y26630000D03*
X10750000Y18670000D03*
X10750000Y26630000D03*
%TD*%
D59*
%TO.C,J10*%
X11610000Y5315000D03*
X17390000Y5315000D03*
D60*
X11300000Y6390000D03*
X12100000Y6390000D03*
D61*
X13250000Y6390000D03*
X14250000Y6390000D03*
X14750000Y6390000D03*
X15750000Y6390000D03*
D60*
X16900000Y6390000D03*
X17700000Y6390000D03*
X17700000Y6390000D03*
X16900000Y6390000D03*
D61*
X16250000Y6390000D03*
X15250000Y6390000D03*
X13750000Y6390000D03*
X12750000Y6390000D03*
D60*
X12100000Y6390000D03*
X11300000Y6390000D03*
D62*
X10180000Y5815000D03*
D63*
X10180000Y1635000D03*
D62*
X18820000Y5815000D03*
D63*
X18820000Y1635000D03*
%TD*%
D45*
%TO.C,C84*%
X11071250Y37237500D03*
X10111250Y37237500D03*
%TD*%
D47*
%TO.C,D5*%
X117230000Y4000000D03*
D48*
X114730000Y4000000D03*
%TD*%
D64*
%TO.C,R266*%
X12230000Y9694650D03*
X11210000Y9694650D03*
%TD*%
D24*
%TO.C,J3*%
X12000000Y66500000D03*
D25*
X6920000Y71580000D03*
D24*
X9460000Y66500000D03*
D25*
X17080000Y71580000D03*
%TD*%
D19*
%TO.C,C295*%
X17382500Y13700001D03*
X17382500Y12150001D03*
%TD*%
D40*
%TO.C,C56*%
X24711250Y39300000D03*
X25671250Y39300000D03*
%TD*%
D45*
%TO.C,C88*%
X15480000Y30520000D03*
X14520000Y30520000D03*
%TD*%
D33*
%TO.C,R26*%
X84955000Y4912500D03*
X84955000Y3262500D03*
%TD*%
D44*
%TO.C,C59*%
X11941250Y42607500D03*
X11941250Y43567500D03*
%TD*%
D42*
%TO.C,R267*%
X16310000Y9744650D03*
X17330000Y9744650D03*
%TD*%
M02*
