%TF.GenerationSoftware,KiCad,Pcbnew,9.0.6*%
%TF.CreationDate,2026-01-20T12:08:31-05:00*%
%TF.ProjectId,stimjim,7374696d-6a69-46d2-9e6b-696361645f70,B*%
%TF.SameCoordinates,PX8c30ac0PYa037a00*%
%TF.FileFunction,Legend,Bot*%
%TF.FilePolarity,Positive*%
%FSLAX46Y46*%
G04 Gerber Fmt 4.6, Leading zero omitted, Abs format (unit mm)*
G04 Created by KiCad (PCBNEW 9.0.6) date 2026-01-20 12:08:31*
%MOMM*%
%LPD*%
G01*
G04 APERTURE LIST*
%ADD10C,0.150000*%
%ADD11C,0.120000*%
G04 APERTURE END LIST*
D10*
X116878557Y25328572D02*
X116449985Y25628572D01*
X116878557Y25842858D02*
X115978557Y25842858D01*
X115978557Y25842858D02*
X115978557Y25500001D01*
X115978557Y25500001D02*
X116021414Y25414286D01*
X116021414Y25414286D02*
X116064271Y25371429D01*
X116064271Y25371429D02*
X116149985Y25328572D01*
X116149985Y25328572D02*
X116278557Y25328572D01*
X116278557Y25328572D02*
X116364271Y25371429D01*
X116364271Y25371429D02*
X116407128Y25414286D01*
X116407128Y25414286D02*
X116449985Y25500001D01*
X116449985Y25500001D02*
X116449985Y25842858D01*
X116064271Y24985715D02*
X116021414Y24942858D01*
X116021414Y24942858D02*
X115978557Y24857143D01*
X115978557Y24857143D02*
X115978557Y24642858D01*
X115978557Y24642858D02*
X116021414Y24557143D01*
X116021414Y24557143D02*
X116064271Y24514286D01*
X116064271Y24514286D02*
X116149985Y24471429D01*
X116149985Y24471429D02*
X116235700Y24471429D01*
X116235700Y24471429D02*
X116364271Y24514286D01*
X116364271Y24514286D02*
X116878557Y25028572D01*
X116878557Y25028572D02*
X116878557Y24471429D01*
X115978557Y23914286D02*
X115978557Y23828572D01*
X115978557Y23828572D02*
X116021414Y23742858D01*
X116021414Y23742858D02*
X116064271Y23700000D01*
X116064271Y23700000D02*
X116149985Y23657143D01*
X116149985Y23657143D02*
X116321414Y23614286D01*
X116321414Y23614286D02*
X116535700Y23614286D01*
X116535700Y23614286D02*
X116707128Y23657143D01*
X116707128Y23657143D02*
X116792842Y23700000D01*
X116792842Y23700000D02*
X116835700Y23742858D01*
X116835700Y23742858D02*
X116878557Y23828572D01*
X116878557Y23828572D02*
X116878557Y23914286D01*
X116878557Y23914286D02*
X116835700Y24000000D01*
X116835700Y24000000D02*
X116792842Y24042858D01*
X116792842Y24042858D02*
X116707128Y24085715D01*
X116707128Y24085715D02*
X116535700Y24128572D01*
X116535700Y24128572D02*
X116321414Y24128572D01*
X116321414Y24128572D02*
X116149985Y24085715D01*
X116149985Y24085715D02*
X116064271Y24042858D01*
X116064271Y24042858D02*
X116021414Y24000000D01*
X116021414Y24000000D02*
X115978557Y23914286D01*
X112022842Y25316072D02*
X112065700Y25358929D01*
X112065700Y25358929D02*
X112108557Y25487501D01*
X112108557Y25487501D02*
X112108557Y25573215D01*
X112108557Y25573215D02*
X112065700Y25701786D01*
X112065700Y25701786D02*
X111979985Y25787501D01*
X111979985Y25787501D02*
X111894271Y25830358D01*
X111894271Y25830358D02*
X111722842Y25873215D01*
X111722842Y25873215D02*
X111594271Y25873215D01*
X111594271Y25873215D02*
X111422842Y25830358D01*
X111422842Y25830358D02*
X111337128Y25787501D01*
X111337128Y25787501D02*
X111251414Y25701786D01*
X111251414Y25701786D02*
X111208557Y25573215D01*
X111208557Y25573215D02*
X111208557Y25487501D01*
X111208557Y25487501D02*
X111251414Y25358929D01*
X111251414Y25358929D02*
X111294271Y25316072D01*
X111208557Y24501786D02*
X111208557Y24930358D01*
X111208557Y24930358D02*
X111637128Y24973215D01*
X111637128Y24973215D02*
X111594271Y24930358D01*
X111594271Y24930358D02*
X111551414Y24844643D01*
X111551414Y24844643D02*
X111551414Y24630358D01*
X111551414Y24630358D02*
X111594271Y24544643D01*
X111594271Y24544643D02*
X111637128Y24501786D01*
X111637128Y24501786D02*
X111722842Y24458929D01*
X111722842Y24458929D02*
X111937128Y24458929D01*
X111937128Y24458929D02*
X112022842Y24501786D01*
X112022842Y24501786D02*
X112065700Y24544643D01*
X112065700Y24544643D02*
X112108557Y24630358D01*
X112108557Y24630358D02*
X112108557Y24844643D01*
X112108557Y24844643D02*
X112065700Y24930358D01*
X112065700Y24930358D02*
X112022842Y24973215D01*
X111508557Y23687500D02*
X112108557Y23687500D01*
X111165700Y23901786D02*
X111808557Y24116072D01*
X111808557Y24116072D02*
X111808557Y23558929D01*
X79149999Y35077158D02*
X79192856Y35034300D01*
X79192856Y35034300D02*
X79321428Y34991443D01*
X79321428Y34991443D02*
X79407142Y34991443D01*
X79407142Y34991443D02*
X79535713Y35034300D01*
X79535713Y35034300D02*
X79621428Y35120015D01*
X79621428Y35120015D02*
X79664285Y35205729D01*
X79664285Y35205729D02*
X79707142Y35377158D01*
X79707142Y35377158D02*
X79707142Y35505729D01*
X79707142Y35505729D02*
X79664285Y35677158D01*
X79664285Y35677158D02*
X79621428Y35762872D01*
X79621428Y35762872D02*
X79535713Y35848586D01*
X79535713Y35848586D02*
X79407142Y35891443D01*
X79407142Y35891443D02*
X79321428Y35891443D01*
X79321428Y35891443D02*
X79192856Y35848586D01*
X79192856Y35848586D02*
X79149999Y35805729D01*
X78335713Y35891443D02*
X78764285Y35891443D01*
X78764285Y35891443D02*
X78807142Y35462872D01*
X78807142Y35462872D02*
X78764285Y35505729D01*
X78764285Y35505729D02*
X78678571Y35548586D01*
X78678571Y35548586D02*
X78464285Y35548586D01*
X78464285Y35548586D02*
X78378571Y35505729D01*
X78378571Y35505729D02*
X78335713Y35462872D01*
X78335713Y35462872D02*
X78292856Y35377158D01*
X78292856Y35377158D02*
X78292856Y35162872D01*
X78292856Y35162872D02*
X78335713Y35077158D01*
X78335713Y35077158D02*
X78378571Y35034300D01*
X78378571Y35034300D02*
X78464285Y34991443D01*
X78464285Y34991443D02*
X78678571Y34991443D01*
X78678571Y34991443D02*
X78764285Y35034300D01*
X78764285Y35034300D02*
X78807142Y35077158D01*
X69149999Y35177158D02*
X69192856Y35134300D01*
X69192856Y35134300D02*
X69321428Y35091443D01*
X69321428Y35091443D02*
X69407142Y35091443D01*
X69407142Y35091443D02*
X69535713Y35134300D01*
X69535713Y35134300D02*
X69621428Y35220015D01*
X69621428Y35220015D02*
X69664285Y35305729D01*
X69664285Y35305729D02*
X69707142Y35477158D01*
X69707142Y35477158D02*
X69707142Y35605729D01*
X69707142Y35605729D02*
X69664285Y35777158D01*
X69664285Y35777158D02*
X69621428Y35862872D01*
X69621428Y35862872D02*
X69535713Y35948586D01*
X69535713Y35948586D02*
X69407142Y35991443D01*
X69407142Y35991443D02*
X69321428Y35991443D01*
X69321428Y35991443D02*
X69192856Y35948586D01*
X69192856Y35948586D02*
X69149999Y35905729D01*
X68378571Y35691443D02*
X68378571Y35091443D01*
X68592856Y36034300D02*
X68807142Y35391443D01*
X68807142Y35391443D02*
X68249999Y35391443D01*
X116869821Y17864658D02*
X116912678Y17821800D01*
X116912678Y17821800D02*
X117041250Y17778943D01*
X117041250Y17778943D02*
X117126964Y17778943D01*
X117126964Y17778943D02*
X117255535Y17821800D01*
X117255535Y17821800D02*
X117341250Y17907515D01*
X117341250Y17907515D02*
X117384107Y17993229D01*
X117384107Y17993229D02*
X117426964Y18164658D01*
X117426964Y18164658D02*
X117426964Y18293229D01*
X117426964Y18293229D02*
X117384107Y18464658D01*
X117384107Y18464658D02*
X117341250Y18550372D01*
X117341250Y18550372D02*
X117255535Y18636086D01*
X117255535Y18636086D02*
X117126964Y18678943D01*
X117126964Y18678943D02*
X117041250Y18678943D01*
X117041250Y18678943D02*
X116912678Y18636086D01*
X116912678Y18636086D02*
X116869821Y18593229D01*
X116526964Y18593229D02*
X116484107Y18636086D01*
X116484107Y18636086D02*
X116398393Y18678943D01*
X116398393Y18678943D02*
X116184107Y18678943D01*
X116184107Y18678943D02*
X116098393Y18636086D01*
X116098393Y18636086D02*
X116055535Y18593229D01*
X116055535Y18593229D02*
X116012678Y18507515D01*
X116012678Y18507515D02*
X116012678Y18421800D01*
X116012678Y18421800D02*
X116055535Y18293229D01*
X116055535Y18293229D02*
X116569821Y17778943D01*
X116569821Y17778943D02*
X116012678Y17778943D01*
X115498392Y18293229D02*
X115584107Y18336086D01*
X115584107Y18336086D02*
X115626964Y18378943D01*
X115626964Y18378943D02*
X115669821Y18464658D01*
X115669821Y18464658D02*
X115669821Y18507515D01*
X115669821Y18507515D02*
X115626964Y18593229D01*
X115626964Y18593229D02*
X115584107Y18636086D01*
X115584107Y18636086D02*
X115498392Y18678943D01*
X115498392Y18678943D02*
X115326964Y18678943D01*
X115326964Y18678943D02*
X115241250Y18636086D01*
X115241250Y18636086D02*
X115198392Y18593229D01*
X115198392Y18593229D02*
X115155535Y18507515D01*
X115155535Y18507515D02*
X115155535Y18464658D01*
X115155535Y18464658D02*
X115198392Y18378943D01*
X115198392Y18378943D02*
X115241250Y18336086D01*
X115241250Y18336086D02*
X115326964Y18293229D01*
X115326964Y18293229D02*
X115498392Y18293229D01*
X115498392Y18293229D02*
X115584107Y18250372D01*
X115584107Y18250372D02*
X115626964Y18207515D01*
X115626964Y18207515D02*
X115669821Y18121800D01*
X115669821Y18121800D02*
X115669821Y17950372D01*
X115669821Y17950372D02*
X115626964Y17864658D01*
X115626964Y17864658D02*
X115584107Y17821800D01*
X115584107Y17821800D02*
X115498392Y17778943D01*
X115498392Y17778943D02*
X115326964Y17778943D01*
X115326964Y17778943D02*
X115241250Y17821800D01*
X115241250Y17821800D02*
X115198392Y17864658D01*
X115198392Y17864658D02*
X115155535Y17950372D01*
X115155535Y17950372D02*
X115155535Y18121800D01*
X115155535Y18121800D02*
X115198392Y18207515D01*
X115198392Y18207515D02*
X115241250Y18250372D01*
X115241250Y18250372D02*
X115326964Y18293229D01*
X120972842Y38578572D02*
X121015700Y38621429D01*
X121015700Y38621429D02*
X121058557Y38750001D01*
X121058557Y38750001D02*
X121058557Y38835715D01*
X121058557Y38835715D02*
X121015700Y38964286D01*
X121015700Y38964286D02*
X120929985Y39050001D01*
X120929985Y39050001D02*
X120844271Y39092858D01*
X120844271Y39092858D02*
X120672842Y39135715D01*
X120672842Y39135715D02*
X120544271Y39135715D01*
X120544271Y39135715D02*
X120372842Y39092858D01*
X120372842Y39092858D02*
X120287128Y39050001D01*
X120287128Y39050001D02*
X120201414Y38964286D01*
X120201414Y38964286D02*
X120158557Y38835715D01*
X120158557Y38835715D02*
X120158557Y38750001D01*
X120158557Y38750001D02*
X120201414Y38621429D01*
X120201414Y38621429D02*
X120244271Y38578572D01*
X120158557Y38278572D02*
X120158557Y37721429D01*
X120158557Y37721429D02*
X120501414Y38021429D01*
X120501414Y38021429D02*
X120501414Y37892858D01*
X120501414Y37892858D02*
X120544271Y37807143D01*
X120544271Y37807143D02*
X120587128Y37764286D01*
X120587128Y37764286D02*
X120672842Y37721429D01*
X120672842Y37721429D02*
X120887128Y37721429D01*
X120887128Y37721429D02*
X120972842Y37764286D01*
X120972842Y37764286D02*
X121015700Y37807143D01*
X121015700Y37807143D02*
X121058557Y37892858D01*
X121058557Y37892858D02*
X121058557Y38150001D01*
X121058557Y38150001D02*
X121015700Y38235715D01*
X121015700Y38235715D02*
X120972842Y38278572D01*
X120158557Y37164286D02*
X120158557Y37078572D01*
X120158557Y37078572D02*
X120201414Y36992858D01*
X120201414Y36992858D02*
X120244271Y36950000D01*
X120244271Y36950000D02*
X120329985Y36907143D01*
X120329985Y36907143D02*
X120501414Y36864286D01*
X120501414Y36864286D02*
X120715700Y36864286D01*
X120715700Y36864286D02*
X120887128Y36907143D01*
X120887128Y36907143D02*
X120972842Y36950000D01*
X120972842Y36950000D02*
X121015700Y36992858D01*
X121015700Y36992858D02*
X121058557Y37078572D01*
X121058557Y37078572D02*
X121058557Y37164286D01*
X121058557Y37164286D02*
X121015700Y37250000D01*
X121015700Y37250000D02*
X120972842Y37292858D01*
X120972842Y37292858D02*
X120887128Y37335715D01*
X120887128Y37335715D02*
X120715700Y37378572D01*
X120715700Y37378572D02*
X120501414Y37378572D01*
X120501414Y37378572D02*
X120329985Y37335715D01*
X120329985Y37335715D02*
X120244271Y37292858D01*
X120244271Y37292858D02*
X120201414Y37250000D01*
X120201414Y37250000D02*
X120158557Y37164286D01*
X113078571Y34177158D02*
X113121428Y34134300D01*
X113121428Y34134300D02*
X113250000Y34091443D01*
X113250000Y34091443D02*
X113335714Y34091443D01*
X113335714Y34091443D02*
X113464285Y34134300D01*
X113464285Y34134300D02*
X113550000Y34220015D01*
X113550000Y34220015D02*
X113592857Y34305729D01*
X113592857Y34305729D02*
X113635714Y34477158D01*
X113635714Y34477158D02*
X113635714Y34605729D01*
X113635714Y34605729D02*
X113592857Y34777158D01*
X113592857Y34777158D02*
X113550000Y34862872D01*
X113550000Y34862872D02*
X113464285Y34948586D01*
X113464285Y34948586D02*
X113335714Y34991443D01*
X113335714Y34991443D02*
X113250000Y34991443D01*
X113250000Y34991443D02*
X113121428Y34948586D01*
X113121428Y34948586D02*
X113078571Y34905729D01*
X112735714Y34905729D02*
X112692857Y34948586D01*
X112692857Y34948586D02*
X112607143Y34991443D01*
X112607143Y34991443D02*
X112392857Y34991443D01*
X112392857Y34991443D02*
X112307143Y34948586D01*
X112307143Y34948586D02*
X112264285Y34905729D01*
X112264285Y34905729D02*
X112221428Y34820015D01*
X112221428Y34820015D02*
X112221428Y34734300D01*
X112221428Y34734300D02*
X112264285Y34605729D01*
X112264285Y34605729D02*
X112778571Y34091443D01*
X112778571Y34091443D02*
X112221428Y34091443D01*
X111792857Y34091443D02*
X111621428Y34091443D01*
X111621428Y34091443D02*
X111535714Y34134300D01*
X111535714Y34134300D02*
X111492857Y34177158D01*
X111492857Y34177158D02*
X111407142Y34305729D01*
X111407142Y34305729D02*
X111364285Y34477158D01*
X111364285Y34477158D02*
X111364285Y34820015D01*
X111364285Y34820015D02*
X111407142Y34905729D01*
X111407142Y34905729D02*
X111450000Y34948586D01*
X111450000Y34948586D02*
X111535714Y34991443D01*
X111535714Y34991443D02*
X111707142Y34991443D01*
X111707142Y34991443D02*
X111792857Y34948586D01*
X111792857Y34948586D02*
X111835714Y34905729D01*
X111835714Y34905729D02*
X111878571Y34820015D01*
X111878571Y34820015D02*
X111878571Y34605729D01*
X111878571Y34605729D02*
X111835714Y34520015D01*
X111835714Y34520015D02*
X111792857Y34477158D01*
X111792857Y34477158D02*
X111707142Y34434300D01*
X111707142Y34434300D02*
X111535714Y34434300D01*
X111535714Y34434300D02*
X111450000Y34477158D01*
X111450000Y34477158D02*
X111407142Y34520015D01*
X111407142Y34520015D02*
X111364285Y34605729D01*
X72641249Y18214658D02*
X72684106Y18171800D01*
X72684106Y18171800D02*
X72812678Y18128943D01*
X72812678Y18128943D02*
X72898392Y18128943D01*
X72898392Y18128943D02*
X73026963Y18171800D01*
X73026963Y18171800D02*
X73112678Y18257515D01*
X73112678Y18257515D02*
X73155535Y18343229D01*
X73155535Y18343229D02*
X73198392Y18514658D01*
X73198392Y18514658D02*
X73198392Y18643229D01*
X73198392Y18643229D02*
X73155535Y18814658D01*
X73155535Y18814658D02*
X73112678Y18900372D01*
X73112678Y18900372D02*
X73026963Y18986086D01*
X73026963Y18986086D02*
X72898392Y19028943D01*
X72898392Y19028943D02*
X72812678Y19028943D01*
X72812678Y19028943D02*
X72684106Y18986086D01*
X72684106Y18986086D02*
X72641249Y18943229D01*
X72341249Y19028943D02*
X71784106Y19028943D01*
X71784106Y19028943D02*
X72084106Y18686086D01*
X72084106Y18686086D02*
X71955535Y18686086D01*
X71955535Y18686086D02*
X71869821Y18643229D01*
X71869821Y18643229D02*
X71826963Y18600372D01*
X71826963Y18600372D02*
X71784106Y18514658D01*
X71784106Y18514658D02*
X71784106Y18300372D01*
X71784106Y18300372D02*
X71826963Y18214658D01*
X71826963Y18214658D02*
X71869821Y18171800D01*
X71869821Y18171800D02*
X71955535Y18128943D01*
X71955535Y18128943D02*
X72212678Y18128943D01*
X72212678Y18128943D02*
X72298392Y18171800D01*
X72298392Y18171800D02*
X72341249Y18214658D01*
X73128557Y25328572D02*
X72699985Y25628572D01*
X73128557Y25842858D02*
X72228557Y25842858D01*
X72228557Y25842858D02*
X72228557Y25500001D01*
X72228557Y25500001D02*
X72271414Y25414286D01*
X72271414Y25414286D02*
X72314271Y25371429D01*
X72314271Y25371429D02*
X72399985Y25328572D01*
X72399985Y25328572D02*
X72528557Y25328572D01*
X72528557Y25328572D02*
X72614271Y25371429D01*
X72614271Y25371429D02*
X72657128Y25414286D01*
X72657128Y25414286D02*
X72699985Y25500001D01*
X72699985Y25500001D02*
X72699985Y25842858D01*
X73128557Y24471429D02*
X73128557Y24985715D01*
X73128557Y24728572D02*
X72228557Y24728572D01*
X72228557Y24728572D02*
X72357128Y24814286D01*
X72357128Y24814286D02*
X72442842Y24900001D01*
X72442842Y24900001D02*
X72485700Y24985715D01*
X73128557Y24042858D02*
X73128557Y23871429D01*
X73128557Y23871429D02*
X73085700Y23785715D01*
X73085700Y23785715D02*
X73042842Y23742858D01*
X73042842Y23742858D02*
X72914271Y23657143D01*
X72914271Y23657143D02*
X72742842Y23614286D01*
X72742842Y23614286D02*
X72399985Y23614286D01*
X72399985Y23614286D02*
X72314271Y23657143D01*
X72314271Y23657143D02*
X72271414Y23700000D01*
X72271414Y23700000D02*
X72228557Y23785715D01*
X72228557Y23785715D02*
X72228557Y23957143D01*
X72228557Y23957143D02*
X72271414Y24042858D01*
X72271414Y24042858D02*
X72314271Y24085715D01*
X72314271Y24085715D02*
X72399985Y24128572D01*
X72399985Y24128572D02*
X72614271Y24128572D01*
X72614271Y24128572D02*
X72699985Y24085715D01*
X72699985Y24085715D02*
X72742842Y24042858D01*
X72742842Y24042858D02*
X72785700Y23957143D01*
X72785700Y23957143D02*
X72785700Y23785715D01*
X72785700Y23785715D02*
X72742842Y23700000D01*
X72742842Y23700000D02*
X72699985Y23657143D01*
X72699985Y23657143D02*
X72614271Y23614286D01*
X68272842Y25341072D02*
X68315700Y25383929D01*
X68315700Y25383929D02*
X68358557Y25512501D01*
X68358557Y25512501D02*
X68358557Y25598215D01*
X68358557Y25598215D02*
X68315700Y25726786D01*
X68315700Y25726786D02*
X68229985Y25812501D01*
X68229985Y25812501D02*
X68144271Y25855358D01*
X68144271Y25855358D02*
X67972842Y25898215D01*
X67972842Y25898215D02*
X67844271Y25898215D01*
X67844271Y25898215D02*
X67672842Y25855358D01*
X67672842Y25855358D02*
X67587128Y25812501D01*
X67587128Y25812501D02*
X67501414Y25726786D01*
X67501414Y25726786D02*
X67458557Y25598215D01*
X67458557Y25598215D02*
X67458557Y25512501D01*
X67458557Y25512501D02*
X67501414Y25383929D01*
X67501414Y25383929D02*
X67544271Y25341072D01*
X67458557Y24526786D02*
X67458557Y24955358D01*
X67458557Y24955358D02*
X67887128Y24998215D01*
X67887128Y24998215D02*
X67844271Y24955358D01*
X67844271Y24955358D02*
X67801414Y24869643D01*
X67801414Y24869643D02*
X67801414Y24655358D01*
X67801414Y24655358D02*
X67844271Y24569643D01*
X67844271Y24569643D02*
X67887128Y24526786D01*
X67887128Y24526786D02*
X67972842Y24483929D01*
X67972842Y24483929D02*
X68187128Y24483929D01*
X68187128Y24483929D02*
X68272842Y24526786D01*
X68272842Y24526786D02*
X68315700Y24569643D01*
X68315700Y24569643D02*
X68358557Y24655358D01*
X68358557Y24655358D02*
X68358557Y24869643D01*
X68358557Y24869643D02*
X68315700Y24955358D01*
X68315700Y24955358D02*
X68272842Y24998215D01*
X67458557Y24183929D02*
X67458557Y23626786D01*
X67458557Y23626786D02*
X67801414Y23926786D01*
X67801414Y23926786D02*
X67801414Y23798215D01*
X67801414Y23798215D02*
X67844271Y23712500D01*
X67844271Y23712500D02*
X67887128Y23669643D01*
X67887128Y23669643D02*
X67972842Y23626786D01*
X67972842Y23626786D02*
X68187128Y23626786D01*
X68187128Y23626786D02*
X68272842Y23669643D01*
X68272842Y23669643D02*
X68315700Y23712500D01*
X68315700Y23712500D02*
X68358557Y23798215D01*
X68358557Y23798215D02*
X68358557Y24055358D01*
X68358557Y24055358D02*
X68315700Y24141072D01*
X68315700Y24141072D02*
X68272842Y24183929D01*
X24654819Y28142858D02*
X24178628Y28476191D01*
X24654819Y28714286D02*
X23654819Y28714286D01*
X23654819Y28714286D02*
X23654819Y28333334D01*
X23654819Y28333334D02*
X23702438Y28238096D01*
X23702438Y28238096D02*
X23750057Y28190477D01*
X23750057Y28190477D02*
X23845295Y28142858D01*
X23845295Y28142858D02*
X23988152Y28142858D01*
X23988152Y28142858D02*
X24083390Y28190477D01*
X24083390Y28190477D02*
X24131009Y28238096D01*
X24131009Y28238096D02*
X24178628Y28333334D01*
X24178628Y28333334D02*
X24178628Y28714286D01*
X23654819Y27809524D02*
X23654819Y27190477D01*
X23654819Y27190477D02*
X24035771Y27523810D01*
X24035771Y27523810D02*
X24035771Y27380953D01*
X24035771Y27380953D02*
X24083390Y27285715D01*
X24083390Y27285715D02*
X24131009Y27238096D01*
X24131009Y27238096D02*
X24226247Y27190477D01*
X24226247Y27190477D02*
X24464342Y27190477D01*
X24464342Y27190477D02*
X24559580Y27238096D01*
X24559580Y27238096D02*
X24607200Y27285715D01*
X24607200Y27285715D02*
X24654819Y27380953D01*
X24654819Y27380953D02*
X24654819Y27666667D01*
X24654819Y27666667D02*
X24607200Y27761905D01*
X24607200Y27761905D02*
X24559580Y27809524D01*
X23654819Y26857143D02*
X23654819Y26190477D01*
X23654819Y26190477D02*
X24654819Y26619048D01*
X12738094Y55145181D02*
X12738094Y56145181D01*
X12738094Y56145181D02*
X12499999Y56145181D01*
X12499999Y56145181D02*
X12357142Y56097562D01*
X12357142Y56097562D02*
X12261904Y56002324D01*
X12261904Y56002324D02*
X12214285Y55907086D01*
X12214285Y55907086D02*
X12166666Y55716610D01*
X12166666Y55716610D02*
X12166666Y55573753D01*
X12166666Y55573753D02*
X12214285Y55383277D01*
X12214285Y55383277D02*
X12261904Y55288039D01*
X12261904Y55288039D02*
X12357142Y55192800D01*
X12357142Y55192800D02*
X12499999Y55145181D01*
X12499999Y55145181D02*
X12738094Y55145181D01*
X11309523Y56145181D02*
X11499999Y56145181D01*
X11499999Y56145181D02*
X11595237Y56097562D01*
X11595237Y56097562D02*
X11642856Y56049943D01*
X11642856Y56049943D02*
X11738094Y55907086D01*
X11738094Y55907086D02*
X11785713Y55716610D01*
X11785713Y55716610D02*
X11785713Y55335658D01*
X11785713Y55335658D02*
X11738094Y55240420D01*
X11738094Y55240420D02*
X11690475Y55192800D01*
X11690475Y55192800D02*
X11595237Y55145181D01*
X11595237Y55145181D02*
X11404761Y55145181D01*
X11404761Y55145181D02*
X11309523Y55192800D01*
X11309523Y55192800D02*
X11261904Y55240420D01*
X11261904Y55240420D02*
X11214285Y55335658D01*
X11214285Y55335658D02*
X11214285Y55573753D01*
X11214285Y55573753D02*
X11261904Y55668991D01*
X11261904Y55668991D02*
X11309523Y55716610D01*
X11309523Y55716610D02*
X11404761Y55764229D01*
X11404761Y55764229D02*
X11595237Y55764229D01*
X11595237Y55764229D02*
X11690475Y55716610D01*
X11690475Y55716610D02*
X11738094Y55668991D01*
X11738094Y55668991D02*
X11785713Y55573753D01*
X35254819Y35514286D02*
X34254819Y35514286D01*
X34254819Y35514286D02*
X34254819Y35276191D01*
X34254819Y35276191D02*
X34302438Y35133334D01*
X34302438Y35133334D02*
X34397676Y35038096D01*
X34397676Y35038096D02*
X34492914Y34990477D01*
X34492914Y34990477D02*
X34683390Y34942858D01*
X34683390Y34942858D02*
X34826247Y34942858D01*
X34826247Y34942858D02*
X35016723Y34990477D01*
X35016723Y34990477D02*
X35111961Y35038096D01*
X35111961Y35038096D02*
X35207200Y35133334D01*
X35207200Y35133334D02*
X35254819Y35276191D01*
X35254819Y35276191D02*
X35254819Y35514286D01*
X35254819Y33990477D02*
X35254819Y34561905D01*
X35254819Y34276191D02*
X34254819Y34276191D01*
X34254819Y34276191D02*
X34397676Y34371429D01*
X34397676Y34371429D02*
X34492914Y34466667D01*
X34492914Y34466667D02*
X34540533Y34561905D01*
X34254819Y33085715D02*
X34254819Y33561905D01*
X34254819Y33561905D02*
X34731009Y33609524D01*
X34731009Y33609524D02*
X34683390Y33561905D01*
X34683390Y33561905D02*
X34635771Y33466667D01*
X34635771Y33466667D02*
X34635771Y33228572D01*
X34635771Y33228572D02*
X34683390Y33133334D01*
X34683390Y33133334D02*
X34731009Y33085715D01*
X34731009Y33085715D02*
X34826247Y33038096D01*
X34826247Y33038096D02*
X35064342Y33038096D01*
X35064342Y33038096D02*
X35159580Y33085715D01*
X35159580Y33085715D02*
X35207200Y33133334D01*
X35207200Y33133334D02*
X35254819Y33228572D01*
X35254819Y33228572D02*
X35254819Y33466667D01*
X35254819Y33466667D02*
X35207200Y33561905D01*
X35207200Y33561905D02*
X35159580Y33609524D01*
X21054819Y24014286D02*
X20054819Y24014286D01*
X20054819Y24014286D02*
X20054819Y23776191D01*
X20054819Y23776191D02*
X20102438Y23633334D01*
X20102438Y23633334D02*
X20197676Y23538096D01*
X20197676Y23538096D02*
X20292914Y23490477D01*
X20292914Y23490477D02*
X20483390Y23442858D01*
X20483390Y23442858D02*
X20626247Y23442858D01*
X20626247Y23442858D02*
X20816723Y23490477D01*
X20816723Y23490477D02*
X20911961Y23538096D01*
X20911961Y23538096D02*
X21007200Y23633334D01*
X21007200Y23633334D02*
X21054819Y23776191D01*
X21054819Y23776191D02*
X21054819Y24014286D01*
X21054819Y22490477D02*
X21054819Y23061905D01*
X21054819Y22776191D02*
X20054819Y22776191D01*
X20054819Y22776191D02*
X20197676Y22871429D01*
X20197676Y22871429D02*
X20292914Y22966667D01*
X20292914Y22966667D02*
X20340533Y23061905D01*
X21054819Y21538096D02*
X21054819Y22109524D01*
X21054819Y21823810D02*
X20054819Y21823810D01*
X20054819Y21823810D02*
X20197676Y21919048D01*
X20197676Y21919048D02*
X20292914Y22014286D01*
X20292914Y22014286D02*
X20340533Y22109524D01*
X27454819Y35514286D02*
X26454819Y35514286D01*
X26454819Y35514286D02*
X26454819Y35276191D01*
X26454819Y35276191D02*
X26502438Y35133334D01*
X26502438Y35133334D02*
X26597676Y35038096D01*
X26597676Y35038096D02*
X26692914Y34990477D01*
X26692914Y34990477D02*
X26883390Y34942858D01*
X26883390Y34942858D02*
X27026247Y34942858D01*
X27026247Y34942858D02*
X27216723Y34990477D01*
X27216723Y34990477D02*
X27311961Y35038096D01*
X27311961Y35038096D02*
X27407200Y35133334D01*
X27407200Y35133334D02*
X27454819Y35276191D01*
X27454819Y35276191D02*
X27454819Y35514286D01*
X27454819Y33990477D02*
X27454819Y34561905D01*
X27454819Y34276191D02*
X26454819Y34276191D01*
X26454819Y34276191D02*
X26597676Y34371429D01*
X26597676Y34371429D02*
X26692914Y34466667D01*
X26692914Y34466667D02*
X26740533Y34561905D01*
X26788152Y33133334D02*
X27454819Y33133334D01*
X26407200Y33371429D02*
X27121485Y33609524D01*
X27121485Y33609524D02*
X27121485Y32990477D01*
X32654819Y35514286D02*
X31654819Y35514286D01*
X31654819Y35514286D02*
X31654819Y35276191D01*
X31654819Y35276191D02*
X31702438Y35133334D01*
X31702438Y35133334D02*
X31797676Y35038096D01*
X31797676Y35038096D02*
X31892914Y34990477D01*
X31892914Y34990477D02*
X32083390Y34942858D01*
X32083390Y34942858D02*
X32226247Y34942858D01*
X32226247Y34942858D02*
X32416723Y34990477D01*
X32416723Y34990477D02*
X32511961Y35038096D01*
X32511961Y35038096D02*
X32607200Y35133334D01*
X32607200Y35133334D02*
X32654819Y35276191D01*
X32654819Y35276191D02*
X32654819Y35514286D01*
X32654819Y33990477D02*
X32654819Y34561905D01*
X32654819Y34276191D02*
X31654819Y34276191D01*
X31654819Y34276191D02*
X31797676Y34371429D01*
X31797676Y34371429D02*
X31892914Y34466667D01*
X31892914Y34466667D02*
X31940533Y34561905D01*
X31654819Y33371429D02*
X31654819Y33276191D01*
X31654819Y33276191D02*
X31702438Y33180953D01*
X31702438Y33180953D02*
X31750057Y33133334D01*
X31750057Y33133334D02*
X31845295Y33085715D01*
X31845295Y33085715D02*
X32035771Y33038096D01*
X32035771Y33038096D02*
X32273866Y33038096D01*
X32273866Y33038096D02*
X32464342Y33085715D01*
X32464342Y33085715D02*
X32559580Y33133334D01*
X32559580Y33133334D02*
X32607200Y33180953D01*
X32607200Y33180953D02*
X32654819Y33276191D01*
X32654819Y33276191D02*
X32654819Y33371429D01*
X32654819Y33371429D02*
X32607200Y33466667D01*
X32607200Y33466667D02*
X32559580Y33514286D01*
X32559580Y33514286D02*
X32464342Y33561905D01*
X32464342Y33561905D02*
X32273866Y33609524D01*
X32273866Y33609524D02*
X32035771Y33609524D01*
X32035771Y33609524D02*
X31845295Y33561905D01*
X31845295Y33561905D02*
X31750057Y33514286D01*
X31750057Y33514286D02*
X31702438Y33466667D01*
X31702438Y33466667D02*
X31654819Y33371429D01*
X19454819Y24014286D02*
X18454819Y24014286D01*
X18454819Y24014286D02*
X18454819Y23776191D01*
X18454819Y23776191D02*
X18502438Y23633334D01*
X18502438Y23633334D02*
X18597676Y23538096D01*
X18597676Y23538096D02*
X18692914Y23490477D01*
X18692914Y23490477D02*
X18883390Y23442858D01*
X18883390Y23442858D02*
X19026247Y23442858D01*
X19026247Y23442858D02*
X19216723Y23490477D01*
X19216723Y23490477D02*
X19311961Y23538096D01*
X19311961Y23538096D02*
X19407200Y23633334D01*
X19407200Y23633334D02*
X19454819Y23776191D01*
X19454819Y23776191D02*
X19454819Y24014286D01*
X19454819Y22490477D02*
X19454819Y23061905D01*
X19454819Y22776191D02*
X18454819Y22776191D01*
X18454819Y22776191D02*
X18597676Y22871429D01*
X18597676Y22871429D02*
X18692914Y22966667D01*
X18692914Y22966667D02*
X18740533Y23061905D01*
X18454819Y22157143D02*
X18454819Y21538096D01*
X18454819Y21538096D02*
X18835771Y21871429D01*
X18835771Y21871429D02*
X18835771Y21728572D01*
X18835771Y21728572D02*
X18883390Y21633334D01*
X18883390Y21633334D02*
X18931009Y21585715D01*
X18931009Y21585715D02*
X19026247Y21538096D01*
X19026247Y21538096D02*
X19264342Y21538096D01*
X19264342Y21538096D02*
X19359580Y21585715D01*
X19359580Y21585715D02*
X19407200Y21633334D01*
X19407200Y21633334D02*
X19454819Y21728572D01*
X19454819Y21728572D02*
X19454819Y22014286D01*
X19454819Y22014286D02*
X19407200Y22109524D01*
X19407200Y22109524D02*
X19359580Y22157143D01*
X30054819Y16742858D02*
X29578628Y17076191D01*
X30054819Y17314286D02*
X29054819Y17314286D01*
X29054819Y17314286D02*
X29054819Y16933334D01*
X29054819Y16933334D02*
X29102438Y16838096D01*
X29102438Y16838096D02*
X29150057Y16790477D01*
X29150057Y16790477D02*
X29245295Y16742858D01*
X29245295Y16742858D02*
X29388152Y16742858D01*
X29388152Y16742858D02*
X29483390Y16790477D01*
X29483390Y16790477D02*
X29531009Y16838096D01*
X29531009Y16838096D02*
X29578628Y16933334D01*
X29578628Y16933334D02*
X29578628Y17314286D01*
X29150057Y16361905D02*
X29102438Y16314286D01*
X29102438Y16314286D02*
X29054819Y16219048D01*
X29054819Y16219048D02*
X29054819Y15980953D01*
X29054819Y15980953D02*
X29102438Y15885715D01*
X29102438Y15885715D02*
X29150057Y15838096D01*
X29150057Y15838096D02*
X29245295Y15790477D01*
X29245295Y15790477D02*
X29340533Y15790477D01*
X29340533Y15790477D02*
X29483390Y15838096D01*
X29483390Y15838096D02*
X30054819Y16409524D01*
X30054819Y16409524D02*
X30054819Y15790477D01*
X29054819Y15457143D02*
X29054819Y14838096D01*
X29054819Y14838096D02*
X29435771Y15171429D01*
X29435771Y15171429D02*
X29435771Y15028572D01*
X29435771Y15028572D02*
X29483390Y14933334D01*
X29483390Y14933334D02*
X29531009Y14885715D01*
X29531009Y14885715D02*
X29626247Y14838096D01*
X29626247Y14838096D02*
X29864342Y14838096D01*
X29864342Y14838096D02*
X29959580Y14885715D01*
X29959580Y14885715D02*
X30007200Y14933334D01*
X30007200Y14933334D02*
X30054819Y15028572D01*
X30054819Y15028572D02*
X30054819Y15314286D01*
X30054819Y15314286D02*
X30007200Y15409524D01*
X30007200Y15409524D02*
X29959580Y15457143D01*
X24554819Y24014286D02*
X23554819Y24014286D01*
X23554819Y24014286D02*
X23554819Y23776191D01*
X23554819Y23776191D02*
X23602438Y23633334D01*
X23602438Y23633334D02*
X23697676Y23538096D01*
X23697676Y23538096D02*
X23792914Y23490477D01*
X23792914Y23490477D02*
X23983390Y23442858D01*
X23983390Y23442858D02*
X24126247Y23442858D01*
X24126247Y23442858D02*
X24316723Y23490477D01*
X24316723Y23490477D02*
X24411961Y23538096D01*
X24411961Y23538096D02*
X24507200Y23633334D01*
X24507200Y23633334D02*
X24554819Y23776191D01*
X24554819Y23776191D02*
X24554819Y24014286D01*
X24554819Y22490477D02*
X24554819Y23061905D01*
X24554819Y22776191D02*
X23554819Y22776191D01*
X23554819Y22776191D02*
X23697676Y22871429D01*
X23697676Y22871429D02*
X23792914Y22966667D01*
X23792914Y22966667D02*
X23840533Y23061905D01*
X23554819Y21633334D02*
X23554819Y21823810D01*
X23554819Y21823810D02*
X23602438Y21919048D01*
X23602438Y21919048D02*
X23650057Y21966667D01*
X23650057Y21966667D02*
X23792914Y22061905D01*
X23792914Y22061905D02*
X23983390Y22109524D01*
X23983390Y22109524D02*
X24364342Y22109524D01*
X24364342Y22109524D02*
X24459580Y22061905D01*
X24459580Y22061905D02*
X24507200Y22014286D01*
X24507200Y22014286D02*
X24554819Y21919048D01*
X24554819Y21919048D02*
X24554819Y21728572D01*
X24554819Y21728572D02*
X24507200Y21633334D01*
X24507200Y21633334D02*
X24459580Y21585715D01*
X24459580Y21585715D02*
X24364342Y21538096D01*
X24364342Y21538096D02*
X24126247Y21538096D01*
X24126247Y21538096D02*
X24031009Y21585715D01*
X24031009Y21585715D02*
X23983390Y21633334D01*
X23983390Y21633334D02*
X23935771Y21728572D01*
X23935771Y21728572D02*
X23935771Y21919048D01*
X23935771Y21919048D02*
X23983390Y22014286D01*
X23983390Y22014286D02*
X24031009Y22061905D01*
X24031009Y22061905D02*
X24126247Y22109524D01*
X35254819Y16742858D02*
X34778628Y17076191D01*
X35254819Y17314286D02*
X34254819Y17314286D01*
X34254819Y17314286D02*
X34254819Y16933334D01*
X34254819Y16933334D02*
X34302438Y16838096D01*
X34302438Y16838096D02*
X34350057Y16790477D01*
X34350057Y16790477D02*
X34445295Y16742858D01*
X34445295Y16742858D02*
X34588152Y16742858D01*
X34588152Y16742858D02*
X34683390Y16790477D01*
X34683390Y16790477D02*
X34731009Y16838096D01*
X34731009Y16838096D02*
X34778628Y16933334D01*
X34778628Y16933334D02*
X34778628Y17314286D01*
X34254819Y16409524D02*
X34254819Y15790477D01*
X34254819Y15790477D02*
X34635771Y16123810D01*
X34635771Y16123810D02*
X34635771Y15980953D01*
X34635771Y15980953D02*
X34683390Y15885715D01*
X34683390Y15885715D02*
X34731009Y15838096D01*
X34731009Y15838096D02*
X34826247Y15790477D01*
X34826247Y15790477D02*
X35064342Y15790477D01*
X35064342Y15790477D02*
X35159580Y15838096D01*
X35159580Y15838096D02*
X35207200Y15885715D01*
X35207200Y15885715D02*
X35254819Y15980953D01*
X35254819Y15980953D02*
X35254819Y16266667D01*
X35254819Y16266667D02*
X35207200Y16361905D01*
X35207200Y16361905D02*
X35159580Y16409524D01*
X34683390Y15219048D02*
X34635771Y15314286D01*
X34635771Y15314286D02*
X34588152Y15361905D01*
X34588152Y15361905D02*
X34492914Y15409524D01*
X34492914Y15409524D02*
X34445295Y15409524D01*
X34445295Y15409524D02*
X34350057Y15361905D01*
X34350057Y15361905D02*
X34302438Y15314286D01*
X34302438Y15314286D02*
X34254819Y15219048D01*
X34254819Y15219048D02*
X34254819Y15028572D01*
X34254819Y15028572D02*
X34302438Y14933334D01*
X34302438Y14933334D02*
X34350057Y14885715D01*
X34350057Y14885715D02*
X34445295Y14838096D01*
X34445295Y14838096D02*
X34492914Y14838096D01*
X34492914Y14838096D02*
X34588152Y14885715D01*
X34588152Y14885715D02*
X34635771Y14933334D01*
X34635771Y14933334D02*
X34683390Y15028572D01*
X34683390Y15028572D02*
X34683390Y15219048D01*
X34683390Y15219048D02*
X34731009Y15314286D01*
X34731009Y15314286D02*
X34778628Y15361905D01*
X34778628Y15361905D02*
X34873866Y15409524D01*
X34873866Y15409524D02*
X35064342Y15409524D01*
X35064342Y15409524D02*
X35159580Y15361905D01*
X35159580Y15361905D02*
X35207200Y15314286D01*
X35207200Y15314286D02*
X35254819Y15219048D01*
X35254819Y15219048D02*
X35254819Y15028572D01*
X35254819Y15028572D02*
X35207200Y14933334D01*
X35207200Y14933334D02*
X35159580Y14885715D01*
X35159580Y14885715D02*
X35064342Y14838096D01*
X35064342Y14838096D02*
X34873866Y14838096D01*
X34873866Y14838096D02*
X34778628Y14885715D01*
X34778628Y14885715D02*
X34731009Y14933334D01*
X34731009Y14933334D02*
X34683390Y15028572D01*
X21154819Y28142858D02*
X20678628Y28476191D01*
X21154819Y28714286D02*
X20154819Y28714286D01*
X20154819Y28714286D02*
X20154819Y28333334D01*
X20154819Y28333334D02*
X20202438Y28238096D01*
X20202438Y28238096D02*
X20250057Y28190477D01*
X20250057Y28190477D02*
X20345295Y28142858D01*
X20345295Y28142858D02*
X20488152Y28142858D01*
X20488152Y28142858D02*
X20583390Y28190477D01*
X20583390Y28190477D02*
X20631009Y28238096D01*
X20631009Y28238096D02*
X20678628Y28333334D01*
X20678628Y28333334D02*
X20678628Y28714286D01*
X20250057Y27761905D02*
X20202438Y27714286D01*
X20202438Y27714286D02*
X20154819Y27619048D01*
X20154819Y27619048D02*
X20154819Y27380953D01*
X20154819Y27380953D02*
X20202438Y27285715D01*
X20202438Y27285715D02*
X20250057Y27238096D01*
X20250057Y27238096D02*
X20345295Y27190477D01*
X20345295Y27190477D02*
X20440533Y27190477D01*
X20440533Y27190477D02*
X20583390Y27238096D01*
X20583390Y27238096D02*
X21154819Y27809524D01*
X21154819Y27809524D02*
X21154819Y27190477D01*
X20488152Y26333334D02*
X21154819Y26333334D01*
X20107200Y26571429D02*
X20821485Y26809524D01*
X20821485Y26809524D02*
X20821485Y26190477D01*
X22754819Y24014285D02*
X21754819Y24014285D01*
X21754819Y24014285D02*
X21754819Y23776190D01*
X21754819Y23776190D02*
X21802438Y23633333D01*
X21802438Y23633333D02*
X21897676Y23538095D01*
X21897676Y23538095D02*
X21992914Y23490476D01*
X21992914Y23490476D02*
X22183390Y23442857D01*
X22183390Y23442857D02*
X22326247Y23442857D01*
X22326247Y23442857D02*
X22516723Y23490476D01*
X22516723Y23490476D02*
X22611961Y23538095D01*
X22611961Y23538095D02*
X22707200Y23633333D01*
X22707200Y23633333D02*
X22754819Y23776190D01*
X22754819Y23776190D02*
X22754819Y24014285D01*
X22183390Y22871428D02*
X22135771Y22966666D01*
X22135771Y22966666D02*
X22088152Y23014285D01*
X22088152Y23014285D02*
X21992914Y23061904D01*
X21992914Y23061904D02*
X21945295Y23061904D01*
X21945295Y23061904D02*
X21850057Y23014285D01*
X21850057Y23014285D02*
X21802438Y22966666D01*
X21802438Y22966666D02*
X21754819Y22871428D01*
X21754819Y22871428D02*
X21754819Y22680952D01*
X21754819Y22680952D02*
X21802438Y22585714D01*
X21802438Y22585714D02*
X21850057Y22538095D01*
X21850057Y22538095D02*
X21945295Y22490476D01*
X21945295Y22490476D02*
X21992914Y22490476D01*
X21992914Y22490476D02*
X22088152Y22538095D01*
X22088152Y22538095D02*
X22135771Y22585714D01*
X22135771Y22585714D02*
X22183390Y22680952D01*
X22183390Y22680952D02*
X22183390Y22871428D01*
X22183390Y22871428D02*
X22231009Y22966666D01*
X22231009Y22966666D02*
X22278628Y23014285D01*
X22278628Y23014285D02*
X22373866Y23061904D01*
X22373866Y23061904D02*
X22564342Y23061904D01*
X22564342Y23061904D02*
X22659580Y23014285D01*
X22659580Y23014285D02*
X22707200Y22966666D01*
X22707200Y22966666D02*
X22754819Y22871428D01*
X22754819Y22871428D02*
X22754819Y22680952D01*
X22754819Y22680952D02*
X22707200Y22585714D01*
X22707200Y22585714D02*
X22659580Y22538095D01*
X22659580Y22538095D02*
X22564342Y22490476D01*
X22564342Y22490476D02*
X22373866Y22490476D01*
X22373866Y22490476D02*
X22278628Y22538095D01*
X22278628Y22538095D02*
X22231009Y22585714D01*
X22231009Y22585714D02*
X22183390Y22680952D01*
X35642857Y58445181D02*
X35976190Y58921372D01*
X36214285Y58445181D02*
X36214285Y59445181D01*
X36214285Y59445181D02*
X35833333Y59445181D01*
X35833333Y59445181D02*
X35738095Y59397562D01*
X35738095Y59397562D02*
X35690476Y59349943D01*
X35690476Y59349943D02*
X35642857Y59254705D01*
X35642857Y59254705D02*
X35642857Y59111848D01*
X35642857Y59111848D02*
X35690476Y59016610D01*
X35690476Y59016610D02*
X35738095Y58968991D01*
X35738095Y58968991D02*
X35833333Y58921372D01*
X35833333Y58921372D02*
X36214285Y58921372D01*
X35309523Y59445181D02*
X34690476Y59445181D01*
X34690476Y59445181D02*
X35023809Y59064229D01*
X35023809Y59064229D02*
X34880952Y59064229D01*
X34880952Y59064229D02*
X34785714Y59016610D01*
X34785714Y59016610D02*
X34738095Y58968991D01*
X34738095Y58968991D02*
X34690476Y58873753D01*
X34690476Y58873753D02*
X34690476Y58635658D01*
X34690476Y58635658D02*
X34738095Y58540420D01*
X34738095Y58540420D02*
X34785714Y58492800D01*
X34785714Y58492800D02*
X34880952Y58445181D01*
X34880952Y58445181D02*
X35166666Y58445181D01*
X35166666Y58445181D02*
X35261904Y58492800D01*
X35261904Y58492800D02*
X35309523Y58540420D01*
X34214285Y58445181D02*
X34023809Y58445181D01*
X34023809Y58445181D02*
X33928571Y58492800D01*
X33928571Y58492800D02*
X33880952Y58540420D01*
X33880952Y58540420D02*
X33785714Y58683277D01*
X33785714Y58683277D02*
X33738095Y58873753D01*
X33738095Y58873753D02*
X33738095Y59254705D01*
X33738095Y59254705D02*
X33785714Y59349943D01*
X33785714Y59349943D02*
X33833333Y59397562D01*
X33833333Y59397562D02*
X33928571Y59445181D01*
X33928571Y59445181D02*
X34119047Y59445181D01*
X34119047Y59445181D02*
X34214285Y59397562D01*
X34214285Y59397562D02*
X34261904Y59349943D01*
X34261904Y59349943D02*
X34309523Y59254705D01*
X34309523Y59254705D02*
X34309523Y59016610D01*
X34309523Y59016610D02*
X34261904Y58921372D01*
X34261904Y58921372D02*
X34214285Y58873753D01*
X34214285Y58873753D02*
X34119047Y58826134D01*
X34119047Y58826134D02*
X33928571Y58826134D01*
X33928571Y58826134D02*
X33833333Y58873753D01*
X33833333Y58873753D02*
X33785714Y58921372D01*
X33785714Y58921372D02*
X33738095Y59016610D01*
X15542857Y61545181D02*
X15876190Y62021372D01*
X16114285Y61545181D02*
X16114285Y62545181D01*
X16114285Y62545181D02*
X15733333Y62545181D01*
X15733333Y62545181D02*
X15638095Y62497562D01*
X15638095Y62497562D02*
X15590476Y62449943D01*
X15590476Y62449943D02*
X15542857Y62354705D01*
X15542857Y62354705D02*
X15542857Y62211848D01*
X15542857Y62211848D02*
X15590476Y62116610D01*
X15590476Y62116610D02*
X15638095Y62068991D01*
X15638095Y62068991D02*
X15733333Y62021372D01*
X15733333Y62021372D02*
X16114285Y62021372D01*
X14590476Y61545181D02*
X15161904Y61545181D01*
X14876190Y61545181D02*
X14876190Y62545181D01*
X14876190Y62545181D02*
X14971428Y62402324D01*
X14971428Y62402324D02*
X15066666Y62307086D01*
X15066666Y62307086D02*
X15161904Y62259467D01*
X13733333Y62545181D02*
X13923809Y62545181D01*
X13923809Y62545181D02*
X14019047Y62497562D01*
X14019047Y62497562D02*
X14066666Y62449943D01*
X14066666Y62449943D02*
X14161904Y62307086D01*
X14161904Y62307086D02*
X14209523Y62116610D01*
X14209523Y62116610D02*
X14209523Y61735658D01*
X14209523Y61735658D02*
X14161904Y61640420D01*
X14161904Y61640420D02*
X14114285Y61592800D01*
X14114285Y61592800D02*
X14019047Y61545181D01*
X14019047Y61545181D02*
X13828571Y61545181D01*
X13828571Y61545181D02*
X13733333Y61592800D01*
X13733333Y61592800D02*
X13685714Y61640420D01*
X13685714Y61640420D02*
X13638095Y61735658D01*
X13638095Y61735658D02*
X13638095Y61973753D01*
X13638095Y61973753D02*
X13685714Y62068991D01*
X13685714Y62068991D02*
X13733333Y62116610D01*
X13733333Y62116610D02*
X13828571Y62164229D01*
X13828571Y62164229D02*
X14019047Y62164229D01*
X14019047Y62164229D02*
X14114285Y62116610D01*
X14114285Y62116610D02*
X14161904Y62068991D01*
X14161904Y62068991D02*
X14209523Y61973753D01*
X22854819Y28142858D02*
X22378628Y28476191D01*
X22854819Y28714286D02*
X21854819Y28714286D01*
X21854819Y28714286D02*
X21854819Y28333334D01*
X21854819Y28333334D02*
X21902438Y28238096D01*
X21902438Y28238096D02*
X21950057Y28190477D01*
X21950057Y28190477D02*
X22045295Y28142858D01*
X22045295Y28142858D02*
X22188152Y28142858D01*
X22188152Y28142858D02*
X22283390Y28190477D01*
X22283390Y28190477D02*
X22331009Y28238096D01*
X22331009Y28238096D02*
X22378628Y28333334D01*
X22378628Y28333334D02*
X22378628Y28714286D01*
X21950057Y27761905D02*
X21902438Y27714286D01*
X21902438Y27714286D02*
X21854819Y27619048D01*
X21854819Y27619048D02*
X21854819Y27380953D01*
X21854819Y27380953D02*
X21902438Y27285715D01*
X21902438Y27285715D02*
X21950057Y27238096D01*
X21950057Y27238096D02*
X22045295Y27190477D01*
X22045295Y27190477D02*
X22140533Y27190477D01*
X22140533Y27190477D02*
X22283390Y27238096D01*
X22283390Y27238096D02*
X22854819Y27809524D01*
X22854819Y27809524D02*
X22854819Y27190477D01*
X21950057Y26809524D02*
X21902438Y26761905D01*
X21902438Y26761905D02*
X21854819Y26666667D01*
X21854819Y26666667D02*
X21854819Y26428572D01*
X21854819Y26428572D02*
X21902438Y26333334D01*
X21902438Y26333334D02*
X21950057Y26285715D01*
X21950057Y26285715D02*
X22045295Y26238096D01*
X22045295Y26238096D02*
X22140533Y26238096D01*
X22140533Y26238096D02*
X22283390Y26285715D01*
X22283390Y26285715D02*
X22854819Y26857143D01*
X22854819Y26857143D02*
X22854819Y26238096D01*
X32654819Y16742858D02*
X32178628Y17076191D01*
X32654819Y17314286D02*
X31654819Y17314286D01*
X31654819Y17314286D02*
X31654819Y16933334D01*
X31654819Y16933334D02*
X31702438Y16838096D01*
X31702438Y16838096D02*
X31750057Y16790477D01*
X31750057Y16790477D02*
X31845295Y16742858D01*
X31845295Y16742858D02*
X31988152Y16742858D01*
X31988152Y16742858D02*
X32083390Y16790477D01*
X32083390Y16790477D02*
X32131009Y16838096D01*
X32131009Y16838096D02*
X32178628Y16933334D01*
X32178628Y16933334D02*
X32178628Y17314286D01*
X31750057Y16361905D02*
X31702438Y16314286D01*
X31702438Y16314286D02*
X31654819Y16219048D01*
X31654819Y16219048D02*
X31654819Y15980953D01*
X31654819Y15980953D02*
X31702438Y15885715D01*
X31702438Y15885715D02*
X31750057Y15838096D01*
X31750057Y15838096D02*
X31845295Y15790477D01*
X31845295Y15790477D02*
X31940533Y15790477D01*
X31940533Y15790477D02*
X32083390Y15838096D01*
X32083390Y15838096D02*
X32654819Y16409524D01*
X32654819Y16409524D02*
X32654819Y15790477D01*
X32654819Y14838096D02*
X32654819Y15409524D01*
X32654819Y15123810D02*
X31654819Y15123810D01*
X31654819Y15123810D02*
X31797676Y15219048D01*
X31797676Y15219048D02*
X31892914Y15314286D01*
X31892914Y15314286D02*
X31940533Y15409524D01*
X29938094Y57445181D02*
X29938094Y58445181D01*
X29938094Y58445181D02*
X29699999Y58445181D01*
X29699999Y58445181D02*
X29557142Y58397562D01*
X29557142Y58397562D02*
X29461904Y58302324D01*
X29461904Y58302324D02*
X29414285Y58207086D01*
X29414285Y58207086D02*
X29366666Y58016610D01*
X29366666Y58016610D02*
X29366666Y57873753D01*
X29366666Y57873753D02*
X29414285Y57683277D01*
X29414285Y57683277D02*
X29461904Y57588039D01*
X29461904Y57588039D02*
X29557142Y57492800D01*
X29557142Y57492800D02*
X29699999Y57445181D01*
X29699999Y57445181D02*
X29938094Y57445181D01*
X28414285Y57445181D02*
X28985713Y57445181D01*
X28699999Y57445181D02*
X28699999Y58445181D01*
X28699999Y58445181D02*
X28795237Y58302324D01*
X28795237Y58302324D02*
X28890475Y58207086D01*
X28890475Y58207086D02*
X28985713Y58159467D01*
X19554819Y28142858D02*
X19078628Y28476191D01*
X19554819Y28714286D02*
X18554819Y28714286D01*
X18554819Y28714286D02*
X18554819Y28333334D01*
X18554819Y28333334D02*
X18602438Y28238096D01*
X18602438Y28238096D02*
X18650057Y28190477D01*
X18650057Y28190477D02*
X18745295Y28142858D01*
X18745295Y28142858D02*
X18888152Y28142858D01*
X18888152Y28142858D02*
X18983390Y28190477D01*
X18983390Y28190477D02*
X19031009Y28238096D01*
X19031009Y28238096D02*
X19078628Y28333334D01*
X19078628Y28333334D02*
X19078628Y28714286D01*
X18554819Y27809524D02*
X18554819Y27190477D01*
X18554819Y27190477D02*
X18935771Y27523810D01*
X18935771Y27523810D02*
X18935771Y27380953D01*
X18935771Y27380953D02*
X18983390Y27285715D01*
X18983390Y27285715D02*
X19031009Y27238096D01*
X19031009Y27238096D02*
X19126247Y27190477D01*
X19126247Y27190477D02*
X19364342Y27190477D01*
X19364342Y27190477D02*
X19459580Y27238096D01*
X19459580Y27238096D02*
X19507200Y27285715D01*
X19507200Y27285715D02*
X19554819Y27380953D01*
X19554819Y27380953D02*
X19554819Y27666667D01*
X19554819Y27666667D02*
X19507200Y27761905D01*
X19507200Y27761905D02*
X19459580Y27809524D01*
X18554819Y26333334D02*
X18554819Y26523810D01*
X18554819Y26523810D02*
X18602438Y26619048D01*
X18602438Y26619048D02*
X18650057Y26666667D01*
X18650057Y26666667D02*
X18792914Y26761905D01*
X18792914Y26761905D02*
X18983390Y26809524D01*
X18983390Y26809524D02*
X19364342Y26809524D01*
X19364342Y26809524D02*
X19459580Y26761905D01*
X19459580Y26761905D02*
X19507200Y26714286D01*
X19507200Y26714286D02*
X19554819Y26619048D01*
X19554819Y26619048D02*
X19554819Y26428572D01*
X19554819Y26428572D02*
X19507200Y26333334D01*
X19507200Y26333334D02*
X19459580Y26285715D01*
X19459580Y26285715D02*
X19364342Y26238096D01*
X19364342Y26238096D02*
X19126247Y26238096D01*
X19126247Y26238096D02*
X19031009Y26285715D01*
X19031009Y26285715D02*
X18983390Y26333334D01*
X18983390Y26333334D02*
X18935771Y26428572D01*
X18935771Y26428572D02*
X18935771Y26619048D01*
X18935771Y26619048D02*
X18983390Y26714286D01*
X18983390Y26714286D02*
X19031009Y26761905D01*
X19031009Y26761905D02*
X19126247Y26809524D01*
X30054819Y35514286D02*
X29054819Y35514286D01*
X29054819Y35514286D02*
X29054819Y35276191D01*
X29054819Y35276191D02*
X29102438Y35133334D01*
X29102438Y35133334D02*
X29197676Y35038096D01*
X29197676Y35038096D02*
X29292914Y34990477D01*
X29292914Y34990477D02*
X29483390Y34942858D01*
X29483390Y34942858D02*
X29626247Y34942858D01*
X29626247Y34942858D02*
X29816723Y34990477D01*
X29816723Y34990477D02*
X29911961Y35038096D01*
X29911961Y35038096D02*
X30007200Y35133334D01*
X30007200Y35133334D02*
X30054819Y35276191D01*
X30054819Y35276191D02*
X30054819Y35514286D01*
X30054819Y33990477D02*
X30054819Y34561905D01*
X30054819Y34276191D02*
X29054819Y34276191D01*
X29054819Y34276191D02*
X29197676Y34371429D01*
X29197676Y34371429D02*
X29292914Y34466667D01*
X29292914Y34466667D02*
X29340533Y34561905D01*
X29150057Y33609524D02*
X29102438Y33561905D01*
X29102438Y33561905D02*
X29054819Y33466667D01*
X29054819Y33466667D02*
X29054819Y33228572D01*
X29054819Y33228572D02*
X29102438Y33133334D01*
X29102438Y33133334D02*
X29150057Y33085715D01*
X29150057Y33085715D02*
X29245295Y33038096D01*
X29245295Y33038096D02*
X29340533Y33038096D01*
X29340533Y33038096D02*
X29483390Y33085715D01*
X29483390Y33085715D02*
X30054819Y33657143D01*
X30054819Y33657143D02*
X30054819Y33038096D01*
X27454819Y16742858D02*
X26978628Y17076191D01*
X27454819Y17314286D02*
X26454819Y17314286D01*
X26454819Y17314286D02*
X26454819Y16933334D01*
X26454819Y16933334D02*
X26502438Y16838096D01*
X26502438Y16838096D02*
X26550057Y16790477D01*
X26550057Y16790477D02*
X26645295Y16742858D01*
X26645295Y16742858D02*
X26788152Y16742858D01*
X26788152Y16742858D02*
X26883390Y16790477D01*
X26883390Y16790477D02*
X26931009Y16838096D01*
X26931009Y16838096D02*
X26978628Y16933334D01*
X26978628Y16933334D02*
X26978628Y17314286D01*
X26550057Y16361905D02*
X26502438Y16314286D01*
X26502438Y16314286D02*
X26454819Y16219048D01*
X26454819Y16219048D02*
X26454819Y15980953D01*
X26454819Y15980953D02*
X26502438Y15885715D01*
X26502438Y15885715D02*
X26550057Y15838096D01*
X26550057Y15838096D02*
X26645295Y15790477D01*
X26645295Y15790477D02*
X26740533Y15790477D01*
X26740533Y15790477D02*
X26883390Y15838096D01*
X26883390Y15838096D02*
X27454819Y16409524D01*
X27454819Y16409524D02*
X27454819Y15790477D01*
X26454819Y14885715D02*
X26454819Y15361905D01*
X26454819Y15361905D02*
X26931009Y15409524D01*
X26931009Y15409524D02*
X26883390Y15361905D01*
X26883390Y15361905D02*
X26835771Y15266667D01*
X26835771Y15266667D02*
X26835771Y15028572D01*
X26835771Y15028572D02*
X26883390Y14933334D01*
X26883390Y14933334D02*
X26931009Y14885715D01*
X26931009Y14885715D02*
X27026247Y14838096D01*
X27026247Y14838096D02*
X27264342Y14838096D01*
X27264342Y14838096D02*
X27359580Y14885715D01*
X27359580Y14885715D02*
X27407200Y14933334D01*
X27407200Y14933334D02*
X27454819Y15028572D01*
X27454819Y15028572D02*
X27454819Y15266667D01*
X27454819Y15266667D02*
X27407200Y15361905D01*
X27407200Y15361905D02*
X27359580Y15409524D01*
D11*
%TO.C,R20*%
X117395000Y25473737D02*
X117395000Y24026263D01*
X120105000Y25473737D02*
X120105000Y24026263D01*
%TO.C,C54*%
X112640000Y25448752D02*
X112640000Y24026248D01*
X115360000Y25448752D02*
X115360000Y24026248D01*
%TO.C,C5*%
X78090000Y39461252D02*
X78090000Y38038748D01*
X79910000Y39461252D02*
X79910000Y38038748D01*
%TO.C,C4*%
X69910000Y38038748D02*
X69910000Y39461252D01*
X68090000Y38038748D02*
X68090000Y39461252D01*
%TO.C,C28*%
X117011252Y21310000D02*
X115588748Y21310000D01*
X117011252Y19490000D02*
X115588748Y19490000D01*
%TO.C,C30*%
X121590000Y38711252D02*
X121590000Y37288748D01*
X123410000Y38711252D02*
X123410000Y37288748D01*
%TO.C,C29*%
X113410000Y37288748D02*
X113410000Y38711252D01*
X111590000Y37288748D02*
X111590000Y38711252D01*
%TO.C,C3*%
X73211252Y21410000D02*
X71788748Y21410000D01*
X73211252Y19590000D02*
X71788748Y19590000D01*
%TO.C,R19*%
X73645000Y25473737D02*
X73645000Y24026263D01*
X76355000Y25473737D02*
X76355000Y24026263D01*
%TO.C,C53*%
X68890000Y25473752D02*
X68890000Y24051248D01*
X71610000Y25473752D02*
X71610000Y24051248D01*
%TO.C,R37*%
X35535000Y27272936D02*
X35535000Y27727064D01*
X34065000Y27272936D02*
X34065000Y27727064D01*
%TO.C,D6*%
X13160000Y57720000D02*
X13160000Y59130000D01*
X10840000Y57720000D02*
X10840000Y59130000D01*
X13160000Y59130000D02*
X12500000Y59130000D01*
X11500000Y59130000D02*
X10840000Y59130000D01*
X13470000Y57110000D02*
X13140000Y57350000D01*
X13470000Y57590000D01*
X13470000Y57110000D01*
G36*
X13470000Y57110000D02*
G01*
X13140000Y57350000D01*
X13470000Y57590000D01*
X13470000Y57110000D01*
G37*
%TO.C,D15*%
X33640000Y31580000D02*
X33640000Y30170000D01*
X35960000Y31580000D02*
X35960000Y30170000D01*
X33640000Y30170000D02*
X34300000Y30170000D01*
X35300000Y30170000D02*
X35960000Y30170000D01*
X33660000Y31950000D02*
X33330000Y31710000D01*
X33330000Y32190000D01*
X33660000Y31950000D01*
G36*
X33660000Y31950000D02*
G01*
X33330000Y31710000D01*
X33330000Y32190000D01*
X33660000Y31950000D01*
G37*
%TO.C,D11*%
X28440000Y23480000D02*
X28440000Y22070000D01*
X30760000Y23480000D02*
X30760000Y22070000D01*
X28440000Y22070000D02*
X29100000Y22070000D01*
X30100000Y22070000D02*
X30760000Y22070000D01*
X28460000Y23850000D02*
X28130000Y23610000D01*
X28130000Y24090000D01*
X28460000Y23850000D01*
G36*
X28460000Y23850000D02*
G01*
X28130000Y23610000D01*
X28130000Y24090000D01*
X28460000Y23850000D01*
G37*
%TO.C,D14*%
X25840000Y31580000D02*
X25840000Y30170000D01*
X28160000Y31580000D02*
X28160000Y30170000D01*
X25840000Y30170000D02*
X26500000Y30170000D01*
X27500000Y30170000D02*
X28160000Y30170000D01*
X25860000Y31950000D02*
X25530000Y31710000D01*
X25530000Y32190000D01*
X25860000Y31950000D01*
G36*
X25860000Y31950000D02*
G01*
X25530000Y31710000D01*
X25530000Y32190000D01*
X25860000Y31950000D01*
G37*
%TO.C,D10*%
X31040000Y31580000D02*
X31040000Y30170000D01*
X33360000Y31580000D02*
X33360000Y30170000D01*
X31040000Y30170000D02*
X31700000Y30170000D01*
X32700000Y30170000D02*
X33360000Y30170000D01*
X31060000Y31950000D02*
X30730000Y31710000D01*
X30730000Y32190000D01*
X31060000Y31950000D01*
G36*
X31060000Y31950000D02*
G01*
X30730000Y31710000D01*
X30730000Y32190000D01*
X31060000Y31950000D01*
G37*
%TO.C,D13*%
X25840000Y23480000D02*
X25840000Y22070000D01*
X28160000Y23480000D02*
X28160000Y22070000D01*
X25840000Y22070000D02*
X26500000Y22070000D01*
X27500000Y22070000D02*
X28160000Y22070000D01*
X25860000Y23850000D02*
X25530000Y23610000D01*
X25530000Y24090000D01*
X25860000Y23850000D01*
G36*
X25860000Y23850000D02*
G01*
X25530000Y23610000D01*
X25530000Y24090000D01*
X25860000Y23850000D01*
G37*
%TO.C,R23*%
X30335000Y19172936D02*
X30335000Y19627064D01*
X28865000Y19172936D02*
X28865000Y19627064D01*
%TO.C,D16*%
X33640000Y23480000D02*
X33640000Y22070000D01*
X35960000Y23480000D02*
X35960000Y22070000D01*
X33640000Y22070000D02*
X34300000Y22070000D01*
X35300000Y22070000D02*
X35960000Y22070000D01*
X33660000Y23850000D02*
X33330000Y23610000D01*
X33330000Y24090000D01*
X33660000Y23850000D01*
G36*
X33660000Y23850000D02*
G01*
X33330000Y23610000D01*
X33330000Y24090000D01*
X33660000Y23850000D01*
G37*
%TO.C,R38*%
X35535000Y19172936D02*
X35535000Y19627064D01*
X34065000Y19172936D02*
X34065000Y19627064D01*
%TO.C,R24*%
X30335000Y27272936D02*
X30335000Y27727064D01*
X28865000Y27272936D02*
X28865000Y27727064D01*
%TO.C,D8*%
X31040000Y23480000D02*
X31040000Y22070000D01*
X33360000Y23480000D02*
X33360000Y22070000D01*
X31040000Y22070000D02*
X31700000Y22070000D01*
X32700000Y22070000D02*
X33360000Y22070000D01*
X31060000Y23850000D02*
X30730000Y23610000D01*
X30730000Y24090000D01*
X31060000Y23850000D01*
G36*
X31060000Y23850000D02*
G01*
X30730000Y23610000D01*
X30730000Y24090000D01*
X31060000Y23850000D01*
G37*
%TO.C,R39*%
X34265000Y61827064D02*
X34265000Y61372936D01*
X35735000Y61827064D02*
X35735000Y61372936D01*
%TO.C,R16*%
X11265000Y62227064D02*
X11265000Y61772936D01*
X12735000Y62227064D02*
X12735000Y61772936D01*
%TO.C,R22*%
X32935000Y27272936D02*
X32935000Y27727064D01*
X31465000Y27272936D02*
X31465000Y27727064D01*
%TO.C,R21*%
X32935000Y19172936D02*
X32935000Y19627064D01*
X31465000Y19172936D02*
X31465000Y19627064D01*
%TO.C,D1*%
X28720000Y59340000D02*
X30130000Y59340000D01*
X28720000Y61660000D02*
X30130000Y61660000D01*
X30130000Y59340000D02*
X30130000Y60000000D01*
X30130000Y61000000D02*
X30130000Y61660000D01*
X28590000Y59030000D02*
X28110000Y59030000D01*
X28350000Y59360000D01*
X28590000Y59030000D01*
G36*
X28590000Y59030000D02*
G01*
X28110000Y59030000D01*
X28350000Y59360000D01*
X28590000Y59030000D01*
G37*
%TO.C,R36*%
X27735000Y27272936D02*
X27735000Y27727064D01*
X26265000Y27272936D02*
X26265000Y27727064D01*
%TO.C,D12*%
X28440000Y31580000D02*
X28440000Y30170000D01*
X30760000Y31580000D02*
X30760000Y30170000D01*
X28440000Y30170000D02*
X29100000Y30170000D01*
X30100000Y30170000D02*
X30760000Y30170000D01*
X28460000Y31950000D02*
X28130000Y31710000D01*
X28130000Y32190000D01*
X28460000Y31950000D01*
G36*
X28460000Y31950000D02*
G01*
X28130000Y31710000D01*
X28130000Y32190000D01*
X28460000Y31950000D01*
G37*
%TO.C,R25*%
X27735000Y19172936D02*
X27735000Y19627064D01*
X26265000Y19172936D02*
X26265000Y19627064D01*
%TD*%
M02*
