M48
; DRILL file {KiCad 9.0.6} date 2026-01-16T18:41:00-0500
; FORMAT={-:-/ absolute / metric / decimal}
; #@! TF.CreationDate,2026-01-16T18:41:00-05:00
; #@! TF.GenerationSoftware,Kicad,Pcbnew,9.0.6
; #@! TF.FileFunction,Plated,1,4,PTH
FMAT,2
METRIC
; #@! TA.AperFunction,Plated,PTH,ViaDrill
T1C0.300
; #@! TA.AperFunction,Plated,PTH,ComponentDrill
T2C0.300
; #@! TA.AperFunction,Plated,PTH,ViaDrill
T3C0.400
; #@! TA.AperFunction,Plated,PTH,ComponentDrill
T4C0.500
; #@! TA.AperFunction,Plated,PTH,ComponentDrill
T5C0.600
; #@! TA.AperFunction,Plated,PTH,ComponentDrill
T6C0.762
; #@! TA.AperFunction,Plated,PTH,ComponentDrill
T7C0.890
; #@! TA.AperFunction,Plated,PTH,ComponentDrill
T8C0.900
; #@! TA.AperFunction,Plated,PTH,ComponentDrill
T9C0.990
; #@! TA.AperFunction,Plated,PTH,ComponentDrill
T10C1.000
; #@! TA.AperFunction,Plated,PTH,ComponentDrill
T11C1.100
; #@! TA.AperFunction,Plated,PTH,ComponentDrill
T12C1.300
; #@! TA.AperFunction,Plated,PTH,ComponentDrill
T13C1.350
; #@! TA.AperFunction,Plated,PTH,ComponentDrill
T14C1.500
; #@! TA.AperFunction,Plated,PTH,ComponentDrill
T15C2.010
%
G90
G05
T1
X1.591Y32.387
X1.691Y39.637
X1.691Y25.487
X2.541Y47.188
X3.341Y61.287
X3.591Y9.856
X5.6Y17.0
X6.341Y40.987
X7.46Y49.3
X7.741Y36.288
X7.8Y14.8
X8.241Y37.288
X8.241Y34.688
X8.341Y35.7
X8.441Y41.188
X8.641Y39.837
X8.891Y39.087
X9.041Y34.538
X9.341Y38.188
X9.35Y37.188
X9.614Y34.114
X9.741Y31.667
X10.03Y41.226
X10.241Y33.688
X11.1Y26.45
X11.341Y30.817
X11.591Y50.537
X11.841Y37.288
X11.891Y38.237
X11.891Y21.537
X11.941Y45.387
X12.03Y17.74
X12.331Y41.777
X12.341Y26.887
X12.741Y33.137
X12.891Y43.637
X13.691Y31.438
X13.691Y30.537
X13.87Y10.45
X14.741Y46.887
X14.941Y43.737
X15.041Y48.487
X15.141Y53.137
X15.541Y33.438
X15.7Y35.2
X15.7Y22.6
X15.741Y37.288
X16.141Y50.987
X16.19Y30.9
X16.19Y30.3
X16.541Y19.137
X16.641Y46.987
X16.87Y44.487
X17.091Y17.137
X17.4Y39.8
X17.73Y31.73
X17.77Y9.8
X17.8Y33.3
X17.98Y29.28
X18.229Y20.188
X18.497Y33.451
X18.523Y23.922
X18.891Y43.487
X18.991Y23.037
X19.541Y46.087
X19.766Y28.762
X19.791Y43.487
X20.041Y24.837
X20.241Y54.387
X20.241Y18.438
X20.3Y37.3
X20.541Y31.587
X20.6Y43.788
X20.841Y52.688
X20.841Y46.387
X21.091Y22.037
X21.141Y49.287
X21.18Y34.037
X21.441Y29.287
X21.466Y27.912
X21.591Y33.397
X21.62Y10.5
X21.791Y62.938
X22.091Y23.188
X22.441Y45.087
X22.541Y49.987
X22.691Y21.587
X22.841Y54.387
X22.841Y43.087
X22.841Y30.487
X23.079Y18.767
X23.141Y17.137
X23.145Y47.854
X23.641Y10.487
X23.741Y31.987
X23.941Y37.288
X23.98Y39.3
X24.041Y26.587
X24.591Y35.288
X24.841Y16.137
X25.441Y17.787
X25.841Y27.487
X25.991Y54.537
X26.441Y29.287
X26.691Y37.288
X27.041Y46.788
X27.191Y35.038
X27.441Y39.337
X29.641Y32.188
X29.691Y35.487
X29.941Y38.587
X31.7Y6.0
X31.741Y43.038
X31.841Y36.887
X36.841Y54.037
X37.091Y44.137
X38.241Y20.488
X38.641Y21.688
X40.441Y17.387
X42.741Y17.387
X46.241Y16.587
X46.541Y17.387
X46.7Y7.1
X47.8Y7.7
X49.0Y10.2
X49.194Y17.387
X49.341Y15.987
X54.475Y17.188
X55.741Y17.188
X58.041Y16.488
X62.141Y17.087
X66.941Y16.887
X74.441Y17.188
X75.041Y8.088
X76.941Y10.387
X87.7Y12.4
X88.625Y16.896
X89.141Y15.787
X91.377Y13.223
X97.941Y3.287
X99.302Y14.198
X100.841Y13.837
X102.35Y14.564
X103.602Y16.469
X110.891Y6.387
T2
X16.55Y38.95
X16.55Y37.5
X16.55Y36.05
X18.0Y38.95
X18.0Y37.5
X18.0Y36.05
X19.45Y38.95
X19.45Y37.5
X19.45Y36.05
T3
X2.241Y76.787
X6.441Y3.188
X8.55Y13.469
X8.55Y12.269
X12.241Y8.117
X23.761Y7.037
X23.841Y70.188
X24.911Y7.037
X36.991Y63.337
X40.1Y77.4
X40.535Y18.613
X40.581Y28.219
X41.041Y65.287
X41.7Y61.1
X41.88Y40.98
X42.769Y39.075
X46.4Y35.6
X46.8Y41.8
X46.9Y59.1
X47.45Y39.25
X48.0Y53.25
X49.052Y34.951
X49.25Y48.0
X49.5Y29.9
X50.25Y36.1
X51.641Y18.087
X51.8Y35.9
X52.2Y28.3
X52.294Y31.582
X53.2Y15.9
X53.8Y59.1
X54.4Y40.6
X54.525Y53.225
X54.9Y45.0
X56.6Y59.0
X57.9Y35.9
X58.0Y34.0
X59.4Y48.6
X59.8Y40.6
X60.5Y39.25
X60.7Y41.8
X61.15Y53.25
X64.641Y21.387
X65.0Y47.2
X66.2Y51.614
X67.0Y37.2
X67.619Y52.294
X68.0Y60.8
X68.1Y44.7
X69.6Y51.3
X69.6Y49.2
X69.7Y56.1
X72.5Y26.25
X72.591Y3.737
X74.041Y3.737
X74.064Y60.664
X74.1Y58.7
X74.1Y52.0
X75.3Y54.3
X80.6Y51.9
X83.041Y16.787
X84.6Y18.85
X84.9Y28.4
X85.855Y6.587
X86.7Y43.1
X86.95Y39.25
X88.6Y34.9
X91.45Y42.025
X91.5Y39.15
X91.7Y59.75
X92.6Y54.0
X93.7Y29.7
X93.7Y16.9
X94.4Y48.7
X95.05Y35.55
X95.691Y16.688
X96.601Y36.1
X97.2Y18.8
X97.25Y40.95
X97.3Y28.1
X97.5Y31.5
X98.25Y59.75
X99.55Y53.65
X99.7Y40.95
X101.5Y60.0
X102.6Y36.1
X103.0Y34.0
X104.85Y40.95
X105.8Y42.025
X105.8Y39.15
X106.0Y49.0
X106.25Y54.45
X108.091Y16.887
X110.3Y48.0
X110.4Y43.3
X110.422Y37.297
X111.65Y52.15
X112.425Y53.5
X112.6Y61.0
X113.75Y56.25
X114.3Y51.1
X114.3Y48.9
X116.25Y26.25
X118.573Y60.873
X118.6Y52.6
X118.75Y58.65
X119.5Y54.45
X124.9Y51.3
X125.491Y2.038
T4
X41.3Y44.3
X43.8Y43.2
X44.2Y32.0
X46.85Y62.35
X49.7Y31.5
X51.1Y63.6
X54.707Y31.582
X55.8Y33.6
X57.95Y63.6
X59.1Y31.6
X62.7Y31.5
X63.65Y46.1
X64.85Y62.0
X69.4Y62.1
X73.85Y31.75
X79.2Y48.9
X80.95Y57.4
X85.7Y44.65
X88.65Y43.75
X89.95Y31.2
X91.7Y62.55
X94.6Y31.1
X97.35Y63.6
X99.75Y31.6
X101.15Y33.4
X103.9Y31.35
X104.1Y63.6
X108.0Y31.2
X108.65Y46.9
X109.3Y62.2
X114.05Y62.1
X117.65Y30.9
X123.4Y48.6
X125.45Y57.25
T6
X68.67Y42.7
X68.67Y19.7
X71.21Y42.7
X76.29Y42.7
X76.29Y19.7
X78.83Y42.7
X78.83Y19.7
X112.42Y42.0
X112.42Y19.0
X114.96Y42.0
X120.04Y42.0
X120.04Y19.0
X122.58Y42.0
X122.58Y19.0
T7
X9.46Y66.5
X12.0Y66.5
X32.46Y66.5
X35.0Y66.5
X71.46Y66.5
X74.0Y66.5
X114.46Y66.5
X117.0Y66.5
T8
X87.73Y4.0
X90.23Y4.0
X106.73Y4.0
X109.23Y4.0
X114.73Y4.0
X117.23Y4.0
T9
X27.9Y3.012
X32.4Y3.012
T10
X51.11Y10.0
X51.11Y7.46
X53.65Y10.0
X53.65Y7.46
X56.19Y10.0
X56.19Y7.46
X58.73Y10.0
X58.73Y7.46
X61.27Y10.0
X61.27Y7.46
X63.81Y10.0
X63.81Y7.46
X66.35Y10.0
X66.35Y7.46
X68.89Y10.0
X68.89Y7.46
T11
X57.96Y74.0
X57.96Y68.92
X60.5Y74.0
X60.5Y68.92
X100.96Y74.0
X100.96Y68.92
X103.5Y74.0
X103.5Y68.92
T12
X26.64Y5.502
X33.65Y5.502
T13
X36.825Y2.312
X41.575Y2.312
T14
X65.75Y40.2
X81.75Y22.2
X109.5Y39.5
X125.5Y21.5
T15
X6.92Y71.58
X17.08Y71.58
X29.92Y71.58
X40.08Y71.58
X68.92Y71.58
X79.08Y71.58
X111.92Y71.58
X122.08Y71.58
T5
G00X13.68Y6.365
M15
G01X13.68Y5.265
M16
G05
G00X13.68Y2.035
M15
G01X13.68Y1.235
M16
G05
G00X22.32Y6.365
M15
G01X22.32Y5.265
M16
G05
G00X22.32Y2.035
M15
G01X22.32Y1.235
M16
G05
M30
