%TF.GenerationSoftware,KiCad,Pcbnew,9.0.6*%
%TF.CreationDate,2026-01-20T12:08:31-05:00*%
%TF.ProjectId,stimjim,7374696d-6a69-46d2-9e6b-696361645f70,B*%
%TF.SameCoordinates,PX8c30ac0PYa037a00*%
%TF.FileFunction,Paste,Top*%
%TF.FilePolarity,Positive*%
%FSLAX46Y46*%
G04 Gerber Fmt 4.6, Leading zero omitted, Abs format (unit mm)*
G04 Created by KiCad (PCBNEW 9.0.6) date 2026-01-20 12:08:31*
%MOMM*%
%LPD*%
G01*
G04 APERTURE LIST*
G04 Aperture macros list*
%AMRoundRect*
0 Rectangle with rounded corners*
0 $1 Rounding radius*
0 $2 $3 $4 $5 $6 $7 $8 $9 X,Y pos of 4 corners*
0 Add a 4 corners polygon primitive as box body*
4,1,4,$2,$3,$4,$5,$6,$7,$8,$9,$2,$3,0*
0 Add four circle primitives for the rounded corners*
1,1,$1+$1,$2,$3*
1,1,$1+$1,$4,$5*
1,1,$1+$1,$6,$7*
1,1,$1+$1,$8,$9*
0 Add four rect primitives between the rounded corners*
20,1,$1+$1,$2,$3,$4,$5,0*
20,1,$1+$1,$4,$5,$6,$7,0*
20,1,$1+$1,$6,$7,$8,$9,0*
20,1,$1+$1,$8,$9,$2,$3,0*%
G04 Aperture macros list end*
%ADD10C,0.000000*%
%ADD11RoundRect,0.132500X0.132500X0.132500X-0.132500X0.132500X-0.132500X-0.132500X0.132500X-0.132500X0*%
%ADD12RoundRect,0.050000X0.350000X0.050000X-0.350000X0.050000X-0.350000X-0.050000X0.350000X-0.050000X0*%
%ADD13RoundRect,0.050000X0.050000X0.350000X-0.050000X0.350000X-0.050000X-0.350000X0.050000X-0.350000X0*%
%ADD14RoundRect,0.150000X0.150000X-0.825000X0.150000X0.825000X-0.150000X0.825000X-0.150000X-0.825000X0*%
%ADD15RoundRect,0.225000X-0.225000X-0.250000X0.225000X-0.250000X0.225000X0.250000X-0.225000X0.250000X0*%
%ADD16RoundRect,0.200000X0.275000X-0.200000X0.275000X0.200000X-0.275000X0.200000X-0.275000X-0.200000X0*%
%ADD17RoundRect,0.200000X-0.200000X-0.275000X0.200000X-0.275000X0.200000X0.275000X-0.200000X0.275000X0*%
%ADD18RoundRect,0.225000X0.250000X-0.225000X0.250000X0.225000X-0.250000X0.225000X-0.250000X-0.225000X0*%
%ADD19RoundRect,0.225000X-0.250000X0.225000X-0.250000X-0.225000X0.250000X-0.225000X0.250000X0.225000X0*%
%ADD20RoundRect,0.150000X0.150000X-0.875000X0.150000X0.875000X-0.150000X0.875000X-0.150000X-0.875000X0*%
%ADD21RoundRect,0.150000X0.825000X0.150000X-0.825000X0.150000X-0.825000X-0.150000X0.825000X-0.150000X0*%
%ADD22RoundRect,0.150000X-0.150000X0.587500X-0.150000X-0.587500X0.150000X-0.587500X0.150000X0.587500X0*%
%ADD23RoundRect,0.100000X0.100000X-0.637500X0.100000X0.637500X-0.100000X0.637500X-0.100000X-0.637500X0*%
%ADD24RoundRect,0.225000X0.225000X0.250000X-0.225000X0.250000X-0.225000X-0.250000X0.225000X-0.250000X0*%
%ADD25RoundRect,0.200000X0.200000X0.275000X-0.200000X0.275000X-0.200000X-0.275000X0.200000X-0.275000X0*%
%ADD26RoundRect,0.150000X-0.150000X0.825000X-0.150000X-0.825000X0.150000X-0.825000X0.150000X0.825000X0*%
%ADD27RoundRect,0.200000X-0.275000X0.200000X-0.275000X-0.200000X0.275000X-0.200000X0.275000X0.200000X0*%
%ADD28RoundRect,0.150000X0.725000X0.150000X-0.725000X0.150000X-0.725000X-0.150000X0.725000X-0.150000X0*%
%ADD29RoundRect,0.140000X-0.170000X0.140000X-0.170000X-0.140000X0.170000X-0.140000X0.170000X0.140000X0*%
%ADD30RoundRect,0.150000X-0.512500X-0.150000X0.512500X-0.150000X0.512500X0.150000X-0.512500X0.150000X0*%
%ADD31RoundRect,0.140000X-0.140000X-0.170000X0.140000X-0.170000X0.140000X0.170000X-0.140000X0.170000X0*%
%ADD32RoundRect,0.135000X-0.185000X0.135000X-0.185000X-0.135000X0.185000X-0.135000X0.185000X0.135000X0*%
%ADD33RoundRect,0.135000X-0.135000X-0.185000X0.135000X-0.185000X0.135000X0.185000X-0.135000X0.185000X0*%
%ADD34R,1.400000X1.200000*%
%ADD35RoundRect,0.140000X0.170000X-0.140000X0.170000X0.140000X-0.170000X0.140000X-0.170000X-0.140000X0*%
%ADD36RoundRect,0.140000X0.140000X0.170000X-0.140000X0.170000X-0.140000X-0.170000X0.140000X-0.170000X0*%
%ADD37RoundRect,0.150000X0.625000X-0.150000X0.625000X0.150000X-0.625000X0.150000X-0.625000X-0.150000X0*%
%ADD38RoundRect,0.250000X0.650000X-0.350000X0.650000X0.350000X-0.650000X0.350000X-0.650000X-0.350000X0*%
%ADD39R,1.000000X1.600000*%
%ADD40RoundRect,0.162500X0.650000X0.162500X-0.650000X0.162500X-0.650000X-0.162500X0.650000X-0.162500X0*%
%ADD41R,1.000000X3.150000*%
%ADD42RoundRect,0.075000X-0.075000X-0.200000X0.075000X-0.200000X0.075000X0.200000X-0.075000X0.200000X0*%
%ADD43RoundRect,0.250000X0.400000X-0.525000X0.400000X0.525000X-0.400000X0.525000X-0.400000X-0.525000X0*%
%ADD44RoundRect,0.150000X-0.150000X-0.425000X0.150000X-0.425000X0.150000X0.425000X-0.150000X0.425000X0*%
%ADD45RoundRect,0.075000X-0.075000X-0.500000X0.075000X-0.500000X0.075000X0.500000X-0.075000X0.500000X0*%
%ADD46O,1.000000X2.100000*%
%ADD47O,1.000000X1.800000*%
%ADD48RoundRect,0.135000X0.135000X0.185000X-0.135000X0.185000X-0.135000X-0.185000X0.135000X-0.185000X0*%
G04 APERTURE END LIST*
D10*
%TO.C,N1*%
G36*
X42750000Y2487500D02*
G01*
X42050001Y2487498D01*
G75*
G03*
X40700000Y2487500I-675001J-174998D01*
G01*
X37299998Y2487500D01*
G75*
G03*
X35950000Y2487498I-674998J-175000D01*
G01*
X35249999Y2487500D01*
X35249999Y4612500D01*
X42750000Y4612500D01*
X42750000Y2487500D01*
G37*
G36*
X42750001Y2137500D02*
G01*
X42750001Y12500D01*
X35250000Y12500D01*
X35250000Y2137500D01*
X35949999Y2137502D01*
G75*
G03*
X37300000Y2137500I675001J174998D01*
G01*
X40700002Y2137500D01*
G75*
G03*
X42050000Y2137502I674998J175000D01*
G01*
X42750001Y2137500D01*
G37*
%TD*%
D11*
%TO.C,U24*%
X19360000Y36140000D03*
X19360000Y36820000D03*
X19360000Y37500000D03*
X19360000Y38180000D03*
X19360000Y38860000D03*
X18680000Y36140000D03*
X18680000Y36820000D03*
X18680000Y37500000D03*
X18680000Y38180000D03*
X18680000Y38860000D03*
X18000000Y36140000D03*
X18000000Y36820000D03*
X18000000Y37500000D03*
X18000000Y38180000D03*
X18000000Y38860000D03*
X17320000Y36140000D03*
X17320000Y36820000D03*
X17320000Y37500000D03*
X17320000Y38180000D03*
X17320000Y38860000D03*
X16640000Y36140000D03*
X16640000Y36820000D03*
X16640000Y37500000D03*
X16640000Y38180000D03*
X16640000Y38860000D03*
D12*
X22950000Y33700000D03*
X22950000Y34100000D03*
X22950000Y34500000D03*
X22950000Y34900000D03*
X22950000Y35300000D03*
X22950000Y35700000D03*
X22950000Y36100000D03*
X22950000Y36500000D03*
X22950000Y36900000D03*
X22950000Y37300000D03*
X22950000Y37700000D03*
X22950000Y38100000D03*
X22950000Y38500000D03*
X22950000Y38900000D03*
X22950000Y39300000D03*
X22950000Y39700000D03*
X22950000Y40100000D03*
X22950000Y40500000D03*
X22950000Y40900000D03*
X22950000Y41300000D03*
D13*
X21800000Y42450000D03*
X21400000Y42450000D03*
X21000000Y42450000D03*
X20600000Y42450000D03*
X20200000Y42450000D03*
X19800000Y42450000D03*
X19400000Y42450000D03*
X19000000Y42450000D03*
X18600000Y42450000D03*
X18200000Y42450000D03*
X17800000Y42450000D03*
X17400000Y42450000D03*
X17000000Y42450000D03*
X16600000Y42450000D03*
X16200000Y42450000D03*
X15800000Y42450000D03*
X15400000Y42450000D03*
X15000000Y42450000D03*
X14600000Y42450000D03*
X14200000Y42450000D03*
D12*
X13050000Y41300000D03*
X13050000Y40900000D03*
X13050000Y40500000D03*
X13050000Y40100000D03*
X13050000Y39700000D03*
X13050000Y39300000D03*
X13050000Y38900000D03*
X13050000Y38500000D03*
X13050000Y38100000D03*
X13050000Y37700000D03*
X13050000Y37300000D03*
X13050000Y36900000D03*
X13050000Y36500000D03*
X13050000Y36100000D03*
X13050000Y35700000D03*
X13050000Y35300000D03*
X13050000Y34900000D03*
X13050000Y34500000D03*
X13050000Y34100000D03*
X13050000Y33700000D03*
D13*
X14200000Y32550000D03*
X14600000Y32550000D03*
X15000000Y32550000D03*
X15400000Y32550000D03*
X15800000Y32550000D03*
X16200000Y32550000D03*
X16600000Y32550000D03*
X17000000Y32550000D03*
X17400000Y32550000D03*
X17800000Y32550000D03*
X18200000Y32550000D03*
X18600000Y32550000D03*
X19000000Y32550000D03*
X19400000Y32550000D03*
X19800000Y32550000D03*
X20200000Y32550000D03*
X20600000Y32550000D03*
X21000000Y32550000D03*
X21400000Y32550000D03*
X21800000Y32550000D03*
%TD*%
D14*
%TO.C,U21*%
X95691528Y52193064D03*
X96961528Y52193064D03*
X98231528Y52193064D03*
X99501528Y52193064D03*
X99501528Y57143064D03*
X98231528Y57143064D03*
X96961528Y57143064D03*
X95691528Y57143064D03*
%TD*%
D15*
%TO.C,C43*%
X88562500Y59650000D03*
X90112500Y59650000D03*
%TD*%
D16*
%TO.C,R11*%
X101558928Y53792264D03*
X101558928Y55442264D03*
%TD*%
D15*
%TO.C,C44*%
X92825000Y49900000D03*
X94375000Y49900000D03*
%TD*%
%TO.C,C20*%
X48125000Y49300000D03*
X49675000Y49300000D03*
%TD*%
D17*
%TO.C,R15*%
X23245000Y19400000D03*
X24895000Y19400000D03*
%TD*%
D15*
%TO.C,C18*%
X43925000Y58800000D03*
X45475000Y58800000D03*
%TD*%
D18*
%TO.C,C41*%
X105975000Y45475000D03*
X105975000Y47025000D03*
%TD*%
D19*
%TO.C,C39*%
X98400000Y46675000D03*
X98400000Y45125000D03*
%TD*%
D20*
%TO.C,U14*%
X98555000Y18850000D03*
X99825000Y18850000D03*
X101095000Y18850000D03*
X102365000Y18850000D03*
X103635000Y18850000D03*
X104905000Y18850000D03*
X106175000Y18850000D03*
X107445000Y18850000D03*
X107445000Y28150000D03*
X106175000Y28150000D03*
X104905000Y28150000D03*
X103635000Y28150000D03*
X102365000Y28150000D03*
X101095000Y28150000D03*
X99825000Y28150000D03*
X98555000Y28150000D03*
%TD*%
D19*
%TO.C,C34*%
X106550000Y35575000D03*
X106550000Y34025000D03*
%TD*%
D15*
%TO.C,C32*%
X96490000Y30312000D03*
X98040000Y30312000D03*
%TD*%
D21*
%TO.C,U16*%
X120975000Y44595000D03*
X120975000Y45865000D03*
X120975000Y47135000D03*
X120975000Y48405000D03*
X116025000Y48405000D03*
X116025000Y47135000D03*
X116025000Y45865000D03*
X116025000Y44595000D03*
%TD*%
D20*
%TO.C,U15*%
X86055000Y18850000D03*
X87325000Y18850000D03*
X88595000Y18850000D03*
X89865000Y18850000D03*
X91135000Y18850000D03*
X92405000Y18850000D03*
X93675000Y18850000D03*
X94945000Y18850000D03*
X94945000Y28150000D03*
X93675000Y28150000D03*
X92405000Y28150000D03*
X91135000Y28150000D03*
X89865000Y28150000D03*
X88595000Y28150000D03*
X87325000Y28150000D03*
X86055000Y28150000D03*
%TD*%
D14*
%TO.C,U10*%
X50741170Y51689694D03*
X52011170Y51689694D03*
X53281170Y51689694D03*
X54551170Y51689694D03*
X54551170Y56639694D03*
X53281170Y56639694D03*
X52011170Y56639694D03*
X50741170Y56639694D03*
%TD*%
D22*
%TO.C,U8*%
X44849170Y40980000D03*
X42949170Y40980000D03*
X43899170Y39105000D03*
%TD*%
D23*
%TO.C,U17*%
X91326400Y37658395D03*
X91976400Y37658395D03*
X92626400Y37658395D03*
X93276400Y37658395D03*
X93926400Y37658395D03*
X94576400Y37658395D03*
X95226400Y37658395D03*
X95876400Y37658395D03*
X96526400Y37658395D03*
X97176400Y37658395D03*
X97826400Y37658395D03*
X98476400Y37658395D03*
X98476400Y43383395D03*
X97826400Y43383395D03*
X97176400Y43383395D03*
X96526400Y43383395D03*
X95876400Y43383395D03*
X95226400Y43383395D03*
X94576400Y43383395D03*
X93926400Y43383395D03*
X93276400Y43383395D03*
X92626400Y43383395D03*
X91976400Y43383395D03*
X91326400Y43383395D03*
%TD*%
D17*
%TO.C,R1*%
X43875000Y49300000D03*
X45525000Y49300000D03*
%TD*%
D18*
%TO.C,C35*%
X89600000Y36014000D03*
X89600000Y37564000D03*
%TD*%
D20*
%TO.C,U4*%
X41574176Y18918905D03*
X42844176Y18918905D03*
X44114176Y18918905D03*
X45384176Y18918905D03*
X46654176Y18918905D03*
X47924176Y18918905D03*
X49194176Y18918905D03*
X50464176Y18918905D03*
X50464176Y28218905D03*
X49194176Y28218905D03*
X47924176Y28218905D03*
X46654176Y28218905D03*
X45384176Y28218905D03*
X44114176Y28218905D03*
X42844176Y28218905D03*
X41574176Y28218905D03*
%TD*%
D19*
%TO.C,C10*%
X59700000Y35575000D03*
X59700000Y34025000D03*
%TD*%
D21*
%TO.C,U5*%
X76675000Y45130000D03*
X76675000Y46400000D03*
X76675000Y47670000D03*
X76675000Y48940000D03*
X71725000Y48940000D03*
X71725000Y47670000D03*
X71725000Y46400000D03*
X71725000Y45130000D03*
%TD*%
D18*
%TO.C,C42*%
X104300000Y45475000D03*
X104300000Y47025000D03*
%TD*%
D19*
%TO.C,C40*%
X95900000Y46675000D03*
X95900000Y45125000D03*
%TD*%
%TO.C,C33*%
X113525000Y46125000D03*
X113525000Y44575000D03*
%TD*%
D23*
%TO.C,U18*%
X102550000Y37637500D03*
X103200000Y37637500D03*
X103850000Y37637500D03*
X104500000Y37637500D03*
X105150000Y37637500D03*
X105800000Y37637500D03*
X106450000Y37637500D03*
X106450000Y43362500D03*
X105800000Y43362500D03*
X105150000Y43362500D03*
X104500000Y43362500D03*
X103850000Y43362500D03*
X103200000Y43362500D03*
X102550000Y43362500D03*
%TD*%
D24*
%TO.C,C38*%
X92875000Y45200000D03*
X91325000Y45200000D03*
%TD*%
D15*
%TO.C,C31*%
X85950000Y30250000D03*
X87500000Y30250000D03*
%TD*%
D18*
%TO.C,C11*%
X44900000Y35725000D03*
X44900000Y37275000D03*
%TD*%
D25*
%TO.C,R2*%
X53325000Y48500000D03*
X51675000Y48500000D03*
%TD*%
D15*
%TO.C,C6*%
X41359000Y30312000D03*
X42909000Y30312000D03*
%TD*%
D18*
%TO.C,C52*%
X87600000Y36014000D03*
X87600000Y37564000D03*
%TD*%
D24*
%TO.C,C13*%
X48075000Y45100000D03*
X46525000Y45100000D03*
%TD*%
D22*
%TO.C,U19*%
X89750000Y41237500D03*
X87850000Y41237500D03*
X88800000Y39362500D03*
%TD*%
D15*
%TO.C,C19*%
X50437500Y58900000D03*
X51987500Y58900000D03*
%TD*%
D18*
%TO.C,C17*%
X59400000Y45625000D03*
X59400000Y47175000D03*
%TD*%
D17*
%TO.C,R13*%
X107175000Y59800000D03*
X108825000Y59800000D03*
%TD*%
D16*
%TO.C,R10*%
X86600000Y54075000D03*
X86600000Y55725000D03*
%TD*%
D24*
%TO.C,C47*%
X124828325Y54395998D03*
X123278325Y54395998D03*
%TD*%
D18*
%TO.C,C50*%
X113639325Y52858998D03*
X113639325Y54408998D03*
%TD*%
D19*
%TO.C,C8*%
X69500000Y46675000D03*
X69500000Y45125000D03*
%TD*%
D24*
%TO.C,C22*%
X80575000Y54300000D03*
X79025000Y54300000D03*
%TD*%
D16*
%TO.C,R4*%
X56700000Y53475000D03*
X56700000Y55125000D03*
%TD*%
D18*
%TO.C,C24*%
X59300000Y50125000D03*
X59300000Y51675000D03*
%TD*%
D19*
%TO.C,C21*%
X56300000Y51475000D03*
X56300000Y49925000D03*
%TD*%
D25*
%TO.C,R9*%
X98225000Y49100000D03*
X96575000Y49100000D03*
%TD*%
D24*
%TO.C,C48*%
X111475000Y50100000D03*
X109925000Y50100000D03*
%TD*%
D19*
%TO.C,C15*%
X51000000Y46708000D03*
X51000000Y45158000D03*
%TD*%
D16*
%TO.C,R12*%
X103667128Y53919164D03*
X103667128Y55569164D03*
%TD*%
D23*
%TO.C,U7*%
X57607170Y37818194D03*
X58257170Y37818194D03*
X58907170Y37818194D03*
X59557170Y37818194D03*
X60207170Y37818194D03*
X60857170Y37818194D03*
X61507170Y37818194D03*
X61507170Y43543194D03*
X60857170Y43543194D03*
X60207170Y43543194D03*
X59557170Y43543194D03*
X58907170Y43543194D03*
X58257170Y43543194D03*
X57607170Y43543194D03*
%TD*%
D14*
%TO.C,U20*%
X88873528Y52317064D03*
X90143528Y52317064D03*
X91413528Y52317064D03*
X92683528Y52317064D03*
X92683528Y57267064D03*
X91413528Y57267064D03*
X90143528Y57267064D03*
X88873528Y57267064D03*
%TD*%
D15*
%TO.C,C45*%
X95375000Y59500000D03*
X96925000Y59500000D03*
%TD*%
D24*
%TO.C,C12*%
X80475000Y45100000D03*
X78925000Y45100000D03*
%TD*%
D18*
%TO.C,C16*%
X61000000Y45625000D03*
X61000000Y47175000D03*
%TD*%
D16*
%TO.C,R3*%
X42209170Y53175000D03*
X42209170Y54825000D03*
%TD*%
D18*
%TO.C,C25*%
X69562585Y52844031D03*
X69562585Y54394031D03*
%TD*%
%TO.C,C49*%
X104000000Y50525000D03*
X104000000Y52075000D03*
%TD*%
D24*
%TO.C,C1*%
X53175000Y16850000D03*
X51625000Y16850000D03*
%TD*%
%TO.C,C23*%
X66502476Y49614458D03*
X64952476Y49614458D03*
%TD*%
D17*
%TO.C,R6*%
X62202476Y59114458D03*
X63852476Y59114458D03*
%TD*%
D24*
%TO.C,C26*%
X98575000Y16723000D03*
X97025000Y16723000D03*
%TD*%
D17*
%TO.C,R8*%
X88475000Y50000000D03*
X90125000Y50000000D03*
%TD*%
D20*
%TO.C,U3*%
X53204776Y18991105D03*
X54474776Y18991105D03*
X55744776Y18991105D03*
X57014776Y18991105D03*
X58284776Y18991105D03*
X59554776Y18991105D03*
X60824776Y18991105D03*
X62094776Y18991105D03*
X62094776Y28291105D03*
X60824776Y28291105D03*
X59554776Y28291105D03*
X58284776Y28291105D03*
X57014776Y28291105D03*
X55744776Y28291105D03*
X54474776Y28291105D03*
X53204776Y28291105D03*
%TD*%
D26*
%TO.C,U11*%
X64932476Y56789458D03*
X63662476Y56789458D03*
X62392476Y56789458D03*
X61122476Y56789458D03*
X61122476Y51839458D03*
X62392476Y51839458D03*
X63662476Y51839458D03*
X64932476Y51839458D03*
%TD*%
%TO.C,U22*%
X109911505Y57293476D03*
X108641505Y57293476D03*
X107371505Y57293476D03*
X106101505Y57293476D03*
X106101505Y52343476D03*
X107371505Y52343476D03*
X108641505Y52343476D03*
X109911505Y52343476D03*
%TD*%
D16*
%TO.C,R5*%
X58900000Y53475000D03*
X58900000Y55125000D03*
%TD*%
D19*
%TO.C,C36*%
X104850000Y35575000D03*
X104850000Y34025000D03*
%TD*%
D24*
%TO.C,C27*%
X86116250Y16800000D03*
X84566250Y16800000D03*
%TD*%
D27*
%TO.C,R14*%
X123500000Y61225000D03*
X123500000Y59575000D03*
%TD*%
D23*
%TO.C,U6*%
X46425000Y37637500D03*
X47075000Y37637500D03*
X47725000Y37637500D03*
X48375000Y37637500D03*
X49025000Y37637500D03*
X49675000Y37637500D03*
X50325000Y37637500D03*
X50975000Y37637500D03*
X51625000Y37637500D03*
X52275000Y37637500D03*
X52925000Y37637500D03*
X53575000Y37637500D03*
X53575000Y43362500D03*
X52925000Y43362500D03*
X52275000Y43362500D03*
X51625000Y43362500D03*
X50975000Y43362500D03*
X50325000Y43362500D03*
X49675000Y43362500D03*
X49025000Y43362500D03*
X48375000Y43362500D03*
X47725000Y43362500D03*
X47075000Y43362500D03*
X46425000Y43362500D03*
%TD*%
D24*
%TO.C,C37*%
X124725000Y44600000D03*
X123175000Y44600000D03*
%TD*%
D28*
%TO.C,U12*%
X76894891Y51774201D03*
X76894891Y53044201D03*
X76894891Y54314201D03*
X76894891Y55584201D03*
X76894891Y56854201D03*
X76894891Y58124201D03*
X76894891Y59394201D03*
X76894891Y60664201D03*
X71744891Y60664201D03*
X71744891Y59394201D03*
X71744891Y58124201D03*
X71744891Y56854201D03*
X71744891Y55584201D03*
X71744891Y54314201D03*
X71744891Y53044201D03*
X71744891Y51774201D03*
%TD*%
D15*
%TO.C,C7*%
X51425000Y30439000D03*
X52975000Y30439000D03*
%TD*%
D27*
%TO.C,R7*%
X79100000Y61025000D03*
X79100000Y59375000D03*
%TD*%
D18*
%TO.C,C2*%
X39600000Y18612500D03*
X39600000Y20162500D03*
%TD*%
D19*
%TO.C,C9*%
X61300000Y35575000D03*
X61300000Y34025000D03*
%TD*%
%TO.C,C14*%
X53600000Y46708000D03*
X53600000Y45158000D03*
%TD*%
D18*
%TO.C,C51*%
X43200000Y35725000D03*
X43200000Y37275000D03*
%TD*%
D28*
%TO.C,U23*%
X121294325Y51982998D03*
X121294325Y53252998D03*
X121294325Y54522998D03*
X121294325Y55792998D03*
X121294325Y57062998D03*
X121294325Y58332998D03*
X121294325Y59602998D03*
X121294325Y60872998D03*
X116144325Y60872998D03*
X116144325Y59602998D03*
X116144325Y58332998D03*
X116144325Y57062998D03*
X116144325Y55792998D03*
X116144325Y54522998D03*
X116144325Y53252998D03*
X116144325Y51982998D03*
%TD*%
D19*
%TO.C,C46*%
X101700000Y52075000D03*
X101700000Y50525000D03*
%TD*%
D25*
%TO.C,R18*%
X98525000Y33194900D03*
X96875000Y33194900D03*
%TD*%
%TO.C,R17*%
X53025000Y32800000D03*
X51375000Y32800000D03*
%TD*%
D29*
%TO.C,C64*%
X18080000Y30990000D03*
X18080000Y30030000D03*
%TD*%
D30*
%TO.C,U151*%
X19025000Y13400001D03*
X19025000Y12450001D03*
X19025000Y11500001D03*
X21300000Y11500001D03*
X21300000Y13400001D03*
%TD*%
D31*
%TO.C,C83*%
X24761250Y37287500D03*
X25721250Y37287500D03*
%TD*%
D32*
%TO.C,R31*%
X14940000Y25850000D03*
X14940000Y24830000D03*
%TD*%
D17*
%TO.C,R32*%
X24365001Y9040000D03*
X26015001Y9040000D03*
%TD*%
D25*
%TO.C,R34*%
X106730000Y5980000D03*
X105080000Y5980000D03*
%TD*%
D33*
%TO.C,R33*%
X9731250Y32567500D03*
X10751250Y32567500D03*
%TD*%
D32*
%TO.C,R30*%
X14000000Y25850000D03*
X14000000Y24830000D03*
%TD*%
D34*
%TO.C,Y1*%
X18300000Y49287500D03*
X20500000Y49287500D03*
X20500000Y50887500D03*
X18300000Y50887500D03*
%TD*%
D35*
%TO.C,C71*%
X22158750Y49420000D03*
X22158750Y50380000D03*
%TD*%
D29*
%TO.C,C81*%
X20741250Y30667500D03*
X20741250Y29707500D03*
%TD*%
D14*
%TO.C,U9*%
X44166000Y51651000D03*
X45436000Y51651000D03*
X46706000Y51651000D03*
X47976000Y51651000D03*
X47976000Y56601000D03*
X46706000Y56601000D03*
X45436000Y56601000D03*
X44166000Y56601000D03*
%TD*%
D36*
%TO.C,C62*%
X16508750Y20087500D03*
X15548750Y20087500D03*
%TD*%
D35*
%TO.C,C57*%
X20841250Y44557500D03*
X20841250Y45517500D03*
%TD*%
D27*
%TO.C,R28*%
X15200000Y50125000D03*
X15200000Y48475000D03*
%TD*%
D29*
%TO.C,C86*%
X11791250Y32547500D03*
X11791250Y31587500D03*
%TD*%
D19*
%TO.C,C297*%
X22942500Y13400002D03*
X22942500Y11850002D03*
%TD*%
D37*
%TO.C,J11*%
X9366250Y56737500D03*
X9366250Y57737500D03*
X9366250Y58737500D03*
D38*
X6841250Y55437500D03*
X6841250Y60037500D03*
%TD*%
D36*
%TO.C,C87*%
X15480000Y31440000D03*
X14520000Y31440000D03*
%TD*%
D27*
%TO.C,R29*%
X13700000Y50125000D03*
X13700000Y48475000D03*
%TD*%
D39*
%TO.C,L1*%
X15591250Y28737500D03*
X13591250Y28737500D03*
%TD*%
D36*
%TO.C,C60*%
X11071250Y38187500D03*
X10111250Y38187500D03*
%TD*%
D35*
%TO.C,C58*%
X19141250Y44407500D03*
X19141250Y45367500D03*
%TD*%
D25*
%TO.C,R35*%
X114730000Y5980000D03*
X113080000Y5980000D03*
%TD*%
D40*
%TO.C,U25*%
X24216250Y21382500D03*
X24216250Y22652500D03*
X24216250Y23922500D03*
X24216250Y25192500D03*
X17041250Y25192500D03*
X17041250Y23922500D03*
X17041250Y22652500D03*
X17041250Y21382500D03*
%TD*%
D36*
%TO.C,C61*%
X11970000Y33687500D03*
X11010000Y33687500D03*
%TD*%
D41*
%TO.C,J4*%
X14231250Y55362500D03*
X14231250Y60412500D03*
X16771250Y55362500D03*
X16771250Y60412500D03*
X19311250Y55362500D03*
X19311250Y60412500D03*
X21851250Y55362500D03*
X21851250Y60412500D03*
%TD*%
D31*
%TO.C,C55*%
X25361250Y35287500D03*
X26321250Y35287500D03*
%TD*%
D42*
%TO.C,D9*%
X13275000Y9757150D03*
X13775000Y9757150D03*
X14275000Y9757150D03*
X14775000Y9757150D03*
X15275000Y9757150D03*
X15275000Y10527150D03*
X14775000Y10527150D03*
X14275000Y10527150D03*
X13775000Y10527150D03*
X13275000Y10527150D03*
%TD*%
D17*
%TO.C,R27*%
X17275000Y47600000D03*
X18925000Y47600000D03*
%TD*%
D29*
%TO.C,C70*%
X16558750Y49860000D03*
X16558750Y48900000D03*
%TD*%
D35*
%TO.C,C85*%
X16841250Y45207500D03*
X16841250Y46167500D03*
%TD*%
D43*
%TO.C,SW3*%
X6250000Y18670000D03*
X6250000Y26630000D03*
X10750000Y18670000D03*
X10750000Y26630000D03*
%TD*%
D44*
%TO.C,J10*%
X11300000Y6390000D03*
X12100000Y6390000D03*
D45*
X13250000Y6390000D03*
X14250000Y6390000D03*
X14750000Y6390000D03*
X15750000Y6390000D03*
D44*
X16900000Y6390000D03*
X17700000Y6390000D03*
X17700000Y6390000D03*
X16900000Y6390000D03*
D45*
X16250000Y6390000D03*
X15250000Y6390000D03*
X13750000Y6390000D03*
X12750000Y6390000D03*
D44*
X12100000Y6390000D03*
X11300000Y6390000D03*
D46*
X10180000Y5815000D03*
D47*
X10180000Y1635000D03*
D46*
X18820000Y5815000D03*
D47*
X18820000Y1635000D03*
%TD*%
D36*
%TO.C,C84*%
X11071250Y37237500D03*
X10111250Y37237500D03*
%TD*%
D48*
%TO.C,R266*%
X12230000Y9694650D03*
X11210000Y9694650D03*
%TD*%
D19*
%TO.C,C295*%
X17382500Y13700001D03*
X17382500Y12150001D03*
%TD*%
D31*
%TO.C,C56*%
X24711250Y39300000D03*
X25671250Y39300000D03*
%TD*%
D36*
%TO.C,C88*%
X15480000Y30520000D03*
X14520000Y30520000D03*
%TD*%
D27*
%TO.C,R26*%
X84955000Y4912500D03*
X84955000Y3262500D03*
%TD*%
D35*
%TO.C,C59*%
X11941250Y42607500D03*
X11941250Y43567500D03*
%TD*%
D33*
%TO.C,R267*%
X16310000Y9744650D03*
X17330000Y9744650D03*
%TD*%
M02*
