M48
; DRILL file KiCad 10.0.1 date 2026-07-06T13:20:09
; FORMAT={-:-/ absolute / metric / decimal}
; #@! TF.CreationDate,2026-07-06T13:20:09-04:00
; #@! TF.GenerationSoftware,Kicad,Pcbnew,10.0.1
; #@! TF.FileFunction,Plated,1,4,PTH
FMAT,2
METRIC
; #@! TA.AperFunction,Plated,PTH,ViaDrill
T1C0.300
; #@! TA.AperFunction,Plated,PTH,ViaDrill
T2C0.400
; #@! TA.AperFunction,Plated,PTH,ComponentDrill
T3C0.500
; #@! TA.AperFunction,Plated,PTH,ComponentDrill
T4C0.600
; #@! TA.AperFunction,Plated,PTH,ComponentDrill
T5C0.762
; #@! TA.AperFunction,Plated,PTH,ComponentDrill
T6C0.890
; #@! TA.AperFunction,Plated,PTH,ComponentDrill
T7C0.990
; #@! TA.AperFunction,Plated,PTH,ComponentDrill
T8C1.000
; #@! TA.AperFunction,Plated,PTH,ComponentDrill
T9C1.300
; #@! TA.AperFunction,Plated,PTH,ComponentDrill
T10C1.350
; #@! TA.AperFunction,Plated,PTH,ComponentDrill
T11C1.500
; #@! TA.AperFunction,Plated,PTH,ComponentDrill
T12C2.010
%
G90
G05
T1
X2.14Y25.39
X2.3Y33.3
X2.3Y14.8
X2.7Y2.1
X3.3Y53.1
X3.341Y61.287
X4.05Y15.05
X4.4Y39.4
X4.85Y15.85
X5.0Y10.6
X5.85Y16.5
X7.3Y16.75
X7.4Y18.25
X7.6Y57.7
X7.741Y36.288
X8.15Y19.1
X8.241Y37.288
X8.241Y34.688
X8.341Y35.7
X8.5Y42.1
X8.641Y39.837
X8.891Y39.087
X8.95Y20.3
X9.041Y34.538
X9.341Y38.188
X9.35Y37.188
X9.614Y34.114
X9.741Y31.667
X10.15Y21.15
X10.241Y33.688
X10.55Y8.9
X11.2Y56.1
X11.341Y30.817
X11.4Y24.4
X11.71Y29.1
X11.841Y37.288
X11.891Y38.237
X12.1Y51.7
X12.2Y44.7
X12.331Y41.777
X12.741Y33.137
X12.77Y20.64
X12.86Y26.66
X13.691Y31.438
X13.691Y30.537
X14.1Y40.1
X14.27Y9.045
X14.5Y36.0
X14.6Y41.3
X14.7Y63.3
X15.141Y53.137
X15.5Y19.18
X15.541Y33.438
X15.7Y35.2
X15.741Y37.288
X16.0Y50.8
X16.19Y30.9
X16.19Y30.3
X16.2Y47.2
X16.2Y41.3
X16.541Y19.137
X16.65Y38.85
X16.65Y37.475
X16.65Y36.15
X16.75Y34.0
X16.87Y44.487
X17.09Y17.2
X17.4Y39.8
X17.59Y31.72
X17.66Y29.28
X17.8Y33.35
X18.0Y38.85
X18.0Y37.5
X18.0Y19.5
X18.025Y36.15
X18.19Y9.3
X18.2Y10.64
X18.5Y25.5
X18.6Y26.65
X18.7Y22.2
X18.891Y43.487
X19.2Y63.1
X19.35Y38.85
X19.35Y37.5
X19.35Y36.15
X19.5Y41.25
X19.75Y26.65
X19.791Y43.487
X19.9Y46.0
X19.9Y27.75
X20.041Y24.837
X20.1Y9.5
X20.241Y54.387
X20.3Y37.3
X20.4Y19.2
X20.541Y31.587
X20.6Y43.788
X20.841Y52.688
X20.841Y46.387
X21.18Y34.037
X21.2Y21.9
X21.441Y29.287
X21.5Y48.5
X21.5Y35.75
X21.591Y33.397
X21.791Y62.938
X22.3Y19.4
X22.45Y45.7
X22.65Y44.05
X22.691Y26.05
X22.691Y21.587
X22.8Y42.95
X22.8Y9.5
X22.841Y54.387
X22.841Y30.487
X23.35Y45.15
X23.4Y46.6
X23.6Y49.9
X23.6Y8.4
X23.741Y31.987
X23.941Y37.288
X23.98Y39.3
X24.041Y26.587
X24.591Y35.288
X24.9Y26.1
X24.95Y16.7
X25.1Y62.2
X25.2Y17.8
X25.3Y30.7
X25.5Y27.75
X26.514Y30.614
X26.691Y37.288
X26.9Y34.5
X27.3Y47.7
X27.4Y25.494
X27.6Y27.5
X27.9Y39.3
X28.2Y17.0
X28.3Y62.2
X28.3Y32.8
X28.3Y22.0
X28.3Y19.2
X28.5Y6.75
X28.9Y27.5
X29.1Y29.9
X29.5Y17.0
X29.6Y25.7
X29.6Y22.7
X29.691Y35.487
X30.3Y38.3
X30.5Y6.9
X30.9Y18.6
X30.9Y16.8
X31.0Y22.5
X31.2Y27.6
X31.3Y25.8
X31.35Y30.0
X31.7Y24.9
X31.841Y36.887
X32.1Y34.0
X32.2Y21.912
X32.214Y35.014
X32.3Y33.0
X32.3Y17.1
X32.4Y19.4
X32.6Y62.2
X32.9Y46.9
X33.3Y5.0
X36.6Y49.8
X37.091Y44.137
X39.0Y21.6
X47.3Y16.7
X47.4Y20.3
X49.8Y10.6
X49.8Y9.4
X52.4Y10.6
X56.25Y16.2
X57.425Y17.4
X58.15Y16.2
X58.383Y38.317
X75.041Y8.088
X76.67Y2.43
X76.941Y10.387
X79.3Y9.0
X81.37Y1.96
X87.6Y15.45
X88.0Y12.15
X88.6Y16.0
X89.9Y16.0
X91.5Y12.8
X95.53Y3.05
X100.425Y16.0
X101.383Y38.317
X101.695Y16.0
X101.97Y3.83
X102.965Y16.0
X104.235Y16.0
X110.891Y6.387
T2
X19.57Y17.54
X20.261Y7.037
X20.9Y17.5
X21.411Y7.037
X22.6Y7.0
X41.0Y19.8
X42.915Y32.0
X44.1Y49.5
X44.5Y31.4
X44.8Y35.8
X45.0Y42.9
X46.5Y34.7
X46.865Y59.7
X48.425Y42.05
X48.425Y39.15
X48.5Y36.0
X49.4Y54.6
X49.405Y53.0
X50.5Y57.5
X50.6Y36.2
X50.675Y29.7
X50.7Y52.0
X50.955Y50.8
X51.0Y65.0
X51.0Y63.0
X51.0Y40.0
X51.1Y45.08
X51.665Y46.26
X51.7Y35.2
X53.0Y67.1
X53.3Y17.5
X53.625Y36.1
X54.0Y68.5
X54.25Y40.95
X54.4Y58.43
X54.5Y31.5
X54.715Y48.5
X54.895Y20.0
X54.9Y28.1
X55.6Y54.8
X56.075Y48.5
X56.7Y40.95
X57.5Y51.5
X57.7Y48.5
X58.0Y46.0
X58.0Y44.5
X58.7Y49.57
X58.75Y40.5
X59.7Y36.1
X60.175Y50.4
X60.25Y34.85
X60.65Y54.85
X60.85Y40.783
X61.0Y63.4
X61.0Y62.0
X61.0Y57.0
X61.0Y33.1
X61.5Y40.0
X61.85Y40.95
X62.375Y48.0
X62.5Y55.825
X62.8Y42.025
X62.8Y39.15
X63.835Y48.0
X64.3Y55.825
X64.43Y68.5
X65.43Y58.5
X66.5Y61.0
X67.2Y58.0
X67.3Y48.9
X67.422Y37.297
X67.6Y43.0
X68.65Y48.525
X69.425Y53.5
X71.4Y59.603
X72.591Y3.737
X73.25Y26.25
X74.041Y3.737
X75.1Y53.2
X75.5Y46.435
X75.7Y60.945
X75.75Y58.65
X76.5Y54.595
X80.2Y62.9
X81.8Y52.9
X82.0Y46.0
X83.3Y2.3
X84.795Y20.0
X85.915Y32.0
X87.1Y49.5
X87.5Y31.4
X87.8Y35.8
X88.0Y42.9
X89.5Y34.7
X89.5Y12.2
X89.865Y59.7
X91.3Y14.75
X91.425Y42.05
X91.425Y39.15
X91.5Y36.0
X92.4Y54.6
X92.405Y53.0
X93.0Y12.8
X93.5Y57.5
X93.6Y36.2
X93.675Y29.7
X93.7Y52.0
X93.955Y50.8
X94.0Y65.0
X94.0Y63.0
X94.0Y40.0
X94.1Y45.08
X94.665Y46.26
X94.7Y35.2
X94.9Y17.2
X96.0Y67.1
X96.3Y17.5
X96.625Y36.1
X97.0Y68.5
X97.25Y40.95
X97.4Y58.43
X97.5Y31.5
X97.715Y48.5
X97.895Y20.0
X97.9Y28.1
X98.6Y54.8
X99.075Y48.5
X99.7Y40.95
X100.5Y51.5
X100.7Y48.5
X101.0Y46.0
X101.0Y44.5
X101.7Y49.57
X101.75Y40.5
X102.7Y36.1
X103.175Y50.4
X103.25Y34.85
X103.65Y54.85
X103.85Y40.783
X104.0Y63.4
X104.0Y62.0
X104.0Y57.0
X104.0Y33.1
X104.5Y40.0
X104.85Y40.95
X105.375Y48.0
X105.5Y55.825
X105.8Y42.025
X105.8Y39.15
X106.835Y48.0
X107.3Y55.825
X107.43Y68.5
X107.85Y16.75
X108.43Y58.5
X109.5Y61.0
X110.2Y58.0
X110.3Y48.9
X110.422Y37.297
X110.6Y43.0
X111.65Y48.525
X112.425Y53.5
X114.4Y59.603
X115.01Y11.61
X116.25Y26.25
X118.1Y53.2
X118.5Y46.435
X118.7Y60.945
X118.75Y58.65
X119.5Y54.595
X123.2Y62.9
X124.8Y52.9
X125.0Y46.0
X125.491Y2.038
T3
X43.97Y46.35
X46.5Y43.5
X47.0Y31.5
X47.75Y67.2
X48.575Y62.55
X51.7Y31.0
X57.49Y31.71
X58.695Y34.0
X61.5Y31.35
X62.4Y74.1
X66.75Y46.9
X69.3Y62.0
X70.7Y58.0
X73.144Y50.3
X74.65Y30.9
X80.2Y48.6
X82.45Y57.25
X86.97Y46.35
X89.5Y43.5
X90.0Y31.5
X90.75Y67.2
X91.575Y62.55
X94.7Y31.0
X100.49Y31.71
X101.695Y34.0
X104.5Y31.35
X105.4Y74.1
X109.75Y46.9
X112.3Y62.0
X113.7Y58.0
X116.144Y50.3
X117.65Y30.9
X123.2Y48.6
X125.45Y57.25
T5
X69.42Y42.0
X69.42Y19.0
X71.96Y42.0
X77.04Y42.0
X77.04Y19.0
X79.58Y42.0
X79.58Y19.0
X112.42Y42.0
X112.42Y19.0
X114.96Y42.0
X120.04Y42.0
X120.04Y19.0
X122.58Y42.0
X122.58Y19.0
T6
X9.46Y66.5
X12.0Y66.5
X32.46Y66.5
X35.0Y66.5
X71.46Y66.5
X74.0Y66.5
X114.46Y66.5
X117.0Y66.5
T7
X26.0Y3.032
X30.5Y3.032
T8
X51.1Y10.0
X51.1Y7.46
X53.64Y10.0
X53.64Y7.46
X56.18Y10.0
X56.18Y7.46
X58.72Y10.0
X58.72Y7.46
X61.26Y10.0
X61.26Y7.46
X63.8Y10.0
X63.8Y7.46
X66.34Y10.0
X66.34Y7.46
X68.88Y10.0
X68.88Y7.46
X86.46Y6.2
X89.0Y6.2
X105.46Y6.2
X108.0Y6.2
X113.46Y6.2
X116.0Y6.2
T9
X24.74Y5.522
X31.75Y5.522
T10
X36.625Y2.312
X41.375Y2.312
T11
X66.5Y39.5
X82.5Y21.5
X109.5Y39.5
X125.5Y21.5
T12
X6.92Y71.58
X17.08Y71.58
X29.92Y71.58
X40.08Y71.58
X68.92Y71.58
X79.08Y71.58
X111.92Y71.58
X122.08Y71.58
T4
G00X10.18Y6.365
M15
G01X10.18Y5.265
M16
G05
G00X10.18Y2.035
M15
G01X10.18Y1.235
M16
G05
G00X18.82Y6.365
M15
G01X18.82Y5.265
M16
G05
G00X18.82Y2.035
M15
G01X18.82Y1.235
M16
G05
M30
