G04 #@! TF.GenerationSoftware,KiCad,Pcbnew,9.0.6*
G04 #@! TF.CreationDate,2026-01-16T18:41:02-05:00*
G04 #@! TF.ProjectId,stimjim,7374696d-6a69-46d2-9e6b-696361645f70,B*
G04 #@! TF.SameCoordinates,PX8c30ac0PYa037a00*
G04 #@! TF.FileFunction,Legend,Bot*
G04 #@! TF.FilePolarity,Positive*
%FSLAX46Y46*%
G04 Gerber Fmt 4.6, Leading zero omitted, Abs format (unit mm)*
G04 Created by KiCad (PCBNEW 9.0.6) date 2026-01-16 18:41:02*
%MOMM*%
%LPD*%
G01*
G04 APERTURE LIST*
G04 Aperture macros list*
%AMRoundRect*
0 Rectangle with rounded corners*
0 $1 Rounding radius*
0 $2 $3 $4 $5 $6 $7 $8 $9 X,Y pos of 4 corners*
0 Add a 4 corners polygon primitive as box body*
4,1,4,$2,$3,$4,$5,$6,$7,$8,$9,$2,$3,0*
0 Add four circle primitives for the rounded corners*
1,1,$1+$1,$2,$3*
1,1,$1+$1,$4,$5*
1,1,$1+$1,$6,$7*
1,1,$1+$1,$8,$9*
0 Add four rect primitives between the rounded corners*
20,1,$1+$1,$2,$3,$4,$5,0*
20,1,$1+$1,$4,$5,$6,$7,0*
20,1,$1+$1,$6,$7,$8,$9,0*
20,1,$1+$1,$8,$9,$2,$3,0*%
G04 Aperture macros list end*
%ADD10C,0.300000*%
%ADD11C,0.150000*%
%ADD12C,0.000000*%
%ADD13C,0.120000*%
%ADD14C,2.000000*%
%ADD15C,2.100000*%
%ADD16C,1.750000*%
%ADD17O,1.600000X2.500000*%
%ADD18O,3.500000X7.000000*%
%ADD19C,4.300000*%
%ADD20C,1.524000*%
%ADD21C,2.500000*%
%ADD22C,1.700000*%
%ADD23RoundRect,0.250000X-0.600000X0.600000X-0.600000X-0.600000X0.600000X-0.600000X0.600000X0.600000X0*%
%ADD24C,1.000000*%
%ADD25R,1.000000X1.000000*%
%ADD26R,1.800000X1.800000*%
%ADD27C,1.800000*%
%ADD28C,0.650000*%
%ADD29O,1.000000X2.100000*%
%ADD30O,1.000000X1.800000*%
%ADD31RoundRect,0.250000X-1.075000X0.400000X-1.075000X-0.400000X1.075000X-0.400000X1.075000X0.400000X0*%
%ADD32RoundRect,0.250000X-1.100000X0.412500X-1.100000X-0.412500X1.100000X-0.412500X1.100000X0.412500X0*%
%ADD33RoundRect,0.250000X-0.650000X0.412500X-0.650000X-0.412500X0.650000X-0.412500X0.650000X0.412500X0*%
%ADD34RoundRect,0.250000X0.650000X-0.412500X0.650000X0.412500X-0.650000X0.412500X-0.650000X-0.412500X0*%
%ADD35RoundRect,0.250000X0.412500X0.650000X-0.412500X0.650000X-0.412500X-0.650000X0.412500X-0.650000X0*%
G04 APERTURE END LIST*
D10*
X35588346Y53299172D02*
X36088346Y54013458D01*
X36445489Y53299172D02*
X36445489Y54799172D01*
X36445489Y54799172D02*
X35874060Y54799172D01*
X35874060Y54799172D02*
X35731203Y54727743D01*
X35731203Y54727743D02*
X35659774Y54656315D01*
X35659774Y54656315D02*
X35588346Y54513458D01*
X35588346Y54513458D02*
X35588346Y54299172D01*
X35588346Y54299172D02*
X35659774Y54156315D01*
X35659774Y54156315D02*
X35731203Y54084886D01*
X35731203Y54084886D02*
X35874060Y54013458D01*
X35874060Y54013458D02*
X36445489Y54013458D01*
X34374060Y53370600D02*
X34516917Y53299172D01*
X34516917Y53299172D02*
X34802632Y53299172D01*
X34802632Y53299172D02*
X34945489Y53370600D01*
X34945489Y53370600D02*
X35016917Y53513458D01*
X35016917Y53513458D02*
X35016917Y54084886D01*
X35016917Y54084886D02*
X34945489Y54227743D01*
X34945489Y54227743D02*
X34802632Y54299172D01*
X34802632Y54299172D02*
X34516917Y54299172D01*
X34516917Y54299172D02*
X34374060Y54227743D01*
X34374060Y54227743D02*
X34302632Y54084886D01*
X34302632Y54084886D02*
X34302632Y53942029D01*
X34302632Y53942029D02*
X35016917Y53799172D01*
X33802632Y54299172D02*
X33445489Y53299172D01*
X33445489Y53299172D02*
X33088346Y54299172D01*
X32516918Y53442029D02*
X32445489Y53370600D01*
X32445489Y53370600D02*
X32516918Y53299172D01*
X32516918Y53299172D02*
X32588346Y53370600D01*
X32588346Y53370600D02*
X32516918Y53442029D01*
X32516918Y53442029D02*
X32516918Y53299172D01*
X30159775Y54084886D02*
X29945489Y54013458D01*
X29945489Y54013458D02*
X29874060Y53942029D01*
X29874060Y53942029D02*
X29802632Y53799172D01*
X29802632Y53799172D02*
X29802632Y53584886D01*
X29802632Y53584886D02*
X29874060Y53442029D01*
X29874060Y53442029D02*
X29945489Y53370600D01*
X29945489Y53370600D02*
X30088346Y53299172D01*
X30088346Y53299172D02*
X30659775Y53299172D01*
X30659775Y53299172D02*
X30659775Y54799172D01*
X30659775Y54799172D02*
X30159775Y54799172D01*
X30159775Y54799172D02*
X30016918Y54727743D01*
X30016918Y54727743D02*
X29945489Y54656315D01*
X29945489Y54656315D02*
X29874060Y54513458D01*
X29874060Y54513458D02*
X29874060Y54370600D01*
X29874060Y54370600D02*
X29945489Y54227743D01*
X29945489Y54227743D02*
X30016918Y54156315D01*
X30016918Y54156315D02*
X30159775Y54084886D01*
X30159775Y54084886D02*
X30659775Y54084886D01*
D11*
X116924819Y25392858D02*
X116448628Y25726191D01*
X116924819Y25964286D02*
X115924819Y25964286D01*
X115924819Y25964286D02*
X115924819Y25583334D01*
X115924819Y25583334D02*
X115972438Y25488096D01*
X115972438Y25488096D02*
X116020057Y25440477D01*
X116020057Y25440477D02*
X116115295Y25392858D01*
X116115295Y25392858D02*
X116258152Y25392858D01*
X116258152Y25392858D02*
X116353390Y25440477D01*
X116353390Y25440477D02*
X116401009Y25488096D01*
X116401009Y25488096D02*
X116448628Y25583334D01*
X116448628Y25583334D02*
X116448628Y25964286D01*
X116020057Y25011905D02*
X115972438Y24964286D01*
X115972438Y24964286D02*
X115924819Y24869048D01*
X115924819Y24869048D02*
X115924819Y24630953D01*
X115924819Y24630953D02*
X115972438Y24535715D01*
X115972438Y24535715D02*
X116020057Y24488096D01*
X116020057Y24488096D02*
X116115295Y24440477D01*
X116115295Y24440477D02*
X116210533Y24440477D01*
X116210533Y24440477D02*
X116353390Y24488096D01*
X116353390Y24488096D02*
X116924819Y25059524D01*
X116924819Y25059524D02*
X116924819Y24440477D01*
X115924819Y23821429D02*
X115924819Y23726191D01*
X115924819Y23726191D02*
X115972438Y23630953D01*
X115972438Y23630953D02*
X116020057Y23583334D01*
X116020057Y23583334D02*
X116115295Y23535715D01*
X116115295Y23535715D02*
X116305771Y23488096D01*
X116305771Y23488096D02*
X116543866Y23488096D01*
X116543866Y23488096D02*
X116734342Y23535715D01*
X116734342Y23535715D02*
X116829580Y23583334D01*
X116829580Y23583334D02*
X116877200Y23630953D01*
X116877200Y23630953D02*
X116924819Y23726191D01*
X116924819Y23726191D02*
X116924819Y23821429D01*
X116924819Y23821429D02*
X116877200Y23916667D01*
X116877200Y23916667D02*
X116829580Y23964286D01*
X116829580Y23964286D02*
X116734342Y24011905D01*
X116734342Y24011905D02*
X116543866Y24059524D01*
X116543866Y24059524D02*
X116305771Y24059524D01*
X116305771Y24059524D02*
X116115295Y24011905D01*
X116115295Y24011905D02*
X116020057Y23964286D01*
X116020057Y23964286D02*
X115972438Y23916667D01*
X115972438Y23916667D02*
X115924819Y23821429D01*
X112059580Y25380358D02*
X112107200Y25427977D01*
X112107200Y25427977D02*
X112154819Y25570834D01*
X112154819Y25570834D02*
X112154819Y25666072D01*
X112154819Y25666072D02*
X112107200Y25808929D01*
X112107200Y25808929D02*
X112011961Y25904167D01*
X112011961Y25904167D02*
X111916723Y25951786D01*
X111916723Y25951786D02*
X111726247Y25999405D01*
X111726247Y25999405D02*
X111583390Y25999405D01*
X111583390Y25999405D02*
X111392914Y25951786D01*
X111392914Y25951786D02*
X111297676Y25904167D01*
X111297676Y25904167D02*
X111202438Y25808929D01*
X111202438Y25808929D02*
X111154819Y25666072D01*
X111154819Y25666072D02*
X111154819Y25570834D01*
X111154819Y25570834D02*
X111202438Y25427977D01*
X111202438Y25427977D02*
X111250057Y25380358D01*
X111154819Y24475596D02*
X111154819Y24951786D01*
X111154819Y24951786D02*
X111631009Y24999405D01*
X111631009Y24999405D02*
X111583390Y24951786D01*
X111583390Y24951786D02*
X111535771Y24856548D01*
X111535771Y24856548D02*
X111535771Y24618453D01*
X111535771Y24618453D02*
X111583390Y24523215D01*
X111583390Y24523215D02*
X111631009Y24475596D01*
X111631009Y24475596D02*
X111726247Y24427977D01*
X111726247Y24427977D02*
X111964342Y24427977D01*
X111964342Y24427977D02*
X112059580Y24475596D01*
X112059580Y24475596D02*
X112107200Y24523215D01*
X112107200Y24523215D02*
X112154819Y24618453D01*
X112154819Y24618453D02*
X112154819Y24856548D01*
X112154819Y24856548D02*
X112107200Y24951786D01*
X112107200Y24951786D02*
X112059580Y24999405D01*
X111488152Y23570834D02*
X112154819Y23570834D01*
X111107200Y23808929D02*
X111821485Y24047024D01*
X111821485Y24047024D02*
X111821485Y23427977D01*
X77509580Y38916667D02*
X77557200Y38964286D01*
X77557200Y38964286D02*
X77604819Y39107143D01*
X77604819Y39107143D02*
X77604819Y39202381D01*
X77604819Y39202381D02*
X77557200Y39345238D01*
X77557200Y39345238D02*
X77461961Y39440476D01*
X77461961Y39440476D02*
X77366723Y39488095D01*
X77366723Y39488095D02*
X77176247Y39535714D01*
X77176247Y39535714D02*
X77033390Y39535714D01*
X77033390Y39535714D02*
X76842914Y39488095D01*
X76842914Y39488095D02*
X76747676Y39440476D01*
X76747676Y39440476D02*
X76652438Y39345238D01*
X76652438Y39345238D02*
X76604819Y39202381D01*
X76604819Y39202381D02*
X76604819Y39107143D01*
X76604819Y39107143D02*
X76652438Y38964286D01*
X76652438Y38964286D02*
X76700057Y38916667D01*
X76604819Y38011905D02*
X76604819Y38488095D01*
X76604819Y38488095D02*
X77081009Y38535714D01*
X77081009Y38535714D02*
X77033390Y38488095D01*
X77033390Y38488095D02*
X76985771Y38392857D01*
X76985771Y38392857D02*
X76985771Y38154762D01*
X76985771Y38154762D02*
X77033390Y38059524D01*
X77033390Y38059524D02*
X77081009Y38011905D01*
X77081009Y38011905D02*
X77176247Y37964286D01*
X77176247Y37964286D02*
X77414342Y37964286D01*
X77414342Y37964286D02*
X77509580Y38011905D01*
X77509580Y38011905D02*
X77557200Y38059524D01*
X77557200Y38059524D02*
X77604819Y38154762D01*
X77604819Y38154762D02*
X77604819Y38392857D01*
X77604819Y38392857D02*
X77557200Y38488095D01*
X77557200Y38488095D02*
X77509580Y38535714D01*
X71209580Y38916667D02*
X71257200Y38964286D01*
X71257200Y38964286D02*
X71304819Y39107143D01*
X71304819Y39107143D02*
X71304819Y39202381D01*
X71304819Y39202381D02*
X71257200Y39345238D01*
X71257200Y39345238D02*
X71161961Y39440476D01*
X71161961Y39440476D02*
X71066723Y39488095D01*
X71066723Y39488095D02*
X70876247Y39535714D01*
X70876247Y39535714D02*
X70733390Y39535714D01*
X70733390Y39535714D02*
X70542914Y39488095D01*
X70542914Y39488095D02*
X70447676Y39440476D01*
X70447676Y39440476D02*
X70352438Y39345238D01*
X70352438Y39345238D02*
X70304819Y39202381D01*
X70304819Y39202381D02*
X70304819Y39107143D01*
X70304819Y39107143D02*
X70352438Y38964286D01*
X70352438Y38964286D02*
X70400057Y38916667D01*
X70638152Y38059524D02*
X71304819Y38059524D01*
X70257200Y38297619D02*
X70971485Y38535714D01*
X70971485Y38535714D02*
X70971485Y37916667D01*
X116934107Y17827920D02*
X116981726Y17780300D01*
X116981726Y17780300D02*
X117124583Y17732681D01*
X117124583Y17732681D02*
X117219821Y17732681D01*
X117219821Y17732681D02*
X117362678Y17780300D01*
X117362678Y17780300D02*
X117457916Y17875539D01*
X117457916Y17875539D02*
X117505535Y17970777D01*
X117505535Y17970777D02*
X117553154Y18161253D01*
X117553154Y18161253D02*
X117553154Y18304110D01*
X117553154Y18304110D02*
X117505535Y18494586D01*
X117505535Y18494586D02*
X117457916Y18589824D01*
X117457916Y18589824D02*
X117362678Y18685062D01*
X117362678Y18685062D02*
X117219821Y18732681D01*
X117219821Y18732681D02*
X117124583Y18732681D01*
X117124583Y18732681D02*
X116981726Y18685062D01*
X116981726Y18685062D02*
X116934107Y18637443D01*
X116553154Y18637443D02*
X116505535Y18685062D01*
X116505535Y18685062D02*
X116410297Y18732681D01*
X116410297Y18732681D02*
X116172202Y18732681D01*
X116172202Y18732681D02*
X116076964Y18685062D01*
X116076964Y18685062D02*
X116029345Y18637443D01*
X116029345Y18637443D02*
X115981726Y18542205D01*
X115981726Y18542205D02*
X115981726Y18446967D01*
X115981726Y18446967D02*
X116029345Y18304110D01*
X116029345Y18304110D02*
X116600773Y17732681D01*
X116600773Y17732681D02*
X115981726Y17732681D01*
X115410297Y18304110D02*
X115505535Y18351729D01*
X115505535Y18351729D02*
X115553154Y18399348D01*
X115553154Y18399348D02*
X115600773Y18494586D01*
X115600773Y18494586D02*
X115600773Y18542205D01*
X115600773Y18542205D02*
X115553154Y18637443D01*
X115553154Y18637443D02*
X115505535Y18685062D01*
X115505535Y18685062D02*
X115410297Y18732681D01*
X115410297Y18732681D02*
X115219821Y18732681D01*
X115219821Y18732681D02*
X115124583Y18685062D01*
X115124583Y18685062D02*
X115076964Y18637443D01*
X115076964Y18637443D02*
X115029345Y18542205D01*
X115029345Y18542205D02*
X115029345Y18494586D01*
X115029345Y18494586D02*
X115076964Y18399348D01*
X115076964Y18399348D02*
X115124583Y18351729D01*
X115124583Y18351729D02*
X115219821Y18304110D01*
X115219821Y18304110D02*
X115410297Y18304110D01*
X115410297Y18304110D02*
X115505535Y18256491D01*
X115505535Y18256491D02*
X115553154Y18208872D01*
X115553154Y18208872D02*
X115600773Y18113634D01*
X115600773Y18113634D02*
X115600773Y17923158D01*
X115600773Y17923158D02*
X115553154Y17827920D01*
X115553154Y17827920D02*
X115505535Y17780300D01*
X115505535Y17780300D02*
X115410297Y17732681D01*
X115410297Y17732681D02*
X115219821Y17732681D01*
X115219821Y17732681D02*
X115124583Y17780300D01*
X115124583Y17780300D02*
X115076964Y17827920D01*
X115076964Y17827920D02*
X115029345Y17923158D01*
X115029345Y17923158D02*
X115029345Y18113634D01*
X115029345Y18113634D02*
X115076964Y18208872D01*
X115076964Y18208872D02*
X115124583Y18256491D01*
X115124583Y18256491D02*
X115219821Y18304110D01*
X121009580Y38642858D02*
X121057200Y38690477D01*
X121057200Y38690477D02*
X121104819Y38833334D01*
X121104819Y38833334D02*
X121104819Y38928572D01*
X121104819Y38928572D02*
X121057200Y39071429D01*
X121057200Y39071429D02*
X120961961Y39166667D01*
X120961961Y39166667D02*
X120866723Y39214286D01*
X120866723Y39214286D02*
X120676247Y39261905D01*
X120676247Y39261905D02*
X120533390Y39261905D01*
X120533390Y39261905D02*
X120342914Y39214286D01*
X120342914Y39214286D02*
X120247676Y39166667D01*
X120247676Y39166667D02*
X120152438Y39071429D01*
X120152438Y39071429D02*
X120104819Y38928572D01*
X120104819Y38928572D02*
X120104819Y38833334D01*
X120104819Y38833334D02*
X120152438Y38690477D01*
X120152438Y38690477D02*
X120200057Y38642858D01*
X120104819Y38309524D02*
X120104819Y37690477D01*
X120104819Y37690477D02*
X120485771Y38023810D01*
X120485771Y38023810D02*
X120485771Y37880953D01*
X120485771Y37880953D02*
X120533390Y37785715D01*
X120533390Y37785715D02*
X120581009Y37738096D01*
X120581009Y37738096D02*
X120676247Y37690477D01*
X120676247Y37690477D02*
X120914342Y37690477D01*
X120914342Y37690477D02*
X121009580Y37738096D01*
X121009580Y37738096D02*
X121057200Y37785715D01*
X121057200Y37785715D02*
X121104819Y37880953D01*
X121104819Y37880953D02*
X121104819Y38166667D01*
X121104819Y38166667D02*
X121057200Y38261905D01*
X121057200Y38261905D02*
X121009580Y38309524D01*
X120104819Y37071429D02*
X120104819Y36976191D01*
X120104819Y36976191D02*
X120152438Y36880953D01*
X120152438Y36880953D02*
X120200057Y36833334D01*
X120200057Y36833334D02*
X120295295Y36785715D01*
X120295295Y36785715D02*
X120485771Y36738096D01*
X120485771Y36738096D02*
X120723866Y36738096D01*
X120723866Y36738096D02*
X120914342Y36785715D01*
X120914342Y36785715D02*
X121009580Y36833334D01*
X121009580Y36833334D02*
X121057200Y36880953D01*
X121057200Y36880953D02*
X121104819Y36976191D01*
X121104819Y36976191D02*
X121104819Y37071429D01*
X121104819Y37071429D02*
X121057200Y37166667D01*
X121057200Y37166667D02*
X121009580Y37214286D01*
X121009580Y37214286D02*
X120914342Y37261905D01*
X120914342Y37261905D02*
X120723866Y37309524D01*
X120723866Y37309524D02*
X120485771Y37309524D01*
X120485771Y37309524D02*
X120295295Y37261905D01*
X120295295Y37261905D02*
X120200057Y37214286D01*
X120200057Y37214286D02*
X120152438Y37166667D01*
X120152438Y37166667D02*
X120104819Y37071429D01*
X114709580Y38642858D02*
X114757200Y38690477D01*
X114757200Y38690477D02*
X114804819Y38833334D01*
X114804819Y38833334D02*
X114804819Y38928572D01*
X114804819Y38928572D02*
X114757200Y39071429D01*
X114757200Y39071429D02*
X114661961Y39166667D01*
X114661961Y39166667D02*
X114566723Y39214286D01*
X114566723Y39214286D02*
X114376247Y39261905D01*
X114376247Y39261905D02*
X114233390Y39261905D01*
X114233390Y39261905D02*
X114042914Y39214286D01*
X114042914Y39214286D02*
X113947676Y39166667D01*
X113947676Y39166667D02*
X113852438Y39071429D01*
X113852438Y39071429D02*
X113804819Y38928572D01*
X113804819Y38928572D02*
X113804819Y38833334D01*
X113804819Y38833334D02*
X113852438Y38690477D01*
X113852438Y38690477D02*
X113900057Y38642858D01*
X113900057Y38261905D02*
X113852438Y38214286D01*
X113852438Y38214286D02*
X113804819Y38119048D01*
X113804819Y38119048D02*
X113804819Y37880953D01*
X113804819Y37880953D02*
X113852438Y37785715D01*
X113852438Y37785715D02*
X113900057Y37738096D01*
X113900057Y37738096D02*
X113995295Y37690477D01*
X113995295Y37690477D02*
X114090533Y37690477D01*
X114090533Y37690477D02*
X114233390Y37738096D01*
X114233390Y37738096D02*
X114804819Y38309524D01*
X114804819Y38309524D02*
X114804819Y37690477D01*
X114804819Y37214286D02*
X114804819Y37023810D01*
X114804819Y37023810D02*
X114757200Y36928572D01*
X114757200Y36928572D02*
X114709580Y36880953D01*
X114709580Y36880953D02*
X114566723Y36785715D01*
X114566723Y36785715D02*
X114376247Y36738096D01*
X114376247Y36738096D02*
X113995295Y36738096D01*
X113995295Y36738096D02*
X113900057Y36785715D01*
X113900057Y36785715D02*
X113852438Y36833334D01*
X113852438Y36833334D02*
X113804819Y36928572D01*
X113804819Y36928572D02*
X113804819Y37119048D01*
X113804819Y37119048D02*
X113852438Y37214286D01*
X113852438Y37214286D02*
X113900057Y37261905D01*
X113900057Y37261905D02*
X113995295Y37309524D01*
X113995295Y37309524D02*
X114233390Y37309524D01*
X114233390Y37309524D02*
X114328628Y37261905D01*
X114328628Y37261905D02*
X114376247Y37214286D01*
X114376247Y37214286D02*
X114423866Y37119048D01*
X114423866Y37119048D02*
X114423866Y36928572D01*
X114423866Y36928572D02*
X114376247Y36833334D01*
X114376247Y36833334D02*
X114328628Y36785715D01*
X114328628Y36785715D02*
X114233390Y36738096D01*
X72657916Y18177920D02*
X72705535Y18130300D01*
X72705535Y18130300D02*
X72848392Y18082681D01*
X72848392Y18082681D02*
X72943630Y18082681D01*
X72943630Y18082681D02*
X73086487Y18130300D01*
X73086487Y18130300D02*
X73181725Y18225539D01*
X73181725Y18225539D02*
X73229344Y18320777D01*
X73229344Y18320777D02*
X73276963Y18511253D01*
X73276963Y18511253D02*
X73276963Y18654110D01*
X73276963Y18654110D02*
X73229344Y18844586D01*
X73229344Y18844586D02*
X73181725Y18939824D01*
X73181725Y18939824D02*
X73086487Y19035062D01*
X73086487Y19035062D02*
X72943630Y19082681D01*
X72943630Y19082681D02*
X72848392Y19082681D01*
X72848392Y19082681D02*
X72705535Y19035062D01*
X72705535Y19035062D02*
X72657916Y18987443D01*
X72324582Y19082681D02*
X71705535Y19082681D01*
X71705535Y19082681D02*
X72038868Y18701729D01*
X72038868Y18701729D02*
X71896011Y18701729D01*
X71896011Y18701729D02*
X71800773Y18654110D01*
X71800773Y18654110D02*
X71753154Y18606491D01*
X71753154Y18606491D02*
X71705535Y18511253D01*
X71705535Y18511253D02*
X71705535Y18273158D01*
X71705535Y18273158D02*
X71753154Y18177920D01*
X71753154Y18177920D02*
X71800773Y18130300D01*
X71800773Y18130300D02*
X71896011Y18082681D01*
X71896011Y18082681D02*
X72181725Y18082681D01*
X72181725Y18082681D02*
X72276963Y18130300D01*
X72276963Y18130300D02*
X72324582Y18177920D01*
X73174819Y25392858D02*
X72698628Y25726191D01*
X73174819Y25964286D02*
X72174819Y25964286D01*
X72174819Y25964286D02*
X72174819Y25583334D01*
X72174819Y25583334D02*
X72222438Y25488096D01*
X72222438Y25488096D02*
X72270057Y25440477D01*
X72270057Y25440477D02*
X72365295Y25392858D01*
X72365295Y25392858D02*
X72508152Y25392858D01*
X72508152Y25392858D02*
X72603390Y25440477D01*
X72603390Y25440477D02*
X72651009Y25488096D01*
X72651009Y25488096D02*
X72698628Y25583334D01*
X72698628Y25583334D02*
X72698628Y25964286D01*
X73174819Y24440477D02*
X73174819Y25011905D01*
X73174819Y24726191D02*
X72174819Y24726191D01*
X72174819Y24726191D02*
X72317676Y24821429D01*
X72317676Y24821429D02*
X72412914Y24916667D01*
X72412914Y24916667D02*
X72460533Y25011905D01*
X73174819Y23964286D02*
X73174819Y23773810D01*
X73174819Y23773810D02*
X73127200Y23678572D01*
X73127200Y23678572D02*
X73079580Y23630953D01*
X73079580Y23630953D02*
X72936723Y23535715D01*
X72936723Y23535715D02*
X72746247Y23488096D01*
X72746247Y23488096D02*
X72365295Y23488096D01*
X72365295Y23488096D02*
X72270057Y23535715D01*
X72270057Y23535715D02*
X72222438Y23583334D01*
X72222438Y23583334D02*
X72174819Y23678572D01*
X72174819Y23678572D02*
X72174819Y23869048D01*
X72174819Y23869048D02*
X72222438Y23964286D01*
X72222438Y23964286D02*
X72270057Y24011905D01*
X72270057Y24011905D02*
X72365295Y24059524D01*
X72365295Y24059524D02*
X72603390Y24059524D01*
X72603390Y24059524D02*
X72698628Y24011905D01*
X72698628Y24011905D02*
X72746247Y23964286D01*
X72746247Y23964286D02*
X72793866Y23869048D01*
X72793866Y23869048D02*
X72793866Y23678572D01*
X72793866Y23678572D02*
X72746247Y23583334D01*
X72746247Y23583334D02*
X72698628Y23535715D01*
X72698628Y23535715D02*
X72603390Y23488096D01*
X68309580Y25405358D02*
X68357200Y25452977D01*
X68357200Y25452977D02*
X68404819Y25595834D01*
X68404819Y25595834D02*
X68404819Y25691072D01*
X68404819Y25691072D02*
X68357200Y25833929D01*
X68357200Y25833929D02*
X68261961Y25929167D01*
X68261961Y25929167D02*
X68166723Y25976786D01*
X68166723Y25976786D02*
X67976247Y26024405D01*
X67976247Y26024405D02*
X67833390Y26024405D01*
X67833390Y26024405D02*
X67642914Y25976786D01*
X67642914Y25976786D02*
X67547676Y25929167D01*
X67547676Y25929167D02*
X67452438Y25833929D01*
X67452438Y25833929D02*
X67404819Y25691072D01*
X67404819Y25691072D02*
X67404819Y25595834D01*
X67404819Y25595834D02*
X67452438Y25452977D01*
X67452438Y25452977D02*
X67500057Y25405358D01*
X67404819Y24500596D02*
X67404819Y24976786D01*
X67404819Y24976786D02*
X67881009Y25024405D01*
X67881009Y25024405D02*
X67833390Y24976786D01*
X67833390Y24976786D02*
X67785771Y24881548D01*
X67785771Y24881548D02*
X67785771Y24643453D01*
X67785771Y24643453D02*
X67833390Y24548215D01*
X67833390Y24548215D02*
X67881009Y24500596D01*
X67881009Y24500596D02*
X67976247Y24452977D01*
X67976247Y24452977D02*
X68214342Y24452977D01*
X68214342Y24452977D02*
X68309580Y24500596D01*
X68309580Y24500596D02*
X68357200Y24548215D01*
X68357200Y24548215D02*
X68404819Y24643453D01*
X68404819Y24643453D02*
X68404819Y24881548D01*
X68404819Y24881548D02*
X68357200Y24976786D01*
X68357200Y24976786D02*
X68309580Y25024405D01*
X67404819Y24119643D02*
X67404819Y23500596D01*
X67404819Y23500596D02*
X67785771Y23833929D01*
X67785771Y23833929D02*
X67785771Y23691072D01*
X67785771Y23691072D02*
X67833390Y23595834D01*
X67833390Y23595834D02*
X67881009Y23548215D01*
X67881009Y23548215D02*
X67976247Y23500596D01*
X67976247Y23500596D02*
X68214342Y23500596D01*
X68214342Y23500596D02*
X68309580Y23548215D01*
X68309580Y23548215D02*
X68357200Y23595834D01*
X68357200Y23595834D02*
X68404819Y23691072D01*
X68404819Y23691072D02*
X68404819Y23976786D01*
X68404819Y23976786D02*
X68357200Y24072024D01*
X68357200Y24072024D02*
X68309580Y24119643D01*
D12*
G36*
X37134531Y59869286D02*
G01*
X37134532Y59684515D01*
X37134545Y59374909D01*
X37134559Y59087134D01*
X37134556Y58820345D01*
X37134518Y58573697D01*
X37134427Y58346345D01*
X37134268Y58137444D01*
X37134021Y57946148D01*
X37133669Y57771612D01*
X37133196Y57612990D01*
X37132583Y57469438D01*
X37131814Y57340111D01*
X37130871Y57224162D01*
X37129735Y57120747D01*
X37128391Y57029020D01*
X37126820Y56948137D01*
X37125005Y56877252D01*
X37122929Y56815519D01*
X37120574Y56762094D01*
X37117922Y56716131D01*
X37114957Y56676785D01*
X37111661Y56643210D01*
X37108016Y56614562D01*
X37104004Y56589995D01*
X37099610Y56568664D01*
X37094814Y56549724D01*
X37089600Y56532329D01*
X37083951Y56515634D01*
X37077848Y56498794D01*
X37071274Y56480964D01*
X37064212Y56461298D01*
X37034027Y56383802D01*
X36959464Y56238123D01*
X36867066Y56104817D01*
X36758671Y55985347D01*
X36636117Y55881177D01*
X36501241Y55793768D01*
X36355881Y55724585D01*
X36201875Y55675089D01*
X36041060Y55646745D01*
X36030453Y55646167D01*
X35995889Y55645330D01*
X35939899Y55644531D01*
X35863520Y55643771D01*
X35767789Y55643049D01*
X35653742Y55642367D01*
X35522416Y55641723D01*
X35374848Y55641119D01*
X35212074Y55640554D01*
X35035132Y55640027D01*
X34845057Y55639540D01*
X34642888Y55639092D01*
X34429660Y55638682D01*
X34206410Y55638313D01*
X33974175Y55637982D01*
X33733993Y55637690D01*
X33486898Y55637438D01*
X33233929Y55637226D01*
X32976122Y55637052D01*
X32714513Y55636918D01*
X32450140Y55636823D01*
X32184040Y55636768D01*
X31917248Y55636753D01*
X31650802Y55636776D01*
X31385738Y55636840D01*
X31123094Y55636943D01*
X30863905Y55637086D01*
X30609209Y55637268D01*
X30360043Y55637490D01*
X30117442Y55637752D01*
X29882445Y55638053D01*
X29656087Y55638395D01*
X29439406Y55638776D01*
X29233437Y55639197D01*
X29039219Y55639658D01*
X28857787Y55640159D01*
X28690178Y55640700D01*
X28537430Y55641281D01*
X28400578Y55641902D01*
X28280660Y55642563D01*
X28178712Y55643265D01*
X28095772Y55644006D01*
X28032875Y55644788D01*
X27991059Y55645610D01*
X27971360Y55646472D01*
X27931374Y55651252D01*
X27802480Y55675338D01*
X27680051Y55713348D01*
X27554587Y55768054D01*
X27499232Y55796501D01*
X27388893Y55863039D01*
X27291507Y55937738D01*
X27200035Y56025713D01*
X27124345Y56114098D01*
X27031715Y56252137D01*
X26956698Y56404860D01*
X26899038Y56572727D01*
X26871542Y56671132D01*
X26868483Y59817189D01*
X26866189Y62176009D01*
X27514067Y62176009D01*
X27514366Y59562494D01*
X27514665Y56948980D01*
X27540547Y56873060D01*
X27559156Y56824733D01*
X27617857Y56716163D01*
X27694652Y56619207D01*
X27786825Y56536964D01*
X27891661Y56472531D01*
X27981734Y56428014D01*
X31987987Y56425503D01*
X32015844Y56425485D01*
X32376046Y56425263D01*
X32713877Y56425063D01*
X33030065Y56424890D01*
X33325339Y56424746D01*
X33600426Y56424635D01*
X33856056Y56424560D01*
X34092956Y56424525D01*
X34311855Y56424532D01*
X34513481Y56424586D01*
X34698563Y56424690D01*
X34867829Y56424847D01*
X35022007Y56425061D01*
X35161825Y56425334D01*
X35288013Y56425670D01*
X35401297Y56426074D01*
X35502408Y56426547D01*
X35592072Y56427093D01*
X35671019Y56427716D01*
X35739976Y56428420D01*
X35799673Y56429206D01*
X35850837Y56430080D01*
X35894196Y56431044D01*
X35930480Y56432101D01*
X35960416Y56433256D01*
X35984733Y56434511D01*
X36004159Y56435869D01*
X36019422Y56437335D01*
X36031251Y56438911D01*
X36040375Y56440601D01*
X36047520Y56442408D01*
X36053417Y56444336D01*
X36085992Y56456954D01*
X36157761Y56493134D01*
X36223668Y56540661D01*
X36291131Y56604534D01*
X36328227Y56644480D01*
X36388560Y56718065D01*
X36435311Y56789788D01*
X36472858Y56865952D01*
X36503404Y56937403D01*
X36507212Y59556706D01*
X36511020Y62176009D01*
X32012543Y62176009D01*
X27514067Y62176009D01*
X26866189Y62176009D01*
X26865424Y62963247D01*
X32000001Y62963247D01*
X37134577Y62963247D01*
X37134565Y62176009D01*
X37134531Y59869286D01*
G37*
G36*
X34436561Y59204478D02*
G01*
X34511441Y59190738D01*
X34570789Y59162398D01*
X34617274Y59117939D01*
X34653568Y59055841D01*
X34654344Y59054077D01*
X34658066Y59044060D01*
X34661310Y59031430D01*
X34664116Y59014607D01*
X34666524Y58992010D01*
X34668573Y58962060D01*
X34670301Y58923177D01*
X34671749Y58873779D01*
X34672955Y58812289D01*
X34673959Y58737124D01*
X34674801Y58646706D01*
X34675519Y58539454D01*
X34676153Y58413788D01*
X34676742Y58268128D01*
X34677326Y58100895D01*
X34677451Y58064522D01*
X34678033Y57922021D01*
X34678726Y57786098D01*
X34679514Y57658594D01*
X34680380Y57541352D01*
X34681305Y57436213D01*
X34682274Y57345019D01*
X34683267Y57269611D01*
X34684269Y57211833D01*
X34685261Y57173524D01*
X34686226Y57156528D01*
X34696333Y57128414D01*
X34724971Y57088526D01*
X34765836Y57051356D01*
X34813383Y57022737D01*
X34824255Y57018330D01*
X34876252Y57006086D01*
X34936688Y57001588D01*
X34995573Y57005094D01*
X35042917Y57016858D01*
X35047386Y57018832D01*
X35093058Y57050156D01*
X35137821Y57099142D01*
X35177940Y57160999D01*
X35209685Y57230937D01*
X35234671Y57288885D01*
X35279514Y57356506D01*
X35334835Y57403938D01*
X35401508Y57431856D01*
X35480406Y57440939D01*
X35499739Y57440441D01*
X35576273Y57427192D01*
X35638216Y57396646D01*
X35685041Y57349774D01*
X35716218Y57287543D01*
X35731221Y57210924D01*
X35729522Y57120886D01*
X35710591Y57018398D01*
X35687867Y56944571D01*
X35656594Y56878011D01*
X35613679Y56816786D01*
X35554551Y56753125D01*
X35528702Y56728844D01*
X35423109Y56649113D01*
X35305535Y56589029D01*
X35175706Y56548475D01*
X35033347Y56527332D01*
X35015941Y56526077D01*
X34859355Y56523611D01*
X34717346Y56538484D01*
X34588825Y56571057D01*
X34472701Y56621689D01*
X34367882Y56690742D01*
X34273278Y56778576D01*
X34238939Y56818309D01*
X34186835Y56895650D01*
X34153006Y56976662D01*
X34134617Y57067254D01*
X34134379Y57069459D01*
X34132693Y57098692D01*
X34131184Y57148996D01*
X34129866Y57218536D01*
X34128751Y57305475D01*
X34127853Y57407976D01*
X34127187Y57524203D01*
X34126765Y57652318D01*
X34126601Y57790487D01*
X34126709Y57936871D01*
X34127101Y58089634D01*
X34130339Y59021902D01*
X34159914Y59079364D01*
X34194855Y59130546D01*
X34239056Y59171664D01*
X34255684Y59182952D01*
X34279348Y59195744D01*
X34304668Y59202804D01*
X34338806Y59205791D01*
X34388925Y59206362D01*
X34436561Y59204478D01*
G37*
G36*
X30376809Y59405018D02*
G01*
X30411372Y59337728D01*
X30437358Y59286140D01*
X30453938Y59251799D01*
X30460284Y59236252D01*
X30462397Y59219355D01*
X30457095Y59153284D01*
X30432063Y59091816D01*
X30389987Y59039906D01*
X30333552Y59002510D01*
X30326227Y58999375D01*
X30311434Y58994417D01*
X30292938Y58990444D01*
X30268306Y58987345D01*
X30235107Y58985012D01*
X30190910Y58983336D01*
X30133284Y58982206D01*
X30059798Y58981513D01*
X29968021Y58981149D01*
X29855521Y58981003D01*
X29846372Y58980996D01*
X29749624Y58980667D01*
X29660794Y58979920D01*
X29582420Y58978811D01*
X29517041Y58977392D01*
X29467198Y58975719D01*
X29435430Y58973844D01*
X29424277Y58971823D01*
X29425152Y58966503D01*
X29430029Y58940681D01*
X29438863Y58895181D01*
X29451285Y58831862D01*
X29466928Y58752586D01*
X29485423Y58659211D01*
X29506403Y58553598D01*
X29529498Y58437608D01*
X29554342Y58313100D01*
X29580566Y58181934D01*
X29596453Y58102395D01*
X29621953Y57974037D01*
X29645836Y57852985D01*
X29667731Y57741163D01*
X29687268Y57640494D01*
X29704075Y57552902D01*
X29717783Y57480312D01*
X29728020Y57424646D01*
X29734417Y57387830D01*
X29736602Y57371785D01*
X29736361Y57365120D01*
X29723246Y57311244D01*
X29693584Y57257768D01*
X29652151Y57211595D01*
X29603721Y57179628D01*
X29588696Y57174456D01*
X29549429Y57166813D01*
X29506333Y57163608D01*
X29491923Y57163192D01*
X29476731Y57162463D01*
X29462718Y57162367D01*
X29449195Y57163844D01*
X29435473Y57167833D01*
X29420863Y57175275D01*
X29404676Y57187109D01*
X29386224Y57204274D01*
X29364817Y57227711D01*
X29339768Y57258358D01*
X29310386Y57297157D01*
X29275984Y57345046D01*
X29235872Y57402965D01*
X29189362Y57471854D01*
X29135764Y57552652D01*
X29074391Y57646300D01*
X29004553Y57753736D01*
X28925561Y57875901D01*
X28836727Y58013735D01*
X28737362Y58168176D01*
X28626777Y58340165D01*
X28504283Y58530642D01*
X28390117Y58708159D01*
X28280646Y58878497D01*
X28182543Y59031316D01*
X28095191Y59167612D01*
X28017971Y59288376D01*
X27950267Y59394602D01*
X27891463Y59487284D01*
X27840940Y59567415D01*
X27798082Y59635988D01*
X27762272Y59693997D01*
X27756003Y59704332D01*
X28289728Y59704332D01*
X28294485Y59696000D01*
X28310721Y59669732D01*
X28337425Y59627246D01*
X28373500Y59570267D01*
X28417848Y59500520D01*
X28469371Y59419731D01*
X28526973Y59329627D01*
X28589555Y59231933D01*
X28656020Y59128375D01*
X28704303Y59053216D01*
X28777739Y58938922D01*
X28840096Y58841912D01*
X28892280Y58760799D01*
X28935196Y58694194D01*
X28969750Y58640710D01*
X28996847Y58598957D01*
X29017393Y58567549D01*
X29032294Y58545096D01*
X29042455Y58530211D01*
X29048782Y58521505D01*
X29052180Y58517590D01*
X29053555Y58517079D01*
X29053812Y58518582D01*
X29053774Y58518982D01*
X29051033Y58534195D01*
X29044371Y58568775D01*
X29034371Y58619776D01*
X29021611Y58684250D01*
X29006673Y58759249D01*
X28990138Y58841824D01*
X28989447Y58845269D01*
X28972731Y58930407D01*
X28957694Y59010330D01*
X28944941Y59081546D01*
X28935081Y59140564D01*
X28928720Y59183894D01*
X28926464Y59208045D01*
X28928813Y59245818D01*
X28946099Y59304393D01*
X28982192Y59355142D01*
X28991099Y59364527D01*
X29008022Y59381318D01*
X29024933Y59394776D01*
X29044405Y59405300D01*
X29069014Y59413284D01*
X29101332Y59419126D01*
X29143934Y59423222D01*
X29199394Y59425968D01*
X29270284Y59427761D01*
X29359180Y59428997D01*
X29468655Y59430073D01*
X29491582Y59430294D01*
X29597882Y59431574D01*
X29683009Y59433118D01*
X29748626Y59435000D01*
X29796393Y59437298D01*
X29827974Y59440086D01*
X29845031Y59443441D01*
X29849225Y59447438D01*
X29844626Y59457729D01*
X29829524Y59487992D01*
X29806042Y59533129D01*
X29775471Y59590789D01*
X29739102Y59658621D01*
X29698225Y59734275D01*
X29654131Y59815402D01*
X29608111Y59899649D01*
X29561457Y59984668D01*
X29515459Y60068106D01*
X29471408Y60147615D01*
X29430595Y60220843D01*
X29394311Y60285441D01*
X29363847Y60339057D01*
X29340494Y60379341D01*
X29325542Y60403943D01*
X29320283Y60410512D01*
X29321041Y60398449D01*
X29324120Y60365318D01*
X29329146Y60316740D01*
X29335669Y60257041D01*
X29343237Y60190548D01*
X29343908Y60184758D01*
X29354266Y60091040D01*
X29361179Y60016872D01*
X29364660Y59959083D01*
X29364719Y59914503D01*
X29361366Y59879960D01*
X29354613Y59852284D01*
X29344469Y59828305D01*
X29322386Y59791426D01*
X29286453Y59755076D01*
X29236098Y59727909D01*
X29224344Y59723914D01*
X29205661Y59720015D01*
X29179575Y59716898D01*
X29143837Y59714484D01*
X29096196Y59712690D01*
X29034402Y59711436D01*
X28956206Y59710641D01*
X28859356Y59710223D01*
X28741604Y59710102D01*
X28715177Y59710092D01*
X28617188Y59709878D01*
X28527468Y59709408D01*
X28448497Y59708714D01*
X28382757Y59707828D01*
X28332728Y59706781D01*
X28300891Y59705605D01*
X28289728Y59704332D01*
X27756003Y59704332D01*
X27732892Y59742434D01*
X27709326Y59782293D01*
X27690956Y59814568D01*
X27677165Y59840252D01*
X27667337Y59860337D01*
X27660853Y59875818D01*
X27657098Y59887687D01*
X27655453Y59896938D01*
X27654968Y59902270D01*
X27655347Y59971925D01*
X27670767Y60028361D01*
X27702584Y60076750D01*
X27710286Y60085524D01*
X27724187Y60100551D01*
X27738366Y60113043D01*
X27754905Y60123233D01*
X27775883Y60131356D01*
X27803378Y60137645D01*
X27839471Y60142336D01*
X27886241Y60145663D01*
X27945768Y60147859D01*
X28020131Y60149160D01*
X28111409Y60149799D01*
X28221682Y60150010D01*
X28353030Y60150029D01*
X28388596Y60150030D01*
X28508461Y60150091D01*
X28607642Y60150294D01*
X28688094Y60150717D01*
X28751768Y60151435D01*
X28800617Y60152527D01*
X28836594Y60154068D01*
X28861651Y60156136D01*
X28877741Y60158807D01*
X28886816Y60162158D01*
X28890829Y60166266D01*
X28891733Y60171207D01*
X28890757Y60183293D01*
X28887400Y60216858D01*
X28881871Y60269498D01*
X28874397Y60339122D01*
X28865207Y60423636D01*
X28854527Y60520947D01*
X28842587Y60628960D01*
X28829613Y60745583D01*
X28815833Y60868723D01*
X28804339Y60972274D01*
X28791350Y61092184D01*
X28779507Y61204702D01*
X28769025Y61307598D01*
X28760121Y61398641D01*
X28753014Y61475602D01*
X28747919Y61536252D01*
X28745055Y61578361D01*
X28744638Y61599700D01*
X28748052Y61623505D01*
X28771454Y61685393D01*
X28812674Y61735825D01*
X28868643Y61771753D01*
X28936291Y61790129D01*
X28951680Y61791423D01*
X29016564Y61786129D01*
X29075997Y61765244D01*
X29122473Y61731146D01*
X29124681Y61728302D01*
X29138164Y61706772D01*
X29161311Y61666927D01*
X29193293Y61610313D01*
X29233280Y61538476D01*
X29280443Y61452964D01*
X29333954Y61355321D01*
X29392983Y61247094D01*
X29456701Y61129829D01*
X29524279Y61005073D01*
X29594887Y60874371D01*
X29667698Y60739270D01*
X29741881Y60601316D01*
X29816608Y60462055D01*
X29891049Y60323034D01*
X29964376Y60185798D01*
X30035759Y60051893D01*
X30104369Y59922866D01*
X30169377Y59800264D01*
X30229954Y59685632D01*
X30285272Y59580516D01*
X30334500Y59486462D01*
X30354772Y59447438D01*
X30376809Y59405018D01*
G37*
G36*
X33677964Y59191214D02*
G01*
X33745244Y59152146D01*
X33800482Y59094559D01*
X33835124Y59046737D01*
X33835124Y58262973D01*
X33835124Y57479209D01*
X33799703Y57430312D01*
X33765505Y57393099D01*
X33704193Y57353437D01*
X33663016Y57337817D01*
X33583215Y57325191D01*
X33503479Y57333482D01*
X33428350Y57361943D01*
X33362373Y57409822D01*
X33349909Y57421519D01*
X33337554Y57433448D01*
X33327055Y57445553D01*
X33318262Y57459602D01*
X33311023Y57477362D01*
X33305189Y57500601D01*
X33300609Y57531086D01*
X33297132Y57570584D01*
X33294609Y57620864D01*
X33292889Y57683692D01*
X33291821Y57760836D01*
X33291256Y57854065D01*
X33291042Y57965144D01*
X33291030Y58095842D01*
X33291069Y58247927D01*
X33291074Y58272989D01*
X33291325Y58444343D01*
X33291950Y58593028D01*
X33292957Y58719468D01*
X33294352Y58824088D01*
X33296142Y58907311D01*
X33298334Y58969562D01*
X33300935Y59011265D01*
X33303953Y59032845D01*
X33309042Y59047544D01*
X33337236Y59095424D01*
X33378922Y59141229D01*
X33427471Y59178502D01*
X33476257Y59200783D01*
X33519783Y59209697D01*
X33601768Y59210739D01*
X33677964Y59191214D01*
G37*
G36*
X32521132Y59225360D02*
G01*
X32595027Y59215428D01*
X32675691Y59198171D01*
X32742040Y59174448D01*
X32798968Y59142401D01*
X32851371Y59100177D01*
X32893165Y59058389D01*
X32935972Y59004853D01*
X32969431Y58946566D01*
X32994873Y58879878D01*
X33013628Y58801140D01*
X33027029Y58706703D01*
X33036406Y58592918D01*
X33039004Y58542290D01*
X33041548Y58470381D01*
X33043628Y58386470D01*
X33045245Y58293486D01*
X33046400Y58194359D01*
X33047094Y58092019D01*
X33047327Y57989393D01*
X33047100Y57889412D01*
X33046414Y57795006D01*
X33045270Y57709102D01*
X33043668Y57634631D01*
X33041609Y57574521D01*
X33039094Y57531703D01*
X33036124Y57509104D01*
X33014727Y57455779D01*
X32971487Y57400222D01*
X32908880Y57356533D01*
X32904954Y57354473D01*
X32869942Y57337746D01*
X32840123Y57328948D01*
X32806096Y57326295D01*
X32758461Y57328004D01*
X32754603Y57328237D01*
X32670980Y57341007D01*
X32603997Y57368390D01*
X32551393Y57411704D01*
X32510909Y57472266D01*
X32509109Y57476131D01*
X32505031Y57488341D01*
X32501654Y57505512D01*
X32498913Y57529665D01*
X32496746Y57562822D01*
X32495087Y57607004D01*
X32493873Y57664232D01*
X32493040Y57736529D01*
X32492525Y57825914D01*
X32492262Y57934411D01*
X32492189Y58064040D01*
X32492189Y58618763D01*
X32438193Y58660832D01*
X32412034Y58680393D01*
X32382473Y58697696D01*
X32355987Y58704229D01*
X32324390Y58703027D01*
X32308993Y58699817D01*
X32269072Y58683686D01*
X32228221Y58659651D01*
X32196975Y58633464D01*
X32193757Y58629700D01*
X32188945Y58622260D01*
X32184944Y58611838D01*
X32181659Y58596416D01*
X32178998Y58573978D01*
X32176865Y58542505D01*
X32175169Y58499982D01*
X32173814Y58444390D01*
X32172709Y58373713D01*
X32171758Y58285933D01*
X32170868Y58179035D01*
X32169947Y58050999D01*
X32169817Y58032428D01*
X32168879Y57906745D01*
X32167931Y57801860D01*
X32166882Y57715697D01*
X32165643Y57646180D01*
X32164125Y57591230D01*
X32162239Y57548772D01*
X32159896Y57516729D01*
X32157005Y57493025D01*
X32153479Y57475582D01*
X32149227Y57462324D01*
X32144161Y57451174D01*
X32126782Y57423074D01*
X32080336Y57377314D01*
X32022031Y57346061D01*
X31955949Y57329247D01*
X31886171Y57326805D01*
X31816779Y57338666D01*
X31751852Y57364762D01*
X31695473Y57405025D01*
X31651723Y57459387D01*
X31623912Y57506712D01*
X31623912Y58058668D01*
X31623912Y58610624D01*
X31586287Y58651585D01*
X31555708Y58678567D01*
X31503111Y58702877D01*
X31447317Y58705938D01*
X31391870Y58687796D01*
X31340314Y58648494D01*
X31299755Y58606732D01*
X31299755Y58047922D01*
X31299755Y57489112D01*
X31262023Y57439642D01*
X31257168Y57433469D01*
X31202541Y57382604D01*
X31137481Y57348394D01*
X31066047Y57330545D01*
X30992296Y57328760D01*
X30920288Y57342748D01*
X30854080Y57372212D01*
X30797731Y57416859D01*
X30755299Y57476394D01*
X30752331Y57482428D01*
X30747215Y57494957D01*
X30743063Y57510098D01*
X30739775Y57530132D01*
X30737253Y57557343D01*
X30735398Y57594013D01*
X30734110Y57642425D01*
X30733292Y57704860D01*
X30732844Y57783602D01*
X30732668Y57880932D01*
X30732664Y57999134D01*
X30732809Y58094484D01*
X30733638Y58240205D01*
X30735377Y58366109D01*
X30738231Y58474297D01*
X30742404Y58566869D01*
X30748100Y58645924D01*
X30755526Y58713565D01*
X30764885Y58771890D01*
X30776382Y58823000D01*
X30790222Y58868995D01*
X30806609Y58911976D01*
X30825749Y58954043D01*
X30836514Y58974491D01*
X30885779Y59044597D01*
X30948060Y59107161D01*
X31017669Y59157099D01*
X31088918Y59189325D01*
X31182471Y59212674D01*
X31301836Y59228630D01*
X31422530Y59231107D01*
X31540250Y59220535D01*
X31650691Y59197345D01*
X31749545Y59161969D01*
X31832509Y59114838D01*
X31891005Y59072813D01*
X31928220Y59100737D01*
X31939984Y59109283D01*
X32031986Y59161189D01*
X32139438Y59199451D01*
X32259004Y59223367D01*
X32387347Y59232238D01*
X32521132Y59225360D01*
G37*
G36*
X35658348Y61176627D02*
G01*
X35726552Y61169015D01*
X35781327Y61157610D01*
X35889231Y61125095D01*
X35989806Y61081797D01*
X36077867Y61030132D01*
X36148231Y60972516D01*
X36183332Y60930607D01*
X36226757Y60854375D01*
X36259626Y60765120D01*
X36280958Y60667810D01*
X36289771Y60567414D01*
X36285081Y60468900D01*
X36265908Y60377236D01*
X36264377Y60372350D01*
X36244942Y60322619D01*
X36218455Y60279310D01*
X36178979Y60232541D01*
X36171359Y60224440D01*
X36134459Y60189072D01*
X36093979Y60157490D01*
X36047199Y60128444D01*
X35991400Y60100687D01*
X35923862Y60072969D01*
X35841865Y60044041D01*
X35742690Y60012656D01*
X35623618Y59977564D01*
X35594204Y59968278D01*
X35526894Y59939734D01*
X35472831Y59905969D01*
X35434435Y59869097D01*
X35414126Y59831235D01*
X35414323Y59794499D01*
X35429477Y59769097D01*
X35466160Y59745833D01*
X35523018Y59732024D01*
X35600621Y59727467D01*
X35647048Y59728454D01*
X35696895Y59734367D01*
X35737391Y59748224D01*
X35773926Y59772956D01*
X35811892Y59811496D01*
X35856676Y59866777D01*
X35901027Y59919844D01*
X35949038Y59963931D01*
X35998334Y59991887D01*
X36054228Y60006600D01*
X36122029Y60010955D01*
X36192279Y60004261D01*
X36262294Y59979625D01*
X36317292Y59938186D01*
X36356017Y59881332D01*
X36377210Y59810451D01*
X36379613Y59726930D01*
X36377648Y59709251D01*
X36354805Y59627060D01*
X36310696Y59550248D01*
X36246567Y59479796D01*
X36163666Y59416689D01*
X36063239Y59361910D01*
X35946534Y59316444D01*
X35814796Y59281273D01*
X35754155Y59270614D01*
X35647802Y59260726D01*
X35536253Y59259601D01*
X35424986Y59266804D01*
X35319481Y59281902D01*
X35225214Y59304463D01*
X35147663Y59334052D01*
X35123518Y59347393D01*
X35063338Y59391453D01*
X35003974Y59447864D01*
X34951839Y59510117D01*
X34913351Y59571707D01*
X34873200Y59673889D01*
X34848757Y59794169D01*
X34844399Y59922204D01*
X34845206Y59938920D01*
X34849129Y59989167D01*
X34856040Y60026981D01*
X34867970Y60060807D01*
X34886952Y60099091D01*
X34904614Y60129727D01*
X34952310Y60194234D01*
X35011479Y60251118D01*
X35084456Y60301869D01*
X35173577Y60347975D01*
X35281180Y60390925D01*
X35409600Y60432209D01*
X35415569Y60433960D01*
X35475457Y60451493D01*
X35538565Y60469930D01*
X35592174Y60485554D01*
X35637454Y60501043D01*
X35692510Y60528401D01*
X35731389Y60559203D01*
X35752447Y60591515D01*
X35754040Y60623403D01*
X35734523Y60652936D01*
X35707098Y60671901D01*
X35653167Y60692807D01*
X35591190Y60703584D01*
X35529342Y60703058D01*
X35475796Y60690057D01*
X35463692Y60683751D01*
X35431730Y60662730D01*
X35391699Y60632909D01*
X35349498Y60598562D01*
X35326366Y60579548D01*
X35283381Y60547345D01*
X35245041Y60522275D01*
X35217568Y60508583D01*
X35174257Y60500375D01*
X35112886Y60500668D01*
X35050307Y60510908D01*
X34996681Y60530104D01*
X34986156Y60535727D01*
X34927247Y60579928D01*
X34887799Y60634437D01*
X34867865Y60697224D01*
X34867499Y60766260D01*
X34886757Y60839515D01*
X34925692Y60914959D01*
X34984360Y60990561D01*
X35049429Y61049555D01*
X35135517Y61101388D01*
X35237686Y61139658D01*
X35357121Y61164801D01*
X35495012Y61177250D01*
X35571733Y61179038D01*
X35658348Y61176627D01*
G37*
G36*
X34492802Y62036722D02*
G01*
X34557901Y62012860D01*
X34609575Y61976860D01*
X34619452Y61966670D01*
X34643778Y61936905D01*
X34658381Y61912139D01*
X34658671Y61911318D01*
X34662565Y61888268D01*
X34665743Y61847902D01*
X34667885Y61795676D01*
X34668670Y61737044D01*
X34668670Y61589012D01*
X34763298Y61581715D01*
X34781901Y61580048D01*
X34849940Y61567901D01*
X34901243Y61545843D01*
X34940190Y61511349D01*
X34971165Y61461891D01*
X34973236Y61457511D01*
X34990129Y61402626D01*
X34998556Y61336359D01*
X34998477Y61266927D01*
X34989852Y61202549D01*
X34972644Y61151442D01*
X34955676Y61121806D01*
X34919366Y61078220D01*
X34874353Y61049868D01*
X34816358Y61034505D01*
X34741103Y61029883D01*
X34668670Y61029883D01*
X34668627Y60222385D01*
X34668602Y60072985D01*
X34668511Y59937055D01*
X34668311Y59821011D01*
X34667955Y59723176D01*
X34667400Y59641876D01*
X34666601Y59575436D01*
X34665512Y59522182D01*
X34664089Y59480437D01*
X34662287Y59448528D01*
X34660062Y59424780D01*
X34657368Y59407516D01*
X34654160Y59395064D01*
X34650394Y59385747D01*
X34646026Y59377891D01*
X34626062Y59350793D01*
X34582425Y59314934D01*
X34520958Y59286648D01*
X34498312Y59280556D01*
X34453598Y59273600D01*
X34406749Y59270683D01*
X34386022Y59271013D01*
X34305398Y59282457D01*
X34236742Y59309081D01*
X34182873Y59349458D01*
X34146609Y59402165D01*
X34144627Y59406705D01*
X34140673Y59417617D01*
X34137287Y59431102D01*
X34134425Y59448875D01*
X34132042Y59472651D01*
X34130094Y59504144D01*
X34128537Y59545071D01*
X34127324Y59597145D01*
X34126413Y59662083D01*
X34125758Y59741599D01*
X34125314Y59837409D01*
X34125037Y59951227D01*
X34124882Y60084770D01*
X34124804Y60239751D01*
X34124550Y61029883D01*
X34034200Y61029883D01*
X34030007Y61029887D01*
X33982440Y61031096D01*
X33948902Y61035850D01*
X33920922Y61046155D01*
X33890028Y61064016D01*
X33860189Y61085176D01*
X33824115Y61122739D01*
X33801863Y61168176D01*
X33791511Y61226098D01*
X33791134Y61301117D01*
X33791623Y61310782D01*
X33798491Y61379709D01*
X33812017Y61433190D01*
X33834510Y61477783D01*
X33868283Y61520046D01*
X33893732Y61544553D01*
X33932817Y61569169D01*
X33979694Y61581933D01*
X34041595Y61585580D01*
X34121868Y61585580D01*
X34126727Y61738976D01*
X34129671Y61806664D01*
X34135052Y61864740D01*
X34143953Y61908120D01*
X34157749Y61941270D01*
X34177817Y61968655D01*
X34205533Y61994741D01*
X34219733Y62005425D01*
X34277746Y62032799D01*
X34346647Y62046961D01*
X34420358Y62048179D01*
X34492802Y62036722D01*
G37*
G36*
X33613090Y61139970D02*
G01*
X33686113Y61125839D01*
X33747490Y61098674D01*
X33759443Y61091301D01*
X33775655Y61081425D01*
X33789570Y61071732D01*
X33801358Y61060555D01*
X33811189Y61046228D01*
X33819233Y61027084D01*
X33825661Y61001455D01*
X33830642Y60967676D01*
X33834348Y60924078D01*
X33836947Y60868994D01*
X33838611Y60800759D01*
X33839510Y60717705D01*
X33839813Y60618164D01*
X33839691Y60500471D01*
X33839315Y60362957D01*
X33838854Y60203957D01*
X33836795Y59418551D01*
X33806272Y59372427D01*
X33774701Y59336186D01*
X33715715Y59298352D01*
X33691772Y59288565D01*
X33619112Y59272419D01*
X33543542Y59272593D01*
X33469842Y59287773D01*
X33402793Y59316649D01*
X33347179Y59357910D01*
X33307778Y59410242D01*
X33305698Y59415253D01*
X33302577Y59428101D01*
X33299915Y59447865D01*
X33297679Y59476168D01*
X33295835Y59514636D01*
X33294348Y59564891D01*
X33293183Y59628557D01*
X33292307Y59707258D01*
X33291686Y59802617D01*
X33291284Y59916259D01*
X33291068Y60049808D01*
X33291004Y60204886D01*
X33291004Y60967092D01*
X33317052Y61018654D01*
X33325209Y61033037D01*
X33352525Y61069279D01*
X33381440Y61095685D01*
X33396530Y61104748D01*
X33461061Y61129365D01*
X33535660Y61141125D01*
X33613090Y61139970D01*
G37*
G36*
X31518476Y61171807D02*
G01*
X31633207Y61149531D01*
X31737107Y61113458D01*
X31826023Y61063971D01*
X31891388Y61018182D01*
X31934200Y61052447D01*
X32004395Y61097799D01*
X32099950Y61136434D01*
X32214135Y61162555D01*
X32347476Y61176322D01*
X32387271Y61177696D01*
X32490502Y61174766D01*
X32589944Y61163230D01*
X32679401Y61143982D01*
X32752672Y61117914D01*
X32760697Y61114017D01*
X32820065Y61075186D01*
X32878692Y61021647D01*
X32930175Y60959976D01*
X32968110Y60896747D01*
X32974945Y60881834D01*
X32988824Y60848209D01*
X33000589Y60813151D01*
X33010442Y60774489D01*
X33018585Y60730051D01*
X33025221Y60677664D01*
X33030552Y60615156D01*
X33034781Y60540355D01*
X33038110Y60451089D01*
X33040741Y60345186D01*
X33042877Y60220473D01*
X33044721Y60074778D01*
X33045543Y60000141D01*
X33046770Y59871806D01*
X33047355Y59763606D01*
X33047111Y59673549D01*
X33045851Y59599645D01*
X33043389Y59539901D01*
X33039537Y59492328D01*
X33034109Y59454933D01*
X33026918Y59425727D01*
X33017776Y59402718D01*
X33006497Y59383914D01*
X32992895Y59367326D01*
X32976781Y59350961D01*
X32959808Y59335990D01*
X32919823Y59307688D01*
X32882302Y59288509D01*
X32877440Y59286775D01*
X32804682Y59272497D01*
X32727963Y59276063D01*
X32653272Y59295927D01*
X32586602Y59330543D01*
X32533943Y59378367D01*
X32497978Y59422782D01*
X32491296Y59994563D01*
X32490706Y60046132D01*
X32489326Y60170935D01*
X32488031Y60275285D01*
X32486522Y60361148D01*
X32484502Y60430493D01*
X32481673Y60485290D01*
X32477735Y60527506D01*
X32472392Y60559109D01*
X32465344Y60582069D01*
X32456294Y60598354D01*
X32444942Y60609932D01*
X32430992Y60618771D01*
X32414145Y60626841D01*
X32394102Y60636110D01*
X32378274Y60643577D01*
X32351515Y60652843D01*
X32327628Y60652003D01*
X32294497Y60641741D01*
X32282996Y60637261D01*
X32243815Y60617038D01*
X32213087Y60594543D01*
X32182563Y60565299D01*
X32174145Y60001670D01*
X32173561Y59962761D01*
X32171646Y59839609D01*
X32169876Y59736971D01*
X32168147Y59652793D01*
X32166353Y59585021D01*
X32164389Y59531598D01*
X32162148Y59490469D01*
X32159526Y59459581D01*
X32156416Y59436877D01*
X32152714Y59420303D01*
X32148314Y59407803D01*
X32143109Y59397323D01*
X32140017Y59391989D01*
X32098105Y59343285D01*
X32039916Y59305113D01*
X31970504Y59280052D01*
X31894927Y59270683D01*
X31884143Y59270898D01*
X31820783Y59282400D01*
X31757331Y59308546D01*
X31701471Y59345444D01*
X31660889Y59389202D01*
X31629700Y59436313D01*
X31623912Y59998663D01*
X31623795Y60010072D01*
X31622454Y60142270D01*
X31621171Y60253412D01*
X31619660Y60345441D01*
X31617631Y60420299D01*
X31614798Y60479928D01*
X31610873Y60526269D01*
X31605568Y60561266D01*
X31598596Y60586860D01*
X31589669Y60604993D01*
X31578499Y60617607D01*
X31564798Y60626644D01*
X31548279Y60634048D01*
X31528655Y60641758D01*
X31507965Y60648915D01*
X31449997Y60655301D01*
X31396095Y60639206D01*
X31344839Y60600308D01*
X31299755Y60555225D01*
X31299755Y59995476D01*
X31299755Y59435727D01*
X31267026Y59390576D01*
X31241537Y59361629D01*
X31184878Y59319413D01*
X31117233Y59288701D01*
X31045836Y59273328D01*
X31005110Y59272305D01*
X30927244Y59285272D01*
X30856580Y59316293D01*
X30797440Y59363143D01*
X30754145Y59423596D01*
X30749267Y59433572D01*
X30744634Y59445271D01*
X30740864Y59459430D01*
X30737894Y59478116D01*
X30735660Y59503400D01*
X30734101Y59537351D01*
X30733151Y59582039D01*
X30732749Y59639532D01*
X30732830Y59711901D01*
X30733333Y59801215D01*
X30734193Y59909542D01*
X30735347Y60038953D01*
X30735637Y60070350D01*
X30737129Y60210828D01*
X30738894Y60330799D01*
X30741151Y60432463D01*
X30744119Y60518018D01*
X30748017Y60589662D01*
X30753065Y60649596D01*
X30759480Y60700017D01*
X30767483Y60743124D01*
X30777292Y60781116D01*
X30789126Y60816192D01*
X30803205Y60850551D01*
X30819746Y60886391D01*
X30824774Y60896575D01*
X30874427Y60974914D01*
X30936919Y61043256D01*
X31007589Y61097226D01*
X31081777Y61132447D01*
X31150839Y61152029D01*
X31273139Y61173438D01*
X31397069Y61179903D01*
X31518476Y61171807D01*
G37*
D13*
X117395000Y25473737D02*
X117395000Y24026263D01*
X120105000Y25473737D02*
X120105000Y24026263D01*
X112640000Y25448752D02*
X112640000Y24026248D01*
X115360000Y25448752D02*
X115360000Y24026248D01*
X78090000Y39461252D02*
X78090000Y38038748D01*
X79910000Y39461252D02*
X79910000Y38038748D01*
X68090000Y38038748D02*
X68090000Y39461252D01*
X69910000Y38038748D02*
X69910000Y39461252D01*
X117011252Y21310000D02*
X115588748Y21310000D01*
X117011252Y19490000D02*
X115588748Y19490000D01*
X121590000Y38711252D02*
X121590000Y37288748D01*
X123410000Y38711252D02*
X123410000Y37288748D01*
X111590000Y37288748D02*
X111590000Y38711252D01*
X113410000Y37288748D02*
X113410000Y38711252D01*
X73211252Y21410000D02*
X71788748Y21410000D01*
X73211252Y19590000D02*
X71788748Y19590000D01*
X73645000Y25473737D02*
X73645000Y24026263D01*
X76355000Y25473737D02*
X76355000Y24026263D01*
X68890000Y25473752D02*
X68890000Y24051248D01*
X71610000Y25473752D02*
X71610000Y24051248D01*
%LPC*%
D14*
X36825000Y2312500D03*
X41575000Y2312500D03*
D15*
X33650000Y5502500D03*
X26640000Y5502500D03*
D16*
X32400000Y3012500D03*
X27900000Y3012500D03*
D17*
X74000000Y66500000D03*
D18*
X68920000Y71580000D03*
D17*
X71460000Y66500000D03*
D18*
X79080000Y71580000D03*
D17*
X117000000Y66500000D03*
D18*
X111920000Y71580000D03*
D17*
X114460000Y66500000D03*
D18*
X122080000Y71580000D03*
D19*
X48000000Y71500000D03*
X122500000Y11000000D03*
X31841250Y48887500D03*
X90000000Y71500000D03*
D20*
X68670000Y19700000D03*
X76290000Y19700000D03*
X78830000Y19700000D03*
X78830000Y42700000D03*
X76290000Y42700000D03*
X71210000Y42700000D03*
X68670000Y42700000D03*
D21*
X81750000Y22200000D03*
X65750000Y40200000D03*
D22*
X103500000Y68920000D03*
X103500000Y74000000D03*
X100960000Y68920000D03*
X100960000Y74000000D03*
X60500000Y68920000D03*
X60500000Y74000000D03*
X57960000Y68920000D03*
X57960000Y74000000D03*
D23*
X68890000Y10000000D03*
D22*
X68890000Y7460000D03*
X66350000Y10000000D03*
X66350000Y7460000D03*
X63810000Y10000000D03*
X63810000Y7460000D03*
X61270000Y10000000D03*
X61270000Y7460000D03*
X58730000Y10000000D03*
X58730000Y7460000D03*
X56190000Y10000000D03*
X56190000Y7460000D03*
X53650000Y10000000D03*
X53650000Y7460000D03*
X51110000Y10000000D03*
X51110000Y7460000D03*
D20*
X112420000Y19000000D03*
X120040000Y19000000D03*
X122580000Y19000000D03*
X122580000Y42000000D03*
X120040000Y42000000D03*
X114960000Y42000000D03*
X112420000Y42000000D03*
D21*
X125500000Y21500000D03*
X109500000Y39500000D03*
D24*
X85700000Y44650000D03*
X109300000Y62200000D03*
X69400000Y62100000D03*
X114050000Y62100000D03*
X63650000Y46100000D03*
X108650000Y46900000D03*
X41300000Y44300000D03*
X64850000Y62000000D03*
D25*
X80950000Y57400000D03*
X43800000Y43200000D03*
X123400000Y48600000D03*
X79200000Y48900000D03*
X91700000Y62550000D03*
X88650000Y43750000D03*
X46850000Y62350000D03*
X125450000Y57250000D03*
D24*
X54707000Y31582000D03*
X55800000Y33600000D03*
X59100000Y31600000D03*
X62700000Y31500000D03*
X44200000Y32000000D03*
X49700000Y31500000D03*
X51100000Y63600000D03*
X57950000Y63600000D03*
X73850000Y31750000D03*
X101150000Y33400000D03*
X99750000Y31600000D03*
X117650000Y30900000D03*
X97350000Y63600000D03*
X104100000Y63600000D03*
X94600000Y31100000D03*
X103900000Y31350000D03*
X89950000Y31200000D03*
X108000000Y31200000D03*
D26*
X90230000Y4000000D03*
D27*
X87730000Y4000000D03*
D17*
X35000000Y66500000D03*
D18*
X29920000Y71580000D03*
D17*
X32460000Y66500000D03*
D18*
X40080000Y71580000D03*
D26*
X109230000Y4000000D03*
D27*
X106730000Y4000000D03*
D28*
X15110000Y5315000D03*
X20890000Y5315000D03*
D29*
X13680000Y5815000D03*
D30*
X13680000Y1635000D03*
D29*
X22320000Y5815000D03*
D30*
X22320000Y1635000D03*
D26*
X117230000Y4000000D03*
D27*
X114730000Y4000000D03*
D17*
X12000000Y66500000D03*
D18*
X6920000Y71580000D03*
D17*
X9460000Y66500000D03*
D18*
X17080000Y71580000D03*
D31*
X118750000Y26300000D03*
X118750000Y23200000D03*
D32*
X114000000Y26300000D03*
X114000000Y23175000D03*
D33*
X79000000Y40312500D03*
X79000000Y37187500D03*
D34*
X69000000Y37187500D03*
X69000000Y40312500D03*
D35*
X117862500Y20400000D03*
X114737500Y20400000D03*
D33*
X122500000Y39562500D03*
X122500000Y36437500D03*
D34*
X112500000Y36437500D03*
X112500000Y39562500D03*
D35*
X74062500Y20500000D03*
X70937500Y20500000D03*
D31*
X75000000Y26300000D03*
X75000000Y23200000D03*
D32*
X70250000Y26325000D03*
X70250000Y23200000D03*
%LPD*%
M02*
