G04 #@! TF.GenerationSoftware,KiCad,Pcbnew,9.0.6*
G04 #@! TF.CreationDate,2026-01-16T18:41:02-05:00*
G04 #@! TF.ProjectId,stimjim,7374696d-6a69-46d2-9e6b-696361645f70,B*
G04 #@! TF.SameCoordinates,PX8c30ac0PYa037a00*
G04 #@! TF.FileFunction,Soldermask,Top*
G04 #@! TF.FilePolarity,Negative*
%FSLAX46Y46*%
G04 Gerber Fmt 4.6, Leading zero omitted, Abs format (unit mm)*
G04 Created by KiCad (PCBNEW 9.0.6) date 2026-01-16 18:41:02*
%MOMM*%
%LPD*%
G01*
G04 APERTURE LIST*
G04 Aperture macros list*
%AMRoundRect*
0 Rectangle with rounded corners*
0 $1 Rounding radius*
0 $2 $3 $4 $5 $6 $7 $8 $9 X,Y pos of 4 corners*
0 Add a 4 corners polygon primitive as box body*
4,1,4,$2,$3,$4,$5,$6,$7,$8,$9,$2,$3,0*
0 Add four circle primitives for the rounded corners*
1,1,$1+$1,$2,$3*
1,1,$1+$1,$4,$5*
1,1,$1+$1,$6,$7*
1,1,$1+$1,$8,$9*
0 Add four rect primitives between the rounded corners*
20,1,$1+$1,$2,$3,$4,$5,0*
20,1,$1+$1,$4,$5,$6,$7,0*
20,1,$1+$1,$6,$7,$8,$9,0*
20,1,$1+$1,$8,$9,$2,$3,0*%
G04 Aperture macros list end*
%ADD10C,2.000000*%
%ADD11R,7.500000X4.600000*%
%ADD12C,2.100000*%
%ADD13C,1.750000*%
%ADD14RoundRect,0.150000X0.150000X-0.825000X0.150000X0.825000X-0.150000X0.825000X-0.150000X-0.825000X0*%
%ADD15RoundRect,0.225000X-0.225000X-0.250000X0.225000X-0.250000X0.225000X0.250000X-0.225000X0.250000X0*%
%ADD16RoundRect,0.200000X0.275000X-0.200000X0.275000X0.200000X-0.275000X0.200000X-0.275000X-0.200000X0*%
%ADD17RoundRect,0.135000X0.185000X-0.135000X0.185000X0.135000X-0.185000X0.135000X-0.185000X-0.135000X0*%
%ADD18RoundRect,0.225000X0.250000X-0.225000X0.250000X0.225000X-0.250000X0.225000X-0.250000X-0.225000X0*%
%ADD19RoundRect,0.225000X-0.250000X0.225000X-0.250000X-0.225000X0.250000X-0.225000X0.250000X0.225000X0*%
%ADD20RoundRect,0.150000X0.150000X-0.875000X0.150000X0.875000X-0.150000X0.875000X-0.150000X-0.875000X0*%
%ADD21RoundRect,0.150000X0.825000X0.150000X-0.825000X0.150000X-0.825000X-0.150000X0.825000X-0.150000X0*%
%ADD22RoundRect,0.150000X-0.150000X0.587500X-0.150000X-0.587500X0.150000X-0.587500X0.150000X0.587500X0*%
%ADD23RoundRect,0.100000X0.100000X-0.637500X0.100000X0.637500X-0.100000X0.637500X-0.100000X-0.637500X0*%
%ADD24RoundRect,0.200000X-0.200000X-0.275000X0.200000X-0.275000X0.200000X0.275000X-0.200000X0.275000X0*%
%ADD25O,1.600000X2.500000*%
%ADD26O,3.500000X7.000000*%
%ADD27C,4.300000*%
%ADD28RoundRect,0.225000X0.225000X0.250000X-0.225000X0.250000X-0.225000X-0.250000X0.225000X-0.250000X0*%
%ADD29RoundRect,0.200000X0.200000X0.275000X-0.200000X0.275000X-0.200000X-0.275000X0.200000X-0.275000X0*%
%ADD30C,1.524000*%
%ADD31C,2.500000*%
%ADD32C,1.700000*%
%ADD33RoundRect,0.250000X-0.600000X0.600000X-0.600000X-0.600000X0.600000X-0.600000X0.600000X0.600000X0*%
%ADD34RoundRect,0.150000X-0.150000X0.825000X-0.150000X-0.825000X0.150000X-0.825000X0.150000X0.825000X0*%
%ADD35RoundRect,0.200000X-0.275000X0.200000X-0.275000X-0.200000X0.275000X-0.200000X0.275000X0.200000X0*%
%ADD36RoundRect,0.150000X0.725000X0.150000X-0.725000X0.150000X-0.725000X-0.150000X0.725000X-0.150000X0*%
%ADD37C,1.000000*%
%ADD38R,1.000000X1.000000*%
%ADD39RoundRect,0.140000X-0.170000X0.140000X-0.170000X-0.140000X0.170000X-0.140000X0.170000X0.140000X0*%
%ADD40RoundRect,0.150000X0.150000X-0.512500X0.150000X0.512500X-0.150000X0.512500X-0.150000X-0.512500X0*%
%ADD41RoundRect,0.140000X-0.140000X-0.170000X0.140000X-0.170000X0.140000X0.170000X-0.140000X0.170000X0*%
%ADD42RoundRect,0.135000X-0.185000X0.135000X-0.185000X-0.135000X0.185000X-0.135000X0.185000X0.135000X0*%
%ADD43RoundRect,0.135000X-0.135000X-0.185000X0.135000X-0.185000X0.135000X0.185000X-0.135000X0.185000X0*%
%ADD44R,1.400000X1.200000*%
%ADD45RoundRect,0.140000X0.140000X0.170000X-0.140000X0.170000X-0.140000X-0.170000X0.140000X-0.170000X0*%
%ADD46RoundRect,0.140000X0.170000X-0.140000X0.170000X0.140000X-0.170000X0.140000X-0.170000X-0.140000X0*%
%ADD47R,1.800000X1.800000*%
%ADD48C,1.800000*%
%ADD49RoundRect,0.150000X0.625000X-0.150000X0.625000X0.150000X-0.625000X0.150000X-0.625000X-0.150000X0*%
%ADD50RoundRect,0.250000X0.650000X-0.350000X0.650000X0.350000X-0.650000X0.350000X-0.650000X-0.350000X0*%
%ADD51R,1.000000X1.600000*%
%ADD52RoundRect,0.162500X0.650000X0.162500X-0.650000X0.162500X-0.650000X-0.162500X0.650000X-0.162500X0*%
%ADD53R,1.000000X3.150000*%
%ADD54RoundRect,0.075000X-0.075000X-0.200000X0.075000X-0.200000X0.075000X0.200000X-0.075000X0.200000X0*%
%ADD55RoundRect,0.250000X0.400000X-0.525000X0.400000X0.525000X-0.400000X0.525000X-0.400000X-0.525000X0*%
%ADD56C,0.650000*%
%ADD57RoundRect,0.150000X-0.150000X-0.425000X0.150000X-0.425000X0.150000X0.425000X-0.150000X0.425000X0*%
%ADD58RoundRect,0.075000X-0.075000X-0.500000X0.075000X-0.500000X0.075000X0.500000X-0.075000X0.500000X0*%
%ADD59O,1.000000X2.100000*%
%ADD60O,1.000000X1.800000*%
%ADD61RoundRect,0.135000X0.135000X0.185000X-0.135000X0.185000X-0.135000X-0.185000X0.135000X-0.185000X0*%
%ADD62RoundRect,0.050000X0.350000X0.050000X-0.350000X0.050000X-0.350000X-0.050000X0.350000X-0.050000X0*%
%ADD63RoundRect,0.050000X0.050000X0.350000X-0.050000X0.350000X-0.050000X-0.350000X0.050000X-0.350000X0*%
%ADD64R,3.400000X3.400000*%
G04 APERTURE END LIST*
D10*
X36825000Y2312500D03*
D11*
X39200000Y2312500D03*
D10*
X41575000Y2312500D03*
D12*
X33650000Y5502500D03*
X26640000Y5502500D03*
D13*
X32400000Y3012500D03*
X27900000Y3012500D03*
D14*
X95691528Y52193064D03*
X96961528Y52193064D03*
X98231528Y52193064D03*
X99501528Y52193064D03*
X99501528Y57143064D03*
X98231528Y57143064D03*
X96961528Y57143064D03*
X95691528Y57143064D03*
D15*
X88562500Y59650000D03*
X90112500Y59650000D03*
D16*
X101558928Y53792264D03*
X101558928Y55442264D03*
D15*
X92825000Y49900000D03*
X94375000Y49900000D03*
X48125000Y49300000D03*
X49675000Y49300000D03*
D17*
X25428750Y18677500D03*
X25428750Y19697500D03*
D15*
X43925000Y58800000D03*
X45475000Y58800000D03*
D18*
X105975000Y45475000D03*
X105975000Y47025000D03*
D19*
X98400000Y46675000D03*
X98400000Y45125000D03*
D20*
X98555000Y18850000D03*
X99825000Y18850000D03*
X101095000Y18850000D03*
X102365000Y18850000D03*
X103635000Y18850000D03*
X104905000Y18850000D03*
X106175000Y18850000D03*
X107445000Y18850000D03*
X107445000Y28150000D03*
X106175000Y28150000D03*
X104905000Y28150000D03*
X103635000Y28150000D03*
X102365000Y28150000D03*
X101095000Y28150000D03*
X99825000Y28150000D03*
X98555000Y28150000D03*
D19*
X106550000Y35575000D03*
X106550000Y34025000D03*
D15*
X96490000Y30312000D03*
X98040000Y30312000D03*
D21*
X120975000Y44595000D03*
X120975000Y45865000D03*
X120975000Y47135000D03*
X120975000Y48405000D03*
X116025000Y48405000D03*
X116025000Y47135000D03*
X116025000Y45865000D03*
X116025000Y44595000D03*
D20*
X86055000Y18850000D03*
X87325000Y18850000D03*
X88595000Y18850000D03*
X89865000Y18850000D03*
X91135000Y18850000D03*
X92405000Y18850000D03*
X93675000Y18850000D03*
X94945000Y18850000D03*
X94945000Y28150000D03*
X93675000Y28150000D03*
X92405000Y28150000D03*
X91135000Y28150000D03*
X89865000Y28150000D03*
X88595000Y28150000D03*
X87325000Y28150000D03*
X86055000Y28150000D03*
D14*
X50741170Y51689694D03*
X52011170Y51689694D03*
X53281170Y51689694D03*
X54551170Y51689694D03*
X54551170Y56639694D03*
X53281170Y56639694D03*
X52011170Y56639694D03*
X50741170Y56639694D03*
D22*
X44849170Y40980000D03*
X42949170Y40980000D03*
X43899170Y39105000D03*
D23*
X91326400Y37658395D03*
X91976400Y37658395D03*
X92626400Y37658395D03*
X93276400Y37658395D03*
X93926400Y37658395D03*
X94576400Y37658395D03*
X95226400Y37658395D03*
X95876400Y37658395D03*
X96526400Y37658395D03*
X97176400Y37658395D03*
X97826400Y37658395D03*
X98476400Y37658395D03*
X98476400Y43383395D03*
X97826400Y43383395D03*
X97176400Y43383395D03*
X96526400Y43383395D03*
X95876400Y43383395D03*
X95226400Y43383395D03*
X94576400Y43383395D03*
X93926400Y43383395D03*
X93276400Y43383395D03*
X92626400Y43383395D03*
X91976400Y43383395D03*
X91326400Y43383395D03*
D24*
X43875000Y49300000D03*
X45525000Y49300000D03*
D18*
X89600000Y36014000D03*
X89600000Y37564000D03*
D25*
X74000000Y66500000D03*
D26*
X68920000Y71580000D03*
D25*
X71460000Y66500000D03*
D26*
X79080000Y71580000D03*
D20*
X41574176Y18918905D03*
X42844176Y18918905D03*
X44114176Y18918905D03*
X45384176Y18918905D03*
X46654176Y18918905D03*
X47924176Y18918905D03*
X49194176Y18918905D03*
X50464176Y18918905D03*
X50464176Y28218905D03*
X49194176Y28218905D03*
X47924176Y28218905D03*
X46654176Y28218905D03*
X45384176Y28218905D03*
X44114176Y28218905D03*
X42844176Y28218905D03*
X41574176Y28218905D03*
D25*
X117000000Y66500000D03*
D26*
X111920000Y71580000D03*
D25*
X114460000Y66500000D03*
D26*
X122080000Y71580000D03*
D19*
X59700000Y35575000D03*
X59700000Y34025000D03*
D21*
X76675000Y45130000D03*
X76675000Y46400000D03*
X76675000Y47670000D03*
X76675000Y48940000D03*
X71725000Y48940000D03*
X71725000Y47670000D03*
X71725000Y46400000D03*
X71725000Y45130000D03*
D27*
X48000000Y71500000D03*
D18*
X104300000Y45475000D03*
X104300000Y47025000D03*
D27*
X122500000Y11000000D03*
D19*
X95900000Y46675000D03*
X95900000Y45125000D03*
X113525000Y46125000D03*
X113525000Y44575000D03*
D23*
X102550000Y37637500D03*
X103200000Y37637500D03*
X103850000Y37637500D03*
X104500000Y37637500D03*
X105150000Y37637500D03*
X105800000Y37637500D03*
X106450000Y37637500D03*
X106450000Y43362500D03*
X105800000Y43362500D03*
X105150000Y43362500D03*
X104500000Y43362500D03*
X103850000Y43362500D03*
X103200000Y43362500D03*
X102550000Y43362500D03*
D28*
X92875000Y45200000D03*
X91325000Y45200000D03*
D15*
X85950000Y30250000D03*
X87500000Y30250000D03*
D18*
X44900000Y35725000D03*
X44900000Y37275000D03*
D27*
X31841250Y48887500D03*
X90000000Y71500000D03*
D29*
X53325000Y48500000D03*
X51675000Y48500000D03*
D15*
X41359000Y30312000D03*
X42909000Y30312000D03*
D30*
X68670000Y19700000D03*
X76290000Y19700000D03*
X78830000Y19700000D03*
X78830000Y42700000D03*
X76290000Y42700000D03*
X71210000Y42700000D03*
X68670000Y42700000D03*
D31*
X81750000Y22200000D03*
X65750000Y40200000D03*
D18*
X87600000Y36014000D03*
X87600000Y37564000D03*
D32*
X103500000Y68920000D03*
X103500000Y74000000D03*
X100960000Y68920000D03*
X100960000Y74000000D03*
D28*
X48075000Y45100000D03*
X46525000Y45100000D03*
D22*
X89750000Y41237500D03*
X87850000Y41237500D03*
X88800000Y39362500D03*
D15*
X50437500Y58900000D03*
X51987500Y58900000D03*
D32*
X60500000Y68920000D03*
X60500000Y74000000D03*
X57960000Y68920000D03*
X57960000Y74000000D03*
D18*
X59400000Y45625000D03*
X59400000Y47175000D03*
D24*
X107175000Y59800000D03*
X108825000Y59800000D03*
D16*
X86600000Y54075000D03*
X86600000Y55725000D03*
D33*
X68890000Y10000000D03*
D32*
X68890000Y7460000D03*
X66350000Y10000000D03*
X66350000Y7460000D03*
X63810000Y10000000D03*
X63810000Y7460000D03*
X61270000Y10000000D03*
X61270000Y7460000D03*
X58730000Y10000000D03*
X58730000Y7460000D03*
X56190000Y10000000D03*
X56190000Y7460000D03*
X53650000Y10000000D03*
X53650000Y7460000D03*
X51110000Y10000000D03*
X51110000Y7460000D03*
D28*
X124828325Y54395998D03*
X123278325Y54395998D03*
D18*
X113639325Y52858998D03*
X113639325Y54408998D03*
D19*
X69500000Y46675000D03*
X69500000Y45125000D03*
D28*
X80575000Y54300000D03*
X79025000Y54300000D03*
D16*
X56700000Y53475000D03*
X56700000Y55125000D03*
D18*
X59300000Y50125000D03*
X59300000Y51675000D03*
D19*
X56300000Y51475000D03*
X56300000Y49925000D03*
D29*
X98225000Y49100000D03*
X96575000Y49100000D03*
D28*
X111475000Y50100000D03*
X109925000Y50100000D03*
D19*
X51000000Y46708000D03*
X51000000Y45158000D03*
D16*
X103667128Y53919164D03*
X103667128Y55569164D03*
D23*
X57607170Y37818194D03*
X58257170Y37818194D03*
X58907170Y37818194D03*
X59557170Y37818194D03*
X60207170Y37818194D03*
X60857170Y37818194D03*
X61507170Y37818194D03*
X61507170Y43543194D03*
X60857170Y43543194D03*
X60207170Y43543194D03*
X59557170Y43543194D03*
X58907170Y43543194D03*
X58257170Y43543194D03*
X57607170Y43543194D03*
D14*
X88873528Y52317064D03*
X90143528Y52317064D03*
X91413528Y52317064D03*
X92683528Y52317064D03*
X92683528Y57267064D03*
X91413528Y57267064D03*
X90143528Y57267064D03*
X88873528Y57267064D03*
D15*
X95375000Y59500000D03*
X96925000Y59500000D03*
D28*
X80475000Y45100000D03*
X78925000Y45100000D03*
D18*
X61000000Y45625000D03*
X61000000Y47175000D03*
D16*
X42209170Y53175000D03*
X42209170Y54825000D03*
D18*
X69562585Y52844031D03*
X69562585Y54394031D03*
X104000000Y50525000D03*
X104000000Y52075000D03*
D28*
X53175000Y16850000D03*
X51625000Y16850000D03*
X66502476Y49614458D03*
X64952476Y49614458D03*
D24*
X62202476Y59114458D03*
X63852476Y59114458D03*
D28*
X98575000Y16723000D03*
X97025000Y16723000D03*
D24*
X88475000Y50000000D03*
X90125000Y50000000D03*
D20*
X53204776Y18991105D03*
X54474776Y18991105D03*
X55744776Y18991105D03*
X57014776Y18991105D03*
X58284776Y18991105D03*
X59554776Y18991105D03*
X60824776Y18991105D03*
X62094776Y18991105D03*
X62094776Y28291105D03*
X60824776Y28291105D03*
X59554776Y28291105D03*
X58284776Y28291105D03*
X57014776Y28291105D03*
X55744776Y28291105D03*
X54474776Y28291105D03*
X53204776Y28291105D03*
D34*
X64932476Y56789458D03*
X63662476Y56789458D03*
X62392476Y56789458D03*
X61122476Y56789458D03*
X61122476Y51839458D03*
X62392476Y51839458D03*
X63662476Y51839458D03*
X64932476Y51839458D03*
X109911505Y57293476D03*
X108641505Y57293476D03*
X107371505Y57293476D03*
X106101505Y57293476D03*
X106101505Y52343476D03*
X107371505Y52343476D03*
X108641505Y52343476D03*
X109911505Y52343476D03*
D16*
X58900000Y53475000D03*
X58900000Y55125000D03*
D19*
X104850000Y35575000D03*
X104850000Y34025000D03*
D28*
X86116250Y16800000D03*
X84566250Y16800000D03*
D35*
X123500000Y61225000D03*
X123500000Y59575000D03*
D23*
X46425000Y37637500D03*
X47075000Y37637500D03*
X47725000Y37637500D03*
X48375000Y37637500D03*
X49025000Y37637500D03*
X49675000Y37637500D03*
X50325000Y37637500D03*
X50975000Y37637500D03*
X51625000Y37637500D03*
X52275000Y37637500D03*
X52925000Y37637500D03*
X53575000Y37637500D03*
X53575000Y43362500D03*
X52925000Y43362500D03*
X52275000Y43362500D03*
X51625000Y43362500D03*
X50975000Y43362500D03*
X50325000Y43362500D03*
X49675000Y43362500D03*
X49025000Y43362500D03*
X48375000Y43362500D03*
X47725000Y43362500D03*
X47075000Y43362500D03*
X46425000Y43362500D03*
D28*
X124725000Y44600000D03*
X123175000Y44600000D03*
D36*
X76894891Y51774201D03*
X76894891Y53044201D03*
X76894891Y54314201D03*
X76894891Y55584201D03*
X76894891Y56854201D03*
X76894891Y58124201D03*
X76894891Y59394201D03*
X76894891Y60664201D03*
X71744891Y60664201D03*
X71744891Y59394201D03*
X71744891Y58124201D03*
X71744891Y56854201D03*
X71744891Y55584201D03*
X71744891Y54314201D03*
X71744891Y53044201D03*
X71744891Y51774201D03*
D15*
X51425000Y30439000D03*
X52975000Y30439000D03*
D35*
X79100000Y61025000D03*
X79100000Y59375000D03*
D18*
X39741250Y18612500D03*
X39741250Y20162500D03*
D19*
X61300000Y35575000D03*
X61300000Y34025000D03*
X53600000Y46708000D03*
X53600000Y45158000D03*
D18*
X43200000Y35725000D03*
X43200000Y37275000D03*
D36*
X121294325Y51982998D03*
X121294325Y53252998D03*
X121294325Y54522998D03*
X121294325Y55792998D03*
X121294325Y57062998D03*
X121294325Y58332998D03*
X121294325Y59602998D03*
X121294325Y60872998D03*
X116144325Y60872998D03*
X116144325Y59602998D03*
X116144325Y58332998D03*
X116144325Y57062998D03*
X116144325Y55792998D03*
X116144325Y54522998D03*
X116144325Y53252998D03*
X116144325Y51982998D03*
D30*
X112420000Y19000000D03*
X120040000Y19000000D03*
X122580000Y19000000D03*
X122580000Y42000000D03*
X120040000Y42000000D03*
X114960000Y42000000D03*
X112420000Y42000000D03*
D31*
X125500000Y21500000D03*
X109500000Y39500000D03*
D19*
X101700000Y52075000D03*
X101700000Y50525000D03*
D29*
X98525000Y33194900D03*
X96875000Y33194900D03*
X53025000Y32800000D03*
X51375000Y32800000D03*
D37*
X85700000Y44650000D03*
X109300000Y62200000D03*
X69400000Y62100000D03*
X114050000Y62100000D03*
X63650000Y46100000D03*
X108650000Y46900000D03*
X41300000Y44300000D03*
X64850000Y62000000D03*
D38*
X80950000Y57400000D03*
X43800000Y43200000D03*
X123400000Y48600000D03*
X79200000Y48900000D03*
X91700000Y62550000D03*
X88650000Y43750000D03*
X46850000Y62350000D03*
X125450000Y57250000D03*
D37*
X54707000Y31582000D03*
X55800000Y33600000D03*
X59100000Y31600000D03*
X62700000Y31500000D03*
X44200000Y32000000D03*
X49700000Y31500000D03*
X51100000Y63600000D03*
X57950000Y63600000D03*
X73850000Y31750000D03*
X101150000Y33400000D03*
X99750000Y31600000D03*
X117650000Y30900000D03*
X97350000Y63600000D03*
X104100000Y63600000D03*
X94600000Y31100000D03*
X103900000Y31350000D03*
X89950000Y31200000D03*
X108000000Y31200000D03*
D10*
X5600000Y13968751D03*
D39*
X18080000Y30990000D03*
X18080000Y30030000D03*
D40*
X9700000Y9868751D03*
X10650000Y9868751D03*
X11600000Y9868751D03*
X11600000Y12143751D03*
X9700000Y12143751D03*
D10*
X5600000Y8468751D03*
D41*
X24761250Y37287500D03*
X25721250Y37287500D03*
D42*
X14130000Y25510000D03*
X14130000Y24490000D03*
X23941250Y17147500D03*
X23941250Y16127500D03*
D29*
X106730000Y5980000D03*
X105080000Y5980000D03*
D43*
X9731250Y32567500D03*
X10751250Y32567500D03*
D42*
X13190000Y25510000D03*
X13190000Y24490000D03*
D44*
X17641250Y49287500D03*
X19841250Y49287500D03*
X19841250Y50887500D03*
X17641250Y50887500D03*
D45*
X22521250Y50887500D03*
X21561250Y50887500D03*
D39*
X20741250Y30667500D03*
X20741250Y29707500D03*
D14*
X44166000Y51651000D03*
X45436000Y51651000D03*
X46706000Y51651000D03*
X47976000Y51651000D03*
X47976000Y56601000D03*
X46706000Y56601000D03*
X45436000Y56601000D03*
X44166000Y56601000D03*
D45*
X16508750Y20087500D03*
X15548750Y20087500D03*
D46*
X20841250Y44557500D03*
X20841250Y45517500D03*
D42*
X13841250Y49147500D03*
X13841250Y48127500D03*
D39*
X11791250Y32547500D03*
X11791250Y31587500D03*
D15*
X9700000Y13786251D03*
X11250000Y13786251D03*
D10*
X110400000Y15400000D03*
D47*
X90230000Y4000000D03*
D48*
X87730000Y4000000D03*
D49*
X9366250Y56737500D03*
X9366250Y57737500D03*
X9366250Y58737500D03*
D50*
X6841250Y55437500D03*
X6841250Y60037500D03*
D45*
X15480000Y31440000D03*
X14520000Y31440000D03*
D42*
X12841250Y49147500D03*
X12841250Y48127500D03*
D51*
X15591250Y28737500D03*
X13591250Y28737500D03*
D25*
X35000000Y66500000D03*
D26*
X29920000Y71580000D03*
D25*
X32460000Y66500000D03*
D26*
X40080000Y71580000D03*
D45*
X11071250Y38187500D03*
X10111250Y38187500D03*
D46*
X19141250Y44407500D03*
X19141250Y45367500D03*
D29*
X114730000Y5980000D03*
X113080000Y5980000D03*
D52*
X24216250Y21382500D03*
X24216250Y22652500D03*
X24216250Y23922500D03*
X24216250Y25192500D03*
X17041250Y25192500D03*
X17041250Y23922500D03*
X17041250Y22652500D03*
X17041250Y21382500D03*
D45*
X11970000Y33687500D03*
X11010000Y33687500D03*
D53*
X14231250Y55362500D03*
X14231250Y60412500D03*
X16771250Y55362500D03*
X16771250Y60412500D03*
X19311250Y55362500D03*
X19311250Y60412500D03*
X21851250Y55362500D03*
X21851250Y60412500D03*
D41*
X25361250Y35287500D03*
X26321250Y35287500D03*
D54*
X16775000Y10512500D03*
X17275000Y10512500D03*
X17775000Y10512500D03*
X18275000Y10512500D03*
X18775000Y10512500D03*
X18775000Y11282500D03*
X18275000Y11282500D03*
X17775000Y11282500D03*
X17275000Y11282500D03*
X16775000Y11282500D03*
D17*
X17941250Y46777500D03*
X17941250Y47797500D03*
D41*
X15061250Y49287500D03*
X16021250Y49287500D03*
D47*
X109230000Y4000000D03*
D48*
X106730000Y4000000D03*
D46*
X16841250Y45207500D03*
X16841250Y46167500D03*
D55*
X5450000Y18670000D03*
X5450000Y26630000D03*
X9950000Y18670000D03*
X9950000Y26630000D03*
D56*
X15110000Y5315000D03*
X20890000Y5315000D03*
D57*
X14800000Y6390000D03*
X15600000Y6390000D03*
D58*
X16750000Y6390000D03*
X17750000Y6390000D03*
X18250000Y6390000D03*
X19250000Y6390000D03*
D57*
X20400000Y6390000D03*
X21200000Y6390000D03*
X21200000Y6390000D03*
X20400000Y6390000D03*
D58*
X19750000Y6390000D03*
X18750000Y6390000D03*
X17250000Y6390000D03*
X16250000Y6390000D03*
D57*
X15600000Y6390000D03*
X14800000Y6390000D03*
D59*
X13680000Y5815000D03*
D60*
X13680000Y1635000D03*
D59*
X22320000Y5815000D03*
D60*
X22320000Y1635000D03*
D45*
X11071250Y37237500D03*
X10111250Y37237500D03*
D47*
X117230000Y4000000D03*
D48*
X114730000Y4000000D03*
D61*
X15730000Y10450000D03*
X14710000Y10450000D03*
D25*
X12000000Y66500000D03*
D26*
X6920000Y71580000D03*
D25*
X9460000Y66500000D03*
D26*
X17080000Y71580000D03*
D15*
X9400000Y8226251D03*
X10950000Y8226251D03*
D41*
X24711250Y39300000D03*
X25671250Y39300000D03*
D45*
X15480000Y30520000D03*
X14520000Y30520000D03*
D62*
X22950000Y33700000D03*
X22950000Y34100000D03*
X22950000Y34500000D03*
X22950000Y34900000D03*
X22950000Y35300000D03*
X22950000Y35700000D03*
X22950000Y36100000D03*
X22950000Y36500000D03*
X22950000Y36900000D03*
X22950000Y37300000D03*
X22950000Y37700000D03*
X22950000Y38100000D03*
X22950000Y38500000D03*
X22950000Y38900000D03*
X22950000Y39300000D03*
X22950000Y39700000D03*
X22950000Y40100000D03*
X22950000Y40500000D03*
X22950000Y40900000D03*
X22950000Y41300000D03*
D63*
X21800000Y42450000D03*
X21400000Y42450000D03*
X21000000Y42450000D03*
X20600000Y42450000D03*
X20200000Y42450000D03*
X19800000Y42450000D03*
X19400000Y42450000D03*
X19000000Y42450000D03*
X18600000Y42450000D03*
X18200000Y42450000D03*
X17800000Y42450000D03*
X17400000Y42450000D03*
X17000000Y42450000D03*
X16600000Y42450000D03*
X16200000Y42450000D03*
X15800000Y42450000D03*
X15400000Y42450000D03*
X15000000Y42450000D03*
X14600000Y42450000D03*
X14200000Y42450000D03*
D62*
X13050000Y41300000D03*
X13050000Y40900000D03*
X13050000Y40500000D03*
X13050000Y40100000D03*
X13050000Y39700000D03*
X13050000Y39300000D03*
X13050000Y38900000D03*
X13050000Y38500000D03*
X13050000Y38100000D03*
X13050000Y37700000D03*
X13050000Y37300000D03*
X13050000Y36900000D03*
X13050000Y36500000D03*
X13050000Y36100000D03*
X13050000Y35700000D03*
X13050000Y35300000D03*
X13050000Y34900000D03*
X13050000Y34500000D03*
X13050000Y34100000D03*
X13050000Y33700000D03*
D63*
X14200000Y32550000D03*
X14600000Y32550000D03*
X15000000Y32550000D03*
X15400000Y32550000D03*
X15800000Y32550000D03*
X16200000Y32550000D03*
X16600000Y32550000D03*
X17000000Y32550000D03*
X17400000Y32550000D03*
X17800000Y32550000D03*
X18200000Y32550000D03*
X18600000Y32550000D03*
X19000000Y32550000D03*
X19400000Y32550000D03*
X19800000Y32550000D03*
X20200000Y32550000D03*
X20600000Y32550000D03*
X21000000Y32550000D03*
X21400000Y32550000D03*
X21800000Y32550000D03*
D64*
X18000000Y37500000D03*
D35*
X84955000Y4912500D03*
X84955000Y3262500D03*
D46*
X11941250Y42607500D03*
X11941250Y43567500D03*
D43*
X19810000Y10500000D03*
X20830000Y10500000D03*
M02*
