M48
; DRILL file {KiCad 9.0.6} date 2026-01-20T12:08:29-0500
; FORMAT={-:-/ absolute / metric / decimal}
; #@! TF.CreationDate,2026-01-20T12:08:29-05:00
; #@! TF.GenerationSoftware,Kicad,Pcbnew,9.0.6
; #@! TF.FileFunction,Plated,1,4,PTH
FMAT,2
METRIC
; #@! TA.AperFunction,Plated,PTH,ViaDrill
T1C0.300
; #@! TA.AperFunction,Plated,PTH,ComponentDrill
T2C0.300
; #@! TA.AperFunction,Plated,PTH,ViaDrill
T3C0.400
; #@! TA.AperFunction,Plated,PTH,ComponentDrill
T4C0.500
; #@! TA.AperFunction,Plated,PTH,ComponentDrill
T5C0.600
; #@! TA.AperFunction,Plated,PTH,ComponentDrill
T6C0.762
; #@! TA.AperFunction,Plated,PTH,ComponentDrill
T7C0.890
; #@! TA.AperFunction,Plated,PTH,ComponentDrill
T8C0.900
; #@! TA.AperFunction,Plated,PTH,ComponentDrill
T9C0.990
; #@! TA.AperFunction,Plated,PTH,ComponentDrill
T10C1.000
; #@! TA.AperFunction,Plated,PTH,ComponentDrill
T11C1.100
; #@! TA.AperFunction,Plated,PTH,ComponentDrill
T12C1.300
; #@! TA.AperFunction,Plated,PTH,ComponentDrill
T13C1.350
; #@! TA.AperFunction,Plated,PTH,ComponentDrill
T14C1.500
; #@! TA.AperFunction,Plated,PTH,ComponentDrill
T15C2.010
%
G90
G05
T1
X2.14Y25.39
X2.3Y33.3
X2.3Y14.8
X2.7Y2.1
X3.3Y53.1
X3.341Y61.287
X4.4Y39.4
X5.0Y10.6
X5.52Y14.07
X7.6Y57.7
X7.741Y36.288
X8.241Y37.288
X8.241Y34.688
X8.32Y11.2
X8.341Y35.7
X8.5Y42.1
X8.641Y39.837
X8.891Y39.087
X9.041Y34.538
X9.341Y38.188
X9.35Y37.188
X9.614Y34.114
X9.741Y31.667
X10.241Y33.688
X10.35Y9.38
X11.2Y56.1
X11.341Y30.817
X11.4Y24.4
X11.47Y16.6
X11.71Y29.1
X11.841Y37.288
X11.891Y38.237
X12.1Y51.7
X12.2Y44.7
X12.331Y41.777
X12.741Y33.137
X12.77Y20.64
X12.86Y26.66
X13.691Y31.438
X13.691Y30.537
X14.1Y40.1
X14.27Y9.045
X14.5Y36.0
X14.6Y41.3
X14.7Y63.3
X15.141Y53.137
X15.5Y19.18
X15.541Y33.438
X15.7Y35.2
X15.7Y22.6
X15.741Y37.288
X16.0Y50.8
X16.19Y30.9
X16.19Y30.3
X16.2Y47.2
X16.2Y41.3
X16.541Y19.137
X16.75Y34.0
X16.87Y44.487
X17.09Y17.2
X17.35Y10.84
X17.4Y39.8
X17.73Y31.73
X17.8Y33.3
X17.98Y29.28
X18.0Y19.5
X18.19Y9.3
X18.497Y33.451
X18.523Y23.922
X18.7Y22.2
X18.891Y43.487
X19.2Y63.1
X19.5Y41.25
X19.766Y28.762
X19.791Y43.487
X19.9Y46.0
X20.041Y24.837
X20.141Y9.732
X20.241Y54.387
X20.3Y37.3
X20.4Y19.2
X20.541Y31.587
X20.6Y43.788
X20.841Y52.688
X20.841Y46.387
X21.18Y34.037
X21.2Y21.9
X21.441Y29.287
X21.466Y27.912
X21.5Y48.5
X21.5Y35.75
X21.591Y33.397
X21.6Y9.3
X21.75Y40.0
X21.791Y62.938
X22.091Y23.188
X22.3Y19.4
X22.441Y45.087
X22.691Y21.587
X22.841Y54.387
X22.841Y43.087
X22.841Y30.487
X23.384Y9.9
X23.4Y46.6
X23.6Y49.9
X23.6Y8.4
X23.741Y31.987
X23.941Y37.288
X23.98Y39.3
X24.041Y26.587
X24.591Y35.288
X24.841Y16.137
X25.1Y62.2
X25.3Y30.7
X25.3Y25.2
X25.3Y17.7
X25.5Y27.75
X25.5Y22.2
X26.514Y30.614
X26.691Y37.288
X27.3Y47.7
X27.4Y34.5
X27.494Y25.494
X27.6Y27.5
X27.9Y39.3
X28.2Y17.0
X28.3Y62.2
X28.3Y22.0
X28.3Y19.2
X28.5Y6.75
X28.8Y32.8
X28.9Y27.5
X29.1Y29.9
X29.5Y17.0
X29.6Y25.7
X29.6Y22.6
X29.691Y35.487
X30.3Y38.3
X30.9Y22.6
X30.9Y18.6
X31.0Y17.0
X31.2Y27.6
X31.3Y25.8
X31.5Y30.0
X31.7Y24.9
X31.741Y43.038
X31.841Y36.887
X32.1Y34.0
X32.214Y35.014
X32.3Y33.0
X32.3Y17.1
X32.6Y62.2
X32.6Y22.6
X32.6Y19.4
X32.9Y46.9
X33.78Y5.5
X36.6Y49.8
X37.091Y44.137
X38.0Y20.77
X38.25Y19.25
X38.641Y21.688
X40.441Y17.387
X42.741Y17.387
X46.0Y17.0
X46.7Y7.1
X47.0Y16.688
X47.8Y7.7
X49.0Y10.2
X49.194Y17.387
X49.341Y15.987
X54.475Y17.188
X55.741Y17.188
X58.041Y16.488
X62.141Y17.087
X66.941Y16.887
X74.441Y17.188
X75.041Y8.088
X76.67Y2.43
X76.941Y10.387
X81.37Y1.96
X87.7Y12.4
X88.625Y16.896
X89.141Y15.787
X91.377Y13.223
X95.53Y3.05
X99.302Y14.198
X100.841Y13.837
X101.97Y2.83
X102.35Y14.564
X103.602Y16.469
X110.891Y6.387
T2
X16.55Y38.95
X16.55Y37.5
X16.55Y36.05
X18.0Y38.95
X18.0Y37.5
X18.0Y36.05
X19.45Y38.95
X19.45Y37.5
X19.45Y36.05
T3
X19.57Y17.54
X20.261Y7.037
X20.9Y17.5
X21.411Y7.037
X22.6Y7.0
X40.535Y18.613
X40.581Y28.219
X41.7Y61.1
X41.88Y40.98
X42.769Y39.075
X46.4Y35.6
X46.8Y41.8
X46.9Y59.1
X47.45Y39.25
X48.0Y53.25
X49.052Y34.951
X49.25Y48.0
X49.5Y29.9
X50.25Y36.1
X51.641Y18.087
X51.8Y35.9
X52.2Y28.3
X52.294Y31.582
X53.2Y15.9
X53.8Y59.1
X54.4Y40.6
X54.525Y53.225
X54.9Y45.0
X56.6Y59.0
X57.9Y35.9
X58.0Y34.0
X59.4Y48.6
X59.8Y40.6
X60.5Y39.25
X60.7Y41.8
X61.15Y53.25
X64.641Y21.387
X65.0Y47.2
X66.2Y51.614
X67.0Y37.2
X67.619Y52.294
X68.0Y60.8
X68.1Y44.7
X69.6Y51.3
X69.6Y49.2
X69.7Y56.1
X72.5Y26.25
X72.591Y3.737
X74.041Y3.737
X74.064Y60.664
X74.1Y58.7
X74.1Y52.0
X75.3Y54.3
X80.6Y51.9
X83.041Y16.787
X83.5Y4.5
X84.6Y18.85
X84.9Y28.4
X86.7Y43.1
X86.95Y39.25
X88.6Y34.9
X91.45Y42.025
X91.5Y39.15
X91.7Y59.75
X92.6Y54.0
X93.7Y29.7
X93.7Y16.9
X94.4Y48.7
X95.05Y35.55
X95.691Y16.688
X96.601Y36.1
X97.2Y18.8
X97.25Y40.95
X97.3Y28.1
X97.5Y31.5
X98.25Y59.75
X99.55Y53.65
X99.7Y40.95
X101.5Y60.0
X102.6Y36.1
X103.0Y34.0
X104.85Y40.95
X105.8Y42.025
X105.8Y39.15
X106.0Y49.0
X106.25Y54.45
X107.25Y16.75
X110.3Y48.0
X110.4Y43.3
X110.422Y37.297
X111.65Y52.15
X112.425Y53.5
X112.6Y61.0
X113.75Y56.25
X114.3Y51.1
X114.3Y48.9
X115.01Y11.61
X116.25Y26.25
X118.573Y60.873
X118.6Y52.6
X118.75Y58.65
X119.5Y54.45
X124.9Y51.3
X125.491Y2.038
T4
X41.3Y44.3
X43.8Y43.2
X44.2Y32.0
X46.85Y62.35
X49.7Y31.5
X51.1Y63.6
X54.707Y31.582
X55.8Y33.6
X57.95Y63.6
X59.1Y31.6
X62.7Y31.5
X63.65Y46.1
X64.85Y62.0
X69.4Y62.1
X73.85Y31.75
X79.2Y48.9
X80.95Y57.4
X85.7Y44.65
X88.65Y43.75
X89.95Y31.2
X91.7Y62.55
X94.6Y31.1
X97.35Y63.6
X99.75Y31.6
X101.15Y33.4
X103.9Y31.35
X104.1Y63.6
X108.0Y31.2
X108.65Y46.9
X109.3Y62.2
X114.05Y62.1
X117.65Y30.9
X123.4Y48.6
X125.45Y57.25
T6
X68.67Y42.7
X68.67Y19.7
X71.21Y42.7
X76.29Y42.7
X76.29Y19.7
X78.83Y42.7
X78.83Y19.7
X112.42Y42.0
X112.42Y19.0
X114.96Y42.0
X120.04Y42.0
X120.04Y19.0
X122.58Y42.0
X122.58Y19.0
T7
X9.46Y66.5
X12.0Y66.5
X32.46Y66.5
X35.0Y66.5
X71.46Y66.5
X74.0Y66.5
X114.46Y66.5
X117.0Y66.5
T8
X87.73Y4.0
X90.23Y4.0
X106.73Y4.0
X109.23Y4.0
X114.73Y4.0
X117.23Y4.0
T9
X26.0Y3.032
X30.5Y3.032
T10
X51.1Y10.0
X51.1Y7.46
X53.64Y10.0
X53.64Y7.46
X56.18Y10.0
X56.18Y7.46
X58.72Y10.0
X58.72Y7.46
X61.26Y10.0
X61.26Y7.46
X63.8Y10.0
X63.8Y7.46
X66.34Y10.0
X66.34Y7.46
X68.88Y10.0
X68.88Y7.46
T11
X57.96Y74.0
X57.96Y68.92
X60.5Y74.0
X60.5Y68.92
X100.96Y74.0
X100.96Y68.92
X103.5Y74.0
X103.5Y68.92
T12
X24.74Y5.522
X31.75Y5.522
T13
X36.625Y2.312
X41.375Y2.312
T14
X65.75Y40.2
X81.75Y22.2
X109.5Y39.5
X125.5Y21.5
T15
X6.92Y71.58
X17.08Y71.58
X29.92Y71.58
X40.08Y71.58
X68.92Y71.58
X79.08Y71.58
X111.92Y71.58
X122.08Y71.58
T5
G00X10.18Y6.365
M15
G01X10.18Y5.265
M16
G05
G00X10.18Y2.035
M15
G01X10.18Y1.235
M16
G05
G00X18.82Y6.365
M15
G01X18.82Y5.265
M16
G05
G00X18.82Y2.035
M15
G01X18.82Y1.235
M16
G05
M30
