%TF.GenerationSoftware,KiCad,Pcbnew,10.0.1*%
%TF.CreationDate,2026-07-06T13:20:12-04:00*%
%TF.ProjectId,stimjim,7374696d-6a69-46d2-9e6b-696361645f70,C*%
%TF.SameCoordinates,PX8c30ac0PYa037a00*%
%TF.FileFunction,Legend,Bot*%
%TF.FilePolarity,Positive*%
%FSLAX46Y46*%
G04 Gerber Fmt 4.6, Leading zero omitted, Abs format (unit mm)*
G04 Created by KiCad (PCBNEW 10.0.1) date 2026-07-06 13:20:12*
%MOMM*%
%LPD*%
G01*
G04 APERTURE LIST*
G04 Aperture macros list*
%AMRoundRect*
0 Rectangle with rounded corners*
0 $1 Rounding radius*
0 $2 $3 $4 $5 $6 $7 $8 $9 X,Y pos of 4 corners*
0 Add a 4 corners polygon primitive as box body*
4,1,4,$2,$3,$4,$5,$6,$7,$8,$9,$2,$3,0*
0 Add four circle primitives for the rounded corners*
1,1,$1+$1,$2,$3*
1,1,$1+$1,$4,$5*
1,1,$1+$1,$6,$7*
1,1,$1+$1,$8,$9*
0 Add four rect primitives between the rounded corners*
20,1,$1+$1,$2,$3,$4,$5,0*
20,1,$1+$1,$4,$5,$6,$7,0*
20,1,$1+$1,$6,$7,$8,$9,0*
20,1,$1+$1,$8,$9,$2,$3,0*%
G04 Aperture macros list end*
%ADD10C,0.150000*%
%ADD11C,0.120000*%
%ADD12O,1.600000X2.500000*%
%ADD13O,3.500000X7.000000*%
%ADD14C,4.300000*%
%ADD15C,1.524000*%
%ADD16C,2.500000*%
%ADD17C,1.000000*%
%ADD18R,1.000000X1.000000*%
%ADD19C,2.000000*%
%ADD20C,1.800000*%
%ADD21RoundRect,0.250000X-0.600000X0.600000X-0.600000X-0.600000X0.600000X-0.600000X0.600000X0.600000X0*%
%ADD22C,1.700000*%
%ADD23C,2.100000*%
%ADD24C,1.750000*%
%ADD25C,0.650000*%
%ADD26O,1.000000X2.100000*%
%ADD27O,1.000000X1.800000*%
%ADD28RoundRect,0.250000X-1.075000X0.400000X-1.075000X-0.400000X1.075000X-0.400000X1.075000X0.400000X0*%
%ADD29RoundRect,0.250000X-1.100000X0.412500X-1.100000X-0.412500X1.100000X-0.412500X1.100000X0.412500X0*%
%ADD30RoundRect,0.250000X-0.650000X0.412500X-0.650000X-0.412500X0.650000X-0.412500X0.650000X0.412500X0*%
%ADD31RoundRect,0.250000X0.650000X-0.412500X0.650000X0.412500X-0.650000X0.412500X-0.650000X-0.412500X0*%
%ADD32RoundRect,0.250000X0.412500X0.650000X-0.412500X0.650000X-0.412500X-0.650000X0.412500X-0.650000X0*%
%ADD33RoundRect,0.250000X0.450000X-0.262500X0.450000X0.262500X-0.450000X0.262500X-0.450000X-0.262500X0*%
%ADD34RoundRect,0.112500X0.112500X-0.350000X0.112500X0.350000X-0.112500X0.350000X-0.112500X-0.350000X0*%
%ADD35RoundRect,0.112500X-0.112500X0.350000X-0.112500X-0.350000X0.112500X-0.350000X0.112500X0.350000X0*%
%ADD36RoundRect,0.250000X-0.450000X0.262500X-0.450000X-0.262500X0.450000X-0.262500X0.450000X0.262500X0*%
%ADD37RoundRect,0.112500X-0.350000X-0.112500X0.350000X-0.112500X0.350000X0.112500X-0.350000X0.112500X0*%
G04 APERTURE END LIST*
D10*
X116878557Y25328572D02*
X116449985Y25628572D01*
X116878557Y25842858D02*
X115978557Y25842858D01*
X115978557Y25842858D02*
X115978557Y25500001D01*
X115978557Y25500001D02*
X116021414Y25414286D01*
X116021414Y25414286D02*
X116064271Y25371429D01*
X116064271Y25371429D02*
X116149985Y25328572D01*
X116149985Y25328572D02*
X116278557Y25328572D01*
X116278557Y25328572D02*
X116364271Y25371429D01*
X116364271Y25371429D02*
X116407128Y25414286D01*
X116407128Y25414286D02*
X116449985Y25500001D01*
X116449985Y25500001D02*
X116449985Y25842858D01*
X116064271Y24985715D02*
X116021414Y24942858D01*
X116021414Y24942858D02*
X115978557Y24857143D01*
X115978557Y24857143D02*
X115978557Y24642858D01*
X115978557Y24642858D02*
X116021414Y24557143D01*
X116021414Y24557143D02*
X116064271Y24514286D01*
X116064271Y24514286D02*
X116149985Y24471429D01*
X116149985Y24471429D02*
X116235700Y24471429D01*
X116235700Y24471429D02*
X116364271Y24514286D01*
X116364271Y24514286D02*
X116878557Y25028572D01*
X116878557Y25028572D02*
X116878557Y24471429D01*
X115978557Y23914286D02*
X115978557Y23828572D01*
X115978557Y23828572D02*
X116021414Y23742858D01*
X116021414Y23742858D02*
X116064271Y23700000D01*
X116064271Y23700000D02*
X116149985Y23657143D01*
X116149985Y23657143D02*
X116321414Y23614286D01*
X116321414Y23614286D02*
X116535700Y23614286D01*
X116535700Y23614286D02*
X116707128Y23657143D01*
X116707128Y23657143D02*
X116792842Y23700000D01*
X116792842Y23700000D02*
X116835700Y23742858D01*
X116835700Y23742858D02*
X116878557Y23828572D01*
X116878557Y23828572D02*
X116878557Y23914286D01*
X116878557Y23914286D02*
X116835700Y24000000D01*
X116835700Y24000000D02*
X116792842Y24042858D01*
X116792842Y24042858D02*
X116707128Y24085715D01*
X116707128Y24085715D02*
X116535700Y24128572D01*
X116535700Y24128572D02*
X116321414Y24128572D01*
X116321414Y24128572D02*
X116149985Y24085715D01*
X116149985Y24085715D02*
X116064271Y24042858D01*
X116064271Y24042858D02*
X116021414Y24000000D01*
X116021414Y24000000D02*
X115978557Y23914286D01*
X112022842Y25316072D02*
X112065700Y25358929D01*
X112065700Y25358929D02*
X112108557Y25487501D01*
X112108557Y25487501D02*
X112108557Y25573215D01*
X112108557Y25573215D02*
X112065700Y25701786D01*
X112065700Y25701786D02*
X111979985Y25787501D01*
X111979985Y25787501D02*
X111894271Y25830358D01*
X111894271Y25830358D02*
X111722842Y25873215D01*
X111722842Y25873215D02*
X111594271Y25873215D01*
X111594271Y25873215D02*
X111422842Y25830358D01*
X111422842Y25830358D02*
X111337128Y25787501D01*
X111337128Y25787501D02*
X111251414Y25701786D01*
X111251414Y25701786D02*
X111208557Y25573215D01*
X111208557Y25573215D02*
X111208557Y25487501D01*
X111208557Y25487501D02*
X111251414Y25358929D01*
X111251414Y25358929D02*
X111294271Y25316072D01*
X111208557Y24501786D02*
X111208557Y24930358D01*
X111208557Y24930358D02*
X111637128Y24973215D01*
X111637128Y24973215D02*
X111594271Y24930358D01*
X111594271Y24930358D02*
X111551414Y24844643D01*
X111551414Y24844643D02*
X111551414Y24630358D01*
X111551414Y24630358D02*
X111594271Y24544643D01*
X111594271Y24544643D02*
X111637128Y24501786D01*
X111637128Y24501786D02*
X111722842Y24458929D01*
X111722842Y24458929D02*
X111937128Y24458929D01*
X111937128Y24458929D02*
X112022842Y24501786D01*
X112022842Y24501786D02*
X112065700Y24544643D01*
X112065700Y24544643D02*
X112108557Y24630358D01*
X112108557Y24630358D02*
X112108557Y24844643D01*
X112108557Y24844643D02*
X112065700Y24930358D01*
X112065700Y24930358D02*
X112022842Y24973215D01*
X111508557Y23687500D02*
X112108557Y23687500D01*
X111165700Y23901786D02*
X111808557Y24116072D01*
X111808557Y24116072D02*
X111808557Y23558929D01*
X78052842Y38150000D02*
X78095700Y38192857D01*
X78095700Y38192857D02*
X78138557Y38321429D01*
X78138557Y38321429D02*
X78138557Y38407143D01*
X78138557Y38407143D02*
X78095700Y38535714D01*
X78095700Y38535714D02*
X78009985Y38621429D01*
X78009985Y38621429D02*
X77924271Y38664286D01*
X77924271Y38664286D02*
X77752842Y38707143D01*
X77752842Y38707143D02*
X77624271Y38707143D01*
X77624271Y38707143D02*
X77452842Y38664286D01*
X77452842Y38664286D02*
X77367128Y38621429D01*
X77367128Y38621429D02*
X77281414Y38535714D01*
X77281414Y38535714D02*
X77238557Y38407143D01*
X77238557Y38407143D02*
X77238557Y38321429D01*
X77238557Y38321429D02*
X77281414Y38192857D01*
X77281414Y38192857D02*
X77324271Y38150000D01*
X77238557Y37335714D02*
X77238557Y37764286D01*
X77238557Y37764286D02*
X77667128Y37807143D01*
X77667128Y37807143D02*
X77624271Y37764286D01*
X77624271Y37764286D02*
X77581414Y37678571D01*
X77581414Y37678571D02*
X77581414Y37464286D01*
X77581414Y37464286D02*
X77624271Y37378571D01*
X77624271Y37378571D02*
X77667128Y37335714D01*
X77667128Y37335714D02*
X77752842Y37292857D01*
X77752842Y37292857D02*
X77967128Y37292857D01*
X77967128Y37292857D02*
X78052842Y37335714D01*
X78052842Y37335714D02*
X78095700Y37378571D01*
X78095700Y37378571D02*
X78138557Y37464286D01*
X78138557Y37464286D02*
X78138557Y37678571D01*
X78138557Y37678571D02*
X78095700Y37764286D01*
X78095700Y37764286D02*
X78052842Y37807143D01*
X69649999Y34177158D02*
X69692856Y34134300D01*
X69692856Y34134300D02*
X69821428Y34091443D01*
X69821428Y34091443D02*
X69907142Y34091443D01*
X69907142Y34091443D02*
X70035713Y34134300D01*
X70035713Y34134300D02*
X70121428Y34220015D01*
X70121428Y34220015D02*
X70164285Y34305729D01*
X70164285Y34305729D02*
X70207142Y34477158D01*
X70207142Y34477158D02*
X70207142Y34605729D01*
X70207142Y34605729D02*
X70164285Y34777158D01*
X70164285Y34777158D02*
X70121428Y34862872D01*
X70121428Y34862872D02*
X70035713Y34948586D01*
X70035713Y34948586D02*
X69907142Y34991443D01*
X69907142Y34991443D02*
X69821428Y34991443D01*
X69821428Y34991443D02*
X69692856Y34948586D01*
X69692856Y34948586D02*
X69649999Y34905729D01*
X68878571Y34691443D02*
X68878571Y34091443D01*
X69092856Y35034300D02*
X69307142Y34391443D01*
X69307142Y34391443D02*
X68749999Y34391443D01*
X116869821Y17864658D02*
X116912678Y17821800D01*
X116912678Y17821800D02*
X117041250Y17778943D01*
X117041250Y17778943D02*
X117126964Y17778943D01*
X117126964Y17778943D02*
X117255535Y17821800D01*
X117255535Y17821800D02*
X117341250Y17907515D01*
X117341250Y17907515D02*
X117384107Y17993229D01*
X117384107Y17993229D02*
X117426964Y18164658D01*
X117426964Y18164658D02*
X117426964Y18293229D01*
X117426964Y18293229D02*
X117384107Y18464658D01*
X117384107Y18464658D02*
X117341250Y18550372D01*
X117341250Y18550372D02*
X117255535Y18636086D01*
X117255535Y18636086D02*
X117126964Y18678943D01*
X117126964Y18678943D02*
X117041250Y18678943D01*
X117041250Y18678943D02*
X116912678Y18636086D01*
X116912678Y18636086D02*
X116869821Y18593229D01*
X116526964Y18593229D02*
X116484107Y18636086D01*
X116484107Y18636086D02*
X116398393Y18678943D01*
X116398393Y18678943D02*
X116184107Y18678943D01*
X116184107Y18678943D02*
X116098393Y18636086D01*
X116098393Y18636086D02*
X116055535Y18593229D01*
X116055535Y18593229D02*
X116012678Y18507515D01*
X116012678Y18507515D02*
X116012678Y18421800D01*
X116012678Y18421800D02*
X116055535Y18293229D01*
X116055535Y18293229D02*
X116569821Y17778943D01*
X116569821Y17778943D02*
X116012678Y17778943D01*
X115498392Y18293229D02*
X115584107Y18336086D01*
X115584107Y18336086D02*
X115626964Y18378943D01*
X115626964Y18378943D02*
X115669821Y18464658D01*
X115669821Y18464658D02*
X115669821Y18507515D01*
X115669821Y18507515D02*
X115626964Y18593229D01*
X115626964Y18593229D02*
X115584107Y18636086D01*
X115584107Y18636086D02*
X115498392Y18678943D01*
X115498392Y18678943D02*
X115326964Y18678943D01*
X115326964Y18678943D02*
X115241250Y18636086D01*
X115241250Y18636086D02*
X115198392Y18593229D01*
X115198392Y18593229D02*
X115155535Y18507515D01*
X115155535Y18507515D02*
X115155535Y18464658D01*
X115155535Y18464658D02*
X115198392Y18378943D01*
X115198392Y18378943D02*
X115241250Y18336086D01*
X115241250Y18336086D02*
X115326964Y18293229D01*
X115326964Y18293229D02*
X115498392Y18293229D01*
X115498392Y18293229D02*
X115584107Y18250372D01*
X115584107Y18250372D02*
X115626964Y18207515D01*
X115626964Y18207515D02*
X115669821Y18121800D01*
X115669821Y18121800D02*
X115669821Y17950372D01*
X115669821Y17950372D02*
X115626964Y17864658D01*
X115626964Y17864658D02*
X115584107Y17821800D01*
X115584107Y17821800D02*
X115498392Y17778943D01*
X115498392Y17778943D02*
X115326964Y17778943D01*
X115326964Y17778943D02*
X115241250Y17821800D01*
X115241250Y17821800D02*
X115198392Y17864658D01*
X115198392Y17864658D02*
X115155535Y17950372D01*
X115155535Y17950372D02*
X115155535Y18121800D01*
X115155535Y18121800D02*
X115198392Y18207515D01*
X115198392Y18207515D02*
X115241250Y18250372D01*
X115241250Y18250372D02*
X115326964Y18293229D01*
X121052842Y38578572D02*
X121095700Y38621429D01*
X121095700Y38621429D02*
X121138557Y38750001D01*
X121138557Y38750001D02*
X121138557Y38835715D01*
X121138557Y38835715D02*
X121095700Y38964286D01*
X121095700Y38964286D02*
X121009985Y39050001D01*
X121009985Y39050001D02*
X120924271Y39092858D01*
X120924271Y39092858D02*
X120752842Y39135715D01*
X120752842Y39135715D02*
X120624271Y39135715D01*
X120624271Y39135715D02*
X120452842Y39092858D01*
X120452842Y39092858D02*
X120367128Y39050001D01*
X120367128Y39050001D02*
X120281414Y38964286D01*
X120281414Y38964286D02*
X120238557Y38835715D01*
X120238557Y38835715D02*
X120238557Y38750001D01*
X120238557Y38750001D02*
X120281414Y38621429D01*
X120281414Y38621429D02*
X120324271Y38578572D01*
X120238557Y38278572D02*
X120238557Y37721429D01*
X120238557Y37721429D02*
X120581414Y38021429D01*
X120581414Y38021429D02*
X120581414Y37892858D01*
X120581414Y37892858D02*
X120624271Y37807143D01*
X120624271Y37807143D02*
X120667128Y37764286D01*
X120667128Y37764286D02*
X120752842Y37721429D01*
X120752842Y37721429D02*
X120967128Y37721429D01*
X120967128Y37721429D02*
X121052842Y37764286D01*
X121052842Y37764286D02*
X121095700Y37807143D01*
X121095700Y37807143D02*
X121138557Y37892858D01*
X121138557Y37892858D02*
X121138557Y38150001D01*
X121138557Y38150001D02*
X121095700Y38235715D01*
X121095700Y38235715D02*
X121052842Y38278572D01*
X120238557Y37164286D02*
X120238557Y37078572D01*
X120238557Y37078572D02*
X120281414Y36992858D01*
X120281414Y36992858D02*
X120324271Y36950000D01*
X120324271Y36950000D02*
X120409985Y36907143D01*
X120409985Y36907143D02*
X120581414Y36864286D01*
X120581414Y36864286D02*
X120795700Y36864286D01*
X120795700Y36864286D02*
X120967128Y36907143D01*
X120967128Y36907143D02*
X121052842Y36950000D01*
X121052842Y36950000D02*
X121095700Y36992858D01*
X121095700Y36992858D02*
X121138557Y37078572D01*
X121138557Y37078572D02*
X121138557Y37164286D01*
X121138557Y37164286D02*
X121095700Y37250000D01*
X121095700Y37250000D02*
X121052842Y37292858D01*
X121052842Y37292858D02*
X120967128Y37335715D01*
X120967128Y37335715D02*
X120795700Y37378572D01*
X120795700Y37378572D02*
X120581414Y37378572D01*
X120581414Y37378572D02*
X120409985Y37335715D01*
X120409985Y37335715D02*
X120324271Y37292858D01*
X120324271Y37292858D02*
X120281414Y37250000D01*
X120281414Y37250000D02*
X120238557Y37164286D01*
X113078571Y34177158D02*
X113121428Y34134300D01*
X113121428Y34134300D02*
X113250000Y34091443D01*
X113250000Y34091443D02*
X113335714Y34091443D01*
X113335714Y34091443D02*
X113464285Y34134300D01*
X113464285Y34134300D02*
X113550000Y34220015D01*
X113550000Y34220015D02*
X113592857Y34305729D01*
X113592857Y34305729D02*
X113635714Y34477158D01*
X113635714Y34477158D02*
X113635714Y34605729D01*
X113635714Y34605729D02*
X113592857Y34777158D01*
X113592857Y34777158D02*
X113550000Y34862872D01*
X113550000Y34862872D02*
X113464285Y34948586D01*
X113464285Y34948586D02*
X113335714Y34991443D01*
X113335714Y34991443D02*
X113250000Y34991443D01*
X113250000Y34991443D02*
X113121428Y34948586D01*
X113121428Y34948586D02*
X113078571Y34905729D01*
X112735714Y34905729D02*
X112692857Y34948586D01*
X112692857Y34948586D02*
X112607143Y34991443D01*
X112607143Y34991443D02*
X112392857Y34991443D01*
X112392857Y34991443D02*
X112307143Y34948586D01*
X112307143Y34948586D02*
X112264285Y34905729D01*
X112264285Y34905729D02*
X112221428Y34820015D01*
X112221428Y34820015D02*
X112221428Y34734300D01*
X112221428Y34734300D02*
X112264285Y34605729D01*
X112264285Y34605729D02*
X112778571Y34091443D01*
X112778571Y34091443D02*
X112221428Y34091443D01*
X111792857Y34091443D02*
X111621428Y34091443D01*
X111621428Y34091443D02*
X111535714Y34134300D01*
X111535714Y34134300D02*
X111492857Y34177158D01*
X111492857Y34177158D02*
X111407142Y34305729D01*
X111407142Y34305729D02*
X111364285Y34477158D01*
X111364285Y34477158D02*
X111364285Y34820015D01*
X111364285Y34820015D02*
X111407142Y34905729D01*
X111407142Y34905729D02*
X111450000Y34948586D01*
X111450000Y34948586D02*
X111535714Y34991443D01*
X111535714Y34991443D02*
X111707142Y34991443D01*
X111707142Y34991443D02*
X111792857Y34948586D01*
X111792857Y34948586D02*
X111835714Y34905729D01*
X111835714Y34905729D02*
X111878571Y34820015D01*
X111878571Y34820015D02*
X111878571Y34605729D01*
X111878571Y34605729D02*
X111835714Y34520015D01*
X111835714Y34520015D02*
X111792857Y34477158D01*
X111792857Y34477158D02*
X111707142Y34434300D01*
X111707142Y34434300D02*
X111535714Y34434300D01*
X111535714Y34434300D02*
X111450000Y34477158D01*
X111450000Y34477158D02*
X111407142Y34520015D01*
X111407142Y34520015D02*
X111364285Y34605729D01*
X73441249Y17864658D02*
X73484106Y17821800D01*
X73484106Y17821800D02*
X73612678Y17778943D01*
X73612678Y17778943D02*
X73698392Y17778943D01*
X73698392Y17778943D02*
X73826963Y17821800D01*
X73826963Y17821800D02*
X73912678Y17907515D01*
X73912678Y17907515D02*
X73955535Y17993229D01*
X73955535Y17993229D02*
X73998392Y18164658D01*
X73998392Y18164658D02*
X73998392Y18293229D01*
X73998392Y18293229D02*
X73955535Y18464658D01*
X73955535Y18464658D02*
X73912678Y18550372D01*
X73912678Y18550372D02*
X73826963Y18636086D01*
X73826963Y18636086D02*
X73698392Y18678943D01*
X73698392Y18678943D02*
X73612678Y18678943D01*
X73612678Y18678943D02*
X73484106Y18636086D01*
X73484106Y18636086D02*
X73441249Y18593229D01*
X73141249Y18678943D02*
X72584106Y18678943D01*
X72584106Y18678943D02*
X72884106Y18336086D01*
X72884106Y18336086D02*
X72755535Y18336086D01*
X72755535Y18336086D02*
X72669821Y18293229D01*
X72669821Y18293229D02*
X72626963Y18250372D01*
X72626963Y18250372D02*
X72584106Y18164658D01*
X72584106Y18164658D02*
X72584106Y17950372D01*
X72584106Y17950372D02*
X72626963Y17864658D01*
X72626963Y17864658D02*
X72669821Y17821800D01*
X72669821Y17821800D02*
X72755535Y17778943D01*
X72755535Y17778943D02*
X73012678Y17778943D01*
X73012678Y17778943D02*
X73098392Y17821800D01*
X73098392Y17821800D02*
X73141249Y17864658D01*
X73878557Y25328572D02*
X73449985Y25628572D01*
X73878557Y25842858D02*
X72978557Y25842858D01*
X72978557Y25842858D02*
X72978557Y25500001D01*
X72978557Y25500001D02*
X73021414Y25414286D01*
X73021414Y25414286D02*
X73064271Y25371429D01*
X73064271Y25371429D02*
X73149985Y25328572D01*
X73149985Y25328572D02*
X73278557Y25328572D01*
X73278557Y25328572D02*
X73364271Y25371429D01*
X73364271Y25371429D02*
X73407128Y25414286D01*
X73407128Y25414286D02*
X73449985Y25500001D01*
X73449985Y25500001D02*
X73449985Y25842858D01*
X73878557Y24471429D02*
X73878557Y24985715D01*
X73878557Y24728572D02*
X72978557Y24728572D01*
X72978557Y24728572D02*
X73107128Y24814286D01*
X73107128Y24814286D02*
X73192842Y24900001D01*
X73192842Y24900001D02*
X73235700Y24985715D01*
X73878557Y24042858D02*
X73878557Y23871429D01*
X73878557Y23871429D02*
X73835700Y23785715D01*
X73835700Y23785715D02*
X73792842Y23742858D01*
X73792842Y23742858D02*
X73664271Y23657143D01*
X73664271Y23657143D02*
X73492842Y23614286D01*
X73492842Y23614286D02*
X73149985Y23614286D01*
X73149985Y23614286D02*
X73064271Y23657143D01*
X73064271Y23657143D02*
X73021414Y23700000D01*
X73021414Y23700000D02*
X72978557Y23785715D01*
X72978557Y23785715D02*
X72978557Y23957143D01*
X72978557Y23957143D02*
X73021414Y24042858D01*
X73021414Y24042858D02*
X73064271Y24085715D01*
X73064271Y24085715D02*
X73149985Y24128572D01*
X73149985Y24128572D02*
X73364271Y24128572D01*
X73364271Y24128572D02*
X73449985Y24085715D01*
X73449985Y24085715D02*
X73492842Y24042858D01*
X73492842Y24042858D02*
X73535700Y23957143D01*
X73535700Y23957143D02*
X73535700Y23785715D01*
X73535700Y23785715D02*
X73492842Y23700000D01*
X73492842Y23700000D02*
X73449985Y23657143D01*
X73449985Y23657143D02*
X73364271Y23614286D01*
X69022842Y25316072D02*
X69065700Y25358929D01*
X69065700Y25358929D02*
X69108557Y25487501D01*
X69108557Y25487501D02*
X69108557Y25573215D01*
X69108557Y25573215D02*
X69065700Y25701786D01*
X69065700Y25701786D02*
X68979985Y25787501D01*
X68979985Y25787501D02*
X68894271Y25830358D01*
X68894271Y25830358D02*
X68722842Y25873215D01*
X68722842Y25873215D02*
X68594271Y25873215D01*
X68594271Y25873215D02*
X68422842Y25830358D01*
X68422842Y25830358D02*
X68337128Y25787501D01*
X68337128Y25787501D02*
X68251414Y25701786D01*
X68251414Y25701786D02*
X68208557Y25573215D01*
X68208557Y25573215D02*
X68208557Y25487501D01*
X68208557Y25487501D02*
X68251414Y25358929D01*
X68251414Y25358929D02*
X68294271Y25316072D01*
X68208557Y24501786D02*
X68208557Y24930358D01*
X68208557Y24930358D02*
X68637128Y24973215D01*
X68637128Y24973215D02*
X68594271Y24930358D01*
X68594271Y24930358D02*
X68551414Y24844643D01*
X68551414Y24844643D02*
X68551414Y24630358D01*
X68551414Y24630358D02*
X68594271Y24544643D01*
X68594271Y24544643D02*
X68637128Y24501786D01*
X68637128Y24501786D02*
X68722842Y24458929D01*
X68722842Y24458929D02*
X68937128Y24458929D01*
X68937128Y24458929D02*
X69022842Y24501786D01*
X69022842Y24501786D02*
X69065700Y24544643D01*
X69065700Y24544643D02*
X69108557Y24630358D01*
X69108557Y24630358D02*
X69108557Y24844643D01*
X69108557Y24844643D02*
X69065700Y24930358D01*
X69065700Y24930358D02*
X69022842Y24973215D01*
X68208557Y24158929D02*
X68208557Y23601786D01*
X68208557Y23601786D02*
X68551414Y23901786D01*
X68551414Y23901786D02*
X68551414Y23773215D01*
X68551414Y23773215D02*
X68594271Y23687500D01*
X68594271Y23687500D02*
X68637128Y23644643D01*
X68637128Y23644643D02*
X68722842Y23601786D01*
X68722842Y23601786D02*
X68937128Y23601786D01*
X68937128Y23601786D02*
X69022842Y23644643D01*
X69022842Y23644643D02*
X69065700Y23687500D01*
X69065700Y23687500D02*
X69108557Y23773215D01*
X69108557Y23773215D02*
X69108557Y24030358D01*
X69108557Y24030358D02*
X69065700Y24116072D01*
X69065700Y24116072D02*
X69022842Y24158929D01*
X24654819Y28142858D02*
X24178628Y28476191D01*
X24654819Y28714286D02*
X23654819Y28714286D01*
X23654819Y28714286D02*
X23654819Y28333334D01*
X23654819Y28333334D02*
X23702438Y28238096D01*
X23702438Y28238096D02*
X23750057Y28190477D01*
X23750057Y28190477D02*
X23845295Y28142858D01*
X23845295Y28142858D02*
X23988152Y28142858D01*
X23988152Y28142858D02*
X24083390Y28190477D01*
X24083390Y28190477D02*
X24131009Y28238096D01*
X24131009Y28238096D02*
X24178628Y28333334D01*
X24178628Y28333334D02*
X24178628Y28714286D01*
X23654819Y27809524D02*
X23654819Y27190477D01*
X23654819Y27190477D02*
X24035771Y27523810D01*
X24035771Y27523810D02*
X24035771Y27380953D01*
X24035771Y27380953D02*
X24083390Y27285715D01*
X24083390Y27285715D02*
X24131009Y27238096D01*
X24131009Y27238096D02*
X24226247Y27190477D01*
X24226247Y27190477D02*
X24464342Y27190477D01*
X24464342Y27190477D02*
X24559580Y27238096D01*
X24559580Y27238096D02*
X24607200Y27285715D01*
X24607200Y27285715D02*
X24654819Y27380953D01*
X24654819Y27380953D02*
X24654819Y27666667D01*
X24654819Y27666667D02*
X24607200Y27761905D01*
X24607200Y27761905D02*
X24559580Y27809524D01*
X23654819Y26857143D02*
X23654819Y26190477D01*
X23654819Y26190477D02*
X24654819Y26619048D01*
X12738094Y55145181D02*
X12738094Y56145181D01*
X12738094Y56145181D02*
X12499999Y56145181D01*
X12499999Y56145181D02*
X12357142Y56097562D01*
X12357142Y56097562D02*
X12261904Y56002324D01*
X12261904Y56002324D02*
X12214285Y55907086D01*
X12214285Y55907086D02*
X12166666Y55716610D01*
X12166666Y55716610D02*
X12166666Y55573753D01*
X12166666Y55573753D02*
X12214285Y55383277D01*
X12214285Y55383277D02*
X12261904Y55288039D01*
X12261904Y55288039D02*
X12357142Y55192800D01*
X12357142Y55192800D02*
X12499999Y55145181D01*
X12499999Y55145181D02*
X12738094Y55145181D01*
X11309523Y56145181D02*
X11499999Y56145181D01*
X11499999Y56145181D02*
X11595237Y56097562D01*
X11595237Y56097562D02*
X11642856Y56049943D01*
X11642856Y56049943D02*
X11738094Y55907086D01*
X11738094Y55907086D02*
X11785713Y55716610D01*
X11785713Y55716610D02*
X11785713Y55335658D01*
X11785713Y55335658D02*
X11738094Y55240420D01*
X11738094Y55240420D02*
X11690475Y55192800D01*
X11690475Y55192800D02*
X11595237Y55145181D01*
X11595237Y55145181D02*
X11404761Y55145181D01*
X11404761Y55145181D02*
X11309523Y55192800D01*
X11309523Y55192800D02*
X11261904Y55240420D01*
X11261904Y55240420D02*
X11214285Y55335658D01*
X11214285Y55335658D02*
X11214285Y55573753D01*
X11214285Y55573753D02*
X11261904Y55668991D01*
X11261904Y55668991D02*
X11309523Y55716610D01*
X11309523Y55716610D02*
X11404761Y55764229D01*
X11404761Y55764229D02*
X11595237Y55764229D01*
X11595237Y55764229D02*
X11690475Y55716610D01*
X11690475Y55716610D02*
X11738094Y55668991D01*
X11738094Y55668991D02*
X11785713Y55573753D01*
X35254819Y35514286D02*
X34254819Y35514286D01*
X34254819Y35514286D02*
X34254819Y35276191D01*
X34254819Y35276191D02*
X34302438Y35133334D01*
X34302438Y35133334D02*
X34397676Y35038096D01*
X34397676Y35038096D02*
X34492914Y34990477D01*
X34492914Y34990477D02*
X34683390Y34942858D01*
X34683390Y34942858D02*
X34826247Y34942858D01*
X34826247Y34942858D02*
X35016723Y34990477D01*
X35016723Y34990477D02*
X35111961Y35038096D01*
X35111961Y35038096D02*
X35207200Y35133334D01*
X35207200Y35133334D02*
X35254819Y35276191D01*
X35254819Y35276191D02*
X35254819Y35514286D01*
X35254819Y33990477D02*
X35254819Y34561905D01*
X35254819Y34276191D02*
X34254819Y34276191D01*
X34254819Y34276191D02*
X34397676Y34371429D01*
X34397676Y34371429D02*
X34492914Y34466667D01*
X34492914Y34466667D02*
X34540533Y34561905D01*
X34254819Y33085715D02*
X34254819Y33561905D01*
X34254819Y33561905D02*
X34731009Y33609524D01*
X34731009Y33609524D02*
X34683390Y33561905D01*
X34683390Y33561905D02*
X34635771Y33466667D01*
X34635771Y33466667D02*
X34635771Y33228572D01*
X34635771Y33228572D02*
X34683390Y33133334D01*
X34683390Y33133334D02*
X34731009Y33085715D01*
X34731009Y33085715D02*
X34826247Y33038096D01*
X34826247Y33038096D02*
X35064342Y33038096D01*
X35064342Y33038096D02*
X35159580Y33085715D01*
X35159580Y33085715D02*
X35207200Y33133334D01*
X35207200Y33133334D02*
X35254819Y33228572D01*
X35254819Y33228572D02*
X35254819Y33466667D01*
X35254819Y33466667D02*
X35207200Y33561905D01*
X35207200Y33561905D02*
X35159580Y33609524D01*
X21054819Y24014286D02*
X20054819Y24014286D01*
X20054819Y24014286D02*
X20054819Y23776191D01*
X20054819Y23776191D02*
X20102438Y23633334D01*
X20102438Y23633334D02*
X20197676Y23538096D01*
X20197676Y23538096D02*
X20292914Y23490477D01*
X20292914Y23490477D02*
X20483390Y23442858D01*
X20483390Y23442858D02*
X20626247Y23442858D01*
X20626247Y23442858D02*
X20816723Y23490477D01*
X20816723Y23490477D02*
X20911961Y23538096D01*
X20911961Y23538096D02*
X21007200Y23633334D01*
X21007200Y23633334D02*
X21054819Y23776191D01*
X21054819Y23776191D02*
X21054819Y24014286D01*
X21054819Y22490477D02*
X21054819Y23061905D01*
X21054819Y22776191D02*
X20054819Y22776191D01*
X20054819Y22776191D02*
X20197676Y22871429D01*
X20197676Y22871429D02*
X20292914Y22966667D01*
X20292914Y22966667D02*
X20340533Y23061905D01*
X21054819Y21538096D02*
X21054819Y22109524D01*
X21054819Y21823810D02*
X20054819Y21823810D01*
X20054819Y21823810D02*
X20197676Y21919048D01*
X20197676Y21919048D02*
X20292914Y22014286D01*
X20292914Y22014286D02*
X20340533Y22109524D01*
X27454819Y35514286D02*
X26454819Y35514286D01*
X26454819Y35514286D02*
X26454819Y35276191D01*
X26454819Y35276191D02*
X26502438Y35133334D01*
X26502438Y35133334D02*
X26597676Y35038096D01*
X26597676Y35038096D02*
X26692914Y34990477D01*
X26692914Y34990477D02*
X26883390Y34942858D01*
X26883390Y34942858D02*
X27026247Y34942858D01*
X27026247Y34942858D02*
X27216723Y34990477D01*
X27216723Y34990477D02*
X27311961Y35038096D01*
X27311961Y35038096D02*
X27407200Y35133334D01*
X27407200Y35133334D02*
X27454819Y35276191D01*
X27454819Y35276191D02*
X27454819Y35514286D01*
X27454819Y33990477D02*
X27454819Y34561905D01*
X27454819Y34276191D02*
X26454819Y34276191D01*
X26454819Y34276191D02*
X26597676Y34371429D01*
X26597676Y34371429D02*
X26692914Y34466667D01*
X26692914Y34466667D02*
X26740533Y34561905D01*
X26788152Y33133334D02*
X27454819Y33133334D01*
X26407200Y33371429D02*
X27121485Y33609524D01*
X27121485Y33609524D02*
X27121485Y32990477D01*
X32654819Y35514286D02*
X31654819Y35514286D01*
X31654819Y35514286D02*
X31654819Y35276191D01*
X31654819Y35276191D02*
X31702438Y35133334D01*
X31702438Y35133334D02*
X31797676Y35038096D01*
X31797676Y35038096D02*
X31892914Y34990477D01*
X31892914Y34990477D02*
X32083390Y34942858D01*
X32083390Y34942858D02*
X32226247Y34942858D01*
X32226247Y34942858D02*
X32416723Y34990477D01*
X32416723Y34990477D02*
X32511961Y35038096D01*
X32511961Y35038096D02*
X32607200Y35133334D01*
X32607200Y35133334D02*
X32654819Y35276191D01*
X32654819Y35276191D02*
X32654819Y35514286D01*
X32654819Y33990477D02*
X32654819Y34561905D01*
X32654819Y34276191D02*
X31654819Y34276191D01*
X31654819Y34276191D02*
X31797676Y34371429D01*
X31797676Y34371429D02*
X31892914Y34466667D01*
X31892914Y34466667D02*
X31940533Y34561905D01*
X31654819Y33371429D02*
X31654819Y33276191D01*
X31654819Y33276191D02*
X31702438Y33180953D01*
X31702438Y33180953D02*
X31750057Y33133334D01*
X31750057Y33133334D02*
X31845295Y33085715D01*
X31845295Y33085715D02*
X32035771Y33038096D01*
X32035771Y33038096D02*
X32273866Y33038096D01*
X32273866Y33038096D02*
X32464342Y33085715D01*
X32464342Y33085715D02*
X32559580Y33133334D01*
X32559580Y33133334D02*
X32607200Y33180953D01*
X32607200Y33180953D02*
X32654819Y33276191D01*
X32654819Y33276191D02*
X32654819Y33371429D01*
X32654819Y33371429D02*
X32607200Y33466667D01*
X32607200Y33466667D02*
X32559580Y33514286D01*
X32559580Y33514286D02*
X32464342Y33561905D01*
X32464342Y33561905D02*
X32273866Y33609524D01*
X32273866Y33609524D02*
X32035771Y33609524D01*
X32035771Y33609524D02*
X31845295Y33561905D01*
X31845295Y33561905D02*
X31750057Y33514286D01*
X31750057Y33514286D02*
X31702438Y33466667D01*
X31702438Y33466667D02*
X31654819Y33371429D01*
X19454819Y24014286D02*
X18454819Y24014286D01*
X18454819Y24014286D02*
X18454819Y23776191D01*
X18454819Y23776191D02*
X18502438Y23633334D01*
X18502438Y23633334D02*
X18597676Y23538096D01*
X18597676Y23538096D02*
X18692914Y23490477D01*
X18692914Y23490477D02*
X18883390Y23442858D01*
X18883390Y23442858D02*
X19026247Y23442858D01*
X19026247Y23442858D02*
X19216723Y23490477D01*
X19216723Y23490477D02*
X19311961Y23538096D01*
X19311961Y23538096D02*
X19407200Y23633334D01*
X19407200Y23633334D02*
X19454819Y23776191D01*
X19454819Y23776191D02*
X19454819Y24014286D01*
X19454819Y22490477D02*
X19454819Y23061905D01*
X19454819Y22776191D02*
X18454819Y22776191D01*
X18454819Y22776191D02*
X18597676Y22871429D01*
X18597676Y22871429D02*
X18692914Y22966667D01*
X18692914Y22966667D02*
X18740533Y23061905D01*
X18454819Y22157143D02*
X18454819Y21538096D01*
X18454819Y21538096D02*
X18835771Y21871429D01*
X18835771Y21871429D02*
X18835771Y21728572D01*
X18835771Y21728572D02*
X18883390Y21633334D01*
X18883390Y21633334D02*
X18931009Y21585715D01*
X18931009Y21585715D02*
X19026247Y21538096D01*
X19026247Y21538096D02*
X19264342Y21538096D01*
X19264342Y21538096D02*
X19359580Y21585715D01*
X19359580Y21585715D02*
X19407200Y21633334D01*
X19407200Y21633334D02*
X19454819Y21728572D01*
X19454819Y21728572D02*
X19454819Y22014286D01*
X19454819Y22014286D02*
X19407200Y22109524D01*
X19407200Y22109524D02*
X19359580Y22157143D01*
X30054819Y16742858D02*
X29578628Y17076191D01*
X30054819Y17314286D02*
X29054819Y17314286D01*
X29054819Y17314286D02*
X29054819Y16933334D01*
X29054819Y16933334D02*
X29102438Y16838096D01*
X29102438Y16838096D02*
X29150057Y16790477D01*
X29150057Y16790477D02*
X29245295Y16742858D01*
X29245295Y16742858D02*
X29388152Y16742858D01*
X29388152Y16742858D02*
X29483390Y16790477D01*
X29483390Y16790477D02*
X29531009Y16838096D01*
X29531009Y16838096D02*
X29578628Y16933334D01*
X29578628Y16933334D02*
X29578628Y17314286D01*
X29150057Y16361905D02*
X29102438Y16314286D01*
X29102438Y16314286D02*
X29054819Y16219048D01*
X29054819Y16219048D02*
X29054819Y15980953D01*
X29054819Y15980953D02*
X29102438Y15885715D01*
X29102438Y15885715D02*
X29150057Y15838096D01*
X29150057Y15838096D02*
X29245295Y15790477D01*
X29245295Y15790477D02*
X29340533Y15790477D01*
X29340533Y15790477D02*
X29483390Y15838096D01*
X29483390Y15838096D02*
X30054819Y16409524D01*
X30054819Y16409524D02*
X30054819Y15790477D01*
X29054819Y15457143D02*
X29054819Y14838096D01*
X29054819Y14838096D02*
X29435771Y15171429D01*
X29435771Y15171429D02*
X29435771Y15028572D01*
X29435771Y15028572D02*
X29483390Y14933334D01*
X29483390Y14933334D02*
X29531009Y14885715D01*
X29531009Y14885715D02*
X29626247Y14838096D01*
X29626247Y14838096D02*
X29864342Y14838096D01*
X29864342Y14838096D02*
X29959580Y14885715D01*
X29959580Y14885715D02*
X30007200Y14933334D01*
X30007200Y14933334D02*
X30054819Y15028572D01*
X30054819Y15028572D02*
X30054819Y15314286D01*
X30054819Y15314286D02*
X30007200Y15409524D01*
X30007200Y15409524D02*
X29959580Y15457143D01*
X24554819Y24014286D02*
X23554819Y24014286D01*
X23554819Y24014286D02*
X23554819Y23776191D01*
X23554819Y23776191D02*
X23602438Y23633334D01*
X23602438Y23633334D02*
X23697676Y23538096D01*
X23697676Y23538096D02*
X23792914Y23490477D01*
X23792914Y23490477D02*
X23983390Y23442858D01*
X23983390Y23442858D02*
X24126247Y23442858D01*
X24126247Y23442858D02*
X24316723Y23490477D01*
X24316723Y23490477D02*
X24411961Y23538096D01*
X24411961Y23538096D02*
X24507200Y23633334D01*
X24507200Y23633334D02*
X24554819Y23776191D01*
X24554819Y23776191D02*
X24554819Y24014286D01*
X24554819Y22490477D02*
X24554819Y23061905D01*
X24554819Y22776191D02*
X23554819Y22776191D01*
X23554819Y22776191D02*
X23697676Y22871429D01*
X23697676Y22871429D02*
X23792914Y22966667D01*
X23792914Y22966667D02*
X23840533Y23061905D01*
X23554819Y21633334D02*
X23554819Y21823810D01*
X23554819Y21823810D02*
X23602438Y21919048D01*
X23602438Y21919048D02*
X23650057Y21966667D01*
X23650057Y21966667D02*
X23792914Y22061905D01*
X23792914Y22061905D02*
X23983390Y22109524D01*
X23983390Y22109524D02*
X24364342Y22109524D01*
X24364342Y22109524D02*
X24459580Y22061905D01*
X24459580Y22061905D02*
X24507200Y22014286D01*
X24507200Y22014286D02*
X24554819Y21919048D01*
X24554819Y21919048D02*
X24554819Y21728572D01*
X24554819Y21728572D02*
X24507200Y21633334D01*
X24507200Y21633334D02*
X24459580Y21585715D01*
X24459580Y21585715D02*
X24364342Y21538096D01*
X24364342Y21538096D02*
X24126247Y21538096D01*
X24126247Y21538096D02*
X24031009Y21585715D01*
X24031009Y21585715D02*
X23983390Y21633334D01*
X23983390Y21633334D02*
X23935771Y21728572D01*
X23935771Y21728572D02*
X23935771Y21919048D01*
X23935771Y21919048D02*
X23983390Y22014286D01*
X23983390Y22014286D02*
X24031009Y22061905D01*
X24031009Y22061905D02*
X24126247Y22109524D01*
X35254819Y16742858D02*
X34778628Y17076191D01*
X35254819Y17314286D02*
X34254819Y17314286D01*
X34254819Y17314286D02*
X34254819Y16933334D01*
X34254819Y16933334D02*
X34302438Y16838096D01*
X34302438Y16838096D02*
X34350057Y16790477D01*
X34350057Y16790477D02*
X34445295Y16742858D01*
X34445295Y16742858D02*
X34588152Y16742858D01*
X34588152Y16742858D02*
X34683390Y16790477D01*
X34683390Y16790477D02*
X34731009Y16838096D01*
X34731009Y16838096D02*
X34778628Y16933334D01*
X34778628Y16933334D02*
X34778628Y17314286D01*
X34254819Y16409524D02*
X34254819Y15790477D01*
X34254819Y15790477D02*
X34635771Y16123810D01*
X34635771Y16123810D02*
X34635771Y15980953D01*
X34635771Y15980953D02*
X34683390Y15885715D01*
X34683390Y15885715D02*
X34731009Y15838096D01*
X34731009Y15838096D02*
X34826247Y15790477D01*
X34826247Y15790477D02*
X35064342Y15790477D01*
X35064342Y15790477D02*
X35159580Y15838096D01*
X35159580Y15838096D02*
X35207200Y15885715D01*
X35207200Y15885715D02*
X35254819Y15980953D01*
X35254819Y15980953D02*
X35254819Y16266667D01*
X35254819Y16266667D02*
X35207200Y16361905D01*
X35207200Y16361905D02*
X35159580Y16409524D01*
X34683390Y15219048D02*
X34635771Y15314286D01*
X34635771Y15314286D02*
X34588152Y15361905D01*
X34588152Y15361905D02*
X34492914Y15409524D01*
X34492914Y15409524D02*
X34445295Y15409524D01*
X34445295Y15409524D02*
X34350057Y15361905D01*
X34350057Y15361905D02*
X34302438Y15314286D01*
X34302438Y15314286D02*
X34254819Y15219048D01*
X34254819Y15219048D02*
X34254819Y15028572D01*
X34254819Y15028572D02*
X34302438Y14933334D01*
X34302438Y14933334D02*
X34350057Y14885715D01*
X34350057Y14885715D02*
X34445295Y14838096D01*
X34445295Y14838096D02*
X34492914Y14838096D01*
X34492914Y14838096D02*
X34588152Y14885715D01*
X34588152Y14885715D02*
X34635771Y14933334D01*
X34635771Y14933334D02*
X34683390Y15028572D01*
X34683390Y15028572D02*
X34683390Y15219048D01*
X34683390Y15219048D02*
X34731009Y15314286D01*
X34731009Y15314286D02*
X34778628Y15361905D01*
X34778628Y15361905D02*
X34873866Y15409524D01*
X34873866Y15409524D02*
X35064342Y15409524D01*
X35064342Y15409524D02*
X35159580Y15361905D01*
X35159580Y15361905D02*
X35207200Y15314286D01*
X35207200Y15314286D02*
X35254819Y15219048D01*
X35254819Y15219048D02*
X35254819Y15028572D01*
X35254819Y15028572D02*
X35207200Y14933334D01*
X35207200Y14933334D02*
X35159580Y14885715D01*
X35159580Y14885715D02*
X35064342Y14838096D01*
X35064342Y14838096D02*
X34873866Y14838096D01*
X34873866Y14838096D02*
X34778628Y14885715D01*
X34778628Y14885715D02*
X34731009Y14933334D01*
X34731009Y14933334D02*
X34683390Y15028572D01*
X21154819Y28142858D02*
X20678628Y28476191D01*
X21154819Y28714286D02*
X20154819Y28714286D01*
X20154819Y28714286D02*
X20154819Y28333334D01*
X20154819Y28333334D02*
X20202438Y28238096D01*
X20202438Y28238096D02*
X20250057Y28190477D01*
X20250057Y28190477D02*
X20345295Y28142858D01*
X20345295Y28142858D02*
X20488152Y28142858D01*
X20488152Y28142858D02*
X20583390Y28190477D01*
X20583390Y28190477D02*
X20631009Y28238096D01*
X20631009Y28238096D02*
X20678628Y28333334D01*
X20678628Y28333334D02*
X20678628Y28714286D01*
X20250057Y27761905D02*
X20202438Y27714286D01*
X20202438Y27714286D02*
X20154819Y27619048D01*
X20154819Y27619048D02*
X20154819Y27380953D01*
X20154819Y27380953D02*
X20202438Y27285715D01*
X20202438Y27285715D02*
X20250057Y27238096D01*
X20250057Y27238096D02*
X20345295Y27190477D01*
X20345295Y27190477D02*
X20440533Y27190477D01*
X20440533Y27190477D02*
X20583390Y27238096D01*
X20583390Y27238096D02*
X21154819Y27809524D01*
X21154819Y27809524D02*
X21154819Y27190477D01*
X20488152Y26333334D02*
X21154819Y26333334D01*
X20107200Y26571429D02*
X20821485Y26809524D01*
X20821485Y26809524D02*
X20821485Y26190477D01*
X22754819Y24014285D02*
X21754819Y24014285D01*
X21754819Y24014285D02*
X21754819Y23776190D01*
X21754819Y23776190D02*
X21802438Y23633333D01*
X21802438Y23633333D02*
X21897676Y23538095D01*
X21897676Y23538095D02*
X21992914Y23490476D01*
X21992914Y23490476D02*
X22183390Y23442857D01*
X22183390Y23442857D02*
X22326247Y23442857D01*
X22326247Y23442857D02*
X22516723Y23490476D01*
X22516723Y23490476D02*
X22611961Y23538095D01*
X22611961Y23538095D02*
X22707200Y23633333D01*
X22707200Y23633333D02*
X22754819Y23776190D01*
X22754819Y23776190D02*
X22754819Y24014285D01*
X22183390Y22871428D02*
X22135771Y22966666D01*
X22135771Y22966666D02*
X22088152Y23014285D01*
X22088152Y23014285D02*
X21992914Y23061904D01*
X21992914Y23061904D02*
X21945295Y23061904D01*
X21945295Y23061904D02*
X21850057Y23014285D01*
X21850057Y23014285D02*
X21802438Y22966666D01*
X21802438Y22966666D02*
X21754819Y22871428D01*
X21754819Y22871428D02*
X21754819Y22680952D01*
X21754819Y22680952D02*
X21802438Y22585714D01*
X21802438Y22585714D02*
X21850057Y22538095D01*
X21850057Y22538095D02*
X21945295Y22490476D01*
X21945295Y22490476D02*
X21992914Y22490476D01*
X21992914Y22490476D02*
X22088152Y22538095D01*
X22088152Y22538095D02*
X22135771Y22585714D01*
X22135771Y22585714D02*
X22183390Y22680952D01*
X22183390Y22680952D02*
X22183390Y22871428D01*
X22183390Y22871428D02*
X22231009Y22966666D01*
X22231009Y22966666D02*
X22278628Y23014285D01*
X22278628Y23014285D02*
X22373866Y23061904D01*
X22373866Y23061904D02*
X22564342Y23061904D01*
X22564342Y23061904D02*
X22659580Y23014285D01*
X22659580Y23014285D02*
X22707200Y22966666D01*
X22707200Y22966666D02*
X22754819Y22871428D01*
X22754819Y22871428D02*
X22754819Y22680952D01*
X22754819Y22680952D02*
X22707200Y22585714D01*
X22707200Y22585714D02*
X22659580Y22538095D01*
X22659580Y22538095D02*
X22564342Y22490476D01*
X22564342Y22490476D02*
X22373866Y22490476D01*
X22373866Y22490476D02*
X22278628Y22538095D01*
X22278628Y22538095D02*
X22231009Y22585714D01*
X22231009Y22585714D02*
X22183390Y22680952D01*
X35642857Y58445181D02*
X35976190Y58921372D01*
X36214285Y58445181D02*
X36214285Y59445181D01*
X36214285Y59445181D02*
X35833333Y59445181D01*
X35833333Y59445181D02*
X35738095Y59397562D01*
X35738095Y59397562D02*
X35690476Y59349943D01*
X35690476Y59349943D02*
X35642857Y59254705D01*
X35642857Y59254705D02*
X35642857Y59111848D01*
X35642857Y59111848D02*
X35690476Y59016610D01*
X35690476Y59016610D02*
X35738095Y58968991D01*
X35738095Y58968991D02*
X35833333Y58921372D01*
X35833333Y58921372D02*
X36214285Y58921372D01*
X35309523Y59445181D02*
X34690476Y59445181D01*
X34690476Y59445181D02*
X35023809Y59064229D01*
X35023809Y59064229D02*
X34880952Y59064229D01*
X34880952Y59064229D02*
X34785714Y59016610D01*
X34785714Y59016610D02*
X34738095Y58968991D01*
X34738095Y58968991D02*
X34690476Y58873753D01*
X34690476Y58873753D02*
X34690476Y58635658D01*
X34690476Y58635658D02*
X34738095Y58540420D01*
X34738095Y58540420D02*
X34785714Y58492800D01*
X34785714Y58492800D02*
X34880952Y58445181D01*
X34880952Y58445181D02*
X35166666Y58445181D01*
X35166666Y58445181D02*
X35261904Y58492800D01*
X35261904Y58492800D02*
X35309523Y58540420D01*
X34214285Y58445181D02*
X34023809Y58445181D01*
X34023809Y58445181D02*
X33928571Y58492800D01*
X33928571Y58492800D02*
X33880952Y58540420D01*
X33880952Y58540420D02*
X33785714Y58683277D01*
X33785714Y58683277D02*
X33738095Y58873753D01*
X33738095Y58873753D02*
X33738095Y59254705D01*
X33738095Y59254705D02*
X33785714Y59349943D01*
X33785714Y59349943D02*
X33833333Y59397562D01*
X33833333Y59397562D02*
X33928571Y59445181D01*
X33928571Y59445181D02*
X34119047Y59445181D01*
X34119047Y59445181D02*
X34214285Y59397562D01*
X34214285Y59397562D02*
X34261904Y59349943D01*
X34261904Y59349943D02*
X34309523Y59254705D01*
X34309523Y59254705D02*
X34309523Y59016610D01*
X34309523Y59016610D02*
X34261904Y58921372D01*
X34261904Y58921372D02*
X34214285Y58873753D01*
X34214285Y58873753D02*
X34119047Y58826134D01*
X34119047Y58826134D02*
X33928571Y58826134D01*
X33928571Y58826134D02*
X33833333Y58873753D01*
X33833333Y58873753D02*
X33785714Y58921372D01*
X33785714Y58921372D02*
X33738095Y59016610D01*
X15542857Y61545181D02*
X15876190Y62021372D01*
X16114285Y61545181D02*
X16114285Y62545181D01*
X16114285Y62545181D02*
X15733333Y62545181D01*
X15733333Y62545181D02*
X15638095Y62497562D01*
X15638095Y62497562D02*
X15590476Y62449943D01*
X15590476Y62449943D02*
X15542857Y62354705D01*
X15542857Y62354705D02*
X15542857Y62211848D01*
X15542857Y62211848D02*
X15590476Y62116610D01*
X15590476Y62116610D02*
X15638095Y62068991D01*
X15638095Y62068991D02*
X15733333Y62021372D01*
X15733333Y62021372D02*
X16114285Y62021372D01*
X14590476Y61545181D02*
X15161904Y61545181D01*
X14876190Y61545181D02*
X14876190Y62545181D01*
X14876190Y62545181D02*
X14971428Y62402324D01*
X14971428Y62402324D02*
X15066666Y62307086D01*
X15066666Y62307086D02*
X15161904Y62259467D01*
X13733333Y62545181D02*
X13923809Y62545181D01*
X13923809Y62545181D02*
X14019047Y62497562D01*
X14019047Y62497562D02*
X14066666Y62449943D01*
X14066666Y62449943D02*
X14161904Y62307086D01*
X14161904Y62307086D02*
X14209523Y62116610D01*
X14209523Y62116610D02*
X14209523Y61735658D01*
X14209523Y61735658D02*
X14161904Y61640420D01*
X14161904Y61640420D02*
X14114285Y61592800D01*
X14114285Y61592800D02*
X14019047Y61545181D01*
X14019047Y61545181D02*
X13828571Y61545181D01*
X13828571Y61545181D02*
X13733333Y61592800D01*
X13733333Y61592800D02*
X13685714Y61640420D01*
X13685714Y61640420D02*
X13638095Y61735658D01*
X13638095Y61735658D02*
X13638095Y61973753D01*
X13638095Y61973753D02*
X13685714Y62068991D01*
X13685714Y62068991D02*
X13733333Y62116610D01*
X13733333Y62116610D02*
X13828571Y62164229D01*
X13828571Y62164229D02*
X14019047Y62164229D01*
X14019047Y62164229D02*
X14114285Y62116610D01*
X14114285Y62116610D02*
X14161904Y62068991D01*
X14161904Y62068991D02*
X14209523Y61973753D01*
X22854819Y28142858D02*
X22378628Y28476191D01*
X22854819Y28714286D02*
X21854819Y28714286D01*
X21854819Y28714286D02*
X21854819Y28333334D01*
X21854819Y28333334D02*
X21902438Y28238096D01*
X21902438Y28238096D02*
X21950057Y28190477D01*
X21950057Y28190477D02*
X22045295Y28142858D01*
X22045295Y28142858D02*
X22188152Y28142858D01*
X22188152Y28142858D02*
X22283390Y28190477D01*
X22283390Y28190477D02*
X22331009Y28238096D01*
X22331009Y28238096D02*
X22378628Y28333334D01*
X22378628Y28333334D02*
X22378628Y28714286D01*
X21950057Y27761905D02*
X21902438Y27714286D01*
X21902438Y27714286D02*
X21854819Y27619048D01*
X21854819Y27619048D02*
X21854819Y27380953D01*
X21854819Y27380953D02*
X21902438Y27285715D01*
X21902438Y27285715D02*
X21950057Y27238096D01*
X21950057Y27238096D02*
X22045295Y27190477D01*
X22045295Y27190477D02*
X22140533Y27190477D01*
X22140533Y27190477D02*
X22283390Y27238096D01*
X22283390Y27238096D02*
X22854819Y27809524D01*
X22854819Y27809524D02*
X22854819Y27190477D01*
X21950057Y26809524D02*
X21902438Y26761905D01*
X21902438Y26761905D02*
X21854819Y26666667D01*
X21854819Y26666667D02*
X21854819Y26428572D01*
X21854819Y26428572D02*
X21902438Y26333334D01*
X21902438Y26333334D02*
X21950057Y26285715D01*
X21950057Y26285715D02*
X22045295Y26238096D01*
X22045295Y26238096D02*
X22140533Y26238096D01*
X22140533Y26238096D02*
X22283390Y26285715D01*
X22283390Y26285715D02*
X22854819Y26857143D01*
X22854819Y26857143D02*
X22854819Y26238096D01*
X32654819Y16742858D02*
X32178628Y17076191D01*
X32654819Y17314286D02*
X31654819Y17314286D01*
X31654819Y17314286D02*
X31654819Y16933334D01*
X31654819Y16933334D02*
X31702438Y16838096D01*
X31702438Y16838096D02*
X31750057Y16790477D01*
X31750057Y16790477D02*
X31845295Y16742858D01*
X31845295Y16742858D02*
X31988152Y16742858D01*
X31988152Y16742858D02*
X32083390Y16790477D01*
X32083390Y16790477D02*
X32131009Y16838096D01*
X32131009Y16838096D02*
X32178628Y16933334D01*
X32178628Y16933334D02*
X32178628Y17314286D01*
X31750057Y16361905D02*
X31702438Y16314286D01*
X31702438Y16314286D02*
X31654819Y16219048D01*
X31654819Y16219048D02*
X31654819Y15980953D01*
X31654819Y15980953D02*
X31702438Y15885715D01*
X31702438Y15885715D02*
X31750057Y15838096D01*
X31750057Y15838096D02*
X31845295Y15790477D01*
X31845295Y15790477D02*
X31940533Y15790477D01*
X31940533Y15790477D02*
X32083390Y15838096D01*
X32083390Y15838096D02*
X32654819Y16409524D01*
X32654819Y16409524D02*
X32654819Y15790477D01*
X32654819Y14838096D02*
X32654819Y15409524D01*
X32654819Y15123810D02*
X31654819Y15123810D01*
X31654819Y15123810D02*
X31797676Y15219048D01*
X31797676Y15219048D02*
X31892914Y15314286D01*
X31892914Y15314286D02*
X31940533Y15409524D01*
X29938094Y57445181D02*
X29938094Y58445181D01*
X29938094Y58445181D02*
X29699999Y58445181D01*
X29699999Y58445181D02*
X29557142Y58397562D01*
X29557142Y58397562D02*
X29461904Y58302324D01*
X29461904Y58302324D02*
X29414285Y58207086D01*
X29414285Y58207086D02*
X29366666Y58016610D01*
X29366666Y58016610D02*
X29366666Y57873753D01*
X29366666Y57873753D02*
X29414285Y57683277D01*
X29414285Y57683277D02*
X29461904Y57588039D01*
X29461904Y57588039D02*
X29557142Y57492800D01*
X29557142Y57492800D02*
X29699999Y57445181D01*
X29699999Y57445181D02*
X29938094Y57445181D01*
X28414285Y57445181D02*
X28985713Y57445181D01*
X28699999Y57445181D02*
X28699999Y58445181D01*
X28699999Y58445181D02*
X28795237Y58302324D01*
X28795237Y58302324D02*
X28890475Y58207086D01*
X28890475Y58207086D02*
X28985713Y58159467D01*
X19554819Y28142858D02*
X19078628Y28476191D01*
X19554819Y28714286D02*
X18554819Y28714286D01*
X18554819Y28714286D02*
X18554819Y28333334D01*
X18554819Y28333334D02*
X18602438Y28238096D01*
X18602438Y28238096D02*
X18650057Y28190477D01*
X18650057Y28190477D02*
X18745295Y28142858D01*
X18745295Y28142858D02*
X18888152Y28142858D01*
X18888152Y28142858D02*
X18983390Y28190477D01*
X18983390Y28190477D02*
X19031009Y28238096D01*
X19031009Y28238096D02*
X19078628Y28333334D01*
X19078628Y28333334D02*
X19078628Y28714286D01*
X18554819Y27809524D02*
X18554819Y27190477D01*
X18554819Y27190477D02*
X18935771Y27523810D01*
X18935771Y27523810D02*
X18935771Y27380953D01*
X18935771Y27380953D02*
X18983390Y27285715D01*
X18983390Y27285715D02*
X19031009Y27238096D01*
X19031009Y27238096D02*
X19126247Y27190477D01*
X19126247Y27190477D02*
X19364342Y27190477D01*
X19364342Y27190477D02*
X19459580Y27238096D01*
X19459580Y27238096D02*
X19507200Y27285715D01*
X19507200Y27285715D02*
X19554819Y27380953D01*
X19554819Y27380953D02*
X19554819Y27666667D01*
X19554819Y27666667D02*
X19507200Y27761905D01*
X19507200Y27761905D02*
X19459580Y27809524D01*
X18554819Y26333334D02*
X18554819Y26523810D01*
X18554819Y26523810D02*
X18602438Y26619048D01*
X18602438Y26619048D02*
X18650057Y26666667D01*
X18650057Y26666667D02*
X18792914Y26761905D01*
X18792914Y26761905D02*
X18983390Y26809524D01*
X18983390Y26809524D02*
X19364342Y26809524D01*
X19364342Y26809524D02*
X19459580Y26761905D01*
X19459580Y26761905D02*
X19507200Y26714286D01*
X19507200Y26714286D02*
X19554819Y26619048D01*
X19554819Y26619048D02*
X19554819Y26428572D01*
X19554819Y26428572D02*
X19507200Y26333334D01*
X19507200Y26333334D02*
X19459580Y26285715D01*
X19459580Y26285715D02*
X19364342Y26238096D01*
X19364342Y26238096D02*
X19126247Y26238096D01*
X19126247Y26238096D02*
X19031009Y26285715D01*
X19031009Y26285715D02*
X18983390Y26333334D01*
X18983390Y26333334D02*
X18935771Y26428572D01*
X18935771Y26428572D02*
X18935771Y26619048D01*
X18935771Y26619048D02*
X18983390Y26714286D01*
X18983390Y26714286D02*
X19031009Y26761905D01*
X19031009Y26761905D02*
X19126247Y26809524D01*
X30054819Y35514286D02*
X29054819Y35514286D01*
X29054819Y35514286D02*
X29054819Y35276191D01*
X29054819Y35276191D02*
X29102438Y35133334D01*
X29102438Y35133334D02*
X29197676Y35038096D01*
X29197676Y35038096D02*
X29292914Y34990477D01*
X29292914Y34990477D02*
X29483390Y34942858D01*
X29483390Y34942858D02*
X29626247Y34942858D01*
X29626247Y34942858D02*
X29816723Y34990477D01*
X29816723Y34990477D02*
X29911961Y35038096D01*
X29911961Y35038096D02*
X30007200Y35133334D01*
X30007200Y35133334D02*
X30054819Y35276191D01*
X30054819Y35276191D02*
X30054819Y35514286D01*
X30054819Y33990477D02*
X30054819Y34561905D01*
X30054819Y34276191D02*
X29054819Y34276191D01*
X29054819Y34276191D02*
X29197676Y34371429D01*
X29197676Y34371429D02*
X29292914Y34466667D01*
X29292914Y34466667D02*
X29340533Y34561905D01*
X29150057Y33609524D02*
X29102438Y33561905D01*
X29102438Y33561905D02*
X29054819Y33466667D01*
X29054819Y33466667D02*
X29054819Y33228572D01*
X29054819Y33228572D02*
X29102438Y33133334D01*
X29102438Y33133334D02*
X29150057Y33085715D01*
X29150057Y33085715D02*
X29245295Y33038096D01*
X29245295Y33038096D02*
X29340533Y33038096D01*
X29340533Y33038096D02*
X29483390Y33085715D01*
X29483390Y33085715D02*
X30054819Y33657143D01*
X30054819Y33657143D02*
X30054819Y33038096D01*
X27454819Y16742858D02*
X26978628Y17076191D01*
X27454819Y17314286D02*
X26454819Y17314286D01*
X26454819Y17314286D02*
X26454819Y16933334D01*
X26454819Y16933334D02*
X26502438Y16838096D01*
X26502438Y16838096D02*
X26550057Y16790477D01*
X26550057Y16790477D02*
X26645295Y16742858D01*
X26645295Y16742858D02*
X26788152Y16742858D01*
X26788152Y16742858D02*
X26883390Y16790477D01*
X26883390Y16790477D02*
X26931009Y16838096D01*
X26931009Y16838096D02*
X26978628Y16933334D01*
X26978628Y16933334D02*
X26978628Y17314286D01*
X26550057Y16361905D02*
X26502438Y16314286D01*
X26502438Y16314286D02*
X26454819Y16219048D01*
X26454819Y16219048D02*
X26454819Y15980953D01*
X26454819Y15980953D02*
X26502438Y15885715D01*
X26502438Y15885715D02*
X26550057Y15838096D01*
X26550057Y15838096D02*
X26645295Y15790477D01*
X26645295Y15790477D02*
X26740533Y15790477D01*
X26740533Y15790477D02*
X26883390Y15838096D01*
X26883390Y15838096D02*
X27454819Y16409524D01*
X27454819Y16409524D02*
X27454819Y15790477D01*
X26454819Y14885715D02*
X26454819Y15361905D01*
X26454819Y15361905D02*
X26931009Y15409524D01*
X26931009Y15409524D02*
X26883390Y15361905D01*
X26883390Y15361905D02*
X26835771Y15266667D01*
X26835771Y15266667D02*
X26835771Y15028572D01*
X26835771Y15028572D02*
X26883390Y14933334D01*
X26883390Y14933334D02*
X26931009Y14885715D01*
X26931009Y14885715D02*
X27026247Y14838096D01*
X27026247Y14838096D02*
X27264342Y14838096D01*
X27264342Y14838096D02*
X27359580Y14885715D01*
X27359580Y14885715D02*
X27407200Y14933334D01*
X27407200Y14933334D02*
X27454819Y15028572D01*
X27454819Y15028572D02*
X27454819Y15266667D01*
X27454819Y15266667D02*
X27407200Y15361905D01*
X27407200Y15361905D02*
X27359580Y15409524D01*
%TO.C,R20*%
D11*
X117395000Y25473737D02*
X117395000Y24026263D01*
X120105000Y25473737D02*
X120105000Y24026263D01*
%TO.C,C54*%
X112640000Y25448752D02*
X112640000Y24026248D01*
X115360000Y25448752D02*
X115360000Y24026248D01*
%TO.C,C5*%
X78670000Y38711252D02*
X78670000Y37288748D01*
X80490000Y38711252D02*
X80490000Y37288748D01*
%TO.C,C4*%
X68590000Y37288748D02*
X68590000Y38711252D01*
X70410000Y37288748D02*
X70410000Y38711252D01*
%TO.C,C28*%
X117011252Y21310000D02*
X115588748Y21310000D01*
X117011252Y19490000D02*
X115588748Y19490000D01*
%TO.C,C30*%
X121670000Y38711252D02*
X121670000Y37288748D01*
X123490000Y38711252D02*
X123490000Y37288748D01*
%TO.C,C29*%
X111590000Y37288748D02*
X111590000Y38711252D01*
X113410000Y37288748D02*
X113410000Y38711252D01*
%TO.C,C3*%
X74011252Y21310000D02*
X72588748Y21310000D01*
X74011252Y19490000D02*
X72588748Y19490000D01*
%TO.C,R19*%
X74395000Y25473737D02*
X74395000Y24026263D01*
X77105000Y25473737D02*
X77105000Y24026263D01*
%TO.C,C53*%
X69640000Y25448752D02*
X69640000Y24026248D01*
X72360000Y25448752D02*
X72360000Y24026248D01*
%TO.C,R37*%
X34065000Y27272936D02*
X34065000Y27727064D01*
X35535000Y27272936D02*
X35535000Y27727064D01*
%TO.C,D6*%
X10865000Y59135000D02*
X10865000Y57665000D01*
X11515000Y59135000D02*
X10865000Y59135000D01*
X11835000Y57665000D02*
X12165000Y57665000D01*
X13135000Y59135000D02*
X12485000Y59135000D01*
X13135000Y57665000D02*
X13135000Y59135000D01*
X12160000Y57220000D02*
X11970000Y57080000D01*
X11970000Y57360000D01*
X12160000Y57220000D01*
G36*
X12160000Y57220000D02*
G01*
X11970000Y57080000D01*
X11970000Y57360000D01*
X12160000Y57220000D01*
G37*
%TO.C,D15*%
X33665000Y31635000D02*
X33665000Y30165000D01*
X33665000Y30165000D02*
X34315000Y30165000D01*
X34965000Y31635000D02*
X34635000Y31635000D01*
X35285000Y30165000D02*
X35935000Y30165000D01*
X35935000Y30165000D02*
X35935000Y31635000D01*
X34830000Y31940000D02*
X34640000Y32080000D01*
X34830000Y32220000D01*
X34830000Y31940000D01*
G36*
X34830000Y31940000D02*
G01*
X34640000Y32080000D01*
X34830000Y32220000D01*
X34830000Y31940000D01*
G37*
%TO.C,D11*%
X28465000Y23535000D02*
X28465000Y22065000D01*
X28465000Y22065000D02*
X29115000Y22065000D01*
X29765000Y23535000D02*
X29435000Y23535000D01*
X30085000Y22065000D02*
X30735000Y22065000D01*
X30735000Y22065000D02*
X30735000Y23535000D01*
X29630000Y23840000D02*
X29440000Y23980000D01*
X29630000Y24120000D01*
X29630000Y23840000D01*
G36*
X29630000Y23840000D02*
G01*
X29440000Y23980000D01*
X29630000Y24120000D01*
X29630000Y23840000D01*
G37*
%TO.C,D14*%
X25865000Y31635000D02*
X25865000Y30165000D01*
X25865000Y30165000D02*
X26515000Y30165000D01*
X27165000Y31635000D02*
X26835000Y31635000D01*
X27485000Y30165000D02*
X28135000Y30165000D01*
X28135000Y30165000D02*
X28135000Y31635000D01*
X27030000Y31940000D02*
X26840000Y32080000D01*
X27030000Y32220000D01*
X27030000Y31940000D01*
G36*
X27030000Y31940000D02*
G01*
X26840000Y32080000D01*
X27030000Y32220000D01*
X27030000Y31940000D01*
G37*
%TO.C,D10*%
X31065000Y31635000D02*
X31065000Y30165000D01*
X31065000Y30165000D02*
X31715000Y30165000D01*
X32365000Y31635000D02*
X32035000Y31635000D01*
X32685000Y30165000D02*
X33335000Y30165000D01*
X33335000Y30165000D02*
X33335000Y31635000D01*
X32230000Y31940000D02*
X32040000Y32080000D01*
X32230000Y32220000D01*
X32230000Y31940000D01*
G36*
X32230000Y31940000D02*
G01*
X32040000Y32080000D01*
X32230000Y32220000D01*
X32230000Y31940000D01*
G37*
%TO.C,D13*%
X25865000Y23535000D02*
X25865000Y22065000D01*
X25865000Y22065000D02*
X26515000Y22065000D01*
X27165000Y23535000D02*
X26835000Y23535000D01*
X27485000Y22065000D02*
X28135000Y22065000D01*
X28135000Y22065000D02*
X28135000Y23535000D01*
X27030000Y23840000D02*
X26840000Y23980000D01*
X27030000Y24120000D01*
X27030000Y23840000D01*
G36*
X27030000Y23840000D02*
G01*
X26840000Y23980000D01*
X27030000Y24120000D01*
X27030000Y23840000D01*
G37*
%TO.C,R23*%
X28865000Y19172936D02*
X28865000Y19627064D01*
X30335000Y19172936D02*
X30335000Y19627064D01*
%TO.C,D16*%
X33665000Y23535000D02*
X33665000Y22065000D01*
X33665000Y22065000D02*
X34315000Y22065000D01*
X34965000Y23535000D02*
X34635000Y23535000D01*
X35285000Y22065000D02*
X35935000Y22065000D01*
X35935000Y22065000D02*
X35935000Y23535000D01*
X34830000Y23840000D02*
X34640000Y23980000D01*
X34830000Y24120000D01*
X34830000Y23840000D01*
G36*
X34830000Y23840000D02*
G01*
X34640000Y23980000D01*
X34830000Y24120000D01*
X34830000Y23840000D01*
G37*
%TO.C,R38*%
X34065000Y19172936D02*
X34065000Y19627064D01*
X35535000Y19172936D02*
X35535000Y19627064D01*
%TO.C,R24*%
X28865000Y27272936D02*
X28865000Y27727064D01*
X30335000Y27272936D02*
X30335000Y27727064D01*
%TO.C,D8*%
X31065000Y23535000D02*
X31065000Y22065000D01*
X31065000Y22065000D02*
X31715000Y22065000D01*
X32365000Y23535000D02*
X32035000Y23535000D01*
X32685000Y22065000D02*
X33335000Y22065000D01*
X33335000Y22065000D02*
X33335000Y23535000D01*
X32230000Y23840000D02*
X32040000Y23980000D01*
X32230000Y24120000D01*
X32230000Y23840000D01*
G36*
X32230000Y23840000D02*
G01*
X32040000Y23980000D01*
X32230000Y24120000D01*
X32230000Y23840000D01*
G37*
%TO.C,R39*%
X34265000Y61827064D02*
X34265000Y61372936D01*
X35735000Y61827064D02*
X35735000Y61372936D01*
%TO.C,R16*%
X11265000Y62227064D02*
X11265000Y61772936D01*
X12735000Y62227064D02*
X12735000Y61772936D01*
%TO.C,R22*%
X31465000Y27272936D02*
X31465000Y27727064D01*
X32935000Y27272936D02*
X32935000Y27727064D01*
%TO.C,R21*%
X31465000Y19172936D02*
X31465000Y19627064D01*
X32935000Y19172936D02*
X32935000Y19627064D01*
%TO.C,D1*%
X28665000Y60665000D02*
X28665000Y60335000D01*
X28665000Y59365000D02*
X30135000Y59365000D01*
X30135000Y61635000D02*
X28665000Y61635000D01*
X30135000Y60985000D02*
X30135000Y61635000D01*
X30135000Y59365000D02*
X30135000Y60015000D01*
X28220000Y60340000D02*
X28080000Y60530000D01*
X28360000Y60530000D01*
X28220000Y60340000D01*
G36*
X28220000Y60340000D02*
G01*
X28080000Y60530000D01*
X28360000Y60530000D01*
X28220000Y60340000D01*
G37*
%TO.C,R36*%
X26265000Y27272936D02*
X26265000Y27727064D01*
X27735000Y27272936D02*
X27735000Y27727064D01*
%TO.C,D12*%
X28465000Y31635000D02*
X28465000Y30165000D01*
X28465000Y30165000D02*
X29115000Y30165000D01*
X29765000Y31635000D02*
X29435000Y31635000D01*
X30085000Y30165000D02*
X30735000Y30165000D01*
X30735000Y30165000D02*
X30735000Y31635000D01*
X29630000Y31940000D02*
X29440000Y32080000D01*
X29630000Y32220000D01*
X29630000Y31940000D01*
G36*
X29630000Y31940000D02*
G01*
X29440000Y32080000D01*
X29630000Y32220000D01*
X29630000Y31940000D01*
G37*
%TO.C,R25*%
X26265000Y19172936D02*
X26265000Y19627064D01*
X27735000Y19172936D02*
X27735000Y19627064D01*
%TD*%
%LPC*%
D12*
%TO.C,J7*%
X74000000Y66500000D03*
D13*
X68920000Y71580000D03*
D12*
X71460000Y66500000D03*
D13*
X79080000Y71580000D03*
%TD*%
D12*
%TO.C,J9*%
X117000000Y66500000D03*
D13*
X111920000Y71580000D03*
D12*
X114460000Y66500000D03*
D13*
X122080000Y71580000D03*
%TD*%
D14*
%TO.C,H2*%
X50000000Y74000000D03*
%TD*%
%TO.C,H4*%
X123000000Y13000000D03*
%TD*%
%TO.C,H3*%
X8200000Y48300000D03*
%TD*%
%TO.C,H1*%
X93000000Y74000000D03*
%TD*%
D15*
%TO.C,U2*%
X69420000Y19000000D03*
X77040000Y19000000D03*
X79580000Y19000000D03*
X79580000Y42000000D03*
X77040000Y42000000D03*
X71960000Y42000000D03*
X69420000Y42000000D03*
D16*
X82500000Y21500000D03*
X66500000Y39500000D03*
%TD*%
D15*
%TO.C,U13*%
X112420000Y19000000D03*
X120040000Y19000000D03*
X122580000Y19000000D03*
X122580000Y42000000D03*
X120040000Y42000000D03*
X114960000Y42000000D03*
X112420000Y42000000D03*
D16*
X125500000Y21500000D03*
X109500000Y39500000D03*
%TD*%
D17*
%TO.C,TP24*%
X86970000Y46350000D03*
%TD*%
%TO.C,TP26*%
X113700000Y58000000D03*
%TD*%
%TO.C,TP27*%
X69300000Y62000000D03*
%TD*%
%TO.C,TP28*%
X112300000Y62000000D03*
%TD*%
%TO.C,TP29*%
X66750000Y46900000D03*
%TD*%
%TO.C,TP30*%
X109750000Y46900000D03*
%TD*%
%TO.C,TP23*%
X43970000Y46350000D03*
%TD*%
%TO.C,TP25*%
X70700000Y58000000D03*
%TD*%
D18*
%TO.C,TP16*%
X82450000Y57250000D03*
%TD*%
%TO.C,TP21*%
X46500000Y43500000D03*
%TD*%
%TO.C,TP20*%
X123200000Y48600000D03*
%TD*%
%TO.C,TP19*%
X80200000Y48600000D03*
%TD*%
%TO.C,TP17*%
X91575000Y62550000D03*
%TD*%
%TO.C,TP22*%
X89500000Y43500000D03*
%TD*%
%TO.C,TP15*%
X48575000Y62550000D03*
%TD*%
%TO.C,TP18*%
X125450000Y57250000D03*
%TD*%
D17*
%TO.C,TP52*%
X57490000Y31710000D03*
%TD*%
%TO.C,TP51*%
X58695000Y34000000D03*
%TD*%
%TO.C,TP50*%
X61500000Y31350000D03*
%TD*%
%TO.C,TP49*%
X73144325Y50300000D03*
%TD*%
%TO.C,TP48*%
X47000000Y31500000D03*
%TD*%
%TO.C,TP45*%
X51700000Y31000000D03*
%TD*%
%TO.C,TP44*%
X62400000Y74100000D03*
%TD*%
%TO.C,TP43*%
X47750000Y67200000D03*
%TD*%
%TO.C,TP42*%
X74650000Y30900000D03*
%TD*%
%TO.C,TP40*%
X101695000Y34000000D03*
%TD*%
%TO.C,TP41*%
X100490000Y31710000D03*
%TD*%
%TO.C,TP31*%
X117650000Y30900000D03*
%TD*%
%TO.C,TP32*%
X90750000Y67200000D03*
%TD*%
%TO.C,TP33*%
X105400000Y74100000D03*
%TD*%
%TO.C,TP34*%
X94700000Y31000000D03*
%TD*%
%TO.C,TP39*%
X104500000Y31350000D03*
%TD*%
%TO.C,TP37*%
X90000000Y31500000D03*
%TD*%
%TO.C,TP38*%
X116144325Y50300000D03*
%TD*%
D19*
%TO.C,N1*%
X36625000Y2312500D03*
X41375000Y2312500D03*
%TD*%
D20*
%TO.C,D3*%
X89000000Y6200000D03*
X86460000Y6200000D03*
%TD*%
D12*
%TO.C,J2*%
X35000000Y66500000D03*
D13*
X29920000Y71580000D03*
D12*
X32460000Y66500000D03*
D13*
X40080000Y71580000D03*
%TD*%
D21*
%TO.C,J1*%
X68880000Y10000000D03*
D22*
X68880000Y7460000D03*
X66340000Y10000000D03*
X66340000Y7460000D03*
X63800000Y10000000D03*
X63800000Y7460000D03*
X61260000Y10000000D03*
X61260000Y7460000D03*
X58720000Y10000000D03*
X58720000Y7460000D03*
X56180000Y10000000D03*
X56180000Y7460000D03*
X53640000Y10000000D03*
X53640000Y7460000D03*
X51100000Y10000000D03*
X51100000Y7460000D03*
%TD*%
D20*
%TO.C,D4*%
X108000000Y6200000D03*
X105460000Y6200000D03*
%TD*%
D23*
%TO.C,SW2*%
X31750000Y5522500D03*
X24740000Y5522500D03*
D24*
X30500000Y3032500D03*
X26000000Y3032500D03*
%TD*%
D25*
%TO.C,J10*%
X11610000Y5315000D03*
X17390000Y5315000D03*
D26*
X10180000Y5815000D03*
D27*
X10180000Y1635000D03*
D26*
X18820000Y5815000D03*
D27*
X18820000Y1635000D03*
%TD*%
D20*
%TO.C,D5*%
X116000000Y6200000D03*
X113460000Y6200000D03*
%TD*%
D12*
%TO.C,J3*%
X12000000Y66500000D03*
D13*
X6920000Y71580000D03*
D12*
X9460000Y66500000D03*
D13*
X17080000Y71580000D03*
%TD*%
D28*
%TO.C,R20*%
X118750000Y26300000D03*
X118750000Y23200000D03*
%TD*%
D29*
%TO.C,C54*%
X114000000Y26300000D03*
X114000000Y23175000D03*
%TD*%
D30*
%TO.C,C5*%
X79580000Y39562500D03*
X79580000Y36437500D03*
%TD*%
D31*
%TO.C,C4*%
X69500000Y36437500D03*
X69500000Y39562500D03*
%TD*%
D32*
%TO.C,C28*%
X117862500Y20400000D03*
X114737500Y20400000D03*
%TD*%
D30*
%TO.C,C30*%
X122580000Y39562500D03*
X122580000Y36437500D03*
%TD*%
D31*
%TO.C,C29*%
X112500000Y36437500D03*
X112500000Y39562500D03*
%TD*%
D32*
%TO.C,C3*%
X74862500Y20400000D03*
X71737500Y20400000D03*
%TD*%
D28*
%TO.C,R19*%
X75750000Y26300000D03*
X75750000Y23200000D03*
%TD*%
D29*
%TO.C,C53*%
X71000000Y26300000D03*
X71000000Y23175000D03*
%TD*%
D33*
%TO.C,R37*%
X34800000Y26587500D03*
X34800000Y28412500D03*
%TD*%
D34*
%TO.C,D6*%
X12650000Y57512500D03*
X11350000Y57512500D03*
X12000000Y59287500D03*
%TD*%
D35*
%TO.C,D15*%
X34150000Y31787500D03*
X35450000Y31787500D03*
X34800000Y30012500D03*
%TD*%
%TO.C,D11*%
X28950000Y23687500D03*
X30250000Y23687500D03*
X29600000Y21912500D03*
%TD*%
%TO.C,D14*%
X26350000Y31787500D03*
X27650000Y31787500D03*
X27000000Y30012500D03*
%TD*%
%TO.C,D10*%
X31550000Y31787500D03*
X32850000Y31787500D03*
X32200000Y30012500D03*
%TD*%
%TO.C,D13*%
X26350000Y23687500D03*
X27650000Y23687500D03*
X27000000Y21912500D03*
%TD*%
D33*
%TO.C,R23*%
X29600000Y18487500D03*
X29600000Y20312500D03*
%TD*%
D35*
%TO.C,D16*%
X34150000Y23687500D03*
X35450000Y23687500D03*
X34800000Y21912500D03*
%TD*%
D33*
%TO.C,R38*%
X34800000Y18487500D03*
X34800000Y20312500D03*
%TD*%
%TO.C,R24*%
X29600000Y26587500D03*
X29600000Y28412500D03*
%TD*%
D35*
%TO.C,D8*%
X31550000Y23687500D03*
X32850000Y23687500D03*
X32200000Y21912500D03*
%TD*%
D36*
%TO.C,R39*%
X35000000Y62512500D03*
X35000000Y60687500D03*
%TD*%
%TO.C,R16*%
X12000000Y62912500D03*
X12000000Y61087500D03*
%TD*%
D33*
%TO.C,R22*%
X32200000Y26587500D03*
X32200000Y28412500D03*
%TD*%
%TO.C,R21*%
X32200000Y18487500D03*
X32200000Y20312500D03*
%TD*%
D37*
%TO.C,D1*%
X28512500Y59850000D03*
X28512500Y61150000D03*
X30287500Y60500000D03*
%TD*%
D33*
%TO.C,R36*%
X27000000Y26587500D03*
X27000000Y28412500D03*
%TD*%
D35*
%TO.C,D12*%
X28950000Y31787500D03*
X30250000Y31787500D03*
X29600000Y30012500D03*
%TD*%
D33*
%TO.C,R25*%
X27000000Y18487500D03*
X27000000Y20312500D03*
%TD*%
%LPD*%
M02*
