M48
; DRILL file KiCad 10.0.1 date 2026-07-06T15:22:26
; FORMAT={-:-/ absolute / inch / decimal}
; #@! TF.CreationDate,2026-07-06T15:22:26+01:00
; #@! TF.GenerationSoftware,Kicad,Pcbnew,10.0.1
; #@! TF.FileFunction,Plated,1,4,PTH
FMAT,2
INCH
; #@! TA.AperFunction,Plated,PTH,ViaDrill
T1C0.0118
; #@! TA.AperFunction,Plated,PTH,ViaDrill
T2C0.0157
; #@! TA.AperFunction,Plated,PTH,ComponentDrill
T3C0.0197
; #@! TA.AperFunction,Plated,PTH,ComponentDrill
T4C0.0236
; #@! TA.AperFunction,Plated,PTH,ComponentDrill
T5C0.0300
; #@! TA.AperFunction,Plated,PTH,ComponentDrill
T6C0.0350
; #@! TA.AperFunction,Plated,PTH,ComponentDrill
T7C0.0390
; #@! TA.AperFunction,Plated,PTH,ComponentDrill
T8C0.0394
; #@! TA.AperFunction,Plated,PTH,ComponentDrill
T9C0.0512
; #@! TA.AperFunction,Plated,PTH,ComponentDrill
T10C0.0531
; #@! TA.AperFunction,Plated,PTH,ComponentDrill
T11C0.0591
; #@! TA.AperFunction,Plated,PTH,ComponentDrill
T12C0.0791
%
G90
G05
T1
X0.0843Y0.9996
X0.0906Y1.311
X0.0906Y0.5827
X0.1063Y0.0827
X0.1299Y2.0906
X0.1315Y2.4129
X0.1594Y0.5925
X0.1732Y1.5512
X0.1909Y0.624
X0.1969Y0.4173
X0.2303Y0.6496
X0.2874Y0.6594
X0.2913Y0.7185
X0.2992Y2.2717
X0.3048Y1.4286
X0.3209Y0.752
X0.3245Y1.468
X0.3245Y1.3656
X0.3284Y1.4055
X0.3346Y1.6575
X0.3402Y1.5684
X0.35Y1.5389
X0.3524Y0.7992
X0.356Y1.3597
X0.3678Y1.5034
X0.3681Y1.4641
X0.3785Y1.3431
X0.3835Y1.2468
X0.3996Y0.8327
X0.4032Y1.3263
X0.4154Y0.3504
X0.4409Y2.2087
X0.4465Y1.2133
X0.4488Y0.9606
X0.461Y1.1457
X0.4662Y1.468
X0.4682Y1.5054
X0.4764Y2.0354
X0.4803Y1.7598
X0.4855Y1.6448
X0.5016Y1.3046
X0.5028Y0.8126
X0.5063Y1.0496
X0.539Y1.2377
X0.539Y1.2023
X0.5551Y1.5787
X0.5618Y0.3561
X0.5709Y1.4173
X0.5748Y1.626
X0.5787Y2.4921
X0.5961Y2.092
X0.6102Y0.7551
X0.6119Y1.3164
X0.6181Y1.3858
X0.6197Y1.468
X0.6299Y2.0
X0.6374Y1.2165
X0.6374Y1.1929
X0.6378Y1.8583
X0.6378Y1.626
X0.6512Y0.7534
X0.6594Y1.3386
X0.6642Y1.7515
X0.6728Y0.6772
X0.685Y1.5669
X0.6925Y1.2488
X0.6953Y1.1528
X0.7008Y1.313
X0.7087Y0.7677
X0.7161Y0.3661
X0.7165Y0.4189
X0.7283Y1.0039
X0.7323Y1.0492
X0.7362Y0.874
X0.7438Y1.7121
X0.7559Y2.4843
X0.7677Y1.624
X0.7776Y1.0492
X0.7792Y1.7121
X0.7835Y1.811
X0.7835Y1.0925
X0.789Y0.9779
X0.7913Y0.374
X0.7969Y2.1412
X0.7992Y1.4685
X0.8031Y0.7559
X0.8087Y1.2436
X0.811Y1.7239
X0.8205Y2.0743
X0.8205Y1.8263
X0.8339Y1.34
X0.8346Y0.8622
X0.8441Y1.1531
X0.8465Y1.9094
X0.8465Y1.4075
X0.85Y1.3148
X0.8563Y1.5748
X0.8579Y2.4779
X0.878Y0.7638
X0.8839Y1.7992
X0.8917Y1.7343
X0.8934Y1.0256
X0.8934Y0.8499
X0.8976Y1.6909
X0.8976Y0.374
X0.8993Y2.1412
X0.8993Y1.2003
X0.9193Y1.7776
X0.9213Y1.8346
X0.9291Y1.9646
X0.9291Y0.3307
X0.9347Y1.2594
X0.9426Y1.468
X0.9441Y1.5472
X0.9465Y1.0468
X0.9682Y1.3893
X0.9803Y1.0276
X0.9823Y0.6575
X0.9882Y2.4488
X0.9921Y0.7008
X0.9961Y1.2087
X1.0039Y1.0925
X1.0439Y1.2053
X1.0508Y1.468
X1.0591Y1.3583
X1.0748Y1.878
X1.0787Y1.0037
X1.0866Y1.0827
X1.0984Y1.5472
X1.1102Y0.6693
X1.1142Y2.4488
X1.1142Y1.2913
X1.1142Y0.8661
X1.1142Y0.7559
X1.122Y0.2657
X1.1378Y1.0827
X1.1457Y1.1772
X1.1614Y0.6693
X1.1654Y1.0118
X1.1654Y0.8937
X1.1689Y1.3971
X1.1929Y1.5079
X1.2008Y0.2717
X1.2165Y0.7323
X1.2165Y0.6614
X1.2205Y0.8858
X1.2283Y1.0866
X1.2323Y1.0157
X1.2343Y1.1811
X1.248Y0.9803
X1.2536Y1.4523
X1.2638Y1.3386
X1.2677Y0.8627
X1.2683Y1.3785
X1.2717Y1.2992
X1.2717Y0.6732
X1.2756Y0.7638
X1.2835Y2.4488
X1.2953Y1.8465
X1.311Y0.1969
X1.4409Y1.9606
X1.4603Y1.7377
X1.5354Y0.8504
X1.8622Y0.6575
X1.8661Y0.7992
X1.9606Y0.4173
X1.9606Y0.3701
X2.063Y0.4173
X2.2146Y0.6378
X2.2608Y0.685
X2.2894Y0.6378
X2.2986Y1.5085
X2.9544Y0.3184
X3.0185Y0.0957
X3.0292Y0.409
X3.122Y0.3543
X3.2035Y0.0772
X3.4488Y0.6083
X3.4646Y0.4783
X3.4882Y0.6299
X3.5394Y0.6299
X3.6024Y0.5039
X3.761Y0.1201
X3.9537Y0.6299
X3.9915Y1.5085
X4.0037Y0.6299
X4.0146Y0.1508
X4.0537Y0.6299
X4.1037Y0.6299
X4.3658Y0.2515
T2
X0.7705Y0.6906
X0.7977Y0.2771
X0.8228Y0.689
X0.843Y0.2771
X0.8898Y0.2756
X1.6142Y0.7795
X1.6896Y1.2598
X1.7362Y1.9488
X1.752Y1.2362
X1.7638Y1.4094
X1.7717Y1.689
X1.8307Y1.3661
X1.8451Y2.3504
X1.9065Y1.6555
X1.9065Y1.5413
X1.9094Y1.4173
X1.9449Y2.1496
X1.9451Y2.0866
X1.9882Y2.2638
X1.9921Y1.4252
X1.9951Y1.1693
X1.9961Y2.0472
X2.0061Y2.0
X2.0079Y2.5591
X2.0079Y2.4803
X2.0079Y1.5748
X2.0118Y1.7748
X2.0341Y1.8213
X2.0354Y1.3858
X2.0866Y2.6417
X2.0984Y0.689
X2.1112Y1.4213
X2.126Y2.6969
X2.1358Y1.6122
X2.1417Y2.3004
X2.1457Y1.2402
X2.1541Y1.9094
X2.1612Y0.7874
X2.1614Y1.1063
X2.189Y2.1575
X2.2077Y1.9094
X2.2323Y1.6122
X2.2638Y2.0276
X2.2717Y1.9094
X2.2835Y1.811
X2.2835Y1.752
X2.311Y1.9516
X2.313Y1.5945
X2.3504Y1.4213
X2.3691Y1.9843
X2.372Y1.372
X2.3878Y2.1594
X2.3957Y1.6056
X2.4016Y2.4961
X2.4016Y2.4409
X2.4016Y2.2441
X2.4016Y1.3031
X2.4213Y1.5748
X2.435Y1.6122
X2.4557Y1.8898
X2.4606Y2.1978
X2.4724Y1.6545
X2.4724Y1.5413
X2.5132Y1.8898
X2.5315Y2.1978
X2.5366Y2.6969
X2.576Y2.3031
X2.6181Y2.4016
X2.6457Y2.2835
X2.6496Y1.9252
X2.6544Y1.4684
X2.6614Y1.6929
X2.7028Y1.9104
X2.7333Y2.1063
X2.811Y2.3466
X2.8579Y0.1471
X2.8839Y1.0335
X2.915Y0.1471
X2.9567Y2.0945
X2.9724Y1.8281
X2.9803Y2.3994
X2.9823Y2.3091
X3.0118Y2.1494
X3.1575Y2.4764
X3.2205Y2.0827
X3.2283Y1.811
X3.2795Y0.0906
X3.3384Y0.7874
X3.3825Y1.2598
X3.4291Y1.9488
X3.4449Y1.2362
X3.4567Y1.4094
X3.4646Y1.689
X3.5236Y1.3661
X3.5236Y0.4803
X3.538Y2.3504
X3.5945Y0.5807
X3.5994Y1.6555
X3.5994Y1.5413
X3.6024Y1.4173
X3.6378Y2.1496
X3.638Y2.0866
X3.6614Y0.5039
X3.6811Y2.2638
X3.685Y1.4252
X3.688Y1.1693
X3.689Y2.0472
X3.699Y2.0
X3.7008Y2.5591
X3.7008Y2.4803
X3.7008Y1.5748
X3.7047Y1.7748
X3.727Y1.8213
X3.7283Y1.3858
X3.7362Y0.6772
X3.7795Y2.6417
X3.7913Y0.689
X3.8041Y1.4213
X3.8189Y2.6969
X3.8287Y1.6122
X3.8346Y2.3004
X3.8386Y1.2402
X3.847Y1.9094
X3.8541Y0.7874
X3.8543Y1.1063
X3.8819Y2.1575
X3.9006Y1.9094
X3.9252Y1.6122
X3.9567Y2.0276
X3.9646Y1.9094
X3.9764Y1.811
X3.9764Y1.752
X4.0039Y1.9516
X4.0059Y1.5945
X4.0433Y1.4213
X4.062Y1.9843
X4.065Y1.372
X4.0807Y2.1594
X4.0886Y1.6056
X4.0945Y2.4961
X4.0945Y2.4409
X4.0945Y2.2441
X4.0945Y1.3031
X4.1142Y1.5748
X4.128Y1.6122
X4.1486Y1.8898
X4.1535Y2.1978
X4.1654Y1.6545
X4.1654Y1.5413
X4.2061Y1.8898
X4.2244Y2.1978
X4.2295Y2.6969
X4.2461Y0.6594
X4.2689Y2.3031
X4.311Y2.4016
X4.3386Y2.2835
X4.3425Y1.9252
X4.3473Y1.4684
X4.3543Y1.6929
X4.3957Y1.9104
X4.4262Y2.1063
X4.5039Y2.3466
X4.528Y0.4571
X4.5768Y1.0335
X4.6496Y2.0945
X4.6654Y1.8281
X4.6732Y2.3994
X4.6752Y2.3091
X4.7047Y2.1494
X4.8504Y2.4764
X4.9134Y2.0827
X4.9213Y1.811
X4.9406Y0.0802
T3
X1.7311Y1.8248
X1.8307Y1.7126
X1.8504Y1.2402
X1.8799Y2.6457
X1.9124Y2.4626
X2.0354Y1.2205
X2.2634Y1.2484
X2.3108Y1.3386
X2.4213Y1.2343
X2.4567Y2.9173
X2.628Y1.8465
X2.7283Y2.4409
X2.7835Y2.2835
X2.8797Y1.9803
X2.939Y1.2165
X3.1575Y1.9134
X3.2461Y2.2539
X3.424Y1.8248
X3.5236Y1.7126
X3.5433Y1.2402
X3.5728Y2.6457
X3.6053Y2.4626
X3.7283Y1.2205
X3.9563Y1.2484
X4.0037Y1.3386
X4.1142Y1.2343
X4.1496Y2.9173
X4.3209Y1.8465
X4.4213Y2.4409
X4.4764Y2.2835
X4.5726Y1.9803
X4.6319Y1.2165
X4.8504Y1.9134
X4.939Y2.2539
T5
X2.7331Y1.6535
X2.7331Y0.748
X2.8331Y1.6535
X3.0331Y1.6535
X3.0331Y0.748
X3.1331Y1.6535
X3.1331Y0.748
X4.426Y1.6535
X4.426Y0.748
X4.526Y1.6535
X4.726Y1.6535
X4.726Y0.748
X4.826Y1.6535
X4.826Y0.748
T6
X0.3724Y2.6181
X0.4724Y2.6181
X1.278Y2.6181
X1.378Y2.6181
X2.8134Y2.6181
X2.9134Y2.6181
X4.5063Y2.6181
X4.6063Y2.6181
T7
X1.0236Y0.1194
X1.2008Y0.1194
T8
X2.0118Y0.3937
X2.0118Y0.2937
X2.1118Y0.3937
X2.1118Y0.2937
X2.2118Y0.3937
X2.2118Y0.2937
X2.3118Y0.3937
X2.3118Y0.2937
X2.4118Y0.3937
X2.4118Y0.2937
X2.5118Y0.3937
X2.5118Y0.2937
X2.6118Y0.3937
X2.6118Y0.2937
X2.7118Y0.3937
X2.7118Y0.2937
X3.4039Y0.2441
X3.5039Y0.2441
X4.152Y0.2441
X4.252Y0.2441
X4.4669Y0.2441
X4.5669Y0.2441
T9
X0.974Y0.2174
X1.25Y0.2174
T10
X1.4419Y0.091
X1.6289Y0.091
T11
X2.6181Y1.5551
X3.248Y0.8465
X4.311Y1.5551
X4.9409Y0.8465
T12
X0.2724Y2.8181
X0.6724Y2.8181
X1.178Y2.8181
X1.578Y2.8181
X2.7134Y2.8181
X3.1134Y2.8181
X4.4063Y2.8181
X4.8063Y2.8181
T4
G00X0.4008Y0.2506
M15
G01X0.4008Y0.2073
M16
G05
G00X0.4008Y0.0801
M15
G01X0.4008Y0.0486
M16
G05
G00X0.7409Y0.2506
M15
G01X0.7409Y0.2073
M16
G05
G00X0.7409Y0.0801
M15
G01X0.7409Y0.0486
M16
G05
M30
