%TF.GenerationSoftware,KiCad,Pcbnew,9.0.6-9.0.6~ubuntu24.04.1*%
%TF.CreationDate,2025-12-06T00:42:22-05:00*%
%TF.ProjectId,stimjim,7374696d-6a69-46d2-9e6b-696361645f70,rev?*%
%TF.SameCoordinates,Original*%
%TF.FileFunction,Soldermask,Bot*%
%TF.FilePolarity,Negative*%
%FSLAX46Y46*%
G04 Gerber Fmt 4.6, Leading zero omitted, Abs format (unit mm)*
G04 Created by KiCad (PCBNEW 9.0.6-9.0.6~ubuntu24.04.1) date 2025-12-06 00:42:22*
%MOMM*%
%LPD*%
G01*
G04 APERTURE LIST*
G04 Aperture macros list*
%AMRoundRect*
0 Rectangle with rounded corners*
0 $1 Rounding radius*
0 $2 $3 $4 $5 $6 $7 $8 $9 X,Y pos of 4 corners*
0 Add a 4 corners polygon primitive as box body*
4,1,4,$2,$3,$4,$5,$6,$7,$8,$9,$2,$3,0*
0 Add four circle primitives for the rounded corners*
1,1,$1+$1,$2,$3*
1,1,$1+$1,$4,$5*
1,1,$1+$1,$6,$7*
1,1,$1+$1,$8,$9*
0 Add four rect primitives between the rounded corners*
20,1,$1+$1,$2,$3,$4,$5,0*
20,1,$1+$1,$4,$5,$6,$7,0*
20,1,$1+$1,$6,$7,$8,$9,0*
20,1,$1+$1,$8,$9,$2,$3,0*%
G04 Aperture macros list end*
%ADD10C,0.710000*%
%ADD11O,1.060000X2.160000*%
%ADD12O,1.060000X1.860000*%
%ADD13C,1.760000*%
%ADD14C,3.060000*%
%ADD15C,4.360000*%
%ADD16C,1.584000*%
%ADD17C,2.560000*%
%ADD18RoundRect,0.030000X0.950000X0.950000X-0.950000X0.950000X-0.950000X-0.950000X0.950000X-0.950000X0*%
%ADD19C,1.960000*%
%ADD20C,1.060000*%
%ADD21RoundRect,0.030000X-0.500000X-0.500000X0.500000X-0.500000X0.500000X0.500000X-0.500000X0.500000X0*%
%ADD22RoundRect,0.030000X-0.900000X-0.900000X0.900000X-0.900000X0.900000X0.900000X-0.900000X0.900000X0*%
%ADD23C,1.860000*%
%ADD24C,2.160000*%
%ADD25C,1.810000*%
%ADD26C,1.660000*%
%ADD27RoundRect,0.415000X0.415000X-0.415000X0.415000X0.415000X-0.415000X0.415000X-0.415000X-0.415000X0*%
%ADD28RoundRect,0.261539X-1.093461X0.418461X-1.093461X-0.418461X1.093461X-0.418461X1.093461X0.418461X0*%
%ADD29RoundRect,0.261320X-1.118680X0.431180X-1.118680X-0.431180X1.118680X-0.431180X1.118680X0.431180X0*%
%ADD30RoundRect,0.261320X-0.668680X0.431180X-0.668680X-0.431180X0.668680X-0.431180X0.668680X0.431180X0*%
%ADD31RoundRect,0.261320X0.668680X-0.431180X0.668680X0.431180X-0.668680X0.431180X-0.668680X-0.431180X0*%
%ADD32RoundRect,0.261320X0.431180X0.668680X-0.431180X0.668680X-0.431180X-0.668680X0.431180X-0.668680X0*%
G04 APERTURE END LIST*
D10*
%TO.C,J10*%
X33110000Y-131720000D03*
X38890000Y-131720000D03*
D11*
X31680000Y-131220000D03*
D12*
X31680000Y-135400000D03*
D11*
X40320000Y-131220000D03*
D12*
X40320000Y-135400000D03*
%TD*%
D13*
%TO.C,J7*%
X87900000Y-70800000D03*
X85400000Y-70800000D03*
D14*
X93000000Y-65700000D03*
X82800000Y-65700000D03*
%TD*%
D13*
%TO.C,J9*%
X129100000Y-71000000D03*
X126600000Y-71000000D03*
D14*
X134200000Y-65900000D03*
X124000000Y-65900000D03*
%TD*%
D15*
%TO.C,H2*%
X62000000Y-66000000D03*
%TD*%
%TO.C,H4*%
X136500000Y-126500000D03*
%TD*%
%TO.C,H3*%
X37100000Y-80500000D03*
%TD*%
%TO.C,H1*%
X104000000Y-66000000D03*
%TD*%
D16*
%TO.C,U2*%
X82670000Y-117800000D03*
X90290000Y-117800000D03*
X92830000Y-117800000D03*
X92830000Y-94800000D03*
X90290000Y-94800000D03*
X85210000Y-94800000D03*
X82670000Y-94800000D03*
D17*
X95750000Y-115300000D03*
X79750000Y-97300000D03*
%TD*%
D13*
%TO.C,J8*%
X116500000Y-68580000D03*
X116500000Y-63500000D03*
X113960000Y-68580000D03*
X113960000Y-63500000D03*
%TD*%
%TO.C,J6*%
X75400000Y-68380000D03*
X75400000Y-63300000D03*
X72860000Y-68380000D03*
X72860000Y-63300000D03*
%TD*%
D18*
%TO.C,J1*%
X121000000Y-127300000D03*
D19*
X121000000Y-129840000D03*
X118460000Y-127300000D03*
X118460000Y-129840000D03*
X115920000Y-127300000D03*
X115920000Y-129840000D03*
X113380000Y-127300000D03*
X113380000Y-129840000D03*
X110840000Y-127300000D03*
X110840000Y-129840000D03*
X108300000Y-127300000D03*
X108300000Y-129840000D03*
X105760000Y-127300000D03*
X105760000Y-129840000D03*
X103220000Y-127300000D03*
X103220000Y-129840000D03*
%TD*%
D16*
%TO.C,U13*%
X126420000Y-118500000D03*
X134040000Y-118500000D03*
X136580000Y-118500000D03*
X136580000Y-95500000D03*
X134040000Y-95500000D03*
X128960000Y-95500000D03*
X126420000Y-95500000D03*
D17*
X139500000Y-116000000D03*
X123500000Y-98000000D03*
%TD*%
D20*
%TO.C,TP8*%
X71014776Y-122360000D03*
%TD*%
%TO.C,TP24*%
X99700000Y-92850000D03*
%TD*%
%TO.C,TP26*%
X123300000Y-75300000D03*
%TD*%
%TO.C,TP27*%
X83400000Y-75400000D03*
%TD*%
%TO.C,TP28*%
X128050000Y-75400000D03*
%TD*%
%TO.C,TP29*%
X77650000Y-91400000D03*
%TD*%
%TO.C,TP30*%
X122650000Y-90600000D03*
%TD*%
%TO.C,TP1*%
X113800000Y-122800000D03*
%TD*%
%TO.C,TP23*%
X55300000Y-93200000D03*
%TD*%
%TO.C,TP2*%
X115100000Y-121000000D03*
%TD*%
%TO.C,TP3*%
X116350000Y-122936000D03*
%TD*%
%TO.C,TP4*%
X117602000Y-121031000D03*
%TD*%
%TO.C,TP5*%
X104500000Y-121400000D03*
%TD*%
%TO.C,TP6*%
X68199000Y-122340000D03*
%TD*%
%TO.C,TP7*%
X69710000Y-120790000D03*
%TD*%
%TO.C,TP25*%
X78850000Y-75500000D03*
%TD*%
%TO.C,TP13*%
X50000000Y-115000000D03*
%TD*%
%TO.C,TP12*%
X58928000Y-120904000D03*
%TD*%
%TO.C,TP11*%
X63000000Y-121900000D03*
%TD*%
%TO.C,TP9*%
X72900000Y-120800000D03*
%TD*%
%TO.C,TP10*%
X61050000Y-121250000D03*
%TD*%
D21*
%TO.C,TP16*%
X94950000Y-80100000D03*
%TD*%
%TO.C,TP21*%
X57800000Y-94300000D03*
%TD*%
%TO.C,TP20*%
X137400000Y-88900000D03*
%TD*%
%TO.C,TP19*%
X93200000Y-88600000D03*
%TD*%
%TO.C,TP17*%
X105700000Y-74950000D03*
%TD*%
%TO.C,TP22*%
X102650000Y-93750000D03*
%TD*%
%TO.C,TP15*%
X60850000Y-75150000D03*
%TD*%
%TO.C,TP18*%
X139450000Y-80250000D03*
%TD*%
D20*
%TO.C,TP52*%
X68707000Y-105918000D03*
%TD*%
%TO.C,TP51*%
X69800000Y-103900000D03*
%TD*%
%TO.C,TP50*%
X73100000Y-105900000D03*
%TD*%
%TO.C,TP49*%
X76700000Y-106000000D03*
%TD*%
%TO.C,TP48*%
X58200000Y-105500000D03*
%TD*%
%TO.C,TP45*%
X63700000Y-106000000D03*
%TD*%
%TO.C,TP44*%
X65100000Y-73900000D03*
%TD*%
%TO.C,TP43*%
X71950000Y-73900000D03*
%TD*%
%TO.C,TP42*%
X87850000Y-105750000D03*
%TD*%
%TO.C,TP40*%
X115150000Y-104100000D03*
%TD*%
%TO.C,TP41*%
X113750000Y-105900000D03*
%TD*%
%TO.C,TP31*%
X131650000Y-106600000D03*
%TD*%
%TO.C,TP32*%
X111350000Y-73900000D03*
%TD*%
%TO.C,TP33*%
X118100000Y-73900000D03*
%TD*%
%TO.C,TP34*%
X108600000Y-106400000D03*
%TD*%
%TO.C,TP39*%
X117900000Y-106150000D03*
%TD*%
%TO.C,TP37*%
X103950000Y-106300000D03*
%TD*%
%TO.C,TP38*%
X122000000Y-106300000D03*
%TD*%
%TO.C,TP46*%
X127250000Y-124800000D03*
%TD*%
%TO.C,TP35*%
X45500000Y-81400000D03*
%TD*%
%TO.C,TP47*%
X86000000Y-136000000D03*
%TD*%
D22*
%TO.C,D3*%
X65500000Y-133525000D03*
D23*
X63000000Y-133525000D03*
%TD*%
D20*
%TO.C,TP36*%
X86700000Y-131200000D03*
%TD*%
D13*
%TO.C,J2*%
X47600000Y-70800000D03*
X45100000Y-70800000D03*
D14*
X52700000Y-65700000D03*
X42500000Y-65700000D03*
%TD*%
D22*
%TO.C,D4*%
X73000000Y-133525000D03*
D23*
X70500000Y-133525000D03*
%TD*%
D24*
%TO.C,SW2*%
X51750000Y-132510000D03*
X44740000Y-132510000D03*
D25*
X50500000Y-135000000D03*
X46000000Y-135000000D03*
%TD*%
D22*
%TO.C,D5*%
X80500000Y-133525000D03*
D23*
X78000000Y-133525000D03*
%TD*%
D13*
%TO.C,J3*%
X27600000Y-70800000D03*
X25100000Y-70800000D03*
D14*
X32700000Y-65700000D03*
X22500000Y-65700000D03*
%TD*%
D20*
%TO.C,TP14*%
X106426000Y-121920000D03*
%TD*%
D26*
%TO.C,SW1*%
X24000000Y-134750000D03*
X18920000Y-134750000D03*
D27*
X24000000Y-127130000D03*
D26*
X21460000Y-127130000D03*
X18920000Y-127130000D03*
X24000000Y-129670000D03*
X21460000Y-129670000D03*
X18920000Y-129670000D03*
%TD*%
D28*
%TO.C,R20*%
X132750000Y-111200000D03*
X132750000Y-114300000D03*
%TD*%
D29*
%TO.C,C54*%
X128000000Y-111200000D03*
X128000000Y-114325000D03*
%TD*%
D30*
%TO.C,C5*%
X93000000Y-97187500D03*
X93000000Y-100312500D03*
%TD*%
D31*
%TO.C,C4*%
X83000000Y-100312500D03*
X83000000Y-97187500D03*
%TD*%
D32*
%TO.C,C28*%
X131862500Y-117100000D03*
X128737500Y-117100000D03*
%TD*%
D30*
%TO.C,C30*%
X136500000Y-97937500D03*
X136500000Y-101062500D03*
%TD*%
D31*
%TO.C,C29*%
X126500000Y-101062500D03*
X126500000Y-97937500D03*
%TD*%
D32*
%TO.C,C3*%
X88062500Y-117000000D03*
X84937500Y-117000000D03*
%TD*%
D28*
%TO.C,R19*%
X89000000Y-111200000D03*
X89000000Y-114300000D03*
%TD*%
D29*
%TO.C,C53*%
X84250000Y-111175000D03*
X84250000Y-114300000D03*
%TD*%
M02*
