%TF.GenerationSoftware,KiCad,Pcbnew,9.0.6-9.0.6~ubuntu24.04.1*%
%TF.CreationDate,2025-12-06T00:42:22-05:00*%
%TF.ProjectId,stimjim,7374696d-6a69-46d2-9e6b-696361645f70,rev?*%
%TF.SameCoordinates,Original*%
%TF.FileFunction,Soldermask,Top*%
%TF.FilePolarity,Negative*%
%FSLAX46Y46*%
G04 Gerber Fmt 4.6, Leading zero omitted, Abs format (unit mm)*
G04 Created by KiCad (PCBNEW 9.0.6-9.0.6~ubuntu24.04.1) date 2025-12-06 00:42:22*
%MOMM*%
%LPD*%
G01*
G04 APERTURE LIST*
G04 Aperture macros list*
%AMRoundRect*
0 Rectangle with rounded corners*
0 $1 Rounding radius*
0 $2 $3 $4 $5 $6 $7 $8 $9 X,Y pos of 4 corners*
0 Add a 4 corners polygon primitive as box body*
4,1,4,$2,$3,$4,$5,$6,$7,$8,$9,$2,$3,0*
0 Add four circle primitives for the rounded corners*
1,1,$1+$1,$2,$3*
1,1,$1+$1,$4,$5*
1,1,$1+$1,$6,$7*
1,1,$1+$1,$8,$9*
0 Add four rect primitives between the rounded corners*
20,1,$1+$1,$2,$3,$4,$5,0*
20,1,$1+$1,$4,$5,$6,$7,0*
20,1,$1+$1,$6,$7,$8,$9,0*
20,1,$1+$1,$8,$9,$2,$3,0*%
G04 Aperture macros list end*
%ADD10C,0.710000*%
%ADD11RoundRect,0.165000X-0.165000X-0.440000X0.165000X-0.440000X0.165000X0.440000X-0.165000X0.440000X0*%
%ADD12RoundRect,0.090000X-0.090000X-0.515000X0.090000X-0.515000X0.090000X0.515000X-0.090000X0.515000X0*%
%ADD13O,1.060000X2.160000*%
%ADD14O,1.060000X1.860000*%
%ADD15RoundRect,0.165000X0.165000X-0.840000X0.165000X0.840000X-0.165000X0.840000X-0.165000X-0.840000X0*%
%ADD16RoundRect,0.240000X-0.240000X-0.265000X0.240000X-0.265000X0.240000X0.265000X-0.240000X0.265000X0*%
%ADD17RoundRect,0.215000X0.290000X-0.215000X0.290000X0.215000X-0.290000X0.215000X-0.290000X-0.215000X0*%
%ADD18RoundRect,0.150000X0.200000X-0.150000X0.200000X0.150000X-0.200000X0.150000X-0.200000X-0.150000X0*%
%ADD19RoundRect,0.240000X0.265000X-0.240000X0.265000X0.240000X-0.265000X0.240000X-0.265000X-0.240000X0*%
%ADD20RoundRect,0.240000X-0.265000X0.240000X-0.265000X-0.240000X0.265000X-0.240000X0.265000X0.240000X0*%
%ADD21RoundRect,0.165000X0.165000X-0.890000X0.165000X0.890000X-0.165000X0.890000X-0.165000X-0.890000X0*%
%ADD22RoundRect,0.165000X0.840000X0.165000X-0.840000X0.165000X-0.840000X-0.165000X0.840000X-0.165000X0*%
%ADD23RoundRect,0.165000X-0.165000X0.602500X-0.165000X-0.602500X0.165000X-0.602500X0.165000X0.602500X0*%
%ADD24RoundRect,0.115000X0.115000X-0.652500X0.115000X0.652500X-0.115000X0.652500X-0.115000X-0.652500X0*%
%ADD25RoundRect,0.215000X-0.215000X-0.290000X0.215000X-0.290000X0.215000X0.290000X-0.215000X0.290000X0*%
%ADD26C,1.760000*%
%ADD27C,3.060000*%
%ADD28C,4.360000*%
%ADD29RoundRect,0.240000X0.240000X0.265000X-0.240000X0.265000X-0.240000X-0.265000X0.240000X-0.265000X0*%
%ADD30RoundRect,0.215000X0.215000X0.290000X-0.215000X0.290000X-0.215000X-0.290000X0.215000X-0.290000X0*%
%ADD31C,1.584000*%
%ADD32C,2.560000*%
%ADD33RoundRect,0.030000X0.950000X0.950000X-0.950000X0.950000X-0.950000X-0.950000X0.950000X-0.950000X0*%
%ADD34C,1.960000*%
%ADD35RoundRect,0.165000X-0.165000X0.840000X-0.165000X-0.840000X0.165000X-0.840000X0.165000X0.840000X0*%
%ADD36RoundRect,0.215000X-0.290000X0.215000X-0.290000X-0.215000X0.290000X-0.215000X0.290000X0.215000X0*%
%ADD37RoundRect,0.165000X0.740000X0.165000X-0.740000X0.165000X-0.740000X-0.165000X0.740000X-0.165000X0*%
%ADD38C,1.060000*%
%ADD39RoundRect,0.030000X-0.500000X-0.500000X0.500000X-0.500000X0.500000X0.500000X-0.500000X0.500000X0*%
%ADD40C,2.060000*%
%ADD41RoundRect,0.155000X-0.185000X0.155000X-0.185000X-0.155000X0.185000X-0.155000X0.185000X0.155000X0*%
%ADD42RoundRect,0.165000X0.165000X-0.527500X0.165000X0.527500X-0.165000X0.527500X-0.165000X-0.527500X0*%
%ADD43RoundRect,0.155000X-0.155000X-0.185000X0.155000X-0.185000X0.155000X0.185000X-0.155000X0.185000X0*%
%ADD44RoundRect,0.150000X-0.200000X0.150000X-0.200000X-0.150000X0.200000X-0.150000X0.200000X0.150000X0*%
%ADD45RoundRect,0.030000X-0.700000X-0.600000X0.700000X-0.600000X0.700000X0.600000X-0.700000X0.600000X0*%
%ADD46RoundRect,0.155000X0.155000X0.185000X-0.155000X0.185000X-0.155000X-0.185000X0.155000X-0.185000X0*%
%ADD47RoundRect,0.155000X0.185000X-0.155000X0.185000X0.155000X-0.185000X0.155000X-0.185000X-0.155000X0*%
%ADD48RoundRect,0.150000X0.150000X0.200000X-0.150000X0.200000X-0.150000X-0.200000X0.150000X-0.200000X0*%
%ADD49RoundRect,0.150000X-0.150000X-0.200000X0.150000X-0.200000X0.150000X0.200000X-0.150000X0.200000X0*%
%ADD50RoundRect,0.030000X-0.900000X-0.900000X0.900000X-0.900000X0.900000X0.900000X-0.900000X0.900000X0*%
%ADD51C,1.860000*%
%ADD52RoundRect,0.165000X-0.165000X-0.640000X0.165000X-0.640000X0.165000X0.640000X-0.165000X0.640000X0*%
%ADD53RoundRect,0.262500X-0.367500X-0.667500X0.367500X-0.667500X0.367500X0.667500X-0.367500X0.667500X0*%
%ADD54RoundRect,0.132500X0.132500X0.162500X-0.132500X0.162500X-0.132500X-0.162500X0.132500X-0.162500X0*%
%ADD55RoundRect,0.030000X0.500000X0.800000X-0.500000X0.800000X-0.500000X-0.800000X0.500000X-0.800000X0*%
%ADD56RoundRect,0.177500X0.177500X-0.665000X0.177500X0.665000X-0.177500X0.665000X-0.177500X-0.665000X0*%
%ADD57RoundRect,0.030000X0.500000X-1.575000X0.500000X1.575000X-0.500000X1.575000X-0.500000X-1.575000X0*%
%ADD58RoundRect,0.090000X-0.090000X-0.215000X0.090000X-0.215000X0.090000X0.215000X-0.090000X0.215000X0*%
%ADD59C,2.160000*%
%ADD60C,1.810000*%
%ADD61RoundRect,0.261538X-0.543462X-0.418462X0.543462X-0.418462X0.543462X0.418462X-0.543462X0.418462X0*%
%ADD62RoundRect,0.065000X0.365000X0.065000X-0.365000X0.065000X-0.365000X-0.065000X0.365000X-0.065000X0*%
%ADD63RoundRect,0.065000X0.065000X0.365000X-0.065000X0.365000X-0.065000X-0.365000X0.065000X-0.365000X0*%
%ADD64RoundRect,0.030000X1.700000X1.700000X-1.700000X1.700000X-1.700000X-1.700000X1.700000X-1.700000X0*%
%ADD65C,1.660000*%
%ADD66RoundRect,0.415000X0.415000X-0.415000X0.415000X0.415000X-0.415000X0.415000X-0.415000X-0.415000X0*%
G04 APERTURE END LIST*
D10*
%TO.C,J10*%
X33110000Y-131720000D03*
X38890000Y-131720000D03*
D11*
X32800000Y-130645000D03*
X33600000Y-130645000D03*
D12*
X34750000Y-130645000D03*
X35750000Y-130645000D03*
X36250000Y-130645000D03*
X37250000Y-130645000D03*
D11*
X38400000Y-130645000D03*
X39200000Y-130645000D03*
X39200000Y-130645000D03*
X38400000Y-130645000D03*
D12*
X37750000Y-130645000D03*
X36750000Y-130645000D03*
X35250000Y-130645000D03*
X34250000Y-130645000D03*
D11*
X33600000Y-130645000D03*
X32800000Y-130645000D03*
D13*
X31680000Y-131220000D03*
D14*
X31680000Y-135400000D03*
D13*
X40320000Y-131220000D03*
D14*
X40320000Y-135400000D03*
%TD*%
D15*
%TO.C,U21*%
X109691528Y-85306936D03*
X110961528Y-85306936D03*
X112231528Y-85306936D03*
X113501528Y-85306936D03*
X113501528Y-80356936D03*
X112231528Y-80356936D03*
X110961528Y-80356936D03*
X109691528Y-80356936D03*
%TD*%
D16*
%TO.C,C43*%
X102562500Y-77850000D03*
X104112500Y-77850000D03*
%TD*%
D17*
%TO.C,R11*%
X115558928Y-83707736D03*
X115558928Y-82057736D03*
%TD*%
D16*
%TO.C,C44*%
X106825000Y-87600000D03*
X108375000Y-87600000D03*
%TD*%
%TO.C,C20*%
X62125000Y-88200000D03*
X63675000Y-88200000D03*
%TD*%
D18*
%TO.C,R15*%
X26520000Y-115270000D03*
X26520000Y-114250000D03*
%TD*%
D16*
%TO.C,C18*%
X57925000Y-78700000D03*
X59475000Y-78700000D03*
%TD*%
D19*
%TO.C,C41*%
X119975000Y-92025000D03*
X119975000Y-90475000D03*
%TD*%
D20*
%TO.C,C39*%
X112400000Y-90825000D03*
X112400000Y-92375000D03*
%TD*%
D21*
%TO.C,U14*%
X112555000Y-118650000D03*
X113825000Y-118650000D03*
X115095000Y-118650000D03*
X116365000Y-118650000D03*
X117635000Y-118650000D03*
X118905000Y-118650000D03*
X120175000Y-118650000D03*
X121445000Y-118650000D03*
X121445000Y-109350000D03*
X120175000Y-109350000D03*
X118905000Y-109350000D03*
X117635000Y-109350000D03*
X116365000Y-109350000D03*
X115095000Y-109350000D03*
X113825000Y-109350000D03*
X112555000Y-109350000D03*
%TD*%
D20*
%TO.C,C34*%
X120550000Y-101925000D03*
X120550000Y-103475000D03*
%TD*%
D16*
%TO.C,C32*%
X110490000Y-107188000D03*
X112040000Y-107188000D03*
%TD*%
D22*
%TO.C,U16*%
X134975000Y-92905000D03*
X134975000Y-91635000D03*
X134975000Y-90365000D03*
X134975000Y-89095000D03*
X130025000Y-89095000D03*
X130025000Y-90365000D03*
X130025000Y-91635000D03*
X130025000Y-92905000D03*
%TD*%
D21*
%TO.C,U15*%
X100055000Y-118650000D03*
X101325000Y-118650000D03*
X102595000Y-118650000D03*
X103865000Y-118650000D03*
X105135000Y-118650000D03*
X106405000Y-118650000D03*
X107675000Y-118650000D03*
X108945000Y-118650000D03*
X108945000Y-109350000D03*
X107675000Y-109350000D03*
X106405000Y-109350000D03*
X105135000Y-109350000D03*
X103865000Y-109350000D03*
X102595000Y-109350000D03*
X101325000Y-109350000D03*
X100055000Y-109350000D03*
%TD*%
D15*
%TO.C,U10*%
X64741170Y-85810306D03*
X66011170Y-85810306D03*
X67281170Y-85810306D03*
X68551170Y-85810306D03*
X68551170Y-80860306D03*
X67281170Y-80860306D03*
X66011170Y-80860306D03*
X64741170Y-80860306D03*
%TD*%
D23*
%TO.C,U8*%
X58849170Y-96520000D03*
X56949170Y-96520000D03*
X57899170Y-98395000D03*
%TD*%
D24*
%TO.C,U17*%
X105326400Y-99841605D03*
X105976400Y-99841605D03*
X106626400Y-99841605D03*
X107276400Y-99841605D03*
X107926400Y-99841605D03*
X108576400Y-99841605D03*
X109226400Y-99841605D03*
X109876400Y-99841605D03*
X110526400Y-99841605D03*
X111176400Y-99841605D03*
X111826400Y-99841605D03*
X112476400Y-99841605D03*
X112476400Y-94116605D03*
X111826400Y-94116605D03*
X111176400Y-94116605D03*
X110526400Y-94116605D03*
X109876400Y-94116605D03*
X109226400Y-94116605D03*
X108576400Y-94116605D03*
X107926400Y-94116605D03*
X107276400Y-94116605D03*
X106626400Y-94116605D03*
X105976400Y-94116605D03*
X105326400Y-94116605D03*
%TD*%
D25*
%TO.C,R1*%
X57875000Y-88200000D03*
X59525000Y-88200000D03*
%TD*%
D19*
%TO.C,C35*%
X103600000Y-101486000D03*
X103600000Y-99936000D03*
%TD*%
D26*
%TO.C,J7*%
X87900000Y-70800000D03*
X85400000Y-70800000D03*
D27*
X93000000Y-65700000D03*
X82800000Y-65700000D03*
%TD*%
D21*
%TO.C,U4*%
X55574176Y-118581095D03*
X56844176Y-118581095D03*
X58114176Y-118581095D03*
X59384176Y-118581095D03*
X60654176Y-118581095D03*
X61924176Y-118581095D03*
X63194176Y-118581095D03*
X64464176Y-118581095D03*
X64464176Y-109281095D03*
X63194176Y-109281095D03*
X61924176Y-109281095D03*
X60654176Y-109281095D03*
X59384176Y-109281095D03*
X58114176Y-109281095D03*
X56844176Y-109281095D03*
X55574176Y-109281095D03*
%TD*%
D26*
%TO.C,J9*%
X129100000Y-71000000D03*
X126600000Y-71000000D03*
D27*
X134200000Y-65900000D03*
X124000000Y-65900000D03*
%TD*%
D20*
%TO.C,C10*%
X73700000Y-101925000D03*
X73700000Y-103475000D03*
%TD*%
D22*
%TO.C,U5*%
X90675000Y-92370000D03*
X90675000Y-91100000D03*
X90675000Y-89830000D03*
X90675000Y-88560000D03*
X85725000Y-88560000D03*
X85725000Y-89830000D03*
X85725000Y-91100000D03*
X85725000Y-92370000D03*
%TD*%
D28*
%TO.C,H2*%
X62000000Y-66000000D03*
%TD*%
D19*
%TO.C,C42*%
X118300000Y-92025000D03*
X118300000Y-90475000D03*
%TD*%
D28*
%TO.C,H4*%
X136500000Y-126500000D03*
%TD*%
D20*
%TO.C,C40*%
X109900000Y-90825000D03*
X109900000Y-92375000D03*
%TD*%
%TO.C,C33*%
X127525000Y-91375000D03*
X127525000Y-92925000D03*
%TD*%
D24*
%TO.C,U18*%
X116550000Y-99862500D03*
X117200000Y-99862500D03*
X117850000Y-99862500D03*
X118500000Y-99862500D03*
X119150000Y-99862500D03*
X119800000Y-99862500D03*
X120450000Y-99862500D03*
X120450000Y-94137500D03*
X119800000Y-94137500D03*
X119150000Y-94137500D03*
X118500000Y-94137500D03*
X117850000Y-94137500D03*
X117200000Y-94137500D03*
X116550000Y-94137500D03*
%TD*%
D29*
%TO.C,C38*%
X106875000Y-92300000D03*
X105325000Y-92300000D03*
%TD*%
D16*
%TO.C,C31*%
X99950000Y-107250000D03*
X101500000Y-107250000D03*
%TD*%
D19*
%TO.C,C11*%
X58900000Y-101775000D03*
X58900000Y-100225000D03*
%TD*%
D28*
%TO.C,H3*%
X37100000Y-80500000D03*
%TD*%
%TO.C,H1*%
X104000000Y-66000000D03*
%TD*%
D30*
%TO.C,R2*%
X67325000Y-89000000D03*
X65675000Y-89000000D03*
%TD*%
D16*
%TO.C,C6*%
X55359000Y-107188000D03*
X56909000Y-107188000D03*
%TD*%
D31*
%TO.C,U2*%
X82670000Y-117800000D03*
X90290000Y-117800000D03*
X92830000Y-117800000D03*
X92830000Y-94800000D03*
X90290000Y-94800000D03*
X85210000Y-94800000D03*
X82670000Y-94800000D03*
D32*
X95750000Y-115300000D03*
X79750000Y-97300000D03*
%TD*%
D19*
%TO.C,C52*%
X101600000Y-101486000D03*
X101600000Y-99936000D03*
%TD*%
D26*
%TO.C,J8*%
X116500000Y-68580000D03*
X116500000Y-63500000D03*
X113960000Y-68580000D03*
X113960000Y-63500000D03*
%TD*%
D29*
%TO.C,C13*%
X62075000Y-92400000D03*
X60525000Y-92400000D03*
%TD*%
D23*
%TO.C,U19*%
X103750000Y-96262500D03*
X101850000Y-96262500D03*
X102800000Y-98137500D03*
%TD*%
D16*
%TO.C,C19*%
X64437500Y-78600000D03*
X65987500Y-78600000D03*
%TD*%
D26*
%TO.C,J6*%
X75400000Y-68380000D03*
X75400000Y-63300000D03*
X72860000Y-68380000D03*
X72860000Y-63300000D03*
%TD*%
D19*
%TO.C,C17*%
X73400000Y-91875000D03*
X73400000Y-90325000D03*
%TD*%
D25*
%TO.C,R13*%
X121175000Y-77700000D03*
X122825000Y-77700000D03*
%TD*%
D17*
%TO.C,R10*%
X100600000Y-83425000D03*
X100600000Y-81775000D03*
%TD*%
D33*
%TO.C,J1*%
X121000000Y-127300000D03*
D34*
X121000000Y-129840000D03*
X118460000Y-127300000D03*
X118460000Y-129840000D03*
X115920000Y-127300000D03*
X115920000Y-129840000D03*
X113380000Y-127300000D03*
X113380000Y-129840000D03*
X110840000Y-127300000D03*
X110840000Y-129840000D03*
X108300000Y-127300000D03*
X108300000Y-129840000D03*
X105760000Y-127300000D03*
X105760000Y-129840000D03*
X103220000Y-127300000D03*
X103220000Y-129840000D03*
%TD*%
D29*
%TO.C,C47*%
X138828325Y-83104002D03*
X137278325Y-83104002D03*
%TD*%
D19*
%TO.C,C50*%
X127639325Y-84641002D03*
X127639325Y-83091002D03*
%TD*%
D20*
%TO.C,C8*%
X83500000Y-90825000D03*
X83500000Y-92375000D03*
%TD*%
D29*
%TO.C,C22*%
X94575000Y-83200000D03*
X93025000Y-83200000D03*
%TD*%
D17*
%TO.C,R4*%
X70700000Y-84025000D03*
X70700000Y-82375000D03*
%TD*%
D19*
%TO.C,C24*%
X73300000Y-87375000D03*
X73300000Y-85825000D03*
%TD*%
D20*
%TO.C,C21*%
X70300000Y-86025000D03*
X70300000Y-87575000D03*
%TD*%
D30*
%TO.C,R9*%
X112225000Y-88400000D03*
X110575000Y-88400000D03*
%TD*%
D29*
%TO.C,C48*%
X125475000Y-87400000D03*
X123925000Y-87400000D03*
%TD*%
D20*
%TO.C,C15*%
X65000000Y-90792000D03*
X65000000Y-92342000D03*
%TD*%
D17*
%TO.C,R12*%
X117667128Y-83580836D03*
X117667128Y-81930836D03*
%TD*%
D24*
%TO.C,U7*%
X71607170Y-99681806D03*
X72257170Y-99681806D03*
X72907170Y-99681806D03*
X73557170Y-99681806D03*
X74207170Y-99681806D03*
X74857170Y-99681806D03*
X75507170Y-99681806D03*
X75507170Y-93956806D03*
X74857170Y-93956806D03*
X74207170Y-93956806D03*
X73557170Y-93956806D03*
X72907170Y-93956806D03*
X72257170Y-93956806D03*
X71607170Y-93956806D03*
%TD*%
D15*
%TO.C,U20*%
X102873528Y-85182936D03*
X104143528Y-85182936D03*
X105413528Y-85182936D03*
X106683528Y-85182936D03*
X106683528Y-80232936D03*
X105413528Y-80232936D03*
X104143528Y-80232936D03*
X102873528Y-80232936D03*
%TD*%
D16*
%TO.C,C45*%
X109375000Y-78000000D03*
X110925000Y-78000000D03*
%TD*%
D29*
%TO.C,C12*%
X94475000Y-92400000D03*
X92925000Y-92400000D03*
%TD*%
D19*
%TO.C,C16*%
X75000000Y-91875000D03*
X75000000Y-90325000D03*
%TD*%
D17*
%TO.C,R3*%
X56209170Y-84325000D03*
X56209170Y-82675000D03*
%TD*%
D19*
%TO.C,C25*%
X83562585Y-84655969D03*
X83562585Y-83105969D03*
%TD*%
%TO.C,C49*%
X118000000Y-86975000D03*
X118000000Y-85425000D03*
%TD*%
D29*
%TO.C,C1*%
X67175000Y-120650000D03*
X65625000Y-120650000D03*
%TD*%
%TO.C,C23*%
X80502476Y-87885542D03*
X78952476Y-87885542D03*
%TD*%
D25*
%TO.C,R6*%
X76202476Y-78385542D03*
X77852476Y-78385542D03*
%TD*%
D29*
%TO.C,C26*%
X112575000Y-120777000D03*
X111025000Y-120777000D03*
%TD*%
D25*
%TO.C,R8*%
X102475000Y-87500000D03*
X104125000Y-87500000D03*
%TD*%
D21*
%TO.C,U3*%
X67204776Y-118508895D03*
X68474776Y-118508895D03*
X69744776Y-118508895D03*
X71014776Y-118508895D03*
X72284776Y-118508895D03*
X73554776Y-118508895D03*
X74824776Y-118508895D03*
X76094776Y-118508895D03*
X76094776Y-109208895D03*
X74824776Y-109208895D03*
X73554776Y-109208895D03*
X72284776Y-109208895D03*
X71014776Y-109208895D03*
X69744776Y-109208895D03*
X68474776Y-109208895D03*
X67204776Y-109208895D03*
%TD*%
D35*
%TO.C,U11*%
X78932476Y-80710542D03*
X77662476Y-80710542D03*
X76392476Y-80710542D03*
X75122476Y-80710542D03*
X75122476Y-85660542D03*
X76392476Y-85660542D03*
X77662476Y-85660542D03*
X78932476Y-85660542D03*
%TD*%
%TO.C,U22*%
X123911505Y-80206524D03*
X122641505Y-80206524D03*
X121371505Y-80206524D03*
X120101505Y-80206524D03*
X120101505Y-85156524D03*
X121371505Y-85156524D03*
X122641505Y-85156524D03*
X123911505Y-85156524D03*
%TD*%
D17*
%TO.C,R5*%
X72900000Y-84025000D03*
X72900000Y-82375000D03*
%TD*%
D20*
%TO.C,C36*%
X118850000Y-101925000D03*
X118850000Y-103475000D03*
%TD*%
D16*
%TO.C,C27*%
X100025000Y-120700000D03*
X101575000Y-120700000D03*
%TD*%
D36*
%TO.C,R14*%
X137500000Y-76275000D03*
X137500000Y-77925000D03*
%TD*%
D24*
%TO.C,U6*%
X60425000Y-99862500D03*
X61075000Y-99862500D03*
X61725000Y-99862500D03*
X62375000Y-99862500D03*
X63025000Y-99862500D03*
X63675000Y-99862500D03*
X64325000Y-99862500D03*
X64975000Y-99862500D03*
X65625000Y-99862500D03*
X66275000Y-99862500D03*
X66925000Y-99862500D03*
X67575000Y-99862500D03*
X67575000Y-94137500D03*
X66925000Y-94137500D03*
X66275000Y-94137500D03*
X65625000Y-94137500D03*
X64975000Y-94137500D03*
X64325000Y-94137500D03*
X63675000Y-94137500D03*
X63025000Y-94137500D03*
X62375000Y-94137500D03*
X61725000Y-94137500D03*
X61075000Y-94137500D03*
X60425000Y-94137500D03*
%TD*%
D29*
%TO.C,C37*%
X138725000Y-92900000D03*
X137175000Y-92900000D03*
%TD*%
D37*
%TO.C,U12*%
X90894891Y-85725799D03*
X90894891Y-84455799D03*
X90894891Y-83185799D03*
X90894891Y-81915799D03*
X90894891Y-80645799D03*
X90894891Y-79375799D03*
X90894891Y-78105799D03*
X90894891Y-76835799D03*
X85744891Y-76835799D03*
X85744891Y-78105799D03*
X85744891Y-79375799D03*
X85744891Y-80645799D03*
X85744891Y-81915799D03*
X85744891Y-83185799D03*
X85744891Y-84455799D03*
X85744891Y-85725799D03*
%TD*%
D16*
%TO.C,C7*%
X65425000Y-107061000D03*
X66975000Y-107061000D03*
%TD*%
D36*
%TO.C,R7*%
X93100000Y-76475000D03*
X93100000Y-78125000D03*
%TD*%
D16*
%TO.C,C2*%
X55486000Y-120600000D03*
X57036000Y-120600000D03*
%TD*%
D20*
%TO.C,C9*%
X75300000Y-101925000D03*
X75300000Y-103475000D03*
%TD*%
%TO.C,C14*%
X67600000Y-90792000D03*
X67600000Y-92342000D03*
%TD*%
D19*
%TO.C,C51*%
X57200000Y-101775000D03*
X57200000Y-100225000D03*
%TD*%
D37*
%TO.C,U23*%
X135294325Y-85517002D03*
X135294325Y-84247002D03*
X135294325Y-82977002D03*
X135294325Y-81707002D03*
X135294325Y-80437002D03*
X135294325Y-79167002D03*
X135294325Y-77897002D03*
X135294325Y-76627002D03*
X130144325Y-76627002D03*
X130144325Y-77897002D03*
X130144325Y-79167002D03*
X130144325Y-80437002D03*
X130144325Y-81707002D03*
X130144325Y-82977002D03*
X130144325Y-84247002D03*
X130144325Y-85517002D03*
%TD*%
D31*
%TO.C,U13*%
X126420000Y-118500000D03*
X134040000Y-118500000D03*
X136580000Y-118500000D03*
X136580000Y-95500000D03*
X134040000Y-95500000D03*
X128960000Y-95500000D03*
X126420000Y-95500000D03*
D32*
X139500000Y-116000000D03*
X123500000Y-98000000D03*
%TD*%
D20*
%TO.C,C46*%
X115700000Y-85425000D03*
X115700000Y-86975000D03*
%TD*%
D30*
%TO.C,R18*%
X112525000Y-104305100D03*
X110875000Y-104305100D03*
%TD*%
%TO.C,R17*%
X67025000Y-104700000D03*
X65375000Y-104700000D03*
%TD*%
D38*
%TO.C,TP8*%
X71014776Y-122360000D03*
%TD*%
%TO.C,TP24*%
X99700000Y-92850000D03*
%TD*%
%TO.C,TP26*%
X123300000Y-75300000D03*
%TD*%
%TO.C,TP27*%
X83400000Y-75400000D03*
%TD*%
%TO.C,TP28*%
X128050000Y-75400000D03*
%TD*%
%TO.C,TP29*%
X77650000Y-91400000D03*
%TD*%
%TO.C,TP30*%
X122650000Y-90600000D03*
%TD*%
%TO.C,TP1*%
X113800000Y-122800000D03*
%TD*%
%TO.C,TP23*%
X55300000Y-93200000D03*
%TD*%
%TO.C,TP2*%
X115100000Y-121000000D03*
%TD*%
%TO.C,TP3*%
X116350000Y-122936000D03*
%TD*%
%TO.C,TP4*%
X117602000Y-121031000D03*
%TD*%
%TO.C,TP5*%
X104500000Y-121400000D03*
%TD*%
%TO.C,TP6*%
X68199000Y-122340000D03*
%TD*%
%TO.C,TP7*%
X69710000Y-120790000D03*
%TD*%
%TO.C,TP25*%
X78850000Y-75500000D03*
%TD*%
%TO.C,TP13*%
X50000000Y-115000000D03*
%TD*%
%TO.C,TP12*%
X58928000Y-120904000D03*
%TD*%
%TO.C,TP11*%
X63000000Y-121900000D03*
%TD*%
%TO.C,TP9*%
X72900000Y-120800000D03*
%TD*%
%TO.C,TP10*%
X61050000Y-121250000D03*
%TD*%
D39*
%TO.C,TP16*%
X94950000Y-80100000D03*
%TD*%
%TO.C,TP21*%
X57800000Y-94300000D03*
%TD*%
%TO.C,TP20*%
X137400000Y-88900000D03*
%TD*%
%TO.C,TP19*%
X93200000Y-88600000D03*
%TD*%
%TO.C,TP17*%
X105700000Y-74950000D03*
%TD*%
%TO.C,TP22*%
X102650000Y-93750000D03*
%TD*%
%TO.C,TP15*%
X60850000Y-75150000D03*
%TD*%
%TO.C,TP18*%
X139450000Y-80250000D03*
%TD*%
D38*
%TO.C,TP52*%
X68707000Y-105918000D03*
%TD*%
%TO.C,TP51*%
X69800000Y-103900000D03*
%TD*%
%TO.C,TP50*%
X73100000Y-105900000D03*
%TD*%
%TO.C,TP49*%
X76700000Y-106000000D03*
%TD*%
%TO.C,TP48*%
X58200000Y-105500000D03*
%TD*%
%TO.C,TP45*%
X63700000Y-106000000D03*
%TD*%
%TO.C,TP44*%
X65100000Y-73900000D03*
%TD*%
%TO.C,TP43*%
X71950000Y-73900000D03*
%TD*%
%TO.C,TP42*%
X87850000Y-105750000D03*
%TD*%
%TO.C,TP40*%
X115150000Y-104100000D03*
%TD*%
%TO.C,TP41*%
X113750000Y-105900000D03*
%TD*%
%TO.C,TP31*%
X131650000Y-106600000D03*
%TD*%
%TO.C,TP32*%
X111350000Y-73900000D03*
%TD*%
%TO.C,TP33*%
X118100000Y-73900000D03*
%TD*%
%TO.C,TP34*%
X108600000Y-106400000D03*
%TD*%
%TO.C,TP39*%
X117900000Y-106150000D03*
%TD*%
%TO.C,TP37*%
X103950000Y-106300000D03*
%TD*%
%TO.C,TP38*%
X122000000Y-106300000D03*
%TD*%
%TO.C,TP46*%
X127250000Y-124800000D03*
%TD*%
%TO.C,TP35*%
X45500000Y-81400000D03*
%TD*%
%TO.C,TP47*%
X86000000Y-136000000D03*
%TD*%
D40*
%TO.C,TP56*%
X17200000Y-104900000D03*
%TD*%
D41*
%TO.C,C64*%
X31110000Y-106520000D03*
X31110000Y-107480000D03*
%TD*%
D42*
%TO.C,U151*%
X17050000Y-122137500D03*
X18000000Y-122137500D03*
X18950000Y-122137500D03*
X18950000Y-119862500D03*
X17050000Y-119862500D03*
%TD*%
D40*
%TO.C,TP53*%
X29100000Y-127900000D03*
%TD*%
D43*
%TO.C,C83*%
X38720000Y-100200000D03*
X39680000Y-100200000D03*
%TD*%
D40*
%TO.C,TP55*%
X21200000Y-120000000D03*
%TD*%
D44*
%TO.C,R31*%
X29470000Y-111490000D03*
X29470000Y-112510000D03*
%TD*%
D18*
%TO.C,R32*%
X42980000Y-136010000D03*
X42980000Y-134990000D03*
%TD*%
D30*
%TO.C,R34*%
X70500000Y-131545000D03*
X68850000Y-131545000D03*
%TD*%
D18*
%TO.C,R33*%
X26600000Y-107960000D03*
X26600000Y-106940000D03*
%TD*%
D44*
%TO.C,R30*%
X28530000Y-111490000D03*
X28530000Y-112510000D03*
%TD*%
D41*
%TO.C,C310*%
X21665000Y-122137500D03*
X21665000Y-123097500D03*
%TD*%
D45*
%TO.C,Y1*%
X30900000Y-89670000D03*
X33100000Y-89670000D03*
X33100000Y-88070000D03*
X30900000Y-88070000D03*
%TD*%
D46*
%TO.C,C71*%
X33660000Y-91030000D03*
X32700000Y-91030000D03*
%TD*%
D41*
%TO.C,C81*%
X34410000Y-106030000D03*
X34410000Y-106990000D03*
%TD*%
D15*
%TO.C,U9*%
X58166000Y-85849000D03*
X59436000Y-85849000D03*
X60706000Y-85849000D03*
X61976000Y-85849000D03*
X61976000Y-80899000D03*
X60706000Y-80899000D03*
X59436000Y-80899000D03*
X58166000Y-80899000D03*
%TD*%
D47*
%TO.C,C62*%
X31060000Y-112670000D03*
X31060000Y-111710000D03*
%TD*%
%TO.C,C57*%
X34390000Y-93970000D03*
X34390000Y-93010000D03*
%TD*%
D48*
%TO.C,R16*%
X32095000Y-121120000D03*
X31075000Y-121120000D03*
%TD*%
D49*
%TO.C,R28*%
X24490000Y-92000000D03*
X25510000Y-92000000D03*
%TD*%
D46*
%TO.C,C86*%
X27660000Y-106060000D03*
X26700000Y-106060000D03*
%TD*%
D16*
%TO.C,C297*%
X17050000Y-118220000D03*
X18600000Y-118220000D03*
%TD*%
D40*
%TO.C,TP54*%
X124400000Y-122100000D03*
%TD*%
D50*
%TO.C,D3*%
X65500000Y-133525000D03*
D51*
X63000000Y-133525000D03*
%TD*%
D52*
%TO.C,J11*%
X20460000Y-90070000D03*
X21460000Y-90070000D03*
X22460000Y-90070000D03*
D53*
X19160000Y-87545000D03*
X23760000Y-87545000D03*
%TD*%
D54*
%TO.C,C87*%
X29500000Y-106060000D03*
X28500000Y-106060000D03*
%TD*%
D49*
%TO.C,R29*%
X24490000Y-93000000D03*
X25510000Y-93000000D03*
%TD*%
D55*
%TO.C,L1*%
X30000000Y-108690000D03*
X28000000Y-108690000D03*
%TD*%
D38*
%TO.C,TP36*%
X86700000Y-131200000D03*
%TD*%
D26*
%TO.C,J2*%
X47600000Y-70800000D03*
X45100000Y-70800000D03*
D27*
X52700000Y-65700000D03*
X42500000Y-65700000D03*
%TD*%
D46*
%TO.C,C60*%
X25970000Y-99540000D03*
X25010000Y-99540000D03*
%TD*%
D47*
%TO.C,C58*%
X32810000Y-93970000D03*
X32810000Y-93010000D03*
%TD*%
D30*
%TO.C,R35*%
X78000000Y-131550000D03*
X76350000Y-131550000D03*
%TD*%
D56*
%TO.C,U25*%
X32095000Y-119587500D03*
X33365000Y-119587500D03*
X34635000Y-119587500D03*
X35905000Y-119587500D03*
X35905000Y-112412500D03*
X34635000Y-112412500D03*
X33365000Y-112412500D03*
X32095000Y-112412500D03*
%TD*%
D18*
%TO.C,R263*%
X20735000Y-123157500D03*
X20735000Y-122137500D03*
%TD*%
D46*
%TO.C,C61*%
X25970000Y-103610000D03*
X25010000Y-103610000D03*
%TD*%
D57*
%TO.C,J4*%
X20190000Y-82525000D03*
X20190000Y-77475000D03*
X22730000Y-82525000D03*
X22730000Y-77475000D03*
X25270000Y-82525000D03*
X25270000Y-77475000D03*
X27810000Y-82525000D03*
X27810000Y-77475000D03*
%TD*%
D43*
%TO.C,C55*%
X38030000Y-102200000D03*
X38990000Y-102200000D03*
%TD*%
D58*
%TO.C,D9*%
X35000000Y-125385000D03*
X35500000Y-125385000D03*
X36000000Y-125385000D03*
X36500000Y-125385000D03*
X37000000Y-125385000D03*
X37000000Y-124615000D03*
X36500000Y-124615000D03*
X36000000Y-124615000D03*
X35500000Y-124615000D03*
X35000000Y-124615000D03*
%TD*%
D18*
%TO.C,R27*%
X31800000Y-92010000D03*
X31800000Y-90990000D03*
%TD*%
D41*
%TO.C,C65*%
X32030000Y-106520000D03*
X32030000Y-107480000D03*
%TD*%
D43*
%TO.C,C70*%
X29940000Y-91030000D03*
X30900000Y-91030000D03*
%TD*%
D50*
%TO.C,D4*%
X73000000Y-133525000D03*
D51*
X70500000Y-133525000D03*
%TD*%
D47*
%TO.C,C85*%
X30870000Y-92880000D03*
X30870000Y-91920000D03*
%TD*%
D59*
%TO.C,SW2*%
X51750000Y-132510000D03*
X44740000Y-132510000D03*
D60*
X50500000Y-135000000D03*
X46000000Y-135000000D03*
%TD*%
D61*
%TO.C,SW3*%
X17020000Y-109750000D03*
X24980000Y-109750000D03*
X17020000Y-114250000D03*
X24980000Y-114250000D03*
%TD*%
D46*
%TO.C,C63*%
X26320000Y-104610000D03*
X25360000Y-104610000D03*
%TD*%
%TO.C,C84*%
X25280000Y-100460000D03*
X24320000Y-100460000D03*
%TD*%
D50*
%TO.C,D5*%
X80500000Y-133525000D03*
D51*
X78000000Y-133525000D03*
%TD*%
D18*
%TO.C,R266*%
X34580000Y-129145000D03*
X34580000Y-128125000D03*
%TD*%
D26*
%TO.C,J3*%
X27600000Y-70800000D03*
X25100000Y-70800000D03*
D27*
X32700000Y-65700000D03*
X22500000Y-65700000D03*
%TD*%
D16*
%TO.C,C295*%
X16750000Y-123780000D03*
X18300000Y-123780000D03*
%TD*%
D43*
%TO.C,C56*%
X38030000Y-98200000D03*
X38990000Y-98200000D03*
%TD*%
D54*
%TO.C,C88*%
X29500000Y-106980000D03*
X28500000Y-106980000D03*
%TD*%
D62*
%TO.C,U24*%
X36950000Y-103800000D03*
X36950000Y-103400000D03*
X36950000Y-103000000D03*
X36950000Y-102600000D03*
X36950000Y-102200000D03*
X36950000Y-101800000D03*
X36950000Y-101400000D03*
X36950000Y-101000000D03*
X36950000Y-100600000D03*
X36950000Y-100200000D03*
X36950000Y-99800000D03*
X36950000Y-99400000D03*
X36950000Y-99000000D03*
X36950000Y-98600000D03*
X36950000Y-98200000D03*
X36950000Y-97800000D03*
X36950000Y-97400000D03*
X36950000Y-97000000D03*
X36950000Y-96600000D03*
X36950000Y-96200000D03*
D63*
X35800000Y-95050000D03*
X35400000Y-95050000D03*
X35000000Y-95050000D03*
X34600000Y-95050000D03*
X34200000Y-95050000D03*
X33800000Y-95050000D03*
X33400000Y-95050000D03*
X33000000Y-95050000D03*
X32600000Y-95050000D03*
X32200000Y-95050000D03*
X31800000Y-95050000D03*
X31400000Y-95050000D03*
X31000000Y-95050000D03*
X30600000Y-95050000D03*
X30200000Y-95050000D03*
X29800000Y-95050000D03*
X29400000Y-95050000D03*
X29000000Y-95050000D03*
X28600000Y-95050000D03*
X28200000Y-95050000D03*
D62*
X27050000Y-96200000D03*
X27050000Y-96600000D03*
X27050000Y-97000000D03*
X27050000Y-97400000D03*
X27050000Y-97800000D03*
X27050000Y-98200000D03*
X27050000Y-98600000D03*
X27050000Y-99000000D03*
X27050000Y-99400000D03*
X27050000Y-99800000D03*
X27050000Y-100200000D03*
X27050000Y-100600000D03*
X27050000Y-101000000D03*
X27050000Y-101400000D03*
X27050000Y-101800000D03*
X27050000Y-102200000D03*
X27050000Y-102600000D03*
X27050000Y-103000000D03*
X27050000Y-103400000D03*
X27050000Y-103800000D03*
D63*
X28200000Y-104950000D03*
X28600000Y-104950000D03*
X29000000Y-104950000D03*
X29400000Y-104950000D03*
X29800000Y-104950000D03*
X30200000Y-104950000D03*
X30600000Y-104950000D03*
X31000000Y-104950000D03*
X31400000Y-104950000D03*
X31800000Y-104950000D03*
X32200000Y-104950000D03*
X32600000Y-104950000D03*
X33000000Y-104950000D03*
X33400000Y-104950000D03*
X33800000Y-104950000D03*
X34200000Y-104950000D03*
X34600000Y-104950000D03*
X35000000Y-104950000D03*
X35400000Y-104950000D03*
X35800000Y-104950000D03*
D64*
X32000000Y-100000000D03*
%TD*%
D17*
%TO.C,R26*%
X60320000Y-135175000D03*
X60320000Y-133525000D03*
%TD*%
D46*
%TO.C,C59*%
X25970000Y-95990000D03*
X25010000Y-95990000D03*
%TD*%
D38*
%TO.C,TP14*%
X106426000Y-121920000D03*
%TD*%
D65*
%TO.C,SW1*%
X24000000Y-134750000D03*
X18920000Y-134750000D03*
D66*
X24000000Y-127130000D03*
D65*
X21460000Y-127130000D03*
X18920000Y-127130000D03*
X24000000Y-129670000D03*
X21460000Y-129670000D03*
X18920000Y-129670000D03*
%TD*%
D18*
%TO.C,R267*%
X37580000Y-129145000D03*
X37580000Y-128125000D03*
%TD*%
M02*
