%TF.GenerationSoftware,KiCad,Pcbnew,9.0.6-9.0.6~ubuntu24.04.1*%
%TF.CreationDate,2025-12-06T00:42:22-05:00*%
%TF.ProjectId,stimjim,7374696d-6a69-46d2-9e6b-696361645f70,rev?*%
%TF.SameCoordinates,Original*%
%TF.FileFunction,Legend,Bot*%
%TF.FilePolarity,Positive*%
%FSLAX46Y46*%
G04 Gerber Fmt 4.6, Leading zero omitted, Abs format (unit mm)*
G04 Created by KiCad (PCBNEW 9.0.6-9.0.6~ubuntu24.04.1) date 2025-12-06 00:42:22*
%MOMM*%
%LPD*%
G01*
G04 APERTURE LIST*
G04 Aperture macros list*
%AMRoundRect*
0 Rectangle with rounded corners*
0 $1 Rounding radius*
0 $2 $3 $4 $5 $6 $7 $8 $9 X,Y pos of 4 corners*
0 Add a 4 corners polygon primitive as box body*
4,1,4,$2,$3,$4,$5,$6,$7,$8,$9,$2,$3,0*
0 Add four circle primitives for the rounded corners*
1,1,$1+$1,$2,$3*
1,1,$1+$1,$4,$5*
1,1,$1+$1,$6,$7*
1,1,$1+$1,$8,$9*
0 Add four rect primitives between the rounded corners*
20,1,$1+$1,$2,$3,$4,$5,0*
20,1,$1+$1,$4,$5,$6,$7,0*
20,1,$1+$1,$6,$7,$8,$9,0*
20,1,$1+$1,$8,$9,$2,$3,0*%
G04 Aperture macros list end*
%ADD10C,0.600000*%
%ADD11C,0.250000*%
%ADD12C,0.150000*%
%ADD13C,0.120000*%
%ADD14C,0.710000*%
%ADD15O,1.060000X2.160000*%
%ADD16O,1.060000X1.860000*%
%ADD17C,1.760000*%
%ADD18C,3.060000*%
%ADD19C,4.360000*%
%ADD20C,1.584000*%
%ADD21C,2.560000*%
%ADD22RoundRect,0.030000X0.950000X0.950000X-0.950000X0.950000X-0.950000X-0.950000X0.950000X-0.950000X0*%
%ADD23C,1.960000*%
%ADD24C,1.060000*%
%ADD25RoundRect,0.030000X-0.500000X-0.500000X0.500000X-0.500000X0.500000X0.500000X-0.500000X0.500000X0*%
%ADD26RoundRect,0.030000X-0.900000X-0.900000X0.900000X-0.900000X0.900000X0.900000X-0.900000X0.900000X0*%
%ADD27C,1.860000*%
%ADD28C,2.160000*%
%ADD29C,1.810000*%
%ADD30C,1.660000*%
%ADD31RoundRect,0.415000X0.415000X-0.415000X0.415000X0.415000X-0.415000X0.415000X-0.415000X-0.415000X0*%
%ADD32RoundRect,0.261539X-1.093461X0.418461X-1.093461X-0.418461X1.093461X-0.418461X1.093461X0.418461X0*%
%ADD33RoundRect,0.261320X-1.118680X0.431180X-1.118680X-0.431180X1.118680X-0.431180X1.118680X0.431180X0*%
%ADD34RoundRect,0.261320X-0.668680X0.431180X-0.668680X-0.431180X0.668680X-0.431180X0.668680X0.431180X0*%
%ADD35RoundRect,0.261320X0.668680X-0.431180X0.668680X0.431180X-0.668680X0.431180X-0.668680X-0.431180X0*%
%ADD36RoundRect,0.261320X0.431180X0.668680X-0.431180X0.668680X-0.431180X-0.668680X0.431180X-0.668680X0*%
G04 APERTURE END LIST*
D10*
X49849999Y-90450001D02*
G75*
G02*
X49869582Y-91646405I-99999J-599999D01*
G01*
X49716514Y-91699334D02*
X49966514Y-91699334D01*
X47201166Y-99050000D02*
X49451166Y-98800000D01*
X47201166Y-97300000D02*
X47201166Y-99050000D01*
X46201166Y-100550000D02*
X46201166Y-99050000D01*
X46466514Y-91699334D02*
X46466514Y-91949334D01*
X43701166Y-99550000D02*
X47201166Y-97300000D01*
X44466514Y-92849334D02*
X46466514Y-92849334D01*
X49451166Y-98800000D02*
X46201166Y-100550000D01*
X46466514Y-91699334D02*
X42966514Y-91699334D01*
X43966514Y-91149334D02*
X43966514Y-92249334D01*
X46201166Y-99050000D02*
X43701166Y-99550000D01*
X47466514Y-91699334D02*
X49716514Y-91699334D01*
X47466514Y-92849334D02*
X49466514Y-92849334D01*
D11*
X51894647Y-82645237D02*
X50894647Y-82645237D01*
X51894647Y-83073808D02*
X51370837Y-83073808D01*
X51370837Y-83073808D02*
X51275599Y-83026189D01*
X51275599Y-83026189D02*
X51227980Y-82930951D01*
X51227980Y-82930951D02*
X51227980Y-82788094D01*
X51227980Y-82788094D02*
X51275599Y-82692856D01*
X51275599Y-82692856D02*
X51323218Y-82645237D01*
X51227980Y-83407142D02*
X51227980Y-83788094D01*
X50894647Y-83549999D02*
X51751789Y-83549999D01*
X51751789Y-83549999D02*
X51847028Y-83597618D01*
X51847028Y-83597618D02*
X51894647Y-83692856D01*
X51894647Y-83692856D02*
X51894647Y-83788094D01*
X51227980Y-83978571D02*
X51227980Y-84359523D01*
X50894647Y-84121428D02*
X51751789Y-84121428D01*
X51751789Y-84121428D02*
X51847028Y-84169047D01*
X51847028Y-84169047D02*
X51894647Y-84264285D01*
X51894647Y-84264285D02*
X51894647Y-84359523D01*
X51227980Y-84692857D02*
X52227980Y-84692857D01*
X51275599Y-84692857D02*
X51227980Y-84788095D01*
X51227980Y-84788095D02*
X51227980Y-84978571D01*
X51227980Y-84978571D02*
X51275599Y-85073809D01*
X51275599Y-85073809D02*
X51323218Y-85121428D01*
X51323218Y-85121428D02*
X51418456Y-85169047D01*
X51418456Y-85169047D02*
X51704170Y-85169047D01*
X51704170Y-85169047D02*
X51799408Y-85121428D01*
X51799408Y-85121428D02*
X51847028Y-85073809D01*
X51847028Y-85073809D02*
X51894647Y-84978571D01*
X51894647Y-84978571D02*
X51894647Y-84788095D01*
X51894647Y-84788095D02*
X51847028Y-84692857D01*
X51847028Y-85550000D02*
X51894647Y-85645238D01*
X51894647Y-85645238D02*
X51894647Y-85835714D01*
X51894647Y-85835714D02*
X51847028Y-85930952D01*
X51847028Y-85930952D02*
X51751789Y-85978571D01*
X51751789Y-85978571D02*
X51704170Y-85978571D01*
X51704170Y-85978571D02*
X51608932Y-85930952D01*
X51608932Y-85930952D02*
X51561313Y-85835714D01*
X51561313Y-85835714D02*
X51561313Y-85692857D01*
X51561313Y-85692857D02*
X51513694Y-85597619D01*
X51513694Y-85597619D02*
X51418456Y-85550000D01*
X51418456Y-85550000D02*
X51370837Y-85550000D01*
X51370837Y-85550000D02*
X51275599Y-85597619D01*
X51275599Y-85597619D02*
X51227980Y-85692857D01*
X51227980Y-85692857D02*
X51227980Y-85835714D01*
X51227980Y-85835714D02*
X51275599Y-85930952D01*
X51799408Y-86407143D02*
X51847028Y-86454762D01*
X51847028Y-86454762D02*
X51894647Y-86407143D01*
X51894647Y-86407143D02*
X51847028Y-86359524D01*
X51847028Y-86359524D02*
X51799408Y-86407143D01*
X51799408Y-86407143D02*
X51894647Y-86407143D01*
X51275599Y-86407143D02*
X51323218Y-86454762D01*
X51323218Y-86454762D02*
X51370837Y-86407143D01*
X51370837Y-86407143D02*
X51323218Y-86359524D01*
X51323218Y-86359524D02*
X51275599Y-86407143D01*
X51275599Y-86407143D02*
X51370837Y-86407143D01*
X50847028Y-87597618D02*
X52132742Y-86740476D01*
X50847028Y-88645237D02*
X52132742Y-87788095D01*
X51894647Y-88978571D02*
X50894647Y-88978571D01*
X51275599Y-88978571D02*
X51227980Y-89073809D01*
X51227980Y-89073809D02*
X51227980Y-89264285D01*
X51227980Y-89264285D02*
X51275599Y-89359523D01*
X51275599Y-89359523D02*
X51323218Y-89407142D01*
X51323218Y-89407142D02*
X51418456Y-89454761D01*
X51418456Y-89454761D02*
X51704170Y-89454761D01*
X51704170Y-89454761D02*
X51799408Y-89407142D01*
X51799408Y-89407142D02*
X51847028Y-89359523D01*
X51847028Y-89359523D02*
X51894647Y-89264285D01*
X51894647Y-89264285D02*
X51894647Y-89073809D01*
X51894647Y-89073809D02*
X51847028Y-88978571D01*
X51894647Y-89883333D02*
X51227980Y-89883333D01*
X50894647Y-89883333D02*
X50942266Y-89835714D01*
X50942266Y-89835714D02*
X50989885Y-89883333D01*
X50989885Y-89883333D02*
X50942266Y-89930952D01*
X50942266Y-89930952D02*
X50894647Y-89883333D01*
X50894647Y-89883333D02*
X50989885Y-89883333D01*
X51227980Y-90216666D02*
X51227980Y-90597618D01*
X50894647Y-90359523D02*
X51751789Y-90359523D01*
X51751789Y-90359523D02*
X51847028Y-90407142D01*
X51847028Y-90407142D02*
X51894647Y-90502380D01*
X51894647Y-90502380D02*
X51894647Y-90597618D01*
X51894647Y-90930952D02*
X50894647Y-90930952D01*
X51275599Y-90930952D02*
X51227980Y-91026190D01*
X51227980Y-91026190D02*
X51227980Y-91216666D01*
X51227980Y-91216666D02*
X51275599Y-91311904D01*
X51275599Y-91311904D02*
X51323218Y-91359523D01*
X51323218Y-91359523D02*
X51418456Y-91407142D01*
X51418456Y-91407142D02*
X51704170Y-91407142D01*
X51704170Y-91407142D02*
X51799408Y-91359523D01*
X51799408Y-91359523D02*
X51847028Y-91311904D01*
X51847028Y-91311904D02*
X51894647Y-91216666D01*
X51894647Y-91216666D02*
X51894647Y-91026190D01*
X51894647Y-91026190D02*
X51847028Y-90930952D01*
X51227980Y-92264285D02*
X51894647Y-92264285D01*
X51227980Y-91835714D02*
X51751789Y-91835714D01*
X51751789Y-91835714D02*
X51847028Y-91883333D01*
X51847028Y-91883333D02*
X51894647Y-91978571D01*
X51894647Y-91978571D02*
X51894647Y-92121428D01*
X51894647Y-92121428D02*
X51847028Y-92216666D01*
X51847028Y-92216666D02*
X51799408Y-92264285D01*
X51847028Y-93169047D02*
X51894647Y-93073809D01*
X51894647Y-93073809D02*
X51894647Y-92883333D01*
X51894647Y-92883333D02*
X51847028Y-92788095D01*
X51847028Y-92788095D02*
X51799408Y-92740476D01*
X51799408Y-92740476D02*
X51704170Y-92692857D01*
X51704170Y-92692857D02*
X51418456Y-92692857D01*
X51418456Y-92692857D02*
X51323218Y-92740476D01*
X51323218Y-92740476D02*
X51275599Y-92788095D01*
X51275599Y-92788095D02*
X51227980Y-92883333D01*
X51227980Y-92883333D02*
X51227980Y-93073809D01*
X51227980Y-93073809D02*
X51275599Y-93169047D01*
X51894647Y-93597619D02*
X50894647Y-93597619D01*
X51513694Y-93692857D02*
X51894647Y-93978571D01*
X51227980Y-93978571D02*
X51608932Y-93597619D01*
X51847028Y-94788095D02*
X51894647Y-94692857D01*
X51894647Y-94692857D02*
X51894647Y-94502381D01*
X51894647Y-94502381D02*
X51847028Y-94407143D01*
X51847028Y-94407143D02*
X51751789Y-94359524D01*
X51751789Y-94359524D02*
X51370837Y-94359524D01*
X51370837Y-94359524D02*
X51275599Y-94407143D01*
X51275599Y-94407143D02*
X51227980Y-94502381D01*
X51227980Y-94502381D02*
X51227980Y-94692857D01*
X51227980Y-94692857D02*
X51275599Y-94788095D01*
X51275599Y-94788095D02*
X51370837Y-94835714D01*
X51370837Y-94835714D02*
X51466075Y-94835714D01*
X51466075Y-94835714D02*
X51561313Y-94359524D01*
X51227980Y-95121429D02*
X51227980Y-95502381D01*
X50894647Y-95264286D02*
X51751789Y-95264286D01*
X51751789Y-95264286D02*
X51847028Y-95311905D01*
X51847028Y-95311905D02*
X51894647Y-95407143D01*
X51894647Y-95407143D02*
X51894647Y-95502381D01*
X51799408Y-95835715D02*
X51847028Y-95883334D01*
X51847028Y-95883334D02*
X51894647Y-95835715D01*
X51894647Y-95835715D02*
X51847028Y-95788096D01*
X51847028Y-95788096D02*
X51799408Y-95835715D01*
X51799408Y-95835715D02*
X51894647Y-95835715D01*
X51894647Y-96454762D02*
X51847028Y-96359524D01*
X51847028Y-96359524D02*
X51799408Y-96311905D01*
X51799408Y-96311905D02*
X51704170Y-96264286D01*
X51704170Y-96264286D02*
X51418456Y-96264286D01*
X51418456Y-96264286D02*
X51323218Y-96311905D01*
X51323218Y-96311905D02*
X51275599Y-96359524D01*
X51275599Y-96359524D02*
X51227980Y-96454762D01*
X51227980Y-96454762D02*
X51227980Y-96597619D01*
X51227980Y-96597619D02*
X51275599Y-96692857D01*
X51275599Y-96692857D02*
X51323218Y-96740476D01*
X51323218Y-96740476D02*
X51418456Y-96788095D01*
X51418456Y-96788095D02*
X51704170Y-96788095D01*
X51704170Y-96788095D02*
X51799408Y-96740476D01*
X51799408Y-96740476D02*
X51847028Y-96692857D01*
X51847028Y-96692857D02*
X51894647Y-96597619D01*
X51894647Y-96597619D02*
X51894647Y-96454762D01*
X51894647Y-97216667D02*
X51227980Y-97216667D01*
X51418456Y-97216667D02*
X51323218Y-97264286D01*
X51323218Y-97264286D02*
X51275599Y-97311905D01*
X51275599Y-97311905D02*
X51227980Y-97407143D01*
X51227980Y-97407143D02*
X51227980Y-97502381D01*
X51227980Y-98264286D02*
X52037504Y-98264286D01*
X52037504Y-98264286D02*
X52132742Y-98216667D01*
X52132742Y-98216667D02*
X52180361Y-98169048D01*
X52180361Y-98169048D02*
X52227980Y-98073810D01*
X52227980Y-98073810D02*
X52227980Y-97930953D01*
X52227980Y-97930953D02*
X52180361Y-97835715D01*
X51847028Y-98264286D02*
X51894647Y-98169048D01*
X51894647Y-98169048D02*
X51894647Y-97978572D01*
X51894647Y-97978572D02*
X51847028Y-97883334D01*
X51847028Y-97883334D02*
X51799408Y-97835715D01*
X51799408Y-97835715D02*
X51704170Y-97788096D01*
X51704170Y-97788096D02*
X51418456Y-97788096D01*
X51418456Y-97788096D02*
X51323218Y-97835715D01*
X51323218Y-97835715D02*
X51275599Y-97883334D01*
X51275599Y-97883334D02*
X51227980Y-97978572D01*
X51227980Y-97978572D02*
X51227980Y-98169048D01*
X51227980Y-98169048D02*
X51275599Y-98264286D01*
X50847028Y-99454762D02*
X52132742Y-98597620D01*
X51227980Y-99788096D02*
X51894647Y-99788096D01*
X51323218Y-99788096D02*
X51275599Y-99835715D01*
X51275599Y-99835715D02*
X51227980Y-99930953D01*
X51227980Y-99930953D02*
X51227980Y-100073810D01*
X51227980Y-100073810D02*
X51275599Y-100169048D01*
X51275599Y-100169048D02*
X51370837Y-100216667D01*
X51370837Y-100216667D02*
X51894647Y-100216667D01*
X51894647Y-101121429D02*
X51370837Y-101121429D01*
X51370837Y-101121429D02*
X51275599Y-101073810D01*
X51275599Y-101073810D02*
X51227980Y-100978572D01*
X51227980Y-100978572D02*
X51227980Y-100788096D01*
X51227980Y-100788096D02*
X51275599Y-100692858D01*
X51847028Y-101121429D02*
X51894647Y-101026191D01*
X51894647Y-101026191D02*
X51894647Y-100788096D01*
X51894647Y-100788096D02*
X51847028Y-100692858D01*
X51847028Y-100692858D02*
X51751789Y-100645239D01*
X51751789Y-100645239D02*
X51656551Y-100645239D01*
X51656551Y-100645239D02*
X51561313Y-100692858D01*
X51561313Y-100692858D02*
X51513694Y-100788096D01*
X51513694Y-100788096D02*
X51513694Y-101026191D01*
X51513694Y-101026191D02*
X51466075Y-101121429D01*
X51227980Y-101454763D02*
X51227980Y-101835715D01*
X50894647Y-101597620D02*
X51751789Y-101597620D01*
X51751789Y-101597620D02*
X51847028Y-101645239D01*
X51847028Y-101645239D02*
X51894647Y-101740477D01*
X51894647Y-101740477D02*
X51894647Y-101835715D01*
X51847028Y-102550001D02*
X51894647Y-102454763D01*
X51894647Y-102454763D02*
X51894647Y-102264287D01*
X51894647Y-102264287D02*
X51847028Y-102169049D01*
X51847028Y-102169049D02*
X51751789Y-102121430D01*
X51751789Y-102121430D02*
X51370837Y-102121430D01*
X51370837Y-102121430D02*
X51275599Y-102169049D01*
X51275599Y-102169049D02*
X51227980Y-102264287D01*
X51227980Y-102264287D02*
X51227980Y-102454763D01*
X51227980Y-102454763D02*
X51275599Y-102550001D01*
X51275599Y-102550001D02*
X51370837Y-102597620D01*
X51370837Y-102597620D02*
X51466075Y-102597620D01*
X51466075Y-102597620D02*
X51561313Y-102121430D01*
X51847028Y-103454763D02*
X51894647Y-103359525D01*
X51894647Y-103359525D02*
X51894647Y-103169049D01*
X51894647Y-103169049D02*
X51847028Y-103073811D01*
X51847028Y-103073811D02*
X51799408Y-103026192D01*
X51799408Y-103026192D02*
X51704170Y-102978573D01*
X51704170Y-102978573D02*
X51418456Y-102978573D01*
X51418456Y-102978573D02*
X51323218Y-103026192D01*
X51323218Y-103026192D02*
X51275599Y-103073811D01*
X51275599Y-103073811D02*
X51227980Y-103169049D01*
X51227980Y-103169049D02*
X51227980Y-103359525D01*
X51227980Y-103359525D02*
X51275599Y-103454763D01*
X51847028Y-104264287D02*
X51894647Y-104169049D01*
X51894647Y-104169049D02*
X51894647Y-103978573D01*
X51894647Y-103978573D02*
X51847028Y-103883335D01*
X51847028Y-103883335D02*
X51751789Y-103835716D01*
X51751789Y-103835716D02*
X51370837Y-103835716D01*
X51370837Y-103835716D02*
X51275599Y-103883335D01*
X51275599Y-103883335D02*
X51227980Y-103978573D01*
X51227980Y-103978573D02*
X51227980Y-104169049D01*
X51227980Y-104169049D02*
X51275599Y-104264287D01*
X51275599Y-104264287D02*
X51370837Y-104311906D01*
X51370837Y-104311906D02*
X51466075Y-104311906D01*
X51466075Y-104311906D02*
X51561313Y-103835716D01*
X51894647Y-104740478D02*
X51227980Y-104740478D01*
X51418456Y-104740478D02*
X51323218Y-104788097D01*
X51323218Y-104788097D02*
X51275599Y-104835716D01*
X51275599Y-104835716D02*
X51227980Y-104930954D01*
X51227980Y-104930954D02*
X51227980Y-105026192D01*
X51894647Y-105359526D02*
X51227980Y-105359526D01*
X51323218Y-105359526D02*
X51275599Y-105407145D01*
X51275599Y-105407145D02*
X51227980Y-105502383D01*
X51227980Y-105502383D02*
X51227980Y-105645240D01*
X51227980Y-105645240D02*
X51275599Y-105740478D01*
X51275599Y-105740478D02*
X51370837Y-105788097D01*
X51370837Y-105788097D02*
X51894647Y-105788097D01*
X51370837Y-105788097D02*
X51275599Y-105835716D01*
X51275599Y-105835716D02*
X51227980Y-105930954D01*
X51227980Y-105930954D02*
X51227980Y-106073811D01*
X51227980Y-106073811D02*
X51275599Y-106169050D01*
X51275599Y-106169050D02*
X51370837Y-106216669D01*
X51370837Y-106216669D02*
X51894647Y-106216669D01*
X51894647Y-107121430D02*
X51370837Y-107121430D01*
X51370837Y-107121430D02*
X51275599Y-107073811D01*
X51275599Y-107073811D02*
X51227980Y-106978573D01*
X51227980Y-106978573D02*
X51227980Y-106788097D01*
X51227980Y-106788097D02*
X51275599Y-106692859D01*
X51847028Y-107121430D02*
X51894647Y-107026192D01*
X51894647Y-107026192D02*
X51894647Y-106788097D01*
X51894647Y-106788097D02*
X51847028Y-106692859D01*
X51847028Y-106692859D02*
X51751789Y-106645240D01*
X51751789Y-106645240D02*
X51656551Y-106645240D01*
X51656551Y-106645240D02*
X51561313Y-106692859D01*
X51561313Y-106692859D02*
X51513694Y-106788097D01*
X51513694Y-106788097D02*
X51513694Y-107026192D01*
X51513694Y-107026192D02*
X51466075Y-107121430D01*
X51894647Y-107597621D02*
X50894647Y-107597621D01*
X51513694Y-107692859D02*
X51894647Y-107978573D01*
X51227980Y-107978573D02*
X51608932Y-107597621D01*
X50847028Y-109121430D02*
X52132742Y-108264288D01*
X51847028Y-109407145D02*
X51894647Y-109502383D01*
X51894647Y-109502383D02*
X51894647Y-109692859D01*
X51894647Y-109692859D02*
X51847028Y-109788097D01*
X51847028Y-109788097D02*
X51751789Y-109835716D01*
X51751789Y-109835716D02*
X51704170Y-109835716D01*
X51704170Y-109835716D02*
X51608932Y-109788097D01*
X51608932Y-109788097D02*
X51561313Y-109692859D01*
X51561313Y-109692859D02*
X51561313Y-109550002D01*
X51561313Y-109550002D02*
X51513694Y-109454764D01*
X51513694Y-109454764D02*
X51418456Y-109407145D01*
X51418456Y-109407145D02*
X51370837Y-109407145D01*
X51370837Y-109407145D02*
X51275599Y-109454764D01*
X51275599Y-109454764D02*
X51227980Y-109550002D01*
X51227980Y-109550002D02*
X51227980Y-109692859D01*
X51227980Y-109692859D02*
X51275599Y-109788097D01*
X51227980Y-110121431D02*
X51227980Y-110502383D01*
X50894647Y-110264288D02*
X51751789Y-110264288D01*
X51751789Y-110264288D02*
X51847028Y-110311907D01*
X51847028Y-110311907D02*
X51894647Y-110407145D01*
X51894647Y-110407145D02*
X51894647Y-110502383D01*
X51894647Y-110835717D02*
X51227980Y-110835717D01*
X50894647Y-110835717D02*
X50942266Y-110788098D01*
X50942266Y-110788098D02*
X50989885Y-110835717D01*
X50989885Y-110835717D02*
X50942266Y-110883336D01*
X50942266Y-110883336D02*
X50894647Y-110835717D01*
X50894647Y-110835717D02*
X50989885Y-110835717D01*
X51894647Y-111311907D02*
X51227980Y-111311907D01*
X51323218Y-111311907D02*
X51275599Y-111359526D01*
X51275599Y-111359526D02*
X51227980Y-111454764D01*
X51227980Y-111454764D02*
X51227980Y-111597621D01*
X51227980Y-111597621D02*
X51275599Y-111692859D01*
X51275599Y-111692859D02*
X51370837Y-111740478D01*
X51370837Y-111740478D02*
X51894647Y-111740478D01*
X51370837Y-111740478D02*
X51275599Y-111788097D01*
X51275599Y-111788097D02*
X51227980Y-111883335D01*
X51227980Y-111883335D02*
X51227980Y-112026192D01*
X51227980Y-112026192D02*
X51275599Y-112121431D01*
X51275599Y-112121431D02*
X51370837Y-112169050D01*
X51370837Y-112169050D02*
X51894647Y-112169050D01*
X51227980Y-112645240D02*
X52085123Y-112645240D01*
X52085123Y-112645240D02*
X52180361Y-112597621D01*
X52180361Y-112597621D02*
X52227980Y-112502383D01*
X52227980Y-112502383D02*
X52227980Y-112454764D01*
X50894647Y-112645240D02*
X50942266Y-112597621D01*
X50942266Y-112597621D02*
X50989885Y-112645240D01*
X50989885Y-112645240D02*
X50942266Y-112692859D01*
X50942266Y-112692859D02*
X50894647Y-112645240D01*
X50894647Y-112645240D02*
X50989885Y-112645240D01*
X51894647Y-113121430D02*
X51227980Y-113121430D01*
X50894647Y-113121430D02*
X50942266Y-113073811D01*
X50942266Y-113073811D02*
X50989885Y-113121430D01*
X50989885Y-113121430D02*
X50942266Y-113169049D01*
X50942266Y-113169049D02*
X50894647Y-113121430D01*
X50894647Y-113121430D02*
X50989885Y-113121430D01*
X51894647Y-113597620D02*
X51227980Y-113597620D01*
X51323218Y-113597620D02*
X51275599Y-113645239D01*
X51275599Y-113645239D02*
X51227980Y-113740477D01*
X51227980Y-113740477D02*
X51227980Y-113883334D01*
X51227980Y-113883334D02*
X51275599Y-113978572D01*
X51275599Y-113978572D02*
X51370837Y-114026191D01*
X51370837Y-114026191D02*
X51894647Y-114026191D01*
X51370837Y-114026191D02*
X51275599Y-114073810D01*
X51275599Y-114073810D02*
X51227980Y-114169048D01*
X51227980Y-114169048D02*
X51227980Y-114311905D01*
X51227980Y-114311905D02*
X51275599Y-114407144D01*
X51275599Y-114407144D02*
X51370837Y-114454763D01*
X51370837Y-114454763D02*
X51894647Y-114454763D01*
X53504591Y-86978570D02*
X53456972Y-86883332D01*
X53456972Y-86883332D02*
X53361733Y-86835713D01*
X53361733Y-86835713D02*
X52504591Y-86835713D01*
X53504591Y-87359523D02*
X52837924Y-87359523D01*
X52504591Y-87359523D02*
X52552210Y-87311904D01*
X52552210Y-87311904D02*
X52599829Y-87359523D01*
X52599829Y-87359523D02*
X52552210Y-87407142D01*
X52552210Y-87407142D02*
X52504591Y-87359523D01*
X52504591Y-87359523D02*
X52599829Y-87359523D01*
X53456972Y-88264284D02*
X53504591Y-88169046D01*
X53504591Y-88169046D02*
X53504591Y-87978570D01*
X53504591Y-87978570D02*
X53456972Y-87883332D01*
X53456972Y-87883332D02*
X53409352Y-87835713D01*
X53409352Y-87835713D02*
X53314114Y-87788094D01*
X53314114Y-87788094D02*
X53028400Y-87788094D01*
X53028400Y-87788094D02*
X52933162Y-87835713D01*
X52933162Y-87835713D02*
X52885543Y-87883332D01*
X52885543Y-87883332D02*
X52837924Y-87978570D01*
X52837924Y-87978570D02*
X52837924Y-88169046D01*
X52837924Y-88169046D02*
X52885543Y-88264284D01*
X53456972Y-89073808D02*
X53504591Y-88978570D01*
X53504591Y-88978570D02*
X53504591Y-88788094D01*
X53504591Y-88788094D02*
X53456972Y-88692856D01*
X53456972Y-88692856D02*
X53361733Y-88645237D01*
X53361733Y-88645237D02*
X52980781Y-88645237D01*
X52980781Y-88645237D02*
X52885543Y-88692856D01*
X52885543Y-88692856D02*
X52837924Y-88788094D01*
X52837924Y-88788094D02*
X52837924Y-88978570D01*
X52837924Y-88978570D02*
X52885543Y-89073808D01*
X52885543Y-89073808D02*
X52980781Y-89121427D01*
X52980781Y-89121427D02*
X53076019Y-89121427D01*
X53076019Y-89121427D02*
X53171257Y-88645237D01*
X52837924Y-89549999D02*
X53504591Y-89549999D01*
X52933162Y-89549999D02*
X52885543Y-89597618D01*
X52885543Y-89597618D02*
X52837924Y-89692856D01*
X52837924Y-89692856D02*
X52837924Y-89835713D01*
X52837924Y-89835713D02*
X52885543Y-89930951D01*
X52885543Y-89930951D02*
X52980781Y-89978570D01*
X52980781Y-89978570D02*
X53504591Y-89978570D01*
X53456972Y-90407142D02*
X53504591Y-90502380D01*
X53504591Y-90502380D02*
X53504591Y-90692856D01*
X53504591Y-90692856D02*
X53456972Y-90788094D01*
X53456972Y-90788094D02*
X53361733Y-90835713D01*
X53361733Y-90835713D02*
X53314114Y-90835713D01*
X53314114Y-90835713D02*
X53218876Y-90788094D01*
X53218876Y-90788094D02*
X53171257Y-90692856D01*
X53171257Y-90692856D02*
X53171257Y-90549999D01*
X53171257Y-90549999D02*
X53123638Y-90454761D01*
X53123638Y-90454761D02*
X53028400Y-90407142D01*
X53028400Y-90407142D02*
X52980781Y-90407142D01*
X52980781Y-90407142D02*
X52885543Y-90454761D01*
X52885543Y-90454761D02*
X52837924Y-90549999D01*
X52837924Y-90549999D02*
X52837924Y-90692856D01*
X52837924Y-90692856D02*
X52885543Y-90788094D01*
X53456972Y-91645237D02*
X53504591Y-91549999D01*
X53504591Y-91549999D02*
X53504591Y-91359523D01*
X53504591Y-91359523D02*
X53456972Y-91264285D01*
X53456972Y-91264285D02*
X53361733Y-91216666D01*
X53361733Y-91216666D02*
X52980781Y-91216666D01*
X52980781Y-91216666D02*
X52885543Y-91264285D01*
X52885543Y-91264285D02*
X52837924Y-91359523D01*
X52837924Y-91359523D02*
X52837924Y-91549999D01*
X52837924Y-91549999D02*
X52885543Y-91645237D01*
X52885543Y-91645237D02*
X52980781Y-91692856D01*
X52980781Y-91692856D02*
X53076019Y-91692856D01*
X53076019Y-91692856D02*
X53171257Y-91216666D01*
X53504591Y-92549999D02*
X52504591Y-92549999D01*
X53456972Y-92549999D02*
X53504591Y-92454761D01*
X53504591Y-92454761D02*
X53504591Y-92264285D01*
X53504591Y-92264285D02*
X53456972Y-92169047D01*
X53456972Y-92169047D02*
X53409352Y-92121428D01*
X53409352Y-92121428D02*
X53314114Y-92073809D01*
X53314114Y-92073809D02*
X53028400Y-92073809D01*
X53028400Y-92073809D02*
X52933162Y-92121428D01*
X52933162Y-92121428D02*
X52885543Y-92169047D01*
X52885543Y-92169047D02*
X52837924Y-92264285D01*
X52837924Y-92264285D02*
X52837924Y-92454761D01*
X52837924Y-92454761D02*
X52885543Y-92549999D01*
X52837924Y-94216666D02*
X53504591Y-94216666D01*
X52837924Y-93788095D02*
X53361733Y-93788095D01*
X53361733Y-93788095D02*
X53456972Y-93835714D01*
X53456972Y-93835714D02*
X53504591Y-93930952D01*
X53504591Y-93930952D02*
X53504591Y-94073809D01*
X53504591Y-94073809D02*
X53456972Y-94169047D01*
X53456972Y-94169047D02*
X53409352Y-94216666D01*
X52837924Y-94692857D02*
X53504591Y-94692857D01*
X52933162Y-94692857D02*
X52885543Y-94740476D01*
X52885543Y-94740476D02*
X52837924Y-94835714D01*
X52837924Y-94835714D02*
X52837924Y-94978571D01*
X52837924Y-94978571D02*
X52885543Y-95073809D01*
X52885543Y-95073809D02*
X52980781Y-95121428D01*
X52980781Y-95121428D02*
X53504591Y-95121428D01*
X53504591Y-96026190D02*
X52504591Y-96026190D01*
X53456972Y-96026190D02*
X53504591Y-95930952D01*
X53504591Y-95930952D02*
X53504591Y-95740476D01*
X53504591Y-95740476D02*
X53456972Y-95645238D01*
X53456972Y-95645238D02*
X53409352Y-95597619D01*
X53409352Y-95597619D02*
X53314114Y-95550000D01*
X53314114Y-95550000D02*
X53028400Y-95550000D01*
X53028400Y-95550000D02*
X52933162Y-95597619D01*
X52933162Y-95597619D02*
X52885543Y-95645238D01*
X52885543Y-95645238D02*
X52837924Y-95740476D01*
X52837924Y-95740476D02*
X52837924Y-95930952D01*
X52837924Y-95930952D02*
X52885543Y-96026190D01*
X53456972Y-96883333D02*
X53504591Y-96788095D01*
X53504591Y-96788095D02*
X53504591Y-96597619D01*
X53504591Y-96597619D02*
X53456972Y-96502381D01*
X53456972Y-96502381D02*
X53361733Y-96454762D01*
X53361733Y-96454762D02*
X52980781Y-96454762D01*
X52980781Y-96454762D02*
X52885543Y-96502381D01*
X52885543Y-96502381D02*
X52837924Y-96597619D01*
X52837924Y-96597619D02*
X52837924Y-96788095D01*
X52837924Y-96788095D02*
X52885543Y-96883333D01*
X52885543Y-96883333D02*
X52980781Y-96930952D01*
X52980781Y-96930952D02*
X53076019Y-96930952D01*
X53076019Y-96930952D02*
X53171257Y-96454762D01*
X53504591Y-97359524D02*
X52837924Y-97359524D01*
X53028400Y-97359524D02*
X52933162Y-97407143D01*
X52933162Y-97407143D02*
X52885543Y-97454762D01*
X52885543Y-97454762D02*
X52837924Y-97550000D01*
X52837924Y-97550000D02*
X52837924Y-97645238D01*
X53409352Y-99311905D02*
X53456972Y-99264286D01*
X53456972Y-99264286D02*
X53504591Y-99121429D01*
X53504591Y-99121429D02*
X53504591Y-99026191D01*
X53504591Y-99026191D02*
X53456972Y-98883334D01*
X53456972Y-98883334D02*
X53361733Y-98788096D01*
X53361733Y-98788096D02*
X53266495Y-98740477D01*
X53266495Y-98740477D02*
X53076019Y-98692858D01*
X53076019Y-98692858D02*
X52933162Y-98692858D01*
X52933162Y-98692858D02*
X52742686Y-98740477D01*
X52742686Y-98740477D02*
X52647448Y-98788096D01*
X52647448Y-98788096D02*
X52552210Y-98883334D01*
X52552210Y-98883334D02*
X52504591Y-99026191D01*
X52504591Y-99026191D02*
X52504591Y-99121429D01*
X52504591Y-99121429D02*
X52552210Y-99264286D01*
X52552210Y-99264286D02*
X52599829Y-99311905D01*
X52980781Y-99740477D02*
X52980781Y-100073810D01*
X53504591Y-100216667D02*
X53504591Y-99740477D01*
X53504591Y-99740477D02*
X52504591Y-99740477D01*
X52504591Y-99740477D02*
X52504591Y-100216667D01*
X53504591Y-101216667D02*
X53028400Y-100883334D01*
X53504591Y-100645239D02*
X52504591Y-100645239D01*
X52504591Y-100645239D02*
X52504591Y-101026191D01*
X52504591Y-101026191D02*
X52552210Y-101121429D01*
X52552210Y-101121429D02*
X52599829Y-101169048D01*
X52599829Y-101169048D02*
X52695067Y-101216667D01*
X52695067Y-101216667D02*
X52837924Y-101216667D01*
X52837924Y-101216667D02*
X52933162Y-101169048D01*
X52933162Y-101169048D02*
X52980781Y-101121429D01*
X52980781Y-101121429D02*
X53028400Y-101026191D01*
X53028400Y-101026191D02*
X53028400Y-100645239D01*
X53504591Y-101645239D02*
X52504591Y-101645239D01*
X52504591Y-101645239D02*
X53504591Y-102216667D01*
X53504591Y-102216667D02*
X52504591Y-102216667D01*
X52504591Y-103645239D02*
X52504591Y-103835715D01*
X52504591Y-103835715D02*
X52552210Y-103930953D01*
X52552210Y-103930953D02*
X52647448Y-104026191D01*
X52647448Y-104026191D02*
X52837924Y-104073810D01*
X52837924Y-104073810D02*
X53171257Y-104073810D01*
X53171257Y-104073810D02*
X53361733Y-104026191D01*
X53361733Y-104026191D02*
X53456972Y-103930953D01*
X53456972Y-103930953D02*
X53504591Y-103835715D01*
X53504591Y-103835715D02*
X53504591Y-103645239D01*
X53504591Y-103645239D02*
X53456972Y-103550001D01*
X53456972Y-103550001D02*
X53361733Y-103454763D01*
X53361733Y-103454763D02*
X53171257Y-103407144D01*
X53171257Y-103407144D02*
X52837924Y-103407144D01*
X52837924Y-103407144D02*
X52647448Y-103454763D01*
X52647448Y-103454763D02*
X52552210Y-103550001D01*
X52552210Y-103550001D02*
X52504591Y-103645239D01*
X53504591Y-104502382D02*
X52504591Y-104502382D01*
X52980781Y-104502382D02*
X52980781Y-105073810D01*
X53504591Y-105073810D02*
X52504591Y-105073810D01*
X53504591Y-106026191D02*
X53504591Y-105550001D01*
X53504591Y-105550001D02*
X52504591Y-105550001D01*
X52837924Y-107026192D02*
X53504591Y-107264287D01*
X53504591Y-107264287D02*
X52837924Y-107502382D01*
X53409352Y-107883335D02*
X53456972Y-107930954D01*
X53456972Y-107930954D02*
X53504591Y-107883335D01*
X53504591Y-107883335D02*
X53456972Y-107835716D01*
X53456972Y-107835716D02*
X53409352Y-107883335D01*
X53409352Y-107883335D02*
X53504591Y-107883335D01*
X53504591Y-108883334D02*
X53504591Y-108311906D01*
X53504591Y-108597620D02*
X52504591Y-108597620D01*
X52504591Y-108597620D02*
X52647448Y-108502382D01*
X52647448Y-108502382D02*
X52742686Y-108407144D01*
X52742686Y-108407144D02*
X52790305Y-108311906D01*
X53409352Y-109311906D02*
X53456972Y-109359525D01*
X53456972Y-109359525D02*
X53504591Y-109311906D01*
X53504591Y-109311906D02*
X53456972Y-109264287D01*
X53456972Y-109264287D02*
X53409352Y-109311906D01*
X53409352Y-109311906D02*
X53504591Y-109311906D01*
X52599829Y-109740477D02*
X52552210Y-109788096D01*
X52552210Y-109788096D02*
X52504591Y-109883334D01*
X52504591Y-109883334D02*
X52504591Y-110121429D01*
X52504591Y-110121429D02*
X52552210Y-110216667D01*
X52552210Y-110216667D02*
X52599829Y-110264286D01*
X52599829Y-110264286D02*
X52695067Y-110311905D01*
X52695067Y-110311905D02*
X52790305Y-110311905D01*
X52790305Y-110311905D02*
X52933162Y-110264286D01*
X52933162Y-110264286D02*
X53504591Y-109692858D01*
X53504591Y-109692858D02*
X53504591Y-110311905D01*
X44423008Y-104800000D02*
X45089675Y-105038095D01*
X45089675Y-105038095D02*
X44423008Y-105276190D01*
X44089675Y-105847619D02*
X44089675Y-105942857D01*
X44089675Y-105942857D02*
X44137294Y-106038095D01*
X44137294Y-106038095D02*
X44184913Y-106085714D01*
X44184913Y-106085714D02*
X44280151Y-106133333D01*
X44280151Y-106133333D02*
X44470627Y-106180952D01*
X44470627Y-106180952D02*
X44708722Y-106180952D01*
X44708722Y-106180952D02*
X44899198Y-106133333D01*
X44899198Y-106133333D02*
X44994436Y-106085714D01*
X44994436Y-106085714D02*
X45042056Y-106038095D01*
X45042056Y-106038095D02*
X45089675Y-105942857D01*
X45089675Y-105942857D02*
X45089675Y-105847619D01*
X45089675Y-105847619D02*
X45042056Y-105752381D01*
X45042056Y-105752381D02*
X44994436Y-105704762D01*
X44994436Y-105704762D02*
X44899198Y-105657143D01*
X44899198Y-105657143D02*
X44708722Y-105609524D01*
X44708722Y-105609524D02*
X44470627Y-105609524D01*
X44470627Y-105609524D02*
X44280151Y-105657143D01*
X44280151Y-105657143D02*
X44184913Y-105704762D01*
X44184913Y-105704762D02*
X44137294Y-105752381D01*
X44137294Y-105752381D02*
X44089675Y-105847619D01*
X44994436Y-106609524D02*
X45042056Y-106657143D01*
X45042056Y-106657143D02*
X45089675Y-106609524D01*
X45089675Y-106609524D02*
X45042056Y-106561905D01*
X45042056Y-106561905D02*
X44994436Y-106609524D01*
X44994436Y-106609524D02*
X45089675Y-106609524D01*
X45089675Y-107609523D02*
X45089675Y-107038095D01*
X45089675Y-107323809D02*
X44089675Y-107323809D01*
X44089675Y-107323809D02*
X44232532Y-107228571D01*
X44232532Y-107228571D02*
X44327770Y-107133333D01*
X44327770Y-107133333D02*
X44375389Y-107038095D01*
X44518246Y-108180952D02*
X44470627Y-108085714D01*
X44470627Y-108085714D02*
X44423008Y-108038095D01*
X44423008Y-108038095D02*
X44327770Y-107990476D01*
X44327770Y-107990476D02*
X44280151Y-107990476D01*
X44280151Y-107990476D02*
X44184913Y-108038095D01*
X44184913Y-108038095D02*
X44137294Y-108085714D01*
X44137294Y-108085714D02*
X44089675Y-108180952D01*
X44089675Y-108180952D02*
X44089675Y-108371428D01*
X44089675Y-108371428D02*
X44137294Y-108466666D01*
X44137294Y-108466666D02*
X44184913Y-108514285D01*
X44184913Y-108514285D02*
X44280151Y-108561904D01*
X44280151Y-108561904D02*
X44327770Y-108561904D01*
X44327770Y-108561904D02*
X44423008Y-108514285D01*
X44423008Y-108514285D02*
X44470627Y-108466666D01*
X44470627Y-108466666D02*
X44518246Y-108371428D01*
X44518246Y-108371428D02*
X44518246Y-108180952D01*
X44518246Y-108180952D02*
X44565865Y-108085714D01*
X44565865Y-108085714D02*
X44613484Y-108038095D01*
X44613484Y-108038095D02*
X44708722Y-107990476D01*
X44708722Y-107990476D02*
X44899198Y-107990476D01*
X44899198Y-107990476D02*
X44994436Y-108038095D01*
X44994436Y-108038095D02*
X45042056Y-108085714D01*
X45042056Y-108085714D02*
X45089675Y-108180952D01*
X45089675Y-108180952D02*
X45089675Y-108371428D01*
X45089675Y-108371428D02*
X45042056Y-108466666D01*
X45042056Y-108466666D02*
X44994436Y-108514285D01*
X44994436Y-108514285D02*
X44899198Y-108561904D01*
X44899198Y-108561904D02*
X44708722Y-108561904D01*
X44708722Y-108561904D02*
X44613484Y-108514285D01*
X44613484Y-108514285D02*
X44565865Y-108466666D01*
X44565865Y-108466666D02*
X44518246Y-108371428D01*
X45089675Y-109752381D02*
X44089675Y-109752381D01*
X44470627Y-109752381D02*
X44423008Y-109847619D01*
X44423008Y-109847619D02*
X44423008Y-110038095D01*
X44423008Y-110038095D02*
X44470627Y-110133333D01*
X44470627Y-110133333D02*
X44518246Y-110180952D01*
X44518246Y-110180952D02*
X44613484Y-110228571D01*
X44613484Y-110228571D02*
X44899198Y-110228571D01*
X44899198Y-110228571D02*
X44994436Y-110180952D01*
X44994436Y-110180952D02*
X45042056Y-110133333D01*
X45042056Y-110133333D02*
X45089675Y-110038095D01*
X45089675Y-110038095D02*
X45089675Y-109847619D01*
X45089675Y-109847619D02*
X45042056Y-109752381D01*
X44423008Y-110561905D02*
X45089675Y-110800000D01*
X44423008Y-111038095D02*
X45089675Y-110800000D01*
X45089675Y-110800000D02*
X45327770Y-110704762D01*
X45327770Y-110704762D02*
X45375389Y-110657143D01*
X45375389Y-110657143D02*
X45423008Y-110561905D01*
X46032952Y-102466666D02*
X46699619Y-102466666D01*
X46128190Y-102466666D02*
X46080571Y-102514285D01*
X46080571Y-102514285D02*
X46032952Y-102609523D01*
X46032952Y-102609523D02*
X46032952Y-102752380D01*
X46032952Y-102752380D02*
X46080571Y-102847618D01*
X46080571Y-102847618D02*
X46175809Y-102895237D01*
X46175809Y-102895237D02*
X46699619Y-102895237D01*
X46699619Y-103799999D02*
X46175809Y-103799999D01*
X46175809Y-103799999D02*
X46080571Y-103752380D01*
X46080571Y-103752380D02*
X46032952Y-103657142D01*
X46032952Y-103657142D02*
X46032952Y-103466666D01*
X46032952Y-103466666D02*
X46080571Y-103371428D01*
X46652000Y-103799999D02*
X46699619Y-103704761D01*
X46699619Y-103704761D02*
X46699619Y-103466666D01*
X46699619Y-103466666D02*
X46652000Y-103371428D01*
X46652000Y-103371428D02*
X46556761Y-103323809D01*
X46556761Y-103323809D02*
X46461523Y-103323809D01*
X46461523Y-103323809D02*
X46366285Y-103371428D01*
X46366285Y-103371428D02*
X46318666Y-103466666D01*
X46318666Y-103466666D02*
X46318666Y-103704761D01*
X46318666Y-103704761D02*
X46271047Y-103799999D01*
X46032952Y-104133333D02*
X46032952Y-104514285D01*
X45699619Y-104276190D02*
X46556761Y-104276190D01*
X46556761Y-104276190D02*
X46652000Y-104323809D01*
X46652000Y-104323809D02*
X46699619Y-104419047D01*
X46699619Y-104419047D02*
X46699619Y-104514285D01*
X46652000Y-105228571D02*
X46699619Y-105133333D01*
X46699619Y-105133333D02*
X46699619Y-104942857D01*
X46699619Y-104942857D02*
X46652000Y-104847619D01*
X46652000Y-104847619D02*
X46556761Y-104800000D01*
X46556761Y-104800000D02*
X46175809Y-104800000D01*
X46175809Y-104800000D02*
X46080571Y-104847619D01*
X46080571Y-104847619D02*
X46032952Y-104942857D01*
X46032952Y-104942857D02*
X46032952Y-105133333D01*
X46032952Y-105133333D02*
X46080571Y-105228571D01*
X46080571Y-105228571D02*
X46175809Y-105276190D01*
X46175809Y-105276190D02*
X46271047Y-105276190D01*
X46271047Y-105276190D02*
X46366285Y-104800000D01*
X46652000Y-106895238D02*
X46699619Y-106800000D01*
X46699619Y-106800000D02*
X46699619Y-106609524D01*
X46699619Y-106609524D02*
X46652000Y-106514286D01*
X46652000Y-106514286D02*
X46604380Y-106466667D01*
X46604380Y-106466667D02*
X46509142Y-106419048D01*
X46509142Y-106419048D02*
X46223428Y-106419048D01*
X46223428Y-106419048D02*
X46128190Y-106466667D01*
X46128190Y-106466667D02*
X46080571Y-106514286D01*
X46080571Y-106514286D02*
X46032952Y-106609524D01*
X46032952Y-106609524D02*
X46032952Y-106800000D01*
X46032952Y-106800000D02*
X46080571Y-106895238D01*
X46652000Y-107704762D02*
X46699619Y-107609524D01*
X46699619Y-107609524D02*
X46699619Y-107419048D01*
X46699619Y-107419048D02*
X46652000Y-107323810D01*
X46652000Y-107323810D02*
X46556761Y-107276191D01*
X46556761Y-107276191D02*
X46175809Y-107276191D01*
X46175809Y-107276191D02*
X46080571Y-107323810D01*
X46080571Y-107323810D02*
X46032952Y-107419048D01*
X46032952Y-107419048D02*
X46032952Y-107609524D01*
X46032952Y-107609524D02*
X46080571Y-107704762D01*
X46080571Y-107704762D02*
X46175809Y-107752381D01*
X46175809Y-107752381D02*
X46271047Y-107752381D01*
X46271047Y-107752381D02*
X46366285Y-107276191D01*
X46699619Y-108180953D02*
X46032952Y-108180953D01*
X46223428Y-108180953D02*
X46128190Y-108228572D01*
X46128190Y-108228572D02*
X46080571Y-108276191D01*
X46080571Y-108276191D02*
X46032952Y-108371429D01*
X46032952Y-108371429D02*
X46032952Y-108466667D01*
X46699619Y-108800001D02*
X46032952Y-108800001D01*
X46128190Y-108800001D02*
X46080571Y-108847620D01*
X46080571Y-108847620D02*
X46032952Y-108942858D01*
X46032952Y-108942858D02*
X46032952Y-109085715D01*
X46032952Y-109085715D02*
X46080571Y-109180953D01*
X46080571Y-109180953D02*
X46175809Y-109228572D01*
X46175809Y-109228572D02*
X46699619Y-109228572D01*
X46175809Y-109228572D02*
X46080571Y-109276191D01*
X46080571Y-109276191D02*
X46032952Y-109371429D01*
X46032952Y-109371429D02*
X46032952Y-109514286D01*
X46032952Y-109514286D02*
X46080571Y-109609525D01*
X46080571Y-109609525D02*
X46175809Y-109657144D01*
X46175809Y-109657144D02*
X46699619Y-109657144D01*
X46699619Y-110561905D02*
X46175809Y-110561905D01*
X46175809Y-110561905D02*
X46080571Y-110514286D01*
X46080571Y-110514286D02*
X46032952Y-110419048D01*
X46032952Y-110419048D02*
X46032952Y-110228572D01*
X46032952Y-110228572D02*
X46080571Y-110133334D01*
X46652000Y-110561905D02*
X46699619Y-110466667D01*
X46699619Y-110466667D02*
X46699619Y-110228572D01*
X46699619Y-110228572D02*
X46652000Y-110133334D01*
X46652000Y-110133334D02*
X46556761Y-110085715D01*
X46556761Y-110085715D02*
X46461523Y-110085715D01*
X46461523Y-110085715D02*
X46366285Y-110133334D01*
X46366285Y-110133334D02*
X46318666Y-110228572D01*
X46318666Y-110228572D02*
X46318666Y-110466667D01*
X46318666Y-110466667D02*
X46271047Y-110561905D01*
X46699619Y-111038096D02*
X45699619Y-111038096D01*
X46318666Y-111133334D02*
X46699619Y-111419048D01*
X46032952Y-111419048D02*
X46413904Y-111038096D01*
X46699619Y-113419049D02*
X46699619Y-113371430D01*
X46699619Y-113371430D02*
X46652000Y-113276191D01*
X46652000Y-113276191D02*
X46509142Y-113133334D01*
X46509142Y-113133334D02*
X46223428Y-112895239D01*
X46223428Y-112895239D02*
X46080571Y-112800001D01*
X46080571Y-112800001D02*
X45937714Y-112752382D01*
X45937714Y-112752382D02*
X45842476Y-112752382D01*
X45842476Y-112752382D02*
X45747238Y-112800001D01*
X45747238Y-112800001D02*
X45699619Y-112895239D01*
X45699619Y-112895239D02*
X45699619Y-112942858D01*
X45699619Y-112942858D02*
X45747238Y-113038096D01*
X45747238Y-113038096D02*
X45842476Y-113085715D01*
X45842476Y-113085715D02*
X45890095Y-113085715D01*
X45890095Y-113085715D02*
X45985333Y-113038096D01*
X45985333Y-113038096D02*
X46032952Y-112990477D01*
X46032952Y-112990477D02*
X46223428Y-112704763D01*
X46223428Y-112704763D02*
X46271047Y-112657144D01*
X46271047Y-112657144D02*
X46366285Y-112609525D01*
X46366285Y-112609525D02*
X46509142Y-112609525D01*
X46509142Y-112609525D02*
X46604380Y-112657144D01*
X46604380Y-112657144D02*
X46652000Y-112704763D01*
X46652000Y-112704763D02*
X46699619Y-112800001D01*
X46699619Y-112800001D02*
X46699619Y-112942858D01*
X46699619Y-112942858D02*
X46652000Y-113038096D01*
X46652000Y-113038096D02*
X46604380Y-113085715D01*
X46604380Y-113085715D02*
X46413904Y-113228572D01*
X46413904Y-113228572D02*
X46271047Y-113276191D01*
X46271047Y-113276191D02*
X46175809Y-113276191D01*
X47642896Y-104038095D02*
X48500039Y-104038095D01*
X48500039Y-104038095D02*
X48595277Y-103990476D01*
X48595277Y-103990476D02*
X48642896Y-103895238D01*
X48642896Y-103895238D02*
X48642896Y-103847619D01*
X47309563Y-104038095D02*
X47357182Y-103990476D01*
X47357182Y-103990476D02*
X47404801Y-104038095D01*
X47404801Y-104038095D02*
X47357182Y-104085714D01*
X47357182Y-104085714D02*
X47309563Y-104038095D01*
X47309563Y-104038095D02*
X47404801Y-104038095D01*
X48309563Y-104657142D02*
X48261944Y-104561904D01*
X48261944Y-104561904D02*
X48214324Y-104514285D01*
X48214324Y-104514285D02*
X48119086Y-104466666D01*
X48119086Y-104466666D02*
X47833372Y-104466666D01*
X47833372Y-104466666D02*
X47738134Y-104514285D01*
X47738134Y-104514285D02*
X47690515Y-104561904D01*
X47690515Y-104561904D02*
X47642896Y-104657142D01*
X47642896Y-104657142D02*
X47642896Y-104799999D01*
X47642896Y-104799999D02*
X47690515Y-104895237D01*
X47690515Y-104895237D02*
X47738134Y-104942856D01*
X47738134Y-104942856D02*
X47833372Y-104990475D01*
X47833372Y-104990475D02*
X48119086Y-104990475D01*
X48119086Y-104990475D02*
X48214324Y-104942856D01*
X48214324Y-104942856D02*
X48261944Y-104895237D01*
X48261944Y-104895237D02*
X48309563Y-104799999D01*
X48309563Y-104799999D02*
X48309563Y-104657142D01*
X47642896Y-105419047D02*
X48309563Y-105419047D01*
X47738134Y-105419047D02*
X47690515Y-105466666D01*
X47690515Y-105466666D02*
X47642896Y-105561904D01*
X47642896Y-105561904D02*
X47642896Y-105704761D01*
X47642896Y-105704761D02*
X47690515Y-105799999D01*
X47690515Y-105799999D02*
X47785753Y-105847618D01*
X47785753Y-105847618D02*
X48309563Y-105847618D01*
X47642896Y-107085714D02*
X48309563Y-107085714D01*
X47738134Y-107085714D02*
X47690515Y-107133333D01*
X47690515Y-107133333D02*
X47642896Y-107228571D01*
X47642896Y-107228571D02*
X47642896Y-107371428D01*
X47642896Y-107371428D02*
X47690515Y-107466666D01*
X47690515Y-107466666D02*
X47785753Y-107514285D01*
X47785753Y-107514285D02*
X48309563Y-107514285D01*
X48261944Y-108371428D02*
X48309563Y-108276190D01*
X48309563Y-108276190D02*
X48309563Y-108085714D01*
X48309563Y-108085714D02*
X48261944Y-107990476D01*
X48261944Y-107990476D02*
X48166705Y-107942857D01*
X48166705Y-107942857D02*
X47785753Y-107942857D01*
X47785753Y-107942857D02*
X47690515Y-107990476D01*
X47690515Y-107990476D02*
X47642896Y-108085714D01*
X47642896Y-108085714D02*
X47642896Y-108276190D01*
X47642896Y-108276190D02*
X47690515Y-108371428D01*
X47690515Y-108371428D02*
X47785753Y-108419047D01*
X47785753Y-108419047D02*
X47880991Y-108419047D01*
X47880991Y-108419047D02*
X47976229Y-107942857D01*
X47642896Y-108752381D02*
X48309563Y-108942857D01*
X48309563Y-108942857D02*
X47833372Y-109133333D01*
X47833372Y-109133333D02*
X48309563Y-109323809D01*
X48309563Y-109323809D02*
X47642896Y-109514285D01*
X48309563Y-109895238D02*
X47642896Y-109895238D01*
X47738134Y-109895238D02*
X47690515Y-109942857D01*
X47690515Y-109942857D02*
X47642896Y-110038095D01*
X47642896Y-110038095D02*
X47642896Y-110180952D01*
X47642896Y-110180952D02*
X47690515Y-110276190D01*
X47690515Y-110276190D02*
X47785753Y-110323809D01*
X47785753Y-110323809D02*
X48309563Y-110323809D01*
X47785753Y-110323809D02*
X47690515Y-110371428D01*
X47690515Y-110371428D02*
X47642896Y-110466666D01*
X47642896Y-110466666D02*
X47642896Y-110609523D01*
X47642896Y-110609523D02*
X47690515Y-110704762D01*
X47690515Y-110704762D02*
X47785753Y-110752381D01*
X47785753Y-110752381D02*
X48309563Y-110752381D01*
X48309563Y-111657142D02*
X47785753Y-111657142D01*
X47785753Y-111657142D02*
X47690515Y-111609523D01*
X47690515Y-111609523D02*
X47642896Y-111514285D01*
X47642896Y-111514285D02*
X47642896Y-111323809D01*
X47642896Y-111323809D02*
X47690515Y-111228571D01*
X48261944Y-111657142D02*
X48309563Y-111561904D01*
X48309563Y-111561904D02*
X48309563Y-111323809D01*
X48309563Y-111323809D02*
X48261944Y-111228571D01*
X48261944Y-111228571D02*
X48166705Y-111180952D01*
X48166705Y-111180952D02*
X48071467Y-111180952D01*
X48071467Y-111180952D02*
X47976229Y-111228571D01*
X47976229Y-111228571D02*
X47928610Y-111323809D01*
X47928610Y-111323809D02*
X47928610Y-111561904D01*
X47928610Y-111561904D02*
X47880991Y-111657142D01*
X47642896Y-112133333D02*
X48309563Y-112133333D01*
X47738134Y-112133333D02*
X47690515Y-112180952D01*
X47690515Y-112180952D02*
X47642896Y-112276190D01*
X47642896Y-112276190D02*
X47642896Y-112419047D01*
X47642896Y-112419047D02*
X47690515Y-112514285D01*
X47690515Y-112514285D02*
X47785753Y-112561904D01*
X47785753Y-112561904D02*
X48309563Y-112561904D01*
D10*
X49642907Y-94014285D02*
X47642907Y-94014285D01*
X47928621Y-94014285D02*
X47785764Y-94157142D01*
X47785764Y-94157142D02*
X47642907Y-94442857D01*
X47642907Y-94442857D02*
X47642907Y-94871428D01*
X47642907Y-94871428D02*
X47785764Y-95157142D01*
X47785764Y-95157142D02*
X48071478Y-95300000D01*
X48071478Y-95300000D02*
X49642907Y-95300000D01*
X48071478Y-95300000D02*
X47785764Y-95442857D01*
X47785764Y-95442857D02*
X47642907Y-95728571D01*
X47642907Y-95728571D02*
X47642907Y-96157142D01*
X47642907Y-96157142D02*
X47785764Y-96442857D01*
X47785764Y-96442857D02*
X48071478Y-96585714D01*
X48071478Y-96585714D02*
X49642907Y-96585714D01*
X46642907Y-94014285D02*
X44642907Y-94014285D01*
X44928621Y-94014285D02*
X44785764Y-94157142D01*
X44785764Y-94157142D02*
X44642907Y-94442857D01*
X44642907Y-94442857D02*
X44642907Y-94871428D01*
X44642907Y-94871428D02*
X44785764Y-95157142D01*
X44785764Y-95157142D02*
X45071478Y-95300000D01*
X45071478Y-95300000D02*
X46642907Y-95300000D01*
X45071478Y-95300000D02*
X44785764Y-95442857D01*
X44785764Y-95442857D02*
X44642907Y-95728571D01*
X44642907Y-95728571D02*
X44642907Y-96157142D01*
X44642907Y-96157142D02*
X44785764Y-96442857D01*
X44785764Y-96442857D02*
X45071478Y-96585714D01*
X45071478Y-96585714D02*
X46642907Y-96585714D01*
X44736200Y-90842190D02*
X44593342Y-90556476D01*
X44593342Y-90556476D02*
X44593342Y-89985047D01*
X44593342Y-89985047D02*
X44736200Y-89699333D01*
X44736200Y-89699333D02*
X45021914Y-89556476D01*
X45021914Y-89556476D02*
X45164771Y-89556476D01*
X45164771Y-89556476D02*
X45450485Y-89699333D01*
X45450485Y-89699333D02*
X45593342Y-89985047D01*
X45593342Y-89985047D02*
X45593342Y-90413619D01*
X45593342Y-90413619D02*
X45736200Y-90699333D01*
X45736200Y-90699333D02*
X46021914Y-90842190D01*
X46021914Y-90842190D02*
X46164771Y-90842190D01*
X46164771Y-90842190D02*
X46450485Y-90699333D01*
X46450485Y-90699333D02*
X46593342Y-90413619D01*
X46593342Y-90413619D02*
X46593342Y-89985047D01*
X46593342Y-89985047D02*
X46450485Y-89699333D01*
D12*
X130924819Y-112107142D02*
X130448628Y-111773809D01*
X130924819Y-111535714D02*
X129924819Y-111535714D01*
X129924819Y-111535714D02*
X129924819Y-111916666D01*
X129924819Y-111916666D02*
X129972438Y-112011904D01*
X129972438Y-112011904D02*
X130020057Y-112059523D01*
X130020057Y-112059523D02*
X130115295Y-112107142D01*
X130115295Y-112107142D02*
X130258152Y-112107142D01*
X130258152Y-112107142D02*
X130353390Y-112059523D01*
X130353390Y-112059523D02*
X130401009Y-112011904D01*
X130401009Y-112011904D02*
X130448628Y-111916666D01*
X130448628Y-111916666D02*
X130448628Y-111535714D01*
X130020057Y-112488095D02*
X129972438Y-112535714D01*
X129972438Y-112535714D02*
X129924819Y-112630952D01*
X129924819Y-112630952D02*
X129924819Y-112869047D01*
X129924819Y-112869047D02*
X129972438Y-112964285D01*
X129972438Y-112964285D02*
X130020057Y-113011904D01*
X130020057Y-113011904D02*
X130115295Y-113059523D01*
X130115295Y-113059523D02*
X130210533Y-113059523D01*
X130210533Y-113059523D02*
X130353390Y-113011904D01*
X130353390Y-113011904D02*
X130924819Y-112440476D01*
X130924819Y-112440476D02*
X130924819Y-113059523D01*
X129924819Y-113678571D02*
X129924819Y-113773809D01*
X129924819Y-113773809D02*
X129972438Y-113869047D01*
X129972438Y-113869047D02*
X130020057Y-113916666D01*
X130020057Y-113916666D02*
X130115295Y-113964285D01*
X130115295Y-113964285D02*
X130305771Y-114011904D01*
X130305771Y-114011904D02*
X130543866Y-114011904D01*
X130543866Y-114011904D02*
X130734342Y-113964285D01*
X130734342Y-113964285D02*
X130829580Y-113916666D01*
X130829580Y-113916666D02*
X130877200Y-113869047D01*
X130877200Y-113869047D02*
X130924819Y-113773809D01*
X130924819Y-113773809D02*
X130924819Y-113678571D01*
X130924819Y-113678571D02*
X130877200Y-113583333D01*
X130877200Y-113583333D02*
X130829580Y-113535714D01*
X130829580Y-113535714D02*
X130734342Y-113488095D01*
X130734342Y-113488095D02*
X130543866Y-113440476D01*
X130543866Y-113440476D02*
X130305771Y-113440476D01*
X130305771Y-113440476D02*
X130115295Y-113488095D01*
X130115295Y-113488095D02*
X130020057Y-113535714D01*
X130020057Y-113535714D02*
X129972438Y-113583333D01*
X129972438Y-113583333D02*
X129924819Y-113678571D01*
X126059580Y-112119642D02*
X126107200Y-112072023D01*
X126107200Y-112072023D02*
X126154819Y-111929166D01*
X126154819Y-111929166D02*
X126154819Y-111833928D01*
X126154819Y-111833928D02*
X126107200Y-111691071D01*
X126107200Y-111691071D02*
X126011961Y-111595833D01*
X126011961Y-111595833D02*
X125916723Y-111548214D01*
X125916723Y-111548214D02*
X125726247Y-111500595D01*
X125726247Y-111500595D02*
X125583390Y-111500595D01*
X125583390Y-111500595D02*
X125392914Y-111548214D01*
X125392914Y-111548214D02*
X125297676Y-111595833D01*
X125297676Y-111595833D02*
X125202438Y-111691071D01*
X125202438Y-111691071D02*
X125154819Y-111833928D01*
X125154819Y-111833928D02*
X125154819Y-111929166D01*
X125154819Y-111929166D02*
X125202438Y-112072023D01*
X125202438Y-112072023D02*
X125250057Y-112119642D01*
X125154819Y-113024404D02*
X125154819Y-112548214D01*
X125154819Y-112548214D02*
X125631009Y-112500595D01*
X125631009Y-112500595D02*
X125583390Y-112548214D01*
X125583390Y-112548214D02*
X125535771Y-112643452D01*
X125535771Y-112643452D02*
X125535771Y-112881547D01*
X125535771Y-112881547D02*
X125583390Y-112976785D01*
X125583390Y-112976785D02*
X125631009Y-113024404D01*
X125631009Y-113024404D02*
X125726247Y-113072023D01*
X125726247Y-113072023D02*
X125964342Y-113072023D01*
X125964342Y-113072023D02*
X126059580Y-113024404D01*
X126059580Y-113024404D02*
X126107200Y-112976785D01*
X126107200Y-112976785D02*
X126154819Y-112881547D01*
X126154819Y-112881547D02*
X126154819Y-112643452D01*
X126154819Y-112643452D02*
X126107200Y-112548214D01*
X126107200Y-112548214D02*
X126059580Y-112500595D01*
X125488152Y-113929166D02*
X126154819Y-113929166D01*
X125107200Y-113691071D02*
X125821485Y-113452976D01*
X125821485Y-113452976D02*
X125821485Y-114072023D01*
X91509580Y-98583333D02*
X91557200Y-98535714D01*
X91557200Y-98535714D02*
X91604819Y-98392857D01*
X91604819Y-98392857D02*
X91604819Y-98297619D01*
X91604819Y-98297619D02*
X91557200Y-98154762D01*
X91557200Y-98154762D02*
X91461961Y-98059524D01*
X91461961Y-98059524D02*
X91366723Y-98011905D01*
X91366723Y-98011905D02*
X91176247Y-97964286D01*
X91176247Y-97964286D02*
X91033390Y-97964286D01*
X91033390Y-97964286D02*
X90842914Y-98011905D01*
X90842914Y-98011905D02*
X90747676Y-98059524D01*
X90747676Y-98059524D02*
X90652438Y-98154762D01*
X90652438Y-98154762D02*
X90604819Y-98297619D01*
X90604819Y-98297619D02*
X90604819Y-98392857D01*
X90604819Y-98392857D02*
X90652438Y-98535714D01*
X90652438Y-98535714D02*
X90700057Y-98583333D01*
X90604819Y-99488095D02*
X90604819Y-99011905D01*
X90604819Y-99011905D02*
X91081009Y-98964286D01*
X91081009Y-98964286D02*
X91033390Y-99011905D01*
X91033390Y-99011905D02*
X90985771Y-99107143D01*
X90985771Y-99107143D02*
X90985771Y-99345238D01*
X90985771Y-99345238D02*
X91033390Y-99440476D01*
X91033390Y-99440476D02*
X91081009Y-99488095D01*
X91081009Y-99488095D02*
X91176247Y-99535714D01*
X91176247Y-99535714D02*
X91414342Y-99535714D01*
X91414342Y-99535714D02*
X91509580Y-99488095D01*
X91509580Y-99488095D02*
X91557200Y-99440476D01*
X91557200Y-99440476D02*
X91604819Y-99345238D01*
X91604819Y-99345238D02*
X91604819Y-99107143D01*
X91604819Y-99107143D02*
X91557200Y-99011905D01*
X91557200Y-99011905D02*
X91509580Y-98964286D01*
X85209580Y-98583333D02*
X85257200Y-98535714D01*
X85257200Y-98535714D02*
X85304819Y-98392857D01*
X85304819Y-98392857D02*
X85304819Y-98297619D01*
X85304819Y-98297619D02*
X85257200Y-98154762D01*
X85257200Y-98154762D02*
X85161961Y-98059524D01*
X85161961Y-98059524D02*
X85066723Y-98011905D01*
X85066723Y-98011905D02*
X84876247Y-97964286D01*
X84876247Y-97964286D02*
X84733390Y-97964286D01*
X84733390Y-97964286D02*
X84542914Y-98011905D01*
X84542914Y-98011905D02*
X84447676Y-98059524D01*
X84447676Y-98059524D02*
X84352438Y-98154762D01*
X84352438Y-98154762D02*
X84304819Y-98297619D01*
X84304819Y-98297619D02*
X84304819Y-98392857D01*
X84304819Y-98392857D02*
X84352438Y-98535714D01*
X84352438Y-98535714D02*
X84400057Y-98583333D01*
X84638152Y-99440476D02*
X85304819Y-99440476D01*
X84257200Y-99202381D02*
X84971485Y-98964286D01*
X84971485Y-98964286D02*
X84971485Y-99583333D01*
X130942857Y-115609580D02*
X130990476Y-115657200D01*
X130990476Y-115657200D02*
X131133333Y-115704819D01*
X131133333Y-115704819D02*
X131228571Y-115704819D01*
X131228571Y-115704819D02*
X131371428Y-115657200D01*
X131371428Y-115657200D02*
X131466666Y-115561961D01*
X131466666Y-115561961D02*
X131514285Y-115466723D01*
X131514285Y-115466723D02*
X131561904Y-115276247D01*
X131561904Y-115276247D02*
X131561904Y-115133390D01*
X131561904Y-115133390D02*
X131514285Y-114942914D01*
X131514285Y-114942914D02*
X131466666Y-114847676D01*
X131466666Y-114847676D02*
X131371428Y-114752438D01*
X131371428Y-114752438D02*
X131228571Y-114704819D01*
X131228571Y-114704819D02*
X131133333Y-114704819D01*
X131133333Y-114704819D02*
X130990476Y-114752438D01*
X130990476Y-114752438D02*
X130942857Y-114800057D01*
X130561904Y-114800057D02*
X130514285Y-114752438D01*
X130514285Y-114752438D02*
X130419047Y-114704819D01*
X130419047Y-114704819D02*
X130180952Y-114704819D01*
X130180952Y-114704819D02*
X130085714Y-114752438D01*
X130085714Y-114752438D02*
X130038095Y-114800057D01*
X130038095Y-114800057D02*
X129990476Y-114895295D01*
X129990476Y-114895295D02*
X129990476Y-114990533D01*
X129990476Y-114990533D02*
X130038095Y-115133390D01*
X130038095Y-115133390D02*
X130609523Y-115704819D01*
X130609523Y-115704819D02*
X129990476Y-115704819D01*
X129419047Y-115133390D02*
X129514285Y-115085771D01*
X129514285Y-115085771D02*
X129561904Y-115038152D01*
X129561904Y-115038152D02*
X129609523Y-114942914D01*
X129609523Y-114942914D02*
X129609523Y-114895295D01*
X129609523Y-114895295D02*
X129561904Y-114800057D01*
X129561904Y-114800057D02*
X129514285Y-114752438D01*
X129514285Y-114752438D02*
X129419047Y-114704819D01*
X129419047Y-114704819D02*
X129228571Y-114704819D01*
X129228571Y-114704819D02*
X129133333Y-114752438D01*
X129133333Y-114752438D02*
X129085714Y-114800057D01*
X129085714Y-114800057D02*
X129038095Y-114895295D01*
X129038095Y-114895295D02*
X129038095Y-114942914D01*
X129038095Y-114942914D02*
X129085714Y-115038152D01*
X129085714Y-115038152D02*
X129133333Y-115085771D01*
X129133333Y-115085771D02*
X129228571Y-115133390D01*
X129228571Y-115133390D02*
X129419047Y-115133390D01*
X129419047Y-115133390D02*
X129514285Y-115181009D01*
X129514285Y-115181009D02*
X129561904Y-115228628D01*
X129561904Y-115228628D02*
X129609523Y-115323866D01*
X129609523Y-115323866D02*
X129609523Y-115514342D01*
X129609523Y-115514342D02*
X129561904Y-115609580D01*
X129561904Y-115609580D02*
X129514285Y-115657200D01*
X129514285Y-115657200D02*
X129419047Y-115704819D01*
X129419047Y-115704819D02*
X129228571Y-115704819D01*
X129228571Y-115704819D02*
X129133333Y-115657200D01*
X129133333Y-115657200D02*
X129085714Y-115609580D01*
X129085714Y-115609580D02*
X129038095Y-115514342D01*
X129038095Y-115514342D02*
X129038095Y-115323866D01*
X129038095Y-115323866D02*
X129085714Y-115228628D01*
X129085714Y-115228628D02*
X129133333Y-115181009D01*
X129133333Y-115181009D02*
X129228571Y-115133390D01*
X135009580Y-98857142D02*
X135057200Y-98809523D01*
X135057200Y-98809523D02*
X135104819Y-98666666D01*
X135104819Y-98666666D02*
X135104819Y-98571428D01*
X135104819Y-98571428D02*
X135057200Y-98428571D01*
X135057200Y-98428571D02*
X134961961Y-98333333D01*
X134961961Y-98333333D02*
X134866723Y-98285714D01*
X134866723Y-98285714D02*
X134676247Y-98238095D01*
X134676247Y-98238095D02*
X134533390Y-98238095D01*
X134533390Y-98238095D02*
X134342914Y-98285714D01*
X134342914Y-98285714D02*
X134247676Y-98333333D01*
X134247676Y-98333333D02*
X134152438Y-98428571D01*
X134152438Y-98428571D02*
X134104819Y-98571428D01*
X134104819Y-98571428D02*
X134104819Y-98666666D01*
X134104819Y-98666666D02*
X134152438Y-98809523D01*
X134152438Y-98809523D02*
X134200057Y-98857142D01*
X134104819Y-99190476D02*
X134104819Y-99809523D01*
X134104819Y-99809523D02*
X134485771Y-99476190D01*
X134485771Y-99476190D02*
X134485771Y-99619047D01*
X134485771Y-99619047D02*
X134533390Y-99714285D01*
X134533390Y-99714285D02*
X134581009Y-99761904D01*
X134581009Y-99761904D02*
X134676247Y-99809523D01*
X134676247Y-99809523D02*
X134914342Y-99809523D01*
X134914342Y-99809523D02*
X135009580Y-99761904D01*
X135009580Y-99761904D02*
X135057200Y-99714285D01*
X135057200Y-99714285D02*
X135104819Y-99619047D01*
X135104819Y-99619047D02*
X135104819Y-99333333D01*
X135104819Y-99333333D02*
X135057200Y-99238095D01*
X135057200Y-99238095D02*
X135009580Y-99190476D01*
X134104819Y-100428571D02*
X134104819Y-100523809D01*
X134104819Y-100523809D02*
X134152438Y-100619047D01*
X134152438Y-100619047D02*
X134200057Y-100666666D01*
X134200057Y-100666666D02*
X134295295Y-100714285D01*
X134295295Y-100714285D02*
X134485771Y-100761904D01*
X134485771Y-100761904D02*
X134723866Y-100761904D01*
X134723866Y-100761904D02*
X134914342Y-100714285D01*
X134914342Y-100714285D02*
X135009580Y-100666666D01*
X135009580Y-100666666D02*
X135057200Y-100619047D01*
X135057200Y-100619047D02*
X135104819Y-100523809D01*
X135104819Y-100523809D02*
X135104819Y-100428571D01*
X135104819Y-100428571D02*
X135057200Y-100333333D01*
X135057200Y-100333333D02*
X135009580Y-100285714D01*
X135009580Y-100285714D02*
X134914342Y-100238095D01*
X134914342Y-100238095D02*
X134723866Y-100190476D01*
X134723866Y-100190476D02*
X134485771Y-100190476D01*
X134485771Y-100190476D02*
X134295295Y-100238095D01*
X134295295Y-100238095D02*
X134200057Y-100285714D01*
X134200057Y-100285714D02*
X134152438Y-100333333D01*
X134152438Y-100333333D02*
X134104819Y-100428571D01*
X128709580Y-98857142D02*
X128757200Y-98809523D01*
X128757200Y-98809523D02*
X128804819Y-98666666D01*
X128804819Y-98666666D02*
X128804819Y-98571428D01*
X128804819Y-98571428D02*
X128757200Y-98428571D01*
X128757200Y-98428571D02*
X128661961Y-98333333D01*
X128661961Y-98333333D02*
X128566723Y-98285714D01*
X128566723Y-98285714D02*
X128376247Y-98238095D01*
X128376247Y-98238095D02*
X128233390Y-98238095D01*
X128233390Y-98238095D02*
X128042914Y-98285714D01*
X128042914Y-98285714D02*
X127947676Y-98333333D01*
X127947676Y-98333333D02*
X127852438Y-98428571D01*
X127852438Y-98428571D02*
X127804819Y-98571428D01*
X127804819Y-98571428D02*
X127804819Y-98666666D01*
X127804819Y-98666666D02*
X127852438Y-98809523D01*
X127852438Y-98809523D02*
X127900057Y-98857142D01*
X127900057Y-99238095D02*
X127852438Y-99285714D01*
X127852438Y-99285714D02*
X127804819Y-99380952D01*
X127804819Y-99380952D02*
X127804819Y-99619047D01*
X127804819Y-99619047D02*
X127852438Y-99714285D01*
X127852438Y-99714285D02*
X127900057Y-99761904D01*
X127900057Y-99761904D02*
X127995295Y-99809523D01*
X127995295Y-99809523D02*
X128090533Y-99809523D01*
X128090533Y-99809523D02*
X128233390Y-99761904D01*
X128233390Y-99761904D02*
X128804819Y-99190476D01*
X128804819Y-99190476D02*
X128804819Y-99809523D01*
X128804819Y-100285714D02*
X128804819Y-100476190D01*
X128804819Y-100476190D02*
X128757200Y-100571428D01*
X128757200Y-100571428D02*
X128709580Y-100619047D01*
X128709580Y-100619047D02*
X128566723Y-100714285D01*
X128566723Y-100714285D02*
X128376247Y-100761904D01*
X128376247Y-100761904D02*
X127995295Y-100761904D01*
X127995295Y-100761904D02*
X127900057Y-100714285D01*
X127900057Y-100714285D02*
X127852438Y-100666666D01*
X127852438Y-100666666D02*
X127804819Y-100571428D01*
X127804819Y-100571428D02*
X127804819Y-100380952D01*
X127804819Y-100380952D02*
X127852438Y-100285714D01*
X127852438Y-100285714D02*
X127900057Y-100238095D01*
X127900057Y-100238095D02*
X127995295Y-100190476D01*
X127995295Y-100190476D02*
X128233390Y-100190476D01*
X128233390Y-100190476D02*
X128328628Y-100238095D01*
X128328628Y-100238095D02*
X128376247Y-100285714D01*
X128376247Y-100285714D02*
X128423866Y-100380952D01*
X128423866Y-100380952D02*
X128423866Y-100571428D01*
X128423866Y-100571428D02*
X128376247Y-100666666D01*
X128376247Y-100666666D02*
X128328628Y-100714285D01*
X128328628Y-100714285D02*
X128233390Y-100761904D01*
X86666666Y-115509580D02*
X86714285Y-115557200D01*
X86714285Y-115557200D02*
X86857142Y-115604819D01*
X86857142Y-115604819D02*
X86952380Y-115604819D01*
X86952380Y-115604819D02*
X87095237Y-115557200D01*
X87095237Y-115557200D02*
X87190475Y-115461961D01*
X87190475Y-115461961D02*
X87238094Y-115366723D01*
X87238094Y-115366723D02*
X87285713Y-115176247D01*
X87285713Y-115176247D02*
X87285713Y-115033390D01*
X87285713Y-115033390D02*
X87238094Y-114842914D01*
X87238094Y-114842914D02*
X87190475Y-114747676D01*
X87190475Y-114747676D02*
X87095237Y-114652438D01*
X87095237Y-114652438D02*
X86952380Y-114604819D01*
X86952380Y-114604819D02*
X86857142Y-114604819D01*
X86857142Y-114604819D02*
X86714285Y-114652438D01*
X86714285Y-114652438D02*
X86666666Y-114700057D01*
X86333332Y-114604819D02*
X85714285Y-114604819D01*
X85714285Y-114604819D02*
X86047618Y-114985771D01*
X86047618Y-114985771D02*
X85904761Y-114985771D01*
X85904761Y-114985771D02*
X85809523Y-115033390D01*
X85809523Y-115033390D02*
X85761904Y-115081009D01*
X85761904Y-115081009D02*
X85714285Y-115176247D01*
X85714285Y-115176247D02*
X85714285Y-115414342D01*
X85714285Y-115414342D02*
X85761904Y-115509580D01*
X85761904Y-115509580D02*
X85809523Y-115557200D01*
X85809523Y-115557200D02*
X85904761Y-115604819D01*
X85904761Y-115604819D02*
X86190475Y-115604819D01*
X86190475Y-115604819D02*
X86285713Y-115557200D01*
X86285713Y-115557200D02*
X86333332Y-115509580D01*
X87174819Y-112107142D02*
X86698628Y-111773809D01*
X87174819Y-111535714D02*
X86174819Y-111535714D01*
X86174819Y-111535714D02*
X86174819Y-111916666D01*
X86174819Y-111916666D02*
X86222438Y-112011904D01*
X86222438Y-112011904D02*
X86270057Y-112059523D01*
X86270057Y-112059523D02*
X86365295Y-112107142D01*
X86365295Y-112107142D02*
X86508152Y-112107142D01*
X86508152Y-112107142D02*
X86603390Y-112059523D01*
X86603390Y-112059523D02*
X86651009Y-112011904D01*
X86651009Y-112011904D02*
X86698628Y-111916666D01*
X86698628Y-111916666D02*
X86698628Y-111535714D01*
X87174819Y-113059523D02*
X87174819Y-112488095D01*
X87174819Y-112773809D02*
X86174819Y-112773809D01*
X86174819Y-112773809D02*
X86317676Y-112678571D01*
X86317676Y-112678571D02*
X86412914Y-112583333D01*
X86412914Y-112583333D02*
X86460533Y-112488095D01*
X87174819Y-113535714D02*
X87174819Y-113726190D01*
X87174819Y-113726190D02*
X87127200Y-113821428D01*
X87127200Y-113821428D02*
X87079580Y-113869047D01*
X87079580Y-113869047D02*
X86936723Y-113964285D01*
X86936723Y-113964285D02*
X86746247Y-114011904D01*
X86746247Y-114011904D02*
X86365295Y-114011904D01*
X86365295Y-114011904D02*
X86270057Y-113964285D01*
X86270057Y-113964285D02*
X86222438Y-113916666D01*
X86222438Y-113916666D02*
X86174819Y-113821428D01*
X86174819Y-113821428D02*
X86174819Y-113630952D01*
X86174819Y-113630952D02*
X86222438Y-113535714D01*
X86222438Y-113535714D02*
X86270057Y-113488095D01*
X86270057Y-113488095D02*
X86365295Y-113440476D01*
X86365295Y-113440476D02*
X86603390Y-113440476D01*
X86603390Y-113440476D02*
X86698628Y-113488095D01*
X86698628Y-113488095D02*
X86746247Y-113535714D01*
X86746247Y-113535714D02*
X86793866Y-113630952D01*
X86793866Y-113630952D02*
X86793866Y-113821428D01*
X86793866Y-113821428D02*
X86746247Y-113916666D01*
X86746247Y-113916666D02*
X86698628Y-113964285D01*
X86698628Y-113964285D02*
X86603390Y-114011904D01*
X82309580Y-112094642D02*
X82357200Y-112047023D01*
X82357200Y-112047023D02*
X82404819Y-111904166D01*
X82404819Y-111904166D02*
X82404819Y-111808928D01*
X82404819Y-111808928D02*
X82357200Y-111666071D01*
X82357200Y-111666071D02*
X82261961Y-111570833D01*
X82261961Y-111570833D02*
X82166723Y-111523214D01*
X82166723Y-111523214D02*
X81976247Y-111475595D01*
X81976247Y-111475595D02*
X81833390Y-111475595D01*
X81833390Y-111475595D02*
X81642914Y-111523214D01*
X81642914Y-111523214D02*
X81547676Y-111570833D01*
X81547676Y-111570833D02*
X81452438Y-111666071D01*
X81452438Y-111666071D02*
X81404819Y-111808928D01*
X81404819Y-111808928D02*
X81404819Y-111904166D01*
X81404819Y-111904166D02*
X81452438Y-112047023D01*
X81452438Y-112047023D02*
X81500057Y-112094642D01*
X81404819Y-112999404D02*
X81404819Y-112523214D01*
X81404819Y-112523214D02*
X81881009Y-112475595D01*
X81881009Y-112475595D02*
X81833390Y-112523214D01*
X81833390Y-112523214D02*
X81785771Y-112618452D01*
X81785771Y-112618452D02*
X81785771Y-112856547D01*
X81785771Y-112856547D02*
X81833390Y-112951785D01*
X81833390Y-112951785D02*
X81881009Y-112999404D01*
X81881009Y-112999404D02*
X81976247Y-113047023D01*
X81976247Y-113047023D02*
X82214342Y-113047023D01*
X82214342Y-113047023D02*
X82309580Y-112999404D01*
X82309580Y-112999404D02*
X82357200Y-112951785D01*
X82357200Y-112951785D02*
X82404819Y-112856547D01*
X82404819Y-112856547D02*
X82404819Y-112618452D01*
X82404819Y-112618452D02*
X82357200Y-112523214D01*
X82357200Y-112523214D02*
X82309580Y-112475595D01*
X81404819Y-113380357D02*
X81404819Y-113999404D01*
X81404819Y-113999404D02*
X81785771Y-113666071D01*
X81785771Y-113666071D02*
X81785771Y-113808928D01*
X81785771Y-113808928D02*
X81833390Y-113904166D01*
X81833390Y-113904166D02*
X81881009Y-113951785D01*
X81881009Y-113951785D02*
X81976247Y-113999404D01*
X81976247Y-113999404D02*
X82214342Y-113999404D01*
X82214342Y-113999404D02*
X82309580Y-113951785D01*
X82309580Y-113951785D02*
X82357200Y-113904166D01*
X82357200Y-113904166D02*
X82404819Y-113808928D01*
X82404819Y-113808928D02*
X82404819Y-113523214D01*
X82404819Y-113523214D02*
X82357200Y-113427976D01*
X82357200Y-113427976D02*
X82309580Y-113380357D01*
D13*
%TO.C,R20*%
X131395000Y-112026263D02*
X131395000Y-113473737D01*
X134105000Y-112026263D02*
X134105000Y-113473737D01*
%TO.C,C54*%
X126640000Y-112051248D02*
X126640000Y-113473752D01*
X129360000Y-112051248D02*
X129360000Y-113473752D01*
%TO.C,C5*%
X92090000Y-98038748D02*
X92090000Y-99461252D01*
X93910000Y-98038748D02*
X93910000Y-99461252D01*
%TO.C,C4*%
X82090000Y-99461252D02*
X82090000Y-98038748D01*
X83910000Y-99461252D02*
X83910000Y-98038748D01*
%TO.C,C28*%
X131011252Y-116190000D02*
X129588748Y-116190000D01*
X131011252Y-118010000D02*
X129588748Y-118010000D01*
%TO.C,C30*%
X135590000Y-98788748D02*
X135590000Y-100211252D01*
X137410000Y-98788748D02*
X137410000Y-100211252D01*
%TO.C,C29*%
X125590000Y-100211252D02*
X125590000Y-98788748D01*
X127410000Y-100211252D02*
X127410000Y-98788748D01*
%TO.C,C3*%
X87211252Y-116090000D02*
X85788748Y-116090000D01*
X87211252Y-117910000D02*
X85788748Y-117910000D01*
%TO.C,R19*%
X87645000Y-112026263D02*
X87645000Y-113473737D01*
X90355000Y-112026263D02*
X90355000Y-113473737D01*
%TO.C,C53*%
X82890000Y-112026248D02*
X82890000Y-113448752D01*
X85610000Y-112026248D02*
X85610000Y-113448752D01*
%TD*%
%LPC*%
D14*
%TO.C,J10*%
X33110000Y-131720000D03*
X38890000Y-131720000D03*
D15*
X31680000Y-131220000D03*
D16*
X31680000Y-135400000D03*
D15*
X40320000Y-131220000D03*
D16*
X40320000Y-135400000D03*
%TD*%
D17*
%TO.C,J7*%
X87900000Y-70800000D03*
X85400000Y-70800000D03*
D18*
X93000000Y-65700000D03*
X82800000Y-65700000D03*
%TD*%
D17*
%TO.C,J9*%
X129100000Y-71000000D03*
X126600000Y-71000000D03*
D18*
X134200000Y-65900000D03*
X124000000Y-65900000D03*
%TD*%
D19*
%TO.C,H2*%
X62000000Y-66000000D03*
%TD*%
%TO.C,H4*%
X136500000Y-126500000D03*
%TD*%
%TO.C,H3*%
X37100000Y-80500000D03*
%TD*%
%TO.C,H1*%
X104000000Y-66000000D03*
%TD*%
D20*
%TO.C,U2*%
X82670000Y-117800000D03*
X90290000Y-117800000D03*
X92830000Y-117800000D03*
X92830000Y-94800000D03*
X90290000Y-94800000D03*
X85210000Y-94800000D03*
X82670000Y-94800000D03*
D21*
X95750000Y-115300000D03*
X79750000Y-97300000D03*
%TD*%
D17*
%TO.C,J8*%
X116500000Y-68580000D03*
X116500000Y-63500000D03*
X113960000Y-68580000D03*
X113960000Y-63500000D03*
%TD*%
%TO.C,J6*%
X75400000Y-68380000D03*
X75400000Y-63300000D03*
X72860000Y-68380000D03*
X72860000Y-63300000D03*
%TD*%
D22*
%TO.C,J1*%
X121000000Y-127300000D03*
D23*
X121000000Y-129840000D03*
X118460000Y-127300000D03*
X118460000Y-129840000D03*
X115920000Y-127300000D03*
X115920000Y-129840000D03*
X113380000Y-127300000D03*
X113380000Y-129840000D03*
X110840000Y-127300000D03*
X110840000Y-129840000D03*
X108300000Y-127300000D03*
X108300000Y-129840000D03*
X105760000Y-127300000D03*
X105760000Y-129840000D03*
X103220000Y-127300000D03*
X103220000Y-129840000D03*
%TD*%
D20*
%TO.C,U13*%
X126420000Y-118500000D03*
X134040000Y-118500000D03*
X136580000Y-118500000D03*
X136580000Y-95500000D03*
X134040000Y-95500000D03*
X128960000Y-95500000D03*
X126420000Y-95500000D03*
D21*
X139500000Y-116000000D03*
X123500000Y-98000000D03*
%TD*%
D24*
%TO.C,TP8*%
X71014776Y-122360000D03*
%TD*%
%TO.C,TP24*%
X99700000Y-92850000D03*
%TD*%
%TO.C,TP26*%
X123300000Y-75300000D03*
%TD*%
%TO.C,TP27*%
X83400000Y-75400000D03*
%TD*%
%TO.C,TP28*%
X128050000Y-75400000D03*
%TD*%
%TO.C,TP29*%
X77650000Y-91400000D03*
%TD*%
%TO.C,TP30*%
X122650000Y-90600000D03*
%TD*%
%TO.C,TP1*%
X113800000Y-122800000D03*
%TD*%
%TO.C,TP23*%
X55300000Y-93200000D03*
%TD*%
%TO.C,TP2*%
X115100000Y-121000000D03*
%TD*%
%TO.C,TP3*%
X116350000Y-122936000D03*
%TD*%
%TO.C,TP4*%
X117602000Y-121031000D03*
%TD*%
%TO.C,TP5*%
X104500000Y-121400000D03*
%TD*%
%TO.C,TP6*%
X68199000Y-122340000D03*
%TD*%
%TO.C,TP7*%
X69710000Y-120790000D03*
%TD*%
%TO.C,TP25*%
X78850000Y-75500000D03*
%TD*%
%TO.C,TP13*%
X50000000Y-115000000D03*
%TD*%
%TO.C,TP12*%
X58928000Y-120904000D03*
%TD*%
%TO.C,TP11*%
X63000000Y-121900000D03*
%TD*%
%TO.C,TP9*%
X72900000Y-120800000D03*
%TD*%
%TO.C,TP10*%
X61050000Y-121250000D03*
%TD*%
D25*
%TO.C,TP16*%
X94950000Y-80100000D03*
%TD*%
%TO.C,TP21*%
X57800000Y-94300000D03*
%TD*%
%TO.C,TP20*%
X137400000Y-88900000D03*
%TD*%
%TO.C,TP19*%
X93200000Y-88600000D03*
%TD*%
%TO.C,TP17*%
X105700000Y-74950000D03*
%TD*%
%TO.C,TP22*%
X102650000Y-93750000D03*
%TD*%
%TO.C,TP15*%
X60850000Y-75150000D03*
%TD*%
%TO.C,TP18*%
X139450000Y-80250000D03*
%TD*%
D24*
%TO.C,TP52*%
X68707000Y-105918000D03*
%TD*%
%TO.C,TP51*%
X69800000Y-103900000D03*
%TD*%
%TO.C,TP50*%
X73100000Y-105900000D03*
%TD*%
%TO.C,TP49*%
X76700000Y-106000000D03*
%TD*%
%TO.C,TP48*%
X58200000Y-105500000D03*
%TD*%
%TO.C,TP45*%
X63700000Y-106000000D03*
%TD*%
%TO.C,TP44*%
X65100000Y-73900000D03*
%TD*%
%TO.C,TP43*%
X71950000Y-73900000D03*
%TD*%
%TO.C,TP42*%
X87850000Y-105750000D03*
%TD*%
%TO.C,TP40*%
X115150000Y-104100000D03*
%TD*%
%TO.C,TP41*%
X113750000Y-105900000D03*
%TD*%
%TO.C,TP31*%
X131650000Y-106600000D03*
%TD*%
%TO.C,TP32*%
X111350000Y-73900000D03*
%TD*%
%TO.C,TP33*%
X118100000Y-73900000D03*
%TD*%
%TO.C,TP34*%
X108600000Y-106400000D03*
%TD*%
%TO.C,TP39*%
X117900000Y-106150000D03*
%TD*%
%TO.C,TP37*%
X103950000Y-106300000D03*
%TD*%
%TO.C,TP38*%
X122000000Y-106300000D03*
%TD*%
%TO.C,TP46*%
X127250000Y-124800000D03*
%TD*%
%TO.C,TP35*%
X45500000Y-81400000D03*
%TD*%
%TO.C,TP47*%
X86000000Y-136000000D03*
%TD*%
D26*
%TO.C,D3*%
X65500000Y-133525000D03*
D27*
X63000000Y-133525000D03*
%TD*%
D24*
%TO.C,TP36*%
X86700000Y-131200000D03*
%TD*%
D17*
%TO.C,J2*%
X47600000Y-70800000D03*
X45100000Y-70800000D03*
D18*
X52700000Y-65700000D03*
X42500000Y-65700000D03*
%TD*%
D26*
%TO.C,D4*%
X73000000Y-133525000D03*
D27*
X70500000Y-133525000D03*
%TD*%
D28*
%TO.C,SW2*%
X51750000Y-132510000D03*
X44740000Y-132510000D03*
D29*
X50500000Y-135000000D03*
X46000000Y-135000000D03*
%TD*%
D26*
%TO.C,D5*%
X80500000Y-133525000D03*
D27*
X78000000Y-133525000D03*
%TD*%
D17*
%TO.C,J3*%
X27600000Y-70800000D03*
X25100000Y-70800000D03*
D18*
X32700000Y-65700000D03*
X22500000Y-65700000D03*
%TD*%
D24*
%TO.C,TP14*%
X106426000Y-121920000D03*
%TD*%
D30*
%TO.C,SW1*%
X24000000Y-134750000D03*
X18920000Y-134750000D03*
D31*
X24000000Y-127130000D03*
D30*
X21460000Y-127130000D03*
X18920000Y-127130000D03*
X24000000Y-129670000D03*
X21460000Y-129670000D03*
X18920000Y-129670000D03*
%TD*%
D32*
%TO.C,R20*%
X132750000Y-111200000D03*
X132750000Y-114300000D03*
%TD*%
D33*
%TO.C,C54*%
X128000000Y-111200000D03*
X128000000Y-114325000D03*
%TD*%
D34*
%TO.C,C5*%
X93000000Y-97187500D03*
X93000000Y-100312500D03*
%TD*%
D35*
%TO.C,C4*%
X83000000Y-100312500D03*
X83000000Y-97187500D03*
%TD*%
D36*
%TO.C,C28*%
X131862500Y-117100000D03*
X128737500Y-117100000D03*
%TD*%
D34*
%TO.C,C30*%
X136500000Y-97937500D03*
X136500000Y-101062500D03*
%TD*%
D35*
%TO.C,C29*%
X126500000Y-101062500D03*
X126500000Y-97937500D03*
%TD*%
D36*
%TO.C,C3*%
X88062500Y-117000000D03*
X84937500Y-117000000D03*
%TD*%
D32*
%TO.C,R19*%
X89000000Y-111200000D03*
X89000000Y-114300000D03*
%TD*%
D33*
%TO.C,C53*%
X84250000Y-111175000D03*
X84250000Y-114300000D03*
%TD*%
%LPD*%
M02*
