M48
; DRILL file {KiCad 9.0.6-9.0.6~ubuntu24.04.1} date 2025-12-06T00:42:22-0500
; FORMAT={-:-/ absolute / inch / decimal}
; #@! TF.CreationDate,2025-12-06T00:42:22-05:00
; #@! TF.GenerationSoftware,Kicad,Pcbnew,9.0.6-9.0.6~ubuntu24.04.1
; #@! TF.FileFunction,Plated,1,6,PTH
FMAT,2
INCH
; #@! TA.AperFunction,Plated,PTH,ViaDrill
T1C0.0079
; #@! TA.AperFunction,Plated,PTH,ViaDrill
T2C0.0098
; #@! TA.AperFunction,Plated,PTH,ViaDrill
T3C0.0157
; #@! TA.AperFunction,Plated,PTH,ComponentDrill
T4C0.0197
; #@! TA.AperFunction,Plated,PTH,ComponentDrill
T5C0.0236
; #@! TA.AperFunction,Plated,PTH,ComponentDrill
T6C0.0300
; #@! TA.AperFunction,Plated,PTH,ComponentDrill
T7C0.0350
; #@! TA.AperFunction,Plated,PTH,ComponentDrill
T8C0.0354
; #@! TA.AperFunction,Plated,PTH,ComponentDrill
T9C0.0390
; #@! TA.AperFunction,Plated,PTH,ComponentDrill
T10C0.0394
; #@! TA.AperFunction,Plated,PTH,ComponentDrill
T11C0.0433
; #@! TA.AperFunction,Plated,PTH,ComponentDrill
T12C0.0472
; #@! TA.AperFunction,Plated,PTH,ComponentDrill
T13C0.0512
; #@! TA.AperFunction,Plated,PTH,ComponentDrill
T14C0.0591
; #@! TA.AperFunction,Plated,PTH,ComponentDrill
T15C0.0787
%
G90
G05
T1
X1.189Y-4.0709
X1.2205Y-4.0709
X1.2323Y-4.315
X1.252Y-4.1024
X1.2992Y-4.1024
X1.3136Y-4.6654
X1.3228Y-4.0945
X1.3268Y-4.2123
X1.3437Y-4.3794
X1.3739Y-4.0825
X1.4016Y-4.0945
T2
X0.7874Y-3.8189
X0.7874Y-3.878
X0.8071Y-3.9567
X0.815Y-3.8465
X0.8228Y-4.0197
X0.8268Y-3.7795
X0.8268Y-4.1614
X0.8346Y-3.9173
X0.8449Y-3.5984
X0.8465Y-3.9921
X0.8465Y-4.1102
X0.8661Y-3.937
X0.9055Y-3.7795
X0.9291Y-3.9551
X0.9449Y-4.1929
X0.9563Y-3.7791
X0.9563Y-3.9189
X0.9563Y-4.0787
X0.9701Y-4.1185
X0.9843Y-4.1535
X0.9949Y-3.3346
X1.0228Y-4.1756
X1.0236Y-3.9551
X1.0768Y-4.2283
X1.0827Y-3.6417
X1.0827Y-3.7402
X1.0906Y-4.2087
X1.0949Y-3.3386
X1.1232Y-4.3504
X1.1602Y-4.3504
X1.1693Y-3.9449
X1.1693Y-4.0276
X1.1811Y-3.8819
X1.189Y-4.1969
X1.189Y-4.2244
X1.1891Y-3.7727
X1.1972Y-4.4354
X1.2205Y-3.6866
X1.2362Y-3.8465
X1.315Y-4.0157
X1.3228Y-3.6614
X1.3504Y-3.9449
X1.3563Y-3.5303
X1.3583Y-3.5839
X1.378Y-3.6378
X1.3898Y-4.3701
X1.4961Y-3.9449
X1.563Y-3.8661
X1.563Y-4.0232
X1.5906Y-3.9449
X1.7008Y-3.8661
T3
X0.5906Y-4.1339
X0.6024Y-4.8071
X0.6319Y-4.6543
X0.6693Y-2.7953
X0.6693Y-3.7795
X0.7087Y-3.6614
X0.7087Y-3.937
X0.7146Y-4.9213
X0.7283Y-2.8937
X0.748Y-4.1732
X0.748Y-4.4094
X0.7717Y-4.6543
X0.8268Y-4.3701
X0.8449Y-3.4724
X0.8465Y-2.9528
X0.8465Y-3.1496
X0.853Y-4.8747
X0.9055Y-4.8465
X0.9449Y-2.9528
X0.9449Y-3.1496
X0.9449Y-4.3701
X1.0236Y-4.9803
X1.0276Y-4.3622
X1.0433Y-2.9528
X1.0433Y-3.1496
X1.0433Y-4.5866
X1.0439Y-4.4687
X1.0472Y-4.2776
X1.063Y-4.7244
X1.0827Y-4.8425
X1.0949Y-2.9528
X1.1024Y-2.6772
X1.1024Y-4.5591
X1.1024Y-4.685
X1.122Y-3.8583
X1.122Y-4.0157
X1.1614Y-3.4673
X1.185Y-4.752
X1.189Y-4.5591
X1.2165Y-3.4173
X1.2205Y-4.3622
X1.236Y-4.2754
X1.2638Y-4.3701
X1.2638Y-4.6142
X1.2736Y-4.2756
X1.3136Y-4.3701
X1.315Y-5.0433
X1.3504Y-4.5551
X1.378Y-4.252
X1.378Y-5.2165
X1.3976Y-3.8583
X1.3976Y-4.0157
X1.4173Y-4.2717
X1.4173Y-4.7638
X1.4173Y-4.8622
X1.4173Y-4.9803
X1.4567Y-2.9134
X1.4567Y-3.7008
X1.4567Y-4.1732
X1.4567Y-4.252
X1.4567Y-4.7638
X1.4567Y-5.2165
X1.4961Y-2.6811
X1.4961Y-3.4252
X1.4961Y-3.622
X1.4961Y-4.1339
X1.4961Y-4.2126
X1.4961Y-4.3701
X1.5118Y-5.252
X1.5236Y-5.0433
X1.5748Y-4.0748
X1.5748Y-4.1339
X1.5748Y-4.8425
X1.6142Y-4.685
X1.6142Y-4.7638
X1.622Y-4.6142
X1.6339Y-5.374
X1.6535Y-3.9961
X1.6535Y-4.0551
X1.6535Y-4.5551
X1.7323Y-3.9173
X1.7323Y-3.9764
X1.7323Y-4.4961
X1.7323Y-5.0394
X1.811Y-3.8386
X1.811Y-3.8976
X1.811Y-4.4291
X1.8504Y-2.9921
X1.8701Y-3.7874
X1.8898Y-3.4252
X1.8898Y-3.622
X1.8898Y-3.8583
X1.8898Y-4.4882
X1.9685Y-3.7795
X1.9685Y-4.4488
X2.0079Y-3.7008
X2.1299Y-2.3661
X2.1457Y-4.6654
X2.1489Y-4.3024
X2.1654Y-5.2362
X2.1929Y-3.0079
X2.2Y-3.8
X2.2205Y-4.7876
X2.235Y-3.875
X2.3346Y-5.3228
X2.378Y-4.0118
X2.3937Y-3.7677
X2.3976Y-3.0866
X2.4193Y-3.8681
X2.4409Y-3.3169
X2.4824Y-4.0374
X2.4902Y-3.5236
X2.5Y-4.2362
X2.5197Y-4.7441
X2.5197Y-4.8543
X2.5295Y-3.9921
X2.56Y-4.805
X2.5906Y-4.0
X2.6063Y-4.2992
X2.61Y-4.17
X2.625Y-4.805
X2.6632Y-5.1789
X2.6693Y-3.0866
X2.6929Y-3.815
X2.6978Y-3.3179
X2.7126Y-3.6417
X2.7795Y-3.0906
X2.8307Y-4.0
X2.8346Y-4.0748
X2.8386Y-4.8504
X2.8898Y-3.5
X2.9055Y-3.815
X2.9134Y-4.8425
X2.9331Y-3.8681
X2.9331Y-4.7638
X2.9409Y-3.7677
X2.9528Y-5.1791
X2.9587Y-3.3169
X2.9921Y-4.8425
X3.0709Y-4.7244
X3.1102Y-3.5551
X3.1575Y-3.3813
X3.189Y-3.9488
X3.2133Y-3.3546
X3.2283Y-3.0197
X3.2323Y-3.6535
X3.2913Y-3.3937
X3.2913Y-3.4764
X3.2953Y-3.2047
X3.3465Y-4.8346
X3.4055Y-4.3799
X3.4671Y-3.025
X3.4685Y-3.1024
X3.4685Y-3.3661
X3.5157Y-3.2756
X3.7008Y-5.2756
X3.7244Y-3.3701
X3.7677Y-5.0906
X3.8228Y-5.0315
X3.8583Y-4.7244
X3.8819Y-4.6713
X3.8937Y-4.2953
X3.8976Y-4.8031
X3.8976Y-5.0
X3.9646Y-3.7165
X3.9744Y-3.8681
X3.9961Y-5.0591
X4.0394Y-4.0394
X4.047Y-4.7683
X4.063Y-4.7323
X4.1516Y-3.7589
X4.1535Y-3.872
X4.1535Y-4.9498
X4.1535Y-5.1772
X4.1614Y-3.061
X4.1969Y-3.2874
X4.2402Y-4.2441
X4.2402Y-4.748
X4.2677Y-3.4961
X4.2892Y-4.7323
X4.2933Y-4.0138
X4.3307Y-4.7559
X4.3465Y-4.9528
X4.3504Y-5.1772
X4.3544Y-3.9921
X4.378Y-4.6732
X4.3799Y-3.8012
X4.3819Y-4.3071
X4.3898Y-4.1732
X4.4193Y-3.061
X4.4449Y-4.9528
X4.4488Y-5.1772
X4.4705Y-3.3012
X4.4764Y-3.8012
X4.5472Y-3.0512
X4.5472Y-4.9488
X4.5906Y-3.9921
X4.6063Y-4.0748
X4.6791Y-3.8012
X4.685Y-5.2756
X4.7047Y-4.9016
X4.7165Y-3.7589
X4.7165Y-3.872
X4.7244Y-3.4843
X4.7343Y-3.2697
X4.7813Y-4.7323
X4.8937Y-3.5236
X4.8976Y-3.7087
X4.8985Y-3.945
X4.9469Y-3.3602
X4.9774Y-3.3071
X4.9843Y-3.0118
X5.0295Y-3.1988
X5.0512Y-3.4016
X5.0512Y-3.4882
X5.128Y-4.3799
X5.2194Y-3.0168
X5.2205Y-3.3425
X5.2264Y-3.1043
X5.2362Y-5.2362
X5.2559Y-3.2697
X5.4685Y-3.3937
T4
X1.7913Y-3.2047
X1.9685Y-4.5276
X2.1772Y-3.6693
X2.2756Y-3.7126
X2.2913Y-4.1535
X2.32Y-4.76
X2.3957Y-2.9587
X2.4035Y-4.7736
X2.4803Y-4.7992
X2.5079Y-4.1732
X2.563Y-2.9094
X2.685Y-4.8165
X2.705Y-4.17
X2.7445Y-4.7555
X2.748Y-4.0906
X2.7959Y-4.8173
X2.8327Y-2.9094
X2.8701Y-4.7559
X2.878Y-4.1693
X3.0197Y-4.1732
X3.0571Y-3.5984
X3.1043Y-2.9724
X3.2835Y-2.9685
X3.3858Y-5.3543
X3.4134Y-5.1654
X3.4587Y-4.1634
X3.6693Y-3.4882
X3.7382Y-3.1535
X3.9252Y-3.6555
X4.0413Y-3.6909
X4.0925Y-4.185
X4.1142Y-4.7795
X4.1614Y-2.9508
X4.19Y-4.8
X4.2756Y-4.189
X4.3839Y-2.9094
X4.4783Y-4.1693
X4.4803Y-4.8346
X4.5315Y-4.7638
X4.5335Y-4.0984
X4.5807Y-4.84
X4.63Y-4.765
X4.6417Y-4.1791
X4.6496Y-2.9094
X4.8031Y-4.185
X4.8287Y-3.5669
X4.8543Y-2.9646
X5.0098Y-4.9134
X5.0413Y-2.9685
X5.1831Y-4.1969
X5.4094Y-3.5
X5.4902Y-3.1594
T6
X3.2547Y-3.7323
X3.2547Y-4.6378
X3.3547Y-3.7323
X3.5547Y-3.7323
X3.5547Y-4.6378
X3.6547Y-3.7323
X3.6547Y-4.6378
X4.9772Y-3.7598
X4.9772Y-4.6654
X5.0772Y-3.7598
X5.2772Y-3.7598
X5.2772Y-4.6654
X5.3772Y-3.7598
X5.3772Y-4.6654
T7
X0.7449Y-5.0051
X0.7449Y-5.1051
X0.7449Y-5.3051
X0.8449Y-5.0051
X0.8449Y-5.1051
X0.9449Y-5.0051
X0.9449Y-5.1051
X0.9449Y-5.3051
T8
X2.4803Y-5.2569
X2.5787Y-5.2569
X2.7756Y-5.2569
X2.874Y-5.2569
X3.0709Y-5.2569
X3.1693Y-5.2569
T9
X1.811Y-5.315
X1.9882Y-5.315
T10
X0.9882Y-2.7874
X1.0866Y-2.7874
X1.7756Y-2.7874
X1.874Y-2.7874
X3.3622Y-2.7874
X3.4606Y-2.7874
X4.9843Y-2.7953
X5.0827Y-2.7953
T11
X2.8685Y-2.4921
X2.8685Y-2.6921
X2.9685Y-2.4921
X2.9685Y-2.6921
X4.4866Y-2.5
X4.4866Y-2.7
X4.5866Y-2.5
X4.5866Y-2.7
T12
X4.0638Y-5.0118
X4.0638Y-5.1118
X4.1638Y-5.0118
X4.1638Y-5.1118
X4.2638Y-5.0118
X4.2638Y-5.1118
X4.3638Y-5.0118
X4.3638Y-5.1118
X4.4638Y-5.0118
X4.4638Y-5.1118
X4.5638Y-5.0118
X4.5638Y-5.1118
X4.6638Y-5.0118
X4.6638Y-5.1118
X4.7638Y-5.0118
X4.7638Y-5.1118
T13
X1.7614Y-5.2169
X2.0374Y-5.2169
T14
X3.1398Y-3.8307
X3.7697Y-4.5394
X4.8622Y-3.8583
X5.4921Y-4.5669
T15
X0.8858Y-2.5866
X1.2874Y-2.5866
X1.6732Y-2.5866
X2.0748Y-2.5866
X3.2598Y-2.5866
X3.6614Y-2.5866
X4.8819Y-2.5945
X5.2835Y-2.5945
T5
G00X1.2472Y-5.1445
M15
G01X1.2472Y-5.1878
M16
G05
G00X1.2472Y-5.315
M15
G01X1.2472Y-5.3465
M16
G05
G00X1.5874Y-5.1445
M15
G01X1.5874Y-5.1878
M16
G05
G00X1.5874Y-5.315
M15
G01X1.5874Y-5.3465
M16
G05
M30
