G04 #@! TF.GenerationSoftware,KiCad,Pcbnew,5.0.0-fee4fd1~66~ubuntu18.04.1*
G04 #@! TF.CreationDate,2018-10-14T12:51:31+03:00*
G04 #@! TF.ProjectId,microstim,6D6963726F7374696D2E6B696361645F,rev?*
G04 #@! TF.SameCoordinates,Original*
G04 #@! TF.FileFunction,Soldermask,Top*
G04 #@! TF.FilePolarity,Negative*
%FSLAX46Y46*%
G04 Gerber Fmt 4.6, Leading zero omitted, Abs format (unit mm)*
G04 Created by KiCad (PCBNEW 5.0.0-fee4fd1~66~ubuntu18.04.1) date Sun Oct 14 12:51:31 2018*
%MOMM*%
%LPD*%
G01*
G04 APERTURE LIST*
%ADD10R,1.850000X0.850000*%
%ADD11C,0.100000*%
%ADD12C,1.275000*%
%ADD13C,2.450000*%
%ADD14C,2.650000*%
%ADD15C,3.000000*%
%ADD16R,3.000000X3.000000*%
%ADD17C,1.840000*%
%ADD18C,2.400000*%
%ADD19C,2.000000*%
%ADD20R,2.000000X2.000000*%
%ADD21C,1.924000*%
%ADD22C,1.900000*%
%ADD23R,1.950000X1.000000*%
%ADD24R,1.900000X1.000000*%
%ADD25C,3.900000*%
%ADD26R,1.000000X1.950000*%
%ADD27R,1.300000X1.200000*%
G04 APERTURE END LIST*
D10*
G04 #@! TO.C,U10*
X166780000Y-81870000D03*
X166780000Y-82520000D03*
X166780000Y-83170000D03*
X166780000Y-83820000D03*
X166780000Y-84470000D03*
X166780000Y-85120000D03*
X166780000Y-85770000D03*
X160880000Y-85770000D03*
X160880000Y-85120000D03*
X160880000Y-84470000D03*
X160880000Y-83820000D03*
X160880000Y-83170000D03*
X160880000Y-82520000D03*
X160880000Y-81870000D03*
G04 #@! TD*
D11*
G04 #@! TO.C,C1*
G36*
X132277493Y-29425535D02*
X132308435Y-29430125D01*
X132338778Y-29437725D01*
X132368230Y-29448263D01*
X132396508Y-29461638D01*
X132423338Y-29477719D01*
X132448463Y-29496353D01*
X132471640Y-29517360D01*
X132492647Y-29540537D01*
X132511281Y-29565662D01*
X132527362Y-29592492D01*
X132540737Y-29620770D01*
X132551275Y-29650222D01*
X132558875Y-29680565D01*
X132563465Y-29711507D01*
X132565000Y-29742750D01*
X132565000Y-30455250D01*
X132563465Y-30486493D01*
X132558875Y-30517435D01*
X132551275Y-30547778D01*
X132540737Y-30577230D01*
X132527362Y-30605508D01*
X132511281Y-30632338D01*
X132492647Y-30657463D01*
X132471640Y-30680640D01*
X132448463Y-30701647D01*
X132423338Y-30720281D01*
X132396508Y-30736362D01*
X132368230Y-30749737D01*
X132338778Y-30760275D01*
X132308435Y-30767875D01*
X132277493Y-30772465D01*
X132246250Y-30774000D01*
X131608750Y-30774000D01*
X131577507Y-30772465D01*
X131546565Y-30767875D01*
X131516222Y-30760275D01*
X131486770Y-30749737D01*
X131458492Y-30736362D01*
X131431662Y-30720281D01*
X131406537Y-30701647D01*
X131383360Y-30680640D01*
X131362353Y-30657463D01*
X131343719Y-30632338D01*
X131327638Y-30605508D01*
X131314263Y-30577230D01*
X131303725Y-30547778D01*
X131296125Y-30517435D01*
X131291535Y-30486493D01*
X131290000Y-30455250D01*
X131290000Y-29742750D01*
X131291535Y-29711507D01*
X131296125Y-29680565D01*
X131303725Y-29650222D01*
X131314263Y-29620770D01*
X131327638Y-29592492D01*
X131343719Y-29565662D01*
X131362353Y-29540537D01*
X131383360Y-29517360D01*
X131406537Y-29496353D01*
X131431662Y-29477719D01*
X131458492Y-29461638D01*
X131486770Y-29448263D01*
X131516222Y-29437725D01*
X131546565Y-29430125D01*
X131577507Y-29425535D01*
X131608750Y-29424000D01*
X132246250Y-29424000D01*
X132277493Y-29425535D01*
X132277493Y-29425535D01*
G37*
D12*
X131927500Y-30099000D03*
D11*
G36*
X133852493Y-29425535D02*
X133883435Y-29430125D01*
X133913778Y-29437725D01*
X133943230Y-29448263D01*
X133971508Y-29461638D01*
X133998338Y-29477719D01*
X134023463Y-29496353D01*
X134046640Y-29517360D01*
X134067647Y-29540537D01*
X134086281Y-29565662D01*
X134102362Y-29592492D01*
X134115737Y-29620770D01*
X134126275Y-29650222D01*
X134133875Y-29680565D01*
X134138465Y-29711507D01*
X134140000Y-29742750D01*
X134140000Y-30455250D01*
X134138465Y-30486493D01*
X134133875Y-30517435D01*
X134126275Y-30547778D01*
X134115737Y-30577230D01*
X134102362Y-30605508D01*
X134086281Y-30632338D01*
X134067647Y-30657463D01*
X134046640Y-30680640D01*
X134023463Y-30701647D01*
X133998338Y-30720281D01*
X133971508Y-30736362D01*
X133943230Y-30749737D01*
X133913778Y-30760275D01*
X133883435Y-30767875D01*
X133852493Y-30772465D01*
X133821250Y-30774000D01*
X133183750Y-30774000D01*
X133152507Y-30772465D01*
X133121565Y-30767875D01*
X133091222Y-30760275D01*
X133061770Y-30749737D01*
X133033492Y-30736362D01*
X133006662Y-30720281D01*
X132981537Y-30701647D01*
X132958360Y-30680640D01*
X132937353Y-30657463D01*
X132918719Y-30632338D01*
X132902638Y-30605508D01*
X132889263Y-30577230D01*
X132878725Y-30547778D01*
X132871125Y-30517435D01*
X132866535Y-30486493D01*
X132865000Y-30455250D01*
X132865000Y-29742750D01*
X132866535Y-29711507D01*
X132871125Y-29680565D01*
X132878725Y-29650222D01*
X132889263Y-29620770D01*
X132902638Y-29592492D01*
X132918719Y-29565662D01*
X132937353Y-29540537D01*
X132958360Y-29517360D01*
X132981537Y-29496353D01*
X133006662Y-29477719D01*
X133033492Y-29461638D01*
X133061770Y-29448263D01*
X133091222Y-29437725D01*
X133121565Y-29430125D01*
X133152507Y-29425535D01*
X133183750Y-29424000D01*
X133821250Y-29424000D01*
X133852493Y-29425535D01*
X133852493Y-29425535D01*
G37*
D12*
X133502500Y-30099000D03*
G04 #@! TD*
D11*
G04 #@! TO.C,C2*
G36*
X164852224Y-28052705D02*
X164883166Y-28057295D01*
X164913509Y-28064895D01*
X164942961Y-28075433D01*
X164971239Y-28088808D01*
X164998069Y-28104889D01*
X165023194Y-28123523D01*
X165046371Y-28144530D01*
X165067378Y-28167707D01*
X165086012Y-28192832D01*
X165102093Y-28219662D01*
X165115468Y-28247940D01*
X165126006Y-28277392D01*
X165133606Y-28307735D01*
X165138196Y-28338677D01*
X165139731Y-28369920D01*
X165139731Y-29007420D01*
X165138196Y-29038663D01*
X165133606Y-29069605D01*
X165126006Y-29099948D01*
X165115468Y-29129400D01*
X165102093Y-29157678D01*
X165086012Y-29184508D01*
X165067378Y-29209633D01*
X165046371Y-29232810D01*
X165023194Y-29253817D01*
X164998069Y-29272451D01*
X164971239Y-29288532D01*
X164942961Y-29301907D01*
X164913509Y-29312445D01*
X164883166Y-29320045D01*
X164852224Y-29324635D01*
X164820981Y-29326170D01*
X164108481Y-29326170D01*
X164077238Y-29324635D01*
X164046296Y-29320045D01*
X164015953Y-29312445D01*
X163986501Y-29301907D01*
X163958223Y-29288532D01*
X163931393Y-29272451D01*
X163906268Y-29253817D01*
X163883091Y-29232810D01*
X163862084Y-29209633D01*
X163843450Y-29184508D01*
X163827369Y-29157678D01*
X163813994Y-29129400D01*
X163803456Y-29099948D01*
X163795856Y-29069605D01*
X163791266Y-29038663D01*
X163789731Y-29007420D01*
X163789731Y-28369920D01*
X163791266Y-28338677D01*
X163795856Y-28307735D01*
X163803456Y-28277392D01*
X163813994Y-28247940D01*
X163827369Y-28219662D01*
X163843450Y-28192832D01*
X163862084Y-28167707D01*
X163883091Y-28144530D01*
X163906268Y-28123523D01*
X163931393Y-28104889D01*
X163958223Y-28088808D01*
X163986501Y-28075433D01*
X164015953Y-28064895D01*
X164046296Y-28057295D01*
X164077238Y-28052705D01*
X164108481Y-28051170D01*
X164820981Y-28051170D01*
X164852224Y-28052705D01*
X164852224Y-28052705D01*
G37*
D12*
X164464731Y-28688670D03*
D11*
G36*
X164852224Y-29627705D02*
X164883166Y-29632295D01*
X164913509Y-29639895D01*
X164942961Y-29650433D01*
X164971239Y-29663808D01*
X164998069Y-29679889D01*
X165023194Y-29698523D01*
X165046371Y-29719530D01*
X165067378Y-29742707D01*
X165086012Y-29767832D01*
X165102093Y-29794662D01*
X165115468Y-29822940D01*
X165126006Y-29852392D01*
X165133606Y-29882735D01*
X165138196Y-29913677D01*
X165139731Y-29944920D01*
X165139731Y-30582420D01*
X165138196Y-30613663D01*
X165133606Y-30644605D01*
X165126006Y-30674948D01*
X165115468Y-30704400D01*
X165102093Y-30732678D01*
X165086012Y-30759508D01*
X165067378Y-30784633D01*
X165046371Y-30807810D01*
X165023194Y-30828817D01*
X164998069Y-30847451D01*
X164971239Y-30863532D01*
X164942961Y-30876907D01*
X164913509Y-30887445D01*
X164883166Y-30895045D01*
X164852224Y-30899635D01*
X164820981Y-30901170D01*
X164108481Y-30901170D01*
X164077238Y-30899635D01*
X164046296Y-30895045D01*
X164015953Y-30887445D01*
X163986501Y-30876907D01*
X163958223Y-30863532D01*
X163931393Y-30847451D01*
X163906268Y-30828817D01*
X163883091Y-30807810D01*
X163862084Y-30784633D01*
X163843450Y-30759508D01*
X163827369Y-30732678D01*
X163813994Y-30704400D01*
X163803456Y-30674948D01*
X163795856Y-30644605D01*
X163791266Y-30613663D01*
X163789731Y-30582420D01*
X163789731Y-29944920D01*
X163791266Y-29913677D01*
X163795856Y-29882735D01*
X163803456Y-29852392D01*
X163813994Y-29822940D01*
X163827369Y-29794662D01*
X163843450Y-29767832D01*
X163862084Y-29742707D01*
X163883091Y-29719530D01*
X163906268Y-29698523D01*
X163931393Y-29679889D01*
X163958223Y-29663808D01*
X163986501Y-29650433D01*
X164015953Y-29639895D01*
X164046296Y-29632295D01*
X164077238Y-29627705D01*
X164108481Y-29626170D01*
X164820981Y-29626170D01*
X164852224Y-29627705D01*
X164852224Y-29627705D01*
G37*
D12*
X164464731Y-30263670D03*
G04 #@! TD*
D11*
G04 #@! TO.C,C3*
G36*
X140595493Y-63346535D02*
X140626435Y-63351125D01*
X140656778Y-63358725D01*
X140686230Y-63369263D01*
X140714508Y-63382638D01*
X140741338Y-63398719D01*
X140766463Y-63417353D01*
X140789640Y-63438360D01*
X140810647Y-63461537D01*
X140829281Y-63486662D01*
X140845362Y-63513492D01*
X140858737Y-63541770D01*
X140869275Y-63571222D01*
X140876875Y-63601565D01*
X140881465Y-63632507D01*
X140883000Y-63663750D01*
X140883000Y-64301250D01*
X140881465Y-64332493D01*
X140876875Y-64363435D01*
X140869275Y-64393778D01*
X140858737Y-64423230D01*
X140845362Y-64451508D01*
X140829281Y-64478338D01*
X140810647Y-64503463D01*
X140789640Y-64526640D01*
X140766463Y-64547647D01*
X140741338Y-64566281D01*
X140714508Y-64582362D01*
X140686230Y-64595737D01*
X140656778Y-64606275D01*
X140626435Y-64613875D01*
X140595493Y-64618465D01*
X140564250Y-64620000D01*
X139851750Y-64620000D01*
X139820507Y-64618465D01*
X139789565Y-64613875D01*
X139759222Y-64606275D01*
X139729770Y-64595737D01*
X139701492Y-64582362D01*
X139674662Y-64566281D01*
X139649537Y-64547647D01*
X139626360Y-64526640D01*
X139605353Y-64503463D01*
X139586719Y-64478338D01*
X139570638Y-64451508D01*
X139557263Y-64423230D01*
X139546725Y-64393778D01*
X139539125Y-64363435D01*
X139534535Y-64332493D01*
X139533000Y-64301250D01*
X139533000Y-63663750D01*
X139534535Y-63632507D01*
X139539125Y-63601565D01*
X139546725Y-63571222D01*
X139557263Y-63541770D01*
X139570638Y-63513492D01*
X139586719Y-63486662D01*
X139605353Y-63461537D01*
X139626360Y-63438360D01*
X139649537Y-63417353D01*
X139674662Y-63398719D01*
X139701492Y-63382638D01*
X139729770Y-63369263D01*
X139759222Y-63358725D01*
X139789565Y-63351125D01*
X139820507Y-63346535D01*
X139851750Y-63345000D01*
X140564250Y-63345000D01*
X140595493Y-63346535D01*
X140595493Y-63346535D01*
G37*
D12*
X140208000Y-63982500D03*
D11*
G36*
X140595493Y-64921535D02*
X140626435Y-64926125D01*
X140656778Y-64933725D01*
X140686230Y-64944263D01*
X140714508Y-64957638D01*
X140741338Y-64973719D01*
X140766463Y-64992353D01*
X140789640Y-65013360D01*
X140810647Y-65036537D01*
X140829281Y-65061662D01*
X140845362Y-65088492D01*
X140858737Y-65116770D01*
X140869275Y-65146222D01*
X140876875Y-65176565D01*
X140881465Y-65207507D01*
X140883000Y-65238750D01*
X140883000Y-65876250D01*
X140881465Y-65907493D01*
X140876875Y-65938435D01*
X140869275Y-65968778D01*
X140858737Y-65998230D01*
X140845362Y-66026508D01*
X140829281Y-66053338D01*
X140810647Y-66078463D01*
X140789640Y-66101640D01*
X140766463Y-66122647D01*
X140741338Y-66141281D01*
X140714508Y-66157362D01*
X140686230Y-66170737D01*
X140656778Y-66181275D01*
X140626435Y-66188875D01*
X140595493Y-66193465D01*
X140564250Y-66195000D01*
X139851750Y-66195000D01*
X139820507Y-66193465D01*
X139789565Y-66188875D01*
X139759222Y-66181275D01*
X139729770Y-66170737D01*
X139701492Y-66157362D01*
X139674662Y-66141281D01*
X139649537Y-66122647D01*
X139626360Y-66101640D01*
X139605353Y-66078463D01*
X139586719Y-66053338D01*
X139570638Y-66026508D01*
X139557263Y-65998230D01*
X139546725Y-65968778D01*
X139539125Y-65938435D01*
X139534535Y-65907493D01*
X139533000Y-65876250D01*
X139533000Y-65238750D01*
X139534535Y-65207507D01*
X139539125Y-65176565D01*
X139546725Y-65146222D01*
X139557263Y-65116770D01*
X139570638Y-65088492D01*
X139586719Y-65061662D01*
X139605353Y-65036537D01*
X139626360Y-65013360D01*
X139649537Y-64992353D01*
X139674662Y-64973719D01*
X139701492Y-64957638D01*
X139729770Y-64944263D01*
X139759222Y-64933725D01*
X139789565Y-64926125D01*
X139820507Y-64921535D01*
X139851750Y-64920000D01*
X140564250Y-64920000D01*
X140595493Y-64921535D01*
X140595493Y-64921535D01*
G37*
D12*
X140208000Y-65557500D03*
G04 #@! TD*
D11*
G04 #@! TO.C,C5*
G36*
X140595493Y-77062535D02*
X140626435Y-77067125D01*
X140656778Y-77074725D01*
X140686230Y-77085263D01*
X140714508Y-77098638D01*
X140741338Y-77114719D01*
X140766463Y-77133353D01*
X140789640Y-77154360D01*
X140810647Y-77177537D01*
X140829281Y-77202662D01*
X140845362Y-77229492D01*
X140858737Y-77257770D01*
X140869275Y-77287222D01*
X140876875Y-77317565D01*
X140881465Y-77348507D01*
X140883000Y-77379750D01*
X140883000Y-78017250D01*
X140881465Y-78048493D01*
X140876875Y-78079435D01*
X140869275Y-78109778D01*
X140858737Y-78139230D01*
X140845362Y-78167508D01*
X140829281Y-78194338D01*
X140810647Y-78219463D01*
X140789640Y-78242640D01*
X140766463Y-78263647D01*
X140741338Y-78282281D01*
X140714508Y-78298362D01*
X140686230Y-78311737D01*
X140656778Y-78322275D01*
X140626435Y-78329875D01*
X140595493Y-78334465D01*
X140564250Y-78336000D01*
X139851750Y-78336000D01*
X139820507Y-78334465D01*
X139789565Y-78329875D01*
X139759222Y-78322275D01*
X139729770Y-78311737D01*
X139701492Y-78298362D01*
X139674662Y-78282281D01*
X139649537Y-78263647D01*
X139626360Y-78242640D01*
X139605353Y-78219463D01*
X139586719Y-78194338D01*
X139570638Y-78167508D01*
X139557263Y-78139230D01*
X139546725Y-78109778D01*
X139539125Y-78079435D01*
X139534535Y-78048493D01*
X139533000Y-78017250D01*
X139533000Y-77379750D01*
X139534535Y-77348507D01*
X139539125Y-77317565D01*
X139546725Y-77287222D01*
X139557263Y-77257770D01*
X139570638Y-77229492D01*
X139586719Y-77202662D01*
X139605353Y-77177537D01*
X139626360Y-77154360D01*
X139649537Y-77133353D01*
X139674662Y-77114719D01*
X139701492Y-77098638D01*
X139729770Y-77085263D01*
X139759222Y-77074725D01*
X139789565Y-77067125D01*
X139820507Y-77062535D01*
X139851750Y-77061000D01*
X140564250Y-77061000D01*
X140595493Y-77062535D01*
X140595493Y-77062535D01*
G37*
D12*
X140208000Y-77698500D03*
D11*
G36*
X140595493Y-78637535D02*
X140626435Y-78642125D01*
X140656778Y-78649725D01*
X140686230Y-78660263D01*
X140714508Y-78673638D01*
X140741338Y-78689719D01*
X140766463Y-78708353D01*
X140789640Y-78729360D01*
X140810647Y-78752537D01*
X140829281Y-78777662D01*
X140845362Y-78804492D01*
X140858737Y-78832770D01*
X140869275Y-78862222D01*
X140876875Y-78892565D01*
X140881465Y-78923507D01*
X140883000Y-78954750D01*
X140883000Y-79592250D01*
X140881465Y-79623493D01*
X140876875Y-79654435D01*
X140869275Y-79684778D01*
X140858737Y-79714230D01*
X140845362Y-79742508D01*
X140829281Y-79769338D01*
X140810647Y-79794463D01*
X140789640Y-79817640D01*
X140766463Y-79838647D01*
X140741338Y-79857281D01*
X140714508Y-79873362D01*
X140686230Y-79886737D01*
X140656778Y-79897275D01*
X140626435Y-79904875D01*
X140595493Y-79909465D01*
X140564250Y-79911000D01*
X139851750Y-79911000D01*
X139820507Y-79909465D01*
X139789565Y-79904875D01*
X139759222Y-79897275D01*
X139729770Y-79886737D01*
X139701492Y-79873362D01*
X139674662Y-79857281D01*
X139649537Y-79838647D01*
X139626360Y-79817640D01*
X139605353Y-79794463D01*
X139586719Y-79769338D01*
X139570638Y-79742508D01*
X139557263Y-79714230D01*
X139546725Y-79684778D01*
X139539125Y-79654435D01*
X139534535Y-79623493D01*
X139533000Y-79592250D01*
X139533000Y-78954750D01*
X139534535Y-78923507D01*
X139539125Y-78892565D01*
X139546725Y-78862222D01*
X139557263Y-78832770D01*
X139570638Y-78804492D01*
X139586719Y-78777662D01*
X139605353Y-78752537D01*
X139626360Y-78729360D01*
X139649537Y-78708353D01*
X139674662Y-78689719D01*
X139701492Y-78673638D01*
X139729770Y-78660263D01*
X139759222Y-78649725D01*
X139789565Y-78642125D01*
X139820507Y-78637535D01*
X139851750Y-78636000D01*
X140564250Y-78636000D01*
X140595493Y-78637535D01*
X140595493Y-78637535D01*
G37*
D12*
X140208000Y-79273500D03*
G04 #@! TD*
D11*
G04 #@! TO.C,C6*
G36*
X164852224Y-35672705D02*
X164883166Y-35677295D01*
X164913509Y-35684895D01*
X164942961Y-35695433D01*
X164971239Y-35708808D01*
X164998069Y-35724889D01*
X165023194Y-35743523D01*
X165046371Y-35764530D01*
X165067378Y-35787707D01*
X165086012Y-35812832D01*
X165102093Y-35839662D01*
X165115468Y-35867940D01*
X165126006Y-35897392D01*
X165133606Y-35927735D01*
X165138196Y-35958677D01*
X165139731Y-35989920D01*
X165139731Y-36627420D01*
X165138196Y-36658663D01*
X165133606Y-36689605D01*
X165126006Y-36719948D01*
X165115468Y-36749400D01*
X165102093Y-36777678D01*
X165086012Y-36804508D01*
X165067378Y-36829633D01*
X165046371Y-36852810D01*
X165023194Y-36873817D01*
X164998069Y-36892451D01*
X164971239Y-36908532D01*
X164942961Y-36921907D01*
X164913509Y-36932445D01*
X164883166Y-36940045D01*
X164852224Y-36944635D01*
X164820981Y-36946170D01*
X164108481Y-36946170D01*
X164077238Y-36944635D01*
X164046296Y-36940045D01*
X164015953Y-36932445D01*
X163986501Y-36921907D01*
X163958223Y-36908532D01*
X163931393Y-36892451D01*
X163906268Y-36873817D01*
X163883091Y-36852810D01*
X163862084Y-36829633D01*
X163843450Y-36804508D01*
X163827369Y-36777678D01*
X163813994Y-36749400D01*
X163803456Y-36719948D01*
X163795856Y-36689605D01*
X163791266Y-36658663D01*
X163789731Y-36627420D01*
X163789731Y-35989920D01*
X163791266Y-35958677D01*
X163795856Y-35927735D01*
X163803456Y-35897392D01*
X163813994Y-35867940D01*
X163827369Y-35839662D01*
X163843450Y-35812832D01*
X163862084Y-35787707D01*
X163883091Y-35764530D01*
X163906268Y-35743523D01*
X163931393Y-35724889D01*
X163958223Y-35708808D01*
X163986501Y-35695433D01*
X164015953Y-35684895D01*
X164046296Y-35677295D01*
X164077238Y-35672705D01*
X164108481Y-35671170D01*
X164820981Y-35671170D01*
X164852224Y-35672705D01*
X164852224Y-35672705D01*
G37*
D12*
X164464731Y-36308670D03*
D11*
G36*
X164852224Y-37247705D02*
X164883166Y-37252295D01*
X164913509Y-37259895D01*
X164942961Y-37270433D01*
X164971239Y-37283808D01*
X164998069Y-37299889D01*
X165023194Y-37318523D01*
X165046371Y-37339530D01*
X165067378Y-37362707D01*
X165086012Y-37387832D01*
X165102093Y-37414662D01*
X165115468Y-37442940D01*
X165126006Y-37472392D01*
X165133606Y-37502735D01*
X165138196Y-37533677D01*
X165139731Y-37564920D01*
X165139731Y-38202420D01*
X165138196Y-38233663D01*
X165133606Y-38264605D01*
X165126006Y-38294948D01*
X165115468Y-38324400D01*
X165102093Y-38352678D01*
X165086012Y-38379508D01*
X165067378Y-38404633D01*
X165046371Y-38427810D01*
X165023194Y-38448817D01*
X164998069Y-38467451D01*
X164971239Y-38483532D01*
X164942961Y-38496907D01*
X164913509Y-38507445D01*
X164883166Y-38515045D01*
X164852224Y-38519635D01*
X164820981Y-38521170D01*
X164108481Y-38521170D01*
X164077238Y-38519635D01*
X164046296Y-38515045D01*
X164015953Y-38507445D01*
X163986501Y-38496907D01*
X163958223Y-38483532D01*
X163931393Y-38467451D01*
X163906268Y-38448817D01*
X163883091Y-38427810D01*
X163862084Y-38404633D01*
X163843450Y-38379508D01*
X163827369Y-38352678D01*
X163813994Y-38324400D01*
X163803456Y-38294948D01*
X163795856Y-38264605D01*
X163791266Y-38233663D01*
X163789731Y-38202420D01*
X163789731Y-37564920D01*
X163791266Y-37533677D01*
X163795856Y-37502735D01*
X163803456Y-37472392D01*
X163813994Y-37442940D01*
X163827369Y-37414662D01*
X163843450Y-37387832D01*
X163862084Y-37362707D01*
X163883091Y-37339530D01*
X163906268Y-37318523D01*
X163931393Y-37299889D01*
X163958223Y-37283808D01*
X163986501Y-37270433D01*
X164015953Y-37259895D01*
X164046296Y-37252295D01*
X164077238Y-37247705D01*
X164108481Y-37246170D01*
X164820981Y-37246170D01*
X164852224Y-37247705D01*
X164852224Y-37247705D01*
G37*
D12*
X164464731Y-37883670D03*
G04 #@! TD*
D11*
G04 #@! TO.C,C7*
G36*
X175012224Y-29627705D02*
X175043166Y-29632295D01*
X175073509Y-29639895D01*
X175102961Y-29650433D01*
X175131239Y-29663808D01*
X175158069Y-29679889D01*
X175183194Y-29698523D01*
X175206371Y-29719530D01*
X175227378Y-29742707D01*
X175246012Y-29767832D01*
X175262093Y-29794662D01*
X175275468Y-29822940D01*
X175286006Y-29852392D01*
X175293606Y-29882735D01*
X175298196Y-29913677D01*
X175299731Y-29944920D01*
X175299731Y-30582420D01*
X175298196Y-30613663D01*
X175293606Y-30644605D01*
X175286006Y-30674948D01*
X175275468Y-30704400D01*
X175262093Y-30732678D01*
X175246012Y-30759508D01*
X175227378Y-30784633D01*
X175206371Y-30807810D01*
X175183194Y-30828817D01*
X175158069Y-30847451D01*
X175131239Y-30863532D01*
X175102961Y-30876907D01*
X175073509Y-30887445D01*
X175043166Y-30895045D01*
X175012224Y-30899635D01*
X174980981Y-30901170D01*
X174268481Y-30901170D01*
X174237238Y-30899635D01*
X174206296Y-30895045D01*
X174175953Y-30887445D01*
X174146501Y-30876907D01*
X174118223Y-30863532D01*
X174091393Y-30847451D01*
X174066268Y-30828817D01*
X174043091Y-30807810D01*
X174022084Y-30784633D01*
X174003450Y-30759508D01*
X173987369Y-30732678D01*
X173973994Y-30704400D01*
X173963456Y-30674948D01*
X173955856Y-30644605D01*
X173951266Y-30613663D01*
X173949731Y-30582420D01*
X173949731Y-29944920D01*
X173951266Y-29913677D01*
X173955856Y-29882735D01*
X173963456Y-29852392D01*
X173973994Y-29822940D01*
X173987369Y-29794662D01*
X174003450Y-29767832D01*
X174022084Y-29742707D01*
X174043091Y-29719530D01*
X174066268Y-29698523D01*
X174091393Y-29679889D01*
X174118223Y-29663808D01*
X174146501Y-29650433D01*
X174175953Y-29639895D01*
X174206296Y-29632295D01*
X174237238Y-29627705D01*
X174268481Y-29626170D01*
X174980981Y-29626170D01*
X175012224Y-29627705D01*
X175012224Y-29627705D01*
G37*
D12*
X174624731Y-30263670D03*
D11*
G36*
X175012224Y-28052705D02*
X175043166Y-28057295D01*
X175073509Y-28064895D01*
X175102961Y-28075433D01*
X175131239Y-28088808D01*
X175158069Y-28104889D01*
X175183194Y-28123523D01*
X175206371Y-28144530D01*
X175227378Y-28167707D01*
X175246012Y-28192832D01*
X175262093Y-28219662D01*
X175275468Y-28247940D01*
X175286006Y-28277392D01*
X175293606Y-28307735D01*
X175298196Y-28338677D01*
X175299731Y-28369920D01*
X175299731Y-29007420D01*
X175298196Y-29038663D01*
X175293606Y-29069605D01*
X175286006Y-29099948D01*
X175275468Y-29129400D01*
X175262093Y-29157678D01*
X175246012Y-29184508D01*
X175227378Y-29209633D01*
X175206371Y-29232810D01*
X175183194Y-29253817D01*
X175158069Y-29272451D01*
X175131239Y-29288532D01*
X175102961Y-29301907D01*
X175073509Y-29312445D01*
X175043166Y-29320045D01*
X175012224Y-29324635D01*
X174980981Y-29326170D01*
X174268481Y-29326170D01*
X174237238Y-29324635D01*
X174206296Y-29320045D01*
X174175953Y-29312445D01*
X174146501Y-29301907D01*
X174118223Y-29288532D01*
X174091393Y-29272451D01*
X174066268Y-29253817D01*
X174043091Y-29232810D01*
X174022084Y-29209633D01*
X174003450Y-29184508D01*
X173987369Y-29157678D01*
X173973994Y-29129400D01*
X173963456Y-29099948D01*
X173955856Y-29069605D01*
X173951266Y-29038663D01*
X173949731Y-29007420D01*
X173949731Y-28369920D01*
X173951266Y-28338677D01*
X173955856Y-28307735D01*
X173963456Y-28277392D01*
X173973994Y-28247940D01*
X173987369Y-28219662D01*
X174003450Y-28192832D01*
X174022084Y-28167707D01*
X174043091Y-28144530D01*
X174066268Y-28123523D01*
X174091393Y-28104889D01*
X174118223Y-28088808D01*
X174146501Y-28075433D01*
X174175953Y-28064895D01*
X174206296Y-28057295D01*
X174237238Y-28052705D01*
X174268481Y-28051170D01*
X174980981Y-28051170D01*
X175012224Y-28052705D01*
X175012224Y-28052705D01*
G37*
D12*
X174624731Y-28688670D03*
G04 #@! TD*
D11*
G04 #@! TO.C,C8*
G36*
X175012224Y-37247705D02*
X175043166Y-37252295D01*
X175073509Y-37259895D01*
X175102961Y-37270433D01*
X175131239Y-37283808D01*
X175158069Y-37299889D01*
X175183194Y-37318523D01*
X175206371Y-37339530D01*
X175227378Y-37362707D01*
X175246012Y-37387832D01*
X175262093Y-37414662D01*
X175275468Y-37442940D01*
X175286006Y-37472392D01*
X175293606Y-37502735D01*
X175298196Y-37533677D01*
X175299731Y-37564920D01*
X175299731Y-38202420D01*
X175298196Y-38233663D01*
X175293606Y-38264605D01*
X175286006Y-38294948D01*
X175275468Y-38324400D01*
X175262093Y-38352678D01*
X175246012Y-38379508D01*
X175227378Y-38404633D01*
X175206371Y-38427810D01*
X175183194Y-38448817D01*
X175158069Y-38467451D01*
X175131239Y-38483532D01*
X175102961Y-38496907D01*
X175073509Y-38507445D01*
X175043166Y-38515045D01*
X175012224Y-38519635D01*
X174980981Y-38521170D01*
X174268481Y-38521170D01*
X174237238Y-38519635D01*
X174206296Y-38515045D01*
X174175953Y-38507445D01*
X174146501Y-38496907D01*
X174118223Y-38483532D01*
X174091393Y-38467451D01*
X174066268Y-38448817D01*
X174043091Y-38427810D01*
X174022084Y-38404633D01*
X174003450Y-38379508D01*
X173987369Y-38352678D01*
X173973994Y-38324400D01*
X173963456Y-38294948D01*
X173955856Y-38264605D01*
X173951266Y-38233663D01*
X173949731Y-38202420D01*
X173949731Y-37564920D01*
X173951266Y-37533677D01*
X173955856Y-37502735D01*
X173963456Y-37472392D01*
X173973994Y-37442940D01*
X173987369Y-37414662D01*
X174003450Y-37387832D01*
X174022084Y-37362707D01*
X174043091Y-37339530D01*
X174066268Y-37318523D01*
X174091393Y-37299889D01*
X174118223Y-37283808D01*
X174146501Y-37270433D01*
X174175953Y-37259895D01*
X174206296Y-37252295D01*
X174237238Y-37247705D01*
X174268481Y-37246170D01*
X174980981Y-37246170D01*
X175012224Y-37247705D01*
X175012224Y-37247705D01*
G37*
D12*
X174624731Y-37883670D03*
D11*
G36*
X175012224Y-35672705D02*
X175043166Y-35677295D01*
X175073509Y-35684895D01*
X175102961Y-35695433D01*
X175131239Y-35708808D01*
X175158069Y-35724889D01*
X175183194Y-35743523D01*
X175206371Y-35764530D01*
X175227378Y-35787707D01*
X175246012Y-35812832D01*
X175262093Y-35839662D01*
X175275468Y-35867940D01*
X175286006Y-35897392D01*
X175293606Y-35927735D01*
X175298196Y-35958677D01*
X175299731Y-35989920D01*
X175299731Y-36627420D01*
X175298196Y-36658663D01*
X175293606Y-36689605D01*
X175286006Y-36719948D01*
X175275468Y-36749400D01*
X175262093Y-36777678D01*
X175246012Y-36804508D01*
X175227378Y-36829633D01*
X175206371Y-36852810D01*
X175183194Y-36873817D01*
X175158069Y-36892451D01*
X175131239Y-36908532D01*
X175102961Y-36921907D01*
X175073509Y-36932445D01*
X175043166Y-36940045D01*
X175012224Y-36944635D01*
X174980981Y-36946170D01*
X174268481Y-36946170D01*
X174237238Y-36944635D01*
X174206296Y-36940045D01*
X174175953Y-36932445D01*
X174146501Y-36921907D01*
X174118223Y-36908532D01*
X174091393Y-36892451D01*
X174066268Y-36873817D01*
X174043091Y-36852810D01*
X174022084Y-36829633D01*
X174003450Y-36804508D01*
X173987369Y-36777678D01*
X173973994Y-36749400D01*
X173963456Y-36719948D01*
X173955856Y-36689605D01*
X173951266Y-36658663D01*
X173949731Y-36627420D01*
X173949731Y-35989920D01*
X173951266Y-35958677D01*
X173955856Y-35927735D01*
X173963456Y-35897392D01*
X173973994Y-35867940D01*
X173987369Y-35839662D01*
X174003450Y-35812832D01*
X174022084Y-35787707D01*
X174043091Y-35764530D01*
X174066268Y-35743523D01*
X174091393Y-35724889D01*
X174118223Y-35708808D01*
X174146501Y-35695433D01*
X174175953Y-35684895D01*
X174206296Y-35677295D01*
X174237238Y-35672705D01*
X174268481Y-35671170D01*
X174980981Y-35671170D01*
X175012224Y-35672705D01*
X175012224Y-35672705D01*
G37*
D12*
X174624731Y-36308670D03*
G04 #@! TD*
D11*
G04 #@! TO.C,C9*
G36*
X155073493Y-63092535D02*
X155104435Y-63097125D01*
X155134778Y-63104725D01*
X155164230Y-63115263D01*
X155192508Y-63128638D01*
X155219338Y-63144719D01*
X155244463Y-63163353D01*
X155267640Y-63184360D01*
X155288647Y-63207537D01*
X155307281Y-63232662D01*
X155323362Y-63259492D01*
X155336737Y-63287770D01*
X155347275Y-63317222D01*
X155354875Y-63347565D01*
X155359465Y-63378507D01*
X155361000Y-63409750D01*
X155361000Y-64047250D01*
X155359465Y-64078493D01*
X155354875Y-64109435D01*
X155347275Y-64139778D01*
X155336737Y-64169230D01*
X155323362Y-64197508D01*
X155307281Y-64224338D01*
X155288647Y-64249463D01*
X155267640Y-64272640D01*
X155244463Y-64293647D01*
X155219338Y-64312281D01*
X155192508Y-64328362D01*
X155164230Y-64341737D01*
X155134778Y-64352275D01*
X155104435Y-64359875D01*
X155073493Y-64364465D01*
X155042250Y-64366000D01*
X154329750Y-64366000D01*
X154298507Y-64364465D01*
X154267565Y-64359875D01*
X154237222Y-64352275D01*
X154207770Y-64341737D01*
X154179492Y-64328362D01*
X154152662Y-64312281D01*
X154127537Y-64293647D01*
X154104360Y-64272640D01*
X154083353Y-64249463D01*
X154064719Y-64224338D01*
X154048638Y-64197508D01*
X154035263Y-64169230D01*
X154024725Y-64139778D01*
X154017125Y-64109435D01*
X154012535Y-64078493D01*
X154011000Y-64047250D01*
X154011000Y-63409750D01*
X154012535Y-63378507D01*
X154017125Y-63347565D01*
X154024725Y-63317222D01*
X154035263Y-63287770D01*
X154048638Y-63259492D01*
X154064719Y-63232662D01*
X154083353Y-63207537D01*
X154104360Y-63184360D01*
X154127537Y-63163353D01*
X154152662Y-63144719D01*
X154179492Y-63128638D01*
X154207770Y-63115263D01*
X154237222Y-63104725D01*
X154267565Y-63097125D01*
X154298507Y-63092535D01*
X154329750Y-63091000D01*
X155042250Y-63091000D01*
X155073493Y-63092535D01*
X155073493Y-63092535D01*
G37*
D12*
X154686000Y-63728500D03*
D11*
G36*
X155073493Y-64667535D02*
X155104435Y-64672125D01*
X155134778Y-64679725D01*
X155164230Y-64690263D01*
X155192508Y-64703638D01*
X155219338Y-64719719D01*
X155244463Y-64738353D01*
X155267640Y-64759360D01*
X155288647Y-64782537D01*
X155307281Y-64807662D01*
X155323362Y-64834492D01*
X155336737Y-64862770D01*
X155347275Y-64892222D01*
X155354875Y-64922565D01*
X155359465Y-64953507D01*
X155361000Y-64984750D01*
X155361000Y-65622250D01*
X155359465Y-65653493D01*
X155354875Y-65684435D01*
X155347275Y-65714778D01*
X155336737Y-65744230D01*
X155323362Y-65772508D01*
X155307281Y-65799338D01*
X155288647Y-65824463D01*
X155267640Y-65847640D01*
X155244463Y-65868647D01*
X155219338Y-65887281D01*
X155192508Y-65903362D01*
X155164230Y-65916737D01*
X155134778Y-65927275D01*
X155104435Y-65934875D01*
X155073493Y-65939465D01*
X155042250Y-65941000D01*
X154329750Y-65941000D01*
X154298507Y-65939465D01*
X154267565Y-65934875D01*
X154237222Y-65927275D01*
X154207770Y-65916737D01*
X154179492Y-65903362D01*
X154152662Y-65887281D01*
X154127537Y-65868647D01*
X154104360Y-65847640D01*
X154083353Y-65824463D01*
X154064719Y-65799338D01*
X154048638Y-65772508D01*
X154035263Y-65744230D01*
X154024725Y-65714778D01*
X154017125Y-65684435D01*
X154012535Y-65653493D01*
X154011000Y-65622250D01*
X154011000Y-64984750D01*
X154012535Y-64953507D01*
X154017125Y-64922565D01*
X154024725Y-64892222D01*
X154035263Y-64862770D01*
X154048638Y-64834492D01*
X154064719Y-64807662D01*
X154083353Y-64782537D01*
X154104360Y-64759360D01*
X154127537Y-64738353D01*
X154152662Y-64719719D01*
X154179492Y-64703638D01*
X154207770Y-64690263D01*
X154237222Y-64679725D01*
X154267565Y-64672125D01*
X154298507Y-64667535D01*
X154329750Y-64666000D01*
X155042250Y-64666000D01*
X155073493Y-64667535D01*
X155073493Y-64667535D01*
G37*
D12*
X154686000Y-65303500D03*
G04 #@! TD*
D11*
G04 #@! TO.C,C11*
G36*
X154611497Y-76897721D02*
X154642439Y-76902311D01*
X154672782Y-76909911D01*
X154702234Y-76920449D01*
X154730512Y-76933824D01*
X154757342Y-76949905D01*
X154782467Y-76968539D01*
X154805644Y-76989546D01*
X154826651Y-77012723D01*
X154845285Y-77037848D01*
X154861366Y-77064678D01*
X154874741Y-77092956D01*
X154885279Y-77122408D01*
X154892879Y-77152751D01*
X154897469Y-77183693D01*
X154899004Y-77214936D01*
X154899004Y-77852436D01*
X154897469Y-77883679D01*
X154892879Y-77914621D01*
X154885279Y-77944964D01*
X154874741Y-77974416D01*
X154861366Y-78002694D01*
X154845285Y-78029524D01*
X154826651Y-78054649D01*
X154805644Y-78077826D01*
X154782467Y-78098833D01*
X154757342Y-78117467D01*
X154730512Y-78133548D01*
X154702234Y-78146923D01*
X154672782Y-78157461D01*
X154642439Y-78165061D01*
X154611497Y-78169651D01*
X154580254Y-78171186D01*
X153867754Y-78171186D01*
X153836511Y-78169651D01*
X153805569Y-78165061D01*
X153775226Y-78157461D01*
X153745774Y-78146923D01*
X153717496Y-78133548D01*
X153690666Y-78117467D01*
X153665541Y-78098833D01*
X153642364Y-78077826D01*
X153621357Y-78054649D01*
X153602723Y-78029524D01*
X153586642Y-78002694D01*
X153573267Y-77974416D01*
X153562729Y-77944964D01*
X153555129Y-77914621D01*
X153550539Y-77883679D01*
X153549004Y-77852436D01*
X153549004Y-77214936D01*
X153550539Y-77183693D01*
X153555129Y-77152751D01*
X153562729Y-77122408D01*
X153573267Y-77092956D01*
X153586642Y-77064678D01*
X153602723Y-77037848D01*
X153621357Y-77012723D01*
X153642364Y-76989546D01*
X153665541Y-76968539D01*
X153690666Y-76949905D01*
X153717496Y-76933824D01*
X153745774Y-76920449D01*
X153775226Y-76909911D01*
X153805569Y-76902311D01*
X153836511Y-76897721D01*
X153867754Y-76896186D01*
X154580254Y-76896186D01*
X154611497Y-76897721D01*
X154611497Y-76897721D01*
G37*
D12*
X154224004Y-77533686D03*
D11*
G36*
X154611497Y-78472721D02*
X154642439Y-78477311D01*
X154672782Y-78484911D01*
X154702234Y-78495449D01*
X154730512Y-78508824D01*
X154757342Y-78524905D01*
X154782467Y-78543539D01*
X154805644Y-78564546D01*
X154826651Y-78587723D01*
X154845285Y-78612848D01*
X154861366Y-78639678D01*
X154874741Y-78667956D01*
X154885279Y-78697408D01*
X154892879Y-78727751D01*
X154897469Y-78758693D01*
X154899004Y-78789936D01*
X154899004Y-79427436D01*
X154897469Y-79458679D01*
X154892879Y-79489621D01*
X154885279Y-79519964D01*
X154874741Y-79549416D01*
X154861366Y-79577694D01*
X154845285Y-79604524D01*
X154826651Y-79629649D01*
X154805644Y-79652826D01*
X154782467Y-79673833D01*
X154757342Y-79692467D01*
X154730512Y-79708548D01*
X154702234Y-79721923D01*
X154672782Y-79732461D01*
X154642439Y-79740061D01*
X154611497Y-79744651D01*
X154580254Y-79746186D01*
X153867754Y-79746186D01*
X153836511Y-79744651D01*
X153805569Y-79740061D01*
X153775226Y-79732461D01*
X153745774Y-79721923D01*
X153717496Y-79708548D01*
X153690666Y-79692467D01*
X153665541Y-79673833D01*
X153642364Y-79652826D01*
X153621357Y-79629649D01*
X153602723Y-79604524D01*
X153586642Y-79577694D01*
X153573267Y-79549416D01*
X153562729Y-79519964D01*
X153555129Y-79489621D01*
X153550539Y-79458679D01*
X153549004Y-79427436D01*
X153549004Y-78789936D01*
X153550539Y-78758693D01*
X153555129Y-78727751D01*
X153562729Y-78697408D01*
X153573267Y-78667956D01*
X153586642Y-78639678D01*
X153602723Y-78612848D01*
X153621357Y-78587723D01*
X153642364Y-78564546D01*
X153665541Y-78543539D01*
X153690666Y-78524905D01*
X153717496Y-78508824D01*
X153745774Y-78495449D01*
X153775226Y-78484911D01*
X153805569Y-78477311D01*
X153836511Y-78472721D01*
X153867754Y-78471186D01*
X154580254Y-78471186D01*
X154611497Y-78472721D01*
X154611497Y-78472721D01*
G37*
D12*
X154224004Y-79108686D03*
G04 #@! TD*
D11*
G04 #@! TO.C,C12*
G36*
X175012224Y-43597705D02*
X175043166Y-43602295D01*
X175073509Y-43609895D01*
X175102961Y-43620433D01*
X175131239Y-43633808D01*
X175158069Y-43649889D01*
X175183194Y-43668523D01*
X175206371Y-43689530D01*
X175227378Y-43712707D01*
X175246012Y-43737832D01*
X175262093Y-43764662D01*
X175275468Y-43792940D01*
X175286006Y-43822392D01*
X175293606Y-43852735D01*
X175298196Y-43883677D01*
X175299731Y-43914920D01*
X175299731Y-44552420D01*
X175298196Y-44583663D01*
X175293606Y-44614605D01*
X175286006Y-44644948D01*
X175275468Y-44674400D01*
X175262093Y-44702678D01*
X175246012Y-44729508D01*
X175227378Y-44754633D01*
X175206371Y-44777810D01*
X175183194Y-44798817D01*
X175158069Y-44817451D01*
X175131239Y-44833532D01*
X175102961Y-44846907D01*
X175073509Y-44857445D01*
X175043166Y-44865045D01*
X175012224Y-44869635D01*
X174980981Y-44871170D01*
X174268481Y-44871170D01*
X174237238Y-44869635D01*
X174206296Y-44865045D01*
X174175953Y-44857445D01*
X174146501Y-44846907D01*
X174118223Y-44833532D01*
X174091393Y-44817451D01*
X174066268Y-44798817D01*
X174043091Y-44777810D01*
X174022084Y-44754633D01*
X174003450Y-44729508D01*
X173987369Y-44702678D01*
X173973994Y-44674400D01*
X173963456Y-44644948D01*
X173955856Y-44614605D01*
X173951266Y-44583663D01*
X173949731Y-44552420D01*
X173949731Y-43914920D01*
X173951266Y-43883677D01*
X173955856Y-43852735D01*
X173963456Y-43822392D01*
X173973994Y-43792940D01*
X173987369Y-43764662D01*
X174003450Y-43737832D01*
X174022084Y-43712707D01*
X174043091Y-43689530D01*
X174066268Y-43668523D01*
X174091393Y-43649889D01*
X174118223Y-43633808D01*
X174146501Y-43620433D01*
X174175953Y-43609895D01*
X174206296Y-43602295D01*
X174237238Y-43597705D01*
X174268481Y-43596170D01*
X174980981Y-43596170D01*
X175012224Y-43597705D01*
X175012224Y-43597705D01*
G37*
D12*
X174624731Y-44233670D03*
D11*
G36*
X175012224Y-42022705D02*
X175043166Y-42027295D01*
X175073509Y-42034895D01*
X175102961Y-42045433D01*
X175131239Y-42058808D01*
X175158069Y-42074889D01*
X175183194Y-42093523D01*
X175206371Y-42114530D01*
X175227378Y-42137707D01*
X175246012Y-42162832D01*
X175262093Y-42189662D01*
X175275468Y-42217940D01*
X175286006Y-42247392D01*
X175293606Y-42277735D01*
X175298196Y-42308677D01*
X175299731Y-42339920D01*
X175299731Y-42977420D01*
X175298196Y-43008663D01*
X175293606Y-43039605D01*
X175286006Y-43069948D01*
X175275468Y-43099400D01*
X175262093Y-43127678D01*
X175246012Y-43154508D01*
X175227378Y-43179633D01*
X175206371Y-43202810D01*
X175183194Y-43223817D01*
X175158069Y-43242451D01*
X175131239Y-43258532D01*
X175102961Y-43271907D01*
X175073509Y-43282445D01*
X175043166Y-43290045D01*
X175012224Y-43294635D01*
X174980981Y-43296170D01*
X174268481Y-43296170D01*
X174237238Y-43294635D01*
X174206296Y-43290045D01*
X174175953Y-43282445D01*
X174146501Y-43271907D01*
X174118223Y-43258532D01*
X174091393Y-43242451D01*
X174066268Y-43223817D01*
X174043091Y-43202810D01*
X174022084Y-43179633D01*
X174003450Y-43154508D01*
X173987369Y-43127678D01*
X173973994Y-43099400D01*
X173963456Y-43069948D01*
X173955856Y-43039605D01*
X173951266Y-43008663D01*
X173949731Y-42977420D01*
X173949731Y-42339920D01*
X173951266Y-42308677D01*
X173955856Y-42277735D01*
X173963456Y-42247392D01*
X173973994Y-42217940D01*
X173987369Y-42189662D01*
X174003450Y-42162832D01*
X174022084Y-42137707D01*
X174043091Y-42114530D01*
X174066268Y-42093523D01*
X174091393Y-42074889D01*
X174118223Y-42058808D01*
X174146501Y-42045433D01*
X174175953Y-42034895D01*
X174206296Y-42027295D01*
X174237238Y-42022705D01*
X174268481Y-42021170D01*
X174980981Y-42021170D01*
X175012224Y-42022705D01*
X175012224Y-42022705D01*
G37*
D12*
X174624731Y-42658670D03*
G04 #@! TD*
D11*
G04 #@! TO.C,C13*
G36*
X159137493Y-85216035D02*
X159168435Y-85220625D01*
X159198778Y-85228225D01*
X159228230Y-85238763D01*
X159256508Y-85252138D01*
X159283338Y-85268219D01*
X159308463Y-85286853D01*
X159331640Y-85307860D01*
X159352647Y-85331037D01*
X159371281Y-85356162D01*
X159387362Y-85382992D01*
X159400737Y-85411270D01*
X159411275Y-85440722D01*
X159418875Y-85471065D01*
X159423465Y-85502007D01*
X159425000Y-85533250D01*
X159425000Y-86170750D01*
X159423465Y-86201993D01*
X159418875Y-86232935D01*
X159411275Y-86263278D01*
X159400737Y-86292730D01*
X159387362Y-86321008D01*
X159371281Y-86347838D01*
X159352647Y-86372963D01*
X159331640Y-86396140D01*
X159308463Y-86417147D01*
X159283338Y-86435781D01*
X159256508Y-86451862D01*
X159228230Y-86465237D01*
X159198778Y-86475775D01*
X159168435Y-86483375D01*
X159137493Y-86487965D01*
X159106250Y-86489500D01*
X158393750Y-86489500D01*
X158362507Y-86487965D01*
X158331565Y-86483375D01*
X158301222Y-86475775D01*
X158271770Y-86465237D01*
X158243492Y-86451862D01*
X158216662Y-86435781D01*
X158191537Y-86417147D01*
X158168360Y-86396140D01*
X158147353Y-86372963D01*
X158128719Y-86347838D01*
X158112638Y-86321008D01*
X158099263Y-86292730D01*
X158088725Y-86263278D01*
X158081125Y-86232935D01*
X158076535Y-86201993D01*
X158075000Y-86170750D01*
X158075000Y-85533250D01*
X158076535Y-85502007D01*
X158081125Y-85471065D01*
X158088725Y-85440722D01*
X158099263Y-85411270D01*
X158112638Y-85382992D01*
X158128719Y-85356162D01*
X158147353Y-85331037D01*
X158168360Y-85307860D01*
X158191537Y-85286853D01*
X158216662Y-85268219D01*
X158243492Y-85252138D01*
X158271770Y-85238763D01*
X158301222Y-85228225D01*
X158331565Y-85220625D01*
X158362507Y-85216035D01*
X158393750Y-85214500D01*
X159106250Y-85214500D01*
X159137493Y-85216035D01*
X159137493Y-85216035D01*
G37*
D12*
X158750000Y-85852000D03*
D11*
G36*
X159137493Y-86791035D02*
X159168435Y-86795625D01*
X159198778Y-86803225D01*
X159228230Y-86813763D01*
X159256508Y-86827138D01*
X159283338Y-86843219D01*
X159308463Y-86861853D01*
X159331640Y-86882860D01*
X159352647Y-86906037D01*
X159371281Y-86931162D01*
X159387362Y-86957992D01*
X159400737Y-86986270D01*
X159411275Y-87015722D01*
X159418875Y-87046065D01*
X159423465Y-87077007D01*
X159425000Y-87108250D01*
X159425000Y-87745750D01*
X159423465Y-87776993D01*
X159418875Y-87807935D01*
X159411275Y-87838278D01*
X159400737Y-87867730D01*
X159387362Y-87896008D01*
X159371281Y-87922838D01*
X159352647Y-87947963D01*
X159331640Y-87971140D01*
X159308463Y-87992147D01*
X159283338Y-88010781D01*
X159256508Y-88026862D01*
X159228230Y-88040237D01*
X159198778Y-88050775D01*
X159168435Y-88058375D01*
X159137493Y-88062965D01*
X159106250Y-88064500D01*
X158393750Y-88064500D01*
X158362507Y-88062965D01*
X158331565Y-88058375D01*
X158301222Y-88050775D01*
X158271770Y-88040237D01*
X158243492Y-88026862D01*
X158216662Y-88010781D01*
X158191537Y-87992147D01*
X158168360Y-87971140D01*
X158147353Y-87947963D01*
X158128719Y-87922838D01*
X158112638Y-87896008D01*
X158099263Y-87867730D01*
X158088725Y-87838278D01*
X158081125Y-87807935D01*
X158076535Y-87776993D01*
X158075000Y-87745750D01*
X158075000Y-87108250D01*
X158076535Y-87077007D01*
X158081125Y-87046065D01*
X158088725Y-87015722D01*
X158099263Y-86986270D01*
X158112638Y-86957992D01*
X158128719Y-86931162D01*
X158147353Y-86906037D01*
X158168360Y-86882860D01*
X158191537Y-86861853D01*
X158216662Y-86843219D01*
X158243492Y-86827138D01*
X158271770Y-86813763D01*
X158301222Y-86803225D01*
X158331565Y-86795625D01*
X158362507Y-86791035D01*
X158393750Y-86789500D01*
X159106250Y-86789500D01*
X159137493Y-86791035D01*
X159137493Y-86791035D01*
G37*
D12*
X158750000Y-87427000D03*
G04 #@! TD*
D11*
G04 #@! TO.C,C14*
G36*
X174885493Y-47141535D02*
X174916435Y-47146125D01*
X174946778Y-47153725D01*
X174976230Y-47164263D01*
X175004508Y-47177638D01*
X175031338Y-47193719D01*
X175056463Y-47212353D01*
X175079640Y-47233360D01*
X175100647Y-47256537D01*
X175119281Y-47281662D01*
X175135362Y-47308492D01*
X175148737Y-47336770D01*
X175159275Y-47366222D01*
X175166875Y-47396565D01*
X175171465Y-47427507D01*
X175173000Y-47458750D01*
X175173000Y-48096250D01*
X175171465Y-48127493D01*
X175166875Y-48158435D01*
X175159275Y-48188778D01*
X175148737Y-48218230D01*
X175135362Y-48246508D01*
X175119281Y-48273338D01*
X175100647Y-48298463D01*
X175079640Y-48321640D01*
X175056463Y-48342647D01*
X175031338Y-48361281D01*
X175004508Y-48377362D01*
X174976230Y-48390737D01*
X174946778Y-48401275D01*
X174916435Y-48408875D01*
X174885493Y-48413465D01*
X174854250Y-48415000D01*
X174141750Y-48415000D01*
X174110507Y-48413465D01*
X174079565Y-48408875D01*
X174049222Y-48401275D01*
X174019770Y-48390737D01*
X173991492Y-48377362D01*
X173964662Y-48361281D01*
X173939537Y-48342647D01*
X173916360Y-48321640D01*
X173895353Y-48298463D01*
X173876719Y-48273338D01*
X173860638Y-48246508D01*
X173847263Y-48218230D01*
X173836725Y-48188778D01*
X173829125Y-48158435D01*
X173824535Y-48127493D01*
X173823000Y-48096250D01*
X173823000Y-47458750D01*
X173824535Y-47427507D01*
X173829125Y-47396565D01*
X173836725Y-47366222D01*
X173847263Y-47336770D01*
X173860638Y-47308492D01*
X173876719Y-47281662D01*
X173895353Y-47256537D01*
X173916360Y-47233360D01*
X173939537Y-47212353D01*
X173964662Y-47193719D01*
X173991492Y-47177638D01*
X174019770Y-47164263D01*
X174049222Y-47153725D01*
X174079565Y-47146125D01*
X174110507Y-47141535D01*
X174141750Y-47140000D01*
X174854250Y-47140000D01*
X174885493Y-47141535D01*
X174885493Y-47141535D01*
G37*
D12*
X174498000Y-47777500D03*
D11*
G36*
X174885493Y-45566535D02*
X174916435Y-45571125D01*
X174946778Y-45578725D01*
X174976230Y-45589263D01*
X175004508Y-45602638D01*
X175031338Y-45618719D01*
X175056463Y-45637353D01*
X175079640Y-45658360D01*
X175100647Y-45681537D01*
X175119281Y-45706662D01*
X175135362Y-45733492D01*
X175148737Y-45761770D01*
X175159275Y-45791222D01*
X175166875Y-45821565D01*
X175171465Y-45852507D01*
X175173000Y-45883750D01*
X175173000Y-46521250D01*
X175171465Y-46552493D01*
X175166875Y-46583435D01*
X175159275Y-46613778D01*
X175148737Y-46643230D01*
X175135362Y-46671508D01*
X175119281Y-46698338D01*
X175100647Y-46723463D01*
X175079640Y-46746640D01*
X175056463Y-46767647D01*
X175031338Y-46786281D01*
X175004508Y-46802362D01*
X174976230Y-46815737D01*
X174946778Y-46826275D01*
X174916435Y-46833875D01*
X174885493Y-46838465D01*
X174854250Y-46840000D01*
X174141750Y-46840000D01*
X174110507Y-46838465D01*
X174079565Y-46833875D01*
X174049222Y-46826275D01*
X174019770Y-46815737D01*
X173991492Y-46802362D01*
X173964662Y-46786281D01*
X173939537Y-46767647D01*
X173916360Y-46746640D01*
X173895353Y-46723463D01*
X173876719Y-46698338D01*
X173860638Y-46671508D01*
X173847263Y-46643230D01*
X173836725Y-46613778D01*
X173829125Y-46583435D01*
X173824535Y-46552493D01*
X173823000Y-46521250D01*
X173823000Y-45883750D01*
X173824535Y-45852507D01*
X173829125Y-45821565D01*
X173836725Y-45791222D01*
X173847263Y-45761770D01*
X173860638Y-45733492D01*
X173876719Y-45706662D01*
X173895353Y-45681537D01*
X173916360Y-45658360D01*
X173939537Y-45637353D01*
X173964662Y-45618719D01*
X173991492Y-45602638D01*
X174019770Y-45589263D01*
X174049222Y-45578725D01*
X174079565Y-45571125D01*
X174110507Y-45566535D01*
X174141750Y-45565000D01*
X174854250Y-45565000D01*
X174885493Y-45566535D01*
X174885493Y-45566535D01*
G37*
D12*
X174498000Y-46202500D03*
G04 #@! TD*
D11*
G04 #@! TO.C,C15*
G36*
X169805493Y-68223535D02*
X169836435Y-68228125D01*
X169866778Y-68235725D01*
X169896230Y-68246263D01*
X169924508Y-68259638D01*
X169951338Y-68275719D01*
X169976463Y-68294353D01*
X169999640Y-68315360D01*
X170020647Y-68338537D01*
X170039281Y-68363662D01*
X170055362Y-68390492D01*
X170068737Y-68418770D01*
X170079275Y-68448222D01*
X170086875Y-68478565D01*
X170091465Y-68509507D01*
X170093000Y-68540750D01*
X170093000Y-69178250D01*
X170091465Y-69209493D01*
X170086875Y-69240435D01*
X170079275Y-69270778D01*
X170068737Y-69300230D01*
X170055362Y-69328508D01*
X170039281Y-69355338D01*
X170020647Y-69380463D01*
X169999640Y-69403640D01*
X169976463Y-69424647D01*
X169951338Y-69443281D01*
X169924508Y-69459362D01*
X169896230Y-69472737D01*
X169866778Y-69483275D01*
X169836435Y-69490875D01*
X169805493Y-69495465D01*
X169774250Y-69497000D01*
X169061750Y-69497000D01*
X169030507Y-69495465D01*
X168999565Y-69490875D01*
X168969222Y-69483275D01*
X168939770Y-69472737D01*
X168911492Y-69459362D01*
X168884662Y-69443281D01*
X168859537Y-69424647D01*
X168836360Y-69403640D01*
X168815353Y-69380463D01*
X168796719Y-69355338D01*
X168780638Y-69328508D01*
X168767263Y-69300230D01*
X168756725Y-69270778D01*
X168749125Y-69240435D01*
X168744535Y-69209493D01*
X168743000Y-69178250D01*
X168743000Y-68540750D01*
X168744535Y-68509507D01*
X168749125Y-68478565D01*
X168756725Y-68448222D01*
X168767263Y-68418770D01*
X168780638Y-68390492D01*
X168796719Y-68363662D01*
X168815353Y-68338537D01*
X168836360Y-68315360D01*
X168859537Y-68294353D01*
X168884662Y-68275719D01*
X168911492Y-68259638D01*
X168939770Y-68246263D01*
X168969222Y-68235725D01*
X168999565Y-68228125D01*
X169030507Y-68223535D01*
X169061750Y-68222000D01*
X169774250Y-68222000D01*
X169805493Y-68223535D01*
X169805493Y-68223535D01*
G37*
D12*
X169418000Y-68859500D03*
D11*
G36*
X169805493Y-66648535D02*
X169836435Y-66653125D01*
X169866778Y-66660725D01*
X169896230Y-66671263D01*
X169924508Y-66684638D01*
X169951338Y-66700719D01*
X169976463Y-66719353D01*
X169999640Y-66740360D01*
X170020647Y-66763537D01*
X170039281Y-66788662D01*
X170055362Y-66815492D01*
X170068737Y-66843770D01*
X170079275Y-66873222D01*
X170086875Y-66903565D01*
X170091465Y-66934507D01*
X170093000Y-66965750D01*
X170093000Y-67603250D01*
X170091465Y-67634493D01*
X170086875Y-67665435D01*
X170079275Y-67695778D01*
X170068737Y-67725230D01*
X170055362Y-67753508D01*
X170039281Y-67780338D01*
X170020647Y-67805463D01*
X169999640Y-67828640D01*
X169976463Y-67849647D01*
X169951338Y-67868281D01*
X169924508Y-67884362D01*
X169896230Y-67897737D01*
X169866778Y-67908275D01*
X169836435Y-67915875D01*
X169805493Y-67920465D01*
X169774250Y-67922000D01*
X169061750Y-67922000D01*
X169030507Y-67920465D01*
X168999565Y-67915875D01*
X168969222Y-67908275D01*
X168939770Y-67897737D01*
X168911492Y-67884362D01*
X168884662Y-67868281D01*
X168859537Y-67849647D01*
X168836360Y-67828640D01*
X168815353Y-67805463D01*
X168796719Y-67780338D01*
X168780638Y-67753508D01*
X168767263Y-67725230D01*
X168756725Y-67695778D01*
X168749125Y-67665435D01*
X168744535Y-67634493D01*
X168743000Y-67603250D01*
X168743000Y-66965750D01*
X168744535Y-66934507D01*
X168749125Y-66903565D01*
X168756725Y-66873222D01*
X168767263Y-66843770D01*
X168780638Y-66815492D01*
X168796719Y-66788662D01*
X168815353Y-66763537D01*
X168836360Y-66740360D01*
X168859537Y-66719353D01*
X168884662Y-66700719D01*
X168911492Y-66684638D01*
X168939770Y-66671263D01*
X168969222Y-66660725D01*
X168999565Y-66653125D01*
X169030507Y-66648535D01*
X169061750Y-66647000D01*
X169774250Y-66647000D01*
X169805493Y-66648535D01*
X169805493Y-66648535D01*
G37*
D12*
X169418000Y-67284500D03*
G04 #@! TD*
D11*
G04 #@! TO.C,C16*
G36*
X169259993Y-84416535D02*
X169290935Y-84421125D01*
X169321278Y-84428725D01*
X169350730Y-84439263D01*
X169379008Y-84452638D01*
X169405838Y-84468719D01*
X169430963Y-84487353D01*
X169454140Y-84508360D01*
X169475147Y-84531537D01*
X169493781Y-84556662D01*
X169509862Y-84583492D01*
X169523237Y-84611770D01*
X169533775Y-84641222D01*
X169541375Y-84671565D01*
X169545965Y-84702507D01*
X169547500Y-84733750D01*
X169547500Y-85446250D01*
X169545965Y-85477493D01*
X169541375Y-85508435D01*
X169533775Y-85538778D01*
X169523237Y-85568230D01*
X169509862Y-85596508D01*
X169493781Y-85623338D01*
X169475147Y-85648463D01*
X169454140Y-85671640D01*
X169430963Y-85692647D01*
X169405838Y-85711281D01*
X169379008Y-85727362D01*
X169350730Y-85740737D01*
X169321278Y-85751275D01*
X169290935Y-85758875D01*
X169259993Y-85763465D01*
X169228750Y-85765000D01*
X168591250Y-85765000D01*
X168560007Y-85763465D01*
X168529065Y-85758875D01*
X168498722Y-85751275D01*
X168469270Y-85740737D01*
X168440992Y-85727362D01*
X168414162Y-85711281D01*
X168389037Y-85692647D01*
X168365860Y-85671640D01*
X168344853Y-85648463D01*
X168326219Y-85623338D01*
X168310138Y-85596508D01*
X168296763Y-85568230D01*
X168286225Y-85538778D01*
X168278625Y-85508435D01*
X168274035Y-85477493D01*
X168272500Y-85446250D01*
X168272500Y-84733750D01*
X168274035Y-84702507D01*
X168278625Y-84671565D01*
X168286225Y-84641222D01*
X168296763Y-84611770D01*
X168310138Y-84583492D01*
X168326219Y-84556662D01*
X168344853Y-84531537D01*
X168365860Y-84508360D01*
X168389037Y-84487353D01*
X168414162Y-84468719D01*
X168440992Y-84452638D01*
X168469270Y-84439263D01*
X168498722Y-84428725D01*
X168529065Y-84421125D01*
X168560007Y-84416535D01*
X168591250Y-84415000D01*
X169228750Y-84415000D01*
X169259993Y-84416535D01*
X169259993Y-84416535D01*
G37*
D12*
X168910000Y-85090000D03*
D11*
G36*
X170834993Y-84416535D02*
X170865935Y-84421125D01*
X170896278Y-84428725D01*
X170925730Y-84439263D01*
X170954008Y-84452638D01*
X170980838Y-84468719D01*
X171005963Y-84487353D01*
X171029140Y-84508360D01*
X171050147Y-84531537D01*
X171068781Y-84556662D01*
X171084862Y-84583492D01*
X171098237Y-84611770D01*
X171108775Y-84641222D01*
X171116375Y-84671565D01*
X171120965Y-84702507D01*
X171122500Y-84733750D01*
X171122500Y-85446250D01*
X171120965Y-85477493D01*
X171116375Y-85508435D01*
X171108775Y-85538778D01*
X171098237Y-85568230D01*
X171084862Y-85596508D01*
X171068781Y-85623338D01*
X171050147Y-85648463D01*
X171029140Y-85671640D01*
X171005963Y-85692647D01*
X170980838Y-85711281D01*
X170954008Y-85727362D01*
X170925730Y-85740737D01*
X170896278Y-85751275D01*
X170865935Y-85758875D01*
X170834993Y-85763465D01*
X170803750Y-85765000D01*
X170166250Y-85765000D01*
X170135007Y-85763465D01*
X170104065Y-85758875D01*
X170073722Y-85751275D01*
X170044270Y-85740737D01*
X170015992Y-85727362D01*
X169989162Y-85711281D01*
X169964037Y-85692647D01*
X169940860Y-85671640D01*
X169919853Y-85648463D01*
X169901219Y-85623338D01*
X169885138Y-85596508D01*
X169871763Y-85568230D01*
X169861225Y-85538778D01*
X169853625Y-85508435D01*
X169849035Y-85477493D01*
X169847500Y-85446250D01*
X169847500Y-84733750D01*
X169849035Y-84702507D01*
X169853625Y-84671565D01*
X169861225Y-84641222D01*
X169871763Y-84611770D01*
X169885138Y-84583492D01*
X169901219Y-84556662D01*
X169919853Y-84531537D01*
X169940860Y-84508360D01*
X169964037Y-84487353D01*
X169989162Y-84468719D01*
X170015992Y-84452638D01*
X170044270Y-84439263D01*
X170073722Y-84428725D01*
X170104065Y-84421125D01*
X170135007Y-84416535D01*
X170166250Y-84415000D01*
X170803750Y-84415000D01*
X170834993Y-84416535D01*
X170834993Y-84416535D01*
G37*
D12*
X170485000Y-85090000D03*
G04 #@! TD*
D11*
G04 #@! TO.C,C17*
G36*
X169234493Y-82638535D02*
X169265435Y-82643125D01*
X169295778Y-82650725D01*
X169325230Y-82661263D01*
X169353508Y-82674638D01*
X169380338Y-82690719D01*
X169405463Y-82709353D01*
X169428640Y-82730360D01*
X169449647Y-82753537D01*
X169468281Y-82778662D01*
X169484362Y-82805492D01*
X169497737Y-82833770D01*
X169508275Y-82863222D01*
X169515875Y-82893565D01*
X169520465Y-82924507D01*
X169522000Y-82955750D01*
X169522000Y-83668250D01*
X169520465Y-83699493D01*
X169515875Y-83730435D01*
X169508275Y-83760778D01*
X169497737Y-83790230D01*
X169484362Y-83818508D01*
X169468281Y-83845338D01*
X169449647Y-83870463D01*
X169428640Y-83893640D01*
X169405463Y-83914647D01*
X169380338Y-83933281D01*
X169353508Y-83949362D01*
X169325230Y-83962737D01*
X169295778Y-83973275D01*
X169265435Y-83980875D01*
X169234493Y-83985465D01*
X169203250Y-83987000D01*
X168565750Y-83987000D01*
X168534507Y-83985465D01*
X168503565Y-83980875D01*
X168473222Y-83973275D01*
X168443770Y-83962737D01*
X168415492Y-83949362D01*
X168388662Y-83933281D01*
X168363537Y-83914647D01*
X168340360Y-83893640D01*
X168319353Y-83870463D01*
X168300719Y-83845338D01*
X168284638Y-83818508D01*
X168271263Y-83790230D01*
X168260725Y-83760778D01*
X168253125Y-83730435D01*
X168248535Y-83699493D01*
X168247000Y-83668250D01*
X168247000Y-82955750D01*
X168248535Y-82924507D01*
X168253125Y-82893565D01*
X168260725Y-82863222D01*
X168271263Y-82833770D01*
X168284638Y-82805492D01*
X168300719Y-82778662D01*
X168319353Y-82753537D01*
X168340360Y-82730360D01*
X168363537Y-82709353D01*
X168388662Y-82690719D01*
X168415492Y-82674638D01*
X168443770Y-82661263D01*
X168473222Y-82650725D01*
X168503565Y-82643125D01*
X168534507Y-82638535D01*
X168565750Y-82637000D01*
X169203250Y-82637000D01*
X169234493Y-82638535D01*
X169234493Y-82638535D01*
G37*
D12*
X168884500Y-83312000D03*
D11*
G36*
X170809493Y-82638535D02*
X170840435Y-82643125D01*
X170870778Y-82650725D01*
X170900230Y-82661263D01*
X170928508Y-82674638D01*
X170955338Y-82690719D01*
X170980463Y-82709353D01*
X171003640Y-82730360D01*
X171024647Y-82753537D01*
X171043281Y-82778662D01*
X171059362Y-82805492D01*
X171072737Y-82833770D01*
X171083275Y-82863222D01*
X171090875Y-82893565D01*
X171095465Y-82924507D01*
X171097000Y-82955750D01*
X171097000Y-83668250D01*
X171095465Y-83699493D01*
X171090875Y-83730435D01*
X171083275Y-83760778D01*
X171072737Y-83790230D01*
X171059362Y-83818508D01*
X171043281Y-83845338D01*
X171024647Y-83870463D01*
X171003640Y-83893640D01*
X170980463Y-83914647D01*
X170955338Y-83933281D01*
X170928508Y-83949362D01*
X170900230Y-83962737D01*
X170870778Y-83973275D01*
X170840435Y-83980875D01*
X170809493Y-83985465D01*
X170778250Y-83987000D01*
X170140750Y-83987000D01*
X170109507Y-83985465D01*
X170078565Y-83980875D01*
X170048222Y-83973275D01*
X170018770Y-83962737D01*
X169990492Y-83949362D01*
X169963662Y-83933281D01*
X169938537Y-83914647D01*
X169915360Y-83893640D01*
X169894353Y-83870463D01*
X169875719Y-83845338D01*
X169859638Y-83818508D01*
X169846263Y-83790230D01*
X169835725Y-83760778D01*
X169828125Y-83730435D01*
X169823535Y-83699493D01*
X169822000Y-83668250D01*
X169822000Y-82955750D01*
X169823535Y-82924507D01*
X169828125Y-82893565D01*
X169835725Y-82863222D01*
X169846263Y-82833770D01*
X169859638Y-82805492D01*
X169875719Y-82778662D01*
X169894353Y-82753537D01*
X169915360Y-82730360D01*
X169938537Y-82709353D01*
X169963662Y-82690719D01*
X169990492Y-82674638D01*
X170018770Y-82661263D01*
X170048222Y-82650725D01*
X170078565Y-82643125D01*
X170109507Y-82638535D01*
X170140750Y-82637000D01*
X170778250Y-82637000D01*
X170809493Y-82638535D01*
X170809493Y-82638535D01*
G37*
D12*
X170459500Y-83312000D03*
G04 #@! TD*
D11*
G04 #@! TO.C,C42*
G36*
X159379493Y-83146535D02*
X159410435Y-83151125D01*
X159440778Y-83158725D01*
X159470230Y-83169263D01*
X159498508Y-83182638D01*
X159525338Y-83198719D01*
X159550463Y-83217353D01*
X159573640Y-83238360D01*
X159594647Y-83261537D01*
X159613281Y-83286662D01*
X159629362Y-83313492D01*
X159642737Y-83341770D01*
X159653275Y-83371222D01*
X159660875Y-83401565D01*
X159665465Y-83432507D01*
X159667000Y-83463750D01*
X159667000Y-84176250D01*
X159665465Y-84207493D01*
X159660875Y-84238435D01*
X159653275Y-84268778D01*
X159642737Y-84298230D01*
X159629362Y-84326508D01*
X159613281Y-84353338D01*
X159594647Y-84378463D01*
X159573640Y-84401640D01*
X159550463Y-84422647D01*
X159525338Y-84441281D01*
X159498508Y-84457362D01*
X159470230Y-84470737D01*
X159440778Y-84481275D01*
X159410435Y-84488875D01*
X159379493Y-84493465D01*
X159348250Y-84495000D01*
X158710750Y-84495000D01*
X158679507Y-84493465D01*
X158648565Y-84488875D01*
X158618222Y-84481275D01*
X158588770Y-84470737D01*
X158560492Y-84457362D01*
X158533662Y-84441281D01*
X158508537Y-84422647D01*
X158485360Y-84401640D01*
X158464353Y-84378463D01*
X158445719Y-84353338D01*
X158429638Y-84326508D01*
X158416263Y-84298230D01*
X158405725Y-84268778D01*
X158398125Y-84238435D01*
X158393535Y-84207493D01*
X158392000Y-84176250D01*
X158392000Y-83463750D01*
X158393535Y-83432507D01*
X158398125Y-83401565D01*
X158405725Y-83371222D01*
X158416263Y-83341770D01*
X158429638Y-83313492D01*
X158445719Y-83286662D01*
X158464353Y-83261537D01*
X158485360Y-83238360D01*
X158508537Y-83217353D01*
X158533662Y-83198719D01*
X158560492Y-83182638D01*
X158588770Y-83169263D01*
X158618222Y-83158725D01*
X158648565Y-83151125D01*
X158679507Y-83146535D01*
X158710750Y-83145000D01*
X159348250Y-83145000D01*
X159379493Y-83146535D01*
X159379493Y-83146535D01*
G37*
D12*
X159029500Y-83820000D03*
D11*
G36*
X157804493Y-83146535D02*
X157835435Y-83151125D01*
X157865778Y-83158725D01*
X157895230Y-83169263D01*
X157923508Y-83182638D01*
X157950338Y-83198719D01*
X157975463Y-83217353D01*
X157998640Y-83238360D01*
X158019647Y-83261537D01*
X158038281Y-83286662D01*
X158054362Y-83313492D01*
X158067737Y-83341770D01*
X158078275Y-83371222D01*
X158085875Y-83401565D01*
X158090465Y-83432507D01*
X158092000Y-83463750D01*
X158092000Y-84176250D01*
X158090465Y-84207493D01*
X158085875Y-84238435D01*
X158078275Y-84268778D01*
X158067737Y-84298230D01*
X158054362Y-84326508D01*
X158038281Y-84353338D01*
X158019647Y-84378463D01*
X157998640Y-84401640D01*
X157975463Y-84422647D01*
X157950338Y-84441281D01*
X157923508Y-84457362D01*
X157895230Y-84470737D01*
X157865778Y-84481275D01*
X157835435Y-84488875D01*
X157804493Y-84493465D01*
X157773250Y-84495000D01*
X157135750Y-84495000D01*
X157104507Y-84493465D01*
X157073565Y-84488875D01*
X157043222Y-84481275D01*
X157013770Y-84470737D01*
X156985492Y-84457362D01*
X156958662Y-84441281D01*
X156933537Y-84422647D01*
X156910360Y-84401640D01*
X156889353Y-84378463D01*
X156870719Y-84353338D01*
X156854638Y-84326508D01*
X156841263Y-84298230D01*
X156830725Y-84268778D01*
X156823125Y-84238435D01*
X156818535Y-84207493D01*
X156817000Y-84176250D01*
X156817000Y-83463750D01*
X156818535Y-83432507D01*
X156823125Y-83401565D01*
X156830725Y-83371222D01*
X156841263Y-83341770D01*
X156854638Y-83313492D01*
X156870719Y-83286662D01*
X156889353Y-83261537D01*
X156910360Y-83238360D01*
X156933537Y-83217353D01*
X156958662Y-83198719D01*
X156985492Y-83182638D01*
X157013770Y-83169263D01*
X157043222Y-83158725D01*
X157073565Y-83151125D01*
X157104507Y-83146535D01*
X157135750Y-83145000D01*
X157773250Y-83145000D01*
X157804493Y-83146535D01*
X157804493Y-83146535D01*
G37*
D12*
X157454500Y-83820000D03*
G04 #@! TD*
D13*
G04 #@! TO.C,J1*
X77394776Y-29604504D03*
D14*
X79934776Y-32144504D03*
X79934776Y-27064504D03*
X74854776Y-27064504D03*
X74854776Y-32144504D03*
G04 #@! TD*
G04 #@! TO.C,J2*
X79515000Y-76322112D03*
X74435000Y-76322112D03*
X74435000Y-71242112D03*
X79515000Y-71242112D03*
D13*
X76975000Y-73782112D03*
G04 #@! TD*
D15*
G04 #@! TO.C,J3*
X88514776Y-29223504D03*
D16*
X85014776Y-29223504D03*
G04 #@! TD*
D15*
G04 #@! TO.C,J4*
X76975000Y-62662112D03*
D16*
X76975000Y-66162112D03*
G04 #@! TD*
D13*
G04 #@! TO.C,J5*
X77470000Y-87249000D03*
D14*
X74930000Y-84709000D03*
X74930000Y-89789000D03*
X80010000Y-89789000D03*
X80010000Y-84709000D03*
G04 #@! TD*
G04 #@! TO.C,J6*
X79883000Y-54610000D03*
X74803000Y-54610000D03*
X74803000Y-49530000D03*
X79883000Y-49530000D03*
D13*
X77343000Y-52070000D03*
G04 #@! TD*
D16*
G04 #@! TO.C,J7*
X89352000Y-87249000D03*
D15*
X85852000Y-87249000D03*
G04 #@! TD*
D16*
G04 #@! TO.C,J8*
X77343000Y-44704000D03*
D15*
X77343000Y-41204000D03*
G04 #@! TD*
D16*
G04 #@! TO.C,J9*
X239776000Y-44196000D03*
D15*
X239776000Y-47696000D03*
G04 #@! TD*
D13*
G04 #@! TO.C,J10*
X239268000Y-34290000D03*
D14*
X241808000Y-36830000D03*
X241808000Y-31750000D03*
X236728000Y-31750000D03*
X236728000Y-36830000D03*
G04 #@! TD*
G04 #@! TO.C,J12*
X236220000Y-70358000D03*
X236220000Y-65278000D03*
X241300000Y-65278000D03*
X241300000Y-70358000D03*
D13*
X238760000Y-67818000D03*
G04 #@! TD*
D17*
G04 #@! TO.C,RV1*
X97536000Y-72390000D03*
X94996000Y-74930000D03*
X92456000Y-72390000D03*
G04 #@! TD*
D18*
G04 #@! TO.C,SW1*
X91544000Y-45593000D03*
X91544000Y-41093000D03*
X98044000Y-45593000D03*
X98044000Y-41093000D03*
G04 #@! TD*
G04 #@! TO.C,SW2*
X98067000Y-61468000D03*
X98067000Y-65968000D03*
X91567000Y-61468000D03*
X91567000Y-65968000D03*
G04 #@! TD*
D19*
G04 #@! TO.C,U1*
X121920000Y-48260000D03*
X121920000Y-45720000D03*
X121920000Y-43180000D03*
X121920000Y-40640000D03*
X121920000Y-50800000D03*
X121920000Y-53340000D03*
X121920000Y-55880000D03*
X121920000Y-38100000D03*
X121920000Y-35560000D03*
X121920000Y-33020000D03*
X121920000Y-30480000D03*
X119380000Y-43180000D03*
X116840000Y-43180000D03*
X114300000Y-43180000D03*
X111760000Y-43180000D03*
X109220000Y-43180000D03*
X106680000Y-30480000D03*
X106680000Y-33020000D03*
X106680000Y-35560000D03*
X106680000Y-38100000D03*
X106680000Y-40640000D03*
X106680000Y-43180000D03*
X106680000Y-45720000D03*
X106680000Y-48260000D03*
X121920000Y-58420000D03*
X121920000Y-60960000D03*
X121920000Y-63500000D03*
X121920000Y-66040000D03*
X121920000Y-68580000D03*
X121920000Y-71120000D03*
X121920000Y-73660000D03*
X121920000Y-76200000D03*
X121920000Y-78740000D03*
X121920000Y-81280000D03*
X121920000Y-83820000D03*
X121920000Y-86360000D03*
D20*
X121920000Y-88900000D03*
D19*
X106680000Y-50800000D03*
X106680000Y-53340000D03*
X106680000Y-55880000D03*
X106680000Y-58420000D03*
X106680000Y-60960000D03*
X106680000Y-63500000D03*
X106680000Y-66040000D03*
X106680000Y-68580000D03*
X106680000Y-71120000D03*
X106680000Y-73660000D03*
X106680000Y-76200000D03*
X106680000Y-78740000D03*
X106680000Y-81280000D03*
X106680000Y-83820000D03*
X106680000Y-86360000D03*
X106680000Y-88900000D03*
X109220000Y-86360000D03*
X109220000Y-81280000D03*
X109220000Y-78740000D03*
X109220000Y-76200000D03*
X114300000Y-73660000D03*
X114300000Y-71120000D03*
X114300000Y-68580000D03*
X114300000Y-66040000D03*
X114300000Y-50800000D03*
X114300000Y-48260000D03*
X114300000Y-45720000D03*
X114300000Y-40640000D03*
X114300000Y-38100000D03*
X114300000Y-35560000D03*
X114300000Y-33020000D03*
X114300000Y-30480000D03*
X111760000Y-30480000D03*
X111760000Y-33020000D03*
X111760000Y-35560000D03*
X111760000Y-38100000D03*
X111760000Y-40640000D03*
X111760000Y-45720000D03*
X111760000Y-48260000D03*
X111760000Y-50800000D03*
X111760000Y-66040000D03*
X111760000Y-68580000D03*
X111760000Y-71120000D03*
X111760000Y-73660000D03*
X118920000Y-82550000D03*
X118920000Y-80010000D03*
X118920000Y-77470000D03*
X118920000Y-74930000D03*
X118920000Y-72390000D03*
G04 #@! TD*
D21*
G04 #@! TO.C,U2*
X135890000Y-40180000D03*
X135890000Y-37680000D03*
X135890000Y-30180000D03*
D22*
X138390000Y-43180000D03*
D21*
X156390000Y-27180000D03*
X158890000Y-30180000D03*
X158890000Y-32680000D03*
X158890000Y-37680000D03*
X158890000Y-40180000D03*
G04 #@! TD*
D23*
G04 #@! TO.C,U3*
X172244731Y-30111170D03*
X172244731Y-28841170D03*
X172244731Y-27571170D03*
X172244731Y-26301170D03*
X166844731Y-26301170D03*
X166844731Y-27571170D03*
X166844731Y-28841170D03*
X166844731Y-30111170D03*
G04 #@! TD*
G04 #@! TO.C,U4*
X172244731Y-37731170D03*
X172244731Y-36461170D03*
X172244731Y-35191170D03*
X172244731Y-33921170D03*
X166844731Y-33921170D03*
X166844731Y-35191170D03*
X166844731Y-36461170D03*
X166844731Y-37731170D03*
G04 #@! TD*
D24*
G04 #@! TO.C,U5*
X151970000Y-65405000D03*
X151970000Y-66675000D03*
X151970000Y-67945000D03*
X151970000Y-69215000D03*
X151970000Y-70485000D03*
X151970000Y-71755000D03*
X151970000Y-73025000D03*
X151970000Y-74295000D03*
X142670000Y-74295000D03*
X142670000Y-73025000D03*
X142670000Y-71755000D03*
X142670000Y-70485000D03*
X142670000Y-69215000D03*
X142670000Y-67945000D03*
X142670000Y-66675000D03*
X142670000Y-65405000D03*
G04 #@! TD*
G04 #@! TO.C,U7*
X142670000Y-79375000D03*
X142670000Y-80645000D03*
X142670000Y-81915000D03*
X142670000Y-83185000D03*
X142670000Y-84455000D03*
X142670000Y-85725000D03*
X142670000Y-86995000D03*
X142670000Y-88265000D03*
X151970000Y-88265000D03*
X151970000Y-86995000D03*
X151970000Y-85725000D03*
X151970000Y-84455000D03*
X151970000Y-83185000D03*
X151970000Y-81915000D03*
X151970000Y-80645000D03*
X151970000Y-79375000D03*
G04 #@! TD*
D23*
G04 #@! TO.C,U8*
X166844731Y-45351170D03*
X166844731Y-44081170D03*
X166844731Y-42811170D03*
X166844731Y-41541170D03*
X172244731Y-41541170D03*
X172244731Y-42811170D03*
X172244731Y-44081170D03*
X172244731Y-45351170D03*
G04 #@! TD*
D24*
G04 #@! TO.C,U9*
X161638000Y-65024000D03*
X161638000Y-66294000D03*
X161638000Y-67564000D03*
X161638000Y-68834000D03*
X161638000Y-70104000D03*
X161638000Y-71374000D03*
X161638000Y-72644000D03*
X167038000Y-72644000D03*
X167038000Y-71374000D03*
X167038000Y-70104000D03*
X167038000Y-68834000D03*
X167038000Y-67564000D03*
X167038000Y-66294000D03*
X167038000Y-65024000D03*
G04 #@! TD*
D17*
G04 #@! TO.C,RV4*
X97409000Y-52070000D03*
X94869000Y-54610000D03*
X92329000Y-52070000D03*
G04 #@! TD*
D16*
G04 #@! TO.C,J11*
X239268000Y-77851000D03*
D15*
X239268000Y-81351000D03*
G04 #@! TD*
D25*
G04 #@! TO.C,REF\002A\002A*
X248920000Y-91440000D03*
G04 #@! TD*
G04 #@! TO.C,REF\002A\002A*
X248920000Y-26670000D03*
G04 #@! TD*
G04 #@! TO.C,REF\002A\002A*
X66040000Y-26670000D03*
G04 #@! TD*
G04 #@! TO.C,REF\002A\002A*
X66040000Y-91440000D03*
G04 #@! TD*
D11*
G04 #@! TO.C,C18*
G36*
X197491493Y-66191535D02*
X197522435Y-66196125D01*
X197552778Y-66203725D01*
X197582230Y-66214263D01*
X197610508Y-66227638D01*
X197637338Y-66243719D01*
X197662463Y-66262353D01*
X197685640Y-66283360D01*
X197706647Y-66306537D01*
X197725281Y-66331662D01*
X197741362Y-66358492D01*
X197754737Y-66386770D01*
X197765275Y-66416222D01*
X197772875Y-66446565D01*
X197777465Y-66477507D01*
X197779000Y-66508750D01*
X197779000Y-67146250D01*
X197777465Y-67177493D01*
X197772875Y-67208435D01*
X197765275Y-67238778D01*
X197754737Y-67268230D01*
X197741362Y-67296508D01*
X197725281Y-67323338D01*
X197706647Y-67348463D01*
X197685640Y-67371640D01*
X197662463Y-67392647D01*
X197637338Y-67411281D01*
X197610508Y-67427362D01*
X197582230Y-67440737D01*
X197552778Y-67451275D01*
X197522435Y-67458875D01*
X197491493Y-67463465D01*
X197460250Y-67465000D01*
X196747750Y-67465000D01*
X196716507Y-67463465D01*
X196685565Y-67458875D01*
X196655222Y-67451275D01*
X196625770Y-67440737D01*
X196597492Y-67427362D01*
X196570662Y-67411281D01*
X196545537Y-67392647D01*
X196522360Y-67371640D01*
X196501353Y-67348463D01*
X196482719Y-67323338D01*
X196466638Y-67296508D01*
X196453263Y-67268230D01*
X196442725Y-67238778D01*
X196435125Y-67208435D01*
X196430535Y-67177493D01*
X196429000Y-67146250D01*
X196429000Y-66508750D01*
X196430535Y-66477507D01*
X196435125Y-66446565D01*
X196442725Y-66416222D01*
X196453263Y-66386770D01*
X196466638Y-66358492D01*
X196482719Y-66331662D01*
X196501353Y-66306537D01*
X196522360Y-66283360D01*
X196545537Y-66262353D01*
X196570662Y-66243719D01*
X196597492Y-66227638D01*
X196625770Y-66214263D01*
X196655222Y-66203725D01*
X196685565Y-66196125D01*
X196716507Y-66191535D01*
X196747750Y-66190000D01*
X197460250Y-66190000D01*
X197491493Y-66191535D01*
X197491493Y-66191535D01*
G37*
D12*
X197104000Y-66827500D03*
D11*
G36*
X197491493Y-64616535D02*
X197522435Y-64621125D01*
X197552778Y-64628725D01*
X197582230Y-64639263D01*
X197610508Y-64652638D01*
X197637338Y-64668719D01*
X197662463Y-64687353D01*
X197685640Y-64708360D01*
X197706647Y-64731537D01*
X197725281Y-64756662D01*
X197741362Y-64783492D01*
X197754737Y-64811770D01*
X197765275Y-64841222D01*
X197772875Y-64871565D01*
X197777465Y-64902507D01*
X197779000Y-64933750D01*
X197779000Y-65571250D01*
X197777465Y-65602493D01*
X197772875Y-65633435D01*
X197765275Y-65663778D01*
X197754737Y-65693230D01*
X197741362Y-65721508D01*
X197725281Y-65748338D01*
X197706647Y-65773463D01*
X197685640Y-65796640D01*
X197662463Y-65817647D01*
X197637338Y-65836281D01*
X197610508Y-65852362D01*
X197582230Y-65865737D01*
X197552778Y-65876275D01*
X197522435Y-65883875D01*
X197491493Y-65888465D01*
X197460250Y-65890000D01*
X196747750Y-65890000D01*
X196716507Y-65888465D01*
X196685565Y-65883875D01*
X196655222Y-65876275D01*
X196625770Y-65865737D01*
X196597492Y-65852362D01*
X196570662Y-65836281D01*
X196545537Y-65817647D01*
X196522360Y-65796640D01*
X196501353Y-65773463D01*
X196482719Y-65748338D01*
X196466638Y-65721508D01*
X196453263Y-65693230D01*
X196442725Y-65663778D01*
X196435125Y-65633435D01*
X196430535Y-65602493D01*
X196429000Y-65571250D01*
X196429000Y-64933750D01*
X196430535Y-64902507D01*
X196435125Y-64871565D01*
X196442725Y-64841222D01*
X196453263Y-64811770D01*
X196466638Y-64783492D01*
X196482719Y-64756662D01*
X196501353Y-64731537D01*
X196522360Y-64708360D01*
X196545537Y-64687353D01*
X196570662Y-64668719D01*
X196597492Y-64652638D01*
X196625770Y-64639263D01*
X196655222Y-64628725D01*
X196685565Y-64621125D01*
X196716507Y-64616535D01*
X196747750Y-64615000D01*
X197460250Y-64615000D01*
X197491493Y-64616535D01*
X197491493Y-64616535D01*
G37*
D12*
X197104000Y-65252500D03*
G04 #@! TD*
D11*
G04 #@! TO.C,C19*
G36*
X188843493Y-71208535D02*
X188874435Y-71213125D01*
X188904778Y-71220725D01*
X188934230Y-71231263D01*
X188962508Y-71244638D01*
X188989338Y-71260719D01*
X189014463Y-71279353D01*
X189037640Y-71300360D01*
X189058647Y-71323537D01*
X189077281Y-71348662D01*
X189093362Y-71375492D01*
X189106737Y-71403770D01*
X189117275Y-71433222D01*
X189124875Y-71463565D01*
X189129465Y-71494507D01*
X189131000Y-71525750D01*
X189131000Y-72238250D01*
X189129465Y-72269493D01*
X189124875Y-72300435D01*
X189117275Y-72330778D01*
X189106737Y-72360230D01*
X189093362Y-72388508D01*
X189077281Y-72415338D01*
X189058647Y-72440463D01*
X189037640Y-72463640D01*
X189014463Y-72484647D01*
X188989338Y-72503281D01*
X188962508Y-72519362D01*
X188934230Y-72532737D01*
X188904778Y-72543275D01*
X188874435Y-72550875D01*
X188843493Y-72555465D01*
X188812250Y-72557000D01*
X188174750Y-72557000D01*
X188143507Y-72555465D01*
X188112565Y-72550875D01*
X188082222Y-72543275D01*
X188052770Y-72532737D01*
X188024492Y-72519362D01*
X187997662Y-72503281D01*
X187972537Y-72484647D01*
X187949360Y-72463640D01*
X187928353Y-72440463D01*
X187909719Y-72415338D01*
X187893638Y-72388508D01*
X187880263Y-72360230D01*
X187869725Y-72330778D01*
X187862125Y-72300435D01*
X187857535Y-72269493D01*
X187856000Y-72238250D01*
X187856000Y-71525750D01*
X187857535Y-71494507D01*
X187862125Y-71463565D01*
X187869725Y-71433222D01*
X187880263Y-71403770D01*
X187893638Y-71375492D01*
X187909719Y-71348662D01*
X187928353Y-71323537D01*
X187949360Y-71300360D01*
X187972537Y-71279353D01*
X187997662Y-71260719D01*
X188024492Y-71244638D01*
X188052770Y-71231263D01*
X188082222Y-71220725D01*
X188112565Y-71213125D01*
X188143507Y-71208535D01*
X188174750Y-71207000D01*
X188812250Y-71207000D01*
X188843493Y-71208535D01*
X188843493Y-71208535D01*
G37*
D12*
X188493500Y-71882000D03*
D11*
G36*
X187268493Y-71208535D02*
X187299435Y-71213125D01*
X187329778Y-71220725D01*
X187359230Y-71231263D01*
X187387508Y-71244638D01*
X187414338Y-71260719D01*
X187439463Y-71279353D01*
X187462640Y-71300360D01*
X187483647Y-71323537D01*
X187502281Y-71348662D01*
X187518362Y-71375492D01*
X187531737Y-71403770D01*
X187542275Y-71433222D01*
X187549875Y-71463565D01*
X187554465Y-71494507D01*
X187556000Y-71525750D01*
X187556000Y-72238250D01*
X187554465Y-72269493D01*
X187549875Y-72300435D01*
X187542275Y-72330778D01*
X187531737Y-72360230D01*
X187518362Y-72388508D01*
X187502281Y-72415338D01*
X187483647Y-72440463D01*
X187462640Y-72463640D01*
X187439463Y-72484647D01*
X187414338Y-72503281D01*
X187387508Y-72519362D01*
X187359230Y-72532737D01*
X187329778Y-72543275D01*
X187299435Y-72550875D01*
X187268493Y-72555465D01*
X187237250Y-72557000D01*
X186599750Y-72557000D01*
X186568507Y-72555465D01*
X186537565Y-72550875D01*
X186507222Y-72543275D01*
X186477770Y-72532737D01*
X186449492Y-72519362D01*
X186422662Y-72503281D01*
X186397537Y-72484647D01*
X186374360Y-72463640D01*
X186353353Y-72440463D01*
X186334719Y-72415338D01*
X186318638Y-72388508D01*
X186305263Y-72360230D01*
X186294725Y-72330778D01*
X186287125Y-72300435D01*
X186282535Y-72269493D01*
X186281000Y-72238250D01*
X186281000Y-71525750D01*
X186282535Y-71494507D01*
X186287125Y-71463565D01*
X186294725Y-71433222D01*
X186305263Y-71403770D01*
X186318638Y-71375492D01*
X186334719Y-71348662D01*
X186353353Y-71323537D01*
X186374360Y-71300360D01*
X186397537Y-71279353D01*
X186422662Y-71260719D01*
X186449492Y-71244638D01*
X186477770Y-71231263D01*
X186507222Y-71220725D01*
X186537565Y-71213125D01*
X186568507Y-71208535D01*
X186599750Y-71207000D01*
X187237250Y-71207000D01*
X187268493Y-71208535D01*
X187268493Y-71208535D01*
G37*
D12*
X186918500Y-71882000D03*
G04 #@! TD*
D11*
G04 #@! TO.C,C20*
G36*
X188843493Y-33616535D02*
X188874435Y-33621125D01*
X188904778Y-33628725D01*
X188934230Y-33639263D01*
X188962508Y-33652638D01*
X188989338Y-33668719D01*
X189014463Y-33687353D01*
X189037640Y-33708360D01*
X189058647Y-33731537D01*
X189077281Y-33756662D01*
X189093362Y-33783492D01*
X189106737Y-33811770D01*
X189117275Y-33841222D01*
X189124875Y-33871565D01*
X189129465Y-33902507D01*
X189131000Y-33933750D01*
X189131000Y-34646250D01*
X189129465Y-34677493D01*
X189124875Y-34708435D01*
X189117275Y-34738778D01*
X189106737Y-34768230D01*
X189093362Y-34796508D01*
X189077281Y-34823338D01*
X189058647Y-34848463D01*
X189037640Y-34871640D01*
X189014463Y-34892647D01*
X188989338Y-34911281D01*
X188962508Y-34927362D01*
X188934230Y-34940737D01*
X188904778Y-34951275D01*
X188874435Y-34958875D01*
X188843493Y-34963465D01*
X188812250Y-34965000D01*
X188174750Y-34965000D01*
X188143507Y-34963465D01*
X188112565Y-34958875D01*
X188082222Y-34951275D01*
X188052770Y-34940737D01*
X188024492Y-34927362D01*
X187997662Y-34911281D01*
X187972537Y-34892647D01*
X187949360Y-34871640D01*
X187928353Y-34848463D01*
X187909719Y-34823338D01*
X187893638Y-34796508D01*
X187880263Y-34768230D01*
X187869725Y-34738778D01*
X187862125Y-34708435D01*
X187857535Y-34677493D01*
X187856000Y-34646250D01*
X187856000Y-33933750D01*
X187857535Y-33902507D01*
X187862125Y-33871565D01*
X187869725Y-33841222D01*
X187880263Y-33811770D01*
X187893638Y-33783492D01*
X187909719Y-33756662D01*
X187928353Y-33731537D01*
X187949360Y-33708360D01*
X187972537Y-33687353D01*
X187997662Y-33668719D01*
X188024492Y-33652638D01*
X188052770Y-33639263D01*
X188082222Y-33628725D01*
X188112565Y-33621125D01*
X188143507Y-33616535D01*
X188174750Y-33615000D01*
X188812250Y-33615000D01*
X188843493Y-33616535D01*
X188843493Y-33616535D01*
G37*
D12*
X188493500Y-34290000D03*
D11*
G36*
X187268493Y-33616535D02*
X187299435Y-33621125D01*
X187329778Y-33628725D01*
X187359230Y-33639263D01*
X187387508Y-33652638D01*
X187414338Y-33668719D01*
X187439463Y-33687353D01*
X187462640Y-33708360D01*
X187483647Y-33731537D01*
X187502281Y-33756662D01*
X187518362Y-33783492D01*
X187531737Y-33811770D01*
X187542275Y-33841222D01*
X187549875Y-33871565D01*
X187554465Y-33902507D01*
X187556000Y-33933750D01*
X187556000Y-34646250D01*
X187554465Y-34677493D01*
X187549875Y-34708435D01*
X187542275Y-34738778D01*
X187531737Y-34768230D01*
X187518362Y-34796508D01*
X187502281Y-34823338D01*
X187483647Y-34848463D01*
X187462640Y-34871640D01*
X187439463Y-34892647D01*
X187414338Y-34911281D01*
X187387508Y-34927362D01*
X187359230Y-34940737D01*
X187329778Y-34951275D01*
X187299435Y-34958875D01*
X187268493Y-34963465D01*
X187237250Y-34965000D01*
X186599750Y-34965000D01*
X186568507Y-34963465D01*
X186537565Y-34958875D01*
X186507222Y-34951275D01*
X186477770Y-34940737D01*
X186449492Y-34927362D01*
X186422662Y-34911281D01*
X186397537Y-34892647D01*
X186374360Y-34871640D01*
X186353353Y-34848463D01*
X186334719Y-34823338D01*
X186318638Y-34796508D01*
X186305263Y-34768230D01*
X186294725Y-34738778D01*
X186287125Y-34708435D01*
X186282535Y-34677493D01*
X186281000Y-34646250D01*
X186281000Y-33933750D01*
X186282535Y-33902507D01*
X186287125Y-33871565D01*
X186294725Y-33841222D01*
X186305263Y-33811770D01*
X186318638Y-33783492D01*
X186334719Y-33756662D01*
X186353353Y-33731537D01*
X186374360Y-33708360D01*
X186397537Y-33687353D01*
X186422662Y-33668719D01*
X186449492Y-33652638D01*
X186477770Y-33639263D01*
X186507222Y-33628725D01*
X186537565Y-33621125D01*
X186568507Y-33616535D01*
X186599750Y-33615000D01*
X187237250Y-33615000D01*
X187268493Y-33616535D01*
X187268493Y-33616535D01*
G37*
D12*
X186918500Y-34290000D03*
G04 #@! TD*
D11*
G04 #@! TO.C,C21*
G36*
X197237493Y-28853535D02*
X197268435Y-28858125D01*
X197298778Y-28865725D01*
X197328230Y-28876263D01*
X197356508Y-28889638D01*
X197383338Y-28905719D01*
X197408463Y-28924353D01*
X197431640Y-28945360D01*
X197452647Y-28968537D01*
X197471281Y-28993662D01*
X197487362Y-29020492D01*
X197500737Y-29048770D01*
X197511275Y-29078222D01*
X197518875Y-29108565D01*
X197523465Y-29139507D01*
X197525000Y-29170750D01*
X197525000Y-29808250D01*
X197523465Y-29839493D01*
X197518875Y-29870435D01*
X197511275Y-29900778D01*
X197500737Y-29930230D01*
X197487362Y-29958508D01*
X197471281Y-29985338D01*
X197452647Y-30010463D01*
X197431640Y-30033640D01*
X197408463Y-30054647D01*
X197383338Y-30073281D01*
X197356508Y-30089362D01*
X197328230Y-30102737D01*
X197298778Y-30113275D01*
X197268435Y-30120875D01*
X197237493Y-30125465D01*
X197206250Y-30127000D01*
X196493750Y-30127000D01*
X196462507Y-30125465D01*
X196431565Y-30120875D01*
X196401222Y-30113275D01*
X196371770Y-30102737D01*
X196343492Y-30089362D01*
X196316662Y-30073281D01*
X196291537Y-30054647D01*
X196268360Y-30033640D01*
X196247353Y-30010463D01*
X196228719Y-29985338D01*
X196212638Y-29958508D01*
X196199263Y-29930230D01*
X196188725Y-29900778D01*
X196181125Y-29870435D01*
X196176535Y-29839493D01*
X196175000Y-29808250D01*
X196175000Y-29170750D01*
X196176535Y-29139507D01*
X196181125Y-29108565D01*
X196188725Y-29078222D01*
X196199263Y-29048770D01*
X196212638Y-29020492D01*
X196228719Y-28993662D01*
X196247353Y-28968537D01*
X196268360Y-28945360D01*
X196291537Y-28924353D01*
X196316662Y-28905719D01*
X196343492Y-28889638D01*
X196371770Y-28876263D01*
X196401222Y-28865725D01*
X196431565Y-28858125D01*
X196462507Y-28853535D01*
X196493750Y-28852000D01*
X197206250Y-28852000D01*
X197237493Y-28853535D01*
X197237493Y-28853535D01*
G37*
D12*
X196850000Y-29489500D03*
D11*
G36*
X197237493Y-27278535D02*
X197268435Y-27283125D01*
X197298778Y-27290725D01*
X197328230Y-27301263D01*
X197356508Y-27314638D01*
X197383338Y-27330719D01*
X197408463Y-27349353D01*
X197431640Y-27370360D01*
X197452647Y-27393537D01*
X197471281Y-27418662D01*
X197487362Y-27445492D01*
X197500737Y-27473770D01*
X197511275Y-27503222D01*
X197518875Y-27533565D01*
X197523465Y-27564507D01*
X197525000Y-27595750D01*
X197525000Y-28233250D01*
X197523465Y-28264493D01*
X197518875Y-28295435D01*
X197511275Y-28325778D01*
X197500737Y-28355230D01*
X197487362Y-28383508D01*
X197471281Y-28410338D01*
X197452647Y-28435463D01*
X197431640Y-28458640D01*
X197408463Y-28479647D01*
X197383338Y-28498281D01*
X197356508Y-28514362D01*
X197328230Y-28527737D01*
X197298778Y-28538275D01*
X197268435Y-28545875D01*
X197237493Y-28550465D01*
X197206250Y-28552000D01*
X196493750Y-28552000D01*
X196462507Y-28550465D01*
X196431565Y-28545875D01*
X196401222Y-28538275D01*
X196371770Y-28527737D01*
X196343492Y-28514362D01*
X196316662Y-28498281D01*
X196291537Y-28479647D01*
X196268360Y-28458640D01*
X196247353Y-28435463D01*
X196228719Y-28410338D01*
X196212638Y-28383508D01*
X196199263Y-28355230D01*
X196188725Y-28325778D01*
X196181125Y-28295435D01*
X196176535Y-28264493D01*
X196175000Y-28233250D01*
X196175000Y-27595750D01*
X196176535Y-27564507D01*
X196181125Y-27533565D01*
X196188725Y-27503222D01*
X196199263Y-27473770D01*
X196212638Y-27445492D01*
X196228719Y-27418662D01*
X196247353Y-27393537D01*
X196268360Y-27370360D01*
X196291537Y-27349353D01*
X196316662Y-27330719D01*
X196343492Y-27314638D01*
X196371770Y-27301263D01*
X196401222Y-27290725D01*
X196431565Y-27283125D01*
X196462507Y-27278535D01*
X196493750Y-27277000D01*
X197206250Y-27277000D01*
X197237493Y-27278535D01*
X197237493Y-27278535D01*
G37*
D12*
X196850000Y-27914500D03*
G04 #@! TD*
D11*
G04 #@! TO.C,C22*
G36*
X194877034Y-87192982D02*
X194907976Y-87197572D01*
X194938319Y-87205172D01*
X194967771Y-87215710D01*
X194996049Y-87229085D01*
X195022879Y-87245166D01*
X195048004Y-87263800D01*
X195071181Y-87284807D01*
X195092188Y-87307984D01*
X195110822Y-87333109D01*
X195126903Y-87359939D01*
X195140278Y-87388217D01*
X195150816Y-87417669D01*
X195158416Y-87448012D01*
X195163006Y-87478954D01*
X195164541Y-87510197D01*
X195164541Y-88222697D01*
X195163006Y-88253940D01*
X195158416Y-88284882D01*
X195150816Y-88315225D01*
X195140278Y-88344677D01*
X195126903Y-88372955D01*
X195110822Y-88399785D01*
X195092188Y-88424910D01*
X195071181Y-88448087D01*
X195048004Y-88469094D01*
X195022879Y-88487728D01*
X194996049Y-88503809D01*
X194967771Y-88517184D01*
X194938319Y-88527722D01*
X194907976Y-88535322D01*
X194877034Y-88539912D01*
X194845791Y-88541447D01*
X194208291Y-88541447D01*
X194177048Y-88539912D01*
X194146106Y-88535322D01*
X194115763Y-88527722D01*
X194086311Y-88517184D01*
X194058033Y-88503809D01*
X194031203Y-88487728D01*
X194006078Y-88469094D01*
X193982901Y-88448087D01*
X193961894Y-88424910D01*
X193943260Y-88399785D01*
X193927179Y-88372955D01*
X193913804Y-88344677D01*
X193903266Y-88315225D01*
X193895666Y-88284882D01*
X193891076Y-88253940D01*
X193889541Y-88222697D01*
X193889541Y-87510197D01*
X193891076Y-87478954D01*
X193895666Y-87448012D01*
X193903266Y-87417669D01*
X193913804Y-87388217D01*
X193927179Y-87359939D01*
X193943260Y-87333109D01*
X193961894Y-87307984D01*
X193982901Y-87284807D01*
X194006078Y-87263800D01*
X194031203Y-87245166D01*
X194058033Y-87229085D01*
X194086311Y-87215710D01*
X194115763Y-87205172D01*
X194146106Y-87197572D01*
X194177048Y-87192982D01*
X194208291Y-87191447D01*
X194845791Y-87191447D01*
X194877034Y-87192982D01*
X194877034Y-87192982D01*
G37*
D12*
X194527041Y-87866447D03*
D11*
G36*
X193302034Y-87192982D02*
X193332976Y-87197572D01*
X193363319Y-87205172D01*
X193392771Y-87215710D01*
X193421049Y-87229085D01*
X193447879Y-87245166D01*
X193473004Y-87263800D01*
X193496181Y-87284807D01*
X193517188Y-87307984D01*
X193535822Y-87333109D01*
X193551903Y-87359939D01*
X193565278Y-87388217D01*
X193575816Y-87417669D01*
X193583416Y-87448012D01*
X193588006Y-87478954D01*
X193589541Y-87510197D01*
X193589541Y-88222697D01*
X193588006Y-88253940D01*
X193583416Y-88284882D01*
X193575816Y-88315225D01*
X193565278Y-88344677D01*
X193551903Y-88372955D01*
X193535822Y-88399785D01*
X193517188Y-88424910D01*
X193496181Y-88448087D01*
X193473004Y-88469094D01*
X193447879Y-88487728D01*
X193421049Y-88503809D01*
X193392771Y-88517184D01*
X193363319Y-88527722D01*
X193332976Y-88535322D01*
X193302034Y-88539912D01*
X193270791Y-88541447D01*
X192633291Y-88541447D01*
X192602048Y-88539912D01*
X192571106Y-88535322D01*
X192540763Y-88527722D01*
X192511311Y-88517184D01*
X192483033Y-88503809D01*
X192456203Y-88487728D01*
X192431078Y-88469094D01*
X192407901Y-88448087D01*
X192386894Y-88424910D01*
X192368260Y-88399785D01*
X192352179Y-88372955D01*
X192338804Y-88344677D01*
X192328266Y-88315225D01*
X192320666Y-88284882D01*
X192316076Y-88253940D01*
X192314541Y-88222697D01*
X192314541Y-87510197D01*
X192316076Y-87478954D01*
X192320666Y-87448012D01*
X192328266Y-87417669D01*
X192338804Y-87388217D01*
X192352179Y-87359939D01*
X192368260Y-87333109D01*
X192386894Y-87307984D01*
X192407901Y-87284807D01*
X192431078Y-87263800D01*
X192456203Y-87245166D01*
X192483033Y-87229085D01*
X192511311Y-87215710D01*
X192540763Y-87205172D01*
X192571106Y-87197572D01*
X192602048Y-87192982D01*
X192633291Y-87191447D01*
X193270791Y-87191447D01*
X193302034Y-87192982D01*
X193302034Y-87192982D01*
G37*
D12*
X192952041Y-87866447D03*
G04 #@! TD*
D11*
G04 #@! TO.C,C23*
G36*
X188589493Y-79336535D02*
X188620435Y-79341125D01*
X188650778Y-79348725D01*
X188680230Y-79359263D01*
X188708508Y-79372638D01*
X188735338Y-79388719D01*
X188760463Y-79407353D01*
X188783640Y-79428360D01*
X188804647Y-79451537D01*
X188823281Y-79476662D01*
X188839362Y-79503492D01*
X188852737Y-79531770D01*
X188863275Y-79561222D01*
X188870875Y-79591565D01*
X188875465Y-79622507D01*
X188877000Y-79653750D01*
X188877000Y-80366250D01*
X188875465Y-80397493D01*
X188870875Y-80428435D01*
X188863275Y-80458778D01*
X188852737Y-80488230D01*
X188839362Y-80516508D01*
X188823281Y-80543338D01*
X188804647Y-80568463D01*
X188783640Y-80591640D01*
X188760463Y-80612647D01*
X188735338Y-80631281D01*
X188708508Y-80647362D01*
X188680230Y-80660737D01*
X188650778Y-80671275D01*
X188620435Y-80678875D01*
X188589493Y-80683465D01*
X188558250Y-80685000D01*
X187920750Y-80685000D01*
X187889507Y-80683465D01*
X187858565Y-80678875D01*
X187828222Y-80671275D01*
X187798770Y-80660737D01*
X187770492Y-80647362D01*
X187743662Y-80631281D01*
X187718537Y-80612647D01*
X187695360Y-80591640D01*
X187674353Y-80568463D01*
X187655719Y-80543338D01*
X187639638Y-80516508D01*
X187626263Y-80488230D01*
X187615725Y-80458778D01*
X187608125Y-80428435D01*
X187603535Y-80397493D01*
X187602000Y-80366250D01*
X187602000Y-79653750D01*
X187603535Y-79622507D01*
X187608125Y-79591565D01*
X187615725Y-79561222D01*
X187626263Y-79531770D01*
X187639638Y-79503492D01*
X187655719Y-79476662D01*
X187674353Y-79451537D01*
X187695360Y-79428360D01*
X187718537Y-79407353D01*
X187743662Y-79388719D01*
X187770492Y-79372638D01*
X187798770Y-79359263D01*
X187828222Y-79348725D01*
X187858565Y-79341125D01*
X187889507Y-79336535D01*
X187920750Y-79335000D01*
X188558250Y-79335000D01*
X188589493Y-79336535D01*
X188589493Y-79336535D01*
G37*
D12*
X188239500Y-80010000D03*
D11*
G36*
X187014493Y-79336535D02*
X187045435Y-79341125D01*
X187075778Y-79348725D01*
X187105230Y-79359263D01*
X187133508Y-79372638D01*
X187160338Y-79388719D01*
X187185463Y-79407353D01*
X187208640Y-79428360D01*
X187229647Y-79451537D01*
X187248281Y-79476662D01*
X187264362Y-79503492D01*
X187277737Y-79531770D01*
X187288275Y-79561222D01*
X187295875Y-79591565D01*
X187300465Y-79622507D01*
X187302000Y-79653750D01*
X187302000Y-80366250D01*
X187300465Y-80397493D01*
X187295875Y-80428435D01*
X187288275Y-80458778D01*
X187277737Y-80488230D01*
X187264362Y-80516508D01*
X187248281Y-80543338D01*
X187229647Y-80568463D01*
X187208640Y-80591640D01*
X187185463Y-80612647D01*
X187160338Y-80631281D01*
X187133508Y-80647362D01*
X187105230Y-80660737D01*
X187075778Y-80671275D01*
X187045435Y-80678875D01*
X187014493Y-80683465D01*
X186983250Y-80685000D01*
X186345750Y-80685000D01*
X186314507Y-80683465D01*
X186283565Y-80678875D01*
X186253222Y-80671275D01*
X186223770Y-80660737D01*
X186195492Y-80647362D01*
X186168662Y-80631281D01*
X186143537Y-80612647D01*
X186120360Y-80591640D01*
X186099353Y-80568463D01*
X186080719Y-80543338D01*
X186064638Y-80516508D01*
X186051263Y-80488230D01*
X186040725Y-80458778D01*
X186033125Y-80428435D01*
X186028535Y-80397493D01*
X186027000Y-80366250D01*
X186027000Y-79653750D01*
X186028535Y-79622507D01*
X186033125Y-79591565D01*
X186040725Y-79561222D01*
X186051263Y-79531770D01*
X186064638Y-79503492D01*
X186080719Y-79476662D01*
X186099353Y-79451537D01*
X186120360Y-79428360D01*
X186143537Y-79407353D01*
X186168662Y-79388719D01*
X186195492Y-79372638D01*
X186223770Y-79359263D01*
X186253222Y-79348725D01*
X186283565Y-79341125D01*
X186314507Y-79336535D01*
X186345750Y-79335000D01*
X186983250Y-79335000D01*
X187014493Y-79336535D01*
X187014493Y-79336535D01*
G37*
D12*
X186664500Y-80010000D03*
G04 #@! TD*
D11*
G04 #@! TO.C,C24*
G36*
X199714493Y-72224535D02*
X199745435Y-72229125D01*
X199775778Y-72236725D01*
X199805230Y-72247263D01*
X199833508Y-72260638D01*
X199860338Y-72276719D01*
X199885463Y-72295353D01*
X199908640Y-72316360D01*
X199929647Y-72339537D01*
X199948281Y-72364662D01*
X199964362Y-72391492D01*
X199977737Y-72419770D01*
X199988275Y-72449222D01*
X199995875Y-72479565D01*
X200000465Y-72510507D01*
X200002000Y-72541750D01*
X200002000Y-73254250D01*
X200000465Y-73285493D01*
X199995875Y-73316435D01*
X199988275Y-73346778D01*
X199977737Y-73376230D01*
X199964362Y-73404508D01*
X199948281Y-73431338D01*
X199929647Y-73456463D01*
X199908640Y-73479640D01*
X199885463Y-73500647D01*
X199860338Y-73519281D01*
X199833508Y-73535362D01*
X199805230Y-73548737D01*
X199775778Y-73559275D01*
X199745435Y-73566875D01*
X199714493Y-73571465D01*
X199683250Y-73573000D01*
X199045750Y-73573000D01*
X199014507Y-73571465D01*
X198983565Y-73566875D01*
X198953222Y-73559275D01*
X198923770Y-73548737D01*
X198895492Y-73535362D01*
X198868662Y-73519281D01*
X198843537Y-73500647D01*
X198820360Y-73479640D01*
X198799353Y-73456463D01*
X198780719Y-73431338D01*
X198764638Y-73404508D01*
X198751263Y-73376230D01*
X198740725Y-73346778D01*
X198733125Y-73316435D01*
X198728535Y-73285493D01*
X198727000Y-73254250D01*
X198727000Y-72541750D01*
X198728535Y-72510507D01*
X198733125Y-72479565D01*
X198740725Y-72449222D01*
X198751263Y-72419770D01*
X198764638Y-72391492D01*
X198780719Y-72364662D01*
X198799353Y-72339537D01*
X198820360Y-72316360D01*
X198843537Y-72295353D01*
X198868662Y-72276719D01*
X198895492Y-72260638D01*
X198923770Y-72247263D01*
X198953222Y-72236725D01*
X198983565Y-72229125D01*
X199014507Y-72224535D01*
X199045750Y-72223000D01*
X199683250Y-72223000D01*
X199714493Y-72224535D01*
X199714493Y-72224535D01*
G37*
D12*
X199364500Y-72898000D03*
D11*
G36*
X201289493Y-72224535D02*
X201320435Y-72229125D01*
X201350778Y-72236725D01*
X201380230Y-72247263D01*
X201408508Y-72260638D01*
X201435338Y-72276719D01*
X201460463Y-72295353D01*
X201483640Y-72316360D01*
X201504647Y-72339537D01*
X201523281Y-72364662D01*
X201539362Y-72391492D01*
X201552737Y-72419770D01*
X201563275Y-72449222D01*
X201570875Y-72479565D01*
X201575465Y-72510507D01*
X201577000Y-72541750D01*
X201577000Y-73254250D01*
X201575465Y-73285493D01*
X201570875Y-73316435D01*
X201563275Y-73346778D01*
X201552737Y-73376230D01*
X201539362Y-73404508D01*
X201523281Y-73431338D01*
X201504647Y-73456463D01*
X201483640Y-73479640D01*
X201460463Y-73500647D01*
X201435338Y-73519281D01*
X201408508Y-73535362D01*
X201380230Y-73548737D01*
X201350778Y-73559275D01*
X201320435Y-73566875D01*
X201289493Y-73571465D01*
X201258250Y-73573000D01*
X200620750Y-73573000D01*
X200589507Y-73571465D01*
X200558565Y-73566875D01*
X200528222Y-73559275D01*
X200498770Y-73548737D01*
X200470492Y-73535362D01*
X200443662Y-73519281D01*
X200418537Y-73500647D01*
X200395360Y-73479640D01*
X200374353Y-73456463D01*
X200355719Y-73431338D01*
X200339638Y-73404508D01*
X200326263Y-73376230D01*
X200315725Y-73346778D01*
X200308125Y-73316435D01*
X200303535Y-73285493D01*
X200302000Y-73254250D01*
X200302000Y-72541750D01*
X200303535Y-72510507D01*
X200308125Y-72479565D01*
X200315725Y-72449222D01*
X200326263Y-72419770D01*
X200339638Y-72391492D01*
X200355719Y-72364662D01*
X200374353Y-72339537D01*
X200395360Y-72316360D01*
X200418537Y-72295353D01*
X200443662Y-72276719D01*
X200470492Y-72260638D01*
X200498770Y-72247263D01*
X200528222Y-72236725D01*
X200558565Y-72229125D01*
X200589507Y-72224535D01*
X200620750Y-72223000D01*
X201258250Y-72223000D01*
X201289493Y-72224535D01*
X201289493Y-72224535D01*
G37*
D12*
X200939500Y-72898000D03*
G04 #@! TD*
D11*
G04 #@! TO.C,C25*
G36*
X211207493Y-72033535D02*
X211238435Y-72038125D01*
X211268778Y-72045725D01*
X211298230Y-72056263D01*
X211326508Y-72069638D01*
X211353338Y-72085719D01*
X211378463Y-72104353D01*
X211401640Y-72125360D01*
X211422647Y-72148537D01*
X211441281Y-72173662D01*
X211457362Y-72200492D01*
X211470737Y-72228770D01*
X211481275Y-72258222D01*
X211488875Y-72288565D01*
X211493465Y-72319507D01*
X211495000Y-72350750D01*
X211495000Y-72988250D01*
X211493465Y-73019493D01*
X211488875Y-73050435D01*
X211481275Y-73080778D01*
X211470737Y-73110230D01*
X211457362Y-73138508D01*
X211441281Y-73165338D01*
X211422647Y-73190463D01*
X211401640Y-73213640D01*
X211378463Y-73234647D01*
X211353338Y-73253281D01*
X211326508Y-73269362D01*
X211298230Y-73282737D01*
X211268778Y-73293275D01*
X211238435Y-73300875D01*
X211207493Y-73305465D01*
X211176250Y-73307000D01*
X210463750Y-73307000D01*
X210432507Y-73305465D01*
X210401565Y-73300875D01*
X210371222Y-73293275D01*
X210341770Y-73282737D01*
X210313492Y-73269362D01*
X210286662Y-73253281D01*
X210261537Y-73234647D01*
X210238360Y-73213640D01*
X210217353Y-73190463D01*
X210198719Y-73165338D01*
X210182638Y-73138508D01*
X210169263Y-73110230D01*
X210158725Y-73080778D01*
X210151125Y-73050435D01*
X210146535Y-73019493D01*
X210145000Y-72988250D01*
X210145000Y-72350750D01*
X210146535Y-72319507D01*
X210151125Y-72288565D01*
X210158725Y-72258222D01*
X210169263Y-72228770D01*
X210182638Y-72200492D01*
X210198719Y-72173662D01*
X210217353Y-72148537D01*
X210238360Y-72125360D01*
X210261537Y-72104353D01*
X210286662Y-72085719D01*
X210313492Y-72069638D01*
X210341770Y-72056263D01*
X210371222Y-72045725D01*
X210401565Y-72038125D01*
X210432507Y-72033535D01*
X210463750Y-72032000D01*
X211176250Y-72032000D01*
X211207493Y-72033535D01*
X211207493Y-72033535D01*
G37*
D12*
X210820000Y-72669500D03*
D11*
G36*
X211207493Y-70458535D02*
X211238435Y-70463125D01*
X211268778Y-70470725D01*
X211298230Y-70481263D01*
X211326508Y-70494638D01*
X211353338Y-70510719D01*
X211378463Y-70529353D01*
X211401640Y-70550360D01*
X211422647Y-70573537D01*
X211441281Y-70598662D01*
X211457362Y-70625492D01*
X211470737Y-70653770D01*
X211481275Y-70683222D01*
X211488875Y-70713565D01*
X211493465Y-70744507D01*
X211495000Y-70775750D01*
X211495000Y-71413250D01*
X211493465Y-71444493D01*
X211488875Y-71475435D01*
X211481275Y-71505778D01*
X211470737Y-71535230D01*
X211457362Y-71563508D01*
X211441281Y-71590338D01*
X211422647Y-71615463D01*
X211401640Y-71638640D01*
X211378463Y-71659647D01*
X211353338Y-71678281D01*
X211326508Y-71694362D01*
X211298230Y-71707737D01*
X211268778Y-71718275D01*
X211238435Y-71725875D01*
X211207493Y-71730465D01*
X211176250Y-71732000D01*
X210463750Y-71732000D01*
X210432507Y-71730465D01*
X210401565Y-71725875D01*
X210371222Y-71718275D01*
X210341770Y-71707737D01*
X210313492Y-71694362D01*
X210286662Y-71678281D01*
X210261537Y-71659647D01*
X210238360Y-71638640D01*
X210217353Y-71615463D01*
X210198719Y-71590338D01*
X210182638Y-71563508D01*
X210169263Y-71535230D01*
X210158725Y-71505778D01*
X210151125Y-71475435D01*
X210146535Y-71444493D01*
X210145000Y-71413250D01*
X210145000Y-70775750D01*
X210146535Y-70744507D01*
X210151125Y-70713565D01*
X210158725Y-70683222D01*
X210169263Y-70653770D01*
X210182638Y-70625492D01*
X210198719Y-70598662D01*
X210217353Y-70573537D01*
X210238360Y-70550360D01*
X210261537Y-70529353D01*
X210286662Y-70510719D01*
X210313492Y-70494638D01*
X210341770Y-70481263D01*
X210371222Y-70470725D01*
X210401565Y-70463125D01*
X210432507Y-70458535D01*
X210463750Y-70457000D01*
X211176250Y-70457000D01*
X211207493Y-70458535D01*
X211207493Y-70458535D01*
G37*
D12*
X210820000Y-71094500D03*
G04 #@! TD*
D11*
G04 #@! TO.C,C31*
G36*
X195726993Y-50380535D02*
X195757935Y-50385125D01*
X195788278Y-50392725D01*
X195817730Y-50403263D01*
X195846008Y-50416638D01*
X195872838Y-50432719D01*
X195897963Y-50451353D01*
X195921140Y-50472360D01*
X195942147Y-50495537D01*
X195960781Y-50520662D01*
X195976862Y-50547492D01*
X195990237Y-50575770D01*
X196000775Y-50605222D01*
X196008375Y-50635565D01*
X196012965Y-50666507D01*
X196014500Y-50697750D01*
X196014500Y-51410250D01*
X196012965Y-51441493D01*
X196008375Y-51472435D01*
X196000775Y-51502778D01*
X195990237Y-51532230D01*
X195976862Y-51560508D01*
X195960781Y-51587338D01*
X195942147Y-51612463D01*
X195921140Y-51635640D01*
X195897963Y-51656647D01*
X195872838Y-51675281D01*
X195846008Y-51691362D01*
X195817730Y-51704737D01*
X195788278Y-51715275D01*
X195757935Y-51722875D01*
X195726993Y-51727465D01*
X195695750Y-51729000D01*
X195058250Y-51729000D01*
X195027007Y-51727465D01*
X194996065Y-51722875D01*
X194965722Y-51715275D01*
X194936270Y-51704737D01*
X194907992Y-51691362D01*
X194881162Y-51675281D01*
X194856037Y-51656647D01*
X194832860Y-51635640D01*
X194811853Y-51612463D01*
X194793219Y-51587338D01*
X194777138Y-51560508D01*
X194763763Y-51532230D01*
X194753225Y-51502778D01*
X194745625Y-51472435D01*
X194741035Y-51441493D01*
X194739500Y-51410250D01*
X194739500Y-50697750D01*
X194741035Y-50666507D01*
X194745625Y-50635565D01*
X194753225Y-50605222D01*
X194763763Y-50575770D01*
X194777138Y-50547492D01*
X194793219Y-50520662D01*
X194811853Y-50495537D01*
X194832860Y-50472360D01*
X194856037Y-50451353D01*
X194881162Y-50432719D01*
X194907992Y-50416638D01*
X194936270Y-50403263D01*
X194965722Y-50392725D01*
X194996065Y-50385125D01*
X195027007Y-50380535D01*
X195058250Y-50379000D01*
X195695750Y-50379000D01*
X195726993Y-50380535D01*
X195726993Y-50380535D01*
G37*
D12*
X195377000Y-51054000D03*
D11*
G36*
X194151993Y-50380535D02*
X194182935Y-50385125D01*
X194213278Y-50392725D01*
X194242730Y-50403263D01*
X194271008Y-50416638D01*
X194297838Y-50432719D01*
X194322963Y-50451353D01*
X194346140Y-50472360D01*
X194367147Y-50495537D01*
X194385781Y-50520662D01*
X194401862Y-50547492D01*
X194415237Y-50575770D01*
X194425775Y-50605222D01*
X194433375Y-50635565D01*
X194437965Y-50666507D01*
X194439500Y-50697750D01*
X194439500Y-51410250D01*
X194437965Y-51441493D01*
X194433375Y-51472435D01*
X194425775Y-51502778D01*
X194415237Y-51532230D01*
X194401862Y-51560508D01*
X194385781Y-51587338D01*
X194367147Y-51612463D01*
X194346140Y-51635640D01*
X194322963Y-51656647D01*
X194297838Y-51675281D01*
X194271008Y-51691362D01*
X194242730Y-51704737D01*
X194213278Y-51715275D01*
X194182935Y-51722875D01*
X194151993Y-51727465D01*
X194120750Y-51729000D01*
X193483250Y-51729000D01*
X193452007Y-51727465D01*
X193421065Y-51722875D01*
X193390722Y-51715275D01*
X193361270Y-51704737D01*
X193332992Y-51691362D01*
X193306162Y-51675281D01*
X193281037Y-51656647D01*
X193257860Y-51635640D01*
X193236853Y-51612463D01*
X193218219Y-51587338D01*
X193202138Y-51560508D01*
X193188763Y-51532230D01*
X193178225Y-51502778D01*
X193170625Y-51472435D01*
X193166035Y-51441493D01*
X193164500Y-51410250D01*
X193164500Y-50697750D01*
X193166035Y-50666507D01*
X193170625Y-50635565D01*
X193178225Y-50605222D01*
X193188763Y-50575770D01*
X193202138Y-50547492D01*
X193218219Y-50520662D01*
X193236853Y-50495537D01*
X193257860Y-50472360D01*
X193281037Y-50451353D01*
X193306162Y-50432719D01*
X193332992Y-50416638D01*
X193361270Y-50403263D01*
X193390722Y-50392725D01*
X193421065Y-50385125D01*
X193452007Y-50380535D01*
X193483250Y-50379000D01*
X194120750Y-50379000D01*
X194151993Y-50380535D01*
X194151993Y-50380535D01*
G37*
D12*
X193802000Y-51054000D03*
G04 #@! TD*
D11*
G04 #@! TO.C,C33*
G36*
X188072264Y-42667768D02*
X188103206Y-42672358D01*
X188133549Y-42679958D01*
X188163001Y-42690496D01*
X188191279Y-42703871D01*
X188218109Y-42719952D01*
X188243234Y-42738586D01*
X188266411Y-42759593D01*
X188287418Y-42782770D01*
X188306052Y-42807895D01*
X188322133Y-42834725D01*
X188335508Y-42863003D01*
X188346046Y-42892455D01*
X188353646Y-42922798D01*
X188358236Y-42953740D01*
X188359771Y-42984983D01*
X188359771Y-43622483D01*
X188358236Y-43653726D01*
X188353646Y-43684668D01*
X188346046Y-43715011D01*
X188335508Y-43744463D01*
X188322133Y-43772741D01*
X188306052Y-43799571D01*
X188287418Y-43824696D01*
X188266411Y-43847873D01*
X188243234Y-43868880D01*
X188218109Y-43887514D01*
X188191279Y-43903595D01*
X188163001Y-43916970D01*
X188133549Y-43927508D01*
X188103206Y-43935108D01*
X188072264Y-43939698D01*
X188041021Y-43941233D01*
X187328521Y-43941233D01*
X187297278Y-43939698D01*
X187266336Y-43935108D01*
X187235993Y-43927508D01*
X187206541Y-43916970D01*
X187178263Y-43903595D01*
X187151433Y-43887514D01*
X187126308Y-43868880D01*
X187103131Y-43847873D01*
X187082124Y-43824696D01*
X187063490Y-43799571D01*
X187047409Y-43772741D01*
X187034034Y-43744463D01*
X187023496Y-43715011D01*
X187015896Y-43684668D01*
X187011306Y-43653726D01*
X187009771Y-43622483D01*
X187009771Y-42984983D01*
X187011306Y-42953740D01*
X187015896Y-42922798D01*
X187023496Y-42892455D01*
X187034034Y-42863003D01*
X187047409Y-42834725D01*
X187063490Y-42807895D01*
X187082124Y-42782770D01*
X187103131Y-42759593D01*
X187126308Y-42738586D01*
X187151433Y-42719952D01*
X187178263Y-42703871D01*
X187206541Y-42690496D01*
X187235993Y-42679958D01*
X187266336Y-42672358D01*
X187297278Y-42667768D01*
X187328521Y-42666233D01*
X188041021Y-42666233D01*
X188072264Y-42667768D01*
X188072264Y-42667768D01*
G37*
D12*
X187684771Y-43303733D03*
D11*
G36*
X188072264Y-44242768D02*
X188103206Y-44247358D01*
X188133549Y-44254958D01*
X188163001Y-44265496D01*
X188191279Y-44278871D01*
X188218109Y-44294952D01*
X188243234Y-44313586D01*
X188266411Y-44334593D01*
X188287418Y-44357770D01*
X188306052Y-44382895D01*
X188322133Y-44409725D01*
X188335508Y-44438003D01*
X188346046Y-44467455D01*
X188353646Y-44497798D01*
X188358236Y-44528740D01*
X188359771Y-44559983D01*
X188359771Y-45197483D01*
X188358236Y-45228726D01*
X188353646Y-45259668D01*
X188346046Y-45290011D01*
X188335508Y-45319463D01*
X188322133Y-45347741D01*
X188306052Y-45374571D01*
X188287418Y-45399696D01*
X188266411Y-45422873D01*
X188243234Y-45443880D01*
X188218109Y-45462514D01*
X188191279Y-45478595D01*
X188163001Y-45491970D01*
X188133549Y-45502508D01*
X188103206Y-45510108D01*
X188072264Y-45514698D01*
X188041021Y-45516233D01*
X187328521Y-45516233D01*
X187297278Y-45514698D01*
X187266336Y-45510108D01*
X187235993Y-45502508D01*
X187206541Y-45491970D01*
X187178263Y-45478595D01*
X187151433Y-45462514D01*
X187126308Y-45443880D01*
X187103131Y-45422873D01*
X187082124Y-45399696D01*
X187063490Y-45374571D01*
X187047409Y-45347741D01*
X187034034Y-45319463D01*
X187023496Y-45290011D01*
X187015896Y-45259668D01*
X187011306Y-45228726D01*
X187009771Y-45197483D01*
X187009771Y-44559983D01*
X187011306Y-44528740D01*
X187015896Y-44497798D01*
X187023496Y-44467455D01*
X187034034Y-44438003D01*
X187047409Y-44409725D01*
X187063490Y-44382895D01*
X187082124Y-44357770D01*
X187103131Y-44334593D01*
X187126308Y-44313586D01*
X187151433Y-44294952D01*
X187178263Y-44278871D01*
X187206541Y-44265496D01*
X187235993Y-44254958D01*
X187266336Y-44247358D01*
X187297278Y-44242768D01*
X187328521Y-44241233D01*
X188041021Y-44241233D01*
X188072264Y-44242768D01*
X188072264Y-44242768D01*
G37*
D12*
X187684771Y-44878733D03*
G04 #@! TD*
D11*
G04 #@! TO.C,C36*
G36*
X198952493Y-35140535D02*
X198983435Y-35145125D01*
X199013778Y-35152725D01*
X199043230Y-35163263D01*
X199071508Y-35176638D01*
X199098338Y-35192719D01*
X199123463Y-35211353D01*
X199146640Y-35232360D01*
X199167647Y-35255537D01*
X199186281Y-35280662D01*
X199202362Y-35307492D01*
X199215737Y-35335770D01*
X199226275Y-35365222D01*
X199233875Y-35395565D01*
X199238465Y-35426507D01*
X199240000Y-35457750D01*
X199240000Y-36170250D01*
X199238465Y-36201493D01*
X199233875Y-36232435D01*
X199226275Y-36262778D01*
X199215737Y-36292230D01*
X199202362Y-36320508D01*
X199186281Y-36347338D01*
X199167647Y-36372463D01*
X199146640Y-36395640D01*
X199123463Y-36416647D01*
X199098338Y-36435281D01*
X199071508Y-36451362D01*
X199043230Y-36464737D01*
X199013778Y-36475275D01*
X198983435Y-36482875D01*
X198952493Y-36487465D01*
X198921250Y-36489000D01*
X198283750Y-36489000D01*
X198252507Y-36487465D01*
X198221565Y-36482875D01*
X198191222Y-36475275D01*
X198161770Y-36464737D01*
X198133492Y-36451362D01*
X198106662Y-36435281D01*
X198081537Y-36416647D01*
X198058360Y-36395640D01*
X198037353Y-36372463D01*
X198018719Y-36347338D01*
X198002638Y-36320508D01*
X197989263Y-36292230D01*
X197978725Y-36262778D01*
X197971125Y-36232435D01*
X197966535Y-36201493D01*
X197965000Y-36170250D01*
X197965000Y-35457750D01*
X197966535Y-35426507D01*
X197971125Y-35395565D01*
X197978725Y-35365222D01*
X197989263Y-35335770D01*
X198002638Y-35307492D01*
X198018719Y-35280662D01*
X198037353Y-35255537D01*
X198058360Y-35232360D01*
X198081537Y-35211353D01*
X198106662Y-35192719D01*
X198133492Y-35176638D01*
X198161770Y-35163263D01*
X198191222Y-35152725D01*
X198221565Y-35145125D01*
X198252507Y-35140535D01*
X198283750Y-35139000D01*
X198921250Y-35139000D01*
X198952493Y-35140535D01*
X198952493Y-35140535D01*
G37*
D12*
X198602500Y-35814000D03*
D11*
G36*
X200527493Y-35140535D02*
X200558435Y-35145125D01*
X200588778Y-35152725D01*
X200618230Y-35163263D01*
X200646508Y-35176638D01*
X200673338Y-35192719D01*
X200698463Y-35211353D01*
X200721640Y-35232360D01*
X200742647Y-35255537D01*
X200761281Y-35280662D01*
X200777362Y-35307492D01*
X200790737Y-35335770D01*
X200801275Y-35365222D01*
X200808875Y-35395565D01*
X200813465Y-35426507D01*
X200815000Y-35457750D01*
X200815000Y-36170250D01*
X200813465Y-36201493D01*
X200808875Y-36232435D01*
X200801275Y-36262778D01*
X200790737Y-36292230D01*
X200777362Y-36320508D01*
X200761281Y-36347338D01*
X200742647Y-36372463D01*
X200721640Y-36395640D01*
X200698463Y-36416647D01*
X200673338Y-36435281D01*
X200646508Y-36451362D01*
X200618230Y-36464737D01*
X200588778Y-36475275D01*
X200558435Y-36482875D01*
X200527493Y-36487465D01*
X200496250Y-36489000D01*
X199858750Y-36489000D01*
X199827507Y-36487465D01*
X199796565Y-36482875D01*
X199766222Y-36475275D01*
X199736770Y-36464737D01*
X199708492Y-36451362D01*
X199681662Y-36435281D01*
X199656537Y-36416647D01*
X199633360Y-36395640D01*
X199612353Y-36372463D01*
X199593719Y-36347338D01*
X199577638Y-36320508D01*
X199564263Y-36292230D01*
X199553725Y-36262778D01*
X199546125Y-36232435D01*
X199541535Y-36201493D01*
X199540000Y-36170250D01*
X199540000Y-35457750D01*
X199541535Y-35426507D01*
X199546125Y-35395565D01*
X199553725Y-35365222D01*
X199564263Y-35335770D01*
X199577638Y-35307492D01*
X199593719Y-35280662D01*
X199612353Y-35255537D01*
X199633360Y-35232360D01*
X199656537Y-35211353D01*
X199681662Y-35192719D01*
X199708492Y-35176638D01*
X199736770Y-35163263D01*
X199766222Y-35152725D01*
X199796565Y-35145125D01*
X199827507Y-35140535D01*
X199858750Y-35139000D01*
X200496250Y-35139000D01*
X200527493Y-35140535D01*
X200527493Y-35140535D01*
G37*
D12*
X200177500Y-35814000D03*
G04 #@! TD*
D11*
G04 #@! TO.C,C40*
G36*
X210699493Y-35178035D02*
X210730435Y-35182625D01*
X210760778Y-35190225D01*
X210790230Y-35200763D01*
X210818508Y-35214138D01*
X210845338Y-35230219D01*
X210870463Y-35248853D01*
X210893640Y-35269860D01*
X210914647Y-35293037D01*
X210933281Y-35318162D01*
X210949362Y-35344992D01*
X210962737Y-35373270D01*
X210973275Y-35402722D01*
X210980875Y-35433065D01*
X210985465Y-35464007D01*
X210987000Y-35495250D01*
X210987000Y-36132750D01*
X210985465Y-36163993D01*
X210980875Y-36194935D01*
X210973275Y-36225278D01*
X210962737Y-36254730D01*
X210949362Y-36283008D01*
X210933281Y-36309838D01*
X210914647Y-36334963D01*
X210893640Y-36358140D01*
X210870463Y-36379147D01*
X210845338Y-36397781D01*
X210818508Y-36413862D01*
X210790230Y-36427237D01*
X210760778Y-36437775D01*
X210730435Y-36445375D01*
X210699493Y-36449965D01*
X210668250Y-36451500D01*
X209955750Y-36451500D01*
X209924507Y-36449965D01*
X209893565Y-36445375D01*
X209863222Y-36437775D01*
X209833770Y-36427237D01*
X209805492Y-36413862D01*
X209778662Y-36397781D01*
X209753537Y-36379147D01*
X209730360Y-36358140D01*
X209709353Y-36334963D01*
X209690719Y-36309838D01*
X209674638Y-36283008D01*
X209661263Y-36254730D01*
X209650725Y-36225278D01*
X209643125Y-36194935D01*
X209638535Y-36163993D01*
X209637000Y-36132750D01*
X209637000Y-35495250D01*
X209638535Y-35464007D01*
X209643125Y-35433065D01*
X209650725Y-35402722D01*
X209661263Y-35373270D01*
X209674638Y-35344992D01*
X209690719Y-35318162D01*
X209709353Y-35293037D01*
X209730360Y-35269860D01*
X209753537Y-35248853D01*
X209778662Y-35230219D01*
X209805492Y-35214138D01*
X209833770Y-35200763D01*
X209863222Y-35190225D01*
X209893565Y-35182625D01*
X209924507Y-35178035D01*
X209955750Y-35176500D01*
X210668250Y-35176500D01*
X210699493Y-35178035D01*
X210699493Y-35178035D01*
G37*
D12*
X210312000Y-35814000D03*
D11*
G36*
X210699493Y-33603035D02*
X210730435Y-33607625D01*
X210760778Y-33615225D01*
X210790230Y-33625763D01*
X210818508Y-33639138D01*
X210845338Y-33655219D01*
X210870463Y-33673853D01*
X210893640Y-33694860D01*
X210914647Y-33718037D01*
X210933281Y-33743162D01*
X210949362Y-33769992D01*
X210962737Y-33798270D01*
X210973275Y-33827722D01*
X210980875Y-33858065D01*
X210985465Y-33889007D01*
X210987000Y-33920250D01*
X210987000Y-34557750D01*
X210985465Y-34588993D01*
X210980875Y-34619935D01*
X210973275Y-34650278D01*
X210962737Y-34679730D01*
X210949362Y-34708008D01*
X210933281Y-34734838D01*
X210914647Y-34759963D01*
X210893640Y-34783140D01*
X210870463Y-34804147D01*
X210845338Y-34822781D01*
X210818508Y-34838862D01*
X210790230Y-34852237D01*
X210760778Y-34862775D01*
X210730435Y-34870375D01*
X210699493Y-34874965D01*
X210668250Y-34876500D01*
X209955750Y-34876500D01*
X209924507Y-34874965D01*
X209893565Y-34870375D01*
X209863222Y-34862775D01*
X209833770Y-34852237D01*
X209805492Y-34838862D01*
X209778662Y-34822781D01*
X209753537Y-34804147D01*
X209730360Y-34783140D01*
X209709353Y-34759963D01*
X209690719Y-34734838D01*
X209674638Y-34708008D01*
X209661263Y-34679730D01*
X209650725Y-34650278D01*
X209643125Y-34619935D01*
X209638535Y-34588993D01*
X209637000Y-34557750D01*
X209637000Y-33920250D01*
X209638535Y-33889007D01*
X209643125Y-33858065D01*
X209650725Y-33827722D01*
X209661263Y-33798270D01*
X209674638Y-33769992D01*
X209690719Y-33743162D01*
X209709353Y-33718037D01*
X209730360Y-33694860D01*
X209753537Y-33673853D01*
X209778662Y-33655219D01*
X209805492Y-33639138D01*
X209833770Y-33625763D01*
X209863222Y-33615225D01*
X209893565Y-33607625D01*
X209924507Y-33603035D01*
X209955750Y-33601500D01*
X210668250Y-33601500D01*
X210699493Y-33603035D01*
X210699493Y-33603035D01*
G37*
D12*
X210312000Y-34239000D03*
G04 #@! TD*
D11*
G04 #@! TO.C,R1*
G36*
X185795493Y-30314535D02*
X185826435Y-30319125D01*
X185856778Y-30326725D01*
X185886230Y-30337263D01*
X185914508Y-30350638D01*
X185941338Y-30366719D01*
X185966463Y-30385353D01*
X185989640Y-30406360D01*
X186010647Y-30429537D01*
X186029281Y-30454662D01*
X186045362Y-30481492D01*
X186058737Y-30509770D01*
X186069275Y-30539222D01*
X186076875Y-30569565D01*
X186081465Y-30600507D01*
X186083000Y-30631750D01*
X186083000Y-31344250D01*
X186081465Y-31375493D01*
X186076875Y-31406435D01*
X186069275Y-31436778D01*
X186058737Y-31466230D01*
X186045362Y-31494508D01*
X186029281Y-31521338D01*
X186010647Y-31546463D01*
X185989640Y-31569640D01*
X185966463Y-31590647D01*
X185941338Y-31609281D01*
X185914508Y-31625362D01*
X185886230Y-31638737D01*
X185856778Y-31649275D01*
X185826435Y-31656875D01*
X185795493Y-31661465D01*
X185764250Y-31663000D01*
X185126750Y-31663000D01*
X185095507Y-31661465D01*
X185064565Y-31656875D01*
X185034222Y-31649275D01*
X185004770Y-31638737D01*
X184976492Y-31625362D01*
X184949662Y-31609281D01*
X184924537Y-31590647D01*
X184901360Y-31569640D01*
X184880353Y-31546463D01*
X184861719Y-31521338D01*
X184845638Y-31494508D01*
X184832263Y-31466230D01*
X184821725Y-31436778D01*
X184814125Y-31406435D01*
X184809535Y-31375493D01*
X184808000Y-31344250D01*
X184808000Y-30631750D01*
X184809535Y-30600507D01*
X184814125Y-30569565D01*
X184821725Y-30539222D01*
X184832263Y-30509770D01*
X184845638Y-30481492D01*
X184861719Y-30454662D01*
X184880353Y-30429537D01*
X184901360Y-30406360D01*
X184924537Y-30385353D01*
X184949662Y-30366719D01*
X184976492Y-30350638D01*
X185004770Y-30337263D01*
X185034222Y-30326725D01*
X185064565Y-30319125D01*
X185095507Y-30314535D01*
X185126750Y-30313000D01*
X185764250Y-30313000D01*
X185795493Y-30314535D01*
X185795493Y-30314535D01*
G37*
D12*
X185445500Y-30988000D03*
D11*
G36*
X184220493Y-30314535D02*
X184251435Y-30319125D01*
X184281778Y-30326725D01*
X184311230Y-30337263D01*
X184339508Y-30350638D01*
X184366338Y-30366719D01*
X184391463Y-30385353D01*
X184414640Y-30406360D01*
X184435647Y-30429537D01*
X184454281Y-30454662D01*
X184470362Y-30481492D01*
X184483737Y-30509770D01*
X184494275Y-30539222D01*
X184501875Y-30569565D01*
X184506465Y-30600507D01*
X184508000Y-30631750D01*
X184508000Y-31344250D01*
X184506465Y-31375493D01*
X184501875Y-31406435D01*
X184494275Y-31436778D01*
X184483737Y-31466230D01*
X184470362Y-31494508D01*
X184454281Y-31521338D01*
X184435647Y-31546463D01*
X184414640Y-31569640D01*
X184391463Y-31590647D01*
X184366338Y-31609281D01*
X184339508Y-31625362D01*
X184311230Y-31638737D01*
X184281778Y-31649275D01*
X184251435Y-31656875D01*
X184220493Y-31661465D01*
X184189250Y-31663000D01*
X183551750Y-31663000D01*
X183520507Y-31661465D01*
X183489565Y-31656875D01*
X183459222Y-31649275D01*
X183429770Y-31638737D01*
X183401492Y-31625362D01*
X183374662Y-31609281D01*
X183349537Y-31590647D01*
X183326360Y-31569640D01*
X183305353Y-31546463D01*
X183286719Y-31521338D01*
X183270638Y-31494508D01*
X183257263Y-31466230D01*
X183246725Y-31436778D01*
X183239125Y-31406435D01*
X183234535Y-31375493D01*
X183233000Y-31344250D01*
X183233000Y-30631750D01*
X183234535Y-30600507D01*
X183239125Y-30569565D01*
X183246725Y-30539222D01*
X183257263Y-30509770D01*
X183270638Y-30481492D01*
X183286719Y-30454662D01*
X183305353Y-30429537D01*
X183326360Y-30406360D01*
X183349537Y-30385353D01*
X183374662Y-30366719D01*
X183401492Y-30350638D01*
X183429770Y-30337263D01*
X183459222Y-30326725D01*
X183489565Y-30319125D01*
X183520507Y-30314535D01*
X183551750Y-30313000D01*
X184189250Y-30313000D01*
X184220493Y-30314535D01*
X184220493Y-30314535D01*
G37*
D12*
X183870500Y-30988000D03*
G04 #@! TD*
D11*
G04 #@! TO.C,R2*
G36*
X184728493Y-67398535D02*
X184759435Y-67403125D01*
X184789778Y-67410725D01*
X184819230Y-67421263D01*
X184847508Y-67434638D01*
X184874338Y-67450719D01*
X184899463Y-67469353D01*
X184922640Y-67490360D01*
X184943647Y-67513537D01*
X184962281Y-67538662D01*
X184978362Y-67565492D01*
X184991737Y-67593770D01*
X185002275Y-67623222D01*
X185009875Y-67653565D01*
X185014465Y-67684507D01*
X185016000Y-67715750D01*
X185016000Y-68428250D01*
X185014465Y-68459493D01*
X185009875Y-68490435D01*
X185002275Y-68520778D01*
X184991737Y-68550230D01*
X184978362Y-68578508D01*
X184962281Y-68605338D01*
X184943647Y-68630463D01*
X184922640Y-68653640D01*
X184899463Y-68674647D01*
X184874338Y-68693281D01*
X184847508Y-68709362D01*
X184819230Y-68722737D01*
X184789778Y-68733275D01*
X184759435Y-68740875D01*
X184728493Y-68745465D01*
X184697250Y-68747000D01*
X184059750Y-68747000D01*
X184028507Y-68745465D01*
X183997565Y-68740875D01*
X183967222Y-68733275D01*
X183937770Y-68722737D01*
X183909492Y-68709362D01*
X183882662Y-68693281D01*
X183857537Y-68674647D01*
X183834360Y-68653640D01*
X183813353Y-68630463D01*
X183794719Y-68605338D01*
X183778638Y-68578508D01*
X183765263Y-68550230D01*
X183754725Y-68520778D01*
X183747125Y-68490435D01*
X183742535Y-68459493D01*
X183741000Y-68428250D01*
X183741000Y-67715750D01*
X183742535Y-67684507D01*
X183747125Y-67653565D01*
X183754725Y-67623222D01*
X183765263Y-67593770D01*
X183778638Y-67565492D01*
X183794719Y-67538662D01*
X183813353Y-67513537D01*
X183834360Y-67490360D01*
X183857537Y-67469353D01*
X183882662Y-67450719D01*
X183909492Y-67434638D01*
X183937770Y-67421263D01*
X183967222Y-67410725D01*
X183997565Y-67403125D01*
X184028507Y-67398535D01*
X184059750Y-67397000D01*
X184697250Y-67397000D01*
X184728493Y-67398535D01*
X184728493Y-67398535D01*
G37*
D12*
X184378500Y-68072000D03*
D11*
G36*
X186303493Y-67398535D02*
X186334435Y-67403125D01*
X186364778Y-67410725D01*
X186394230Y-67421263D01*
X186422508Y-67434638D01*
X186449338Y-67450719D01*
X186474463Y-67469353D01*
X186497640Y-67490360D01*
X186518647Y-67513537D01*
X186537281Y-67538662D01*
X186553362Y-67565492D01*
X186566737Y-67593770D01*
X186577275Y-67623222D01*
X186584875Y-67653565D01*
X186589465Y-67684507D01*
X186591000Y-67715750D01*
X186591000Y-68428250D01*
X186589465Y-68459493D01*
X186584875Y-68490435D01*
X186577275Y-68520778D01*
X186566737Y-68550230D01*
X186553362Y-68578508D01*
X186537281Y-68605338D01*
X186518647Y-68630463D01*
X186497640Y-68653640D01*
X186474463Y-68674647D01*
X186449338Y-68693281D01*
X186422508Y-68709362D01*
X186394230Y-68722737D01*
X186364778Y-68733275D01*
X186334435Y-68740875D01*
X186303493Y-68745465D01*
X186272250Y-68747000D01*
X185634750Y-68747000D01*
X185603507Y-68745465D01*
X185572565Y-68740875D01*
X185542222Y-68733275D01*
X185512770Y-68722737D01*
X185484492Y-68709362D01*
X185457662Y-68693281D01*
X185432537Y-68674647D01*
X185409360Y-68653640D01*
X185388353Y-68630463D01*
X185369719Y-68605338D01*
X185353638Y-68578508D01*
X185340263Y-68550230D01*
X185329725Y-68520778D01*
X185322125Y-68490435D01*
X185317535Y-68459493D01*
X185316000Y-68428250D01*
X185316000Y-67715750D01*
X185317535Y-67684507D01*
X185322125Y-67653565D01*
X185329725Y-67623222D01*
X185340263Y-67593770D01*
X185353638Y-67565492D01*
X185369719Y-67538662D01*
X185388353Y-67513537D01*
X185409360Y-67490360D01*
X185432537Y-67469353D01*
X185457662Y-67450719D01*
X185484492Y-67434638D01*
X185512770Y-67421263D01*
X185542222Y-67410725D01*
X185572565Y-67403125D01*
X185603507Y-67398535D01*
X185634750Y-67397000D01*
X186272250Y-67397000D01*
X186303493Y-67398535D01*
X186303493Y-67398535D01*
G37*
D12*
X185953500Y-68072000D03*
G04 #@! TD*
D11*
G04 #@! TO.C,R3*
G36*
X191078493Y-38696535D02*
X191109435Y-38701125D01*
X191139778Y-38708725D01*
X191169230Y-38719263D01*
X191197508Y-38732638D01*
X191224338Y-38748719D01*
X191249463Y-38767353D01*
X191272640Y-38788360D01*
X191293647Y-38811537D01*
X191312281Y-38836662D01*
X191328362Y-38863492D01*
X191341737Y-38891770D01*
X191352275Y-38921222D01*
X191359875Y-38951565D01*
X191364465Y-38982507D01*
X191366000Y-39013750D01*
X191366000Y-39726250D01*
X191364465Y-39757493D01*
X191359875Y-39788435D01*
X191352275Y-39818778D01*
X191341737Y-39848230D01*
X191328362Y-39876508D01*
X191312281Y-39903338D01*
X191293647Y-39928463D01*
X191272640Y-39951640D01*
X191249463Y-39972647D01*
X191224338Y-39991281D01*
X191197508Y-40007362D01*
X191169230Y-40020737D01*
X191139778Y-40031275D01*
X191109435Y-40038875D01*
X191078493Y-40043465D01*
X191047250Y-40045000D01*
X190409750Y-40045000D01*
X190378507Y-40043465D01*
X190347565Y-40038875D01*
X190317222Y-40031275D01*
X190287770Y-40020737D01*
X190259492Y-40007362D01*
X190232662Y-39991281D01*
X190207537Y-39972647D01*
X190184360Y-39951640D01*
X190163353Y-39928463D01*
X190144719Y-39903338D01*
X190128638Y-39876508D01*
X190115263Y-39848230D01*
X190104725Y-39818778D01*
X190097125Y-39788435D01*
X190092535Y-39757493D01*
X190091000Y-39726250D01*
X190091000Y-39013750D01*
X190092535Y-38982507D01*
X190097125Y-38951565D01*
X190104725Y-38921222D01*
X190115263Y-38891770D01*
X190128638Y-38863492D01*
X190144719Y-38836662D01*
X190163353Y-38811537D01*
X190184360Y-38788360D01*
X190207537Y-38767353D01*
X190232662Y-38748719D01*
X190259492Y-38732638D01*
X190287770Y-38719263D01*
X190317222Y-38708725D01*
X190347565Y-38701125D01*
X190378507Y-38696535D01*
X190409750Y-38695000D01*
X191047250Y-38695000D01*
X191078493Y-38696535D01*
X191078493Y-38696535D01*
G37*
D12*
X190728500Y-39370000D03*
D11*
G36*
X192653493Y-38696535D02*
X192684435Y-38701125D01*
X192714778Y-38708725D01*
X192744230Y-38719263D01*
X192772508Y-38732638D01*
X192799338Y-38748719D01*
X192824463Y-38767353D01*
X192847640Y-38788360D01*
X192868647Y-38811537D01*
X192887281Y-38836662D01*
X192903362Y-38863492D01*
X192916737Y-38891770D01*
X192927275Y-38921222D01*
X192934875Y-38951565D01*
X192939465Y-38982507D01*
X192941000Y-39013750D01*
X192941000Y-39726250D01*
X192939465Y-39757493D01*
X192934875Y-39788435D01*
X192927275Y-39818778D01*
X192916737Y-39848230D01*
X192903362Y-39876508D01*
X192887281Y-39903338D01*
X192868647Y-39928463D01*
X192847640Y-39951640D01*
X192824463Y-39972647D01*
X192799338Y-39991281D01*
X192772508Y-40007362D01*
X192744230Y-40020737D01*
X192714778Y-40031275D01*
X192684435Y-40038875D01*
X192653493Y-40043465D01*
X192622250Y-40045000D01*
X191984750Y-40045000D01*
X191953507Y-40043465D01*
X191922565Y-40038875D01*
X191892222Y-40031275D01*
X191862770Y-40020737D01*
X191834492Y-40007362D01*
X191807662Y-39991281D01*
X191782537Y-39972647D01*
X191759360Y-39951640D01*
X191738353Y-39928463D01*
X191719719Y-39903338D01*
X191703638Y-39876508D01*
X191690263Y-39848230D01*
X191679725Y-39818778D01*
X191672125Y-39788435D01*
X191667535Y-39757493D01*
X191666000Y-39726250D01*
X191666000Y-39013750D01*
X191667535Y-38982507D01*
X191672125Y-38951565D01*
X191679725Y-38921222D01*
X191690263Y-38891770D01*
X191703638Y-38863492D01*
X191719719Y-38836662D01*
X191738353Y-38811537D01*
X191759360Y-38788360D01*
X191782537Y-38767353D01*
X191807662Y-38748719D01*
X191834492Y-38732638D01*
X191862770Y-38719263D01*
X191892222Y-38708725D01*
X191922565Y-38701125D01*
X191953507Y-38696535D01*
X191984750Y-38695000D01*
X192622250Y-38695000D01*
X192653493Y-38696535D01*
X192653493Y-38696535D01*
G37*
D12*
X192303500Y-39370000D03*
G04 #@! TD*
D11*
G04 #@! TO.C,R4*
G36*
X191586493Y-72732535D02*
X191617435Y-72737125D01*
X191647778Y-72744725D01*
X191677230Y-72755263D01*
X191705508Y-72768638D01*
X191732338Y-72784719D01*
X191757463Y-72803353D01*
X191780640Y-72824360D01*
X191801647Y-72847537D01*
X191820281Y-72872662D01*
X191836362Y-72899492D01*
X191849737Y-72927770D01*
X191860275Y-72957222D01*
X191867875Y-72987565D01*
X191872465Y-73018507D01*
X191874000Y-73049750D01*
X191874000Y-73762250D01*
X191872465Y-73793493D01*
X191867875Y-73824435D01*
X191860275Y-73854778D01*
X191849737Y-73884230D01*
X191836362Y-73912508D01*
X191820281Y-73939338D01*
X191801647Y-73964463D01*
X191780640Y-73987640D01*
X191757463Y-74008647D01*
X191732338Y-74027281D01*
X191705508Y-74043362D01*
X191677230Y-74056737D01*
X191647778Y-74067275D01*
X191617435Y-74074875D01*
X191586493Y-74079465D01*
X191555250Y-74081000D01*
X190917750Y-74081000D01*
X190886507Y-74079465D01*
X190855565Y-74074875D01*
X190825222Y-74067275D01*
X190795770Y-74056737D01*
X190767492Y-74043362D01*
X190740662Y-74027281D01*
X190715537Y-74008647D01*
X190692360Y-73987640D01*
X190671353Y-73964463D01*
X190652719Y-73939338D01*
X190636638Y-73912508D01*
X190623263Y-73884230D01*
X190612725Y-73854778D01*
X190605125Y-73824435D01*
X190600535Y-73793493D01*
X190599000Y-73762250D01*
X190599000Y-73049750D01*
X190600535Y-73018507D01*
X190605125Y-72987565D01*
X190612725Y-72957222D01*
X190623263Y-72927770D01*
X190636638Y-72899492D01*
X190652719Y-72872662D01*
X190671353Y-72847537D01*
X190692360Y-72824360D01*
X190715537Y-72803353D01*
X190740662Y-72784719D01*
X190767492Y-72768638D01*
X190795770Y-72755263D01*
X190825222Y-72744725D01*
X190855565Y-72737125D01*
X190886507Y-72732535D01*
X190917750Y-72731000D01*
X191555250Y-72731000D01*
X191586493Y-72732535D01*
X191586493Y-72732535D01*
G37*
D12*
X191236500Y-73406000D03*
D11*
G36*
X193161493Y-72732535D02*
X193192435Y-72737125D01*
X193222778Y-72744725D01*
X193252230Y-72755263D01*
X193280508Y-72768638D01*
X193307338Y-72784719D01*
X193332463Y-72803353D01*
X193355640Y-72824360D01*
X193376647Y-72847537D01*
X193395281Y-72872662D01*
X193411362Y-72899492D01*
X193424737Y-72927770D01*
X193435275Y-72957222D01*
X193442875Y-72987565D01*
X193447465Y-73018507D01*
X193449000Y-73049750D01*
X193449000Y-73762250D01*
X193447465Y-73793493D01*
X193442875Y-73824435D01*
X193435275Y-73854778D01*
X193424737Y-73884230D01*
X193411362Y-73912508D01*
X193395281Y-73939338D01*
X193376647Y-73964463D01*
X193355640Y-73987640D01*
X193332463Y-74008647D01*
X193307338Y-74027281D01*
X193280508Y-74043362D01*
X193252230Y-74056737D01*
X193222778Y-74067275D01*
X193192435Y-74074875D01*
X193161493Y-74079465D01*
X193130250Y-74081000D01*
X192492750Y-74081000D01*
X192461507Y-74079465D01*
X192430565Y-74074875D01*
X192400222Y-74067275D01*
X192370770Y-74056737D01*
X192342492Y-74043362D01*
X192315662Y-74027281D01*
X192290537Y-74008647D01*
X192267360Y-73987640D01*
X192246353Y-73964463D01*
X192227719Y-73939338D01*
X192211638Y-73912508D01*
X192198263Y-73884230D01*
X192187725Y-73854778D01*
X192180125Y-73824435D01*
X192175535Y-73793493D01*
X192174000Y-73762250D01*
X192174000Y-73049750D01*
X192175535Y-73018507D01*
X192180125Y-72987565D01*
X192187725Y-72957222D01*
X192198263Y-72927770D01*
X192211638Y-72899492D01*
X192227719Y-72872662D01*
X192246353Y-72847537D01*
X192267360Y-72824360D01*
X192290537Y-72803353D01*
X192315662Y-72784719D01*
X192342492Y-72768638D01*
X192370770Y-72755263D01*
X192400222Y-72744725D01*
X192430565Y-72737125D01*
X192461507Y-72732535D01*
X192492750Y-72731000D01*
X193130250Y-72731000D01*
X193161493Y-72732535D01*
X193161493Y-72732535D01*
G37*
D12*
X192811500Y-73406000D03*
G04 #@! TD*
D11*
G04 #@! TO.C,R5*
G36*
X192678993Y-35394535D02*
X192709935Y-35399125D01*
X192740278Y-35406725D01*
X192769730Y-35417263D01*
X192798008Y-35430638D01*
X192824838Y-35446719D01*
X192849963Y-35465353D01*
X192873140Y-35486360D01*
X192894147Y-35509537D01*
X192912781Y-35534662D01*
X192928862Y-35561492D01*
X192942237Y-35589770D01*
X192952775Y-35619222D01*
X192960375Y-35649565D01*
X192964965Y-35680507D01*
X192966500Y-35711750D01*
X192966500Y-36424250D01*
X192964965Y-36455493D01*
X192960375Y-36486435D01*
X192952775Y-36516778D01*
X192942237Y-36546230D01*
X192928862Y-36574508D01*
X192912781Y-36601338D01*
X192894147Y-36626463D01*
X192873140Y-36649640D01*
X192849963Y-36670647D01*
X192824838Y-36689281D01*
X192798008Y-36705362D01*
X192769730Y-36718737D01*
X192740278Y-36729275D01*
X192709935Y-36736875D01*
X192678993Y-36741465D01*
X192647750Y-36743000D01*
X192010250Y-36743000D01*
X191979007Y-36741465D01*
X191948065Y-36736875D01*
X191917722Y-36729275D01*
X191888270Y-36718737D01*
X191859992Y-36705362D01*
X191833162Y-36689281D01*
X191808037Y-36670647D01*
X191784860Y-36649640D01*
X191763853Y-36626463D01*
X191745219Y-36601338D01*
X191729138Y-36574508D01*
X191715763Y-36546230D01*
X191705225Y-36516778D01*
X191697625Y-36486435D01*
X191693035Y-36455493D01*
X191691500Y-36424250D01*
X191691500Y-35711750D01*
X191693035Y-35680507D01*
X191697625Y-35649565D01*
X191705225Y-35619222D01*
X191715763Y-35589770D01*
X191729138Y-35561492D01*
X191745219Y-35534662D01*
X191763853Y-35509537D01*
X191784860Y-35486360D01*
X191808037Y-35465353D01*
X191833162Y-35446719D01*
X191859992Y-35430638D01*
X191888270Y-35417263D01*
X191917722Y-35406725D01*
X191948065Y-35399125D01*
X191979007Y-35394535D01*
X192010250Y-35393000D01*
X192647750Y-35393000D01*
X192678993Y-35394535D01*
X192678993Y-35394535D01*
G37*
D12*
X192329000Y-36068000D03*
D11*
G36*
X191103993Y-35394535D02*
X191134935Y-35399125D01*
X191165278Y-35406725D01*
X191194730Y-35417263D01*
X191223008Y-35430638D01*
X191249838Y-35446719D01*
X191274963Y-35465353D01*
X191298140Y-35486360D01*
X191319147Y-35509537D01*
X191337781Y-35534662D01*
X191353862Y-35561492D01*
X191367237Y-35589770D01*
X191377775Y-35619222D01*
X191385375Y-35649565D01*
X191389965Y-35680507D01*
X191391500Y-35711750D01*
X191391500Y-36424250D01*
X191389965Y-36455493D01*
X191385375Y-36486435D01*
X191377775Y-36516778D01*
X191367237Y-36546230D01*
X191353862Y-36574508D01*
X191337781Y-36601338D01*
X191319147Y-36626463D01*
X191298140Y-36649640D01*
X191274963Y-36670647D01*
X191249838Y-36689281D01*
X191223008Y-36705362D01*
X191194730Y-36718737D01*
X191165278Y-36729275D01*
X191134935Y-36736875D01*
X191103993Y-36741465D01*
X191072750Y-36743000D01*
X190435250Y-36743000D01*
X190404007Y-36741465D01*
X190373065Y-36736875D01*
X190342722Y-36729275D01*
X190313270Y-36718737D01*
X190284992Y-36705362D01*
X190258162Y-36689281D01*
X190233037Y-36670647D01*
X190209860Y-36649640D01*
X190188853Y-36626463D01*
X190170219Y-36601338D01*
X190154138Y-36574508D01*
X190140763Y-36546230D01*
X190130225Y-36516778D01*
X190122625Y-36486435D01*
X190118035Y-36455493D01*
X190116500Y-36424250D01*
X190116500Y-35711750D01*
X190118035Y-35680507D01*
X190122625Y-35649565D01*
X190130225Y-35619222D01*
X190140763Y-35589770D01*
X190154138Y-35561492D01*
X190170219Y-35534662D01*
X190188853Y-35509537D01*
X190209860Y-35486360D01*
X190233037Y-35465353D01*
X190258162Y-35446719D01*
X190284992Y-35430638D01*
X190313270Y-35417263D01*
X190342722Y-35406725D01*
X190373065Y-35399125D01*
X190404007Y-35394535D01*
X190435250Y-35393000D01*
X191072750Y-35393000D01*
X191103993Y-35394535D01*
X191103993Y-35394535D01*
G37*
D12*
X190754000Y-36068000D03*
G04 #@! TD*
D11*
G04 #@! TO.C,R6*
G36*
X193135993Y-76034535D02*
X193166935Y-76039125D01*
X193197278Y-76046725D01*
X193226730Y-76057263D01*
X193255008Y-76070638D01*
X193281838Y-76086719D01*
X193306963Y-76105353D01*
X193330140Y-76126360D01*
X193351147Y-76149537D01*
X193369781Y-76174662D01*
X193385862Y-76201492D01*
X193399237Y-76229770D01*
X193409775Y-76259222D01*
X193417375Y-76289565D01*
X193421965Y-76320507D01*
X193423500Y-76351750D01*
X193423500Y-77064250D01*
X193421965Y-77095493D01*
X193417375Y-77126435D01*
X193409775Y-77156778D01*
X193399237Y-77186230D01*
X193385862Y-77214508D01*
X193369781Y-77241338D01*
X193351147Y-77266463D01*
X193330140Y-77289640D01*
X193306963Y-77310647D01*
X193281838Y-77329281D01*
X193255008Y-77345362D01*
X193226730Y-77358737D01*
X193197278Y-77369275D01*
X193166935Y-77376875D01*
X193135993Y-77381465D01*
X193104750Y-77383000D01*
X192467250Y-77383000D01*
X192436007Y-77381465D01*
X192405065Y-77376875D01*
X192374722Y-77369275D01*
X192345270Y-77358737D01*
X192316992Y-77345362D01*
X192290162Y-77329281D01*
X192265037Y-77310647D01*
X192241860Y-77289640D01*
X192220853Y-77266463D01*
X192202219Y-77241338D01*
X192186138Y-77214508D01*
X192172763Y-77186230D01*
X192162225Y-77156778D01*
X192154625Y-77126435D01*
X192150035Y-77095493D01*
X192148500Y-77064250D01*
X192148500Y-76351750D01*
X192150035Y-76320507D01*
X192154625Y-76289565D01*
X192162225Y-76259222D01*
X192172763Y-76229770D01*
X192186138Y-76201492D01*
X192202219Y-76174662D01*
X192220853Y-76149537D01*
X192241860Y-76126360D01*
X192265037Y-76105353D01*
X192290162Y-76086719D01*
X192316992Y-76070638D01*
X192345270Y-76057263D01*
X192374722Y-76046725D01*
X192405065Y-76039125D01*
X192436007Y-76034535D01*
X192467250Y-76033000D01*
X193104750Y-76033000D01*
X193135993Y-76034535D01*
X193135993Y-76034535D01*
G37*
D12*
X192786000Y-76708000D03*
D11*
G36*
X191560993Y-76034535D02*
X191591935Y-76039125D01*
X191622278Y-76046725D01*
X191651730Y-76057263D01*
X191680008Y-76070638D01*
X191706838Y-76086719D01*
X191731963Y-76105353D01*
X191755140Y-76126360D01*
X191776147Y-76149537D01*
X191794781Y-76174662D01*
X191810862Y-76201492D01*
X191824237Y-76229770D01*
X191834775Y-76259222D01*
X191842375Y-76289565D01*
X191846965Y-76320507D01*
X191848500Y-76351750D01*
X191848500Y-77064250D01*
X191846965Y-77095493D01*
X191842375Y-77126435D01*
X191834775Y-77156778D01*
X191824237Y-77186230D01*
X191810862Y-77214508D01*
X191794781Y-77241338D01*
X191776147Y-77266463D01*
X191755140Y-77289640D01*
X191731963Y-77310647D01*
X191706838Y-77329281D01*
X191680008Y-77345362D01*
X191651730Y-77358737D01*
X191622278Y-77369275D01*
X191591935Y-77376875D01*
X191560993Y-77381465D01*
X191529750Y-77383000D01*
X190892250Y-77383000D01*
X190861007Y-77381465D01*
X190830065Y-77376875D01*
X190799722Y-77369275D01*
X190770270Y-77358737D01*
X190741992Y-77345362D01*
X190715162Y-77329281D01*
X190690037Y-77310647D01*
X190666860Y-77289640D01*
X190645853Y-77266463D01*
X190627219Y-77241338D01*
X190611138Y-77214508D01*
X190597763Y-77186230D01*
X190587225Y-77156778D01*
X190579625Y-77126435D01*
X190575035Y-77095493D01*
X190573500Y-77064250D01*
X190573500Y-76351750D01*
X190575035Y-76320507D01*
X190579625Y-76289565D01*
X190587225Y-76259222D01*
X190597763Y-76229770D01*
X190611138Y-76201492D01*
X190627219Y-76174662D01*
X190645853Y-76149537D01*
X190666860Y-76126360D01*
X190690037Y-76105353D01*
X190715162Y-76086719D01*
X190741992Y-76070638D01*
X190770270Y-76057263D01*
X190799722Y-76046725D01*
X190830065Y-76039125D01*
X190861007Y-76034535D01*
X190892250Y-76033000D01*
X191529750Y-76033000D01*
X191560993Y-76034535D01*
X191560993Y-76034535D01*
G37*
D12*
X191211000Y-76708000D03*
G04 #@! TD*
D11*
G04 #@! TO.C,R7*
G36*
X197418663Y-46261298D02*
X197449605Y-46265888D01*
X197479948Y-46273488D01*
X197509400Y-46284026D01*
X197537678Y-46297401D01*
X197564508Y-46313482D01*
X197589633Y-46332116D01*
X197612810Y-46353123D01*
X197633817Y-46376300D01*
X197652451Y-46401425D01*
X197668532Y-46428255D01*
X197681907Y-46456533D01*
X197692445Y-46485985D01*
X197700045Y-46516328D01*
X197704635Y-46547270D01*
X197706170Y-46578513D01*
X197706170Y-47216013D01*
X197704635Y-47247256D01*
X197700045Y-47278198D01*
X197692445Y-47308541D01*
X197681907Y-47337993D01*
X197668532Y-47366271D01*
X197652451Y-47393101D01*
X197633817Y-47418226D01*
X197612810Y-47441403D01*
X197589633Y-47462410D01*
X197564508Y-47481044D01*
X197537678Y-47497125D01*
X197509400Y-47510500D01*
X197479948Y-47521038D01*
X197449605Y-47528638D01*
X197418663Y-47533228D01*
X197387420Y-47534763D01*
X196674920Y-47534763D01*
X196643677Y-47533228D01*
X196612735Y-47528638D01*
X196582392Y-47521038D01*
X196552940Y-47510500D01*
X196524662Y-47497125D01*
X196497832Y-47481044D01*
X196472707Y-47462410D01*
X196449530Y-47441403D01*
X196428523Y-47418226D01*
X196409889Y-47393101D01*
X196393808Y-47366271D01*
X196380433Y-47337993D01*
X196369895Y-47308541D01*
X196362295Y-47278198D01*
X196357705Y-47247256D01*
X196356170Y-47216013D01*
X196356170Y-46578513D01*
X196357705Y-46547270D01*
X196362295Y-46516328D01*
X196369895Y-46485985D01*
X196380433Y-46456533D01*
X196393808Y-46428255D01*
X196409889Y-46401425D01*
X196428523Y-46376300D01*
X196449530Y-46353123D01*
X196472707Y-46332116D01*
X196497832Y-46313482D01*
X196524662Y-46297401D01*
X196552940Y-46284026D01*
X196582392Y-46273488D01*
X196612735Y-46265888D01*
X196643677Y-46261298D01*
X196674920Y-46259763D01*
X197387420Y-46259763D01*
X197418663Y-46261298D01*
X197418663Y-46261298D01*
G37*
D12*
X197031170Y-46897263D03*
D11*
G36*
X197418663Y-44686298D02*
X197449605Y-44690888D01*
X197479948Y-44698488D01*
X197509400Y-44709026D01*
X197537678Y-44722401D01*
X197564508Y-44738482D01*
X197589633Y-44757116D01*
X197612810Y-44778123D01*
X197633817Y-44801300D01*
X197652451Y-44826425D01*
X197668532Y-44853255D01*
X197681907Y-44881533D01*
X197692445Y-44910985D01*
X197700045Y-44941328D01*
X197704635Y-44972270D01*
X197706170Y-45003513D01*
X197706170Y-45641013D01*
X197704635Y-45672256D01*
X197700045Y-45703198D01*
X197692445Y-45733541D01*
X197681907Y-45762993D01*
X197668532Y-45791271D01*
X197652451Y-45818101D01*
X197633817Y-45843226D01*
X197612810Y-45866403D01*
X197589633Y-45887410D01*
X197564508Y-45906044D01*
X197537678Y-45922125D01*
X197509400Y-45935500D01*
X197479948Y-45946038D01*
X197449605Y-45953638D01*
X197418663Y-45958228D01*
X197387420Y-45959763D01*
X196674920Y-45959763D01*
X196643677Y-45958228D01*
X196612735Y-45953638D01*
X196582392Y-45946038D01*
X196552940Y-45935500D01*
X196524662Y-45922125D01*
X196497832Y-45906044D01*
X196472707Y-45887410D01*
X196449530Y-45866403D01*
X196428523Y-45843226D01*
X196409889Y-45818101D01*
X196393808Y-45791271D01*
X196380433Y-45762993D01*
X196369895Y-45733541D01*
X196362295Y-45703198D01*
X196357705Y-45672256D01*
X196356170Y-45641013D01*
X196356170Y-45003513D01*
X196357705Y-44972270D01*
X196362295Y-44941328D01*
X196369895Y-44910985D01*
X196380433Y-44881533D01*
X196393808Y-44853255D01*
X196409889Y-44826425D01*
X196428523Y-44801300D01*
X196449530Y-44778123D01*
X196472707Y-44757116D01*
X196497832Y-44738482D01*
X196524662Y-44722401D01*
X196552940Y-44709026D01*
X196582392Y-44698488D01*
X196612735Y-44690888D01*
X196643677Y-44686298D01*
X196674920Y-44684763D01*
X197387420Y-44684763D01*
X197418663Y-44686298D01*
X197418663Y-44686298D01*
G37*
D12*
X197031170Y-45322263D03*
G04 #@! TD*
D11*
G04 #@! TO.C,R8*
G36*
X197937034Y-81362982D02*
X197967976Y-81367572D01*
X197998319Y-81375172D01*
X198027771Y-81385710D01*
X198056049Y-81399085D01*
X198082879Y-81415166D01*
X198108004Y-81433800D01*
X198131181Y-81454807D01*
X198152188Y-81477984D01*
X198170822Y-81503109D01*
X198186903Y-81529939D01*
X198200278Y-81558217D01*
X198210816Y-81587669D01*
X198218416Y-81618012D01*
X198223006Y-81648954D01*
X198224541Y-81680197D01*
X198224541Y-82317697D01*
X198223006Y-82348940D01*
X198218416Y-82379882D01*
X198210816Y-82410225D01*
X198200278Y-82439677D01*
X198186903Y-82467955D01*
X198170822Y-82494785D01*
X198152188Y-82519910D01*
X198131181Y-82543087D01*
X198108004Y-82564094D01*
X198082879Y-82582728D01*
X198056049Y-82598809D01*
X198027771Y-82612184D01*
X197998319Y-82622722D01*
X197967976Y-82630322D01*
X197937034Y-82634912D01*
X197905791Y-82636447D01*
X197193291Y-82636447D01*
X197162048Y-82634912D01*
X197131106Y-82630322D01*
X197100763Y-82622722D01*
X197071311Y-82612184D01*
X197043033Y-82598809D01*
X197016203Y-82582728D01*
X196991078Y-82564094D01*
X196967901Y-82543087D01*
X196946894Y-82519910D01*
X196928260Y-82494785D01*
X196912179Y-82467955D01*
X196898804Y-82439677D01*
X196888266Y-82410225D01*
X196880666Y-82379882D01*
X196876076Y-82348940D01*
X196874541Y-82317697D01*
X196874541Y-81680197D01*
X196876076Y-81648954D01*
X196880666Y-81618012D01*
X196888266Y-81587669D01*
X196898804Y-81558217D01*
X196912179Y-81529939D01*
X196928260Y-81503109D01*
X196946894Y-81477984D01*
X196967901Y-81454807D01*
X196991078Y-81433800D01*
X197016203Y-81415166D01*
X197043033Y-81399085D01*
X197071311Y-81385710D01*
X197100763Y-81375172D01*
X197131106Y-81367572D01*
X197162048Y-81362982D01*
X197193291Y-81361447D01*
X197905791Y-81361447D01*
X197937034Y-81362982D01*
X197937034Y-81362982D01*
G37*
D12*
X197549541Y-81998947D03*
D11*
G36*
X197937034Y-82937982D02*
X197967976Y-82942572D01*
X197998319Y-82950172D01*
X198027771Y-82960710D01*
X198056049Y-82974085D01*
X198082879Y-82990166D01*
X198108004Y-83008800D01*
X198131181Y-83029807D01*
X198152188Y-83052984D01*
X198170822Y-83078109D01*
X198186903Y-83104939D01*
X198200278Y-83133217D01*
X198210816Y-83162669D01*
X198218416Y-83193012D01*
X198223006Y-83223954D01*
X198224541Y-83255197D01*
X198224541Y-83892697D01*
X198223006Y-83923940D01*
X198218416Y-83954882D01*
X198210816Y-83985225D01*
X198200278Y-84014677D01*
X198186903Y-84042955D01*
X198170822Y-84069785D01*
X198152188Y-84094910D01*
X198131181Y-84118087D01*
X198108004Y-84139094D01*
X198082879Y-84157728D01*
X198056049Y-84173809D01*
X198027771Y-84187184D01*
X197998319Y-84197722D01*
X197967976Y-84205322D01*
X197937034Y-84209912D01*
X197905791Y-84211447D01*
X197193291Y-84211447D01*
X197162048Y-84209912D01*
X197131106Y-84205322D01*
X197100763Y-84197722D01*
X197071311Y-84187184D01*
X197043033Y-84173809D01*
X197016203Y-84157728D01*
X196991078Y-84139094D01*
X196967901Y-84118087D01*
X196946894Y-84094910D01*
X196928260Y-84069785D01*
X196912179Y-84042955D01*
X196898804Y-84014677D01*
X196888266Y-83985225D01*
X196880666Y-83954882D01*
X196876076Y-83923940D01*
X196874541Y-83892697D01*
X196874541Y-83255197D01*
X196876076Y-83223954D01*
X196880666Y-83193012D01*
X196888266Y-83162669D01*
X196898804Y-83133217D01*
X196912179Y-83104939D01*
X196928260Y-83078109D01*
X196946894Y-83052984D01*
X196967901Y-83029807D01*
X196991078Y-83008800D01*
X197016203Y-82990166D01*
X197043033Y-82974085D01*
X197071311Y-82960710D01*
X197100763Y-82950172D01*
X197131106Y-82942572D01*
X197162048Y-82937982D01*
X197193291Y-82936447D01*
X197905791Y-82936447D01*
X197937034Y-82937982D01*
X197937034Y-82937982D01*
G37*
D12*
X197549541Y-83573947D03*
G04 #@! TD*
D11*
G04 #@! TO.C,R9*
G36*
X201289493Y-76034535D02*
X201320435Y-76039125D01*
X201350778Y-76046725D01*
X201380230Y-76057263D01*
X201408508Y-76070638D01*
X201435338Y-76086719D01*
X201460463Y-76105353D01*
X201483640Y-76126360D01*
X201504647Y-76149537D01*
X201523281Y-76174662D01*
X201539362Y-76201492D01*
X201552737Y-76229770D01*
X201563275Y-76259222D01*
X201570875Y-76289565D01*
X201575465Y-76320507D01*
X201577000Y-76351750D01*
X201577000Y-77064250D01*
X201575465Y-77095493D01*
X201570875Y-77126435D01*
X201563275Y-77156778D01*
X201552737Y-77186230D01*
X201539362Y-77214508D01*
X201523281Y-77241338D01*
X201504647Y-77266463D01*
X201483640Y-77289640D01*
X201460463Y-77310647D01*
X201435338Y-77329281D01*
X201408508Y-77345362D01*
X201380230Y-77358737D01*
X201350778Y-77369275D01*
X201320435Y-77376875D01*
X201289493Y-77381465D01*
X201258250Y-77383000D01*
X200620750Y-77383000D01*
X200589507Y-77381465D01*
X200558565Y-77376875D01*
X200528222Y-77369275D01*
X200498770Y-77358737D01*
X200470492Y-77345362D01*
X200443662Y-77329281D01*
X200418537Y-77310647D01*
X200395360Y-77289640D01*
X200374353Y-77266463D01*
X200355719Y-77241338D01*
X200339638Y-77214508D01*
X200326263Y-77186230D01*
X200315725Y-77156778D01*
X200308125Y-77126435D01*
X200303535Y-77095493D01*
X200302000Y-77064250D01*
X200302000Y-76351750D01*
X200303535Y-76320507D01*
X200308125Y-76289565D01*
X200315725Y-76259222D01*
X200326263Y-76229770D01*
X200339638Y-76201492D01*
X200355719Y-76174662D01*
X200374353Y-76149537D01*
X200395360Y-76126360D01*
X200418537Y-76105353D01*
X200443662Y-76086719D01*
X200470492Y-76070638D01*
X200498770Y-76057263D01*
X200528222Y-76046725D01*
X200558565Y-76039125D01*
X200589507Y-76034535D01*
X200620750Y-76033000D01*
X201258250Y-76033000D01*
X201289493Y-76034535D01*
X201289493Y-76034535D01*
G37*
D12*
X200939500Y-76708000D03*
D11*
G36*
X199714493Y-76034535D02*
X199745435Y-76039125D01*
X199775778Y-76046725D01*
X199805230Y-76057263D01*
X199833508Y-76070638D01*
X199860338Y-76086719D01*
X199885463Y-76105353D01*
X199908640Y-76126360D01*
X199929647Y-76149537D01*
X199948281Y-76174662D01*
X199964362Y-76201492D01*
X199977737Y-76229770D01*
X199988275Y-76259222D01*
X199995875Y-76289565D01*
X200000465Y-76320507D01*
X200002000Y-76351750D01*
X200002000Y-77064250D01*
X200000465Y-77095493D01*
X199995875Y-77126435D01*
X199988275Y-77156778D01*
X199977737Y-77186230D01*
X199964362Y-77214508D01*
X199948281Y-77241338D01*
X199929647Y-77266463D01*
X199908640Y-77289640D01*
X199885463Y-77310647D01*
X199860338Y-77329281D01*
X199833508Y-77345362D01*
X199805230Y-77358737D01*
X199775778Y-77369275D01*
X199745435Y-77376875D01*
X199714493Y-77381465D01*
X199683250Y-77383000D01*
X199045750Y-77383000D01*
X199014507Y-77381465D01*
X198983565Y-77376875D01*
X198953222Y-77369275D01*
X198923770Y-77358737D01*
X198895492Y-77345362D01*
X198868662Y-77329281D01*
X198843537Y-77310647D01*
X198820360Y-77289640D01*
X198799353Y-77266463D01*
X198780719Y-77241338D01*
X198764638Y-77214508D01*
X198751263Y-77186230D01*
X198740725Y-77156778D01*
X198733125Y-77126435D01*
X198728535Y-77095493D01*
X198727000Y-77064250D01*
X198727000Y-76351750D01*
X198728535Y-76320507D01*
X198733125Y-76289565D01*
X198740725Y-76259222D01*
X198751263Y-76229770D01*
X198764638Y-76201492D01*
X198780719Y-76174662D01*
X198799353Y-76149537D01*
X198820360Y-76126360D01*
X198843537Y-76105353D01*
X198868662Y-76086719D01*
X198895492Y-76070638D01*
X198923770Y-76057263D01*
X198953222Y-76046725D01*
X198983565Y-76039125D01*
X199014507Y-76034535D01*
X199045750Y-76033000D01*
X199683250Y-76033000D01*
X199714493Y-76034535D01*
X199714493Y-76034535D01*
G37*
D12*
X199364500Y-76708000D03*
G04 #@! TD*
D11*
G04 #@! TO.C,R13*
G36*
X198952493Y-38950535D02*
X198983435Y-38955125D01*
X199013778Y-38962725D01*
X199043230Y-38973263D01*
X199071508Y-38986638D01*
X199098338Y-39002719D01*
X199123463Y-39021353D01*
X199146640Y-39042360D01*
X199167647Y-39065537D01*
X199186281Y-39090662D01*
X199202362Y-39117492D01*
X199215737Y-39145770D01*
X199226275Y-39175222D01*
X199233875Y-39205565D01*
X199238465Y-39236507D01*
X199240000Y-39267750D01*
X199240000Y-39980250D01*
X199238465Y-40011493D01*
X199233875Y-40042435D01*
X199226275Y-40072778D01*
X199215737Y-40102230D01*
X199202362Y-40130508D01*
X199186281Y-40157338D01*
X199167647Y-40182463D01*
X199146640Y-40205640D01*
X199123463Y-40226647D01*
X199098338Y-40245281D01*
X199071508Y-40261362D01*
X199043230Y-40274737D01*
X199013778Y-40285275D01*
X198983435Y-40292875D01*
X198952493Y-40297465D01*
X198921250Y-40299000D01*
X198283750Y-40299000D01*
X198252507Y-40297465D01*
X198221565Y-40292875D01*
X198191222Y-40285275D01*
X198161770Y-40274737D01*
X198133492Y-40261362D01*
X198106662Y-40245281D01*
X198081537Y-40226647D01*
X198058360Y-40205640D01*
X198037353Y-40182463D01*
X198018719Y-40157338D01*
X198002638Y-40130508D01*
X197989263Y-40102230D01*
X197978725Y-40072778D01*
X197971125Y-40042435D01*
X197966535Y-40011493D01*
X197965000Y-39980250D01*
X197965000Y-39267750D01*
X197966535Y-39236507D01*
X197971125Y-39205565D01*
X197978725Y-39175222D01*
X197989263Y-39145770D01*
X198002638Y-39117492D01*
X198018719Y-39090662D01*
X198037353Y-39065537D01*
X198058360Y-39042360D01*
X198081537Y-39021353D01*
X198106662Y-39002719D01*
X198133492Y-38986638D01*
X198161770Y-38973263D01*
X198191222Y-38962725D01*
X198221565Y-38955125D01*
X198252507Y-38950535D01*
X198283750Y-38949000D01*
X198921250Y-38949000D01*
X198952493Y-38950535D01*
X198952493Y-38950535D01*
G37*
D12*
X198602500Y-39624000D03*
D11*
G36*
X200527493Y-38950535D02*
X200558435Y-38955125D01*
X200588778Y-38962725D01*
X200618230Y-38973263D01*
X200646508Y-38986638D01*
X200673338Y-39002719D01*
X200698463Y-39021353D01*
X200721640Y-39042360D01*
X200742647Y-39065537D01*
X200761281Y-39090662D01*
X200777362Y-39117492D01*
X200790737Y-39145770D01*
X200801275Y-39175222D01*
X200808875Y-39205565D01*
X200813465Y-39236507D01*
X200815000Y-39267750D01*
X200815000Y-39980250D01*
X200813465Y-40011493D01*
X200808875Y-40042435D01*
X200801275Y-40072778D01*
X200790737Y-40102230D01*
X200777362Y-40130508D01*
X200761281Y-40157338D01*
X200742647Y-40182463D01*
X200721640Y-40205640D01*
X200698463Y-40226647D01*
X200673338Y-40245281D01*
X200646508Y-40261362D01*
X200618230Y-40274737D01*
X200588778Y-40285275D01*
X200558435Y-40292875D01*
X200527493Y-40297465D01*
X200496250Y-40299000D01*
X199858750Y-40299000D01*
X199827507Y-40297465D01*
X199796565Y-40292875D01*
X199766222Y-40285275D01*
X199736770Y-40274737D01*
X199708492Y-40261362D01*
X199681662Y-40245281D01*
X199656537Y-40226647D01*
X199633360Y-40205640D01*
X199612353Y-40182463D01*
X199593719Y-40157338D01*
X199577638Y-40130508D01*
X199564263Y-40102230D01*
X199553725Y-40072778D01*
X199546125Y-40042435D01*
X199541535Y-40011493D01*
X199540000Y-39980250D01*
X199540000Y-39267750D01*
X199541535Y-39236507D01*
X199546125Y-39205565D01*
X199553725Y-39175222D01*
X199564263Y-39145770D01*
X199577638Y-39117492D01*
X199593719Y-39090662D01*
X199612353Y-39065537D01*
X199633360Y-39042360D01*
X199656537Y-39021353D01*
X199681662Y-39002719D01*
X199708492Y-38986638D01*
X199736770Y-38973263D01*
X199766222Y-38962725D01*
X199796565Y-38955125D01*
X199827507Y-38950535D01*
X199858750Y-38949000D01*
X200496250Y-38949000D01*
X200527493Y-38950535D01*
X200527493Y-38950535D01*
G37*
D12*
X200177500Y-39624000D03*
G04 #@! TD*
D23*
G04 #@! TO.C,U12*
X194122000Y-28448000D03*
X194122000Y-29718000D03*
X194122000Y-30988000D03*
X194122000Y-32258000D03*
X188722000Y-32258000D03*
X188722000Y-30988000D03*
X188722000Y-29718000D03*
X188722000Y-28448000D03*
G04 #@! TD*
G04 #@! TO.C,U13*
X194724000Y-65405000D03*
X194724000Y-66675000D03*
X194724000Y-67945000D03*
X194724000Y-69215000D03*
X189324000Y-69215000D03*
X189324000Y-67945000D03*
X189324000Y-66675000D03*
X189324000Y-65405000D03*
G04 #@! TD*
D26*
G04 #@! TO.C,U14*
X193866541Y-80086447D03*
X192596541Y-80086447D03*
X191326541Y-80086447D03*
X190056541Y-80086447D03*
X190056541Y-85486447D03*
X191326541Y-85486447D03*
X192596541Y-85486447D03*
X193866541Y-85486447D03*
G04 #@! TD*
G04 #@! TO.C,U15*
X193602170Y-43384263D03*
X192332170Y-43384263D03*
X191062170Y-43384263D03*
X189792170Y-43384263D03*
X189792170Y-48784263D03*
X191062170Y-48784263D03*
X192332170Y-48784263D03*
X193602170Y-48784263D03*
G04 #@! TD*
D24*
G04 #@! TO.C,U16*
X208440000Y-70231000D03*
X208440000Y-71501000D03*
X208440000Y-72771000D03*
X208440000Y-74041000D03*
X208440000Y-75311000D03*
X208440000Y-76581000D03*
X208440000Y-77851000D03*
X208440000Y-79121000D03*
X203040000Y-79121000D03*
X203040000Y-77851000D03*
X203040000Y-76581000D03*
X203040000Y-75311000D03*
X203040000Y-74041000D03*
X203040000Y-72771000D03*
X203040000Y-71501000D03*
X203040000Y-70231000D03*
G04 #@! TD*
G04 #@! TO.C,U18*
X202438000Y-33274000D03*
X202438000Y-34544000D03*
X202438000Y-35814000D03*
X202438000Y-37084000D03*
X202438000Y-38354000D03*
X202438000Y-39624000D03*
X202438000Y-40894000D03*
X202438000Y-42164000D03*
X207838000Y-42164000D03*
X207838000Y-40894000D03*
X207838000Y-39624000D03*
X207838000Y-38354000D03*
X207838000Y-37084000D03*
X207838000Y-35814000D03*
X207838000Y-34544000D03*
X207838000Y-33274000D03*
G04 #@! TD*
D11*
G04 #@! TO.C,C4*
G36*
X179673993Y-25717135D02*
X179704935Y-25721725D01*
X179735278Y-25729325D01*
X179764730Y-25739863D01*
X179793008Y-25753238D01*
X179819838Y-25769319D01*
X179844963Y-25787953D01*
X179868140Y-25808960D01*
X179889147Y-25832137D01*
X179907781Y-25857262D01*
X179923862Y-25884092D01*
X179937237Y-25912370D01*
X179947775Y-25941822D01*
X179955375Y-25972165D01*
X179959965Y-26003107D01*
X179961500Y-26034350D01*
X179961500Y-26746850D01*
X179959965Y-26778093D01*
X179955375Y-26809035D01*
X179947775Y-26839378D01*
X179937237Y-26868830D01*
X179923862Y-26897108D01*
X179907781Y-26923938D01*
X179889147Y-26949063D01*
X179868140Y-26972240D01*
X179844963Y-26993247D01*
X179819838Y-27011881D01*
X179793008Y-27027962D01*
X179764730Y-27041337D01*
X179735278Y-27051875D01*
X179704935Y-27059475D01*
X179673993Y-27064065D01*
X179642750Y-27065600D01*
X179005250Y-27065600D01*
X178974007Y-27064065D01*
X178943065Y-27059475D01*
X178912722Y-27051875D01*
X178883270Y-27041337D01*
X178854992Y-27027962D01*
X178828162Y-27011881D01*
X178803037Y-26993247D01*
X178779860Y-26972240D01*
X178758853Y-26949063D01*
X178740219Y-26923938D01*
X178724138Y-26897108D01*
X178710763Y-26868830D01*
X178700225Y-26839378D01*
X178692625Y-26809035D01*
X178688035Y-26778093D01*
X178686500Y-26746850D01*
X178686500Y-26034350D01*
X178688035Y-26003107D01*
X178692625Y-25972165D01*
X178700225Y-25941822D01*
X178710763Y-25912370D01*
X178724138Y-25884092D01*
X178740219Y-25857262D01*
X178758853Y-25832137D01*
X178779860Y-25808960D01*
X178803037Y-25787953D01*
X178828162Y-25769319D01*
X178854992Y-25753238D01*
X178883270Y-25739863D01*
X178912722Y-25729325D01*
X178943065Y-25721725D01*
X178974007Y-25717135D01*
X179005250Y-25715600D01*
X179642750Y-25715600D01*
X179673993Y-25717135D01*
X179673993Y-25717135D01*
G37*
D12*
X179324000Y-26390600D03*
D11*
G36*
X178098993Y-25717135D02*
X178129935Y-25721725D01*
X178160278Y-25729325D01*
X178189730Y-25739863D01*
X178218008Y-25753238D01*
X178244838Y-25769319D01*
X178269963Y-25787953D01*
X178293140Y-25808960D01*
X178314147Y-25832137D01*
X178332781Y-25857262D01*
X178348862Y-25884092D01*
X178362237Y-25912370D01*
X178372775Y-25941822D01*
X178380375Y-25972165D01*
X178384965Y-26003107D01*
X178386500Y-26034350D01*
X178386500Y-26746850D01*
X178384965Y-26778093D01*
X178380375Y-26809035D01*
X178372775Y-26839378D01*
X178362237Y-26868830D01*
X178348862Y-26897108D01*
X178332781Y-26923938D01*
X178314147Y-26949063D01*
X178293140Y-26972240D01*
X178269963Y-26993247D01*
X178244838Y-27011881D01*
X178218008Y-27027962D01*
X178189730Y-27041337D01*
X178160278Y-27051875D01*
X178129935Y-27059475D01*
X178098993Y-27064065D01*
X178067750Y-27065600D01*
X177430250Y-27065600D01*
X177399007Y-27064065D01*
X177368065Y-27059475D01*
X177337722Y-27051875D01*
X177308270Y-27041337D01*
X177279992Y-27027962D01*
X177253162Y-27011881D01*
X177228037Y-26993247D01*
X177204860Y-26972240D01*
X177183853Y-26949063D01*
X177165219Y-26923938D01*
X177149138Y-26897108D01*
X177135763Y-26868830D01*
X177125225Y-26839378D01*
X177117625Y-26809035D01*
X177113035Y-26778093D01*
X177111500Y-26746850D01*
X177111500Y-26034350D01*
X177113035Y-26003107D01*
X177117625Y-25972165D01*
X177125225Y-25941822D01*
X177135763Y-25912370D01*
X177149138Y-25884092D01*
X177165219Y-25857262D01*
X177183853Y-25832137D01*
X177204860Y-25808960D01*
X177228037Y-25787953D01*
X177253162Y-25769319D01*
X177279992Y-25753238D01*
X177308270Y-25739863D01*
X177337722Y-25729325D01*
X177368065Y-25721725D01*
X177399007Y-25717135D01*
X177430250Y-25715600D01*
X178067750Y-25715600D01*
X178098993Y-25717135D01*
X178098993Y-25717135D01*
G37*
D12*
X177749000Y-26390600D03*
G04 #@! TD*
D27*
G04 #@! TO.C,U6*
X179257200Y-31176000D03*
X179257200Y-29276000D03*
X177257200Y-30226000D03*
G04 #@! TD*
M02*
