G04 #@! TF.GenerationSoftware,KiCad,Pcbnew,5.0.0-fee4fd1~66~ubuntu18.04.1*
G04 #@! TF.CreationDate,2018-10-15T20:56:38+03:00*
G04 #@! TF.ProjectId,microstim,6D6963726F7374696D2E6B696361645F,rev?*
G04 #@! TF.SameCoordinates,Original*
G04 #@! TF.FileFunction,Soldermask,Top*
G04 #@! TF.FilePolarity,Negative*
%FSLAX46Y46*%
G04 Gerber Fmt 4.6, Leading zero omitted, Abs format (unit mm)*
G04 Created by KiCad (PCBNEW 5.0.0-fee4fd1~66~ubuntu18.04.1) date Mon Oct 15 20:56:38 2018*
%MOMM*%
%LPD*%
G01*
G04 APERTURE LIST*
%ADD10C,0.100000*%
%ADD11C,1.275000*%
%ADD12R,1.850000X0.850000*%
%ADD13C,2.450000*%
%ADD14C,2.650000*%
%ADD15C,3.000000*%
%ADD16R,3.000000X3.000000*%
%ADD17C,1.840000*%
%ADD18C,2.400000*%
%ADD19C,2.000000*%
%ADD20R,2.000000X2.000000*%
%ADD21C,1.924000*%
%ADD22C,1.900000*%
%ADD23R,1.950000X1.000000*%
%ADD24R,1.900000X1.000000*%
%ADD25C,3.900000*%
%ADD26R,1.000000X1.950000*%
%ADD27R,1.300000X1.200000*%
G04 APERTURE END LIST*
D10*
G04 #@! TO.C,C6*
G36*
X164801693Y-38658035D02*
X164832635Y-38662625D01*
X164862978Y-38670225D01*
X164892430Y-38680763D01*
X164920708Y-38694138D01*
X164947538Y-38710219D01*
X164972663Y-38728853D01*
X164995840Y-38749860D01*
X165016847Y-38773037D01*
X165035481Y-38798162D01*
X165051562Y-38824992D01*
X165064937Y-38853270D01*
X165075475Y-38882722D01*
X165083075Y-38913065D01*
X165087665Y-38944007D01*
X165089200Y-38975250D01*
X165089200Y-39612750D01*
X165087665Y-39643993D01*
X165083075Y-39674935D01*
X165075475Y-39705278D01*
X165064937Y-39734730D01*
X165051562Y-39763008D01*
X165035481Y-39789838D01*
X165016847Y-39814963D01*
X164995840Y-39838140D01*
X164972663Y-39859147D01*
X164947538Y-39877781D01*
X164920708Y-39893862D01*
X164892430Y-39907237D01*
X164862978Y-39917775D01*
X164832635Y-39925375D01*
X164801693Y-39929965D01*
X164770450Y-39931500D01*
X164057950Y-39931500D01*
X164026707Y-39929965D01*
X163995765Y-39925375D01*
X163965422Y-39917775D01*
X163935970Y-39907237D01*
X163907692Y-39893862D01*
X163880862Y-39877781D01*
X163855737Y-39859147D01*
X163832560Y-39838140D01*
X163811553Y-39814963D01*
X163792919Y-39789838D01*
X163776838Y-39763008D01*
X163763463Y-39734730D01*
X163752925Y-39705278D01*
X163745325Y-39674935D01*
X163740735Y-39643993D01*
X163739200Y-39612750D01*
X163739200Y-38975250D01*
X163740735Y-38944007D01*
X163745325Y-38913065D01*
X163752925Y-38882722D01*
X163763463Y-38853270D01*
X163776838Y-38824992D01*
X163792919Y-38798162D01*
X163811553Y-38773037D01*
X163832560Y-38749860D01*
X163855737Y-38728853D01*
X163880862Y-38710219D01*
X163907692Y-38694138D01*
X163935970Y-38680763D01*
X163965422Y-38670225D01*
X163995765Y-38662625D01*
X164026707Y-38658035D01*
X164057950Y-38656500D01*
X164770450Y-38656500D01*
X164801693Y-38658035D01*
X164801693Y-38658035D01*
G37*
D11*
X164414200Y-39294000D03*
D10*
G36*
X164801693Y-37083035D02*
X164832635Y-37087625D01*
X164862978Y-37095225D01*
X164892430Y-37105763D01*
X164920708Y-37119138D01*
X164947538Y-37135219D01*
X164972663Y-37153853D01*
X164995840Y-37174860D01*
X165016847Y-37198037D01*
X165035481Y-37223162D01*
X165051562Y-37249992D01*
X165064937Y-37278270D01*
X165075475Y-37307722D01*
X165083075Y-37338065D01*
X165087665Y-37369007D01*
X165089200Y-37400250D01*
X165089200Y-38037750D01*
X165087665Y-38068993D01*
X165083075Y-38099935D01*
X165075475Y-38130278D01*
X165064937Y-38159730D01*
X165051562Y-38188008D01*
X165035481Y-38214838D01*
X165016847Y-38239963D01*
X164995840Y-38263140D01*
X164972663Y-38284147D01*
X164947538Y-38302781D01*
X164920708Y-38318862D01*
X164892430Y-38332237D01*
X164862978Y-38342775D01*
X164832635Y-38350375D01*
X164801693Y-38354965D01*
X164770450Y-38356500D01*
X164057950Y-38356500D01*
X164026707Y-38354965D01*
X163995765Y-38350375D01*
X163965422Y-38342775D01*
X163935970Y-38332237D01*
X163907692Y-38318862D01*
X163880862Y-38302781D01*
X163855737Y-38284147D01*
X163832560Y-38263140D01*
X163811553Y-38239963D01*
X163792919Y-38214838D01*
X163776838Y-38188008D01*
X163763463Y-38159730D01*
X163752925Y-38130278D01*
X163745325Y-38099935D01*
X163740735Y-38068993D01*
X163739200Y-38037750D01*
X163739200Y-37400250D01*
X163740735Y-37369007D01*
X163745325Y-37338065D01*
X163752925Y-37307722D01*
X163763463Y-37278270D01*
X163776838Y-37249992D01*
X163792919Y-37223162D01*
X163811553Y-37198037D01*
X163832560Y-37174860D01*
X163855737Y-37153853D01*
X163880862Y-37135219D01*
X163907692Y-37119138D01*
X163935970Y-37105763D01*
X163965422Y-37095225D01*
X163995765Y-37087625D01*
X164026707Y-37083035D01*
X164057950Y-37081500D01*
X164770450Y-37081500D01*
X164801693Y-37083035D01*
X164801693Y-37083035D01*
G37*
D11*
X164414200Y-37719000D03*
G04 #@! TD*
D10*
G04 #@! TO.C,R8*
G36*
X193313893Y-76136135D02*
X193344835Y-76140725D01*
X193375178Y-76148325D01*
X193404630Y-76158863D01*
X193432908Y-76172238D01*
X193459738Y-76188319D01*
X193484863Y-76206953D01*
X193508040Y-76227960D01*
X193529047Y-76251137D01*
X193547681Y-76276262D01*
X193563762Y-76303092D01*
X193577137Y-76331370D01*
X193587675Y-76360822D01*
X193595275Y-76391165D01*
X193599865Y-76422107D01*
X193601400Y-76453350D01*
X193601400Y-77165850D01*
X193599865Y-77197093D01*
X193595275Y-77228035D01*
X193587675Y-77258378D01*
X193577137Y-77287830D01*
X193563762Y-77316108D01*
X193547681Y-77342938D01*
X193529047Y-77368063D01*
X193508040Y-77391240D01*
X193484863Y-77412247D01*
X193459738Y-77430881D01*
X193432908Y-77446962D01*
X193404630Y-77460337D01*
X193375178Y-77470875D01*
X193344835Y-77478475D01*
X193313893Y-77483065D01*
X193282650Y-77484600D01*
X192645150Y-77484600D01*
X192613907Y-77483065D01*
X192582965Y-77478475D01*
X192552622Y-77470875D01*
X192523170Y-77460337D01*
X192494892Y-77446962D01*
X192468062Y-77430881D01*
X192442937Y-77412247D01*
X192419760Y-77391240D01*
X192398753Y-77368063D01*
X192380119Y-77342938D01*
X192364038Y-77316108D01*
X192350663Y-77287830D01*
X192340125Y-77258378D01*
X192332525Y-77228035D01*
X192327935Y-77197093D01*
X192326400Y-77165850D01*
X192326400Y-76453350D01*
X192327935Y-76422107D01*
X192332525Y-76391165D01*
X192340125Y-76360822D01*
X192350663Y-76331370D01*
X192364038Y-76303092D01*
X192380119Y-76276262D01*
X192398753Y-76251137D01*
X192419760Y-76227960D01*
X192442937Y-76206953D01*
X192468062Y-76188319D01*
X192494892Y-76172238D01*
X192523170Y-76158863D01*
X192552622Y-76148325D01*
X192582965Y-76140725D01*
X192613907Y-76136135D01*
X192645150Y-76134600D01*
X193282650Y-76134600D01*
X193313893Y-76136135D01*
X193313893Y-76136135D01*
G37*
D11*
X192963900Y-76809600D03*
D10*
G36*
X191738893Y-76136135D02*
X191769835Y-76140725D01*
X191800178Y-76148325D01*
X191829630Y-76158863D01*
X191857908Y-76172238D01*
X191884738Y-76188319D01*
X191909863Y-76206953D01*
X191933040Y-76227960D01*
X191954047Y-76251137D01*
X191972681Y-76276262D01*
X191988762Y-76303092D01*
X192002137Y-76331370D01*
X192012675Y-76360822D01*
X192020275Y-76391165D01*
X192024865Y-76422107D01*
X192026400Y-76453350D01*
X192026400Y-77165850D01*
X192024865Y-77197093D01*
X192020275Y-77228035D01*
X192012675Y-77258378D01*
X192002137Y-77287830D01*
X191988762Y-77316108D01*
X191972681Y-77342938D01*
X191954047Y-77368063D01*
X191933040Y-77391240D01*
X191909863Y-77412247D01*
X191884738Y-77430881D01*
X191857908Y-77446962D01*
X191829630Y-77460337D01*
X191800178Y-77470875D01*
X191769835Y-77478475D01*
X191738893Y-77483065D01*
X191707650Y-77484600D01*
X191070150Y-77484600D01*
X191038907Y-77483065D01*
X191007965Y-77478475D01*
X190977622Y-77470875D01*
X190948170Y-77460337D01*
X190919892Y-77446962D01*
X190893062Y-77430881D01*
X190867937Y-77412247D01*
X190844760Y-77391240D01*
X190823753Y-77368063D01*
X190805119Y-77342938D01*
X190789038Y-77316108D01*
X190775663Y-77287830D01*
X190765125Y-77258378D01*
X190757525Y-77228035D01*
X190752935Y-77197093D01*
X190751400Y-77165850D01*
X190751400Y-76453350D01*
X190752935Y-76422107D01*
X190757525Y-76391165D01*
X190765125Y-76360822D01*
X190775663Y-76331370D01*
X190789038Y-76303092D01*
X190805119Y-76276262D01*
X190823753Y-76251137D01*
X190844760Y-76227960D01*
X190867937Y-76206953D01*
X190893062Y-76188319D01*
X190919892Y-76172238D01*
X190948170Y-76158863D01*
X190977622Y-76148325D01*
X191007965Y-76140725D01*
X191038907Y-76136135D01*
X191070150Y-76134600D01*
X191707650Y-76134600D01*
X191738893Y-76136135D01*
X191738893Y-76136135D01*
G37*
D11*
X191388900Y-76809600D03*
G04 #@! TD*
D12*
G04 #@! TO.C,U10*
X166780000Y-81870000D03*
X166780000Y-82520000D03*
X166780000Y-83170000D03*
X166780000Y-83820000D03*
X166780000Y-84470000D03*
X166780000Y-85120000D03*
X166780000Y-85770000D03*
X160880000Y-85770000D03*
X160880000Y-85120000D03*
X160880000Y-84470000D03*
X160880000Y-83820000D03*
X160880000Y-83170000D03*
X160880000Y-82520000D03*
X160880000Y-81870000D03*
G04 #@! TD*
D10*
G04 #@! TO.C,C1*
G36*
X132277493Y-29425535D02*
X132308435Y-29430125D01*
X132338778Y-29437725D01*
X132368230Y-29448263D01*
X132396508Y-29461638D01*
X132423338Y-29477719D01*
X132448463Y-29496353D01*
X132471640Y-29517360D01*
X132492647Y-29540537D01*
X132511281Y-29565662D01*
X132527362Y-29592492D01*
X132540737Y-29620770D01*
X132551275Y-29650222D01*
X132558875Y-29680565D01*
X132563465Y-29711507D01*
X132565000Y-29742750D01*
X132565000Y-30455250D01*
X132563465Y-30486493D01*
X132558875Y-30517435D01*
X132551275Y-30547778D01*
X132540737Y-30577230D01*
X132527362Y-30605508D01*
X132511281Y-30632338D01*
X132492647Y-30657463D01*
X132471640Y-30680640D01*
X132448463Y-30701647D01*
X132423338Y-30720281D01*
X132396508Y-30736362D01*
X132368230Y-30749737D01*
X132338778Y-30760275D01*
X132308435Y-30767875D01*
X132277493Y-30772465D01*
X132246250Y-30774000D01*
X131608750Y-30774000D01*
X131577507Y-30772465D01*
X131546565Y-30767875D01*
X131516222Y-30760275D01*
X131486770Y-30749737D01*
X131458492Y-30736362D01*
X131431662Y-30720281D01*
X131406537Y-30701647D01*
X131383360Y-30680640D01*
X131362353Y-30657463D01*
X131343719Y-30632338D01*
X131327638Y-30605508D01*
X131314263Y-30577230D01*
X131303725Y-30547778D01*
X131296125Y-30517435D01*
X131291535Y-30486493D01*
X131290000Y-30455250D01*
X131290000Y-29742750D01*
X131291535Y-29711507D01*
X131296125Y-29680565D01*
X131303725Y-29650222D01*
X131314263Y-29620770D01*
X131327638Y-29592492D01*
X131343719Y-29565662D01*
X131362353Y-29540537D01*
X131383360Y-29517360D01*
X131406537Y-29496353D01*
X131431662Y-29477719D01*
X131458492Y-29461638D01*
X131486770Y-29448263D01*
X131516222Y-29437725D01*
X131546565Y-29430125D01*
X131577507Y-29425535D01*
X131608750Y-29424000D01*
X132246250Y-29424000D01*
X132277493Y-29425535D01*
X132277493Y-29425535D01*
G37*
D11*
X131927500Y-30099000D03*
D10*
G36*
X133852493Y-29425535D02*
X133883435Y-29430125D01*
X133913778Y-29437725D01*
X133943230Y-29448263D01*
X133971508Y-29461638D01*
X133998338Y-29477719D01*
X134023463Y-29496353D01*
X134046640Y-29517360D01*
X134067647Y-29540537D01*
X134086281Y-29565662D01*
X134102362Y-29592492D01*
X134115737Y-29620770D01*
X134126275Y-29650222D01*
X134133875Y-29680565D01*
X134138465Y-29711507D01*
X134140000Y-29742750D01*
X134140000Y-30455250D01*
X134138465Y-30486493D01*
X134133875Y-30517435D01*
X134126275Y-30547778D01*
X134115737Y-30577230D01*
X134102362Y-30605508D01*
X134086281Y-30632338D01*
X134067647Y-30657463D01*
X134046640Y-30680640D01*
X134023463Y-30701647D01*
X133998338Y-30720281D01*
X133971508Y-30736362D01*
X133943230Y-30749737D01*
X133913778Y-30760275D01*
X133883435Y-30767875D01*
X133852493Y-30772465D01*
X133821250Y-30774000D01*
X133183750Y-30774000D01*
X133152507Y-30772465D01*
X133121565Y-30767875D01*
X133091222Y-30760275D01*
X133061770Y-30749737D01*
X133033492Y-30736362D01*
X133006662Y-30720281D01*
X132981537Y-30701647D01*
X132958360Y-30680640D01*
X132937353Y-30657463D01*
X132918719Y-30632338D01*
X132902638Y-30605508D01*
X132889263Y-30577230D01*
X132878725Y-30547778D01*
X132871125Y-30517435D01*
X132866535Y-30486493D01*
X132865000Y-30455250D01*
X132865000Y-29742750D01*
X132866535Y-29711507D01*
X132871125Y-29680565D01*
X132878725Y-29650222D01*
X132889263Y-29620770D01*
X132902638Y-29592492D01*
X132918719Y-29565662D01*
X132937353Y-29540537D01*
X132958360Y-29517360D01*
X132981537Y-29496353D01*
X133006662Y-29477719D01*
X133033492Y-29461638D01*
X133061770Y-29448263D01*
X133091222Y-29437725D01*
X133121565Y-29430125D01*
X133152507Y-29425535D01*
X133183750Y-29424000D01*
X133821250Y-29424000D01*
X133852493Y-29425535D01*
X133852493Y-29425535D01*
G37*
D11*
X133502500Y-30099000D03*
G04 #@! TD*
D10*
G04 #@! TO.C,C2*
G36*
X164852224Y-28052705D02*
X164883166Y-28057295D01*
X164913509Y-28064895D01*
X164942961Y-28075433D01*
X164971239Y-28088808D01*
X164998069Y-28104889D01*
X165023194Y-28123523D01*
X165046371Y-28144530D01*
X165067378Y-28167707D01*
X165086012Y-28192832D01*
X165102093Y-28219662D01*
X165115468Y-28247940D01*
X165126006Y-28277392D01*
X165133606Y-28307735D01*
X165138196Y-28338677D01*
X165139731Y-28369920D01*
X165139731Y-29007420D01*
X165138196Y-29038663D01*
X165133606Y-29069605D01*
X165126006Y-29099948D01*
X165115468Y-29129400D01*
X165102093Y-29157678D01*
X165086012Y-29184508D01*
X165067378Y-29209633D01*
X165046371Y-29232810D01*
X165023194Y-29253817D01*
X164998069Y-29272451D01*
X164971239Y-29288532D01*
X164942961Y-29301907D01*
X164913509Y-29312445D01*
X164883166Y-29320045D01*
X164852224Y-29324635D01*
X164820981Y-29326170D01*
X164108481Y-29326170D01*
X164077238Y-29324635D01*
X164046296Y-29320045D01*
X164015953Y-29312445D01*
X163986501Y-29301907D01*
X163958223Y-29288532D01*
X163931393Y-29272451D01*
X163906268Y-29253817D01*
X163883091Y-29232810D01*
X163862084Y-29209633D01*
X163843450Y-29184508D01*
X163827369Y-29157678D01*
X163813994Y-29129400D01*
X163803456Y-29099948D01*
X163795856Y-29069605D01*
X163791266Y-29038663D01*
X163789731Y-29007420D01*
X163789731Y-28369920D01*
X163791266Y-28338677D01*
X163795856Y-28307735D01*
X163803456Y-28277392D01*
X163813994Y-28247940D01*
X163827369Y-28219662D01*
X163843450Y-28192832D01*
X163862084Y-28167707D01*
X163883091Y-28144530D01*
X163906268Y-28123523D01*
X163931393Y-28104889D01*
X163958223Y-28088808D01*
X163986501Y-28075433D01*
X164015953Y-28064895D01*
X164046296Y-28057295D01*
X164077238Y-28052705D01*
X164108481Y-28051170D01*
X164820981Y-28051170D01*
X164852224Y-28052705D01*
X164852224Y-28052705D01*
G37*
D11*
X164464731Y-28688670D03*
D10*
G36*
X164852224Y-29627705D02*
X164883166Y-29632295D01*
X164913509Y-29639895D01*
X164942961Y-29650433D01*
X164971239Y-29663808D01*
X164998069Y-29679889D01*
X165023194Y-29698523D01*
X165046371Y-29719530D01*
X165067378Y-29742707D01*
X165086012Y-29767832D01*
X165102093Y-29794662D01*
X165115468Y-29822940D01*
X165126006Y-29852392D01*
X165133606Y-29882735D01*
X165138196Y-29913677D01*
X165139731Y-29944920D01*
X165139731Y-30582420D01*
X165138196Y-30613663D01*
X165133606Y-30644605D01*
X165126006Y-30674948D01*
X165115468Y-30704400D01*
X165102093Y-30732678D01*
X165086012Y-30759508D01*
X165067378Y-30784633D01*
X165046371Y-30807810D01*
X165023194Y-30828817D01*
X164998069Y-30847451D01*
X164971239Y-30863532D01*
X164942961Y-30876907D01*
X164913509Y-30887445D01*
X164883166Y-30895045D01*
X164852224Y-30899635D01*
X164820981Y-30901170D01*
X164108481Y-30901170D01*
X164077238Y-30899635D01*
X164046296Y-30895045D01*
X164015953Y-30887445D01*
X163986501Y-30876907D01*
X163958223Y-30863532D01*
X163931393Y-30847451D01*
X163906268Y-30828817D01*
X163883091Y-30807810D01*
X163862084Y-30784633D01*
X163843450Y-30759508D01*
X163827369Y-30732678D01*
X163813994Y-30704400D01*
X163803456Y-30674948D01*
X163795856Y-30644605D01*
X163791266Y-30613663D01*
X163789731Y-30582420D01*
X163789731Y-29944920D01*
X163791266Y-29913677D01*
X163795856Y-29882735D01*
X163803456Y-29852392D01*
X163813994Y-29822940D01*
X163827369Y-29794662D01*
X163843450Y-29767832D01*
X163862084Y-29742707D01*
X163883091Y-29719530D01*
X163906268Y-29698523D01*
X163931393Y-29679889D01*
X163958223Y-29663808D01*
X163986501Y-29650433D01*
X164015953Y-29639895D01*
X164046296Y-29632295D01*
X164077238Y-29627705D01*
X164108481Y-29626170D01*
X164820981Y-29626170D01*
X164852224Y-29627705D01*
X164852224Y-29627705D01*
G37*
D11*
X164464731Y-30263670D03*
G04 #@! TD*
D10*
G04 #@! TO.C,C3*
G36*
X140595493Y-63346535D02*
X140626435Y-63351125D01*
X140656778Y-63358725D01*
X140686230Y-63369263D01*
X140714508Y-63382638D01*
X140741338Y-63398719D01*
X140766463Y-63417353D01*
X140789640Y-63438360D01*
X140810647Y-63461537D01*
X140829281Y-63486662D01*
X140845362Y-63513492D01*
X140858737Y-63541770D01*
X140869275Y-63571222D01*
X140876875Y-63601565D01*
X140881465Y-63632507D01*
X140883000Y-63663750D01*
X140883000Y-64301250D01*
X140881465Y-64332493D01*
X140876875Y-64363435D01*
X140869275Y-64393778D01*
X140858737Y-64423230D01*
X140845362Y-64451508D01*
X140829281Y-64478338D01*
X140810647Y-64503463D01*
X140789640Y-64526640D01*
X140766463Y-64547647D01*
X140741338Y-64566281D01*
X140714508Y-64582362D01*
X140686230Y-64595737D01*
X140656778Y-64606275D01*
X140626435Y-64613875D01*
X140595493Y-64618465D01*
X140564250Y-64620000D01*
X139851750Y-64620000D01*
X139820507Y-64618465D01*
X139789565Y-64613875D01*
X139759222Y-64606275D01*
X139729770Y-64595737D01*
X139701492Y-64582362D01*
X139674662Y-64566281D01*
X139649537Y-64547647D01*
X139626360Y-64526640D01*
X139605353Y-64503463D01*
X139586719Y-64478338D01*
X139570638Y-64451508D01*
X139557263Y-64423230D01*
X139546725Y-64393778D01*
X139539125Y-64363435D01*
X139534535Y-64332493D01*
X139533000Y-64301250D01*
X139533000Y-63663750D01*
X139534535Y-63632507D01*
X139539125Y-63601565D01*
X139546725Y-63571222D01*
X139557263Y-63541770D01*
X139570638Y-63513492D01*
X139586719Y-63486662D01*
X139605353Y-63461537D01*
X139626360Y-63438360D01*
X139649537Y-63417353D01*
X139674662Y-63398719D01*
X139701492Y-63382638D01*
X139729770Y-63369263D01*
X139759222Y-63358725D01*
X139789565Y-63351125D01*
X139820507Y-63346535D01*
X139851750Y-63345000D01*
X140564250Y-63345000D01*
X140595493Y-63346535D01*
X140595493Y-63346535D01*
G37*
D11*
X140208000Y-63982500D03*
D10*
G36*
X140595493Y-64921535D02*
X140626435Y-64926125D01*
X140656778Y-64933725D01*
X140686230Y-64944263D01*
X140714508Y-64957638D01*
X140741338Y-64973719D01*
X140766463Y-64992353D01*
X140789640Y-65013360D01*
X140810647Y-65036537D01*
X140829281Y-65061662D01*
X140845362Y-65088492D01*
X140858737Y-65116770D01*
X140869275Y-65146222D01*
X140876875Y-65176565D01*
X140881465Y-65207507D01*
X140883000Y-65238750D01*
X140883000Y-65876250D01*
X140881465Y-65907493D01*
X140876875Y-65938435D01*
X140869275Y-65968778D01*
X140858737Y-65998230D01*
X140845362Y-66026508D01*
X140829281Y-66053338D01*
X140810647Y-66078463D01*
X140789640Y-66101640D01*
X140766463Y-66122647D01*
X140741338Y-66141281D01*
X140714508Y-66157362D01*
X140686230Y-66170737D01*
X140656778Y-66181275D01*
X140626435Y-66188875D01*
X140595493Y-66193465D01*
X140564250Y-66195000D01*
X139851750Y-66195000D01*
X139820507Y-66193465D01*
X139789565Y-66188875D01*
X139759222Y-66181275D01*
X139729770Y-66170737D01*
X139701492Y-66157362D01*
X139674662Y-66141281D01*
X139649537Y-66122647D01*
X139626360Y-66101640D01*
X139605353Y-66078463D01*
X139586719Y-66053338D01*
X139570638Y-66026508D01*
X139557263Y-65998230D01*
X139546725Y-65968778D01*
X139539125Y-65938435D01*
X139534535Y-65907493D01*
X139533000Y-65876250D01*
X139533000Y-65238750D01*
X139534535Y-65207507D01*
X139539125Y-65176565D01*
X139546725Y-65146222D01*
X139557263Y-65116770D01*
X139570638Y-65088492D01*
X139586719Y-65061662D01*
X139605353Y-65036537D01*
X139626360Y-65013360D01*
X139649537Y-64992353D01*
X139674662Y-64973719D01*
X139701492Y-64957638D01*
X139729770Y-64944263D01*
X139759222Y-64933725D01*
X139789565Y-64926125D01*
X139820507Y-64921535D01*
X139851750Y-64920000D01*
X140564250Y-64920000D01*
X140595493Y-64921535D01*
X140595493Y-64921535D01*
G37*
D11*
X140208000Y-65557500D03*
G04 #@! TD*
D10*
G04 #@! TO.C,C5*
G36*
X140595493Y-77062535D02*
X140626435Y-77067125D01*
X140656778Y-77074725D01*
X140686230Y-77085263D01*
X140714508Y-77098638D01*
X140741338Y-77114719D01*
X140766463Y-77133353D01*
X140789640Y-77154360D01*
X140810647Y-77177537D01*
X140829281Y-77202662D01*
X140845362Y-77229492D01*
X140858737Y-77257770D01*
X140869275Y-77287222D01*
X140876875Y-77317565D01*
X140881465Y-77348507D01*
X140883000Y-77379750D01*
X140883000Y-78017250D01*
X140881465Y-78048493D01*
X140876875Y-78079435D01*
X140869275Y-78109778D01*
X140858737Y-78139230D01*
X140845362Y-78167508D01*
X140829281Y-78194338D01*
X140810647Y-78219463D01*
X140789640Y-78242640D01*
X140766463Y-78263647D01*
X140741338Y-78282281D01*
X140714508Y-78298362D01*
X140686230Y-78311737D01*
X140656778Y-78322275D01*
X140626435Y-78329875D01*
X140595493Y-78334465D01*
X140564250Y-78336000D01*
X139851750Y-78336000D01*
X139820507Y-78334465D01*
X139789565Y-78329875D01*
X139759222Y-78322275D01*
X139729770Y-78311737D01*
X139701492Y-78298362D01*
X139674662Y-78282281D01*
X139649537Y-78263647D01*
X139626360Y-78242640D01*
X139605353Y-78219463D01*
X139586719Y-78194338D01*
X139570638Y-78167508D01*
X139557263Y-78139230D01*
X139546725Y-78109778D01*
X139539125Y-78079435D01*
X139534535Y-78048493D01*
X139533000Y-78017250D01*
X139533000Y-77379750D01*
X139534535Y-77348507D01*
X139539125Y-77317565D01*
X139546725Y-77287222D01*
X139557263Y-77257770D01*
X139570638Y-77229492D01*
X139586719Y-77202662D01*
X139605353Y-77177537D01*
X139626360Y-77154360D01*
X139649537Y-77133353D01*
X139674662Y-77114719D01*
X139701492Y-77098638D01*
X139729770Y-77085263D01*
X139759222Y-77074725D01*
X139789565Y-77067125D01*
X139820507Y-77062535D01*
X139851750Y-77061000D01*
X140564250Y-77061000D01*
X140595493Y-77062535D01*
X140595493Y-77062535D01*
G37*
D11*
X140208000Y-77698500D03*
D10*
G36*
X140595493Y-78637535D02*
X140626435Y-78642125D01*
X140656778Y-78649725D01*
X140686230Y-78660263D01*
X140714508Y-78673638D01*
X140741338Y-78689719D01*
X140766463Y-78708353D01*
X140789640Y-78729360D01*
X140810647Y-78752537D01*
X140829281Y-78777662D01*
X140845362Y-78804492D01*
X140858737Y-78832770D01*
X140869275Y-78862222D01*
X140876875Y-78892565D01*
X140881465Y-78923507D01*
X140883000Y-78954750D01*
X140883000Y-79592250D01*
X140881465Y-79623493D01*
X140876875Y-79654435D01*
X140869275Y-79684778D01*
X140858737Y-79714230D01*
X140845362Y-79742508D01*
X140829281Y-79769338D01*
X140810647Y-79794463D01*
X140789640Y-79817640D01*
X140766463Y-79838647D01*
X140741338Y-79857281D01*
X140714508Y-79873362D01*
X140686230Y-79886737D01*
X140656778Y-79897275D01*
X140626435Y-79904875D01*
X140595493Y-79909465D01*
X140564250Y-79911000D01*
X139851750Y-79911000D01*
X139820507Y-79909465D01*
X139789565Y-79904875D01*
X139759222Y-79897275D01*
X139729770Y-79886737D01*
X139701492Y-79873362D01*
X139674662Y-79857281D01*
X139649537Y-79838647D01*
X139626360Y-79817640D01*
X139605353Y-79794463D01*
X139586719Y-79769338D01*
X139570638Y-79742508D01*
X139557263Y-79714230D01*
X139546725Y-79684778D01*
X139539125Y-79654435D01*
X139534535Y-79623493D01*
X139533000Y-79592250D01*
X139533000Y-78954750D01*
X139534535Y-78923507D01*
X139539125Y-78892565D01*
X139546725Y-78862222D01*
X139557263Y-78832770D01*
X139570638Y-78804492D01*
X139586719Y-78777662D01*
X139605353Y-78752537D01*
X139626360Y-78729360D01*
X139649537Y-78708353D01*
X139674662Y-78689719D01*
X139701492Y-78673638D01*
X139729770Y-78660263D01*
X139759222Y-78649725D01*
X139789565Y-78642125D01*
X139820507Y-78637535D01*
X139851750Y-78636000D01*
X140564250Y-78636000D01*
X140595493Y-78637535D01*
X140595493Y-78637535D01*
G37*
D11*
X140208000Y-79273500D03*
G04 #@! TD*
D10*
G04 #@! TO.C,C7*
G36*
X175012224Y-29627705D02*
X175043166Y-29632295D01*
X175073509Y-29639895D01*
X175102961Y-29650433D01*
X175131239Y-29663808D01*
X175158069Y-29679889D01*
X175183194Y-29698523D01*
X175206371Y-29719530D01*
X175227378Y-29742707D01*
X175246012Y-29767832D01*
X175262093Y-29794662D01*
X175275468Y-29822940D01*
X175286006Y-29852392D01*
X175293606Y-29882735D01*
X175298196Y-29913677D01*
X175299731Y-29944920D01*
X175299731Y-30582420D01*
X175298196Y-30613663D01*
X175293606Y-30644605D01*
X175286006Y-30674948D01*
X175275468Y-30704400D01*
X175262093Y-30732678D01*
X175246012Y-30759508D01*
X175227378Y-30784633D01*
X175206371Y-30807810D01*
X175183194Y-30828817D01*
X175158069Y-30847451D01*
X175131239Y-30863532D01*
X175102961Y-30876907D01*
X175073509Y-30887445D01*
X175043166Y-30895045D01*
X175012224Y-30899635D01*
X174980981Y-30901170D01*
X174268481Y-30901170D01*
X174237238Y-30899635D01*
X174206296Y-30895045D01*
X174175953Y-30887445D01*
X174146501Y-30876907D01*
X174118223Y-30863532D01*
X174091393Y-30847451D01*
X174066268Y-30828817D01*
X174043091Y-30807810D01*
X174022084Y-30784633D01*
X174003450Y-30759508D01*
X173987369Y-30732678D01*
X173973994Y-30704400D01*
X173963456Y-30674948D01*
X173955856Y-30644605D01*
X173951266Y-30613663D01*
X173949731Y-30582420D01*
X173949731Y-29944920D01*
X173951266Y-29913677D01*
X173955856Y-29882735D01*
X173963456Y-29852392D01*
X173973994Y-29822940D01*
X173987369Y-29794662D01*
X174003450Y-29767832D01*
X174022084Y-29742707D01*
X174043091Y-29719530D01*
X174066268Y-29698523D01*
X174091393Y-29679889D01*
X174118223Y-29663808D01*
X174146501Y-29650433D01*
X174175953Y-29639895D01*
X174206296Y-29632295D01*
X174237238Y-29627705D01*
X174268481Y-29626170D01*
X174980981Y-29626170D01*
X175012224Y-29627705D01*
X175012224Y-29627705D01*
G37*
D11*
X174624731Y-30263670D03*
D10*
G36*
X175012224Y-28052705D02*
X175043166Y-28057295D01*
X175073509Y-28064895D01*
X175102961Y-28075433D01*
X175131239Y-28088808D01*
X175158069Y-28104889D01*
X175183194Y-28123523D01*
X175206371Y-28144530D01*
X175227378Y-28167707D01*
X175246012Y-28192832D01*
X175262093Y-28219662D01*
X175275468Y-28247940D01*
X175286006Y-28277392D01*
X175293606Y-28307735D01*
X175298196Y-28338677D01*
X175299731Y-28369920D01*
X175299731Y-29007420D01*
X175298196Y-29038663D01*
X175293606Y-29069605D01*
X175286006Y-29099948D01*
X175275468Y-29129400D01*
X175262093Y-29157678D01*
X175246012Y-29184508D01*
X175227378Y-29209633D01*
X175206371Y-29232810D01*
X175183194Y-29253817D01*
X175158069Y-29272451D01*
X175131239Y-29288532D01*
X175102961Y-29301907D01*
X175073509Y-29312445D01*
X175043166Y-29320045D01*
X175012224Y-29324635D01*
X174980981Y-29326170D01*
X174268481Y-29326170D01*
X174237238Y-29324635D01*
X174206296Y-29320045D01*
X174175953Y-29312445D01*
X174146501Y-29301907D01*
X174118223Y-29288532D01*
X174091393Y-29272451D01*
X174066268Y-29253817D01*
X174043091Y-29232810D01*
X174022084Y-29209633D01*
X174003450Y-29184508D01*
X173987369Y-29157678D01*
X173973994Y-29129400D01*
X173963456Y-29099948D01*
X173955856Y-29069605D01*
X173951266Y-29038663D01*
X173949731Y-29007420D01*
X173949731Y-28369920D01*
X173951266Y-28338677D01*
X173955856Y-28307735D01*
X173963456Y-28277392D01*
X173973994Y-28247940D01*
X173987369Y-28219662D01*
X174003450Y-28192832D01*
X174022084Y-28167707D01*
X174043091Y-28144530D01*
X174066268Y-28123523D01*
X174091393Y-28104889D01*
X174118223Y-28088808D01*
X174146501Y-28075433D01*
X174175953Y-28064895D01*
X174206296Y-28057295D01*
X174237238Y-28052705D01*
X174268481Y-28051170D01*
X174980981Y-28051170D01*
X175012224Y-28052705D01*
X175012224Y-28052705D01*
G37*
D11*
X174624731Y-28688670D03*
G04 #@! TD*
D10*
G04 #@! TO.C,C8*
G36*
X175012224Y-37247705D02*
X175043166Y-37252295D01*
X175073509Y-37259895D01*
X175102961Y-37270433D01*
X175131239Y-37283808D01*
X175158069Y-37299889D01*
X175183194Y-37318523D01*
X175206371Y-37339530D01*
X175227378Y-37362707D01*
X175246012Y-37387832D01*
X175262093Y-37414662D01*
X175275468Y-37442940D01*
X175286006Y-37472392D01*
X175293606Y-37502735D01*
X175298196Y-37533677D01*
X175299731Y-37564920D01*
X175299731Y-38202420D01*
X175298196Y-38233663D01*
X175293606Y-38264605D01*
X175286006Y-38294948D01*
X175275468Y-38324400D01*
X175262093Y-38352678D01*
X175246012Y-38379508D01*
X175227378Y-38404633D01*
X175206371Y-38427810D01*
X175183194Y-38448817D01*
X175158069Y-38467451D01*
X175131239Y-38483532D01*
X175102961Y-38496907D01*
X175073509Y-38507445D01*
X175043166Y-38515045D01*
X175012224Y-38519635D01*
X174980981Y-38521170D01*
X174268481Y-38521170D01*
X174237238Y-38519635D01*
X174206296Y-38515045D01*
X174175953Y-38507445D01*
X174146501Y-38496907D01*
X174118223Y-38483532D01*
X174091393Y-38467451D01*
X174066268Y-38448817D01*
X174043091Y-38427810D01*
X174022084Y-38404633D01*
X174003450Y-38379508D01*
X173987369Y-38352678D01*
X173973994Y-38324400D01*
X173963456Y-38294948D01*
X173955856Y-38264605D01*
X173951266Y-38233663D01*
X173949731Y-38202420D01*
X173949731Y-37564920D01*
X173951266Y-37533677D01*
X173955856Y-37502735D01*
X173963456Y-37472392D01*
X173973994Y-37442940D01*
X173987369Y-37414662D01*
X174003450Y-37387832D01*
X174022084Y-37362707D01*
X174043091Y-37339530D01*
X174066268Y-37318523D01*
X174091393Y-37299889D01*
X174118223Y-37283808D01*
X174146501Y-37270433D01*
X174175953Y-37259895D01*
X174206296Y-37252295D01*
X174237238Y-37247705D01*
X174268481Y-37246170D01*
X174980981Y-37246170D01*
X175012224Y-37247705D01*
X175012224Y-37247705D01*
G37*
D11*
X174624731Y-37883670D03*
D10*
G36*
X175012224Y-35672705D02*
X175043166Y-35677295D01*
X175073509Y-35684895D01*
X175102961Y-35695433D01*
X175131239Y-35708808D01*
X175158069Y-35724889D01*
X175183194Y-35743523D01*
X175206371Y-35764530D01*
X175227378Y-35787707D01*
X175246012Y-35812832D01*
X175262093Y-35839662D01*
X175275468Y-35867940D01*
X175286006Y-35897392D01*
X175293606Y-35927735D01*
X175298196Y-35958677D01*
X175299731Y-35989920D01*
X175299731Y-36627420D01*
X175298196Y-36658663D01*
X175293606Y-36689605D01*
X175286006Y-36719948D01*
X175275468Y-36749400D01*
X175262093Y-36777678D01*
X175246012Y-36804508D01*
X175227378Y-36829633D01*
X175206371Y-36852810D01*
X175183194Y-36873817D01*
X175158069Y-36892451D01*
X175131239Y-36908532D01*
X175102961Y-36921907D01*
X175073509Y-36932445D01*
X175043166Y-36940045D01*
X175012224Y-36944635D01*
X174980981Y-36946170D01*
X174268481Y-36946170D01*
X174237238Y-36944635D01*
X174206296Y-36940045D01*
X174175953Y-36932445D01*
X174146501Y-36921907D01*
X174118223Y-36908532D01*
X174091393Y-36892451D01*
X174066268Y-36873817D01*
X174043091Y-36852810D01*
X174022084Y-36829633D01*
X174003450Y-36804508D01*
X173987369Y-36777678D01*
X173973994Y-36749400D01*
X173963456Y-36719948D01*
X173955856Y-36689605D01*
X173951266Y-36658663D01*
X173949731Y-36627420D01*
X173949731Y-35989920D01*
X173951266Y-35958677D01*
X173955856Y-35927735D01*
X173963456Y-35897392D01*
X173973994Y-35867940D01*
X173987369Y-35839662D01*
X174003450Y-35812832D01*
X174022084Y-35787707D01*
X174043091Y-35764530D01*
X174066268Y-35743523D01*
X174091393Y-35724889D01*
X174118223Y-35708808D01*
X174146501Y-35695433D01*
X174175953Y-35684895D01*
X174206296Y-35677295D01*
X174237238Y-35672705D01*
X174268481Y-35671170D01*
X174980981Y-35671170D01*
X175012224Y-35672705D01*
X175012224Y-35672705D01*
G37*
D11*
X174624731Y-36308670D03*
G04 #@! TD*
D10*
G04 #@! TO.C,C9*
G36*
X155073493Y-63092535D02*
X155104435Y-63097125D01*
X155134778Y-63104725D01*
X155164230Y-63115263D01*
X155192508Y-63128638D01*
X155219338Y-63144719D01*
X155244463Y-63163353D01*
X155267640Y-63184360D01*
X155288647Y-63207537D01*
X155307281Y-63232662D01*
X155323362Y-63259492D01*
X155336737Y-63287770D01*
X155347275Y-63317222D01*
X155354875Y-63347565D01*
X155359465Y-63378507D01*
X155361000Y-63409750D01*
X155361000Y-64047250D01*
X155359465Y-64078493D01*
X155354875Y-64109435D01*
X155347275Y-64139778D01*
X155336737Y-64169230D01*
X155323362Y-64197508D01*
X155307281Y-64224338D01*
X155288647Y-64249463D01*
X155267640Y-64272640D01*
X155244463Y-64293647D01*
X155219338Y-64312281D01*
X155192508Y-64328362D01*
X155164230Y-64341737D01*
X155134778Y-64352275D01*
X155104435Y-64359875D01*
X155073493Y-64364465D01*
X155042250Y-64366000D01*
X154329750Y-64366000D01*
X154298507Y-64364465D01*
X154267565Y-64359875D01*
X154237222Y-64352275D01*
X154207770Y-64341737D01*
X154179492Y-64328362D01*
X154152662Y-64312281D01*
X154127537Y-64293647D01*
X154104360Y-64272640D01*
X154083353Y-64249463D01*
X154064719Y-64224338D01*
X154048638Y-64197508D01*
X154035263Y-64169230D01*
X154024725Y-64139778D01*
X154017125Y-64109435D01*
X154012535Y-64078493D01*
X154011000Y-64047250D01*
X154011000Y-63409750D01*
X154012535Y-63378507D01*
X154017125Y-63347565D01*
X154024725Y-63317222D01*
X154035263Y-63287770D01*
X154048638Y-63259492D01*
X154064719Y-63232662D01*
X154083353Y-63207537D01*
X154104360Y-63184360D01*
X154127537Y-63163353D01*
X154152662Y-63144719D01*
X154179492Y-63128638D01*
X154207770Y-63115263D01*
X154237222Y-63104725D01*
X154267565Y-63097125D01*
X154298507Y-63092535D01*
X154329750Y-63091000D01*
X155042250Y-63091000D01*
X155073493Y-63092535D01*
X155073493Y-63092535D01*
G37*
D11*
X154686000Y-63728500D03*
D10*
G36*
X155073493Y-64667535D02*
X155104435Y-64672125D01*
X155134778Y-64679725D01*
X155164230Y-64690263D01*
X155192508Y-64703638D01*
X155219338Y-64719719D01*
X155244463Y-64738353D01*
X155267640Y-64759360D01*
X155288647Y-64782537D01*
X155307281Y-64807662D01*
X155323362Y-64834492D01*
X155336737Y-64862770D01*
X155347275Y-64892222D01*
X155354875Y-64922565D01*
X155359465Y-64953507D01*
X155361000Y-64984750D01*
X155361000Y-65622250D01*
X155359465Y-65653493D01*
X155354875Y-65684435D01*
X155347275Y-65714778D01*
X155336737Y-65744230D01*
X155323362Y-65772508D01*
X155307281Y-65799338D01*
X155288647Y-65824463D01*
X155267640Y-65847640D01*
X155244463Y-65868647D01*
X155219338Y-65887281D01*
X155192508Y-65903362D01*
X155164230Y-65916737D01*
X155134778Y-65927275D01*
X155104435Y-65934875D01*
X155073493Y-65939465D01*
X155042250Y-65941000D01*
X154329750Y-65941000D01*
X154298507Y-65939465D01*
X154267565Y-65934875D01*
X154237222Y-65927275D01*
X154207770Y-65916737D01*
X154179492Y-65903362D01*
X154152662Y-65887281D01*
X154127537Y-65868647D01*
X154104360Y-65847640D01*
X154083353Y-65824463D01*
X154064719Y-65799338D01*
X154048638Y-65772508D01*
X154035263Y-65744230D01*
X154024725Y-65714778D01*
X154017125Y-65684435D01*
X154012535Y-65653493D01*
X154011000Y-65622250D01*
X154011000Y-64984750D01*
X154012535Y-64953507D01*
X154017125Y-64922565D01*
X154024725Y-64892222D01*
X154035263Y-64862770D01*
X154048638Y-64834492D01*
X154064719Y-64807662D01*
X154083353Y-64782537D01*
X154104360Y-64759360D01*
X154127537Y-64738353D01*
X154152662Y-64719719D01*
X154179492Y-64703638D01*
X154207770Y-64690263D01*
X154237222Y-64679725D01*
X154267565Y-64672125D01*
X154298507Y-64667535D01*
X154329750Y-64666000D01*
X155042250Y-64666000D01*
X155073493Y-64667535D01*
X155073493Y-64667535D01*
G37*
D11*
X154686000Y-65303500D03*
G04 #@! TD*
D10*
G04 #@! TO.C,C11*
G36*
X154611497Y-76897721D02*
X154642439Y-76902311D01*
X154672782Y-76909911D01*
X154702234Y-76920449D01*
X154730512Y-76933824D01*
X154757342Y-76949905D01*
X154782467Y-76968539D01*
X154805644Y-76989546D01*
X154826651Y-77012723D01*
X154845285Y-77037848D01*
X154861366Y-77064678D01*
X154874741Y-77092956D01*
X154885279Y-77122408D01*
X154892879Y-77152751D01*
X154897469Y-77183693D01*
X154899004Y-77214936D01*
X154899004Y-77852436D01*
X154897469Y-77883679D01*
X154892879Y-77914621D01*
X154885279Y-77944964D01*
X154874741Y-77974416D01*
X154861366Y-78002694D01*
X154845285Y-78029524D01*
X154826651Y-78054649D01*
X154805644Y-78077826D01*
X154782467Y-78098833D01*
X154757342Y-78117467D01*
X154730512Y-78133548D01*
X154702234Y-78146923D01*
X154672782Y-78157461D01*
X154642439Y-78165061D01*
X154611497Y-78169651D01*
X154580254Y-78171186D01*
X153867754Y-78171186D01*
X153836511Y-78169651D01*
X153805569Y-78165061D01*
X153775226Y-78157461D01*
X153745774Y-78146923D01*
X153717496Y-78133548D01*
X153690666Y-78117467D01*
X153665541Y-78098833D01*
X153642364Y-78077826D01*
X153621357Y-78054649D01*
X153602723Y-78029524D01*
X153586642Y-78002694D01*
X153573267Y-77974416D01*
X153562729Y-77944964D01*
X153555129Y-77914621D01*
X153550539Y-77883679D01*
X153549004Y-77852436D01*
X153549004Y-77214936D01*
X153550539Y-77183693D01*
X153555129Y-77152751D01*
X153562729Y-77122408D01*
X153573267Y-77092956D01*
X153586642Y-77064678D01*
X153602723Y-77037848D01*
X153621357Y-77012723D01*
X153642364Y-76989546D01*
X153665541Y-76968539D01*
X153690666Y-76949905D01*
X153717496Y-76933824D01*
X153745774Y-76920449D01*
X153775226Y-76909911D01*
X153805569Y-76902311D01*
X153836511Y-76897721D01*
X153867754Y-76896186D01*
X154580254Y-76896186D01*
X154611497Y-76897721D01*
X154611497Y-76897721D01*
G37*
D11*
X154224004Y-77533686D03*
D10*
G36*
X154611497Y-78472721D02*
X154642439Y-78477311D01*
X154672782Y-78484911D01*
X154702234Y-78495449D01*
X154730512Y-78508824D01*
X154757342Y-78524905D01*
X154782467Y-78543539D01*
X154805644Y-78564546D01*
X154826651Y-78587723D01*
X154845285Y-78612848D01*
X154861366Y-78639678D01*
X154874741Y-78667956D01*
X154885279Y-78697408D01*
X154892879Y-78727751D01*
X154897469Y-78758693D01*
X154899004Y-78789936D01*
X154899004Y-79427436D01*
X154897469Y-79458679D01*
X154892879Y-79489621D01*
X154885279Y-79519964D01*
X154874741Y-79549416D01*
X154861366Y-79577694D01*
X154845285Y-79604524D01*
X154826651Y-79629649D01*
X154805644Y-79652826D01*
X154782467Y-79673833D01*
X154757342Y-79692467D01*
X154730512Y-79708548D01*
X154702234Y-79721923D01*
X154672782Y-79732461D01*
X154642439Y-79740061D01*
X154611497Y-79744651D01*
X154580254Y-79746186D01*
X153867754Y-79746186D01*
X153836511Y-79744651D01*
X153805569Y-79740061D01*
X153775226Y-79732461D01*
X153745774Y-79721923D01*
X153717496Y-79708548D01*
X153690666Y-79692467D01*
X153665541Y-79673833D01*
X153642364Y-79652826D01*
X153621357Y-79629649D01*
X153602723Y-79604524D01*
X153586642Y-79577694D01*
X153573267Y-79549416D01*
X153562729Y-79519964D01*
X153555129Y-79489621D01*
X153550539Y-79458679D01*
X153549004Y-79427436D01*
X153549004Y-78789936D01*
X153550539Y-78758693D01*
X153555129Y-78727751D01*
X153562729Y-78697408D01*
X153573267Y-78667956D01*
X153586642Y-78639678D01*
X153602723Y-78612848D01*
X153621357Y-78587723D01*
X153642364Y-78564546D01*
X153665541Y-78543539D01*
X153690666Y-78524905D01*
X153717496Y-78508824D01*
X153745774Y-78495449D01*
X153775226Y-78484911D01*
X153805569Y-78477311D01*
X153836511Y-78472721D01*
X153867754Y-78471186D01*
X154580254Y-78471186D01*
X154611497Y-78472721D01*
X154611497Y-78472721D01*
G37*
D11*
X154224004Y-79108686D03*
G04 #@! TD*
D10*
G04 #@! TO.C,C12*
G36*
X175012224Y-43597705D02*
X175043166Y-43602295D01*
X175073509Y-43609895D01*
X175102961Y-43620433D01*
X175131239Y-43633808D01*
X175158069Y-43649889D01*
X175183194Y-43668523D01*
X175206371Y-43689530D01*
X175227378Y-43712707D01*
X175246012Y-43737832D01*
X175262093Y-43764662D01*
X175275468Y-43792940D01*
X175286006Y-43822392D01*
X175293606Y-43852735D01*
X175298196Y-43883677D01*
X175299731Y-43914920D01*
X175299731Y-44552420D01*
X175298196Y-44583663D01*
X175293606Y-44614605D01*
X175286006Y-44644948D01*
X175275468Y-44674400D01*
X175262093Y-44702678D01*
X175246012Y-44729508D01*
X175227378Y-44754633D01*
X175206371Y-44777810D01*
X175183194Y-44798817D01*
X175158069Y-44817451D01*
X175131239Y-44833532D01*
X175102961Y-44846907D01*
X175073509Y-44857445D01*
X175043166Y-44865045D01*
X175012224Y-44869635D01*
X174980981Y-44871170D01*
X174268481Y-44871170D01*
X174237238Y-44869635D01*
X174206296Y-44865045D01*
X174175953Y-44857445D01*
X174146501Y-44846907D01*
X174118223Y-44833532D01*
X174091393Y-44817451D01*
X174066268Y-44798817D01*
X174043091Y-44777810D01*
X174022084Y-44754633D01*
X174003450Y-44729508D01*
X173987369Y-44702678D01*
X173973994Y-44674400D01*
X173963456Y-44644948D01*
X173955856Y-44614605D01*
X173951266Y-44583663D01*
X173949731Y-44552420D01*
X173949731Y-43914920D01*
X173951266Y-43883677D01*
X173955856Y-43852735D01*
X173963456Y-43822392D01*
X173973994Y-43792940D01*
X173987369Y-43764662D01*
X174003450Y-43737832D01*
X174022084Y-43712707D01*
X174043091Y-43689530D01*
X174066268Y-43668523D01*
X174091393Y-43649889D01*
X174118223Y-43633808D01*
X174146501Y-43620433D01*
X174175953Y-43609895D01*
X174206296Y-43602295D01*
X174237238Y-43597705D01*
X174268481Y-43596170D01*
X174980981Y-43596170D01*
X175012224Y-43597705D01*
X175012224Y-43597705D01*
G37*
D11*
X174624731Y-44233670D03*
D10*
G36*
X175012224Y-42022705D02*
X175043166Y-42027295D01*
X175073509Y-42034895D01*
X175102961Y-42045433D01*
X175131239Y-42058808D01*
X175158069Y-42074889D01*
X175183194Y-42093523D01*
X175206371Y-42114530D01*
X175227378Y-42137707D01*
X175246012Y-42162832D01*
X175262093Y-42189662D01*
X175275468Y-42217940D01*
X175286006Y-42247392D01*
X175293606Y-42277735D01*
X175298196Y-42308677D01*
X175299731Y-42339920D01*
X175299731Y-42977420D01*
X175298196Y-43008663D01*
X175293606Y-43039605D01*
X175286006Y-43069948D01*
X175275468Y-43099400D01*
X175262093Y-43127678D01*
X175246012Y-43154508D01*
X175227378Y-43179633D01*
X175206371Y-43202810D01*
X175183194Y-43223817D01*
X175158069Y-43242451D01*
X175131239Y-43258532D01*
X175102961Y-43271907D01*
X175073509Y-43282445D01*
X175043166Y-43290045D01*
X175012224Y-43294635D01*
X174980981Y-43296170D01*
X174268481Y-43296170D01*
X174237238Y-43294635D01*
X174206296Y-43290045D01*
X174175953Y-43282445D01*
X174146501Y-43271907D01*
X174118223Y-43258532D01*
X174091393Y-43242451D01*
X174066268Y-43223817D01*
X174043091Y-43202810D01*
X174022084Y-43179633D01*
X174003450Y-43154508D01*
X173987369Y-43127678D01*
X173973994Y-43099400D01*
X173963456Y-43069948D01*
X173955856Y-43039605D01*
X173951266Y-43008663D01*
X173949731Y-42977420D01*
X173949731Y-42339920D01*
X173951266Y-42308677D01*
X173955856Y-42277735D01*
X173963456Y-42247392D01*
X173973994Y-42217940D01*
X173987369Y-42189662D01*
X174003450Y-42162832D01*
X174022084Y-42137707D01*
X174043091Y-42114530D01*
X174066268Y-42093523D01*
X174091393Y-42074889D01*
X174118223Y-42058808D01*
X174146501Y-42045433D01*
X174175953Y-42034895D01*
X174206296Y-42027295D01*
X174237238Y-42022705D01*
X174268481Y-42021170D01*
X174980981Y-42021170D01*
X175012224Y-42022705D01*
X175012224Y-42022705D01*
G37*
D11*
X174624731Y-42658670D03*
G04 #@! TD*
D10*
G04 #@! TO.C,C13*
G36*
X159137493Y-85216035D02*
X159168435Y-85220625D01*
X159198778Y-85228225D01*
X159228230Y-85238763D01*
X159256508Y-85252138D01*
X159283338Y-85268219D01*
X159308463Y-85286853D01*
X159331640Y-85307860D01*
X159352647Y-85331037D01*
X159371281Y-85356162D01*
X159387362Y-85382992D01*
X159400737Y-85411270D01*
X159411275Y-85440722D01*
X159418875Y-85471065D01*
X159423465Y-85502007D01*
X159425000Y-85533250D01*
X159425000Y-86170750D01*
X159423465Y-86201993D01*
X159418875Y-86232935D01*
X159411275Y-86263278D01*
X159400737Y-86292730D01*
X159387362Y-86321008D01*
X159371281Y-86347838D01*
X159352647Y-86372963D01*
X159331640Y-86396140D01*
X159308463Y-86417147D01*
X159283338Y-86435781D01*
X159256508Y-86451862D01*
X159228230Y-86465237D01*
X159198778Y-86475775D01*
X159168435Y-86483375D01*
X159137493Y-86487965D01*
X159106250Y-86489500D01*
X158393750Y-86489500D01*
X158362507Y-86487965D01*
X158331565Y-86483375D01*
X158301222Y-86475775D01*
X158271770Y-86465237D01*
X158243492Y-86451862D01*
X158216662Y-86435781D01*
X158191537Y-86417147D01*
X158168360Y-86396140D01*
X158147353Y-86372963D01*
X158128719Y-86347838D01*
X158112638Y-86321008D01*
X158099263Y-86292730D01*
X158088725Y-86263278D01*
X158081125Y-86232935D01*
X158076535Y-86201993D01*
X158075000Y-86170750D01*
X158075000Y-85533250D01*
X158076535Y-85502007D01*
X158081125Y-85471065D01*
X158088725Y-85440722D01*
X158099263Y-85411270D01*
X158112638Y-85382992D01*
X158128719Y-85356162D01*
X158147353Y-85331037D01*
X158168360Y-85307860D01*
X158191537Y-85286853D01*
X158216662Y-85268219D01*
X158243492Y-85252138D01*
X158271770Y-85238763D01*
X158301222Y-85228225D01*
X158331565Y-85220625D01*
X158362507Y-85216035D01*
X158393750Y-85214500D01*
X159106250Y-85214500D01*
X159137493Y-85216035D01*
X159137493Y-85216035D01*
G37*
D11*
X158750000Y-85852000D03*
D10*
G36*
X159137493Y-86791035D02*
X159168435Y-86795625D01*
X159198778Y-86803225D01*
X159228230Y-86813763D01*
X159256508Y-86827138D01*
X159283338Y-86843219D01*
X159308463Y-86861853D01*
X159331640Y-86882860D01*
X159352647Y-86906037D01*
X159371281Y-86931162D01*
X159387362Y-86957992D01*
X159400737Y-86986270D01*
X159411275Y-87015722D01*
X159418875Y-87046065D01*
X159423465Y-87077007D01*
X159425000Y-87108250D01*
X159425000Y-87745750D01*
X159423465Y-87776993D01*
X159418875Y-87807935D01*
X159411275Y-87838278D01*
X159400737Y-87867730D01*
X159387362Y-87896008D01*
X159371281Y-87922838D01*
X159352647Y-87947963D01*
X159331640Y-87971140D01*
X159308463Y-87992147D01*
X159283338Y-88010781D01*
X159256508Y-88026862D01*
X159228230Y-88040237D01*
X159198778Y-88050775D01*
X159168435Y-88058375D01*
X159137493Y-88062965D01*
X159106250Y-88064500D01*
X158393750Y-88064500D01*
X158362507Y-88062965D01*
X158331565Y-88058375D01*
X158301222Y-88050775D01*
X158271770Y-88040237D01*
X158243492Y-88026862D01*
X158216662Y-88010781D01*
X158191537Y-87992147D01*
X158168360Y-87971140D01*
X158147353Y-87947963D01*
X158128719Y-87922838D01*
X158112638Y-87896008D01*
X158099263Y-87867730D01*
X158088725Y-87838278D01*
X158081125Y-87807935D01*
X158076535Y-87776993D01*
X158075000Y-87745750D01*
X158075000Y-87108250D01*
X158076535Y-87077007D01*
X158081125Y-87046065D01*
X158088725Y-87015722D01*
X158099263Y-86986270D01*
X158112638Y-86957992D01*
X158128719Y-86931162D01*
X158147353Y-86906037D01*
X158168360Y-86882860D01*
X158191537Y-86861853D01*
X158216662Y-86843219D01*
X158243492Y-86827138D01*
X158271770Y-86813763D01*
X158301222Y-86803225D01*
X158331565Y-86795625D01*
X158362507Y-86791035D01*
X158393750Y-86789500D01*
X159106250Y-86789500D01*
X159137493Y-86791035D01*
X159137493Y-86791035D01*
G37*
D11*
X158750000Y-87427000D03*
G04 #@! TD*
D10*
G04 #@! TO.C,C14*
G36*
X174885493Y-47141535D02*
X174916435Y-47146125D01*
X174946778Y-47153725D01*
X174976230Y-47164263D01*
X175004508Y-47177638D01*
X175031338Y-47193719D01*
X175056463Y-47212353D01*
X175079640Y-47233360D01*
X175100647Y-47256537D01*
X175119281Y-47281662D01*
X175135362Y-47308492D01*
X175148737Y-47336770D01*
X175159275Y-47366222D01*
X175166875Y-47396565D01*
X175171465Y-47427507D01*
X175173000Y-47458750D01*
X175173000Y-48096250D01*
X175171465Y-48127493D01*
X175166875Y-48158435D01*
X175159275Y-48188778D01*
X175148737Y-48218230D01*
X175135362Y-48246508D01*
X175119281Y-48273338D01*
X175100647Y-48298463D01*
X175079640Y-48321640D01*
X175056463Y-48342647D01*
X175031338Y-48361281D01*
X175004508Y-48377362D01*
X174976230Y-48390737D01*
X174946778Y-48401275D01*
X174916435Y-48408875D01*
X174885493Y-48413465D01*
X174854250Y-48415000D01*
X174141750Y-48415000D01*
X174110507Y-48413465D01*
X174079565Y-48408875D01*
X174049222Y-48401275D01*
X174019770Y-48390737D01*
X173991492Y-48377362D01*
X173964662Y-48361281D01*
X173939537Y-48342647D01*
X173916360Y-48321640D01*
X173895353Y-48298463D01*
X173876719Y-48273338D01*
X173860638Y-48246508D01*
X173847263Y-48218230D01*
X173836725Y-48188778D01*
X173829125Y-48158435D01*
X173824535Y-48127493D01*
X173823000Y-48096250D01*
X173823000Y-47458750D01*
X173824535Y-47427507D01*
X173829125Y-47396565D01*
X173836725Y-47366222D01*
X173847263Y-47336770D01*
X173860638Y-47308492D01*
X173876719Y-47281662D01*
X173895353Y-47256537D01*
X173916360Y-47233360D01*
X173939537Y-47212353D01*
X173964662Y-47193719D01*
X173991492Y-47177638D01*
X174019770Y-47164263D01*
X174049222Y-47153725D01*
X174079565Y-47146125D01*
X174110507Y-47141535D01*
X174141750Y-47140000D01*
X174854250Y-47140000D01*
X174885493Y-47141535D01*
X174885493Y-47141535D01*
G37*
D11*
X174498000Y-47777500D03*
D10*
G36*
X174885493Y-45566535D02*
X174916435Y-45571125D01*
X174946778Y-45578725D01*
X174976230Y-45589263D01*
X175004508Y-45602638D01*
X175031338Y-45618719D01*
X175056463Y-45637353D01*
X175079640Y-45658360D01*
X175100647Y-45681537D01*
X175119281Y-45706662D01*
X175135362Y-45733492D01*
X175148737Y-45761770D01*
X175159275Y-45791222D01*
X175166875Y-45821565D01*
X175171465Y-45852507D01*
X175173000Y-45883750D01*
X175173000Y-46521250D01*
X175171465Y-46552493D01*
X175166875Y-46583435D01*
X175159275Y-46613778D01*
X175148737Y-46643230D01*
X175135362Y-46671508D01*
X175119281Y-46698338D01*
X175100647Y-46723463D01*
X175079640Y-46746640D01*
X175056463Y-46767647D01*
X175031338Y-46786281D01*
X175004508Y-46802362D01*
X174976230Y-46815737D01*
X174946778Y-46826275D01*
X174916435Y-46833875D01*
X174885493Y-46838465D01*
X174854250Y-46840000D01*
X174141750Y-46840000D01*
X174110507Y-46838465D01*
X174079565Y-46833875D01*
X174049222Y-46826275D01*
X174019770Y-46815737D01*
X173991492Y-46802362D01*
X173964662Y-46786281D01*
X173939537Y-46767647D01*
X173916360Y-46746640D01*
X173895353Y-46723463D01*
X173876719Y-46698338D01*
X173860638Y-46671508D01*
X173847263Y-46643230D01*
X173836725Y-46613778D01*
X173829125Y-46583435D01*
X173824535Y-46552493D01*
X173823000Y-46521250D01*
X173823000Y-45883750D01*
X173824535Y-45852507D01*
X173829125Y-45821565D01*
X173836725Y-45791222D01*
X173847263Y-45761770D01*
X173860638Y-45733492D01*
X173876719Y-45706662D01*
X173895353Y-45681537D01*
X173916360Y-45658360D01*
X173939537Y-45637353D01*
X173964662Y-45618719D01*
X173991492Y-45602638D01*
X174019770Y-45589263D01*
X174049222Y-45578725D01*
X174079565Y-45571125D01*
X174110507Y-45566535D01*
X174141750Y-45565000D01*
X174854250Y-45565000D01*
X174885493Y-45566535D01*
X174885493Y-45566535D01*
G37*
D11*
X174498000Y-46202500D03*
G04 #@! TD*
D10*
G04 #@! TO.C,C15*
G36*
X169805493Y-68223535D02*
X169836435Y-68228125D01*
X169866778Y-68235725D01*
X169896230Y-68246263D01*
X169924508Y-68259638D01*
X169951338Y-68275719D01*
X169976463Y-68294353D01*
X169999640Y-68315360D01*
X170020647Y-68338537D01*
X170039281Y-68363662D01*
X170055362Y-68390492D01*
X170068737Y-68418770D01*
X170079275Y-68448222D01*
X170086875Y-68478565D01*
X170091465Y-68509507D01*
X170093000Y-68540750D01*
X170093000Y-69178250D01*
X170091465Y-69209493D01*
X170086875Y-69240435D01*
X170079275Y-69270778D01*
X170068737Y-69300230D01*
X170055362Y-69328508D01*
X170039281Y-69355338D01*
X170020647Y-69380463D01*
X169999640Y-69403640D01*
X169976463Y-69424647D01*
X169951338Y-69443281D01*
X169924508Y-69459362D01*
X169896230Y-69472737D01*
X169866778Y-69483275D01*
X169836435Y-69490875D01*
X169805493Y-69495465D01*
X169774250Y-69497000D01*
X169061750Y-69497000D01*
X169030507Y-69495465D01*
X168999565Y-69490875D01*
X168969222Y-69483275D01*
X168939770Y-69472737D01*
X168911492Y-69459362D01*
X168884662Y-69443281D01*
X168859537Y-69424647D01*
X168836360Y-69403640D01*
X168815353Y-69380463D01*
X168796719Y-69355338D01*
X168780638Y-69328508D01*
X168767263Y-69300230D01*
X168756725Y-69270778D01*
X168749125Y-69240435D01*
X168744535Y-69209493D01*
X168743000Y-69178250D01*
X168743000Y-68540750D01*
X168744535Y-68509507D01*
X168749125Y-68478565D01*
X168756725Y-68448222D01*
X168767263Y-68418770D01*
X168780638Y-68390492D01*
X168796719Y-68363662D01*
X168815353Y-68338537D01*
X168836360Y-68315360D01*
X168859537Y-68294353D01*
X168884662Y-68275719D01*
X168911492Y-68259638D01*
X168939770Y-68246263D01*
X168969222Y-68235725D01*
X168999565Y-68228125D01*
X169030507Y-68223535D01*
X169061750Y-68222000D01*
X169774250Y-68222000D01*
X169805493Y-68223535D01*
X169805493Y-68223535D01*
G37*
D11*
X169418000Y-68859500D03*
D10*
G36*
X169805493Y-66648535D02*
X169836435Y-66653125D01*
X169866778Y-66660725D01*
X169896230Y-66671263D01*
X169924508Y-66684638D01*
X169951338Y-66700719D01*
X169976463Y-66719353D01*
X169999640Y-66740360D01*
X170020647Y-66763537D01*
X170039281Y-66788662D01*
X170055362Y-66815492D01*
X170068737Y-66843770D01*
X170079275Y-66873222D01*
X170086875Y-66903565D01*
X170091465Y-66934507D01*
X170093000Y-66965750D01*
X170093000Y-67603250D01*
X170091465Y-67634493D01*
X170086875Y-67665435D01*
X170079275Y-67695778D01*
X170068737Y-67725230D01*
X170055362Y-67753508D01*
X170039281Y-67780338D01*
X170020647Y-67805463D01*
X169999640Y-67828640D01*
X169976463Y-67849647D01*
X169951338Y-67868281D01*
X169924508Y-67884362D01*
X169896230Y-67897737D01*
X169866778Y-67908275D01*
X169836435Y-67915875D01*
X169805493Y-67920465D01*
X169774250Y-67922000D01*
X169061750Y-67922000D01*
X169030507Y-67920465D01*
X168999565Y-67915875D01*
X168969222Y-67908275D01*
X168939770Y-67897737D01*
X168911492Y-67884362D01*
X168884662Y-67868281D01*
X168859537Y-67849647D01*
X168836360Y-67828640D01*
X168815353Y-67805463D01*
X168796719Y-67780338D01*
X168780638Y-67753508D01*
X168767263Y-67725230D01*
X168756725Y-67695778D01*
X168749125Y-67665435D01*
X168744535Y-67634493D01*
X168743000Y-67603250D01*
X168743000Y-66965750D01*
X168744535Y-66934507D01*
X168749125Y-66903565D01*
X168756725Y-66873222D01*
X168767263Y-66843770D01*
X168780638Y-66815492D01*
X168796719Y-66788662D01*
X168815353Y-66763537D01*
X168836360Y-66740360D01*
X168859537Y-66719353D01*
X168884662Y-66700719D01*
X168911492Y-66684638D01*
X168939770Y-66671263D01*
X168969222Y-66660725D01*
X168999565Y-66653125D01*
X169030507Y-66648535D01*
X169061750Y-66647000D01*
X169774250Y-66647000D01*
X169805493Y-66648535D01*
X169805493Y-66648535D01*
G37*
D11*
X169418000Y-67284500D03*
G04 #@! TD*
D10*
G04 #@! TO.C,C16*
G36*
X169259993Y-84416535D02*
X169290935Y-84421125D01*
X169321278Y-84428725D01*
X169350730Y-84439263D01*
X169379008Y-84452638D01*
X169405838Y-84468719D01*
X169430963Y-84487353D01*
X169454140Y-84508360D01*
X169475147Y-84531537D01*
X169493781Y-84556662D01*
X169509862Y-84583492D01*
X169523237Y-84611770D01*
X169533775Y-84641222D01*
X169541375Y-84671565D01*
X169545965Y-84702507D01*
X169547500Y-84733750D01*
X169547500Y-85446250D01*
X169545965Y-85477493D01*
X169541375Y-85508435D01*
X169533775Y-85538778D01*
X169523237Y-85568230D01*
X169509862Y-85596508D01*
X169493781Y-85623338D01*
X169475147Y-85648463D01*
X169454140Y-85671640D01*
X169430963Y-85692647D01*
X169405838Y-85711281D01*
X169379008Y-85727362D01*
X169350730Y-85740737D01*
X169321278Y-85751275D01*
X169290935Y-85758875D01*
X169259993Y-85763465D01*
X169228750Y-85765000D01*
X168591250Y-85765000D01*
X168560007Y-85763465D01*
X168529065Y-85758875D01*
X168498722Y-85751275D01*
X168469270Y-85740737D01*
X168440992Y-85727362D01*
X168414162Y-85711281D01*
X168389037Y-85692647D01*
X168365860Y-85671640D01*
X168344853Y-85648463D01*
X168326219Y-85623338D01*
X168310138Y-85596508D01*
X168296763Y-85568230D01*
X168286225Y-85538778D01*
X168278625Y-85508435D01*
X168274035Y-85477493D01*
X168272500Y-85446250D01*
X168272500Y-84733750D01*
X168274035Y-84702507D01*
X168278625Y-84671565D01*
X168286225Y-84641222D01*
X168296763Y-84611770D01*
X168310138Y-84583492D01*
X168326219Y-84556662D01*
X168344853Y-84531537D01*
X168365860Y-84508360D01*
X168389037Y-84487353D01*
X168414162Y-84468719D01*
X168440992Y-84452638D01*
X168469270Y-84439263D01*
X168498722Y-84428725D01*
X168529065Y-84421125D01*
X168560007Y-84416535D01*
X168591250Y-84415000D01*
X169228750Y-84415000D01*
X169259993Y-84416535D01*
X169259993Y-84416535D01*
G37*
D11*
X168910000Y-85090000D03*
D10*
G36*
X170834993Y-84416535D02*
X170865935Y-84421125D01*
X170896278Y-84428725D01*
X170925730Y-84439263D01*
X170954008Y-84452638D01*
X170980838Y-84468719D01*
X171005963Y-84487353D01*
X171029140Y-84508360D01*
X171050147Y-84531537D01*
X171068781Y-84556662D01*
X171084862Y-84583492D01*
X171098237Y-84611770D01*
X171108775Y-84641222D01*
X171116375Y-84671565D01*
X171120965Y-84702507D01*
X171122500Y-84733750D01*
X171122500Y-85446250D01*
X171120965Y-85477493D01*
X171116375Y-85508435D01*
X171108775Y-85538778D01*
X171098237Y-85568230D01*
X171084862Y-85596508D01*
X171068781Y-85623338D01*
X171050147Y-85648463D01*
X171029140Y-85671640D01*
X171005963Y-85692647D01*
X170980838Y-85711281D01*
X170954008Y-85727362D01*
X170925730Y-85740737D01*
X170896278Y-85751275D01*
X170865935Y-85758875D01*
X170834993Y-85763465D01*
X170803750Y-85765000D01*
X170166250Y-85765000D01*
X170135007Y-85763465D01*
X170104065Y-85758875D01*
X170073722Y-85751275D01*
X170044270Y-85740737D01*
X170015992Y-85727362D01*
X169989162Y-85711281D01*
X169964037Y-85692647D01*
X169940860Y-85671640D01*
X169919853Y-85648463D01*
X169901219Y-85623338D01*
X169885138Y-85596508D01*
X169871763Y-85568230D01*
X169861225Y-85538778D01*
X169853625Y-85508435D01*
X169849035Y-85477493D01*
X169847500Y-85446250D01*
X169847500Y-84733750D01*
X169849035Y-84702507D01*
X169853625Y-84671565D01*
X169861225Y-84641222D01*
X169871763Y-84611770D01*
X169885138Y-84583492D01*
X169901219Y-84556662D01*
X169919853Y-84531537D01*
X169940860Y-84508360D01*
X169964037Y-84487353D01*
X169989162Y-84468719D01*
X170015992Y-84452638D01*
X170044270Y-84439263D01*
X170073722Y-84428725D01*
X170104065Y-84421125D01*
X170135007Y-84416535D01*
X170166250Y-84415000D01*
X170803750Y-84415000D01*
X170834993Y-84416535D01*
X170834993Y-84416535D01*
G37*
D11*
X170485000Y-85090000D03*
G04 #@! TD*
D10*
G04 #@! TO.C,C17*
G36*
X169234493Y-82638535D02*
X169265435Y-82643125D01*
X169295778Y-82650725D01*
X169325230Y-82661263D01*
X169353508Y-82674638D01*
X169380338Y-82690719D01*
X169405463Y-82709353D01*
X169428640Y-82730360D01*
X169449647Y-82753537D01*
X169468281Y-82778662D01*
X169484362Y-82805492D01*
X169497737Y-82833770D01*
X169508275Y-82863222D01*
X169515875Y-82893565D01*
X169520465Y-82924507D01*
X169522000Y-82955750D01*
X169522000Y-83668250D01*
X169520465Y-83699493D01*
X169515875Y-83730435D01*
X169508275Y-83760778D01*
X169497737Y-83790230D01*
X169484362Y-83818508D01*
X169468281Y-83845338D01*
X169449647Y-83870463D01*
X169428640Y-83893640D01*
X169405463Y-83914647D01*
X169380338Y-83933281D01*
X169353508Y-83949362D01*
X169325230Y-83962737D01*
X169295778Y-83973275D01*
X169265435Y-83980875D01*
X169234493Y-83985465D01*
X169203250Y-83987000D01*
X168565750Y-83987000D01*
X168534507Y-83985465D01*
X168503565Y-83980875D01*
X168473222Y-83973275D01*
X168443770Y-83962737D01*
X168415492Y-83949362D01*
X168388662Y-83933281D01*
X168363537Y-83914647D01*
X168340360Y-83893640D01*
X168319353Y-83870463D01*
X168300719Y-83845338D01*
X168284638Y-83818508D01*
X168271263Y-83790230D01*
X168260725Y-83760778D01*
X168253125Y-83730435D01*
X168248535Y-83699493D01*
X168247000Y-83668250D01*
X168247000Y-82955750D01*
X168248535Y-82924507D01*
X168253125Y-82893565D01*
X168260725Y-82863222D01*
X168271263Y-82833770D01*
X168284638Y-82805492D01*
X168300719Y-82778662D01*
X168319353Y-82753537D01*
X168340360Y-82730360D01*
X168363537Y-82709353D01*
X168388662Y-82690719D01*
X168415492Y-82674638D01*
X168443770Y-82661263D01*
X168473222Y-82650725D01*
X168503565Y-82643125D01*
X168534507Y-82638535D01*
X168565750Y-82637000D01*
X169203250Y-82637000D01*
X169234493Y-82638535D01*
X169234493Y-82638535D01*
G37*
D11*
X168884500Y-83312000D03*
D10*
G36*
X170809493Y-82638535D02*
X170840435Y-82643125D01*
X170870778Y-82650725D01*
X170900230Y-82661263D01*
X170928508Y-82674638D01*
X170955338Y-82690719D01*
X170980463Y-82709353D01*
X171003640Y-82730360D01*
X171024647Y-82753537D01*
X171043281Y-82778662D01*
X171059362Y-82805492D01*
X171072737Y-82833770D01*
X171083275Y-82863222D01*
X171090875Y-82893565D01*
X171095465Y-82924507D01*
X171097000Y-82955750D01*
X171097000Y-83668250D01*
X171095465Y-83699493D01*
X171090875Y-83730435D01*
X171083275Y-83760778D01*
X171072737Y-83790230D01*
X171059362Y-83818508D01*
X171043281Y-83845338D01*
X171024647Y-83870463D01*
X171003640Y-83893640D01*
X170980463Y-83914647D01*
X170955338Y-83933281D01*
X170928508Y-83949362D01*
X170900230Y-83962737D01*
X170870778Y-83973275D01*
X170840435Y-83980875D01*
X170809493Y-83985465D01*
X170778250Y-83987000D01*
X170140750Y-83987000D01*
X170109507Y-83985465D01*
X170078565Y-83980875D01*
X170048222Y-83973275D01*
X170018770Y-83962737D01*
X169990492Y-83949362D01*
X169963662Y-83933281D01*
X169938537Y-83914647D01*
X169915360Y-83893640D01*
X169894353Y-83870463D01*
X169875719Y-83845338D01*
X169859638Y-83818508D01*
X169846263Y-83790230D01*
X169835725Y-83760778D01*
X169828125Y-83730435D01*
X169823535Y-83699493D01*
X169822000Y-83668250D01*
X169822000Y-82955750D01*
X169823535Y-82924507D01*
X169828125Y-82893565D01*
X169835725Y-82863222D01*
X169846263Y-82833770D01*
X169859638Y-82805492D01*
X169875719Y-82778662D01*
X169894353Y-82753537D01*
X169915360Y-82730360D01*
X169938537Y-82709353D01*
X169963662Y-82690719D01*
X169990492Y-82674638D01*
X170018770Y-82661263D01*
X170048222Y-82650725D01*
X170078565Y-82643125D01*
X170109507Y-82638535D01*
X170140750Y-82637000D01*
X170778250Y-82637000D01*
X170809493Y-82638535D01*
X170809493Y-82638535D01*
G37*
D11*
X170459500Y-83312000D03*
G04 #@! TD*
D10*
G04 #@! TO.C,C42*
G36*
X159379493Y-83146535D02*
X159410435Y-83151125D01*
X159440778Y-83158725D01*
X159470230Y-83169263D01*
X159498508Y-83182638D01*
X159525338Y-83198719D01*
X159550463Y-83217353D01*
X159573640Y-83238360D01*
X159594647Y-83261537D01*
X159613281Y-83286662D01*
X159629362Y-83313492D01*
X159642737Y-83341770D01*
X159653275Y-83371222D01*
X159660875Y-83401565D01*
X159665465Y-83432507D01*
X159667000Y-83463750D01*
X159667000Y-84176250D01*
X159665465Y-84207493D01*
X159660875Y-84238435D01*
X159653275Y-84268778D01*
X159642737Y-84298230D01*
X159629362Y-84326508D01*
X159613281Y-84353338D01*
X159594647Y-84378463D01*
X159573640Y-84401640D01*
X159550463Y-84422647D01*
X159525338Y-84441281D01*
X159498508Y-84457362D01*
X159470230Y-84470737D01*
X159440778Y-84481275D01*
X159410435Y-84488875D01*
X159379493Y-84493465D01*
X159348250Y-84495000D01*
X158710750Y-84495000D01*
X158679507Y-84493465D01*
X158648565Y-84488875D01*
X158618222Y-84481275D01*
X158588770Y-84470737D01*
X158560492Y-84457362D01*
X158533662Y-84441281D01*
X158508537Y-84422647D01*
X158485360Y-84401640D01*
X158464353Y-84378463D01*
X158445719Y-84353338D01*
X158429638Y-84326508D01*
X158416263Y-84298230D01*
X158405725Y-84268778D01*
X158398125Y-84238435D01*
X158393535Y-84207493D01*
X158392000Y-84176250D01*
X158392000Y-83463750D01*
X158393535Y-83432507D01*
X158398125Y-83401565D01*
X158405725Y-83371222D01*
X158416263Y-83341770D01*
X158429638Y-83313492D01*
X158445719Y-83286662D01*
X158464353Y-83261537D01*
X158485360Y-83238360D01*
X158508537Y-83217353D01*
X158533662Y-83198719D01*
X158560492Y-83182638D01*
X158588770Y-83169263D01*
X158618222Y-83158725D01*
X158648565Y-83151125D01*
X158679507Y-83146535D01*
X158710750Y-83145000D01*
X159348250Y-83145000D01*
X159379493Y-83146535D01*
X159379493Y-83146535D01*
G37*
D11*
X159029500Y-83820000D03*
D10*
G36*
X157804493Y-83146535D02*
X157835435Y-83151125D01*
X157865778Y-83158725D01*
X157895230Y-83169263D01*
X157923508Y-83182638D01*
X157950338Y-83198719D01*
X157975463Y-83217353D01*
X157998640Y-83238360D01*
X158019647Y-83261537D01*
X158038281Y-83286662D01*
X158054362Y-83313492D01*
X158067737Y-83341770D01*
X158078275Y-83371222D01*
X158085875Y-83401565D01*
X158090465Y-83432507D01*
X158092000Y-83463750D01*
X158092000Y-84176250D01*
X158090465Y-84207493D01*
X158085875Y-84238435D01*
X158078275Y-84268778D01*
X158067737Y-84298230D01*
X158054362Y-84326508D01*
X158038281Y-84353338D01*
X158019647Y-84378463D01*
X157998640Y-84401640D01*
X157975463Y-84422647D01*
X157950338Y-84441281D01*
X157923508Y-84457362D01*
X157895230Y-84470737D01*
X157865778Y-84481275D01*
X157835435Y-84488875D01*
X157804493Y-84493465D01*
X157773250Y-84495000D01*
X157135750Y-84495000D01*
X157104507Y-84493465D01*
X157073565Y-84488875D01*
X157043222Y-84481275D01*
X157013770Y-84470737D01*
X156985492Y-84457362D01*
X156958662Y-84441281D01*
X156933537Y-84422647D01*
X156910360Y-84401640D01*
X156889353Y-84378463D01*
X156870719Y-84353338D01*
X156854638Y-84326508D01*
X156841263Y-84298230D01*
X156830725Y-84268778D01*
X156823125Y-84238435D01*
X156818535Y-84207493D01*
X156817000Y-84176250D01*
X156817000Y-83463750D01*
X156818535Y-83432507D01*
X156823125Y-83401565D01*
X156830725Y-83371222D01*
X156841263Y-83341770D01*
X156854638Y-83313492D01*
X156870719Y-83286662D01*
X156889353Y-83261537D01*
X156910360Y-83238360D01*
X156933537Y-83217353D01*
X156958662Y-83198719D01*
X156985492Y-83182638D01*
X157013770Y-83169263D01*
X157043222Y-83158725D01*
X157073565Y-83151125D01*
X157104507Y-83146535D01*
X157135750Y-83145000D01*
X157773250Y-83145000D01*
X157804493Y-83146535D01*
X157804493Y-83146535D01*
G37*
D11*
X157454500Y-83820000D03*
G04 #@! TD*
D13*
G04 #@! TO.C,J1*
X77394776Y-29604504D03*
D14*
X79934776Y-32144504D03*
X79934776Y-27064504D03*
X74854776Y-27064504D03*
X74854776Y-32144504D03*
G04 #@! TD*
G04 #@! TO.C,J2*
X79515000Y-76322112D03*
X74435000Y-76322112D03*
X74435000Y-71242112D03*
X79515000Y-71242112D03*
D13*
X76975000Y-73782112D03*
G04 #@! TD*
D15*
G04 #@! TO.C,J3*
X88514776Y-29223504D03*
D16*
X85014776Y-29223504D03*
G04 #@! TD*
D15*
G04 #@! TO.C,J4*
X76975000Y-62662112D03*
D16*
X76975000Y-66162112D03*
G04 #@! TD*
D13*
G04 #@! TO.C,J5*
X77470000Y-87249000D03*
D14*
X74930000Y-84709000D03*
X74930000Y-89789000D03*
X80010000Y-89789000D03*
X80010000Y-84709000D03*
G04 #@! TD*
G04 #@! TO.C,J6*
X79883000Y-54610000D03*
X74803000Y-54610000D03*
X74803000Y-49530000D03*
X79883000Y-49530000D03*
D13*
X77343000Y-52070000D03*
G04 #@! TD*
D16*
G04 #@! TO.C,J7*
X89352000Y-87249000D03*
D15*
X85852000Y-87249000D03*
G04 #@! TD*
D16*
G04 #@! TO.C,J8*
X77343000Y-44704000D03*
D15*
X77343000Y-41204000D03*
G04 #@! TD*
D16*
G04 #@! TO.C,J9*
X239776000Y-44196000D03*
D15*
X239776000Y-47696000D03*
G04 #@! TD*
D13*
G04 #@! TO.C,J10*
X239268000Y-34290000D03*
D14*
X241808000Y-36830000D03*
X241808000Y-31750000D03*
X236728000Y-31750000D03*
X236728000Y-36830000D03*
G04 #@! TD*
G04 #@! TO.C,J12*
X236220000Y-70358000D03*
X236220000Y-65278000D03*
X241300000Y-65278000D03*
X241300000Y-70358000D03*
D13*
X238760000Y-67818000D03*
G04 #@! TD*
D17*
G04 #@! TO.C,RV1*
X97536000Y-72390000D03*
X94996000Y-74930000D03*
X92456000Y-72390000D03*
G04 #@! TD*
D18*
G04 #@! TO.C,SW1*
X91544000Y-45593000D03*
X91544000Y-41093000D03*
X98044000Y-45593000D03*
X98044000Y-41093000D03*
G04 #@! TD*
G04 #@! TO.C,SW2*
X98067000Y-61468000D03*
X98067000Y-65968000D03*
X91567000Y-61468000D03*
X91567000Y-65968000D03*
G04 #@! TD*
D19*
G04 #@! TO.C,U1*
X121920000Y-48260000D03*
X121920000Y-45720000D03*
X121920000Y-43180000D03*
X121920000Y-40640000D03*
X121920000Y-50800000D03*
X121920000Y-53340000D03*
X121920000Y-55880000D03*
X121920000Y-38100000D03*
X121920000Y-35560000D03*
X121920000Y-33020000D03*
X121920000Y-30480000D03*
X119380000Y-43180000D03*
X116840000Y-43180000D03*
X114300000Y-43180000D03*
X111760000Y-43180000D03*
X109220000Y-43180000D03*
X106680000Y-30480000D03*
X106680000Y-33020000D03*
X106680000Y-35560000D03*
X106680000Y-38100000D03*
X106680000Y-40640000D03*
X106680000Y-43180000D03*
X106680000Y-45720000D03*
X106680000Y-48260000D03*
X121920000Y-58420000D03*
X121920000Y-60960000D03*
X121920000Y-63500000D03*
X121920000Y-66040000D03*
X121920000Y-68580000D03*
X121920000Y-71120000D03*
X121920000Y-73660000D03*
X121920000Y-76200000D03*
X121920000Y-78740000D03*
X121920000Y-81280000D03*
X121920000Y-83820000D03*
X121920000Y-86360000D03*
D20*
X121920000Y-88900000D03*
D19*
X106680000Y-50800000D03*
X106680000Y-53340000D03*
X106680000Y-55880000D03*
X106680000Y-58420000D03*
X106680000Y-60960000D03*
X106680000Y-63500000D03*
X106680000Y-66040000D03*
X106680000Y-68580000D03*
X106680000Y-71120000D03*
X106680000Y-73660000D03*
X106680000Y-76200000D03*
X106680000Y-78740000D03*
X106680000Y-81280000D03*
X106680000Y-83820000D03*
X106680000Y-86360000D03*
X106680000Y-88900000D03*
X109220000Y-86360000D03*
X109220000Y-81280000D03*
X109220000Y-78740000D03*
X109220000Y-76200000D03*
X114300000Y-73660000D03*
X114300000Y-71120000D03*
X114300000Y-68580000D03*
X114300000Y-66040000D03*
X114300000Y-50800000D03*
X114300000Y-48260000D03*
X114300000Y-45720000D03*
X114300000Y-40640000D03*
X114300000Y-38100000D03*
X114300000Y-35560000D03*
X114300000Y-33020000D03*
X114300000Y-30480000D03*
X111760000Y-30480000D03*
X111760000Y-33020000D03*
X111760000Y-35560000D03*
X111760000Y-38100000D03*
X111760000Y-40640000D03*
X111760000Y-45720000D03*
X111760000Y-48260000D03*
X111760000Y-50800000D03*
X111760000Y-66040000D03*
X111760000Y-68580000D03*
X111760000Y-71120000D03*
X111760000Y-73660000D03*
X118920000Y-82550000D03*
X118920000Y-80010000D03*
X118920000Y-77470000D03*
X118920000Y-74930000D03*
X118920000Y-72390000D03*
G04 #@! TD*
D21*
G04 #@! TO.C,U2*
X135890000Y-40180000D03*
X135890000Y-37680000D03*
X135890000Y-30180000D03*
D22*
X138390000Y-43180000D03*
D21*
X156390000Y-27180000D03*
X158890000Y-30180000D03*
X158890000Y-32680000D03*
X158890000Y-37680000D03*
X158890000Y-40180000D03*
G04 #@! TD*
D23*
G04 #@! TO.C,U3*
X172244731Y-30111170D03*
X172244731Y-28841170D03*
X172244731Y-27571170D03*
X172244731Y-26301170D03*
X166844731Y-26301170D03*
X166844731Y-27571170D03*
X166844731Y-28841170D03*
X166844731Y-30111170D03*
G04 #@! TD*
G04 #@! TO.C,U4*
X172244731Y-37731170D03*
X172244731Y-36461170D03*
X172244731Y-35191170D03*
X172244731Y-33921170D03*
X166844731Y-33921170D03*
X166844731Y-35191170D03*
X166844731Y-36461170D03*
X166844731Y-37731170D03*
G04 #@! TD*
D24*
G04 #@! TO.C,U5*
X151970000Y-65405000D03*
X151970000Y-66675000D03*
X151970000Y-67945000D03*
X151970000Y-69215000D03*
X151970000Y-70485000D03*
X151970000Y-71755000D03*
X151970000Y-73025000D03*
X151970000Y-74295000D03*
X142670000Y-74295000D03*
X142670000Y-73025000D03*
X142670000Y-71755000D03*
X142670000Y-70485000D03*
X142670000Y-69215000D03*
X142670000Y-67945000D03*
X142670000Y-66675000D03*
X142670000Y-65405000D03*
G04 #@! TD*
G04 #@! TO.C,U7*
X142670000Y-79375000D03*
X142670000Y-80645000D03*
X142670000Y-81915000D03*
X142670000Y-83185000D03*
X142670000Y-84455000D03*
X142670000Y-85725000D03*
X142670000Y-86995000D03*
X142670000Y-88265000D03*
X151970000Y-88265000D03*
X151970000Y-86995000D03*
X151970000Y-85725000D03*
X151970000Y-84455000D03*
X151970000Y-83185000D03*
X151970000Y-81915000D03*
X151970000Y-80645000D03*
X151970000Y-79375000D03*
G04 #@! TD*
D23*
G04 #@! TO.C,U8*
X166844731Y-45351170D03*
X166844731Y-44081170D03*
X166844731Y-42811170D03*
X166844731Y-41541170D03*
X172244731Y-41541170D03*
X172244731Y-42811170D03*
X172244731Y-44081170D03*
X172244731Y-45351170D03*
G04 #@! TD*
D24*
G04 #@! TO.C,U9*
X161638000Y-65024000D03*
X161638000Y-66294000D03*
X161638000Y-67564000D03*
X161638000Y-68834000D03*
X161638000Y-70104000D03*
X161638000Y-71374000D03*
X161638000Y-72644000D03*
X167038000Y-72644000D03*
X167038000Y-71374000D03*
X167038000Y-70104000D03*
X167038000Y-68834000D03*
X167038000Y-67564000D03*
X167038000Y-66294000D03*
X167038000Y-65024000D03*
G04 #@! TD*
D17*
G04 #@! TO.C,RV4*
X97409000Y-52070000D03*
X94869000Y-54610000D03*
X92329000Y-52070000D03*
G04 #@! TD*
D16*
G04 #@! TO.C,J11*
X239268000Y-77851000D03*
D15*
X239268000Y-81351000D03*
G04 #@! TD*
D25*
G04 #@! TO.C,REF\002A\002A*
X248920000Y-91440000D03*
G04 #@! TD*
G04 #@! TO.C,REF\002A\002A*
X248920000Y-26670000D03*
G04 #@! TD*
G04 #@! TO.C,REF\002A\002A*
X66040000Y-26670000D03*
G04 #@! TD*
G04 #@! TO.C,REF\002A\002A*
X66040000Y-91440000D03*
G04 #@! TD*
D10*
G04 #@! TO.C,C18*
G36*
X197491493Y-66191535D02*
X197522435Y-66196125D01*
X197552778Y-66203725D01*
X197582230Y-66214263D01*
X197610508Y-66227638D01*
X197637338Y-66243719D01*
X197662463Y-66262353D01*
X197685640Y-66283360D01*
X197706647Y-66306537D01*
X197725281Y-66331662D01*
X197741362Y-66358492D01*
X197754737Y-66386770D01*
X197765275Y-66416222D01*
X197772875Y-66446565D01*
X197777465Y-66477507D01*
X197779000Y-66508750D01*
X197779000Y-67146250D01*
X197777465Y-67177493D01*
X197772875Y-67208435D01*
X197765275Y-67238778D01*
X197754737Y-67268230D01*
X197741362Y-67296508D01*
X197725281Y-67323338D01*
X197706647Y-67348463D01*
X197685640Y-67371640D01*
X197662463Y-67392647D01*
X197637338Y-67411281D01*
X197610508Y-67427362D01*
X197582230Y-67440737D01*
X197552778Y-67451275D01*
X197522435Y-67458875D01*
X197491493Y-67463465D01*
X197460250Y-67465000D01*
X196747750Y-67465000D01*
X196716507Y-67463465D01*
X196685565Y-67458875D01*
X196655222Y-67451275D01*
X196625770Y-67440737D01*
X196597492Y-67427362D01*
X196570662Y-67411281D01*
X196545537Y-67392647D01*
X196522360Y-67371640D01*
X196501353Y-67348463D01*
X196482719Y-67323338D01*
X196466638Y-67296508D01*
X196453263Y-67268230D01*
X196442725Y-67238778D01*
X196435125Y-67208435D01*
X196430535Y-67177493D01*
X196429000Y-67146250D01*
X196429000Y-66508750D01*
X196430535Y-66477507D01*
X196435125Y-66446565D01*
X196442725Y-66416222D01*
X196453263Y-66386770D01*
X196466638Y-66358492D01*
X196482719Y-66331662D01*
X196501353Y-66306537D01*
X196522360Y-66283360D01*
X196545537Y-66262353D01*
X196570662Y-66243719D01*
X196597492Y-66227638D01*
X196625770Y-66214263D01*
X196655222Y-66203725D01*
X196685565Y-66196125D01*
X196716507Y-66191535D01*
X196747750Y-66190000D01*
X197460250Y-66190000D01*
X197491493Y-66191535D01*
X197491493Y-66191535D01*
G37*
D11*
X197104000Y-66827500D03*
D10*
G36*
X197491493Y-64616535D02*
X197522435Y-64621125D01*
X197552778Y-64628725D01*
X197582230Y-64639263D01*
X197610508Y-64652638D01*
X197637338Y-64668719D01*
X197662463Y-64687353D01*
X197685640Y-64708360D01*
X197706647Y-64731537D01*
X197725281Y-64756662D01*
X197741362Y-64783492D01*
X197754737Y-64811770D01*
X197765275Y-64841222D01*
X197772875Y-64871565D01*
X197777465Y-64902507D01*
X197779000Y-64933750D01*
X197779000Y-65571250D01*
X197777465Y-65602493D01*
X197772875Y-65633435D01*
X197765275Y-65663778D01*
X197754737Y-65693230D01*
X197741362Y-65721508D01*
X197725281Y-65748338D01*
X197706647Y-65773463D01*
X197685640Y-65796640D01*
X197662463Y-65817647D01*
X197637338Y-65836281D01*
X197610508Y-65852362D01*
X197582230Y-65865737D01*
X197552778Y-65876275D01*
X197522435Y-65883875D01*
X197491493Y-65888465D01*
X197460250Y-65890000D01*
X196747750Y-65890000D01*
X196716507Y-65888465D01*
X196685565Y-65883875D01*
X196655222Y-65876275D01*
X196625770Y-65865737D01*
X196597492Y-65852362D01*
X196570662Y-65836281D01*
X196545537Y-65817647D01*
X196522360Y-65796640D01*
X196501353Y-65773463D01*
X196482719Y-65748338D01*
X196466638Y-65721508D01*
X196453263Y-65693230D01*
X196442725Y-65663778D01*
X196435125Y-65633435D01*
X196430535Y-65602493D01*
X196429000Y-65571250D01*
X196429000Y-64933750D01*
X196430535Y-64902507D01*
X196435125Y-64871565D01*
X196442725Y-64841222D01*
X196453263Y-64811770D01*
X196466638Y-64783492D01*
X196482719Y-64756662D01*
X196501353Y-64731537D01*
X196522360Y-64708360D01*
X196545537Y-64687353D01*
X196570662Y-64668719D01*
X196597492Y-64652638D01*
X196625770Y-64639263D01*
X196655222Y-64628725D01*
X196685565Y-64621125D01*
X196716507Y-64616535D01*
X196747750Y-64615000D01*
X197460250Y-64615000D01*
X197491493Y-64616535D01*
X197491493Y-64616535D01*
G37*
D11*
X197104000Y-65252500D03*
G04 #@! TD*
D10*
G04 #@! TO.C,C19*
G36*
X188132393Y-70624335D02*
X188163335Y-70628925D01*
X188193678Y-70636525D01*
X188223130Y-70647063D01*
X188251408Y-70660438D01*
X188278238Y-70676519D01*
X188303363Y-70695153D01*
X188326540Y-70716160D01*
X188347547Y-70739337D01*
X188366181Y-70764462D01*
X188382262Y-70791292D01*
X188395637Y-70819570D01*
X188406175Y-70849022D01*
X188413775Y-70879365D01*
X188418365Y-70910307D01*
X188419900Y-70941550D01*
X188419900Y-71654050D01*
X188418365Y-71685293D01*
X188413775Y-71716235D01*
X188406175Y-71746578D01*
X188395637Y-71776030D01*
X188382262Y-71804308D01*
X188366181Y-71831138D01*
X188347547Y-71856263D01*
X188326540Y-71879440D01*
X188303363Y-71900447D01*
X188278238Y-71919081D01*
X188251408Y-71935162D01*
X188223130Y-71948537D01*
X188193678Y-71959075D01*
X188163335Y-71966675D01*
X188132393Y-71971265D01*
X188101150Y-71972800D01*
X187463650Y-71972800D01*
X187432407Y-71971265D01*
X187401465Y-71966675D01*
X187371122Y-71959075D01*
X187341670Y-71948537D01*
X187313392Y-71935162D01*
X187286562Y-71919081D01*
X187261437Y-71900447D01*
X187238260Y-71879440D01*
X187217253Y-71856263D01*
X187198619Y-71831138D01*
X187182538Y-71804308D01*
X187169163Y-71776030D01*
X187158625Y-71746578D01*
X187151025Y-71716235D01*
X187146435Y-71685293D01*
X187144900Y-71654050D01*
X187144900Y-70941550D01*
X187146435Y-70910307D01*
X187151025Y-70879365D01*
X187158625Y-70849022D01*
X187169163Y-70819570D01*
X187182538Y-70791292D01*
X187198619Y-70764462D01*
X187217253Y-70739337D01*
X187238260Y-70716160D01*
X187261437Y-70695153D01*
X187286562Y-70676519D01*
X187313392Y-70660438D01*
X187341670Y-70647063D01*
X187371122Y-70636525D01*
X187401465Y-70628925D01*
X187432407Y-70624335D01*
X187463650Y-70622800D01*
X188101150Y-70622800D01*
X188132393Y-70624335D01*
X188132393Y-70624335D01*
G37*
D11*
X187782400Y-71297800D03*
D10*
G36*
X186557393Y-70624335D02*
X186588335Y-70628925D01*
X186618678Y-70636525D01*
X186648130Y-70647063D01*
X186676408Y-70660438D01*
X186703238Y-70676519D01*
X186728363Y-70695153D01*
X186751540Y-70716160D01*
X186772547Y-70739337D01*
X186791181Y-70764462D01*
X186807262Y-70791292D01*
X186820637Y-70819570D01*
X186831175Y-70849022D01*
X186838775Y-70879365D01*
X186843365Y-70910307D01*
X186844900Y-70941550D01*
X186844900Y-71654050D01*
X186843365Y-71685293D01*
X186838775Y-71716235D01*
X186831175Y-71746578D01*
X186820637Y-71776030D01*
X186807262Y-71804308D01*
X186791181Y-71831138D01*
X186772547Y-71856263D01*
X186751540Y-71879440D01*
X186728363Y-71900447D01*
X186703238Y-71919081D01*
X186676408Y-71935162D01*
X186648130Y-71948537D01*
X186618678Y-71959075D01*
X186588335Y-71966675D01*
X186557393Y-71971265D01*
X186526150Y-71972800D01*
X185888650Y-71972800D01*
X185857407Y-71971265D01*
X185826465Y-71966675D01*
X185796122Y-71959075D01*
X185766670Y-71948537D01*
X185738392Y-71935162D01*
X185711562Y-71919081D01*
X185686437Y-71900447D01*
X185663260Y-71879440D01*
X185642253Y-71856263D01*
X185623619Y-71831138D01*
X185607538Y-71804308D01*
X185594163Y-71776030D01*
X185583625Y-71746578D01*
X185576025Y-71716235D01*
X185571435Y-71685293D01*
X185569900Y-71654050D01*
X185569900Y-70941550D01*
X185571435Y-70910307D01*
X185576025Y-70879365D01*
X185583625Y-70849022D01*
X185594163Y-70819570D01*
X185607538Y-70791292D01*
X185623619Y-70764462D01*
X185642253Y-70739337D01*
X185663260Y-70716160D01*
X185686437Y-70695153D01*
X185711562Y-70676519D01*
X185738392Y-70660438D01*
X185766670Y-70647063D01*
X185796122Y-70636525D01*
X185826465Y-70628925D01*
X185857407Y-70624335D01*
X185888650Y-70622800D01*
X186526150Y-70622800D01*
X186557393Y-70624335D01*
X186557393Y-70624335D01*
G37*
D11*
X186207400Y-71297800D03*
G04 #@! TD*
D10*
G04 #@! TO.C,C20*
G36*
X187700493Y-33311735D02*
X187731435Y-33316325D01*
X187761778Y-33323925D01*
X187791230Y-33334463D01*
X187819508Y-33347838D01*
X187846338Y-33363919D01*
X187871463Y-33382553D01*
X187894640Y-33403560D01*
X187915647Y-33426737D01*
X187934281Y-33451862D01*
X187950362Y-33478692D01*
X187963737Y-33506970D01*
X187974275Y-33536422D01*
X187981875Y-33566765D01*
X187986465Y-33597707D01*
X187988000Y-33628950D01*
X187988000Y-34341450D01*
X187986465Y-34372693D01*
X187981875Y-34403635D01*
X187974275Y-34433978D01*
X187963737Y-34463430D01*
X187950362Y-34491708D01*
X187934281Y-34518538D01*
X187915647Y-34543663D01*
X187894640Y-34566840D01*
X187871463Y-34587847D01*
X187846338Y-34606481D01*
X187819508Y-34622562D01*
X187791230Y-34635937D01*
X187761778Y-34646475D01*
X187731435Y-34654075D01*
X187700493Y-34658665D01*
X187669250Y-34660200D01*
X187031750Y-34660200D01*
X187000507Y-34658665D01*
X186969565Y-34654075D01*
X186939222Y-34646475D01*
X186909770Y-34635937D01*
X186881492Y-34622562D01*
X186854662Y-34606481D01*
X186829537Y-34587847D01*
X186806360Y-34566840D01*
X186785353Y-34543663D01*
X186766719Y-34518538D01*
X186750638Y-34491708D01*
X186737263Y-34463430D01*
X186726725Y-34433978D01*
X186719125Y-34403635D01*
X186714535Y-34372693D01*
X186713000Y-34341450D01*
X186713000Y-33628950D01*
X186714535Y-33597707D01*
X186719125Y-33566765D01*
X186726725Y-33536422D01*
X186737263Y-33506970D01*
X186750638Y-33478692D01*
X186766719Y-33451862D01*
X186785353Y-33426737D01*
X186806360Y-33403560D01*
X186829537Y-33382553D01*
X186854662Y-33363919D01*
X186881492Y-33347838D01*
X186909770Y-33334463D01*
X186939222Y-33323925D01*
X186969565Y-33316325D01*
X187000507Y-33311735D01*
X187031750Y-33310200D01*
X187669250Y-33310200D01*
X187700493Y-33311735D01*
X187700493Y-33311735D01*
G37*
D11*
X187350500Y-33985200D03*
D10*
G36*
X186125493Y-33311735D02*
X186156435Y-33316325D01*
X186186778Y-33323925D01*
X186216230Y-33334463D01*
X186244508Y-33347838D01*
X186271338Y-33363919D01*
X186296463Y-33382553D01*
X186319640Y-33403560D01*
X186340647Y-33426737D01*
X186359281Y-33451862D01*
X186375362Y-33478692D01*
X186388737Y-33506970D01*
X186399275Y-33536422D01*
X186406875Y-33566765D01*
X186411465Y-33597707D01*
X186413000Y-33628950D01*
X186413000Y-34341450D01*
X186411465Y-34372693D01*
X186406875Y-34403635D01*
X186399275Y-34433978D01*
X186388737Y-34463430D01*
X186375362Y-34491708D01*
X186359281Y-34518538D01*
X186340647Y-34543663D01*
X186319640Y-34566840D01*
X186296463Y-34587847D01*
X186271338Y-34606481D01*
X186244508Y-34622562D01*
X186216230Y-34635937D01*
X186186778Y-34646475D01*
X186156435Y-34654075D01*
X186125493Y-34658665D01*
X186094250Y-34660200D01*
X185456750Y-34660200D01*
X185425507Y-34658665D01*
X185394565Y-34654075D01*
X185364222Y-34646475D01*
X185334770Y-34635937D01*
X185306492Y-34622562D01*
X185279662Y-34606481D01*
X185254537Y-34587847D01*
X185231360Y-34566840D01*
X185210353Y-34543663D01*
X185191719Y-34518538D01*
X185175638Y-34491708D01*
X185162263Y-34463430D01*
X185151725Y-34433978D01*
X185144125Y-34403635D01*
X185139535Y-34372693D01*
X185138000Y-34341450D01*
X185138000Y-33628950D01*
X185139535Y-33597707D01*
X185144125Y-33566765D01*
X185151725Y-33536422D01*
X185162263Y-33506970D01*
X185175638Y-33478692D01*
X185191719Y-33451862D01*
X185210353Y-33426737D01*
X185231360Y-33403560D01*
X185254537Y-33382553D01*
X185279662Y-33363919D01*
X185306492Y-33347838D01*
X185334770Y-33334463D01*
X185364222Y-33323925D01*
X185394565Y-33316325D01*
X185425507Y-33311735D01*
X185456750Y-33310200D01*
X186094250Y-33310200D01*
X186125493Y-33311735D01*
X186125493Y-33311735D01*
G37*
D11*
X185775500Y-33985200D03*
G04 #@! TD*
D10*
G04 #@! TO.C,C21*
G36*
X197237493Y-28853535D02*
X197268435Y-28858125D01*
X197298778Y-28865725D01*
X197328230Y-28876263D01*
X197356508Y-28889638D01*
X197383338Y-28905719D01*
X197408463Y-28924353D01*
X197431640Y-28945360D01*
X197452647Y-28968537D01*
X197471281Y-28993662D01*
X197487362Y-29020492D01*
X197500737Y-29048770D01*
X197511275Y-29078222D01*
X197518875Y-29108565D01*
X197523465Y-29139507D01*
X197525000Y-29170750D01*
X197525000Y-29808250D01*
X197523465Y-29839493D01*
X197518875Y-29870435D01*
X197511275Y-29900778D01*
X197500737Y-29930230D01*
X197487362Y-29958508D01*
X197471281Y-29985338D01*
X197452647Y-30010463D01*
X197431640Y-30033640D01*
X197408463Y-30054647D01*
X197383338Y-30073281D01*
X197356508Y-30089362D01*
X197328230Y-30102737D01*
X197298778Y-30113275D01*
X197268435Y-30120875D01*
X197237493Y-30125465D01*
X197206250Y-30127000D01*
X196493750Y-30127000D01*
X196462507Y-30125465D01*
X196431565Y-30120875D01*
X196401222Y-30113275D01*
X196371770Y-30102737D01*
X196343492Y-30089362D01*
X196316662Y-30073281D01*
X196291537Y-30054647D01*
X196268360Y-30033640D01*
X196247353Y-30010463D01*
X196228719Y-29985338D01*
X196212638Y-29958508D01*
X196199263Y-29930230D01*
X196188725Y-29900778D01*
X196181125Y-29870435D01*
X196176535Y-29839493D01*
X196175000Y-29808250D01*
X196175000Y-29170750D01*
X196176535Y-29139507D01*
X196181125Y-29108565D01*
X196188725Y-29078222D01*
X196199263Y-29048770D01*
X196212638Y-29020492D01*
X196228719Y-28993662D01*
X196247353Y-28968537D01*
X196268360Y-28945360D01*
X196291537Y-28924353D01*
X196316662Y-28905719D01*
X196343492Y-28889638D01*
X196371770Y-28876263D01*
X196401222Y-28865725D01*
X196431565Y-28858125D01*
X196462507Y-28853535D01*
X196493750Y-28852000D01*
X197206250Y-28852000D01*
X197237493Y-28853535D01*
X197237493Y-28853535D01*
G37*
D11*
X196850000Y-29489500D03*
D10*
G36*
X197237493Y-27278535D02*
X197268435Y-27283125D01*
X197298778Y-27290725D01*
X197328230Y-27301263D01*
X197356508Y-27314638D01*
X197383338Y-27330719D01*
X197408463Y-27349353D01*
X197431640Y-27370360D01*
X197452647Y-27393537D01*
X197471281Y-27418662D01*
X197487362Y-27445492D01*
X197500737Y-27473770D01*
X197511275Y-27503222D01*
X197518875Y-27533565D01*
X197523465Y-27564507D01*
X197525000Y-27595750D01*
X197525000Y-28233250D01*
X197523465Y-28264493D01*
X197518875Y-28295435D01*
X197511275Y-28325778D01*
X197500737Y-28355230D01*
X197487362Y-28383508D01*
X197471281Y-28410338D01*
X197452647Y-28435463D01*
X197431640Y-28458640D01*
X197408463Y-28479647D01*
X197383338Y-28498281D01*
X197356508Y-28514362D01*
X197328230Y-28527737D01*
X197298778Y-28538275D01*
X197268435Y-28545875D01*
X197237493Y-28550465D01*
X197206250Y-28552000D01*
X196493750Y-28552000D01*
X196462507Y-28550465D01*
X196431565Y-28545875D01*
X196401222Y-28538275D01*
X196371770Y-28527737D01*
X196343492Y-28514362D01*
X196316662Y-28498281D01*
X196291537Y-28479647D01*
X196268360Y-28458640D01*
X196247353Y-28435463D01*
X196228719Y-28410338D01*
X196212638Y-28383508D01*
X196199263Y-28355230D01*
X196188725Y-28325778D01*
X196181125Y-28295435D01*
X196176535Y-28264493D01*
X196175000Y-28233250D01*
X196175000Y-27595750D01*
X196176535Y-27564507D01*
X196181125Y-27533565D01*
X196188725Y-27503222D01*
X196199263Y-27473770D01*
X196212638Y-27445492D01*
X196228719Y-27418662D01*
X196247353Y-27393537D01*
X196268360Y-27370360D01*
X196291537Y-27349353D01*
X196316662Y-27330719D01*
X196343492Y-27314638D01*
X196371770Y-27301263D01*
X196401222Y-27290725D01*
X196431565Y-27283125D01*
X196462507Y-27278535D01*
X196493750Y-27277000D01*
X197206250Y-27277000D01*
X197237493Y-27278535D01*
X197237493Y-27278535D01*
G37*
D11*
X196850000Y-27914500D03*
G04 #@! TD*
D10*
G04 #@! TO.C,C22*
G36*
X197962193Y-85153135D02*
X197993135Y-85157725D01*
X198023478Y-85165325D01*
X198052930Y-85175863D01*
X198081208Y-85189238D01*
X198108038Y-85205319D01*
X198133163Y-85223953D01*
X198156340Y-85244960D01*
X198177347Y-85268137D01*
X198195981Y-85293262D01*
X198212062Y-85320092D01*
X198225437Y-85348370D01*
X198235975Y-85377822D01*
X198243575Y-85408165D01*
X198248165Y-85439107D01*
X198249700Y-85470350D01*
X198249700Y-86182850D01*
X198248165Y-86214093D01*
X198243575Y-86245035D01*
X198235975Y-86275378D01*
X198225437Y-86304830D01*
X198212062Y-86333108D01*
X198195981Y-86359938D01*
X198177347Y-86385063D01*
X198156340Y-86408240D01*
X198133163Y-86429247D01*
X198108038Y-86447881D01*
X198081208Y-86463962D01*
X198052930Y-86477337D01*
X198023478Y-86487875D01*
X197993135Y-86495475D01*
X197962193Y-86500065D01*
X197930950Y-86501600D01*
X197293450Y-86501600D01*
X197262207Y-86500065D01*
X197231265Y-86495475D01*
X197200922Y-86487875D01*
X197171470Y-86477337D01*
X197143192Y-86463962D01*
X197116362Y-86447881D01*
X197091237Y-86429247D01*
X197068060Y-86408240D01*
X197047053Y-86385063D01*
X197028419Y-86359938D01*
X197012338Y-86333108D01*
X196998963Y-86304830D01*
X196988425Y-86275378D01*
X196980825Y-86245035D01*
X196976235Y-86214093D01*
X196974700Y-86182850D01*
X196974700Y-85470350D01*
X196976235Y-85439107D01*
X196980825Y-85408165D01*
X196988425Y-85377822D01*
X196998963Y-85348370D01*
X197012338Y-85320092D01*
X197028419Y-85293262D01*
X197047053Y-85268137D01*
X197068060Y-85244960D01*
X197091237Y-85223953D01*
X197116362Y-85205319D01*
X197143192Y-85189238D01*
X197171470Y-85175863D01*
X197200922Y-85165325D01*
X197231265Y-85157725D01*
X197262207Y-85153135D01*
X197293450Y-85151600D01*
X197930950Y-85151600D01*
X197962193Y-85153135D01*
X197962193Y-85153135D01*
G37*
D11*
X197612200Y-85826600D03*
D10*
G36*
X196387193Y-85153135D02*
X196418135Y-85157725D01*
X196448478Y-85165325D01*
X196477930Y-85175863D01*
X196506208Y-85189238D01*
X196533038Y-85205319D01*
X196558163Y-85223953D01*
X196581340Y-85244960D01*
X196602347Y-85268137D01*
X196620981Y-85293262D01*
X196637062Y-85320092D01*
X196650437Y-85348370D01*
X196660975Y-85377822D01*
X196668575Y-85408165D01*
X196673165Y-85439107D01*
X196674700Y-85470350D01*
X196674700Y-86182850D01*
X196673165Y-86214093D01*
X196668575Y-86245035D01*
X196660975Y-86275378D01*
X196650437Y-86304830D01*
X196637062Y-86333108D01*
X196620981Y-86359938D01*
X196602347Y-86385063D01*
X196581340Y-86408240D01*
X196558163Y-86429247D01*
X196533038Y-86447881D01*
X196506208Y-86463962D01*
X196477930Y-86477337D01*
X196448478Y-86487875D01*
X196418135Y-86495475D01*
X196387193Y-86500065D01*
X196355950Y-86501600D01*
X195718450Y-86501600D01*
X195687207Y-86500065D01*
X195656265Y-86495475D01*
X195625922Y-86487875D01*
X195596470Y-86477337D01*
X195568192Y-86463962D01*
X195541362Y-86447881D01*
X195516237Y-86429247D01*
X195493060Y-86408240D01*
X195472053Y-86385063D01*
X195453419Y-86359938D01*
X195437338Y-86333108D01*
X195423963Y-86304830D01*
X195413425Y-86275378D01*
X195405825Y-86245035D01*
X195401235Y-86214093D01*
X195399700Y-86182850D01*
X195399700Y-85470350D01*
X195401235Y-85439107D01*
X195405825Y-85408165D01*
X195413425Y-85377822D01*
X195423963Y-85348370D01*
X195437338Y-85320092D01*
X195453419Y-85293262D01*
X195472053Y-85268137D01*
X195493060Y-85244960D01*
X195516237Y-85223953D01*
X195541362Y-85205319D01*
X195568192Y-85189238D01*
X195596470Y-85175863D01*
X195625922Y-85165325D01*
X195656265Y-85157725D01*
X195687207Y-85153135D01*
X195718450Y-85151600D01*
X196355950Y-85151600D01*
X196387193Y-85153135D01*
X196387193Y-85153135D01*
G37*
D11*
X196037200Y-85826600D03*
G04 #@! TD*
D10*
G04 #@! TO.C,C23*
G36*
X188792793Y-85076935D02*
X188823735Y-85081525D01*
X188854078Y-85089125D01*
X188883530Y-85099663D01*
X188911808Y-85113038D01*
X188938638Y-85129119D01*
X188963763Y-85147753D01*
X188986940Y-85168760D01*
X189007947Y-85191937D01*
X189026581Y-85217062D01*
X189042662Y-85243892D01*
X189056037Y-85272170D01*
X189066575Y-85301622D01*
X189074175Y-85331965D01*
X189078765Y-85362907D01*
X189080300Y-85394150D01*
X189080300Y-86106650D01*
X189078765Y-86137893D01*
X189074175Y-86168835D01*
X189066575Y-86199178D01*
X189056037Y-86228630D01*
X189042662Y-86256908D01*
X189026581Y-86283738D01*
X189007947Y-86308863D01*
X188986940Y-86332040D01*
X188963763Y-86353047D01*
X188938638Y-86371681D01*
X188911808Y-86387762D01*
X188883530Y-86401137D01*
X188854078Y-86411675D01*
X188823735Y-86419275D01*
X188792793Y-86423865D01*
X188761550Y-86425400D01*
X188124050Y-86425400D01*
X188092807Y-86423865D01*
X188061865Y-86419275D01*
X188031522Y-86411675D01*
X188002070Y-86401137D01*
X187973792Y-86387762D01*
X187946962Y-86371681D01*
X187921837Y-86353047D01*
X187898660Y-86332040D01*
X187877653Y-86308863D01*
X187859019Y-86283738D01*
X187842938Y-86256908D01*
X187829563Y-86228630D01*
X187819025Y-86199178D01*
X187811425Y-86168835D01*
X187806835Y-86137893D01*
X187805300Y-86106650D01*
X187805300Y-85394150D01*
X187806835Y-85362907D01*
X187811425Y-85331965D01*
X187819025Y-85301622D01*
X187829563Y-85272170D01*
X187842938Y-85243892D01*
X187859019Y-85217062D01*
X187877653Y-85191937D01*
X187898660Y-85168760D01*
X187921837Y-85147753D01*
X187946962Y-85129119D01*
X187973792Y-85113038D01*
X188002070Y-85099663D01*
X188031522Y-85089125D01*
X188061865Y-85081525D01*
X188092807Y-85076935D01*
X188124050Y-85075400D01*
X188761550Y-85075400D01*
X188792793Y-85076935D01*
X188792793Y-85076935D01*
G37*
D11*
X188442800Y-85750400D03*
D10*
G36*
X187217793Y-85076935D02*
X187248735Y-85081525D01*
X187279078Y-85089125D01*
X187308530Y-85099663D01*
X187336808Y-85113038D01*
X187363638Y-85129119D01*
X187388763Y-85147753D01*
X187411940Y-85168760D01*
X187432947Y-85191937D01*
X187451581Y-85217062D01*
X187467662Y-85243892D01*
X187481037Y-85272170D01*
X187491575Y-85301622D01*
X187499175Y-85331965D01*
X187503765Y-85362907D01*
X187505300Y-85394150D01*
X187505300Y-86106650D01*
X187503765Y-86137893D01*
X187499175Y-86168835D01*
X187491575Y-86199178D01*
X187481037Y-86228630D01*
X187467662Y-86256908D01*
X187451581Y-86283738D01*
X187432947Y-86308863D01*
X187411940Y-86332040D01*
X187388763Y-86353047D01*
X187363638Y-86371681D01*
X187336808Y-86387762D01*
X187308530Y-86401137D01*
X187279078Y-86411675D01*
X187248735Y-86419275D01*
X187217793Y-86423865D01*
X187186550Y-86425400D01*
X186549050Y-86425400D01*
X186517807Y-86423865D01*
X186486865Y-86419275D01*
X186456522Y-86411675D01*
X186427070Y-86401137D01*
X186398792Y-86387762D01*
X186371962Y-86371681D01*
X186346837Y-86353047D01*
X186323660Y-86332040D01*
X186302653Y-86308863D01*
X186284019Y-86283738D01*
X186267938Y-86256908D01*
X186254563Y-86228630D01*
X186244025Y-86199178D01*
X186236425Y-86168835D01*
X186231835Y-86137893D01*
X186230300Y-86106650D01*
X186230300Y-85394150D01*
X186231835Y-85362907D01*
X186236425Y-85331965D01*
X186244025Y-85301622D01*
X186254563Y-85272170D01*
X186267938Y-85243892D01*
X186284019Y-85217062D01*
X186302653Y-85191937D01*
X186323660Y-85168760D01*
X186346837Y-85147753D01*
X186371962Y-85129119D01*
X186398792Y-85113038D01*
X186427070Y-85099663D01*
X186456522Y-85089125D01*
X186486865Y-85081525D01*
X186517807Y-85076935D01*
X186549050Y-85075400D01*
X187186550Y-85075400D01*
X187217793Y-85076935D01*
X187217793Y-85076935D01*
G37*
D11*
X186867800Y-85750400D03*
G04 #@! TD*
D10*
G04 #@! TO.C,C24*
G36*
X199714493Y-72224535D02*
X199745435Y-72229125D01*
X199775778Y-72236725D01*
X199805230Y-72247263D01*
X199833508Y-72260638D01*
X199860338Y-72276719D01*
X199885463Y-72295353D01*
X199908640Y-72316360D01*
X199929647Y-72339537D01*
X199948281Y-72364662D01*
X199964362Y-72391492D01*
X199977737Y-72419770D01*
X199988275Y-72449222D01*
X199995875Y-72479565D01*
X200000465Y-72510507D01*
X200002000Y-72541750D01*
X200002000Y-73254250D01*
X200000465Y-73285493D01*
X199995875Y-73316435D01*
X199988275Y-73346778D01*
X199977737Y-73376230D01*
X199964362Y-73404508D01*
X199948281Y-73431338D01*
X199929647Y-73456463D01*
X199908640Y-73479640D01*
X199885463Y-73500647D01*
X199860338Y-73519281D01*
X199833508Y-73535362D01*
X199805230Y-73548737D01*
X199775778Y-73559275D01*
X199745435Y-73566875D01*
X199714493Y-73571465D01*
X199683250Y-73573000D01*
X199045750Y-73573000D01*
X199014507Y-73571465D01*
X198983565Y-73566875D01*
X198953222Y-73559275D01*
X198923770Y-73548737D01*
X198895492Y-73535362D01*
X198868662Y-73519281D01*
X198843537Y-73500647D01*
X198820360Y-73479640D01*
X198799353Y-73456463D01*
X198780719Y-73431338D01*
X198764638Y-73404508D01*
X198751263Y-73376230D01*
X198740725Y-73346778D01*
X198733125Y-73316435D01*
X198728535Y-73285493D01*
X198727000Y-73254250D01*
X198727000Y-72541750D01*
X198728535Y-72510507D01*
X198733125Y-72479565D01*
X198740725Y-72449222D01*
X198751263Y-72419770D01*
X198764638Y-72391492D01*
X198780719Y-72364662D01*
X198799353Y-72339537D01*
X198820360Y-72316360D01*
X198843537Y-72295353D01*
X198868662Y-72276719D01*
X198895492Y-72260638D01*
X198923770Y-72247263D01*
X198953222Y-72236725D01*
X198983565Y-72229125D01*
X199014507Y-72224535D01*
X199045750Y-72223000D01*
X199683250Y-72223000D01*
X199714493Y-72224535D01*
X199714493Y-72224535D01*
G37*
D11*
X199364500Y-72898000D03*
D10*
G36*
X201289493Y-72224535D02*
X201320435Y-72229125D01*
X201350778Y-72236725D01*
X201380230Y-72247263D01*
X201408508Y-72260638D01*
X201435338Y-72276719D01*
X201460463Y-72295353D01*
X201483640Y-72316360D01*
X201504647Y-72339537D01*
X201523281Y-72364662D01*
X201539362Y-72391492D01*
X201552737Y-72419770D01*
X201563275Y-72449222D01*
X201570875Y-72479565D01*
X201575465Y-72510507D01*
X201577000Y-72541750D01*
X201577000Y-73254250D01*
X201575465Y-73285493D01*
X201570875Y-73316435D01*
X201563275Y-73346778D01*
X201552737Y-73376230D01*
X201539362Y-73404508D01*
X201523281Y-73431338D01*
X201504647Y-73456463D01*
X201483640Y-73479640D01*
X201460463Y-73500647D01*
X201435338Y-73519281D01*
X201408508Y-73535362D01*
X201380230Y-73548737D01*
X201350778Y-73559275D01*
X201320435Y-73566875D01*
X201289493Y-73571465D01*
X201258250Y-73573000D01*
X200620750Y-73573000D01*
X200589507Y-73571465D01*
X200558565Y-73566875D01*
X200528222Y-73559275D01*
X200498770Y-73548737D01*
X200470492Y-73535362D01*
X200443662Y-73519281D01*
X200418537Y-73500647D01*
X200395360Y-73479640D01*
X200374353Y-73456463D01*
X200355719Y-73431338D01*
X200339638Y-73404508D01*
X200326263Y-73376230D01*
X200315725Y-73346778D01*
X200308125Y-73316435D01*
X200303535Y-73285493D01*
X200302000Y-73254250D01*
X200302000Y-72541750D01*
X200303535Y-72510507D01*
X200308125Y-72479565D01*
X200315725Y-72449222D01*
X200326263Y-72419770D01*
X200339638Y-72391492D01*
X200355719Y-72364662D01*
X200374353Y-72339537D01*
X200395360Y-72316360D01*
X200418537Y-72295353D01*
X200443662Y-72276719D01*
X200470492Y-72260638D01*
X200498770Y-72247263D01*
X200528222Y-72236725D01*
X200558565Y-72229125D01*
X200589507Y-72224535D01*
X200620750Y-72223000D01*
X201258250Y-72223000D01*
X201289493Y-72224535D01*
X201289493Y-72224535D01*
G37*
D11*
X200939500Y-72898000D03*
G04 #@! TD*
D10*
G04 #@! TO.C,C25*
G36*
X211207493Y-72033535D02*
X211238435Y-72038125D01*
X211268778Y-72045725D01*
X211298230Y-72056263D01*
X211326508Y-72069638D01*
X211353338Y-72085719D01*
X211378463Y-72104353D01*
X211401640Y-72125360D01*
X211422647Y-72148537D01*
X211441281Y-72173662D01*
X211457362Y-72200492D01*
X211470737Y-72228770D01*
X211481275Y-72258222D01*
X211488875Y-72288565D01*
X211493465Y-72319507D01*
X211495000Y-72350750D01*
X211495000Y-72988250D01*
X211493465Y-73019493D01*
X211488875Y-73050435D01*
X211481275Y-73080778D01*
X211470737Y-73110230D01*
X211457362Y-73138508D01*
X211441281Y-73165338D01*
X211422647Y-73190463D01*
X211401640Y-73213640D01*
X211378463Y-73234647D01*
X211353338Y-73253281D01*
X211326508Y-73269362D01*
X211298230Y-73282737D01*
X211268778Y-73293275D01*
X211238435Y-73300875D01*
X211207493Y-73305465D01*
X211176250Y-73307000D01*
X210463750Y-73307000D01*
X210432507Y-73305465D01*
X210401565Y-73300875D01*
X210371222Y-73293275D01*
X210341770Y-73282737D01*
X210313492Y-73269362D01*
X210286662Y-73253281D01*
X210261537Y-73234647D01*
X210238360Y-73213640D01*
X210217353Y-73190463D01*
X210198719Y-73165338D01*
X210182638Y-73138508D01*
X210169263Y-73110230D01*
X210158725Y-73080778D01*
X210151125Y-73050435D01*
X210146535Y-73019493D01*
X210145000Y-72988250D01*
X210145000Y-72350750D01*
X210146535Y-72319507D01*
X210151125Y-72288565D01*
X210158725Y-72258222D01*
X210169263Y-72228770D01*
X210182638Y-72200492D01*
X210198719Y-72173662D01*
X210217353Y-72148537D01*
X210238360Y-72125360D01*
X210261537Y-72104353D01*
X210286662Y-72085719D01*
X210313492Y-72069638D01*
X210341770Y-72056263D01*
X210371222Y-72045725D01*
X210401565Y-72038125D01*
X210432507Y-72033535D01*
X210463750Y-72032000D01*
X211176250Y-72032000D01*
X211207493Y-72033535D01*
X211207493Y-72033535D01*
G37*
D11*
X210820000Y-72669500D03*
D10*
G36*
X211207493Y-70458535D02*
X211238435Y-70463125D01*
X211268778Y-70470725D01*
X211298230Y-70481263D01*
X211326508Y-70494638D01*
X211353338Y-70510719D01*
X211378463Y-70529353D01*
X211401640Y-70550360D01*
X211422647Y-70573537D01*
X211441281Y-70598662D01*
X211457362Y-70625492D01*
X211470737Y-70653770D01*
X211481275Y-70683222D01*
X211488875Y-70713565D01*
X211493465Y-70744507D01*
X211495000Y-70775750D01*
X211495000Y-71413250D01*
X211493465Y-71444493D01*
X211488875Y-71475435D01*
X211481275Y-71505778D01*
X211470737Y-71535230D01*
X211457362Y-71563508D01*
X211441281Y-71590338D01*
X211422647Y-71615463D01*
X211401640Y-71638640D01*
X211378463Y-71659647D01*
X211353338Y-71678281D01*
X211326508Y-71694362D01*
X211298230Y-71707737D01*
X211268778Y-71718275D01*
X211238435Y-71725875D01*
X211207493Y-71730465D01*
X211176250Y-71732000D01*
X210463750Y-71732000D01*
X210432507Y-71730465D01*
X210401565Y-71725875D01*
X210371222Y-71718275D01*
X210341770Y-71707737D01*
X210313492Y-71694362D01*
X210286662Y-71678281D01*
X210261537Y-71659647D01*
X210238360Y-71638640D01*
X210217353Y-71615463D01*
X210198719Y-71590338D01*
X210182638Y-71563508D01*
X210169263Y-71535230D01*
X210158725Y-71505778D01*
X210151125Y-71475435D01*
X210146535Y-71444493D01*
X210145000Y-71413250D01*
X210145000Y-70775750D01*
X210146535Y-70744507D01*
X210151125Y-70713565D01*
X210158725Y-70683222D01*
X210169263Y-70653770D01*
X210182638Y-70625492D01*
X210198719Y-70598662D01*
X210217353Y-70573537D01*
X210238360Y-70550360D01*
X210261537Y-70529353D01*
X210286662Y-70510719D01*
X210313492Y-70494638D01*
X210341770Y-70481263D01*
X210371222Y-70470725D01*
X210401565Y-70463125D01*
X210432507Y-70458535D01*
X210463750Y-70457000D01*
X211176250Y-70457000D01*
X211207493Y-70458535D01*
X211207493Y-70458535D01*
G37*
D11*
X210820000Y-71094500D03*
G04 #@! TD*
D10*
G04 #@! TO.C,C31*
G36*
X198495593Y-50685335D02*
X198526535Y-50689925D01*
X198556878Y-50697525D01*
X198586330Y-50708063D01*
X198614608Y-50721438D01*
X198641438Y-50737519D01*
X198666563Y-50756153D01*
X198689740Y-50777160D01*
X198710747Y-50800337D01*
X198729381Y-50825462D01*
X198745462Y-50852292D01*
X198758837Y-50880570D01*
X198769375Y-50910022D01*
X198776975Y-50940365D01*
X198781565Y-50971307D01*
X198783100Y-51002550D01*
X198783100Y-51715050D01*
X198781565Y-51746293D01*
X198776975Y-51777235D01*
X198769375Y-51807578D01*
X198758837Y-51837030D01*
X198745462Y-51865308D01*
X198729381Y-51892138D01*
X198710747Y-51917263D01*
X198689740Y-51940440D01*
X198666563Y-51961447D01*
X198641438Y-51980081D01*
X198614608Y-51996162D01*
X198586330Y-52009537D01*
X198556878Y-52020075D01*
X198526535Y-52027675D01*
X198495593Y-52032265D01*
X198464350Y-52033800D01*
X197826850Y-52033800D01*
X197795607Y-52032265D01*
X197764665Y-52027675D01*
X197734322Y-52020075D01*
X197704870Y-52009537D01*
X197676592Y-51996162D01*
X197649762Y-51980081D01*
X197624637Y-51961447D01*
X197601460Y-51940440D01*
X197580453Y-51917263D01*
X197561819Y-51892138D01*
X197545738Y-51865308D01*
X197532363Y-51837030D01*
X197521825Y-51807578D01*
X197514225Y-51777235D01*
X197509635Y-51746293D01*
X197508100Y-51715050D01*
X197508100Y-51002550D01*
X197509635Y-50971307D01*
X197514225Y-50940365D01*
X197521825Y-50910022D01*
X197532363Y-50880570D01*
X197545738Y-50852292D01*
X197561819Y-50825462D01*
X197580453Y-50800337D01*
X197601460Y-50777160D01*
X197624637Y-50756153D01*
X197649762Y-50737519D01*
X197676592Y-50721438D01*
X197704870Y-50708063D01*
X197734322Y-50697525D01*
X197764665Y-50689925D01*
X197795607Y-50685335D01*
X197826850Y-50683800D01*
X198464350Y-50683800D01*
X198495593Y-50685335D01*
X198495593Y-50685335D01*
G37*
D11*
X198145600Y-51358800D03*
D10*
G36*
X196920593Y-50685335D02*
X196951535Y-50689925D01*
X196981878Y-50697525D01*
X197011330Y-50708063D01*
X197039608Y-50721438D01*
X197066438Y-50737519D01*
X197091563Y-50756153D01*
X197114740Y-50777160D01*
X197135747Y-50800337D01*
X197154381Y-50825462D01*
X197170462Y-50852292D01*
X197183837Y-50880570D01*
X197194375Y-50910022D01*
X197201975Y-50940365D01*
X197206565Y-50971307D01*
X197208100Y-51002550D01*
X197208100Y-51715050D01*
X197206565Y-51746293D01*
X197201975Y-51777235D01*
X197194375Y-51807578D01*
X197183837Y-51837030D01*
X197170462Y-51865308D01*
X197154381Y-51892138D01*
X197135747Y-51917263D01*
X197114740Y-51940440D01*
X197091563Y-51961447D01*
X197066438Y-51980081D01*
X197039608Y-51996162D01*
X197011330Y-52009537D01*
X196981878Y-52020075D01*
X196951535Y-52027675D01*
X196920593Y-52032265D01*
X196889350Y-52033800D01*
X196251850Y-52033800D01*
X196220607Y-52032265D01*
X196189665Y-52027675D01*
X196159322Y-52020075D01*
X196129870Y-52009537D01*
X196101592Y-51996162D01*
X196074762Y-51980081D01*
X196049637Y-51961447D01*
X196026460Y-51940440D01*
X196005453Y-51917263D01*
X195986819Y-51892138D01*
X195970738Y-51865308D01*
X195957363Y-51837030D01*
X195946825Y-51807578D01*
X195939225Y-51777235D01*
X195934635Y-51746293D01*
X195933100Y-51715050D01*
X195933100Y-51002550D01*
X195934635Y-50971307D01*
X195939225Y-50940365D01*
X195946825Y-50910022D01*
X195957363Y-50880570D01*
X195970738Y-50852292D01*
X195986819Y-50825462D01*
X196005453Y-50800337D01*
X196026460Y-50777160D01*
X196049637Y-50756153D01*
X196074762Y-50737519D01*
X196101592Y-50721438D01*
X196129870Y-50708063D01*
X196159322Y-50697525D01*
X196189665Y-50689925D01*
X196220607Y-50685335D01*
X196251850Y-50683800D01*
X196889350Y-50683800D01*
X196920593Y-50685335D01*
X196920593Y-50685335D01*
G37*
D11*
X196570600Y-51358800D03*
G04 #@! TD*
D10*
G04 #@! TO.C,C33*
G36*
X188437093Y-50558335D02*
X188468035Y-50562925D01*
X188498378Y-50570525D01*
X188527830Y-50581063D01*
X188556108Y-50594438D01*
X188582938Y-50610519D01*
X188608063Y-50629153D01*
X188631240Y-50650160D01*
X188652247Y-50673337D01*
X188670881Y-50698462D01*
X188686962Y-50725292D01*
X188700337Y-50753570D01*
X188710875Y-50783022D01*
X188718475Y-50813365D01*
X188723065Y-50844307D01*
X188724600Y-50875550D01*
X188724600Y-51588050D01*
X188723065Y-51619293D01*
X188718475Y-51650235D01*
X188710875Y-51680578D01*
X188700337Y-51710030D01*
X188686962Y-51738308D01*
X188670881Y-51765138D01*
X188652247Y-51790263D01*
X188631240Y-51813440D01*
X188608063Y-51834447D01*
X188582938Y-51853081D01*
X188556108Y-51869162D01*
X188527830Y-51882537D01*
X188498378Y-51893075D01*
X188468035Y-51900675D01*
X188437093Y-51905265D01*
X188405850Y-51906800D01*
X187768350Y-51906800D01*
X187737107Y-51905265D01*
X187706165Y-51900675D01*
X187675822Y-51893075D01*
X187646370Y-51882537D01*
X187618092Y-51869162D01*
X187591262Y-51853081D01*
X187566137Y-51834447D01*
X187542960Y-51813440D01*
X187521953Y-51790263D01*
X187503319Y-51765138D01*
X187487238Y-51738308D01*
X187473863Y-51710030D01*
X187463325Y-51680578D01*
X187455725Y-51650235D01*
X187451135Y-51619293D01*
X187449600Y-51588050D01*
X187449600Y-50875550D01*
X187451135Y-50844307D01*
X187455725Y-50813365D01*
X187463325Y-50783022D01*
X187473863Y-50753570D01*
X187487238Y-50725292D01*
X187503319Y-50698462D01*
X187521953Y-50673337D01*
X187542960Y-50650160D01*
X187566137Y-50629153D01*
X187591262Y-50610519D01*
X187618092Y-50594438D01*
X187646370Y-50581063D01*
X187675822Y-50570525D01*
X187706165Y-50562925D01*
X187737107Y-50558335D01*
X187768350Y-50556800D01*
X188405850Y-50556800D01*
X188437093Y-50558335D01*
X188437093Y-50558335D01*
G37*
D11*
X188087100Y-51231800D03*
D10*
G36*
X186862093Y-50558335D02*
X186893035Y-50562925D01*
X186923378Y-50570525D01*
X186952830Y-50581063D01*
X186981108Y-50594438D01*
X187007938Y-50610519D01*
X187033063Y-50629153D01*
X187056240Y-50650160D01*
X187077247Y-50673337D01*
X187095881Y-50698462D01*
X187111962Y-50725292D01*
X187125337Y-50753570D01*
X187135875Y-50783022D01*
X187143475Y-50813365D01*
X187148065Y-50844307D01*
X187149600Y-50875550D01*
X187149600Y-51588050D01*
X187148065Y-51619293D01*
X187143475Y-51650235D01*
X187135875Y-51680578D01*
X187125337Y-51710030D01*
X187111962Y-51738308D01*
X187095881Y-51765138D01*
X187077247Y-51790263D01*
X187056240Y-51813440D01*
X187033063Y-51834447D01*
X187007938Y-51853081D01*
X186981108Y-51869162D01*
X186952830Y-51882537D01*
X186923378Y-51893075D01*
X186893035Y-51900675D01*
X186862093Y-51905265D01*
X186830850Y-51906800D01*
X186193350Y-51906800D01*
X186162107Y-51905265D01*
X186131165Y-51900675D01*
X186100822Y-51893075D01*
X186071370Y-51882537D01*
X186043092Y-51869162D01*
X186016262Y-51853081D01*
X185991137Y-51834447D01*
X185967960Y-51813440D01*
X185946953Y-51790263D01*
X185928319Y-51765138D01*
X185912238Y-51738308D01*
X185898863Y-51710030D01*
X185888325Y-51680578D01*
X185880725Y-51650235D01*
X185876135Y-51619293D01*
X185874600Y-51588050D01*
X185874600Y-50875550D01*
X185876135Y-50844307D01*
X185880725Y-50813365D01*
X185888325Y-50783022D01*
X185898863Y-50753570D01*
X185912238Y-50725292D01*
X185928319Y-50698462D01*
X185946953Y-50673337D01*
X185967960Y-50650160D01*
X185991137Y-50629153D01*
X186016262Y-50610519D01*
X186043092Y-50594438D01*
X186071370Y-50581063D01*
X186100822Y-50570525D01*
X186131165Y-50562925D01*
X186162107Y-50558335D01*
X186193350Y-50556800D01*
X186830850Y-50556800D01*
X186862093Y-50558335D01*
X186862093Y-50558335D01*
G37*
D11*
X186512100Y-51231800D03*
G04 #@! TD*
D10*
G04 #@! TO.C,C36*
G36*
X198952493Y-35140535D02*
X198983435Y-35145125D01*
X199013778Y-35152725D01*
X199043230Y-35163263D01*
X199071508Y-35176638D01*
X199098338Y-35192719D01*
X199123463Y-35211353D01*
X199146640Y-35232360D01*
X199167647Y-35255537D01*
X199186281Y-35280662D01*
X199202362Y-35307492D01*
X199215737Y-35335770D01*
X199226275Y-35365222D01*
X199233875Y-35395565D01*
X199238465Y-35426507D01*
X199240000Y-35457750D01*
X199240000Y-36170250D01*
X199238465Y-36201493D01*
X199233875Y-36232435D01*
X199226275Y-36262778D01*
X199215737Y-36292230D01*
X199202362Y-36320508D01*
X199186281Y-36347338D01*
X199167647Y-36372463D01*
X199146640Y-36395640D01*
X199123463Y-36416647D01*
X199098338Y-36435281D01*
X199071508Y-36451362D01*
X199043230Y-36464737D01*
X199013778Y-36475275D01*
X198983435Y-36482875D01*
X198952493Y-36487465D01*
X198921250Y-36489000D01*
X198283750Y-36489000D01*
X198252507Y-36487465D01*
X198221565Y-36482875D01*
X198191222Y-36475275D01*
X198161770Y-36464737D01*
X198133492Y-36451362D01*
X198106662Y-36435281D01*
X198081537Y-36416647D01*
X198058360Y-36395640D01*
X198037353Y-36372463D01*
X198018719Y-36347338D01*
X198002638Y-36320508D01*
X197989263Y-36292230D01*
X197978725Y-36262778D01*
X197971125Y-36232435D01*
X197966535Y-36201493D01*
X197965000Y-36170250D01*
X197965000Y-35457750D01*
X197966535Y-35426507D01*
X197971125Y-35395565D01*
X197978725Y-35365222D01*
X197989263Y-35335770D01*
X198002638Y-35307492D01*
X198018719Y-35280662D01*
X198037353Y-35255537D01*
X198058360Y-35232360D01*
X198081537Y-35211353D01*
X198106662Y-35192719D01*
X198133492Y-35176638D01*
X198161770Y-35163263D01*
X198191222Y-35152725D01*
X198221565Y-35145125D01*
X198252507Y-35140535D01*
X198283750Y-35139000D01*
X198921250Y-35139000D01*
X198952493Y-35140535D01*
X198952493Y-35140535D01*
G37*
D11*
X198602500Y-35814000D03*
D10*
G36*
X200527493Y-35140535D02*
X200558435Y-35145125D01*
X200588778Y-35152725D01*
X200618230Y-35163263D01*
X200646508Y-35176638D01*
X200673338Y-35192719D01*
X200698463Y-35211353D01*
X200721640Y-35232360D01*
X200742647Y-35255537D01*
X200761281Y-35280662D01*
X200777362Y-35307492D01*
X200790737Y-35335770D01*
X200801275Y-35365222D01*
X200808875Y-35395565D01*
X200813465Y-35426507D01*
X200815000Y-35457750D01*
X200815000Y-36170250D01*
X200813465Y-36201493D01*
X200808875Y-36232435D01*
X200801275Y-36262778D01*
X200790737Y-36292230D01*
X200777362Y-36320508D01*
X200761281Y-36347338D01*
X200742647Y-36372463D01*
X200721640Y-36395640D01*
X200698463Y-36416647D01*
X200673338Y-36435281D01*
X200646508Y-36451362D01*
X200618230Y-36464737D01*
X200588778Y-36475275D01*
X200558435Y-36482875D01*
X200527493Y-36487465D01*
X200496250Y-36489000D01*
X199858750Y-36489000D01*
X199827507Y-36487465D01*
X199796565Y-36482875D01*
X199766222Y-36475275D01*
X199736770Y-36464737D01*
X199708492Y-36451362D01*
X199681662Y-36435281D01*
X199656537Y-36416647D01*
X199633360Y-36395640D01*
X199612353Y-36372463D01*
X199593719Y-36347338D01*
X199577638Y-36320508D01*
X199564263Y-36292230D01*
X199553725Y-36262778D01*
X199546125Y-36232435D01*
X199541535Y-36201493D01*
X199540000Y-36170250D01*
X199540000Y-35457750D01*
X199541535Y-35426507D01*
X199546125Y-35395565D01*
X199553725Y-35365222D01*
X199564263Y-35335770D01*
X199577638Y-35307492D01*
X199593719Y-35280662D01*
X199612353Y-35255537D01*
X199633360Y-35232360D01*
X199656537Y-35211353D01*
X199681662Y-35192719D01*
X199708492Y-35176638D01*
X199736770Y-35163263D01*
X199766222Y-35152725D01*
X199796565Y-35145125D01*
X199827507Y-35140535D01*
X199858750Y-35139000D01*
X200496250Y-35139000D01*
X200527493Y-35140535D01*
X200527493Y-35140535D01*
G37*
D11*
X200177500Y-35814000D03*
G04 #@! TD*
D10*
G04 #@! TO.C,C40*
G36*
X210699493Y-35178035D02*
X210730435Y-35182625D01*
X210760778Y-35190225D01*
X210790230Y-35200763D01*
X210818508Y-35214138D01*
X210845338Y-35230219D01*
X210870463Y-35248853D01*
X210893640Y-35269860D01*
X210914647Y-35293037D01*
X210933281Y-35318162D01*
X210949362Y-35344992D01*
X210962737Y-35373270D01*
X210973275Y-35402722D01*
X210980875Y-35433065D01*
X210985465Y-35464007D01*
X210987000Y-35495250D01*
X210987000Y-36132750D01*
X210985465Y-36163993D01*
X210980875Y-36194935D01*
X210973275Y-36225278D01*
X210962737Y-36254730D01*
X210949362Y-36283008D01*
X210933281Y-36309838D01*
X210914647Y-36334963D01*
X210893640Y-36358140D01*
X210870463Y-36379147D01*
X210845338Y-36397781D01*
X210818508Y-36413862D01*
X210790230Y-36427237D01*
X210760778Y-36437775D01*
X210730435Y-36445375D01*
X210699493Y-36449965D01*
X210668250Y-36451500D01*
X209955750Y-36451500D01*
X209924507Y-36449965D01*
X209893565Y-36445375D01*
X209863222Y-36437775D01*
X209833770Y-36427237D01*
X209805492Y-36413862D01*
X209778662Y-36397781D01*
X209753537Y-36379147D01*
X209730360Y-36358140D01*
X209709353Y-36334963D01*
X209690719Y-36309838D01*
X209674638Y-36283008D01*
X209661263Y-36254730D01*
X209650725Y-36225278D01*
X209643125Y-36194935D01*
X209638535Y-36163993D01*
X209637000Y-36132750D01*
X209637000Y-35495250D01*
X209638535Y-35464007D01*
X209643125Y-35433065D01*
X209650725Y-35402722D01*
X209661263Y-35373270D01*
X209674638Y-35344992D01*
X209690719Y-35318162D01*
X209709353Y-35293037D01*
X209730360Y-35269860D01*
X209753537Y-35248853D01*
X209778662Y-35230219D01*
X209805492Y-35214138D01*
X209833770Y-35200763D01*
X209863222Y-35190225D01*
X209893565Y-35182625D01*
X209924507Y-35178035D01*
X209955750Y-35176500D01*
X210668250Y-35176500D01*
X210699493Y-35178035D01*
X210699493Y-35178035D01*
G37*
D11*
X210312000Y-35814000D03*
D10*
G36*
X210699493Y-33603035D02*
X210730435Y-33607625D01*
X210760778Y-33615225D01*
X210790230Y-33625763D01*
X210818508Y-33639138D01*
X210845338Y-33655219D01*
X210870463Y-33673853D01*
X210893640Y-33694860D01*
X210914647Y-33718037D01*
X210933281Y-33743162D01*
X210949362Y-33769992D01*
X210962737Y-33798270D01*
X210973275Y-33827722D01*
X210980875Y-33858065D01*
X210985465Y-33889007D01*
X210987000Y-33920250D01*
X210987000Y-34557750D01*
X210985465Y-34588993D01*
X210980875Y-34619935D01*
X210973275Y-34650278D01*
X210962737Y-34679730D01*
X210949362Y-34708008D01*
X210933281Y-34734838D01*
X210914647Y-34759963D01*
X210893640Y-34783140D01*
X210870463Y-34804147D01*
X210845338Y-34822781D01*
X210818508Y-34838862D01*
X210790230Y-34852237D01*
X210760778Y-34862775D01*
X210730435Y-34870375D01*
X210699493Y-34874965D01*
X210668250Y-34876500D01*
X209955750Y-34876500D01*
X209924507Y-34874965D01*
X209893565Y-34870375D01*
X209863222Y-34862775D01*
X209833770Y-34852237D01*
X209805492Y-34838862D01*
X209778662Y-34822781D01*
X209753537Y-34804147D01*
X209730360Y-34783140D01*
X209709353Y-34759963D01*
X209690719Y-34734838D01*
X209674638Y-34708008D01*
X209661263Y-34679730D01*
X209650725Y-34650278D01*
X209643125Y-34619935D01*
X209638535Y-34588993D01*
X209637000Y-34557750D01*
X209637000Y-33920250D01*
X209638535Y-33889007D01*
X209643125Y-33858065D01*
X209650725Y-33827722D01*
X209661263Y-33798270D01*
X209674638Y-33769992D01*
X209690719Y-33743162D01*
X209709353Y-33718037D01*
X209730360Y-33694860D01*
X209753537Y-33673853D01*
X209778662Y-33655219D01*
X209805492Y-33639138D01*
X209833770Y-33625763D01*
X209863222Y-33615225D01*
X209893565Y-33607625D01*
X209924507Y-33603035D01*
X209955750Y-33601500D01*
X210668250Y-33601500D01*
X210699493Y-33603035D01*
X210699493Y-33603035D01*
G37*
D11*
X210312000Y-34239000D03*
G04 #@! TD*
D10*
G04 #@! TO.C,R1*
G36*
X185795493Y-30314535D02*
X185826435Y-30319125D01*
X185856778Y-30326725D01*
X185886230Y-30337263D01*
X185914508Y-30350638D01*
X185941338Y-30366719D01*
X185966463Y-30385353D01*
X185989640Y-30406360D01*
X186010647Y-30429537D01*
X186029281Y-30454662D01*
X186045362Y-30481492D01*
X186058737Y-30509770D01*
X186069275Y-30539222D01*
X186076875Y-30569565D01*
X186081465Y-30600507D01*
X186083000Y-30631750D01*
X186083000Y-31344250D01*
X186081465Y-31375493D01*
X186076875Y-31406435D01*
X186069275Y-31436778D01*
X186058737Y-31466230D01*
X186045362Y-31494508D01*
X186029281Y-31521338D01*
X186010647Y-31546463D01*
X185989640Y-31569640D01*
X185966463Y-31590647D01*
X185941338Y-31609281D01*
X185914508Y-31625362D01*
X185886230Y-31638737D01*
X185856778Y-31649275D01*
X185826435Y-31656875D01*
X185795493Y-31661465D01*
X185764250Y-31663000D01*
X185126750Y-31663000D01*
X185095507Y-31661465D01*
X185064565Y-31656875D01*
X185034222Y-31649275D01*
X185004770Y-31638737D01*
X184976492Y-31625362D01*
X184949662Y-31609281D01*
X184924537Y-31590647D01*
X184901360Y-31569640D01*
X184880353Y-31546463D01*
X184861719Y-31521338D01*
X184845638Y-31494508D01*
X184832263Y-31466230D01*
X184821725Y-31436778D01*
X184814125Y-31406435D01*
X184809535Y-31375493D01*
X184808000Y-31344250D01*
X184808000Y-30631750D01*
X184809535Y-30600507D01*
X184814125Y-30569565D01*
X184821725Y-30539222D01*
X184832263Y-30509770D01*
X184845638Y-30481492D01*
X184861719Y-30454662D01*
X184880353Y-30429537D01*
X184901360Y-30406360D01*
X184924537Y-30385353D01*
X184949662Y-30366719D01*
X184976492Y-30350638D01*
X185004770Y-30337263D01*
X185034222Y-30326725D01*
X185064565Y-30319125D01*
X185095507Y-30314535D01*
X185126750Y-30313000D01*
X185764250Y-30313000D01*
X185795493Y-30314535D01*
X185795493Y-30314535D01*
G37*
D11*
X185445500Y-30988000D03*
D10*
G36*
X184220493Y-30314535D02*
X184251435Y-30319125D01*
X184281778Y-30326725D01*
X184311230Y-30337263D01*
X184339508Y-30350638D01*
X184366338Y-30366719D01*
X184391463Y-30385353D01*
X184414640Y-30406360D01*
X184435647Y-30429537D01*
X184454281Y-30454662D01*
X184470362Y-30481492D01*
X184483737Y-30509770D01*
X184494275Y-30539222D01*
X184501875Y-30569565D01*
X184506465Y-30600507D01*
X184508000Y-30631750D01*
X184508000Y-31344250D01*
X184506465Y-31375493D01*
X184501875Y-31406435D01*
X184494275Y-31436778D01*
X184483737Y-31466230D01*
X184470362Y-31494508D01*
X184454281Y-31521338D01*
X184435647Y-31546463D01*
X184414640Y-31569640D01*
X184391463Y-31590647D01*
X184366338Y-31609281D01*
X184339508Y-31625362D01*
X184311230Y-31638737D01*
X184281778Y-31649275D01*
X184251435Y-31656875D01*
X184220493Y-31661465D01*
X184189250Y-31663000D01*
X183551750Y-31663000D01*
X183520507Y-31661465D01*
X183489565Y-31656875D01*
X183459222Y-31649275D01*
X183429770Y-31638737D01*
X183401492Y-31625362D01*
X183374662Y-31609281D01*
X183349537Y-31590647D01*
X183326360Y-31569640D01*
X183305353Y-31546463D01*
X183286719Y-31521338D01*
X183270638Y-31494508D01*
X183257263Y-31466230D01*
X183246725Y-31436778D01*
X183239125Y-31406435D01*
X183234535Y-31375493D01*
X183233000Y-31344250D01*
X183233000Y-30631750D01*
X183234535Y-30600507D01*
X183239125Y-30569565D01*
X183246725Y-30539222D01*
X183257263Y-30509770D01*
X183270638Y-30481492D01*
X183286719Y-30454662D01*
X183305353Y-30429537D01*
X183326360Y-30406360D01*
X183349537Y-30385353D01*
X183374662Y-30366719D01*
X183401492Y-30350638D01*
X183429770Y-30337263D01*
X183459222Y-30326725D01*
X183489565Y-30319125D01*
X183520507Y-30314535D01*
X183551750Y-30313000D01*
X184189250Y-30313000D01*
X184220493Y-30314535D01*
X184220493Y-30314535D01*
G37*
D11*
X183870500Y-30988000D03*
G04 #@! TD*
D10*
G04 #@! TO.C,R2*
G36*
X184728493Y-67398535D02*
X184759435Y-67403125D01*
X184789778Y-67410725D01*
X184819230Y-67421263D01*
X184847508Y-67434638D01*
X184874338Y-67450719D01*
X184899463Y-67469353D01*
X184922640Y-67490360D01*
X184943647Y-67513537D01*
X184962281Y-67538662D01*
X184978362Y-67565492D01*
X184991737Y-67593770D01*
X185002275Y-67623222D01*
X185009875Y-67653565D01*
X185014465Y-67684507D01*
X185016000Y-67715750D01*
X185016000Y-68428250D01*
X185014465Y-68459493D01*
X185009875Y-68490435D01*
X185002275Y-68520778D01*
X184991737Y-68550230D01*
X184978362Y-68578508D01*
X184962281Y-68605338D01*
X184943647Y-68630463D01*
X184922640Y-68653640D01*
X184899463Y-68674647D01*
X184874338Y-68693281D01*
X184847508Y-68709362D01*
X184819230Y-68722737D01*
X184789778Y-68733275D01*
X184759435Y-68740875D01*
X184728493Y-68745465D01*
X184697250Y-68747000D01*
X184059750Y-68747000D01*
X184028507Y-68745465D01*
X183997565Y-68740875D01*
X183967222Y-68733275D01*
X183937770Y-68722737D01*
X183909492Y-68709362D01*
X183882662Y-68693281D01*
X183857537Y-68674647D01*
X183834360Y-68653640D01*
X183813353Y-68630463D01*
X183794719Y-68605338D01*
X183778638Y-68578508D01*
X183765263Y-68550230D01*
X183754725Y-68520778D01*
X183747125Y-68490435D01*
X183742535Y-68459493D01*
X183741000Y-68428250D01*
X183741000Y-67715750D01*
X183742535Y-67684507D01*
X183747125Y-67653565D01*
X183754725Y-67623222D01*
X183765263Y-67593770D01*
X183778638Y-67565492D01*
X183794719Y-67538662D01*
X183813353Y-67513537D01*
X183834360Y-67490360D01*
X183857537Y-67469353D01*
X183882662Y-67450719D01*
X183909492Y-67434638D01*
X183937770Y-67421263D01*
X183967222Y-67410725D01*
X183997565Y-67403125D01*
X184028507Y-67398535D01*
X184059750Y-67397000D01*
X184697250Y-67397000D01*
X184728493Y-67398535D01*
X184728493Y-67398535D01*
G37*
D11*
X184378500Y-68072000D03*
D10*
G36*
X186303493Y-67398535D02*
X186334435Y-67403125D01*
X186364778Y-67410725D01*
X186394230Y-67421263D01*
X186422508Y-67434638D01*
X186449338Y-67450719D01*
X186474463Y-67469353D01*
X186497640Y-67490360D01*
X186518647Y-67513537D01*
X186537281Y-67538662D01*
X186553362Y-67565492D01*
X186566737Y-67593770D01*
X186577275Y-67623222D01*
X186584875Y-67653565D01*
X186589465Y-67684507D01*
X186591000Y-67715750D01*
X186591000Y-68428250D01*
X186589465Y-68459493D01*
X186584875Y-68490435D01*
X186577275Y-68520778D01*
X186566737Y-68550230D01*
X186553362Y-68578508D01*
X186537281Y-68605338D01*
X186518647Y-68630463D01*
X186497640Y-68653640D01*
X186474463Y-68674647D01*
X186449338Y-68693281D01*
X186422508Y-68709362D01*
X186394230Y-68722737D01*
X186364778Y-68733275D01*
X186334435Y-68740875D01*
X186303493Y-68745465D01*
X186272250Y-68747000D01*
X185634750Y-68747000D01*
X185603507Y-68745465D01*
X185572565Y-68740875D01*
X185542222Y-68733275D01*
X185512770Y-68722737D01*
X185484492Y-68709362D01*
X185457662Y-68693281D01*
X185432537Y-68674647D01*
X185409360Y-68653640D01*
X185388353Y-68630463D01*
X185369719Y-68605338D01*
X185353638Y-68578508D01*
X185340263Y-68550230D01*
X185329725Y-68520778D01*
X185322125Y-68490435D01*
X185317535Y-68459493D01*
X185316000Y-68428250D01*
X185316000Y-67715750D01*
X185317535Y-67684507D01*
X185322125Y-67653565D01*
X185329725Y-67623222D01*
X185340263Y-67593770D01*
X185353638Y-67565492D01*
X185369719Y-67538662D01*
X185388353Y-67513537D01*
X185409360Y-67490360D01*
X185432537Y-67469353D01*
X185457662Y-67450719D01*
X185484492Y-67434638D01*
X185512770Y-67421263D01*
X185542222Y-67410725D01*
X185572565Y-67403125D01*
X185603507Y-67398535D01*
X185634750Y-67397000D01*
X186272250Y-67397000D01*
X186303493Y-67398535D01*
X186303493Y-67398535D01*
G37*
D11*
X185953500Y-68072000D03*
G04 #@! TD*
D10*
G04 #@! TO.C,R3*
G36*
X191611893Y-38747335D02*
X191642835Y-38751925D01*
X191673178Y-38759525D01*
X191702630Y-38770063D01*
X191730908Y-38783438D01*
X191757738Y-38799519D01*
X191782863Y-38818153D01*
X191806040Y-38839160D01*
X191827047Y-38862337D01*
X191845681Y-38887462D01*
X191861762Y-38914292D01*
X191875137Y-38942570D01*
X191885675Y-38972022D01*
X191893275Y-39002365D01*
X191897865Y-39033307D01*
X191899400Y-39064550D01*
X191899400Y-39777050D01*
X191897865Y-39808293D01*
X191893275Y-39839235D01*
X191885675Y-39869578D01*
X191875137Y-39899030D01*
X191861762Y-39927308D01*
X191845681Y-39954138D01*
X191827047Y-39979263D01*
X191806040Y-40002440D01*
X191782863Y-40023447D01*
X191757738Y-40042081D01*
X191730908Y-40058162D01*
X191702630Y-40071537D01*
X191673178Y-40082075D01*
X191642835Y-40089675D01*
X191611893Y-40094265D01*
X191580650Y-40095800D01*
X190943150Y-40095800D01*
X190911907Y-40094265D01*
X190880965Y-40089675D01*
X190850622Y-40082075D01*
X190821170Y-40071537D01*
X190792892Y-40058162D01*
X190766062Y-40042081D01*
X190740937Y-40023447D01*
X190717760Y-40002440D01*
X190696753Y-39979263D01*
X190678119Y-39954138D01*
X190662038Y-39927308D01*
X190648663Y-39899030D01*
X190638125Y-39869578D01*
X190630525Y-39839235D01*
X190625935Y-39808293D01*
X190624400Y-39777050D01*
X190624400Y-39064550D01*
X190625935Y-39033307D01*
X190630525Y-39002365D01*
X190638125Y-38972022D01*
X190648663Y-38942570D01*
X190662038Y-38914292D01*
X190678119Y-38887462D01*
X190696753Y-38862337D01*
X190717760Y-38839160D01*
X190740937Y-38818153D01*
X190766062Y-38799519D01*
X190792892Y-38783438D01*
X190821170Y-38770063D01*
X190850622Y-38759525D01*
X190880965Y-38751925D01*
X190911907Y-38747335D01*
X190943150Y-38745800D01*
X191580650Y-38745800D01*
X191611893Y-38747335D01*
X191611893Y-38747335D01*
G37*
D11*
X191261900Y-39420800D03*
D10*
G36*
X193186893Y-38747335D02*
X193217835Y-38751925D01*
X193248178Y-38759525D01*
X193277630Y-38770063D01*
X193305908Y-38783438D01*
X193332738Y-38799519D01*
X193357863Y-38818153D01*
X193381040Y-38839160D01*
X193402047Y-38862337D01*
X193420681Y-38887462D01*
X193436762Y-38914292D01*
X193450137Y-38942570D01*
X193460675Y-38972022D01*
X193468275Y-39002365D01*
X193472865Y-39033307D01*
X193474400Y-39064550D01*
X193474400Y-39777050D01*
X193472865Y-39808293D01*
X193468275Y-39839235D01*
X193460675Y-39869578D01*
X193450137Y-39899030D01*
X193436762Y-39927308D01*
X193420681Y-39954138D01*
X193402047Y-39979263D01*
X193381040Y-40002440D01*
X193357863Y-40023447D01*
X193332738Y-40042081D01*
X193305908Y-40058162D01*
X193277630Y-40071537D01*
X193248178Y-40082075D01*
X193217835Y-40089675D01*
X193186893Y-40094265D01*
X193155650Y-40095800D01*
X192518150Y-40095800D01*
X192486907Y-40094265D01*
X192455965Y-40089675D01*
X192425622Y-40082075D01*
X192396170Y-40071537D01*
X192367892Y-40058162D01*
X192341062Y-40042081D01*
X192315937Y-40023447D01*
X192292760Y-40002440D01*
X192271753Y-39979263D01*
X192253119Y-39954138D01*
X192237038Y-39927308D01*
X192223663Y-39899030D01*
X192213125Y-39869578D01*
X192205525Y-39839235D01*
X192200935Y-39808293D01*
X192199400Y-39777050D01*
X192199400Y-39064550D01*
X192200935Y-39033307D01*
X192205525Y-39002365D01*
X192213125Y-38972022D01*
X192223663Y-38942570D01*
X192237038Y-38914292D01*
X192253119Y-38887462D01*
X192271753Y-38862337D01*
X192292760Y-38839160D01*
X192315937Y-38818153D01*
X192341062Y-38799519D01*
X192367892Y-38783438D01*
X192396170Y-38770063D01*
X192425622Y-38759525D01*
X192455965Y-38751925D01*
X192486907Y-38747335D01*
X192518150Y-38745800D01*
X193155650Y-38745800D01*
X193186893Y-38747335D01*
X193186893Y-38747335D01*
G37*
D11*
X192836900Y-39420800D03*
G04 #@! TD*
D10*
G04 #@! TO.C,R4*
G36*
X191535693Y-71614935D02*
X191566635Y-71619525D01*
X191596978Y-71627125D01*
X191626430Y-71637663D01*
X191654708Y-71651038D01*
X191681538Y-71667119D01*
X191706663Y-71685753D01*
X191729840Y-71706760D01*
X191750847Y-71729937D01*
X191769481Y-71755062D01*
X191785562Y-71781892D01*
X191798937Y-71810170D01*
X191809475Y-71839622D01*
X191817075Y-71869965D01*
X191821665Y-71900907D01*
X191823200Y-71932150D01*
X191823200Y-72644650D01*
X191821665Y-72675893D01*
X191817075Y-72706835D01*
X191809475Y-72737178D01*
X191798937Y-72766630D01*
X191785562Y-72794908D01*
X191769481Y-72821738D01*
X191750847Y-72846863D01*
X191729840Y-72870040D01*
X191706663Y-72891047D01*
X191681538Y-72909681D01*
X191654708Y-72925762D01*
X191626430Y-72939137D01*
X191596978Y-72949675D01*
X191566635Y-72957275D01*
X191535693Y-72961865D01*
X191504450Y-72963400D01*
X190866950Y-72963400D01*
X190835707Y-72961865D01*
X190804765Y-72957275D01*
X190774422Y-72949675D01*
X190744970Y-72939137D01*
X190716692Y-72925762D01*
X190689862Y-72909681D01*
X190664737Y-72891047D01*
X190641560Y-72870040D01*
X190620553Y-72846863D01*
X190601919Y-72821738D01*
X190585838Y-72794908D01*
X190572463Y-72766630D01*
X190561925Y-72737178D01*
X190554325Y-72706835D01*
X190549735Y-72675893D01*
X190548200Y-72644650D01*
X190548200Y-71932150D01*
X190549735Y-71900907D01*
X190554325Y-71869965D01*
X190561925Y-71839622D01*
X190572463Y-71810170D01*
X190585838Y-71781892D01*
X190601919Y-71755062D01*
X190620553Y-71729937D01*
X190641560Y-71706760D01*
X190664737Y-71685753D01*
X190689862Y-71667119D01*
X190716692Y-71651038D01*
X190744970Y-71637663D01*
X190774422Y-71627125D01*
X190804765Y-71619525D01*
X190835707Y-71614935D01*
X190866950Y-71613400D01*
X191504450Y-71613400D01*
X191535693Y-71614935D01*
X191535693Y-71614935D01*
G37*
D11*
X191185700Y-72288400D03*
D10*
G36*
X193110693Y-71614935D02*
X193141635Y-71619525D01*
X193171978Y-71627125D01*
X193201430Y-71637663D01*
X193229708Y-71651038D01*
X193256538Y-71667119D01*
X193281663Y-71685753D01*
X193304840Y-71706760D01*
X193325847Y-71729937D01*
X193344481Y-71755062D01*
X193360562Y-71781892D01*
X193373937Y-71810170D01*
X193384475Y-71839622D01*
X193392075Y-71869965D01*
X193396665Y-71900907D01*
X193398200Y-71932150D01*
X193398200Y-72644650D01*
X193396665Y-72675893D01*
X193392075Y-72706835D01*
X193384475Y-72737178D01*
X193373937Y-72766630D01*
X193360562Y-72794908D01*
X193344481Y-72821738D01*
X193325847Y-72846863D01*
X193304840Y-72870040D01*
X193281663Y-72891047D01*
X193256538Y-72909681D01*
X193229708Y-72925762D01*
X193201430Y-72939137D01*
X193171978Y-72949675D01*
X193141635Y-72957275D01*
X193110693Y-72961865D01*
X193079450Y-72963400D01*
X192441950Y-72963400D01*
X192410707Y-72961865D01*
X192379765Y-72957275D01*
X192349422Y-72949675D01*
X192319970Y-72939137D01*
X192291692Y-72925762D01*
X192264862Y-72909681D01*
X192239737Y-72891047D01*
X192216560Y-72870040D01*
X192195553Y-72846863D01*
X192176919Y-72821738D01*
X192160838Y-72794908D01*
X192147463Y-72766630D01*
X192136925Y-72737178D01*
X192129325Y-72706835D01*
X192124735Y-72675893D01*
X192123200Y-72644650D01*
X192123200Y-71932150D01*
X192124735Y-71900907D01*
X192129325Y-71869965D01*
X192136925Y-71839622D01*
X192147463Y-71810170D01*
X192160838Y-71781892D01*
X192176919Y-71755062D01*
X192195553Y-71729937D01*
X192216560Y-71706760D01*
X192239737Y-71685753D01*
X192264862Y-71667119D01*
X192291692Y-71651038D01*
X192319970Y-71637663D01*
X192349422Y-71627125D01*
X192379765Y-71619525D01*
X192410707Y-71614935D01*
X192441950Y-71613400D01*
X193079450Y-71613400D01*
X193110693Y-71614935D01*
X193110693Y-71614935D01*
G37*
D11*
X192760700Y-72288400D03*
G04 #@! TD*
D10*
G04 #@! TO.C,R5*
G36*
X192678993Y-35394535D02*
X192709935Y-35399125D01*
X192740278Y-35406725D01*
X192769730Y-35417263D01*
X192798008Y-35430638D01*
X192824838Y-35446719D01*
X192849963Y-35465353D01*
X192873140Y-35486360D01*
X192894147Y-35509537D01*
X192912781Y-35534662D01*
X192928862Y-35561492D01*
X192942237Y-35589770D01*
X192952775Y-35619222D01*
X192960375Y-35649565D01*
X192964965Y-35680507D01*
X192966500Y-35711750D01*
X192966500Y-36424250D01*
X192964965Y-36455493D01*
X192960375Y-36486435D01*
X192952775Y-36516778D01*
X192942237Y-36546230D01*
X192928862Y-36574508D01*
X192912781Y-36601338D01*
X192894147Y-36626463D01*
X192873140Y-36649640D01*
X192849963Y-36670647D01*
X192824838Y-36689281D01*
X192798008Y-36705362D01*
X192769730Y-36718737D01*
X192740278Y-36729275D01*
X192709935Y-36736875D01*
X192678993Y-36741465D01*
X192647750Y-36743000D01*
X192010250Y-36743000D01*
X191979007Y-36741465D01*
X191948065Y-36736875D01*
X191917722Y-36729275D01*
X191888270Y-36718737D01*
X191859992Y-36705362D01*
X191833162Y-36689281D01*
X191808037Y-36670647D01*
X191784860Y-36649640D01*
X191763853Y-36626463D01*
X191745219Y-36601338D01*
X191729138Y-36574508D01*
X191715763Y-36546230D01*
X191705225Y-36516778D01*
X191697625Y-36486435D01*
X191693035Y-36455493D01*
X191691500Y-36424250D01*
X191691500Y-35711750D01*
X191693035Y-35680507D01*
X191697625Y-35649565D01*
X191705225Y-35619222D01*
X191715763Y-35589770D01*
X191729138Y-35561492D01*
X191745219Y-35534662D01*
X191763853Y-35509537D01*
X191784860Y-35486360D01*
X191808037Y-35465353D01*
X191833162Y-35446719D01*
X191859992Y-35430638D01*
X191888270Y-35417263D01*
X191917722Y-35406725D01*
X191948065Y-35399125D01*
X191979007Y-35394535D01*
X192010250Y-35393000D01*
X192647750Y-35393000D01*
X192678993Y-35394535D01*
X192678993Y-35394535D01*
G37*
D11*
X192329000Y-36068000D03*
D10*
G36*
X191103993Y-35394535D02*
X191134935Y-35399125D01*
X191165278Y-35406725D01*
X191194730Y-35417263D01*
X191223008Y-35430638D01*
X191249838Y-35446719D01*
X191274963Y-35465353D01*
X191298140Y-35486360D01*
X191319147Y-35509537D01*
X191337781Y-35534662D01*
X191353862Y-35561492D01*
X191367237Y-35589770D01*
X191377775Y-35619222D01*
X191385375Y-35649565D01*
X191389965Y-35680507D01*
X191391500Y-35711750D01*
X191391500Y-36424250D01*
X191389965Y-36455493D01*
X191385375Y-36486435D01*
X191377775Y-36516778D01*
X191367237Y-36546230D01*
X191353862Y-36574508D01*
X191337781Y-36601338D01*
X191319147Y-36626463D01*
X191298140Y-36649640D01*
X191274963Y-36670647D01*
X191249838Y-36689281D01*
X191223008Y-36705362D01*
X191194730Y-36718737D01*
X191165278Y-36729275D01*
X191134935Y-36736875D01*
X191103993Y-36741465D01*
X191072750Y-36743000D01*
X190435250Y-36743000D01*
X190404007Y-36741465D01*
X190373065Y-36736875D01*
X190342722Y-36729275D01*
X190313270Y-36718737D01*
X190284992Y-36705362D01*
X190258162Y-36689281D01*
X190233037Y-36670647D01*
X190209860Y-36649640D01*
X190188853Y-36626463D01*
X190170219Y-36601338D01*
X190154138Y-36574508D01*
X190140763Y-36546230D01*
X190130225Y-36516778D01*
X190122625Y-36486435D01*
X190118035Y-36455493D01*
X190116500Y-36424250D01*
X190116500Y-35711750D01*
X190118035Y-35680507D01*
X190122625Y-35649565D01*
X190130225Y-35619222D01*
X190140763Y-35589770D01*
X190154138Y-35561492D01*
X190170219Y-35534662D01*
X190188853Y-35509537D01*
X190209860Y-35486360D01*
X190233037Y-35465353D01*
X190258162Y-35446719D01*
X190284992Y-35430638D01*
X190313270Y-35417263D01*
X190342722Y-35406725D01*
X190373065Y-35399125D01*
X190404007Y-35394535D01*
X190435250Y-35393000D01*
X191072750Y-35393000D01*
X191103993Y-35394535D01*
X191103993Y-35394535D01*
G37*
D11*
X190754000Y-36068000D03*
G04 #@! TD*
D10*
G04 #@! TO.C,R6*
G36*
X193237593Y-73977135D02*
X193268535Y-73981725D01*
X193298878Y-73989325D01*
X193328330Y-73999863D01*
X193356608Y-74013238D01*
X193383438Y-74029319D01*
X193408563Y-74047953D01*
X193431740Y-74068960D01*
X193452747Y-74092137D01*
X193471381Y-74117262D01*
X193487462Y-74144092D01*
X193500837Y-74172370D01*
X193511375Y-74201822D01*
X193518975Y-74232165D01*
X193523565Y-74263107D01*
X193525100Y-74294350D01*
X193525100Y-75006850D01*
X193523565Y-75038093D01*
X193518975Y-75069035D01*
X193511375Y-75099378D01*
X193500837Y-75128830D01*
X193487462Y-75157108D01*
X193471381Y-75183938D01*
X193452747Y-75209063D01*
X193431740Y-75232240D01*
X193408563Y-75253247D01*
X193383438Y-75271881D01*
X193356608Y-75287962D01*
X193328330Y-75301337D01*
X193298878Y-75311875D01*
X193268535Y-75319475D01*
X193237593Y-75324065D01*
X193206350Y-75325600D01*
X192568850Y-75325600D01*
X192537607Y-75324065D01*
X192506665Y-75319475D01*
X192476322Y-75311875D01*
X192446870Y-75301337D01*
X192418592Y-75287962D01*
X192391762Y-75271881D01*
X192366637Y-75253247D01*
X192343460Y-75232240D01*
X192322453Y-75209063D01*
X192303819Y-75183938D01*
X192287738Y-75157108D01*
X192274363Y-75128830D01*
X192263825Y-75099378D01*
X192256225Y-75069035D01*
X192251635Y-75038093D01*
X192250100Y-75006850D01*
X192250100Y-74294350D01*
X192251635Y-74263107D01*
X192256225Y-74232165D01*
X192263825Y-74201822D01*
X192274363Y-74172370D01*
X192287738Y-74144092D01*
X192303819Y-74117262D01*
X192322453Y-74092137D01*
X192343460Y-74068960D01*
X192366637Y-74047953D01*
X192391762Y-74029319D01*
X192418592Y-74013238D01*
X192446870Y-73999863D01*
X192476322Y-73989325D01*
X192506665Y-73981725D01*
X192537607Y-73977135D01*
X192568850Y-73975600D01*
X193206350Y-73975600D01*
X193237593Y-73977135D01*
X193237593Y-73977135D01*
G37*
D11*
X192887600Y-74650600D03*
D10*
G36*
X191662593Y-73977135D02*
X191693535Y-73981725D01*
X191723878Y-73989325D01*
X191753330Y-73999863D01*
X191781608Y-74013238D01*
X191808438Y-74029319D01*
X191833563Y-74047953D01*
X191856740Y-74068960D01*
X191877747Y-74092137D01*
X191896381Y-74117262D01*
X191912462Y-74144092D01*
X191925837Y-74172370D01*
X191936375Y-74201822D01*
X191943975Y-74232165D01*
X191948565Y-74263107D01*
X191950100Y-74294350D01*
X191950100Y-75006850D01*
X191948565Y-75038093D01*
X191943975Y-75069035D01*
X191936375Y-75099378D01*
X191925837Y-75128830D01*
X191912462Y-75157108D01*
X191896381Y-75183938D01*
X191877747Y-75209063D01*
X191856740Y-75232240D01*
X191833563Y-75253247D01*
X191808438Y-75271881D01*
X191781608Y-75287962D01*
X191753330Y-75301337D01*
X191723878Y-75311875D01*
X191693535Y-75319475D01*
X191662593Y-75324065D01*
X191631350Y-75325600D01*
X190993850Y-75325600D01*
X190962607Y-75324065D01*
X190931665Y-75319475D01*
X190901322Y-75311875D01*
X190871870Y-75301337D01*
X190843592Y-75287962D01*
X190816762Y-75271881D01*
X190791637Y-75253247D01*
X190768460Y-75232240D01*
X190747453Y-75209063D01*
X190728819Y-75183938D01*
X190712738Y-75157108D01*
X190699363Y-75128830D01*
X190688825Y-75099378D01*
X190681225Y-75069035D01*
X190676635Y-75038093D01*
X190675100Y-75006850D01*
X190675100Y-74294350D01*
X190676635Y-74263107D01*
X190681225Y-74232165D01*
X190688825Y-74201822D01*
X190699363Y-74172370D01*
X190712738Y-74144092D01*
X190728819Y-74117262D01*
X190747453Y-74092137D01*
X190768460Y-74068960D01*
X190791637Y-74047953D01*
X190816762Y-74029319D01*
X190843592Y-74013238D01*
X190871870Y-73999863D01*
X190901322Y-73989325D01*
X190931665Y-73981725D01*
X190962607Y-73977135D01*
X190993850Y-73975600D01*
X191631350Y-73975600D01*
X191662593Y-73977135D01*
X191662593Y-73977135D01*
G37*
D11*
X191312600Y-74650600D03*
G04 #@! TD*
D10*
G04 #@! TO.C,R7*
G36*
X191688093Y-41211135D02*
X191719035Y-41215725D01*
X191749378Y-41223325D01*
X191778830Y-41233863D01*
X191807108Y-41247238D01*
X191833938Y-41263319D01*
X191859063Y-41281953D01*
X191882240Y-41302960D01*
X191903247Y-41326137D01*
X191921881Y-41351262D01*
X191937962Y-41378092D01*
X191951337Y-41406370D01*
X191961875Y-41435822D01*
X191969475Y-41466165D01*
X191974065Y-41497107D01*
X191975600Y-41528350D01*
X191975600Y-42240850D01*
X191974065Y-42272093D01*
X191969475Y-42303035D01*
X191961875Y-42333378D01*
X191951337Y-42362830D01*
X191937962Y-42391108D01*
X191921881Y-42417938D01*
X191903247Y-42443063D01*
X191882240Y-42466240D01*
X191859063Y-42487247D01*
X191833938Y-42505881D01*
X191807108Y-42521962D01*
X191778830Y-42535337D01*
X191749378Y-42545875D01*
X191719035Y-42553475D01*
X191688093Y-42558065D01*
X191656850Y-42559600D01*
X191019350Y-42559600D01*
X190988107Y-42558065D01*
X190957165Y-42553475D01*
X190926822Y-42545875D01*
X190897370Y-42535337D01*
X190869092Y-42521962D01*
X190842262Y-42505881D01*
X190817137Y-42487247D01*
X190793960Y-42466240D01*
X190772953Y-42443063D01*
X190754319Y-42417938D01*
X190738238Y-42391108D01*
X190724863Y-42362830D01*
X190714325Y-42333378D01*
X190706725Y-42303035D01*
X190702135Y-42272093D01*
X190700600Y-42240850D01*
X190700600Y-41528350D01*
X190702135Y-41497107D01*
X190706725Y-41466165D01*
X190714325Y-41435822D01*
X190724863Y-41406370D01*
X190738238Y-41378092D01*
X190754319Y-41351262D01*
X190772953Y-41326137D01*
X190793960Y-41302960D01*
X190817137Y-41281953D01*
X190842262Y-41263319D01*
X190869092Y-41247238D01*
X190897370Y-41233863D01*
X190926822Y-41223325D01*
X190957165Y-41215725D01*
X190988107Y-41211135D01*
X191019350Y-41209600D01*
X191656850Y-41209600D01*
X191688093Y-41211135D01*
X191688093Y-41211135D01*
G37*
D11*
X191338100Y-41884600D03*
D10*
G36*
X193263093Y-41211135D02*
X193294035Y-41215725D01*
X193324378Y-41223325D01*
X193353830Y-41233863D01*
X193382108Y-41247238D01*
X193408938Y-41263319D01*
X193434063Y-41281953D01*
X193457240Y-41302960D01*
X193478247Y-41326137D01*
X193496881Y-41351262D01*
X193512962Y-41378092D01*
X193526337Y-41406370D01*
X193536875Y-41435822D01*
X193544475Y-41466165D01*
X193549065Y-41497107D01*
X193550600Y-41528350D01*
X193550600Y-42240850D01*
X193549065Y-42272093D01*
X193544475Y-42303035D01*
X193536875Y-42333378D01*
X193526337Y-42362830D01*
X193512962Y-42391108D01*
X193496881Y-42417938D01*
X193478247Y-42443063D01*
X193457240Y-42466240D01*
X193434063Y-42487247D01*
X193408938Y-42505881D01*
X193382108Y-42521962D01*
X193353830Y-42535337D01*
X193324378Y-42545875D01*
X193294035Y-42553475D01*
X193263093Y-42558065D01*
X193231850Y-42559600D01*
X192594350Y-42559600D01*
X192563107Y-42558065D01*
X192532165Y-42553475D01*
X192501822Y-42545875D01*
X192472370Y-42535337D01*
X192444092Y-42521962D01*
X192417262Y-42505881D01*
X192392137Y-42487247D01*
X192368960Y-42466240D01*
X192347953Y-42443063D01*
X192329319Y-42417938D01*
X192313238Y-42391108D01*
X192299863Y-42362830D01*
X192289325Y-42333378D01*
X192281725Y-42303035D01*
X192277135Y-42272093D01*
X192275600Y-42240850D01*
X192275600Y-41528350D01*
X192277135Y-41497107D01*
X192281725Y-41466165D01*
X192289325Y-41435822D01*
X192299863Y-41406370D01*
X192313238Y-41378092D01*
X192329319Y-41351262D01*
X192347953Y-41326137D01*
X192368960Y-41302960D01*
X192392137Y-41281953D01*
X192417262Y-41263319D01*
X192444092Y-41247238D01*
X192472370Y-41233863D01*
X192501822Y-41223325D01*
X192532165Y-41215725D01*
X192563107Y-41211135D01*
X192594350Y-41209600D01*
X193231850Y-41209600D01*
X193263093Y-41211135D01*
X193263093Y-41211135D01*
G37*
D11*
X192913100Y-41884600D03*
G04 #@! TD*
D10*
G04 #@! TO.C,R9*
G36*
X201289493Y-76034535D02*
X201320435Y-76039125D01*
X201350778Y-76046725D01*
X201380230Y-76057263D01*
X201408508Y-76070638D01*
X201435338Y-76086719D01*
X201460463Y-76105353D01*
X201483640Y-76126360D01*
X201504647Y-76149537D01*
X201523281Y-76174662D01*
X201539362Y-76201492D01*
X201552737Y-76229770D01*
X201563275Y-76259222D01*
X201570875Y-76289565D01*
X201575465Y-76320507D01*
X201577000Y-76351750D01*
X201577000Y-77064250D01*
X201575465Y-77095493D01*
X201570875Y-77126435D01*
X201563275Y-77156778D01*
X201552737Y-77186230D01*
X201539362Y-77214508D01*
X201523281Y-77241338D01*
X201504647Y-77266463D01*
X201483640Y-77289640D01*
X201460463Y-77310647D01*
X201435338Y-77329281D01*
X201408508Y-77345362D01*
X201380230Y-77358737D01*
X201350778Y-77369275D01*
X201320435Y-77376875D01*
X201289493Y-77381465D01*
X201258250Y-77383000D01*
X200620750Y-77383000D01*
X200589507Y-77381465D01*
X200558565Y-77376875D01*
X200528222Y-77369275D01*
X200498770Y-77358737D01*
X200470492Y-77345362D01*
X200443662Y-77329281D01*
X200418537Y-77310647D01*
X200395360Y-77289640D01*
X200374353Y-77266463D01*
X200355719Y-77241338D01*
X200339638Y-77214508D01*
X200326263Y-77186230D01*
X200315725Y-77156778D01*
X200308125Y-77126435D01*
X200303535Y-77095493D01*
X200302000Y-77064250D01*
X200302000Y-76351750D01*
X200303535Y-76320507D01*
X200308125Y-76289565D01*
X200315725Y-76259222D01*
X200326263Y-76229770D01*
X200339638Y-76201492D01*
X200355719Y-76174662D01*
X200374353Y-76149537D01*
X200395360Y-76126360D01*
X200418537Y-76105353D01*
X200443662Y-76086719D01*
X200470492Y-76070638D01*
X200498770Y-76057263D01*
X200528222Y-76046725D01*
X200558565Y-76039125D01*
X200589507Y-76034535D01*
X200620750Y-76033000D01*
X201258250Y-76033000D01*
X201289493Y-76034535D01*
X201289493Y-76034535D01*
G37*
D11*
X200939500Y-76708000D03*
D10*
G36*
X199714493Y-76034535D02*
X199745435Y-76039125D01*
X199775778Y-76046725D01*
X199805230Y-76057263D01*
X199833508Y-76070638D01*
X199860338Y-76086719D01*
X199885463Y-76105353D01*
X199908640Y-76126360D01*
X199929647Y-76149537D01*
X199948281Y-76174662D01*
X199964362Y-76201492D01*
X199977737Y-76229770D01*
X199988275Y-76259222D01*
X199995875Y-76289565D01*
X200000465Y-76320507D01*
X200002000Y-76351750D01*
X200002000Y-77064250D01*
X200000465Y-77095493D01*
X199995875Y-77126435D01*
X199988275Y-77156778D01*
X199977737Y-77186230D01*
X199964362Y-77214508D01*
X199948281Y-77241338D01*
X199929647Y-77266463D01*
X199908640Y-77289640D01*
X199885463Y-77310647D01*
X199860338Y-77329281D01*
X199833508Y-77345362D01*
X199805230Y-77358737D01*
X199775778Y-77369275D01*
X199745435Y-77376875D01*
X199714493Y-77381465D01*
X199683250Y-77383000D01*
X199045750Y-77383000D01*
X199014507Y-77381465D01*
X198983565Y-77376875D01*
X198953222Y-77369275D01*
X198923770Y-77358737D01*
X198895492Y-77345362D01*
X198868662Y-77329281D01*
X198843537Y-77310647D01*
X198820360Y-77289640D01*
X198799353Y-77266463D01*
X198780719Y-77241338D01*
X198764638Y-77214508D01*
X198751263Y-77186230D01*
X198740725Y-77156778D01*
X198733125Y-77126435D01*
X198728535Y-77095493D01*
X198727000Y-77064250D01*
X198727000Y-76351750D01*
X198728535Y-76320507D01*
X198733125Y-76289565D01*
X198740725Y-76259222D01*
X198751263Y-76229770D01*
X198764638Y-76201492D01*
X198780719Y-76174662D01*
X198799353Y-76149537D01*
X198820360Y-76126360D01*
X198843537Y-76105353D01*
X198868662Y-76086719D01*
X198895492Y-76070638D01*
X198923770Y-76057263D01*
X198953222Y-76046725D01*
X198983565Y-76039125D01*
X199014507Y-76034535D01*
X199045750Y-76033000D01*
X199683250Y-76033000D01*
X199714493Y-76034535D01*
X199714493Y-76034535D01*
G37*
D11*
X199364500Y-76708000D03*
G04 #@! TD*
D10*
G04 #@! TO.C,R13*
G36*
X198952493Y-38950535D02*
X198983435Y-38955125D01*
X199013778Y-38962725D01*
X199043230Y-38973263D01*
X199071508Y-38986638D01*
X199098338Y-39002719D01*
X199123463Y-39021353D01*
X199146640Y-39042360D01*
X199167647Y-39065537D01*
X199186281Y-39090662D01*
X199202362Y-39117492D01*
X199215737Y-39145770D01*
X199226275Y-39175222D01*
X199233875Y-39205565D01*
X199238465Y-39236507D01*
X199240000Y-39267750D01*
X199240000Y-39980250D01*
X199238465Y-40011493D01*
X199233875Y-40042435D01*
X199226275Y-40072778D01*
X199215737Y-40102230D01*
X199202362Y-40130508D01*
X199186281Y-40157338D01*
X199167647Y-40182463D01*
X199146640Y-40205640D01*
X199123463Y-40226647D01*
X199098338Y-40245281D01*
X199071508Y-40261362D01*
X199043230Y-40274737D01*
X199013778Y-40285275D01*
X198983435Y-40292875D01*
X198952493Y-40297465D01*
X198921250Y-40299000D01*
X198283750Y-40299000D01*
X198252507Y-40297465D01*
X198221565Y-40292875D01*
X198191222Y-40285275D01*
X198161770Y-40274737D01*
X198133492Y-40261362D01*
X198106662Y-40245281D01*
X198081537Y-40226647D01*
X198058360Y-40205640D01*
X198037353Y-40182463D01*
X198018719Y-40157338D01*
X198002638Y-40130508D01*
X197989263Y-40102230D01*
X197978725Y-40072778D01*
X197971125Y-40042435D01*
X197966535Y-40011493D01*
X197965000Y-39980250D01*
X197965000Y-39267750D01*
X197966535Y-39236507D01*
X197971125Y-39205565D01*
X197978725Y-39175222D01*
X197989263Y-39145770D01*
X198002638Y-39117492D01*
X198018719Y-39090662D01*
X198037353Y-39065537D01*
X198058360Y-39042360D01*
X198081537Y-39021353D01*
X198106662Y-39002719D01*
X198133492Y-38986638D01*
X198161770Y-38973263D01*
X198191222Y-38962725D01*
X198221565Y-38955125D01*
X198252507Y-38950535D01*
X198283750Y-38949000D01*
X198921250Y-38949000D01*
X198952493Y-38950535D01*
X198952493Y-38950535D01*
G37*
D11*
X198602500Y-39624000D03*
D10*
G36*
X200527493Y-38950535D02*
X200558435Y-38955125D01*
X200588778Y-38962725D01*
X200618230Y-38973263D01*
X200646508Y-38986638D01*
X200673338Y-39002719D01*
X200698463Y-39021353D01*
X200721640Y-39042360D01*
X200742647Y-39065537D01*
X200761281Y-39090662D01*
X200777362Y-39117492D01*
X200790737Y-39145770D01*
X200801275Y-39175222D01*
X200808875Y-39205565D01*
X200813465Y-39236507D01*
X200815000Y-39267750D01*
X200815000Y-39980250D01*
X200813465Y-40011493D01*
X200808875Y-40042435D01*
X200801275Y-40072778D01*
X200790737Y-40102230D01*
X200777362Y-40130508D01*
X200761281Y-40157338D01*
X200742647Y-40182463D01*
X200721640Y-40205640D01*
X200698463Y-40226647D01*
X200673338Y-40245281D01*
X200646508Y-40261362D01*
X200618230Y-40274737D01*
X200588778Y-40285275D01*
X200558435Y-40292875D01*
X200527493Y-40297465D01*
X200496250Y-40299000D01*
X199858750Y-40299000D01*
X199827507Y-40297465D01*
X199796565Y-40292875D01*
X199766222Y-40285275D01*
X199736770Y-40274737D01*
X199708492Y-40261362D01*
X199681662Y-40245281D01*
X199656537Y-40226647D01*
X199633360Y-40205640D01*
X199612353Y-40182463D01*
X199593719Y-40157338D01*
X199577638Y-40130508D01*
X199564263Y-40102230D01*
X199553725Y-40072778D01*
X199546125Y-40042435D01*
X199541535Y-40011493D01*
X199540000Y-39980250D01*
X199540000Y-39267750D01*
X199541535Y-39236507D01*
X199546125Y-39205565D01*
X199553725Y-39175222D01*
X199564263Y-39145770D01*
X199577638Y-39117492D01*
X199593719Y-39090662D01*
X199612353Y-39065537D01*
X199633360Y-39042360D01*
X199656537Y-39021353D01*
X199681662Y-39002719D01*
X199708492Y-38986638D01*
X199736770Y-38973263D01*
X199766222Y-38962725D01*
X199796565Y-38955125D01*
X199827507Y-38950535D01*
X199858750Y-38949000D01*
X200496250Y-38949000D01*
X200527493Y-38950535D01*
X200527493Y-38950535D01*
G37*
D11*
X200177500Y-39624000D03*
G04 #@! TD*
D23*
G04 #@! TO.C,U12*
X194122000Y-28448000D03*
X194122000Y-29718000D03*
X194122000Y-30988000D03*
X194122000Y-32258000D03*
X188722000Y-32258000D03*
X188722000Y-30988000D03*
X188722000Y-29718000D03*
X188722000Y-28448000D03*
G04 #@! TD*
G04 #@! TO.C,U13*
X194724000Y-65405000D03*
X194724000Y-66675000D03*
X194724000Y-67945000D03*
X194724000Y-69215000D03*
X189324000Y-69215000D03*
X189324000Y-67945000D03*
X189324000Y-66675000D03*
X189324000Y-65405000D03*
G04 #@! TD*
D26*
G04 #@! TO.C,U14*
X194030600Y-80358000D03*
X192760600Y-80358000D03*
X191490600Y-80358000D03*
X190220600Y-80358000D03*
X190220600Y-85758000D03*
X191490600Y-85758000D03*
X192760600Y-85758000D03*
X194030600Y-85758000D03*
G04 #@! TD*
D24*
G04 #@! TO.C,U16*
X208440000Y-70231000D03*
X208440000Y-71501000D03*
X208440000Y-72771000D03*
X208440000Y-74041000D03*
X208440000Y-75311000D03*
X208440000Y-76581000D03*
X208440000Y-77851000D03*
X208440000Y-79121000D03*
X203040000Y-79121000D03*
X203040000Y-77851000D03*
X203040000Y-76581000D03*
X203040000Y-75311000D03*
X203040000Y-74041000D03*
X203040000Y-72771000D03*
X203040000Y-71501000D03*
X203040000Y-70231000D03*
G04 #@! TD*
G04 #@! TO.C,U18*
X202438000Y-33274000D03*
X202438000Y-34544000D03*
X202438000Y-35814000D03*
X202438000Y-37084000D03*
X202438000Y-38354000D03*
X202438000Y-39624000D03*
X202438000Y-40894000D03*
X202438000Y-42164000D03*
X207838000Y-42164000D03*
X207838000Y-40894000D03*
X207838000Y-39624000D03*
X207838000Y-38354000D03*
X207838000Y-37084000D03*
X207838000Y-35814000D03*
X207838000Y-34544000D03*
X207838000Y-33274000D03*
G04 #@! TD*
D10*
G04 #@! TO.C,C4*
G36*
X177901901Y-23849142D02*
X177932843Y-23853732D01*
X177963186Y-23861332D01*
X177992638Y-23871870D01*
X178020916Y-23885245D01*
X178047746Y-23901326D01*
X178072871Y-23919960D01*
X178096048Y-23940967D01*
X178117055Y-23964144D01*
X178135689Y-23989269D01*
X178151770Y-24016099D01*
X178165145Y-24044377D01*
X178175683Y-24073829D01*
X178183283Y-24104172D01*
X178187873Y-24135114D01*
X178189408Y-24166357D01*
X178189408Y-24803857D01*
X178187873Y-24835100D01*
X178183283Y-24866042D01*
X178175683Y-24896385D01*
X178165145Y-24925837D01*
X178151770Y-24954115D01*
X178135689Y-24980945D01*
X178117055Y-25006070D01*
X178096048Y-25029247D01*
X178072871Y-25050254D01*
X178047746Y-25068888D01*
X178020916Y-25084969D01*
X177992638Y-25098344D01*
X177963186Y-25108882D01*
X177932843Y-25116482D01*
X177901901Y-25121072D01*
X177870658Y-25122607D01*
X177158158Y-25122607D01*
X177126915Y-25121072D01*
X177095973Y-25116482D01*
X177065630Y-25108882D01*
X177036178Y-25098344D01*
X177007900Y-25084969D01*
X176981070Y-25068888D01*
X176955945Y-25050254D01*
X176932768Y-25029247D01*
X176911761Y-25006070D01*
X176893127Y-24980945D01*
X176877046Y-24954115D01*
X176863671Y-24925837D01*
X176853133Y-24896385D01*
X176845533Y-24866042D01*
X176840943Y-24835100D01*
X176839408Y-24803857D01*
X176839408Y-24166357D01*
X176840943Y-24135114D01*
X176845533Y-24104172D01*
X176853133Y-24073829D01*
X176863671Y-24044377D01*
X176877046Y-24016099D01*
X176893127Y-23989269D01*
X176911761Y-23964144D01*
X176932768Y-23940967D01*
X176955945Y-23919960D01*
X176981070Y-23901326D01*
X177007900Y-23885245D01*
X177036178Y-23871870D01*
X177065630Y-23861332D01*
X177095973Y-23853732D01*
X177126915Y-23849142D01*
X177158158Y-23847607D01*
X177870658Y-23847607D01*
X177901901Y-23849142D01*
X177901901Y-23849142D01*
G37*
D11*
X177514408Y-24485107D03*
D10*
G36*
X177901901Y-25424142D02*
X177932843Y-25428732D01*
X177963186Y-25436332D01*
X177992638Y-25446870D01*
X178020916Y-25460245D01*
X178047746Y-25476326D01*
X178072871Y-25494960D01*
X178096048Y-25515967D01*
X178117055Y-25539144D01*
X178135689Y-25564269D01*
X178151770Y-25591099D01*
X178165145Y-25619377D01*
X178175683Y-25648829D01*
X178183283Y-25679172D01*
X178187873Y-25710114D01*
X178189408Y-25741357D01*
X178189408Y-26378857D01*
X178187873Y-26410100D01*
X178183283Y-26441042D01*
X178175683Y-26471385D01*
X178165145Y-26500837D01*
X178151770Y-26529115D01*
X178135689Y-26555945D01*
X178117055Y-26581070D01*
X178096048Y-26604247D01*
X178072871Y-26625254D01*
X178047746Y-26643888D01*
X178020916Y-26659969D01*
X177992638Y-26673344D01*
X177963186Y-26683882D01*
X177932843Y-26691482D01*
X177901901Y-26696072D01*
X177870658Y-26697607D01*
X177158158Y-26697607D01*
X177126915Y-26696072D01*
X177095973Y-26691482D01*
X177065630Y-26683882D01*
X177036178Y-26673344D01*
X177007900Y-26659969D01*
X176981070Y-26643888D01*
X176955945Y-26625254D01*
X176932768Y-26604247D01*
X176911761Y-26581070D01*
X176893127Y-26555945D01*
X176877046Y-26529115D01*
X176863671Y-26500837D01*
X176853133Y-26471385D01*
X176845533Y-26441042D01*
X176840943Y-26410100D01*
X176839408Y-26378857D01*
X176839408Y-25741357D01*
X176840943Y-25710114D01*
X176845533Y-25679172D01*
X176853133Y-25648829D01*
X176863671Y-25619377D01*
X176877046Y-25591099D01*
X176893127Y-25564269D01*
X176911761Y-25539144D01*
X176932768Y-25515967D01*
X176955945Y-25494960D01*
X176981070Y-25476326D01*
X177007900Y-25460245D01*
X177036178Y-25446870D01*
X177065630Y-25436332D01*
X177095973Y-25428732D01*
X177126915Y-25424142D01*
X177158158Y-25422607D01*
X177870658Y-25422607D01*
X177901901Y-25424142D01*
X177901901Y-25424142D01*
G37*
D11*
X177514408Y-26060107D03*
G04 #@! TD*
D27*
G04 #@! TO.C,U6*
X179257200Y-31176000D03*
X179257200Y-29276000D03*
X177257200Y-30226000D03*
G04 #@! TD*
D26*
G04 #@! TO.C,U11*
X194005200Y-45897800D03*
X192735200Y-45897800D03*
X191465200Y-45897800D03*
X190195200Y-45897800D03*
X190195200Y-51297800D03*
X191465200Y-51297800D03*
X192735200Y-51297800D03*
X194005200Y-51297800D03*
G04 #@! TD*
M02*
