M48
;DRILL file {KiCad 5.0.0-fee4fd1~66~ubuntu18.04.1} date Sun Oct 14 12:51:37 2018
;FORMAT={3:3/ absolute / metric / suppress leading zeros}
FMAT,2
METRIC,TZ
T1C0.400
T2C0.762
T3C0.800
T4C1.100
T5C1.300
T6C1.500
T7C1.700
%
G90
G05
M71
T1
X125476Y-78105
X126111Y-88265
X135001Y-78105
X135255Y-83185
X136398Y-60452
X138176Y-82042
X154178Y-67945
X154178Y-69342
X154178Y-71628
X154178Y-72898
X156718Y-85852
X157480Y-46990
X159766Y-69342
X159893Y-67564
X160528Y-77216
X160782Y-87452
X163576Y-85598
X163652Y-67615
X163779Y-26010
X163830Y-83566
X164592Y-42672
X165862Y-32004
X167132Y-77216
X173482Y-64770
X173482Y-77216
X176492Y-37884
X178029Y-46203
X180696Y-30912
X181076Y-68860
X181102Y-47752
X183388Y-33782
X183947Y-27508
X185191Y-85496
X185928Y-43180
X185928Y-57658
X188214Y-75692
X188494Y-36322
X189992Y-70612
X191008Y-56642
X192532Y-51054
X195580Y-33782
X196088Y-37846
X196596Y-74930
X196850Y-31496
X197993Y-26035
X198171Y-32588
X199644Y-71120
X201168Y-71374
X202108Y-51079
X202946Y-68580
X204724Y-33274
X205994Y-35306
X210820Y-74676
X210820Y-81534
X232410Y-35560
T2
X135890Y-30180
X135890Y-37680
X135890Y-40180
X138390Y-43180
X156390Y-27180
X158890Y-30180
X158890Y-32680
X158890Y-37680
X158890Y-40180
T3
X92329Y-52070
X94869Y-54610
X97409Y-52070
X92456Y-72390
X94996Y-74930
X97536Y-72390
T4
X106680Y-30480
X106680Y-33020
X106680Y-35560
X106680Y-38100
X106680Y-40640
X106680Y-43180
X106680Y-45720
X106680Y-48260
X106680Y-50800
X106680Y-53340
X106680Y-55880
X106680Y-58420
X106680Y-60960
X106680Y-63500
X106680Y-66040
X106680Y-68580
X106680Y-71120
X106680Y-73660
X106680Y-76200
X106680Y-78740
X106680Y-81280
X106680Y-83820
X106680Y-86360
X106680Y-88900
X109220Y-43180
X109220Y-76200
X109220Y-78740
X109220Y-81280
X109220Y-86360
X111760Y-30480
X111760Y-33020
X111760Y-35560
X111760Y-38100
X111760Y-40640
X111760Y-43180
X111760Y-45720
X111760Y-48260
X111760Y-50800
X111760Y-66040
X111760Y-68580
X111760Y-71120
X111760Y-73660
X114300Y-30480
X114300Y-33020
X114300Y-35560
X114300Y-38100
X114300Y-40640
X114300Y-43180
X114300Y-45720
X114300Y-48260
X114300Y-50800
X114300Y-66040
X114300Y-68580
X114300Y-71120
X114300Y-73660
X116840Y-43180
X118920Y-72390
X118920Y-74930
X118920Y-77470
X118920Y-80010
X118920Y-82550
X119380Y-43180
X121920Y-30480
X121920Y-33020
X121920Y-35560
X121920Y-38100
X121920Y-40640
X121920Y-43180
X121920Y-45720
X121920Y-48260
X121920Y-50800
X121920Y-53340
X121920Y-55880
X121920Y-58420
X121920Y-60960
X121920Y-63500
X121920Y-66040
X121920Y-68580
X121920Y-71120
X121920Y-73660
X121920Y-76200
X121920Y-78740
X121920Y-81280
X121920Y-83820
X121920Y-86360
X121920Y-88900
X91567Y-61468
X91567Y-65968
X98067Y-61468
X98067Y-65968
X91544Y-41093
X91544Y-45593
X98044Y-41093
X98044Y-45593
T5
X77343Y-41204
X77343Y-44704
X76975Y-62662
X76975Y-66162
X239776Y-44196
X239776Y-47696
X85852Y-87249
X89352Y-87249
X239268Y-77851
X239268Y-81351
X85015Y-29224
X88515Y-29224
T6
X77343Y-52070
X77395Y-29605
X239268Y-34290
X238760Y-67818
X77470Y-87249
X76975Y-73782
T7
X74803Y-49530
X74803Y-54610
X79883Y-49530
X79883Y-54610
X74855Y-27065
X74855Y-32145
X79935Y-27065
X79935Y-32145
X236728Y-31750
X236728Y-36830
X241808Y-31750
X241808Y-36830
X236220Y-65278
X236220Y-70358
X241300Y-65278
X241300Y-70358
X74930Y-84709
X74930Y-89789
X80010Y-84709
X80010Y-89789
X74435Y-71242
X74435Y-76322
X79515Y-71242
X79515Y-76322
T0
M30
