G04 #@! TF.GenerationSoftware,KiCad,Pcbnew,5.0.0-fee4fd1~66~ubuntu18.04.1*
G04 #@! TF.CreationDate,2018-10-14T12:51:31+03:00*
G04 #@! TF.ProjectId,microstim,6D6963726F7374696D2E6B696361645F,rev?*
G04 #@! TF.SameCoordinates,Original*
G04 #@! TF.FileFunction,Soldermask,Bot*
G04 #@! TF.FilePolarity,Negative*
%FSLAX46Y46*%
G04 Gerber Fmt 4.6, Leading zero omitted, Abs format (unit mm)*
G04 Created by KiCad (PCBNEW 5.0.0-fee4fd1~66~ubuntu18.04.1) date Sun Oct 14 12:51:31 2018*
%MOMM*%
%LPD*%
G01*
G04 APERTURE LIST*
%ADD10C,2.450000*%
%ADD11C,2.650000*%
%ADD12C,3.000000*%
%ADD13R,3.000000X3.000000*%
%ADD14C,1.840000*%
%ADD15C,2.400000*%
%ADD16C,2.000000*%
%ADD17R,2.000000X2.000000*%
%ADD18C,1.924000*%
%ADD19C,1.900000*%
%ADD20C,3.900000*%
G04 APERTURE END LIST*
D10*
G04 #@! TO.C,J1*
X77394776Y-29604504D03*
D11*
X79934776Y-32144504D03*
X79934776Y-27064504D03*
X74854776Y-27064504D03*
X74854776Y-32144504D03*
G04 #@! TD*
G04 #@! TO.C,J2*
X79515000Y-76322112D03*
X74435000Y-76322112D03*
X74435000Y-71242112D03*
X79515000Y-71242112D03*
D10*
X76975000Y-73782112D03*
G04 #@! TD*
D12*
G04 #@! TO.C,J3*
X88514776Y-29223504D03*
D13*
X85014776Y-29223504D03*
G04 #@! TD*
D12*
G04 #@! TO.C,J4*
X76975000Y-62662112D03*
D13*
X76975000Y-66162112D03*
G04 #@! TD*
D10*
G04 #@! TO.C,J5*
X77470000Y-87249000D03*
D11*
X74930000Y-84709000D03*
X74930000Y-89789000D03*
X80010000Y-89789000D03*
X80010000Y-84709000D03*
G04 #@! TD*
G04 #@! TO.C,J6*
X79883000Y-54610000D03*
X74803000Y-54610000D03*
X74803000Y-49530000D03*
X79883000Y-49530000D03*
D10*
X77343000Y-52070000D03*
G04 #@! TD*
D13*
G04 #@! TO.C,J7*
X89352000Y-87249000D03*
D12*
X85852000Y-87249000D03*
G04 #@! TD*
D13*
G04 #@! TO.C,J8*
X77343000Y-44704000D03*
D12*
X77343000Y-41204000D03*
G04 #@! TD*
D13*
G04 #@! TO.C,J9*
X239776000Y-44196000D03*
D12*
X239776000Y-47696000D03*
G04 #@! TD*
D10*
G04 #@! TO.C,J10*
X239268000Y-34290000D03*
D11*
X241808000Y-36830000D03*
X241808000Y-31750000D03*
X236728000Y-31750000D03*
X236728000Y-36830000D03*
G04 #@! TD*
G04 #@! TO.C,J12*
X236220000Y-70358000D03*
X236220000Y-65278000D03*
X241300000Y-65278000D03*
X241300000Y-70358000D03*
D10*
X238760000Y-67818000D03*
G04 #@! TD*
D14*
G04 #@! TO.C,RV1*
X97536000Y-72390000D03*
X94996000Y-74930000D03*
X92456000Y-72390000D03*
G04 #@! TD*
D15*
G04 #@! TO.C,SW1*
X91544000Y-45593000D03*
X91544000Y-41093000D03*
X98044000Y-45593000D03*
X98044000Y-41093000D03*
G04 #@! TD*
G04 #@! TO.C,SW2*
X98067000Y-61468000D03*
X98067000Y-65968000D03*
X91567000Y-61468000D03*
X91567000Y-65968000D03*
G04 #@! TD*
D16*
G04 #@! TO.C,U1*
X121920000Y-48260000D03*
X121920000Y-45720000D03*
X121920000Y-43180000D03*
X121920000Y-40640000D03*
X121920000Y-50800000D03*
X121920000Y-53340000D03*
X121920000Y-55880000D03*
X121920000Y-38100000D03*
X121920000Y-35560000D03*
X121920000Y-33020000D03*
X121920000Y-30480000D03*
X119380000Y-43180000D03*
X116840000Y-43180000D03*
X114300000Y-43180000D03*
X111760000Y-43180000D03*
X109220000Y-43180000D03*
X106680000Y-30480000D03*
X106680000Y-33020000D03*
X106680000Y-35560000D03*
X106680000Y-38100000D03*
X106680000Y-40640000D03*
X106680000Y-43180000D03*
X106680000Y-45720000D03*
X106680000Y-48260000D03*
X121920000Y-58420000D03*
X121920000Y-60960000D03*
X121920000Y-63500000D03*
X121920000Y-66040000D03*
X121920000Y-68580000D03*
X121920000Y-71120000D03*
X121920000Y-73660000D03*
X121920000Y-76200000D03*
X121920000Y-78740000D03*
X121920000Y-81280000D03*
X121920000Y-83820000D03*
X121920000Y-86360000D03*
D17*
X121920000Y-88900000D03*
D16*
X106680000Y-50800000D03*
X106680000Y-53340000D03*
X106680000Y-55880000D03*
X106680000Y-58420000D03*
X106680000Y-60960000D03*
X106680000Y-63500000D03*
X106680000Y-66040000D03*
X106680000Y-68580000D03*
X106680000Y-71120000D03*
X106680000Y-73660000D03*
X106680000Y-76200000D03*
X106680000Y-78740000D03*
X106680000Y-81280000D03*
X106680000Y-83820000D03*
X106680000Y-86360000D03*
X106680000Y-88900000D03*
X109220000Y-86360000D03*
X109220000Y-81280000D03*
X109220000Y-78740000D03*
X109220000Y-76200000D03*
X114300000Y-73660000D03*
X114300000Y-71120000D03*
X114300000Y-68580000D03*
X114300000Y-66040000D03*
X114300000Y-50800000D03*
X114300000Y-48260000D03*
X114300000Y-45720000D03*
X114300000Y-40640000D03*
X114300000Y-38100000D03*
X114300000Y-35560000D03*
X114300000Y-33020000D03*
X114300000Y-30480000D03*
X111760000Y-30480000D03*
X111760000Y-33020000D03*
X111760000Y-35560000D03*
X111760000Y-38100000D03*
X111760000Y-40640000D03*
X111760000Y-45720000D03*
X111760000Y-48260000D03*
X111760000Y-50800000D03*
X111760000Y-66040000D03*
X111760000Y-68580000D03*
X111760000Y-71120000D03*
X111760000Y-73660000D03*
X118920000Y-82550000D03*
X118920000Y-80010000D03*
X118920000Y-77470000D03*
X118920000Y-74930000D03*
X118920000Y-72390000D03*
G04 #@! TD*
D18*
G04 #@! TO.C,U2*
X135890000Y-40180000D03*
X135890000Y-37680000D03*
X135890000Y-30180000D03*
D19*
X138390000Y-43180000D03*
D18*
X156390000Y-27180000D03*
X158890000Y-30180000D03*
X158890000Y-32680000D03*
X158890000Y-37680000D03*
X158890000Y-40180000D03*
G04 #@! TD*
D14*
G04 #@! TO.C,RV4*
X97409000Y-52070000D03*
X94869000Y-54610000D03*
X92329000Y-52070000D03*
G04 #@! TD*
D13*
G04 #@! TO.C,J11*
X239268000Y-77851000D03*
D12*
X239268000Y-81351000D03*
G04 #@! TD*
D20*
G04 #@! TO.C,REF\002A\002A*
X248920000Y-91440000D03*
G04 #@! TD*
G04 #@! TO.C,REF\002A\002A*
X248920000Y-26670000D03*
G04 #@! TD*
G04 #@! TO.C,REF\002A\002A*
X66040000Y-26670000D03*
G04 #@! TD*
G04 #@! TO.C,REF\002A\002A*
X66040000Y-91440000D03*
G04 #@! TD*
M02*
