G04 #@! TF.GenerationSoftware,KiCad,Pcbnew,5.0.0-fee4fd1~66~ubuntu18.04.1*
G04 #@! TF.CreationDate,2018-10-14T12:51:31+03:00*
G04 #@! TF.ProjectId,microstim,6D6963726F7374696D2E6B696361645F,rev?*
G04 #@! TF.SameCoordinates,Original*
G04 #@! TF.FileFunction,Legend,Top*
G04 #@! TF.FilePolarity,Positive*
%FSLAX46Y46*%
G04 Gerber Fmt 4.6, Leading zero omitted, Abs format (unit mm)*
G04 Created by KiCad (PCBNEW 5.0.0-fee4fd1~66~ubuntu18.04.1) date Sun Oct 14 12:51:31 2018*
%MOMM*%
%LPD*%
G01*
G04 APERTURE LIST*
%ADD10C,0.300000*%
%ADD11C,0.150000*%
%ADD12C,0.120000*%
G04 APERTURE END LIST*
D10*
X209867028Y-90355971D02*
X209867028Y-89355971D01*
X209867028Y-89498828D02*
X209938457Y-89427400D01*
X210081314Y-89355971D01*
X210295600Y-89355971D01*
X210438457Y-89427400D01*
X210509885Y-89570257D01*
X210509885Y-90355971D01*
X210509885Y-89570257D02*
X210581314Y-89427400D01*
X210724171Y-89355971D01*
X210938457Y-89355971D01*
X211081314Y-89427400D01*
X211152742Y-89570257D01*
X211152742Y-90355971D01*
X211867028Y-90355971D02*
X211867028Y-89355971D01*
X211867028Y-88855971D02*
X211795600Y-88927400D01*
X211867028Y-88998828D01*
X211938457Y-88927400D01*
X211867028Y-88855971D01*
X211867028Y-88998828D01*
X213224171Y-90284542D02*
X213081314Y-90355971D01*
X212795600Y-90355971D01*
X212652742Y-90284542D01*
X212581314Y-90213114D01*
X212509885Y-90070257D01*
X212509885Y-89641685D01*
X212581314Y-89498828D01*
X212652742Y-89427400D01*
X212795600Y-89355971D01*
X213081314Y-89355971D01*
X213224171Y-89427400D01*
X213867028Y-90355971D02*
X213867028Y-89355971D01*
X213867028Y-89641685D02*
X213938457Y-89498828D01*
X214009885Y-89427400D01*
X214152742Y-89355971D01*
X214295600Y-89355971D01*
X215009885Y-90355971D02*
X214867028Y-90284542D01*
X214795600Y-90213114D01*
X214724171Y-90070257D01*
X214724171Y-89641685D01*
X214795600Y-89498828D01*
X214867028Y-89427400D01*
X215009885Y-89355971D01*
X215224171Y-89355971D01*
X215367028Y-89427400D01*
X215438457Y-89498828D01*
X215509885Y-89641685D01*
X215509885Y-90070257D01*
X215438457Y-90213114D01*
X215367028Y-90284542D01*
X215224171Y-90355971D01*
X215009885Y-90355971D01*
X216081314Y-90284542D02*
X216295600Y-90355971D01*
X216652742Y-90355971D01*
X216795600Y-90284542D01*
X216867028Y-90213114D01*
X216938457Y-90070257D01*
X216938457Y-89927400D01*
X216867028Y-89784542D01*
X216795600Y-89713114D01*
X216652742Y-89641685D01*
X216367028Y-89570257D01*
X216224171Y-89498828D01*
X216152742Y-89427400D01*
X216081314Y-89284542D01*
X216081314Y-89141685D01*
X216152742Y-88998828D01*
X216224171Y-88927400D01*
X216367028Y-88855971D01*
X216724171Y-88855971D01*
X216938457Y-88927400D01*
X217367028Y-89355971D02*
X217938457Y-89355971D01*
X217581314Y-88855971D02*
X217581314Y-90141685D01*
X217652742Y-90284542D01*
X217795600Y-90355971D01*
X217938457Y-90355971D01*
X218438457Y-90355971D02*
X218438457Y-89355971D01*
X218438457Y-88855971D02*
X218367028Y-88927400D01*
X218438457Y-88998828D01*
X218509885Y-88927400D01*
X218438457Y-88855971D01*
X218438457Y-88998828D01*
X219152742Y-90355971D02*
X219152742Y-89355971D01*
X219152742Y-89498828D02*
X219224171Y-89427400D01*
X219367028Y-89355971D01*
X219581314Y-89355971D01*
X219724171Y-89427400D01*
X219795600Y-89570257D01*
X219795600Y-90355971D01*
X219795600Y-89570257D02*
X219867028Y-89427400D01*
X220009885Y-89355971D01*
X220224171Y-89355971D01*
X220367028Y-89427400D01*
X220438457Y-89570257D01*
X220438457Y-90355971D01*
X222152742Y-89355971D02*
X222509885Y-90355971D01*
X222867028Y-89355971D01*
X223724171Y-88855971D02*
X223867028Y-88855971D01*
X224009885Y-88927400D01*
X224081314Y-88998828D01*
X224152742Y-89141685D01*
X224224171Y-89427400D01*
X224224171Y-89784542D01*
X224152742Y-90070257D01*
X224081314Y-90213114D01*
X224009885Y-90284542D01*
X223867028Y-90355971D01*
X223724171Y-90355971D01*
X223581314Y-90284542D01*
X223509885Y-90213114D01*
X223438457Y-90070257D01*
X223367028Y-89784542D01*
X223367028Y-89427400D01*
X223438457Y-89141685D01*
X223509885Y-88998828D01*
X223581314Y-88927400D01*
X223724171Y-88855971D01*
X224867028Y-90213114D02*
X224938457Y-90284542D01*
X224867028Y-90355971D01*
X224795600Y-90284542D01*
X224867028Y-90213114D01*
X224867028Y-90355971D01*
X226367028Y-90355971D02*
X225509885Y-90355971D01*
X225938457Y-90355971D02*
X225938457Y-88855971D01*
X225795600Y-89070257D01*
X225652742Y-89213114D01*
X225509885Y-89284542D01*
X226938457Y-88998828D02*
X227009885Y-88927400D01*
X227152742Y-88855971D01*
X227509885Y-88855971D01*
X227652742Y-88927400D01*
X227724171Y-88998828D01*
X227795600Y-89141685D01*
X227795600Y-89284542D01*
X227724171Y-89498828D01*
X226867028Y-90355971D01*
X227795600Y-90355971D01*
X201724171Y-92905971D02*
X201581314Y-92834542D01*
X201509885Y-92763114D01*
X201438457Y-92620257D01*
X201438457Y-92191685D01*
X201509885Y-92048828D01*
X201581314Y-91977400D01*
X201724171Y-91905971D01*
X201938457Y-91905971D01*
X202081314Y-91977400D01*
X202152742Y-92048828D01*
X202224171Y-92191685D01*
X202224171Y-92620257D01*
X202152742Y-92763114D01*
X202081314Y-92834542D01*
X201938457Y-92905971D01*
X201724171Y-92905971D01*
X202867028Y-92905971D02*
X202867028Y-91905971D01*
X202867028Y-92191685D02*
X202938457Y-92048828D01*
X203009885Y-91977400D01*
X203152742Y-91905971D01*
X203295600Y-91905971D01*
X203795600Y-92905971D02*
X203795600Y-91905971D01*
X203795600Y-91405971D02*
X203724171Y-91477400D01*
X203795600Y-91548828D01*
X203867028Y-91477400D01*
X203795600Y-91405971D01*
X203795600Y-91548828D01*
X205152742Y-91905971D02*
X205152742Y-93120257D01*
X205081314Y-93263114D01*
X205009885Y-93334542D01*
X204867028Y-93405971D01*
X204652742Y-93405971D01*
X204509885Y-93334542D01*
X205152742Y-92834542D02*
X205009885Y-92905971D01*
X204724171Y-92905971D01*
X204581314Y-92834542D01*
X204509885Y-92763114D01*
X204438457Y-92620257D01*
X204438457Y-92191685D01*
X204509885Y-92048828D01*
X204581314Y-91977400D01*
X204724171Y-91905971D01*
X205009885Y-91905971D01*
X205152742Y-91977400D01*
X205867028Y-92905971D02*
X205867028Y-91905971D01*
X205867028Y-91405971D02*
X205795600Y-91477400D01*
X205867028Y-91548828D01*
X205938457Y-91477400D01*
X205867028Y-91405971D01*
X205867028Y-91548828D01*
X206581314Y-91905971D02*
X206581314Y-92905971D01*
X206581314Y-92048828D02*
X206652742Y-91977400D01*
X206795600Y-91905971D01*
X207009885Y-91905971D01*
X207152742Y-91977400D01*
X207224171Y-92120257D01*
X207224171Y-92905971D01*
X208581314Y-92905971D02*
X208581314Y-92120257D01*
X208509885Y-91977400D01*
X208367028Y-91905971D01*
X208081314Y-91905971D01*
X207938457Y-91977400D01*
X208581314Y-92834542D02*
X208438457Y-92905971D01*
X208081314Y-92905971D01*
X207938457Y-92834542D01*
X207867028Y-92691685D01*
X207867028Y-92548828D01*
X207938457Y-92405971D01*
X208081314Y-92334542D01*
X208438457Y-92334542D01*
X208581314Y-92263114D01*
X209509885Y-92905971D02*
X209367028Y-92834542D01*
X209295600Y-92691685D01*
X209295600Y-91405971D01*
X211867028Y-92905971D02*
X211867028Y-91405971D01*
X211867028Y-92834542D02*
X211724171Y-92905971D01*
X211438457Y-92905971D01*
X211295600Y-92834542D01*
X211224171Y-92763114D01*
X211152742Y-92620257D01*
X211152742Y-92191685D01*
X211224171Y-92048828D01*
X211295600Y-91977400D01*
X211438457Y-91905971D01*
X211724171Y-91905971D01*
X211867028Y-91977400D01*
X213152742Y-92834542D02*
X213009885Y-92905971D01*
X212724171Y-92905971D01*
X212581314Y-92834542D01*
X212509885Y-92691685D01*
X212509885Y-92120257D01*
X212581314Y-91977400D01*
X212724171Y-91905971D01*
X213009885Y-91905971D01*
X213152742Y-91977400D01*
X213224171Y-92120257D01*
X213224171Y-92263114D01*
X212509885Y-92405971D01*
X213795600Y-92834542D02*
X213938457Y-92905971D01*
X214224171Y-92905971D01*
X214367028Y-92834542D01*
X214438457Y-92691685D01*
X214438457Y-92620257D01*
X214367028Y-92477400D01*
X214224171Y-92405971D01*
X214009885Y-92405971D01*
X213867028Y-92334542D01*
X213795600Y-92191685D01*
X213795600Y-92120257D01*
X213867028Y-91977400D01*
X214009885Y-91905971D01*
X214224171Y-91905971D01*
X214367028Y-91977400D01*
X215081314Y-92905971D02*
X215081314Y-91905971D01*
X215081314Y-91405971D02*
X215009885Y-91477400D01*
X215081314Y-91548828D01*
X215152742Y-91477400D01*
X215081314Y-91405971D01*
X215081314Y-91548828D01*
X216438457Y-91905971D02*
X216438457Y-93120257D01*
X216367028Y-93263114D01*
X216295600Y-93334542D01*
X216152742Y-93405971D01*
X215938457Y-93405971D01*
X215795600Y-93334542D01*
X216438457Y-92834542D02*
X216295600Y-92905971D01*
X216009885Y-92905971D01*
X215867028Y-92834542D01*
X215795600Y-92763114D01*
X215724171Y-92620257D01*
X215724171Y-92191685D01*
X215795600Y-92048828D01*
X215867028Y-91977400D01*
X216009885Y-91905971D01*
X216295600Y-91905971D01*
X216438457Y-91977400D01*
X217152742Y-91905971D02*
X217152742Y-92905971D01*
X217152742Y-92048828D02*
X217224171Y-91977400D01*
X217367028Y-91905971D01*
X217581314Y-91905971D01*
X217724171Y-91977400D01*
X217795600Y-92120257D01*
X217795600Y-92905971D01*
X219652742Y-92905971D02*
X219652742Y-91405971D01*
X219652742Y-91977400D02*
X219795600Y-91905971D01*
X220081314Y-91905971D01*
X220224171Y-91977400D01*
X220295600Y-92048828D01*
X220367028Y-92191685D01*
X220367028Y-92620257D01*
X220295600Y-92763114D01*
X220224171Y-92834542D01*
X220081314Y-92905971D01*
X219795600Y-92905971D01*
X219652742Y-92834542D01*
X220867028Y-91905971D02*
X221224171Y-92905971D01*
X221581314Y-91905971D02*
X221224171Y-92905971D01*
X221081314Y-93263114D01*
X221009885Y-93334542D01*
X220867028Y-93405971D01*
X223295600Y-91905971D02*
X223295600Y-93191685D01*
X223224171Y-93334542D01*
X223081314Y-93405971D01*
X223009885Y-93405971D01*
X223295600Y-91405971D02*
X223224171Y-91477400D01*
X223295600Y-91548828D01*
X223367028Y-91477400D01*
X223295600Y-91405971D01*
X223295600Y-91548828D01*
X224224171Y-92905971D02*
X224081314Y-92834542D01*
X224009885Y-92763114D01*
X223938457Y-92620257D01*
X223938457Y-92191685D01*
X224009885Y-92048828D01*
X224081314Y-91977400D01*
X224224171Y-91905971D01*
X224438457Y-91905971D01*
X224581314Y-91977400D01*
X224652742Y-92048828D01*
X224724171Y-92191685D01*
X224724171Y-92620257D01*
X224652742Y-92763114D01*
X224581314Y-92834542D01*
X224438457Y-92905971D01*
X224224171Y-92905971D01*
X225367028Y-91905971D02*
X225367028Y-92905971D01*
X225367028Y-92048828D02*
X225438457Y-91977400D01*
X225581314Y-91905971D01*
X225795600Y-91905971D01*
X225938457Y-91977400D01*
X226009885Y-92120257D01*
X226009885Y-92905971D01*
X227867028Y-91905971D02*
X227867028Y-92905971D01*
X227867028Y-92048828D02*
X227938457Y-91977400D01*
X228081314Y-91905971D01*
X228295600Y-91905971D01*
X228438457Y-91977400D01*
X228509885Y-92120257D01*
X228509885Y-92905971D01*
X229795600Y-92834542D02*
X229652742Y-92905971D01*
X229367028Y-92905971D01*
X229224171Y-92834542D01*
X229152742Y-92691685D01*
X229152742Y-92120257D01*
X229224171Y-91977400D01*
X229367028Y-91905971D01*
X229652742Y-91905971D01*
X229795600Y-91977400D01*
X229867028Y-92120257D01*
X229867028Y-92263114D01*
X229152742Y-92405971D01*
X230367028Y-91905971D02*
X230652742Y-92905971D01*
X230938457Y-92191685D01*
X231224171Y-92905971D01*
X231509885Y-91905971D01*
X232081314Y-92905971D02*
X232081314Y-91905971D01*
X232081314Y-92048828D02*
X232152742Y-91977400D01*
X232295600Y-91905971D01*
X232509885Y-91905971D01*
X232652742Y-91977400D01*
X232724171Y-92120257D01*
X232724171Y-92905971D01*
X232724171Y-92120257D02*
X232795600Y-91977400D01*
X232938457Y-91905971D01*
X233152742Y-91905971D01*
X233295600Y-91977400D01*
X233367028Y-92120257D01*
X233367028Y-92905971D01*
X234724171Y-92905971D02*
X234724171Y-92120257D01*
X234652742Y-91977400D01*
X234509885Y-91905971D01*
X234224171Y-91905971D01*
X234081314Y-91977400D01*
X234724171Y-92834542D02*
X234581314Y-92905971D01*
X234224171Y-92905971D01*
X234081314Y-92834542D01*
X234009885Y-92691685D01*
X234009885Y-92548828D01*
X234081314Y-92405971D01*
X234224171Y-92334542D01*
X234581314Y-92334542D01*
X234724171Y-92263114D01*
X235438457Y-91905971D02*
X235438457Y-92905971D01*
X235438457Y-92048828D02*
X235509885Y-91977400D01*
X235652742Y-91905971D01*
X235867028Y-91905971D01*
X236009885Y-91977400D01*
X236081314Y-92120257D01*
X236081314Y-92905971D01*
X207474171Y-95455971D02*
X207474171Y-93955971D01*
X208045600Y-93955971D01*
X208188457Y-94027400D01*
X208259885Y-94098828D01*
X208331314Y-94241685D01*
X208331314Y-94455971D01*
X208259885Y-94598828D01*
X208188457Y-94670257D01*
X208045600Y-94741685D01*
X207474171Y-94741685D01*
X209831314Y-95313114D02*
X209759885Y-95384542D01*
X209545600Y-95455971D01*
X209402742Y-95455971D01*
X209188457Y-95384542D01*
X209045600Y-95241685D01*
X208974171Y-95098828D01*
X208902742Y-94813114D01*
X208902742Y-94598828D01*
X208974171Y-94313114D01*
X209045600Y-94170257D01*
X209188457Y-94027400D01*
X209402742Y-93955971D01*
X209545600Y-93955971D01*
X209759885Y-94027400D01*
X209831314Y-94098828D01*
X210974171Y-94670257D02*
X211188457Y-94741685D01*
X211259885Y-94813114D01*
X211331314Y-94955971D01*
X211331314Y-95170257D01*
X211259885Y-95313114D01*
X211188457Y-95384542D01*
X211045600Y-95455971D01*
X210474171Y-95455971D01*
X210474171Y-93955971D01*
X210974171Y-93955971D01*
X211117028Y-94027400D01*
X211188457Y-94098828D01*
X211259885Y-94241685D01*
X211259885Y-94384542D01*
X211188457Y-94527400D01*
X211117028Y-94598828D01*
X210974171Y-94670257D01*
X210474171Y-94670257D01*
X213117028Y-95455971D02*
X213117028Y-93955971D01*
X213117028Y-94527400D02*
X213259885Y-94455971D01*
X213545600Y-94455971D01*
X213688457Y-94527400D01*
X213759885Y-94598828D01*
X213831314Y-94741685D01*
X213831314Y-95170257D01*
X213759885Y-95313114D01*
X213688457Y-95384542D01*
X213545600Y-95455971D01*
X213259885Y-95455971D01*
X213117028Y-95384542D01*
X214331314Y-94455971D02*
X214688457Y-95455971D01*
X215045600Y-94455971D02*
X214688457Y-95455971D01*
X214545600Y-95813114D01*
X214474171Y-95884542D01*
X214331314Y-95955971D01*
X216759885Y-94455971D02*
X216759885Y-95455971D01*
X216759885Y-94598828D02*
X216831314Y-94527400D01*
X216974171Y-94455971D01*
X217188457Y-94455971D01*
X217331314Y-94527400D01*
X217402742Y-94670257D01*
X217402742Y-95455971D01*
X218759885Y-95455971D02*
X218759885Y-94670257D01*
X218688457Y-94527400D01*
X218545600Y-94455971D01*
X218259885Y-94455971D01*
X218117028Y-94527400D01*
X218759885Y-95384542D02*
X218617028Y-95455971D01*
X218259885Y-95455971D01*
X218117028Y-95384542D01*
X218045600Y-95241685D01*
X218045600Y-95098828D01*
X218117028Y-94955971D01*
X218259885Y-94884542D01*
X218617028Y-94884542D01*
X218759885Y-94813114D01*
X219259885Y-94455971D02*
X219831314Y-94455971D01*
X219474171Y-93955971D02*
X219474171Y-95241685D01*
X219545600Y-95384542D01*
X219688457Y-95455971D01*
X219831314Y-95455971D01*
X220902742Y-95384542D02*
X220759885Y-95455971D01*
X220474171Y-95455971D01*
X220331314Y-95384542D01*
X220259885Y-95241685D01*
X220259885Y-94670257D01*
X220331314Y-94527400D01*
X220474171Y-94455971D01*
X220759885Y-94455971D01*
X220902742Y-94527400D01*
X220974171Y-94670257D01*
X220974171Y-94813114D01*
X220259885Y-94955971D01*
X223402742Y-95384542D02*
X223259885Y-95455971D01*
X222974171Y-95455971D01*
X222831314Y-95384542D01*
X222759885Y-95313114D01*
X222688457Y-95170257D01*
X222688457Y-94741685D01*
X222759885Y-94598828D01*
X222831314Y-94527400D01*
X222974171Y-94455971D01*
X223259885Y-94455971D01*
X223402742Y-94527400D01*
X224617028Y-95384542D02*
X224474171Y-95455971D01*
X224188457Y-95455971D01*
X224045600Y-95384542D01*
X223974171Y-95241685D01*
X223974171Y-94670257D01*
X224045600Y-94527400D01*
X224188457Y-94455971D01*
X224474171Y-94455971D01*
X224617028Y-94527400D01*
X224688457Y-94670257D01*
X224688457Y-94813114D01*
X223974171Y-94955971D01*
X225331314Y-95455971D02*
X225331314Y-94455971D01*
X225331314Y-94741685D02*
X225402742Y-94598828D01*
X225474171Y-94527400D01*
X225617028Y-94455971D01*
X225759885Y-94455971D01*
X226259885Y-95455971D02*
X226259885Y-94455971D01*
X226259885Y-94598828D02*
X226331314Y-94527400D01*
X226474171Y-94455971D01*
X226688457Y-94455971D01*
X226831314Y-94527400D01*
X226902742Y-94670257D01*
X226902742Y-95455971D01*
X226902742Y-94670257D02*
X226974171Y-94527400D01*
X227117028Y-94455971D01*
X227331314Y-94455971D01*
X227474171Y-94527400D01*
X227545600Y-94670257D01*
X227545600Y-95455971D01*
X228902742Y-95455971D02*
X228902742Y-94670257D01*
X228831314Y-94527400D01*
X228688457Y-94455971D01*
X228402742Y-94455971D01*
X228259885Y-94527400D01*
X228902742Y-95384542D02*
X228759885Y-95455971D01*
X228402742Y-95455971D01*
X228259885Y-95384542D01*
X228188457Y-95241685D01*
X228188457Y-95098828D01*
X228259885Y-94955971D01*
X228402742Y-94884542D01*
X228759885Y-94884542D01*
X228902742Y-94813114D01*
X229617028Y-95455971D02*
X229617028Y-93955971D01*
X229759885Y-94884542D02*
X230188457Y-95455971D01*
X230188457Y-94455971D02*
X229617028Y-95027400D01*
D11*
G04 #@! TO.C,U10*
X161505000Y-81320000D02*
X160155000Y-81320000D01*
X161505000Y-86445000D02*
X166155000Y-86445000D01*
X161505000Y-81195000D02*
X166155000Y-81195000D01*
X161505000Y-86445000D02*
X161505000Y-86220000D01*
X166155000Y-86445000D02*
X166155000Y-86220000D01*
X166155000Y-81195000D02*
X166155000Y-81420000D01*
X161505000Y-81195000D02*
X161505000Y-81320000D01*
D12*
G04 #@! TO.C,C1*
X132552221Y-29589000D02*
X132877779Y-29589000D01*
X132552221Y-30609000D02*
X132877779Y-30609000D01*
G04 #@! TO.C,C2*
X164974731Y-29313391D02*
X164974731Y-29638949D01*
X163954731Y-29313391D02*
X163954731Y-29638949D01*
G04 #@! TO.C,C3*
X140718000Y-64932779D02*
X140718000Y-64607221D01*
X139698000Y-64932779D02*
X139698000Y-64607221D01*
G04 #@! TO.C,C5*
X140718000Y-78648779D02*
X140718000Y-78323221D01*
X139698000Y-78648779D02*
X139698000Y-78323221D01*
G04 #@! TO.C,C6*
X164974731Y-36933391D02*
X164974731Y-37258949D01*
X163954731Y-36933391D02*
X163954731Y-37258949D01*
G04 #@! TO.C,C7*
X174114731Y-29313391D02*
X174114731Y-29638949D01*
X175134731Y-29313391D02*
X175134731Y-29638949D01*
G04 #@! TO.C,C8*
X174114731Y-36933391D02*
X174114731Y-37258949D01*
X175134731Y-36933391D02*
X175134731Y-37258949D01*
G04 #@! TO.C,C9*
X155196000Y-64353221D02*
X155196000Y-64678779D01*
X154176000Y-64353221D02*
X154176000Y-64678779D01*
G04 #@! TO.C,C11*
X154734004Y-78158407D02*
X154734004Y-78483965D01*
X153714004Y-78158407D02*
X153714004Y-78483965D01*
G04 #@! TO.C,C12*
X174114731Y-43283391D02*
X174114731Y-43608949D01*
X175134731Y-43283391D02*
X175134731Y-43608949D01*
G04 #@! TO.C,C13*
X159260000Y-86476721D02*
X159260000Y-86802279D01*
X158240000Y-86476721D02*
X158240000Y-86802279D01*
G04 #@! TO.C,C14*
X173988000Y-47152779D02*
X173988000Y-46827221D01*
X175008000Y-47152779D02*
X175008000Y-46827221D01*
G04 #@! TO.C,C15*
X168908000Y-67909221D02*
X168908000Y-68234779D01*
X169928000Y-67909221D02*
X169928000Y-68234779D01*
G04 #@! TO.C,C16*
X169860279Y-84580000D02*
X169534721Y-84580000D01*
X169860279Y-85600000D02*
X169534721Y-85600000D01*
G04 #@! TO.C,C17*
X169834779Y-82802000D02*
X169509221Y-82802000D01*
X169834779Y-83822000D02*
X169509221Y-83822000D01*
G04 #@! TO.C,C42*
X158404779Y-84330000D02*
X158079221Y-84330000D01*
X158404779Y-83310000D02*
X158079221Y-83310000D01*
G04 #@! TO.C,J1*
X74039776Y-28154504D02*
X74039776Y-31054504D01*
X80749776Y-28154504D02*
X80749776Y-31054504D01*
X75944776Y-32959504D02*
X78844776Y-32959504D01*
X75944776Y-26249504D02*
X78844776Y-26249504D01*
G04 #@! TO.C,J2*
X73620000Y-75232112D02*
X73620000Y-72332112D01*
X80330000Y-75232112D02*
X80330000Y-72332112D01*
X75525000Y-70427112D02*
X78425000Y-70427112D01*
X75525000Y-77137112D02*
X78425000Y-77137112D01*
G04 #@! TO.C,J3*
X82464776Y-34123504D02*
X84464776Y-34123504D01*
X82464776Y-31883504D02*
X82464776Y-34123504D01*
X89914776Y-29912504D02*
X89914776Y-29973504D01*
X89914776Y-26223504D02*
X89914776Y-28534504D01*
X87114776Y-29912504D02*
X87114776Y-29973504D01*
X87114776Y-26223504D02*
X87114776Y-28534504D01*
X89914776Y-29973504D02*
X89914776Y-29973504D01*
X87114776Y-29973504D02*
X87115776Y-29973504D01*
X87114776Y-26223504D02*
X89914776Y-26223504D01*
X86414776Y-26223504D02*
X86414776Y-27683504D01*
X83614776Y-26223504D02*
X83614776Y-27683504D01*
X83614776Y-26223504D02*
X86414776Y-26223504D01*
X90824776Y-25463504D02*
X90824776Y-33883504D01*
X82704776Y-25463504D02*
X82704776Y-33883504D01*
X82704776Y-33883504D02*
X90824776Y-33883504D01*
X82704776Y-25463504D02*
X90824776Y-25463504D01*
X89648776Y-30324504D02*
X90824776Y-30324504D01*
X86554776Y-30324504D02*
X87381776Y-30324504D01*
X82704776Y-30324504D02*
X83474776Y-30324504D01*
X87574861Y-27965737D02*
G75*
G02X89454776Y-27965504I939915J342233D01*
G01*
X84016886Y-27694070D02*
G75*
G02X86012776Y-27692504I997890J70566D01*
G01*
G04 #@! TO.C,J4*
X81875000Y-68712112D02*
X81875000Y-66712112D01*
X79635000Y-68712112D02*
X81875000Y-68712112D01*
X77664000Y-61262112D02*
X77725000Y-61262112D01*
X73975000Y-61262112D02*
X76286000Y-61262112D01*
X77664000Y-64062112D02*
X77725000Y-64062112D01*
X73975000Y-64062112D02*
X76286000Y-64062112D01*
X77725000Y-61262112D02*
X77725000Y-61262112D01*
X77725000Y-64062112D02*
X77725000Y-64061112D01*
X73975000Y-64062112D02*
X73975000Y-61262112D01*
X73975000Y-64762112D02*
X75435000Y-64762112D01*
X73975000Y-67562112D02*
X75435000Y-67562112D01*
X73975000Y-67562112D02*
X73975000Y-64762112D01*
X73215000Y-60352112D02*
X81635000Y-60352112D01*
X73215000Y-68472112D02*
X81635000Y-68472112D01*
X81635000Y-68472112D02*
X81635000Y-60352112D01*
X73215000Y-68472112D02*
X73215000Y-60352112D01*
X78076000Y-61528112D02*
X78076000Y-60352112D01*
X78076000Y-64622112D02*
X78076000Y-63795112D01*
X78076000Y-68472112D02*
X78076000Y-67702112D01*
X75717233Y-63602027D02*
G75*
G02X75717000Y-61722112I-342233J939915D01*
G01*
X75445566Y-67160002D02*
G75*
G02X75444000Y-65164112I-70566J997890D01*
G01*
G04 #@! TO.C,J5*
X80825000Y-88699000D02*
X80825000Y-85799000D01*
X74115000Y-88699000D02*
X74115000Y-85799000D01*
X78920000Y-83894000D02*
X76020000Y-83894000D01*
X78920000Y-90604000D02*
X76020000Y-90604000D01*
G04 #@! TO.C,J6*
X73988000Y-53520000D02*
X73988000Y-50620000D01*
X80698000Y-53520000D02*
X80698000Y-50620000D01*
X75893000Y-48715000D02*
X78793000Y-48715000D01*
X75893000Y-55425000D02*
X78793000Y-55425000D01*
G04 #@! TO.C,J7*
X90349890Y-88778434D02*
G75*
G02X88354000Y-88780000I-997890J-70566D01*
G01*
X86791915Y-88506767D02*
G75*
G02X84912000Y-88507000I-939915J-342233D01*
G01*
X91662000Y-86148000D02*
X90892000Y-86148000D01*
X87812000Y-86148000D02*
X86985000Y-86148000D01*
X84718000Y-86148000D02*
X83542000Y-86148000D01*
X91662000Y-91009000D02*
X83542000Y-91009000D01*
X91662000Y-82589000D02*
X83542000Y-82589000D01*
X91662000Y-91009000D02*
X91662000Y-82589000D01*
X83542000Y-91009000D02*
X83542000Y-82589000D01*
X90752000Y-90249000D02*
X87952000Y-90249000D01*
X90752000Y-90249000D02*
X90752000Y-88789000D01*
X87952000Y-90249000D02*
X87952000Y-88789000D01*
X87252000Y-90249000D02*
X84452000Y-90249000D01*
X87252000Y-86499000D02*
X87251000Y-86499000D01*
X84452000Y-86499000D02*
X84452000Y-86499000D01*
X87252000Y-90249000D02*
X87252000Y-87938000D01*
X87252000Y-86560000D02*
X87252000Y-86499000D01*
X84452000Y-90249000D02*
X84452000Y-87938000D01*
X84452000Y-86560000D02*
X84452000Y-86499000D01*
X91902000Y-84589000D02*
X91902000Y-82349000D01*
X91902000Y-82349000D02*
X89902000Y-82349000D01*
G04 #@! TO.C,J8*
X75813566Y-45701890D02*
G75*
G02X75812000Y-43706000I-70566J997890D01*
G01*
X76085233Y-42143915D02*
G75*
G02X76085000Y-40264000I-342233J939915D01*
G01*
X78444000Y-47014000D02*
X78444000Y-46244000D01*
X78444000Y-43164000D02*
X78444000Y-42337000D01*
X78444000Y-40070000D02*
X78444000Y-38894000D01*
X73583000Y-47014000D02*
X73583000Y-38894000D01*
X82003000Y-47014000D02*
X82003000Y-38894000D01*
X73583000Y-47014000D02*
X82003000Y-47014000D01*
X73583000Y-38894000D02*
X82003000Y-38894000D01*
X74343000Y-46104000D02*
X74343000Y-43304000D01*
X74343000Y-46104000D02*
X75803000Y-46104000D01*
X74343000Y-43304000D02*
X75803000Y-43304000D01*
X74343000Y-42604000D02*
X74343000Y-39804000D01*
X78093000Y-42604000D02*
X78093000Y-42603000D01*
X78093000Y-39804000D02*
X78093000Y-39804000D01*
X74343000Y-42604000D02*
X76654000Y-42604000D01*
X78032000Y-42604000D02*
X78093000Y-42604000D01*
X74343000Y-39804000D02*
X76654000Y-39804000D01*
X78032000Y-39804000D02*
X78093000Y-39804000D01*
X80003000Y-47254000D02*
X82243000Y-47254000D01*
X82243000Y-47254000D02*
X82243000Y-45254000D01*
G04 #@! TO.C,J9*
X241305434Y-43198110D02*
G75*
G02X241307000Y-45194000I70566J-997890D01*
G01*
X241033767Y-46756085D02*
G75*
G02X241034000Y-48636000I342233J-939915D01*
G01*
X238675000Y-41886000D02*
X238675000Y-42656000D01*
X238675000Y-45736000D02*
X238675000Y-46563000D01*
X238675000Y-48830000D02*
X238675000Y-50006000D01*
X243536000Y-41886000D02*
X243536000Y-50006000D01*
X235116000Y-41886000D02*
X235116000Y-50006000D01*
X243536000Y-41886000D02*
X235116000Y-41886000D01*
X243536000Y-50006000D02*
X235116000Y-50006000D01*
X242776000Y-42796000D02*
X242776000Y-45596000D01*
X242776000Y-42796000D02*
X241316000Y-42796000D01*
X242776000Y-45596000D02*
X241316000Y-45596000D01*
X242776000Y-46296000D02*
X242776000Y-49096000D01*
X239026000Y-46296000D02*
X239026000Y-46297000D01*
X239026000Y-49096000D02*
X239026000Y-49096000D01*
X242776000Y-46296000D02*
X240465000Y-46296000D01*
X239087000Y-46296000D02*
X239026000Y-46296000D01*
X242776000Y-49096000D02*
X240465000Y-49096000D01*
X239087000Y-49096000D02*
X239026000Y-49096000D01*
X237116000Y-41646000D02*
X234876000Y-41646000D01*
X234876000Y-41646000D02*
X234876000Y-43646000D01*
G04 #@! TO.C,J10*
X235913000Y-32840000D02*
X235913000Y-35740000D01*
X242623000Y-32840000D02*
X242623000Y-35740000D01*
X237818000Y-37645000D02*
X240718000Y-37645000D01*
X237818000Y-30935000D02*
X240718000Y-30935000D01*
G04 #@! TO.C,J12*
X237310000Y-64463000D02*
X240210000Y-64463000D01*
X237310000Y-71173000D02*
X240210000Y-71173000D01*
X242115000Y-66368000D02*
X242115000Y-69268000D01*
X235405000Y-66368000D02*
X235405000Y-69268000D01*
G04 #@! TO.C,RV1*
X90111000Y-71130000D02*
X99881000Y-71130000D01*
X90111000Y-76200000D02*
X99881000Y-76200000D01*
X90111000Y-71130000D02*
X90111000Y-76200000D01*
X99881000Y-71130000D02*
X99881000Y-76200000D01*
G04 #@! TO.C,SW1*
X92544000Y-46593000D02*
X97044000Y-46593000D01*
X91294000Y-42593000D02*
X91294000Y-44093000D01*
X97044000Y-40093000D02*
X92544000Y-40093000D01*
X98294000Y-44093000D02*
X98294000Y-42593000D01*
G04 #@! TO.C,SW2*
X98317000Y-64468000D02*
X98317000Y-62968000D01*
X97067000Y-60468000D02*
X92567000Y-60468000D01*
X91317000Y-62968000D02*
X91317000Y-64468000D01*
X92567000Y-66968000D02*
X97067000Y-66968000D01*
D11*
G04 #@! TO.C,U1*
X110490000Y-73660000D02*
X113030000Y-73660000D01*
X113030000Y-73660000D02*
X113030000Y-71120000D01*
X113030000Y-71120000D02*
X110490000Y-71120000D01*
X110490000Y-71120000D02*
X110490000Y-73660000D01*
X119380000Y-66040000D02*
X119380000Y-69850000D01*
X119380000Y-69850000D02*
X116840000Y-69850000D01*
X116840000Y-69850000D02*
X116840000Y-66040000D01*
X116840000Y-66040000D02*
X119380000Y-66040000D01*
X120650000Y-52070000D02*
X107950000Y-52070000D01*
X107950000Y-64770000D02*
X120650000Y-64770000D01*
X120650000Y-64770000D02*
X120650000Y-52070000D01*
X107950000Y-64770000D02*
X107950000Y-52070000D01*
X119380000Y-30480000D02*
X119380000Y-29210000D01*
X118110000Y-30480000D02*
X118110000Y-29210000D01*
X116840000Y-30480000D02*
X116840000Y-29210000D01*
X115570000Y-30480000D02*
X115570000Y-29210000D01*
X114300000Y-30480000D02*
X114300000Y-29210000D01*
X113030000Y-30480000D02*
X113030000Y-29210000D01*
X111760000Y-30480000D02*
X111760000Y-29210000D01*
X110490000Y-30480000D02*
X110490000Y-29210000D01*
X109220000Y-30480000D02*
X109220000Y-29210000D01*
X120650000Y-29210000D02*
X119380000Y-30480000D01*
X119380000Y-30480000D02*
X109220000Y-30480000D01*
X109220000Y-30480000D02*
X107950000Y-29210000D01*
X107950000Y-29210000D02*
X107950000Y-41910000D01*
X107950000Y-41910000D02*
X120650000Y-41910000D01*
X120650000Y-41910000D02*
X120650000Y-29210000D01*
X105410000Y-29210000D02*
X105410000Y-90170000D01*
X123190000Y-90170000D02*
X123190000Y-29210000D01*
X118110000Y-90170000D02*
X118110000Y-91440000D01*
X118110000Y-91440000D02*
X110490000Y-91440000D01*
X110490000Y-91440000D02*
X110490000Y-90170000D01*
X118110000Y-85090000D02*
X110490000Y-85090000D01*
X110490000Y-85090000D02*
X110490000Y-90170000D01*
X118110000Y-85090000D02*
X118110000Y-90170000D01*
X111760000Y-45720000D02*
X116840000Y-45720000D01*
X116840000Y-45720000D02*
X116840000Y-48260000D01*
X116840000Y-48260000D02*
X111760000Y-48260000D01*
X111760000Y-48260000D02*
X111760000Y-45720000D01*
X105410000Y-29210000D02*
X123190000Y-29210000D01*
X123190000Y-90170000D02*
X105410000Y-90170000D01*
G04 #@! TO.C,U2*
X135890000Y-43180000D02*
X135890000Y-27180000D01*
X135890000Y-27180000D02*
X158890000Y-27180000D01*
X158890000Y-27180000D02*
X158890000Y-43180000D01*
X158890000Y-43180000D02*
X135890000Y-43180000D01*
G04 #@! TO.C,U3*
X171619731Y-30781170D02*
X171619731Y-30731170D01*
X167469731Y-30781170D02*
X167469731Y-30636170D01*
X167469731Y-25631170D02*
X167469731Y-25776170D01*
X171619731Y-25631170D02*
X171619731Y-25776170D01*
X171619731Y-30781170D02*
X167469731Y-30781170D01*
X171619731Y-25631170D02*
X167469731Y-25631170D01*
X171619731Y-30731170D02*
X173019731Y-30731170D01*
G04 #@! TO.C,U4*
X171619731Y-38401170D02*
X171619731Y-38351170D01*
X167469731Y-38401170D02*
X167469731Y-38256170D01*
X167469731Y-33251170D02*
X167469731Y-33396170D01*
X171619731Y-33251170D02*
X171619731Y-33396170D01*
X171619731Y-38401170D02*
X167469731Y-38401170D01*
X171619731Y-33251170D02*
X167469731Y-33251170D01*
X171619731Y-38351170D02*
X173019731Y-38351170D01*
G04 #@! TO.C,U5*
X143445000Y-64800000D02*
X141920000Y-64800000D01*
X143445000Y-75175000D02*
X151195000Y-75175000D01*
X143445000Y-64525000D02*
X151195000Y-64525000D01*
X143445000Y-75175000D02*
X143445000Y-74820000D01*
X151195000Y-75175000D02*
X151195000Y-74820000D01*
X151195000Y-64525000D02*
X151195000Y-64880000D01*
X143445000Y-64525000D02*
X143445000Y-64800000D01*
G04 #@! TO.C,U7*
X143445000Y-78495000D02*
X143445000Y-78770000D01*
X151195000Y-78495000D02*
X151195000Y-78850000D01*
X151195000Y-89145000D02*
X151195000Y-88790000D01*
X143445000Y-89145000D02*
X143445000Y-88790000D01*
X143445000Y-78495000D02*
X151195000Y-78495000D01*
X143445000Y-89145000D02*
X151195000Y-89145000D01*
X143445000Y-78770000D02*
X141920000Y-78770000D01*
G04 #@! TO.C,U8*
X171619731Y-45971170D02*
X173019731Y-45971170D01*
X171619731Y-40871170D02*
X167469731Y-40871170D01*
X171619731Y-46021170D02*
X167469731Y-46021170D01*
X171619731Y-40871170D02*
X171619731Y-41016170D01*
X167469731Y-40871170D02*
X167469731Y-41016170D01*
X167469731Y-46021170D02*
X167469731Y-45876170D01*
X171619731Y-46021170D02*
X171619731Y-45971170D01*
G04 #@! TO.C,U9*
X162263000Y-64384000D02*
X162263000Y-64409000D01*
X166413000Y-64384000D02*
X166413000Y-64499000D01*
X166413000Y-73284000D02*
X166413000Y-73169000D01*
X162263000Y-73284000D02*
X162263000Y-73169000D01*
X162263000Y-64384000D02*
X166413000Y-64384000D01*
X162263000Y-73284000D02*
X166413000Y-73284000D01*
X162263000Y-64409000D02*
X160888000Y-64409000D01*
D12*
G04 #@! TO.C,RV4*
X89984000Y-50810000D02*
X99754000Y-50810000D01*
X89984000Y-55880000D02*
X99754000Y-55880000D01*
X89984000Y-50810000D02*
X89984000Y-55880000D01*
X99754000Y-50810000D02*
X99754000Y-55880000D01*
G04 #@! TO.C,J11*
X240797434Y-76853110D02*
G75*
G02X240799000Y-78849000I70566J-997890D01*
G01*
X240525767Y-80411085D02*
G75*
G02X240526000Y-82291000I342233J-939915D01*
G01*
X238167000Y-75541000D02*
X238167000Y-76311000D01*
X238167000Y-79391000D02*
X238167000Y-80218000D01*
X238167000Y-82485000D02*
X238167000Y-83661000D01*
X243028000Y-75541000D02*
X243028000Y-83661000D01*
X234608000Y-75541000D02*
X234608000Y-83661000D01*
X243028000Y-75541000D02*
X234608000Y-75541000D01*
X243028000Y-83661000D02*
X234608000Y-83661000D01*
X242268000Y-76451000D02*
X242268000Y-79251000D01*
X242268000Y-76451000D02*
X240808000Y-76451000D01*
X242268000Y-79251000D02*
X240808000Y-79251000D01*
X242268000Y-79951000D02*
X242268000Y-82751000D01*
X238518000Y-79951000D02*
X238518000Y-79952000D01*
X238518000Y-82751000D02*
X238518000Y-82751000D01*
X242268000Y-79951000D02*
X239957000Y-79951000D01*
X238579000Y-79951000D02*
X238518000Y-79951000D01*
X242268000Y-82751000D02*
X239957000Y-82751000D01*
X238579000Y-82751000D02*
X238518000Y-82751000D01*
X236608000Y-75301000D02*
X234368000Y-75301000D01*
X234368000Y-75301000D02*
X234368000Y-77301000D01*
G04 #@! TO.C,C18*
X196594000Y-65877221D02*
X196594000Y-66202779D01*
X197614000Y-65877221D02*
X197614000Y-66202779D01*
G04 #@! TO.C,C19*
X187868779Y-72392000D02*
X187543221Y-72392000D01*
X187868779Y-71372000D02*
X187543221Y-71372000D01*
G04 #@! TO.C,C20*
X187868779Y-34800000D02*
X187543221Y-34800000D01*
X187868779Y-33780000D02*
X187543221Y-33780000D01*
G04 #@! TO.C,C21*
X196340000Y-28539221D02*
X196340000Y-28864779D01*
X197360000Y-28539221D02*
X197360000Y-28864779D01*
G04 #@! TO.C,C22*
X193902320Y-88376447D02*
X193576762Y-88376447D01*
X193902320Y-87356447D02*
X193576762Y-87356447D01*
G04 #@! TO.C,C23*
X187289221Y-80520000D02*
X187614779Y-80520000D01*
X187289221Y-79500000D02*
X187614779Y-79500000D01*
G04 #@! TO.C,C24*
X199989221Y-72388000D02*
X200314779Y-72388000D01*
X199989221Y-73408000D02*
X200314779Y-73408000D01*
G04 #@! TO.C,C25*
X210310000Y-71719221D02*
X210310000Y-72044779D01*
X211330000Y-71719221D02*
X211330000Y-72044779D01*
G04 #@! TO.C,C31*
X194752279Y-51564000D02*
X194426721Y-51564000D01*
X194752279Y-50544000D02*
X194426721Y-50544000D01*
G04 #@! TO.C,C33*
X188194771Y-44254012D02*
X188194771Y-43928454D01*
X187174771Y-44254012D02*
X187174771Y-43928454D01*
G04 #@! TO.C,C36*
X199227221Y-35304000D02*
X199552779Y-35304000D01*
X199227221Y-36324000D02*
X199552779Y-36324000D01*
G04 #@! TO.C,C40*
X209802000Y-34863721D02*
X209802000Y-35189279D01*
X210822000Y-34863721D02*
X210822000Y-35189279D01*
G04 #@! TO.C,R1*
X184820779Y-31498000D02*
X184495221Y-31498000D01*
X184820779Y-30478000D02*
X184495221Y-30478000D01*
G04 #@! TO.C,R2*
X185328779Y-67562000D02*
X185003221Y-67562000D01*
X185328779Y-68582000D02*
X185003221Y-68582000D01*
G04 #@! TO.C,R3*
X191353221Y-38860000D02*
X191678779Y-38860000D01*
X191353221Y-39880000D02*
X191678779Y-39880000D01*
G04 #@! TO.C,R4*
X191861221Y-72896000D02*
X192186779Y-72896000D01*
X191861221Y-73916000D02*
X192186779Y-73916000D01*
G04 #@! TO.C,R5*
X191378721Y-36578000D02*
X191704279Y-36578000D01*
X191378721Y-35558000D02*
X191704279Y-35558000D01*
G04 #@! TO.C,R6*
X191835721Y-77218000D02*
X192161279Y-77218000D01*
X191835721Y-76198000D02*
X192161279Y-76198000D01*
G04 #@! TO.C,R7*
X196521170Y-46272542D02*
X196521170Y-45946984D01*
X197541170Y-46272542D02*
X197541170Y-45946984D01*
G04 #@! TO.C,R8*
X198059541Y-82949226D02*
X198059541Y-82623668D01*
X197039541Y-82949226D02*
X197039541Y-82623668D01*
G04 #@! TO.C,R9*
X200314779Y-77218000D02*
X199989221Y-77218000D01*
X200314779Y-76198000D02*
X199989221Y-76198000D01*
G04 #@! TO.C,R13*
X199552779Y-39114000D02*
X199227221Y-39114000D01*
X199552779Y-40134000D02*
X199227221Y-40134000D01*
D11*
G04 #@! TO.C,U12*
X189347000Y-27828000D02*
X187947000Y-27828000D01*
X189347000Y-32928000D02*
X193497000Y-32928000D01*
X189347000Y-27778000D02*
X193497000Y-27778000D01*
X189347000Y-32928000D02*
X189347000Y-32783000D01*
X193497000Y-32928000D02*
X193497000Y-32783000D01*
X193497000Y-27778000D02*
X193497000Y-27923000D01*
X189347000Y-27778000D02*
X189347000Y-27828000D01*
G04 #@! TO.C,U13*
X189949000Y-64785000D02*
X188549000Y-64785000D01*
X189949000Y-69885000D02*
X194099000Y-69885000D01*
X189949000Y-64735000D02*
X194099000Y-64735000D01*
X189949000Y-69885000D02*
X189949000Y-69740000D01*
X194099000Y-69885000D02*
X194099000Y-69740000D01*
X194099000Y-64735000D02*
X194099000Y-64880000D01*
X189949000Y-64735000D02*
X189949000Y-64785000D01*
G04 #@! TO.C,U14*
X194536541Y-80711447D02*
X194486541Y-80711447D01*
X194536541Y-84861447D02*
X194391541Y-84861447D01*
X189386541Y-84861447D02*
X189531541Y-84861447D01*
X189386541Y-80711447D02*
X189531541Y-80711447D01*
X194536541Y-80711447D02*
X194536541Y-84861447D01*
X189386541Y-80711447D02*
X189386541Y-84861447D01*
X194486541Y-80711447D02*
X194486541Y-79311447D01*
G04 #@! TO.C,U15*
X194272170Y-44009263D02*
X194222170Y-44009263D01*
X194272170Y-48159263D02*
X194127170Y-48159263D01*
X189122170Y-48159263D02*
X189267170Y-48159263D01*
X189122170Y-44009263D02*
X189267170Y-44009263D01*
X194272170Y-44009263D02*
X194272170Y-48159263D01*
X189122170Y-44009263D02*
X189122170Y-48159263D01*
X194222170Y-44009263D02*
X194222170Y-42609263D01*
G04 #@! TO.C,U16*
X203665000Y-69626000D02*
X202290000Y-69626000D01*
X203665000Y-79751000D02*
X207815000Y-79751000D01*
X203665000Y-69601000D02*
X207815000Y-69601000D01*
X203665000Y-79751000D02*
X203665000Y-79646000D01*
X207815000Y-79751000D02*
X207815000Y-79646000D01*
X207815000Y-69601000D02*
X207815000Y-69706000D01*
X203665000Y-69601000D02*
X203665000Y-69626000D01*
G04 #@! TO.C,U18*
X203063000Y-32644000D02*
X203063000Y-32669000D01*
X207213000Y-32644000D02*
X207213000Y-32749000D01*
X207213000Y-42794000D02*
X207213000Y-42689000D01*
X203063000Y-42794000D02*
X203063000Y-42689000D01*
X203063000Y-32644000D02*
X207213000Y-32644000D01*
X203063000Y-42794000D02*
X207213000Y-42794000D01*
X203063000Y-32669000D02*
X201688000Y-32669000D01*
D12*
G04 #@! TO.C,C4*
X178699279Y-26900600D02*
X178373721Y-26900600D01*
X178699279Y-25880600D02*
X178373721Y-25880600D01*
G04 #@! TO.C,U6*
X177497200Y-28646000D02*
X177497200Y-29576000D01*
X177497200Y-31806000D02*
X177497200Y-30876000D01*
X177497200Y-31806000D02*
X179657200Y-31806000D01*
X177497200Y-28646000D02*
X178957200Y-28646000D01*
G04 #@! TO.C,U10*
D11*
X162591904Y-79722380D02*
X162591904Y-80531904D01*
X162639523Y-80627142D01*
X162687142Y-80674761D01*
X162782380Y-80722380D01*
X162972857Y-80722380D01*
X163068095Y-80674761D01*
X163115714Y-80627142D01*
X163163333Y-80531904D01*
X163163333Y-79722380D01*
X164163333Y-80722380D02*
X163591904Y-80722380D01*
X163877619Y-80722380D02*
X163877619Y-79722380D01*
X163782380Y-79865238D01*
X163687142Y-79960476D01*
X163591904Y-80008095D01*
X164782380Y-79722380D02*
X164877619Y-79722380D01*
X164972857Y-79770000D01*
X165020476Y-79817619D01*
X165068095Y-79912857D01*
X165115714Y-80103333D01*
X165115714Y-80341428D01*
X165068095Y-80531904D01*
X165020476Y-80627142D01*
X164972857Y-80674761D01*
X164877619Y-80722380D01*
X164782380Y-80722380D01*
X164687142Y-80674761D01*
X164639523Y-80627142D01*
X164591904Y-80531904D01*
X164544285Y-80341428D01*
X164544285Y-80103333D01*
X164591904Y-79912857D01*
X164639523Y-79817619D01*
X164687142Y-79770000D01*
X164782380Y-79722380D01*
G04 #@! TO.C,C1*
X132548333Y-29026142D02*
X132500714Y-29073761D01*
X132357857Y-29121380D01*
X132262619Y-29121380D01*
X132119761Y-29073761D01*
X132024523Y-28978523D01*
X131976904Y-28883285D01*
X131929285Y-28692809D01*
X131929285Y-28549952D01*
X131976904Y-28359476D01*
X132024523Y-28264238D01*
X132119761Y-28169000D01*
X132262619Y-28121380D01*
X132357857Y-28121380D01*
X132500714Y-28169000D01*
X132548333Y-28216619D01*
X133500714Y-29121380D02*
X132929285Y-29121380D01*
X133215000Y-29121380D02*
X133215000Y-28121380D01*
X133119761Y-28264238D01*
X133024523Y-28359476D01*
X132929285Y-28407095D01*
G04 #@! TO.C,C2*
X164695142Y-32170666D02*
X164742761Y-32218285D01*
X164790380Y-32361142D01*
X164790380Y-32456380D01*
X164742761Y-32599238D01*
X164647523Y-32694476D01*
X164552285Y-32742095D01*
X164361809Y-32789714D01*
X164218952Y-32789714D01*
X164028476Y-32742095D01*
X163933238Y-32694476D01*
X163838000Y-32599238D01*
X163790380Y-32456380D01*
X163790380Y-32361142D01*
X163838000Y-32218285D01*
X163885619Y-32170666D01*
X163885619Y-31789714D02*
X163838000Y-31742095D01*
X163790380Y-31646857D01*
X163790380Y-31408761D01*
X163838000Y-31313523D01*
X163885619Y-31265904D01*
X163980857Y-31218285D01*
X164076095Y-31218285D01*
X164218952Y-31265904D01*
X164790380Y-31837333D01*
X164790380Y-31218285D01*
G04 #@! TO.C,C3*
X139135142Y-64936666D02*
X139182761Y-64984285D01*
X139230380Y-65127142D01*
X139230380Y-65222380D01*
X139182761Y-65365238D01*
X139087523Y-65460476D01*
X138992285Y-65508095D01*
X138801809Y-65555714D01*
X138658952Y-65555714D01*
X138468476Y-65508095D01*
X138373238Y-65460476D01*
X138278000Y-65365238D01*
X138230380Y-65222380D01*
X138230380Y-65127142D01*
X138278000Y-64984285D01*
X138325619Y-64936666D01*
X138230380Y-64603333D02*
X138230380Y-63984285D01*
X138611333Y-64317619D01*
X138611333Y-64174761D01*
X138658952Y-64079523D01*
X138706571Y-64031904D01*
X138801809Y-63984285D01*
X139039904Y-63984285D01*
X139135142Y-64031904D01*
X139182761Y-64079523D01*
X139230380Y-64174761D01*
X139230380Y-64460476D01*
X139182761Y-64555714D01*
X139135142Y-64603333D01*
G04 #@! TO.C,C5*
X139135142Y-78652666D02*
X139182761Y-78700285D01*
X139230380Y-78843142D01*
X139230380Y-78938380D01*
X139182761Y-79081238D01*
X139087523Y-79176476D01*
X138992285Y-79224095D01*
X138801809Y-79271714D01*
X138658952Y-79271714D01*
X138468476Y-79224095D01*
X138373238Y-79176476D01*
X138278000Y-79081238D01*
X138230380Y-78938380D01*
X138230380Y-78843142D01*
X138278000Y-78700285D01*
X138325619Y-78652666D01*
X138230380Y-77747904D02*
X138230380Y-78224095D01*
X138706571Y-78271714D01*
X138658952Y-78224095D01*
X138611333Y-78128857D01*
X138611333Y-77890761D01*
X138658952Y-77795523D01*
X138706571Y-77747904D01*
X138801809Y-77700285D01*
X139039904Y-77700285D01*
X139135142Y-77747904D01*
X139182761Y-77795523D01*
X139230380Y-77890761D01*
X139230380Y-78128857D01*
X139182761Y-78224095D01*
X139135142Y-78271714D01*
G04 #@! TO.C,C6*
X164695142Y-39790666D02*
X164742761Y-39838285D01*
X164790380Y-39981142D01*
X164790380Y-40076380D01*
X164742761Y-40219238D01*
X164647523Y-40314476D01*
X164552285Y-40362095D01*
X164361809Y-40409714D01*
X164218952Y-40409714D01*
X164028476Y-40362095D01*
X163933238Y-40314476D01*
X163838000Y-40219238D01*
X163790380Y-40076380D01*
X163790380Y-39981142D01*
X163838000Y-39838285D01*
X163885619Y-39790666D01*
X163790380Y-38933523D02*
X163790380Y-39124000D01*
X163838000Y-39219238D01*
X163885619Y-39266857D01*
X164028476Y-39362095D01*
X164218952Y-39409714D01*
X164599904Y-39409714D01*
X164695142Y-39362095D01*
X164742761Y-39314476D01*
X164790380Y-39219238D01*
X164790380Y-39028761D01*
X164742761Y-38933523D01*
X164695142Y-38885904D01*
X164599904Y-38838285D01*
X164361809Y-38838285D01*
X164266571Y-38885904D01*
X164218952Y-38933523D01*
X164171333Y-39028761D01*
X164171333Y-39219238D01*
X164218952Y-39314476D01*
X164266571Y-39362095D01*
X164361809Y-39409714D01*
G04 #@! TO.C,C7*
X175109142Y-32069066D02*
X175156761Y-32116685D01*
X175204380Y-32259542D01*
X175204380Y-32354780D01*
X175156761Y-32497638D01*
X175061523Y-32592876D01*
X174966285Y-32640495D01*
X174775809Y-32688114D01*
X174632952Y-32688114D01*
X174442476Y-32640495D01*
X174347238Y-32592876D01*
X174252000Y-32497638D01*
X174204380Y-32354780D01*
X174204380Y-32259542D01*
X174252000Y-32116685D01*
X174299619Y-32069066D01*
X174204380Y-31735733D02*
X174204380Y-31069066D01*
X175204380Y-31497638D01*
G04 #@! TO.C,C8*
X176411873Y-37262836D02*
X176459492Y-37310455D01*
X176507111Y-37453312D01*
X176507111Y-37548550D01*
X176459492Y-37691408D01*
X176364254Y-37786646D01*
X176269016Y-37834265D01*
X176078540Y-37881884D01*
X175935683Y-37881884D01*
X175745207Y-37834265D01*
X175649969Y-37786646D01*
X175554731Y-37691408D01*
X175507111Y-37548550D01*
X175507111Y-37453312D01*
X175554731Y-37310455D01*
X175602350Y-37262836D01*
X175935683Y-36691408D02*
X175888064Y-36786646D01*
X175840445Y-36834265D01*
X175745207Y-36881884D01*
X175697588Y-36881884D01*
X175602350Y-36834265D01*
X175554731Y-36786646D01*
X175507111Y-36691408D01*
X175507111Y-36500931D01*
X175554731Y-36405693D01*
X175602350Y-36358074D01*
X175697588Y-36310455D01*
X175745207Y-36310455D01*
X175840445Y-36358074D01*
X175888064Y-36405693D01*
X175935683Y-36500931D01*
X175935683Y-36691408D01*
X175983302Y-36786646D01*
X176030921Y-36834265D01*
X176126159Y-36881884D01*
X176316635Y-36881884D01*
X176411873Y-36834265D01*
X176459492Y-36786646D01*
X176507111Y-36691408D01*
X176507111Y-36500931D01*
X176459492Y-36405693D01*
X176411873Y-36358074D01*
X176316635Y-36310455D01*
X176126159Y-36310455D01*
X176030921Y-36358074D01*
X175983302Y-36405693D01*
X175935683Y-36500931D01*
G04 #@! TO.C,C9*
X156473142Y-64682666D02*
X156520761Y-64730285D01*
X156568380Y-64873142D01*
X156568380Y-64968380D01*
X156520761Y-65111238D01*
X156425523Y-65206476D01*
X156330285Y-65254095D01*
X156139809Y-65301714D01*
X155996952Y-65301714D01*
X155806476Y-65254095D01*
X155711238Y-65206476D01*
X155616000Y-65111238D01*
X155568380Y-64968380D01*
X155568380Y-64873142D01*
X155616000Y-64730285D01*
X155663619Y-64682666D01*
X156568380Y-64206476D02*
X156568380Y-64016000D01*
X156520761Y-63920761D01*
X156473142Y-63873142D01*
X156330285Y-63777904D01*
X156139809Y-63730285D01*
X155758857Y-63730285D01*
X155663619Y-63777904D01*
X155616000Y-63825523D01*
X155568380Y-63920761D01*
X155568380Y-64111238D01*
X155616000Y-64206476D01*
X155663619Y-64254095D01*
X155758857Y-64301714D01*
X155996952Y-64301714D01*
X156092190Y-64254095D01*
X156139809Y-64206476D01*
X156187428Y-64111238D01*
X156187428Y-63920761D01*
X156139809Y-63825523D01*
X156092190Y-63777904D01*
X155996952Y-63730285D01*
G04 #@! TO.C,C11*
X156011146Y-78964043D02*
X156058765Y-79011662D01*
X156106384Y-79154519D01*
X156106384Y-79249757D01*
X156058765Y-79392614D01*
X155963527Y-79487852D01*
X155868289Y-79535471D01*
X155677813Y-79583090D01*
X155534956Y-79583090D01*
X155344480Y-79535471D01*
X155249242Y-79487852D01*
X155154004Y-79392614D01*
X155106384Y-79249757D01*
X155106384Y-79154519D01*
X155154004Y-79011662D01*
X155201623Y-78964043D01*
X156106384Y-78011662D02*
X156106384Y-78583090D01*
X156106384Y-78297376D02*
X155106384Y-78297376D01*
X155249242Y-78392614D01*
X155344480Y-78487852D01*
X155392099Y-78583090D01*
X156106384Y-77059281D02*
X156106384Y-77630709D01*
X156106384Y-77344995D02*
X155106384Y-77344995D01*
X155249242Y-77440233D01*
X155344480Y-77535471D01*
X155392099Y-77630709D01*
G04 #@! TO.C,C12*
X176411873Y-44089027D02*
X176459492Y-44136646D01*
X176507111Y-44279503D01*
X176507111Y-44374741D01*
X176459492Y-44517598D01*
X176364254Y-44612836D01*
X176269016Y-44660455D01*
X176078540Y-44708074D01*
X175935683Y-44708074D01*
X175745207Y-44660455D01*
X175649969Y-44612836D01*
X175554731Y-44517598D01*
X175507111Y-44374741D01*
X175507111Y-44279503D01*
X175554731Y-44136646D01*
X175602350Y-44089027D01*
X176507111Y-43136646D02*
X176507111Y-43708074D01*
X176507111Y-43422360D02*
X175507111Y-43422360D01*
X175649969Y-43517598D01*
X175745207Y-43612836D01*
X175792826Y-43708074D01*
X175602350Y-42755693D02*
X175554731Y-42708074D01*
X175507111Y-42612836D01*
X175507111Y-42374741D01*
X175554731Y-42279503D01*
X175602350Y-42231884D01*
X175697588Y-42184265D01*
X175792826Y-42184265D01*
X175935683Y-42231884D01*
X176507111Y-42803312D01*
X176507111Y-42184265D01*
G04 #@! TO.C,C13*
X159107142Y-90330357D02*
X159154761Y-90377976D01*
X159202380Y-90520833D01*
X159202380Y-90616071D01*
X159154761Y-90758928D01*
X159059523Y-90854166D01*
X158964285Y-90901785D01*
X158773809Y-90949404D01*
X158630952Y-90949404D01*
X158440476Y-90901785D01*
X158345238Y-90854166D01*
X158250000Y-90758928D01*
X158202380Y-90616071D01*
X158202380Y-90520833D01*
X158250000Y-90377976D01*
X158297619Y-90330357D01*
X159202380Y-89377976D02*
X159202380Y-89949404D01*
X159202380Y-89663690D02*
X158202380Y-89663690D01*
X158345238Y-89758928D01*
X158440476Y-89854166D01*
X158488095Y-89949404D01*
X158202380Y-89044642D02*
X158202380Y-88425595D01*
X158583333Y-88758928D01*
X158583333Y-88616071D01*
X158630952Y-88520833D01*
X158678571Y-88473214D01*
X158773809Y-88425595D01*
X159011904Y-88425595D01*
X159107142Y-88473214D01*
X159154761Y-88520833D01*
X159202380Y-88616071D01*
X159202380Y-88901785D01*
X159154761Y-88997023D01*
X159107142Y-89044642D01*
G04 #@! TO.C,C14*
X176404542Y-47759857D02*
X176452161Y-47807476D01*
X176499780Y-47950333D01*
X176499780Y-48045571D01*
X176452161Y-48188428D01*
X176356923Y-48283666D01*
X176261685Y-48331285D01*
X176071209Y-48378904D01*
X175928352Y-48378904D01*
X175737876Y-48331285D01*
X175642638Y-48283666D01*
X175547400Y-48188428D01*
X175499780Y-48045571D01*
X175499780Y-47950333D01*
X175547400Y-47807476D01*
X175595019Y-47759857D01*
X176499780Y-46807476D02*
X176499780Y-47378904D01*
X176499780Y-47093190D02*
X175499780Y-47093190D01*
X175642638Y-47188428D01*
X175737876Y-47283666D01*
X175785495Y-47378904D01*
X175833114Y-45950333D02*
X176499780Y-45950333D01*
X175452161Y-46188428D02*
X176166447Y-46426523D01*
X176166447Y-45807476D01*
G04 #@! TO.C,C15*
X171205142Y-68714857D02*
X171252761Y-68762476D01*
X171300380Y-68905333D01*
X171300380Y-69000571D01*
X171252761Y-69143428D01*
X171157523Y-69238666D01*
X171062285Y-69286285D01*
X170871809Y-69333904D01*
X170728952Y-69333904D01*
X170538476Y-69286285D01*
X170443238Y-69238666D01*
X170348000Y-69143428D01*
X170300380Y-69000571D01*
X170300380Y-68905333D01*
X170348000Y-68762476D01*
X170395619Y-68714857D01*
X171300380Y-67762476D02*
X171300380Y-68333904D01*
X171300380Y-68048190D02*
X170300380Y-68048190D01*
X170443238Y-68143428D01*
X170538476Y-68238666D01*
X170586095Y-68333904D01*
X170300380Y-66857714D02*
X170300380Y-67333904D01*
X170776571Y-67381523D01*
X170728952Y-67333904D01*
X170681333Y-67238666D01*
X170681333Y-67000571D01*
X170728952Y-66905333D01*
X170776571Y-66857714D01*
X170871809Y-66810095D01*
X171109904Y-66810095D01*
X171205142Y-66857714D01*
X171252761Y-66905333D01*
X171300380Y-67000571D01*
X171300380Y-67238666D01*
X171252761Y-67333904D01*
X171205142Y-67381523D01*
G04 #@! TO.C,C16*
X172077142Y-85447142D02*
X172029523Y-85494761D01*
X171886666Y-85542380D01*
X171791428Y-85542380D01*
X171648571Y-85494761D01*
X171553333Y-85399523D01*
X171505714Y-85304285D01*
X171458095Y-85113809D01*
X171458095Y-84970952D01*
X171505714Y-84780476D01*
X171553333Y-84685238D01*
X171648571Y-84590000D01*
X171791428Y-84542380D01*
X171886666Y-84542380D01*
X172029523Y-84590000D01*
X172077142Y-84637619D01*
X173029523Y-85542380D02*
X172458095Y-85542380D01*
X172743809Y-85542380D02*
X172743809Y-84542380D01*
X172648571Y-84685238D01*
X172553333Y-84780476D01*
X172458095Y-84828095D01*
X173886666Y-84542380D02*
X173696190Y-84542380D01*
X173600952Y-84590000D01*
X173553333Y-84637619D01*
X173458095Y-84780476D01*
X173410476Y-84970952D01*
X173410476Y-85351904D01*
X173458095Y-85447142D01*
X173505714Y-85494761D01*
X173600952Y-85542380D01*
X173791428Y-85542380D01*
X173886666Y-85494761D01*
X173934285Y-85447142D01*
X173981904Y-85351904D01*
X173981904Y-85113809D01*
X173934285Y-85018571D01*
X173886666Y-84970952D01*
X173791428Y-84923333D01*
X173600952Y-84923333D01*
X173505714Y-84970952D01*
X173458095Y-85018571D01*
X173410476Y-85113809D01*
G04 #@! TO.C,C17*
X172077142Y-83669142D02*
X172029523Y-83716761D01*
X171886666Y-83764380D01*
X171791428Y-83764380D01*
X171648571Y-83716761D01*
X171553333Y-83621523D01*
X171505714Y-83526285D01*
X171458095Y-83335809D01*
X171458095Y-83192952D01*
X171505714Y-83002476D01*
X171553333Y-82907238D01*
X171648571Y-82812000D01*
X171791428Y-82764380D01*
X171886666Y-82764380D01*
X172029523Y-82812000D01*
X172077142Y-82859619D01*
X173029523Y-83764380D02*
X172458095Y-83764380D01*
X172743809Y-83764380D02*
X172743809Y-82764380D01*
X172648571Y-82907238D01*
X172553333Y-83002476D01*
X172458095Y-83050095D01*
X173362857Y-82764380D02*
X174029523Y-82764380D01*
X173600952Y-83764380D01*
G04 #@! TO.C,C42*
X154551142Y-84177142D02*
X154503523Y-84224761D01*
X154360666Y-84272380D01*
X154265428Y-84272380D01*
X154122571Y-84224761D01*
X154027333Y-84129523D01*
X153979714Y-84034285D01*
X153932095Y-83843809D01*
X153932095Y-83700952D01*
X153979714Y-83510476D01*
X154027333Y-83415238D01*
X154122571Y-83320000D01*
X154265428Y-83272380D01*
X154360666Y-83272380D01*
X154503523Y-83320000D01*
X154551142Y-83367619D01*
X155408285Y-83605714D02*
X155408285Y-84272380D01*
X155170190Y-83224761D02*
X154932095Y-83939047D01*
X155551142Y-83939047D01*
X155884476Y-83367619D02*
X155932095Y-83320000D01*
X156027333Y-83272380D01*
X156265428Y-83272380D01*
X156360666Y-83320000D01*
X156408285Y-83367619D01*
X156455904Y-83462857D01*
X156455904Y-83558095D01*
X156408285Y-83700952D01*
X155836857Y-84272380D01*
X156455904Y-84272380D01*
G04 #@! TO.C,J1*
X77061442Y-24306884D02*
X77061442Y-25021170D01*
X77013823Y-25164027D01*
X76918585Y-25259265D01*
X76775728Y-25306884D01*
X76680490Y-25306884D01*
X78061442Y-25306884D02*
X77490014Y-25306884D01*
X77775728Y-25306884D02*
X77775728Y-24306884D01*
X77680490Y-24449742D01*
X77585252Y-24544980D01*
X77490014Y-24592599D01*
G04 #@! TO.C,J2*
X71677380Y-74115445D02*
X72391666Y-74115445D01*
X72534523Y-74163064D01*
X72629761Y-74258302D01*
X72677380Y-74401159D01*
X72677380Y-74496397D01*
X71772619Y-73686873D02*
X71725000Y-73639254D01*
X71677380Y-73544016D01*
X71677380Y-73305921D01*
X71725000Y-73210683D01*
X71772619Y-73163064D01*
X71867857Y-73115445D01*
X71963095Y-73115445D01*
X72105952Y-73163064D01*
X72677380Y-73734492D01*
X72677380Y-73115445D01*
G04 #@! TO.C,J3*
X86431442Y-23915884D02*
X86431442Y-24630170D01*
X86383823Y-24773027D01*
X86288585Y-24868265D01*
X86145728Y-24915884D01*
X86050490Y-24915884D01*
X86812395Y-23915884D02*
X87431442Y-23915884D01*
X87098109Y-24296837D01*
X87240966Y-24296837D01*
X87336204Y-24344456D01*
X87383823Y-24392075D01*
X87431442Y-24487313D01*
X87431442Y-24725408D01*
X87383823Y-24820646D01*
X87336204Y-24868265D01*
X87240966Y-24915884D01*
X86955252Y-24915884D01*
X86860014Y-24868265D01*
X86812395Y-24820646D01*
G04 #@! TO.C,J4*
X71667380Y-64745445D02*
X72381666Y-64745445D01*
X72524523Y-64793064D01*
X72619761Y-64888302D01*
X72667380Y-65031159D01*
X72667380Y-65126397D01*
X72000714Y-63840683D02*
X72667380Y-63840683D01*
X71619761Y-64078778D02*
X72334047Y-64316873D01*
X72334047Y-63697826D01*
G04 #@! TO.C,J5*
X77136666Y-91451380D02*
X77136666Y-92165666D01*
X77089047Y-92308523D01*
X76993809Y-92403761D01*
X76850952Y-92451380D01*
X76755714Y-92451380D01*
X78089047Y-91451380D02*
X77612857Y-91451380D01*
X77565238Y-91927571D01*
X77612857Y-91879952D01*
X77708095Y-91832333D01*
X77946190Y-91832333D01*
X78041428Y-91879952D01*
X78089047Y-91927571D01*
X78136666Y-92022809D01*
X78136666Y-92260904D01*
X78089047Y-92356142D01*
X78041428Y-92403761D01*
X77946190Y-92451380D01*
X77708095Y-92451380D01*
X77612857Y-92403761D01*
X77565238Y-92356142D01*
G04 #@! TO.C,J6*
X72045380Y-52403333D02*
X72759666Y-52403333D01*
X72902523Y-52450952D01*
X72997761Y-52546190D01*
X73045380Y-52689047D01*
X73045380Y-52784285D01*
X72045380Y-51498571D02*
X72045380Y-51689047D01*
X72093000Y-51784285D01*
X72140619Y-51831904D01*
X72283476Y-51927142D01*
X72473952Y-51974761D01*
X72854904Y-51974761D01*
X72950142Y-51927142D01*
X72997761Y-51879523D01*
X73045380Y-51784285D01*
X73045380Y-51593809D01*
X72997761Y-51498571D01*
X72950142Y-51450952D01*
X72854904Y-51403333D01*
X72616809Y-51403333D01*
X72521571Y-51450952D01*
X72473952Y-51498571D01*
X72426333Y-51593809D01*
X72426333Y-51784285D01*
X72473952Y-51879523D01*
X72521571Y-51927142D01*
X72616809Y-51974761D01*
G04 #@! TO.C,J7*
X87268666Y-91461380D02*
X87268666Y-92175666D01*
X87221047Y-92318523D01*
X87125809Y-92413761D01*
X86982952Y-92461380D01*
X86887714Y-92461380D01*
X87649619Y-91461380D02*
X88316285Y-91461380D01*
X87887714Y-92461380D01*
G04 #@! TO.C,J8*
X72035380Y-43287333D02*
X72749666Y-43287333D01*
X72892523Y-43334952D01*
X72987761Y-43430190D01*
X73035380Y-43573047D01*
X73035380Y-43668285D01*
X72463952Y-42668285D02*
X72416333Y-42763523D01*
X72368714Y-42811142D01*
X72273476Y-42858761D01*
X72225857Y-42858761D01*
X72130619Y-42811142D01*
X72083000Y-42763523D01*
X72035380Y-42668285D01*
X72035380Y-42477809D01*
X72083000Y-42382571D01*
X72130619Y-42334952D01*
X72225857Y-42287333D01*
X72273476Y-42287333D01*
X72368714Y-42334952D01*
X72416333Y-42382571D01*
X72463952Y-42477809D01*
X72463952Y-42668285D01*
X72511571Y-42763523D01*
X72559190Y-42811142D01*
X72654428Y-42858761D01*
X72844904Y-42858761D01*
X72940142Y-42811142D01*
X72987761Y-42763523D01*
X73035380Y-42668285D01*
X73035380Y-42477809D01*
X72987761Y-42382571D01*
X72940142Y-42334952D01*
X72844904Y-42287333D01*
X72654428Y-42287333D01*
X72559190Y-42334952D01*
X72511571Y-42382571D01*
X72463952Y-42477809D01*
G04 #@! TO.C,J9*
X243988380Y-46279333D02*
X244702666Y-46279333D01*
X244845523Y-46326952D01*
X244940761Y-46422190D01*
X244988380Y-46565047D01*
X244988380Y-46660285D01*
X244988380Y-45755523D02*
X244988380Y-45565047D01*
X244940761Y-45469809D01*
X244893142Y-45422190D01*
X244750285Y-45326952D01*
X244559809Y-45279333D01*
X244178857Y-45279333D01*
X244083619Y-45326952D01*
X244036000Y-45374571D01*
X243988380Y-45469809D01*
X243988380Y-45660285D01*
X244036000Y-45755523D01*
X244083619Y-45803142D01*
X244178857Y-45850761D01*
X244416952Y-45850761D01*
X244512190Y-45803142D01*
X244559809Y-45755523D01*
X244607428Y-45660285D01*
X244607428Y-45469809D01*
X244559809Y-45374571D01*
X244512190Y-45326952D01*
X244416952Y-45279333D01*
G04 #@! TO.C,J10*
X238458476Y-28992380D02*
X238458476Y-29706666D01*
X238410857Y-29849523D01*
X238315619Y-29944761D01*
X238172761Y-29992380D01*
X238077523Y-29992380D01*
X239458476Y-29992380D02*
X238887047Y-29992380D01*
X239172761Y-29992380D02*
X239172761Y-28992380D01*
X239077523Y-29135238D01*
X238982285Y-29230476D01*
X238887047Y-29278095D01*
X240077523Y-28992380D02*
X240172761Y-28992380D01*
X240268000Y-29040000D01*
X240315619Y-29087619D01*
X240363238Y-29182857D01*
X240410857Y-29373333D01*
X240410857Y-29611428D01*
X240363238Y-29801904D01*
X240315619Y-29897142D01*
X240268000Y-29944761D01*
X240172761Y-29992380D01*
X240077523Y-29992380D01*
X239982285Y-29944761D01*
X239934666Y-29897142D01*
X239887047Y-29801904D01*
X239839428Y-29611428D01*
X239839428Y-29373333D01*
X239887047Y-29182857D01*
X239934666Y-29087619D01*
X239982285Y-29040000D01*
X240077523Y-28992380D01*
G04 #@! TO.C,J12*
X237950476Y-62520380D02*
X237950476Y-63234666D01*
X237902857Y-63377523D01*
X237807619Y-63472761D01*
X237664761Y-63520380D01*
X237569523Y-63520380D01*
X238950476Y-63520380D02*
X238379047Y-63520380D01*
X238664761Y-63520380D02*
X238664761Y-62520380D01*
X238569523Y-62663238D01*
X238474285Y-62758476D01*
X238379047Y-62806095D01*
X239331428Y-62615619D02*
X239379047Y-62568000D01*
X239474285Y-62520380D01*
X239712380Y-62520380D01*
X239807619Y-62568000D01*
X239855238Y-62615619D01*
X239902857Y-62710857D01*
X239902857Y-62806095D01*
X239855238Y-62948952D01*
X239283809Y-63520380D01*
X239902857Y-63520380D01*
G04 #@! TO.C,RV1*
X94400761Y-70452380D02*
X94067428Y-69976190D01*
X93829333Y-70452380D02*
X93829333Y-69452380D01*
X94210285Y-69452380D01*
X94305523Y-69500000D01*
X94353142Y-69547619D01*
X94400761Y-69642857D01*
X94400761Y-69785714D01*
X94353142Y-69880952D01*
X94305523Y-69928571D01*
X94210285Y-69976190D01*
X93829333Y-69976190D01*
X94686476Y-69452380D02*
X95019809Y-70452380D01*
X95353142Y-69452380D01*
X96210285Y-70452380D02*
X95638857Y-70452380D01*
X95924571Y-70452380D02*
X95924571Y-69452380D01*
X95829333Y-69595238D01*
X95734095Y-69690476D01*
X95638857Y-69738095D01*
G04 #@! TO.C,SW1*
X93460666Y-39497761D02*
X93603523Y-39545380D01*
X93841619Y-39545380D01*
X93936857Y-39497761D01*
X93984476Y-39450142D01*
X94032095Y-39354904D01*
X94032095Y-39259666D01*
X93984476Y-39164428D01*
X93936857Y-39116809D01*
X93841619Y-39069190D01*
X93651142Y-39021571D01*
X93555904Y-38973952D01*
X93508285Y-38926333D01*
X93460666Y-38831095D01*
X93460666Y-38735857D01*
X93508285Y-38640619D01*
X93555904Y-38593000D01*
X93651142Y-38545380D01*
X93889238Y-38545380D01*
X94032095Y-38593000D01*
X94365428Y-38545380D02*
X94603523Y-39545380D01*
X94794000Y-38831095D01*
X94984476Y-39545380D01*
X95222571Y-38545380D01*
X96127333Y-39545380D02*
X95555904Y-39545380D01*
X95841619Y-39545380D02*
X95841619Y-38545380D01*
X95746380Y-38688238D01*
X95651142Y-38783476D01*
X95555904Y-38831095D01*
G04 #@! TO.C,SW2*
X93483666Y-59872761D02*
X93626523Y-59920380D01*
X93864619Y-59920380D01*
X93959857Y-59872761D01*
X94007476Y-59825142D01*
X94055095Y-59729904D01*
X94055095Y-59634666D01*
X94007476Y-59539428D01*
X93959857Y-59491809D01*
X93864619Y-59444190D01*
X93674142Y-59396571D01*
X93578904Y-59348952D01*
X93531285Y-59301333D01*
X93483666Y-59206095D01*
X93483666Y-59110857D01*
X93531285Y-59015619D01*
X93578904Y-58968000D01*
X93674142Y-58920380D01*
X93912238Y-58920380D01*
X94055095Y-58968000D01*
X94388428Y-58920380D02*
X94626523Y-59920380D01*
X94817000Y-59206095D01*
X95007476Y-59920380D01*
X95245571Y-58920380D01*
X95578904Y-59015619D02*
X95626523Y-58968000D01*
X95721761Y-58920380D01*
X95959857Y-58920380D01*
X96055095Y-58968000D01*
X96102714Y-59015619D01*
X96150333Y-59110857D01*
X96150333Y-59206095D01*
X96102714Y-59348952D01*
X95531285Y-59920380D01*
X96150333Y-59920380D01*
G04 #@! TO.C,U1*
X103592380Y-60451904D02*
X104401904Y-60451904D01*
X104497142Y-60404285D01*
X104544761Y-60356666D01*
X104592380Y-60261428D01*
X104592380Y-60070952D01*
X104544761Y-59975714D01*
X104497142Y-59928095D01*
X104401904Y-59880476D01*
X103592380Y-59880476D01*
X104592380Y-58880476D02*
X104592380Y-59451904D01*
X104592380Y-59166190D02*
X103592380Y-59166190D01*
X103735238Y-59261428D01*
X103830476Y-59356666D01*
X103878095Y-59451904D01*
G04 #@! TO.C,U2*
X139128095Y-38132380D02*
X139128095Y-38941904D01*
X139175714Y-39037142D01*
X139223333Y-39084761D01*
X139318571Y-39132380D01*
X139509047Y-39132380D01*
X139604285Y-39084761D01*
X139651904Y-39037142D01*
X139699523Y-38941904D01*
X139699523Y-38132380D01*
X140128095Y-38227619D02*
X140175714Y-38180000D01*
X140270952Y-38132380D01*
X140509047Y-38132380D01*
X140604285Y-38180000D01*
X140651904Y-38227619D01*
X140699523Y-38322857D01*
X140699523Y-38418095D01*
X140651904Y-38560952D01*
X140080476Y-39132380D01*
X140699523Y-39132380D01*
G04 #@! TO.C,U3*
X168910095Y-30948380D02*
X168910095Y-31757904D01*
X168957714Y-31853142D01*
X169005333Y-31900761D01*
X169100571Y-31948380D01*
X169291047Y-31948380D01*
X169386285Y-31900761D01*
X169433904Y-31853142D01*
X169481523Y-31757904D01*
X169481523Y-30948380D01*
X169862476Y-30948380D02*
X170481523Y-30948380D01*
X170148190Y-31329333D01*
X170291047Y-31329333D01*
X170386285Y-31376952D01*
X170433904Y-31424571D01*
X170481523Y-31519809D01*
X170481523Y-31757904D01*
X170433904Y-31853142D01*
X170386285Y-31900761D01*
X170291047Y-31948380D01*
X170005333Y-31948380D01*
X169910095Y-31900761D01*
X169862476Y-31853142D01*
G04 #@! TO.C,U4*
X168910095Y-38822380D02*
X168910095Y-39631904D01*
X168957714Y-39727142D01*
X169005333Y-39774761D01*
X169100571Y-39822380D01*
X169291047Y-39822380D01*
X169386285Y-39774761D01*
X169433904Y-39727142D01*
X169481523Y-39631904D01*
X169481523Y-38822380D01*
X170386285Y-39155714D02*
X170386285Y-39822380D01*
X170148190Y-38774761D02*
X169910095Y-39489047D01*
X170529142Y-39489047D01*
G04 #@! TO.C,U5*
X146558095Y-63052380D02*
X146558095Y-63861904D01*
X146605714Y-63957142D01*
X146653333Y-64004761D01*
X146748571Y-64052380D01*
X146939047Y-64052380D01*
X147034285Y-64004761D01*
X147081904Y-63957142D01*
X147129523Y-63861904D01*
X147129523Y-63052380D01*
X148081904Y-63052380D02*
X147605714Y-63052380D01*
X147558095Y-63528571D01*
X147605714Y-63480952D01*
X147700952Y-63433333D01*
X147939047Y-63433333D01*
X148034285Y-63480952D01*
X148081904Y-63528571D01*
X148129523Y-63623809D01*
X148129523Y-63861904D01*
X148081904Y-63957142D01*
X148034285Y-64004761D01*
X147939047Y-64052380D01*
X147700952Y-64052380D01*
X147605714Y-64004761D01*
X147558095Y-63957142D01*
G04 #@! TO.C,U7*
X146558095Y-77022380D02*
X146558095Y-77831904D01*
X146605714Y-77927142D01*
X146653333Y-77974761D01*
X146748571Y-78022380D01*
X146939047Y-78022380D01*
X147034285Y-77974761D01*
X147081904Y-77927142D01*
X147129523Y-77831904D01*
X147129523Y-77022380D01*
X147510476Y-77022380D02*
X148177142Y-77022380D01*
X147748571Y-78022380D01*
G04 #@! TO.C,U8*
X168782826Y-46188380D02*
X168782826Y-46997904D01*
X168830445Y-47093142D01*
X168878064Y-47140761D01*
X168973302Y-47188380D01*
X169163778Y-47188380D01*
X169259016Y-47140761D01*
X169306635Y-47093142D01*
X169354254Y-46997904D01*
X169354254Y-46188380D01*
X169973302Y-46616952D02*
X169878064Y-46569333D01*
X169830445Y-46521714D01*
X169782826Y-46426476D01*
X169782826Y-46378857D01*
X169830445Y-46283619D01*
X169878064Y-46236000D01*
X169973302Y-46188380D01*
X170163778Y-46188380D01*
X170259016Y-46236000D01*
X170306635Y-46283619D01*
X170354254Y-46378857D01*
X170354254Y-46426476D01*
X170306635Y-46521714D01*
X170259016Y-46569333D01*
X170163778Y-46616952D01*
X169973302Y-46616952D01*
X169878064Y-46664571D01*
X169830445Y-46712190D01*
X169782826Y-46807428D01*
X169782826Y-46997904D01*
X169830445Y-47093142D01*
X169878064Y-47140761D01*
X169973302Y-47188380D01*
X170163778Y-47188380D01*
X170259016Y-47140761D01*
X170306635Y-47093142D01*
X170354254Y-46997904D01*
X170354254Y-46807428D01*
X170306635Y-46712190D01*
X170259016Y-46664571D01*
X170163778Y-46616952D01*
G04 #@! TO.C,U9*
X163576095Y-62911380D02*
X163576095Y-63720904D01*
X163623714Y-63816142D01*
X163671333Y-63863761D01*
X163766571Y-63911380D01*
X163957047Y-63911380D01*
X164052285Y-63863761D01*
X164099904Y-63816142D01*
X164147523Y-63720904D01*
X164147523Y-62911380D01*
X164671333Y-63911380D02*
X164861809Y-63911380D01*
X164957047Y-63863761D01*
X165004666Y-63816142D01*
X165099904Y-63673285D01*
X165147523Y-63482809D01*
X165147523Y-63101857D01*
X165099904Y-63006619D01*
X165052285Y-62959000D01*
X164957047Y-62911380D01*
X164766571Y-62911380D01*
X164671333Y-62959000D01*
X164623714Y-63006619D01*
X164576095Y-63101857D01*
X164576095Y-63339952D01*
X164623714Y-63435190D01*
X164671333Y-63482809D01*
X164766571Y-63530428D01*
X164957047Y-63530428D01*
X165052285Y-63482809D01*
X165099904Y-63435190D01*
X165147523Y-63339952D01*
G04 #@! TO.C,RV4*
X94273761Y-50132380D02*
X93940428Y-49656190D01*
X93702333Y-50132380D02*
X93702333Y-49132380D01*
X94083285Y-49132380D01*
X94178523Y-49180000D01*
X94226142Y-49227619D01*
X94273761Y-49322857D01*
X94273761Y-49465714D01*
X94226142Y-49560952D01*
X94178523Y-49608571D01*
X94083285Y-49656190D01*
X93702333Y-49656190D01*
X94559476Y-49132380D02*
X94892809Y-50132380D01*
X95226142Y-49132380D01*
X95988047Y-49465714D02*
X95988047Y-50132380D01*
X95749952Y-49084761D02*
X95511857Y-49799047D01*
X96130904Y-49799047D01*
G04 #@! TO.C,J11*
X243480380Y-80410523D02*
X244194666Y-80410523D01*
X244337523Y-80458142D01*
X244432761Y-80553380D01*
X244480380Y-80696238D01*
X244480380Y-80791476D01*
X244480380Y-79410523D02*
X244480380Y-79981952D01*
X244480380Y-79696238D02*
X243480380Y-79696238D01*
X243623238Y-79791476D01*
X243718476Y-79886714D01*
X243766095Y-79981952D01*
X244480380Y-78458142D02*
X244480380Y-79029571D01*
X244480380Y-78743857D02*
X243480380Y-78743857D01*
X243623238Y-78839095D01*
X243718476Y-78934333D01*
X243766095Y-79029571D01*
G04 #@! TO.C,REF\002A\002A*
X247586666Y-87392380D02*
X247253333Y-86916190D01*
X247015238Y-87392380D02*
X247015238Y-86392380D01*
X247396190Y-86392380D01*
X247491428Y-86440000D01*
X247539047Y-86487619D01*
X247586666Y-86582857D01*
X247586666Y-86725714D01*
X247539047Y-86820952D01*
X247491428Y-86868571D01*
X247396190Y-86916190D01*
X247015238Y-86916190D01*
X248015238Y-86868571D02*
X248348571Y-86868571D01*
X248491428Y-87392380D02*
X248015238Y-87392380D01*
X248015238Y-86392380D01*
X248491428Y-86392380D01*
X249253333Y-86868571D02*
X248920000Y-86868571D01*
X248920000Y-87392380D02*
X248920000Y-86392380D01*
X249396190Y-86392380D01*
X249920000Y-86392380D02*
X249920000Y-86630476D01*
X249681904Y-86535238D02*
X249920000Y-86630476D01*
X250158095Y-86535238D01*
X249777142Y-86820952D02*
X249920000Y-86630476D01*
X250062857Y-86820952D01*
X250681904Y-86392380D02*
X250681904Y-86630476D01*
X250443809Y-86535238D02*
X250681904Y-86630476D01*
X250920000Y-86535238D01*
X250539047Y-86820952D02*
X250681904Y-86630476D01*
X250824761Y-86820952D01*
X247586666Y-22622380D02*
X247253333Y-22146190D01*
X247015238Y-22622380D02*
X247015238Y-21622380D01*
X247396190Y-21622380D01*
X247491428Y-21670000D01*
X247539047Y-21717619D01*
X247586666Y-21812857D01*
X247586666Y-21955714D01*
X247539047Y-22050952D01*
X247491428Y-22098571D01*
X247396190Y-22146190D01*
X247015238Y-22146190D01*
X248015238Y-22098571D02*
X248348571Y-22098571D01*
X248491428Y-22622380D02*
X248015238Y-22622380D01*
X248015238Y-21622380D01*
X248491428Y-21622380D01*
X249253333Y-22098571D02*
X248920000Y-22098571D01*
X248920000Y-22622380D02*
X248920000Y-21622380D01*
X249396190Y-21622380D01*
X249920000Y-21622380D02*
X249920000Y-21860476D01*
X249681904Y-21765238D02*
X249920000Y-21860476D01*
X250158095Y-21765238D01*
X249777142Y-22050952D02*
X249920000Y-21860476D01*
X250062857Y-22050952D01*
X250681904Y-21622380D02*
X250681904Y-21860476D01*
X250443809Y-21765238D02*
X250681904Y-21860476D01*
X250920000Y-21765238D01*
X250539047Y-22050952D02*
X250681904Y-21860476D01*
X250824761Y-22050952D01*
X64706666Y-22622380D02*
X64373333Y-22146190D01*
X64135238Y-22622380D02*
X64135238Y-21622380D01*
X64516190Y-21622380D01*
X64611428Y-21670000D01*
X64659047Y-21717619D01*
X64706666Y-21812857D01*
X64706666Y-21955714D01*
X64659047Y-22050952D01*
X64611428Y-22098571D01*
X64516190Y-22146190D01*
X64135238Y-22146190D01*
X65135238Y-22098571D02*
X65468571Y-22098571D01*
X65611428Y-22622380D02*
X65135238Y-22622380D01*
X65135238Y-21622380D01*
X65611428Y-21622380D01*
X66373333Y-22098571D02*
X66040000Y-22098571D01*
X66040000Y-22622380D02*
X66040000Y-21622380D01*
X66516190Y-21622380D01*
X67040000Y-21622380D02*
X67040000Y-21860476D01*
X66801904Y-21765238D02*
X67040000Y-21860476D01*
X67278095Y-21765238D01*
X66897142Y-22050952D02*
X67040000Y-21860476D01*
X67182857Y-22050952D01*
X67801904Y-21622380D02*
X67801904Y-21860476D01*
X67563809Y-21765238D02*
X67801904Y-21860476D01*
X68040000Y-21765238D01*
X67659047Y-22050952D02*
X67801904Y-21860476D01*
X67944761Y-22050952D01*
X64706666Y-87392380D02*
X64373333Y-86916190D01*
X64135238Y-87392380D02*
X64135238Y-86392380D01*
X64516190Y-86392380D01*
X64611428Y-86440000D01*
X64659047Y-86487619D01*
X64706666Y-86582857D01*
X64706666Y-86725714D01*
X64659047Y-86820952D01*
X64611428Y-86868571D01*
X64516190Y-86916190D01*
X64135238Y-86916190D01*
X65135238Y-86868571D02*
X65468571Y-86868571D01*
X65611428Y-87392380D02*
X65135238Y-87392380D01*
X65135238Y-86392380D01*
X65611428Y-86392380D01*
X66373333Y-86868571D02*
X66040000Y-86868571D01*
X66040000Y-87392380D02*
X66040000Y-86392380D01*
X66516190Y-86392380D01*
X67040000Y-86392380D02*
X67040000Y-86630476D01*
X66801904Y-86535238D02*
X67040000Y-86630476D01*
X67278095Y-86535238D01*
X66897142Y-86820952D02*
X67040000Y-86630476D01*
X67182857Y-86820952D01*
X67801904Y-86392380D02*
X67801904Y-86630476D01*
X67563809Y-86535238D02*
X67801904Y-86630476D01*
X68040000Y-86535238D01*
X67659047Y-86820952D02*
X67801904Y-86630476D01*
X67944761Y-86820952D01*
G04 #@! TO.C,C18*
X198985142Y-66682857D02*
X199032761Y-66730476D01*
X199080380Y-66873333D01*
X199080380Y-66968571D01*
X199032761Y-67111428D01*
X198937523Y-67206666D01*
X198842285Y-67254285D01*
X198651809Y-67301904D01*
X198508952Y-67301904D01*
X198318476Y-67254285D01*
X198223238Y-67206666D01*
X198128000Y-67111428D01*
X198080380Y-66968571D01*
X198080380Y-66873333D01*
X198128000Y-66730476D01*
X198175619Y-66682857D01*
X199080380Y-65730476D02*
X199080380Y-66301904D01*
X199080380Y-66016190D02*
X198080380Y-66016190D01*
X198223238Y-66111428D01*
X198318476Y-66206666D01*
X198366095Y-66301904D01*
X198508952Y-65159047D02*
X198461333Y-65254285D01*
X198413714Y-65301904D01*
X198318476Y-65349523D01*
X198270857Y-65349523D01*
X198175619Y-65301904D01*
X198128000Y-65254285D01*
X198080380Y-65159047D01*
X198080380Y-64968571D01*
X198128000Y-64873333D01*
X198175619Y-64825714D01*
X198270857Y-64778095D01*
X198318476Y-64778095D01*
X198413714Y-64825714D01*
X198461333Y-64873333D01*
X198508952Y-64968571D01*
X198508952Y-65159047D01*
X198556571Y-65254285D01*
X198604190Y-65301904D01*
X198699428Y-65349523D01*
X198889904Y-65349523D01*
X198985142Y-65301904D01*
X199032761Y-65254285D01*
X199080380Y-65159047D01*
X199080380Y-64968571D01*
X199032761Y-64873333D01*
X198985142Y-64825714D01*
X198889904Y-64778095D01*
X198699428Y-64778095D01*
X198604190Y-64825714D01*
X198556571Y-64873333D01*
X198508952Y-64968571D01*
G04 #@! TO.C,C19*
X187063142Y-73669142D02*
X187015523Y-73716761D01*
X186872666Y-73764380D01*
X186777428Y-73764380D01*
X186634571Y-73716761D01*
X186539333Y-73621523D01*
X186491714Y-73526285D01*
X186444095Y-73335809D01*
X186444095Y-73192952D01*
X186491714Y-73002476D01*
X186539333Y-72907238D01*
X186634571Y-72812000D01*
X186777428Y-72764380D01*
X186872666Y-72764380D01*
X187015523Y-72812000D01*
X187063142Y-72859619D01*
X188015523Y-73764380D02*
X187444095Y-73764380D01*
X187729809Y-73764380D02*
X187729809Y-72764380D01*
X187634571Y-72907238D01*
X187539333Y-73002476D01*
X187444095Y-73050095D01*
X188491714Y-73764380D02*
X188682190Y-73764380D01*
X188777428Y-73716761D01*
X188825047Y-73669142D01*
X188920285Y-73526285D01*
X188967904Y-73335809D01*
X188967904Y-72954857D01*
X188920285Y-72859619D01*
X188872666Y-72812000D01*
X188777428Y-72764380D01*
X188586952Y-72764380D01*
X188491714Y-72812000D01*
X188444095Y-72859619D01*
X188396476Y-72954857D01*
X188396476Y-73192952D01*
X188444095Y-73288190D01*
X188491714Y-73335809D01*
X188586952Y-73383428D01*
X188777428Y-73383428D01*
X188872666Y-73335809D01*
X188920285Y-73288190D01*
X188967904Y-73192952D01*
G04 #@! TO.C,C20*
X187063142Y-36077142D02*
X187015523Y-36124761D01*
X186872666Y-36172380D01*
X186777428Y-36172380D01*
X186634571Y-36124761D01*
X186539333Y-36029523D01*
X186491714Y-35934285D01*
X186444095Y-35743809D01*
X186444095Y-35600952D01*
X186491714Y-35410476D01*
X186539333Y-35315238D01*
X186634571Y-35220000D01*
X186777428Y-35172380D01*
X186872666Y-35172380D01*
X187015523Y-35220000D01*
X187063142Y-35267619D01*
X187444095Y-35267619D02*
X187491714Y-35220000D01*
X187586952Y-35172380D01*
X187825047Y-35172380D01*
X187920285Y-35220000D01*
X187967904Y-35267619D01*
X188015523Y-35362857D01*
X188015523Y-35458095D01*
X187967904Y-35600952D01*
X187396476Y-36172380D01*
X188015523Y-36172380D01*
X188634571Y-35172380D02*
X188729809Y-35172380D01*
X188825047Y-35220000D01*
X188872666Y-35267619D01*
X188920285Y-35362857D01*
X188967904Y-35553333D01*
X188967904Y-35791428D01*
X188920285Y-35981904D01*
X188872666Y-36077142D01*
X188825047Y-36124761D01*
X188729809Y-36172380D01*
X188634571Y-36172380D01*
X188539333Y-36124761D01*
X188491714Y-36077142D01*
X188444095Y-35981904D01*
X188396476Y-35791428D01*
X188396476Y-35553333D01*
X188444095Y-35362857D01*
X188491714Y-35267619D01*
X188539333Y-35220000D01*
X188634571Y-35172380D01*
G04 #@! TO.C,C21*
X198637142Y-29344857D02*
X198684761Y-29392476D01*
X198732380Y-29535333D01*
X198732380Y-29630571D01*
X198684761Y-29773428D01*
X198589523Y-29868666D01*
X198494285Y-29916285D01*
X198303809Y-29963904D01*
X198160952Y-29963904D01*
X197970476Y-29916285D01*
X197875238Y-29868666D01*
X197780000Y-29773428D01*
X197732380Y-29630571D01*
X197732380Y-29535333D01*
X197780000Y-29392476D01*
X197827619Y-29344857D01*
X197827619Y-28963904D02*
X197780000Y-28916285D01*
X197732380Y-28821047D01*
X197732380Y-28582952D01*
X197780000Y-28487714D01*
X197827619Y-28440095D01*
X197922857Y-28392476D01*
X198018095Y-28392476D01*
X198160952Y-28440095D01*
X198732380Y-29011523D01*
X198732380Y-28392476D01*
X198732380Y-27440095D02*
X198732380Y-28011523D01*
X198732380Y-27725809D02*
X197732380Y-27725809D01*
X197875238Y-27821047D01*
X197970476Y-27916285D01*
X198018095Y-28011523D01*
G04 #@! TO.C,C22*
X193096683Y-89653589D02*
X193049064Y-89701208D01*
X192906207Y-89748827D01*
X192810969Y-89748827D01*
X192668112Y-89701208D01*
X192572874Y-89605970D01*
X192525255Y-89510732D01*
X192477636Y-89320256D01*
X192477636Y-89177399D01*
X192525255Y-88986923D01*
X192572874Y-88891685D01*
X192668112Y-88796447D01*
X192810969Y-88748827D01*
X192906207Y-88748827D01*
X193049064Y-88796447D01*
X193096683Y-88844066D01*
X193477636Y-88844066D02*
X193525255Y-88796447D01*
X193620493Y-88748827D01*
X193858588Y-88748827D01*
X193953826Y-88796447D01*
X194001445Y-88844066D01*
X194049064Y-88939304D01*
X194049064Y-89034542D01*
X194001445Y-89177399D01*
X193430017Y-89748827D01*
X194049064Y-89748827D01*
X194430017Y-88844066D02*
X194477636Y-88796447D01*
X194572874Y-88748827D01*
X194810969Y-88748827D01*
X194906207Y-88796447D01*
X194953826Y-88844066D01*
X195001445Y-88939304D01*
X195001445Y-89034542D01*
X194953826Y-89177399D01*
X194382398Y-89748827D01*
X195001445Y-89748827D01*
G04 #@! TO.C,C23*
X186809142Y-81891142D02*
X186761523Y-81938761D01*
X186618666Y-81986380D01*
X186523428Y-81986380D01*
X186380571Y-81938761D01*
X186285333Y-81843523D01*
X186237714Y-81748285D01*
X186190095Y-81557809D01*
X186190095Y-81414952D01*
X186237714Y-81224476D01*
X186285333Y-81129238D01*
X186380571Y-81034000D01*
X186523428Y-80986380D01*
X186618666Y-80986380D01*
X186761523Y-81034000D01*
X186809142Y-81081619D01*
X187190095Y-81081619D02*
X187237714Y-81034000D01*
X187332952Y-80986380D01*
X187571047Y-80986380D01*
X187666285Y-81034000D01*
X187713904Y-81081619D01*
X187761523Y-81176857D01*
X187761523Y-81272095D01*
X187713904Y-81414952D01*
X187142476Y-81986380D01*
X187761523Y-81986380D01*
X188094857Y-80986380D02*
X188713904Y-80986380D01*
X188380571Y-81367333D01*
X188523428Y-81367333D01*
X188618666Y-81414952D01*
X188666285Y-81462571D01*
X188713904Y-81557809D01*
X188713904Y-81795904D01*
X188666285Y-81891142D01*
X188618666Y-81938761D01*
X188523428Y-81986380D01*
X188237714Y-81986380D01*
X188142476Y-81938761D01*
X188094857Y-81891142D01*
G04 #@! TO.C,C24*
X199509142Y-74525142D02*
X199461523Y-74572761D01*
X199318666Y-74620380D01*
X199223428Y-74620380D01*
X199080571Y-74572761D01*
X198985333Y-74477523D01*
X198937714Y-74382285D01*
X198890095Y-74191809D01*
X198890095Y-74048952D01*
X198937714Y-73858476D01*
X198985333Y-73763238D01*
X199080571Y-73668000D01*
X199223428Y-73620380D01*
X199318666Y-73620380D01*
X199461523Y-73668000D01*
X199509142Y-73715619D01*
X199890095Y-73715619D02*
X199937714Y-73668000D01*
X200032952Y-73620380D01*
X200271047Y-73620380D01*
X200366285Y-73668000D01*
X200413904Y-73715619D01*
X200461523Y-73810857D01*
X200461523Y-73906095D01*
X200413904Y-74048952D01*
X199842476Y-74620380D01*
X200461523Y-74620380D01*
X201318666Y-73953714D02*
X201318666Y-74620380D01*
X201080571Y-73572761D02*
X200842476Y-74287047D01*
X201461523Y-74287047D01*
G04 #@! TO.C,C25*
X212607142Y-72524857D02*
X212654761Y-72572476D01*
X212702380Y-72715333D01*
X212702380Y-72810571D01*
X212654761Y-72953428D01*
X212559523Y-73048666D01*
X212464285Y-73096285D01*
X212273809Y-73143904D01*
X212130952Y-73143904D01*
X211940476Y-73096285D01*
X211845238Y-73048666D01*
X211750000Y-72953428D01*
X211702380Y-72810571D01*
X211702380Y-72715333D01*
X211750000Y-72572476D01*
X211797619Y-72524857D01*
X211797619Y-72143904D02*
X211750000Y-72096285D01*
X211702380Y-72001047D01*
X211702380Y-71762952D01*
X211750000Y-71667714D01*
X211797619Y-71620095D01*
X211892857Y-71572476D01*
X211988095Y-71572476D01*
X212130952Y-71620095D01*
X212702380Y-72191523D01*
X212702380Y-71572476D01*
X211702380Y-70667714D02*
X211702380Y-71143904D01*
X212178571Y-71191523D01*
X212130952Y-71143904D01*
X212083333Y-71048666D01*
X212083333Y-70810571D01*
X212130952Y-70715333D01*
X212178571Y-70667714D01*
X212273809Y-70620095D01*
X212511904Y-70620095D01*
X212607142Y-70667714D01*
X212654761Y-70715333D01*
X212702380Y-70810571D01*
X212702380Y-71048666D01*
X212654761Y-71143904D01*
X212607142Y-71191523D01*
G04 #@! TO.C,C31*
X193946642Y-52841142D02*
X193899023Y-52888761D01*
X193756166Y-52936380D01*
X193660928Y-52936380D01*
X193518071Y-52888761D01*
X193422833Y-52793523D01*
X193375214Y-52698285D01*
X193327595Y-52507809D01*
X193327595Y-52364952D01*
X193375214Y-52174476D01*
X193422833Y-52079238D01*
X193518071Y-51984000D01*
X193660928Y-51936380D01*
X193756166Y-51936380D01*
X193899023Y-51984000D01*
X193946642Y-52031619D01*
X194279976Y-51936380D02*
X194899023Y-51936380D01*
X194565690Y-52317333D01*
X194708547Y-52317333D01*
X194803785Y-52364952D01*
X194851404Y-52412571D01*
X194899023Y-52507809D01*
X194899023Y-52745904D01*
X194851404Y-52841142D01*
X194803785Y-52888761D01*
X194708547Y-52936380D01*
X194422833Y-52936380D01*
X194327595Y-52888761D01*
X194279976Y-52841142D01*
X195851404Y-52936380D02*
X195279976Y-52936380D01*
X195565690Y-52936380D02*
X195565690Y-51936380D01*
X195470452Y-52079238D01*
X195375214Y-52174476D01*
X195279976Y-52222095D01*
G04 #@! TO.C,C33*
X186611913Y-44734090D02*
X186659532Y-44781709D01*
X186707151Y-44924566D01*
X186707151Y-45019804D01*
X186659532Y-45162661D01*
X186564294Y-45257899D01*
X186469056Y-45305518D01*
X186278580Y-45353137D01*
X186135723Y-45353137D01*
X185945247Y-45305518D01*
X185850009Y-45257899D01*
X185754771Y-45162661D01*
X185707151Y-45019804D01*
X185707151Y-44924566D01*
X185754771Y-44781709D01*
X185802390Y-44734090D01*
X185707151Y-44400756D02*
X185707151Y-43781709D01*
X186088104Y-44115042D01*
X186088104Y-43972185D01*
X186135723Y-43876947D01*
X186183342Y-43829328D01*
X186278580Y-43781709D01*
X186516675Y-43781709D01*
X186611913Y-43829328D01*
X186659532Y-43876947D01*
X186707151Y-43972185D01*
X186707151Y-44257899D01*
X186659532Y-44353137D01*
X186611913Y-44400756D01*
X185707151Y-43448375D02*
X185707151Y-42829328D01*
X186088104Y-43162661D01*
X186088104Y-43019804D01*
X186135723Y-42924566D01*
X186183342Y-42876947D01*
X186278580Y-42829328D01*
X186516675Y-42829328D01*
X186611913Y-42876947D01*
X186659532Y-42924566D01*
X186707151Y-43019804D01*
X186707151Y-43305518D01*
X186659532Y-43400756D01*
X186611913Y-43448375D01*
G04 #@! TO.C,C36*
X198747142Y-37695142D02*
X198699523Y-37742761D01*
X198556666Y-37790380D01*
X198461428Y-37790380D01*
X198318571Y-37742761D01*
X198223333Y-37647523D01*
X198175714Y-37552285D01*
X198128095Y-37361809D01*
X198128095Y-37218952D01*
X198175714Y-37028476D01*
X198223333Y-36933238D01*
X198318571Y-36838000D01*
X198461428Y-36790380D01*
X198556666Y-36790380D01*
X198699523Y-36838000D01*
X198747142Y-36885619D01*
X199080476Y-36790380D02*
X199699523Y-36790380D01*
X199366190Y-37171333D01*
X199509047Y-37171333D01*
X199604285Y-37218952D01*
X199651904Y-37266571D01*
X199699523Y-37361809D01*
X199699523Y-37599904D01*
X199651904Y-37695142D01*
X199604285Y-37742761D01*
X199509047Y-37790380D01*
X199223333Y-37790380D01*
X199128095Y-37742761D01*
X199080476Y-37695142D01*
X200556666Y-36790380D02*
X200366190Y-36790380D01*
X200270952Y-36838000D01*
X200223333Y-36885619D01*
X200128095Y-37028476D01*
X200080476Y-37218952D01*
X200080476Y-37599904D01*
X200128095Y-37695142D01*
X200175714Y-37742761D01*
X200270952Y-37790380D01*
X200461428Y-37790380D01*
X200556666Y-37742761D01*
X200604285Y-37695142D01*
X200651904Y-37599904D01*
X200651904Y-37361809D01*
X200604285Y-37266571D01*
X200556666Y-37218952D01*
X200461428Y-37171333D01*
X200270952Y-37171333D01*
X200175714Y-37218952D01*
X200128095Y-37266571D01*
X200080476Y-37361809D01*
G04 #@! TO.C,C40*
X212099142Y-35669357D02*
X212146761Y-35716976D01*
X212194380Y-35859833D01*
X212194380Y-35955071D01*
X212146761Y-36097928D01*
X212051523Y-36193166D01*
X211956285Y-36240785D01*
X211765809Y-36288404D01*
X211622952Y-36288404D01*
X211432476Y-36240785D01*
X211337238Y-36193166D01*
X211242000Y-36097928D01*
X211194380Y-35955071D01*
X211194380Y-35859833D01*
X211242000Y-35716976D01*
X211289619Y-35669357D01*
X211527714Y-34812214D02*
X212194380Y-34812214D01*
X211146761Y-35050309D02*
X211861047Y-35288404D01*
X211861047Y-34669357D01*
X211194380Y-34097928D02*
X211194380Y-34002690D01*
X211242000Y-33907452D01*
X211289619Y-33859833D01*
X211384857Y-33812214D01*
X211575333Y-33764595D01*
X211813428Y-33764595D01*
X212003904Y-33812214D01*
X212099142Y-33859833D01*
X212146761Y-33907452D01*
X212194380Y-34002690D01*
X212194380Y-34097928D01*
X212146761Y-34193166D01*
X212099142Y-34240785D01*
X212003904Y-34288404D01*
X211813428Y-34336023D01*
X211575333Y-34336023D01*
X211384857Y-34288404D01*
X211289619Y-34240785D01*
X211242000Y-34193166D01*
X211194380Y-34097928D01*
G04 #@! TO.C,R1*
X184491333Y-32870380D02*
X184158000Y-32394190D01*
X183919904Y-32870380D02*
X183919904Y-31870380D01*
X184300857Y-31870380D01*
X184396095Y-31918000D01*
X184443714Y-31965619D01*
X184491333Y-32060857D01*
X184491333Y-32203714D01*
X184443714Y-32298952D01*
X184396095Y-32346571D01*
X184300857Y-32394190D01*
X183919904Y-32394190D01*
X185443714Y-32870380D02*
X184872285Y-32870380D01*
X185158000Y-32870380D02*
X185158000Y-31870380D01*
X185062761Y-32013238D01*
X184967523Y-32108476D01*
X184872285Y-32156095D01*
G04 #@! TO.C,R2*
X184999333Y-69954380D02*
X184666000Y-69478190D01*
X184427904Y-69954380D02*
X184427904Y-68954380D01*
X184808857Y-68954380D01*
X184904095Y-69002000D01*
X184951714Y-69049619D01*
X184999333Y-69144857D01*
X184999333Y-69287714D01*
X184951714Y-69382952D01*
X184904095Y-69430571D01*
X184808857Y-69478190D01*
X184427904Y-69478190D01*
X185380285Y-69049619D02*
X185427904Y-69002000D01*
X185523142Y-68954380D01*
X185761238Y-68954380D01*
X185856476Y-69002000D01*
X185904095Y-69049619D01*
X185951714Y-69144857D01*
X185951714Y-69240095D01*
X185904095Y-69382952D01*
X185332666Y-69954380D01*
X185951714Y-69954380D01*
G04 #@! TO.C,R3*
X191501733Y-41270180D02*
X191168400Y-40793990D01*
X190930304Y-41270180D02*
X190930304Y-40270180D01*
X191311257Y-40270180D01*
X191406495Y-40317800D01*
X191454114Y-40365419D01*
X191501733Y-40460657D01*
X191501733Y-40603514D01*
X191454114Y-40698752D01*
X191406495Y-40746371D01*
X191311257Y-40793990D01*
X190930304Y-40793990D01*
X191835066Y-40270180D02*
X192454114Y-40270180D01*
X192120780Y-40651133D01*
X192263638Y-40651133D01*
X192358876Y-40698752D01*
X192406495Y-40746371D01*
X192454114Y-40841609D01*
X192454114Y-41079704D01*
X192406495Y-41174942D01*
X192358876Y-41222561D01*
X192263638Y-41270180D01*
X191977923Y-41270180D01*
X191882685Y-41222561D01*
X191835066Y-41174942D01*
G04 #@! TO.C,R4*
X192111333Y-75128380D02*
X191778000Y-74652190D01*
X191539904Y-75128380D02*
X191539904Y-74128380D01*
X191920857Y-74128380D01*
X192016095Y-74176000D01*
X192063714Y-74223619D01*
X192111333Y-74318857D01*
X192111333Y-74461714D01*
X192063714Y-74556952D01*
X192016095Y-74604571D01*
X191920857Y-74652190D01*
X191539904Y-74652190D01*
X192968476Y-74461714D02*
X192968476Y-75128380D01*
X192730380Y-74080761D02*
X192492285Y-74795047D01*
X193111333Y-74795047D01*
G04 #@! TO.C,R5*
X191501733Y-37942780D02*
X191168400Y-37466590D01*
X190930304Y-37942780D02*
X190930304Y-36942780D01*
X191311257Y-36942780D01*
X191406495Y-36990400D01*
X191454114Y-37038019D01*
X191501733Y-37133257D01*
X191501733Y-37276114D01*
X191454114Y-37371352D01*
X191406495Y-37418971D01*
X191311257Y-37466590D01*
X190930304Y-37466590D01*
X192406495Y-36942780D02*
X191930304Y-36942780D01*
X191882685Y-37418971D01*
X191930304Y-37371352D01*
X192025542Y-37323733D01*
X192263638Y-37323733D01*
X192358876Y-37371352D01*
X192406495Y-37418971D01*
X192454114Y-37514209D01*
X192454114Y-37752304D01*
X192406495Y-37847542D01*
X192358876Y-37895161D01*
X192263638Y-37942780D01*
X192025542Y-37942780D01*
X191930304Y-37895161D01*
X191882685Y-37847542D01*
G04 #@! TO.C,R6*
X191894292Y-78701933D02*
X191560959Y-78225743D01*
X191322863Y-78701933D02*
X191322863Y-77701933D01*
X191703816Y-77701933D01*
X191799054Y-77749553D01*
X191846673Y-77797172D01*
X191894292Y-77892410D01*
X191894292Y-78035267D01*
X191846673Y-78130505D01*
X191799054Y-78178124D01*
X191703816Y-78225743D01*
X191322863Y-78225743D01*
X192751435Y-77701933D02*
X192560959Y-77701933D01*
X192465720Y-77749553D01*
X192418101Y-77797172D01*
X192322863Y-77940029D01*
X192275244Y-78130505D01*
X192275244Y-78511457D01*
X192322863Y-78606695D01*
X192370482Y-78654314D01*
X192465720Y-78701933D01*
X192656197Y-78701933D01*
X192751435Y-78654314D01*
X192799054Y-78606695D01*
X192846673Y-78511457D01*
X192846673Y-78273362D01*
X192799054Y-78178124D01*
X192751435Y-78130505D01*
X192656197Y-78082886D01*
X192465720Y-78082886D01*
X192370482Y-78130505D01*
X192322863Y-78178124D01*
X192275244Y-78273362D01*
G04 #@! TO.C,R7*
X196053550Y-46276429D02*
X195577360Y-46609763D01*
X196053550Y-46847858D02*
X195053550Y-46847858D01*
X195053550Y-46466905D01*
X195101170Y-46371667D01*
X195148789Y-46324048D01*
X195244027Y-46276429D01*
X195386884Y-46276429D01*
X195482122Y-46324048D01*
X195529741Y-46371667D01*
X195577360Y-46466905D01*
X195577360Y-46847858D01*
X195053550Y-45943096D02*
X195053550Y-45276429D01*
X196053550Y-45705001D01*
G04 #@! TO.C,R8*
X199334380Y-82970666D02*
X198858190Y-83304000D01*
X199334380Y-83542095D02*
X198334380Y-83542095D01*
X198334380Y-83161142D01*
X198382000Y-83065904D01*
X198429619Y-83018285D01*
X198524857Y-82970666D01*
X198667714Y-82970666D01*
X198762952Y-83018285D01*
X198810571Y-83065904D01*
X198858190Y-83161142D01*
X198858190Y-83542095D01*
X198762952Y-82399238D02*
X198715333Y-82494476D01*
X198667714Y-82542095D01*
X198572476Y-82589714D01*
X198524857Y-82589714D01*
X198429619Y-82542095D01*
X198382000Y-82494476D01*
X198334380Y-82399238D01*
X198334380Y-82208761D01*
X198382000Y-82113523D01*
X198429619Y-82065904D01*
X198524857Y-82018285D01*
X198572476Y-82018285D01*
X198667714Y-82065904D01*
X198715333Y-82113523D01*
X198762952Y-82208761D01*
X198762952Y-82399238D01*
X198810571Y-82494476D01*
X198858190Y-82542095D01*
X198953428Y-82589714D01*
X199143904Y-82589714D01*
X199239142Y-82542095D01*
X199286761Y-82494476D01*
X199334380Y-82399238D01*
X199334380Y-82208761D01*
X199286761Y-82113523D01*
X199239142Y-82065904D01*
X199143904Y-82018285D01*
X198953428Y-82018285D01*
X198858190Y-82065904D01*
X198810571Y-82113523D01*
X198762952Y-82208761D01*
G04 #@! TO.C,R9*
X199985333Y-78590380D02*
X199652000Y-78114190D01*
X199413904Y-78590380D02*
X199413904Y-77590380D01*
X199794857Y-77590380D01*
X199890095Y-77638000D01*
X199937714Y-77685619D01*
X199985333Y-77780857D01*
X199985333Y-77923714D01*
X199937714Y-78018952D01*
X199890095Y-78066571D01*
X199794857Y-78114190D01*
X199413904Y-78114190D01*
X200461523Y-78590380D02*
X200652000Y-78590380D01*
X200747238Y-78542761D01*
X200794857Y-78495142D01*
X200890095Y-78352285D01*
X200937714Y-78161809D01*
X200937714Y-77780857D01*
X200890095Y-77685619D01*
X200842476Y-77638000D01*
X200747238Y-77590380D01*
X200556761Y-77590380D01*
X200461523Y-77638000D01*
X200413904Y-77685619D01*
X200366285Y-77780857D01*
X200366285Y-78018952D01*
X200413904Y-78114190D01*
X200461523Y-78161809D01*
X200556761Y-78209428D01*
X200747238Y-78209428D01*
X200842476Y-78161809D01*
X200890095Y-78114190D01*
X200937714Y-78018952D01*
G04 #@! TO.C,R13*
X198747142Y-41600380D02*
X198413809Y-41124190D01*
X198175714Y-41600380D02*
X198175714Y-40600380D01*
X198556666Y-40600380D01*
X198651904Y-40648000D01*
X198699523Y-40695619D01*
X198747142Y-40790857D01*
X198747142Y-40933714D01*
X198699523Y-41028952D01*
X198651904Y-41076571D01*
X198556666Y-41124190D01*
X198175714Y-41124190D01*
X199699523Y-41600380D02*
X199128095Y-41600380D01*
X199413809Y-41600380D02*
X199413809Y-40600380D01*
X199318571Y-40743238D01*
X199223333Y-40838476D01*
X199128095Y-40886095D01*
X200032857Y-40600380D02*
X200651904Y-40600380D01*
X200318571Y-40981333D01*
X200461428Y-40981333D01*
X200556666Y-41028952D01*
X200604285Y-41076571D01*
X200651904Y-41171809D01*
X200651904Y-41409904D01*
X200604285Y-41505142D01*
X200556666Y-41552761D01*
X200461428Y-41600380D01*
X200175714Y-41600380D01*
X200080476Y-41552761D01*
X200032857Y-41505142D01*
G04 #@! TO.C,U12*
X190183904Y-26305380D02*
X190183904Y-27114904D01*
X190231523Y-27210142D01*
X190279142Y-27257761D01*
X190374380Y-27305380D01*
X190564857Y-27305380D01*
X190660095Y-27257761D01*
X190707714Y-27210142D01*
X190755333Y-27114904D01*
X190755333Y-26305380D01*
X191755333Y-27305380D02*
X191183904Y-27305380D01*
X191469619Y-27305380D02*
X191469619Y-26305380D01*
X191374380Y-26448238D01*
X191279142Y-26543476D01*
X191183904Y-26591095D01*
X192136285Y-26400619D02*
X192183904Y-26353000D01*
X192279142Y-26305380D01*
X192517238Y-26305380D01*
X192612476Y-26353000D01*
X192660095Y-26400619D01*
X192707714Y-26495857D01*
X192707714Y-26591095D01*
X192660095Y-26733952D01*
X192088666Y-27305380D01*
X192707714Y-27305380D01*
G04 #@! TO.C,U13*
X190785904Y-63262380D02*
X190785904Y-64071904D01*
X190833523Y-64167142D01*
X190881142Y-64214761D01*
X190976380Y-64262380D01*
X191166857Y-64262380D01*
X191262095Y-64214761D01*
X191309714Y-64167142D01*
X191357333Y-64071904D01*
X191357333Y-63262380D01*
X192357333Y-64262380D02*
X191785904Y-64262380D01*
X192071619Y-64262380D02*
X192071619Y-63262380D01*
X191976380Y-63405238D01*
X191881142Y-63500476D01*
X191785904Y-63548095D01*
X192690666Y-63262380D02*
X193309714Y-63262380D01*
X192976380Y-63643333D01*
X193119238Y-63643333D01*
X193214476Y-63690952D01*
X193262095Y-63738571D01*
X193309714Y-63833809D01*
X193309714Y-64071904D01*
X193262095Y-64167142D01*
X193214476Y-64214761D01*
X193119238Y-64262380D01*
X192833523Y-64262380D01*
X192738285Y-64214761D01*
X192690666Y-64167142D01*
G04 #@! TO.C,U14*
X194913921Y-84024542D02*
X195723445Y-84024542D01*
X195818683Y-83976923D01*
X195866302Y-83929304D01*
X195913921Y-83834066D01*
X195913921Y-83643589D01*
X195866302Y-83548351D01*
X195818683Y-83500732D01*
X195723445Y-83453113D01*
X194913921Y-83453113D01*
X195913921Y-82453113D02*
X195913921Y-83024542D01*
X195913921Y-82738827D02*
X194913921Y-82738827D01*
X195056779Y-82834066D01*
X195152017Y-82929304D01*
X195199636Y-83024542D01*
X195247255Y-81595970D02*
X195913921Y-81595970D01*
X194866302Y-81834066D02*
X195580588Y-82072161D01*
X195580588Y-81453113D01*
G04 #@! TO.C,U15*
X194649550Y-47322358D02*
X195459074Y-47322358D01*
X195554312Y-47274739D01*
X195601931Y-47227120D01*
X195649550Y-47131882D01*
X195649550Y-46941405D01*
X195601931Y-46846167D01*
X195554312Y-46798548D01*
X195459074Y-46750929D01*
X194649550Y-46750929D01*
X195649550Y-45750929D02*
X195649550Y-46322358D01*
X195649550Y-46036643D02*
X194649550Y-46036643D01*
X194792408Y-46131882D01*
X194887646Y-46227120D01*
X194935265Y-46322358D01*
X194649550Y-44846167D02*
X194649550Y-45322358D01*
X195125741Y-45369977D01*
X195078122Y-45322358D01*
X195030503Y-45227120D01*
X195030503Y-44989024D01*
X195078122Y-44893786D01*
X195125741Y-44846167D01*
X195220979Y-44798548D01*
X195459074Y-44798548D01*
X195554312Y-44846167D01*
X195601931Y-44893786D01*
X195649550Y-44989024D01*
X195649550Y-45227120D01*
X195601931Y-45322358D01*
X195554312Y-45369977D01*
G04 #@! TO.C,U16*
X204501904Y-68128380D02*
X204501904Y-68937904D01*
X204549523Y-69033142D01*
X204597142Y-69080761D01*
X204692380Y-69128380D01*
X204882857Y-69128380D01*
X204978095Y-69080761D01*
X205025714Y-69033142D01*
X205073333Y-68937904D01*
X205073333Y-68128380D01*
X206073333Y-69128380D02*
X205501904Y-69128380D01*
X205787619Y-69128380D02*
X205787619Y-68128380D01*
X205692380Y-68271238D01*
X205597142Y-68366476D01*
X205501904Y-68414095D01*
X206930476Y-68128380D02*
X206740000Y-68128380D01*
X206644761Y-68176000D01*
X206597142Y-68223619D01*
X206501904Y-68366476D01*
X206454285Y-68556952D01*
X206454285Y-68937904D01*
X206501904Y-69033142D01*
X206549523Y-69080761D01*
X206644761Y-69128380D01*
X206835238Y-69128380D01*
X206930476Y-69080761D01*
X206978095Y-69033142D01*
X207025714Y-68937904D01*
X207025714Y-68699809D01*
X206978095Y-68604571D01*
X206930476Y-68556952D01*
X206835238Y-68509333D01*
X206644761Y-68509333D01*
X206549523Y-68556952D01*
X206501904Y-68604571D01*
X206454285Y-68699809D01*
G04 #@! TO.C,U18*
X203899904Y-31171380D02*
X203899904Y-31980904D01*
X203947523Y-32076142D01*
X203995142Y-32123761D01*
X204090380Y-32171380D01*
X204280857Y-32171380D01*
X204376095Y-32123761D01*
X204423714Y-32076142D01*
X204471333Y-31980904D01*
X204471333Y-31171380D01*
X205471333Y-32171380D02*
X204899904Y-32171380D01*
X205185619Y-32171380D02*
X205185619Y-31171380D01*
X205090380Y-31314238D01*
X204995142Y-31409476D01*
X204899904Y-31457095D01*
X206042761Y-31599952D02*
X205947523Y-31552333D01*
X205899904Y-31504714D01*
X205852285Y-31409476D01*
X205852285Y-31361857D01*
X205899904Y-31266619D01*
X205947523Y-31219000D01*
X206042761Y-31171380D01*
X206233238Y-31171380D01*
X206328476Y-31219000D01*
X206376095Y-31266619D01*
X206423714Y-31361857D01*
X206423714Y-31409476D01*
X206376095Y-31504714D01*
X206328476Y-31552333D01*
X206233238Y-31599952D01*
X206042761Y-31599952D01*
X205947523Y-31647571D01*
X205899904Y-31695190D01*
X205852285Y-31790428D01*
X205852285Y-31980904D01*
X205899904Y-32076142D01*
X205947523Y-32123761D01*
X206042761Y-32171380D01*
X206233238Y-32171380D01*
X206328476Y-32123761D01*
X206376095Y-32076142D01*
X206423714Y-31980904D01*
X206423714Y-31790428D01*
X206376095Y-31695190D01*
X206328476Y-31647571D01*
X206233238Y-31599952D01*
G04 #@! TO.C,C4*
X178344533Y-25376142D02*
X178296914Y-25423761D01*
X178154057Y-25471380D01*
X178058819Y-25471380D01*
X177915961Y-25423761D01*
X177820723Y-25328523D01*
X177773104Y-25233285D01*
X177725485Y-25042809D01*
X177725485Y-24899952D01*
X177773104Y-24709476D01*
X177820723Y-24614238D01*
X177915961Y-24519000D01*
X178058819Y-24471380D01*
X178154057Y-24471380D01*
X178296914Y-24519000D01*
X178344533Y-24566619D01*
X179201676Y-24804714D02*
X179201676Y-25471380D01*
X178963580Y-24423761D02*
X178725485Y-25138047D01*
X179344533Y-25138047D01*
G04 #@! TO.C,U6*
X180213095Y-28687780D02*
X180213095Y-29497304D01*
X180260714Y-29592542D01*
X180308333Y-29640161D01*
X180403571Y-29687780D01*
X180594047Y-29687780D01*
X180689285Y-29640161D01*
X180736904Y-29592542D01*
X180784523Y-29497304D01*
X180784523Y-28687780D01*
X181689285Y-28687780D02*
X181498809Y-28687780D01*
X181403571Y-28735400D01*
X181355952Y-28783019D01*
X181260714Y-28925876D01*
X181213095Y-29116352D01*
X181213095Y-29497304D01*
X181260714Y-29592542D01*
X181308333Y-29640161D01*
X181403571Y-29687780D01*
X181594047Y-29687780D01*
X181689285Y-29640161D01*
X181736904Y-29592542D01*
X181784523Y-29497304D01*
X181784523Y-29259209D01*
X181736904Y-29163971D01*
X181689285Y-29116352D01*
X181594047Y-29068733D01*
X181403571Y-29068733D01*
X181308333Y-29116352D01*
X181260714Y-29163971D01*
X181213095Y-29259209D01*
G04 #@! TD*
M02*
