G04 #@! TF.GenerationSoftware,KiCad,Pcbnew,5.0.2-bee76a0~70~ubuntu18.04.1*
G04 #@! TF.CreationDate,2019-02-25T13:42:38+02:00*
G04 #@! TF.ProjectId,panels,70616e65-6c73-42e6-9b69-6361645f7063,rev?*
G04 #@! TF.SameCoordinates,Original*
G04 #@! TF.FileFunction,Legend,Top*
G04 #@! TF.FilePolarity,Positive*
%FSLAX46Y46*%
G04 Gerber Fmt 4.6, Leading zero omitted, Abs format (unit mm)*
G04 Created by KiCad (PCBNEW 5.0.2-bee76a0~70~ubuntu18.04.1) date Mon Feb 25 13:42:38 2019*
%MOMM*%
%LPD*%
G01*
G04 APERTURE LIST*
%ADD10C,0.100000*%
%ADD11C,0.150000*%
%ADD12C,0.300000*%
%ADD13C,0.400000*%
%ADD14C,0.250000*%
%ADD15C,0.600000*%
%ADD16C,0.200000*%
%ADD17C,0.225000*%
G04 APERTURE END LIST*
D10*
D11*
X177002200Y-166007200D02*
X177002200Y-198007200D01*
X285002200Y-198007200D01*
X285002200Y-166007200D01*
X177002200Y-166007200D01*
D10*
D11*
X10000000Y-10000000D02*
X10000000Y-200007200D01*
X287002200Y-200007200D01*
X287002200Y-10000000D01*
X10000000Y-10000000D01*
D10*
D11*
X12000000Y-12000000D02*
X12000000Y-198007200D01*
X285002200Y-198007200D01*
X285002200Y-12000000D01*
X12000000Y-12000000D01*
D10*
D11*
X60000000Y-12000000D02*
X60000000Y-10000000D01*
D10*
D11*
X110000000Y-12000000D02*
X110000000Y-10000000D01*
D10*
D11*
X160000000Y-12000000D02*
X160000000Y-10000000D01*
D10*
D11*
X210000000Y-12000000D02*
X210000000Y-10000000D01*
D10*
D11*
X260000000Y-12000000D02*
X260000000Y-10000000D01*
D10*
D11*
X36065476Y-11588095D02*
X35322619Y-11588095D01*
X35694047Y-11588095D02*
X35694047Y-10288095D01*
X35570238Y-10473809D01*
X35446428Y-10597619D01*
X35322619Y-10659523D01*
D10*
D11*
X85322619Y-10411904D02*
X85384523Y-10350000D01*
X85508333Y-10288095D01*
X85817857Y-10288095D01*
X85941666Y-10350000D01*
X86003571Y-10411904D01*
X86065476Y-10535714D01*
X86065476Y-10659523D01*
X86003571Y-10845238D01*
X85260714Y-11588095D01*
X86065476Y-11588095D01*
D10*
D11*
X135260714Y-10288095D02*
X136065476Y-10288095D01*
X135632142Y-10783333D01*
X135817857Y-10783333D01*
X135941666Y-10845238D01*
X136003571Y-10907142D01*
X136065476Y-11030952D01*
X136065476Y-11340476D01*
X136003571Y-11464285D01*
X135941666Y-11526190D01*
X135817857Y-11588095D01*
X135446428Y-11588095D01*
X135322619Y-11526190D01*
X135260714Y-11464285D01*
D10*
D11*
X185941666Y-10721428D02*
X185941666Y-11588095D01*
X185632142Y-10226190D02*
X185322619Y-11154761D01*
X186127380Y-11154761D01*
D10*
D11*
X236003571Y-10288095D02*
X235384523Y-10288095D01*
X235322619Y-10907142D01*
X235384523Y-10845238D01*
X235508333Y-10783333D01*
X235817857Y-10783333D01*
X235941666Y-10845238D01*
X236003571Y-10907142D01*
X236065476Y-11030952D01*
X236065476Y-11340476D01*
X236003571Y-11464285D01*
X235941666Y-11526190D01*
X235817857Y-11588095D01*
X235508333Y-11588095D01*
X235384523Y-11526190D01*
X235322619Y-11464285D01*
D10*
D11*
X285941666Y-10288095D02*
X285694047Y-10288095D01*
X285570238Y-10350000D01*
X285508333Y-10411904D01*
X285384523Y-10597619D01*
X285322619Y-10845238D01*
X285322619Y-11340476D01*
X285384523Y-11464285D01*
X285446428Y-11526190D01*
X285570238Y-11588095D01*
X285817857Y-11588095D01*
X285941666Y-11526190D01*
X286003571Y-11464285D01*
X286065476Y-11340476D01*
X286065476Y-11030952D01*
X286003571Y-10907142D01*
X285941666Y-10845238D01*
X285817857Y-10783333D01*
X285570238Y-10783333D01*
X285446428Y-10845238D01*
X285384523Y-10907142D01*
X285322619Y-11030952D01*
D10*
D11*
X60000000Y-198007200D02*
X60000000Y-200007200D01*
D10*
D11*
X110000000Y-198007200D02*
X110000000Y-200007200D01*
D10*
D11*
X160000000Y-198007200D02*
X160000000Y-200007200D01*
D10*
D11*
X210000000Y-198007200D02*
X210000000Y-200007200D01*
D10*
D11*
X260000000Y-198007200D02*
X260000000Y-200007200D01*
D10*
D11*
X36065476Y-199595295D02*
X35322619Y-199595295D01*
X35694047Y-199595295D02*
X35694047Y-198295295D01*
X35570238Y-198481009D01*
X35446428Y-198604819D01*
X35322619Y-198666723D01*
D10*
D11*
X85322619Y-198419104D02*
X85384523Y-198357200D01*
X85508333Y-198295295D01*
X85817857Y-198295295D01*
X85941666Y-198357200D01*
X86003571Y-198419104D01*
X86065476Y-198542914D01*
X86065476Y-198666723D01*
X86003571Y-198852438D01*
X85260714Y-199595295D01*
X86065476Y-199595295D01*
D10*
D11*
X135260714Y-198295295D02*
X136065476Y-198295295D01*
X135632142Y-198790533D01*
X135817857Y-198790533D01*
X135941666Y-198852438D01*
X136003571Y-198914342D01*
X136065476Y-199038152D01*
X136065476Y-199347676D01*
X136003571Y-199471485D01*
X135941666Y-199533390D01*
X135817857Y-199595295D01*
X135446428Y-199595295D01*
X135322619Y-199533390D01*
X135260714Y-199471485D01*
D10*
D11*
X185941666Y-198728628D02*
X185941666Y-199595295D01*
X185632142Y-198233390D02*
X185322619Y-199161961D01*
X186127380Y-199161961D01*
D10*
D11*
X236003571Y-198295295D02*
X235384523Y-198295295D01*
X235322619Y-198914342D01*
X235384523Y-198852438D01*
X235508333Y-198790533D01*
X235817857Y-198790533D01*
X235941666Y-198852438D01*
X236003571Y-198914342D01*
X236065476Y-199038152D01*
X236065476Y-199347676D01*
X236003571Y-199471485D01*
X235941666Y-199533390D01*
X235817857Y-199595295D01*
X235508333Y-199595295D01*
X235384523Y-199533390D01*
X235322619Y-199471485D01*
D10*
D11*
X285941666Y-198295295D02*
X285694047Y-198295295D01*
X285570238Y-198357200D01*
X285508333Y-198419104D01*
X285384523Y-198604819D01*
X285322619Y-198852438D01*
X285322619Y-199347676D01*
X285384523Y-199471485D01*
X285446428Y-199533390D01*
X285570238Y-199595295D01*
X285817857Y-199595295D01*
X285941666Y-199533390D01*
X286003571Y-199471485D01*
X286065476Y-199347676D01*
X286065476Y-199038152D01*
X286003571Y-198914342D01*
X285941666Y-198852438D01*
X285817857Y-198790533D01*
X285570238Y-198790533D01*
X285446428Y-198852438D01*
X285384523Y-198914342D01*
X285322619Y-199038152D01*
D10*
D11*
X10000000Y-60000000D02*
X12000000Y-60000000D01*
D10*
D11*
X10000000Y-110000000D02*
X12000000Y-110000000D01*
D10*
D11*
X10000000Y-160000000D02*
X12000000Y-160000000D01*
D10*
D11*
X10690476Y-35216666D02*
X11309523Y-35216666D01*
X10566666Y-35588095D02*
X11000000Y-34288095D01*
X11433333Y-35588095D01*
D10*
D11*
X11092857Y-84907142D02*
X11278571Y-84969047D01*
X11340476Y-85030952D01*
X11402380Y-85154761D01*
X11402380Y-85340476D01*
X11340476Y-85464285D01*
X11278571Y-85526190D01*
X11154761Y-85588095D01*
X10659523Y-85588095D01*
X10659523Y-84288095D01*
X11092857Y-84288095D01*
X11216666Y-84350000D01*
X11278571Y-84411904D01*
X11340476Y-84535714D01*
X11340476Y-84659523D01*
X11278571Y-84783333D01*
X11216666Y-84845238D01*
X11092857Y-84907142D01*
X10659523Y-84907142D01*
D10*
D11*
X11402380Y-135464285D02*
X11340476Y-135526190D01*
X11154761Y-135588095D01*
X11030952Y-135588095D01*
X10845238Y-135526190D01*
X10721428Y-135402380D01*
X10659523Y-135278571D01*
X10597619Y-135030952D01*
X10597619Y-134845238D01*
X10659523Y-134597619D01*
X10721428Y-134473809D01*
X10845238Y-134350000D01*
X11030952Y-134288095D01*
X11154761Y-134288095D01*
X11340476Y-134350000D01*
X11402380Y-134411904D01*
D10*
D11*
X10659523Y-185588095D02*
X10659523Y-184288095D01*
X10969047Y-184288095D01*
X11154761Y-184350000D01*
X11278571Y-184473809D01*
X11340476Y-184597619D01*
X11402380Y-184845238D01*
X11402380Y-185030952D01*
X11340476Y-185278571D01*
X11278571Y-185402380D01*
X11154761Y-185526190D01*
X10969047Y-185588095D01*
X10659523Y-185588095D01*
D10*
D11*
X287002200Y-60000000D02*
X285002200Y-60000000D01*
D10*
D11*
X287002200Y-110000000D02*
X285002200Y-110000000D01*
D10*
D11*
X287002200Y-160000000D02*
X285002200Y-160000000D01*
D10*
D11*
X285692676Y-35216666D02*
X286311723Y-35216666D01*
X285568866Y-35588095D02*
X286002200Y-34288095D01*
X286435533Y-35588095D01*
D10*
D11*
X286095057Y-84907142D02*
X286280771Y-84969047D01*
X286342676Y-85030952D01*
X286404580Y-85154761D01*
X286404580Y-85340476D01*
X286342676Y-85464285D01*
X286280771Y-85526190D01*
X286156961Y-85588095D01*
X285661723Y-85588095D01*
X285661723Y-84288095D01*
X286095057Y-84288095D01*
X286218866Y-84350000D01*
X286280771Y-84411904D01*
X286342676Y-84535714D01*
X286342676Y-84659523D01*
X286280771Y-84783333D01*
X286218866Y-84845238D01*
X286095057Y-84907142D01*
X285661723Y-84907142D01*
D10*
D11*
X286404580Y-135464285D02*
X286342676Y-135526190D01*
X286156961Y-135588095D01*
X286033152Y-135588095D01*
X285847438Y-135526190D01*
X285723628Y-135402380D01*
X285661723Y-135278571D01*
X285599819Y-135030952D01*
X285599819Y-134845238D01*
X285661723Y-134597619D01*
X285723628Y-134473809D01*
X285847438Y-134350000D01*
X286033152Y-134288095D01*
X286156961Y-134288095D01*
X286342676Y-134350000D01*
X286404580Y-134411904D01*
D10*
D11*
X285661723Y-185588095D02*
X285661723Y-184288095D01*
X285971247Y-184288095D01*
X286156961Y-184350000D01*
X286280771Y-184473809D01*
X286342676Y-184597619D01*
X286404580Y-184845238D01*
X286404580Y-185030952D01*
X286342676Y-185278571D01*
X286280771Y-185402380D01*
X286156961Y-185526190D01*
X285971247Y-185588095D01*
X285661723Y-185588095D01*
D10*
D11*
X200434342Y-193785771D02*
X200434342Y-192285771D01*
X200791485Y-192285771D01*
X201005771Y-192357200D01*
X201148628Y-192500057D01*
X201220057Y-192642914D01*
X201291485Y-192928628D01*
X201291485Y-193142914D01*
X201220057Y-193428628D01*
X201148628Y-193571485D01*
X201005771Y-193714342D01*
X200791485Y-193785771D01*
X200434342Y-193785771D01*
X202577200Y-193785771D02*
X202577200Y-193000057D01*
X202505771Y-192857200D01*
X202362914Y-192785771D01*
X202077200Y-192785771D01*
X201934342Y-192857200D01*
X202577200Y-193714342D02*
X202434342Y-193785771D01*
X202077200Y-193785771D01*
X201934342Y-193714342D01*
X201862914Y-193571485D01*
X201862914Y-193428628D01*
X201934342Y-193285771D01*
X202077200Y-193214342D01*
X202434342Y-193214342D01*
X202577200Y-193142914D01*
X203077200Y-192785771D02*
X203648628Y-192785771D01*
X203291485Y-192285771D02*
X203291485Y-193571485D01*
X203362914Y-193714342D01*
X203505771Y-193785771D01*
X203648628Y-193785771D01*
X204720057Y-193714342D02*
X204577200Y-193785771D01*
X204291485Y-193785771D01*
X204148628Y-193714342D01*
X204077200Y-193571485D01*
X204077200Y-193000057D01*
X204148628Y-192857200D01*
X204291485Y-192785771D01*
X204577200Y-192785771D01*
X204720057Y-192857200D01*
X204791485Y-193000057D01*
X204791485Y-193142914D01*
X204077200Y-193285771D01*
X205434342Y-193642914D02*
X205505771Y-193714342D01*
X205434342Y-193785771D01*
X205362914Y-193714342D01*
X205434342Y-193642914D01*
X205434342Y-193785771D01*
X205434342Y-192857200D02*
X205505771Y-192928628D01*
X205434342Y-193000057D01*
X205362914Y-192928628D01*
X205434342Y-192857200D01*
X205434342Y-193000057D01*
D10*
D11*
X177002200Y-194507200D02*
X285002200Y-194507200D01*
D10*
D11*
X178434342Y-196585771D02*
X178434342Y-195085771D01*
X179291485Y-196585771D02*
X178648628Y-195728628D01*
X179291485Y-195085771D02*
X178434342Y-195942914D01*
X179934342Y-196585771D02*
X179934342Y-195585771D01*
X179934342Y-195085771D02*
X179862914Y-195157200D01*
X179934342Y-195228628D01*
X180005771Y-195157200D01*
X179934342Y-195085771D01*
X179934342Y-195228628D01*
X181505771Y-196442914D02*
X181434342Y-196514342D01*
X181220057Y-196585771D01*
X181077200Y-196585771D01*
X180862914Y-196514342D01*
X180720057Y-196371485D01*
X180648628Y-196228628D01*
X180577200Y-195942914D01*
X180577200Y-195728628D01*
X180648628Y-195442914D01*
X180720057Y-195300057D01*
X180862914Y-195157200D01*
X181077200Y-195085771D01*
X181220057Y-195085771D01*
X181434342Y-195157200D01*
X181505771Y-195228628D01*
X182791485Y-196585771D02*
X182791485Y-195800057D01*
X182720057Y-195657200D01*
X182577200Y-195585771D01*
X182291485Y-195585771D01*
X182148628Y-195657200D01*
X182791485Y-196514342D02*
X182648628Y-196585771D01*
X182291485Y-196585771D01*
X182148628Y-196514342D01*
X182077200Y-196371485D01*
X182077200Y-196228628D01*
X182148628Y-196085771D01*
X182291485Y-196014342D01*
X182648628Y-196014342D01*
X182791485Y-195942914D01*
X184148628Y-196585771D02*
X184148628Y-195085771D01*
X184148628Y-196514342D02*
X184005771Y-196585771D01*
X183720057Y-196585771D01*
X183577200Y-196514342D01*
X183505771Y-196442914D01*
X183434342Y-196300057D01*
X183434342Y-195871485D01*
X183505771Y-195728628D01*
X183577200Y-195657200D01*
X183720057Y-195585771D01*
X184005771Y-195585771D01*
X184148628Y-195657200D01*
X186005771Y-195800057D02*
X186505771Y-195800057D01*
X186720057Y-196585771D02*
X186005771Y-196585771D01*
X186005771Y-195085771D01*
X186720057Y-195085771D01*
X187362914Y-196442914D02*
X187434342Y-196514342D01*
X187362914Y-196585771D01*
X187291485Y-196514342D01*
X187362914Y-196442914D01*
X187362914Y-196585771D01*
X188077200Y-196585771D02*
X188077200Y-195085771D01*
X188434342Y-195085771D01*
X188648628Y-195157200D01*
X188791485Y-195300057D01*
X188862914Y-195442914D01*
X188934342Y-195728628D01*
X188934342Y-195942914D01*
X188862914Y-196228628D01*
X188791485Y-196371485D01*
X188648628Y-196514342D01*
X188434342Y-196585771D01*
X188077200Y-196585771D01*
X189577200Y-196442914D02*
X189648628Y-196514342D01*
X189577200Y-196585771D01*
X189505771Y-196514342D01*
X189577200Y-196442914D01*
X189577200Y-196585771D01*
X190220057Y-196157200D02*
X190934342Y-196157200D01*
X190077200Y-196585771D02*
X190577200Y-195085771D01*
X191077200Y-196585771D01*
X191577200Y-196442914D02*
X191648628Y-196514342D01*
X191577200Y-196585771D01*
X191505771Y-196514342D01*
X191577200Y-196442914D01*
X191577200Y-196585771D01*
X194577200Y-196585771D02*
X194577200Y-195085771D01*
X194720057Y-196014342D02*
X195148628Y-196585771D01*
X195148628Y-195585771D02*
X194577200Y-196157200D01*
X195791485Y-196585771D02*
X195791485Y-195585771D01*
X195791485Y-195085771D02*
X195720057Y-195157200D01*
X195791485Y-195228628D01*
X195862914Y-195157200D01*
X195791485Y-195085771D01*
X195791485Y-195228628D01*
X197148628Y-196514342D02*
X197005771Y-196585771D01*
X196720057Y-196585771D01*
X196577200Y-196514342D01*
X196505771Y-196442914D01*
X196434342Y-196300057D01*
X196434342Y-195871485D01*
X196505771Y-195728628D01*
X196577200Y-195657200D01*
X196720057Y-195585771D01*
X197005771Y-195585771D01*
X197148628Y-195657200D01*
X198434342Y-196585771D02*
X198434342Y-195800057D01*
X198362914Y-195657200D01*
X198220057Y-195585771D01*
X197934342Y-195585771D01*
X197791485Y-195657200D01*
X198434342Y-196514342D02*
X198291485Y-196585771D01*
X197934342Y-196585771D01*
X197791485Y-196514342D01*
X197720057Y-196371485D01*
X197720057Y-196228628D01*
X197791485Y-196085771D01*
X197934342Y-196014342D01*
X198291485Y-196014342D01*
X198434342Y-195942914D01*
X199791485Y-196585771D02*
X199791485Y-195085771D01*
X199791485Y-196514342D02*
X199648628Y-196585771D01*
X199362914Y-196585771D01*
X199220057Y-196514342D01*
X199148628Y-196442914D01*
X199077200Y-196300057D01*
X199077200Y-195871485D01*
X199148628Y-195728628D01*
X199220057Y-195657200D01*
X199362914Y-195585771D01*
X199648628Y-195585771D01*
X199791485Y-195657200D01*
X202362914Y-195085771D02*
X201648628Y-195085771D01*
X201577200Y-195800057D01*
X201648628Y-195728628D01*
X201791485Y-195657200D01*
X202148628Y-195657200D01*
X202291485Y-195728628D01*
X202362914Y-195800057D01*
X202434342Y-195942914D01*
X202434342Y-196300057D01*
X202362914Y-196442914D01*
X202291485Y-196514342D01*
X202148628Y-196585771D01*
X201791485Y-196585771D01*
X201648628Y-196514342D01*
X201577200Y-196442914D01*
X203077200Y-196442914D02*
X203148628Y-196514342D01*
X203077200Y-196585771D01*
X203005771Y-196514342D01*
X203077200Y-196442914D01*
X203077200Y-196585771D01*
X204077200Y-195085771D02*
X204220057Y-195085771D01*
X204362914Y-195157200D01*
X204434342Y-195228628D01*
X204505771Y-195371485D01*
X204577200Y-195657200D01*
X204577200Y-196014342D01*
X204505771Y-196300057D01*
X204434342Y-196442914D01*
X204362914Y-196514342D01*
X204220057Y-196585771D01*
X204077200Y-196585771D01*
X203934342Y-196514342D01*
X203862914Y-196442914D01*
X203791485Y-196300057D01*
X203720057Y-196014342D01*
X203720057Y-195657200D01*
X203791485Y-195371485D01*
X203862914Y-195228628D01*
X203934342Y-195157200D01*
X204077200Y-195085771D01*
X205220057Y-196442914D02*
X205291485Y-196514342D01*
X205220057Y-196585771D01*
X205148628Y-196514342D01*
X205220057Y-196442914D01*
X205220057Y-196585771D01*
X205862914Y-195228628D02*
X205934342Y-195157200D01*
X206077200Y-195085771D01*
X206434342Y-195085771D01*
X206577200Y-195157200D01*
X206648628Y-195228628D01*
X206720057Y-195371485D01*
X206720057Y-195514342D01*
X206648628Y-195728628D01*
X205791485Y-196585771D01*
X206720057Y-196585771D01*
X207362914Y-196014342D02*
X208505771Y-196014342D01*
X209220057Y-196585771D02*
X209220057Y-195085771D01*
X209220057Y-195657200D02*
X209362914Y-195585771D01*
X209648628Y-195585771D01*
X209791485Y-195657200D01*
X209862914Y-195728628D01*
X209934342Y-195871485D01*
X209934342Y-196300057D01*
X209862914Y-196442914D01*
X209791485Y-196514342D01*
X209648628Y-196585771D01*
X209362914Y-196585771D01*
X209220057Y-196514342D01*
X211148628Y-196514342D02*
X211005771Y-196585771D01*
X210720057Y-196585771D01*
X210577200Y-196514342D01*
X210505771Y-196371485D01*
X210505771Y-195800057D01*
X210577200Y-195657200D01*
X210720057Y-195585771D01*
X211005771Y-195585771D01*
X211148628Y-195657200D01*
X211220057Y-195800057D01*
X211220057Y-195942914D01*
X210505771Y-196085771D01*
X212434342Y-196514342D02*
X212291485Y-196585771D01*
X212005771Y-196585771D01*
X211862914Y-196514342D01*
X211791485Y-196371485D01*
X211791485Y-195800057D01*
X211862914Y-195657200D01*
X212005771Y-195585771D01*
X212291485Y-195585771D01*
X212434342Y-195657200D01*
X212505771Y-195800057D01*
X212505771Y-195942914D01*
X211791485Y-196085771D01*
X213005771Y-195085771D02*
X214005771Y-195085771D01*
X213362914Y-196585771D01*
X215220057Y-195085771D02*
X214934342Y-195085771D01*
X214791485Y-195157200D01*
X214720057Y-195228628D01*
X214577200Y-195442914D01*
X214505771Y-195728628D01*
X214505771Y-196300057D01*
X214577200Y-196442914D01*
X214648628Y-196514342D01*
X214791485Y-196585771D01*
X215077200Y-196585771D01*
X215220057Y-196514342D01*
X215291485Y-196442914D01*
X215362914Y-196300057D01*
X215362914Y-195942914D01*
X215291485Y-195800057D01*
X215220057Y-195728628D01*
X215077200Y-195657200D01*
X214791485Y-195657200D01*
X214648628Y-195728628D01*
X214577200Y-195800057D01*
X214505771Y-195942914D01*
X216648628Y-196585771D02*
X216648628Y-195800057D01*
X216577200Y-195657200D01*
X216434342Y-195585771D01*
X216148628Y-195585771D01*
X216005771Y-195657200D01*
X216648628Y-196514342D02*
X216505771Y-196585771D01*
X216148628Y-196585771D01*
X216005771Y-196514342D01*
X215934342Y-196371485D01*
X215934342Y-196228628D01*
X216005771Y-196085771D01*
X216148628Y-196014342D01*
X216505771Y-196014342D01*
X216648628Y-195942914D01*
X217648628Y-195085771D02*
X217791485Y-195085771D01*
X217934342Y-195157200D01*
X218005771Y-195228628D01*
X218077200Y-195371485D01*
X218148628Y-195657200D01*
X218148628Y-196014342D01*
X218077200Y-196300057D01*
X218005771Y-196442914D01*
X217934342Y-196514342D01*
X217791485Y-196585771D01*
X217648628Y-196585771D01*
X217505771Y-196514342D01*
X217434342Y-196442914D01*
X217362914Y-196300057D01*
X217291485Y-196014342D01*
X217291485Y-195657200D01*
X217362914Y-195371485D01*
X217434342Y-195228628D01*
X217505771Y-195157200D01*
X217648628Y-195085771D01*
X218434342Y-194677200D02*
X219862914Y-194677200D01*
X218648628Y-195085771D02*
X219648628Y-195085771D01*
X219005771Y-196585771D01*
X219862914Y-194677200D02*
X221291485Y-194677200D01*
X220505771Y-195085771D02*
X220648628Y-195085771D01*
X220791485Y-195157200D01*
X220862914Y-195228628D01*
X220934342Y-195371485D01*
X221005771Y-195657200D01*
X221005771Y-196014342D01*
X220934342Y-196300057D01*
X220862914Y-196442914D01*
X220791485Y-196514342D01*
X220648628Y-196585771D01*
X220505771Y-196585771D01*
X220362914Y-196514342D01*
X220291485Y-196442914D01*
X220220057Y-196300057D01*
X220148628Y-196014342D01*
X220148628Y-195657200D01*
X220220057Y-195371485D01*
X220291485Y-195228628D01*
X220362914Y-195157200D01*
X220505771Y-195085771D01*
X222291485Y-195585771D02*
X222291485Y-196585771D01*
X221648628Y-195585771D02*
X221648628Y-196371485D01*
X221720057Y-196514342D01*
X221862914Y-196585771D01*
X222077200Y-196585771D01*
X222220057Y-196514342D01*
X222291485Y-196442914D01*
X223005771Y-196585771D02*
X223005771Y-195085771D01*
X223005771Y-195657200D02*
X223148628Y-195585771D01*
X223434342Y-195585771D01*
X223577200Y-195657200D01*
X223648628Y-195728628D01*
X223720057Y-195871485D01*
X223720057Y-196300057D01*
X223648628Y-196442914D01*
X223577200Y-196514342D01*
X223434342Y-196585771D01*
X223148628Y-196585771D01*
X223005771Y-196514342D01*
X225005771Y-195585771D02*
X225005771Y-196585771D01*
X224362914Y-195585771D02*
X224362914Y-196371485D01*
X224434342Y-196514342D01*
X224577200Y-196585771D01*
X224791485Y-196585771D01*
X224934342Y-196514342D01*
X225005771Y-196442914D01*
X225720057Y-195585771D02*
X225720057Y-196585771D01*
X225720057Y-195728628D02*
X225791485Y-195657200D01*
X225934342Y-195585771D01*
X226148628Y-195585771D01*
X226291485Y-195657200D01*
X226362914Y-195800057D01*
X226362914Y-196585771D01*
X226862914Y-195585771D02*
X227434342Y-195585771D01*
X227077200Y-195085771D02*
X227077200Y-196371485D01*
X227148628Y-196514342D01*
X227291485Y-196585771D01*
X227434342Y-196585771D01*
X228577200Y-195585771D02*
X228577200Y-196585771D01*
X227934342Y-195585771D02*
X227934342Y-196371485D01*
X228005771Y-196514342D01*
X228148628Y-196585771D01*
X228362914Y-196585771D01*
X228505771Y-196514342D01*
X228577200Y-196442914D01*
X230077200Y-196585771D02*
X229220057Y-196585771D01*
X229648628Y-196585771D02*
X229648628Y-195085771D01*
X229505771Y-195300057D01*
X229362914Y-195442914D01*
X229220057Y-195514342D01*
X230934342Y-195728628D02*
X230791485Y-195657200D01*
X230720057Y-195585771D01*
X230648628Y-195442914D01*
X230648628Y-195371485D01*
X230720057Y-195228628D01*
X230791485Y-195157200D01*
X230934342Y-195085771D01*
X231220057Y-195085771D01*
X231362914Y-195157200D01*
X231434342Y-195228628D01*
X231505771Y-195371485D01*
X231505771Y-195442914D01*
X231434342Y-195585771D01*
X231362914Y-195657200D01*
X231220057Y-195728628D01*
X230934342Y-195728628D01*
X230791485Y-195800057D01*
X230720057Y-195871485D01*
X230648628Y-196014342D01*
X230648628Y-196300057D01*
X230720057Y-196442914D01*
X230791485Y-196514342D01*
X230934342Y-196585771D01*
X231220057Y-196585771D01*
X231362914Y-196514342D01*
X231434342Y-196442914D01*
X231505771Y-196300057D01*
X231505771Y-196014342D01*
X231434342Y-195871485D01*
X231362914Y-195800057D01*
X231220057Y-195728628D01*
X232148628Y-196442914D02*
X232220057Y-196514342D01*
X232148628Y-196585771D01*
X232077200Y-196514342D01*
X232148628Y-196442914D01*
X232148628Y-196585771D01*
X233148628Y-195085771D02*
X233291485Y-195085771D01*
X233434342Y-195157200D01*
X233505771Y-195228628D01*
X233577200Y-195371485D01*
X233648628Y-195657200D01*
X233648628Y-196014342D01*
X233577200Y-196300057D01*
X233505771Y-196442914D01*
X233434342Y-196514342D01*
X233291485Y-196585771D01*
X233148628Y-196585771D01*
X233005771Y-196514342D01*
X232934342Y-196442914D01*
X232862914Y-196300057D01*
X232791485Y-196014342D01*
X232791485Y-195657200D01*
X232862914Y-195371485D01*
X232934342Y-195228628D01*
X233005771Y-195157200D01*
X233148628Y-195085771D01*
X234934342Y-195585771D02*
X234934342Y-196585771D01*
X234577200Y-195014342D02*
X234220057Y-196085771D01*
X235148628Y-196085771D01*
X235720057Y-196442914D02*
X235791485Y-196514342D01*
X235720057Y-196585771D01*
X235648628Y-196514342D01*
X235720057Y-196442914D01*
X235720057Y-196585771D01*
X237220057Y-196585771D02*
X236362914Y-196585771D01*
X236791485Y-196585771D02*
X236791485Y-195085771D01*
X236648628Y-195300057D01*
X236505771Y-195442914D01*
X236362914Y-195514342D01*
D10*
D11*
X177002200Y-191507200D02*
X285002200Y-191507200D01*
D10*
D12*
X264411485Y-193785771D02*
X263911485Y-193071485D01*
X263554342Y-193785771D02*
X263554342Y-192285771D01*
X264125771Y-192285771D01*
X264268628Y-192357200D01*
X264340057Y-192428628D01*
X264411485Y-192571485D01*
X264411485Y-192785771D01*
X264340057Y-192928628D01*
X264268628Y-193000057D01*
X264125771Y-193071485D01*
X263554342Y-193071485D01*
X265625771Y-193714342D02*
X265482914Y-193785771D01*
X265197200Y-193785771D01*
X265054342Y-193714342D01*
X264982914Y-193571485D01*
X264982914Y-193000057D01*
X265054342Y-192857200D01*
X265197200Y-192785771D01*
X265482914Y-192785771D01*
X265625771Y-192857200D01*
X265697200Y-193000057D01*
X265697200Y-193142914D01*
X264982914Y-193285771D01*
X266197200Y-192785771D02*
X266554342Y-193785771D01*
X266911485Y-192785771D01*
X267482914Y-193642914D02*
X267554342Y-193714342D01*
X267482914Y-193785771D01*
X267411485Y-193714342D01*
X267482914Y-193642914D01*
X267482914Y-193785771D01*
X267482914Y-192857200D02*
X267554342Y-192928628D01*
X267482914Y-193000057D01*
X267411485Y-192928628D01*
X267482914Y-192857200D01*
X267482914Y-193000057D01*
D10*
D11*
X178362914Y-193714342D02*
X178577200Y-193785771D01*
X178934342Y-193785771D01*
X179077200Y-193714342D01*
X179148628Y-193642914D01*
X179220057Y-193500057D01*
X179220057Y-193357200D01*
X179148628Y-193214342D01*
X179077200Y-193142914D01*
X178934342Y-193071485D01*
X178648628Y-193000057D01*
X178505771Y-192928628D01*
X178434342Y-192857200D01*
X178362914Y-192714342D01*
X178362914Y-192571485D01*
X178434342Y-192428628D01*
X178505771Y-192357200D01*
X178648628Y-192285771D01*
X179005771Y-192285771D01*
X179220057Y-192357200D01*
X179862914Y-193785771D02*
X179862914Y-192785771D01*
X179862914Y-192285771D02*
X179791485Y-192357200D01*
X179862914Y-192428628D01*
X179934342Y-192357200D01*
X179862914Y-192285771D01*
X179862914Y-192428628D01*
X180434342Y-192785771D02*
X181220057Y-192785771D01*
X180434342Y-193785771D01*
X181220057Y-193785771D01*
X182362914Y-193714342D02*
X182220057Y-193785771D01*
X181934342Y-193785771D01*
X181791485Y-193714342D01*
X181720057Y-193571485D01*
X181720057Y-193000057D01*
X181791485Y-192857200D01*
X181934342Y-192785771D01*
X182220057Y-192785771D01*
X182362914Y-192857200D01*
X182434342Y-193000057D01*
X182434342Y-193142914D01*
X181720057Y-193285771D01*
X183077200Y-193642914D02*
X183148628Y-193714342D01*
X183077200Y-193785771D01*
X183005771Y-193714342D01*
X183077200Y-193642914D01*
X183077200Y-193785771D01*
X183077200Y-192857200D02*
X183148628Y-192928628D01*
X183077200Y-193000057D01*
X183005771Y-192928628D01*
X183077200Y-192857200D01*
X183077200Y-193000057D01*
X184862914Y-193357200D02*
X185577200Y-193357200D01*
X184720057Y-193785771D02*
X185220057Y-192285771D01*
X185720057Y-193785771D01*
X186862914Y-192785771D02*
X186862914Y-193785771D01*
X186505771Y-192214342D02*
X186148628Y-193285771D01*
X187077200Y-193285771D01*
D10*
D11*
X263434342Y-196585771D02*
X263434342Y-195085771D01*
X264791485Y-196585771D02*
X264791485Y-195085771D01*
X264791485Y-196514342D02*
X264648628Y-196585771D01*
X264362914Y-196585771D01*
X264220057Y-196514342D01*
X264148628Y-196442914D01*
X264077200Y-196300057D01*
X264077200Y-195871485D01*
X264148628Y-195728628D01*
X264220057Y-195657200D01*
X264362914Y-195585771D01*
X264648628Y-195585771D01*
X264791485Y-195657200D01*
X265505771Y-196442914D02*
X265577200Y-196514342D01*
X265505771Y-196585771D01*
X265434342Y-196514342D01*
X265505771Y-196442914D01*
X265505771Y-196585771D01*
X265505771Y-195657200D02*
X265577200Y-195728628D01*
X265505771Y-195800057D01*
X265434342Y-195728628D01*
X265505771Y-195657200D01*
X265505771Y-195800057D01*
X268148628Y-196585771D02*
X267291485Y-196585771D01*
X267720057Y-196585771D02*
X267720057Y-195085771D01*
X267577200Y-195300057D01*
X267434342Y-195442914D01*
X267291485Y-195514342D01*
X269862914Y-195014342D02*
X268577200Y-196942914D01*
X271148628Y-196585771D02*
X270291485Y-196585771D01*
X270720057Y-196585771D02*
X270720057Y-195085771D01*
X270577200Y-195300057D01*
X270434342Y-195442914D01*
X270291485Y-195514342D01*
D10*
D11*
X177002200Y-187507200D02*
X285002200Y-187507200D01*
D10*
D13*
X178714580Y-188211961D02*
X179857438Y-188211961D01*
X179036009Y-190211961D02*
X179286009Y-188211961D01*
X180274104Y-190211961D02*
X180440771Y-188878628D01*
X180524104Y-188211961D02*
X180416961Y-188307200D01*
X180500295Y-188402438D01*
X180607438Y-188307200D01*
X180524104Y-188211961D01*
X180500295Y-188402438D01*
X181107438Y-188878628D02*
X181869342Y-188878628D01*
X181476485Y-188211961D02*
X181262200Y-189926247D01*
X181333628Y-190116723D01*
X181512200Y-190211961D01*
X181702676Y-190211961D01*
X182655057Y-190211961D02*
X182476485Y-190116723D01*
X182405057Y-189926247D01*
X182619342Y-188211961D01*
X184190771Y-190116723D02*
X183988390Y-190211961D01*
X183607438Y-190211961D01*
X183428866Y-190116723D01*
X183357438Y-189926247D01*
X183452676Y-189164342D01*
X183571723Y-188973866D01*
X183774104Y-188878628D01*
X184155057Y-188878628D01*
X184333628Y-188973866D01*
X184405057Y-189164342D01*
X184381247Y-189354819D01*
X183405057Y-189545295D01*
X185155057Y-190021485D02*
X185238390Y-190116723D01*
X185131247Y-190211961D01*
X185047914Y-190116723D01*
X185155057Y-190021485D01*
X185131247Y-190211961D01*
X185286009Y-188973866D02*
X185369342Y-189069104D01*
X185262200Y-189164342D01*
X185178866Y-189069104D01*
X185286009Y-188973866D01*
X185262200Y-189164342D01*
D10*
D11*
X178934342Y-185600057D02*
X178434342Y-185600057D01*
X178434342Y-186385771D02*
X178434342Y-184885771D01*
X179148628Y-184885771D01*
X179720057Y-186385771D02*
X179720057Y-185385771D01*
X179720057Y-184885771D02*
X179648628Y-184957200D01*
X179720057Y-185028628D01*
X179791485Y-184957200D01*
X179720057Y-184885771D01*
X179720057Y-185028628D01*
X180648628Y-186385771D02*
X180505771Y-186314342D01*
X180434342Y-186171485D01*
X180434342Y-184885771D01*
X181791485Y-186314342D02*
X181648628Y-186385771D01*
X181362914Y-186385771D01*
X181220057Y-186314342D01*
X181148628Y-186171485D01*
X181148628Y-185600057D01*
X181220057Y-185457200D01*
X181362914Y-185385771D01*
X181648628Y-185385771D01*
X181791485Y-185457200D01*
X181862914Y-185600057D01*
X181862914Y-185742914D01*
X181148628Y-185885771D01*
X182505771Y-186242914D02*
X182577200Y-186314342D01*
X182505771Y-186385771D01*
X182434342Y-186314342D01*
X182505771Y-186242914D01*
X182505771Y-186385771D01*
X182505771Y-185457200D02*
X182577200Y-185528628D01*
X182505771Y-185600057D01*
X182434342Y-185528628D01*
X182505771Y-185457200D01*
X182505771Y-185600057D01*
X184362914Y-185385771D02*
X184362914Y-186885771D01*
X184362914Y-185457200D02*
X184505771Y-185385771D01*
X184791485Y-185385771D01*
X184934342Y-185457200D01*
X185005771Y-185528628D01*
X185077200Y-185671485D01*
X185077200Y-186100057D01*
X185005771Y-186242914D01*
X184934342Y-186314342D01*
X184791485Y-186385771D01*
X184505771Y-186385771D01*
X184362914Y-186314342D01*
X186362914Y-186385771D02*
X186362914Y-185600057D01*
X186291485Y-185457200D01*
X186148628Y-185385771D01*
X185862914Y-185385771D01*
X185720057Y-185457200D01*
X186362914Y-186314342D02*
X186220057Y-186385771D01*
X185862914Y-186385771D01*
X185720057Y-186314342D01*
X185648628Y-186171485D01*
X185648628Y-186028628D01*
X185720057Y-185885771D01*
X185862914Y-185814342D01*
X186220057Y-185814342D01*
X186362914Y-185742914D01*
X187077200Y-185385771D02*
X187077200Y-186385771D01*
X187077200Y-185528628D02*
X187148628Y-185457200D01*
X187291485Y-185385771D01*
X187505771Y-185385771D01*
X187648628Y-185457200D01*
X187720057Y-185600057D01*
X187720057Y-186385771D01*
X189005771Y-186314342D02*
X188862914Y-186385771D01*
X188577200Y-186385771D01*
X188434342Y-186314342D01*
X188362914Y-186171485D01*
X188362914Y-185600057D01*
X188434342Y-185457200D01*
X188577200Y-185385771D01*
X188862914Y-185385771D01*
X189005771Y-185457200D01*
X189077200Y-185600057D01*
X189077200Y-185742914D01*
X188362914Y-185885771D01*
X189934342Y-186385771D02*
X189791485Y-186314342D01*
X189720057Y-186171485D01*
X189720057Y-184885771D01*
X190434342Y-186314342D02*
X190577200Y-186385771D01*
X190862914Y-186385771D01*
X191005771Y-186314342D01*
X191077200Y-186171485D01*
X191077200Y-186100057D01*
X191005771Y-185957200D01*
X190862914Y-185885771D01*
X190648628Y-185885771D01*
X190505771Y-185814342D01*
X190434342Y-185671485D01*
X190434342Y-185600057D01*
X190505771Y-185457200D01*
X190648628Y-185385771D01*
X190862914Y-185385771D01*
X191005771Y-185457200D01*
X191720057Y-186242914D02*
X191791485Y-186314342D01*
X191720057Y-186385771D01*
X191648628Y-186314342D01*
X191720057Y-186242914D01*
X191720057Y-186385771D01*
X192434342Y-186385771D02*
X192434342Y-184885771D01*
X192577200Y-185814342D02*
X193005771Y-186385771D01*
X193005771Y-185385771D02*
X192434342Y-185957200D01*
X193648628Y-186385771D02*
X193648628Y-185385771D01*
X193648628Y-184885771D02*
X193577200Y-184957200D01*
X193648628Y-185028628D01*
X193720057Y-184957200D01*
X193648628Y-184885771D01*
X193648628Y-185028628D01*
X195005771Y-186314342D02*
X194862914Y-186385771D01*
X194577200Y-186385771D01*
X194434342Y-186314342D01*
X194362914Y-186242914D01*
X194291485Y-186100057D01*
X194291485Y-185671485D01*
X194362914Y-185528628D01*
X194434342Y-185457200D01*
X194577200Y-185385771D01*
X194862914Y-185385771D01*
X195005771Y-185457200D01*
X196291485Y-186385771D02*
X196291485Y-185600057D01*
X196220057Y-185457200D01*
X196077200Y-185385771D01*
X195791485Y-185385771D01*
X195648628Y-185457200D01*
X196291485Y-186314342D02*
X196148628Y-186385771D01*
X195791485Y-186385771D01*
X195648628Y-186314342D01*
X195577200Y-186171485D01*
X195577200Y-186028628D01*
X195648628Y-185885771D01*
X195791485Y-185814342D01*
X196148628Y-185814342D01*
X196291485Y-185742914D01*
X197648628Y-186385771D02*
X197648628Y-184885771D01*
X197648628Y-186314342D02*
X197505771Y-186385771D01*
X197220057Y-186385771D01*
X197077200Y-186314342D01*
X197005771Y-186242914D01*
X196934342Y-186100057D01*
X196934342Y-185671485D01*
X197005771Y-185528628D01*
X197077200Y-185457200D01*
X197220057Y-185385771D01*
X197505771Y-185385771D01*
X197648628Y-185457200D01*
X198005771Y-186528628D02*
X199148628Y-186528628D01*
X199505771Y-185385771D02*
X199505771Y-186885771D01*
X199505771Y-185457200D02*
X199648628Y-185385771D01*
X199934342Y-185385771D01*
X200077200Y-185457200D01*
X200148628Y-185528628D01*
X200220057Y-185671485D01*
X200220057Y-186100057D01*
X200148628Y-186242914D01*
X200077200Y-186314342D01*
X199934342Y-186385771D01*
X199648628Y-186385771D01*
X199505771Y-186314342D01*
X201505771Y-186314342D02*
X201362914Y-186385771D01*
X201077200Y-186385771D01*
X200934342Y-186314342D01*
X200862914Y-186242914D01*
X200791485Y-186100057D01*
X200791485Y-185671485D01*
X200862914Y-185528628D01*
X200934342Y-185457200D01*
X201077200Y-185385771D01*
X201362914Y-185385771D01*
X201505771Y-185457200D01*
X202148628Y-186385771D02*
X202148628Y-184885771D01*
X202148628Y-185457200D02*
X202291485Y-185385771D01*
X202577200Y-185385771D01*
X202720057Y-185457200D01*
X202791485Y-185528628D01*
X202862914Y-185671485D01*
X202862914Y-186100057D01*
X202791485Y-186242914D01*
X202720057Y-186314342D01*
X202577200Y-186385771D01*
X202291485Y-186385771D01*
X202148628Y-186314342D01*
D10*
D11*
X177002200Y-181507200D02*
X285002200Y-181507200D01*
D10*
D11*
X178362914Y-183614342D02*
X178577200Y-183685771D01*
X178934342Y-183685771D01*
X179077200Y-183614342D01*
X179148628Y-183542914D01*
X179220057Y-183400057D01*
X179220057Y-183257200D01*
X179148628Y-183114342D01*
X179077200Y-183042914D01*
X178934342Y-182971485D01*
X178648628Y-182900057D01*
X178505771Y-182828628D01*
X178434342Y-182757200D01*
X178362914Y-182614342D01*
X178362914Y-182471485D01*
X178434342Y-182328628D01*
X178505771Y-182257200D01*
X178648628Y-182185771D01*
X179005771Y-182185771D01*
X179220057Y-182257200D01*
X179862914Y-183685771D02*
X179862914Y-182185771D01*
X180505771Y-183685771D02*
X180505771Y-182900057D01*
X180434342Y-182757200D01*
X180291485Y-182685771D01*
X180077200Y-182685771D01*
X179934342Y-182757200D01*
X179862914Y-182828628D01*
X181791485Y-183614342D02*
X181648628Y-183685771D01*
X181362914Y-183685771D01*
X181220057Y-183614342D01*
X181148628Y-183471485D01*
X181148628Y-182900057D01*
X181220057Y-182757200D01*
X181362914Y-182685771D01*
X181648628Y-182685771D01*
X181791485Y-182757200D01*
X181862914Y-182900057D01*
X181862914Y-183042914D01*
X181148628Y-183185771D01*
X183077200Y-183614342D02*
X182934342Y-183685771D01*
X182648628Y-183685771D01*
X182505771Y-183614342D01*
X182434342Y-183471485D01*
X182434342Y-182900057D01*
X182505771Y-182757200D01*
X182648628Y-182685771D01*
X182934342Y-182685771D01*
X183077200Y-182757200D01*
X183148628Y-182900057D01*
X183148628Y-183042914D01*
X182434342Y-183185771D01*
X183577200Y-182685771D02*
X184148628Y-182685771D01*
X183791485Y-182185771D02*
X183791485Y-183471485D01*
X183862914Y-183614342D01*
X184005771Y-183685771D01*
X184148628Y-183685771D01*
X184648628Y-183542914D02*
X184720057Y-183614342D01*
X184648628Y-183685771D01*
X184577200Y-183614342D01*
X184648628Y-183542914D01*
X184648628Y-183685771D01*
X184648628Y-182757200D02*
X184720057Y-182828628D01*
X184648628Y-182900057D01*
X184577200Y-182828628D01*
X184648628Y-182757200D01*
X184648628Y-182900057D01*
D10*
D11*
X197002200Y-191507200D02*
X197002200Y-194507200D01*
D10*
D11*
X261002200Y-191507200D02*
X261002200Y-198007200D01*
D14*
X123095238Y-21285714D02*
X123333333Y-21952380D01*
X123571428Y-21285714D01*
X124142857Y-20952380D02*
X124238095Y-20952380D01*
X124333333Y-21000000D01*
X124380952Y-21047619D01*
X124428571Y-21142857D01*
X124476190Y-21333333D01*
X124476190Y-21571428D01*
X124428571Y-21761904D01*
X124380952Y-21857142D01*
X124333333Y-21904761D01*
X124238095Y-21952380D01*
X124142857Y-21952380D01*
X124047619Y-21904761D01*
X124000000Y-21857142D01*
X123952380Y-21761904D01*
X123904761Y-21571428D01*
X123904761Y-21333333D01*
X123952380Y-21142857D01*
X124000000Y-21047619D01*
X124047619Y-21000000D01*
X124142857Y-20952380D01*
X124904761Y-21857142D02*
X124952380Y-21904761D01*
X124904761Y-21952380D01*
X124857142Y-21904761D01*
X124904761Y-21857142D01*
X124904761Y-21952380D01*
X125904761Y-21952380D02*
X125333333Y-21952380D01*
X125619047Y-21952380D02*
X125619047Y-20952380D01*
X125523809Y-21095238D01*
X125428571Y-21190476D01*
X125333333Y-21238095D01*
X126761904Y-20952380D02*
X126571428Y-20952380D01*
X126476190Y-21000000D01*
X126428571Y-21047619D01*
X126333333Y-21190476D01*
X126285714Y-21380952D01*
X126285714Y-21761904D01*
X126333333Y-21857142D01*
X126380952Y-21904761D01*
X126476190Y-21952380D01*
X126666666Y-21952380D01*
X126761904Y-21904761D01*
X126809523Y-21857142D01*
X126857142Y-21761904D01*
X126857142Y-21523809D01*
X126809523Y-21428571D01*
X126761904Y-21380952D01*
X126666666Y-21333333D01*
X126476190Y-21333333D01*
X126380952Y-21380952D01*
X126333333Y-21428571D01*
X126285714Y-21523809D01*
D15*
X116714285Y-21807142D02*
X116714285Y-19807142D01*
X116714285Y-20092857D02*
X116857142Y-19950000D01*
X117142857Y-19807142D01*
X117571428Y-19807142D01*
X117857142Y-19950000D01*
X118000000Y-20235714D01*
X118000000Y-21807142D01*
X118000000Y-20235714D02*
X118142857Y-19950000D01*
X118428571Y-19807142D01*
X118857142Y-19807142D01*
X119142857Y-19950000D01*
X119285714Y-20235714D01*
X119285714Y-21807142D01*
X120000000Y-19250000D02*
X121500000Y-19250000D01*
X121750000Y-16000000D02*
X120000000Y-19250000D01*
X114496404Y-22269582D02*
G75*
G02X113300000Y-22249999I-596405J119582D01*
G01*
X121500000Y-18250000D02*
X121750000Y-16000000D01*
X123250000Y-18250000D02*
X121500000Y-18250000D01*
X121000000Y-21750000D02*
X123250000Y-18250000D01*
X121500000Y-19250000D02*
X121000000Y-21750000D01*
X112357142Y-18714285D02*
X112642857Y-18857142D01*
X113214285Y-18857142D01*
X113500000Y-18714285D01*
X113642857Y-18428571D01*
X113642857Y-18285714D01*
X113500000Y-18000000D01*
X113214285Y-17857142D01*
X112785714Y-17857142D01*
X112500000Y-17714285D01*
X112357142Y-17428571D01*
X112357142Y-17285714D01*
X112500000Y-17000000D01*
X112785714Y-16857142D01*
X113214285Y-16857142D01*
X113500000Y-17000000D01*
X115650000Y-16750000D02*
X115650000Y-18750000D01*
X115650000Y-19750000D02*
X115650000Y-21750000D01*
X114500000Y-22000000D02*
X114500000Y-22250000D01*
X116714285Y-18807142D02*
X116714285Y-16807142D01*
X116714285Y-17092857D02*
X116857142Y-16950000D01*
X117142857Y-16807142D01*
X117571428Y-16807142D01*
X117857142Y-16950000D01*
X118000000Y-17235714D01*
X118000000Y-18807142D01*
X118000000Y-17235714D02*
X118142857Y-16950000D01*
X118428571Y-16807142D01*
X118857142Y-16807142D01*
X119142857Y-16950000D01*
X119285714Y-17235714D01*
X119285714Y-18807142D01*
X114500000Y-18750000D02*
X114500000Y-15250000D01*
X114500000Y-19750000D02*
X114500000Y-22000000D01*
X113950000Y-16250000D02*
X115050000Y-16250000D01*
X114500000Y-18750000D02*
X114750000Y-18750000D01*
X73464285Y-43807142D02*
X73464285Y-41807142D01*
X73464285Y-42092857D02*
X73607142Y-41950000D01*
X73892857Y-41807142D01*
X74321428Y-41807142D01*
X74607142Y-41950000D01*
X74750000Y-42235714D01*
X74750000Y-43807142D01*
X74750000Y-42235714D02*
X74892857Y-41950000D01*
X75178571Y-41807142D01*
X75607142Y-41807142D01*
X75892857Y-41950000D01*
X76035714Y-42235714D01*
X76035714Y-43807142D01*
D14*
X79845238Y-43285714D02*
X80083333Y-43952380D01*
X80321428Y-43285714D01*
X80892857Y-42952380D02*
X80988095Y-42952380D01*
X81083333Y-43000000D01*
X81130952Y-43047619D01*
X81178571Y-43142857D01*
X81226190Y-43333333D01*
X81226190Y-43571428D01*
X81178571Y-43761904D01*
X81130952Y-43857142D01*
X81083333Y-43904761D01*
X80988095Y-43952380D01*
X80892857Y-43952380D01*
X80797619Y-43904761D01*
X80750000Y-43857142D01*
X80702380Y-43761904D01*
X80654761Y-43571428D01*
X80654761Y-43333333D01*
X80702380Y-43142857D01*
X80750000Y-43047619D01*
X80797619Y-43000000D01*
X80892857Y-42952380D01*
X81654761Y-43857142D02*
X81702380Y-43904761D01*
X81654761Y-43952380D01*
X81607142Y-43904761D01*
X81654761Y-43857142D01*
X81654761Y-43952380D01*
X82654761Y-43952380D02*
X82083333Y-43952380D01*
X82369047Y-43952380D02*
X82369047Y-42952380D01*
X82273809Y-43095238D01*
X82178571Y-43190476D01*
X82083333Y-43238095D01*
X83511904Y-42952380D02*
X83321428Y-42952380D01*
X83226190Y-43000000D01*
X83178571Y-43047619D01*
X83083333Y-43190476D01*
X83035714Y-43380952D01*
X83035714Y-43761904D01*
X83083333Y-43857142D01*
X83130952Y-43904761D01*
X83226190Y-43952380D01*
X83416666Y-43952380D01*
X83511904Y-43904761D01*
X83559523Y-43857142D01*
X83607142Y-43761904D01*
X83607142Y-43523809D01*
X83559523Y-43428571D01*
X83511904Y-43380952D01*
X83416666Y-43333333D01*
X83226190Y-43333333D01*
X83130952Y-43380952D01*
X83083333Y-43428571D01*
X83035714Y-43523809D01*
D15*
X69107142Y-40714285D02*
X69392857Y-40857142D01*
X69964285Y-40857142D01*
X70250000Y-40714285D01*
X70392857Y-40428571D01*
X70392857Y-40285714D01*
X70250000Y-40000000D01*
X69964285Y-39857142D01*
X69535714Y-39857142D01*
X69250000Y-39714285D01*
X69107142Y-39428571D01*
X69107142Y-39285714D01*
X69250000Y-39000000D01*
X69535714Y-38857142D01*
X69964285Y-38857142D01*
X70250000Y-39000000D01*
X73464285Y-40807142D02*
X73464285Y-38807142D01*
X73464285Y-39092857D02*
X73607142Y-38950000D01*
X73892857Y-38807142D01*
X74321428Y-38807142D01*
X74607142Y-38950000D01*
X74750000Y-39235714D01*
X74750000Y-40807142D01*
X74750000Y-39235714D02*
X74892857Y-38950000D01*
X75178571Y-38807142D01*
X75607142Y-38807142D01*
X75892857Y-38950000D01*
X76035714Y-39235714D01*
X76035714Y-40807142D01*
X72400000Y-41750000D02*
X72400000Y-43750000D01*
X72400000Y-38750000D02*
X72400000Y-40750000D01*
X71250000Y-41750000D02*
X71250000Y-44000000D01*
X71250000Y-44000000D02*
X71250000Y-44250000D01*
X71250000Y-40750000D02*
X71250000Y-37250000D01*
X70700000Y-38250000D02*
X71800000Y-38250000D01*
X71250000Y-40750000D02*
X71500000Y-40750000D01*
X71246404Y-44269582D02*
G75*
G02X70050000Y-44249999I-596405J119582D01*
G01*
X78500000Y-38000000D02*
X76750000Y-41250000D01*
X76750000Y-41250000D02*
X78250000Y-41250000D01*
X78250000Y-41250000D02*
X77750000Y-43750000D01*
X77750000Y-43750000D02*
X80000000Y-40250000D01*
X80000000Y-40250000D02*
X78250000Y-40250000D01*
X78250000Y-40250000D02*
X78500000Y-38000000D01*
D16*
X81000000Y-63250000D02*
X82500000Y-61750000D01*
X55750000Y-63250000D02*
X81000000Y-63250000D01*
X54250000Y-61750000D02*
X55750000Y-63250000D01*
X39250000Y-63750000D02*
X40750000Y-62250000D01*
X14000000Y-63750000D02*
X39250000Y-63750000D01*
X12500000Y-62250000D02*
X14000000Y-63750000D01*
D12*
X101750000Y-17750000D02*
X101821428Y-17607142D01*
X101821428Y-17392857D01*
X101750000Y-17178571D01*
X101607142Y-17035714D01*
X101464285Y-16964285D01*
X101178571Y-16892857D01*
X100964285Y-16892857D01*
X100678571Y-16964285D01*
X100535714Y-17035714D01*
X100392857Y-17178571D01*
X100321428Y-17392857D01*
X100321428Y-17535714D01*
X100392857Y-17750000D01*
X100464285Y-17821428D01*
X100964285Y-17821428D01*
X100964285Y-17535714D01*
X100321428Y-18464285D02*
X101821428Y-18464285D01*
X101821428Y-19035714D01*
X101750000Y-19178571D01*
X101678571Y-19250000D01*
X101535714Y-19321428D01*
X101321428Y-19321428D01*
X101178571Y-19250000D01*
X101107142Y-19178571D01*
X101035714Y-19035714D01*
X101035714Y-18464285D01*
X100321428Y-19964285D02*
X101821428Y-19964285D01*
X101821428Y-20964285D02*
X101821428Y-21250000D01*
X101750000Y-21392857D01*
X101607142Y-21535714D01*
X101321428Y-21607142D01*
X100821428Y-21607142D01*
X100535714Y-21535714D01*
X100392857Y-21392857D01*
X100321428Y-21250000D01*
X100321428Y-20964285D01*
X100392857Y-20821428D01*
X100535714Y-20678571D01*
X100821428Y-20607142D01*
X101321428Y-20607142D01*
X101607142Y-20678571D01*
X101750000Y-20821428D01*
X101821428Y-20964285D01*
D17*
X96225000Y-11818035D02*
X96267857Y-11722797D01*
X96267857Y-11579940D01*
X96225000Y-11437083D01*
X96139285Y-11341845D01*
X96053571Y-11294226D01*
X95882142Y-11246607D01*
X95753571Y-11246607D01*
X95582142Y-11294226D01*
X95496428Y-11341845D01*
X95410714Y-11437083D01*
X95367857Y-11579940D01*
X95367857Y-11675178D01*
X95410714Y-11818035D01*
X95453571Y-11865654D01*
X95753571Y-11865654D01*
X95753571Y-11675178D01*
X95367857Y-12294226D02*
X96267857Y-12294226D01*
X95367857Y-12865654D01*
X96267857Y-12865654D01*
X95367857Y-13341845D02*
X96267857Y-13341845D01*
X96267857Y-13579940D01*
X96225000Y-13722797D01*
X96139285Y-13818035D01*
X96053571Y-13865654D01*
X95882142Y-13913273D01*
X95753571Y-13913273D01*
X95582142Y-13865654D01*
X95496428Y-13818035D01*
X95410714Y-13722797D01*
X95367857Y-13579940D01*
X95367857Y-13341845D01*
X92560714Y-9865654D02*
X92560714Y-10627559D01*
X92217857Y-10246607D02*
X92903571Y-10246607D01*
X93117857Y-11008511D02*
X93117857Y-11627559D01*
X92775000Y-11294226D01*
X92775000Y-11437083D01*
X92732142Y-11532321D01*
X92689285Y-11579940D01*
X92603571Y-11627559D01*
X92389285Y-11627559D01*
X92303571Y-11579940D01*
X92260714Y-11532321D01*
X92217857Y-11437083D01*
X92217857Y-11151369D01*
X92260714Y-11056130D01*
X92303571Y-11008511D01*
X92303571Y-12056130D02*
X92260714Y-12103750D01*
X92217857Y-12056130D01*
X92260714Y-12008511D01*
X92303571Y-12056130D01*
X92217857Y-12056130D01*
X93117857Y-12437083D02*
X93117857Y-13056130D01*
X92775000Y-12722797D01*
X92775000Y-12865654D01*
X92732142Y-12960892D01*
X92689285Y-13008511D01*
X92603571Y-13056130D01*
X92389285Y-13056130D01*
X92303571Y-13008511D01*
X92260714Y-12960892D01*
X92217857Y-12865654D01*
X92217857Y-12579940D01*
X92260714Y-12484702D01*
X92303571Y-12437083D01*
X93117857Y-13341845D02*
X92217857Y-13675178D01*
X93117857Y-14008511D01*
X89967857Y-12627559D02*
X89967857Y-12722797D01*
X89925000Y-12818035D01*
X89882142Y-12865654D01*
X89796428Y-12913273D01*
X89625000Y-12960892D01*
X89410714Y-12960892D01*
X89239285Y-12913273D01*
X89153571Y-12865654D01*
X89110714Y-12818035D01*
X89067857Y-12722797D01*
X89067857Y-12627559D01*
X89110714Y-12532321D01*
X89153571Y-12484702D01*
X89239285Y-12437083D01*
X89410714Y-12389464D01*
X89625000Y-12389464D01*
X89796428Y-12437083D01*
X89882142Y-12484702D01*
X89925000Y-12532321D01*
X89967857Y-12627559D01*
X89967857Y-13579940D02*
X89967857Y-13675178D01*
X89925000Y-13770416D01*
X89882142Y-13818035D01*
X89796428Y-13865654D01*
X89625000Y-13913273D01*
X89410714Y-13913273D01*
X89239285Y-13865654D01*
X89153571Y-13818035D01*
X89110714Y-13770416D01*
X89067857Y-13675178D01*
X89067857Y-13579940D01*
X89110714Y-13484702D01*
X89153571Y-13437083D01*
X89239285Y-13389464D01*
X89410714Y-13341845D01*
X89625000Y-13341845D01*
X89796428Y-13389464D01*
X89882142Y-13437083D01*
X89925000Y-13484702D01*
X89967857Y-13579940D01*
X86817857Y-12627559D02*
X86817857Y-12722797D01*
X86775000Y-12818035D01*
X86732142Y-12865654D01*
X86646428Y-12913273D01*
X86475000Y-12960892D01*
X86260714Y-12960892D01*
X86089285Y-12913273D01*
X86003571Y-12865654D01*
X85960714Y-12818035D01*
X85917857Y-12722797D01*
X85917857Y-12627559D01*
X85960714Y-12532321D01*
X86003571Y-12484702D01*
X86089285Y-12437083D01*
X86260714Y-12389464D01*
X86475000Y-12389464D01*
X86646428Y-12437083D01*
X86732142Y-12484702D01*
X86775000Y-12532321D01*
X86817857Y-12627559D01*
X85917857Y-13913273D02*
X85917857Y-13341845D01*
X85917857Y-13627559D02*
X86817857Y-13627559D01*
X86689285Y-13532321D01*
X86603571Y-13437083D01*
X86560714Y-13341845D01*
X83667857Y-12627559D02*
X83667857Y-12722797D01*
X83625000Y-12818035D01*
X83582142Y-12865654D01*
X83496428Y-12913273D01*
X83325000Y-12960892D01*
X83110714Y-12960892D01*
X82939285Y-12913273D01*
X82853571Y-12865654D01*
X82810714Y-12818035D01*
X82767857Y-12722797D01*
X82767857Y-12627559D01*
X82810714Y-12532321D01*
X82853571Y-12484702D01*
X82939285Y-12437083D01*
X83110714Y-12389464D01*
X83325000Y-12389464D01*
X83496428Y-12437083D01*
X83582142Y-12484702D01*
X83625000Y-12532321D01*
X83667857Y-12627559D01*
X83582142Y-13341845D02*
X83625000Y-13389464D01*
X83667857Y-13484702D01*
X83667857Y-13722797D01*
X83625000Y-13818035D01*
X83582142Y-13865654D01*
X83496428Y-13913273D01*
X83410714Y-13913273D01*
X83282142Y-13865654D01*
X82767857Y-13294226D01*
X82767857Y-13913273D01*
X80517857Y-12627559D02*
X80517857Y-12722797D01*
X80475000Y-12818035D01*
X80432142Y-12865654D01*
X80346428Y-12913273D01*
X80175000Y-12960892D01*
X79960714Y-12960892D01*
X79789285Y-12913273D01*
X79703571Y-12865654D01*
X79660714Y-12818035D01*
X79617857Y-12722797D01*
X79617857Y-12627559D01*
X79660714Y-12532321D01*
X79703571Y-12484702D01*
X79789285Y-12437083D01*
X79960714Y-12389464D01*
X80175000Y-12389464D01*
X80346428Y-12437083D01*
X80432142Y-12484702D01*
X80475000Y-12532321D01*
X80517857Y-12627559D01*
X80517857Y-13294226D02*
X80517857Y-13913273D01*
X80175000Y-13579940D01*
X80175000Y-13722797D01*
X80132142Y-13818035D01*
X80089285Y-13865654D01*
X80003571Y-13913273D01*
X79789285Y-13913273D01*
X79703571Y-13865654D01*
X79660714Y-13818035D01*
X79617857Y-13722797D01*
X79617857Y-13437083D01*
X79660714Y-13341845D01*
X79703571Y-13294226D01*
X77367857Y-12627559D02*
X77367857Y-12722797D01*
X77325000Y-12818035D01*
X77282142Y-12865654D01*
X77196428Y-12913273D01*
X77025000Y-12960892D01*
X76810714Y-12960892D01*
X76639285Y-12913273D01*
X76553571Y-12865654D01*
X76510714Y-12818035D01*
X76467857Y-12722797D01*
X76467857Y-12627559D01*
X76510714Y-12532321D01*
X76553571Y-12484702D01*
X76639285Y-12437083D01*
X76810714Y-12389464D01*
X77025000Y-12389464D01*
X77196428Y-12437083D01*
X77282142Y-12484702D01*
X77325000Y-12532321D01*
X77367857Y-12627559D01*
X77067857Y-13818035D02*
X76467857Y-13818035D01*
X77410714Y-13579940D02*
X76767857Y-13341845D01*
X76767857Y-13960892D01*
X74217857Y-12627559D02*
X74217857Y-12722797D01*
X74175000Y-12818035D01*
X74132142Y-12865654D01*
X74046428Y-12913273D01*
X73875000Y-12960892D01*
X73660714Y-12960892D01*
X73489285Y-12913273D01*
X73403571Y-12865654D01*
X73360714Y-12818035D01*
X73317857Y-12722797D01*
X73317857Y-12627559D01*
X73360714Y-12532321D01*
X73403571Y-12484702D01*
X73489285Y-12437083D01*
X73660714Y-12389464D01*
X73875000Y-12389464D01*
X74046428Y-12437083D01*
X74132142Y-12484702D01*
X74175000Y-12532321D01*
X74217857Y-12627559D01*
X74217857Y-13865654D02*
X74217857Y-13389464D01*
X73789285Y-13341845D01*
X73832142Y-13389464D01*
X73875000Y-13484702D01*
X73875000Y-13722797D01*
X73832142Y-13818035D01*
X73789285Y-13865654D01*
X73703571Y-13913273D01*
X73489285Y-13913273D01*
X73403571Y-13865654D01*
X73360714Y-13818035D01*
X73317857Y-13722797D01*
X73317857Y-13484702D01*
X73360714Y-13389464D01*
X73403571Y-13341845D01*
X74382142Y-25789107D02*
X74382142Y-26360535D01*
X74382142Y-26074821D02*
X73482142Y-26074821D01*
X73610714Y-26170059D01*
X73696428Y-26265297D01*
X73739285Y-26360535D01*
X74382142Y-24836726D02*
X74382142Y-25408154D01*
X74382142Y-25122440D02*
X73482142Y-25122440D01*
X73610714Y-25217678D01*
X73696428Y-25312916D01*
X73739285Y-25408154D01*
X77532142Y-25789107D02*
X77532142Y-26360535D01*
X77532142Y-26074821D02*
X76632142Y-26074821D01*
X76760714Y-26170059D01*
X76846428Y-26265297D01*
X76889285Y-26360535D01*
X76632142Y-25170059D02*
X76632142Y-25074821D01*
X76675000Y-24979583D01*
X76717857Y-24931964D01*
X76803571Y-24884345D01*
X76975000Y-24836726D01*
X77189285Y-24836726D01*
X77360714Y-24884345D01*
X77446428Y-24931964D01*
X77489285Y-24979583D01*
X77532142Y-25074821D01*
X77532142Y-25170059D01*
X77489285Y-25265297D01*
X77446428Y-25312916D01*
X77360714Y-25360535D01*
X77189285Y-25408154D01*
X76975000Y-25408154D01*
X76803571Y-25360535D01*
X76717857Y-25312916D01*
X76675000Y-25265297D01*
X76632142Y-25170059D01*
X79782142Y-26122440D02*
X79782142Y-26027202D01*
X79825000Y-25931964D01*
X79867857Y-25884345D01*
X79953571Y-25836726D01*
X80125000Y-25789107D01*
X80339285Y-25789107D01*
X80510714Y-25836726D01*
X80596428Y-25884345D01*
X80639285Y-25931964D01*
X80682142Y-26027202D01*
X80682142Y-26122440D01*
X80639285Y-26217678D01*
X80596428Y-26265297D01*
X80510714Y-26312916D01*
X80339285Y-26360535D01*
X80125000Y-26360535D01*
X79953571Y-26312916D01*
X79867857Y-26265297D01*
X79825000Y-26217678D01*
X79782142Y-26122440D01*
X80682142Y-25312916D02*
X80682142Y-25122440D01*
X80639285Y-25027202D01*
X80596428Y-24979583D01*
X80467857Y-24884345D01*
X80296428Y-24836726D01*
X79953571Y-24836726D01*
X79867857Y-24884345D01*
X79825000Y-24931964D01*
X79782142Y-25027202D01*
X79782142Y-25217678D01*
X79825000Y-25312916D01*
X79867857Y-25360535D01*
X79953571Y-25408154D01*
X80167857Y-25408154D01*
X80253571Y-25360535D01*
X80296428Y-25312916D01*
X80339285Y-25217678D01*
X80339285Y-25027202D01*
X80296428Y-24931964D01*
X80253571Y-24884345D01*
X80167857Y-24836726D01*
X82932142Y-26122440D02*
X82932142Y-26027202D01*
X82975000Y-25931964D01*
X83017857Y-25884345D01*
X83103571Y-25836726D01*
X83275000Y-25789107D01*
X83489285Y-25789107D01*
X83660714Y-25836726D01*
X83746428Y-25884345D01*
X83789285Y-25931964D01*
X83832142Y-26027202D01*
X83832142Y-26122440D01*
X83789285Y-26217678D01*
X83746428Y-26265297D01*
X83660714Y-26312916D01*
X83489285Y-26360535D01*
X83275000Y-26360535D01*
X83103571Y-26312916D01*
X83017857Y-26265297D01*
X82975000Y-26217678D01*
X82932142Y-26122440D01*
X83317857Y-25217678D02*
X83275000Y-25312916D01*
X83232142Y-25360535D01*
X83146428Y-25408154D01*
X83103571Y-25408154D01*
X83017857Y-25360535D01*
X82975000Y-25312916D01*
X82932142Y-25217678D01*
X82932142Y-25027202D01*
X82975000Y-24931964D01*
X83017857Y-24884345D01*
X83103571Y-24836726D01*
X83146428Y-24836726D01*
X83232142Y-24884345D01*
X83275000Y-24931964D01*
X83317857Y-25027202D01*
X83317857Y-25217678D01*
X83360714Y-25312916D01*
X83403571Y-25360535D01*
X83489285Y-25408154D01*
X83660714Y-25408154D01*
X83746428Y-25360535D01*
X83789285Y-25312916D01*
X83832142Y-25217678D01*
X83832142Y-25027202D01*
X83789285Y-24931964D01*
X83746428Y-24884345D01*
X83660714Y-24836726D01*
X83489285Y-24836726D01*
X83403571Y-24884345D01*
X83360714Y-24931964D01*
X83317857Y-25027202D01*
X86082142Y-26122440D02*
X86082142Y-26027202D01*
X86125000Y-25931964D01*
X86167857Y-25884345D01*
X86253571Y-25836726D01*
X86425000Y-25789107D01*
X86639285Y-25789107D01*
X86810714Y-25836726D01*
X86896428Y-25884345D01*
X86939285Y-25931964D01*
X86982142Y-26027202D01*
X86982142Y-26122440D01*
X86939285Y-26217678D01*
X86896428Y-26265297D01*
X86810714Y-26312916D01*
X86639285Y-26360535D01*
X86425000Y-26360535D01*
X86253571Y-26312916D01*
X86167857Y-26265297D01*
X86125000Y-26217678D01*
X86082142Y-26122440D01*
X86082142Y-25455773D02*
X86082142Y-24789107D01*
X86982142Y-25217678D01*
X89232142Y-26122440D02*
X89232142Y-26027202D01*
X89275000Y-25931964D01*
X89317857Y-25884345D01*
X89403571Y-25836726D01*
X89575000Y-25789107D01*
X89789285Y-25789107D01*
X89960714Y-25836726D01*
X90046428Y-25884345D01*
X90089285Y-25931964D01*
X90132142Y-26027202D01*
X90132142Y-26122440D01*
X90089285Y-26217678D01*
X90046428Y-26265297D01*
X89960714Y-26312916D01*
X89789285Y-26360535D01*
X89575000Y-26360535D01*
X89403571Y-26312916D01*
X89317857Y-26265297D01*
X89275000Y-26217678D01*
X89232142Y-26122440D01*
X89232142Y-24931964D02*
X89232142Y-25122440D01*
X89275000Y-25217678D01*
X89317857Y-25265297D01*
X89446428Y-25360535D01*
X89617857Y-25408154D01*
X89960714Y-25408154D01*
X90046428Y-25360535D01*
X90089285Y-25312916D01*
X90132142Y-25217678D01*
X90132142Y-25027202D01*
X90089285Y-24931964D01*
X90046428Y-24884345D01*
X89960714Y-24836726D01*
X89746428Y-24836726D01*
X89660714Y-24884345D01*
X89617857Y-24931964D01*
X89575000Y-25027202D01*
X89575000Y-25217678D01*
X89617857Y-25312916D01*
X89660714Y-25360535D01*
X89746428Y-25408154D01*
X92425000Y-26931964D02*
X92382142Y-27027202D01*
X92382142Y-27170059D01*
X92425000Y-27312916D01*
X92510714Y-27408154D01*
X92596428Y-27455773D01*
X92767857Y-27503392D01*
X92896428Y-27503392D01*
X93067857Y-27455773D01*
X93153571Y-27408154D01*
X93239285Y-27312916D01*
X93282142Y-27170059D01*
X93282142Y-27074821D01*
X93239285Y-26931964D01*
X93196428Y-26884345D01*
X92896428Y-26884345D01*
X92896428Y-27074821D01*
X93282142Y-26455773D02*
X92382142Y-26455773D01*
X93282142Y-25884345D01*
X92382142Y-25884345D01*
X93282142Y-25408154D02*
X92382142Y-25408154D01*
X92382142Y-25170059D01*
X92425000Y-25027202D01*
X92510714Y-24931964D01*
X92596428Y-24884345D01*
X92767857Y-24836726D01*
X92896428Y-24836726D01*
X93067857Y-24884345D01*
X93153571Y-24931964D01*
X93239285Y-25027202D01*
X93282142Y-25170059D01*
X93282142Y-25408154D01*
X95532142Y-28408154D02*
X96432142Y-28074821D01*
X95532142Y-27741488D01*
X95532142Y-27408154D02*
X96260714Y-27408154D01*
X96346428Y-27360535D01*
X96389285Y-27312916D01*
X96432142Y-27217678D01*
X96432142Y-27027202D01*
X96389285Y-26931964D01*
X96346428Y-26884345D01*
X96260714Y-26836726D01*
X95532142Y-26836726D01*
X96389285Y-26408154D02*
X96432142Y-26265297D01*
X96432142Y-26027202D01*
X96389285Y-25931964D01*
X96346428Y-25884345D01*
X96260714Y-25836726D01*
X96175000Y-25836726D01*
X96089285Y-25884345D01*
X96046428Y-25931964D01*
X96003571Y-26027202D01*
X95960714Y-26217678D01*
X95917857Y-26312916D01*
X95875000Y-26360535D01*
X95789285Y-26408154D01*
X95703571Y-26408154D01*
X95617857Y-26360535D01*
X95575000Y-26312916D01*
X95532142Y-26217678D01*
X95532142Y-25979583D01*
X95575000Y-25836726D01*
X95960714Y-25074821D02*
X96003571Y-24931964D01*
X96046428Y-24884345D01*
X96132142Y-24836726D01*
X96260714Y-24836726D01*
X96346428Y-24884345D01*
X96389285Y-24931964D01*
X96432142Y-25027202D01*
X96432142Y-25408154D01*
X95532142Y-25408154D01*
X95532142Y-25074821D01*
X95575000Y-24979583D01*
X95617857Y-24931964D01*
X95703571Y-24884345D01*
X95789285Y-24884345D01*
X95875000Y-24931964D01*
X95917857Y-24979583D01*
X95960714Y-25074821D01*
X95960714Y-25408154D01*
D12*
X67500000Y-21000000D02*
X67428571Y-21142857D01*
X67428571Y-21357142D01*
X67500000Y-21571428D01*
X67642857Y-21714285D01*
X67785714Y-21785714D01*
X68071428Y-21857142D01*
X68285714Y-21857142D01*
X68571428Y-21785714D01*
X68714285Y-21714285D01*
X68857142Y-21571428D01*
X68928571Y-21357142D01*
X68928571Y-21214285D01*
X68857142Y-21000000D01*
X68785714Y-20928571D01*
X68285714Y-20928571D01*
X68285714Y-21214285D01*
X68928571Y-20285714D02*
X67428571Y-20285714D01*
X67428571Y-19714285D01*
X67500000Y-19571428D01*
X67571428Y-19500000D01*
X67714285Y-19428571D01*
X67928571Y-19428571D01*
X68071428Y-19500000D01*
X68142857Y-19571428D01*
X68214285Y-19714285D01*
X68214285Y-20285714D01*
X68928571Y-18785714D02*
X67428571Y-18785714D01*
X67428571Y-17785714D02*
X67428571Y-17500000D01*
X67500000Y-17357142D01*
X67642857Y-17214285D01*
X67928571Y-17142857D01*
X68428571Y-17142857D01*
X68714285Y-17214285D01*
X68857142Y-17357142D01*
X68928571Y-17500000D01*
X68928571Y-17785714D01*
X68857142Y-17928571D01*
X68714285Y-18071428D01*
X68428571Y-18142857D01*
X67928571Y-18142857D01*
X67642857Y-18071428D01*
X67500000Y-17928571D01*
X67428571Y-17785714D01*
X29571428Y-17678571D02*
X29571428Y-16178571D01*
X30142857Y-16178571D01*
X30285714Y-16250000D01*
X30357142Y-16321428D01*
X30428571Y-16464285D01*
X30428571Y-16678571D01*
X30357142Y-16821428D01*
X30285714Y-16892857D01*
X30142857Y-16964285D01*
X29571428Y-16964285D01*
X31928571Y-17678571D02*
X31428571Y-16964285D01*
X31071428Y-17678571D02*
X31071428Y-16178571D01*
X31642857Y-16178571D01*
X31785714Y-16250000D01*
X31857142Y-16321428D01*
X31928571Y-16464285D01*
X31928571Y-16678571D01*
X31857142Y-16821428D01*
X31785714Y-16892857D01*
X31642857Y-16964285D01*
X31071428Y-16964285D01*
X32857142Y-16178571D02*
X33142857Y-16178571D01*
X33285714Y-16250000D01*
X33428571Y-16392857D01*
X33500000Y-16678571D01*
X33500000Y-17178571D01*
X33428571Y-17464285D01*
X33285714Y-17607142D01*
X33142857Y-17678571D01*
X32857142Y-17678571D01*
X32714285Y-17607142D01*
X32571428Y-17464285D01*
X32500000Y-17178571D01*
X32500000Y-16678571D01*
X32571428Y-16392857D01*
X32714285Y-16250000D01*
X32857142Y-16178571D01*
X34928571Y-16250000D02*
X34785714Y-16178571D01*
X34571428Y-16178571D01*
X34357142Y-16250000D01*
X34214285Y-16392857D01*
X34142857Y-16535714D01*
X34071428Y-16821428D01*
X34071428Y-17035714D01*
X34142857Y-17321428D01*
X34214285Y-17464285D01*
X34357142Y-17607142D01*
X34571428Y-17678571D01*
X34714285Y-17678571D01*
X34928571Y-17607142D01*
X35000000Y-17535714D01*
X35000000Y-17035714D01*
X34714285Y-17035714D01*
X36500000Y-17678571D02*
X36000000Y-16964285D01*
X35642857Y-17678571D02*
X35642857Y-16178571D01*
X36214285Y-16178571D01*
X36357142Y-16250000D01*
X36428571Y-16321428D01*
X36500000Y-16464285D01*
X36500000Y-16678571D01*
X36428571Y-16821428D01*
X36357142Y-16892857D01*
X36214285Y-16964285D01*
X35642857Y-16964285D01*
X37071428Y-17250000D02*
X37785714Y-17250000D01*
X36928571Y-17678571D02*
X37428571Y-16178571D01*
X37928571Y-17678571D01*
X38428571Y-17678571D02*
X38428571Y-16178571D01*
X38928571Y-17250000D01*
X39428571Y-16178571D01*
X39428571Y-17678571D01*
X18357142Y-13928571D02*
X18357142Y-15142857D01*
X18428571Y-15285714D01*
X18500000Y-15357142D01*
X18642857Y-15428571D01*
X18928571Y-15428571D01*
X19071428Y-15357142D01*
X19142857Y-15285714D01*
X19214285Y-15142857D01*
X19214285Y-13928571D01*
X19857142Y-15357142D02*
X20071428Y-15428571D01*
X20428571Y-15428571D01*
X20571428Y-15357142D01*
X20642857Y-15285714D01*
X20714285Y-15142857D01*
X20714285Y-15000000D01*
X20642857Y-14857142D01*
X20571428Y-14785714D01*
X20428571Y-14714285D01*
X20142857Y-14642857D01*
X20000000Y-14571428D01*
X19928571Y-14500000D01*
X19857142Y-14357142D01*
X19857142Y-14214285D01*
X19928571Y-14071428D01*
X20000000Y-14000000D01*
X20142857Y-13928571D01*
X20500000Y-13928571D01*
X20714285Y-14000000D01*
X21857142Y-14642857D02*
X22071428Y-14714285D01*
X22142857Y-14785714D01*
X22214285Y-14928571D01*
X22214285Y-15142857D01*
X22142857Y-15285714D01*
X22071428Y-15357142D01*
X21928571Y-15428571D01*
X21357142Y-15428571D01*
X21357142Y-13928571D01*
X21857142Y-13928571D01*
X22000000Y-14000000D01*
X22071428Y-14071428D01*
X22142857Y-14214285D01*
X22142857Y-14357142D01*
X22071428Y-14500000D01*
X22000000Y-14571428D01*
X21857142Y-14642857D01*
X21357142Y-14642857D01*
D16*
X60000000Y-15500000D02*
X61000000Y-16500000D01*
X44250000Y-15500000D02*
X60000000Y-15500000D01*
X43250000Y-16500000D02*
X44250000Y-15500000D01*
D14*
X45142857Y-16702380D02*
X45333333Y-16702380D01*
X45428571Y-16750000D01*
X45523809Y-16845238D01*
X45571428Y-17035714D01*
X45571428Y-17369047D01*
X45523809Y-17559523D01*
X45428571Y-17654761D01*
X45333333Y-17702380D01*
X45142857Y-17702380D01*
X45047619Y-17654761D01*
X44952380Y-17559523D01*
X44904761Y-17369047D01*
X44904761Y-17035714D01*
X44952380Y-16845238D01*
X45047619Y-16750000D01*
X45142857Y-16702380D01*
X46000000Y-16702380D02*
X46000000Y-17511904D01*
X46047619Y-17607142D01*
X46095238Y-17654761D01*
X46190476Y-17702380D01*
X46380952Y-17702380D01*
X46476190Y-17654761D01*
X46523809Y-17607142D01*
X46571428Y-17511904D01*
X46571428Y-16702380D01*
X46904761Y-16702380D02*
X47476190Y-16702380D01*
X47190476Y-17702380D02*
X47190476Y-16702380D01*
X48761904Y-16702380D02*
X48857142Y-16702380D01*
X48952380Y-16750000D01*
X49000000Y-16797619D01*
X49047619Y-16892857D01*
X49095238Y-17083333D01*
X49095238Y-17321428D01*
X49047619Y-17511904D01*
X49000000Y-17607142D01*
X48952380Y-17654761D01*
X48857142Y-17702380D01*
X48761904Y-17702380D01*
X48666666Y-17654761D01*
X48619047Y-17607142D01*
X48571428Y-17511904D01*
X48523809Y-17321428D01*
X48523809Y-17083333D01*
X48571428Y-16892857D01*
X48619047Y-16797619D01*
X48666666Y-16750000D01*
X48761904Y-16702380D01*
X55392857Y-16702380D02*
X55583333Y-16702380D01*
X55678571Y-16750000D01*
X55773809Y-16845238D01*
X55821428Y-17035714D01*
X55821428Y-17369047D01*
X55773809Y-17559523D01*
X55678571Y-17654761D01*
X55583333Y-17702380D01*
X55392857Y-17702380D01*
X55297619Y-17654761D01*
X55202380Y-17559523D01*
X55154761Y-17369047D01*
X55154761Y-17035714D01*
X55202380Y-16845238D01*
X55297619Y-16750000D01*
X55392857Y-16702380D01*
X56250000Y-16702380D02*
X56250000Y-17511904D01*
X56297619Y-17607142D01*
X56345238Y-17654761D01*
X56440476Y-17702380D01*
X56630952Y-17702380D01*
X56726190Y-17654761D01*
X56773809Y-17607142D01*
X56821428Y-17511904D01*
X56821428Y-16702380D01*
X57154761Y-16702380D02*
X57726190Y-16702380D01*
X57440476Y-17702380D02*
X57440476Y-16702380D01*
X59345238Y-17702380D02*
X58773809Y-17702380D01*
X59059523Y-17702380D02*
X59059523Y-16702380D01*
X58964285Y-16845238D01*
X58869047Y-16940476D01*
X58773809Y-16988095D01*
X43511904Y-14404761D02*
X43654761Y-14452380D01*
X43892857Y-14452380D01*
X43988095Y-14404761D01*
X44035714Y-14357142D01*
X44083333Y-14261904D01*
X44083333Y-14166666D01*
X44035714Y-14071428D01*
X43988095Y-14023809D01*
X43892857Y-13976190D01*
X43702380Y-13928571D01*
X43607142Y-13880952D01*
X43559523Y-13833333D01*
X43511904Y-13738095D01*
X43511904Y-13642857D01*
X43559523Y-13547619D01*
X43607142Y-13500000D01*
X43702380Y-13452380D01*
X43940476Y-13452380D01*
X44083333Y-13500000D01*
X44369047Y-13785714D02*
X44749999Y-13785714D01*
X44511904Y-13452380D02*
X44511904Y-14309523D01*
X44559523Y-14404761D01*
X44654761Y-14452380D01*
X44749999Y-14452380D01*
X45083333Y-14452380D02*
X45083333Y-13785714D01*
X45083333Y-13452380D02*
X45035714Y-13500000D01*
X45083333Y-13547619D01*
X45130952Y-13500000D01*
X45083333Y-13452380D01*
X45083333Y-13547619D01*
X45559523Y-14452380D02*
X45559523Y-13785714D01*
X45559523Y-13880952D02*
X45607142Y-13833333D01*
X45702380Y-13785714D01*
X45845238Y-13785714D01*
X45940476Y-13833333D01*
X45988095Y-13928571D01*
X45988095Y-14452380D01*
X45988095Y-13928571D02*
X46035714Y-13833333D01*
X46130952Y-13785714D01*
X46273809Y-13785714D01*
X46369047Y-13833333D01*
X46416666Y-13928571D01*
X46416666Y-14452380D01*
X47321428Y-13785714D02*
X47321428Y-14452380D01*
X46892857Y-13785714D02*
X46892857Y-14309523D01*
X46940476Y-14404761D01*
X47035714Y-14452380D01*
X47178571Y-14452380D01*
X47273809Y-14404761D01*
X47321428Y-14357142D01*
X47940476Y-14452380D02*
X47845238Y-14404761D01*
X47797619Y-14309523D01*
X47797619Y-13452380D01*
X48749999Y-14452380D02*
X48749999Y-13928571D01*
X48702380Y-13833333D01*
X48607142Y-13785714D01*
X48416666Y-13785714D01*
X48321428Y-13833333D01*
X48749999Y-14404761D02*
X48654761Y-14452380D01*
X48416666Y-14452380D01*
X48321428Y-14404761D01*
X48273809Y-14309523D01*
X48273809Y-14214285D01*
X48321428Y-14119047D01*
X48416666Y-14071428D01*
X48654761Y-14071428D01*
X48749999Y-14023809D01*
X49083333Y-13785714D02*
X49464285Y-13785714D01*
X49226190Y-13452380D02*
X49226190Y-14309523D01*
X49273809Y-14404761D01*
X49369047Y-14452380D01*
X49464285Y-14452380D01*
X49797619Y-14452380D02*
X49797619Y-13785714D01*
X49797619Y-13452380D02*
X49749999Y-13500000D01*
X49797619Y-13547619D01*
X49845238Y-13500000D01*
X49797619Y-13452380D01*
X49797619Y-13547619D01*
X50416666Y-14452380D02*
X50321428Y-14404761D01*
X50273809Y-14357142D01*
X50226190Y-14261904D01*
X50226190Y-13976190D01*
X50273809Y-13880952D01*
X50321428Y-13833333D01*
X50416666Y-13785714D01*
X50559523Y-13785714D01*
X50654761Y-13833333D01*
X50702380Y-13880952D01*
X50749999Y-13976190D01*
X50749999Y-14261904D01*
X50702380Y-14357142D01*
X50654761Y-14404761D01*
X50559523Y-14452380D01*
X50416666Y-14452380D01*
X51178571Y-13785714D02*
X51178571Y-14452380D01*
X51178571Y-13880952D02*
X51226190Y-13833333D01*
X51321428Y-13785714D01*
X51464285Y-13785714D01*
X51559523Y-13833333D01*
X51607142Y-13928571D01*
X51607142Y-14452380D01*
X52845238Y-14452380D02*
X52845238Y-13785714D01*
X52845238Y-13452380D02*
X52797619Y-13500000D01*
X52845238Y-13547619D01*
X52892857Y-13500000D01*
X52845238Y-13452380D01*
X52845238Y-13547619D01*
X53321428Y-13785714D02*
X53321428Y-14452380D01*
X53321428Y-13880952D02*
X53369047Y-13833333D01*
X53464285Y-13785714D01*
X53607142Y-13785714D01*
X53702380Y-13833333D01*
X53749999Y-13928571D01*
X53749999Y-14452380D01*
X54988095Y-13785714D02*
X54988095Y-14785714D01*
X54988095Y-13833333D02*
X55083333Y-13785714D01*
X55273809Y-13785714D01*
X55369047Y-13833333D01*
X55416666Y-13880952D01*
X55464285Y-13976190D01*
X55464285Y-14261904D01*
X55416666Y-14357142D01*
X55369047Y-14404761D01*
X55273809Y-14452380D01*
X55083333Y-14452380D01*
X54988095Y-14404761D01*
X55892857Y-14452380D02*
X55892857Y-13785714D01*
X55892857Y-13976190D02*
X55940476Y-13880952D01*
X55988095Y-13833333D01*
X56083333Y-13785714D01*
X56178571Y-13785714D01*
X56654761Y-14452380D02*
X56559523Y-14404761D01*
X56511904Y-14357142D01*
X56464285Y-14261904D01*
X56464285Y-13976190D01*
X56511904Y-13880952D01*
X56559523Y-13833333D01*
X56654761Y-13785714D01*
X56797619Y-13785714D01*
X56892857Y-13833333D01*
X56940476Y-13880952D01*
X56988095Y-13976190D01*
X56988095Y-14261904D01*
X56940476Y-14357142D01*
X56892857Y-14404761D01*
X56797619Y-14452380D01*
X56654761Y-14452380D01*
X57845238Y-13785714D02*
X57845238Y-14595238D01*
X57797619Y-14690476D01*
X57749999Y-14738095D01*
X57654761Y-14785714D01*
X57511904Y-14785714D01*
X57416666Y-14738095D01*
X57845238Y-14404761D02*
X57749999Y-14452380D01*
X57559523Y-14452380D01*
X57464285Y-14404761D01*
X57416666Y-14357142D01*
X57369047Y-14261904D01*
X57369047Y-13976190D01*
X57416666Y-13880952D01*
X57464285Y-13833333D01*
X57559523Y-13785714D01*
X57749999Y-13785714D01*
X57845238Y-13833333D01*
X58321428Y-14452380D02*
X58321428Y-13785714D01*
X58321428Y-13976190D02*
X58369047Y-13880952D01*
X58416666Y-13833333D01*
X58511904Y-13785714D01*
X58607142Y-13785714D01*
X59321428Y-14404761D02*
X59226190Y-14452380D01*
X59035714Y-14452380D01*
X58940476Y-14404761D01*
X58892857Y-14309523D01*
X58892857Y-13928571D01*
X58940476Y-13833333D01*
X59035714Y-13785714D01*
X59226190Y-13785714D01*
X59321428Y-13833333D01*
X59369047Y-13928571D01*
X59369047Y-14023809D01*
X58892857Y-14119047D01*
X59749999Y-14404761D02*
X59845238Y-14452380D01*
X60035714Y-14452380D01*
X60130952Y-14404761D01*
X60178571Y-14309523D01*
X60178571Y-14261904D01*
X60130952Y-14166666D01*
X60035714Y-14119047D01*
X59892857Y-14119047D01*
X59797619Y-14071428D01*
X59749999Y-13976190D01*
X59749999Y-13928571D01*
X59797619Y-13833333D01*
X59892857Y-13785714D01*
X60035714Y-13785714D01*
X60130952Y-13833333D01*
X60559523Y-14404761D02*
X60654761Y-14452380D01*
X60845238Y-14452380D01*
X60940476Y-14404761D01*
X60988095Y-14309523D01*
X60988095Y-14261904D01*
X60940476Y-14166666D01*
X60845238Y-14119047D01*
X60702380Y-14119047D01*
X60607142Y-14071428D01*
X60559523Y-13976190D01*
X60559523Y-13928571D01*
X60607142Y-13833333D01*
X60702380Y-13785714D01*
X60845238Y-13785714D01*
X60940476Y-13833333D01*
D12*
X119071428Y-64178571D02*
X119071428Y-62678571D01*
X119785714Y-64178571D02*
X119785714Y-62678571D01*
X120642857Y-64178571D01*
X120642857Y-62678571D01*
X121357142Y-64178571D02*
X121357142Y-62678571D01*
X121928571Y-62678571D01*
X122071428Y-62750000D01*
X122142857Y-62821428D01*
X122214285Y-62964285D01*
X122214285Y-63178571D01*
X122142857Y-63321428D01*
X122071428Y-63392857D01*
X121928571Y-63464285D01*
X121357142Y-63464285D01*
X122857142Y-62678571D02*
X122857142Y-63892857D01*
X122928571Y-64035714D01*
X123000000Y-64107142D01*
X123142857Y-64178571D01*
X123428571Y-64178571D01*
X123571428Y-64107142D01*
X123642857Y-64035714D01*
X123714285Y-63892857D01*
X123714285Y-62678571D01*
X124214285Y-62678571D02*
X125071428Y-62678571D01*
X124642857Y-64178571D02*
X124642857Y-62678571D01*
X127500000Y-64178571D02*
X126642857Y-64178571D01*
X127071428Y-64178571D02*
X127071428Y-62678571D01*
X126928571Y-62892857D01*
X126785714Y-63035714D01*
X126642857Y-63107142D01*
X95821428Y-64678571D02*
X95821428Y-63178571D01*
X96535714Y-64678571D02*
X96535714Y-63178571D01*
X97392857Y-64678571D01*
X97392857Y-63178571D01*
X98107142Y-64678571D02*
X98107142Y-63178571D01*
X98678571Y-63178571D01*
X98821428Y-63250000D01*
X98892857Y-63321428D01*
X98964285Y-63464285D01*
X98964285Y-63678571D01*
X98892857Y-63821428D01*
X98821428Y-63892857D01*
X98678571Y-63964285D01*
X98107142Y-63964285D01*
X99607142Y-63178571D02*
X99607142Y-64392857D01*
X99678571Y-64535714D01*
X99750000Y-64607142D01*
X99892857Y-64678571D01*
X100178571Y-64678571D01*
X100321428Y-64607142D01*
X100392857Y-64535714D01*
X100464285Y-64392857D01*
X100464285Y-63178571D01*
X100964285Y-63178571D02*
X101821428Y-63178571D01*
X101392857Y-64678571D02*
X101392857Y-63178571D01*
X103750000Y-63178571D02*
X103892857Y-63178571D01*
X104035714Y-63250000D01*
X104107142Y-63321428D01*
X104178571Y-63464285D01*
X104250000Y-63750000D01*
X104250000Y-64107142D01*
X104178571Y-64392857D01*
X104107142Y-64535714D01*
X104035714Y-64607142D01*
X103892857Y-64678571D01*
X103750000Y-64678571D01*
X103607142Y-64607142D01*
X103535714Y-64535714D01*
X103464285Y-64392857D01*
X103392857Y-64107142D01*
X103392857Y-63750000D01*
X103464285Y-63464285D01*
X103535714Y-63321428D01*
X103607142Y-63250000D01*
X103750000Y-63178571D01*
X62857142Y-65178571D02*
X63142857Y-65178571D01*
X63285714Y-65250000D01*
X63428571Y-65392857D01*
X63500000Y-65678571D01*
X63500000Y-66178571D01*
X63428571Y-66464285D01*
X63285714Y-66607142D01*
X63142857Y-66678571D01*
X62857142Y-66678571D01*
X62714285Y-66607142D01*
X62571428Y-66464285D01*
X62500000Y-66178571D01*
X62500000Y-65678571D01*
X62571428Y-65392857D01*
X62714285Y-65250000D01*
X62857142Y-65178571D01*
X64142857Y-65178571D02*
X64142857Y-66392857D01*
X64214285Y-66535714D01*
X64285714Y-66607142D01*
X64428571Y-66678571D01*
X64714285Y-66678571D01*
X64857142Y-66607142D01*
X64928571Y-66535714D01*
X65000000Y-66392857D01*
X65000000Y-65178571D01*
X65500000Y-65178571D02*
X66357142Y-65178571D01*
X65928571Y-66678571D02*
X65928571Y-65178571D01*
X66857142Y-66678571D02*
X66857142Y-65178571D01*
X67428571Y-65178571D01*
X67571428Y-65250000D01*
X67642857Y-65321428D01*
X67714285Y-65464285D01*
X67714285Y-65678571D01*
X67642857Y-65821428D01*
X67571428Y-65892857D01*
X67428571Y-65964285D01*
X66857142Y-65964285D01*
X68357142Y-65178571D02*
X68357142Y-66392857D01*
X68428571Y-66535714D01*
X68500000Y-66607142D01*
X68642857Y-66678571D01*
X68928571Y-66678571D01*
X69071428Y-66607142D01*
X69142857Y-66535714D01*
X69214285Y-66392857D01*
X69214285Y-65178571D01*
X69714285Y-65178571D02*
X70571428Y-65178571D01*
X70142857Y-66678571D02*
X70142857Y-65178571D01*
X73000000Y-66678571D02*
X72142857Y-66678571D01*
X72571428Y-66678571D02*
X72571428Y-65178571D01*
X72428571Y-65392857D01*
X72285714Y-65535714D01*
X72142857Y-65607142D01*
X21107142Y-65678571D02*
X21392857Y-65678571D01*
X21535714Y-65750000D01*
X21678571Y-65892857D01*
X21750000Y-66178571D01*
X21750000Y-66678571D01*
X21678571Y-66964285D01*
X21535714Y-67107142D01*
X21392857Y-67178571D01*
X21107142Y-67178571D01*
X20964285Y-67107142D01*
X20821428Y-66964285D01*
X20750000Y-66678571D01*
X20750000Y-66178571D01*
X20821428Y-65892857D01*
X20964285Y-65750000D01*
X21107142Y-65678571D01*
X22392857Y-65678571D02*
X22392857Y-66892857D01*
X22464285Y-67035714D01*
X22535714Y-67107142D01*
X22678571Y-67178571D01*
X22964285Y-67178571D01*
X23107142Y-67107142D01*
X23178571Y-67035714D01*
X23250000Y-66892857D01*
X23250000Y-65678571D01*
X23750000Y-65678571D02*
X24607142Y-65678571D01*
X24178571Y-67178571D02*
X24178571Y-65678571D01*
X25107142Y-67178571D02*
X25107142Y-65678571D01*
X25678571Y-65678571D01*
X25821428Y-65750000D01*
X25892857Y-65821428D01*
X25964285Y-65964285D01*
X25964285Y-66178571D01*
X25892857Y-66321428D01*
X25821428Y-66392857D01*
X25678571Y-66464285D01*
X25107142Y-66464285D01*
X26607142Y-65678571D02*
X26607142Y-66892857D01*
X26678571Y-67035714D01*
X26750000Y-67107142D01*
X26892857Y-67178571D01*
X27178571Y-67178571D01*
X27321428Y-67107142D01*
X27392857Y-67035714D01*
X27464285Y-66892857D01*
X27464285Y-65678571D01*
X27964285Y-65678571D02*
X28821428Y-65678571D01*
X28392857Y-67178571D02*
X28392857Y-65678571D01*
X30750000Y-65678571D02*
X30892857Y-65678571D01*
X31035714Y-65750000D01*
X31107142Y-65821428D01*
X31178571Y-65964285D01*
X31250000Y-66250000D01*
X31250000Y-66607142D01*
X31178571Y-66892857D01*
X31107142Y-67035714D01*
X31035714Y-67107142D01*
X30892857Y-67178571D01*
X30750000Y-67178571D01*
X30607142Y-67107142D01*
X30535714Y-67035714D01*
X30464285Y-66892857D01*
X30392857Y-66607142D01*
X30392857Y-66250000D01*
X30464285Y-65964285D01*
X30535714Y-65821428D01*
X30607142Y-65750000D01*
X30750000Y-65678571D01*
M02*
