%TF.GenerationSoftware,KiCad,Pcbnew,10.0.1*%
%TF.CreationDate,2026-07-06T15:16:56+01:00*%
%TF.ProjectId,panel-back,70616e65-6c2d-4626-9163-6b2e6b696361,rev?*%
%TF.SameCoordinates,PX4b571c0PY49e8e60*%
%TF.FileFunction,Drillmap*%
%TF.FilePolarity,Positive*%
%FSLAX45Y45*%
G04 Gerber Fmt 4.5, Leading zero omitted, Abs format (unit mm)*
G04 Created by KiCad (PCBNEW 10.0.1) date 2026-07-06 15:16:56*
%MOMM*%
%LPD*%
G01*
G04 APERTURE LIST*
%ADD10C,0.250000*%
%ADD11C,0.150000*%
%ADD12C,0.200000*%
G04 APERTURE END LIST*
D10*
X0Y2000000D02*
X0Y1500000D01*
X0Y2000000D02*
G75*
G02*
X32405Y2487711I7749850J-269990D01*
G01*
X32405Y1012289D02*
G75*
G02*
X0Y1500000I7717835J757731D01*
G01*
X32405Y1012289D02*
X32454Y1011759D01*
X32511Y1011229D01*
X32577Y1010701D01*
X32650Y1010174D01*
X32731Y1009648D01*
X32820Y1009123D01*
X32917Y1008599D01*
X33021Y1008076D01*
X33134Y1007554D01*
X33255Y1007033D01*
X33383Y1006514D01*
X33520Y1005996D01*
X33664Y1005479D01*
X33816Y1004963D01*
X33976Y1004448D01*
X34145Y1003935D01*
X34321Y1003424D01*
X34505Y1002913D01*
X34697Y1002404D01*
X34897Y1001897D01*
X35105Y1001391D01*
X35321Y1000887D01*
X35545Y1000385D01*
X35777Y999884D01*
X36016Y999385D01*
X36264Y998888D01*
X36520Y998392D01*
X36784Y997899D01*
X37056Y997408D01*
X37335Y996918D01*
X37623Y996432D01*
X37919Y995947D01*
X38222Y995464D01*
X38534Y994985D01*
X38853Y994507D01*
X39180Y994032D01*
X39515Y993560D01*
X39858Y993091D01*
X40209Y992625D01*
X40567Y992161D01*
X40933Y991701D01*
X41307Y991244D01*
X41688Y990790D01*
X42077Y990340D01*
X42473Y989893D01*
X42877Y989450D01*
X43289Y989010D01*
X43707Y988574D01*
X44133Y988143D01*
X44566Y987715D01*
X45006Y987292D01*
X45453Y986873D01*
X45908Y986458D01*
X46368Y986049D01*
X46836Y985643D01*
X47310Y985243D01*
X47791Y984848D01*
X48278Y984457D01*
X48772Y984072D01*
X49271Y983692D01*
X49777Y983318D01*
X50288Y982949D01*
X50806Y982586D01*
X51329Y982229D01*
X51857Y981878D01*
X52390Y981533D01*
X52929Y981194D01*
X53473Y980862D01*
X54022Y980535D01*
X54575Y980216D01*
X55133Y979903D01*
X55695Y979596D01*
X56261Y979297D01*
X56831Y979005D01*
X57405Y978719D01*
X57982Y978441D01*
X58272Y978305D01*
X58563Y978170D01*
X58855Y978037D01*
X59147Y977906D01*
X59440Y977777D01*
X59734Y977650D01*
X60029Y977525D01*
X60324Y977401D01*
X60620Y977280D01*
X60917Y977160D01*
X61214Y977042D01*
X61512Y976927D01*
X61810Y976813D01*
X62109Y976701D01*
X62409Y976591D01*
X62709Y976483D01*
X63009Y976377D01*
X63310Y976272D01*
X63611Y976170D01*
X63913Y976070D01*
X64215Y975972D01*
X64518Y975876D01*
X64820Y975781D01*
X65123Y975689D01*
X65427Y975599D01*
X65730Y975511D01*
X66034Y975425D01*
X66338Y975340D01*
X66642Y975258D01*
X66947Y975178D01*
X67251Y975100D01*
X67556Y975024D01*
X67861Y974950D01*
X68165Y974878D01*
X68470Y974808D01*
X68775Y974740D01*
X69080Y974675D01*
X69385Y974611D01*
X69690Y974549D01*
X69995Y974489D01*
X70299Y974432D01*
X70604Y974376D01*
X70908Y974323D01*
X71213Y974271D01*
X71517Y974222D01*
X71821Y974175D01*
X72125Y974129D01*
X72429Y974086D01*
X72732Y974045D01*
X73035Y974006D01*
X73338Y973969D01*
X73640Y973934D01*
X73943Y973901D01*
X74245Y973870D01*
X74546Y973842D01*
X74847Y973815D01*
X75148Y973790D01*
X75449Y973767D01*
X75748Y973747D01*
X76048Y973728D01*
X76347Y973712D01*
X76646Y973697D01*
X76944Y973685D01*
X77242Y973674D01*
X77539Y973666D01*
X77836Y973659D01*
X78132Y973655D01*
X78427Y973652D01*
X78722Y973652D01*
X79017Y973654D01*
X79310Y973657D01*
X79604Y973663D01*
X79896Y973671D01*
X80188Y973680D01*
X80479Y973692D01*
X80770Y973705D01*
X81060Y973721D01*
X81349Y973738D01*
X81638Y973758D01*
X81926Y973779D01*
X82213Y973803D01*
X82499Y973828D01*
X82785Y973855D01*
X83070Y973885D01*
X83354Y973916D01*
X83638Y973949D01*
X83920Y973984D01*
X84202Y974021D01*
X84483Y974060D01*
X84763Y974100D01*
X85042Y974143D01*
X85321Y974188D01*
X85599Y974234D01*
X85876Y974283D01*
X86152Y974333D01*
X86427Y974385D01*
X86701Y974439D01*
X86975Y974495D01*
X87247Y974553D01*
X87519Y974612D01*
X87790Y974674D01*
X88060Y974737D01*
X88329Y974802D01*
X88597Y974870D01*
X88864Y974938D01*
X89131Y975009D01*
X89396Y975082D01*
X89660Y975156D01*
X89924Y975232D01*
X90186Y975310D01*
X90448Y975390D01*
X90709Y975472D01*
X90968Y975555D01*
X91227Y975640D01*
X91485Y975727D01*
X91742Y975816D01*
X91997Y975907D01*
X92252Y975999D01*
X92506Y976093D01*
X92759Y976189D01*
X93011Y976287D01*
X93262Y976386D01*
X93512Y976487D01*
X93761Y976591D01*
X94009Y976695D01*
X94256Y976802D01*
X94502Y976910D01*
X94747Y977020D01*
X94991Y977132D01*
X95234Y977245D01*
X95475Y977360D01*
X95716Y977477D01*
X95956Y977596D01*
X96195Y977717D01*
X96433Y977839D01*
X96670Y977963D01*
X96905Y978088D01*
X97140Y978216D01*
X97374Y978345D01*
X97607Y978475D01*
X97838Y978608D01*
X98069Y978742D01*
X98298Y978878D01*
X98527Y979016D01*
X98755Y979155D01*
X98981Y979296D01*
X99206Y979439D01*
X99431Y979583D01*
X99697Y979758D01*
X99697Y2520242D02*
X99251Y2520533D01*
X98800Y2520817D01*
X98346Y2521094D01*
X97887Y2521364D01*
X97425Y2521627D01*
X96958Y2521884D01*
X96487Y2522133D01*
X96012Y2522376D01*
X95533Y2522612D01*
X95050Y2522841D01*
X94563Y2523063D01*
X94072Y2523278D01*
X93578Y2523486D01*
X93079Y2523687D01*
X92576Y2523881D01*
X92070Y2524068D01*
X91559Y2524247D01*
X91045Y2524420D01*
X90527Y2524586D01*
X90005Y2524744D01*
X89479Y2524895D01*
X88950Y2525039D01*
X88417Y2525176D01*
X87881Y2525305D01*
X87341Y2525427D01*
X86797Y2525542D01*
X86250Y2525649D01*
X85699Y2525748D01*
X85146Y2525841D01*
X84589Y2525925D01*
X84028Y2526002D01*
X83465Y2526072D01*
X82898Y2526133D01*
X82329Y2526187D01*
X81756Y2526234D01*
X81181Y2526272D01*
X80603Y2526303D01*
X80022Y2526326D01*
X79439Y2526341D01*
X78853Y2526348D01*
X78265Y2526347D01*
X77675Y2526338D01*
X77082Y2526321D01*
X76487Y2526296D01*
X75891Y2526262D01*
X75293Y2526221D01*
X74693Y2526172D01*
X74091Y2526114D01*
X73489Y2526049D01*
X72885Y2525975D01*
X72279Y2525893D01*
X71673Y2525803D01*
X71066Y2525704D01*
X70459Y2525598D01*
X69851Y2525483D01*
X69243Y2525360D01*
X68634Y2525229D01*
X68026Y2525089D01*
X67417Y2524942D01*
X66809Y2524786D01*
X66202Y2524622D01*
X65595Y2524450D01*
X64989Y2524270D01*
X64385Y2524083D01*
X63781Y2523887D01*
X63180Y2523683D01*
X62579Y2523471D01*
X61981Y2523252D01*
X61384Y2523024D01*
X60790Y2522789D01*
X60199Y2522546D01*
X59610Y2522296D01*
X59023Y2522038D01*
X58440Y2521773D01*
X57860Y2521501D01*
X57283Y2521221D01*
X56996Y2521078D01*
X56710Y2520934D01*
X56425Y2520788D01*
X56140Y2520640D01*
X55857Y2520491D01*
X55575Y2520339D01*
X55294Y2520186D01*
X55013Y2520031D01*
X54734Y2519875D01*
X54456Y2519717D01*
X54179Y2519557D01*
X53904Y2519395D01*
X53629Y2519232D01*
X53356Y2519068D01*
X53083Y2518901D01*
X52812Y2518733D01*
X52543Y2518564D01*
X52274Y2518393D01*
X52007Y2518220D01*
X51741Y2518046D01*
X51477Y2517870D01*
X51213Y2517693D01*
X50951Y2517514D01*
X50691Y2517334D01*
X50432Y2517152D01*
X50174Y2516969D01*
X49918Y2516784D01*
X49663Y2516598D01*
X49410Y2516411D01*
X49158Y2516222D01*
X48908Y2516032D01*
X48659Y2515841D01*
X48412Y2515648D01*
X48166Y2515454D01*
X47922Y2515258D01*
X47679Y2515061D01*
X47438Y2514863D01*
X47199Y2514664D01*
X46961Y2514463D01*
X46725Y2514261D01*
X46491Y2514058D01*
X46258Y2513854D01*
X46027Y2513649D01*
X45797Y2513442D01*
X45570Y2513234D01*
X45344Y2513025D01*
X45120Y2512816D01*
X44897Y2512604D01*
X44677Y2512392D01*
X44458Y2512179D01*
X44241Y2511965D01*
X44025Y2511749D01*
X43812Y2511533D01*
X43600Y2511315D01*
X43390Y2511097D01*
X43182Y2510877D01*
X42976Y2510657D01*
X42772Y2510436D01*
X42569Y2510213D01*
X42368Y2509990D01*
X42170Y2509766D01*
X41973Y2509541D01*
X41778Y2509315D01*
X41585Y2509088D01*
X41394Y2508861D01*
X41204Y2508632D01*
X41017Y2508403D01*
X40831Y2508172D01*
X40648Y2507942D01*
X40466Y2507710D01*
X40287Y2507478D01*
X40109Y2507244D01*
X39933Y2507010D01*
X39759Y2506775D01*
X39588Y2506540D01*
X39417Y2506304D01*
X39250Y2506067D01*
X39084Y2505829D01*
X38920Y2505591D01*
X38758Y2505352D01*
X38598Y2505113D01*
X38440Y2504872D01*
X38284Y2504632D01*
X38129Y2504390D01*
X37978Y2504148D01*
X37827Y2503905D01*
X37679Y2503662D01*
X37533Y2503418D01*
X37389Y2503174D01*
X37247Y2502929D01*
X37107Y2502683D01*
X36969Y2502437D01*
X36833Y2502191D01*
X36699Y2501944D01*
X36567Y2501696D01*
X36437Y2501448D01*
X36309Y2501200D01*
X36182Y2500950D01*
X36058Y2500701D01*
X35936Y2500451D01*
X35816Y2500201D01*
X35698Y2499949D01*
X35582Y2499698D01*
X35468Y2499446D01*
X35356Y2499194D01*
X35246Y2498942D01*
X35138Y2498689D01*
X35032Y2498435D01*
X34928Y2498181D01*
X34826Y2497927D01*
X34727Y2497673D01*
X34629Y2497417D01*
X34533Y2497162D01*
X34439Y2496906D01*
X34347Y2496651D01*
X34257Y2496394D01*
X34169Y2496137D01*
X34083Y2495880D01*
X33999Y2495623D01*
X33917Y2495365D01*
X33837Y2495107D01*
X33759Y2494848D01*
X33684Y2494590D01*
X33610Y2494330D01*
X33538Y2494071D01*
X33468Y2493811D01*
X33400Y2493552D01*
X33334Y2493291D01*
X33270Y2493031D01*
X33208Y2492770D01*
X33148Y2492509D01*
X33090Y2492247D01*
X33034Y2491985D01*
X32980Y2491723D01*
X32928Y2491461D01*
X32878Y2491198D01*
X32830Y2490936D01*
X32784Y2490673D01*
X32740Y2490409D01*
X32698Y2490146D01*
X32658Y2489882D01*
X32620Y2489618D01*
X32584Y2489354D01*
X32550Y2489089D01*
X32518Y2488824D01*
X32487Y2488559D01*
X32459Y2488294D01*
X32433Y2488028D01*
X32405Y2487711D01*
X99697Y979758D02*
X193071Y1073132D01*
X118322Y3105823D02*
G75*
G02*
X147561Y3259157I7632068J-1375893D01*
G01*
X118322Y3105823D02*
X118356Y3105274D01*
X118399Y3104726D01*
X118449Y3104179D01*
X118507Y3103632D01*
X118573Y3103087D01*
X118648Y3102542D01*
X118730Y3101998D01*
X118820Y3101455D01*
X118918Y3100913D01*
X119024Y3100372D01*
X119137Y3099832D01*
X119259Y3099292D01*
X119389Y3098754D01*
X119527Y3098217D01*
X119672Y3097681D01*
X119826Y3097146D01*
X119988Y3096612D01*
X120158Y3096079D01*
X120335Y3095547D01*
X120521Y3095017D01*
X120715Y3094488D01*
X120916Y3093960D01*
X121126Y3093434D01*
X121344Y3092909D01*
X121569Y3092386D01*
X121803Y3091864D01*
X122045Y3091344D01*
X122295Y3090825D01*
X122553Y3090308D01*
X122818Y3089793D01*
X123092Y3089280D01*
X123374Y3088769D01*
X123664Y3088260D01*
X123962Y3087753D01*
X124268Y3087248D01*
X124582Y3086746D01*
X124903Y3086246D01*
X125233Y3085748D01*
X125571Y3085253D01*
X125916Y3084760D01*
X126269Y3084271D01*
X126630Y3083784D01*
X126999Y3083300D01*
X127376Y3082819D01*
X127760Y3082341D01*
X128152Y3081866D01*
X128552Y3081395D01*
X128959Y3080927D01*
X129374Y3080463D01*
X129796Y3080002D01*
X130225Y3079545D01*
X130662Y3079093D01*
X131106Y3078644D01*
X131556Y3078199D01*
X132014Y3077759D01*
X132479Y3077323D01*
X132951Y3076892D01*
X133430Y3076465D01*
X133915Y3076043D01*
X134407Y3075626D01*
X134905Y3075214D01*
X135409Y3074807D01*
X135920Y3074405D01*
X136437Y3074009D01*
X136960Y3073619D01*
X137488Y3073234D01*
X138022Y3072854D01*
X138562Y3072481D01*
X139107Y3072114D01*
X139657Y3071752D01*
X140213Y3071397D01*
X140773Y3071049D01*
X141338Y3070707D01*
X141908Y3070371D01*
X142482Y3070042D01*
X143060Y3069720D01*
X143642Y3069405D01*
X144228Y3069096D01*
X144523Y3068945D01*
X144818Y3068795D01*
X145115Y3068647D01*
X145412Y3068501D01*
X145710Y3068357D01*
X146009Y3068214D01*
X146308Y3068074D01*
X146609Y3067935D01*
X146910Y3067798D01*
X147212Y3067663D01*
X147514Y3067530D01*
X147818Y3067399D01*
X148122Y3067269D01*
X148426Y3067142D01*
X148731Y3067016D01*
X149037Y3066892D01*
X149343Y3066771D01*
X149650Y3066651D01*
X149958Y3066533D01*
X150266Y3066417D01*
X150574Y3066303D01*
X150883Y3066191D01*
X151192Y3066081D01*
X151502Y3065973D01*
X151812Y3065867D01*
X152122Y3065763D01*
X152433Y3065661D01*
X152744Y3065561D01*
X153055Y3065463D01*
X153367Y3065367D01*
X153679Y3065273D01*
X153991Y3065181D01*
X154303Y3065091D01*
X154616Y3065003D01*
X154928Y3064917D01*
X155241Y3064834D01*
X155554Y3064752D01*
X155867Y3064672D01*
X156180Y3064594D01*
X156493Y3064519D01*
X156806Y3064445D01*
X157119Y3064373D01*
X157432Y3064304D01*
X157746Y3064237D01*
X158059Y3064171D01*
X158372Y3064108D01*
X158685Y3064047D01*
X158998Y3063987D01*
X159310Y3063930D01*
X159623Y3063875D01*
X159935Y3063822D01*
X160247Y3063771D01*
X160559Y3063722D01*
X160871Y3063676D01*
X161183Y3063631D01*
X161494Y3063588D01*
X161805Y3063548D01*
X162116Y3063509D01*
X162426Y3063472D01*
X162736Y3063438D01*
X163046Y3063406D01*
X163355Y3063375D01*
X163664Y3063347D01*
X163973Y3063321D01*
X164281Y3063297D01*
X164589Y3063274D01*
X164896Y3063254D01*
X165203Y3063236D01*
X165510Y3063220D01*
X165816Y3063206D01*
X166121Y3063194D01*
X166426Y3063184D01*
X166730Y3063176D01*
X167035Y3063170D01*
X167338Y3063166D01*
X167641Y3063164D01*
X167943Y3063165D01*
X168245Y3063167D01*
X168545Y3063171D01*
X168846Y3063177D01*
X169146Y3063185D01*
X169445Y3063195D01*
X169743Y3063207D01*
X170041Y3063221D01*
X170338Y3063237D01*
X170635Y3063255D01*
X170931Y3063275D01*
X171226Y3063297D01*
X171520Y3063321D01*
X171814Y3063347D01*
X172107Y3063375D01*
X172399Y3063404D01*
X172691Y3063436D01*
X172982Y3063470D01*
X173271Y3063505D01*
X173561Y3063543D01*
X173849Y3063582D01*
X174137Y3063623D01*
X174424Y3063667D01*
X174710Y3063712D01*
X174995Y3063759D01*
X175279Y3063808D01*
X175563Y3063858D01*
X175846Y3063911D01*
X176127Y3063966D01*
X176409Y3064022D01*
X176689Y3064081D01*
X176968Y3064141D01*
X177247Y3064203D01*
X177525Y3064267D01*
X177801Y3064333D01*
X178077Y3064400D01*
X178352Y3064470D01*
X178626Y3064541D01*
X178899Y3064614D01*
X179172Y3064689D01*
X179443Y3064766D01*
X179714Y3064845D01*
X179983Y3064925D01*
X180252Y3065008D01*
X180520Y3065092D01*
X180787Y3065178D01*
X181053Y3065265D01*
X181318Y3065355D01*
X181582Y3065446D01*
X181845Y3065539D01*
X182107Y3065634D01*
X182368Y3065731D01*
X182628Y3065830D01*
X182888Y3065930D01*
X183146Y3066032D01*
X183404Y3066136D01*
X183660Y3066241D01*
X183916Y3066349D01*
X184170Y3066458D01*
X184424Y3066569D01*
X184676Y3066682D01*
X184928Y3066796D01*
X185178Y3066912D01*
X185428Y3067030D01*
X185677Y3067150D01*
X185925Y3067272D01*
X186171Y3067395D01*
X186417Y3067520D01*
X186662Y3067647D01*
X186906Y3067775D01*
X187148Y3067905D01*
X187390Y3068037D01*
X187631Y3068171D01*
X187871Y3068307D01*
X188110Y3068444D01*
X188348Y3068583D01*
X188584Y3068723D01*
X188820Y3068866D01*
X189055Y3069010D01*
X189289Y3069156D01*
X189299Y3069162D01*
X147561Y3259157D02*
G75*
G02*
X441670Y3500000I294109J-59157D01*
G01*
X147561Y240843D02*
G75*
G02*
X118322Y394177I7602069J1529087D01*
G01*
X189297Y430838D02*
X188830Y431128D01*
X188359Y431410D01*
X187883Y431686D01*
X187404Y431955D01*
X186921Y432216D01*
X186434Y432471D01*
X185942Y432719D01*
X185448Y432960D01*
X184949Y433194D01*
X184446Y433420D01*
X183940Y433640D01*
X183429Y433853D01*
X182915Y434059D01*
X182397Y434257D01*
X181876Y434449D01*
X181351Y434633D01*
X180822Y434810D01*
X180289Y434980D01*
X179753Y435143D01*
X179213Y435299D01*
X178669Y435447D01*
X178122Y435588D01*
X177571Y435722D01*
X177017Y435848D01*
X176460Y435967D01*
X175899Y436078D01*
X175335Y436182D01*
X174768Y436278D01*
X174197Y436367D01*
X173623Y436448D01*
X173046Y436522D01*
X172466Y436588D01*
X171883Y436646D01*
X171298Y436697D01*
X170709Y436739D01*
X170117Y436774D01*
X169523Y436801D01*
X168927Y436821D01*
X168327Y436832D01*
X167726Y436835D01*
X167122Y436831D01*
X166516Y436818D01*
X165908Y436797D01*
X165297Y436768D01*
X164685Y436732D01*
X164071Y436687D01*
X163456Y436634D01*
X162839Y436572D01*
X162220Y436503D01*
X161600Y436425D01*
X160979Y436340D01*
X160357Y436246D01*
X159734Y436143D01*
X159111Y436033D01*
X158487Y435914D01*
X157862Y435787D01*
X157237Y435652D01*
X156612Y435509D01*
X155987Y435358D01*
X155363Y435198D01*
X154738Y435030D01*
X154115Y434854D01*
X153491Y434670D01*
X152869Y434478D01*
X152248Y434278D01*
X151628Y434070D01*
X151010Y433854D01*
X150393Y433630D01*
X149778Y433398D01*
X149165Y433158D01*
X148554Y432911D01*
X147945Y432656D01*
X147339Y432393D01*
X146736Y432123D01*
X146136Y431845D01*
X145538Y431560D01*
X144944Y431267D01*
X144353Y430968D01*
X144059Y430815D01*
X143766Y430661D01*
X143474Y430505D01*
X143183Y430347D01*
X142893Y430188D01*
X142604Y430026D01*
X142316Y429863D01*
X142029Y429699D01*
X141743Y429532D01*
X141458Y429364D01*
X141174Y429195D01*
X140891Y429023D01*
X140610Y428850D01*
X140330Y428676D01*
X140051Y428500D01*
X139773Y428322D01*
X139496Y428143D01*
X139221Y427962D01*
X138947Y427779D01*
X138674Y427595D01*
X138403Y427410D01*
X138133Y427223D01*
X137864Y427034D01*
X137597Y426844D01*
X137331Y426653D01*
X137067Y426460D01*
X136804Y426265D01*
X136542Y426070D01*
X136282Y425872D01*
X136023Y425674D01*
X135766Y425474D01*
X135510Y425273D01*
X135256Y425070D01*
X135004Y424866D01*
X134753Y424661D01*
X134503Y424454D01*
X134256Y424247D01*
X134009Y424037D01*
X133765Y423827D01*
X133522Y423615D01*
X133281Y423403D01*
X133041Y423189D01*
X132803Y422974D01*
X132567Y422757D01*
X132332Y422540D01*
X132100Y422321D01*
X131869Y422102D01*
X131639Y421881D01*
X131412Y421659D01*
X131186Y421436D01*
X130962Y421212D01*
X130739Y420986D01*
X130519Y420760D01*
X130300Y420533D01*
X130084Y420305D01*
X129869Y420076D01*
X129656Y419846D01*
X129444Y419615D01*
X129235Y419383D01*
X129027Y419150D01*
X128822Y418916D01*
X128618Y418681D01*
X128416Y418446D01*
X128216Y418209D01*
X128018Y417972D01*
X127821Y417734D01*
X127627Y417495D01*
X127435Y417255D01*
X127244Y417014D01*
X127056Y416773D01*
X126869Y416531D01*
X126685Y416288D01*
X126502Y416044D01*
X126321Y415800D01*
X126143Y415555D01*
X125966Y415309D01*
X125791Y415062D01*
X125618Y414815D01*
X125447Y414567D01*
X125278Y414318D01*
X125111Y414069D01*
X124946Y413819D01*
X124784Y413569D01*
X124622Y413318D01*
X124464Y413067D01*
X124307Y412814D01*
X124152Y412562D01*
X123999Y412308D01*
X123848Y412054D01*
X123699Y411800D01*
X123552Y411545D01*
X123407Y411289D01*
X123264Y411033D01*
X123123Y410776D01*
X122985Y410520D01*
X122848Y410262D01*
X122713Y410004D01*
X122580Y409745D01*
X122449Y409487D01*
X122321Y409227D01*
X122194Y408967D01*
X122069Y408707D01*
X121946Y408446D01*
X121826Y408185D01*
X121707Y407924D01*
X121590Y407662D01*
X121476Y407400D01*
X121363Y407137D01*
X121253Y406874D01*
X121144Y406610D01*
X121038Y406347D01*
X120933Y406082D01*
X120831Y405818D01*
X120730Y405553D01*
X120632Y405288D01*
X120535Y405022D01*
X120441Y404757D01*
X120348Y404490D01*
X120258Y404224D01*
X120169Y403957D01*
X120083Y403690D01*
X119999Y403423D01*
X119916Y403155D01*
X119836Y402887D01*
X119758Y402619D01*
X119681Y402351D01*
X119607Y402082D01*
X119535Y401813D01*
X119465Y401544D01*
X119396Y401274D01*
X119330Y401004D01*
X119266Y400734D01*
X119203Y400464D01*
X119143Y400193D01*
X119085Y399923D01*
X119028Y399652D01*
X118974Y399381D01*
X118922Y399109D01*
X118872Y398837D01*
X118823Y398565D01*
X118777Y398293D01*
X118733Y398021D01*
X118690Y397749D01*
X118650Y397476D01*
X118612Y397203D01*
X118576Y396929D01*
X118541Y396656D01*
X118509Y396383D01*
X118479Y396109D01*
X118450Y395835D01*
X118424Y395561D01*
X118400Y395286D01*
X118377Y395012D01*
X118357Y394737D01*
X118339Y394462D01*
X118322Y394187D01*
X118322Y394177D01*
X189299Y3069162D02*
X280248Y3146397D01*
X193070Y2426868D02*
X99697Y2520242D01*
X193071Y1073132D02*
X193566Y1073622D01*
X194067Y1074106D01*
X194574Y1074585D01*
X195085Y1075057D01*
X195602Y1075523D01*
X196125Y1075983D01*
X196652Y1076438D01*
X197185Y1076886D01*
X197723Y1077328D01*
X198267Y1077764D01*
X198815Y1078195D01*
X199369Y1078619D01*
X199928Y1079037D01*
X200492Y1079449D01*
X201061Y1079854D01*
X201635Y1080254D01*
X202215Y1080647D01*
X202799Y1081035D01*
X203389Y1081416D01*
X203983Y1081790D01*
X204583Y1082159D01*
X205188Y1082521D01*
X205797Y1082877D01*
X206412Y1083226D01*
X207031Y1083569D01*
X207655Y1083905D01*
X208284Y1084236D01*
X208918Y1084559D01*
X209556Y1084876D01*
X210200Y1085187D01*
X210848Y1085490D01*
X211500Y1085788D01*
X212158Y1086078D01*
X212819Y1086362D01*
X213486Y1086639D01*
X214156Y1086909D01*
X214832Y1087173D01*
X215511Y1087429D01*
X216195Y1087679D01*
X216883Y1087922D01*
X217575Y1088157D01*
X218272Y1088386D01*
X218973Y1088608D01*
X219677Y1088822D01*
X220386Y1089029D01*
X221098Y1089229D01*
X221814Y1089422D01*
X222534Y1089608D01*
X223258Y1089786D01*
X223985Y1089957D01*
X224716Y1090121D01*
X225450Y1090277D01*
X226188Y1090426D01*
X226929Y1090567D01*
X227673Y1090701D01*
X228420Y1090827D01*
X229170Y1090946D01*
X229923Y1091057D01*
X230679Y1091160D01*
X231437Y1091255D01*
X232198Y1091343D01*
X232962Y1091423D01*
X233728Y1091495D01*
X234496Y1091560D01*
X235266Y1091617D01*
X236039Y1091665D01*
X236813Y1091706D01*
X237589Y1091739D01*
X238367Y1091764D01*
X239146Y1091781D01*
X239927Y1091790D01*
X240709Y1091791D01*
X241493Y1091785D01*
X242277Y1091770D01*
X243062Y1091747D01*
X243849Y1091716D01*
X244635Y1091677D01*
X245423Y1091630D01*
X246210Y1091575D01*
X246998Y1091512D01*
X247786Y1091441D01*
X248574Y1091362D01*
X249362Y1091275D01*
X250150Y1091179D01*
X250937Y1091076D01*
X251723Y1090965D01*
X252509Y1090846D01*
X253294Y1090719D01*
X254078Y1090584D01*
X254860Y1090441D01*
X255642Y1090290D01*
X256421Y1090132D01*
X256811Y1090049D01*
X257200Y1089965D01*
X257588Y1089879D01*
X257976Y1089791D01*
X258364Y1089701D01*
X258751Y1089609D01*
X259137Y1089515D01*
X259524Y1089419D01*
X259909Y1089321D01*
X260294Y1089221D01*
X260678Y1089120D01*
X261062Y1089016D01*
X261445Y1088911D01*
X261828Y1088803D01*
X262210Y1088694D01*
X262591Y1088583D01*
X262971Y1088470D01*
X263351Y1088355D01*
X263730Y1088238D01*
X264109Y1088119D01*
X264486Y1087999D01*
X264863Y1087877D01*
X265239Y1087752D01*
X265615Y1087626D01*
X265989Y1087498D01*
X266363Y1087369D01*
X266735Y1087237D01*
X267107Y1087104D01*
X267478Y1086969D01*
X267848Y1086831D01*
X268218Y1086693D01*
X268586Y1086552D01*
X268953Y1086410D01*
X269320Y1086266D01*
X269685Y1086120D01*
X270050Y1085972D01*
X270413Y1085823D01*
X270775Y1085671D01*
X271137Y1085519D01*
X271497Y1085364D01*
X271856Y1085208D01*
X272215Y1085050D01*
X272572Y1084890D01*
X272928Y1084728D01*
X273283Y1084565D01*
X273636Y1084400D01*
X273989Y1084234D01*
X274340Y1084066D01*
X274691Y1083896D01*
X275040Y1083724D01*
X275388Y1083551D01*
X275734Y1083376D01*
X276080Y1083200D01*
X276424Y1083022D01*
X276767Y1082842D01*
X277109Y1082661D01*
X277449Y1082478D01*
X277788Y1082294D01*
X278126Y1082108D01*
X278463Y1081920D01*
X278798Y1081731D01*
X279132Y1081541D01*
X279464Y1081348D01*
X279796Y1081155D01*
X280126Y1080959D01*
X280454Y1080763D01*
X280781Y1080564D01*
X281107Y1080365D01*
X281431Y1080163D01*
X281754Y1079961D01*
X282076Y1079756D01*
X282396Y1079551D01*
X282714Y1079344D01*
X283031Y1079135D01*
X283347Y1078925D01*
X283661Y1078714D01*
X283974Y1078501D01*
X284285Y1078286D01*
X284595Y1078071D01*
X284903Y1077854D01*
X285210Y1077635D01*
X285515Y1077415D01*
X285819Y1077194D01*
X286121Y1076972D01*
X286422Y1076748D01*
X286721Y1076523D01*
X287018Y1076296D01*
X287314Y1076068D01*
X287609Y1075839D01*
X287901Y1075608D01*
X288193Y1075377D01*
X288482Y1075143D01*
X288770Y1074909D01*
X289057Y1074673D01*
X289341Y1074436D01*
X289625Y1074198D01*
X289906Y1073959D01*
X290186Y1073718D01*
X290464Y1073476D01*
X290741Y1073233D01*
X291016Y1072988D01*
X291290Y1072743D01*
X291561Y1072496D01*
X291831Y1072248D01*
X292100Y1071999D01*
X292366Y1071748D01*
X292631Y1071497D01*
X292895Y1071244D01*
X293156Y1070990D01*
X293417Y1070735D01*
X293675Y1070479D01*
X293932Y1070221D01*
X294186Y1069963D01*
X294440Y1069703D01*
X294691Y1069443D01*
X294941Y1069181D01*
X295189Y1068918D01*
X295435Y1068654D01*
X295680Y1068389D01*
X295923Y1068122D01*
X296164Y1067855D01*
X296404Y1067586D01*
X296641Y1067317D01*
X296877Y1067046D01*
X297111Y1066775D01*
X297344Y1066502D01*
X297575Y1066229D01*
X297804Y1065954D01*
X298031Y1065678D01*
X298257Y1065401D01*
X298480Y1065124D01*
X298703Y1064845D01*
X298923Y1064565D01*
X299141Y1064284D01*
X299358Y1064002D01*
X299573Y1063719D01*
X299786Y1063436D01*
X299998Y1063151D01*
X300207Y1062865D01*
X300415Y1062578D01*
X300621Y1062291D01*
X300826Y1062002D01*
X301028Y1061713D01*
X301229Y1061422D01*
X301428Y1061131D01*
X301625Y1060838D01*
X301821Y1060545D01*
X302014Y1060250D01*
X302206Y1059955D01*
X302396Y1059659D01*
X302585Y1059362D01*
X302771Y1059064D01*
X302956Y1058765D01*
X303139Y1058465D01*
X303320Y1058164D01*
X303499Y1057862D01*
X303677Y1057560D01*
X303853Y1057256D01*
X304026Y1056952D01*
X304199Y1056647D01*
X304369Y1056341D01*
X304537Y1056034D01*
X304704Y1055726D01*
X304869Y1055417D01*
X305032Y1055107D01*
X305194Y1054797D01*
X305353Y1054485D01*
X305511Y1054173D01*
X305667Y1053860D01*
X305821Y1053546D01*
X305973Y1053231D01*
X306123Y1052915D01*
X306272Y1052599D01*
X306419Y1052282D01*
X306564Y1051964D01*
X306707Y1051644D01*
X306848Y1051325D01*
X306988Y1051004D01*
X307126Y1050682D01*
X307262Y1050360D01*
X307396Y1050037D01*
X307528Y1049712D01*
X307658Y1049388D01*
X307787Y1049062D01*
X307914Y1048735D01*
X308039Y1048408D01*
X308040Y1048404D01*
X280248Y3146397D02*
G75*
G02*
X419117Y3061192I55713J-64967D01*
G01*
X280248Y353603D02*
X189297Y430838D01*
X308040Y2451596D02*
X307790Y2450946D01*
X307532Y2450298D01*
X307267Y2449654D01*
X306995Y2449014D01*
X306715Y2448376D01*
X306428Y2447742D01*
X306134Y2447111D01*
X305833Y2446483D01*
X305524Y2445858D01*
X305208Y2445237D01*
X304885Y2444620D01*
X304555Y2444005D01*
X304217Y2443395D01*
X303872Y2442787D01*
X303520Y2442183D01*
X303161Y2441583D01*
X302794Y2440986D01*
X302421Y2440393D01*
X302040Y2439803D01*
X301652Y2439217D01*
X301257Y2438635D01*
X300855Y2438056D01*
X300445Y2437481D01*
X300029Y2436910D01*
X299605Y2436343D01*
X299175Y2435779D01*
X298737Y2435220D01*
X298292Y2434664D01*
X297841Y2434113D01*
X297382Y2433565D01*
X296916Y2433022D01*
X296443Y2432482D01*
X295964Y2431947D01*
X295477Y2431417D01*
X294984Y2430890D01*
X294483Y2430368D01*
X293976Y2429850D01*
X293462Y2429337D01*
X292942Y2428828D01*
X292414Y2428324D01*
X291880Y2427825D01*
X291339Y2427330D01*
X290791Y2426840D01*
X290237Y2426355D01*
X289677Y2425874D01*
X289110Y2425399D01*
X288536Y2424928D01*
X287956Y2424463D01*
X287370Y2424003D01*
X286777Y2423548D01*
X286178Y2423099D01*
X285573Y2422654D01*
X284962Y2422215D01*
X284345Y2421782D01*
X283721Y2421354D01*
X283092Y2420932D01*
X282457Y2420516D01*
X281816Y2420105D01*
X281170Y2419700D01*
X280518Y2419301D01*
X279860Y2418908D01*
X279197Y2418521D01*
X278529Y2418141D01*
X277855Y2417766D01*
X277176Y2417398D01*
X276492Y2417036D01*
X275803Y2416680D01*
X275109Y2416331D01*
X274410Y2415988D01*
X273707Y2415652D01*
X272999Y2415323D01*
X272286Y2415000D01*
X271569Y2414685D01*
X270848Y2414376D01*
X270123Y2414074D01*
X269393Y2413779D01*
X268660Y2413491D01*
X267923Y2413210D01*
X267183Y2412936D01*
X266438Y2412669D01*
X265691Y2412410D01*
X264940Y2412158D01*
X264186Y2411914D01*
X263429Y2411677D01*
X262669Y2411447D01*
X261906Y2411225D01*
X261141Y2411011D01*
X260374Y2410804D01*
X259604Y2410605D01*
X258831Y2410413D01*
X258057Y2410229D01*
X257281Y2410053D01*
X256892Y2409968D01*
X256503Y2409885D01*
X256114Y2409804D01*
X255724Y2409725D01*
X255333Y2409647D01*
X254943Y2409572D01*
X254552Y2409499D01*
X254160Y2409428D01*
X253769Y2409358D01*
X253377Y2409291D01*
X252985Y2409226D01*
X252592Y2409162D01*
X252200Y2409101D01*
X251807Y2409041D01*
X251414Y2408984D01*
X251021Y2408929D01*
X250627Y2408875D01*
X250234Y2408824D01*
X249840Y2408774D01*
X249446Y2408727D01*
X249053Y2408682D01*
X248659Y2408638D01*
X248265Y2408597D01*
X247871Y2408557D01*
X247477Y2408520D01*
X247083Y2408485D01*
X246689Y2408451D01*
X246295Y2408420D01*
X245902Y2408391D01*
X245508Y2408363D01*
X245114Y2408338D01*
X244721Y2408315D01*
X244327Y2408293D01*
X243934Y2408274D01*
X243541Y2408257D01*
X243148Y2408242D01*
X242755Y2408229D01*
X242363Y2408217D01*
X241971Y2408208D01*
X241578Y2408201D01*
X241187Y2408196D01*
X240795Y2408193D01*
X240404Y2408191D01*
X240013Y2408192D01*
X239623Y2408195D01*
X239232Y2408200D01*
X238842Y2408207D01*
X238453Y2408215D01*
X238064Y2408226D01*
X237675Y2408239D01*
X237287Y2408254D01*
X236899Y2408271D01*
X236511Y2408289D01*
X236124Y2408310D01*
X235738Y2408333D01*
X235352Y2408358D01*
X234966Y2408384D01*
X234581Y2408413D01*
X234197Y2408444D01*
X233813Y2408476D01*
X233430Y2408511D01*
X233047Y2408547D01*
X232665Y2408586D01*
X232283Y2408626D01*
X231902Y2408668D01*
X231522Y2408713D01*
X231142Y2408759D01*
X230763Y2408807D01*
X230385Y2408857D01*
X230007Y2408909D01*
X229630Y2408963D01*
X229254Y2409019D01*
X228878Y2409077D01*
X228503Y2409137D01*
X228129Y2409198D01*
X227756Y2409262D01*
X227383Y2409327D01*
X227011Y2409395D01*
X226640Y2409464D01*
X226270Y2409535D01*
X225901Y2409608D01*
X225532Y2409683D01*
X225164Y2409760D01*
X224797Y2409838D01*
X224431Y2409919D01*
X224066Y2410001D01*
X223702Y2410085D01*
X223338Y2410172D01*
X222976Y2410259D01*
X222614Y2410349D01*
X222253Y2410441D01*
X221893Y2410534D01*
X221534Y2410629D01*
X221176Y2410727D01*
X220819Y2410825D01*
X220463Y2410926D01*
X220108Y2411029D01*
X219754Y2411133D01*
X219401Y2411239D01*
X219048Y2411347D01*
X218697Y2411457D01*
X218347Y2411568D01*
X217998Y2411682D01*
X217650Y2411797D01*
X217303Y2411914D01*
X216957Y2412032D01*
X216612Y2412153D01*
X216267Y2412275D01*
X215925Y2412398D01*
X215583Y2412524D01*
X215242Y2412651D01*
X214902Y2412781D01*
X214564Y2412911D01*
X214226Y2413044D01*
X213890Y2413178D01*
X213554Y2413314D01*
X213220Y2413452D01*
X212887Y2413591D01*
X212555Y2413732D01*
X212224Y2413875D01*
X211894Y2414020D01*
X211565Y2414166D01*
X211238Y2414314D01*
X210911Y2414464D01*
X210586Y2414615D01*
X210262Y2414768D01*
X209939Y2414922D01*
X209617Y2415079D01*
X209297Y2415236D01*
X208978Y2415396D01*
X208660Y2415557D01*
X208342Y2415720D01*
X208027Y2415885D01*
X207712Y2416051D01*
X207399Y2416218D01*
X207086Y2416388D01*
X206775Y2416559D01*
X206465Y2416732D01*
X206157Y2416906D01*
X205849Y2417082D01*
X205543Y2417259D01*
X205238Y2417438D01*
X204935Y2417619D01*
X204632Y2417802D01*
X204331Y2417985D01*
X204031Y2418171D01*
X203732Y2418358D01*
X203434Y2418547D01*
X203138Y2418737D01*
X202843Y2418929D01*
X202549Y2419122D01*
X202257Y2419317D01*
X201965Y2419514D01*
X201675Y2419712D01*
X201387Y2419912D01*
X201099Y2420113D01*
X200813Y2420316D01*
X200528Y2420520D01*
X200244Y2420726D01*
X199962Y2420934D01*
X199681Y2421142D01*
X199401Y2421353D01*
X199122Y2421565D01*
X198845Y2421779D01*
X198569Y2421994D01*
X198294Y2422211D01*
X198021Y2422429D01*
X197748Y2422649D01*
X197478Y2422870D01*
X197208Y2423093D01*
X196940Y2423317D01*
X196673Y2423543D01*
X196407Y2423771D01*
X196143Y2424000D01*
X195880Y2424230D01*
X195618Y2424462D01*
X195358Y2424696D01*
X195099Y2424931D01*
X194841Y2425167D01*
X194584Y2425405D01*
X194329Y2425645D01*
X194075Y2425886D01*
X193823Y2426128D01*
X193572Y2426372D01*
X193322Y2426618D01*
X193073Y2426865D01*
X193070Y2426868D01*
X308040Y1048404D02*
G75*
G02*
X340170Y763637I-543100J-205474D01*
G01*
X327849Y2818005D02*
G75*
G02*
X419119Y3061190I369601J5D01*
G01*
X327849Y681995D02*
G75*
G02*
X332419Y739940I369811J-15D01*
G01*
X332419Y2760060D02*
G75*
G02*
X327849Y2818005I365241J57960D01*
G01*
X332419Y2760060D02*
X332599Y2759726D01*
X332777Y2759390D01*
X332953Y2759054D01*
X333126Y2758718D01*
X333298Y2758381D01*
X333468Y2758043D01*
X333635Y2757706D01*
X333801Y2757367D01*
X333965Y2757028D01*
X334127Y2756689D01*
X334286Y2756349D01*
X334444Y2756009D01*
X334600Y2755668D01*
X334754Y2755326D01*
X334906Y2754984D01*
X335056Y2754642D01*
X335204Y2754299D01*
X335350Y2753955D01*
X335494Y2753611D01*
X335636Y2753267D01*
X335776Y2752921D01*
X335915Y2752576D01*
X336051Y2752229D01*
X336186Y2751882D01*
X336318Y2751535D01*
X336449Y2751187D01*
X336577Y2750838D01*
X336704Y2750489D01*
X336829Y2750139D01*
X336952Y2749789D01*
X337073Y2749438D01*
X337192Y2749086D01*
X337310Y2748734D01*
X337425Y2748382D01*
X337650Y2747674D01*
X337867Y2746964D01*
X338077Y2746252D01*
X338279Y2745536D01*
X338474Y2744819D01*
X338661Y2744098D01*
X338840Y2743375D01*
X339012Y2742649D01*
X339177Y2741920D01*
X339334Y2741188D01*
X339483Y2740454D01*
X339625Y2739716D01*
X339759Y2738976D01*
X339885Y2738232D01*
X340004Y2737485D01*
X340116Y2736736D01*
X340168Y2736363D01*
X340168Y2736363D02*
G75*
G02*
X308040Y2451596I-575268J-79293D01*
G01*
X340168Y763637D02*
X340115Y763261D01*
X340061Y762885D01*
X340004Y762510D01*
X339945Y762136D01*
X339885Y761763D01*
X339822Y761391D01*
X339758Y761019D01*
X339692Y760648D01*
X339624Y760278D01*
X339554Y759908D01*
X339482Y759540D01*
X339408Y759172D01*
X339332Y758805D01*
X339255Y758438D01*
X339175Y758073D01*
X339094Y757708D01*
X339011Y757344D01*
X338926Y756980D01*
X338839Y756617D01*
X338750Y756255D01*
X338659Y755894D01*
X338566Y755533D01*
X338472Y755173D01*
X338375Y754814D01*
X338277Y754455D01*
X338177Y754097D01*
X338074Y753740D01*
X337970Y753383D01*
X337864Y753027D01*
X337757Y752672D01*
X337647Y752317D01*
X337535Y751963D01*
X337422Y751610D01*
X337307Y751257D01*
X337070Y750553D01*
X336826Y749852D01*
X336574Y749153D01*
X336315Y748457D01*
X336048Y747762D01*
X335773Y747071D01*
X335491Y746381D01*
X335200Y745694D01*
X334903Y745008D01*
X334597Y744325D01*
X334283Y743645D01*
X333962Y742966D01*
X333633Y742289D01*
X333295Y741614D01*
X332950Y740941D01*
X332597Y740271D01*
X332419Y739940D01*
X419118Y438808D02*
G75*
G02*
X280247Y353602I-83158J-20239D01*
G01*
X419118Y438808D02*
G75*
G02*
X327851Y681995I278372J243192D01*
G01*
X441670Y0D02*
G75*
G02*
X147561Y240843I-1J300000D01*
G01*
X441670Y0D02*
X13558329Y0D01*
X1060433Y3500000D02*
X441670Y3500000D01*
X1110433Y3450000D02*
G75*
G02*
X1060440Y3500000I-3J49990D01*
G01*
D11*
X1504000Y1232000D02*
X1504000Y1172000D01*
X1504000Y1232000D02*
G75*
G02*
X1682000Y1410000I178000J0D01*
G01*
X1682000Y1410000D02*
X2320000Y1410000D01*
X1682000Y994000D02*
G75*
G02*
X1504000Y1172000I0J178000D01*
G01*
X1682000Y994000D02*
X2320000Y994000D01*
X2320000Y1410000D02*
G75*
G02*
X2498000Y1232000I0J-178000D01*
G01*
X2498000Y1232000D02*
X2498000Y1172000D01*
X2498000Y1172000D02*
G75*
G02*
X2320000Y994000I-178000J0D01*
G01*
D12*
X3622500Y1384000D02*
G75*
G02*
X3122500Y1384000I-250000J0D01*
G01*
X3122500Y1384000D02*
G75*
G02*
X3622500Y1384000I250000J0D01*
G01*
X5100000Y1997500D02*
X8000000Y1997500D01*
X8000000Y997500D01*
X5100000Y997500D01*
X5100000Y1997500D01*
X9750000Y1330000D02*
G75*
G02*
X9150000Y1330000I-300000J0D01*
G01*
X9150000Y1330000D02*
G75*
G02*
X9750000Y1330000I300000J0D01*
G01*
X11650000Y1330000D02*
G75*
G02*
X11050000Y1330000I-300000J0D01*
G01*
X11050000Y1330000D02*
G75*
G02*
X11650000Y1330000I300000J0D01*
G01*
X12450000Y1330000D02*
G75*
G02*
X11850000Y1330000I-300000J0D01*
G01*
X11850000Y1330000D02*
G75*
G02*
X12450000Y1330000I300000J0D01*
G01*
D10*
X12889567Y3450000D02*
X1110433Y3450000D01*
X12939567Y3500000D02*
G75*
G02*
X12889567Y3449993I-50007J0D01*
G01*
X13558329Y3500000D02*
X12939567Y3500000D01*
X13558329Y3500000D02*
G75*
G02*
X13852439Y3259157I1J-300000D01*
G01*
X13578454Y3081433D02*
G75*
G02*
X13719754Y3146399I85586J-4D01*
G01*
X13578454Y418565D02*
G75*
G02*
X13580881Y438808I85326J35D01*
G01*
X13580882Y3061192D02*
G75*
G02*
X13578454Y3081433I82798J20198D01*
G01*
X13580882Y3061192D02*
G75*
G02*
X13667580Y2760060I-278372J-243192D01*
G01*
X13654392Y2657068D02*
G75*
G02*
X13659831Y2736363I580108J43D01*
G01*
X13654392Y842932D02*
G75*
G02*
X13691959Y1048404I580708J-2D01*
G01*
X13659832Y2736363D02*
X13659885Y2736739D01*
X13659939Y2737115D01*
X13659996Y2737490D01*
X13660055Y2737864D01*
X13660115Y2738237D01*
X13660178Y2738609D01*
X13660242Y2738981D01*
X13660308Y2739352D01*
X13660376Y2739722D01*
X13660446Y2740091D01*
X13660518Y2740460D01*
X13660592Y2740828D01*
X13660668Y2741195D01*
X13660745Y2741561D01*
X13660825Y2741927D01*
X13660906Y2742292D01*
X13660989Y2742656D01*
X13661074Y2743020D01*
X13661161Y2743382D01*
X13661250Y2743745D01*
X13661341Y2744106D01*
X13661434Y2744467D01*
X13661528Y2744827D01*
X13661625Y2745186D01*
X13661723Y2745544D01*
X13661823Y2745902D01*
X13661925Y2746260D01*
X13662029Y2746616D01*
X13662135Y2746972D01*
X13662243Y2747328D01*
X13662353Y2747682D01*
X13662464Y2748036D01*
X13662578Y2748390D01*
X13662693Y2748743D01*
X13662930Y2749446D01*
X13663174Y2750147D01*
X13663425Y2750846D01*
X13663685Y2751543D01*
X13663952Y2752237D01*
X13664226Y2752929D01*
X13664509Y2753618D01*
X13664799Y2754305D01*
X13665097Y2754991D01*
X13665403Y2755674D01*
X13665716Y2756354D01*
X13666037Y2757033D01*
X13666367Y2757710D01*
X13666704Y2758385D01*
X13667049Y2759057D01*
X13667402Y2759728D01*
X13667580Y2760060D01*
X13659832Y763637D02*
G75*
G02*
X13654392Y842932I574448J79243D01*
G01*
X13667581Y739940D02*
G75*
G02*
X13580881Y438809I-365031J-57950D01*
G01*
X13667581Y739940D02*
X13667401Y740274D01*
X13667223Y740610D01*
X13667047Y740946D01*
X13666874Y741282D01*
X13666702Y741619D01*
X13666532Y741957D01*
X13666365Y742294D01*
X13666199Y742633D01*
X13666035Y742972D01*
X13665873Y743311D01*
X13665714Y743651D01*
X13665556Y743991D01*
X13665400Y744332D01*
X13665246Y744674D01*
X13665094Y745016D01*
X13664944Y745358D01*
X13664796Y745701D01*
X13664650Y746045D01*
X13664506Y746389D01*
X13664364Y746733D01*
X13664224Y747079D01*
X13664085Y747424D01*
X13663949Y747771D01*
X13663814Y748118D01*
X13663682Y748465D01*
X13663551Y748813D01*
X13663423Y749162D01*
X13663296Y749511D01*
X13663171Y749861D01*
X13663048Y750211D01*
X13662927Y750562D01*
X13662808Y750914D01*
X13662690Y751266D01*
X13662575Y751618D01*
X13662350Y752326D01*
X13662133Y753036D01*
X13661923Y753748D01*
X13661721Y754464D01*
X13661526Y755181D01*
X13661339Y755902D01*
X13661160Y756625D01*
X13660988Y757351D01*
X13660823Y758080D01*
X13660666Y758812D01*
X13660517Y759546D01*
X13660375Y760284D01*
X13660241Y761024D01*
X13660115Y761768D01*
X13659996Y762515D01*
X13659884Y763264D01*
X13659832Y763637D01*
X13691960Y2451596D02*
G75*
G02*
X13654394Y2657068I543100J205464D01*
G01*
X13691960Y1048404D02*
X13692210Y1049054D01*
X13692468Y1049702D01*
X13692733Y1050346D01*
X13693005Y1050987D01*
X13693285Y1051624D01*
X13693572Y1052259D01*
X13693866Y1052890D01*
X13694167Y1053517D01*
X13694476Y1054142D01*
X13694792Y1054763D01*
X13695115Y1055380D01*
X13695445Y1055995D01*
X13695783Y1056606D01*
X13696128Y1057213D01*
X13696480Y1057817D01*
X13696839Y1058417D01*
X13697206Y1059014D01*
X13697579Y1059607D01*
X13697960Y1060197D01*
X13698348Y1060783D01*
X13698743Y1061366D01*
X13699145Y1061944D01*
X13699555Y1062519D01*
X13699971Y1063090D01*
X13700395Y1063657D01*
X13700825Y1064221D01*
X13701263Y1064780D01*
X13701708Y1065336D01*
X13702159Y1065888D01*
X13702618Y1066435D01*
X13703084Y1066978D01*
X13703557Y1067518D01*
X13704036Y1068053D01*
X13704523Y1068584D01*
X13705016Y1069110D01*
X13705517Y1069632D01*
X13706024Y1070150D01*
X13706538Y1070663D01*
X13707058Y1071172D01*
X13707586Y1071676D01*
X13708120Y1072176D01*
X13708661Y1072670D01*
X13709209Y1073160D01*
X13709763Y1073646D01*
X13710323Y1074126D01*
X13710890Y1074601D01*
X13711464Y1075072D01*
X13712044Y1075537D01*
X13712630Y1075997D01*
X13713223Y1076452D01*
X13713822Y1076902D01*
X13714427Y1077346D01*
X13715038Y1077785D01*
X13715655Y1078218D01*
X13716279Y1078646D01*
X13716908Y1079068D01*
X13717543Y1079484D01*
X13718184Y1079895D01*
X13718830Y1080300D01*
X13719482Y1080699D01*
X13720140Y1081092D01*
X13720803Y1081479D01*
X13721471Y1081860D01*
X13722145Y1082234D01*
X13722824Y1082602D01*
X13723508Y1082964D01*
X13724197Y1083320D01*
X13724891Y1083669D01*
X13725590Y1084012D01*
X13726293Y1084348D01*
X13727001Y1084677D01*
X13727714Y1085000D01*
X13728431Y1085316D01*
X13729152Y1085625D01*
X13729877Y1085927D01*
X13730607Y1086222D01*
X13731340Y1086510D01*
X13732077Y1086790D01*
X13732817Y1087064D01*
X13733562Y1087331D01*
X13734309Y1087590D01*
X13735060Y1087842D01*
X13735814Y1088086D01*
X13736571Y1088323D01*
X13737331Y1088553D01*
X13738093Y1088775D01*
X13738859Y1088989D01*
X13739626Y1089196D01*
X13740396Y1089396D01*
X13741169Y1089587D01*
X13741943Y1089771D01*
X13742719Y1089947D01*
X13743108Y1090032D01*
X13743497Y1090115D01*
X13743886Y1090196D01*
X13744276Y1090275D01*
X13744667Y1090353D01*
X13745057Y1090428D01*
X13745448Y1090501D01*
X13745840Y1090572D01*
X13746231Y1090642D01*
X13746623Y1090709D01*
X13747015Y1090775D01*
X13747408Y1090838D01*
X13747800Y1090899D01*
X13748193Y1090959D01*
X13748586Y1091016D01*
X13748979Y1091072D01*
X13749373Y1091125D01*
X13749766Y1091176D01*
X13750160Y1091226D01*
X13750553Y1091273D01*
X13750947Y1091319D01*
X13751341Y1091362D01*
X13751735Y1091403D01*
X13752129Y1091443D01*
X13752523Y1091480D01*
X13752917Y1091515D01*
X13753311Y1091549D01*
X13753705Y1091580D01*
X13754098Y1091609D01*
X13754492Y1091637D01*
X13754886Y1091662D01*
X13755279Y1091685D01*
X13755673Y1091707D01*
X13756066Y1091726D01*
X13756459Y1091743D01*
X13756852Y1091758D01*
X13757245Y1091772D01*
X13757637Y1091783D01*
X13758029Y1091792D01*
X13758421Y1091799D01*
X13758813Y1091804D01*
X13759205Y1091808D01*
X13759596Y1091809D01*
X13759987Y1091808D01*
X13760377Y1091805D01*
X13760768Y1091800D01*
X13761158Y1091793D01*
X13761547Y1091785D01*
X13761936Y1091774D01*
X13762325Y1091761D01*
X13762713Y1091746D01*
X13763101Y1091729D01*
X13763489Y1091711D01*
X13763876Y1091690D01*
X13764262Y1091667D01*
X13764648Y1091642D01*
X13765034Y1091616D01*
X13765419Y1091587D01*
X13765803Y1091557D01*
X13766187Y1091524D01*
X13766570Y1091489D01*
X13766953Y1091453D01*
X13767335Y1091414D01*
X13767717Y1091374D01*
X13768098Y1091332D01*
X13768478Y1091287D01*
X13768858Y1091241D01*
X13769237Y1091193D01*
X13769615Y1091143D01*
X13769993Y1091091D01*
X13770370Y1091037D01*
X13770746Y1090981D01*
X13771122Y1090923D01*
X13771497Y1090863D01*
X13771871Y1090802D01*
X13772244Y1090738D01*
X13772617Y1090673D01*
X13772989Y1090605D01*
X13773360Y1090536D01*
X13773730Y1090465D01*
X13774099Y1090392D01*
X13774468Y1090317D01*
X13774836Y1090240D01*
X13775203Y1090162D01*
X13775569Y1090081D01*
X13775934Y1089999D01*
X13776298Y1089915D01*
X13776662Y1089829D01*
X13777024Y1089741D01*
X13777386Y1089651D01*
X13777747Y1089559D01*
X13778107Y1089466D01*
X13778465Y1089371D01*
X13778824Y1089273D01*
X13779181Y1089175D01*
X13779537Y1089074D01*
X13779892Y1088971D01*
X13780246Y1088867D01*
X13780599Y1088761D01*
X13780951Y1088653D01*
X13781302Y1088543D01*
X13781653Y1088432D01*
X13782002Y1088318D01*
X13782350Y1088203D01*
X13782697Y1088087D01*
X13783043Y1087968D01*
X13783388Y1087848D01*
X13783732Y1087725D01*
X13784075Y1087602D01*
X13784417Y1087476D01*
X13784758Y1087349D01*
X13785098Y1087219D01*
X13785436Y1087089D01*
X13785774Y1086956D01*
X13786110Y1086822D01*
X13786446Y1086686D01*
X13786780Y1086548D01*
X13787113Y1086409D01*
X13787445Y1086268D01*
X13787776Y1086125D01*
X13788106Y1085980D01*
X13788435Y1085834D01*
X13788762Y1085686D01*
X13789089Y1085537D01*
X13789414Y1085385D01*
X13789738Y1085232D01*
X13790061Y1085078D01*
X13790382Y1084922D01*
X13790703Y1084764D01*
X13791022Y1084604D01*
X13791340Y1084443D01*
X13791658Y1084280D01*
X13791973Y1084116D01*
X13792288Y1083949D01*
X13792601Y1083782D01*
X13792914Y1083612D01*
X13793225Y1083441D01*
X13793535Y1083268D01*
X13793843Y1083094D01*
X13794151Y1082918D01*
X13794457Y1082741D01*
X13794762Y1082562D01*
X13795065Y1082381D01*
X13795368Y1082199D01*
X13795669Y1082015D01*
X13795969Y1081829D01*
X13796268Y1081642D01*
X13796566Y1081453D01*
X13796862Y1081263D01*
X13797157Y1081071D01*
X13797451Y1080878D01*
X13797743Y1080683D01*
X13798035Y1080486D01*
X13798325Y1080288D01*
X13798613Y1080089D01*
X13798901Y1079887D01*
X13799187Y1079684D01*
X13799472Y1079480D01*
X13799756Y1079274D01*
X13800038Y1079067D01*
X13800319Y1078858D01*
X13800599Y1078647D01*
X13800878Y1078435D01*
X13801155Y1078221D01*
X13801431Y1078006D01*
X13801706Y1077789D01*
X13801979Y1077571D01*
X13802252Y1077351D01*
X13802522Y1077130D01*
X13802792Y1076907D01*
X13803060Y1076683D01*
X13803327Y1076457D01*
X13803593Y1076229D01*
X13803857Y1076000D01*
X13804120Y1075770D01*
X13804382Y1075538D01*
X13804642Y1075305D01*
X13804901Y1075069D01*
X13805159Y1074833D01*
X13805416Y1074595D01*
X13805671Y1074355D01*
X13805925Y1074114D01*
X13806177Y1073872D01*
X13806428Y1073628D01*
X13806678Y1073382D01*
X13806927Y1073135D01*
X13806929Y1073132D01*
X13719752Y3146397D02*
X13810702Y3069162D01*
X13719752Y353603D02*
G75*
G02*
X13578456Y418565I-55713J64967D01*
G01*
X13806929Y2426868D02*
X13806434Y2426378D01*
X13805933Y2425894D01*
X13805426Y2425416D01*
X13804915Y2424943D01*
X13804398Y2424477D01*
X13803875Y2424017D01*
X13803348Y2423563D01*
X13802815Y2423114D01*
X13802277Y2422672D01*
X13801733Y2422236D01*
X13801185Y2421806D01*
X13800631Y2421381D01*
X13800072Y2420963D01*
X13799508Y2420552D01*
X13798939Y2420146D01*
X13798364Y2419746D01*
X13797785Y2419353D01*
X13797201Y2418966D01*
X13796611Y2418585D01*
X13796016Y2418210D01*
X13795417Y2417841D01*
X13794812Y2417479D01*
X13794203Y2417124D01*
X13793588Y2416774D01*
X13792969Y2416431D01*
X13792345Y2416095D01*
X13791716Y2415765D01*
X13791082Y2415441D01*
X13790443Y2415124D01*
X13789800Y2414813D01*
X13789152Y2414510D01*
X13788500Y2414212D01*
X13787842Y2413922D01*
X13787181Y2413638D01*
X13786514Y2413361D01*
X13785843Y2413091D01*
X13785168Y2412827D01*
X13784489Y2412571D01*
X13783805Y2412321D01*
X13783117Y2412079D01*
X13782424Y2411843D01*
X13781728Y2411614D01*
X13781027Y2411393D01*
X13780323Y2411178D01*
X13779614Y2410971D01*
X13778902Y2410771D01*
X13778186Y2410578D01*
X13777466Y2410392D01*
X13776742Y2410214D01*
X13776015Y2410043D01*
X13775284Y2409879D01*
X13774550Y2409723D01*
X13773812Y2409574D01*
X13773071Y2409433D01*
X13772327Y2409299D01*
X13771580Y2409173D01*
X13770830Y2409054D01*
X13770077Y2408944D01*
X13769321Y2408840D01*
X13768563Y2408745D01*
X13767802Y2408657D01*
X13767038Y2408577D01*
X13766272Y2408505D01*
X13765504Y2408440D01*
X13764734Y2408384D01*
X13763961Y2408335D01*
X13763187Y2408294D01*
X13762411Y2408261D01*
X13761633Y2408236D01*
X13760854Y2408219D01*
X13760073Y2408210D01*
X13759291Y2408209D01*
X13758507Y2408216D01*
X13757723Y2408230D01*
X13756938Y2408253D01*
X13756151Y2408284D01*
X13755365Y2408323D01*
X13754577Y2408370D01*
X13753790Y2408425D01*
X13753002Y2408488D01*
X13752214Y2408559D01*
X13751426Y2408638D01*
X13750638Y2408726D01*
X13749850Y2408821D01*
X13749063Y2408924D01*
X13748277Y2409035D01*
X13747491Y2409154D01*
X13746706Y2409281D01*
X13745922Y2409416D01*
X13745140Y2409559D01*
X13744358Y2409710D01*
X13743578Y2409869D01*
X13743189Y2409951D01*
X13742800Y2410035D01*
X13742412Y2410121D01*
X13742024Y2410209D01*
X13741636Y2410299D01*
X13741249Y2410391D01*
X13740862Y2410485D01*
X13740476Y2410581D01*
X13740091Y2410679D01*
X13739706Y2410779D01*
X13739322Y2410880D01*
X13738938Y2410984D01*
X13738555Y2411089D01*
X13738172Y2411197D01*
X13737790Y2411306D01*
X13737409Y2411417D01*
X13737029Y2411530D01*
X13736649Y2411645D01*
X13736270Y2411762D01*
X13735891Y2411881D01*
X13735514Y2412001D01*
X13735137Y2412124D01*
X13734761Y2412248D01*
X13734385Y2412374D01*
X13734011Y2412502D01*
X13733637Y2412631D01*
X13733265Y2412763D01*
X13732893Y2412896D01*
X13732522Y2413032D01*
X13732152Y2413169D01*
X13731782Y2413307D01*
X13731414Y2413448D01*
X13731047Y2413590D01*
X13730680Y2413734D01*
X13730315Y2413880D01*
X13729950Y2414028D01*
X13729587Y2414177D01*
X13729225Y2414329D01*
X13728863Y2414481D01*
X13728503Y2414636D01*
X13728144Y2414792D01*
X13727785Y2414951D01*
X13727428Y2415110D01*
X13727072Y2415272D01*
X13726717Y2415435D01*
X13726364Y2415600D01*
X13726011Y2415766D01*
X13725660Y2415935D01*
X13725309Y2416104D01*
X13724960Y2416276D01*
X13724612Y2416449D01*
X13724266Y2416624D01*
X13723920Y2416800D01*
X13723576Y2416978D01*
X13723233Y2417158D01*
X13722891Y2417339D01*
X13722551Y2417522D01*
X13722212Y2417706D01*
X13721874Y2417892D01*
X13721537Y2418080D01*
X13721202Y2418269D01*
X13720868Y2418460D01*
X13720536Y2418652D01*
X13720204Y2418846D01*
X13719874Y2419041D01*
X13719546Y2419238D01*
X13719219Y2419436D01*
X13718893Y2419636D01*
X13718569Y2419837D01*
X13718246Y2420040D01*
X13717924Y2420244D01*
X13717604Y2420449D01*
X13717286Y2420656D01*
X13716969Y2420865D01*
X13716653Y2421075D01*
X13716339Y2421287D01*
X13716026Y2421499D01*
X13715715Y2421714D01*
X13715405Y2421929D01*
X13715097Y2422146D01*
X13714790Y2422365D01*
X13714485Y2422585D01*
X13714181Y2422806D01*
X13713879Y2423028D01*
X13713578Y2423252D01*
X13713279Y2423478D01*
X13712982Y2423704D01*
X13712686Y2423932D01*
X13712391Y2424161D01*
X13712099Y2424392D01*
X13711807Y2424623D01*
X13711518Y2424857D01*
X13711230Y2425091D01*
X13710943Y2425327D01*
X13710659Y2425564D01*
X13710375Y2425802D01*
X13710094Y2426041D01*
X13709814Y2426282D01*
X13709536Y2426524D01*
X13709259Y2426767D01*
X13708984Y2427012D01*
X13708710Y2427257D01*
X13708439Y2427504D01*
X13708169Y2427752D01*
X13707900Y2428001D01*
X13707634Y2428252D01*
X13707369Y2428503D01*
X13707105Y2428756D01*
X13706844Y2429010D01*
X13706583Y2429265D01*
X13706325Y2429521D01*
X13706068Y2429779D01*
X13705814Y2430037D01*
X13705560Y2430297D01*
X13705309Y2430558D01*
X13705059Y2430820D01*
X13704811Y2431082D01*
X13704565Y2431347D01*
X13704320Y2431612D01*
X13704077Y2431878D01*
X13703836Y2432145D01*
X13703596Y2432414D01*
X13703359Y2432683D01*
X13703123Y2432954D01*
X13702889Y2433225D01*
X13702656Y2433498D01*
X13702425Y2433771D01*
X13702196Y2434046D01*
X13701969Y2434322D01*
X13701743Y2434599D01*
X13701520Y2434876D01*
X13701297Y2435155D01*
X13701077Y2435435D01*
X13700859Y2435716D01*
X13700642Y2435998D01*
X13700427Y2436281D01*
X13700214Y2436564D01*
X13700002Y2436849D01*
X13699793Y2437135D01*
X13699585Y2437422D01*
X13699379Y2437709D01*
X13699174Y2437998D01*
X13698972Y2438288D01*
X13698771Y2438578D01*
X13698572Y2438870D01*
X13698375Y2439162D01*
X13698179Y2439455D01*
X13697986Y2439750D01*
X13697794Y2440045D01*
X13697604Y2440341D01*
X13697415Y2440638D01*
X13697229Y2440937D01*
X13697044Y2441235D01*
X13696861Y2441535D01*
X13696680Y2441836D01*
X13696501Y2442138D01*
X13696323Y2442440D01*
X13696147Y2442744D01*
X13695974Y2443048D01*
X13695801Y2443353D01*
X13695631Y2443659D01*
X13695463Y2443967D01*
X13695296Y2444274D01*
X13695131Y2444583D01*
X13694968Y2444893D01*
X13694806Y2445203D01*
X13694647Y2445515D01*
X13694489Y2445827D01*
X13694333Y2446140D01*
X13694179Y2446454D01*
X13694027Y2446769D01*
X13693877Y2447085D01*
X13693728Y2447401D01*
X13693581Y2447719D01*
X13693436Y2448037D01*
X13693293Y2448356D01*
X13693152Y2448676D01*
X13693012Y2448996D01*
X13692874Y2449318D01*
X13692738Y2449640D01*
X13692604Y2449964D01*
X13692472Y2450288D01*
X13692342Y2450613D01*
X13692213Y2450938D01*
X13692086Y2451265D01*
X13691961Y2451592D01*
X13691960Y2451596D01*
X13806929Y1073132D02*
X13900303Y979758D01*
X13810701Y430838D02*
X13719752Y353603D01*
X13810702Y3069162D02*
X13811170Y3068872D01*
X13811641Y3068590D01*
X13812117Y3068314D01*
X13812596Y3068045D01*
X13813079Y3067784D01*
X13813566Y3067529D01*
X13814057Y3067281D01*
X13814552Y3067040D01*
X13815051Y3066806D01*
X13815554Y3066579D01*
X13816060Y3066360D01*
X13816571Y3066147D01*
X13817085Y3065941D01*
X13817602Y3065743D01*
X13818124Y3065551D01*
X13818649Y3065367D01*
X13819178Y3065190D01*
X13819711Y3065019D01*
X13820247Y3064857D01*
X13820787Y3064701D01*
X13821331Y3064553D01*
X13821878Y3064412D01*
X13822429Y3064278D01*
X13822983Y3064152D01*
X13823540Y3064033D01*
X13824101Y3063922D01*
X13824665Y3063818D01*
X13825232Y3063722D01*
X13825803Y3063633D01*
X13826377Y3063552D01*
X13826954Y3063478D01*
X13827534Y3063412D01*
X13828117Y3063354D01*
X13828702Y3063303D01*
X13829291Y3063261D01*
X13829883Y3063226D01*
X13830477Y3063199D01*
X13831073Y3063179D01*
X13831673Y3063168D01*
X13832274Y3063165D01*
X13832878Y3063169D01*
X13833484Y3063182D01*
X13834092Y3063203D01*
X13834703Y3063231D01*
X13835315Y3063268D01*
X13835929Y3063313D01*
X13836544Y3063366D01*
X13837161Y3063427D01*
X13837780Y3063497D01*
X13838400Y3063574D01*
X13839021Y3063660D01*
X13839643Y3063754D01*
X13840266Y3063856D01*
X13840889Y3063967D01*
X13841513Y3064086D01*
X13842138Y3064212D01*
X13842763Y3064347D01*
X13843388Y3064491D01*
X13844013Y3064642D01*
X13844637Y3064802D01*
X13845262Y3064970D01*
X13845885Y3065146D01*
X13846509Y3065330D01*
X13847131Y3065522D01*
X13847752Y3065722D01*
X13848372Y3065930D01*
X13848990Y3066146D01*
X13849607Y3066370D01*
X13850222Y3066602D01*
X13850835Y3066842D01*
X13851446Y3067089D01*
X13852055Y3067344D01*
X13852661Y3067607D01*
X13853264Y3067877D01*
X13853864Y3068155D01*
X13854462Y3068440D01*
X13855056Y3068732D01*
X13855647Y3069032D01*
X13855941Y3069185D01*
X13856234Y3069339D01*
X13856526Y3069495D01*
X13856817Y3069653D01*
X13857107Y3069812D01*
X13857396Y3069973D01*
X13857684Y3070136D01*
X13857971Y3070301D01*
X13858257Y3070467D01*
X13858542Y3070635D01*
X13858826Y3070805D01*
X13859109Y3070976D01*
X13859390Y3071149D01*
X13859670Y3071324D01*
X13859949Y3071500D01*
X13860227Y3071678D01*
X13860504Y3071857D01*
X13860779Y3072038D01*
X13861053Y3072221D01*
X13861326Y3072405D01*
X13861597Y3072590D01*
X13861867Y3072777D01*
X13862136Y3072966D01*
X13862403Y3073156D01*
X13862669Y3073347D01*
X13862933Y3073540D01*
X13863196Y3073735D01*
X13863458Y3073930D01*
X13863718Y3074127D01*
X13863977Y3074326D01*
X13864234Y3074526D01*
X13864490Y3074727D01*
X13864744Y3074930D01*
X13864996Y3075134D01*
X13865247Y3075339D01*
X13865497Y3075546D01*
X13865744Y3075753D01*
X13865991Y3075963D01*
X13866235Y3076173D01*
X13866478Y3076384D01*
X13866719Y3076597D01*
X13866959Y3076811D01*
X13867197Y3077026D01*
X13867433Y3077243D01*
X13867668Y3077460D01*
X13867900Y3077679D01*
X13868131Y3077898D01*
X13868361Y3078119D01*
X13868588Y3078341D01*
X13868814Y3078564D01*
X13869038Y3078788D01*
X13869260Y3079013D01*
X13869481Y3079239D01*
X13869699Y3079467D01*
X13869916Y3079695D01*
X13870131Y3079924D01*
X13870344Y3080154D01*
X13870556Y3080385D01*
X13870765Y3080617D01*
X13870973Y3080850D01*
X13871178Y3081084D01*
X13871382Y3081319D01*
X13871584Y3081554D01*
X13871784Y3081791D01*
X13871982Y3082028D01*
X13872179Y3082266D01*
X13872373Y3082505D01*
X13872565Y3082745D01*
X13872755Y3082986D01*
X13872944Y3083227D01*
X13873131Y3083469D01*
X13873315Y3083712D01*
X13873498Y3083956D01*
X13873679Y3084200D01*
X13873857Y3084445D01*
X13874034Y3084691D01*
X13874209Y3084938D01*
X13874382Y3085185D01*
X13874553Y3085433D01*
X13874722Y3085681D01*
X13874889Y3085930D01*
X13875054Y3086180D01*
X13875216Y3086431D01*
X13875377Y3086682D01*
X13875536Y3086933D01*
X13875693Y3087186D01*
X13875848Y3087438D01*
X13876001Y3087692D01*
X13876152Y3087946D01*
X13876301Y3088200D01*
X13876448Y3088455D01*
X13876593Y3088711D01*
X13876736Y3088967D01*
X13876877Y3089224D01*
X13877015Y3089480D01*
X13877152Y3089738D01*
X13877287Y3089996D01*
X13877420Y3090255D01*
X13877550Y3090513D01*
X13877679Y3090773D01*
X13877806Y3091033D01*
X13877931Y3091293D01*
X13878053Y3091553D01*
X13878174Y3091815D01*
X13878293Y3092076D01*
X13878409Y3092338D01*
X13878524Y3092600D01*
X13878637Y3092863D01*
X13878747Y3093126D01*
X13878856Y3093390D01*
X13878962Y3093653D01*
X13879067Y3093918D01*
X13879169Y3094182D01*
X13879270Y3094447D01*
X13879368Y3094712D01*
X13879465Y3094978D01*
X13879559Y3095243D01*
X13879652Y3095509D01*
X13879742Y3095776D01*
X13879830Y3096043D01*
X13879917Y3096310D01*
X13880001Y3096577D01*
X13880083Y3096845D01*
X13880164Y3097113D01*
X13880242Y3097381D01*
X13880319Y3097649D01*
X13880393Y3097918D01*
X13880465Y3098187D01*
X13880535Y3098456D01*
X13880604Y3098726D01*
X13880670Y3098995D01*
X13880734Y3099266D01*
X13880797Y3099536D01*
X13880857Y3099807D01*
X13880915Y3100077D01*
X13880971Y3100348D01*
X13881026Y3100619D01*
X13881078Y3100891D01*
X13881128Y3101162D01*
X13881177Y3101435D01*
X13881223Y3101706D01*
X13881267Y3101979D01*
X13881309Y3102251D01*
X13881350Y3102524D01*
X13881388Y3102797D01*
X13881424Y3103070D01*
X13881459Y3103344D01*
X13881491Y3103617D01*
X13881521Y3103891D01*
X13881550Y3104165D01*
X13881576Y3104439D01*
X13881600Y3104714D01*
X13881623Y3104988D01*
X13881643Y3105263D01*
X13881661Y3105538D01*
X13881678Y3105813D01*
X13881678Y3105823D01*
X13852439Y3259157D02*
G75*
G02*
X13881678Y3105823I-7602069J-1529087D01*
G01*
X13852439Y240843D02*
G75*
G02*
X13558329Y0I-294109J59157D01*
G01*
X13881678Y394177D02*
X13881644Y394726D01*
X13881601Y395274D01*
X13881551Y395821D01*
X13881493Y396367D01*
X13881427Y396913D01*
X13881352Y397458D01*
X13881270Y398002D01*
X13881180Y398545D01*
X13881082Y399087D01*
X13880976Y399628D01*
X13880862Y400168D01*
X13880741Y400707D01*
X13880611Y401246D01*
X13880473Y401783D01*
X13880327Y402319D01*
X13880174Y402854D01*
X13880012Y403388D01*
X13879842Y403921D01*
X13879665Y404453D01*
X13879479Y404983D01*
X13879285Y405512D01*
X13879084Y406040D01*
X13878874Y406566D01*
X13878656Y407091D01*
X13878431Y407614D01*
X13878197Y408136D01*
X13877955Y408656D01*
X13877705Y409175D01*
X13877447Y409692D01*
X13877182Y410206D01*
X13876908Y410720D01*
X13876626Y411231D01*
X13876336Y411740D01*
X13876038Y412247D01*
X13875732Y412751D01*
X13875418Y413254D01*
X13875097Y413754D01*
X13874767Y414252D01*
X13874429Y414747D01*
X13874084Y415239D01*
X13873731Y415729D01*
X13873369Y416216D01*
X13873001Y416700D01*
X13872624Y417181D01*
X13872240Y417659D01*
X13871848Y418134D01*
X13871448Y418605D01*
X13871041Y419073D01*
X13870626Y419537D01*
X13870204Y419998D01*
X13869775Y420454D01*
X13869338Y420907D01*
X13868894Y421356D01*
X13868444Y421801D01*
X13867986Y422241D01*
X13867521Y422677D01*
X13867049Y423108D01*
X13866570Y423535D01*
X13866085Y423957D01*
X13865593Y424374D01*
X13865095Y424786D01*
X13864591Y425193D01*
X13864080Y425594D01*
X13863563Y425991D01*
X13863040Y426381D01*
X13862512Y426766D01*
X13861978Y427146D01*
X13861438Y427519D01*
X13860893Y427886D01*
X13860343Y428248D01*
X13859787Y428603D01*
X13859227Y428951D01*
X13858662Y429293D01*
X13858092Y429629D01*
X13857518Y429958D01*
X13856940Y430280D01*
X13856358Y430595D01*
X13855772Y430904D01*
X13855477Y431055D01*
X13855182Y431205D01*
X13854885Y431353D01*
X13854588Y431499D01*
X13854290Y431643D01*
X13853991Y431786D01*
X13853692Y431926D01*
X13853391Y432065D01*
X13853090Y432202D01*
X13852788Y432337D01*
X13852486Y432470D01*
X13852182Y432601D01*
X13851878Y432731D01*
X13851574Y432858D01*
X13851269Y432984D01*
X13850963Y433108D01*
X13850657Y433229D01*
X13850350Y433349D01*
X13850042Y433467D01*
X13849734Y433583D01*
X13849426Y433697D01*
X13849117Y433809D01*
X13848808Y433919D01*
X13848498Y434027D01*
X13848188Y434133D01*
X13847878Y434237D01*
X13847567Y434339D01*
X13847256Y434439D01*
X13846945Y434537D01*
X13846633Y434633D01*
X13846321Y434727D01*
X13846009Y434819D01*
X13845697Y434909D01*
X13845384Y434997D01*
X13845072Y435083D01*
X13844759Y435166D01*
X13844446Y435248D01*
X13844133Y435328D01*
X13843820Y435406D01*
X13843507Y435481D01*
X13843194Y435555D01*
X13842881Y435626D01*
X13842568Y435696D01*
X13842254Y435763D01*
X13841941Y435829D01*
X13841628Y435892D01*
X13841315Y435953D01*
X13841002Y436012D01*
X13840690Y436070D01*
X13840377Y436125D01*
X13840065Y436178D01*
X13839753Y436229D01*
X13839441Y436277D01*
X13839129Y436324D01*
X13838817Y436369D01*
X13838506Y436412D01*
X13838195Y436452D01*
X13837884Y436491D01*
X13837574Y436527D01*
X13837264Y436562D01*
X13836954Y436594D01*
X13836645Y436625D01*
X13836336Y436653D01*
X13836027Y436679D01*
X13835719Y436703D01*
X13835411Y436726D01*
X13835104Y436746D01*
X13834797Y436764D01*
X13834490Y436780D01*
X13834184Y436794D01*
X13833879Y436806D01*
X13833574Y436816D01*
X13833270Y436824D01*
X13832965Y436830D01*
X13832662Y436834D01*
X13832359Y436835D01*
X13832057Y436835D01*
X13831755Y436833D01*
X13831455Y436829D01*
X13831154Y436823D01*
X13830854Y436815D01*
X13830555Y436805D01*
X13830257Y436793D01*
X13829959Y436779D01*
X13829662Y436763D01*
X13829365Y436745D01*
X13829069Y436725D01*
X13828774Y436703D01*
X13828480Y436679D01*
X13828186Y436653D01*
X13827893Y436625D01*
X13827601Y436595D01*
X13827309Y436564D01*
X13827018Y436530D01*
X13826729Y436495D01*
X13826439Y436457D01*
X13826151Y436418D01*
X13825863Y436376D01*
X13825576Y436333D01*
X13825290Y436288D01*
X13825005Y436241D01*
X13824720Y436192D01*
X13824437Y436141D01*
X13824154Y436089D01*
X13823872Y436034D01*
X13823591Y435978D01*
X13823311Y435919D01*
X13823031Y435859D01*
X13822753Y435797D01*
X13822475Y435733D01*
X13822199Y435667D01*
X13821923Y435600D01*
X13821648Y435530D01*
X13821374Y435459D01*
X13821100Y435386D01*
X13820828Y435311D01*
X13820557Y435234D01*
X13820286Y435155D01*
X13820017Y435075D01*
X13819748Y434992D01*
X13819480Y434908D01*
X13819213Y434822D01*
X13818947Y434735D01*
X13818682Y434645D01*
X13818418Y434554D01*
X13818155Y434460D01*
X13817893Y434366D01*
X13817632Y434269D01*
X13817371Y434170D01*
X13817112Y434070D01*
X13816854Y433968D01*
X13816596Y433864D01*
X13816340Y433758D01*
X13816084Y433651D01*
X13815830Y433542D01*
X13815576Y433431D01*
X13815324Y433318D01*
X13815072Y433204D01*
X13814821Y433088D01*
X13814572Y432969D01*
X13814323Y432850D01*
X13814075Y432728D01*
X13813829Y432605D01*
X13813583Y432480D01*
X13813338Y432353D01*
X13813094Y432225D01*
X13812851Y432095D01*
X13812610Y431963D01*
X13812369Y431829D01*
X13812129Y431693D01*
X13811890Y431556D01*
X13811652Y431417D01*
X13811416Y431277D01*
X13811180Y431134D01*
X13810945Y430990D01*
X13810711Y430844D01*
X13810701Y430838D01*
X13881678Y394177D02*
G75*
G02*
X13852439Y240843I-7632258J1375933D01*
G01*
X13900303Y2520242D02*
X13806929Y2426868D01*
X13900303Y979758D02*
X13900749Y979467D01*
X13901200Y979183D01*
X13901654Y978906D01*
X13902113Y978636D01*
X13902575Y978373D01*
X13903042Y978116D01*
X13903513Y977867D01*
X13903988Y977624D01*
X13904467Y977388D01*
X13904950Y977159D01*
X13905437Y976937D01*
X13905927Y976722D01*
X13906422Y976514D01*
X13906921Y976313D01*
X13907424Y976119D01*
X13907930Y975932D01*
X13908441Y975753D01*
X13908955Y975580D01*
X13909473Y975414D01*
X13909995Y975256D01*
X13910521Y975105D01*
X13911050Y974961D01*
X13911583Y974824D01*
X13912119Y974695D01*
X13912659Y974573D01*
X13913203Y974458D01*
X13913750Y974351D01*
X13914301Y974252D01*
X13914854Y974159D01*
X13915411Y974075D01*
X13915972Y973998D01*
X13916535Y973928D01*
X13917102Y973867D01*
X13917671Y973813D01*
X13918244Y973766D01*
X13918819Y973728D01*
X13919397Y973697D01*
X13919978Y973674D01*
X13920561Y973659D01*
X13921147Y973652D01*
X13921735Y973653D01*
X13922325Y973662D01*
X13922918Y973679D01*
X13923513Y973704D01*
X13924109Y973738D01*
X13924707Y973779D01*
X13925307Y973828D01*
X13925909Y973886D01*
X13926511Y973951D01*
X13927115Y974025D01*
X13927721Y974107D01*
X13928327Y974197D01*
X13928934Y974296D01*
X13929541Y974402D01*
X13930149Y974517D01*
X13930757Y974640D01*
X13931366Y974771D01*
X13931974Y974911D01*
X13932583Y975058D01*
X13933191Y975214D01*
X13933798Y975378D01*
X13934405Y975550D01*
X13935010Y975730D01*
X13935615Y975917D01*
X13936218Y976113D01*
X13936820Y976317D01*
X13937421Y976529D01*
X13938019Y976748D01*
X13938615Y976976D01*
X13939210Y977211D01*
X13939801Y977454D01*
X13940390Y977704D01*
X13940977Y977962D01*
X13941560Y978227D01*
X13942140Y978499D01*
X13942717Y978779D01*
X13943004Y978922D01*
X13943290Y979066D01*
X13943575Y979212D01*
X13943860Y979360D01*
X13944143Y979509D01*
X13944425Y979661D01*
X13944706Y979814D01*
X13944986Y979969D01*
X13945266Y980125D01*
X13945544Y980283D01*
X13945820Y980443D01*
X13946096Y980605D01*
X13946371Y980768D01*
X13946644Y980932D01*
X13946916Y981099D01*
X13947188Y981267D01*
X13947457Y981436D01*
X13947726Y981607D01*
X13947993Y981780D01*
X13948259Y981954D01*
X13948523Y982130D01*
X13948787Y982307D01*
X13949049Y982486D01*
X13949309Y982666D01*
X13949568Y982848D01*
X13949826Y983031D01*
X13950082Y983216D01*
X13950337Y983402D01*
X13950590Y983589D01*
X13950842Y983778D01*
X13951092Y983968D01*
X13951341Y984159D01*
X13951588Y984352D01*
X13951834Y984546D01*
X13952078Y984742D01*
X13952321Y984939D01*
X13952562Y985137D01*
X13952801Y985336D01*
X13953039Y985537D01*
X13953275Y985739D01*
X13953509Y985942D01*
X13953742Y986146D01*
X13953973Y986351D01*
X13954203Y986558D01*
X13954430Y986766D01*
X13954656Y986975D01*
X13954880Y987184D01*
X13955103Y987396D01*
X13955323Y987608D01*
X13955542Y987821D01*
X13955759Y988035D01*
X13955975Y988251D01*
X13956188Y988467D01*
X13956400Y988685D01*
X13956610Y988903D01*
X13956818Y989123D01*
X13957024Y989343D01*
X13957228Y989564D01*
X13957431Y989787D01*
X13957632Y990010D01*
X13957830Y990234D01*
X13958027Y990459D01*
X13958222Y990685D01*
X13958415Y990912D01*
X13958606Y991139D01*
X13958796Y991368D01*
X13958983Y991597D01*
X13959169Y991828D01*
X13959352Y992058D01*
X13959534Y992290D01*
X13959713Y992522D01*
X13959891Y992756D01*
X13960067Y992990D01*
X13960241Y993225D01*
X13960412Y993460D01*
X13960583Y993696D01*
X13960750Y993933D01*
X13960916Y994171D01*
X13961080Y994409D01*
X13961242Y994648D01*
X13961402Y994887D01*
X13961560Y995128D01*
X13961716Y995368D01*
X13961871Y995610D01*
X13962022Y995852D01*
X13962173Y996095D01*
X13962321Y996338D01*
X13962467Y996582D01*
X13962611Y996826D01*
X13962753Y997071D01*
X13962893Y997317D01*
X13963031Y997563D01*
X13963167Y997809D01*
X13963301Y998056D01*
X13963433Y998304D01*
X13963563Y998552D01*
X13963691Y998800D01*
X13963818Y999050D01*
X13963942Y999299D01*
X13964064Y999549D01*
X13964184Y999799D01*
X13964302Y1000051D01*
X13964418Y1000302D01*
X13964532Y1000554D01*
X13964644Y1000806D01*
X13964754Y1001058D01*
X13964862Y1001311D01*
X13964968Y1001565D01*
X13965072Y1001819D01*
X13965174Y1002073D01*
X13965273Y1002327D01*
X13965371Y1002583D01*
X13965467Y1002838D01*
X13965561Y1003094D01*
X13965653Y1003349D01*
X13965743Y1003606D01*
X13965831Y1003863D01*
X13965917Y1004120D01*
X13966001Y1004377D01*
X13966083Y1004635D01*
X13966163Y1004893D01*
X13966241Y1005152D01*
X13966316Y1005410D01*
X13966390Y1005670D01*
X13966462Y1005929D01*
X13966532Y1006189D01*
X13966600Y1006448D01*
X13966666Y1006709D01*
X13966730Y1006969D01*
X13966792Y1007230D01*
X13966852Y1007491D01*
X13966910Y1007753D01*
X13966966Y1008015D01*
X13967020Y1008277D01*
X13967072Y1008539D01*
X13967122Y1008802D01*
X13967170Y1009064D01*
X13967216Y1009327D01*
X13967260Y1009591D01*
X13967302Y1009854D01*
X13967342Y1010118D01*
X13967380Y1010382D01*
X13967416Y1010646D01*
X13967450Y1010911D01*
X13967482Y1011176D01*
X13967512Y1011441D01*
X13967541Y1011706D01*
X13967567Y1011972D01*
X13967595Y1012289D01*
X13967595Y2487711D02*
X13967546Y2488241D01*
X13967489Y2488771D01*
X13967423Y2489299D01*
X13967350Y2489826D01*
X13967269Y2490352D01*
X13967180Y2490877D01*
X13967083Y2491401D01*
X13966979Y2491924D01*
X13966866Y2492446D01*
X13966745Y2492967D01*
X13966617Y2493486D01*
X13966480Y2494004D01*
X13966336Y2494521D01*
X13966184Y2495037D01*
X13966024Y2495552D01*
X13965855Y2496065D01*
X13965679Y2496576D01*
X13965495Y2497087D01*
X13965303Y2497596D01*
X13965103Y2498103D01*
X13964895Y2498609D01*
X13964679Y2499113D01*
X13964455Y2499615D01*
X13964223Y2500116D01*
X13963984Y2500615D01*
X13963736Y2501112D01*
X13963480Y2501608D01*
X13963216Y2502101D01*
X13962944Y2502592D01*
X13962665Y2503082D01*
X13962377Y2503568D01*
X13962081Y2504053D01*
X13961778Y2504536D01*
X13961466Y2505015D01*
X13961147Y2505493D01*
X13960820Y2505968D01*
X13960485Y2506440D01*
X13960142Y2506909D01*
X13959791Y2507375D01*
X13959433Y2507839D01*
X13959067Y2508299D01*
X13958693Y2508756D01*
X13958312Y2509210D01*
X13957923Y2509660D01*
X13957527Y2510107D01*
X13957123Y2510550D01*
X13956711Y2510990D01*
X13956293Y2511426D01*
X13955867Y2511857D01*
X13955434Y2512285D01*
X13954994Y2512708D01*
X13954546Y2513127D01*
X13954092Y2513542D01*
X13953631Y2513951D01*
X13953164Y2514357D01*
X13952690Y2514757D01*
X13952209Y2515152D01*
X13951722Y2515543D01*
X13951228Y2515928D01*
X13950729Y2516308D01*
X13950223Y2516682D01*
X13949711Y2517051D01*
X13949194Y2517414D01*
X13948671Y2517771D01*
X13948143Y2518122D01*
X13947609Y2518467D01*
X13947071Y2518806D01*
X13946527Y2519138D01*
X13945978Y2519465D01*
X13945425Y2519784D01*
X13944867Y2520097D01*
X13944305Y2520404D01*
X13943739Y2520703D01*
X13943169Y2520995D01*
X13942595Y2521281D01*
X13942018Y2521559D01*
X13941728Y2521695D01*
X13941437Y2521830D01*
X13941145Y2521963D01*
X13940853Y2522094D01*
X13940559Y2522223D01*
X13940265Y2522350D01*
X13939971Y2522475D01*
X13939676Y2522599D01*
X13939380Y2522720D01*
X13939083Y2522840D01*
X13938786Y2522958D01*
X13938488Y2523073D01*
X13938189Y2523187D01*
X13937890Y2523299D01*
X13937591Y2523409D01*
X13937291Y2523517D01*
X13936991Y2523623D01*
X13936690Y2523728D01*
X13936389Y2523830D01*
X13936087Y2523930D01*
X13935785Y2524028D01*
X13935482Y2524124D01*
X13935180Y2524219D01*
X13934877Y2524311D01*
X13934573Y2524401D01*
X13934270Y2524489D01*
X13933966Y2524575D01*
X13933662Y2524660D01*
X13933358Y2524742D01*
X13933053Y2524822D01*
X13932749Y2524900D01*
X13932444Y2524976D01*
X13932139Y2525050D01*
X13931835Y2525122D01*
X13931530Y2525192D01*
X13931225Y2525260D01*
X13930920Y2525325D01*
X13930615Y2525389D01*
X13930310Y2525451D01*
X13930005Y2525511D01*
X13929701Y2525568D01*
X13929396Y2525624D01*
X13929092Y2525677D01*
X13928787Y2525729D01*
X13928483Y2525778D01*
X13928179Y2525825D01*
X13927875Y2525871D01*
X13927571Y2525914D01*
X13927268Y2525955D01*
X13926965Y2525994D01*
X13926662Y2526031D01*
X13926360Y2526066D01*
X13926057Y2526099D01*
X13925755Y2526130D01*
X13925454Y2526158D01*
X13925153Y2526185D01*
X13924852Y2526210D01*
X13924551Y2526233D01*
X13924252Y2526253D01*
X13923952Y2526272D01*
X13923653Y2526288D01*
X13923354Y2526303D01*
X13923056Y2526315D01*
X13922758Y2526326D01*
X13922461Y2526334D01*
X13922164Y2526341D01*
X13921868Y2526345D01*
X13921573Y2526348D01*
X13921278Y2526348D01*
X13920983Y2526346D01*
X13920690Y2526343D01*
X13920396Y2526337D01*
X13920104Y2526329D01*
X13919812Y2526320D01*
X13919521Y2526308D01*
X13919230Y2526295D01*
X13918940Y2526279D01*
X13918651Y2526262D01*
X13918362Y2526242D01*
X13918074Y2526221D01*
X13917787Y2526197D01*
X13917501Y2526172D01*
X13917215Y2526145D01*
X13916930Y2526115D01*
X13916646Y2526084D01*
X13916362Y2526051D01*
X13916080Y2526016D01*
X13915798Y2525979D01*
X13915517Y2525940D01*
X13915237Y2525900D01*
X13914958Y2525857D01*
X13914679Y2525812D01*
X13914401Y2525766D01*
X13914124Y2525717D01*
X13913848Y2525667D01*
X13913573Y2525615D01*
X13913299Y2525561D01*
X13913025Y2525505D01*
X13912753Y2525447D01*
X13912481Y2525388D01*
X13912210Y2525326D01*
X13911940Y2525263D01*
X13911671Y2525198D01*
X13911403Y2525130D01*
X13911136Y2525062D01*
X13910869Y2524991D01*
X13910604Y2524918D01*
X13910339Y2524844D01*
X13910076Y2524768D01*
X13909813Y2524690D01*
X13909552Y2524610D01*
X13909291Y2524528D01*
X13909032Y2524445D01*
X13908773Y2524360D01*
X13908515Y2524273D01*
X13908258Y2524184D01*
X13908002Y2524093D01*
X13907747Y2524001D01*
X13907494Y2523907D01*
X13907241Y2523811D01*
X13906989Y2523713D01*
X13906738Y2523614D01*
X13906488Y2523513D01*
X13906239Y2523409D01*
X13905991Y2523305D01*
X13905744Y2523198D01*
X13905498Y2523090D01*
X13905253Y2522980D01*
X13905009Y2522868D01*
X13904766Y2522755D01*
X13904524Y2522640D01*
X13904283Y2522523D01*
X13904044Y2522404D01*
X13903805Y2522283D01*
X13903567Y2522161D01*
X13903330Y2522037D01*
X13903094Y2521912D01*
X13902860Y2521784D01*
X13902626Y2521655D01*
X13902393Y2521525D01*
X13902162Y2521392D01*
X13901931Y2521258D01*
X13901701Y2521122D01*
X13901473Y2520984D01*
X13901245Y2520845D01*
X13901019Y2520704D01*
X13900793Y2520561D01*
X13900569Y2520417D01*
X13900303Y2520242D01*
X13967595Y2487711D02*
G75*
G02*
X14000000Y2000000I-7717835J-757731D01*
G01*
X14000000Y1500000D02*
G75*
G02*
X13967595Y1012289I-7749850J269990D01*
G01*
X14000000Y1500000D02*
X14000000Y2000000D01*
D12*
X248277Y-323984D02*
X248277Y-123984D01*
X248277Y-123984D02*
X295896Y-123984D01*
X295896Y-123984D02*
X324467Y-133508D01*
X324467Y-133508D02*
X343515Y-152555D01*
X343515Y-152555D02*
X353039Y-171603D01*
X353039Y-171603D02*
X362562Y-209698D01*
X362562Y-209698D02*
X362562Y-238269D01*
X362562Y-238269D02*
X353039Y-276365D01*
X353039Y-276365D02*
X343515Y-295412D01*
X343515Y-295412D02*
X324467Y-314460D01*
X324467Y-314460D02*
X295896Y-323984D01*
X295896Y-323984D02*
X248277Y-323984D01*
X448277Y-323984D02*
X448277Y-190650D01*
X448277Y-228746D02*
X457800Y-209698D01*
X457800Y-209698D02*
X467324Y-200174D01*
X467324Y-200174D02*
X486372Y-190650D01*
X486372Y-190650D02*
X505420Y-190650D01*
X572086Y-323984D02*
X572086Y-190650D01*
X572086Y-123984D02*
X562562Y-133508D01*
X562562Y-133508D02*
X572086Y-143031D01*
X572086Y-143031D02*
X581610Y-133508D01*
X581610Y-133508D02*
X572086Y-123984D01*
X572086Y-123984D02*
X572086Y-143031D01*
X695896Y-323984D02*
X676848Y-314460D01*
X676848Y-314460D02*
X667324Y-295412D01*
X667324Y-295412D02*
X667324Y-123984D01*
X800658Y-323984D02*
X781610Y-314460D01*
X781610Y-314460D02*
X772086Y-295412D01*
X772086Y-295412D02*
X772086Y-123984D01*
X1029229Y-323984D02*
X1029229Y-123984D01*
X1029229Y-123984D02*
X1095896Y-266841D01*
X1095896Y-266841D02*
X1162562Y-123984D01*
X1162562Y-123984D02*
X1162562Y-323984D01*
X1343515Y-323984D02*
X1343515Y-219222D01*
X1343515Y-219222D02*
X1333991Y-200174D01*
X1333991Y-200174D02*
X1314943Y-190650D01*
X1314943Y-190650D02*
X1276848Y-190650D01*
X1276848Y-190650D02*
X1257801Y-200174D01*
X1343515Y-314460D02*
X1324467Y-323984D01*
X1324467Y-323984D02*
X1276848Y-323984D01*
X1276848Y-323984D02*
X1257801Y-314460D01*
X1257801Y-314460D02*
X1248277Y-295412D01*
X1248277Y-295412D02*
X1248277Y-276365D01*
X1248277Y-276365D02*
X1257801Y-257317D01*
X1257801Y-257317D02*
X1276848Y-247793D01*
X1276848Y-247793D02*
X1324467Y-247793D01*
X1324467Y-247793D02*
X1343515Y-238269D01*
X1438753Y-190650D02*
X1438753Y-390650D01*
X1438753Y-200174D02*
X1457800Y-190650D01*
X1457800Y-190650D02*
X1495896Y-190650D01*
X1495896Y-190650D02*
X1514943Y-200174D01*
X1514943Y-200174D02*
X1524467Y-209698D01*
X1524467Y-209698D02*
X1533991Y-228746D01*
X1533991Y-228746D02*
X1533991Y-285889D01*
X1533991Y-285889D02*
X1524467Y-304936D01*
X1524467Y-304936D02*
X1514943Y-314460D01*
X1514943Y-314460D02*
X1495896Y-323984D01*
X1495896Y-323984D02*
X1457800Y-323984D01*
X1457800Y-323984D02*
X1438753Y-314460D01*
X1619705Y-304936D02*
X1629229Y-314460D01*
X1629229Y-314460D02*
X1619705Y-323984D01*
X1619705Y-323984D02*
X1610181Y-314460D01*
X1610181Y-314460D02*
X1619705Y-304936D01*
X1619705Y-304936D02*
X1619705Y-323984D01*
X1619705Y-200174D02*
X1629229Y-209698D01*
X1629229Y-209698D02*
X1619705Y-219222D01*
X1619705Y-219222D02*
X1610181Y-209698D01*
X1610181Y-209698D02*
X1619705Y-200174D01*
X1619705Y-200174D02*
X1619705Y-219222D01*
M02*
