%TF.GenerationSoftware,KiCad,Pcbnew,9.0.6*%
%TF.CreationDate,2026-01-21T11:56:30-05:00*%
%TF.ProjectId,panel-back,70616e65-6c2d-4626-9163-6b2e6b696361,rev?*%
%TF.SameCoordinates,PX4b571c0PY4a139f8*%
%TF.FileFunction,Profile,NP*%
%FSLAX46Y46*%
G04 Gerber Fmt 4.6, Leading zero omitted, Abs format (unit mm)*
G04 Created by KiCad (PCBNEW 9.0.6) date 2026-01-21 11:56:30*
%MOMM*%
%LPD*%
G01*
G04 APERTURE LIST*
%TA.AperFunction,Profile*%
%ADD10C,0.150000*%
%TD*%
%TA.AperFunction,Profile*%
%ADD11C,0.200000*%
%TD*%
G04 APERTURE END LIST*
D10*
X0Y4000000D02*
X0Y31000000D01*
X4000000Y35000000D02*
X136000000Y35000000D01*
X136000000Y0D02*
X4000000Y0D01*
X140000000Y31000000D02*
X140000000Y4000000D01*
D11*
X116500000Y13300000D02*
G75*
G02*
X110500000Y13300000I-3000000J0D01*
G01*
X110500000Y13300000D02*
G75*
G02*
X116500000Y13300000I3000000J0D01*
G01*
X124500000Y13300000D02*
G75*
G02*
X118500000Y13300000I-3000000J0D01*
G01*
X118500000Y13300000D02*
G75*
G02*
X124500000Y13300000I3000000J0D01*
G01*
D10*
X136000000Y35000000D02*
G75*
G02*
X140000000Y31000000I0J-4000000D01*
G01*
X24980000Y12320000D02*
X24980000Y11720000D01*
X15040000Y12320000D02*
X15040000Y11720000D01*
X16820000Y9940000D02*
G75*
G02*
X15040000Y11720000I0J1780000D01*
G01*
X23200000Y14100000D02*
G75*
G02*
X24980000Y12320000I0J-1780000D01*
G01*
X140000000Y4000000D02*
G75*
G02*
X136000000Y0I-4000000J0D01*
G01*
X0Y31000000D02*
G75*
G02*
X4000000Y35000000I4000000J0D01*
G01*
D11*
X36225000Y13840000D02*
G75*
G02*
X31225000Y13840000I-2500000J0D01*
G01*
X31225000Y13840000D02*
G75*
G02*
X36225000Y13840000I2500000J0D01*
G01*
X51000000Y19975000D02*
X80000000Y19975000D01*
X80000000Y9975000D01*
X51000000Y9975000D01*
X51000000Y19975000D01*
X97500000Y13300000D02*
G75*
G02*
X91500000Y13300000I-3000000J0D01*
G01*
X91500000Y13300000D02*
G75*
G02*
X97500000Y13300000I3000000J0D01*
G01*
D10*
X15040000Y12320000D02*
G75*
G02*
X16820000Y14100000I1780000J0D01*
G01*
X16820000Y9940000D02*
X23200000Y9940000D01*
X24980000Y11720000D02*
G75*
G02*
X23200000Y9940000I-1780000J0D01*
G01*
X4000000Y0D02*
G75*
G02*
X0Y4000000I0J4000000D01*
G01*
X16820000Y14100000D02*
X23200000Y14100000D01*
M02*
