%TF.GenerationSoftware,KiCad,Pcbnew,10.0.1*%
%TF.CreationDate,2026-07-06T15:16:58+01:00*%
%TF.ProjectId,panel-back,70616e65-6c2d-4626-9163-6b2e6b696361,rev?*%
%TF.SameCoordinates,PX4b571c0PY49e8e60*%
%TF.FileFunction,Copper,L1,Top*%
%TF.FilePolarity,Positive*%
%FSLAX46Y46*%
G04 Gerber Fmt 4.6, Leading zero omitted, Abs format (unit mm)*
G04 Created by KiCad (PCBNEW 10.0.1) date 2026-07-06 15:16:58*
%MOMM*%
%LPD*%
G01*
G04 APERTURE LIST*
%TA.AperFunction,ComponentPad*%
%ADD10C,4.100000*%
%TD*%
%TA.AperFunction,ConnectorPad*%
%ADD11C,5.800000*%
%TD*%
%TA.AperFunction,ComponentPad*%
%ADD12C,3.600000*%
%TD*%
%TA.AperFunction,ConnectorPad*%
%ADD13C,5.600000*%
%TD*%
G04 APERTURE END LIST*
D10*
X7500000Y4750000D03*
D11*
X7500000Y4750000D03*
D10*
X132500000Y4750000D03*
D11*
X132500000Y4750000D03*
D10*
X132500000Y30250000D03*
D11*
X132500000Y30250000D03*
D12*
X44500000Y17300000D03*
D13*
X44500000Y17300000D03*
D10*
X7500000Y30250000D03*
D11*
X7500000Y30250000D03*
%TA.AperFunction,Conductor*%
G36*
X10233440Y34479815D02*
G01*
X10273791Y34437494D01*
X10281609Y34423950D01*
X10281612Y34423946D01*
X10394143Y34289831D01*
X10394146Y34289829D01*
X10394149Y34289825D01*
X10528267Y34177288D01*
X10528269Y34177287D01*
X10679888Y34089755D01*
X10679889Y34089755D01*
X10679892Y34089753D01*
X10844415Y34029881D01*
X11016836Y33999492D01*
X11104376Y33999500D01*
X128829797Y33999500D01*
X128829812Y33999496D01*
X128895705Y33999500D01*
X128961566Y33999500D01*
X128970177Y33999500D01*
X128970229Y33999505D01*
X128983233Y33999505D01*
X128983235Y33999505D01*
X128983236Y33999506D01*
X129155629Y34029911D01*
X129320126Y34089791D01*
X129471728Y34177323D01*
X129605828Y34289849D01*
X129718352Y34423950D01*
X129726176Y34437501D01*
X129776744Y34485716D01*
X129833563Y34499500D01*
X135517404Y34499500D01*
X135579758Y34499500D01*
X135586843Y34499298D01*
X135861427Y34483581D01*
X135875502Y34481965D01*
X136132157Y34437501D01*
X136143009Y34435621D01*
X136156812Y34432408D01*
X136417285Y34355843D01*
X136430631Y34351076D01*
X136680663Y34245290D01*
X136693363Y34239038D01*
X136929706Y34105401D01*
X136941609Y34097742D01*
X137161164Y33938008D01*
X137172109Y33929045D01*
X137371992Y33745309D01*
X137381857Y33735141D01*
X137559469Y33529795D01*
X137568109Y33518568D01*
X137721126Y33294302D01*
X137728427Y33282164D01*
X137854850Y33041906D01*
X137860722Y33029008D01*
X137926823Y32858598D01*
X137958903Y32775897D01*
X137963265Y32762411D01*
X138032762Y32496530D01*
X138034440Y32489216D01*
X138133896Y31986033D01*
X138134054Y31985216D01*
X138218377Y31543016D01*
X138211599Y31473476D01*
X138168300Y31418640D01*
X138102228Y31395918D01*
X138034360Y31412524D01*
X138016308Y31425271D01*
X137954342Y31477892D01*
X137522205Y31844861D01*
X137521966Y31845065D01*
X137439272Y31915861D01*
X137292780Y32004882D01*
X137250127Y32030802D01*
X137044851Y32113560D01*
X137044847Y32113561D01*
X136828875Y32161945D01*
X136828877Y32161945D01*
X136607910Y32174678D01*
X136387803Y32151420D01*
X136174381Y32092787D01*
X135973291Y32000334D01*
X135973289Y32000333D01*
X135789841Y31876499D01*
X135628900Y31724567D01*
X135494710Y31548545D01*
X135390840Y31353114D01*
X135390838Y31353108D01*
X135320022Y31143416D01*
X135320021Y31143412D01*
X135284136Y30925017D01*
X135284136Y30925011D01*
X135284096Y30880574D01*
X135284071Y30880478D01*
X135284038Y30814585D01*
X135284022Y30760495D01*
X135284036Y30760315D01*
X135284036Y30757729D01*
X135284036Y30748452D01*
X135285096Y30740397D01*
X135284862Y30740367D01*
X135286278Y30732144D01*
X135292606Y30652652D01*
X135292606Y30652651D01*
X135304555Y30578303D01*
X135309772Y30545844D01*
X135319911Y30504250D01*
X135330486Y30450554D01*
X135335500Y30440337D01*
X135338195Y30429288D01*
X135338198Y30429281D01*
X135338199Y30429278D01*
X135343835Y30418988D01*
X135363119Y30383779D01*
X135365677Y30378848D01*
X135388545Y30332255D01*
X135388592Y30332183D01*
X135396202Y30323376D01*
X135401505Y30313695D01*
X135433384Y30280348D01*
X135435431Y30277979D01*
X135435626Y30277550D01*
X135438846Y30273850D01*
X135620981Y30043679D01*
X135627994Y30033872D01*
X135789705Y29782766D01*
X135795732Y29772324D01*
X135932297Y29506691D01*
X135937283Y29495712D01*
X136047400Y29218079D01*
X136051295Y29206669D01*
X136133932Y28919645D01*
X136136700Y28907910D01*
X136191068Y28614233D01*
X136192684Y28602285D01*
X136218274Y28304708D01*
X136218722Y28292660D01*
X136215291Y27993997D01*
X136214566Y27981961D01*
X136191415Y27769947D01*
X136185961Y27744726D01*
X136177004Y27717445D01*
X136171544Y27703659D01*
X136159488Y27677845D01*
X136159488Y27677844D01*
X136156180Y27659142D01*
X136152056Y27642577D01*
X136149279Y27633996D01*
X136136729Y27608544D01*
X136129836Y27573894D01*
X136127610Y27567012D01*
X136127557Y27566935D01*
X136127443Y27566500D01*
X136118677Y27539801D01*
X136118237Y27531877D01*
X136112158Y27505533D01*
X136113664Y27505119D01*
X136111511Y27497279D01*
X136105040Y27450357D01*
X136103821Y27443112D01*
X136094579Y27396645D01*
X136094578Y27396641D01*
X136094737Y27394217D01*
X136093838Y27369169D01*
X136082823Y27289341D01*
X136082817Y27289290D01*
X136056543Y27002451D01*
X136043401Y26714687D01*
X136043422Y26570710D01*
X136043422Y26570678D01*
X136043408Y26380511D01*
X136066319Y26000876D01*
X136096409Y25752498D01*
X136107626Y25659907D01*
X136112058Y25623328D01*
X136112059Y25623320D01*
X136180458Y25249214D01*
X136271275Y24879893D01*
X136384173Y24516728D01*
X136384184Y24516698D01*
X136426459Y24404975D01*
X136431429Y24391840D01*
X136432680Y24382721D01*
X136454693Y24330361D01*
X136455487Y24328264D01*
X136455487Y24328263D01*
X136455492Y24328250D01*
X136458278Y24320885D01*
X136462769Y24306391D01*
X136466175Y24292421D01*
X136466176Y24292418D01*
X136482370Y24262840D01*
X136482886Y24261888D01*
X136485648Y24256736D01*
X136500983Y24220264D01*
X136514647Y24202651D01*
X136519569Y24193472D01*
X136520427Y24189375D01*
X136525903Y24179696D01*
X136533012Y24161355D01*
X136547804Y24141133D01*
X136556481Y24127483D01*
X136568510Y24105514D01*
X136584811Y24088457D01*
X136604085Y24062051D01*
X136615055Y24041888D01*
X136615057Y24041886D01*
X136632771Y24023252D01*
X136642978Y24011030D01*
X136658153Y23990284D01*
X136676896Y23975208D01*
X136699825Y23951015D01*
X136713322Y23932259D01*
X136733972Y23915380D01*
X136734190Y23915202D01*
X136740095Y23910353D01*
X136763737Y23885483D01*
X136789766Y23869564D01*
X136796415Y23864104D01*
X136798780Y23860630D01*
X136808855Y23852361D01*
X136822879Y23837161D01*
X136846495Y23822228D01*
X136858687Y23813440D01*
X136880323Y23795756D01*
X136899690Y23787028D01*
X136929324Y23768221D01*
X136944706Y23755067D01*
X136944707Y23755067D01*
X136944708Y23755066D01*
X136970835Y23742584D01*
X136971180Y23742419D01*
X136977614Y23739321D01*
X137008130Y23720025D01*
X137035211Y23711588D01*
X137043419Y23707635D01*
X137046853Y23704535D01*
X137058912Y23698747D01*
X137073983Y23688593D01*
X137073984Y23688592D01*
X137102429Y23678813D01*
X137102853Y23678666D01*
X137109359Y23676403D01*
X137142714Y23660467D01*
X137169496Y23655486D01*
X137178344Y23652408D01*
X137182227Y23649634D01*
X137194878Y23645273D01*
X137198537Y23643367D01*
X137210274Y23637255D01*
X137228868Y23633132D01*
X137240154Y23630629D01*
X137253622Y23626833D01*
X137282570Y23616880D01*
X137301824Y23615544D01*
X137320084Y23612900D01*
X137328079Y23611127D01*
X137332556Y23610133D01*
X137343843Y23607064D01*
X137378469Y23595869D01*
X137402354Y23594652D01*
X137425699Y23589474D01*
X137467896Y23591312D01*
X137606488Y23584250D01*
X137610806Y23583954D01*
X137665563Y23579235D01*
X137665571Y23579237D01*
X137673688Y23579601D01*
X137673708Y23579152D01*
X137675155Y23579242D01*
X137675120Y23579690D01*
X137683216Y23580339D01*
X137683216Y23580340D01*
X137683220Y23580339D01*
X137736987Y23591850D01*
X137741239Y23592682D01*
X137885078Y23618237D01*
X137886609Y23618510D01*
X137945531Y23627451D01*
X137951400Y23630020D01*
X137957705Y23631140D01*
X137957708Y23631142D01*
X137957714Y23631142D01*
X137957717Y23631144D01*
X137957722Y23631145D01*
X138010260Y23655729D01*
X138013079Y23657006D01*
X138146087Y23715197D01*
X138203484Y23739329D01*
X138206372Y23741572D01*
X138209734Y23743042D01*
X138209735Y23743044D01*
X138209740Y23743045D01*
X138257838Y23781483D01*
X138259053Y23782440D01*
X138349105Y23852301D01*
X138376609Y23868180D01*
X138400949Y23892521D01*
X138428143Y23913617D01*
X138442228Y23932177D01*
X138453314Y23944887D01*
X139003623Y24495199D01*
X139064944Y24528682D01*
X139134635Y24523698D01*
X139190569Y24481827D01*
X139214800Y24418659D01*
X139286874Y23619871D01*
X139287035Y23617923D01*
X139376941Y22408871D01*
X139377070Y22406922D01*
X139447906Y21196722D01*
X139448005Y21194770D01*
X139495878Y20074438D01*
X139499388Y19992309D01*
X139499501Y19987015D01*
X139499501Y15012985D01*
X139499388Y15007691D01*
X139448007Y13805231D01*
X139447908Y13803279D01*
X139377073Y12593083D01*
X139376944Y12591133D01*
X139287035Y11382072D01*
X139286874Y11380125D01*
X139214800Y10581343D01*
X139189171Y10516343D01*
X139132469Y10475519D01*
X139062697Y10471831D01*
X139003620Y10504805D01*
X138970376Y10538049D01*
X138473196Y11035233D01*
X138473196Y11035234D01*
X138463268Y11045162D01*
X138458369Y11052978D01*
X138416775Y11091655D01*
X138409610Y11098820D01*
X138399550Y11110195D01*
X138390705Y11121524D01*
X138390706Y11121524D01*
X138363778Y11141831D01*
X138362912Y11142490D01*
X138358277Y11146050D01*
X138329309Y11172986D01*
X138309615Y11183422D01*
X138301352Y11189768D01*
X138298884Y11193150D01*
X138289909Y11199726D01*
X138275903Y11213508D01*
X138275902Y11213509D01*
X138268786Y11217541D01*
X138254102Y11225862D01*
X138240578Y11234738D01*
X138220572Y11249825D01*
X138220571Y11249826D01*
X138220569Y11249827D01*
X138198704Y11258670D01*
X138170279Y11274814D01*
X138151981Y11288689D01*
X138151980Y11288690D01*
X138128182Y11298388D01*
X138113850Y11305334D01*
X138091491Y11318003D01*
X138068196Y11324044D01*
X138037353Y11336669D01*
X138017342Y11348215D01*
X138017337Y11348217D01*
X137991565Y11355116D01*
X137991296Y11355188D01*
X137983915Y11357182D01*
X137952142Y11370130D01*
X137921879Y11373939D01*
X137913567Y11376184D01*
X137909983Y11378379D01*
X137897404Y11381772D01*
X137878365Y11389863D01*
X137850710Y11393764D01*
X137835972Y11396764D01*
X137828963Y11398640D01*
X137808982Y11403988D01*
X137787728Y11403983D01*
X137752988Y11408941D01*
X137733562Y11414606D01*
X137704592Y11415244D01*
X137704220Y11415253D01*
X137697079Y11415432D01*
X137661335Y11420472D01*
X137633186Y11417031D01*
X137624071Y11417259D01*
X137619669Y11418673D01*
X137606295Y11418990D01*
X137588380Y11422051D01*
X137588379Y11422051D01*
X137558432Y11419271D01*
X137557992Y11419231D01*
X137551122Y11418619D01*
X137514169Y11419430D01*
X137487712Y11412962D01*
X137478372Y11412128D01*
X137473696Y11413060D01*
X137460372Y11411834D01*
X137443041Y11412812D01*
X137443039Y11412812D01*
X137413063Y11406566D01*
X137399242Y11404491D01*
X137368761Y11401660D01*
X137368751Y11401658D01*
X137350652Y11394961D01*
X137332921Y11389864D01*
X137320419Y11387259D01*
X137308867Y11385416D01*
X137272707Y11381384D01*
X137272700Y11381383D01*
X137260114Y11376462D01*
X137250430Y11372674D01*
X137227022Y11367795D01*
X137189310Y11348771D01*
X137183848Y11346634D01*
X137183845Y11346634D01*
X137060092Y11298234D01*
X137056021Y11296723D01*
X137004159Y11278507D01*
X136996806Y11273483D01*
X136988518Y11270240D01*
X136942554Y11236404D01*
X136940744Y11235166D01*
X136940731Y11235156D01*
X136820060Y11152680D01*
X136817457Y11150949D01*
X136768780Y11119450D01*
X136763865Y11115267D01*
X136759190Y11111077D01*
X136721344Y11066999D01*
X136719299Y11064677D01*
X136669652Y11009717D01*
X136623037Y10958114D01*
X136622684Y10957724D01*
X136622683Y10957725D01*
X136621976Y10956943D01*
X136579631Y10911402D01*
X136577916Y10908168D01*
X136575457Y10905445D01*
X136547468Y10850733D01*
X136546644Y10849151D01*
X136497297Y10756023D01*
X136497296Y10756021D01*
X136493333Y10748544D01*
X136474793Y10722762D01*
X136462617Y10690581D01*
X136458970Y10683697D01*
X136458966Y10683686D01*
X136446499Y10660157D01*
X136446497Y10660152D01*
X136441293Y10637466D01*
X136436408Y10621310D01*
X136384189Y10483306D01*
X136384178Y10483275D01*
X136271278Y10120091D01*
X136180468Y9750790D01*
X136180467Y9750783D01*
X136112066Y9376675D01*
X136083017Y9136893D01*
X136066325Y8999114D01*
X136043411Y8619486D01*
X136043411Y8619477D01*
X136043411Y8619476D01*
X136043423Y8429370D01*
X136043423Y8429342D01*
X136043399Y8285341D01*
X136043400Y8285299D01*
X136056539Y7997547D01*
X136082821Y7710656D01*
X136093787Y7631198D01*
X136095520Y7618636D01*
X136094541Y7603955D01*
X136104498Y7553581D01*
X136104869Y7550895D01*
X136111517Y7502706D01*
X136111518Y7502703D01*
X136113437Y7495716D01*
X136117689Y7469455D01*
X136118030Y7463025D01*
X136126849Y7435940D01*
X136130586Y7421601D01*
X136136111Y7393655D01*
X136136113Y7393649D01*
X136136114Y7393646D01*
X136140886Y7383939D01*
X136144492Y7376605D01*
X136150949Y7360809D01*
X136153780Y7352242D01*
X136158691Y7324292D01*
X136173605Y7292256D01*
X136175875Y7285389D01*
X136175878Y7285292D01*
X136176045Y7284868D01*
X136186203Y7253670D01*
X136191563Y7228746D01*
X136214583Y7018016D01*
X136215308Y7005979D01*
X136218749Y6707323D01*
X136218301Y6695272D01*
X136192717Y6397701D01*
X136191102Y6385753D01*
X136136735Y6092067D01*
X136133970Y6080344D01*
X136051333Y5793321D01*
X136047437Y5781909D01*
X135937316Y5504277D01*
X135932331Y5493298D01*
X135795764Y5227674D01*
X135789741Y5217240D01*
X135628024Y4966143D01*
X135621009Y4956334D01*
X135438829Y4726127D01*
X135435413Y4721997D01*
X135433371Y4719636D01*
X135401466Y4686250D01*
X135396186Y4676610D01*
X135388612Y4667845D01*
X135388560Y4667766D01*
X135365676Y4621144D01*
X135363127Y4616232D01*
X135338177Y4570665D01*
X135335237Y4563084D01*
X135335187Y4563104D01*
X135333042Y4557187D01*
X135333093Y4557170D01*
X135330495Y4549470D01*
X135330494Y4549467D01*
X135330490Y4549446D01*
X135320444Y4498449D01*
X135319258Y4493066D01*
X135309766Y4454107D01*
X135301476Y4402507D01*
X135296216Y4369766D01*
X135292611Y4347330D01*
X135292610Y4347327D01*
X135286313Y4268283D01*
X135286284Y4267892D01*
X135285380Y4256539D01*
X135284033Y4251507D01*
X135284033Y4239628D01*
X135284027Y4239541D01*
X135284027Y4237213D01*
X135284027Y4237206D01*
X135284038Y4185481D01*
X135284064Y4111965D01*
X135284106Y4111324D01*
X135284141Y4074951D01*
X135320035Y3856565D01*
X135320037Y3856559D01*
X135390859Y3646876D01*
X135390862Y3646869D01*
X135494735Y3451449D01*
X135494737Y3451445D01*
X135494740Y3451441D01*
X135543496Y3387489D01*
X135628924Y3275435D01*
X135755951Y3155525D01*
X135789869Y3123507D01*
X135973312Y2999680D01*
X136174402Y2907229D01*
X136387819Y2848598D01*
X136607917Y2825339D01*
X136828875Y2838067D01*
X137044847Y2886446D01*
X137250120Y2969196D01*
X137439263Y3084128D01*
X137485265Y3123508D01*
X137522257Y3155174D01*
X137522630Y3155492D01*
X137795820Y3387489D01*
X138016309Y3574732D01*
X138080149Y3603122D01*
X138149205Y3592490D01*
X138201551Y3546211D01*
X138220567Y3478979D01*
X138218378Y3456987D01*
X138134055Y3014785D01*
X138133897Y3013968D01*
X138034443Y2510793D01*
X138032765Y2503478D01*
X137963265Y2237592D01*
X137958903Y2224107D01*
X137860721Y1970997D01*
X137854849Y1958098D01*
X137728423Y1717836D01*
X137721117Y1705692D01*
X137568107Y1481436D01*
X137559463Y1470204D01*
X137381859Y1264868D01*
X137371990Y1254696D01*
X137172114Y1070967D01*
X137161149Y1061988D01*
X136941621Y902272D01*
X136929703Y894602D01*
X136693369Y760971D01*
X136680653Y754712D01*
X136430630Y648929D01*
X136417283Y644161D01*
X136156809Y567595D01*
X136143006Y564382D01*
X135875502Y518039D01*
X135861422Y516422D01*
X135586840Y500703D01*
X135579753Y500500D01*
X4420242Y500500D01*
X4413156Y500703D01*
X4138575Y516420D01*
X4124494Y518037D01*
X3856990Y564380D01*
X3843187Y567593D01*
X3582714Y644158D01*
X3569367Y648926D01*
X3319344Y754708D01*
X3306628Y760967D01*
X3070300Y894595D01*
X3058382Y902264D01*
X3050294Y908148D01*
X2838837Y1061991D01*
X2827888Y1070957D01*
X2628003Y1254696D01*
X2618142Y1264860D01*
X2440530Y1470206D01*
X2431888Y1481436D01*
X2278870Y1705704D01*
X2271572Y1717837D01*
X2221505Y1812985D01*
X2145148Y1958096D01*
X2139280Y1970986D01*
X2041090Y2224121D01*
X2036738Y2237578D01*
X1967234Y2503482D01*
X1965557Y2510793D01*
X1866082Y3014076D01*
X1865945Y3014785D01*
X1853408Y3080530D01*
X1781622Y3456987D01*
X1788400Y3526525D01*
X1831699Y3581361D01*
X1897771Y3604083D01*
X1965639Y3587477D01*
X1983687Y3574733D01*
X2128873Y3451442D01*
X2477340Y3155525D01*
X2477782Y3155148D01*
X2557875Y3086484D01*
X2648983Y3030441D01*
X2740090Y2974398D01*
X2937621Y2892261D01*
X3145585Y2842102D01*
X3358841Y2825162D01*
X3572117Y2841859D01*
X3780138Y2891782D01*
X3977762Y2973695D01*
X4160104Y3085573D01*
X4322654Y3224651D01*
X4461394Y3387489D01*
X4572894Y3570062D01*
X4654397Y3767856D01*
X4703887Y3975981D01*
X4720143Y4189290D01*
X4702760Y4402511D01*
X4680109Y4495644D01*
X4669513Y4549446D01*
X4664560Y4559538D01*
X4661900Y4570468D01*
X4635590Y4618565D01*
X4611451Y4667750D01*
X4604053Y4676218D01*
X4598656Y4686085D01*
X4569015Y4717126D01*
X4561253Y4726074D01*
X4369383Y4969872D01*
X4362047Y4980246D01*
X4193625Y5246401D01*
X4187394Y5257464D01*
X4047108Y5539471D01*
X4042045Y5551112D01*
X3931379Y5845983D01*
X3927529Y5858098D01*
X3867729Y6086136D01*
X3847639Y6162747D01*
X3845050Y6175186D01*
X3832508Y6256041D01*
X3796772Y6486430D01*
X3795471Y6499070D01*
X3779237Y6815163D01*
X3779118Y6824752D01*
X3783310Y6984317D01*
X3783648Y6990770D01*
X3796325Y7151486D01*
X3797005Y7157938D01*
X3805680Y7223703D01*
X3812738Y7247374D01*
X3811568Y7247758D01*
X3815287Y7259087D01*
X3822998Y7282572D01*
X3828450Y7296339D01*
X3840508Y7322158D01*
X3843813Y7340848D01*
X3847939Y7357415D01*
X3850716Y7366000D01*
X3863266Y7391445D01*
X3870158Y7426095D01*
X3872384Y7432974D01*
X3872437Y7433053D01*
X3872550Y7433485D01*
X3881319Y7460187D01*
X3881759Y7468124D01*
X3887863Y7494496D01*
X3886344Y7494913D01*
X3888493Y7502746D01*
X3888496Y7502751D01*
X3894963Y7549674D01*
X3896183Y7556920D01*
X3905419Y7603345D01*
X3905420Y7603349D01*
X3905260Y7605786D01*
X3906156Y7630836D01*
X3928204Y7790672D01*
X3957738Y8239211D01*
X3955270Y8688713D01*
X3920814Y9136900D01*
X3909676Y9211621D01*
X3901222Y9268341D01*
X3854544Y9581498D01*
X3756796Y10020251D01*
X3628067Y10450933D01*
X3568569Y10608160D01*
X3567320Y10617279D01*
X3545303Y10669646D01*
X3541722Y10679112D01*
X3537230Y10693614D01*
X3533825Y10707580D01*
X3533824Y10707581D01*
X3533824Y10707583D01*
X3517600Y10737214D01*
X3517112Y10738116D01*
X3514349Y10743269D01*
X3499017Y10779736D01*
X3485352Y10797350D01*
X3480430Y10806530D01*
X3479571Y10810628D01*
X3474093Y10820311D01*
X3466988Y10838644D01*
X3452203Y10858856D01*
X3443522Y10872512D01*
X3431490Y10894486D01*
X3431490Y10894487D01*
X3415189Y10911543D01*
X3395912Y10937953D01*
X3384943Y10958114D01*
X3384940Y10958117D01*
X3367225Y10976753D01*
X3357022Y10988969D01*
X3341845Y11009717D01*
X3323095Y11024800D01*
X3300173Y11048986D01*
X3286678Y11067741D01*
X3266027Y11084621D01*
X3265809Y11084800D01*
X3259898Y11089654D01*
X3236263Y11114517D01*
X3210241Y11130432D01*
X3203584Y11135899D01*
X3201220Y11139371D01*
X3191141Y11147644D01*
X3177123Y11162838D01*
X3177120Y11162841D01*
X3153507Y11177771D01*
X3141303Y11186568D01*
X3119678Y11204243D01*
X3119676Y11204245D01*
X3100308Y11212974D01*
X3070671Y11231782D01*
X3055294Y11244932D01*
X3055292Y11244934D01*
X3029164Y11257417D01*
X3028827Y11257579D01*
X3022384Y11260682D01*
X2991870Y11279975D01*
X2964788Y11288414D01*
X2956578Y11292367D01*
X2953144Y11295467D01*
X2941083Y11301256D01*
X2926016Y11311408D01*
X2897564Y11321191D01*
X2897146Y11321336D01*
X2890635Y11323601D01*
X2857286Y11339533D01*
X2830508Y11344515D01*
X2821655Y11347594D01*
X2817776Y11350365D01*
X2805127Y11354726D01*
X2789729Y11362743D01*
X2789728Y11362744D01*
X2789725Y11362745D01*
X2759838Y11369374D01*
X2746379Y11373168D01*
X2731220Y11378379D01*
X2717429Y11383121D01*
X2698172Y11384458D01*
X2679912Y11387103D01*
X2667438Y11389870D01*
X2656151Y11392939D01*
X2621531Y11404131D01*
X2608024Y11404820D01*
X2587499Y11407600D01*
X2574305Y11410526D01*
X2574301Y11410526D01*
X2537946Y11408944D01*
X2526245Y11408988D01*
X2393512Y11415752D01*
X2393512Y11415753D01*
X2391302Y11415866D01*
X2334437Y11420765D01*
X2325677Y11419209D01*
X2316786Y11419662D01*
X2316781Y11419661D01*
X2263039Y11408158D01*
X2258790Y11407326D01*
X2114916Y11381764D01*
X2114917Y11381763D01*
X2113377Y11381490D01*
X2054470Y11372549D01*
X2048596Y11369980D01*
X2043889Y11369144D01*
X2042284Y11368858D01*
X1989739Y11344273D01*
X1986892Y11342985D01*
X1854748Y11285172D01*
X1854749Y11285171D01*
X1853867Y11284786D01*
X1796515Y11260671D01*
X1793619Y11258425D01*
X1790262Y11256956D01*
X1742320Y11218645D01*
X1740918Y11217541D01*
X1657570Y11152880D01*
X1657569Y11152880D01*
X1650880Y11147692D01*
X1623390Y11131819D01*
X1599059Y11107490D01*
X1592900Y11102711D01*
X1571858Y11086386D01*
X1571856Y11086384D01*
X1557768Y11067822D01*
X1546679Y11055110D01*
X996379Y10504806D01*
X935056Y10471321D01*
X865364Y10476305D01*
X809430Y10518176D01*
X785199Y10581344D01*
X777041Y10671755D01*
X713116Y11380231D01*
X712971Y11381986D01*
X632961Y12457945D01*
X14539500Y12457945D01*
X14539500Y12385892D01*
X14539500Y11785892D01*
X14539500Y11720000D01*
X14539500Y11582055D01*
X14572755Y11308177D01*
X14616409Y11131067D01*
X14638781Y11040299D01*
X14736614Y10782337D01*
X14736615Y10782336D01*
X14787773Y10684863D01*
X14864824Y10538055D01*
X14864827Y10538051D01*
X14864828Y10538049D01*
X15021544Y10311005D01*
X15021549Y10310999D01*
X15204494Y10104497D01*
X15204496Y10104495D01*
X15410998Y9921550D01*
X15411004Y9921545D01*
X15538979Y9833211D01*
X15638055Y9764824D01*
X15823140Y9667684D01*
X15882335Y9636616D01*
X15882336Y9636615D01*
X15882340Y9636614D01*
X15882343Y9636612D01*
X16019376Y9584642D01*
X16140298Y9538782D01*
X16140300Y9538782D01*
X16140304Y9538780D01*
X16408177Y9472755D01*
X16637286Y9444936D01*
X16682053Y9439500D01*
X16682055Y9439500D01*
X23337947Y9439500D01*
X23379331Y9444526D01*
X23611823Y9472755D01*
X23879696Y9538780D01*
X24137657Y9636612D01*
X24381945Y9764824D01*
X24608998Y9921547D01*
X24815504Y10104496D01*
X24998453Y10311002D01*
X25155176Y10538055D01*
X25283388Y10782343D01*
X25381220Y11040304D01*
X25447245Y11308177D01*
X25480500Y11582055D01*
X25480500Y11720000D01*
X25480500Y11785892D01*
X25480500Y12385892D01*
X25480500Y12457945D01*
X25447245Y12731823D01*
X25381220Y12999696D01*
X25378057Y13008035D01*
X25306285Y13197282D01*
X25283388Y13257657D01*
X25283386Y13257660D01*
X25283385Y13257664D01*
X25283384Y13257665D01*
X25241952Y13336606D01*
X25155176Y13501945D01*
X25087839Y13599500D01*
X24998455Y13728996D01*
X24998450Y13729002D01*
X24820597Y13929756D01*
X24820595Y13929758D01*
X24815502Y13935506D01*
X24733099Y14008509D01*
X30724500Y14008509D01*
X30724500Y13671492D01*
X30762231Y13336619D01*
X30762233Y13336603D01*
X30837223Y13008047D01*
X30837227Y13008035D01*
X30948532Y12689946D01*
X31094752Y12386317D01*
X31094754Y12386314D01*
X31274054Y12100961D01*
X31397142Y11946613D01*
X31471308Y11853611D01*
X31484175Y11837477D01*
X31722477Y11599175D01*
X31985961Y11389054D01*
X32267358Y11212240D01*
X32271316Y11209753D01*
X32311601Y11190353D01*
X32574949Y11063531D01*
X32813848Y10979937D01*
X32893034Y10952228D01*
X32893046Y10952224D01*
X33221606Y10877233D01*
X33556492Y10839501D01*
X33556493Y10839500D01*
X33556496Y10839500D01*
X33893507Y10839500D01*
X33893507Y10839501D01*
X34228394Y10877233D01*
X34556954Y10952224D01*
X34875051Y11063531D01*
X35178686Y11209754D01*
X35464039Y11389054D01*
X35727523Y11599175D01*
X35965825Y11837477D01*
X36175946Y12100961D01*
X36355246Y12386314D01*
X36501469Y12689949D01*
X36612776Y13008046D01*
X36687767Y13336606D01*
X36725500Y13671496D01*
X36725500Y14008504D01*
X36687767Y14343394D01*
X36612776Y14671954D01*
X36501469Y14990051D01*
X36355246Y15293686D01*
X36175946Y15579039D01*
X35965825Y15842523D01*
X35727523Y16080825D01*
X35684637Y16115025D01*
X35477352Y16280329D01*
X35464039Y16290946D01*
X35181898Y16468228D01*
X35178683Y16470248D01*
X34875054Y16616468D01*
X34556965Y16727773D01*
X34556953Y16727777D01*
X34228397Y16802767D01*
X34228381Y16802769D01*
X33893508Y16840500D01*
X33893504Y16840500D01*
X33556496Y16840500D01*
X33556491Y16840500D01*
X33221618Y16802769D01*
X33221602Y16802767D01*
X32893046Y16727777D01*
X32893034Y16727773D01*
X32574945Y16616468D01*
X32271316Y16470248D01*
X31985962Y16290947D01*
X31722477Y16080826D01*
X31484174Y15842523D01*
X31274053Y15579038D01*
X31094752Y15293684D01*
X30948532Y14990055D01*
X30837227Y14671966D01*
X30837223Y14671954D01*
X30762233Y14343398D01*
X30762231Y14343382D01*
X30724500Y14008509D01*
X24733099Y14008509D01*
X24609001Y14118451D01*
X24608995Y14118456D01*
X24381951Y14275172D01*
X24381949Y14275173D01*
X24381945Y14275176D01*
X24251959Y14343398D01*
X24137664Y14403385D01*
X24137663Y14403386D01*
X23879701Y14501219D01*
X23815642Y14517008D01*
X23611823Y14567245D01*
X23447496Y14587198D01*
X23337947Y14600500D01*
X23337945Y14600500D01*
X23265892Y14600500D01*
X16885892Y14600500D01*
X16820000Y14600500D01*
X16682055Y14600500D01*
X16682053Y14600500D01*
X16545116Y14583873D01*
X16408177Y14567245D01*
X16272297Y14533754D01*
X16140298Y14501219D01*
X15882336Y14403386D01*
X15882335Y14403385D01*
X15638057Y14275177D01*
X15638048Y14275172D01*
X15411004Y14118456D01*
X15410998Y14118451D01*
X15204496Y13935506D01*
X15204494Y13935504D01*
X15021549Y13729002D01*
X15021544Y13728996D01*
X14864828Y13501952D01*
X14864823Y13501943D01*
X14736615Y13257665D01*
X14736614Y13257664D01*
X14638781Y12999702D01*
X14638780Y12999696D01*
X14572755Y12731823D01*
X14539500Y12457945D01*
X632961Y12457945D01*
X623057Y12591136D01*
X622929Y12593079D01*
X614808Y12731823D01*
X552088Y13803371D01*
X551998Y13805141D01*
X500612Y15007693D01*
X500499Y15012987D01*
X500499Y17450777D01*
X42199500Y17450777D01*
X42199500Y17149224D01*
X42199501Y17149207D01*
X42238861Y16850234D01*
X42316913Y16558940D01*
X42432314Y16280339D01*
X42432318Y16280329D01*
X42583099Y16019169D01*
X42766679Y15779922D01*
X42766685Y15779915D01*
X42979914Y15566686D01*
X42979921Y15566680D01*
X43219168Y15383100D01*
X43480328Y15232319D01*
X43480329Y15232319D01*
X43480332Y15232317D01*
X43658875Y15158362D01*
X43758939Y15116914D01*
X43758940Y15116914D01*
X43758942Y15116913D01*
X44050232Y15038862D01*
X44349217Y14999500D01*
X44349224Y14999500D01*
X44650776Y14999500D01*
X44650783Y14999500D01*
X44949768Y15038862D01*
X45241058Y15116913D01*
X45519668Y15232317D01*
X45780832Y15383100D01*
X46020080Y15566681D01*
X46233319Y15779920D01*
X46416900Y16019168D01*
X46567683Y16280332D01*
X46683087Y16558942D01*
X46761138Y16850232D01*
X46800500Y17149217D01*
X46800500Y17450783D01*
X46761138Y17749768D01*
X46683087Y18041058D01*
X46567683Y18319668D01*
X46416900Y18580832D01*
X46233319Y18820080D01*
X46233314Y18820086D01*
X46020085Y19033315D01*
X46020078Y19033321D01*
X45780831Y19216901D01*
X45519671Y19367682D01*
X45519661Y19367686D01*
X45241060Y19483087D01*
X44949766Y19561139D01*
X44650793Y19600499D01*
X44650788Y19600500D01*
X44650783Y19600500D01*
X44349217Y19600500D01*
X44349211Y19600500D01*
X44349206Y19600499D01*
X44050233Y19561139D01*
X43758939Y19483087D01*
X43480338Y19367686D01*
X43480328Y19367682D01*
X43219168Y19216901D01*
X42979921Y19033321D01*
X42979914Y19033315D01*
X42766685Y18820086D01*
X42766679Y18820079D01*
X42583099Y18580832D01*
X42432318Y18319672D01*
X42432314Y18319662D01*
X42316913Y18041061D01*
X42238861Y17749767D01*
X42199501Y17450794D01*
X42199500Y17450777D01*
X500499Y17450777D01*
X500499Y19987017D01*
X500612Y19992310D01*
X500794Y19996575D01*
X502688Y20040892D01*
X50499500Y20040892D01*
X50499500Y9909108D01*
X50516554Y9845461D01*
X50533608Y9781813D01*
X50551521Y9750788D01*
X50599500Y9667686D01*
X50692686Y9574500D01*
X50806814Y9508608D01*
X50934108Y9474500D01*
X50934110Y9474500D01*
X80065890Y9474500D01*
X80065892Y9474500D01*
X80193186Y9508608D01*
X80307314Y9574500D01*
X80400500Y9667686D01*
X80466392Y9781814D01*
X80500500Y9909108D01*
X80500500Y13471969D01*
X90999500Y13471969D01*
X90999500Y13440148D01*
X90999500Y13128031D01*
X91009751Y13023946D01*
X91033210Y12785751D01*
X91100308Y12448428D01*
X91200150Y12119294D01*
X91331770Y11801536D01*
X91331772Y11801531D01*
X91493893Y11498225D01*
X91493897Y11498218D01*
X91493900Y11498213D01*
X91581042Y11367795D01*
X91684975Y11212249D01*
X91684985Y11212235D01*
X91903176Y10946368D01*
X92146367Y10703177D01*
X92146372Y10703173D01*
X92146373Y10703172D01*
X92412240Y10484981D01*
X92698213Y10293900D01*
X92698222Y10293895D01*
X92698224Y10293894D01*
X93001530Y10131773D01*
X93001532Y10131773D01*
X93001538Y10131769D01*
X93319295Y10000150D01*
X93648422Y9900310D01*
X93985750Y9833211D01*
X94328031Y9799500D01*
X94328034Y9799500D01*
X94671966Y9799500D01*
X94671969Y9799500D01*
X95014250Y9833211D01*
X95351578Y9900310D01*
X95680705Y10000150D01*
X95998462Y10131769D01*
X96301787Y10293900D01*
X96587760Y10484981D01*
X96853627Y10703172D01*
X97096828Y10946373D01*
X97315019Y11212240D01*
X97506100Y11498213D01*
X97668231Y11801538D01*
X97799850Y12119295D01*
X97899690Y12448422D01*
X97966789Y12785750D01*
X98000500Y13128031D01*
X98000500Y13471969D01*
X109999500Y13471969D01*
X109999500Y13440148D01*
X109999500Y13128031D01*
X110009751Y13023946D01*
X110033210Y12785751D01*
X110100308Y12448428D01*
X110200150Y12119294D01*
X110331770Y11801536D01*
X110331772Y11801531D01*
X110493893Y11498225D01*
X110493897Y11498218D01*
X110493900Y11498213D01*
X110581042Y11367795D01*
X110684975Y11212249D01*
X110684985Y11212235D01*
X110903176Y10946368D01*
X111146367Y10703177D01*
X111146372Y10703173D01*
X111146373Y10703172D01*
X111412240Y10484981D01*
X111698213Y10293900D01*
X111698222Y10293895D01*
X111698224Y10293894D01*
X112001530Y10131773D01*
X112001532Y10131773D01*
X112001538Y10131769D01*
X112319295Y10000150D01*
X112648422Y9900310D01*
X112985750Y9833211D01*
X113328031Y9799500D01*
X113328034Y9799500D01*
X113671966Y9799500D01*
X113671969Y9799500D01*
X114014250Y9833211D01*
X114351578Y9900310D01*
X114680705Y10000150D01*
X114998462Y10131769D01*
X115301787Y10293900D01*
X115587760Y10484981D01*
X115853627Y10703172D01*
X116096828Y10946373D01*
X116315019Y11212240D01*
X116506100Y11498213D01*
X116668231Y11801538D01*
X116799850Y12119295D01*
X116899690Y12448422D01*
X116966789Y12785750D01*
X117000500Y13128031D01*
X117000500Y13471969D01*
X117999500Y13471969D01*
X117999500Y13440148D01*
X117999500Y13128031D01*
X118009751Y13023946D01*
X118033210Y12785751D01*
X118100308Y12448428D01*
X118200150Y12119294D01*
X118331770Y11801536D01*
X118331772Y11801531D01*
X118493893Y11498225D01*
X118493897Y11498218D01*
X118493900Y11498213D01*
X118581042Y11367795D01*
X118684975Y11212249D01*
X118684985Y11212235D01*
X118903176Y10946368D01*
X119146367Y10703177D01*
X119146372Y10703173D01*
X119146373Y10703172D01*
X119412240Y10484981D01*
X119698213Y10293900D01*
X119698222Y10293895D01*
X119698224Y10293894D01*
X120001530Y10131773D01*
X120001532Y10131773D01*
X120001538Y10131769D01*
X120319295Y10000150D01*
X120648422Y9900310D01*
X120985750Y9833211D01*
X121328031Y9799500D01*
X121328034Y9799500D01*
X121671966Y9799500D01*
X121671969Y9799500D01*
X122014250Y9833211D01*
X122351578Y9900310D01*
X122680705Y10000150D01*
X122998462Y10131769D01*
X123301787Y10293900D01*
X123587760Y10484981D01*
X123853627Y10703172D01*
X124096828Y10946373D01*
X124315019Y11212240D01*
X124506100Y11498213D01*
X124668231Y11801538D01*
X124799850Y12119295D01*
X124899690Y12448422D01*
X124966789Y12785750D01*
X125000500Y13128031D01*
X125000500Y13471969D01*
X124966789Y13814250D01*
X124899690Y14151578D01*
X124799850Y14480705D01*
X124668231Y14798462D01*
X124578929Y14965533D01*
X124506106Y15101776D01*
X124506105Y15101778D01*
X124506100Y15101787D01*
X124315019Y15387760D01*
X124096828Y15653627D01*
X124096827Y15653628D01*
X124096823Y15653633D01*
X123853632Y15896824D01*
X123587765Y16115015D01*
X123587764Y16115016D01*
X123587760Y16115019D01*
X123301787Y16306100D01*
X123301782Y16306103D01*
X123301775Y16306107D01*
X122998469Y16468228D01*
X122998464Y16468230D01*
X122993592Y16470248D01*
X122779466Y16558942D01*
X122680706Y16599850D01*
X122351572Y16699692D01*
X122014248Y16766790D01*
X122014249Y16766790D01*
X121756456Y16792179D01*
X121671969Y16800500D01*
X121328031Y16800500D01*
X121249966Y16792812D01*
X120985750Y16766790D01*
X120648427Y16699692D01*
X120319293Y16599850D01*
X120001535Y16468230D01*
X120001530Y16468228D01*
X119698224Y16306107D01*
X119698206Y16306096D01*
X119412248Y16115025D01*
X119412234Y16115015D01*
X119146367Y15896824D01*
X118903176Y15653633D01*
X118684985Y15387766D01*
X118684975Y15387752D01*
X118493904Y15101794D01*
X118493893Y15101776D01*
X118331772Y14798470D01*
X118331770Y14798465D01*
X118200150Y14480707D01*
X118100308Y14151573D01*
X118033210Y13814250D01*
X118012060Y13599500D01*
X117999500Y13471969D01*
X117000500Y13471969D01*
X116966789Y13814250D01*
X116899690Y14151578D01*
X116799850Y14480705D01*
X116668231Y14798462D01*
X116578929Y14965533D01*
X116506106Y15101776D01*
X116506105Y15101778D01*
X116506100Y15101787D01*
X116315019Y15387760D01*
X116096828Y15653627D01*
X116096827Y15653628D01*
X116096823Y15653633D01*
X115853632Y15896824D01*
X115587765Y16115015D01*
X115587764Y16115016D01*
X115587760Y16115019D01*
X115301787Y16306100D01*
X115301782Y16306103D01*
X115301775Y16306107D01*
X114998469Y16468228D01*
X114998464Y16468230D01*
X114993592Y16470248D01*
X114779466Y16558942D01*
X114680706Y16599850D01*
X114351572Y16699692D01*
X114014248Y16766790D01*
X114014249Y16766790D01*
X113756456Y16792179D01*
X113671969Y16800500D01*
X113328031Y16800500D01*
X113249966Y16792812D01*
X112985750Y16766790D01*
X112648427Y16699692D01*
X112319293Y16599850D01*
X112001535Y16468230D01*
X112001530Y16468228D01*
X111698224Y16306107D01*
X111698206Y16306096D01*
X111412248Y16115025D01*
X111412234Y16115015D01*
X111146367Y15896824D01*
X110903176Y15653633D01*
X110684985Y15387766D01*
X110684975Y15387752D01*
X110493904Y15101794D01*
X110493893Y15101776D01*
X110331772Y14798470D01*
X110331770Y14798465D01*
X110200150Y14480707D01*
X110100308Y14151573D01*
X110033210Y13814250D01*
X110012060Y13599500D01*
X109999500Y13471969D01*
X98000500Y13471969D01*
X97966789Y13814250D01*
X97899690Y14151578D01*
X97799850Y14480705D01*
X97668231Y14798462D01*
X97578929Y14965533D01*
X97506106Y15101776D01*
X97506105Y15101778D01*
X97506100Y15101787D01*
X97315019Y15387760D01*
X97096828Y15653627D01*
X97096827Y15653628D01*
X97096823Y15653633D01*
X96853632Y15896824D01*
X96587765Y16115015D01*
X96587764Y16115016D01*
X96587760Y16115019D01*
X96301787Y16306100D01*
X96301782Y16306103D01*
X96301775Y16306107D01*
X95998469Y16468228D01*
X95998464Y16468230D01*
X95993592Y16470248D01*
X95779466Y16558942D01*
X95680706Y16599850D01*
X95351572Y16699692D01*
X95014248Y16766790D01*
X95014249Y16766790D01*
X94756456Y16792179D01*
X94671969Y16800500D01*
X94328031Y16800500D01*
X94249966Y16792812D01*
X93985750Y16766790D01*
X93648427Y16699692D01*
X93319293Y16599850D01*
X93001535Y16468230D01*
X93001530Y16468228D01*
X92698224Y16306107D01*
X92698206Y16306096D01*
X92412248Y16115025D01*
X92412234Y16115015D01*
X92146367Y15896824D01*
X91903176Y15653633D01*
X91684985Y15387766D01*
X91684975Y15387752D01*
X91493904Y15101794D01*
X91493893Y15101776D01*
X91331772Y14798470D01*
X91331770Y14798465D01*
X91200150Y14480707D01*
X91100308Y14151573D01*
X91033210Y13814250D01*
X91012060Y13599500D01*
X90999500Y13471969D01*
X80500500Y13471969D01*
X80500500Y20040892D01*
X80466392Y20168186D01*
X80400500Y20282314D01*
X80307314Y20375500D01*
X80250250Y20408446D01*
X80193187Y20441392D01*
X80129539Y20458446D01*
X80065892Y20475500D01*
X51065892Y20475500D01*
X50934108Y20475500D01*
X50806812Y20441392D01*
X50692686Y20375500D01*
X50692683Y20375498D01*
X50599502Y20282317D01*
X50599500Y20282314D01*
X50533608Y20168188D01*
X50506199Y20065892D01*
X50499500Y20040892D01*
X502688Y20040892D01*
X551996Y21194866D01*
X552085Y21196624D01*
X622933Y22407027D01*
X623048Y22408768D01*
X712966Y23617965D01*
X713125Y23619877D01*
X785199Y24418661D01*
X810827Y24483657D01*
X867529Y24524482D01*
X937301Y24528170D01*
X996377Y24495196D01*
X1526799Y23964771D01*
X1536728Y23954842D01*
X1541630Y23947022D01*
X1583237Y23908333D01*
X1590390Y23901180D01*
X1600440Y23889818D01*
X1609296Y23878475D01*
X1634157Y23859727D01*
X1636213Y23858177D01*
X1637083Y23857515D01*
X1641712Y23853960D01*
X1670690Y23827014D01*
X1690388Y23816576D01*
X1698651Y23810230D01*
X1701118Y23806848D01*
X1710092Y23800274D01*
X1724098Y23786491D01*
X1745904Y23774135D01*
X1759419Y23765265D01*
X1779428Y23750175D01*
X1801292Y23741333D01*
X1829722Y23725184D01*
X1843384Y23714824D01*
X1848019Y23711310D01*
X1871822Y23701611D01*
X1886156Y23694664D01*
X1908509Y23681997D01*
X1920733Y23678827D01*
X1931807Y23675955D01*
X1962656Y23663327D01*
X1973586Y23657020D01*
X1982659Y23651785D01*
X2008563Y23644852D01*
X2008695Y23644816D01*
X2016074Y23642823D01*
X2047858Y23629869D01*
X2078127Y23626061D01*
X2086439Y23623815D01*
X2090024Y23621620D01*
X2102612Y23618223D01*
X2121630Y23610139D01*
X2121635Y23610137D01*
X2149302Y23606236D01*
X2164019Y23603240D01*
X2191015Y23596013D01*
X2212265Y23596019D01*
X2247013Y23591060D01*
X2266438Y23585394D01*
X2287288Y23584937D01*
X2295396Y23584758D01*
X2295778Y23584749D01*
X2302918Y23584571D01*
X2338664Y23579528D01*
X2366817Y23582971D01*
X2375924Y23582743D01*
X2380331Y23581329D01*
X2393707Y23581010D01*
X2396283Y23580570D01*
X2411618Y23577950D01*
X2442011Y23580773D01*
X2448860Y23581384D01*
X2485831Y23580570D01*
X2512294Y23587042D01*
X2521626Y23587874D01*
X2526306Y23586942D01*
X2539629Y23588167D01*
X2556959Y23587189D01*
X2586937Y23593437D01*
X2600764Y23595512D01*
X2631241Y23598341D01*
X2649345Y23605040D01*
X2667067Y23610135D01*
X2679591Y23612745D01*
X2691123Y23614586D01*
X2727298Y23618617D01*
X2739885Y23623541D01*
X2759748Y23629449D01*
X2772978Y23632205D01*
X2805481Y23648604D01*
X2816135Y23653362D01*
X2941937Y23702562D01*
X2995838Y23721492D01*
X3003190Y23726518D01*
X3011482Y23729760D01*
X3045856Y23755066D01*
X3055736Y23762339D01*
X3059280Y23764854D01*
X3181205Y23848187D01*
X3231224Y23880554D01*
X3235520Y23885311D01*
X3240812Y23888927D01*
X3259293Y23910453D01*
X3278607Y23932949D01*
X3280655Y23935276D01*
X3377972Y24043003D01*
X3420369Y24088597D01*
X3422082Y24091833D01*
X3424535Y24094547D01*
X3424535Y24094548D01*
X3424542Y24094555D01*
X3452552Y24149311D01*
X3453283Y24150715D01*
X3506665Y24251456D01*
X3525208Y24277239D01*
X3537386Y24309432D01*
X3553501Y24339843D01*
X3558707Y24362542D01*
X3563586Y24378680D01*
X3628066Y24549075D01*
X3756791Y24979756D01*
X3854535Y25418508D01*
X3920804Y25863103D01*
X3955261Y26311287D01*
X3957731Y26760788D01*
X3928202Y27209324D01*
X3904477Y27381337D01*
X3905459Y27396045D01*
X3895504Y27446402D01*
X3888497Y27497244D01*
X3888496Y27497246D01*
X3888496Y27497249D01*
X3886559Y27504307D01*
X3882311Y27530556D01*
X3882241Y27531877D01*
X3881971Y27536974D01*
X3873147Y27564067D01*
X3869409Y27578411D01*
X3863886Y27606353D01*
X3855508Y27623394D01*
X3849049Y27639194D01*
X3846218Y27647760D01*
X3841309Y27675708D01*
X3826392Y27707748D01*
X3824124Y27714613D01*
X3824120Y27714710D01*
X3823955Y27715130D01*
X3812742Y27749565D01*
X3813472Y27749804D01*
X3805734Y27775885D01*
X3797002Y27842086D01*
X3796326Y27848508D01*
X3783649Y28009230D01*
X3783310Y28015686D01*
X3779118Y28175272D01*
X3779238Y28184873D01*
X3784769Y28292660D01*
X3795458Y28500971D01*
X3796757Y28513585D01*
X3845027Y28824839D01*
X3847610Y28837252D01*
X3927502Y29141927D01*
X3931353Y29154039D01*
X3951105Y29206669D01*
X4042019Y29448912D01*
X4047076Y29460537D01*
X4187371Y29742551D01*
X4193596Y29753603D01*
X4362021Y30019747D01*
X4369353Y30030116D01*
X4561277Y30273964D01*
X4564858Y30278304D01*
X4566868Y30280631D01*
X4598663Y30313927D01*
X4603882Y30323472D01*
X4611389Y30332159D01*
X4611435Y30332228D01*
X4611435Y30332230D01*
X4611438Y30332232D01*
X4635597Y30381452D01*
X4661904Y30429546D01*
X4664558Y30440454D01*
X4669506Y30450533D01*
X4679592Y30501740D01*
X4680739Y30506955D01*
X4702760Y30597503D01*
X4720138Y30810722D01*
X4703879Y31024029D01*
X4654385Y31232150D01*
X4572880Y31429941D01*
X4546292Y31473476D01*
X4461381Y31612510D01*
X4322639Y31775347D01*
X4241391Y31844861D01*
X4160090Y31914421D01*
X3977751Y32026298D01*
X3977747Y32026300D01*
X3977745Y32026301D01*
X3977746Y32026301D01*
X3780128Y32108210D01*
X3780125Y32108211D01*
X3572113Y32158132D01*
X3358839Y32174831D01*
X3358837Y32174831D01*
X3358836Y32174831D01*
X3198895Y32162128D01*
X3145581Y32157893D01*
X2937613Y32107736D01*
X2740092Y32025604D01*
X2740086Y32025601D01*
X2557880Y31913525D01*
X2477782Y31844861D01*
X2477343Y31844487D01*
X1983692Y31425272D01*
X1919851Y31396881D01*
X1850795Y31407513D01*
X1798449Y31453792D01*
X1779433Y31521024D01*
X1781622Y31543016D01*
X1865990Y31985459D01*
X1866072Y31985880D01*
X1965558Y32489216D01*
X1967234Y32496521D01*
X2036739Y32762425D01*
X2041090Y32775876D01*
X2139281Y33029012D01*
X2145146Y33041896D01*
X2271584Y33282178D01*
X2278869Y33294288D01*
X2431900Y33518575D01*
X2440526Y33529784D01*
X2618148Y33735142D01*
X2628009Y33745305D01*
X2827893Y33929042D01*
X2838840Y33938005D01*
X3058390Y34097737D01*
X3070288Y34105395D01*
X3306645Y34239038D01*
X3319332Y34245283D01*
X3569376Y34351075D01*
X3582710Y34355838D01*
X3843192Y34432407D01*
X3856989Y34435619D01*
X4124502Y34481963D01*
X4138572Y34483579D01*
X4413160Y34499297D01*
X4420247Y34499500D01*
X4482598Y34499500D01*
X10166401Y34499500D01*
X10233440Y34479815D01*
G37*
%TD.AperFunction*%
M02*
