%TF.GenerationSoftware,KiCad,Pcbnew,10.0.1*%
%TF.CreationDate,2026-07-06T15:16:58+01:00*%
%TF.ProjectId,panel-back,70616e65-6c2d-4626-9163-6b2e6b696361,rev?*%
%TF.SameCoordinates,PX4b571c0PY49e8e60*%
%TF.FileFunction,Soldermask,Top*%
%TF.FilePolarity,Negative*%
%FSLAX46Y46*%
G04 Gerber Fmt 4.6, Leading zero omitted, Abs format (unit mm)*
G04 Created by KiCad (PCBNEW 10.0.1) date 2026-07-06 15:16:58*
%MOMM*%
%LPD*%
G01*
G04 APERTURE LIST*
%ADD10C,0.000000*%
%ADD11C,4.100000*%
%ADD12C,5.800000*%
%ADD13C,3.600000*%
%ADD14C,5.600000*%
G04 APERTURE END LIST*
D10*
G36*
X121180668Y3998785D02*
G01*
X121389172Y3998721D01*
X121432292Y3984064D01*
X121483345Y3963757D01*
X121527709Y3939110D01*
X121569057Y3907814D01*
X121600653Y3878233D01*
X121641945Y3830782D01*
X121673547Y3780445D01*
X121696936Y3724612D01*
X121706986Y3690011D01*
X121708960Y3681822D01*
X121710687Y3673420D01*
X121712186Y3664039D01*
X121713471Y3652909D01*
X121714559Y3639263D01*
X121715467Y3622333D01*
X121716210Y3601352D01*
X121716805Y3575551D01*
X121717269Y3544163D01*
X121717617Y3506419D01*
X121717867Y3461552D01*
X121718033Y3408794D01*
X121718134Y3347378D01*
X121718184Y3276534D01*
X121718201Y3195496D01*
X121718202Y3162495D01*
X121718195Y3077608D01*
X121718164Y3003238D01*
X121718092Y2938652D01*
X121717965Y2883116D01*
X121717765Y2835900D01*
X121717477Y2796269D01*
X121717085Y2763492D01*
X121716572Y2736836D01*
X121715924Y2715568D01*
X121715124Y2698956D01*
X121714155Y2686268D01*
X121713002Y2676770D01*
X121711650Y2669730D01*
X121710081Y2664416D01*
X121708281Y2660094D01*
X121707199Y2657902D01*
X121687219Y2629816D01*
X121661079Y2609760D01*
X121630790Y2598599D01*
X121598362Y2597197D01*
X121577024Y2601951D01*
X121546750Y2617096D01*
X121522839Y2639242D01*
X121512295Y2655695D01*
X121510428Y2659871D01*
X121508784Y2664892D01*
X121507345Y2671486D01*
X121506091Y2680382D01*
X121505002Y2692308D01*
X121504061Y2707992D01*
X121503246Y2728163D01*
X121502539Y2753550D01*
X121501921Y2784881D01*
X121501373Y2822885D01*
X121500874Y2868289D01*
X121500406Y2921824D01*
X121499950Y2984216D01*
X121499485Y3056195D01*
X121498994Y3138490D01*
X121498848Y3163619D01*
X121496036Y3650133D01*
X121482982Y3674596D01*
X121459090Y3709858D01*
X121428589Y3740369D01*
X121394673Y3762966D01*
X121392780Y3763913D01*
X121381925Y3769084D01*
X121372078Y3772989D01*
X121361443Y3775836D01*
X121348225Y3777831D01*
X121330627Y3779180D01*
X121306854Y3780091D01*
X121275111Y3780769D01*
X121241637Y3781301D01*
X121122226Y3783106D01*
X121120712Y3230105D01*
X121119198Y2677104D01*
X121104282Y2651734D01*
X121083536Y2626635D01*
X121056426Y2608749D01*
X121025592Y2599051D01*
X120993671Y2598517D01*
X120973735Y2603492D01*
X120954878Y2612944D01*
X120937622Y2625373D01*
X120936029Y2626843D01*
X120930897Y2631547D01*
X120926318Y2635697D01*
X120922260Y2639927D01*
X120918693Y2644870D01*
X120915585Y2651159D01*
X120912905Y2659427D01*
X120910620Y2670309D01*
X120908700Y2684436D01*
X120907113Y2702443D01*
X120905828Y2724963D01*
X120904813Y2752628D01*
X120904037Y2786074D01*
X120903469Y2825932D01*
X120903076Y2872836D01*
X120902828Y2927420D01*
X120902693Y2990317D01*
X120902639Y3062159D01*
X120902636Y3143582D01*
X120902652Y3235217D01*
X120902657Y3299086D01*
X120902657Y3919367D01*
X120914587Y3944012D01*
X120930589Y3967266D01*
X120949341Y3983753D01*
X120972164Y3998849D01*
X121180668Y3998785D01*
G37*
G36*
X118300716Y4011910D02*
G01*
X118351248Y4005681D01*
X118365090Y4002570D01*
X118430529Y3980547D01*
X118489644Y3949524D01*
X118541848Y3910180D01*
X118586549Y3863195D01*
X118623160Y3809247D01*
X118651091Y3749014D01*
X118669752Y3683175D01*
X118675872Y3644644D01*
X118677244Y3626294D01*
X118678363Y3597250D01*
X118679223Y3558064D01*
X118679819Y3509289D01*
X118680144Y3451477D01*
X118680194Y3385180D01*
X118679962Y3310950D01*
X118679736Y3270483D01*
X118679284Y3201818D01*
X118678850Y3143423D01*
X118678394Y3094321D01*
X118677880Y3053534D01*
X118677268Y3020082D01*
X118676521Y2992989D01*
X118675600Y2971276D01*
X118674469Y2953966D01*
X118673088Y2940079D01*
X118671419Y2928637D01*
X118669426Y2918664D01*
X118667068Y2909180D01*
X118665454Y2903281D01*
X118642758Y2841356D01*
X118611001Y2783978D01*
X118571280Y2732379D01*
X118524692Y2687795D01*
X118472336Y2651458D01*
X118418682Y2625864D01*
X118363808Y2609159D01*
X118306907Y2599326D01*
X118251634Y2596839D01*
X118216984Y2599568D01*
X118150942Y2614166D01*
X118089473Y2638704D01*
X118033324Y2672545D01*
X117983241Y2715049D01*
X117939972Y2765579D01*
X117904264Y2823496D01*
X117876865Y2888163D01*
X117875969Y2890833D01*
X117873312Y2898966D01*
X117871037Y2906781D01*
X117869109Y2915186D01*
X117867494Y2925094D01*
X117866157Y2937412D01*
X117865064Y2953051D01*
X117864180Y2972920D01*
X117863471Y2997931D01*
X117862902Y3028991D01*
X117862440Y3067012D01*
X117862049Y3112903D01*
X117861695Y3167574D01*
X117861344Y3231934D01*
X117861076Y3284287D01*
X117860970Y3307042D01*
X118081997Y3307042D01*
X118081997Y2958326D01*
X118096890Y2926560D01*
X118121230Y2886916D01*
X118152537Y2855509D01*
X118189512Y2832949D01*
X118230851Y2819847D01*
X118275255Y2816813D01*
X118317040Y2823267D01*
X118360134Y2839726D01*
X118396231Y2864923D01*
X118425564Y2899055D01*
X118443063Y2930204D01*
X118458835Y2963951D01*
X118458835Y3304230D01*
X118458835Y3644509D01*
X118445752Y3676914D01*
X118427190Y3710361D01*
X118400699Y3741463D01*
X118369542Y3766742D01*
X118352203Y3776613D01*
X118318144Y3788007D01*
X118279096Y3793022D01*
X118239454Y3791485D01*
X118203612Y3783222D01*
X118201789Y3782551D01*
X118165885Y3763675D01*
X118133166Y3736481D01*
X118106852Y3703899D01*
X118097746Y3687830D01*
X118081997Y3655758D01*
X118081997Y3307042D01*
X117860970Y3307042D01*
X117860732Y3357820D01*
X117860514Y3421019D01*
X117860439Y3474801D01*
X117860524Y3520079D01*
X117860784Y3557770D01*
X117861237Y3588788D01*
X117861900Y3614048D01*
X117862790Y3634466D01*
X117863923Y3650956D01*
X117864419Y3655758D01*
X117865315Y3664434D01*
X117866984Y3675815D01*
X117868378Y3683280D01*
X117887121Y3748641D01*
X117915429Y3808851D01*
X117952546Y3863055D01*
X117997716Y3910401D01*
X118050183Y3950035D01*
X118109191Y3981105D01*
X118143866Y3994138D01*
X118192768Y4005977D01*
X118246471Y4011955D01*
X118300716Y4011910D01*
G37*
G36*
X119223635Y3998827D02*
G01*
X119267400Y3998714D01*
X119302526Y3998440D01*
X119330316Y3997938D01*
X119352074Y3997137D01*
X119369105Y3995968D01*
X119382714Y3994361D01*
X119394204Y3992248D01*
X119404880Y3989559D01*
X119416047Y3986224D01*
X119417803Y3985677D01*
X119465778Y3968324D01*
X119506854Y3947663D01*
X119544643Y3921490D01*
X119582752Y3887605D01*
X119589527Y3880914D01*
X119623661Y3843953D01*
X119650410Y3807776D01*
X119672184Y3768562D01*
X119691390Y3722491D01*
X119694176Y3714814D01*
X119707240Y3678255D01*
X119708994Y3321864D01*
X119709339Y3249528D01*
X119709590Y3187516D01*
X119709726Y3134903D01*
X119709725Y3090767D01*
X119709565Y3054181D01*
X119709222Y3024222D01*
X119708675Y2999966D01*
X119707902Y2980488D01*
X119706880Y2964863D01*
X119705586Y2952168D01*
X119704000Y2941478D01*
X119702097Y2931868D01*
X119699857Y2922415D01*
X119699306Y2920224D01*
X119677480Y2855924D01*
X119646392Y2797382D01*
X119606854Y2745350D01*
X119559678Y2700579D01*
X119505673Y2663819D01*
X119445653Y2635823D01*
X119380428Y2617341D01*
X119370050Y2615402D01*
X119335732Y2611076D01*
X119291288Y2608219D01*
X119237754Y2606891D01*
X119217607Y2606798D01*
X119114500Y2606798D01*
X119112886Y2341043D01*
X119112510Y2277164D01*
X119112129Y2223519D01*
X119111601Y2179097D01*
X119110781Y2142884D01*
X119109527Y2113867D01*
X119107695Y2091033D01*
X119105142Y2073370D01*
X119101725Y2059864D01*
X119097301Y2049502D01*
X119091726Y2041271D01*
X119084857Y2034160D01*
X119076551Y2027153D01*
X119067472Y2019893D01*
X119041743Y2005833D01*
X119011241Y1999693D01*
X118979434Y2001737D01*
X118951921Y2011114D01*
X118931481Y2025323D01*
X118914160Y2043838D01*
X118912549Y2046164D01*
X118897542Y2068841D01*
X118896352Y2825015D01*
X119114083Y2825015D01*
X119230790Y2827079D01*
X119270030Y2827823D01*
X119299879Y2828625D01*
X119322193Y2829705D01*
X119338829Y2831281D01*
X119351644Y2833572D01*
X119362495Y2836799D01*
X119373238Y2841179D01*
X119381244Y2844844D01*
X119416174Y2866258D01*
X119446730Y2894924D01*
X119470243Y2928042D01*
X119479566Y2948086D01*
X119481999Y2954865D01*
X119484064Y2961781D01*
X119485785Y2969755D01*
X119487187Y2979709D01*
X119488298Y2992565D01*
X119489141Y3009243D01*
X119489743Y3030666D01*
X119490129Y3057756D01*
X119490323Y3091433D01*
X119490353Y3132621D01*
X119490242Y3182239D01*
X119490017Y3241210D01*
X119489703Y3310456D01*
X119489683Y3314734D01*
X119488109Y3650133D01*
X119473203Y3678367D01*
X119451155Y3710636D01*
X119422087Y3739439D01*
X119389348Y3761770D01*
X119370906Y3770235D01*
X119358714Y3774431D01*
X119346484Y3777533D01*
X119332283Y3779704D01*
X119314177Y3781106D01*
X119290233Y3781898D01*
X119258517Y3782244D01*
X119226361Y3782308D01*
X119114083Y3782308D01*
X119114083Y3303661D01*
X119114083Y2825015D01*
X118896352Y2825015D01*
X118896086Y2994001D01*
X118895599Y3303661D01*
X118894630Y3919162D01*
X118906610Y3943909D01*
X118922695Y3967305D01*
X118941410Y3983753D01*
X118964229Y3998849D01*
X119169924Y3998849D01*
X119223635Y3998827D01*
G37*
G36*
X126792381Y4010614D02*
G01*
X126834743Y4003033D01*
X126876949Y3989127D01*
X126914129Y3972448D01*
X126952016Y3950125D01*
X126990082Y3921078D01*
X127025246Y3888074D01*
X127054424Y3853882D01*
X127067050Y3835164D01*
X127078335Y3814689D01*
X127084312Y3797807D01*
X127086540Y3779199D01*
X127086736Y3768055D01*
X127085600Y3745328D01*
X127081232Y3728338D01*
X127072195Y3711718D01*
X127071262Y3710296D01*
X127049112Y3686290D01*
X127020683Y3669549D01*
X126988882Y3661193D01*
X126956612Y3662343D01*
X126950567Y3663755D01*
X126926947Y3672934D01*
X126906659Y3687814D01*
X126887068Y3710540D01*
X126878908Y3722204D01*
X126851114Y3754733D01*
X126817915Y3777397D01*
X126779340Y3790180D01*
X126746457Y3793278D01*
X126711386Y3790958D01*
X126682226Y3782496D01*
X126654677Y3766464D01*
X126646049Y3759938D01*
X126616707Y3730160D01*
X126597279Y3695077D01*
X126587797Y3654752D01*
X126586790Y3633058D01*
X126587989Y3607983D01*
X126591884Y3588799D01*
X126599704Y3570246D01*
X126602855Y3564280D01*
X126613694Y3546248D01*
X126624666Y3530926D01*
X126630487Y3524451D01*
X126637861Y3518672D01*
X126653294Y3507322D01*
X126675604Y3491244D01*
X126703609Y3471282D01*
X126736129Y3448281D01*
X126771981Y3423082D01*
X126797077Y3405530D01*
X126835415Y3378551D01*
X126871959Y3352424D01*
X126905369Y3328137D01*
X126934306Y3306681D01*
X126957428Y3289044D01*
X126973396Y3276214D01*
X126978848Y3271369D01*
X127020479Y3223493D01*
X127053636Y3169288D01*
X127077894Y3110281D01*
X127092832Y3047998D01*
X127098025Y2983967D01*
X127093051Y2919715D01*
X127085923Y2885208D01*
X127067130Y2832572D01*
X127038682Y2781365D01*
X127002165Y2733385D01*
X126959167Y2690427D01*
X126911275Y2654290D01*
X126860077Y2626769D01*
X126856134Y2625096D01*
X126804854Y2608623D01*
X126748886Y2599083D01*
X126692178Y2596846D01*
X126638672Y2602282D01*
X126630391Y2603949D01*
X126586900Y2616528D01*
X126541283Y2635050D01*
X126499032Y2657181D01*
X126486185Y2665261D01*
X126455305Y2688970D01*
X126425726Y2717532D01*
X126399172Y2748743D01*
X126377371Y2780398D01*
X126362049Y2810293D01*
X126355484Y2832216D01*
X126355340Y2864194D01*
X126364931Y2893810D01*
X126382761Y2919387D01*
X126407336Y2939250D01*
X126437162Y2951724D01*
X126465235Y2955267D01*
X126497070Y2951122D01*
X126524514Y2938062D01*
X126549191Y2915148D01*
X126560587Y2900295D01*
X126590833Y2864583D01*
X126624464Y2839363D01*
X126662336Y2824165D01*
X126705305Y2818521D01*
X126709898Y2818464D01*
X126749937Y2822280D01*
X126784925Y2834722D01*
X126817801Y2856928D01*
X126824918Y2863126D01*
X126852380Y2893755D01*
X126869544Y2927466D01*
X126877228Y2966119D01*
X126877828Y2983636D01*
X126873483Y3027103D01*
X126860557Y3064109D01*
X126838474Y3096096D01*
X126829091Y3105786D01*
X126818822Y3114486D01*
X126800628Y3128679D01*
X126775801Y3147407D01*
X126745632Y3169711D01*
X126711412Y3194634D01*
X126674433Y3221218D01*
X126650682Y3238118D01*
X126599768Y3274518D01*
X126557299Y3305687D01*
X126522276Y3332510D01*
X126493701Y3355869D01*
X126470575Y3376649D01*
X126451901Y3395731D01*
X126436680Y3413999D01*
X126423913Y3432336D01*
X126415769Y3445919D01*
X126398399Y3482783D01*
X126383489Y3526240D01*
X126372381Y3571694D01*
X126366418Y3614545D01*
X126366368Y3615227D01*
X126367385Y3676547D01*
X126378683Y3735529D01*
X126399385Y3791252D01*
X126428612Y3842797D01*
X126465487Y3889241D01*
X126509131Y3929663D01*
X126558667Y3963144D01*
X126613216Y3988763D01*
X126671901Y4005598D01*
X126733845Y4012728D01*
X126745532Y4012910D01*
X126792381Y4010614D01*
G37*
G36*
X120343205Y4011297D02*
G01*
X120396340Y4002362D01*
X120461786Y3980279D01*
X120521144Y3948958D01*
X120573810Y3908983D01*
X120619176Y3860939D01*
X120656638Y3805408D01*
X120685590Y3742977D01*
X120695364Y3713850D01*
X120698774Y3701765D01*
X120701527Y3689745D01*
X120703712Y3676386D01*
X120705420Y3660282D01*
X120706743Y3640028D01*
X120707770Y3614218D01*
X120708592Y3581448D01*
X120709300Y3540312D01*
X120709984Y3489405D01*
X120710021Y3486497D01*
X120710588Y3424015D01*
X120710595Y3372604D01*
X120710040Y3332102D01*
X120708920Y3302343D01*
X120707231Y3283164D01*
X120706107Y3277242D01*
X120692380Y3247047D01*
X120669730Y3221926D01*
X120649073Y3208368D01*
X120643534Y3205784D01*
X120637264Y3203639D01*
X120629226Y3201892D01*
X120618380Y3200503D01*
X120603690Y3199430D01*
X120584116Y3198633D01*
X120558621Y3198071D01*
X120526165Y3197704D01*
X120485711Y3197492D01*
X120436220Y3197392D01*
X120376655Y3197366D01*
X120368075Y3197365D01*
X120108643Y3197365D01*
X120110533Y3077846D01*
X120111203Y3038154D01*
X120111928Y3007914D01*
X120112915Y2985331D01*
X120114374Y2968609D01*
X120116511Y2955953D01*
X120119534Y2945567D01*
X120123652Y2935655D01*
X120128055Y2926494D01*
X120153104Y2887043D01*
X120185372Y2854901D01*
X120221225Y2832628D01*
X120240102Y2824739D01*
X120257738Y2820188D01*
X120278560Y2818148D01*
X120300841Y2817770D01*
X120335894Y2819653D01*
X120364864Y2826158D01*
X120391473Y2838711D01*
X120419440Y2858735D01*
X120429205Y2866885D01*
X120462170Y2889301D01*
X120495530Y2900828D01*
X120528577Y2901437D01*
X120560603Y2891097D01*
X120586786Y2873427D01*
X120607083Y2850684D01*
X120618145Y2824173D01*
X120620734Y2791836D01*
X120620216Y2783410D01*
X120616025Y2759921D01*
X120606700Y2738925D01*
X120590776Y2718237D01*
X120566788Y2695674D01*
X120554663Y2685679D01*
X120506097Y2653057D01*
X120451311Y2627262D01*
X120392795Y2608958D01*
X120333039Y2598809D01*
X120274534Y2597478D01*
X120238972Y2601547D01*
X120171440Y2618590D01*
X120109423Y2644805D01*
X120053670Y2679636D01*
X120004933Y2722527D01*
X119963959Y2772922D01*
X119932102Y2828964D01*
X119924522Y2845218D01*
X119918013Y2859623D01*
X119912490Y2873147D01*
X119907864Y2886758D01*
X119904050Y2901425D01*
X119900961Y2918117D01*
X119898510Y2937803D01*
X119896611Y2961450D01*
X119895177Y2990027D01*
X119894121Y3024504D01*
X119893357Y3065847D01*
X119892798Y3115027D01*
X119892358Y3173012D01*
X119891949Y3240769D01*
X119891719Y3280438D01*
X119891327Y3354936D01*
X119891107Y3416719D01*
X120108627Y3416719D01*
X120300841Y3416719D01*
X120493055Y3416719D01*
X120491158Y3533426D01*
X120490473Y3572638D01*
X120489720Y3602455D01*
X120488681Y3624734D01*
X120487139Y3641327D01*
X120484876Y3654088D01*
X120481672Y3664872D01*
X120477312Y3675533D01*
X120473470Y3683880D01*
X120449131Y3723441D01*
X120417459Y3754857D01*
X120379554Y3777430D01*
X120336514Y3790463D01*
X120300841Y3793557D01*
X120253983Y3788512D01*
X120212373Y3773586D01*
X120176508Y3749085D01*
X120146882Y3715318D01*
X120130908Y3687943D01*
X120112422Y3650414D01*
X120110525Y3533566D01*
X120108627Y3416719D01*
X119891107Y3416719D01*
X119891099Y3419075D01*
X119891049Y3473742D01*
X119891190Y3519826D01*
X119891535Y3558214D01*
X119892100Y3589795D01*
X119892896Y3615456D01*
X119893939Y3636087D01*
X119895240Y3652574D01*
X119896815Y3665807D01*
X119897732Y3671609D01*
X119913755Y3736137D01*
X119938834Y3794729D01*
X119973655Y3848698D01*
X120014139Y3894652D01*
X120050518Y3927982D01*
X120086541Y3953867D01*
X120126159Y3974774D01*
X120170010Y3992026D01*
X120224980Y4006230D01*
X120284033Y4012714D01*
X120343205Y4011297D01*
G37*
G36*
X123695683Y4001449D02*
G01*
X123743737Y4000976D01*
X123783461Y3999936D01*
X123816313Y3998146D01*
X123843750Y3995422D01*
X123867232Y3991582D01*
X123888216Y3986442D01*
X123908160Y3979819D01*
X123928524Y3971530D01*
X123948295Y3962551D01*
X124008166Y3928922D01*
X124059564Y3887938D01*
X124102712Y3839386D01*
X124137830Y3783051D01*
X124142440Y3773871D01*
X124150655Y3756974D01*
X124157725Y3741792D01*
X124163735Y3727365D01*
X124168772Y3712733D01*
X124172922Y3696939D01*
X124176271Y3679023D01*
X124178904Y3658025D01*
X124180907Y3632987D01*
X124182367Y3602950D01*
X124183370Y3566954D01*
X124184000Y3524041D01*
X124184345Y3473251D01*
X124184490Y3413625D01*
X124184522Y3344205D01*
X124184521Y3304230D01*
X124184527Y3230003D01*
X124184482Y3166051D01*
X124184291Y3111401D01*
X124183859Y3065080D01*
X124183092Y3026114D01*
X124181895Y2993531D01*
X124180174Y2966355D01*
X124177834Y2943615D01*
X124174780Y2924337D01*
X124170917Y2907547D01*
X124166152Y2892272D01*
X124160388Y2877538D01*
X124153533Y2862373D01*
X124145490Y2845803D01*
X124138584Y2831791D01*
X124105527Y2777030D01*
X124063534Y2728270D01*
X124013684Y2686395D01*
X123957060Y2652287D01*
X123894742Y2626828D01*
X123883460Y2623366D01*
X123867885Y2619205D01*
X123851941Y2615980D01*
X123833732Y2613522D01*
X123811363Y2611662D01*
X123782936Y2610234D01*
X123746556Y2609067D01*
X123713474Y2608275D01*
X123585518Y2605473D01*
X123585518Y2343563D01*
X123585504Y2282432D01*
X123585433Y2231506D01*
X123585262Y2189740D01*
X123584947Y2156091D01*
X123584444Y2129515D01*
X123583711Y2108967D01*
X123582704Y2093404D01*
X123581379Y2081781D01*
X123579692Y2073054D01*
X123577602Y2066179D01*
X123575062Y2060113D01*
X123573588Y2057007D01*
X123554850Y2030034D01*
X123528992Y2011755D01*
X123496075Y2002210D01*
X123482216Y2000904D01*
X123456760Y2001338D01*
X123436154Y2004914D01*
X123430741Y2006891D01*
X123410364Y2020677D01*
X123391177Y2041277D01*
X123376706Y2064501D01*
X123372127Y2076541D01*
X123371355Y2084916D01*
X123370634Y2103807D01*
X123369965Y2132477D01*
X123369347Y2170193D01*
X123368782Y2216220D01*
X123368268Y2269824D01*
X123367805Y2330271D01*
X123367395Y2396825D01*
X123367036Y2468754D01*
X123366729Y2545322D01*
X123366474Y2625796D01*
X123366271Y2709440D01*
X123366120Y2795521D01*
X123366087Y2825015D01*
X123585518Y2825015D01*
X123702225Y2827130D01*
X123741477Y2827892D01*
X123771347Y2828710D01*
X123793701Y2829805D01*
X123810404Y2831398D01*
X123823323Y2833709D01*
X123834324Y2836959D01*
X123845272Y2841368D01*
X123853340Y2845005D01*
X123892935Y2869143D01*
X123925275Y2901763D01*
X123949415Y2941453D01*
X123965168Y2975200D01*
X123965168Y3307042D01*
X123965168Y3638884D01*
X123952406Y3666559D01*
X123928219Y3707281D01*
X123896793Y3739653D01*
X123865806Y3760181D01*
X123830181Y3779495D01*
X123707850Y3781295D01*
X123585518Y3783094D01*
X123585518Y3304055D01*
X123585518Y2825015D01*
X123366087Y2825015D01*
X123366021Y2883303D01*
X123365974Y2972054D01*
X123365979Y3061038D01*
X123366037Y3149521D01*
X123366146Y3236768D01*
X123366274Y3304055D01*
X123366308Y3322046D01*
X123366521Y3404620D01*
X123366788Y3483756D01*
X123367106Y3558719D01*
X123367477Y3628775D01*
X123367900Y3693189D01*
X123368375Y3751228D01*
X123368903Y3802156D01*
X123369483Y3845240D01*
X123370116Y3879745D01*
X123370802Y3904938D01*
X123371540Y3920082D01*
X123372036Y3924150D01*
X123385316Y3952345D01*
X123407069Y3976257D01*
X123430613Y3991089D01*
X123437763Y3993944D01*
X123446134Y3996226D01*
X123457005Y3997998D01*
X123471652Y3999325D01*
X123491350Y4000272D01*
X123517376Y4000903D01*
X123551008Y4001282D01*
X123593521Y4001474D01*
X123637840Y4001538D01*
X123695683Y4001449D01*
G37*
G36*
X124545243Y4607949D02*
G01*
X124574138Y4592942D01*
X124587331Y4581641D01*
X124600994Y4564699D01*
X124611516Y4545901D01*
X124614143Y4538669D01*
X124615893Y4526244D01*
X124617359Y4502656D01*
X124618539Y4467985D01*
X124619430Y4422315D01*
X124620031Y4365726D01*
X124620340Y4298301D01*
X124620385Y4258980D01*
X124620416Y4001661D01*
X124740442Y4001661D01*
X124783005Y4001508D01*
X124816370Y4000954D01*
X124842587Y3999860D01*
X124863703Y3998087D01*
X124881767Y3995495D01*
X124898827Y3991944D01*
X124904957Y3990445D01*
X124970425Y3968459D01*
X125029619Y3937463D01*
X125081924Y3898171D01*
X125126725Y3851295D01*
X125163408Y3797546D01*
X125191357Y3737639D01*
X125209957Y3672285D01*
X125216514Y3629443D01*
X125217625Y3613145D01*
X125218615Y3587209D01*
X125219484Y3552703D01*
X125220233Y3510693D01*
X125220863Y3462247D01*
X125221375Y3408434D01*
X125221770Y3350321D01*
X125222047Y3288975D01*
X125222209Y3225464D01*
X125222255Y3160855D01*
X125222186Y3096217D01*
X125222003Y3032617D01*
X125221707Y2971122D01*
X125221298Y2912800D01*
X125220778Y2858719D01*
X125220147Y2809947D01*
X125219405Y2767550D01*
X125218553Y2732597D01*
X125217593Y2706156D01*
X125216524Y2689293D01*
X125215875Y2684411D01*
X125204388Y2654623D01*
X125184875Y2629481D01*
X125159537Y2610533D01*
X125130574Y2599328D01*
X125100188Y2597414D01*
X125093574Y2598386D01*
X125059924Y2609972D01*
X125032622Y2630244D01*
X125012960Y2657957D01*
X125003440Y2685374D01*
X125002143Y2696679D01*
X125001004Y2717878D01*
X125000020Y2749136D01*
X124999189Y2790618D01*
X124998508Y2842490D01*
X124997976Y2904917D01*
X124997591Y2978064D01*
X124997350Y3062098D01*
X124997252Y3157182D01*
X124997250Y3176550D01*
X124997245Y3638884D01*
X124981055Y3673107D01*
X124956138Y3713138D01*
X124922891Y3745625D01*
X124893202Y3764611D01*
X124883619Y3769499D01*
X124874668Y3773208D01*
X124864623Y3775926D01*
X124851760Y3777847D01*
X124834355Y3779160D01*
X124810685Y3780058D01*
X124779024Y3780730D01*
X124742748Y3781295D01*
X124620416Y3783094D01*
X124620385Y3238536D01*
X124620328Y3136086D01*
X124620168Y3044611D01*
X124619901Y2963841D01*
X124619525Y2893502D01*
X124619036Y2833321D01*
X124618433Y2783027D01*
X124617711Y2742347D01*
X124616867Y2711009D01*
X124615899Y2688740D01*
X124614804Y2675267D01*
X124614138Y2671480D01*
X124602754Y2648108D01*
X124583567Y2626314D01*
X124559899Y2609346D01*
X124543448Y2602370D01*
X124516424Y2596679D01*
X124492827Y2597910D01*
X124476993Y2602336D01*
X124448718Y2617069D01*
X124425239Y2638597D01*
X124411823Y2659578D01*
X124410462Y2662879D01*
X124409225Y2666858D01*
X124408104Y2672034D01*
X124407093Y2678928D01*
X124406189Y2688058D01*
X124405383Y2699945D01*
X124404672Y2715106D01*
X124404048Y2734063D01*
X124403506Y2757334D01*
X124403041Y2785440D01*
X124402646Y2818898D01*
X124402316Y2858229D01*
X124402045Y2903953D01*
X124401828Y2956588D01*
X124401657Y3016655D01*
X124401529Y3084672D01*
X124401436Y3161160D01*
X124401374Y3246637D01*
X124401336Y3341623D01*
X124401317Y3446637D01*
X124401310Y3562200D01*
X124401310Y3605138D01*
X124401314Y3724553D01*
X124401329Y3833239D01*
X124401362Y3931713D01*
X124401417Y4020495D01*
X124401502Y4100104D01*
X124401620Y4171058D01*
X124401778Y4233877D01*
X124401982Y4289079D01*
X124402238Y4337183D01*
X124402550Y4378708D01*
X124402925Y4414172D01*
X124403367Y4444096D01*
X124403884Y4468997D01*
X124404481Y4489395D01*
X124405163Y4505807D01*
X124405935Y4518755D01*
X124406805Y4528755D01*
X124407776Y4536327D01*
X124408856Y4541990D01*
X124410049Y4546263D01*
X124411361Y4549664D01*
X124411635Y4550277D01*
X124429925Y4578260D01*
X124454526Y4598392D01*
X124483342Y4610300D01*
X124514279Y4613611D01*
X124545243Y4607949D01*
G37*
G36*
X125472444Y4009728D02*
G01*
X125502329Y3997950D01*
X125527959Y3978926D01*
X125546909Y3953807D01*
X125553381Y3938529D01*
X125555907Y3930261D01*
X125561377Y3912092D01*
X125569527Y3884901D01*
X125580093Y3849570D01*
X125592814Y3806978D01*
X125607426Y3758008D01*
X125623666Y3703539D01*
X125641272Y3644453D01*
X125659980Y3581629D01*
X125679528Y3515948D01*
X125680603Y3512334D01*
X125700101Y3446829D01*
X125718710Y3384361D01*
X125736176Y3325781D01*
X125752244Y3271944D01*
X125766658Y3223702D01*
X125779163Y3181908D01*
X125789505Y3147415D01*
X125797428Y3121076D01*
X125802677Y3103745D01*
X125804997Y3096273D01*
X125805050Y3096125D01*
X125807112Y3100052D01*
X125812151Y3113972D01*
X125819918Y3137104D01*
X125830168Y3168665D01*
X125842652Y3207871D01*
X125857125Y3253939D01*
X125873340Y3306086D01*
X125891050Y3363529D01*
X125910007Y3425486D01*
X125929966Y3491173D01*
X125939249Y3521875D01*
X125961806Y3596312D01*
X125983105Y3666045D01*
X126002930Y3730393D01*
X126021067Y3788677D01*
X126037299Y3840215D01*
X126051410Y3884328D01*
X126063185Y3920334D01*
X126072407Y3947553D01*
X126078861Y3965305D01*
X126082213Y3972754D01*
X126102895Y3992728D01*
X126129936Y4005978D01*
X126160382Y4012094D01*
X126191281Y4010662D01*
X126219677Y4001268D01*
X126231749Y3993660D01*
X126247293Y3979672D01*
X126260461Y3964322D01*
X126263072Y3960416D01*
X126266610Y3954762D01*
X126269751Y3949550D01*
X126272350Y3944205D01*
X126274263Y3938150D01*
X126275347Y3930810D01*
X126275456Y3921612D01*
X126274446Y3909978D01*
X126272174Y3895335D01*
X126268496Y3877107D01*
X126263266Y3854718D01*
X126256340Y3827594D01*
X126247575Y3795159D01*
X126236827Y3756839D01*
X126223950Y3712057D01*
X126208801Y3660240D01*
X126191236Y3600810D01*
X126171110Y3533195D01*
X126148279Y3456817D01*
X126122599Y3371103D01*
X126093925Y3275477D01*
X126078094Y3222675D01*
X126051899Y3135275D01*
X126026028Y3048910D01*
X126000729Y2964412D01*
X125976251Y2882614D01*
X125952843Y2804347D01*
X125930752Y2730443D01*
X125910228Y2661735D01*
X125891519Y2599053D01*
X125874873Y2543230D01*
X125860539Y2495098D01*
X125848766Y2455488D01*
X125839802Y2425232D01*
X125835295Y2409943D01*
X125817379Y2350684D01*
X125801133Y2301040D01*
X125785968Y2259608D01*
X125771293Y2224983D01*
X125756517Y2195761D01*
X125741051Y2170538D01*
X125725984Y2150011D01*
X125684579Y2106291D01*
X125635015Y2068170D01*
X125579593Y2037109D01*
X125520615Y2014567D01*
X125506446Y2010653D01*
X125474168Y2004248D01*
X125440231Y2000634D01*
X125407762Y1999884D01*
X125379890Y2002074D01*
X125359926Y2007196D01*
X125334173Y2024205D01*
X125314402Y2048799D01*
X125301883Y2078347D01*
X125297880Y2110223D01*
X125300393Y2130717D01*
X125311294Y2161740D01*
X125328597Y2185360D01*
X125353342Y2202349D01*
X125386566Y2213481D01*
X125418334Y2218522D01*
X125448365Y2222477D01*
X125471250Y2227887D01*
X125491090Y2236163D01*
X125511986Y2248720D01*
X125518165Y2252906D01*
X125531106Y2262465D01*
X125542475Y2272770D01*
X125552782Y2284941D01*
X125562535Y2300097D01*
X125572242Y2319360D01*
X125582412Y2343849D01*
X125593553Y2374684D01*
X125606174Y2412985D01*
X125620782Y2459873D01*
X125637887Y2516467D01*
X125638085Y2517127D01*
X125694625Y2705866D01*
X125517485Y3297904D01*
X125493808Y3377201D01*
X125471063Y3453699D01*
X125449456Y3526685D01*
X125429195Y3595442D01*
X125410488Y3659255D01*
X125393543Y3717407D01*
X125378567Y3769184D01*
X125365769Y3813869D01*
X125355355Y3850748D01*
X125347533Y3879104D01*
X125342512Y3898221D01*
X125340499Y3907385D01*
X125340469Y3907837D01*
X125345623Y3935129D01*
X125359152Y3962416D01*
X125378700Y3986320D01*
X125401912Y4003465D01*
X125409611Y4006928D01*
X125440729Y4013105D01*
X125472444Y4009728D01*
G37*
G36*
X122802774Y4011033D02*
G01*
X122853064Y4004242D01*
X122902313Y3990038D01*
X122954347Y3967609D01*
X122955323Y3967130D01*
X122980919Y3953427D01*
X123003284Y3938516D01*
X123025842Y3919843D01*
X123051505Y3895361D01*
X123089383Y3853851D01*
X123118861Y3812111D01*
X123142247Y3766467D01*
X123157336Y3727001D01*
X123171993Y3683880D01*
X123172057Y3475376D01*
X123172121Y3266872D01*
X123157025Y3244049D01*
X123138072Y3223140D01*
X123117284Y3209296D01*
X123111171Y3206488D01*
X123104777Y3204159D01*
X123097048Y3202264D01*
X123086926Y3200758D01*
X123073357Y3199598D01*
X123055284Y3198737D01*
X123031651Y3198132D01*
X123001403Y3197736D01*
X122963482Y3197507D01*
X122916834Y3197399D01*
X122860401Y3197367D01*
X122835691Y3197365D01*
X122578742Y3197365D01*
X122578742Y3082275D01*
X122578850Y3042300D01*
X122579275Y3011695D01*
X122580163Y2988587D01*
X122581665Y2971097D01*
X122583927Y2957350D01*
X122587099Y2945469D01*
X122590293Y2936312D01*
X122608792Y2901206D01*
X122635803Y2869135D01*
X122668591Y2843081D01*
X122683666Y2834529D01*
X122701374Y2826332D01*
X122716901Y2821393D01*
X122734276Y2818919D01*
X122757526Y2818115D01*
X122767161Y2818082D01*
X122800546Y2819752D01*
X122828555Y2825609D01*
X122854542Y2836968D01*
X122881863Y2855144D01*
X122901261Y2870680D01*
X122933287Y2891988D01*
X122965091Y2902101D01*
X122993628Y2901581D01*
X123014948Y2896390D01*
X123032122Y2888170D01*
X123049698Y2874458D01*
X123058037Y2866714D01*
X123077755Y2840720D01*
X123087554Y2811019D01*
X123087363Y2779338D01*
X123077109Y2747408D01*
X123063888Y2725811D01*
X123048269Y2709019D01*
X123025351Y2689546D01*
X122997997Y2669528D01*
X122969072Y2651104D01*
X122948992Y2640081D01*
X122904530Y2621829D01*
X122854252Y2608233D01*
X122801908Y2599912D01*
X122751248Y2597485D01*
X122710785Y2600756D01*
X122644154Y2616228D01*
X122583812Y2640689D01*
X122528522Y2674764D01*
X122477048Y2719080D01*
X122476772Y2719355D01*
X122453581Y2743208D01*
X122436434Y2763242D01*
X122422804Y2782922D01*
X122410160Y2805712D01*
X122402723Y2820801D01*
X122394401Y2838221D01*
X122387220Y2853940D01*
X122381094Y2868904D01*
X122375941Y2884058D01*
X122371675Y2900347D01*
X122368213Y2918717D01*
X122365472Y2940111D01*
X122363366Y2965476D01*
X122361813Y2995756D01*
X122360728Y3031896D01*
X122360027Y3074843D01*
X122359627Y3125539D01*
X122359443Y3184931D01*
X122359391Y3253965D01*
X122359389Y3308659D01*
X122359404Y3380898D01*
X122359442Y3416719D01*
X122577956Y3416719D01*
X122766768Y3416719D01*
X122955580Y3416719D01*
X122955580Y3528997D01*
X122955465Y3568498D01*
X122955018Y3598664D01*
X122954085Y3621408D01*
X122952510Y3638643D01*
X122950140Y3652282D01*
X122946820Y3664237D01*
X122944029Y3672148D01*
X122927457Y3703989D01*
X122903161Y3734882D01*
X122874344Y3761220D01*
X122852133Y3775584D01*
X122837407Y3782720D01*
X122823839Y3787201D01*
X122808063Y3789628D01*
X122786715Y3790600D01*
X122767161Y3790736D01*
X122740124Y3790421D01*
X122720943Y3789068D01*
X122706232Y3786066D01*
X122692607Y3780802D01*
X122681576Y3775273D01*
X122642535Y3748776D01*
X122611574Y3714517D01*
X122597021Y3690722D01*
X122591948Y3680811D01*
X122588102Y3671743D01*
X122585285Y3661786D01*
X122583301Y3649208D01*
X122581951Y3632275D01*
X122581040Y3609254D01*
X122580368Y3578412D01*
X122579755Y3539050D01*
X122577956Y3416719D01*
X122359442Y3416719D01*
X122359469Y3442813D01*
X122359608Y3495329D01*
X122359848Y3539369D01*
X122360213Y3575859D01*
X122360731Y3605722D01*
X122361426Y3629884D01*
X122362325Y3649270D01*
X122363453Y3664803D01*
X122364836Y3677408D01*
X122366500Y3688010D01*
X122368471Y3697534D01*
X122370460Y3705684D01*
X122391836Y3767330D01*
X122422883Y3824923D01*
X122462469Y3877022D01*
X122509459Y3922183D01*
X122562722Y3958965D01*
X122574716Y3965552D01*
X122614260Y3984470D01*
X122651103Y3997519D01*
X122689423Y4005802D01*
X122733394Y4010421D01*
X122747617Y4011225D01*
X122802774Y4011033D01*
G37*
G36*
X122703721Y7963702D02*
G01*
X122739833Y7951659D01*
X122772255Y7930499D01*
X122780894Y7922431D01*
X122784256Y7918885D01*
X122787644Y7914853D01*
X122791258Y7909856D01*
X122795298Y7903420D01*
X122799965Y7895066D01*
X122805460Y7884320D01*
X122811983Y7870703D01*
X122819734Y7853740D01*
X122828913Y7832954D01*
X122839722Y7807869D01*
X122852360Y7778008D01*
X122867029Y7742894D01*
X122883927Y7702052D01*
X122903257Y7655004D01*
X122925218Y7601274D01*
X122950011Y7540386D01*
X122977836Y7471862D01*
X123008893Y7395228D01*
X123043384Y7310005D01*
X123081508Y7215717D01*
X123123466Y7111888D01*
X123163220Y7013486D01*
X123204183Y6912091D01*
X123245516Y6809789D01*
X123286881Y6707423D01*
X123327937Y6605832D01*
X123368344Y6505860D01*
X123407761Y6408346D01*
X123445848Y6314134D01*
X123482265Y6224063D01*
X123516673Y6138976D01*
X123548730Y6059714D01*
X123578096Y5987119D01*
X123604432Y5922031D01*
X123627397Y5865293D01*
X123646650Y5817745D01*
X123654371Y5798687D01*
X123681528Y5731642D01*
X123704752Y5674186D01*
X123724345Y5625486D01*
X123740608Y5584709D01*
X123753843Y5551022D01*
X123764349Y5523592D01*
X123772430Y5501587D01*
X123778386Y5484173D01*
X123782519Y5470519D01*
X123785129Y5459789D01*
X123786518Y5451153D01*
X123786987Y5443777D01*
X123786838Y5436828D01*
X123786616Y5433098D01*
X123784709Y5422755D01*
X123779840Y5402557D01*
X123772275Y5373424D01*
X123762282Y5336275D01*
X123750129Y5292030D01*
X123736082Y5241611D01*
X123720410Y5185935D01*
X123703379Y5125924D01*
X123685257Y5062497D01*
X123666311Y4996575D01*
X123646809Y4929076D01*
X123627019Y4860921D01*
X123607207Y4793031D01*
X123587640Y4726324D01*
X123568588Y4661721D01*
X123550316Y4600141D01*
X123533092Y4542505D01*
X123517184Y4489733D01*
X123502859Y4442744D01*
X123490385Y4402458D01*
X123480028Y4369795D01*
X123472057Y4345676D01*
X123466738Y4331020D01*
X123465345Y4327879D01*
X123443882Y4297889D01*
X123414996Y4274463D01*
X123380929Y4258404D01*
X123343923Y4250521D01*
X123306219Y4251619D01*
X123276173Y4259858D01*
X123269013Y4262803D01*
X123251862Y4269892D01*
X123225122Y4280958D01*
X123189194Y4295834D01*
X123144477Y4314356D01*
X123091374Y4336357D01*
X123030284Y4361670D01*
X122961608Y4390130D01*
X122885748Y4421570D01*
X122803103Y4455825D01*
X122714075Y4492728D01*
X122619063Y4532113D01*
X122518470Y4573814D01*
X122412696Y4617666D01*
X122302140Y4663501D01*
X122187205Y4711154D01*
X122068291Y4760459D01*
X121945798Y4811249D01*
X121820127Y4863359D01*
X121691679Y4916622D01*
X121619774Y4946440D01*
X121489901Y5000293D01*
X121362551Y5053094D01*
X121238127Y5104676D01*
X121117031Y5154872D01*
X120999666Y5203515D01*
X120886435Y5250439D01*
X120777740Y5295477D01*
X120673983Y5338463D01*
X120575568Y5379229D01*
X120482896Y5417609D01*
X120396370Y5453437D01*
X120316393Y5486545D01*
X120243367Y5516768D01*
X120213261Y5529223D01*
X121022232Y5529223D01*
X121027164Y5526956D01*
X121041857Y5520650D01*
X121065677Y5510566D01*
X121097991Y5496969D01*
X121138166Y5480121D01*
X121185569Y5460284D01*
X121239568Y5437722D01*
X121299528Y5412698D01*
X121364817Y5385474D01*
X121434802Y5356314D01*
X121508849Y5325481D01*
X121586326Y5293237D01*
X121666600Y5259845D01*
X121749037Y5225568D01*
X121833005Y5190670D01*
X121917869Y5155412D01*
X122002999Y5120059D01*
X122087759Y5084872D01*
X122171517Y5050116D01*
X122253640Y5016052D01*
X122333496Y4982944D01*
X122410450Y4951054D01*
X122483870Y4920646D01*
X122553122Y4891983D01*
X122617574Y4865327D01*
X122676593Y4840941D01*
X122729546Y4819088D01*
X122775798Y4800032D01*
X122814718Y4784034D01*
X122845673Y4771359D01*
X122868028Y4762269D01*
X122881152Y4757026D01*
X122884557Y4755777D01*
X122886082Y4758773D01*
X122883916Y4762367D01*
X122879761Y4768036D01*
X122869605Y4782071D01*
X122854005Y4803697D01*
X122833518Y4832142D01*
X122808699Y4866632D01*
X122780107Y4906392D01*
X122748297Y4950649D01*
X122713827Y4998629D01*
X122677253Y5049558D01*
X122660338Y5073118D01*
X122622863Y5125270D01*
X122587112Y5174920D01*
X122553659Y5221279D01*
X122523075Y5263561D01*
X122495933Y5300976D01*
X122472804Y5332737D01*
X122455820Y5355926D01*
X122839990Y5355926D01*
X122842460Y5350942D01*
X122850590Y5338230D01*
X122863433Y5319123D01*
X122880040Y5294956D01*
X122899464Y5267063D01*
X122920757Y5236776D01*
X122942971Y5205430D01*
X122965159Y5174359D01*
X122986372Y5144896D01*
X123005663Y5118375D01*
X123022084Y5096129D01*
X123034687Y5079493D01*
X123042525Y5069800D01*
X123044692Y5067873D01*
X123044203Y5073601D01*
X123041811Y5088859D01*
X123037782Y5112140D01*
X123032382Y5141936D01*
X123025878Y5176740D01*
X123020230Y5206288D01*
X123012939Y5243924D01*
X123006340Y5277687D01*
X123000997Y5304731D01*
X123315545Y5304731D01*
X123316573Y5296816D01*
X123319445Y5279632D01*
X123323845Y5254945D01*
X123329456Y5224525D01*
X123335959Y5190140D01*
X123338042Y5179286D01*
X123344740Y5144475D01*
X123350686Y5113501D01*
X123355562Y5088031D01*
X123359048Y5069730D01*
X123360827Y5060262D01*
X123360984Y5059363D01*
X123361408Y5058266D01*
X123362379Y5059633D01*
X123364269Y5064662D01*
X123367452Y5074551D01*
X123372300Y5090498D01*
X123379185Y5113701D01*
X123388481Y5145357D01*
X123400021Y5184818D01*
X123409970Y5219199D01*
X123418626Y5249745D01*
X123425558Y5274880D01*
X123430334Y5293030D01*
X123432524Y5302618D01*
X123432572Y5303710D01*
X123426599Y5304731D01*
X123411838Y5306246D01*
X123390731Y5308025D01*
X123373195Y5309324D01*
X123346970Y5310961D01*
X123330020Y5311349D01*
X123320423Y5310333D01*
X123316258Y5307761D01*
X123315545Y5304731D01*
X123000997Y5304731D01*
X123000732Y5306074D01*
X122996412Y5327583D01*
X122993681Y5340714D01*
X122992844Y5344172D01*
X122986759Y5345463D01*
X122972026Y5347207D01*
X122951186Y5349211D01*
X122926775Y5351279D01*
X122901333Y5353217D01*
X122877398Y5354828D01*
X122857509Y5355917D01*
X122844204Y5356290D01*
X122839990Y5355926D01*
X122455820Y5355926D01*
X122454261Y5358055D01*
X122440877Y5376143D01*
X122433222Y5386211D01*
X122431834Y5387880D01*
X122429603Y5389578D01*
X122425792Y5391273D01*
X122419818Y5393026D01*
X122411103Y5394901D01*
X122399067Y5396960D01*
X122383129Y5399268D01*
X122362710Y5401886D01*
X122337230Y5404878D01*
X122306108Y5408306D01*
X122268765Y5412233D01*
X122224620Y5416723D01*
X122173094Y5421838D01*
X122113607Y5427641D01*
X122045579Y5434196D01*
X121968430Y5441564D01*
X121881579Y5449810D01*
X121784447Y5458995D01*
X121722559Y5464836D01*
X121635052Y5473076D01*
X121550683Y5480996D01*
X121470126Y5488533D01*
X121394053Y5495624D01*
X121323137Y5502209D01*
X121258051Y5508225D01*
X121199469Y5513611D01*
X121148063Y5518304D01*
X121104506Y5522243D01*
X121069471Y5525366D01*
X121043632Y5527610D01*
X121027661Y5528915D01*
X121022232Y5529223D01*
X120213261Y5529223D01*
X120177694Y5543937D01*
X120119778Y5567888D01*
X120070021Y5588452D01*
X120028825Y5605464D01*
X119996592Y5618756D01*
X119973726Y5628162D01*
X119960629Y5633515D01*
X119957750Y5634666D01*
X119922260Y5653758D01*
X119893621Y5680250D01*
X119872577Y5712358D01*
X119859875Y5748299D01*
X119856260Y5786289D01*
X119862480Y5824546D01*
X119870033Y5844352D01*
X119872464Y5848691D01*
X119876423Y5854264D01*
X119882269Y5861412D01*
X119890361Y5870474D01*
X119901056Y5881791D01*
X119914713Y5895703D01*
X119921191Y5902131D01*
X120369649Y5902131D01*
X120375246Y5901561D01*
X120391322Y5899989D01*
X120417156Y5897486D01*
X120452027Y5894121D01*
X120495216Y5889961D01*
X120546002Y5885076D01*
X120603666Y5879535D01*
X120667487Y5873407D01*
X120736746Y5866761D01*
X120810721Y5859666D01*
X120888694Y5852190D01*
X120969945Y5844403D01*
X121053752Y5836373D01*
X121139396Y5828170D01*
X121226157Y5819862D01*
X121313315Y5811518D01*
X121400150Y5803208D01*
X121485941Y5795000D01*
X121569969Y5786963D01*
X121651514Y5779166D01*
X121729855Y5771678D01*
X121804272Y5764568D01*
X121874046Y5757905D01*
X121938456Y5751758D01*
X121996783Y5746195D01*
X122048305Y5741286D01*
X122092303Y5737099D01*
X122128058Y5733704D01*
X122154848Y5731170D01*
X122171954Y5729565D01*
X122178469Y5728972D01*
X122184160Y5731026D01*
X122184093Y5732955D01*
X122180530Y5738259D01*
X122170874Y5751997D01*
X122155616Y5773483D01*
X122135251Y5802032D01*
X122110273Y5836958D01*
X122081174Y5877576D01*
X122048449Y5923202D01*
X122012591Y5973150D01*
X121974093Y6026735D01*
X121933449Y6083271D01*
X121891152Y6142075D01*
X121847695Y6202460D01*
X121803573Y6263741D01*
X121759279Y6325233D01*
X121730183Y6365608D01*
X122108731Y6365608D01*
X122109675Y6363709D01*
X122113906Y6357891D01*
X122124169Y6343683D01*
X122139930Y6321825D01*
X122160654Y6293059D01*
X122185807Y6258129D01*
X122214855Y6217777D01*
X122247264Y6172743D01*
X122282499Y6123771D01*
X122320025Y6071602D01*
X122353894Y6024510D01*
X122392916Y5970333D01*
X122430111Y5918858D01*
X122464946Y5870812D01*
X122496891Y5826920D01*
X122525412Y5787908D01*
X122549978Y5754502D01*
X122570058Y5727428D01*
X122585119Y5707411D01*
X122594629Y5695177D01*
X122597983Y5691426D01*
X122605361Y5690242D01*
X122622140Y5688245D01*
X122646517Y5685606D01*
X122676689Y5682499D01*
X122710853Y5679097D01*
X122747203Y5675572D01*
X122783938Y5672098D01*
X122819253Y5668848D01*
X122851344Y5665994D01*
X122878409Y5663709D01*
X122898643Y5662166D01*
X122909557Y5661554D01*
X122924620Y5661787D01*
X122930969Y5664327D01*
X122931070Y5670230D01*
X122930931Y5670716D01*
X122928605Y5680576D01*
X122924951Y5698245D01*
X122920635Y5720460D01*
X122919156Y5728357D01*
X122913536Y5753527D01*
X122907274Y5773251D01*
X122901249Y5784822D01*
X122900594Y5785523D01*
X122895025Y5789882D01*
X122881199Y5800297D01*
X122859928Y5816171D01*
X122832023Y5836906D01*
X122798298Y5861904D01*
X122759563Y5890567D01*
X122716631Y5922297D01*
X122670314Y5956495D01*
X122621423Y5992564D01*
X122570771Y6029905D01*
X122519170Y6067920D01*
X122467431Y6106013D01*
X122416367Y6143583D01*
X122366790Y6180034D01*
X122319511Y6214767D01*
X122275342Y6247184D01*
X122235096Y6276687D01*
X122199584Y6302678D01*
X122169618Y6324559D01*
X122146011Y6341732D01*
X122129574Y6353598D01*
X122123162Y6358153D01*
X122112780Y6364670D01*
X122108731Y6365608D01*
X121730183Y6365608D01*
X121715306Y6386252D01*
X121672148Y6446111D01*
X121630297Y6504126D01*
X121590249Y6559612D01*
X121552495Y6611883D01*
X121517531Y6660254D01*
X121485848Y6704041D01*
X121457941Y6742557D01*
X121434303Y6775118D01*
X121415427Y6801039D01*
X121401808Y6819635D01*
X121393938Y6830220D01*
X121392206Y6832413D01*
X121390504Y6833636D01*
X121388068Y6833889D01*
X121384463Y6832785D01*
X121379254Y6829934D01*
X121372004Y6824951D01*
X121362278Y6817446D01*
X121349640Y6807032D01*
X121333653Y6793322D01*
X121313883Y6775927D01*
X121289893Y6754459D01*
X121261247Y6728532D01*
X121227510Y6697756D01*
X121188245Y6661745D01*
X121143017Y6620110D01*
X121091391Y6572464D01*
X121032929Y6518419D01*
X120967197Y6457586D01*
X120893758Y6389579D01*
X120875443Y6372615D01*
X120811490Y6313361D01*
X120749891Y6256258D01*
X120691144Y6201768D01*
X120635744Y6150352D01*
X120584188Y6102472D01*
X120536974Y6058590D01*
X120494596Y6019169D01*
X120457553Y5984670D01*
X120426340Y5955555D01*
X120401454Y5932286D01*
X120383392Y5915324D01*
X120372651Y5905133D01*
X120369649Y5902131D01*
X119921191Y5902131D01*
X119931691Y5912549D01*
X119952346Y5932669D01*
X119977039Y5956404D01*
X120006126Y5984094D01*
X120039967Y6016077D01*
X120078918Y6052696D01*
X120123340Y6094288D01*
X120173590Y6141195D01*
X120230025Y6193756D01*
X120293005Y6252311D01*
X120362888Y6317201D01*
X120440032Y6388764D01*
X120524795Y6467342D01*
X120599063Y6536159D01*
X120690602Y6620908D01*
X120777205Y6700965D01*
X120858618Y6776102D01*
X120934593Y6846087D01*
X121004876Y6910693D01*
X121069216Y6969690D01*
X121127363Y7022848D01*
X121179064Y7069938D01*
X121224069Y7110732D01*
X121262127Y7144998D01*
X121292985Y7172509D01*
X121316392Y7193034D01*
X121332098Y7206345D01*
X121339850Y7212211D01*
X121340007Y7212296D01*
X121378118Y7226081D01*
X121417282Y7228941D01*
X121456231Y7220957D01*
X121493310Y7202467D01*
X121500753Y7197212D01*
X121516719Y7185675D01*
X121540675Y7168246D01*
X121572089Y7145316D01*
X121610429Y7117276D01*
X121655161Y7084515D01*
X121705754Y7047425D01*
X121761674Y7006397D01*
X121822388Y6961820D01*
X121887365Y6914086D01*
X121956071Y6863585D01*
X122027975Y6810707D01*
X122102542Y6755844D01*
X122168157Y6707547D01*
X122244093Y6651682D01*
X122317532Y6597732D01*
X122387967Y6546067D01*
X122454891Y6497056D01*
X122517795Y6451068D01*
X122576174Y6408470D01*
X122629519Y6369633D01*
X122677323Y6334926D01*
X122719080Y6304716D01*
X122754281Y6279373D01*
X122782420Y6259265D01*
X122802989Y6244763D01*
X122815481Y6236234D01*
X122819403Y6233979D01*
X122818546Y6239955D01*
X122815666Y6256352D01*
X122812967Y6271125D01*
X123129440Y6271125D01*
X123132832Y6248627D01*
X123134841Y6236811D01*
X123138646Y6215805D01*
X123143901Y6187461D01*
X123150263Y6153633D01*
X123157384Y6116174D01*
X123162042Y6091877D01*
X123187859Y5957625D01*
X123236235Y5921784D01*
X123256065Y5907169D01*
X123272208Y5895420D01*
X123282755Y5887916D01*
X123285877Y5885896D01*
X123285113Y5890319D01*
X123282240Y5898506D01*
X123276473Y5913122D01*
X123267472Y5935596D01*
X123255879Y5964359D01*
X123242332Y5997838D01*
X123227473Y6034462D01*
X123211941Y6072661D01*
X123196375Y6110862D01*
X123181417Y6147494D01*
X123167706Y6180987D01*
X123155881Y6209770D01*
X123146583Y6232269D01*
X123140453Y6246916D01*
X123138488Y6251440D01*
X123129440Y6271125D01*
X122812967Y6271125D01*
X122811940Y6276750D01*
X123124313Y6276750D01*
X123127126Y6273937D01*
X123129938Y6276750D01*
X123127126Y6279562D01*
X123124313Y6276750D01*
X122811940Y6276750D01*
X122810882Y6282544D01*
X122804313Y6317909D01*
X122796076Y6361823D01*
X122786291Y6413662D01*
X122775077Y6472804D01*
X122762550Y6538624D01*
X122748830Y6610499D01*
X122734036Y6687805D01*
X122718285Y6769918D01*
X122701696Y6856216D01*
X122684388Y6946075D01*
X122668746Y7027131D01*
X122646255Y7143731D01*
X122625878Y7249690D01*
X122607544Y7345399D01*
X122591181Y7431252D01*
X122576717Y7507640D01*
X122564079Y7574957D01*
X122553196Y7633594D01*
X122543996Y7683945D01*
X122536406Y7726402D01*
X122530354Y7761356D01*
X122525770Y7789202D01*
X122522579Y7810331D01*
X122520712Y7825136D01*
X122520094Y7834009D01*
X122520242Y7836402D01*
X122530851Y7870013D01*
X122549152Y7902712D01*
X122563881Y7920987D01*
X122594001Y7945271D01*
X122628731Y7960495D01*
X122665996Y7966643D01*
X122703721Y7963702D01*
G37*
G36*
X18053056Y24497895D02*
G01*
X18132556Y24480565D01*
X18194344Y24449162D01*
X18243848Y24401608D01*
X18255304Y24386444D01*
X18290595Y24336965D01*
X18294873Y23331548D01*
X18295486Y23159143D01*
X18295836Y22995102D01*
X18295932Y22842018D01*
X18295783Y22702481D01*
X18295399Y22579083D01*
X18294789Y22474415D01*
X18293963Y22391069D01*
X18292930Y22331635D01*
X18291700Y22298707D01*
X18291098Y22293279D01*
X18265964Y22242257D01*
X18219095Y22190421D01*
X18157868Y22145128D01*
X18124903Y22127571D01*
X18041081Y22100872D01*
X17946422Y22090343D01*
X17852235Y22096076D01*
X17769830Y22118164D01*
X17755703Y22124579D01*
X17686160Y22175382D01*
X17645527Y22226620D01*
X17601552Y22295893D01*
X17605895Y23308870D01*
X17606773Y23508664D01*
X17607618Y23680467D01*
X17608504Y23826526D01*
X17609506Y23949086D01*
X17610698Y24050394D01*
X17612155Y24132697D01*
X17613951Y24198241D01*
X17616161Y24249273D01*
X17618859Y24288040D01*
X17622120Y24316787D01*
X17626018Y24337762D01*
X17630628Y24353211D01*
X17636024Y24365380D01*
X17641249Y24374762D01*
X17673832Y24414554D01*
X17719672Y24452928D01*
X17739523Y24465477D01*
X17775994Y24483805D01*
X17811777Y24495105D01*
X17855909Y24500995D01*
X17917430Y24503093D01*
X17950416Y24503233D01*
X18053056Y24497895D01*
G37*
G36*
X18034633Y21978473D02*
G01*
X18103882Y21960107D01*
X18109296Y21957756D01*
X18164798Y21922813D01*
X18219740Y21872435D01*
X18264163Y21816796D01*
X18284048Y21779182D01*
X18286702Y21757204D01*
X18289155Y21707156D01*
X18291376Y21631206D01*
X18293335Y21531521D01*
X18295002Y21410268D01*
X18296348Y21269616D01*
X18297342Y21111731D01*
X18297954Y20938782D01*
X18298155Y20759575D01*
X18298062Y20557576D01*
X18297757Y20383718D01*
X18297195Y20235902D01*
X18296332Y20112032D01*
X18295124Y20010009D01*
X18293528Y19927737D01*
X18291501Y19863118D01*
X18288998Y19814055D01*
X18285975Y19778450D01*
X18282390Y19754206D01*
X18278198Y19739225D01*
X18276826Y19736244D01*
X18223583Y19664995D01*
X18149407Y19607795D01*
X18061498Y19567610D01*
X17967055Y19547405D01*
X17873278Y19550145D01*
X17841870Y19557095D01*
X17754083Y19594538D01*
X17681374Y19651406D01*
X17632777Y19718369D01*
X17626757Y19731046D01*
X17621597Y19745235D01*
X17617232Y19763232D01*
X17613595Y19787334D01*
X17610620Y19819839D01*
X17608240Y19863043D01*
X17606389Y19919243D01*
X17605001Y19990737D01*
X17604010Y20079821D01*
X17603349Y20188792D01*
X17602951Y20319947D01*
X17602752Y20475583D01*
X17602684Y20657997D01*
X17602678Y20761310D01*
X17602712Y20958383D01*
X17602853Y21127506D01*
X17603168Y21270969D01*
X17603717Y21391060D01*
X17604566Y21490069D01*
X17605778Y21570283D01*
X17607416Y21633992D01*
X17609544Y21683485D01*
X17612225Y21721049D01*
X17615522Y21748975D01*
X17619500Y21769551D01*
X17624221Y21785066D01*
X17629750Y21797808D01*
X17631532Y21801347D01*
X17688110Y21881536D01*
X17762959Y21942408D01*
X17802520Y21962472D01*
X17870380Y21979864D01*
X17952274Y21985128D01*
X18034633Y21978473D01*
G37*
G36*
X17002994Y21968139D02*
G01*
X17083066Y21923690D01*
X17146869Y21857333D01*
X17156531Y21842675D01*
X17202024Y21769089D01*
X17202024Y20444667D01*
X17202024Y19120246D01*
X17150556Y19014736D01*
X17077007Y18896227D01*
X16978121Y18786612D01*
X16858315Y18689400D01*
X16722006Y18608099D01*
X16573612Y18546217D01*
X16551905Y18539235D01*
X16479498Y18522754D01*
X16385972Y18510101D01*
X16280255Y18501730D01*
X16171276Y18498097D01*
X16067966Y18499657D01*
X15979252Y18506865D01*
X15962850Y18509212D01*
X15780085Y18551933D01*
X15613880Y18619919D01*
X15464327Y18713120D01*
X15331515Y18831487D01*
X15292611Y18874618D01*
X15235710Y18957376D01*
X15190982Y19055076D01*
X15159409Y19161321D01*
X15141973Y19269711D01*
X15139654Y19373847D01*
X15153435Y19467329D01*
X15184297Y19543760D01*
X15188863Y19550981D01*
X15229139Y19603154D01*
X15272684Y19637143D01*
X15328580Y19658051D01*
X15401527Y19670461D01*
X15510564Y19672485D01*
X15602736Y19649724D01*
X15679135Y19601489D01*
X15740858Y19527093D01*
X15788660Y19426773D01*
X15829335Y19330193D01*
X15875239Y19254072D01*
X15932580Y19188646D01*
X15951212Y19171202D01*
X15999711Y19133854D01*
X16049021Y19113728D01*
X16095580Y19105464D01*
X16205945Y19102846D01*
X16305470Y19122511D01*
X16389895Y19162870D01*
X16454959Y19222336D01*
X16471214Y19245492D01*
X16506547Y19302322D01*
X16514107Y20526965D01*
X16515482Y20747914D01*
X16516740Y20940662D01*
X16517943Y21107245D01*
X16519155Y21249700D01*
X16520440Y21370064D01*
X16521861Y21470372D01*
X16523480Y21552661D01*
X16525362Y21618967D01*
X16527570Y21671328D01*
X16530166Y21711779D01*
X16533215Y21742356D01*
X16536780Y21765098D01*
X16540924Y21782038D01*
X16545711Y21795215D01*
X16551203Y21806665D01*
X16554075Y21812084D01*
X16588790Y21867741D01*
X16628335Y21907655D01*
X16682701Y21940703D01*
X16716805Y21956649D01*
X16814701Y21985957D01*
X16911819Y21989340D01*
X17002994Y21968139D01*
G37*
G36*
X16991743Y25678771D02*
G01*
X17079653Y25647120D01*
X17146617Y25595655D01*
X17191001Y25525279D01*
X17193457Y25519046D01*
X17199609Y25487934D01*
X17204680Y25433970D01*
X17208168Y25364532D01*
X17209575Y25287002D01*
X17209583Y25280921D01*
X17209583Y25085358D01*
X17326756Y25085301D01*
X17412107Y25080386D01*
X17476487Y25063411D01*
X17527919Y25030894D01*
X17574428Y24979351D01*
X17576161Y24977032D01*
X17612129Y24918882D01*
X17634531Y24855741D01*
X17645675Y24778838D01*
X17648035Y24703631D01*
X17643227Y24612085D01*
X17626887Y24542989D01*
X17596146Y24489823D01*
X17548132Y24446064D01*
X17528992Y24433200D01*
X17491032Y24411218D01*
X17456204Y24398202D01*
X17414304Y24391870D01*
X17355127Y24389943D01*
X17335135Y24389882D01*
X17209583Y24389882D01*
X17209334Y23342887D01*
X17209086Y22295893D01*
X17175316Y22235417D01*
X17122670Y22171479D01*
X17047433Y22125512D01*
X16952156Y22098684D01*
X16861845Y22091786D01*
X16793249Y22093928D01*
X16741487Y22102209D01*
X16693338Y22119409D01*
X16664229Y22133364D01*
X16600138Y22173542D01*
X16557398Y22220549D01*
X16548373Y22235417D01*
X16514604Y22295893D01*
X16514356Y23333710D01*
X16514254Y23537427D01*
X16514023Y23712987D01*
X16513614Y23862472D01*
X16512979Y23987962D01*
X16512070Y24091539D01*
X16510840Y24175284D01*
X16509239Y24241278D01*
X16507220Y24291602D01*
X16504735Y24328338D01*
X16501736Y24353567D01*
X16498175Y24369369D01*
X16494003Y24377827D01*
X16490192Y24380704D01*
X16462661Y24385686D01*
X16416378Y24389019D01*
X16376048Y24389882D01*
X16291512Y24397604D01*
X16226314Y24422895D01*
X16173194Y24468940D01*
X16160728Y24484360D01*
X16121226Y24558132D01*
X16098049Y24648656D01*
X16091530Y24747023D01*
X16102002Y24844320D01*
X16129799Y24931636D01*
X16143042Y24957103D01*
X16190403Y25017927D01*
X16251274Y25058033D01*
X16330262Y25079614D01*
X16412053Y25085026D01*
X16514107Y25085358D01*
X16514107Y25274831D01*
X16515589Y25372528D01*
X16521169Y25446050D01*
X16532550Y25501365D01*
X16551432Y25544442D01*
X16579517Y25581249D01*
X16609715Y25610156D01*
X16666324Y25650092D01*
X16731565Y25675148D01*
X16812904Y25687483D01*
X16884524Y25689703D01*
X16991743Y25678771D01*
G37*
G36*
X15549666Y24551092D02*
G01*
X15720157Y24521327D01*
X15868768Y24471245D01*
X15995291Y24400943D01*
X16099522Y24310518D01*
X16181254Y24200068D01*
X16202528Y24160702D01*
X16229644Y24085013D01*
X16241932Y24002794D01*
X16238776Y23924667D01*
X16219828Y23861765D01*
X16167736Y23792623D01*
X16094054Y23739681D01*
X16004402Y23705943D01*
X15906748Y23694405D01*
X15852448Y23696924D01*
X15805578Y23706592D01*
X15759655Y23726582D01*
X15708194Y23760065D01*
X15644710Y23810213D01*
X15609859Y23839601D01*
X15526455Y23904270D01*
X15452473Y23945237D01*
X15381100Y23964305D01*
X15305518Y23963280D01*
X15218915Y23943966D01*
X15217444Y23943531D01*
X15158318Y23918055D01*
X15111215Y23882927D01*
X15082922Y23844084D01*
X15077797Y23821404D01*
X15087155Y23798728D01*
X15110821Y23764585D01*
X15124711Y23747859D01*
X15155279Y23718325D01*
X15192577Y23695091D01*
X15244833Y23673887D01*
X15302360Y23655688D01*
X15445331Y23612896D01*
X15562894Y23576660D01*
X15658841Y23545680D01*
X15736962Y23518654D01*
X15801049Y23494279D01*
X15854892Y23471254D01*
X15893690Y23452655D01*
X16024056Y23374376D01*
X16127230Y23284139D01*
X16204290Y23180716D01*
X16256316Y23062879D01*
X16266151Y23028664D01*
X16278657Y22972927D01*
X16283806Y22924019D01*
X16282039Y22869603D01*
X16274303Y22801158D01*
X16247765Y22655447D01*
X16208214Y22532189D01*
X16152942Y22425412D01*
X16079240Y22329140D01*
X16043198Y22291448D01*
X15933306Y22203947D01*
X15804176Y22139663D01*
X15667440Y22100929D01*
X15596879Y22089570D01*
X15512725Y22079938D01*
X15423851Y22072642D01*
X15339128Y22068290D01*
X15267429Y22067493D01*
X15221428Y22070309D01*
X15057848Y22096402D01*
X14915653Y22129368D01*
X14786306Y22171708D01*
X14661273Y22225925D01*
X14619893Y22246648D01*
X14500135Y22324060D01*
X14403280Y22421093D01*
X14328683Y22538393D01*
X14326914Y22541965D01*
X14306069Y22588710D01*
X14295248Y22629301D01*
X14292380Y22676178D01*
X14294904Y22734295D01*
X14312595Y22838680D01*
X14350848Y22920895D01*
X14409664Y22980940D01*
X14489045Y23018816D01*
X14588992Y23034526D01*
X14610151Y23035005D01*
X14713617Y23024789D01*
X14802282Y22991596D01*
X14880862Y22932927D01*
X14946582Y22856651D01*
X15003892Y22783181D01*
X15053595Y22731715D01*
X15101980Y22697402D01*
X15155338Y22675391D01*
X15194211Y22665683D01*
X15281220Y22655435D01*
X15366060Y22659360D01*
X15442383Y22675918D01*
X15503843Y22703565D01*
X15544095Y22740761D01*
X15550512Y22752259D01*
X15556345Y22798930D01*
X15536529Y22849150D01*
X15494767Y22899214D01*
X15434766Y22945416D01*
X15360229Y22984049D01*
X15297024Y23005827D01*
X15247953Y23019320D01*
X15181161Y23037673D01*
X15108089Y23057745D01*
X15077797Y23066063D01*
X14917032Y23118494D01*
X14775091Y23181723D01*
X14654500Y23254129D01*
X14557791Y23334090D01*
X14487490Y23419985D01*
X14466090Y23458177D01*
X14426284Y23571559D01*
X14407123Y23699488D01*
X14408159Y23834847D01*
X14428948Y23970514D01*
X14469041Y24099369D01*
X14511827Y24187804D01*
X14576349Y24272977D01*
X14666682Y24352518D01*
X14778535Y24423674D01*
X14907618Y24483695D01*
X15041842Y24527771D01*
X15110764Y24543455D01*
X15182766Y24553484D01*
X15267286Y24558835D01*
X15357500Y24560443D01*
X15549666Y24551092D01*
G37*
G36*
X20921977Y22010686D02*
G01*
X21042262Y21994264D01*
X21139542Y21973332D01*
X21215381Y21949591D01*
X21278550Y21918999D01*
X21337821Y21877513D01*
X21386081Y21835823D01*
X21472800Y21736214D01*
X21541607Y21612850D01*
X21592005Y21466698D01*
X21604975Y21411429D01*
X21611142Y21379221D01*
X21616304Y21344600D01*
X21620549Y21304685D01*
X21623964Y21256593D01*
X21626634Y21197439D01*
X21628647Y21124341D01*
X21630090Y21034416D01*
X21631050Y20924781D01*
X21631612Y20792552D01*
X21631865Y20634847D01*
X21631905Y20517048D01*
X21631905Y19751178D01*
X21585891Y19693060D01*
X21520983Y19631931D01*
X21437569Y19583495D01*
X21346425Y19552901D01*
X21275445Y19544731D01*
X21176346Y19558771D01*
X21083292Y19598210D01*
X21003948Y19659023D01*
X20962887Y19708805D01*
X20913750Y19781989D01*
X20913750Y20498967D01*
X20913771Y20669940D01*
X20913626Y20813314D01*
X20912999Y20931727D01*
X20911578Y21027816D01*
X20909047Y21104221D01*
X20905092Y21163580D01*
X20899399Y21208531D01*
X20891655Y21241712D01*
X20881543Y21265762D01*
X20868751Y21283319D01*
X20852965Y21297021D01*
X20833869Y21309506D01*
X20815907Y21320449D01*
X20753549Y21344405D01*
X20682822Y21349182D01*
X20612916Y21336317D01*
X20553021Y21307350D01*
X20516228Y21270275D01*
X20511101Y21257463D01*
X20506675Y21234351D01*
X20502859Y21198571D01*
X20499559Y21147755D01*
X20496685Y21079534D01*
X20494145Y20991538D01*
X20491847Y20881400D01*
X20489698Y20746751D01*
X20487608Y20585222D01*
X20486730Y20509238D01*
X20484831Y20342129D01*
X20483119Y20202525D01*
X20481443Y20087694D01*
X20479655Y19994906D01*
X20477606Y19921430D01*
X20475146Y19864533D01*
X20472126Y19821485D01*
X20468396Y19789554D01*
X20463809Y19766009D01*
X20458213Y19748120D01*
X20451461Y19733153D01*
X20443526Y19718599D01*
X20392108Y19654063D01*
X20319458Y19599318D01*
X20234360Y19560506D01*
X20205772Y19552414D01*
X20115474Y19544529D01*
X20023200Y19560408D01*
X19936697Y19596931D01*
X19863711Y19650980D01*
X19818021Y19708487D01*
X19779821Y19773669D01*
X19779821Y20499006D01*
X19779821Y21224343D01*
X19738244Y21264168D01*
X19679774Y21306975D01*
X19611087Y21337850D01*
X19545689Y21350861D01*
X19540576Y21350953D01*
X19497965Y21340190D01*
X19445365Y21310891D01*
X19428336Y21298594D01*
X19359764Y21246236D01*
X19353468Y20516184D01*
X19351869Y20344491D01*
X19350222Y20200442D01*
X19348426Y20081442D01*
X19346383Y19984896D01*
X19343994Y19908209D01*
X19341158Y19848788D01*
X19337778Y19804037D01*
X19333753Y19771363D01*
X19328984Y19748169D01*
X19323470Y19732084D01*
X19277823Y19663474D01*
X19210615Y19608174D01*
X19128543Y19568735D01*
X19038306Y19547707D01*
X18946601Y19547639D01*
X18879922Y19563218D01*
X18788614Y19604401D01*
X18723185Y19654956D01*
X18681774Y19714018D01*
X18675446Y19728207D01*
X18670139Y19744878D01*
X18665767Y19766642D01*
X18662242Y19796113D01*
X18659479Y19835903D01*
X18657391Y19888625D01*
X18655892Y19956893D01*
X18654895Y20043317D01*
X18654315Y20150512D01*
X18654064Y20281090D01*
X18654056Y20437663D01*
X18654135Y20549643D01*
X18654451Y20739765D01*
X18655187Y20902427D01*
X18656569Y21040409D01*
X18658821Y21156488D01*
X18662168Y21253445D01*
X18666835Y21334056D01*
X18673046Y21401101D01*
X18681027Y21457358D01*
X18691001Y21505606D01*
X18703193Y21548623D01*
X18717828Y21589187D01*
X18735132Y21630078D01*
X18742893Y21647240D01*
X18789170Y21725808D01*
X18853016Y21804108D01*
X18925996Y21873293D01*
X18999673Y21924515D01*
X19014654Y21932263D01*
X19139606Y21977607D01*
X19288051Y22004886D01*
X19459138Y22013970D01*
X19536807Y22012357D01*
X19698388Y21998215D01*
X19837246Y21969045D01*
X19957534Y21923676D01*
X20056669Y21865715D01*
X20142678Y21805465D01*
X20228688Y21865715D01*
X20337683Y21926262D01*
X20467527Y21971984D01*
X20612202Y22001929D01*
X20765691Y22015147D01*
X20921977Y22010686D01*
G37*
G36*
X20930024Y24550042D02*
G01*
X21059449Y24532474D01*
X21173404Y24504802D01*
X21255314Y24473021D01*
X21332617Y24423088D01*
X21409524Y24352137D01*
X21478279Y24268476D01*
X21531124Y24180415D01*
X21533905Y24174564D01*
X21553634Y24131338D01*
X21570413Y24091017D01*
X21584504Y24050774D01*
X21596172Y24007779D01*
X21605679Y23959204D01*
X21613290Y23902219D01*
X21619268Y23833996D01*
X21623877Y23751706D01*
X21627380Y23652520D01*
X21630041Y23533610D01*
X21632124Y23392146D01*
X21633892Y23225300D01*
X21635112Y23088576D01*
X21641808Y22308877D01*
X21591223Y22242555D01*
X21516249Y22167415D01*
X21427517Y22117517D01*
X21329157Y22093724D01*
X21225301Y22096898D01*
X21120078Y22127902D01*
X21096010Y22139115D01*
X21031719Y22176251D01*
X20986509Y22216269D01*
X20957524Y22255467D01*
X20913750Y22324492D01*
X20913750Y23045207D01*
X20913719Y23211458D01*
X20913553Y23350142D01*
X20913141Y23463933D01*
X20912373Y23555502D01*
X20911136Y23627522D01*
X20909321Y23682664D01*
X20906816Y23723601D01*
X20903510Y23753005D01*
X20899293Y23773548D01*
X20894054Y23787903D01*
X20887682Y23798740D01*
X20882177Y23806061D01*
X20822752Y23858881D01*
X20747138Y23886422D01*
X20693279Y23890953D01*
X20621029Y23880210D01*
X20558671Y23850904D01*
X20514815Y23807421D01*
X20508801Y23796976D01*
X20504181Y23776592D01*
X20500158Y23734050D01*
X20496696Y23668114D01*
X20493759Y23577542D01*
X20491311Y23461098D01*
X20489316Y23317541D01*
X20487739Y23145634D01*
X20487070Y23044286D01*
X20482857Y22326132D01*
X20446204Y22262141D01*
X20387952Y22189449D01*
X20309694Y22134343D01*
X20218364Y22100683D01*
X20139941Y22091786D01*
X20033228Y22102796D01*
X19943742Y22136667D01*
X19893749Y22170881D01*
X19870180Y22190180D01*
X19850378Y22207721D01*
X19833998Y22226188D01*
X19820698Y22248267D01*
X19810132Y22276642D01*
X19801958Y22314000D01*
X19795831Y22363025D01*
X19791407Y22426403D01*
X19788343Y22506820D01*
X19786295Y22606960D01*
X19784919Y22729508D01*
X19783871Y22877152D01*
X19782906Y23036492D01*
X19781857Y23203221D01*
X19780861Y23342357D01*
X19779786Y23456544D01*
X19778500Y23548429D01*
X19776873Y23620654D01*
X19774772Y23675865D01*
X19772068Y23716707D01*
X19768628Y23745823D01*
X19764321Y23765859D01*
X19759016Y23779460D01*
X19752582Y23789270D01*
X19745109Y23797695D01*
X19689841Y23842300D01*
X19622961Y23875322D01*
X19557594Y23890572D01*
X19547254Y23890953D01*
X19491781Y23878866D01*
X19429589Y23841154D01*
X19429479Y23841070D01*
X19364047Y23791186D01*
X19353908Y23044951D01*
X19343768Y22298715D01*
X19300319Y22236828D01*
X19239161Y22170278D01*
X19162901Y22125750D01*
X19067697Y22101384D01*
X19009760Y22096079D01*
X18938923Y22095058D01*
X18886893Y22101026D01*
X18842752Y22115420D01*
X18834545Y22119137D01*
X18758607Y22167013D01*
X18699196Y22228938D01*
X18662742Y22297983D01*
X18660000Y22307211D01*
X18655779Y22335432D01*
X18652478Y22386083D01*
X18650085Y22460349D01*
X18648583Y22559418D01*
X18647961Y22684475D01*
X18648203Y22836705D01*
X18649296Y23017296D01*
X18650302Y23134184D01*
X18652149Y23318982D01*
X18654117Y23476403D01*
X18656464Y23609312D01*
X18659448Y23720570D01*
X18663325Y23813040D01*
X18668353Y23889583D01*
X18674789Y23953063D01*
X18682890Y24006341D01*
X18692913Y24052281D01*
X18705117Y24093744D01*
X18719757Y24133592D01*
X18737092Y24174689D01*
X18745518Y24193634D01*
X18788373Y24266736D01*
X18849027Y24341346D01*
X18919239Y24409043D01*
X18990768Y24461409D01*
X19025495Y24479675D01*
X19141452Y24518530D01*
X19276485Y24543716D01*
X19422705Y24555243D01*
X19572221Y24553123D01*
X19717142Y24537366D01*
X19849580Y24507983D01*
X19932657Y24478447D01*
X19992883Y24448233D01*
X20054248Y24410927D01*
X20078459Y24393744D01*
X20144440Y24343379D01*
X20202737Y24389551D01*
X20313167Y24458826D01*
X20445688Y24510187D01*
X20597460Y24542831D01*
X20765641Y24555955D01*
X20792456Y24556191D01*
X20930024Y24550042D01*
G37*
G36*
X26689226Y22826730D02*
G01*
X26689242Y22406239D01*
X26689275Y22014884D01*
X26689303Y21651567D01*
X26689302Y21315184D01*
X26689250Y21004637D01*
X26689124Y20718824D01*
X26688902Y20456644D01*
X26688561Y20216996D01*
X26688078Y19998780D01*
X26687430Y19800895D01*
X26686595Y19622240D01*
X26685550Y19461714D01*
X26684272Y19318217D01*
X26682739Y19190647D01*
X26680927Y19077904D01*
X26678815Y18978887D01*
X26676379Y18892495D01*
X26673597Y18817627D01*
X26670446Y18753183D01*
X26666903Y18698062D01*
X26662945Y18651163D01*
X26658551Y18611385D01*
X26653697Y18577628D01*
X26648360Y18548790D01*
X26642518Y18523770D01*
X26636148Y18501469D01*
X26629227Y18480785D01*
X26621733Y18460617D01*
X26613643Y18439865D01*
X26604934Y18417427D01*
X26597872Y18398528D01*
X26509561Y18198957D01*
X26397363Y18016037D01*
X26263397Y17851513D01*
X26109784Y17707129D01*
X25938644Y17584630D01*
X25752097Y17485761D01*
X25552263Y17412268D01*
X25343631Y17366249D01*
X25327148Y17364257D01*
X25304349Y17362390D01*
X25274313Y17360644D01*
X25236121Y17359016D01*
X25188854Y17357503D01*
X25131591Y17356101D01*
X25063415Y17354808D01*
X24983404Y17353619D01*
X24890640Y17352530D01*
X24784203Y17351540D01*
X24663174Y17350644D01*
X24526634Y17349838D01*
X24373662Y17349121D01*
X24203339Y17348487D01*
X24014746Y17347933D01*
X23806963Y17347457D01*
X23579072Y17347055D01*
X23330152Y17346723D01*
X23059283Y17346457D01*
X22765547Y17346256D01*
X22448024Y17346114D01*
X22105795Y17346029D01*
X21737940Y17345998D01*
X21343539Y17346016D01*
X20921673Y17346081D01*
X20471423Y17346188D01*
X19991870Y17346335D01*
X19983928Y17346338D01*
X19587668Y17346509D01*
X19198748Y17346750D01*
X18818281Y17347059D01*
X18447384Y17347432D01*
X18087171Y17347866D01*
X17738757Y17348358D01*
X17403257Y17348906D01*
X17081785Y17349505D01*
X16775456Y17350153D01*
X16485386Y17350846D01*
X16212688Y17351582D01*
X15958479Y17352358D01*
X15723871Y17353170D01*
X15509982Y17354015D01*
X15317924Y17354890D01*
X15148814Y17355793D01*
X15003765Y17356719D01*
X14883893Y17357666D01*
X14790313Y17358630D01*
X14724139Y17359610D01*
X14686486Y17360600D01*
X14678405Y17361139D01*
X14464191Y17407202D01*
X14261432Y17480303D01*
X14072225Y17578735D01*
X13898671Y17700791D01*
X13742869Y17844763D01*
X13606919Y18008944D01*
X13492920Y18191627D01*
X13402970Y18391105D01*
X13399184Y18401372D01*
X13390104Y18425595D01*
X13381651Y18447472D01*
X13373803Y18468104D01*
X13366539Y18488591D01*
X13359835Y18510033D01*
X13353669Y18533532D01*
X13348019Y18560187D01*
X13342863Y18591100D01*
X13338177Y18627371D01*
X13333941Y18670101D01*
X13330130Y18720390D01*
X13326722Y18779338D01*
X13323697Y18848047D01*
X13321030Y18927617D01*
X13318699Y19019148D01*
X13316682Y19123741D01*
X13314957Y19242497D01*
X13313501Y19376516D01*
X13312292Y19526899D01*
X13311307Y19694746D01*
X13310524Y19881158D01*
X13309921Y20087236D01*
X13309474Y20314079D01*
X13309162Y20562790D01*
X13308963Y20834467D01*
X13308853Y21130213D01*
X13308810Y21451127D01*
X13308813Y21798309D01*
X13308838Y22172862D01*
X13308863Y22575884D01*
X13308869Y22834600D01*
X13308869Y25871548D01*
X14109794Y25871548D01*
X14113766Y22428185D01*
X14117738Y18984822D01*
X14184574Y18858369D01*
X14266240Y18728006D01*
X14365434Y18609524D01*
X14477249Y18507319D01*
X14596778Y18425789D01*
X14719114Y18369329D01*
X14736819Y18363477D01*
X14747785Y18361675D01*
X14769373Y18359979D01*
X14802407Y18358388D01*
X14847712Y18356897D01*
X14906113Y18355504D01*
X14978435Y18354205D01*
X15065501Y18352997D01*
X15168138Y18351878D01*
X15287169Y18350844D01*
X15423419Y18349891D01*
X15577714Y18349017D01*
X15750877Y18348218D01*
X15943734Y18347492D01*
X16157109Y18346834D01*
X16391826Y18346243D01*
X16648712Y18345714D01*
X16928589Y18345245D01*
X17232284Y18344832D01*
X17560620Y18344472D01*
X17914423Y18344163D01*
X18294516Y18343900D01*
X18701726Y18343681D01*
X19136876Y18343502D01*
X19600791Y18343361D01*
X19986116Y18343274D01*
X20456323Y18343184D01*
X20897253Y18343107D01*
X21309866Y18343049D01*
X21695121Y18343014D01*
X22053978Y18343008D01*
X22387399Y18343036D01*
X22696343Y18343103D01*
X22981770Y18343215D01*
X23244641Y18343377D01*
X23485916Y18343594D01*
X23706555Y18343872D01*
X23907519Y18344215D01*
X24089767Y18344629D01*
X24254259Y18345120D01*
X24401957Y18345692D01*
X24533820Y18346351D01*
X24650809Y18347102D01*
X24753883Y18347950D01*
X24844003Y18348901D01*
X24922129Y18349960D01*
X24989221Y18351132D01*
X25046240Y18352422D01*
X25094146Y18353836D01*
X25133899Y18355379D01*
X25166458Y18357057D01*
X25192786Y18358873D01*
X25213841Y18360835D01*
X25230584Y18362946D01*
X25243975Y18365213D01*
X25254974Y18367641D01*
X25264542Y18370234D01*
X25271313Y18372277D01*
X25397286Y18425553D01*
X25516200Y18503091D01*
X25623967Y18600196D01*
X25716497Y18712171D01*
X25789700Y18834319D01*
X25839488Y18961943D01*
X25857313Y19045298D01*
X25859084Y19073252D01*
X25860758Y19130852D01*
X25862331Y19217508D01*
X25863802Y19332629D01*
X25865167Y19475623D01*
X25866425Y19645899D01*
X25867572Y19842867D01*
X25868607Y20065936D01*
X25869525Y20314513D01*
X25870325Y20588009D01*
X25871005Y20885831D01*
X25871561Y21207389D01*
X25871991Y21552092D01*
X25872292Y21919349D01*
X25872463Y22308568D01*
X25872498Y22511340D01*
X25872797Y25871548D01*
X19991295Y25871548D01*
X14109794Y25871548D01*
X13308869Y25871548D01*
X13308869Y26884524D01*
X19999047Y26884524D01*
X26689226Y26884524D01*
X26689226Y22826730D01*
G37*
G36*
X24016019Y25358911D02*
G01*
X24103518Y25324960D01*
X24172740Y25270083D01*
X24220426Y25198285D01*
X24243314Y25113573D01*
X24244812Y25077798D01*
X24242860Y25049132D01*
X24237763Y24993356D01*
X24229832Y24913400D01*
X24219376Y24812193D01*
X24206706Y24692665D01*
X24192131Y24557748D01*
X24175961Y24410369D01*
X24158507Y24253460D01*
X24143363Y24118938D01*
X24125264Y23958951D01*
X24108220Y23808121D01*
X24092527Y23669093D01*
X24078483Y23544509D01*
X24066386Y23437012D01*
X24056532Y23349244D01*
X24049220Y23283848D01*
X24044746Y23243468D01*
X24043393Y23230694D01*
X24058017Y23229685D01*
X24099912Y23228744D01*
X24166111Y23227893D01*
X24253646Y23227152D01*
X24359549Y23226543D01*
X24480854Y23226087D01*
X24614593Y23225804D01*
X24746914Y23225715D01*
X24918205Y23225707D01*
X25061997Y23225465D01*
X25181028Y23224661D01*
X25278039Y23222969D01*
X25355767Y23220061D01*
X25416951Y23215609D01*
X25464331Y23209287D01*
X25500645Y23200767D01*
X25528632Y23189721D01*
X25551031Y23175823D01*
X25570582Y23158746D01*
X25590022Y23138161D01*
X25603331Y23123370D01*
X25650545Y23050954D01*
X25673228Y22969486D01*
X25669422Y22887065D01*
X25664790Y22869463D01*
X25654815Y22850678D01*
X25629443Y22808049D01*
X25589667Y22743145D01*
X25536477Y22657533D01*
X25470867Y22552783D01*
X25393828Y22430463D01*
X25306351Y22292139D01*
X25209430Y22139382D01*
X25104055Y21973759D01*
X24991219Y21796838D01*
X24871913Y21610188D01*
X24747129Y21415376D01*
X24617860Y21213972D01*
X24606842Y21196824D01*
X24476576Y20994095D01*
X24350170Y20797356D01*
X24228661Y20608221D01*
X24113086Y20428306D01*
X24004482Y20259223D01*
X23903884Y20102588D01*
X23812330Y19960015D01*
X23730857Y19833118D01*
X23660501Y19723512D01*
X23602299Y19632811D01*
X23557288Y19562630D01*
X23526504Y19514582D01*
X23510984Y19490284D01*
X23510653Y19489762D01*
X23473604Y19439307D01*
X23432491Y19395199D01*
X23403491Y19372000D01*
X23344550Y19346992D01*
X23273375Y19332764D01*
X23204080Y19331294D01*
X23165181Y19338608D01*
X23090568Y19376689D01*
X23029682Y19434615D01*
X22987793Y19505535D01*
X22970174Y19582600D01*
X22969940Y19592310D01*
X22972868Y19617136D01*
X22981326Y19669009D01*
X22994825Y19745342D01*
X23012874Y19843551D01*
X23034986Y19961047D01*
X23060671Y20095246D01*
X23089439Y20243562D01*
X23120802Y20403408D01*
X23154269Y20572197D01*
X23174047Y20671155D01*
X23208325Y20842355D01*
X23240797Y21004895D01*
X23270981Y21156341D01*
X23298394Y21294255D01*
X23322555Y21416204D01*
X23342983Y21519751D01*
X23359194Y21602461D01*
X23370707Y21661899D01*
X23377041Y21695629D01*
X23378155Y21702555D01*
X23363580Y21705400D01*
X23322029Y21707874D01*
X23256763Y21709920D01*
X23171043Y21711480D01*
X23068128Y21712500D01*
X22951280Y21712921D01*
X22823759Y21712689D01*
X22799501Y21712571D01*
X22645377Y21711772D01*
X22518417Y21711455D01*
X22415544Y21712040D01*
X22333685Y21713950D01*
X22269763Y21717605D01*
X22220705Y21723425D01*
X22183436Y21731834D01*
X22154879Y21743251D01*
X22131961Y21758097D01*
X22111606Y21776795D01*
X22090740Y21799764D01*
X22080906Y21810988D01*
X22035823Y21884243D01*
X22018345Y21969611D01*
X22021457Y22028488D01*
X22029536Y22048814D01*
X22051001Y22093674D01*
X22084768Y22161049D01*
X22129754Y22248922D01*
X22146263Y22280774D01*
X22776253Y22280774D01*
X23300210Y22273215D01*
X23458569Y22270540D01*
X23588211Y22267466D01*
X23690655Y22263923D01*
X23767420Y22259839D01*
X23820024Y22255145D01*
X23849988Y22249769D01*
X23856111Y22247334D01*
X23905192Y22207889D01*
X23952587Y22151320D01*
X23988926Y22089748D01*
X23999899Y22061289D01*
X24004629Y22041824D01*
X24006996Y22019470D01*
X24006505Y21990756D01*
X24002663Y21952215D01*
X23994973Y21900376D01*
X23982941Y21831772D01*
X23966072Y21742933D01*
X23943870Y21630390D01*
X23924892Y21535651D01*
X23897750Y21400415D01*
X23876131Y21292011D01*
X23859531Y21207641D01*
X23847448Y21144506D01*
X23839379Y21099806D01*
X23834821Y21070741D01*
X23833271Y21054515D01*
X23834227Y21048326D01*
X23837186Y21049376D01*
X23837630Y21049832D01*
X23846628Y21063326D01*
X23870556Y21100081D01*
X23908006Y21157914D01*
X23957568Y21234640D01*
X24017836Y21328077D01*
X24087400Y21436042D01*
X24164853Y21556349D01*
X24248785Y21686817D01*
X24337790Y21825262D01*
X24351677Y21846871D01*
X24441209Y21986300D01*
X24525712Y22118105D01*
X24603796Y22240102D01*
X24674071Y22350110D01*
X24735145Y22445945D01*
X24785628Y22525425D01*
X24824130Y22586367D01*
X24849259Y22626589D01*
X24859625Y22643907D01*
X24859821Y22644401D01*
X24845248Y22645916D01*
X24803709Y22647318D01*
X24738478Y22648568D01*
X24652827Y22649627D01*
X24550030Y22650455D01*
X24433360Y22651014D01*
X24306088Y22651266D01*
X24281518Y22651275D01*
X24123499Y22651731D01*
X23984126Y22653012D01*
X23865535Y22655065D01*
X23769863Y22657838D01*
X23699243Y22661275D01*
X23655813Y22665324D01*
X23646104Y22667219D01*
X23573366Y22701669D01*
X23510152Y22758140D01*
X23465306Y22828419D01*
X23460885Y22839187D01*
X23453043Y22861533D01*
X23447709Y22884085D01*
X23445039Y22911149D01*
X23445190Y22947032D01*
X23448318Y22996043D01*
X23454580Y23062488D01*
X23464132Y23150674D01*
X23476005Y23255088D01*
X23487210Y23355044D01*
X23496804Y23445098D01*
X23504360Y23520863D01*
X23509452Y23577951D01*
X23511654Y23611974D01*
X23511429Y23619441D01*
X23503567Y23609322D01*
X23482782Y23574986D01*
X23450436Y23518868D01*
X23407887Y23443404D01*
X23356497Y23351028D01*
X23297625Y23244176D01*
X23232633Y23125282D01*
X23162880Y22996783D01*
X23141460Y22957151D01*
X22776253Y22280774D01*
X22146263Y22280774D01*
X22184877Y22355273D01*
X22249054Y22478085D01*
X22321202Y22615338D01*
X22400239Y22765016D01*
X22485081Y22925098D01*
X22574645Y23093568D01*
X22667850Y23268406D01*
X22763611Y23447594D01*
X22860847Y23629114D01*
X22958475Y23810948D01*
X23055410Y23991076D01*
X23150572Y24167482D01*
X23242877Y24338145D01*
X23331242Y24501049D01*
X23414584Y24654174D01*
X23491821Y24795503D01*
X23561870Y24923017D01*
X23623648Y25034697D01*
X23676071Y25128525D01*
X23718059Y25202483D01*
X23748526Y25254552D01*
X23766392Y25282714D01*
X23769169Y25286239D01*
X23821770Y25324912D01*
X23890886Y25351829D01*
X23963882Y25363269D01*
X24016019Y25358911D01*
G37*
D11*
X7500000Y4750000D03*
D12*
X7500000Y4750000D03*
D11*
X132500000Y4750000D03*
D12*
X132500000Y4750000D03*
D11*
X132500000Y30250000D03*
D12*
X132500000Y30250000D03*
D13*
X44500000Y17300000D03*
D14*
X44500000Y17300000D03*
D11*
X7500000Y30250000D03*
D12*
X7500000Y30250000D03*
M02*
