%TF.GenerationSoftware,KiCad,Pcbnew,10.0.1*%
%TF.CreationDate,2026-07-06T15:17:52+01:00*%
%TF.ProjectId,panel-front,70616e65-6c2d-4667-926f-6e742e6b6963,rev?*%
%TF.SameCoordinates,PX4b571c0PY7270e00*%
%TF.FileFunction,Profile,NP*%
%FSLAX46Y46*%
G04 Gerber Fmt 4.6, Leading zero omitted, Abs format (unit mm)*
G04 Created by KiCad (PCBNEW 10.0.1) date 2026-07-06 15:17:52*
%MOMM*%
%LPD*%
G01*
G04 APERTURE LIST*
%TA.AperFunction,Profile*%
%ADD10C,0.250000*%
%TD*%
%ADD11C,0.250000*%
%TA.AperFunction,Profile*%
%ADD12C,0.200000*%
%TD*%
G04 APERTURE END LIST*
D10*
X-1Y20000000D02*
X-1Y15000000D01*
X-1Y20000000D02*
G75*
G02*
X324048Y24877113I77498501J-2699900D01*
G01*
X324048Y10122888D02*
G75*
G02*
X-4Y15000000I77178352J7577312D01*
G01*
D11*
X324048Y10122888D02*
X324542Y10117586D01*
X325114Y10112293D01*
X325766Y10107011D01*
X326497Y10101739D01*
X327308Y10096478D01*
X328197Y10091227D01*
X329165Y10085987D01*
X330213Y10080758D01*
X331339Y10075540D01*
X332545Y10070334D01*
X333830Y10065139D01*
X335195Y10059957D01*
X336638Y10054787D01*
X338161Y10049629D01*
X339763Y10044485D01*
X341445Y10039354D01*
X343206Y10034236D01*
X345047Y10029133D01*
X346968Y10024044D01*
X348968Y10018971D01*
X351047Y10013913D01*
X353207Y10008871D01*
X355446Y10003846D01*
X357765Y9998838D01*
X360164Y9993847D01*
X362642Y9988876D01*
X365201Y9983923D01*
X367839Y9978990D01*
X370556Y9974077D01*
X373353Y9969185D01*
X376230Y9964316D01*
X379186Y9959469D01*
X382221Y9954645D01*
X385335Y9949846D01*
X388529Y9945072D01*
X391800Y9940325D01*
X395151Y9935604D01*
X398579Y9930911D01*
X402085Y9926247D01*
X405669Y9921613D01*
X409329Y9917010D01*
X413067Y9912439D01*
X416880Y9907901D01*
X420770Y9903397D01*
X424734Y9898928D01*
X428773Y9894496D01*
X432886Y9890101D01*
X437072Y9885745D01*
X441331Y9881428D01*
X445662Y9877153D01*
X450063Y9872920D01*
X454535Y9868730D01*
X459076Y9864585D01*
X463685Y9860486D01*
X468361Y9856434D01*
X473104Y9852430D01*
X477912Y9848476D01*
X482783Y9844573D01*
X487718Y9840722D01*
X492714Y9836925D01*
X497770Y9833182D01*
X502885Y9829495D01*
X508058Y9825865D01*
X513286Y9822294D01*
X518569Y9818782D01*
X523905Y9815331D01*
X529293Y9811942D01*
X534731Y9808616D01*
X540216Y9805354D01*
X545749Y9802157D01*
X551326Y9799027D01*
X556946Y9795965D01*
X562608Y9792971D01*
X568309Y9790046D01*
X574048Y9787193D01*
X579823Y9784410D01*
X582723Y9783046D01*
X585632Y9781700D01*
X588549Y9780373D01*
X591473Y9779063D01*
X594405Y9777773D01*
X597345Y9776501D01*
X600291Y9775248D01*
X603244Y9774013D01*
X606204Y9772798D01*
X609171Y9771601D01*
X612142Y9770424D01*
X615121Y9769266D01*
X618105Y9768127D01*
X621095Y9767007D01*
X624089Y9765907D01*
X627089Y9764826D01*
X630092Y9763766D01*
X633102Y9762724D01*
X636114Y9761702D01*
X639131Y9760700D01*
X642151Y9759718D01*
X645176Y9758756D01*
X648202Y9757814D01*
X651234Y9756892D01*
X654266Y9755990D01*
X657303Y9755108D01*
X660340Y9754246D01*
X663381Y9753404D01*
X666422Y9752583D01*
X669467Y9751782D01*
X672511Y9751001D01*
X675559Y9750241D01*
X678605Y9749501D01*
X681654Y9748781D01*
X684701Y9748083D01*
X687752Y9747404D01*
X690799Y9746746D01*
X693850Y9746108D01*
X696896Y9745491D01*
X699946Y9744895D01*
X702991Y9744319D01*
X706039Y9743763D01*
X709083Y9743229D01*
X712128Y9742714D01*
X715168Y9742221D01*
X718211Y9741748D01*
X721247Y9741295D01*
X724285Y9740863D01*
X727317Y9740452D01*
X730350Y9740061D01*
X733377Y9739691D01*
X736404Y9739341D01*
X739425Y9739013D01*
X742446Y9738704D01*
X745459Y9738416D01*
X748473Y9738148D01*
X751480Y9737901D01*
X754486Y9737674D01*
X757484Y9737468D01*
X760482Y9737282D01*
X763471Y9737117D01*
X766460Y9736971D01*
X769439Y9736846D01*
X772418Y9736742D01*
X775388Y9736657D01*
X778356Y9736593D01*
X781315Y9736549D01*
X784273Y9736525D01*
X787220Y9736521D01*
X790167Y9736537D01*
X793102Y9736574D01*
X796037Y9736630D01*
X798960Y9736706D01*
X801882Y9736802D01*
X804792Y9736918D01*
X807701Y9737053D01*
X810598Y9737209D01*
X813493Y9737384D01*
X816376Y9737579D01*
X819257Y9737793D01*
X822126Y9738027D01*
X824993Y9738281D01*
X827847Y9738553D01*
X830699Y9738846D01*
X833538Y9739157D01*
X836375Y9739489D01*
X839198Y9739839D01*
X842019Y9740209D01*
X844827Y9740597D01*
X847632Y9741005D01*
X850423Y9741432D01*
X853212Y9741878D01*
X855987Y9742343D01*
X858758Y9742827D01*
X861517Y9743330D01*
X864271Y9743852D01*
X867012Y9744392D01*
X869749Y9744951D01*
X872473Y9745528D01*
X875193Y9746125D01*
X877899Y9746740D01*
X880600Y9747374D01*
X883288Y9748025D01*
X885972Y9748696D01*
X888641Y9749384D01*
X891307Y9750092D01*
X893958Y9750817D01*
X896605Y9751561D01*
X899237Y9752322D01*
X901865Y9753103D01*
X904479Y9753900D01*
X907088Y9754717D01*
X909683Y9755551D01*
X912272Y9756404D01*
X914848Y9757273D01*
X917418Y9758162D01*
X919975Y9759067D01*
X922525Y9759991D01*
X925062Y9760932D01*
X927593Y9761892D01*
X930111Y9762868D01*
X932622Y9763864D01*
X935120Y9764875D01*
X937611Y9765906D01*
X940089Y9766953D01*
X942560Y9768018D01*
X945018Y9769100D01*
X947469Y9770201D01*
X949906Y9771317D01*
X952337Y9772453D01*
X954755Y9773604D01*
X957165Y9774775D01*
X959562Y9775961D01*
X961953Y9777166D01*
X964329Y9778387D01*
X966699Y9779627D01*
X969055Y9780882D01*
X971404Y9782156D01*
X973740Y9783446D01*
X976068Y9784755D01*
X978383Y9786079D01*
X980691Y9787422D01*
X982985Y9788780D01*
X985272Y9790158D01*
X987546Y9791550D01*
X989812Y9792962D01*
X992065Y9794389D01*
X994310Y9795835D01*
X996968Y9797578D01*
X996968Y25202423D02*
X992506Y25205330D01*
X988003Y25208168D01*
X983458Y25210938D01*
X978872Y25213640D01*
X974246Y25216273D01*
X969578Y25218837D01*
X964870Y25221333D01*
X960121Y25223760D01*
X955332Y25226118D01*
X950503Y25228407D01*
X945634Y25230626D01*
X940725Y25232776D01*
X935776Y25234856D01*
X930789Y25236866D01*
X925762Y25238806D01*
X920696Y25240675D01*
X915591Y25242473D01*
X910448Y25244200D01*
X905267Y25245856D01*
X900049Y25247440D01*
X894793Y25248951D01*
X889501Y25250391D01*
X884171Y25251757D01*
X878806Y25253050D01*
X873405Y25254270D01*
X867969Y25255416D01*
X862499Y25256487D01*
X856994Y25257484D01*
X851456Y25258406D01*
X845885Y25259252D01*
X840282Y25260022D01*
X834647Y25260716D01*
X828982Y25261333D01*
X823286Y25261873D01*
X817562Y25262336D01*
X811809Y25262721D01*
X806028Y25263028D01*
X800221Y25263256D01*
X794388Y25263405D01*
X788530Y25263475D01*
X782649Y25263465D01*
X776745Y25263375D01*
X770820Y25263205D01*
X764874Y25262955D01*
X758910Y25262623D01*
X752927Y25262211D01*
X746928Y25261718D01*
X740914Y25261143D01*
X734886Y25260486D01*
X728846Y25259748D01*
X722794Y25258928D01*
X716733Y25258026D01*
X710664Y25257041D01*
X704589Y25255975D01*
X698508Y25254827D01*
X692425Y25253597D01*
X686340Y25252285D01*
X680255Y25250892D01*
X674172Y25249416D01*
X668093Y25247860D01*
X662019Y25246222D01*
X655952Y25244503D01*
X649895Y25242704D01*
X643848Y25240825D01*
X637815Y25238866D01*
X631796Y25236827D01*
X625793Y25234710D01*
X619809Y25232515D01*
X613845Y25230241D01*
X607904Y25227891D01*
X601987Y25225464D01*
X596096Y25222962D01*
X590232Y25220384D01*
X584399Y25217733D01*
X578598Y25215008D01*
X572831Y25212210D01*
X569960Y25210784D01*
X567099Y25209341D01*
X564247Y25207880D01*
X561404Y25206401D01*
X558572Y25204905D01*
X555749Y25203391D01*
X552937Y25201861D01*
X550135Y25200313D01*
X547344Y25198748D01*
X544564Y25197166D01*
X541795Y25195568D01*
X539037Y25193953D01*
X536291Y25192323D01*
X533557Y25190675D01*
X530835Y25189012D01*
X528124Y25187332D01*
X525427Y25185637D01*
X522742Y25183925D01*
X520071Y25182199D01*
X517411Y25180457D01*
X514766Y25178700D01*
X512132Y25176927D01*
X509514Y25175140D01*
X506909Y25173338D01*
X504319Y25171521D01*
X501741Y25169689D01*
X499179Y25167844D01*
X496630Y25165984D01*
X494098Y25164111D01*
X491579Y25162222D01*
X489077Y25160321D01*
X486587Y25158405D01*
X484116Y25156477D01*
X481657Y25154535D01*
X479217Y25152581D01*
X476790Y25150612D01*
X474382Y25148632D01*
X471987Y25146638D01*
X469612Y25144633D01*
X467250Y25142613D01*
X464907Y25140584D01*
X462578Y25138541D01*
X460269Y25136488D01*
X457974Y25134420D01*
X455699Y25132344D01*
X453439Y25130254D01*
X451198Y25128155D01*
X448973Y25126043D01*
X446767Y25123922D01*
X444577Y25121788D01*
X442407Y25119646D01*
X440252Y25117490D01*
X438119Y25115327D01*
X436000Y25113151D01*
X433903Y25110968D01*
X431820Y25108773D01*
X429760Y25106570D01*
X427715Y25104355D01*
X425691Y25102134D01*
X423683Y25099900D01*
X421697Y25097660D01*
X419726Y25095408D01*
X417778Y25093150D01*
X415845Y25090881D01*
X413935Y25088606D01*
X412040Y25086319D01*
X410168Y25084028D01*
X408312Y25081724D01*
X406478Y25079417D01*
X404661Y25077098D01*
X402866Y25074775D01*
X401087Y25072440D01*
X399331Y25070102D01*
X397592Y25067752D01*
X395875Y25065399D01*
X394174Y25063036D01*
X392497Y25060669D01*
X390836Y25058291D01*
X389197Y25055910D01*
X387576Y25053519D01*
X385977Y25051126D01*
X384395Y25048721D01*
X382836Y25046315D01*
X381294Y25043898D01*
X379775Y25041480D01*
X378273Y25039051D01*
X376793Y25036621D01*
X375331Y25034180D01*
X373891Y25031738D01*
X372469Y25029287D01*
X371070Y25026834D01*
X369688Y25024372D01*
X368328Y25021908D01*
X366986Y25019435D01*
X365666Y25016962D01*
X364365Y25014479D01*
X363085Y25011995D01*
X361824Y25009502D01*
X360584Y25007009D01*
X359363Y25004507D01*
X358164Y25002005D01*
X356982Y24999494D01*
X355823Y24996983D01*
X354682Y24994463D01*
X353563Y24991943D01*
X352463Y24989415D01*
X351384Y24986887D01*
X350323Y24984350D01*
X349284Y24981814D01*
X348264Y24979270D01*
X347265Y24976726D01*
X346285Y24974174D01*
X345327Y24971623D01*
X344387Y24969063D01*
X343468Y24966505D01*
X342568Y24963938D01*
X341690Y24961373D01*
X340830Y24958800D01*
X339991Y24956227D01*
X339172Y24953647D01*
X338373Y24951068D01*
X337593Y24948481D01*
X336835Y24945896D01*
X336095Y24943303D01*
X335376Y24940711D01*
X334676Y24938113D01*
X333998Y24935515D01*
X333338Y24932910D01*
X332699Y24930306D01*
X332079Y24927695D01*
X331480Y24925086D01*
X330900Y24922469D01*
X330340Y24919854D01*
X329800Y24917232D01*
X329281Y24914612D01*
X328780Y24911984D01*
X328301Y24909358D01*
X327840Y24906726D01*
X327400Y24904094D01*
X326980Y24901456D01*
X326579Y24898820D01*
X326199Y24896177D01*
X325838Y24893535D01*
X325497Y24890887D01*
X325176Y24888240D01*
X324875Y24885588D01*
X324594Y24882936D01*
X324333Y24880278D01*
X324048Y24877113D01*
D10*
X996968Y9797578D02*
X1930706Y10731321D01*
X1183217Y31058228D02*
G75*
G02*
X1475608Y32591572I76320683J-13758928D01*
G01*
D11*
X1183217Y31058228D02*
X1183562Y31052740D01*
X1183986Y31047260D01*
X1184489Y31041788D01*
X1185072Y31036325D01*
X1185734Y31030869D01*
X1186476Y31025422D01*
X1187297Y31019983D01*
X1188197Y31014553D01*
X1189177Y31009132D01*
X1190236Y31003720D01*
X1191375Y30998318D01*
X1192593Y30992925D01*
X1193891Y30987542D01*
X1195268Y30982170D01*
X1196725Y30976808D01*
X1198262Y30971457D01*
X1199879Y30966117D01*
X1201576Y30960789D01*
X1203352Y30955473D01*
X1205209Y30950170D01*
X1207146Y30944879D01*
X1209162Y30939602D01*
X1211259Y30934339D01*
X1213436Y30929091D01*
X1215694Y30923857D01*
X1218031Y30918639D01*
X1220449Y30913437D01*
X1222947Y30908252D01*
X1225526Y30903084D01*
X1228184Y30897935D01*
X1230923Y30892804D01*
X1233742Y30887693D01*
X1236641Y30882602D01*
X1239620Y30877533D01*
X1242678Y30872485D01*
X1245816Y30867460D01*
X1249034Y30862458D01*
X1252331Y30857481D01*
X1255707Y30852530D01*
X1259161Y30847605D01*
X1262694Y30842707D01*
X1266305Y30837837D01*
X1269994Y30832997D01*
X1273761Y30828187D01*
X1277604Y30823408D01*
X1281524Y30818661D01*
X1285519Y30813949D01*
X1289590Y30809271D01*
X1293736Y30804628D01*
X1297956Y30800023D01*
X1302250Y30795455D01*
X1306616Y30790927D01*
X1311055Y30786439D01*
X1315564Y30781993D01*
X1320144Y30777590D01*
X1324794Y30773231D01*
X1329512Y30768917D01*
X1334298Y30764650D01*
X1339150Y30760430D01*
X1344067Y30756260D01*
X1349049Y30752139D01*
X1354094Y30748071D01*
X1359201Y30744055D01*
X1364369Y30740093D01*
X1369596Y30736186D01*
X1374881Y30732336D01*
X1380223Y30728543D01*
X1385619Y30724810D01*
X1391070Y30721136D01*
X1396573Y30717524D01*
X1402126Y30713974D01*
X1407729Y30710487D01*
X1413379Y30707066D01*
X1419075Y30703710D01*
X1424815Y30700420D01*
X1430597Y30697199D01*
X1436421Y30694047D01*
X1442283Y30690964D01*
X1445228Y30689449D01*
X1448182Y30687952D01*
X1451146Y30686473D01*
X1454117Y30685012D01*
X1457098Y30683569D01*
X1460086Y30682144D01*
X1463082Y30680738D01*
X1466087Y30679350D01*
X1469098Y30677981D01*
X1472117Y30676630D01*
X1475143Y30675299D01*
X1478176Y30673986D01*
X1481215Y30672692D01*
X1484261Y30671417D01*
X1487312Y30670161D01*
X1490370Y30668924D01*
X1493433Y30667707D01*
X1496503Y30666509D01*
X1499576Y30665331D01*
X1502656Y30664172D01*
X1505739Y30663033D01*
X1508828Y30661913D01*
X1511919Y30660813D01*
X1515017Y30659733D01*
X1518116Y30658673D01*
X1521221Y30657632D01*
X1524327Y30656612D01*
X1527439Y30655611D01*
X1530551Y30654631D01*
X1533669Y30653671D01*
X1536786Y30652731D01*
X1539908Y30651811D01*
X1543030Y30650912D01*
X1546156Y30650033D01*
X1549281Y30649174D01*
X1552410Y30648336D01*
X1555538Y30647518D01*
X1558669Y30646720D01*
X1561798Y30645944D01*
X1564931Y30645187D01*
X1568061Y30644451D01*
X1571194Y30643735D01*
X1574324Y30643041D01*
X1577457Y30642366D01*
X1580586Y30641713D01*
X1583718Y30641079D01*
X1586846Y30640467D01*
X1589976Y30639875D01*
X1593101Y30639304D01*
X1596228Y30638753D01*
X1599350Y30638223D01*
X1602474Y30637713D01*
X1605592Y30637225D01*
X1608712Y30636757D01*
X1611825Y30636309D01*
X1614940Y30635882D01*
X1618048Y30635476D01*
X1621157Y30635090D01*
X1624259Y30634725D01*
X1627362Y30634380D01*
X1630457Y30634057D01*
X1633554Y30633753D01*
X1636641Y30633470D01*
X1639730Y30633207D01*
X1642810Y30632966D01*
X1645890Y30632744D01*
X1648962Y30632543D01*
X1652033Y30632362D01*
X1655095Y30632201D01*
X1658157Y30632061D01*
X1661209Y30631941D01*
X1664261Y30631841D01*
X1667304Y30631762D01*
X1670345Y30631703D01*
X1673376Y30631664D01*
X1676407Y30631645D01*
X1679426Y30631646D01*
X1682445Y30631667D01*
X1685453Y30631708D01*
X1688460Y30631769D01*
X1691455Y30631850D01*
X1694450Y30631951D01*
X1697432Y30632072D01*
X1700414Y30632213D01*
X1703383Y30632373D01*
X1706351Y30632553D01*
X1709307Y30632753D01*
X1712260Y30632972D01*
X1715202Y30633211D01*
X1718142Y30633470D01*
X1721069Y30633747D01*
X1723994Y30634045D01*
X1726907Y30634361D01*
X1729817Y30634698D01*
X1732714Y30635053D01*
X1735609Y30635428D01*
X1738491Y30635822D01*
X1741369Y30636235D01*
X1744235Y30636667D01*
X1747098Y30637118D01*
X1749948Y30637588D01*
X1752795Y30638078D01*
X1755629Y30638585D01*
X1758459Y30639113D01*
X1761275Y30639658D01*
X1764089Y30640223D01*
X1766889Y30640806D01*
X1769685Y30641409D01*
X1772468Y30642029D01*
X1775246Y30642669D01*
X1778012Y30643326D01*
X1780773Y30644003D01*
X1783521Y30644698D01*
X1786264Y30645412D01*
X1788995Y30646143D01*
X1791720Y30646893D01*
X1794432Y30647661D01*
X1797140Y30648448D01*
X1799834Y30649253D01*
X1802523Y30650076D01*
X1805198Y30650917D01*
X1807869Y30651777D01*
X1810526Y30652654D01*
X1813178Y30653550D01*
X1815816Y30654463D01*
X1818450Y30655395D01*
X1821069Y30656344D01*
X1823684Y30657312D01*
X1826285Y30658296D01*
X1828880Y30659300D01*
X1831462Y30660320D01*
X1834038Y30661359D01*
X1836601Y30662415D01*
X1839157Y30663490D01*
X1841701Y30664581D01*
X1844238Y30665691D01*
X1846763Y30666817D01*
X1849281Y30667963D01*
X1851785Y30669124D01*
X1854284Y30670305D01*
X1856769Y30671502D01*
X1859248Y30672717D01*
X1861714Y30673949D01*
X1864173Y30675200D01*
X1866619Y30676466D01*
X1869059Y30677752D01*
X1871485Y30679054D01*
X1873904Y30680374D01*
X1876311Y30681711D01*
X1878711Y30683066D01*
X1881097Y30684438D01*
X1883477Y30685828D01*
X1885844Y30687234D01*
X1888203Y30688659D01*
X1890550Y30690100D01*
X1892890Y30691559D01*
X1892986Y30691620D01*
D10*
X1475609Y32591572D02*
G75*
G02*
X4416705Y34999996I2941091J-591572D01*
G01*
X1475610Y2408427D02*
G75*
G02*
X1183218Y3941772I76020690J15290873D01*
G01*
D11*
X1892975Y4308381D02*
X1888300Y4311276D01*
X1883586Y4314102D01*
X1878832Y4316858D01*
X1874039Y4319546D01*
X1869207Y4322163D01*
X1864336Y4324711D01*
X1859425Y4327189D01*
X1854476Y4329598D01*
X1849488Y4331936D01*
X1844462Y4334205D01*
X1839397Y4336403D01*
X1834294Y4338531D01*
X1829154Y4340588D01*
X1823975Y4342574D01*
X1818759Y4344489D01*
X1813506Y4346332D01*
X1808216Y4348104D01*
X1802889Y4349805D01*
X1797526Y4351432D01*
X1792126Y4352988D01*
X1786691Y4354471D01*
X1781220Y4355880D01*
X1775714Y4357216D01*
X1770174Y4358479D01*
X1764600Y4359667D01*
X1758991Y4360781D01*
X1753350Y4361820D01*
X1747676Y4362783D01*
X1741969Y4363672D01*
X1736231Y4364484D01*
X1730462Y4365220D01*
X1724662Y4365880D01*
X1718833Y4366462D01*
X1712975Y4366967D01*
X1707088Y4367394D01*
X1701174Y4367744D01*
X1695233Y4368014D01*
X1689266Y4368206D01*
X1683274Y4368319D01*
X1677258Y4368353D01*
X1671219Y4368306D01*
X1665158Y4368180D01*
X1659076Y4367973D01*
X1652973Y4367685D01*
X1646852Y4367317D01*
X1640713Y4366868D01*
X1634557Y4366337D01*
X1628386Y4365725D01*
X1622200Y4365031D01*
X1616002Y4364255D01*
X1609792Y4363397D01*
X1603573Y4362457D01*
X1597344Y4361435D01*
X1591108Y4360331D01*
X1584867Y4359144D01*
X1578621Y4357875D01*
X1572372Y4356525D01*
X1566122Y4355092D01*
X1559873Y4353577D01*
X1553626Y4351981D01*
X1547383Y4350303D01*
X1541145Y4348543D01*
X1534914Y4346703D01*
X1528692Y4344782D01*
X1522481Y4342780D01*
X1516282Y4340699D01*
X1510098Y4338538D01*
X1503930Y4336298D01*
X1497779Y4333979D01*
X1491649Y4331582D01*
X1485540Y4329108D01*
X1479454Y4326557D01*
X1473393Y4323930D01*
X1467360Y4321228D01*
X1461355Y4318450D01*
X1455382Y4315599D01*
X1449441Y4312675D01*
X1443534Y4309679D01*
X1440594Y4308153D01*
X1437663Y4306611D01*
X1434742Y4305050D01*
X1431830Y4303472D01*
X1428929Y4301877D01*
X1426037Y4300265D01*
X1423157Y4298635D01*
X1420286Y4296989D01*
X1417427Y4295325D01*
X1414578Y4293645D01*
X1411741Y4291948D01*
X1408914Y4290235D01*
X1406101Y4288505D01*
X1403298Y4286759D01*
X1400508Y4284998D01*
X1397729Y4283220D01*
X1394964Y4281426D01*
X1392210Y4279617D01*
X1389471Y4277793D01*
X1386743Y4275952D01*
X1384030Y4274097D01*
X1381329Y4272226D01*
X1378643Y4270342D01*
X1375969Y4268441D01*
X1373311Y4266527D01*
X1370665Y4264597D01*
X1368035Y4262654D01*
X1365418Y4260696D01*
X1362818Y4258725D01*
X1360230Y4256739D01*
X1357660Y4254740D01*
X1355103Y4252727D01*
X1352563Y4250702D01*
X1350036Y4248661D01*
X1347528Y4246610D01*
X1345033Y4244543D01*
X1342556Y4242466D01*
X1340093Y4240374D01*
X1337648Y4238272D01*
X1335218Y4236155D01*
X1332807Y4234029D01*
X1330409Y4231888D01*
X1328032Y4229738D01*
X1325668Y4227573D01*
X1323324Y4225400D01*
X1320995Y4223212D01*
X1318686Y4221016D01*
X1316391Y4218806D01*
X1314117Y4216588D01*
X1311858Y4214357D01*
X1309619Y4212118D01*
X1307395Y4209865D01*
X1305192Y4207605D01*
X1303005Y4205332D01*
X1300838Y4203052D01*
X1298687Y4200759D01*
X1296557Y4198460D01*
X1294443Y4196147D01*
X1292350Y4193829D01*
X1290273Y4191498D01*
X1288217Y4189161D01*
X1286178Y4186812D01*
X1284160Y4184458D01*
X1282158Y4182091D01*
X1280178Y4179720D01*
X1278214Y4177336D01*
X1276273Y4174948D01*
X1274348Y4172548D01*
X1272445Y4170144D01*
X1270558Y4167728D01*
X1268694Y4165308D01*
X1266846Y4162877D01*
X1265021Y4160442D01*
X1263212Y4157996D01*
X1261426Y4155547D01*
X1259656Y4153086D01*
X1257910Y4150623D01*
X1256180Y4148149D01*
X1254472Y4145672D01*
X1252782Y4143185D01*
X1251114Y4140695D01*
X1249464Y4138195D01*
X1247836Y4135693D01*
X1246225Y4133180D01*
X1244637Y4130666D01*
X1243067Y4128142D01*
X1241519Y4125616D01*
X1239988Y4123080D01*
X1238480Y4120543D01*
X1236990Y4117996D01*
X1235522Y4115448D01*
X1234072Y4112890D01*
X1232644Y4110332D01*
X1231234Y4107764D01*
X1229847Y4105196D01*
X1228477Y4102619D01*
X1227130Y4100041D01*
X1225801Y4097454D01*
X1224495Y4094866D01*
X1223206Y4092270D01*
X1221940Y4089674D01*
X1220691Y4087070D01*
X1219465Y4084465D01*
X1218258Y4081852D01*
X1217072Y4079239D01*
X1215905Y4076618D01*
X1214759Y4073997D01*
X1213632Y4071368D01*
X1212528Y4068740D01*
X1211441Y4066103D01*
X1210377Y4063468D01*
X1209331Y4060824D01*
X1208306Y4058182D01*
X1207301Y4055531D01*
X1206317Y4052882D01*
X1205352Y4050224D01*
X1204408Y4047568D01*
X1203483Y4044905D01*
X1202580Y4042242D01*
X1201695Y4039573D01*
X1200832Y4036904D01*
X1199988Y4034229D01*
X1199165Y4031554D01*
X1198361Y4028873D01*
X1197578Y4026193D01*
X1196814Y4023506D01*
X1196072Y4020821D01*
X1195348Y4018129D01*
X1194646Y4015438D01*
X1193962Y4012741D01*
X1193300Y4010045D01*
X1192656Y4007342D01*
X1192034Y4004641D01*
X1191431Y4001934D01*
X1190848Y3999229D01*
X1190285Y3996517D01*
X1189742Y3993806D01*
X1189219Y3991090D01*
X1188717Y3988375D01*
X1188233Y3985654D01*
X1187771Y3982935D01*
X1187328Y3980210D01*
X1186905Y3977486D01*
X1186502Y3974757D01*
X1186119Y3972029D01*
X1185756Y3969295D01*
X1185413Y3966563D01*
X1185089Y3963826D01*
X1184786Y3961090D01*
X1184503Y3958348D01*
X1184240Y3955608D01*
X1183996Y3952863D01*
X1183773Y3950119D01*
X1183569Y3947370D01*
X1183386Y3944623D01*
X1183222Y3941870D01*
X1183217Y3941772D01*
D10*
X1892986Y30691620D02*
X2802475Y31463971D01*
X1930705Y24268679D02*
X996968Y25202423D01*
D11*
X1930706Y10731321D02*
X1935663Y10736222D01*
X1940673Y10741063D01*
X1945737Y10745845D01*
X1950854Y10750567D01*
X1956024Y10755229D01*
X1961248Y10759832D01*
X1966524Y10764375D01*
X1971852Y10768858D01*
X1977233Y10773281D01*
X1982666Y10777643D01*
X1988152Y10781945D01*
X1993689Y10786186D01*
X1999278Y10790366D01*
X2004919Y10794485D01*
X2010611Y10798543D01*
X2016355Y10802539D01*
X2022149Y10806473D01*
X2027994Y10810345D01*
X2033889Y10814155D01*
X2039835Y10817902D01*
X2045831Y10821586D01*
X2051877Y10825207D01*
X2057972Y10828765D01*
X2064116Y10832259D01*
X2070309Y10835689D01*
X2076551Y10839054D01*
X2082841Y10842355D01*
X2089179Y10845591D01*
X2095565Y10848761D01*
X2101998Y10851866D01*
X2108478Y10854904D01*
X2115004Y10857876D01*
X2121576Y10860781D01*
X2128194Y10863619D01*
X2134857Y10866390D01*
X2141565Y10869092D01*
X2148316Y10871726D01*
X2155112Y10874292D01*
X2161951Y10876788D01*
X2168832Y10879215D01*
X2175755Y10881572D01*
X2182720Y10883859D01*
X2189726Y10886075D01*
X2196772Y10888219D01*
X2203857Y10890293D01*
X2210982Y10892294D01*
X2218144Y10894224D01*
X2225344Y10896080D01*
X2232581Y10897864D01*
X2239854Y10899574D01*
X2247161Y10901210D01*
X2254504Y10902772D01*
X2261879Y10904259D01*
X2269288Y10905672D01*
X2276728Y10907009D01*
X2284198Y10908270D01*
X2291699Y10909456D01*
X2299229Y10910565D01*
X2306787Y10911597D01*
X2314372Y10912553D01*
X2321982Y10913431D01*
X2329618Y10914232D01*
X2337277Y10914954D01*
X2344959Y10915599D01*
X2352663Y10916165D01*
X2360387Y10916652D01*
X2368130Y10917061D01*
X2375891Y10917390D01*
X2383670Y10917641D01*
X2391464Y10917811D01*
X2399272Y10917902D01*
X2407094Y10917913D01*
X2414927Y10917845D01*
X2422771Y10917696D01*
X2430624Y10917467D01*
X2438486Y10917158D01*
X2446353Y10916768D01*
X2454226Y10916298D01*
X2462103Y10915748D01*
X2469983Y10915118D01*
X2477863Y10914407D01*
X2485743Y10913616D01*
X2493622Y10912745D01*
X2501497Y10911793D01*
X2509368Y10910762D01*
X2517233Y10909650D01*
X2525090Y10908459D01*
X2532939Y10907189D01*
X2540777Y10905839D01*
X2548603Y10904410D01*
X2556417Y10902902D01*
X2564215Y10901315D01*
X2568109Y10900492D01*
X2571998Y10899650D01*
X2575883Y10898788D01*
X2579763Y10897907D01*
X2583639Y10897006D01*
X2587510Y10896086D01*
X2591375Y10895146D01*
X2595236Y10894188D01*
X2599090Y10893210D01*
X2602940Y10892212D01*
X2606783Y10891196D01*
X2610621Y10890160D01*
X2614452Y10889106D01*
X2618278Y10888032D01*
X2622096Y10886940D01*
X2625908Y10885828D01*
X2629713Y10884698D01*
X2633512Y10883548D01*
X2637302Y10882381D01*
X2641086Y10881194D01*
X2644862Y10879989D01*
X2648631Y10878765D01*
X2652391Y10877523D01*
X2656145Y10876262D01*
X2659889Y10874983D01*
X2663626Y10873686D01*
X2667353Y10872370D01*
X2671073Y10871036D01*
X2674782Y10869685D01*
X2678484Y10868314D01*
X2682176Y10866927D01*
X2685860Y10865521D01*
X2689532Y10864098D01*
X2693197Y10862656D01*
X2696850Y10861197D01*
X2700496Y10859720D01*
X2704129Y10858226D01*
X2707754Y10856714D01*
X2711367Y10855186D01*
X2714971Y10853639D01*
X2718563Y10852076D01*
X2722146Y10850495D01*
X2725716Y10848898D01*
X2729277Y10847282D01*
X2732825Y10845651D01*
X2736364Y10844002D01*
X2739889Y10842338D01*
X2743404Y10840655D01*
X2746906Y10838957D01*
X2750398Y10837242D01*
X2753876Y10835511D01*
X2757344Y10833762D01*
X2760797Y10831999D01*
X2764241Y10830218D01*
X2767669Y10828423D01*
X2771088Y10826610D01*
X2774491Y10824782D01*
X2777884Y10822937D01*
X2781261Y10821078D01*
X2784628Y10819202D01*
X2787979Y10817312D01*
X2791320Y10815405D01*
X2794644Y10813484D01*
X2797958Y10811545D01*
X2801255Y10809594D01*
X2804541Y10807625D01*
X2807811Y10805644D01*
X2811070Y10803645D01*
X2814311Y10801633D01*
X2817542Y10799605D01*
X2820755Y10797564D01*
X2823957Y10795506D01*
X2827141Y10793436D01*
X2830314Y10791349D01*
X2833469Y10789250D01*
X2836613Y10787135D01*
X2839739Y10785008D01*
X2842853Y10782864D01*
X2845949Y10780708D01*
X2849033Y10778537D01*
X2852099Y10776353D01*
X2855153Y10774154D01*
X2858188Y10771943D01*
X2861211Y10769717D01*
X2864216Y10767479D01*
X2867208Y10765225D01*
X2870182Y10762961D01*
X2873143Y10760680D01*
X2876085Y10758389D01*
X2879014Y10756083D01*
X2881925Y10753766D01*
X2884822Y10751433D01*
X2887701Y10749090D01*
X2890567Y10746732D01*
X2893413Y10744364D01*
X2896247Y10741980D01*
X2899061Y10739587D01*
X2901862Y10737178D01*
X2904643Y10734760D01*
X2907411Y10732327D01*
X2910160Y10729884D01*
X2912895Y10727426D01*
X2915611Y10724959D01*
X2918313Y10722477D01*
X2920995Y10719987D01*
X2923664Y10717481D01*
X2926313Y10714967D01*
X2928948Y10712438D01*
X2931564Y10709900D01*
X2934165Y10707348D01*
X2936747Y10704787D01*
X2939315Y10702212D01*
X2941862Y10699629D01*
X2944396Y10697031D01*
X2946909Y10694425D01*
X2949409Y10691805D01*
X2951888Y10689177D01*
X2954353Y10686535D01*
X2956799Y10683885D01*
X2959229Y10681221D01*
X2961640Y10678549D01*
X2964036Y10675863D01*
X2966412Y10673170D01*
X2968773Y10670463D01*
X2971114Y10667749D01*
X2973441Y10665021D01*
X2975747Y10662286D01*
X2978039Y10659537D01*
X2980310Y10656782D01*
X2982567Y10654012D01*
X2984803Y10651236D01*
X2987025Y10648446D01*
X2989226Y10645650D01*
X2991413Y10642840D01*
X2993579Y10640024D01*
X2995730Y10637194D01*
X2997861Y10634358D01*
X2999976Y10631508D01*
X3002072Y10628652D01*
X3004152Y10625783D01*
X3006212Y10622908D01*
X3008256Y10620020D01*
X3010281Y10617125D01*
X3012290Y10614218D01*
X3014279Y10611305D01*
X3016252Y10608378D01*
X3018206Y10605446D01*
X3020144Y10602501D01*
X3022061Y10599550D01*
X3023963Y10596586D01*
X3025845Y10593617D01*
X3027711Y10590635D01*
X3029557Y10587647D01*
X3031388Y10584647D01*
X3033198Y10581641D01*
X3034992Y10578622D01*
X3036767Y10575598D01*
X3038525Y10572562D01*
X3040263Y10569520D01*
X3041986Y10566466D01*
X3043688Y10563406D01*
X3045374Y10560335D01*
X3047041Y10557257D01*
X3048691Y10554168D01*
X3050321Y10551073D01*
X3051935Y10547966D01*
X3053530Y10544854D01*
X3055108Y10541730D01*
X3056666Y10538601D01*
X3058207Y10535459D01*
X3059729Y10532313D01*
X3061234Y10529154D01*
X3062720Y10525991D01*
X3064189Y10522815D01*
X3065638Y10519635D01*
X3067071Y10516442D01*
X3068484Y10513245D01*
X3069880Y10510036D01*
X3071257Y10506821D01*
X3072617Y10503596D01*
X3073957Y10500365D01*
X3075280Y10497122D01*
X3076584Y10493875D01*
X3077871Y10490616D01*
X3079138Y10487351D01*
X3080388Y10484076D01*
X3080402Y10484039D01*
D10*
X2802475Y31463971D02*
G75*
G02*
X4191167Y30611920I557125J-649671D01*
G01*
X2802483Y3536030D02*
X1892975Y4308381D01*
D11*
X3080401Y24515963D02*
X3077897Y24509458D01*
X3075320Y24502984D01*
X3072670Y24496543D01*
X3069947Y24490135D01*
X3067151Y24483759D01*
X3064283Y24477415D01*
X3061341Y24471105D01*
X3058327Y24464828D01*
X3055240Y24458584D01*
X3052081Y24452373D01*
X3048849Y24446196D01*
X3045545Y24440054D01*
X3042169Y24433945D01*
X3038721Y24427871D01*
X3035200Y24421832D01*
X3031608Y24415828D01*
X3027943Y24409859D01*
X3024207Y24403926D01*
X3020400Y24398030D01*
X3016520Y24392169D01*
X3012569Y24386345D01*
X3008547Y24380559D01*
X3004454Y24374810D01*
X3000289Y24369098D01*
X2996054Y24363426D01*
X2991748Y24357791D01*
X2987371Y24352196D01*
X2982924Y24346641D01*
X2978406Y24341125D01*
X2973819Y24335650D01*
X2969161Y24330216D01*
X2964434Y24324824D01*
X2959638Y24319473D01*
X2954772Y24314165D01*
X2949837Y24308900D01*
X2944834Y24303679D01*
X2939762Y24298502D01*
X2934623Y24293369D01*
X2929415Y24288282D01*
X2924140Y24283240D01*
X2918798Y24278245D01*
X2913389Y24273297D01*
X2907914Y24268397D01*
X2902373Y24263545D01*
X2896767Y24258741D01*
X2891096Y24253988D01*
X2885360Y24249284D01*
X2879560Y24244632D01*
X2873696Y24240030D01*
X2867770Y24235481D01*
X2861781Y24230985D01*
X2855730Y24226543D01*
X2849619Y24222154D01*
X2843446Y24217821D01*
X2837214Y24213543D01*
X2830922Y24209321D01*
X2824572Y24205157D01*
X2818164Y24201050D01*
X2811700Y24197001D01*
X2805179Y24193012D01*
X2798602Y24189082D01*
X2791971Y24185213D01*
X2785286Y24181405D01*
X2778548Y24177659D01*
X2771759Y24173976D01*
X2764918Y24170356D01*
X2758028Y24166800D01*
X2751088Y24163308D01*
X2744101Y24159882D01*
X2737066Y24156522D01*
X2729986Y24153229D01*
X2722861Y24150003D01*
X2715692Y24146845D01*
X2708480Y24143755D01*
X2701227Y24140735D01*
X2693934Y24137785D01*
X2686602Y24134905D01*
X2679232Y24132096D01*
X2671826Y24129359D01*
X2664384Y24126694D01*
X2656908Y24124102D01*
X2649400Y24121583D01*
X2641860Y24119138D01*
X2634290Y24116768D01*
X2626691Y24114472D01*
X2619065Y24112251D01*
X2611413Y24110106D01*
X2603736Y24108038D01*
X2596036Y24106045D01*
X2588314Y24104130D01*
X2580571Y24102293D01*
X2572810Y24100532D01*
X2568923Y24099682D01*
X2565031Y24098850D01*
X2561136Y24098039D01*
X2557236Y24097247D01*
X2553333Y24096474D01*
X2549426Y24095722D01*
X2545516Y24094989D01*
X2541603Y24094276D01*
X2537687Y24093582D01*
X2533768Y24092909D01*
X2529847Y24092255D01*
X2525922Y24091621D01*
X2521996Y24091007D01*
X2518068Y24090413D01*
X2514138Y24089839D01*
X2510206Y24089285D01*
X2506273Y24088751D01*
X2502338Y24088237D01*
X2498402Y24087743D01*
X2494465Y24087269D01*
X2490527Y24086815D01*
X2486588Y24086381D01*
X2482650Y24085967D01*
X2478710Y24085573D01*
X2474772Y24085199D01*
X2470832Y24084846D01*
X2466894Y24084513D01*
X2462954Y24084199D01*
X2459017Y24083906D01*
X2455079Y24083633D01*
X2451143Y24083380D01*
X2447207Y24083147D01*
X2443274Y24082934D01*
X2439341Y24082742D01*
X2435411Y24082569D01*
X2431480Y24082417D01*
X2427554Y24082285D01*
X2423628Y24082173D01*
X2419706Y24082081D01*
X2415785Y24082009D01*
X2411868Y24081957D01*
X2407952Y24081925D01*
X2404041Y24081913D01*
X2400130Y24081921D01*
X2396226Y24081950D01*
X2392322Y24081998D01*
X2388424Y24082066D01*
X2384528Y24082154D01*
X2380638Y24082262D01*
X2376749Y24082390D01*
X2372867Y24082538D01*
X2368987Y24082706D01*
X2365114Y24082894D01*
X2361243Y24083101D01*
X2357379Y24083328D01*
X2353518Y24083576D01*
X2349664Y24083842D01*
X2345813Y24084129D01*
X2341970Y24084435D01*
X2338129Y24084761D01*
X2334297Y24085106D01*
X2330468Y24085471D01*
X2326648Y24085856D01*
X2322830Y24086260D01*
X2319022Y24086683D01*
X2315217Y24087127D01*
X2311422Y24087589D01*
X2307630Y24088071D01*
X2303848Y24088572D01*
X2300069Y24089092D01*
X2296301Y24089632D01*
X2292536Y24090191D01*
X2288782Y24090769D01*
X2285032Y24091367D01*
X2281293Y24091983D01*
X2277557Y24092618D01*
X2273833Y24093273D01*
X2270113Y24093946D01*
X2266404Y24094638D01*
X2262700Y24095350D01*
X2259008Y24096080D01*
X2255320Y24096829D01*
X2251644Y24097596D01*
X2247973Y24098383D01*
X2244314Y24099188D01*
X2240659Y24100012D01*
X2237018Y24100854D01*
X2233381Y24101715D01*
X2229757Y24102594D01*
X2226138Y24103492D01*
X2222533Y24104407D01*
X2218932Y24105342D01*
X2215345Y24106294D01*
X2211763Y24107266D01*
X2208194Y24108254D01*
X2204631Y24109262D01*
X2201082Y24110287D01*
X2197539Y24111331D01*
X2194009Y24112392D01*
X2190485Y24113471D01*
X2186975Y24114568D01*
X2183471Y24115684D01*
X2179981Y24116816D01*
X2176498Y24117967D01*
X2173029Y24119135D01*
X2169566Y24120322D01*
X2166117Y24121525D01*
X2162675Y24122747D01*
X2159248Y24123984D01*
X2155827Y24125241D01*
X2152421Y24126514D01*
X2149021Y24127806D01*
X2145637Y24129113D01*
X2142259Y24130440D01*
X2138896Y24131782D01*
X2135540Y24133142D01*
X2132200Y24134519D01*
X2128866Y24135914D01*
X2125548Y24137324D01*
X2122237Y24138753D01*
X2118941Y24140197D01*
X2115653Y24141660D01*
X2112380Y24143138D01*
X2109114Y24144635D01*
X2105864Y24146147D01*
X2102621Y24147677D01*
X2099394Y24149222D01*
X2096175Y24150785D01*
X2092972Y24152363D01*
X2089776Y24153960D01*
X2086596Y24155571D01*
X2083424Y24157201D01*
X2080267Y24158845D01*
X2077119Y24160507D01*
X2073986Y24162184D01*
X2070862Y24163879D01*
X2067754Y24165589D01*
X2064653Y24167316D01*
X2061569Y24169058D01*
X2058493Y24170818D01*
X2055433Y24172592D01*
X2052382Y24174384D01*
X2049346Y24176190D01*
X2046319Y24178015D01*
X2043308Y24179853D01*
X2040306Y24181709D01*
X2037320Y24183579D01*
X2034343Y24185467D01*
X2031381Y24187368D01*
X2028429Y24189288D01*
X2025493Y24191221D01*
X2022566Y24193172D01*
X2019654Y24195137D01*
X2016752Y24197119D01*
X2013866Y24199115D01*
X2010989Y24201129D01*
X2008129Y24203156D01*
X2005277Y24205201D01*
X2002442Y24207259D01*
X1999616Y24209335D01*
X1996806Y24211424D01*
X1994006Y24213531D01*
X1991222Y24215651D01*
X1988447Y24217788D01*
X1985688Y24219939D01*
X1982940Y24222108D01*
X1980207Y24224289D01*
X1977484Y24226488D01*
X1974777Y24228700D01*
X1972080Y24230930D01*
X1969399Y24233173D01*
X1966728Y24235433D01*
X1964073Y24237706D01*
X1961429Y24239996D01*
X1958800Y24242300D01*
X1956181Y24244621D01*
X1953578Y24246955D01*
X1950986Y24249306D01*
X1948410Y24251670D01*
X1945844Y24254051D01*
X1943294Y24256446D01*
X1940754Y24258857D01*
X1938230Y24261282D01*
X1935717Y24263724D01*
X1933220Y24266178D01*
X1930734Y24268650D01*
X1930705Y24268679D01*
D10*
X3080402Y10484039D02*
G75*
G02*
X3401704Y7636371I-5431002J-2054739D01*
G01*
X3278492Y28180053D02*
G75*
G02*
X4191192Y30611905I3696008J47D01*
G01*
X3278492Y6819948D02*
G75*
G02*
X3324194Y7399397I3698108J-148D01*
G01*
X3324194Y27600604D02*
G75*
G02*
X3278492Y28180053I3652406J579596D01*
G01*
D11*
X3324194Y27600604D02*
X3325991Y27597255D01*
X3327768Y27593900D01*
X3329525Y27590541D01*
X3331262Y27587176D01*
X3332979Y27583808D01*
X3334676Y27580433D01*
X3336353Y27577055D01*
X3338010Y27573671D01*
X3339647Y27570283D01*
X3341265Y27566889D01*
X3342863Y27563490D01*
X3344441Y27560086D01*
X3345999Y27556677D01*
X3347538Y27553263D01*
X3349057Y27549843D01*
X3350557Y27546418D01*
X3352037Y27542988D01*
X3353498Y27539552D01*
X3354939Y27536112D01*
X3356361Y27532665D01*
X3357764Y27529213D01*
X3359147Y27525756D01*
X3360511Y27522293D01*
X3361856Y27518824D01*
X3363181Y27515350D01*
X3364487Y27511869D01*
X3365774Y27508383D01*
X3367042Y27504891D01*
X3368291Y27501394D01*
X3369520Y27497890D01*
X3370731Y27494380D01*
X3371922Y27490864D01*
X3373095Y27487343D01*
X3374248Y27483815D01*
X3376498Y27476740D01*
X3378671Y27469640D01*
X3380769Y27462515D01*
X3382791Y27455364D01*
X3384738Y27448186D01*
X3386609Y27440981D01*
X3388404Y27433749D01*
X3390124Y27426489D01*
X3391768Y27419201D01*
X3393336Y27411884D01*
X3394829Y27404538D01*
X3396247Y27397163D01*
X3397588Y27389758D01*
X3398854Y27382321D01*
X3400044Y27374854D01*
X3401158Y27367356D01*
X3401682Y27363628D01*
D10*
X3401682Y27363628D02*
G75*
G02*
X3080403Y24515962I-5752682J-792928D01*
G01*
D11*
X3401683Y7636374D02*
X3401154Y7632610D01*
X3400606Y7628853D01*
X3400039Y7625105D01*
X3399452Y7621364D01*
X3398847Y7617632D01*
X3398223Y7613906D01*
X3397580Y7610190D01*
X3396917Y7606480D01*
X3396236Y7602779D01*
X3395536Y7599085D01*
X3394817Y7595399D01*
X3394079Y7591719D01*
X3393322Y7588049D01*
X3392547Y7584384D01*
X3391752Y7580728D01*
X3390938Y7577078D01*
X3390106Y7573436D01*
X3389255Y7569801D01*
X3388385Y7566173D01*
X3387496Y7562552D01*
X3386588Y7558939D01*
X3385661Y7555331D01*
X3384715Y7551731D01*
X3383751Y7548138D01*
X3382767Y7544552D01*
X3381765Y7540972D01*
X3380744Y7537399D01*
X3379703Y7533832D01*
X3378644Y7530272D01*
X3377566Y7526719D01*
X3376469Y7523172D01*
X3375353Y7519631D01*
X3374218Y7516097D01*
X3373065Y7512569D01*
X3370700Y7505532D01*
X3368259Y7498519D01*
X3365742Y7491531D01*
X3363148Y7484566D01*
X3360477Y7477625D01*
X3357730Y7470706D01*
X3354906Y7463810D01*
X3352004Y7456937D01*
X3349025Y7450085D01*
X3345967Y7443255D01*
X3342832Y7436446D01*
X3339618Y7429657D01*
X3336325Y7422890D01*
X3332953Y7416142D01*
X3329501Y7409414D01*
X3325969Y7402706D01*
X3324194Y7399397D01*
D10*
X4191178Y4388085D02*
G75*
G02*
X2802471Y3536016I-831578J-202385D01*
G01*
X4191178Y4388085D02*
G75*
G02*
X3278507Y6819948I2783722J2431915D01*
G01*
X4416705Y0D02*
G75*
G02*
X1475605Y2408426I-5J3000000D01*
G01*
X4416705Y0D02*
X135583295Y0D01*
X10604333Y35000000D02*
X4416705Y35000000D01*
X11104326Y34500000D02*
G75*
G02*
X10604400Y35000000I-26J499900D01*
G01*
D12*
X24300000Y16775000D02*
G75*
G02*
X10700000Y16775000I-6800000J0D01*
G01*
X10700000Y16775000D02*
G75*
G02*
X24300000Y16775000I6800000J0D01*
G01*
X67300000Y16775000D02*
G75*
G02*
X53700000Y16775000I-6800000J0D01*
G01*
X53700000Y16775000D02*
G75*
G02*
X67300000Y16775000I6800000J0D01*
G01*
X106300000Y16775000D02*
G75*
G02*
X92700000Y16775000I-6800000J0D01*
G01*
X92700000Y16775000D02*
G75*
G02*
X106300000Y16775000I6800000J0D01*
G01*
X129300000Y16775000D02*
G75*
G02*
X115700000Y16775000I-6800000J0D01*
G01*
X115700000Y16775000D02*
G75*
G02*
X129300000Y16775000I6800000J0D01*
G01*
D10*
X128895674Y34500000D02*
X11104326Y34500000D01*
X129395667Y35000000D02*
G75*
G02*
X128895674Y34499933I-500067J0D01*
G01*
X135583295Y35000000D02*
X129395667Y35000000D01*
X135583295Y35000000D02*
G75*
G02*
X138524395Y32591574I5J-3000000D01*
G01*
X135784538Y30814335D02*
G75*
G02*
X137197536Y31463992I855862J-35D01*
G01*
X135784538Y4185655D02*
G75*
G02*
X135808814Y4388085I853262J345D01*
G01*
X135808821Y30611916D02*
G75*
G02*
X135784540Y30814335I827979J201984D01*
G01*
X135808821Y30611916D02*
G75*
G02*
X136675801Y27600604I-2783721J-2431916D01*
G01*
X136543922Y26570675D02*
G75*
G02*
X136598313Y27363627I5801078J425D01*
G01*
X136543923Y8429323D02*
G75*
G02*
X136919592Y10484040I5807077J-23D01*
G01*
D11*
X136598317Y27363626D02*
X136598846Y27367390D01*
X136599394Y27371147D01*
X136599961Y27374895D01*
X136600547Y27378636D01*
X136601152Y27382368D01*
X136601777Y27386093D01*
X136602420Y27389809D01*
X136603082Y27393519D01*
X136603763Y27397220D01*
X136604463Y27400914D01*
X136605182Y27404600D01*
X136605920Y27408279D01*
X136606676Y27411950D01*
X136607452Y27415614D01*
X136608246Y27419270D01*
X136609060Y27422920D01*
X136609892Y27426561D01*
X136610743Y27430197D01*
X136611613Y27433824D01*
X136612502Y27437445D01*
X136613410Y27441058D01*
X136614337Y27444665D01*
X136615282Y27448265D01*
X136616247Y27451858D01*
X136617230Y27455444D01*
X136618232Y27459024D01*
X136619253Y27462597D01*
X136620293Y27466163D01*
X136621352Y27469723D01*
X136622430Y27473276D01*
X136623527Y27476823D01*
X136624643Y27480363D01*
X136625778Y27483897D01*
X136626932Y27487425D01*
X136629296Y27494462D01*
X136631737Y27501474D01*
X136634254Y27508462D01*
X136636847Y27515427D01*
X136639517Y27522368D01*
X136642264Y27529286D01*
X136645089Y27536181D01*
X136647990Y27543054D01*
X136650969Y27549905D01*
X136654026Y27556735D01*
X136657162Y27563543D01*
X136660375Y27570331D01*
X136663668Y27577098D01*
X136667040Y27583846D01*
X136670491Y27590573D01*
X136674022Y27597281D01*
X136675805Y27600603D01*
D10*
X136598318Y7636372D02*
G75*
G02*
X136543919Y8429323I5744482J792428D01*
G01*
X136675806Y7399396D02*
G75*
G02*
X135808815Y4388089I-3650306J-579496D01*
G01*
D11*
X136675806Y7399396D02*
X136674009Y7402745D01*
X136672232Y7406100D01*
X136670475Y7409459D01*
X136668738Y7412824D01*
X136667021Y7416192D01*
X136665324Y7419567D01*
X136663647Y7422945D01*
X136661990Y7426329D01*
X136660353Y7429717D01*
X136658735Y7433111D01*
X136657137Y7436510D01*
X136655559Y7439914D01*
X136654001Y7443323D01*
X136652462Y7446737D01*
X136650943Y7450157D01*
X136649443Y7453582D01*
X136647963Y7457012D01*
X136646502Y7460448D01*
X136645061Y7463888D01*
X136643639Y7467335D01*
X136642236Y7470787D01*
X136640853Y7474244D01*
X136639489Y7477707D01*
X136638144Y7481176D01*
X136636819Y7484650D01*
X136635513Y7488131D01*
X136634226Y7491617D01*
X136632958Y7495109D01*
X136631709Y7498606D01*
X136630480Y7502110D01*
X136629269Y7505620D01*
X136628078Y7509136D01*
X136626905Y7512657D01*
X136625752Y7516185D01*
X136623502Y7523260D01*
X136621329Y7530360D01*
X136619231Y7537485D01*
X136617209Y7544636D01*
X136615262Y7551814D01*
X136613391Y7559019D01*
X136611596Y7566251D01*
X136609876Y7573511D01*
X136608232Y7580799D01*
X136606664Y7588116D01*
X136605171Y7595462D01*
X136603753Y7602837D01*
X136602412Y7610242D01*
X136601146Y7617679D01*
X136599956Y7625146D01*
X136598842Y7632644D01*
X136598318Y7636372D01*
D10*
X136919598Y24515961D02*
G75*
G02*
X136543938Y26570675I5431002J2054639D01*
G01*
D11*
X136919599Y10484037D02*
X136922103Y10490542D01*
X136924680Y10497016D01*
X136927330Y10503457D01*
X136930053Y10509865D01*
X136932849Y10516241D01*
X136935717Y10522585D01*
X136938659Y10528895D01*
X136941673Y10535172D01*
X136944760Y10541416D01*
X136947919Y10547627D01*
X136951151Y10553804D01*
X136954455Y10559946D01*
X136957831Y10566055D01*
X136961279Y10572129D01*
X136964800Y10578168D01*
X136968392Y10584172D01*
X136972057Y10590141D01*
X136975793Y10596074D01*
X136979600Y10601970D01*
X136983480Y10607831D01*
X136987431Y10613655D01*
X136991453Y10619441D01*
X136995546Y10625190D01*
X136999711Y10630902D01*
X137003946Y10636574D01*
X137008252Y10642209D01*
X137012629Y10647804D01*
X137017076Y10653359D01*
X137021594Y10658875D01*
X137026181Y10664350D01*
X137030839Y10669784D01*
X137035566Y10675176D01*
X137040362Y10680527D01*
X137045228Y10685835D01*
X137050163Y10691100D01*
X137055166Y10696321D01*
X137060238Y10701498D01*
X137065377Y10706631D01*
X137070585Y10711718D01*
X137075860Y10716760D01*
X137081202Y10721755D01*
X137086611Y10726703D01*
X137092086Y10731603D01*
X137097627Y10736455D01*
X137103233Y10741259D01*
X137108904Y10746012D01*
X137114640Y10750716D01*
X137120440Y10755368D01*
X137126304Y10759970D01*
X137132230Y10764519D01*
X137138219Y10769015D01*
X137144270Y10773457D01*
X137150381Y10777846D01*
X137156554Y10782179D01*
X137162786Y10786457D01*
X137169078Y10790679D01*
X137175428Y10794843D01*
X137181836Y10798950D01*
X137188300Y10802999D01*
X137194821Y10806988D01*
X137201398Y10810918D01*
X137208029Y10814787D01*
X137214714Y10818595D01*
X137221452Y10822341D01*
X137228241Y10826024D01*
X137235082Y10829644D01*
X137241972Y10833200D01*
X137248912Y10836692D01*
X137255899Y10840118D01*
X137262934Y10843478D01*
X137270014Y10846771D01*
X137277139Y10849997D01*
X137284308Y10853155D01*
X137291520Y10856245D01*
X137298773Y10859265D01*
X137306066Y10862215D01*
X137313398Y10865095D01*
X137320768Y10867904D01*
X137328174Y10870641D01*
X137335616Y10873306D01*
X137343092Y10875898D01*
X137350600Y10878417D01*
X137358140Y10880862D01*
X137365710Y10883232D01*
X137373309Y10885528D01*
X137380935Y10887749D01*
X137388587Y10889894D01*
X137396264Y10891962D01*
X137403964Y10893955D01*
X137411686Y10895870D01*
X137419429Y10897707D01*
X137427190Y10899468D01*
X137431077Y10900318D01*
X137434969Y10901150D01*
X137438864Y10901961D01*
X137442764Y10902753D01*
X137446667Y10903526D01*
X137450574Y10904278D01*
X137454484Y10905011D01*
X137458397Y10905724D01*
X137462313Y10906418D01*
X137466232Y10907091D01*
X137470153Y10907745D01*
X137474078Y10908379D01*
X137478004Y10908993D01*
X137481932Y10909587D01*
X137485862Y10910161D01*
X137489794Y10910715D01*
X137493727Y10911249D01*
X137497662Y10911763D01*
X137501598Y10912257D01*
X137505535Y10912731D01*
X137509473Y10913185D01*
X137513412Y10913619D01*
X137517350Y10914033D01*
X137521290Y10914427D01*
X137525228Y10914801D01*
X137529168Y10915154D01*
X137533106Y10915487D01*
X137537046Y10915801D01*
X137540983Y10916094D01*
X137544921Y10916367D01*
X137548857Y10916620D01*
X137552793Y10916853D01*
X137556726Y10917066D01*
X137560659Y10917258D01*
X137564589Y10917431D01*
X137568520Y10917583D01*
X137572446Y10917715D01*
X137576372Y10917827D01*
X137580294Y10917919D01*
X137584215Y10917991D01*
X137588132Y10918043D01*
X137592048Y10918075D01*
X137595959Y10918087D01*
X137599870Y10918079D01*
X137603774Y10918050D01*
X137607678Y10918002D01*
X137611576Y10917934D01*
X137615472Y10917846D01*
X137619362Y10917738D01*
X137623251Y10917610D01*
X137627133Y10917462D01*
X137631013Y10917294D01*
X137634886Y10917106D01*
X137638757Y10916899D01*
X137642621Y10916672D01*
X137646482Y10916424D01*
X137650336Y10916158D01*
X137654187Y10915871D01*
X137658030Y10915565D01*
X137661871Y10915239D01*
X137665703Y10914894D01*
X137669532Y10914529D01*
X137673352Y10914144D01*
X137677170Y10913740D01*
X137680978Y10913317D01*
X137684783Y10912873D01*
X137688578Y10912411D01*
X137692370Y10911929D01*
X137696152Y10911428D01*
X137699931Y10910908D01*
X137703699Y10910368D01*
X137707464Y10909809D01*
X137711218Y10909231D01*
X137714968Y10908633D01*
X137718707Y10908017D01*
X137722443Y10907382D01*
X137726167Y10906727D01*
X137729887Y10906054D01*
X137733596Y10905362D01*
X137737300Y10904650D01*
X137740992Y10903920D01*
X137744680Y10903171D01*
X137748356Y10902404D01*
X137752027Y10901617D01*
X137755686Y10900812D01*
X137759341Y10899988D01*
X137762982Y10899146D01*
X137766619Y10898285D01*
X137770243Y10897406D01*
X137773862Y10896508D01*
X137777467Y10895593D01*
X137781068Y10894658D01*
X137784655Y10893706D01*
X137788237Y10892734D01*
X137791806Y10891746D01*
X137795369Y10890738D01*
X137798918Y10889713D01*
X137802461Y10888669D01*
X137805991Y10887608D01*
X137809515Y10886529D01*
X137813025Y10885432D01*
X137816529Y10884316D01*
X137820019Y10883184D01*
X137823502Y10882033D01*
X137826971Y10880865D01*
X137830434Y10879678D01*
X137833883Y10878475D01*
X137837325Y10877253D01*
X137840752Y10876016D01*
X137844173Y10874759D01*
X137847579Y10873486D01*
X137850979Y10872194D01*
X137854363Y10870887D01*
X137857741Y10869560D01*
X137861104Y10868218D01*
X137864460Y10866858D01*
X137867800Y10865481D01*
X137871134Y10864086D01*
X137874452Y10862676D01*
X137877763Y10861247D01*
X137881059Y10859803D01*
X137884347Y10858340D01*
X137887620Y10856862D01*
X137890886Y10855365D01*
X137894136Y10853853D01*
X137897379Y10852323D01*
X137900606Y10850778D01*
X137903825Y10849215D01*
X137907028Y10847637D01*
X137910224Y10846040D01*
X137913404Y10844429D01*
X137916576Y10842799D01*
X137919733Y10841155D01*
X137922881Y10839493D01*
X137926014Y10837816D01*
X137929138Y10836121D01*
X137932246Y10834411D01*
X137935347Y10832684D01*
X137938431Y10830942D01*
X137941507Y10829182D01*
X137944567Y10827408D01*
X137947618Y10825616D01*
X137950654Y10823810D01*
X137953681Y10821985D01*
X137956692Y10820147D01*
X137959694Y10818291D01*
X137962680Y10816421D01*
X137965657Y10814533D01*
X137968619Y10812632D01*
X137971571Y10810712D01*
X137974507Y10808779D01*
X137977434Y10806828D01*
X137980346Y10804863D01*
X137983248Y10802881D01*
X137986134Y10800885D01*
X137989011Y10798871D01*
X137991871Y10796844D01*
X137994723Y10794799D01*
X137997558Y10792741D01*
X138000384Y10790665D01*
X138003194Y10788576D01*
X138005994Y10786469D01*
X138008778Y10784349D01*
X138011553Y10782212D01*
X138014312Y10780061D01*
X138017060Y10777892D01*
X138019793Y10775711D01*
X138022516Y10773512D01*
X138025223Y10771300D01*
X138027920Y10769070D01*
X138030601Y10766827D01*
X138033272Y10764567D01*
X138035927Y10762294D01*
X138038571Y10760004D01*
X138041200Y10757700D01*
X138043819Y10755379D01*
X138046422Y10753045D01*
X138049014Y10750694D01*
X138051590Y10748330D01*
X138054156Y10745949D01*
X138056706Y10743554D01*
X138059246Y10741143D01*
X138061770Y10738718D01*
X138064283Y10736276D01*
X138066780Y10733822D01*
X138069266Y10731350D01*
X138069295Y10731321D01*
D10*
X137197516Y31463969D02*
X138107025Y30691619D01*
X137197525Y3536029D02*
G75*
G02*
X135784561Y4185655I-557125J649671D01*
G01*
D11*
X138069294Y24268679D02*
X138064337Y24263778D01*
X138059327Y24258937D01*
X138054263Y24254155D01*
X138049146Y24249433D01*
X138043976Y24244771D01*
X138038752Y24240168D01*
X138033476Y24235625D01*
X138028148Y24231142D01*
X138022767Y24226719D01*
X138017334Y24222357D01*
X138011848Y24218055D01*
X138006311Y24213814D01*
X138000722Y24209634D01*
X137995081Y24205515D01*
X137989389Y24201457D01*
X137983645Y24197461D01*
X137977851Y24193527D01*
X137972006Y24189655D01*
X137966111Y24185845D01*
X137960165Y24182098D01*
X137954169Y24178414D01*
X137948123Y24174793D01*
X137942028Y24171235D01*
X137935884Y24167741D01*
X137929691Y24164311D01*
X137923449Y24160946D01*
X137917159Y24157645D01*
X137910821Y24154409D01*
X137904435Y24151239D01*
X137898002Y24148134D01*
X137891522Y24145096D01*
X137884996Y24142124D01*
X137878424Y24139219D01*
X137871806Y24136381D01*
X137865143Y24133610D01*
X137858435Y24130908D01*
X137851684Y24128274D01*
X137844888Y24125708D01*
X137838049Y24123212D01*
X137831168Y24120785D01*
X137824245Y24118428D01*
X137817280Y24116141D01*
X137810274Y24113925D01*
X137803228Y24111781D01*
X137796143Y24109707D01*
X137789018Y24107706D01*
X137781856Y24105776D01*
X137774656Y24103920D01*
X137767419Y24102136D01*
X137760146Y24100426D01*
X137752839Y24098790D01*
X137745496Y24097228D01*
X137738121Y24095741D01*
X137730712Y24094328D01*
X137723272Y24092991D01*
X137715802Y24091730D01*
X137708301Y24090544D01*
X137700771Y24089435D01*
X137693213Y24088403D01*
X137685628Y24087447D01*
X137678018Y24086569D01*
X137670382Y24085768D01*
X137662723Y24085046D01*
X137655041Y24084401D01*
X137647337Y24083835D01*
X137639613Y24083348D01*
X137631870Y24082939D01*
X137624109Y24082610D01*
X137616330Y24082359D01*
X137608536Y24082189D01*
X137600728Y24082098D01*
X137592906Y24082087D01*
X137585073Y24082155D01*
X137577229Y24082304D01*
X137569376Y24082533D01*
X137561514Y24082842D01*
X137553647Y24083232D01*
X137545774Y24083702D01*
X137537897Y24084252D01*
X137530017Y24084882D01*
X137522137Y24085593D01*
X137514257Y24086384D01*
X137506378Y24087255D01*
X137498503Y24088207D01*
X137490632Y24089238D01*
X137482767Y24090350D01*
X137474910Y24091541D01*
X137467061Y24092811D01*
X137459223Y24094161D01*
X137451397Y24095590D01*
X137443583Y24097098D01*
X137435785Y24098685D01*
X137431891Y24099508D01*
X137428002Y24100350D01*
X137424117Y24101212D01*
X137420237Y24102093D01*
X137416361Y24102994D01*
X137412490Y24103914D01*
X137408625Y24104854D01*
X137404764Y24105812D01*
X137400910Y24106790D01*
X137397060Y24107788D01*
X137393217Y24108804D01*
X137389379Y24109840D01*
X137385548Y24110894D01*
X137381722Y24111968D01*
X137377904Y24113060D01*
X137374092Y24114172D01*
X137370287Y24115302D01*
X137366488Y24116452D01*
X137362698Y24117619D01*
X137358914Y24118806D01*
X137355138Y24120011D01*
X137351369Y24121235D01*
X137347609Y24122477D01*
X137343855Y24123738D01*
X137340111Y24125017D01*
X137336374Y24126314D01*
X137332647Y24127630D01*
X137328927Y24128964D01*
X137325218Y24130315D01*
X137321516Y24131686D01*
X137317824Y24133073D01*
X137314140Y24134479D01*
X137310468Y24135902D01*
X137306803Y24137344D01*
X137303150Y24138803D01*
X137299504Y24140280D01*
X137295871Y24141774D01*
X137292246Y24143286D01*
X137288633Y24144814D01*
X137285029Y24146361D01*
X137281437Y24147924D01*
X137277854Y24149505D01*
X137274284Y24151102D01*
X137270723Y24152718D01*
X137267175Y24154349D01*
X137263636Y24155998D01*
X137260111Y24157662D01*
X137256596Y24159345D01*
X137253094Y24161043D01*
X137249602Y24162758D01*
X137246124Y24164489D01*
X137242656Y24166238D01*
X137239203Y24168001D01*
X137235759Y24169782D01*
X137232331Y24171577D01*
X137228912Y24173390D01*
X137225509Y24175218D01*
X137222116Y24177063D01*
X137218739Y24178922D01*
X137215372Y24180798D01*
X137212021Y24182688D01*
X137208680Y24184595D01*
X137205356Y24186516D01*
X137202042Y24188455D01*
X137198745Y24190406D01*
X137195459Y24192375D01*
X137192189Y24194356D01*
X137188930Y24196355D01*
X137185689Y24198367D01*
X137182458Y24200395D01*
X137179245Y24202436D01*
X137176043Y24204494D01*
X137172859Y24206564D01*
X137169686Y24208651D01*
X137166531Y24210750D01*
X137163387Y24212865D01*
X137160261Y24214992D01*
X137157147Y24217136D01*
X137154051Y24219292D01*
X137150967Y24221463D01*
X137147901Y24223647D01*
X137144847Y24225846D01*
X137141812Y24228057D01*
X137138789Y24230283D01*
X137135784Y24232521D01*
X137132792Y24234775D01*
X137129818Y24237039D01*
X137126857Y24239320D01*
X137123915Y24241611D01*
X137120986Y24243917D01*
X137118075Y24246234D01*
X137115178Y24248567D01*
X137112299Y24250910D01*
X137109433Y24253268D01*
X137106587Y24255636D01*
X137103753Y24258020D01*
X137100939Y24260413D01*
X137098138Y24262822D01*
X137095357Y24265240D01*
X137092589Y24267673D01*
X137089840Y24270116D01*
X137087105Y24272574D01*
X137084389Y24275041D01*
X137081687Y24277523D01*
X137079005Y24280013D01*
X137076336Y24282519D01*
X137073687Y24285033D01*
X137071052Y24287562D01*
X137068436Y24290100D01*
X137065835Y24292652D01*
X137063253Y24295213D01*
X137060685Y24297788D01*
X137058138Y24300371D01*
X137055604Y24302969D01*
X137053091Y24305575D01*
X137050591Y24308195D01*
X137048112Y24310823D01*
X137045647Y24313465D01*
X137043201Y24316115D01*
X137040771Y24318779D01*
X137038360Y24321451D01*
X137035964Y24324137D01*
X137033588Y24326830D01*
X137031227Y24329537D01*
X137028886Y24332251D01*
X137026559Y24334979D01*
X137024253Y24337714D01*
X137021961Y24340463D01*
X137019690Y24343218D01*
X137017433Y24345988D01*
X137015197Y24348764D01*
X137012975Y24351554D01*
X137010774Y24354350D01*
X137008587Y24357160D01*
X137006421Y24359976D01*
X137004270Y24362806D01*
X137002139Y24365642D01*
X137000024Y24368492D01*
X136997928Y24371348D01*
X136995848Y24374217D01*
X136993788Y24377092D01*
X136991744Y24379980D01*
X136989719Y24382875D01*
X136987710Y24385782D01*
X136985721Y24388695D01*
X136983748Y24391622D01*
X136981794Y24394554D01*
X136979856Y24397499D01*
X136977939Y24400450D01*
X136976037Y24403414D01*
X136974155Y24406383D01*
X136972289Y24409365D01*
X136970443Y24412353D01*
X136968612Y24415353D01*
X136966802Y24418359D01*
X136965008Y24421378D01*
X136963233Y24424402D01*
X136961475Y24427438D01*
X136959737Y24430480D01*
X136958014Y24433534D01*
X136956312Y24436594D01*
X136954626Y24439665D01*
X136952959Y24442743D01*
X136951309Y24445832D01*
X136949679Y24448927D01*
X136948065Y24452034D01*
X136946470Y24455146D01*
X136944892Y24458270D01*
X136943334Y24461399D01*
X136941793Y24464541D01*
X136940271Y24467687D01*
X136938766Y24470846D01*
X136937280Y24474009D01*
X136935811Y24477185D01*
X136934362Y24480365D01*
X136932929Y24483558D01*
X136931516Y24486755D01*
X136930120Y24489964D01*
X136928743Y24493179D01*
X136927383Y24496404D01*
X136926043Y24499635D01*
X136924720Y24502878D01*
X136923416Y24506125D01*
X136922129Y24509384D01*
X136920862Y24512649D01*
X136919612Y24515924D01*
X136919598Y24515961D01*
D10*
X138069295Y10731321D02*
X139003032Y9797577D01*
X138107014Y4308380D02*
X137197525Y3536029D01*
D11*
X138107025Y30691619D02*
X138111700Y30688724D01*
X138116414Y30685898D01*
X138121168Y30683142D01*
X138125961Y30680454D01*
X138130793Y30677837D01*
X138135664Y30675289D01*
X138140575Y30672811D01*
X138145524Y30670402D01*
X138150512Y30668064D01*
X138155538Y30665795D01*
X138160603Y30663597D01*
X138165706Y30661469D01*
X138170846Y30659412D01*
X138176025Y30657426D01*
X138181241Y30655511D01*
X138186494Y30653668D01*
X138191784Y30651896D01*
X138197111Y30650195D01*
X138202474Y30648568D01*
X138207874Y30647012D01*
X138213309Y30645529D01*
X138218780Y30644120D01*
X138224286Y30642784D01*
X138229826Y30641521D01*
X138235400Y30640333D01*
X138241009Y30639219D01*
X138246650Y30638180D01*
X138252324Y30637217D01*
X138258031Y30636328D01*
X138263769Y30635516D01*
X138269538Y30634780D01*
X138275338Y30634120D01*
X138281167Y30633538D01*
X138287025Y30633033D01*
X138292912Y30632606D01*
X138298826Y30632256D01*
X138304767Y30631986D01*
X138310734Y30631794D01*
X138316726Y30631681D01*
X138322742Y30631647D01*
X138328781Y30631694D01*
X138334842Y30631820D01*
X138340924Y30632027D01*
X138347027Y30632315D01*
X138353148Y30632683D01*
X138359287Y30633132D01*
X138365443Y30633663D01*
X138371614Y30634275D01*
X138377800Y30634969D01*
X138383998Y30635745D01*
X138390208Y30636603D01*
X138396427Y30637543D01*
X138402656Y30638565D01*
X138408892Y30639669D01*
X138415133Y30640856D01*
X138421379Y30642125D01*
X138427628Y30643475D01*
X138433878Y30644908D01*
X138440127Y30646423D01*
X138446374Y30648019D01*
X138452617Y30649697D01*
X138458855Y30651457D01*
X138465086Y30653297D01*
X138471308Y30655218D01*
X138477519Y30657220D01*
X138483718Y30659301D01*
X138489902Y30661462D01*
X138496070Y30663702D01*
X138502221Y30666021D01*
X138508351Y30668418D01*
X138514460Y30670892D01*
X138520546Y30673443D01*
X138526607Y30676070D01*
X138532640Y30678772D01*
X138538645Y30681550D01*
X138544618Y30684401D01*
X138550559Y30687325D01*
X138556466Y30690321D01*
X138559406Y30691847D01*
X138562337Y30693389D01*
X138565258Y30694950D01*
X138568170Y30696528D01*
X138571071Y30698123D01*
X138573963Y30699735D01*
X138576843Y30701365D01*
X138579714Y30703011D01*
X138582573Y30704675D01*
X138585422Y30706355D01*
X138588259Y30708052D01*
X138591086Y30709765D01*
X138593899Y30711495D01*
X138596702Y30713241D01*
X138599492Y30715002D01*
X138602271Y30716780D01*
X138605036Y30718574D01*
X138607790Y30720383D01*
X138610529Y30722207D01*
X138613257Y30724048D01*
X138615970Y30725903D01*
X138618671Y30727774D01*
X138621357Y30729658D01*
X138624031Y30731559D01*
X138626689Y30733473D01*
X138629335Y30735403D01*
X138631965Y30737346D01*
X138634582Y30739304D01*
X138637182Y30741275D01*
X138639770Y30743261D01*
X138642340Y30745260D01*
X138644897Y30747273D01*
X138647437Y30749298D01*
X138649964Y30751339D01*
X138652472Y30753390D01*
X138654967Y30755457D01*
X138657444Y30757534D01*
X138659907Y30759626D01*
X138662352Y30761728D01*
X138664782Y30763845D01*
X138667193Y30765971D01*
X138669591Y30768112D01*
X138671968Y30770262D01*
X138674332Y30772427D01*
X138676676Y30774600D01*
X138679005Y30776788D01*
X138681314Y30778984D01*
X138683609Y30781194D01*
X138685883Y30783412D01*
X138688142Y30785643D01*
X138690381Y30787882D01*
X138692605Y30790135D01*
X138694808Y30792395D01*
X138696995Y30794668D01*
X138699162Y30796948D01*
X138701313Y30799241D01*
X138703443Y30801540D01*
X138705557Y30803853D01*
X138707650Y30806171D01*
X138709727Y30808502D01*
X138711783Y30810839D01*
X138713822Y30813188D01*
X138715840Y30815542D01*
X138717842Y30817909D01*
X138719822Y30820280D01*
X138721786Y30822664D01*
X138723727Y30825052D01*
X138725652Y30827452D01*
X138727555Y30829856D01*
X138729442Y30832272D01*
X138731306Y30834692D01*
X138733154Y30837123D01*
X138734979Y30839558D01*
X138736788Y30842004D01*
X138738574Y30844453D01*
X138740344Y30846914D01*
X138742090Y30849377D01*
X138743820Y30851851D01*
X138745528Y30854328D01*
X138747218Y30856815D01*
X138748886Y30859305D01*
X138750536Y30861805D01*
X138752164Y30864307D01*
X138753775Y30866820D01*
X138755363Y30869334D01*
X138756933Y30871858D01*
X138758481Y30874384D01*
X138760012Y30876920D01*
X138761520Y30879457D01*
X138763010Y30882004D01*
X138764478Y30884552D01*
X138765928Y30887110D01*
X138767356Y30889668D01*
X138768766Y30892236D01*
X138770153Y30894804D01*
X138771523Y30897381D01*
X138772870Y30899959D01*
X138774199Y30902546D01*
X138775505Y30905134D01*
X138776794Y30907730D01*
X138778060Y30910326D01*
X138779309Y30912930D01*
X138780535Y30915535D01*
X138781742Y30918148D01*
X138782928Y30920761D01*
X138784095Y30923382D01*
X138785241Y30926003D01*
X138786368Y30928632D01*
X138787472Y30931260D01*
X138788559Y30933897D01*
X138789623Y30936532D01*
X138790669Y30939176D01*
X138791694Y30941818D01*
X138792699Y30944469D01*
X138793683Y30947118D01*
X138794648Y30949776D01*
X138795592Y30952432D01*
X138796517Y30955095D01*
X138797420Y30957758D01*
X138798305Y30960427D01*
X138799168Y30963096D01*
X138800012Y30965771D01*
X138800835Y30968446D01*
X138801639Y30971127D01*
X138802422Y30973807D01*
X138803186Y30976494D01*
X138803928Y30979179D01*
X138804652Y30981871D01*
X138805354Y30984562D01*
X138806038Y30987259D01*
X138806700Y30989955D01*
X138807344Y30992658D01*
X138807966Y30995359D01*
X138808569Y30998066D01*
X138809152Y31000771D01*
X138809715Y31003483D01*
X138810258Y31006194D01*
X138810781Y31008910D01*
X138811283Y31011625D01*
X138811767Y31014346D01*
X138812229Y31017065D01*
X138812672Y31019790D01*
X138813095Y31022514D01*
X138813498Y31025243D01*
X138813881Y31027971D01*
X138814244Y31030705D01*
X138814587Y31033437D01*
X138814911Y31036174D01*
X138815214Y31038910D01*
X138815497Y31041652D01*
X138815760Y31044392D01*
X138816004Y31047137D01*
X138816227Y31049881D01*
X138816431Y31052630D01*
X138816614Y31055377D01*
X138816778Y31058130D01*
X138816783Y31058228D01*
D10*
X138524390Y32591573D02*
G75*
G02*
X138816782Y31058228I-76020690J-15290873D01*
G01*
X138524391Y2408427D02*
G75*
G02*
X135583295Y4I-2941091J591573D01*
G01*
D11*
X138816783Y3941772D02*
X138816438Y3947260D01*
X138816014Y3952740D01*
X138815511Y3958212D01*
X138814928Y3963675D01*
X138814266Y3969131D01*
X138813524Y3974578D01*
X138812703Y3980017D01*
X138811803Y3985447D01*
X138810823Y3990868D01*
X138809764Y3996280D01*
X138808625Y4001682D01*
X138807407Y4007075D01*
X138806109Y4012458D01*
X138804732Y4017830D01*
X138803275Y4023192D01*
X138801738Y4028543D01*
X138800121Y4033883D01*
X138798424Y4039211D01*
X138796648Y4044527D01*
X138794791Y4049830D01*
X138792854Y4055121D01*
X138790838Y4060398D01*
X138788741Y4065661D01*
X138786564Y4070909D01*
X138784306Y4076143D01*
X138781969Y4081361D01*
X138779551Y4086563D01*
X138777053Y4091748D01*
X138774474Y4096916D01*
X138771816Y4102065D01*
X138769077Y4107196D01*
X138766258Y4112307D01*
X138763359Y4117398D01*
X138760380Y4122467D01*
X138757322Y4127515D01*
X138754184Y4132540D01*
X138750966Y4137542D01*
X138747669Y4142519D01*
X138744293Y4147470D01*
X138740839Y4152395D01*
X138737306Y4157293D01*
X138733695Y4162163D01*
X138730006Y4167003D01*
X138726239Y4171813D01*
X138722396Y4176592D01*
X138718476Y4181339D01*
X138714481Y4186051D01*
X138710410Y4190729D01*
X138706264Y4195372D01*
X138702044Y4199977D01*
X138697750Y4204545D01*
X138693384Y4209073D01*
X138688945Y4213561D01*
X138684436Y4218007D01*
X138679856Y4222410D01*
X138675206Y4226769D01*
X138670488Y4231083D01*
X138665702Y4235350D01*
X138660850Y4239570D01*
X138655933Y4243740D01*
X138650951Y4247861D01*
X138645906Y4251929D01*
X138640799Y4255945D01*
X138635631Y4259907D01*
X138630404Y4263814D01*
X138625119Y4267664D01*
X138619777Y4271457D01*
X138614381Y4275190D01*
X138608930Y4278864D01*
X138603427Y4282476D01*
X138597874Y4286026D01*
X138592271Y4289513D01*
X138586621Y4292934D01*
X138580925Y4296290D01*
X138575185Y4299580D01*
X138569403Y4302801D01*
X138563579Y4305953D01*
X138557717Y4309036D01*
X138554772Y4310551D01*
X138551818Y4312048D01*
X138548854Y4313527D01*
X138545883Y4314988D01*
X138542902Y4316431D01*
X138539914Y4317856D01*
X138536918Y4319262D01*
X138533913Y4320650D01*
X138530902Y4322019D01*
X138527883Y4323370D01*
X138524857Y4324701D01*
X138521824Y4326014D01*
X138518785Y4327308D01*
X138515739Y4328583D01*
X138512688Y4329839D01*
X138509630Y4331076D01*
X138506567Y4332293D01*
X138503497Y4333491D01*
X138500424Y4334669D01*
X138497344Y4335828D01*
X138494261Y4336967D01*
X138491172Y4338087D01*
X138488081Y4339187D01*
X138484983Y4340267D01*
X138481884Y4341327D01*
X138478779Y4342368D01*
X138475673Y4343388D01*
X138472561Y4344389D01*
X138469449Y4345369D01*
X138466331Y4346329D01*
X138463214Y4347269D01*
X138460092Y4348189D01*
X138456970Y4349088D01*
X138453844Y4349967D01*
X138450719Y4350826D01*
X138447590Y4351664D01*
X138444462Y4352482D01*
X138441331Y4353280D01*
X138438202Y4354056D01*
X138435069Y4354813D01*
X138431939Y4355549D01*
X138428806Y4356265D01*
X138425676Y4356959D01*
X138422543Y4357634D01*
X138419414Y4358287D01*
X138416282Y4358921D01*
X138413154Y4359533D01*
X138410024Y4360125D01*
X138406899Y4360696D01*
X138403772Y4361247D01*
X138400650Y4361777D01*
X138397526Y4362287D01*
X138394408Y4362775D01*
X138391288Y4363243D01*
X138388175Y4363691D01*
X138385060Y4364118D01*
X138381952Y4364524D01*
X138378843Y4364910D01*
X138375741Y4365275D01*
X138372638Y4365620D01*
X138369543Y4365943D01*
X138366446Y4366247D01*
X138363359Y4366530D01*
X138360270Y4366793D01*
X138357190Y4367034D01*
X138354110Y4367256D01*
X138351038Y4367457D01*
X138347967Y4367638D01*
X138344905Y4367799D01*
X138341843Y4367939D01*
X138338791Y4368059D01*
X138335739Y4368159D01*
X138332696Y4368238D01*
X138329655Y4368297D01*
X138326624Y4368336D01*
X138323593Y4368355D01*
X138320574Y4368354D01*
X138317555Y4368333D01*
X138314547Y4368292D01*
X138311540Y4368231D01*
X138308545Y4368150D01*
X138305550Y4368049D01*
X138302568Y4367928D01*
X138299586Y4367787D01*
X138296617Y4367627D01*
X138293649Y4367447D01*
X138290693Y4367247D01*
X138287740Y4367028D01*
X138284798Y4366789D01*
X138281858Y4366530D01*
X138278931Y4366253D01*
X138276006Y4365955D01*
X138273093Y4365639D01*
X138270183Y4365302D01*
X138267286Y4364947D01*
X138264391Y4364572D01*
X138261509Y4364178D01*
X138258631Y4363765D01*
X138255765Y4363333D01*
X138252902Y4362882D01*
X138250052Y4362412D01*
X138247205Y4361922D01*
X138244371Y4361415D01*
X138241541Y4360887D01*
X138238725Y4360342D01*
X138235911Y4359777D01*
X138233111Y4359194D01*
X138230315Y4358591D01*
X138227532Y4357971D01*
X138224754Y4357331D01*
X138221988Y4356674D01*
X138219227Y4355997D01*
X138216479Y4355302D01*
X138213736Y4354588D01*
X138211005Y4353857D01*
X138208280Y4353107D01*
X138205568Y4352339D01*
X138202860Y4351552D01*
X138200166Y4350747D01*
X138197477Y4349924D01*
X138194802Y4349083D01*
X138192131Y4348223D01*
X138189474Y4347346D01*
X138186822Y4346450D01*
X138184184Y4345537D01*
X138181550Y4344605D01*
X138178931Y4343656D01*
X138176316Y4342688D01*
X138173715Y4341704D01*
X138171120Y4340700D01*
X138168538Y4339680D01*
X138165962Y4338641D01*
X138163399Y4337585D01*
X138160843Y4336510D01*
X138158299Y4335419D01*
X138155762Y4334309D01*
X138153237Y4333183D01*
X138150719Y4332037D01*
X138148215Y4330876D01*
X138145716Y4329695D01*
X138143231Y4328498D01*
X138140752Y4327283D01*
X138138286Y4326051D01*
X138135827Y4324800D01*
X138133381Y4323534D01*
X138130941Y4322248D01*
X138128515Y4320946D01*
X138126096Y4319626D01*
X138123689Y4318289D01*
X138121289Y4316934D01*
X138118903Y4315562D01*
X138116523Y4314172D01*
X138114156Y4312766D01*
X138111797Y4311341D01*
X138109450Y4309900D01*
X138107110Y4308440D01*
X138107014Y4308380D01*
D10*
X138816783Y3941772D02*
G75*
G02*
X138524391Y2408427I-76322583J13759328D01*
G01*
X139003032Y25202422D02*
X138069294Y24268679D01*
D11*
X139003032Y9797577D02*
X139007494Y9794670D01*
X139011997Y9791832D01*
X139016542Y9789062D01*
X139021128Y9786360D01*
X139025754Y9783727D01*
X139030422Y9781163D01*
X139035130Y9778667D01*
X139039879Y9776240D01*
X139044668Y9773882D01*
X139049497Y9771593D01*
X139054366Y9769374D01*
X139059275Y9767224D01*
X139064224Y9765144D01*
X139069211Y9763134D01*
X139074238Y9761194D01*
X139079304Y9759325D01*
X139084409Y9757527D01*
X139089552Y9755800D01*
X139094733Y9754144D01*
X139099951Y9752560D01*
X139105207Y9751049D01*
X139110499Y9749609D01*
X139115829Y9748243D01*
X139121194Y9746950D01*
X139126595Y9745730D01*
X139132031Y9744584D01*
X139137501Y9743513D01*
X139143006Y9742516D01*
X139148544Y9741594D01*
X139154115Y9740748D01*
X139159718Y9739978D01*
X139165353Y9739284D01*
X139171018Y9738667D01*
X139176714Y9738127D01*
X139182438Y9737664D01*
X139188191Y9737279D01*
X139193972Y9736972D01*
X139199779Y9736744D01*
X139205612Y9736595D01*
X139211470Y9736525D01*
X139217351Y9736535D01*
X139223255Y9736625D01*
X139229180Y9736795D01*
X139235126Y9737045D01*
X139241090Y9737377D01*
X139247073Y9737789D01*
X139253072Y9738282D01*
X139259086Y9738857D01*
X139265114Y9739514D01*
X139271154Y9740252D01*
X139277206Y9741072D01*
X139283267Y9741974D01*
X139289336Y9742959D01*
X139295411Y9744025D01*
X139301492Y9745173D01*
X139307575Y9746403D01*
X139313660Y9747715D01*
X139319745Y9749108D01*
X139325828Y9750584D01*
X139331907Y9752140D01*
X139337981Y9753778D01*
X139344048Y9755497D01*
X139350105Y9757296D01*
X139356152Y9759175D01*
X139362185Y9761134D01*
X139368204Y9763173D01*
X139374207Y9765290D01*
X139380191Y9767485D01*
X139386155Y9769759D01*
X139392096Y9772109D01*
X139398013Y9774536D01*
X139403904Y9777038D01*
X139409768Y9779616D01*
X139415601Y9782267D01*
X139421402Y9784992D01*
X139427169Y9787790D01*
X139430040Y9789216D01*
X139432901Y9790659D01*
X139435753Y9792120D01*
X139438596Y9793599D01*
X139441428Y9795095D01*
X139444251Y9796609D01*
X139447063Y9798139D01*
X139449865Y9799687D01*
X139452656Y9801252D01*
X139455436Y9802834D01*
X139458205Y9804432D01*
X139460963Y9806047D01*
X139463709Y9807677D01*
X139466443Y9809325D01*
X139469165Y9810988D01*
X139471876Y9812668D01*
X139474573Y9814363D01*
X139477258Y9816075D01*
X139479929Y9817801D01*
X139482589Y9819543D01*
X139485234Y9821300D01*
X139487868Y9823073D01*
X139490486Y9824860D01*
X139493091Y9826662D01*
X139495681Y9828479D01*
X139498259Y9830311D01*
X139500821Y9832156D01*
X139503370Y9834016D01*
X139505902Y9835889D01*
X139508421Y9837778D01*
X139510923Y9839679D01*
X139513413Y9841595D01*
X139515884Y9843523D01*
X139518343Y9845465D01*
X139520783Y9847419D01*
X139523210Y9849388D01*
X139525618Y9851368D01*
X139528013Y9853362D01*
X139530388Y9855367D01*
X139532750Y9857387D01*
X139535093Y9859416D01*
X139537422Y9861459D01*
X139539731Y9863512D01*
X139542026Y9865580D01*
X139544301Y9867656D01*
X139546561Y9869746D01*
X139548802Y9871845D01*
X139551027Y9873957D01*
X139553233Y9876078D01*
X139555423Y9878212D01*
X139557593Y9880354D01*
X139559748Y9882510D01*
X139561881Y9884673D01*
X139564000Y9886849D01*
X139566097Y9889032D01*
X139568180Y9891227D01*
X139570240Y9893430D01*
X139572285Y9895645D01*
X139574309Y9897866D01*
X139576317Y9900100D01*
X139578303Y9902340D01*
X139580274Y9904592D01*
X139582222Y9906850D01*
X139584155Y9909119D01*
X139586065Y9911394D01*
X139587960Y9913681D01*
X139589832Y9915972D01*
X139591688Y9918276D01*
X139593522Y9920583D01*
X139595339Y9922902D01*
X139597134Y9925225D01*
X139598913Y9927560D01*
X139600669Y9929898D01*
X139602408Y9932248D01*
X139604125Y9934601D01*
X139605826Y9936964D01*
X139607503Y9939331D01*
X139609164Y9941709D01*
X139610803Y9944090D01*
X139612424Y9946481D01*
X139614023Y9948874D01*
X139615605Y9951279D01*
X139617164Y9953685D01*
X139618706Y9956102D01*
X139620225Y9958520D01*
X139621727Y9960949D01*
X139623207Y9963379D01*
X139624669Y9965820D01*
X139626109Y9968262D01*
X139627531Y9970713D01*
X139628930Y9973166D01*
X139630312Y9975628D01*
X139631672Y9978092D01*
X139633014Y9980565D01*
X139634334Y9983038D01*
X139635635Y9985521D01*
X139636915Y9988005D01*
X139638176Y9990498D01*
X139639416Y9992991D01*
X139640637Y9995493D01*
X139641836Y9997995D01*
X139643018Y10000506D01*
X139644177Y10003017D01*
X139645318Y10005537D01*
X139646437Y10008057D01*
X139647537Y10010585D01*
X139648616Y10013113D01*
X139649677Y10015650D01*
X139650716Y10018186D01*
X139651736Y10020730D01*
X139652735Y10023274D01*
X139653715Y10025826D01*
X139654673Y10028377D01*
X139655613Y10030937D01*
X139656532Y10033495D01*
X139657432Y10036062D01*
X139658310Y10038627D01*
X139659170Y10041200D01*
X139660009Y10043773D01*
X139660828Y10046353D01*
X139661627Y10048932D01*
X139662407Y10051519D01*
X139663165Y10054104D01*
X139663905Y10056697D01*
X139664624Y10059289D01*
X139665324Y10061887D01*
X139666002Y10064485D01*
X139666662Y10067090D01*
X139667301Y10069694D01*
X139667921Y10072305D01*
X139668520Y10074914D01*
X139669100Y10077531D01*
X139669660Y10080146D01*
X139670200Y10082768D01*
X139670719Y10085388D01*
X139671220Y10088016D01*
X139671699Y10090642D01*
X139672160Y10093274D01*
X139672600Y10095906D01*
X139673020Y10098544D01*
X139673421Y10101180D01*
X139673801Y10103823D01*
X139674162Y10106465D01*
X139674503Y10109113D01*
X139674824Y10111760D01*
X139675125Y10114412D01*
X139675406Y10117064D01*
X139675667Y10119722D01*
X139675952Y10122887D01*
X139675952Y24877112D02*
X139675458Y24882414D01*
X139674886Y24887707D01*
X139674234Y24892989D01*
X139673503Y24898261D01*
X139672692Y24903522D01*
X139671803Y24908773D01*
X139670835Y24914013D01*
X139669787Y24919242D01*
X139668661Y24924460D01*
X139667455Y24929666D01*
X139666170Y24934861D01*
X139664805Y24940043D01*
X139663362Y24945213D01*
X139661839Y24950371D01*
X139660237Y24955515D01*
X139658555Y24960646D01*
X139656794Y24965764D01*
X139654953Y24970867D01*
X139653032Y24975956D01*
X139651032Y24981029D01*
X139648953Y24986087D01*
X139646793Y24991129D01*
X139644554Y24996154D01*
X139642235Y25001162D01*
X139639836Y25006153D01*
X139637358Y25011124D01*
X139634799Y25016077D01*
X139632161Y25021010D01*
X139629444Y25025923D01*
X139626647Y25030815D01*
X139623770Y25035684D01*
X139620814Y25040531D01*
X139617779Y25045355D01*
X139614665Y25050154D01*
X139611471Y25054928D01*
X139608200Y25059675D01*
X139604849Y25064396D01*
X139601421Y25069089D01*
X139597915Y25073753D01*
X139594331Y25078387D01*
X139590671Y25082990D01*
X139586933Y25087561D01*
X139583120Y25092099D01*
X139579230Y25096603D01*
X139575266Y25101072D01*
X139571227Y25105504D01*
X139567114Y25109899D01*
X139562928Y25114255D01*
X139558669Y25118572D01*
X139554338Y25122847D01*
X139549937Y25127080D01*
X139545465Y25131270D01*
X139540924Y25135415D01*
X139536315Y25139514D01*
X139531639Y25143566D01*
X139526896Y25147570D01*
X139522088Y25151524D01*
X139517217Y25155427D01*
X139512282Y25159278D01*
X139507286Y25163075D01*
X139502230Y25166818D01*
X139497115Y25170505D01*
X139491942Y25174135D01*
X139486714Y25177706D01*
X139481431Y25181218D01*
X139476095Y25184669D01*
X139470707Y25188058D01*
X139465269Y25191384D01*
X139459784Y25194646D01*
X139454251Y25197843D01*
X139448674Y25200973D01*
X139443054Y25204035D01*
X139437392Y25207029D01*
X139431691Y25209954D01*
X139425952Y25212807D01*
X139420177Y25215590D01*
X139417277Y25216954D01*
X139414368Y25218300D01*
X139411451Y25219627D01*
X139408527Y25220937D01*
X139405595Y25222227D01*
X139402655Y25223499D01*
X139399709Y25224752D01*
X139396756Y25225987D01*
X139393796Y25227202D01*
X139390829Y25228399D01*
X139387858Y25229576D01*
X139384879Y25230734D01*
X139381895Y25231873D01*
X139378905Y25232993D01*
X139375911Y25234093D01*
X139372911Y25235174D01*
X139369908Y25236234D01*
X139366898Y25237276D01*
X139363886Y25238298D01*
X139360869Y25239300D01*
X139357849Y25240282D01*
X139354824Y25241244D01*
X139351798Y25242186D01*
X139348766Y25243108D01*
X139345734Y25244010D01*
X139342697Y25244892D01*
X139339660Y25245754D01*
X139336619Y25246596D01*
X139333578Y25247417D01*
X139330533Y25248218D01*
X139327489Y25248999D01*
X139324441Y25249759D01*
X139321395Y25250499D01*
X139318346Y25251219D01*
X139315299Y25251917D01*
X139312248Y25252596D01*
X139309201Y25253254D01*
X139306150Y25253892D01*
X139303104Y25254509D01*
X139300054Y25255105D01*
X139297009Y25255681D01*
X139293961Y25256237D01*
X139290917Y25256771D01*
X139287872Y25257286D01*
X139284832Y25257779D01*
X139281789Y25258252D01*
X139278753Y25258705D01*
X139275715Y25259137D01*
X139272683Y25259548D01*
X139269650Y25259939D01*
X139266623Y25260309D01*
X139263596Y25260659D01*
X139260575Y25260987D01*
X139257554Y25261296D01*
X139254541Y25261584D01*
X139251527Y25261852D01*
X139248520Y25262099D01*
X139245514Y25262326D01*
X139242516Y25262532D01*
X139239518Y25262718D01*
X139236529Y25262883D01*
X139233540Y25263029D01*
X139230561Y25263154D01*
X139227582Y25263258D01*
X139224612Y25263343D01*
X139221644Y25263407D01*
X139218685Y25263451D01*
X139215727Y25263475D01*
X139212780Y25263479D01*
X139209833Y25263463D01*
X139206898Y25263426D01*
X139203963Y25263370D01*
X139201040Y25263294D01*
X139198118Y25263198D01*
X139195208Y25263082D01*
X139192299Y25262947D01*
X139189402Y25262791D01*
X139186507Y25262616D01*
X139183624Y25262421D01*
X139180743Y25262207D01*
X139177874Y25261973D01*
X139175007Y25261719D01*
X139172153Y25261447D01*
X139169301Y25261154D01*
X139166462Y25260843D01*
X139163625Y25260511D01*
X139160802Y25260161D01*
X139157981Y25259791D01*
X139155173Y25259403D01*
X139152368Y25258995D01*
X139149577Y25258568D01*
X139146788Y25258122D01*
X139144013Y25257657D01*
X139141242Y25257173D01*
X139138483Y25256670D01*
X139135729Y25256148D01*
X139132988Y25255608D01*
X139130251Y25255049D01*
X139127527Y25254472D01*
X139124807Y25253875D01*
X139122101Y25253260D01*
X139119400Y25252626D01*
X139116712Y25251975D01*
X139114028Y25251304D01*
X139111359Y25250616D01*
X139108693Y25249908D01*
X139106042Y25249183D01*
X139103395Y25248439D01*
X139100763Y25247678D01*
X139098135Y25246897D01*
X139095521Y25246100D01*
X139092912Y25245283D01*
X139090317Y25244449D01*
X139087728Y25243596D01*
X139085152Y25242727D01*
X139082582Y25241838D01*
X139080025Y25240933D01*
X139077475Y25240009D01*
X139074938Y25239068D01*
X139072407Y25238108D01*
X139069889Y25237132D01*
X139067378Y25236136D01*
X139064880Y25235125D01*
X139062389Y25234094D01*
X139059911Y25233047D01*
X139057440Y25231982D01*
X139054982Y25230900D01*
X139052531Y25229799D01*
X139050094Y25228683D01*
X139047663Y25227547D01*
X139045245Y25226396D01*
X139042835Y25225225D01*
X139040438Y25224039D01*
X139038047Y25222834D01*
X139035671Y25221613D01*
X139033301Y25220373D01*
X139030945Y25219118D01*
X139028596Y25217844D01*
X139026260Y25216554D01*
X139023932Y25215245D01*
X139021617Y25213921D01*
X139019309Y25212578D01*
X139017015Y25211220D01*
X139014728Y25209842D01*
X139012454Y25208450D01*
X139010188Y25207038D01*
X139007935Y25205611D01*
X139005690Y25204165D01*
X139003032Y25202422D01*
D10*
X139675952Y24877112D02*
G75*
G02*
X140000004Y20000000I-77178352J-7577312D01*
G01*
X140000001Y15000000D02*
G75*
G02*
X139675952Y10122887I-77498501J2699900D01*
G01*
X140000001Y15000000D02*
X140000001Y20000000D01*
M02*
