%TF.GenerationSoftware,KiCad,Pcbnew,10.0.1*%
%TF.CreationDate,2026-07-06T15:17:52+01:00*%
%TF.ProjectId,panel-front,70616e65-6c2d-4667-926f-6e742e6b6963,rev?*%
%TF.SameCoordinates,PX4b571c0PY7270e00*%
%TF.FileFunction,Legend,Top*%
%TF.FilePolarity,Positive*%
%FSLAX46Y46*%
G04 Gerber Fmt 4.6, Leading zero omitted, Abs format (unit mm)*
G04 Created by KiCad (PCBNEW 10.0.1) date 2026-07-06 15:17:52*
%MOMM*%
%LPD*%
G01*
G04 APERTURE LIST*
%ADD10C,0.500000*%
%ADD11C,0.300000*%
%ADD12C,0.200000*%
%ADD13C,0.360000*%
%ADD14C,0.000000*%
%ADD15C,4.100000*%
%ADD16C,5.800000*%
G04 APERTURE END LIST*
D10*
X9000000Y25525000D02*
G75*
G02*
X11000000Y27525000I2000000J0D01*
G01*
X9000000Y25025000D02*
G75*
G02*
X11000000Y27025000I2000000J0D01*
G01*
X9000000Y24525000D02*
G75*
G02*
X11000000Y26525000I2000000J0D01*
G01*
X9000000Y24025000D02*
G75*
G02*
X11000000Y26025000I2000000J0D01*
G01*
X9000000Y23525000D02*
X9000000Y25525000D01*
X9000000Y23525000D02*
X9000000Y10025000D01*
X9000000Y23525000D02*
G75*
G02*
X11000000Y25525000I2000000J0D01*
G01*
X11000000Y27025000D02*
X12000000Y27025000D01*
X11000000Y25525000D02*
X12000000Y25525000D01*
X11000000Y8025000D02*
G75*
G02*
X9000000Y10025000I0J2000000D01*
G01*
X11000000Y8025000D02*
X39500000Y8025000D01*
X12000000Y27525000D02*
X11000000Y27525000D01*
X12000000Y27525000D02*
X12000000Y25525000D01*
X12000000Y26525000D02*
X11000000Y26525000D01*
X12000000Y26025000D02*
X11000000Y26025000D01*
X23000000Y27525000D02*
X23000000Y25525000D01*
X23000000Y27525000D02*
X39500000Y27525000D01*
X23000000Y27025000D02*
X39500000Y27025000D01*
X23000000Y26525000D02*
X39500000Y26525000D01*
X23000000Y26025000D02*
X39500000Y26025000D01*
X23000000Y25525000D02*
X39500000Y25525000D01*
D11*
X31250000Y21025000D02*
X32250000Y21025000D01*
X31250000Y20239102D02*
X31250000Y21025000D01*
X31250000Y13310898D02*
X31250000Y12525000D01*
X31250000Y12525000D02*
X32250000Y12525000D01*
X32250000Y16775000D02*
G75*
G02*
X31250000Y16775000I-500000J0D01*
G01*
X31250000Y16775000D02*
G75*
G02*
X32250000Y16775000I500000J0D01*
G01*
X35250000Y16775000D02*
G75*
G02*
X28250000Y16775000I-3500000J0D01*
G01*
X28250000Y16775000D02*
G75*
G02*
X35250000Y16775000I3500000J0D01*
G01*
X32250000Y21025000D02*
X32250000Y20239102D01*
X32250000Y12525000D02*
X32250000Y13310898D01*
D12*
X32315685Y17340685D02*
X35250000Y20275000D01*
X34437006Y14087994D02*
X35250000Y13275000D01*
X35250000Y20275000D02*
X36250000Y20275000D01*
X35250000Y13275000D02*
X36250000Y13275000D01*
D10*
X39500000Y27525000D02*
G75*
G02*
X41500000Y25525000I0J-2000000D01*
G01*
X39500000Y27025000D02*
G75*
G02*
X41500000Y25025000I0J-2000000D01*
G01*
X39500000Y26525000D02*
G75*
G02*
X41500000Y24525000I0J-2000000D01*
G01*
X39500000Y26025000D02*
G75*
G02*
X41500000Y24025000I0J-2000000D01*
G01*
X39500000Y25525000D02*
G75*
G02*
X41500000Y23525000I0J-2000000D01*
G01*
X41500000Y25525000D02*
X41500000Y23525000D01*
X41500000Y23525000D02*
X41500000Y10025000D01*
X41500000Y10025000D02*
G75*
G02*
X39500000Y8025000I-2000000J0D01*
G01*
X52000000Y25525000D02*
G75*
G02*
X54000000Y27525000I2000000J0D01*
G01*
X52000000Y25025000D02*
G75*
G02*
X54000000Y27025000I2000000J0D01*
G01*
X52000000Y24525000D02*
G75*
G02*
X54000000Y26525000I2000000J0D01*
G01*
X52000000Y24025000D02*
G75*
G02*
X54000000Y26025000I2000000J0D01*
G01*
X52000000Y23525000D02*
X52000000Y25525000D01*
X52000000Y23525000D02*
X52000000Y10025000D01*
X52000000Y23525000D02*
G75*
G02*
X54000000Y25525000I2000000J0D01*
G01*
X54000000Y27025000D02*
X55000000Y27025000D01*
X54000000Y25525000D02*
X55000000Y25525000D01*
X54000000Y8025000D02*
G75*
G02*
X52000000Y10025000I0J2000000D01*
G01*
X54000000Y8025000D02*
X82500000Y8025000D01*
X55000000Y27525000D02*
X54000000Y27525000D01*
X55000000Y27525000D02*
X55000000Y25525000D01*
X55000000Y26525000D02*
X54000000Y26525000D01*
X55000000Y26025000D02*
X54000000Y26025000D01*
X66000000Y27525000D02*
X66000000Y25525000D01*
X66000000Y27525000D02*
X82500000Y27525000D01*
X66000000Y27025000D02*
X82500000Y27025000D01*
X66000000Y26525000D02*
X82500000Y26525000D01*
X66000000Y26025000D02*
X82500000Y26025000D01*
X66000000Y25525000D02*
X82500000Y25525000D01*
D11*
X74250000Y21025000D02*
X75250000Y21025000D01*
X74250000Y20239102D02*
X74250000Y21025000D01*
X74250000Y13310898D02*
X74250000Y12525000D01*
X74250000Y12525000D02*
X75250000Y12525000D01*
X75250000Y16775000D02*
G75*
G02*
X74250000Y16775000I-500000J0D01*
G01*
X74250000Y16775000D02*
G75*
G02*
X75250000Y16775000I500000J0D01*
G01*
X78250000Y16775000D02*
G75*
G02*
X71250000Y16775000I-3500000J0D01*
G01*
X71250000Y16775000D02*
G75*
G02*
X78250000Y16775000I3500000J0D01*
G01*
X75250000Y21025000D02*
X75250000Y20239102D01*
X75250000Y12525000D02*
X75250000Y13310898D01*
D12*
X75315685Y17340685D02*
X78250000Y20275000D01*
X77437006Y14087994D02*
X78250000Y13275000D01*
X78250000Y20275000D02*
X79250000Y20275000D01*
X78250000Y13275000D02*
X79250000Y13275000D01*
D10*
X82500000Y27525000D02*
G75*
G02*
X84500000Y25525000I0J-2000000D01*
G01*
X82500000Y27025000D02*
G75*
G02*
X84500000Y25025000I0J-2000000D01*
G01*
X82500000Y26525000D02*
G75*
G02*
X84500000Y24525000I0J-2000000D01*
G01*
X82500000Y26025000D02*
G75*
G02*
X84500000Y24025000I0J-2000000D01*
G01*
X82500000Y25525000D02*
G75*
G02*
X84500000Y23525000I0J-2000000D01*
G01*
X84500000Y25525000D02*
X84500000Y23525000D01*
X84500000Y23525000D02*
X84500000Y10025000D01*
X84500000Y10025000D02*
G75*
G02*
X82500000Y8025000I-2000000J0D01*
G01*
D11*
X37892857Y19739529D02*
X37821429Y19668100D01*
X37821429Y19668100D02*
X37607143Y19596672D01*
X37607143Y19596672D02*
X37464286Y19596672D01*
X37464286Y19596672D02*
X37250000Y19668100D01*
X37250000Y19668100D02*
X37107143Y19810958D01*
X37107143Y19810958D02*
X37035714Y19953815D01*
X37035714Y19953815D02*
X36964286Y20239529D01*
X36964286Y20239529D02*
X36964286Y20453815D01*
X36964286Y20453815D02*
X37035714Y20739529D01*
X37035714Y20739529D02*
X37107143Y20882386D01*
X37107143Y20882386D02*
X37250000Y21025243D01*
X37250000Y21025243D02*
X37464286Y21096672D01*
X37464286Y21096672D02*
X37607143Y21096672D01*
X37607143Y21096672D02*
X37821429Y21025243D01*
X37821429Y21025243D02*
X37892857Y20953815D01*
X38692857Y20630958D02*
X38807143Y20630958D01*
X38807143Y20630958D02*
X38921429Y20573815D01*
X38921429Y20573815D02*
X38978572Y20516672D01*
X38978572Y20516672D02*
X39035714Y20402386D01*
X39035714Y20402386D02*
X39092857Y20173815D01*
X39092857Y20173815D02*
X39092857Y19888100D01*
X39092857Y19888100D02*
X39035714Y19659529D01*
X39035714Y19659529D02*
X38978572Y19545243D01*
X38978572Y19545243D02*
X38921429Y19488100D01*
X38921429Y19488100D02*
X38807143Y19430958D01*
X38807143Y19430958D02*
X38692857Y19430958D01*
X38692857Y19430958D02*
X38578572Y19488100D01*
X38578572Y19488100D02*
X38521429Y19545243D01*
X38521429Y19545243D02*
X38464286Y19659529D01*
X38464286Y19659529D02*
X38407143Y19888100D01*
X38407143Y19888100D02*
X38407143Y20173815D01*
X38407143Y20173815D02*
X38464286Y20402386D01*
X38464286Y20402386D02*
X38521429Y20516672D01*
X38521429Y20516672D02*
X38578572Y20573815D01*
X38578572Y20573815D02*
X38692857Y20630958D01*
X37071429Y13025243D02*
X37785715Y13025243D01*
X36928572Y12596672D02*
X37428572Y14096672D01*
X37428572Y14096672D02*
X37928572Y12596672D01*
X38585714Y13630958D02*
X38700000Y13630958D01*
X38700000Y13630958D02*
X38814286Y13573815D01*
X38814286Y13573815D02*
X38871429Y13516672D01*
X38871429Y13516672D02*
X38928571Y13402386D01*
X38928571Y13402386D02*
X38985714Y13173815D01*
X38985714Y13173815D02*
X38985714Y12888100D01*
X38985714Y12888100D02*
X38928571Y12659529D01*
X38928571Y12659529D02*
X38871429Y12545243D01*
X38871429Y12545243D02*
X38814286Y12488100D01*
X38814286Y12488100D02*
X38700000Y12430958D01*
X38700000Y12430958D02*
X38585714Y12430958D01*
X38585714Y12430958D02*
X38471429Y12488100D01*
X38471429Y12488100D02*
X38414286Y12545243D01*
X38414286Y12545243D02*
X38357143Y12659529D01*
X38357143Y12659529D02*
X38300000Y12888100D01*
X38300000Y12888100D02*
X38300000Y13173815D01*
X38300000Y13173815D02*
X38357143Y13402386D01*
X38357143Y13402386D02*
X38414286Y13516672D01*
X38414286Y13516672D02*
X38471429Y13573815D01*
X38471429Y13573815D02*
X38585714Y13630958D01*
X80892857Y19739529D02*
X80821429Y19668100D01*
X80821429Y19668100D02*
X80607143Y19596672D01*
X80607143Y19596672D02*
X80464286Y19596672D01*
X80464286Y19596672D02*
X80250000Y19668100D01*
X80250000Y19668100D02*
X80107143Y19810958D01*
X80107143Y19810958D02*
X80035714Y19953815D01*
X80035714Y19953815D02*
X79964286Y20239529D01*
X79964286Y20239529D02*
X79964286Y20453815D01*
X79964286Y20453815D02*
X80035714Y20739529D01*
X80035714Y20739529D02*
X80107143Y20882386D01*
X80107143Y20882386D02*
X80250000Y21025243D01*
X80250000Y21025243D02*
X80464286Y21096672D01*
X80464286Y21096672D02*
X80607143Y21096672D01*
X80607143Y21096672D02*
X80821429Y21025243D01*
X80821429Y21025243D02*
X80892857Y20953815D01*
X82092857Y19430958D02*
X81407143Y19430958D01*
X81750000Y19430958D02*
X81750000Y20630958D01*
X81750000Y20630958D02*
X81635714Y20459529D01*
X81635714Y20459529D02*
X81521429Y20345243D01*
X81521429Y20345243D02*
X81407143Y20288100D01*
X80071429Y13025243D02*
X80785715Y13025243D01*
X79928572Y12596672D02*
X80428572Y14096672D01*
X80428572Y14096672D02*
X80928572Y12596672D01*
X81985714Y12430958D02*
X81300000Y12430958D01*
X81642857Y12430958D02*
X81642857Y13630958D01*
X81642857Y13630958D02*
X81528571Y13459529D01*
X81528571Y13459529D02*
X81414286Y13345243D01*
X81414286Y13345243D02*
X81300000Y13288100D01*
D10*
X15357143Y26107548D02*
X15238095Y25988500D01*
X15238095Y25988500D02*
X14880953Y25869453D01*
X14880953Y25869453D02*
X14642857Y25869453D01*
X14642857Y25869453D02*
X14285714Y25988500D01*
X14285714Y25988500D02*
X14047619Y26226596D01*
X14047619Y26226596D02*
X13928572Y26464691D01*
X13928572Y26464691D02*
X13809524Y26940881D01*
X13809524Y26940881D02*
X13809524Y27298024D01*
X13809524Y27298024D02*
X13928572Y27774215D01*
X13928572Y27774215D02*
X14047619Y28012310D01*
X14047619Y28012310D02*
X14285714Y28250405D01*
X14285714Y28250405D02*
X14642857Y28369453D01*
X14642857Y28369453D02*
X14880953Y28369453D01*
X14880953Y28369453D02*
X15238095Y28250405D01*
X15238095Y28250405D02*
X15357143Y28131358D01*
X16428572Y25869453D02*
X16428572Y28369453D01*
X17500000Y25869453D02*
X17500000Y27178977D01*
X17500000Y27178977D02*
X17380953Y27417072D01*
X17380953Y27417072D02*
X17142857Y27536120D01*
X17142857Y27536120D02*
X16785714Y27536120D01*
X16785714Y27536120D02*
X16547619Y27417072D01*
X16547619Y27417072D02*
X16428572Y27298024D01*
X18690477Y26107548D02*
X18809524Y25988500D01*
X18809524Y25988500D02*
X18690477Y25869453D01*
X18690477Y25869453D02*
X18571429Y25988500D01*
X18571429Y25988500D02*
X18690477Y26107548D01*
X18690477Y26107548D02*
X18690477Y25869453D01*
X20357143Y28369453D02*
X20595238Y28369453D01*
X20595238Y28369453D02*
X20833334Y28250405D01*
X20833334Y28250405D02*
X20952381Y28131358D01*
X20952381Y28131358D02*
X21071429Y27893262D01*
X21071429Y27893262D02*
X21190476Y27417072D01*
X21190476Y27417072D02*
X21190476Y26821834D01*
X21190476Y26821834D02*
X21071429Y26345643D01*
X21071429Y26345643D02*
X20952381Y26107548D01*
X20952381Y26107548D02*
X20833334Y25988500D01*
X20833334Y25988500D02*
X20595238Y25869453D01*
X20595238Y25869453D02*
X20357143Y25869453D01*
X20357143Y25869453D02*
X20119048Y25988500D01*
X20119048Y25988500D02*
X20000000Y26107548D01*
X20000000Y26107548D02*
X19880953Y26345643D01*
X19880953Y26345643D02*
X19761905Y26821834D01*
X19761905Y26821834D02*
X19761905Y27417072D01*
X19761905Y27417072D02*
X19880953Y27893262D01*
X19880953Y27893262D02*
X20000000Y28131358D01*
X20000000Y28131358D02*
X20119048Y28250405D01*
X20119048Y28250405D02*
X20357143Y28369453D01*
X58357143Y26107548D02*
X58238095Y25988500D01*
X58238095Y25988500D02*
X57880953Y25869453D01*
X57880953Y25869453D02*
X57642857Y25869453D01*
X57642857Y25869453D02*
X57285714Y25988500D01*
X57285714Y25988500D02*
X57047619Y26226596D01*
X57047619Y26226596D02*
X56928572Y26464691D01*
X56928572Y26464691D02*
X56809524Y26940881D01*
X56809524Y26940881D02*
X56809524Y27298024D01*
X56809524Y27298024D02*
X56928572Y27774215D01*
X56928572Y27774215D02*
X57047619Y28012310D01*
X57047619Y28012310D02*
X57285714Y28250405D01*
X57285714Y28250405D02*
X57642857Y28369453D01*
X57642857Y28369453D02*
X57880953Y28369453D01*
X57880953Y28369453D02*
X58238095Y28250405D01*
X58238095Y28250405D02*
X58357143Y28131358D01*
X59428572Y25869453D02*
X59428572Y28369453D01*
X60500000Y25869453D02*
X60500000Y27178977D01*
X60500000Y27178977D02*
X60380953Y27417072D01*
X60380953Y27417072D02*
X60142857Y27536120D01*
X60142857Y27536120D02*
X59785714Y27536120D01*
X59785714Y27536120D02*
X59547619Y27417072D01*
X59547619Y27417072D02*
X59428572Y27298024D01*
X61690477Y26107548D02*
X61809524Y25988500D01*
X61809524Y25988500D02*
X61690477Y25869453D01*
X61690477Y25869453D02*
X61571429Y25988500D01*
X61571429Y25988500D02*
X61690477Y26107548D01*
X61690477Y26107548D02*
X61690477Y25869453D01*
X64190476Y25869453D02*
X62761905Y25869453D01*
X63476191Y25869453D02*
X63476191Y28369453D01*
X63476191Y28369453D02*
X63238095Y28012310D01*
X63238095Y28012310D02*
X63000000Y27774215D01*
X63000000Y27774215D02*
X62761905Y27655167D01*
X94500000Y28594453D02*
X95928571Y28594453D01*
X95214285Y26094453D02*
X95214285Y28594453D01*
X96761905Y26094453D02*
X96761905Y27761120D01*
X96761905Y27284929D02*
X96880952Y27523024D01*
X96880952Y27523024D02*
X97000000Y27642072D01*
X97000000Y27642072D02*
X97238095Y27761120D01*
X97238095Y27761120D02*
X97476190Y27761120D01*
X98309524Y26094453D02*
X98309524Y27761120D01*
X98309524Y28594453D02*
X98190476Y28475405D01*
X98190476Y28475405D02*
X98309524Y28356358D01*
X98309524Y28356358D02*
X98428571Y28475405D01*
X98428571Y28475405D02*
X98309524Y28594453D01*
X98309524Y28594453D02*
X98309524Y28356358D01*
X100571428Y27761120D02*
X100571428Y25737310D01*
X100571428Y25737310D02*
X100452381Y25499215D01*
X100452381Y25499215D02*
X100333333Y25380167D01*
X100333333Y25380167D02*
X100095238Y25261120D01*
X100095238Y25261120D02*
X99738095Y25261120D01*
X99738095Y25261120D02*
X99500000Y25380167D01*
X100571428Y26213500D02*
X100333333Y26094453D01*
X100333333Y26094453D02*
X99857142Y26094453D01*
X99857142Y26094453D02*
X99619047Y26213500D01*
X99619047Y26213500D02*
X99500000Y26332548D01*
X99500000Y26332548D02*
X99380952Y26570643D01*
X99380952Y26570643D02*
X99380952Y27284929D01*
X99380952Y27284929D02*
X99500000Y27523024D01*
X99500000Y27523024D02*
X99619047Y27642072D01*
X99619047Y27642072D02*
X99857142Y27761120D01*
X99857142Y27761120D02*
X100333333Y27761120D01*
X100333333Y27761120D02*
X100571428Y27642072D01*
X101761905Y26332548D02*
X101880952Y26213500D01*
X101880952Y26213500D02*
X101761905Y26094453D01*
X101761905Y26094453D02*
X101642857Y26213500D01*
X101642857Y26213500D02*
X101761905Y26332548D01*
X101761905Y26332548D02*
X101761905Y26094453D01*
X103428571Y28594453D02*
X103666666Y28594453D01*
X103666666Y28594453D02*
X103904762Y28475405D01*
X103904762Y28475405D02*
X104023809Y28356358D01*
X104023809Y28356358D02*
X104142857Y28118262D01*
X104142857Y28118262D02*
X104261904Y27642072D01*
X104261904Y27642072D02*
X104261904Y27046834D01*
X104261904Y27046834D02*
X104142857Y26570643D01*
X104142857Y26570643D02*
X104023809Y26332548D01*
X104023809Y26332548D02*
X103904762Y26213500D01*
X103904762Y26213500D02*
X103666666Y26094453D01*
X103666666Y26094453D02*
X103428571Y26094453D01*
X103428571Y26094453D02*
X103190476Y26213500D01*
X103190476Y26213500D02*
X103071428Y26332548D01*
X103071428Y26332548D02*
X102952381Y26570643D01*
X102952381Y26570643D02*
X102833333Y27046834D01*
X102833333Y27046834D02*
X102833333Y27642072D01*
X102833333Y27642072D02*
X102952381Y28118262D01*
X102952381Y28118262D02*
X103071428Y28356358D01*
X103071428Y28356358D02*
X103190476Y28475405D01*
X103190476Y28475405D02*
X103428571Y28594453D01*
X117500000Y28594453D02*
X118928571Y28594453D01*
X118214285Y26094453D02*
X118214285Y28594453D01*
X119761905Y26094453D02*
X119761905Y27761120D01*
X119761905Y27284929D02*
X119880952Y27523024D01*
X119880952Y27523024D02*
X120000000Y27642072D01*
X120000000Y27642072D02*
X120238095Y27761120D01*
X120238095Y27761120D02*
X120476190Y27761120D01*
X121309524Y26094453D02*
X121309524Y27761120D01*
X121309524Y28594453D02*
X121190476Y28475405D01*
X121190476Y28475405D02*
X121309524Y28356358D01*
X121309524Y28356358D02*
X121428571Y28475405D01*
X121428571Y28475405D02*
X121309524Y28594453D01*
X121309524Y28594453D02*
X121309524Y28356358D01*
X123571428Y27761120D02*
X123571428Y25737310D01*
X123571428Y25737310D02*
X123452381Y25499215D01*
X123452381Y25499215D02*
X123333333Y25380167D01*
X123333333Y25380167D02*
X123095238Y25261120D01*
X123095238Y25261120D02*
X122738095Y25261120D01*
X122738095Y25261120D02*
X122500000Y25380167D01*
X123571428Y26213500D02*
X123333333Y26094453D01*
X123333333Y26094453D02*
X122857142Y26094453D01*
X122857142Y26094453D02*
X122619047Y26213500D01*
X122619047Y26213500D02*
X122500000Y26332548D01*
X122500000Y26332548D02*
X122380952Y26570643D01*
X122380952Y26570643D02*
X122380952Y27284929D01*
X122380952Y27284929D02*
X122500000Y27523024D01*
X122500000Y27523024D02*
X122619047Y27642072D01*
X122619047Y27642072D02*
X122857142Y27761120D01*
X122857142Y27761120D02*
X123333333Y27761120D01*
X123333333Y27761120D02*
X123571428Y27642072D01*
X124761905Y26332548D02*
X124880952Y26213500D01*
X124880952Y26213500D02*
X124761905Y26094453D01*
X124761905Y26094453D02*
X124642857Y26213500D01*
X124642857Y26213500D02*
X124761905Y26332548D01*
X124761905Y26332548D02*
X124761905Y26094453D01*
X127261904Y26094453D02*
X125833333Y26094453D01*
X126547619Y26094453D02*
X126547619Y28594453D01*
X126547619Y28594453D02*
X126309523Y28237310D01*
X126309523Y28237310D02*
X126071428Y27999215D01*
X126071428Y27999215D02*
X125833333Y27880167D01*
D13*
G36*
X105081830Y7766068D02*
G01*
X105246029Y7731200D01*
X105385050Y7676413D01*
X105502793Y7602851D01*
X105602147Y7510184D01*
X105675674Y7410450D01*
X105734787Y7293833D01*
X105779103Y7157724D01*
X105807335Y6998912D01*
X105817349Y6813689D01*
X105807669Y6637764D01*
X105780143Y6484156D01*
X105736517Y6349872D01*
X105677774Y6232322D01*
X105604102Y6129404D01*
X105514879Y6039597D01*
X105411663Y5964259D01*
X105294928Y5904522D01*
X105162767Y5860392D01*
X105012794Y5832678D01*
X104842234Y5822966D01*
X104233667Y5822966D01*
X104233667Y6084880D01*
X104570539Y6084880D01*
X104834870Y6084880D01*
X104962800Y6093818D01*
X105071392Y6119029D01*
X105163818Y6158902D01*
X105242623Y6212949D01*
X105309569Y6281838D01*
X105370298Y6376144D01*
X105416362Y6492586D01*
X105446252Y6635751D01*
X105457067Y6811161D01*
X105445223Y6994756D01*
X105412772Y7141263D01*
X105363169Y7257491D01*
X105298112Y7348987D01*
X105217385Y7419702D01*
X105118880Y7471653D01*
X104998826Y7504700D01*
X104852126Y7516558D01*
X104570539Y7516558D01*
X104570539Y6084880D01*
X104233667Y6084880D01*
X104233667Y7778472D01*
X104887737Y7778472D01*
X105081830Y7766068D01*
G37*
G36*
X107297498Y7208703D02*
G01*
X107297498Y5822966D01*
X106990081Y5822966D01*
X106990081Y6062129D01*
X106930680Y5977791D01*
X106861659Y5908544D01*
X106782353Y5852972D01*
X106704784Y5816588D01*
X106624824Y5795021D01*
X106541322Y5787795D01*
X106448557Y5795671D01*
X106369632Y5818030D01*
X106301996Y5853910D01*
X106243797Y5903640D01*
X106188431Y5982329D01*
X106153971Y6078503D01*
X106141692Y6196988D01*
X106141692Y7208703D01*
X106466364Y7208703D01*
X106466364Y6287553D01*
X106475736Y6198360D01*
X106500385Y6136597D01*
X106537831Y6094782D01*
X106589548Y6068943D01*
X106660573Y6059491D01*
X106720459Y6067282D01*
X106783010Y6091768D01*
X106849947Y6135988D01*
X106922799Y6208632D01*
X106980300Y6297445D01*
X106980300Y7208703D01*
X107297498Y7208703D01*
G37*
G36*
X108393554Y7232222D02*
G01*
X108514764Y7200644D01*
X108607619Y7152636D01*
X108677792Y7089350D01*
X108728686Y7009445D01*
X108761018Y6909277D01*
X108772700Y6783354D01*
X108772700Y6232818D01*
X108778167Y6030774D01*
X108794792Y5822966D01*
X108503422Y5822966D01*
X108480012Y6005855D01*
X108415243Y5930104D01*
X108340955Y5872024D01*
X108255927Y5830065D01*
X108158108Y5803977D01*
X108044771Y5794830D01*
X107943462Y5803417D01*
X107857802Y5827731D01*
X107784892Y5866641D01*
X107722627Y5920456D01*
X107666121Y5999736D01*
X107631487Y6093603D01*
X107619312Y6206110D01*
X107621977Y6230730D01*
X107921782Y6230730D01*
X107931443Y6152303D01*
X107957501Y6096161D01*
X107998771Y6056409D01*
X108058403Y6030766D01*
X108143140Y6021133D01*
X108218412Y6029734D01*
X108286755Y6055122D01*
X108350082Y6098121D01*
X108409517Y6161393D01*
X108465284Y6249194D01*
X108465284Y6506822D01*
X108307181Y6494850D01*
X108148086Y6466155D01*
X108059597Y6436188D01*
X107997364Y6397724D01*
X107955493Y6351652D01*
X107930495Y6296926D01*
X107921782Y6230730D01*
X107621977Y6230730D01*
X107631739Y6320914D01*
X107667063Y6416544D01*
X107724704Y6497226D01*
X107807218Y6565364D01*
X107919968Y6621218D01*
X108070600Y6662893D01*
X108245332Y6687960D01*
X108465284Y6702241D01*
X108465284Y6780826D01*
X108456698Y6870059D01*
X108434110Y6932744D01*
X108400108Y6975915D01*
X108359377Y7001533D01*
X108302837Y7018613D01*
X108225462Y7025044D01*
X108156299Y7016867D01*
X108097256Y6993279D01*
X108045980Y6954043D01*
X108008551Y6907370D01*
X107980140Y6849954D01*
X107961130Y6779617D01*
X107664815Y6860070D01*
X107710737Y6977985D01*
X107773938Y7071093D01*
X107854715Y7143473D01*
X107955558Y7197063D01*
X108080868Y7231445D01*
X108236563Y7243873D01*
X108393554Y7232222D01*
G37*
G36*
X109489309Y7813643D02*
G01*
X109489309Y5822966D01*
X109172001Y5822966D01*
X109172001Y7813643D01*
X109489309Y7813643D01*
G37*
G36*
X110928790Y7208703D02*
G01*
X110928790Y5822966D01*
X110611592Y5822966D01*
X110611592Y7208703D01*
X110928790Y7208703D01*
G37*
G36*
X110942309Y7778472D02*
G01*
X110942309Y7453910D01*
X110599282Y7453910D01*
X110599282Y7778472D01*
X110942309Y7778472D01*
G37*
G36*
X112332222Y6886229D02*
G01*
X112032170Y6800719D01*
X112003408Y6885032D01*
X111964829Y6945200D01*
X111917062Y6986447D01*
X111858650Y7011552D01*
X111786303Y7020428D01*
X111717336Y7014404D01*
X111663050Y6997847D01*
X111620340Y6972068D01*
X111582264Y6927691D01*
X111569891Y6874029D01*
X111576627Y6818351D01*
X111595237Y6775861D01*
X111625176Y6743347D01*
X111689031Y6708455D01*
X111815758Y6666850D01*
X111931383Y6636075D01*
X112095824Y6581480D01*
X112206514Y6523832D01*
X112276938Y6464727D01*
X112322075Y6398470D01*
X112350416Y6316452D01*
X112360579Y6214353D01*
X112350128Y6114249D01*
X112320264Y6029414D01*
X112271463Y5956606D01*
X112201870Y5893858D01*
X112127153Y5849874D01*
X112037416Y5816733D01*
X111929828Y5795430D01*
X111801031Y5787795D01*
X111648474Y5799127D01*
X111524125Y5830580D01*
X111422796Y5879607D01*
X111340466Y5945493D01*
X111274590Y6029419D01*
X111224337Y6134339D01*
X111519443Y6237984D01*
X111554495Y6149582D01*
X111600129Y6085588D01*
X111656132Y6041145D01*
X111724349Y6013870D01*
X111808394Y6004207D01*
X111910466Y6013580D01*
X111979315Y6037774D01*
X112024247Y6073348D01*
X112050983Y6120645D01*
X112060526Y6183689D01*
X112053336Y6239615D01*
X112033530Y6281446D01*
X112001505Y6312722D01*
X111936837Y6344144D01*
X111793667Y6391417D01*
X111678042Y6423291D01*
X111521263Y6476033D01*
X111416190Y6532281D01*
X111349743Y6590463D01*
X111308442Y6655301D01*
X111281991Y6738029D01*
X111272367Y6843584D01*
X111282087Y6932681D01*
X111310154Y7009724D01*
X111356591Y7077396D01*
X111423602Y7137261D01*
X111521000Y7190507D01*
X111641642Y7224552D01*
X111791249Y7236839D01*
X111931966Y7225702D01*
X112047466Y7194637D01*
X112142458Y7145829D01*
X112220482Y7079552D01*
X112283607Y6994155D01*
X112332222Y6886229D01*
G37*
G36*
X113341670Y7227504D02*
G01*
X113446630Y7200714D01*
X113539417Y7157419D01*
X113621946Y7097364D01*
X113695427Y7019109D01*
X113759434Y6919446D01*
X113806545Y6804329D01*
X113836202Y6670996D01*
X113846662Y6516054D01*
X113837860Y6370827D01*
X113812887Y6245085D01*
X113773311Y6136000D01*
X113719875Y6041190D01*
X113652452Y5958814D01*
X113563643Y5884645D01*
X113463529Y5831715D01*
X113349887Y5799138D01*
X113219630Y5787795D01*
X113098846Y5797176D01*
X112993247Y5824049D01*
X112900260Y5867398D01*
X112817907Y5927423D01*
X112744931Y6005526D01*
X112681559Y6104510D01*
X112634813Y6219342D01*
X112605324Y6352869D01*
X112594905Y6508580D01*
X112595207Y6513526D01*
X112919577Y6513526D01*
X112931484Y6335237D01*
X112962514Y6208628D01*
X113007450Y6121153D01*
X113064012Y6063114D01*
X113133309Y6028614D01*
X113219630Y6016517D01*
X113306823Y6028667D01*
X113376742Y6063289D01*
X113433731Y6121448D01*
X113478945Y6208972D01*
X113510137Y6335501D01*
X113522100Y6513526D01*
X113510217Y6690789D01*
X113479240Y6816734D01*
X113434355Y6903813D01*
X113377810Y6961642D01*
X113308475Y6996047D01*
X113222048Y7008118D01*
X113134747Y6995994D01*
X113064789Y6961467D01*
X113007818Y6903519D01*
X112962655Y6816391D01*
X112931516Y6690526D01*
X112919577Y6513526D01*
X112595207Y6513526D01*
X112603733Y6653132D01*
X112628808Y6778595D01*
X112668603Y6887734D01*
X112722423Y6982879D01*
X112790434Y7065820D01*
X112879847Y7140142D01*
X112980025Y7193064D01*
X113093103Y7225553D01*
X113222048Y7236839D01*
X113341670Y7227504D01*
G37*
G36*
X114488862Y7813643D02*
G01*
X114488862Y5822966D01*
X114171554Y5822966D01*
X114171554Y7813643D01*
X114488862Y7813643D01*
G37*
G36*
X115584259Y7232222D02*
G01*
X115705469Y7200644D01*
X115798324Y7152636D01*
X115868496Y7089350D01*
X115919391Y7009445D01*
X115951723Y6909277D01*
X115963405Y6783354D01*
X115963405Y6232818D01*
X115968872Y6030774D01*
X115985497Y5822966D01*
X115694127Y5822966D01*
X115670717Y6005855D01*
X115605948Y5930104D01*
X115531660Y5872024D01*
X115446631Y5830065D01*
X115348813Y5803977D01*
X115235476Y5794830D01*
X115134167Y5803417D01*
X115048507Y5827731D01*
X114975597Y5866641D01*
X114913332Y5920456D01*
X114856826Y5999736D01*
X114822192Y6093603D01*
X114810017Y6206110D01*
X114812682Y6230730D01*
X115112487Y6230730D01*
X115122148Y6152303D01*
X115148206Y6096161D01*
X115189476Y6056409D01*
X115249108Y6030766D01*
X115333845Y6021133D01*
X115409117Y6029734D01*
X115477459Y6055122D01*
X115540787Y6098121D01*
X115600222Y6161393D01*
X115655989Y6249194D01*
X115655989Y6506822D01*
X115497885Y6494850D01*
X115338790Y6466155D01*
X115250302Y6436188D01*
X115188069Y6397724D01*
X115146198Y6351652D01*
X115121200Y6296926D01*
X115112487Y6230730D01*
X114812682Y6230730D01*
X114822444Y6320914D01*
X114857768Y6416544D01*
X114915409Y6497226D01*
X114997923Y6565364D01*
X115110672Y6621218D01*
X115261304Y6662893D01*
X115436037Y6687960D01*
X115655989Y6702241D01*
X115655989Y6780826D01*
X115647403Y6870059D01*
X115624815Y6932744D01*
X115590812Y6975915D01*
X115550082Y7001533D01*
X115493541Y7018613D01*
X115416167Y7025044D01*
X115347004Y7016867D01*
X115287961Y6993279D01*
X115236685Y6954043D01*
X115199255Y6907370D01*
X115170845Y6849954D01*
X115151835Y6779617D01*
X114855519Y6860070D01*
X114901442Y6977985D01*
X114964643Y7071093D01*
X115045420Y7143473D01*
X115146262Y7197063D01*
X115271573Y7231445D01*
X115427267Y7243873D01*
X115584259Y7232222D01*
G37*
G36*
X116740244Y7658891D02*
G01*
X116740244Y7208703D01*
X117050078Y7208703D01*
X117050078Y6977563D01*
X116740244Y6977563D01*
X116740244Y6220069D01*
X116748458Y6142403D01*
X116770085Y6088551D01*
X116802993Y6052026D01*
X116848528Y6029414D01*
X116911153Y6021133D01*
X117000342Y6025403D01*
X117072170Y6037070D01*
X117059860Y5810766D01*
X116950737Y5799134D01*
X116812784Y5794830D01*
X116706273Y5802412D01*
X116623359Y5823005D01*
X116559278Y5854326D01*
X116510314Y5895506D01*
X116466753Y5960258D01*
X116438385Y6046889D01*
X116427882Y6162036D01*
X116427882Y6977563D01*
X116221362Y6977563D01*
X116221362Y7208703D01*
X116427882Y7208703D01*
X116427882Y7587780D01*
X116740244Y7658891D01*
G37*
G36*
X117978371Y7227762D02*
G01*
X118080332Y7201644D01*
X118171056Y7159306D01*
X118252321Y7100415D01*
X118325245Y7023505D01*
X118390527Y6923535D01*
X118438777Y6806697D01*
X118469296Y6669903D01*
X118480108Y6509350D01*
X118480108Y6443954D01*
X117545659Y6443954D01*
X117559499Y6303420D01*
X117594078Y6195580D01*
X117646446Y6113237D01*
X117712574Y6056187D01*
X117793466Y6021438D01*
X117893632Y6009153D01*
X117975818Y6019524D01*
X118043623Y6049166D01*
X118100492Y6098434D01*
X118147877Y6170963D01*
X118185001Y6273155D01*
X118472744Y6189404D01*
X118418905Y6064087D01*
X118349616Y5965802D01*
X118264805Y5890246D01*
X118162534Y5835095D01*
X118039207Y5800238D01*
X117889895Y5787795D01*
X117757342Y5797330D01*
X117643499Y5824382D01*
X117545308Y5867470D01*
X117460342Y5926302D01*
X117386950Y6001789D01*
X117323417Y6098420D01*
X117276286Y6212407D01*
X117246356Y6346993D01*
X117235715Y6506162D01*
X117244625Y6651800D01*
X117244866Y6653001D01*
X117550495Y6653001D01*
X118170273Y6653001D01*
X118152417Y6777383D01*
X118120167Y6868677D01*
X118076291Y6934395D01*
X118021244Y6979926D01*
X117953085Y7007927D01*
X117867803Y7017900D01*
X117794390Y7010516D01*
X117732176Y6989449D01*
X117678843Y6955165D01*
X117632927Y6906562D01*
X117593663Y6839662D01*
X117565702Y6756371D01*
X117550495Y6653001D01*
X117244866Y6653001D01*
X117269904Y6777839D01*
X117309973Y6887143D01*
X117364102Y6982118D01*
X117432452Y7064611D01*
X117521950Y7139566D01*
X117621975Y7192846D01*
X117734631Y7225506D01*
X117862857Y7236839D01*
X117978371Y7227762D01*
G37*
G36*
X119937505Y5822966D02*
G01*
X119632506Y5822966D01*
X119632506Y6012890D01*
X119572274Y5929740D01*
X119504608Y5867633D01*
X119428784Y5823820D01*
X119343132Y5797073D01*
X119245186Y5787795D01*
X119148989Y5796547D01*
X119063173Y5821954D01*
X118985673Y5863758D01*
X118915029Y5923060D01*
X118850502Y6002228D01*
X118794429Y6103286D01*
X118752536Y6221562D01*
X118725876Y6360034D01*
X118716702Y6517263D01*
X119041085Y6517263D01*
X119048590Y6386738D01*
X119069101Y6282495D01*
X119100253Y6199857D01*
X119140662Y6134889D01*
X119198928Y6078857D01*
X119265553Y6046162D01*
X119343555Y6034981D01*
X119409063Y6043403D01*
X119468302Y6068388D01*
X119523214Y6111294D01*
X119574736Y6175668D01*
X119622725Y6266890D01*
X119622725Y6751700D01*
X119576046Y6844735D01*
X119524450Y6910674D01*
X119468155Y6954925D01*
X119406126Y6980923D01*
X119336191Y6989763D01*
X119271148Y6981724D01*
X119214412Y6958270D01*
X119163890Y6918724D01*
X119118571Y6860290D01*
X119077846Y6773632D01*
X119050989Y6661435D01*
X119041085Y6517263D01*
X118716702Y6517263D01*
X118716413Y6522209D01*
X118729018Y6705797D01*
X118764015Y6856318D01*
X118818419Y6979604D01*
X118891058Y7080328D01*
X118966343Y7149246D01*
X119049231Y7197523D01*
X119141364Y7226767D01*
X119245186Y7236839D01*
X119341395Y7227799D01*
X119425200Y7201785D01*
X119499062Y7159271D01*
X119564659Y7099139D01*
X119622725Y7018779D01*
X119622725Y7813643D01*
X119937505Y7813643D01*
X119937505Y5822966D01*
G37*
G36*
X105201308Y3862229D02*
G01*
X104901256Y3776719D01*
X104872494Y3861032D01*
X104833915Y3921200D01*
X104786148Y3962447D01*
X104727736Y3987552D01*
X104655389Y3996428D01*
X104586422Y3990404D01*
X104532136Y3973847D01*
X104489426Y3948068D01*
X104451350Y3903691D01*
X104438977Y3850029D01*
X104445712Y3794351D01*
X104464323Y3751861D01*
X104494262Y3719347D01*
X104558117Y3684455D01*
X104684844Y3642850D01*
X104800469Y3612075D01*
X104964910Y3557480D01*
X105075600Y3499832D01*
X105146024Y3440727D01*
X105191161Y3374470D01*
X105219502Y3292452D01*
X105229665Y3190353D01*
X105219214Y3090249D01*
X105189350Y3005414D01*
X105140549Y2932606D01*
X105070956Y2869858D01*
X104996239Y2825874D01*
X104906502Y2792733D01*
X104798913Y2771430D01*
X104670116Y2763795D01*
X104517560Y2775127D01*
X104393211Y2806580D01*
X104291882Y2855607D01*
X104209552Y2921493D01*
X104143676Y3005419D01*
X104093422Y3110339D01*
X104388529Y3213984D01*
X104423581Y3125582D01*
X104469215Y3061588D01*
X104525218Y3017145D01*
X104593435Y2989870D01*
X104677480Y2980207D01*
X104779552Y2989580D01*
X104848401Y3013774D01*
X104893332Y3049348D01*
X104920069Y3096645D01*
X104929612Y3159689D01*
X104922422Y3215615D01*
X104902616Y3257446D01*
X104870591Y3288722D01*
X104805923Y3320144D01*
X104662752Y3367417D01*
X104547128Y3399291D01*
X104390349Y3452033D01*
X104285275Y3508281D01*
X104218829Y3566463D01*
X104177528Y3631301D01*
X104151077Y3714029D01*
X104141453Y3819584D01*
X104151173Y3908681D01*
X104179240Y3985724D01*
X104225677Y4053396D01*
X104292688Y4113261D01*
X104390086Y4166507D01*
X104510728Y4200552D01*
X104660334Y4212839D01*
X104801051Y4201702D01*
X104916551Y4170637D01*
X105011544Y4121829D01*
X105089568Y4055552D01*
X105152693Y3970155D01*
X105201308Y3862229D01*
G37*
G36*
X105925170Y4634891D02*
G01*
X105925170Y4184703D01*
X106235005Y4184703D01*
X106235005Y3953563D01*
X105925170Y3953563D01*
X105925170Y3196069D01*
X105933385Y3118403D01*
X105955011Y3064551D01*
X105987920Y3028026D01*
X106033454Y3005414D01*
X106096079Y2997133D01*
X106185269Y3001403D01*
X106257096Y3013070D01*
X106244787Y2786766D01*
X106135663Y2775134D01*
X105997711Y2770830D01*
X105891200Y2778412D01*
X105808286Y2799005D01*
X105744204Y2830326D01*
X105695240Y2871506D01*
X105651680Y2936258D01*
X105623312Y3022889D01*
X105612808Y3138036D01*
X105612808Y3953563D01*
X105406289Y3953563D01*
X105406289Y4184703D01*
X105612808Y4184703D01*
X105612808Y4563780D01*
X105925170Y4634891D01*
G37*
G36*
X106819063Y4184703D02*
G01*
X106819063Y2798966D01*
X106501864Y2798966D01*
X106501864Y4184703D01*
X106819063Y4184703D01*
G37*
G36*
X106832581Y4754472D02*
G01*
X106832581Y4429910D01*
X106489555Y4429910D01*
X106489555Y4754472D01*
X106832581Y4754472D01*
G37*
G36*
X107527758Y4184703D02*
G01*
X107527758Y3938506D01*
X107607356Y4043463D01*
X107689741Y4119739D01*
X107775472Y4171806D01*
X107865909Y4202505D01*
X107963108Y4212839D01*
X108055791Y4202965D01*
X108133840Y4174793D01*
X108200403Y4128759D01*
X108245648Y4077000D01*
X108280082Y4015009D01*
X108303717Y3940924D01*
X108383654Y4044765D01*
X108466429Y4120364D01*
X108552622Y4172051D01*
X108643592Y4202563D01*
X108741376Y4212839D01*
X108831090Y4204533D01*
X108906873Y4180949D01*
X108971457Y4142931D01*
X109026700Y4089741D01*
X109076362Y4011932D01*
X109107677Y3915936D01*
X109118914Y3796943D01*
X109118914Y2798966D01*
X108801716Y2798966D01*
X108801716Y3708466D01*
X108792323Y3799989D01*
X108767703Y3863067D01*
X108730521Y3905496D01*
X108679510Y3931545D01*
X108609815Y3941034D01*
X108554940Y3933492D01*
X108498517Y3909867D01*
X108438906Y3867175D01*
X108373885Y3795917D01*
X108320863Y3705938D01*
X108320863Y2798966D01*
X108008611Y2798966D01*
X108008611Y3708466D01*
X107999807Y3802056D01*
X107977010Y3865472D01*
X107943299Y3907128D01*
X107898175Y3932085D01*
X107837702Y3941034D01*
X107781822Y3933602D01*
X107724142Y3910331D01*
X107663056Y3868384D01*
X107594339Y3796788D01*
X107537650Y3705938D01*
X107537650Y2798966D01*
X107225287Y2798966D01*
X107225287Y4184703D01*
X107527758Y4184703D01*
G37*
G36*
X110668635Y4184703D02*
G01*
X110668635Y2798966D01*
X110361219Y2798966D01*
X110361219Y3038129D01*
X110301817Y2953791D01*
X110232796Y2884544D01*
X110153490Y2828972D01*
X110075921Y2792588D01*
X109995962Y2771021D01*
X109912459Y2763795D01*
X109819695Y2771671D01*
X109740769Y2794030D01*
X109673134Y2829910D01*
X109614935Y2879640D01*
X109559569Y2958329D01*
X109525108Y3054503D01*
X109512829Y3172988D01*
X109512829Y4184703D01*
X109837501Y4184703D01*
X109837501Y3263553D01*
X109846873Y3174360D01*
X109871522Y3112597D01*
X109908969Y3070782D01*
X109960685Y3044943D01*
X110031711Y3035491D01*
X110091597Y3043282D01*
X110154147Y3067768D01*
X110221085Y3111988D01*
X110293936Y3184632D01*
X110351437Y3273445D01*
X110351437Y4184703D01*
X110668635Y4184703D01*
G37*
G36*
X111393817Y4789643D02*
G01*
X111393817Y2798966D01*
X111076509Y2798966D01*
X111076509Y4789643D01*
X111393817Y4789643D01*
G37*
G36*
X112949473Y4184703D02*
G01*
X112949473Y2798966D01*
X112642056Y2798966D01*
X112642056Y3038129D01*
X112582654Y2953791D01*
X112513634Y2884544D01*
X112434328Y2828972D01*
X112356759Y2792588D01*
X112276799Y2771021D01*
X112193297Y2763795D01*
X112100532Y2771671D01*
X112021607Y2794030D01*
X111953971Y2829910D01*
X111895772Y2879640D01*
X111840406Y2958329D01*
X111805946Y3054503D01*
X111793667Y3172988D01*
X111793667Y4184703D01*
X112118339Y4184703D01*
X112118339Y3263553D01*
X112127711Y3174360D01*
X112152360Y3112597D01*
X112189806Y3070782D01*
X112241523Y3044943D01*
X112312548Y3035491D01*
X112372434Y3043282D01*
X112434985Y3067768D01*
X112501922Y3111988D01*
X112574773Y3184632D01*
X112632274Y3273445D01*
X112632274Y4184703D01*
X112949473Y4184703D01*
G37*
G36*
X114354553Y3862229D02*
G01*
X114054501Y3776719D01*
X114025739Y3861032D01*
X113987160Y3921200D01*
X113939393Y3962447D01*
X113880981Y3987552D01*
X113808633Y3996428D01*
X113739667Y3990404D01*
X113685381Y3973847D01*
X113642670Y3948068D01*
X113604595Y3903691D01*
X113592222Y3850029D01*
X113598957Y3794351D01*
X113617568Y3751861D01*
X113647506Y3719347D01*
X113711362Y3684455D01*
X113838089Y3642850D01*
X113953714Y3612075D01*
X114118155Y3557480D01*
X114228845Y3499832D01*
X114299269Y3440727D01*
X114344406Y3374470D01*
X114372747Y3292452D01*
X114382909Y3190353D01*
X114372459Y3090249D01*
X114342595Y3005414D01*
X114293794Y2932606D01*
X114224200Y2869858D01*
X114149484Y2825874D01*
X114059747Y2792733D01*
X113952158Y2771430D01*
X113823361Y2763795D01*
X113670805Y2775127D01*
X113546456Y2806580D01*
X113445126Y2855607D01*
X113362797Y2921493D01*
X113296921Y3005419D01*
X113246667Y3110339D01*
X113541774Y3213984D01*
X113576826Y3125582D01*
X113622460Y3061588D01*
X113678463Y3017145D01*
X113746679Y2989870D01*
X113830725Y2980207D01*
X113932797Y2989580D01*
X114001646Y3013774D01*
X114046577Y3049348D01*
X114073314Y3096645D01*
X114082857Y3159689D01*
X114075667Y3215615D01*
X114055861Y3257446D01*
X114023836Y3288722D01*
X113959168Y3320144D01*
X113815997Y3367417D01*
X113700373Y3399291D01*
X113543594Y3452033D01*
X113438520Y3508281D01*
X113372074Y3566463D01*
X113330773Y3631301D01*
X113304322Y3714029D01*
X113294698Y3819584D01*
X113304418Y3908681D01*
X113332485Y3985724D01*
X113378922Y4053396D01*
X113445933Y4113261D01*
X113543331Y4166507D01*
X113663973Y4200552D01*
X113813579Y4212839D01*
X113954296Y4201702D01*
X114069796Y4170637D01*
X114164789Y4121829D01*
X114242813Y4055552D01*
X114305938Y3970155D01*
X114354553Y3862229D01*
G37*
G36*
X116590218Y4120076D02*
G01*
X116490864Y4114712D01*
X116429091Y4101611D01*
X116387387Y4081823D01*
X116343032Y4048745D01*
X116406265Y3964985D01*
X116443489Y3873319D01*
X116456128Y3770784D01*
X116444768Y3660765D01*
X116412324Y3567552D01*
X116359377Y3487603D01*
X116284010Y3418745D01*
X116182313Y3361380D01*
X116060192Y3325305D01*
X115912737Y3312462D01*
X115818769Y3318487D01*
X115733145Y3335983D01*
X115672666Y3296507D01*
X115641873Y3257208D01*
X115632358Y3216292D01*
X115642939Y3174186D01*
X115674124Y3146609D01*
X115724609Y3130278D01*
X115824150Y3116055D01*
X116136512Y3090336D01*
X116280316Y3069178D01*
X116388748Y3039498D01*
X116468759Y3003551D01*
X116526250Y2962731D01*
X116574354Y2902630D01*
X116604173Y2827609D01*
X116614837Y2733241D01*
X116602490Y2639704D01*
X116566251Y2557758D01*
X116504469Y2484267D01*
X116411945Y2417911D01*
X116318677Y2374902D01*
X116207684Y2342210D01*
X116075961Y2321143D01*
X115920101Y2313607D01*
X115758406Y2321457D01*
X115627384Y2342988D01*
X115522048Y2375680D01*
X115438039Y2417801D01*
X115374257Y2467723D01*
X115331497Y2521951D01*
X115306416Y2581456D01*
X115297904Y2648281D01*
X115303988Y2691365D01*
X115557290Y2691365D01*
X115569296Y2634987D01*
X115606133Y2586822D01*
X115675333Y2544526D01*
X115744073Y2521333D01*
X115830187Y2506042D01*
X115937247Y2500453D01*
X116074680Y2508550D01*
X116177552Y2530046D01*
X116253236Y2561672D01*
X116304508Y2599584D01*
X116331839Y2639366D01*
X116340614Y2682792D01*
X116333798Y2731872D01*
X116314939Y2768358D01*
X116284010Y2795449D01*
X116216141Y2821383D01*
X116086064Y2843150D01*
X115743037Y2878651D01*
X115653725Y2840343D01*
X115598190Y2796603D01*
X115567482Y2747735D01*
X115557290Y2691365D01*
X115303988Y2691365D01*
X115306811Y2711359D01*
X115333396Y2768318D01*
X115379689Y2821231D01*
X115450410Y2870897D01*
X115552454Y2916789D01*
X115461224Y2948456D01*
X115403170Y2991688D01*
X115369741Y3046116D01*
X115358135Y3115505D01*
X115369239Y3184685D01*
X115404077Y3253923D01*
X115467953Y3325699D01*
X115569600Y3401379D01*
X115482764Y3472220D01*
X115422442Y3555067D01*
X115385712Y3652174D01*
X115372862Y3767597D01*
X115373383Y3772433D01*
X115663023Y3772433D01*
X115672846Y3682792D01*
X115699946Y3613527D01*
X115743037Y3559868D01*
X115790439Y3526785D01*
X115846608Y3506461D01*
X115913946Y3499308D01*
X115990749Y3508537D01*
X116052727Y3534596D01*
X116103319Y3577234D01*
X116137191Y3629085D01*
X116158399Y3692338D01*
X116165968Y3770015D01*
X116156224Y3850318D01*
X116128709Y3915014D01*
X116083646Y3967742D01*
X116035649Y3999575D01*
X115979784Y4019065D01*
X115913946Y4025884D01*
X115839396Y4016934D01*
X115777660Y3991402D01*
X115725781Y3949277D01*
X115691449Y3899892D01*
X115670409Y3841744D01*
X115663023Y3772433D01*
X115373383Y3772433D01*
X115383993Y3870864D01*
X115416050Y3959726D01*
X115468921Y4037340D01*
X115544980Y4105568D01*
X115647537Y4163636D01*
X115769391Y4199964D01*
X115915155Y4212839D01*
X116027494Y4204921D01*
X116124646Y4182399D01*
X116209052Y4146454D01*
X116263405Y4229145D01*
X116320686Y4288618D01*
X116381170Y4328904D01*
X116441136Y4353055D01*
X116516265Y4368861D01*
X116609891Y4374626D01*
X116590218Y4120076D01*
G37*
G36*
X117540492Y4203762D02*
G01*
X117642453Y4177644D01*
X117733178Y4135306D01*
X117814443Y4076415D01*
X117887367Y3999505D01*
X117952648Y3899535D01*
X118000898Y3782697D01*
X118031417Y3645903D01*
X118042229Y3485350D01*
X118042229Y3419954D01*
X117107780Y3419954D01*
X117121620Y3279420D01*
X117156199Y3171580D01*
X117208567Y3089237D01*
X117274695Y3032187D01*
X117355588Y2997438D01*
X117455753Y2985153D01*
X117537939Y2995524D01*
X117605744Y3025166D01*
X117662614Y3074434D01*
X117709998Y3146963D01*
X117747123Y3249155D01*
X118034865Y3165404D01*
X117981026Y3040087D01*
X117911737Y2941802D01*
X117826926Y2866246D01*
X117724655Y2811095D01*
X117601329Y2776238D01*
X117452016Y2763795D01*
X117319463Y2773330D01*
X117205620Y2800382D01*
X117107430Y2843470D01*
X117022463Y2902302D01*
X116949071Y2977789D01*
X116885539Y3074420D01*
X116838407Y3188407D01*
X116808477Y3322993D01*
X116797836Y3482162D01*
X116806747Y3627800D01*
X116806988Y3629001D01*
X117112616Y3629001D01*
X117732395Y3629001D01*
X117714538Y3753383D01*
X117682288Y3844677D01*
X117638412Y3910395D01*
X117583366Y3955926D01*
X117515206Y3983927D01*
X117429924Y3993900D01*
X117356511Y3986516D01*
X117294297Y3965449D01*
X117240964Y3931165D01*
X117195048Y3882562D01*
X117155784Y3815662D01*
X117127823Y3732371D01*
X117112616Y3629001D01*
X116806988Y3629001D01*
X116832026Y3753839D01*
X116872094Y3863143D01*
X116926224Y3958118D01*
X116994574Y4040611D01*
X117084072Y4115566D01*
X117184097Y4168846D01*
X117296752Y4201506D01*
X117424979Y4212839D01*
X117540492Y4203762D01*
G37*
G36*
X118669591Y4184703D02*
G01*
X118669591Y3938506D01*
X118735570Y4023796D01*
X118807584Y4092864D01*
X118886003Y4147333D01*
X118964247Y4184125D01*
X119042978Y4205689D01*
X119123297Y4212839D01*
X119215612Y4204541D01*
X119294144Y4180936D01*
X119361529Y4142878D01*
X119419612Y4089741D01*
X119472915Y4010750D01*
X119506147Y3914682D01*
X119517981Y3796943D01*
X119517981Y2798966D01*
X119193419Y2798966D01*
X119193419Y3708466D01*
X119184029Y3799999D01*
X119159418Y3863079D01*
X119122254Y3905504D01*
X119071274Y3931547D01*
X119001627Y3941034D01*
X118944712Y3933799D01*
X118884589Y3910981D01*
X118819617Y3869703D01*
X118745907Y3798867D01*
X118679483Y3705938D01*
X118679483Y2798966D01*
X118362175Y2798966D01*
X118362175Y4184703D01*
X118669591Y4184703D01*
G37*
G36*
X120577505Y4203762D02*
G01*
X120679467Y4177644D01*
X120770191Y4135306D01*
X120851456Y4076415D01*
X120924380Y3999505D01*
X120989662Y3899535D01*
X121037912Y3782697D01*
X121068431Y3645903D01*
X121079242Y3485350D01*
X121079242Y3419954D01*
X120144794Y3419954D01*
X120158634Y3279420D01*
X120193213Y3171580D01*
X120245580Y3089237D01*
X120311708Y3032187D01*
X120392601Y2997438D01*
X120492766Y2985153D01*
X120574952Y2995524D01*
X120642757Y3025166D01*
X120699627Y3074434D01*
X120747012Y3146963D01*
X120784136Y3249155D01*
X121071878Y3165404D01*
X121018039Y3040087D01*
X120948751Y2941802D01*
X120863939Y2866246D01*
X120761669Y2811095D01*
X120638342Y2776238D01*
X120489030Y2763795D01*
X120356476Y2773330D01*
X120242633Y2800382D01*
X120144443Y2843470D01*
X120059476Y2902302D01*
X119986085Y2977789D01*
X119922552Y3074420D01*
X119875421Y3188407D01*
X119845490Y3322993D01*
X119834849Y3482162D01*
X119843760Y3627800D01*
X119844001Y3629001D01*
X120149630Y3629001D01*
X120769408Y3629001D01*
X120751551Y3753383D01*
X120719302Y3844677D01*
X120675425Y3910395D01*
X120620379Y3955926D01*
X120552219Y3983927D01*
X120466938Y3993900D01*
X120393525Y3986516D01*
X120331310Y3965449D01*
X120277977Y3931165D01*
X120232062Y3882562D01*
X120192798Y3815662D01*
X120164837Y3732371D01*
X120149630Y3629001D01*
X119844001Y3629001D01*
X119869039Y3753839D01*
X119909108Y3863143D01*
X119963237Y3958118D01*
X120031587Y4040611D01*
X120121085Y4115566D01*
X120221110Y4168846D01*
X120333766Y4201506D01*
X120461992Y4212839D01*
X120577505Y4203762D01*
G37*
G36*
X122124699Y4212839D02*
G01*
X122103817Y3915205D01*
X122007866Y3902434D01*
X121922892Y3864763D01*
X121845738Y3800179D01*
X121775081Y3702994D01*
X121711550Y3564484D01*
X121711550Y2798966D01*
X121399188Y2798966D01*
X121399188Y4184703D01*
X121696823Y4184703D01*
X121696823Y3847061D01*
X121751508Y3969223D01*
X121812644Y4061336D01*
X121879613Y4128734D01*
X121952833Y4175312D01*
X122033751Y4203257D01*
X122124699Y4212839D01*
G37*
G36*
X123073917Y4208222D02*
G01*
X123195127Y4176644D01*
X123287982Y4128636D01*
X123358155Y4065350D01*
X123409049Y3985445D01*
X123441381Y3885277D01*
X123453063Y3759354D01*
X123453063Y3208818D01*
X123458530Y3006774D01*
X123475155Y2798966D01*
X123183785Y2798966D01*
X123160375Y2981855D01*
X123095606Y2906104D01*
X123021318Y2848024D01*
X122936289Y2806065D01*
X122838471Y2779977D01*
X122725134Y2770830D01*
X122623825Y2779417D01*
X122538165Y2803731D01*
X122465255Y2842641D01*
X122402990Y2896456D01*
X122346484Y2975736D01*
X122311850Y3069603D01*
X122299675Y3182110D01*
X122302340Y3206730D01*
X122602145Y3206730D01*
X122611806Y3128303D01*
X122637864Y3072161D01*
X122679134Y3032409D01*
X122738766Y3006766D01*
X122823503Y2997133D01*
X122898775Y3005734D01*
X122967118Y3031122D01*
X123030445Y3074121D01*
X123089880Y3137393D01*
X123145647Y3225194D01*
X123145647Y3482822D01*
X122987543Y3470850D01*
X122828449Y3442155D01*
X122739960Y3412188D01*
X122677727Y3373724D01*
X122635856Y3327652D01*
X122610858Y3272926D01*
X122602145Y3206730D01*
X122302340Y3206730D01*
X122312102Y3296914D01*
X122347426Y3392544D01*
X122405067Y3473226D01*
X122487581Y3541364D01*
X122600330Y3597218D01*
X122750963Y3638893D01*
X122925695Y3663960D01*
X123145647Y3678241D01*
X123145647Y3756826D01*
X123137061Y3846059D01*
X123114473Y3908744D01*
X123080471Y3951915D01*
X123039740Y3977533D01*
X122983200Y3994613D01*
X122905825Y4001044D01*
X122836662Y3992867D01*
X122777619Y3969279D01*
X122726343Y3930043D01*
X122688913Y3883370D01*
X122660503Y3825954D01*
X122641493Y3755617D01*
X122345177Y3836070D01*
X122391100Y3953985D01*
X122454301Y4047093D01*
X122535078Y4119473D01*
X122635920Y4173063D01*
X122761231Y4207445D01*
X122916926Y4219873D01*
X123073917Y4208222D01*
G37*
G36*
X124229902Y4634891D02*
G01*
X124229902Y4184703D01*
X124539736Y4184703D01*
X124539736Y3953563D01*
X124229902Y3953563D01*
X124229902Y3196069D01*
X124238116Y3118403D01*
X124259743Y3064551D01*
X124292651Y3028026D01*
X124338186Y3005414D01*
X124400811Y2997133D01*
X124490000Y3001403D01*
X124561828Y3013070D01*
X124549518Y2786766D01*
X124440395Y2775134D01*
X124302442Y2770830D01*
X124195931Y2778412D01*
X124113017Y2799005D01*
X124048936Y2830326D01*
X123999972Y2871506D01*
X123956411Y2936258D01*
X123928043Y3022889D01*
X123917540Y3138036D01*
X123917540Y3953563D01*
X123711020Y3953563D01*
X123711020Y4184703D01*
X123917540Y4184703D01*
X123917540Y4563780D01*
X124229902Y4634891D01*
G37*
G36*
X125472138Y4203504D02*
G01*
X125577097Y4176714D01*
X125669884Y4133419D01*
X125752414Y4073364D01*
X125825894Y3995109D01*
X125889901Y3895446D01*
X125937012Y3780329D01*
X125966670Y3646996D01*
X125977130Y3492054D01*
X125968327Y3346827D01*
X125943354Y3221085D01*
X125903779Y3112000D01*
X125850342Y3017190D01*
X125782920Y2934814D01*
X125694110Y2860645D01*
X125593997Y2807715D01*
X125480355Y2775138D01*
X125350097Y2763795D01*
X125229313Y2773176D01*
X125123714Y2800049D01*
X125030728Y2843398D01*
X124948374Y2903423D01*
X124875399Y2981526D01*
X124812026Y3080510D01*
X124765281Y3195342D01*
X124735791Y3328869D01*
X124725373Y3484580D01*
X124725675Y3489526D01*
X125050045Y3489526D01*
X125061951Y3311237D01*
X125092981Y3184628D01*
X125137917Y3097153D01*
X125194480Y3039114D01*
X125263777Y3004614D01*
X125350097Y2992517D01*
X125437290Y3004667D01*
X125507210Y3039289D01*
X125564198Y3097448D01*
X125609412Y3184972D01*
X125640605Y3311501D01*
X125652568Y3489526D01*
X125640685Y3666789D01*
X125609708Y3792734D01*
X125564823Y3879813D01*
X125508278Y3937642D01*
X125438942Y3972047D01*
X125352515Y3984118D01*
X125265215Y3971994D01*
X125195256Y3937467D01*
X125138286Y3879519D01*
X125093123Y3792391D01*
X125061983Y3666526D01*
X125050045Y3489526D01*
X124725675Y3489526D01*
X124734200Y3629132D01*
X124759275Y3754595D01*
X124799071Y3863734D01*
X124852891Y3958879D01*
X124920901Y4041820D01*
X125010315Y4116142D01*
X125110492Y4169064D01*
X125223571Y4201553D01*
X125352515Y4212839D01*
X125472138Y4203504D01*
G37*
G36*
X127027533Y4212839D02*
G01*
X127006650Y3915205D01*
X126910700Y3902434D01*
X126825725Y3864763D01*
X126748572Y3800179D01*
X126677914Y3702994D01*
X126614384Y3564484D01*
X126614384Y2798966D01*
X126302021Y2798966D01*
X126302021Y4184703D01*
X126599656Y4184703D01*
X126599656Y3847061D01*
X126654341Y3969223D01*
X126715477Y4061336D01*
X126782446Y4128734D01*
X126855666Y4175312D01*
X126936585Y4203257D01*
X127027533Y4212839D01*
G37*
%LPC*%
D14*
%TO.C,G\u002A\u002A\u002A*%
G36*
X97708640Y6748221D02*
G01*
X97758309Y6737393D01*
X97796912Y6717774D01*
X97827840Y6688064D01*
X97834998Y6678590D01*
X97857046Y6647677D01*
X97859719Y6019525D01*
X97860102Y5911812D01*
X97860321Y5809324D01*
X97860380Y5713682D01*
X97860287Y5626504D01*
X97860048Y5549409D01*
X97859667Y5484016D01*
X97859151Y5431944D01*
X97858505Y5394812D01*
X97857737Y5374239D01*
X97857361Y5370848D01*
X97841658Y5338971D01*
X97812375Y5306586D01*
X97774123Y5278288D01*
X97753528Y5267319D01*
X97701158Y5250638D01*
X97642018Y5244060D01*
X97583173Y5247642D01*
X97531689Y5261442D01*
X97522863Y5265450D01*
X97479415Y5297190D01*
X97454029Y5329202D01*
X97426555Y5372481D01*
X97429268Y6005356D01*
X97429817Y6130181D01*
X97430345Y6237518D01*
X97430898Y6328771D01*
X97431524Y6405342D01*
X97432269Y6468636D01*
X97433179Y6520057D01*
X97434301Y6561007D01*
X97435682Y6592890D01*
X97437367Y6617110D01*
X97439405Y6635070D01*
X97441840Y6648175D01*
X97444720Y6657827D01*
X97448092Y6665430D01*
X97451356Y6671291D01*
X97471713Y6696152D01*
X97500352Y6720127D01*
X97512754Y6727967D01*
X97535540Y6739417D01*
X97557896Y6746477D01*
X97585469Y6750157D01*
X97623905Y6751468D01*
X97644514Y6751555D01*
X97708640Y6748221D01*
G37*
G36*
X97697129Y5174167D02*
G01*
X97740394Y5162693D01*
X97743777Y5161224D01*
X97778453Y5139393D01*
X97812778Y5107918D01*
X97840533Y5073157D01*
X97852956Y5049657D01*
X97854614Y5035926D01*
X97856147Y5004658D01*
X97857534Y4957206D01*
X97858758Y4894926D01*
X97859800Y4819171D01*
X97860640Y4731296D01*
X97861261Y4632655D01*
X97861644Y4524602D01*
X97861769Y4412639D01*
X97861712Y4286437D01*
X97861521Y4177816D01*
X97861170Y4085466D01*
X97860630Y4008075D01*
X97859876Y3944335D01*
X97858879Y3892934D01*
X97857612Y3852562D01*
X97856048Y3821909D01*
X97854160Y3799664D01*
X97851920Y3784517D01*
X97849301Y3775158D01*
X97848444Y3773295D01*
X97815180Y3728781D01*
X97768837Y3693045D01*
X97713914Y3667938D01*
X97654909Y3655315D01*
X97596320Y3657027D01*
X97576698Y3661369D01*
X97521851Y3684762D01*
X97476425Y3720291D01*
X97446063Y3762128D01*
X97442302Y3770048D01*
X97439078Y3778913D01*
X97436351Y3790157D01*
X97434079Y3805215D01*
X97432220Y3825523D01*
X97430733Y3852515D01*
X97429577Y3887628D01*
X97428710Y3932294D01*
X97428090Y3987951D01*
X97427677Y4056033D01*
X97427429Y4137974D01*
X97427304Y4235211D01*
X97427262Y4349177D01*
X97427258Y4413723D01*
X97427279Y4536848D01*
X97427368Y4642511D01*
X97427564Y4732142D01*
X97427907Y4807171D01*
X97428438Y4869028D01*
X97429195Y4919144D01*
X97430218Y4958947D01*
X97431548Y4989868D01*
X97433223Y5013338D01*
X97435283Y5030785D01*
X97437768Y5043640D01*
X97440718Y5053333D01*
X97444172Y5061294D01*
X97445285Y5063505D01*
X97480633Y5113604D01*
X97527396Y5151635D01*
X97552113Y5164171D01*
X97594509Y5175037D01*
X97645675Y5178325D01*
X97697129Y5174167D01*
G37*
G36*
X97052595Y5167711D02*
G01*
X97102621Y5139941D01*
X97142484Y5098483D01*
X97148520Y5089325D01*
X97176942Y5043351D01*
X97176942Y4215895D01*
X97176942Y3388440D01*
X97144787Y3322521D01*
X97098836Y3248480D01*
X97037055Y3179996D01*
X96962204Y3119261D01*
X96877043Y3068467D01*
X96784331Y3029805D01*
X96770769Y3025443D01*
X96725532Y3015146D01*
X96667100Y3007241D01*
X96601051Y3002011D01*
X96532965Y2999741D01*
X96468420Y3000716D01*
X96412994Y3005220D01*
X96402747Y3006686D01*
X96288561Y3033376D01*
X96184722Y3075852D01*
X96091286Y3134081D01*
X96008309Y3208032D01*
X95984003Y3234979D01*
X95948453Y3286684D01*
X95920509Y3347724D01*
X95900783Y3414102D01*
X95889889Y3481821D01*
X95888441Y3546881D01*
X95897051Y3605286D01*
X95916332Y3653038D01*
X95919185Y3657549D01*
X95944348Y3690145D01*
X95971553Y3711380D01*
X96006476Y3724443D01*
X96052050Y3732196D01*
X96120173Y3733461D01*
X96177759Y3719240D01*
X96225491Y3689105D01*
X96264053Y3642624D01*
X96293918Y3579948D01*
X96319331Y3519608D01*
X96348010Y3472050D01*
X96383835Y3431174D01*
X96395476Y3420276D01*
X96425776Y3396942D01*
X96456583Y3384368D01*
X96485672Y3379205D01*
X96554625Y3377569D01*
X96616805Y3389855D01*
X96669551Y3415070D01*
X96710201Y3452222D01*
X96720356Y3466689D01*
X96742431Y3502195D01*
X96747154Y4267312D01*
X96748013Y4405354D01*
X96748799Y4525777D01*
X96749551Y4629853D01*
X96750308Y4718854D01*
X96751111Y4794053D01*
X96751998Y4856722D01*
X96753010Y4908134D01*
X96754186Y4949560D01*
X96755565Y4982273D01*
X96757188Y5007545D01*
X96759093Y5026649D01*
X96761320Y5040857D01*
X96763909Y5051441D01*
X96766899Y5059674D01*
X96770330Y5066827D01*
X96772125Y5070213D01*
X96793814Y5104985D01*
X96818520Y5129922D01*
X96852487Y5150570D01*
X96873794Y5160533D01*
X96934956Y5178843D01*
X96995632Y5180957D01*
X97052595Y5167711D01*
G37*
G36*
X97045566Y7485993D02*
G01*
X97100489Y7466219D01*
X97142326Y7434066D01*
X97170056Y7390097D01*
X97171590Y7386203D01*
X97175434Y7366765D01*
X97178602Y7333050D01*
X97180781Y7289667D01*
X97181660Y7241229D01*
X97181665Y7237430D01*
X97181665Y7115248D01*
X97254871Y7115213D01*
X97308196Y7112142D01*
X97348418Y7101537D01*
X97380551Y7081221D01*
X97409608Y7049019D01*
X97410691Y7047570D01*
X97433163Y7011239D01*
X97447159Y6971791D01*
X97454122Y6923745D01*
X97455596Y6876757D01*
X97452592Y6819563D01*
X97442383Y6776394D01*
X97423177Y6743177D01*
X97393180Y6715838D01*
X97381222Y6707801D01*
X97357506Y6694068D01*
X97335746Y6685936D01*
X97309568Y6681980D01*
X97272596Y6680775D01*
X97260106Y6680737D01*
X97181665Y6680737D01*
X97181510Y6026609D01*
X97181354Y5372481D01*
X97160257Y5334698D01*
X97127364Y5294751D01*
X97080359Y5266033D01*
X97020833Y5249272D01*
X96964410Y5244962D01*
X96921553Y5246300D01*
X96889214Y5251474D01*
X96859132Y5262220D01*
X96840945Y5270938D01*
X96800903Y5296040D01*
X96774201Y5325409D01*
X96768563Y5334698D01*
X96747465Y5372481D01*
X96747310Y6020876D01*
X96747246Y6148151D01*
X96747102Y6257836D01*
X96746846Y6351229D01*
X96746450Y6429631D01*
X96745882Y6494342D01*
X96745113Y6546664D01*
X96744113Y6587894D01*
X96742851Y6619335D01*
X96741299Y6642287D01*
X96739425Y6658049D01*
X96737200Y6667922D01*
X96734594Y6673206D01*
X96732213Y6675004D01*
X96715013Y6678116D01*
X96686096Y6680198D01*
X96660900Y6680737D01*
X96608084Y6685562D01*
X96567351Y6701363D01*
X96534163Y6730130D01*
X96526374Y6739764D01*
X96501695Y6785854D01*
X96487215Y6842411D01*
X96483142Y6903867D01*
X96489684Y6964655D01*
X96507051Y7019208D01*
X96515325Y7035119D01*
X96544915Y7073119D01*
X96582945Y7098177D01*
X96632294Y7111660D01*
X96683394Y7115041D01*
X96747154Y7115248D01*
X96747154Y7233625D01*
X96748080Y7294663D01*
X96751566Y7340597D01*
X96758677Y7375156D01*
X96770473Y7402069D01*
X96788020Y7425065D01*
X96806887Y7443125D01*
X96842254Y7468076D01*
X96883015Y7483730D01*
X96933833Y7491436D01*
X96978579Y7492824D01*
X97045566Y7485993D01*
G37*
G36*
X96144603Y6781457D02*
G01*
X96251120Y6762860D01*
X96343967Y6731570D01*
X96423015Y6687648D01*
X96488135Y6631153D01*
X96539198Y6562148D01*
X96552490Y6537553D01*
X96569431Y6490265D01*
X96577108Y6438898D01*
X96575136Y6390086D01*
X96563299Y6350787D01*
X96530753Y6307589D01*
X96484719Y6274513D01*
X96428707Y6253435D01*
X96367696Y6246226D01*
X96333771Y6247800D01*
X96304488Y6253840D01*
X96275797Y6266329D01*
X96243646Y6287249D01*
X96203983Y6318579D01*
X96182210Y6336940D01*
X96130101Y6377343D01*
X96083880Y6402938D01*
X96039288Y6414851D01*
X95992067Y6414210D01*
X95937960Y6402144D01*
X95937041Y6401872D01*
X95900101Y6385955D01*
X95870673Y6364009D01*
X95852996Y6339741D01*
X95849795Y6325571D01*
X95855641Y6311404D01*
X95870426Y6290072D01*
X95879105Y6279623D01*
X95898203Y6261171D01*
X95921505Y6246654D01*
X95954153Y6233407D01*
X95990094Y6222037D01*
X96079418Y6195302D01*
X96152867Y6172663D01*
X96212812Y6153308D01*
X96261619Y6136422D01*
X96301659Y6121194D01*
X96335298Y6106809D01*
X96359538Y6095188D01*
X96440986Y6046282D01*
X96505446Y5989905D01*
X96553591Y5925290D01*
X96586095Y5851669D01*
X96592240Y5830293D01*
X96600053Y5795470D01*
X96603270Y5764914D01*
X96602165Y5730916D01*
X96597332Y5688155D01*
X96580752Y5597119D01*
X96556042Y5520111D01*
X96521510Y5453400D01*
X96475464Y5393253D01*
X96452945Y5369704D01*
X96384289Y5315036D01*
X96303613Y5274874D01*
X96218184Y5250674D01*
X96174100Y5243577D01*
X96121524Y5237560D01*
X96065997Y5233001D01*
X96013065Y5230282D01*
X95968270Y5229784D01*
X95939531Y5231544D01*
X95837331Y5247846D01*
X95748492Y5268441D01*
X95667680Y5294894D01*
X95589563Y5328767D01*
X95563711Y5341714D01*
X95488890Y5390079D01*
X95428378Y5450702D01*
X95381772Y5523987D01*
X95380667Y5526219D01*
X95367644Y5555424D01*
X95360883Y5580784D01*
X95359091Y5610071D01*
X95360668Y5646380D01*
X95371721Y5711597D01*
X95395620Y5762962D01*
X95432367Y5800476D01*
X95481961Y5824140D01*
X95544405Y5833955D01*
X95557624Y5834254D01*
X95622266Y5827872D01*
X95677662Y5807134D01*
X95726755Y5770479D01*
X95767816Y5722824D01*
X95803621Y5676923D01*
X95834674Y5644769D01*
X95864903Y5623331D01*
X95898240Y5609579D01*
X95922526Y5603514D01*
X95976887Y5597111D01*
X96029892Y5599564D01*
X96077576Y5609908D01*
X96115974Y5627182D01*
X96141122Y5650420D01*
X96145131Y5657604D01*
X96148776Y5686762D01*
X96136395Y5718138D01*
X96110304Y5749417D01*
X96072817Y5778282D01*
X96026249Y5802419D01*
X95986760Y5816025D01*
X95956102Y5824455D01*
X95914373Y5835921D01*
X95868720Y5848461D01*
X95849795Y5853658D01*
X95749354Y5886416D01*
X95660673Y5925919D01*
X95585332Y5971156D01*
X95524911Y6021113D01*
X95480990Y6074778D01*
X95467620Y6098639D01*
X95442750Y6169476D01*
X95430779Y6249402D01*
X95431426Y6333970D01*
X95444414Y6418730D01*
X95469463Y6499235D01*
X95496194Y6554486D01*
X95536506Y6607699D01*
X95592943Y6657394D01*
X95662825Y6701850D01*
X95743472Y6739349D01*
X95827331Y6766886D01*
X95870391Y6776685D01*
X95915375Y6782950D01*
X95968181Y6786294D01*
X96024544Y6787298D01*
X96144603Y6781457D01*
G37*
G36*
X99501048Y5194293D02*
G01*
X99576198Y5184033D01*
X99636976Y5170956D01*
X99684358Y5156123D01*
X99723824Y5137010D01*
X99760855Y5111091D01*
X99791006Y5085044D01*
X99845185Y5022812D01*
X99888174Y4945738D01*
X99919660Y4854427D01*
X99927764Y4819897D01*
X99931616Y4799774D01*
X99934842Y4778144D01*
X99937494Y4753207D01*
X99939627Y4723160D01*
X99941295Y4686203D01*
X99942553Y4640533D01*
X99943455Y4584351D01*
X99944054Y4515855D01*
X99944406Y4433242D01*
X99944564Y4334713D01*
X99944588Y4261116D01*
X99944588Y3782626D01*
X99915840Y3746315D01*
X99875288Y3708124D01*
X99823174Y3677863D01*
X99766230Y3658748D01*
X99721884Y3653644D01*
X99659970Y3662416D01*
X99601833Y3687056D01*
X99552261Y3725050D01*
X99526608Y3756153D01*
X99495908Y3801876D01*
X99495908Y4249820D01*
X99495922Y4356639D01*
X99495831Y4446214D01*
X99495440Y4520194D01*
X99494551Y4580228D01*
X99492970Y4627963D01*
X99490499Y4665049D01*
X99486943Y4693133D01*
X99482104Y4713863D01*
X99475787Y4728889D01*
X99467795Y4739858D01*
X99457932Y4748418D01*
X99446001Y4756219D01*
X99434779Y4763055D01*
X99395820Y4778022D01*
X99351632Y4781007D01*
X99307957Y4772969D01*
X99270537Y4754871D01*
X99247550Y4731709D01*
X99244347Y4723703D01*
X99241582Y4709264D01*
X99239197Y4686910D01*
X99237136Y4655162D01*
X99235340Y4612539D01*
X99233753Y4557563D01*
X99232317Y4488752D01*
X99230975Y4404627D01*
X99229669Y4303709D01*
X99229120Y4256237D01*
X99227934Y4151833D01*
X99226864Y4064612D01*
X99225817Y3992870D01*
X99224700Y3934899D01*
X99223420Y3888993D01*
X99221883Y3853446D01*
X99219996Y3826551D01*
X99217666Y3806602D01*
X99214800Y3791892D01*
X99211304Y3780715D01*
X99207085Y3771365D01*
X99202128Y3762272D01*
X99170004Y3721951D01*
X99124614Y3687749D01*
X99071447Y3663500D01*
X99053587Y3658445D01*
X98997172Y3653518D01*
X98939522Y3663439D01*
X98885478Y3686257D01*
X98839878Y3720025D01*
X98811332Y3755954D01*
X98787467Y3796677D01*
X98787467Y4249845D01*
X98787467Y4703012D01*
X98761490Y4727892D01*
X98724961Y4754637D01*
X98682047Y4773927D01*
X98641188Y4782056D01*
X98637994Y4782113D01*
X98611372Y4775389D01*
X98578509Y4757084D01*
X98567870Y4749401D01*
X98525028Y4716689D01*
X98521095Y4260576D01*
X98520096Y4153308D01*
X98519067Y4063311D01*
X98517945Y3988964D01*
X98516669Y3928645D01*
X98515176Y3880734D01*
X98513404Y3843609D01*
X98511292Y3815651D01*
X98508778Y3795236D01*
X98505798Y3780746D01*
X98502353Y3770696D01*
X98473834Y3727831D01*
X98431845Y3693281D01*
X98380569Y3668641D01*
X98324192Y3655503D01*
X98266898Y3655461D01*
X98225239Y3665194D01*
X98168192Y3690924D01*
X98127315Y3722509D01*
X98101443Y3759410D01*
X98097489Y3768274D01*
X98094173Y3778689D01*
X98091441Y3792287D01*
X98089239Y3810700D01*
X98087513Y3835559D01*
X98086209Y3868498D01*
X98085272Y3911149D01*
X98084649Y3965145D01*
X98084287Y4032117D01*
X98084130Y4113697D01*
X98084125Y4211519D01*
X98084175Y4281481D01*
X98084372Y4400263D01*
X98084832Y4501889D01*
X98085695Y4588095D01*
X98087102Y4660618D01*
X98089193Y4721193D01*
X98092109Y4771557D01*
X98095990Y4813444D01*
X98100975Y4848592D01*
X98107207Y4878735D01*
X98114824Y4905611D01*
X98123968Y4930954D01*
X98134778Y4956501D01*
X98139627Y4967224D01*
X98168540Y5016310D01*
X98208429Y5065230D01*
X98254024Y5108454D01*
X98300055Y5140456D01*
X98309415Y5145297D01*
X98387481Y5173626D01*
X98480224Y5190669D01*
X98587114Y5196345D01*
X98635639Y5195337D01*
X98736590Y5186501D01*
X98823344Y5168277D01*
X98898496Y5139932D01*
X98960432Y5103720D01*
X99014168Y5066078D01*
X99067904Y5103720D01*
X99136000Y5141548D01*
X99217123Y5170113D01*
X99307511Y5188822D01*
X99403406Y5197080D01*
X99501048Y5194293D01*
G37*
G36*
X99506076Y6780801D02*
G01*
X99586936Y6769824D01*
X99658132Y6752536D01*
X99709307Y6732680D01*
X99757603Y6701484D01*
X99805652Y6657156D01*
X99848608Y6604887D01*
X99881624Y6549869D01*
X99883361Y6546214D01*
X99895687Y6519207D01*
X99906170Y6494017D01*
X99914974Y6468874D01*
X99922264Y6442012D01*
X99928203Y6411664D01*
X99932959Y6376061D01*
X99936693Y6333438D01*
X99939573Y6282026D01*
X99941762Y6220058D01*
X99943424Y6145766D01*
X99944725Y6057384D01*
X99945830Y5953145D01*
X99946592Y5867724D01*
X99950776Y5380593D01*
X99919172Y5339157D01*
X99872330Y5292212D01*
X99816893Y5261037D01*
X99755441Y5246172D01*
X99690555Y5248155D01*
X99624816Y5267526D01*
X99609779Y5274531D01*
X99569612Y5297733D01*
X99541366Y5322735D01*
X99523257Y5347224D01*
X99495908Y5390349D01*
X99495908Y5840628D01*
X99495889Y5944496D01*
X99495786Y6031142D01*
X99495528Y6102235D01*
X99495048Y6159444D01*
X99494275Y6204440D01*
X99493141Y6238891D01*
X99491576Y6264467D01*
X99489511Y6282838D01*
X99486876Y6295672D01*
X99483603Y6304640D01*
X99479622Y6311411D01*
X99476183Y6315985D01*
X99439056Y6348985D01*
X99391815Y6366192D01*
X99358165Y6369023D01*
X99313026Y6362311D01*
X99274067Y6344001D01*
X99246667Y6316834D01*
X99242909Y6310309D01*
X99240023Y6297574D01*
X99237510Y6270995D01*
X99235347Y6229800D01*
X99233512Y6173214D01*
X99231982Y6100463D01*
X99230736Y6010774D01*
X99229751Y5903372D01*
X99229333Y5840053D01*
X99226700Y5391373D01*
X99203801Y5351394D01*
X99167407Y5305978D01*
X99118514Y5271550D01*
X99061454Y5250520D01*
X99012458Y5244962D01*
X98945787Y5251840D01*
X98889879Y5273002D01*
X98858645Y5294377D01*
X98843920Y5306435D01*
X98831548Y5317394D01*
X98821315Y5328932D01*
X98813005Y5342726D01*
X98806404Y5360454D01*
X98801297Y5383794D01*
X98797469Y5414423D01*
X98794705Y5454020D01*
X98792791Y5504261D01*
X98791511Y5566825D01*
X98790651Y5643390D01*
X98789996Y5735633D01*
X98789394Y5835183D01*
X98788739Y5939350D01*
X98788116Y6026278D01*
X98787444Y6097619D01*
X98786641Y6155025D01*
X98785624Y6200149D01*
X98784312Y6234643D01*
X98782623Y6260159D01*
X98780474Y6278350D01*
X98777783Y6290868D01*
X98774468Y6299366D01*
X98770448Y6305494D01*
X98765779Y6310758D01*
X98731250Y6338626D01*
X98689465Y6359257D01*
X98648626Y6368785D01*
X98642166Y6369023D01*
X98607509Y6361472D01*
X98568653Y6337910D01*
X98568584Y6337857D01*
X98527705Y6306692D01*
X98521370Y5840468D01*
X98515034Y5374244D01*
X98487889Y5335579D01*
X98449680Y5294001D01*
X98402035Y5266181D01*
X98342554Y5250958D01*
X98306357Y5247644D01*
X98262101Y5247006D01*
X98229594Y5250735D01*
X98202016Y5259727D01*
X98196889Y5262050D01*
X98149445Y5291961D01*
X98112327Y5330650D01*
X98089551Y5373787D01*
X98087839Y5379552D01*
X98085201Y5397184D01*
X98083139Y5428829D01*
X98081644Y5475228D01*
X98080706Y5537123D01*
X98080317Y5615254D01*
X98080468Y5710363D01*
X98081151Y5823190D01*
X98081780Y5896218D01*
X98082933Y6011674D01*
X98084163Y6110026D01*
X98085630Y6193063D01*
X98087494Y6262573D01*
X98089916Y6320345D01*
X98093057Y6368167D01*
X98097078Y6407827D01*
X98102139Y6441114D01*
X98108402Y6469815D01*
X98116026Y6495720D01*
X98125173Y6520616D01*
X98136003Y6546292D01*
X98141268Y6558128D01*
X98168042Y6603800D01*
X98205937Y6650414D01*
X98249803Y6692709D01*
X98294492Y6725426D01*
X98316188Y6736837D01*
X98388634Y6761113D01*
X98472999Y6776848D01*
X98564352Y6784050D01*
X98657765Y6782725D01*
X98748307Y6772881D01*
X98831050Y6754523D01*
X98882953Y6736070D01*
X98920581Y6717194D01*
X98958920Y6693886D01*
X98974046Y6683150D01*
X99015269Y6651684D01*
X99051691Y6680531D01*
X99120684Y6723811D01*
X99203479Y6755900D01*
X99298301Y6776295D01*
X99403375Y6784495D01*
X99420128Y6784642D01*
X99506076Y6780801D01*
G37*
G36*
X103104239Y5704131D02*
G01*
X103104249Y5441422D01*
X103104269Y5196916D01*
X103104287Y4969927D01*
X103104286Y4759766D01*
X103104254Y4565746D01*
X103104175Y4387179D01*
X103104036Y4223378D01*
X103103823Y4073654D01*
X103103521Y3937320D01*
X103103117Y3813687D01*
X103102595Y3702069D01*
X103101942Y3601778D01*
X103101144Y3512125D01*
X103100186Y3432424D01*
X103099054Y3361986D01*
X103097734Y3300123D01*
X103096212Y3246148D01*
X103094474Y3199373D01*
X103092505Y3159111D01*
X103090292Y3124673D01*
X103087819Y3095372D01*
X103085074Y3070520D01*
X103082041Y3049429D01*
X103078707Y3031412D01*
X103075057Y3015781D01*
X103071077Y3001848D01*
X103066753Y2988925D01*
X103062071Y2976325D01*
X103057017Y2963360D01*
X103051576Y2949341D01*
X103047164Y2937534D01*
X102991990Y2812848D01*
X102921892Y2698566D01*
X102838195Y2595777D01*
X102742222Y2505570D01*
X102635300Y2429037D01*
X102518751Y2367267D01*
X102393901Y2321350D01*
X102263554Y2292600D01*
X102253257Y2291355D01*
X102239012Y2290188D01*
X102220247Y2289097D01*
X102196386Y2288080D01*
X102166855Y2287135D01*
X102131079Y2286260D01*
X102088484Y2285451D01*
X102038496Y2284708D01*
X101980541Y2284029D01*
X101914042Y2283410D01*
X101838427Y2282850D01*
X101753121Y2282347D01*
X101657549Y2281898D01*
X101551137Y2281502D01*
X101433310Y2281156D01*
X101303494Y2280859D01*
X101161115Y2280607D01*
X101005598Y2280400D01*
X100836368Y2280234D01*
X100652851Y2280108D01*
X100454473Y2280020D01*
X100240660Y2279967D01*
X100010836Y2279947D01*
X99764427Y2279958D01*
X99500859Y2279999D01*
X99219557Y2280066D01*
X98919948Y2280158D01*
X98914986Y2280160D01*
X98667416Y2280266D01*
X98424431Y2280417D01*
X98186728Y2280610D01*
X97955003Y2280843D01*
X97729954Y2281114D01*
X97512276Y2281422D01*
X97302666Y2281764D01*
X97101821Y2282138D01*
X96910437Y2282543D01*
X96729210Y2282976D01*
X96558838Y2283436D01*
X96400016Y2283921D01*
X96253441Y2284428D01*
X96119809Y2284956D01*
X95999818Y2285503D01*
X95894163Y2286067D01*
X95803542Y2286645D01*
X95728650Y2287237D01*
X95670184Y2287839D01*
X95628840Y2288451D01*
X95605316Y2289070D01*
X95600267Y2289407D01*
X95466434Y2318186D01*
X95339756Y2363857D01*
X95221546Y2425354D01*
X95113115Y2501610D01*
X95015775Y2591559D01*
X94930838Y2694134D01*
X94859614Y2808269D01*
X94803417Y2932896D01*
X94801052Y2939311D01*
X94795378Y2954445D01*
X94790097Y2968113D01*
X94785194Y2981003D01*
X94780656Y2993802D01*
X94776467Y3007199D01*
X94772615Y3021880D01*
X94769085Y3038533D01*
X94765864Y3057847D01*
X94762936Y3080508D01*
X94760289Y3107204D01*
X94757908Y3138623D01*
X94755780Y3175452D01*
X94753889Y3218379D01*
X94752223Y3268091D01*
X94750767Y3325277D01*
X94749507Y3390623D01*
X94748429Y3464818D01*
X94747520Y3548549D01*
X94746764Y3642503D01*
X94746149Y3747369D01*
X94745660Y3863833D01*
X94745283Y3992584D01*
X94745004Y4134308D01*
X94744809Y4289694D01*
X94744684Y4459430D01*
X94744615Y4644202D01*
X94744589Y4844698D01*
X94744590Y5061607D01*
X94744606Y5295615D01*
X94744622Y5547411D01*
X94744625Y5709048D01*
X94744625Y7606435D01*
X95245017Y7606435D01*
X95247499Y5455133D01*
X95249981Y3303831D01*
X95291738Y3224827D01*
X95342760Y3143381D01*
X95404733Y3069357D01*
X95474592Y3005503D01*
X95549269Y2954565D01*
X95625701Y2919291D01*
X95636762Y2915635D01*
X95643614Y2914509D01*
X95657101Y2913450D01*
X95677740Y2912455D01*
X95706045Y2911524D01*
X95742532Y2910654D01*
X95787716Y2909842D01*
X95842112Y2909088D01*
X95906236Y2908388D01*
X95980603Y2907742D01*
X96065728Y2907147D01*
X96162126Y2906601D01*
X96270313Y2906102D01*
X96390804Y2905648D01*
X96524113Y2905237D01*
X96670757Y2904868D01*
X96831251Y2904538D01*
X97006109Y2904244D01*
X97195848Y2903986D01*
X97400982Y2903762D01*
X97622026Y2903568D01*
X97859496Y2903404D01*
X98113907Y2903267D01*
X98385775Y2903155D01*
X98675614Y2903067D01*
X98916353Y2903013D01*
X99210123Y2902957D01*
X99485602Y2902909D01*
X99743389Y2902872D01*
X99984083Y2902850D01*
X100208286Y2902847D01*
X100416597Y2902864D01*
X100609615Y2902906D01*
X100787940Y2902976D01*
X100952174Y2903077D01*
X101102915Y2903213D01*
X101240763Y2903386D01*
X101366318Y2903601D01*
X101480181Y2903860D01*
X101582950Y2904166D01*
X101675227Y2904524D01*
X101757611Y2904935D01*
X101830702Y2905405D01*
X101895099Y2905935D01*
X101951403Y2906529D01*
X102000214Y2907190D01*
X102042131Y2907922D01*
X102077754Y2908729D01*
X102107684Y2909612D01*
X102132520Y2910576D01*
X102152863Y2911624D01*
X102169311Y2912759D01*
X102182466Y2913984D01*
X102192926Y2915304D01*
X102201293Y2916720D01*
X102208165Y2918236D01*
X102214142Y2919857D01*
X102218373Y2921133D01*
X102297076Y2954418D01*
X102371370Y3002861D01*
X102438699Y3063529D01*
X102496509Y3133488D01*
X102542244Y3209802D01*
X102573350Y3289537D01*
X102584486Y3341615D01*
X102585593Y3359079D01*
X102586638Y3395066D01*
X102587621Y3449206D01*
X102588540Y3521130D01*
X102589394Y3610468D01*
X102590179Y3716851D01*
X102590896Y3839910D01*
X102591542Y3979276D01*
X102592116Y4134579D01*
X102592616Y4305450D01*
X102593041Y4491520D01*
X102593388Y4692419D01*
X102593657Y4907779D01*
X102593845Y5137229D01*
X102593951Y5380400D01*
X102593973Y5507085D01*
X102594161Y7606435D01*
X98919589Y7606435D01*
X95245017Y7606435D01*
X94744625Y7606435D01*
X94744625Y8239309D01*
X98924432Y8239309D01*
X103104239Y8239309D01*
X103104239Y5704131D01*
G37*
G36*
X101434106Y7286155D02*
G01*
X101488772Y7264944D01*
X101532020Y7230658D01*
X101561812Y7185801D01*
X101576112Y7132876D01*
X101577048Y7110525D01*
X101575829Y7092616D01*
X101572644Y7057769D01*
X101567689Y7007814D01*
X101561157Y6944584D01*
X101553240Y6869907D01*
X101544134Y6785614D01*
X101534032Y6693537D01*
X101523127Y6595505D01*
X101513666Y6511461D01*
X101502358Y6411506D01*
X101491710Y6317272D01*
X101481905Y6230412D01*
X101473131Y6152576D01*
X101465573Y6085415D01*
X101459417Y6030581D01*
X101454848Y5989724D01*
X101452053Y5964495D01*
X101451208Y5956515D01*
X101460345Y5955884D01*
X101486519Y5955296D01*
X101527878Y5954764D01*
X101582567Y5954302D01*
X101648732Y5953921D01*
X101724519Y5953636D01*
X101808075Y5953459D01*
X101890745Y5953404D01*
X101997762Y5953399D01*
X102087598Y5953247D01*
X102161966Y5952745D01*
X102222575Y5951688D01*
X102271136Y5949871D01*
X102309362Y5947090D01*
X102338964Y5943140D01*
X102361652Y5937817D01*
X102379137Y5930916D01*
X102393132Y5922233D01*
X102405346Y5911563D01*
X102417491Y5898703D01*
X102425807Y5889462D01*
X102455304Y5844218D01*
X102469476Y5793320D01*
X102467098Y5741826D01*
X102464204Y5730829D01*
X102457972Y5719093D01*
X102442121Y5692459D01*
X102417270Y5651909D01*
X102384039Y5598422D01*
X102343047Y5532978D01*
X102294916Y5456556D01*
X102240263Y5370136D01*
X102179710Y5274698D01*
X102113875Y5171222D01*
X102043379Y5060688D01*
X101968840Y4944075D01*
X101890880Y4822363D01*
X101810117Y4696532D01*
X101803233Y4685818D01*
X101721847Y4559160D01*
X101642872Y4436244D01*
X101566958Y4318079D01*
X101494750Y4205673D01*
X101426897Y4100036D01*
X101364047Y4002175D01*
X101306848Y3913100D01*
X101255946Y3833819D01*
X101211990Y3765341D01*
X101175627Y3708674D01*
X101147505Y3664827D01*
X101128273Y3634808D01*
X101118576Y3619627D01*
X101118369Y3619301D01*
X101095222Y3587779D01*
X101069536Y3560221D01*
X101051418Y3545728D01*
X101014594Y3530103D01*
X100970126Y3521214D01*
X100926832Y3520296D01*
X100902530Y3524865D01*
X100855914Y3548657D01*
X100817874Y3584848D01*
X100791703Y3629156D01*
X100780695Y3677304D01*
X100780549Y3683370D01*
X100782379Y3698881D01*
X100787663Y3731289D01*
X100796096Y3778980D01*
X100807373Y3840337D01*
X100821188Y3913745D01*
X100837235Y3997589D01*
X100855209Y4090251D01*
X100874803Y4190118D01*
X100895712Y4295572D01*
X100908069Y4357397D01*
X100929485Y4464358D01*
X100949772Y4565908D01*
X100968630Y4660526D01*
X100985757Y4746690D01*
X101000852Y4822880D01*
X101013614Y4887573D01*
X101023743Y4939247D01*
X101030936Y4976382D01*
X101034893Y4997455D01*
X101035589Y5001783D01*
X101026483Y5003560D01*
X101000523Y5005106D01*
X100959747Y5006384D01*
X100906192Y5007359D01*
X100841894Y5007996D01*
X100768891Y5008259D01*
X100689220Y5008114D01*
X100674065Y5008040D01*
X100577773Y5007541D01*
X100498452Y5007343D01*
X100434181Y5007709D01*
X100383038Y5008902D01*
X100343102Y5011185D01*
X100312452Y5014822D01*
X100289167Y5020075D01*
X100271326Y5027208D01*
X100257007Y5036484D01*
X100244290Y5048165D01*
X100231254Y5062516D01*
X100225110Y5069528D01*
X100196943Y5115296D01*
X100186024Y5168630D01*
X100187968Y5205415D01*
X100193016Y5218114D01*
X100206426Y5246141D01*
X100227522Y5288235D01*
X100255628Y5343135D01*
X100265943Y5363035D01*
X100659540Y5363035D01*
X100986891Y5358313D01*
X101085829Y5356641D01*
X101166825Y5354721D01*
X101230829Y5352507D01*
X101278789Y5349956D01*
X101311655Y5347023D01*
X101330375Y5343664D01*
X101334200Y5342143D01*
X101364864Y5317499D01*
X101394475Y5282157D01*
X101417179Y5243689D01*
X101424035Y5225908D01*
X101426989Y5213747D01*
X101428468Y5199781D01*
X101428162Y5181842D01*
X101425761Y5157762D01*
X101420957Y5125375D01*
X101413439Y5082513D01*
X101402900Y5027010D01*
X101389029Y4956696D01*
X101377172Y4897507D01*
X101360215Y4813015D01*
X101346708Y4745288D01*
X101336337Y4692577D01*
X101328788Y4653132D01*
X101323747Y4625204D01*
X101320899Y4607046D01*
X101319931Y4596908D01*
X101320528Y4593041D01*
X101322376Y4593697D01*
X101322654Y4593983D01*
X101328276Y4602413D01*
X101343225Y4625377D01*
X101366622Y4661508D01*
X101397588Y4709445D01*
X101435241Y4767821D01*
X101478702Y4835274D01*
X101527092Y4910438D01*
X101579530Y4991950D01*
X101635138Y5078446D01*
X101643814Y5091947D01*
X101699750Y5179058D01*
X101752545Y5261405D01*
X101801330Y5337625D01*
X101845235Y5406354D01*
X101883392Y5466229D01*
X101914932Y5515885D01*
X101938987Y5553960D01*
X101954687Y5579089D01*
X101961163Y5589909D01*
X101961286Y5590218D01*
X101952181Y5591164D01*
X101926229Y5592040D01*
X101885475Y5592821D01*
X101831963Y5593482D01*
X101767739Y5594000D01*
X101694846Y5594349D01*
X101615331Y5594506D01*
X101599981Y5594512D01*
X101501255Y5594797D01*
X101414180Y5595597D01*
X101340088Y5596880D01*
X101280315Y5598612D01*
X101236194Y5600760D01*
X101209061Y5603290D01*
X101202995Y5604474D01*
X101157550Y5625997D01*
X101118057Y5661278D01*
X101090038Y5705186D01*
X101087276Y5711913D01*
X101082377Y5725875D01*
X101079044Y5739964D01*
X101077376Y5756873D01*
X101077470Y5779292D01*
X101079424Y5809912D01*
X101083337Y5851425D01*
X101089305Y5906520D01*
X101096722Y5971755D01*
X101103723Y6034204D01*
X101109717Y6090467D01*
X101114438Y6137802D01*
X101117619Y6173469D01*
X101118995Y6194726D01*
X101118854Y6199391D01*
X101113942Y6193069D01*
X101100957Y6171617D01*
X101080748Y6136556D01*
X101054165Y6089409D01*
X101022058Y6031695D01*
X100985277Y5964937D01*
X100944672Y5890657D01*
X100901092Y5810374D01*
X100887709Y5785613D01*
X100659540Y5363035D01*
X100265943Y5363035D01*
X100290068Y5409580D01*
X100330163Y5486309D01*
X100375239Y5572060D01*
X100424619Y5665574D01*
X100477625Y5765588D01*
X100533582Y5870842D01*
X100591813Y5980076D01*
X100651642Y6092027D01*
X100712392Y6205434D01*
X100773386Y6319038D01*
X100833949Y6431577D01*
X100893403Y6541789D01*
X100951072Y6648414D01*
X101006279Y6750191D01*
X101058349Y6845859D01*
X101106604Y6934156D01*
X101150368Y7013823D01*
X101188965Y7083597D01*
X101221717Y7142218D01*
X101247950Y7188424D01*
X101266985Y7220955D01*
X101278147Y7238550D01*
X101279882Y7240753D01*
X101312745Y7264914D01*
X101355926Y7281731D01*
X101401532Y7288878D01*
X101434106Y7286155D01*
G37*
%TD*%
D15*
%TO.C,REF\u002A\u002A*%
X132500000Y4750000D03*
D16*
X132500000Y4750000D03*
%TD*%
D15*
%TO.C,REF\u002A\u002A*%
X132500000Y30250000D03*
D16*
X132500000Y30250000D03*
%TD*%
D15*
%TO.C,REF\u002A\u002A*%
X7500000Y30250000D03*
D16*
X7500000Y30250000D03*
%TD*%
D15*
%TO.C,REF\u002A\u002A*%
X7500000Y4750000D03*
D16*
X7500000Y4750000D03*
%TD*%
%LPD*%
M02*
