%TF.GenerationSoftware,KiCad,Pcbnew,10.0.1*%
%TF.CreationDate,2026-05-28T14:28:40-04:00*%
%TF.ProjectId,panel-front,70616e65-6c2d-4667-926f-6e742e6b6963,rev?*%
%TF.SameCoordinates,PX4b571c0PY7270e00*%
%TF.FileFunction,Copper,L1,Top*%
%TF.FilePolarity,Positive*%
%FSLAX46Y46*%
G04 Gerber Fmt 4.6, Leading zero omitted, Abs format (unit mm)*
G04 Created by KiCad (PCBNEW 10.0.1) date 2026-05-28 14:28:40*
%MOMM*%
%LPD*%
G01*
G04 APERTURE LIST*
%TA.AperFunction,ComponentPad*%
%ADD10C,4.100000*%
%TD*%
%TA.AperFunction,ConnectorPad*%
%ADD11C,5.800000*%
%TD*%
G04 APERTURE END LIST*
D10*
X132500000Y4750000D03*
D11*
X132500000Y4750000D03*
D10*
X132500000Y30250000D03*
D11*
X132500000Y30250000D03*
D10*
X7500000Y30250000D03*
D11*
X7500000Y30250000D03*
D10*
X7500000Y4750000D03*
D11*
X7500000Y4750000D03*
%TA.AperFunction,Conductor*%
G36*
X10233440Y34479815D02*
G01*
X10273791Y34437494D01*
X10281609Y34423950D01*
X10281612Y34423946D01*
X10394143Y34289831D01*
X10394146Y34289829D01*
X10394149Y34289825D01*
X10528267Y34177288D01*
X10528269Y34177287D01*
X10679888Y34089755D01*
X10679889Y34089755D01*
X10679892Y34089753D01*
X10844415Y34029881D01*
X11016836Y33999492D01*
X11104376Y33999500D01*
X128829797Y33999500D01*
X128829812Y33999496D01*
X128895705Y33999500D01*
X128961566Y33999500D01*
X128970177Y33999500D01*
X128970229Y33999505D01*
X128983233Y33999505D01*
X128983235Y33999505D01*
X128983236Y33999506D01*
X129155629Y34029911D01*
X129320126Y34089791D01*
X129471728Y34177323D01*
X129605828Y34289849D01*
X129718352Y34423950D01*
X129726176Y34437501D01*
X129776744Y34485716D01*
X129833563Y34499500D01*
X135517404Y34499500D01*
X135579758Y34499500D01*
X135586843Y34499298D01*
X135861427Y34483581D01*
X135875502Y34481965D01*
X136132157Y34437501D01*
X136143009Y34435621D01*
X136156812Y34432408D01*
X136417285Y34355843D01*
X136430631Y34351076D01*
X136680663Y34245290D01*
X136693363Y34239038D01*
X136929706Y34105401D01*
X136941609Y34097742D01*
X137161164Y33938008D01*
X137172109Y33929045D01*
X137371992Y33745309D01*
X137381857Y33735141D01*
X137559469Y33529795D01*
X137568109Y33518568D01*
X137721126Y33294302D01*
X137728427Y33282164D01*
X137854850Y33041906D01*
X137860722Y33029008D01*
X137926823Y32858598D01*
X137958903Y32775897D01*
X137963265Y32762411D01*
X138032762Y32496530D01*
X138034440Y32489216D01*
X138133896Y31986033D01*
X138134054Y31985216D01*
X138218377Y31543016D01*
X138211599Y31473476D01*
X138168300Y31418640D01*
X138102228Y31395918D01*
X138034360Y31412524D01*
X138016308Y31425271D01*
X137954342Y31477892D01*
X137522205Y31844861D01*
X137521966Y31845065D01*
X137439272Y31915861D01*
X137292780Y32004882D01*
X137250127Y32030802D01*
X137044851Y32113560D01*
X137044847Y32113561D01*
X136828875Y32161945D01*
X136828877Y32161945D01*
X136607910Y32174678D01*
X136387803Y32151420D01*
X136174381Y32092787D01*
X135973291Y32000334D01*
X135973289Y32000333D01*
X135789841Y31876499D01*
X135628900Y31724567D01*
X135494710Y31548545D01*
X135390840Y31353114D01*
X135390838Y31353108D01*
X135320022Y31143416D01*
X135320021Y31143412D01*
X135284136Y30925017D01*
X135284136Y30925011D01*
X135284096Y30880574D01*
X135284071Y30880478D01*
X135284038Y30814585D01*
X135284022Y30760495D01*
X135284036Y30760315D01*
X135284036Y30757729D01*
X135284036Y30748452D01*
X135285096Y30740397D01*
X135284862Y30740367D01*
X135286278Y30732144D01*
X135292606Y30652652D01*
X135292606Y30652651D01*
X135304555Y30578303D01*
X135309772Y30545844D01*
X135319911Y30504250D01*
X135330486Y30450554D01*
X135335500Y30440337D01*
X135338195Y30429288D01*
X135338198Y30429281D01*
X135338199Y30429278D01*
X135343835Y30418988D01*
X135363119Y30383779D01*
X135365677Y30378848D01*
X135388545Y30332255D01*
X135388592Y30332183D01*
X135396202Y30323376D01*
X135401505Y30313695D01*
X135433384Y30280348D01*
X135435431Y30277979D01*
X135435626Y30277550D01*
X135438846Y30273850D01*
X135620981Y30043679D01*
X135627994Y30033872D01*
X135789705Y29782766D01*
X135795732Y29772324D01*
X135932297Y29506691D01*
X135937283Y29495712D01*
X136047400Y29218079D01*
X136051295Y29206669D01*
X136133932Y28919645D01*
X136136700Y28907910D01*
X136191068Y28614233D01*
X136192684Y28602285D01*
X136218274Y28304708D01*
X136218722Y28292660D01*
X136215291Y27993997D01*
X136214566Y27981961D01*
X136191415Y27769947D01*
X136185961Y27744726D01*
X136177004Y27717445D01*
X136171544Y27703659D01*
X136159488Y27677845D01*
X136159488Y27677844D01*
X136156180Y27659142D01*
X136152056Y27642577D01*
X136149279Y27633996D01*
X136136729Y27608544D01*
X136129836Y27573894D01*
X136127610Y27567012D01*
X136127557Y27566935D01*
X136127443Y27566500D01*
X136118677Y27539801D01*
X136118237Y27531877D01*
X136112158Y27505533D01*
X136113664Y27505119D01*
X136111511Y27497279D01*
X136105040Y27450357D01*
X136103821Y27443112D01*
X136094579Y27396645D01*
X136094578Y27396641D01*
X136094737Y27394217D01*
X136093838Y27369169D01*
X136082823Y27289341D01*
X136082817Y27289290D01*
X136056543Y27002451D01*
X136043401Y26714687D01*
X136043422Y26570710D01*
X136043422Y26570678D01*
X136043408Y26380511D01*
X136066319Y26000876D01*
X136096409Y25752498D01*
X136107626Y25659907D01*
X136112058Y25623328D01*
X136112059Y25623320D01*
X136180458Y25249214D01*
X136271275Y24879893D01*
X136384173Y24516728D01*
X136384184Y24516698D01*
X136426459Y24404975D01*
X136431429Y24391840D01*
X136432680Y24382721D01*
X136454693Y24330361D01*
X136455487Y24328264D01*
X136455487Y24328263D01*
X136455492Y24328250D01*
X136458278Y24320885D01*
X136462769Y24306391D01*
X136466175Y24292421D01*
X136466176Y24292418D01*
X136482370Y24262840D01*
X136482886Y24261888D01*
X136485648Y24256736D01*
X136500983Y24220264D01*
X136514647Y24202651D01*
X136519569Y24193472D01*
X136520427Y24189375D01*
X136525903Y24179696D01*
X136533012Y24161355D01*
X136547804Y24141133D01*
X136556481Y24127483D01*
X136568510Y24105514D01*
X136584811Y24088457D01*
X136604085Y24062051D01*
X136615055Y24041888D01*
X136615057Y24041886D01*
X136632771Y24023252D01*
X136642978Y24011030D01*
X136658153Y23990284D01*
X136676896Y23975208D01*
X136699825Y23951015D01*
X136713322Y23932259D01*
X136733972Y23915380D01*
X136734190Y23915202D01*
X136740095Y23910353D01*
X136763737Y23885483D01*
X136789766Y23869564D01*
X136796415Y23864104D01*
X136798780Y23860630D01*
X136808855Y23852361D01*
X136822879Y23837161D01*
X136846495Y23822228D01*
X136858687Y23813440D01*
X136880323Y23795756D01*
X136899690Y23787028D01*
X136929324Y23768221D01*
X136944706Y23755067D01*
X136944707Y23755067D01*
X136944708Y23755066D01*
X136970835Y23742584D01*
X136971180Y23742419D01*
X136977614Y23739321D01*
X137008130Y23720025D01*
X137035211Y23711588D01*
X137043419Y23707635D01*
X137046853Y23704535D01*
X137058912Y23698747D01*
X137073983Y23688593D01*
X137073984Y23688592D01*
X137102429Y23678813D01*
X137102853Y23678666D01*
X137109359Y23676403D01*
X137142714Y23660467D01*
X137169496Y23655486D01*
X137178344Y23652408D01*
X137182227Y23649634D01*
X137194878Y23645273D01*
X137198537Y23643367D01*
X137210274Y23637255D01*
X137228868Y23633132D01*
X137240154Y23630629D01*
X137253622Y23626833D01*
X137282570Y23616880D01*
X137301824Y23615544D01*
X137320084Y23612900D01*
X137328079Y23611127D01*
X137332556Y23610133D01*
X137343843Y23607064D01*
X137378469Y23595869D01*
X137402354Y23594652D01*
X137425699Y23589474D01*
X137467896Y23591312D01*
X137606488Y23584250D01*
X137610806Y23583954D01*
X137665563Y23579235D01*
X137665571Y23579237D01*
X137673688Y23579601D01*
X137673708Y23579152D01*
X137675155Y23579242D01*
X137675120Y23579690D01*
X137683216Y23580339D01*
X137683216Y23580340D01*
X137683220Y23580339D01*
X137736987Y23591850D01*
X137741239Y23592682D01*
X137885078Y23618237D01*
X137886609Y23618510D01*
X137945531Y23627451D01*
X137951400Y23630020D01*
X137957705Y23631140D01*
X137957708Y23631142D01*
X137957714Y23631142D01*
X137957717Y23631144D01*
X137957722Y23631145D01*
X138010260Y23655729D01*
X138013079Y23657006D01*
X138146087Y23715197D01*
X138203484Y23739329D01*
X138206372Y23741572D01*
X138209734Y23743042D01*
X138209735Y23743044D01*
X138209740Y23743045D01*
X138257838Y23781483D01*
X138259053Y23782440D01*
X138349105Y23852301D01*
X138376609Y23868180D01*
X138400949Y23892521D01*
X138428143Y23913617D01*
X138442228Y23932177D01*
X138453314Y23944887D01*
X139003623Y24495199D01*
X139064944Y24528682D01*
X139134635Y24523698D01*
X139190569Y24481827D01*
X139214800Y24418659D01*
X139286874Y23619871D01*
X139287035Y23617923D01*
X139376941Y22408871D01*
X139377070Y22406922D01*
X139447906Y21196722D01*
X139448005Y21194770D01*
X139470216Y20674982D01*
X139495878Y20074438D01*
X139499388Y19992309D01*
X139499501Y19987015D01*
X139499501Y15012985D01*
X139499388Y15007691D01*
X139448007Y13805231D01*
X139447908Y13803279D01*
X139377073Y12593083D01*
X139376944Y12591133D01*
X139287035Y11382072D01*
X139286874Y11380125D01*
X139214800Y10581343D01*
X139189171Y10516343D01*
X139132469Y10475519D01*
X139062697Y10471831D01*
X139003620Y10504805D01*
X138824740Y10683686D01*
X138473196Y11035233D01*
X138473196Y11035234D01*
X138463268Y11045162D01*
X138458369Y11052978D01*
X138416775Y11091655D01*
X138409610Y11098820D01*
X138399550Y11110195D01*
X138390705Y11121524D01*
X138390706Y11121524D01*
X138363778Y11141831D01*
X138362912Y11142490D01*
X138358277Y11146050D01*
X138329309Y11172986D01*
X138309615Y11183422D01*
X138301352Y11189768D01*
X138298884Y11193150D01*
X138289909Y11199726D01*
X138275903Y11213508D01*
X138275902Y11213509D01*
X138268786Y11217541D01*
X138254102Y11225862D01*
X138240578Y11234738D01*
X138220572Y11249825D01*
X138220571Y11249826D01*
X138220569Y11249827D01*
X138198704Y11258670D01*
X138170279Y11274814D01*
X138151981Y11288689D01*
X138151980Y11288690D01*
X138128182Y11298388D01*
X138113850Y11305334D01*
X138091491Y11318003D01*
X138068196Y11324044D01*
X138037353Y11336669D01*
X138017342Y11348215D01*
X138017337Y11348217D01*
X137991565Y11355116D01*
X137991296Y11355188D01*
X137983915Y11357182D01*
X137952142Y11370130D01*
X137921879Y11373939D01*
X137913567Y11376184D01*
X137909983Y11378379D01*
X137897404Y11381772D01*
X137878365Y11389863D01*
X137850710Y11393764D01*
X137835972Y11396764D01*
X137828963Y11398640D01*
X137808982Y11403988D01*
X137787728Y11403983D01*
X137752988Y11408941D01*
X137733562Y11414606D01*
X137704592Y11415244D01*
X137704220Y11415253D01*
X137697079Y11415432D01*
X137661335Y11420472D01*
X137633186Y11417031D01*
X137624071Y11417259D01*
X137619669Y11418673D01*
X137606295Y11418990D01*
X137588380Y11422051D01*
X137588379Y11422051D01*
X137558432Y11419271D01*
X137557992Y11419231D01*
X137551122Y11418619D01*
X137514169Y11419430D01*
X137487712Y11412962D01*
X137478372Y11412128D01*
X137473696Y11413060D01*
X137460372Y11411834D01*
X137443041Y11412812D01*
X137443039Y11412812D01*
X137413063Y11406566D01*
X137399242Y11404491D01*
X137368761Y11401660D01*
X137368751Y11401658D01*
X137350652Y11394961D01*
X137332921Y11389864D01*
X137320419Y11387259D01*
X137308867Y11385416D01*
X137272707Y11381384D01*
X137272700Y11381383D01*
X137260114Y11376462D01*
X137250430Y11372674D01*
X137227022Y11367795D01*
X137189310Y11348771D01*
X137183848Y11346634D01*
X137183845Y11346634D01*
X137060092Y11298234D01*
X137056021Y11296723D01*
X137004159Y11278507D01*
X136996806Y11273483D01*
X136988518Y11270240D01*
X136942554Y11236404D01*
X136940744Y11235166D01*
X136940731Y11235156D01*
X136820060Y11152680D01*
X136817457Y11150949D01*
X136768780Y11119450D01*
X136763865Y11115267D01*
X136759190Y11111077D01*
X136721344Y11066999D01*
X136719299Y11064677D01*
X136669652Y11009717D01*
X136623037Y10958114D01*
X136622684Y10957724D01*
X136622683Y10957725D01*
X136621976Y10956943D01*
X136579631Y10911402D01*
X136577916Y10908168D01*
X136575457Y10905445D01*
X136547468Y10850733D01*
X136546644Y10849151D01*
X136497297Y10756023D01*
X136497296Y10756021D01*
X136493333Y10748544D01*
X136474793Y10722762D01*
X136462617Y10690581D01*
X136458970Y10683697D01*
X136458966Y10683686D01*
X136446499Y10660157D01*
X136446497Y10660152D01*
X136441293Y10637466D01*
X136436408Y10621310D01*
X136384189Y10483306D01*
X136384178Y10483275D01*
X136271278Y10120091D01*
X136180468Y9750790D01*
X136180467Y9750783D01*
X136112066Y9376675D01*
X136067439Y9008308D01*
X136066325Y8999114D01*
X136043411Y8619486D01*
X136043411Y8619477D01*
X136043411Y8619476D01*
X136043423Y8429370D01*
X136043423Y8429342D01*
X136043399Y8285341D01*
X136043400Y8285299D01*
X136056539Y7997547D01*
X136082821Y7710656D01*
X136093787Y7631198D01*
X136095520Y7618636D01*
X136094541Y7603955D01*
X136104498Y7553581D01*
X136104869Y7550895D01*
X136111517Y7502706D01*
X136111518Y7502703D01*
X136113437Y7495716D01*
X136117689Y7469455D01*
X136118030Y7463025D01*
X136126849Y7435940D01*
X136130586Y7421601D01*
X136136111Y7393655D01*
X136136113Y7393649D01*
X136136114Y7393646D01*
X136140886Y7383939D01*
X136144492Y7376605D01*
X136150949Y7360809D01*
X136153780Y7352242D01*
X136158691Y7324292D01*
X136173605Y7292256D01*
X136175875Y7285389D01*
X136175878Y7285292D01*
X136176045Y7284868D01*
X136186203Y7253670D01*
X136191563Y7228746D01*
X136214583Y7018016D01*
X136215308Y7005979D01*
X136218749Y6707323D01*
X136218301Y6695272D01*
X136192717Y6397701D01*
X136191102Y6385753D01*
X136136735Y6092067D01*
X136133970Y6080344D01*
X136051333Y5793321D01*
X136047437Y5781909D01*
X135937316Y5504277D01*
X135932331Y5493298D01*
X135795764Y5227674D01*
X135789741Y5217240D01*
X135628024Y4966143D01*
X135621009Y4956334D01*
X135438829Y4726127D01*
X135435413Y4721997D01*
X135433371Y4719636D01*
X135401466Y4686250D01*
X135396186Y4676610D01*
X135388612Y4667845D01*
X135388560Y4667766D01*
X135365676Y4621144D01*
X135363127Y4616232D01*
X135338177Y4570665D01*
X135335237Y4563084D01*
X135335187Y4563104D01*
X135333042Y4557187D01*
X135333093Y4557170D01*
X135330495Y4549470D01*
X135330494Y4549467D01*
X135326123Y4527278D01*
X135320444Y4498449D01*
X135319258Y4493066D01*
X135309766Y4454107D01*
X135304559Y4421698D01*
X135296216Y4369766D01*
X135292611Y4347330D01*
X135292610Y4347327D01*
X135286313Y4268283D01*
X135286284Y4267892D01*
X135285380Y4256539D01*
X135284033Y4251507D01*
X135284033Y4239628D01*
X135284027Y4239541D01*
X135284027Y4237213D01*
X135284027Y4237206D01*
X135284038Y4185481D01*
X135284064Y4111965D01*
X135284106Y4111324D01*
X135284141Y4074951D01*
X135320035Y3856565D01*
X135320037Y3856559D01*
X135390859Y3646876D01*
X135390862Y3646869D01*
X135494735Y3451449D01*
X135494737Y3451445D01*
X135494740Y3451441D01*
X135545890Y3384349D01*
X135628924Y3275435D01*
X135733342Y3176867D01*
X135789869Y3123507D01*
X135973312Y2999680D01*
X136174402Y2907229D01*
X136387819Y2848598D01*
X136607917Y2825339D01*
X136828875Y2838067D01*
X137044847Y2886446D01*
X137250120Y2969196D01*
X137439263Y3084128D01*
X137485265Y3123508D01*
X137522257Y3155174D01*
X137522630Y3155492D01*
X137538460Y3168935D01*
X138016309Y3574732D01*
X138080149Y3603122D01*
X138149205Y3592490D01*
X138201551Y3546211D01*
X138220567Y3478979D01*
X138218378Y3456987D01*
X138134055Y3014785D01*
X138133897Y3013968D01*
X138034443Y2510793D01*
X138032765Y2503478D01*
X137963265Y2237592D01*
X137958903Y2224107D01*
X137860721Y1970997D01*
X137854849Y1958098D01*
X137728423Y1717836D01*
X137721117Y1705692D01*
X137568107Y1481436D01*
X137559463Y1470204D01*
X137381859Y1264868D01*
X137371990Y1254696D01*
X137172114Y1070967D01*
X137161149Y1061988D01*
X136941621Y902272D01*
X136929703Y894602D01*
X136693369Y760971D01*
X136680653Y754712D01*
X136430630Y648929D01*
X136417283Y644161D01*
X136156809Y567595D01*
X136143006Y564382D01*
X135875502Y518039D01*
X135861422Y516422D01*
X135586840Y500703D01*
X135579753Y500500D01*
X4420242Y500500D01*
X4413156Y500703D01*
X4138575Y516420D01*
X4124494Y518037D01*
X3856990Y564380D01*
X3843187Y567593D01*
X3582714Y644158D01*
X3569367Y648926D01*
X3319344Y754708D01*
X3306628Y760967D01*
X3070300Y894595D01*
X3058382Y902264D01*
X3050294Y908148D01*
X2838837Y1061991D01*
X2827888Y1070957D01*
X2628003Y1254696D01*
X2618142Y1264860D01*
X2440530Y1470206D01*
X2431888Y1481436D01*
X2278870Y1705704D01*
X2271572Y1717837D01*
X2221505Y1812985D01*
X2145148Y1958096D01*
X2139280Y1970986D01*
X2041090Y2224121D01*
X2036738Y2237578D01*
X1967234Y2503482D01*
X1965557Y2510793D01*
X1866082Y3014076D01*
X1865945Y3014785D01*
X1853408Y3080530D01*
X1781622Y3456987D01*
X1788400Y3526525D01*
X1831699Y3581361D01*
X1897771Y3604083D01*
X1965639Y3587477D01*
X1983687Y3574733D01*
X2128873Y3451442D01*
X2477340Y3155525D01*
X2477782Y3155148D01*
X2557875Y3086484D01*
X2648983Y3030441D01*
X2740090Y2974398D01*
X2937621Y2892261D01*
X3145585Y2842102D01*
X3358841Y2825162D01*
X3572117Y2841859D01*
X3780138Y2891782D01*
X3977762Y2973695D01*
X4160104Y3085573D01*
X4299338Y3204703D01*
X4363074Y3233328D01*
X4432169Y3222952D01*
X4484685Y3176867D01*
X4489310Y3168935D01*
X4579769Y2999697D01*
X4579780Y2999679D01*
X4765393Y2721891D01*
X4765403Y2721877D01*
X4977361Y2463605D01*
X5213604Y2227362D01*
X5213609Y2227358D01*
X5213610Y2227357D01*
X5471882Y2015399D01*
X5749685Y1829776D01*
X5749694Y1829771D01*
X5749696Y1829770D01*
X6044338Y1672281D01*
X6044340Y1672281D01*
X6044346Y1672277D01*
X6353024Y1544418D01*
X6672749Y1447431D01*
X6672755Y1447430D01*
X6672758Y1447429D01*
X6672769Y1447426D01*
X6878243Y1406556D01*
X7000441Y1382249D01*
X7332944Y1349500D01*
X7332947Y1349500D01*
X7667053Y1349500D01*
X7667056Y1349500D01*
X7999559Y1382249D01*
X8161757Y1414513D01*
X8327230Y1447426D01*
X8327241Y1447429D01*
X8327241Y1447430D01*
X8327251Y1447431D01*
X8646976Y1544418D01*
X8955654Y1672277D01*
X9250315Y1829776D01*
X9528118Y2015399D01*
X9786390Y2227357D01*
X10022643Y2463610D01*
X10234601Y2721882D01*
X10420224Y2999685D01*
X10577723Y3294346D01*
X10705582Y3603024D01*
X10802569Y3922749D01*
X10802571Y3922759D01*
X10802574Y3922770D01*
X10849501Y4158694D01*
X10867751Y4250441D01*
X10900500Y4582944D01*
X10900500Y4917056D01*
X10867751Y5249559D01*
X10843444Y5371757D01*
X10802574Y5577231D01*
X10802571Y5577242D01*
X10802570Y5577245D01*
X10802569Y5577251D01*
X10705582Y5896976D01*
X10577723Y6205654D01*
X10427649Y6486423D01*
X10420230Y6500304D01*
X10420229Y6500306D01*
X10420224Y6500315D01*
X10234601Y6778118D01*
X10022643Y7036390D01*
X10022642Y7036391D01*
X10022638Y7036396D01*
X9786395Y7272639D01*
X9528123Y7484597D01*
X9528122Y7484598D01*
X9528118Y7484601D01*
X9250315Y7670224D01*
X9250310Y7670227D01*
X9250303Y7670231D01*
X8955661Y7827720D01*
X8955656Y7827722D01*
X8946786Y7831396D01*
X8850383Y7871328D01*
X8646977Y7955582D01*
X8327241Y8052572D01*
X8327230Y8052575D01*
X7999565Y8117750D01*
X7999548Y8117753D01*
X7748108Y8142517D01*
X7667056Y8150500D01*
X7332944Y8150500D01*
X7257982Y8143117D01*
X7000451Y8117753D01*
X7000434Y8117750D01*
X6672769Y8052575D01*
X6672758Y8052572D01*
X6353022Y7955582D01*
X6044343Y7827722D01*
X6044338Y7827720D01*
X5749696Y7670231D01*
X5749678Y7670220D01*
X5471890Y7484607D01*
X5471876Y7484597D01*
X5213604Y7272639D01*
X4977361Y7036396D01*
X4765403Y6778124D01*
X4765393Y6778110D01*
X4579780Y6500322D01*
X4579769Y6500304D01*
X4422280Y6205662D01*
X4422278Y6205657D01*
X4294418Y5896978D01*
X4229793Y5683935D01*
X4213331Y5658817D01*
X4198991Y5632427D01*
X4194378Y5629897D01*
X4191495Y5625496D01*
X4164064Y5613264D01*
X4137736Y5598818D01*
X4132487Y5599183D01*
X4127683Y5597040D01*
X4097999Y5601579D01*
X4068035Y5603660D01*
X4063816Y5606805D01*
X4058616Y5607600D01*
X4036094Y5627469D01*
X4012016Y5645418D01*
X4008512Y5651804D01*
X4006222Y5653824D01*
X3995039Y5676360D01*
X3931380Y5845982D01*
X3927529Y5858098D01*
X3867729Y6086136D01*
X3847639Y6162747D01*
X3845050Y6175186D01*
X3832508Y6256041D01*
X3796772Y6486430D01*
X3795471Y6499070D01*
X3795407Y6500322D01*
X3779237Y6815163D01*
X3779118Y6824752D01*
X3783310Y6984317D01*
X3783648Y6990770D01*
X3796325Y7151486D01*
X3797005Y7157938D01*
X3805680Y7223703D01*
X3812738Y7247374D01*
X3811568Y7247758D01*
X3819738Y7272643D01*
X3822998Y7282572D01*
X3828450Y7296339D01*
X3840508Y7322158D01*
X3843813Y7340848D01*
X3847939Y7357415D01*
X3850716Y7366000D01*
X3863266Y7391445D01*
X3870158Y7426095D01*
X3872384Y7432974D01*
X3872437Y7433053D01*
X3872550Y7433485D01*
X3881319Y7460187D01*
X3881759Y7468124D01*
X3887863Y7494496D01*
X3886344Y7494913D01*
X3888493Y7502746D01*
X3888496Y7502751D01*
X3894963Y7549674D01*
X3896183Y7556920D01*
X3905419Y7603345D01*
X3905420Y7603349D01*
X3905260Y7605786D01*
X3906156Y7630836D01*
X3928204Y7790672D01*
X3957738Y8239211D01*
X3955270Y8688713D01*
X3920814Y9136900D01*
X3909676Y9211621D01*
X3901222Y9268341D01*
X3854544Y9581498D01*
X3756796Y10020251D01*
X3628067Y10450933D01*
X3568569Y10608160D01*
X3567320Y10617279D01*
X3545303Y10669646D01*
X3541722Y10679112D01*
X3537230Y10693614D01*
X3533825Y10707580D01*
X3533824Y10707581D01*
X3533824Y10707583D01*
X3517600Y10737214D01*
X3517112Y10738116D01*
X3514349Y10743269D01*
X3499017Y10779736D01*
X3485352Y10797350D01*
X3480430Y10806530D01*
X3479571Y10810628D01*
X3474093Y10820311D01*
X3466988Y10838644D01*
X3452203Y10858856D01*
X3443522Y10872512D01*
X3431490Y10894486D01*
X3431490Y10894487D01*
X3415189Y10911543D01*
X3395912Y10937953D01*
X3384943Y10958114D01*
X3384940Y10958117D01*
X3367225Y10976753D01*
X3357022Y10988969D01*
X3341845Y11009717D01*
X3323095Y11024800D01*
X3300173Y11048986D01*
X3286678Y11067741D01*
X3266027Y11084621D01*
X3265809Y11084800D01*
X3259898Y11089654D01*
X3236263Y11114517D01*
X3210241Y11130432D01*
X3203584Y11135899D01*
X3201220Y11139371D01*
X3191141Y11147644D01*
X3177123Y11162838D01*
X3177120Y11162841D01*
X3153507Y11177771D01*
X3141303Y11186568D01*
X3119678Y11204243D01*
X3119676Y11204245D01*
X3100308Y11212974D01*
X3070671Y11231782D01*
X3055294Y11244932D01*
X3055292Y11244934D01*
X3029164Y11257417D01*
X3028827Y11257579D01*
X3022384Y11260682D01*
X2991870Y11279975D01*
X2964788Y11288414D01*
X2956578Y11292367D01*
X2953144Y11295467D01*
X2941083Y11301256D01*
X2926016Y11311408D01*
X2897564Y11321191D01*
X2897146Y11321336D01*
X2890635Y11323601D01*
X2857286Y11339533D01*
X2830508Y11344515D01*
X2821655Y11347594D01*
X2817776Y11350365D01*
X2805127Y11354726D01*
X2789729Y11362743D01*
X2789728Y11362744D01*
X2789725Y11362745D01*
X2759838Y11369374D01*
X2746379Y11373168D01*
X2731220Y11378379D01*
X2717429Y11383121D01*
X2698172Y11384458D01*
X2679912Y11387103D01*
X2667438Y11389870D01*
X2656151Y11392939D01*
X2621531Y11404131D01*
X2608024Y11404820D01*
X2587499Y11407600D01*
X2574305Y11410526D01*
X2574301Y11410526D01*
X2537946Y11408944D01*
X2526245Y11408988D01*
X2393512Y11415752D01*
X2393512Y11415753D01*
X2391302Y11415866D01*
X2334437Y11420765D01*
X2325677Y11419209D01*
X2316786Y11419662D01*
X2316781Y11419661D01*
X2263039Y11408158D01*
X2258790Y11407326D01*
X2114916Y11381764D01*
X2114917Y11381763D01*
X2113377Y11381490D01*
X2054470Y11372549D01*
X2048596Y11369980D01*
X2043889Y11369144D01*
X2042284Y11368858D01*
X1989739Y11344273D01*
X1986892Y11342985D01*
X1854748Y11285172D01*
X1854749Y11285171D01*
X1853867Y11284786D01*
X1796515Y11260671D01*
X1793619Y11258425D01*
X1790262Y11256956D01*
X1742320Y11218645D01*
X1740918Y11217541D01*
X1657570Y11152880D01*
X1657569Y11152880D01*
X1650880Y11147692D01*
X1623390Y11131819D01*
X1599059Y11107490D01*
X1592900Y11102711D01*
X1571858Y11086386D01*
X1571856Y11086384D01*
X1557768Y11067822D01*
X1546679Y11055110D01*
X996379Y10504806D01*
X935056Y10471321D01*
X865364Y10476305D01*
X809430Y10518176D01*
X785199Y10581344D01*
X777041Y10671755D01*
X713116Y11380231D01*
X712971Y11381986D01*
X623057Y12591136D01*
X622929Y12593079D01*
X622014Y12608706D01*
X552088Y13803371D01*
X551998Y13805141D01*
X500612Y15007693D01*
X500499Y15012987D01*
X500499Y19987017D01*
X500612Y19992311D01*
X502859Y20044902D01*
X551996Y21194866D01*
X552085Y21196624D01*
X622933Y22407027D01*
X623048Y22408768D01*
X698617Y23425008D01*
X9200000Y23425008D01*
X9200000Y9349993D01*
X9200509Y9292881D01*
X9208660Y9178913D01*
X9224920Y9065818D01*
X9249203Y8954191D01*
X9249204Y8954189D01*
X9281395Y8844560D01*
X9321322Y8737511D01*
X9321324Y8737505D01*
X9321327Y8737499D01*
X9343607Y8688713D01*
X9368784Y8633584D01*
X9423539Y8533308D01*
X9485308Y8437193D01*
X9485312Y8437188D01*
X9485315Y8437183D01*
X9553774Y8345732D01*
X9553776Y8345730D01*
X9628595Y8259384D01*
X9628604Y8259375D01*
X9628616Y8259362D01*
X9709361Y8178617D01*
X9709374Y8178605D01*
X9709384Y8178595D01*
X9779600Y8117753D01*
X9795731Y8103775D01*
X9864127Y8052575D01*
X9887193Y8035308D01*
X9983308Y7973539D01*
X10083584Y7918784D01*
X10187511Y7871322D01*
X10294560Y7831395D01*
X10404183Y7799206D01*
X10404188Y7799205D01*
X10404190Y7799204D01*
X10515817Y7774921D01*
X10515824Y7774920D01*
X10628913Y7758660D01*
X10742874Y7750510D01*
X10769239Y7750275D01*
X10799993Y7750000D01*
X10800000Y7750000D01*
X39700007Y7750000D01*
X39728563Y7750255D01*
X39757126Y7750510D01*
X39871087Y7758660D01*
X39984176Y7774920D01*
X39984177Y7774921D01*
X39984182Y7774921D01*
X40095809Y7799204D01*
X40095809Y7799205D01*
X40095817Y7799206D01*
X40205440Y7831395D01*
X40312489Y7871322D01*
X40416416Y7918784D01*
X40516692Y7973539D01*
X40612807Y8035308D01*
X40704270Y8103776D01*
X40790616Y8178595D01*
X40871405Y8259384D01*
X40946224Y8345730D01*
X41014692Y8437193D01*
X41076461Y8533308D01*
X41131216Y8633584D01*
X41178678Y8737511D01*
X41218605Y8844560D01*
X41250794Y8954183D01*
X41260568Y8999114D01*
X41275079Y9065818D01*
X41281228Y9108584D01*
X41291340Y9178913D01*
X41299490Y9292874D01*
X41300000Y9350000D01*
X41300000Y23425000D01*
X41299490Y23482126D01*
X41291340Y23596087D01*
X41275080Y23709176D01*
X41275079Y23709183D01*
X41250796Y23820810D01*
X41250793Y23820820D01*
X41245995Y23837161D01*
X41227541Y23900008D01*
X52200000Y23900008D01*
X52200000Y9824993D01*
X52200509Y9767881D01*
X52208660Y9653913D01*
X52224920Y9540818D01*
X52249203Y9429191D01*
X52249204Y9429189D01*
X52249206Y9429183D01*
X52281395Y9319560D01*
X52321322Y9212511D01*
X52321324Y9212505D01*
X52321327Y9212499D01*
X52368782Y9108588D01*
X52368784Y9108584D01*
X52423539Y9008308D01*
X52485308Y8912193D01*
X52485312Y8912188D01*
X52485315Y8912183D01*
X52553774Y8820732D01*
X52553776Y8820730D01*
X52628595Y8734384D01*
X52628604Y8734375D01*
X52628616Y8734362D01*
X52709361Y8653617D01*
X52709374Y8653605D01*
X52709384Y8653595D01*
X52795730Y8578776D01*
X52887193Y8510308D01*
X52983308Y8448539D01*
X53083584Y8393784D01*
X53187511Y8346322D01*
X53294560Y8306395D01*
X53404183Y8274206D01*
X53404188Y8274205D01*
X53404190Y8274204D01*
X53515817Y8249921D01*
X53515824Y8249920D01*
X53628913Y8233660D01*
X53742874Y8225510D01*
X53769239Y8225275D01*
X53799993Y8225000D01*
X53800000Y8225000D01*
X82700007Y8225000D01*
X82728563Y8225255D01*
X82757126Y8225510D01*
X82871087Y8233660D01*
X82984176Y8249920D01*
X82984177Y8249921D01*
X82984182Y8249921D01*
X83095809Y8274204D01*
X83095809Y8274205D01*
X83095817Y8274206D01*
X83205440Y8306395D01*
X83312489Y8346322D01*
X83416416Y8393784D01*
X83516692Y8448539D01*
X83612807Y8510308D01*
X83704270Y8578776D01*
X83790616Y8653595D01*
X83871405Y8734384D01*
X83946224Y8820730D01*
X84014692Y8912193D01*
X84076461Y9008308D01*
X84131216Y9108584D01*
X84178678Y9212511D01*
X84218605Y9319560D01*
X84250794Y9429183D01*
X84251334Y9431666D01*
X84275079Y9540818D01*
X84276055Y9547608D01*
X84291340Y9653913D01*
X84299490Y9767874D01*
X84300000Y9825000D01*
X84300000Y17035741D01*
X92199500Y17035741D01*
X92199500Y16514260D01*
X92236701Y15994115D01*
X92310915Y15477940D01*
X92421760Y14968396D01*
X92421763Y14968386D01*
X92568675Y14468052D01*
X92568680Y14468035D01*
X92568684Y14468025D01*
X92750919Y13979431D01*
X92750921Y13979428D01*
X92967539Y13505099D01*
X92967543Y13505092D01*
X93217459Y13047405D01*
X93499393Y12608706D01*
X93499396Y12608701D01*
X93811895Y12191250D01*
X94049649Y11916868D01*
X94153397Y11797136D01*
X94153406Y11797127D01*
X94153418Y11797114D01*
X94522113Y11428419D01*
X94522126Y11428407D01*
X94522136Y11428397D01*
X94640123Y11326161D01*
X94916249Y11086896D01*
X95333700Y10774397D01*
X95333705Y10774394D01*
X95772398Y10492463D01*
X96111565Y10307264D01*
X96230091Y10242544D01*
X96230098Y10242540D01*
X96704427Y10025922D01*
X96704430Y10025920D01*
X96704437Y10025918D01*
X96704438Y10025917D01*
X97193035Y9843680D01*
X97693385Y9696764D01*
X97693395Y9696761D01*
X98202939Y9585916D01*
X98202946Y9585915D01*
X98719115Y9511701D01*
X99239262Y9474500D01*
X99760738Y9474500D01*
X100280885Y9511701D01*
X100797054Y9585915D01*
X100797055Y9585916D01*
X100797060Y9585916D01*
X101306604Y9696761D01*
X101306607Y9696762D01*
X101306612Y9696763D01*
X101806965Y9843680D01*
X102295562Y10025917D01*
X102511176Y10124385D01*
X102769901Y10242540D01*
X102769905Y10242543D01*
X102769913Y10242546D01*
X103227602Y10492463D01*
X103666295Y10774394D01*
X103673431Y10779736D01*
X104083750Y11086896D01*
X104135594Y11131819D01*
X104477864Y11428397D01*
X104846603Y11797136D01*
X105188097Y12191242D01*
X105188096Y12191242D01*
X105188104Y12191250D01*
X105500603Y12608701D01*
X105500602Y12608701D01*
X105500606Y12608705D01*
X105782537Y13047398D01*
X106032454Y13505087D01*
X106032457Y13505095D01*
X106032460Y13505099D01*
X106249078Y13979428D01*
X106249080Y13979431D01*
X106249083Y13979438D01*
X106431320Y14468035D01*
X106578237Y14968388D01*
X106586787Y15007691D01*
X106689084Y15477940D01*
X106698874Y15546029D01*
X106763299Y15994115D01*
X106800500Y16514262D01*
X106800500Y17035738D01*
X106800500Y17035741D01*
X115199500Y17035741D01*
X115199500Y16514260D01*
X115236701Y15994115D01*
X115310915Y15477940D01*
X115421760Y14968396D01*
X115421763Y14968386D01*
X115568675Y14468052D01*
X115568680Y14468035D01*
X115568684Y14468025D01*
X115750919Y13979431D01*
X115750921Y13979428D01*
X115967539Y13505099D01*
X115967543Y13505092D01*
X116217459Y13047405D01*
X116499393Y12608706D01*
X116499396Y12608701D01*
X116811895Y12191250D01*
X117049649Y11916868D01*
X117153397Y11797136D01*
X117153406Y11797127D01*
X117153418Y11797114D01*
X117522113Y11428419D01*
X117522126Y11428407D01*
X117522136Y11428397D01*
X117640123Y11326161D01*
X117916249Y11086896D01*
X118333700Y10774397D01*
X118333705Y10774394D01*
X118772398Y10492463D01*
X119111565Y10307264D01*
X119230091Y10242544D01*
X119230098Y10242540D01*
X119704427Y10025922D01*
X119704430Y10025920D01*
X119704437Y10025918D01*
X119704438Y10025917D01*
X120193035Y9843680D01*
X120693385Y9696764D01*
X120693395Y9696761D01*
X121202939Y9585916D01*
X121202946Y9585915D01*
X121719115Y9511701D01*
X122239262Y9474500D01*
X122760738Y9474500D01*
X123280885Y9511701D01*
X123797054Y9585915D01*
X123797055Y9585916D01*
X123797060Y9585916D01*
X124306604Y9696761D01*
X124306607Y9696762D01*
X124306612Y9696763D01*
X124806965Y9843680D01*
X125295562Y10025917D01*
X125511176Y10124385D01*
X125769901Y10242540D01*
X125769905Y10242543D01*
X125769913Y10242546D01*
X126227602Y10492463D01*
X126666295Y10774394D01*
X126673431Y10779736D01*
X127083750Y11086896D01*
X127135594Y11131819D01*
X127477864Y11428397D01*
X127846603Y11797136D01*
X128188097Y12191242D01*
X128188096Y12191242D01*
X128188104Y12191250D01*
X128500603Y12608701D01*
X128500602Y12608701D01*
X128500606Y12608705D01*
X128782537Y13047398D01*
X129032454Y13505087D01*
X129032457Y13505095D01*
X129032460Y13505099D01*
X129249078Y13979428D01*
X129249080Y13979431D01*
X129249083Y13979438D01*
X129431320Y14468035D01*
X129578237Y14968388D01*
X129586787Y15007691D01*
X129689084Y15477940D01*
X129698874Y15546029D01*
X129763299Y15994115D01*
X129800500Y16514262D01*
X129800500Y17035738D01*
X129763299Y17555885D01*
X129689085Y18072054D01*
X129689084Y18072061D01*
X129578239Y18581605D01*
X129578236Y18581615D01*
X129468493Y18955364D01*
X129431320Y19081965D01*
X129249083Y19570562D01*
X129249082Y19570563D01*
X129249080Y19570570D01*
X129249078Y19570573D01*
X129032460Y20044902D01*
X129032456Y20044909D01*
X129032454Y20044913D01*
X128782537Y20502602D01*
X128500606Y20941295D01*
X128500603Y20941300D01*
X128188104Y21358751D01*
X127980068Y21598837D01*
X127846603Y21752864D01*
X127846593Y21752874D01*
X127846581Y21752887D01*
X127477886Y22121582D01*
X127477873Y22121594D01*
X127477864Y22121603D01*
X127305117Y22271289D01*
X127083750Y22463105D01*
X126666299Y22775604D01*
X126666294Y22775607D01*
X126483151Y22893306D01*
X126227602Y23057537D01*
X125769913Y23307454D01*
X125769908Y23307457D01*
X125769901Y23307461D01*
X125295572Y23524079D01*
X125295569Y23524081D01*
X124910686Y23667634D01*
X124806965Y23706320D01*
X124727122Y23729764D01*
X124306614Y23853237D01*
X124306604Y23853240D01*
X123797060Y23964085D01*
X123280885Y24038299D01*
X122760740Y24075500D01*
X122760738Y24075500D01*
X122239262Y24075500D01*
X122239259Y24075500D01*
X121719114Y24038299D01*
X121202939Y23964085D01*
X120693395Y23853240D01*
X120693385Y23853237D01*
X120193051Y23706325D01*
X120193043Y23706323D01*
X120193035Y23706320D01*
X120193026Y23706317D01*
X120193024Y23706316D01*
X119704430Y23524081D01*
X119704427Y23524079D01*
X119230098Y23307461D01*
X119230091Y23307457D01*
X118772404Y23057541D01*
X118333705Y22775607D01*
X118333700Y22775604D01*
X117916249Y22463105D01*
X117522139Y22121606D01*
X117522113Y22121582D01*
X117153418Y21752887D01*
X117153394Y21752861D01*
X116811895Y21358751D01*
X116499396Y20941300D01*
X116499393Y20941295D01*
X116217459Y20502596D01*
X115967543Y20044909D01*
X115967539Y20044902D01*
X115750921Y19570573D01*
X115750919Y19570570D01*
X115568684Y19081976D01*
X115568675Y19081949D01*
X115421763Y18581615D01*
X115421760Y18581605D01*
X115310915Y18072061D01*
X115236701Y17555886D01*
X115199500Y17035741D01*
X106800500Y17035741D01*
X106763299Y17555885D01*
X106689085Y18072054D01*
X106689084Y18072061D01*
X106578239Y18581605D01*
X106578236Y18581615D01*
X106468493Y18955364D01*
X106431320Y19081965D01*
X106249083Y19570562D01*
X106249082Y19570563D01*
X106249080Y19570570D01*
X106249078Y19570573D01*
X106032460Y20044902D01*
X106032456Y20044909D01*
X106032454Y20044913D01*
X105782537Y20502602D01*
X105500606Y20941295D01*
X105500603Y20941300D01*
X105188104Y21358751D01*
X104980068Y21598837D01*
X104846603Y21752864D01*
X104846593Y21752874D01*
X104846581Y21752887D01*
X104477886Y22121582D01*
X104477873Y22121594D01*
X104477864Y22121603D01*
X104305117Y22271289D01*
X104083750Y22463105D01*
X103666299Y22775604D01*
X103666294Y22775607D01*
X103483151Y22893306D01*
X103227602Y23057537D01*
X102769913Y23307454D01*
X102769908Y23307457D01*
X102769901Y23307461D01*
X102295572Y23524079D01*
X102295569Y23524081D01*
X101910686Y23667634D01*
X101806965Y23706320D01*
X101727122Y23729764D01*
X101306614Y23853237D01*
X101306604Y23853240D01*
X100797060Y23964085D01*
X100280885Y24038299D01*
X99760740Y24075500D01*
X99760738Y24075500D01*
X99239262Y24075500D01*
X99239259Y24075500D01*
X98719114Y24038299D01*
X98202939Y23964085D01*
X97693395Y23853240D01*
X97693385Y23853237D01*
X97193051Y23706325D01*
X97193043Y23706323D01*
X97193035Y23706320D01*
X97193026Y23706317D01*
X97193024Y23706316D01*
X96704430Y23524081D01*
X96704427Y23524079D01*
X96230098Y23307461D01*
X96230091Y23307457D01*
X95772404Y23057541D01*
X95333705Y22775607D01*
X95333700Y22775604D01*
X94916249Y22463105D01*
X94522139Y22121606D01*
X94522113Y22121582D01*
X94153418Y21752887D01*
X94153394Y21752861D01*
X93811895Y21358751D01*
X93499396Y20941300D01*
X93499393Y20941295D01*
X93217459Y20502596D01*
X92967543Y20044909D01*
X92967539Y20044902D01*
X92750921Y19570573D01*
X92750919Y19570570D01*
X92568684Y19081976D01*
X92568675Y19081949D01*
X92421763Y18581615D01*
X92421760Y18581605D01*
X92310915Y18072061D01*
X92236701Y17555886D01*
X92199500Y17035741D01*
X84300000Y17035741D01*
X84300000Y23900000D01*
X84299989Y23901180D01*
X84299545Y23951015D01*
X84299490Y23957126D01*
X84291340Y24071087D01*
X84275080Y24184176D01*
X84275079Y24184183D01*
X84250796Y24295810D01*
X84250795Y24295812D01*
X84245479Y24313917D01*
X84218605Y24405440D01*
X84178678Y24512489D01*
X84131216Y24616416D01*
X84076461Y24716692D01*
X84014692Y24812807D01*
X83982195Y24856218D01*
X83946225Y24904269D01*
X83884248Y24975794D01*
X83871405Y24990616D01*
X83871395Y24990626D01*
X83871383Y24990639D01*
X83790638Y25071384D01*
X83790625Y25071396D01*
X83790616Y25071405D01*
X83704270Y25146224D01*
X83704268Y25146226D01*
X83612817Y25214685D01*
X83612812Y25214688D01*
X83612807Y25214692D01*
X83516692Y25276461D01*
X83416416Y25331216D01*
X83416412Y25331218D01*
X83312501Y25378673D01*
X83312495Y25378676D01*
X83312489Y25378678D01*
X83205440Y25418605D01*
X83172828Y25428181D01*
X83095811Y25450796D01*
X83095809Y25450797D01*
X82984182Y25475080D01*
X82871087Y25491340D01*
X82757119Y25499491D01*
X82700007Y25500000D01*
X82700000Y25500000D01*
X53800000Y25500000D01*
X53799993Y25500000D01*
X53742880Y25499491D01*
X53628912Y25491340D01*
X53515817Y25475080D01*
X53404190Y25450797D01*
X53404188Y25450796D01*
X53294559Y25418605D01*
X53187498Y25378673D01*
X53083587Y25331218D01*
X52983314Y25276465D01*
X52887187Y25214688D01*
X52887182Y25214685D01*
X52795731Y25146226D01*
X52709387Y25071408D01*
X52709361Y25071384D01*
X52628616Y24990639D01*
X52628592Y24990613D01*
X52553774Y24904269D01*
X52485315Y24812818D01*
X52485312Y24812813D01*
X52485308Y24812807D01*
X52454423Y24764750D01*
X52423535Y24716686D01*
X52368782Y24616413D01*
X52321327Y24512502D01*
X52321322Y24512491D01*
X52321322Y24512489D01*
X52314872Y24495196D01*
X52281395Y24405441D01*
X52249204Y24295812D01*
X52249203Y24295810D01*
X52224920Y24184183D01*
X52208660Y24071088D01*
X52200509Y23957120D01*
X52200000Y23900008D01*
X41227541Y23900008D01*
X41218605Y23930440D01*
X41178678Y24037489D01*
X41131216Y24141416D01*
X41076461Y24241692D01*
X41014692Y24337807D01*
X40954168Y24418658D01*
X40946225Y24429269D01*
X40900683Y24481827D01*
X40871405Y24515616D01*
X40871395Y24515626D01*
X40871383Y24515639D01*
X40790638Y24596384D01*
X40790625Y24596396D01*
X40790616Y24596405D01*
X40704270Y24671224D01*
X40704268Y24671226D01*
X40612817Y24739685D01*
X40612812Y24739688D01*
X40612807Y24739692D01*
X40516692Y24801461D01*
X40495913Y24812807D01*
X40416412Y24856218D01*
X40312501Y24903673D01*
X40312495Y24903676D01*
X40312489Y24903678D01*
X40205440Y24943605D01*
X40166405Y24955067D01*
X40095811Y24975796D01*
X40095809Y24975797D01*
X39984182Y25000080D01*
X39871087Y25016340D01*
X39757119Y25024491D01*
X39700007Y25025000D01*
X39700000Y25025000D01*
X10800000Y25025000D01*
X10799993Y25025000D01*
X10742880Y25024491D01*
X10628912Y25016340D01*
X10515817Y25000080D01*
X10404190Y24975797D01*
X10404188Y24975796D01*
X10294559Y24943605D01*
X10229154Y24919210D01*
X10189099Y24904270D01*
X10187498Y24903673D01*
X10083587Y24856218D01*
X9983314Y24801465D01*
X9887187Y24739688D01*
X9887182Y24739685D01*
X9795731Y24671226D01*
X9709387Y24596408D01*
X9709361Y24596384D01*
X9628616Y24515639D01*
X9628592Y24515613D01*
X9553774Y24429269D01*
X9485315Y24337818D01*
X9485312Y24337813D01*
X9485308Y24337807D01*
X9469956Y24313918D01*
X9423535Y24241686D01*
X9368782Y24141413D01*
X9321327Y24037502D01*
X9281395Y23930441D01*
X9249204Y23820812D01*
X9249203Y23820810D01*
X9224920Y23709183D01*
X9208660Y23596088D01*
X9200509Y23482120D01*
X9200000Y23425008D01*
X698617Y23425008D01*
X712966Y23617965D01*
X713125Y23619877D01*
X785199Y24418661D01*
X810827Y24483657D01*
X867529Y24524482D01*
X937301Y24528170D01*
X996377Y24495196D01*
X1526799Y23964771D01*
X1536147Y23953037D01*
X1536450Y23953287D01*
X1541626Y23947026D01*
X1541629Y23947023D01*
X1541630Y23947022D01*
X1557599Y23932173D01*
X1581598Y23909857D01*
X1584839Y23906731D01*
X1590390Y23901180D01*
X1600440Y23889818D01*
X1609296Y23878475D01*
X1634157Y23859727D01*
X1636213Y23858177D01*
X1637083Y23857515D01*
X1641712Y23853960D01*
X1670690Y23827014D01*
X1690388Y23816576D01*
X1698651Y23810230D01*
X1701118Y23806848D01*
X1710092Y23800274D01*
X1724098Y23786491D01*
X1745904Y23774135D01*
X1759419Y23765265D01*
X1779428Y23750175D01*
X1801292Y23741333D01*
X1829722Y23725184D01*
X1843384Y23714824D01*
X1848019Y23711310D01*
X1871822Y23701611D01*
X1886156Y23694664D01*
X1908509Y23681997D01*
X1920733Y23678827D01*
X1931807Y23675955D01*
X1962656Y23663327D01*
X1973586Y23657020D01*
X1982659Y23651785D01*
X2008563Y23644852D01*
X2008695Y23644816D01*
X2016074Y23642823D01*
X2047858Y23629869D01*
X2078127Y23626061D01*
X2086439Y23623815D01*
X2090024Y23621620D01*
X2102612Y23618223D01*
X2121630Y23610139D01*
X2121635Y23610137D01*
X2149302Y23606236D01*
X2164019Y23603240D01*
X2191015Y23596013D01*
X2212265Y23596019D01*
X2247013Y23591060D01*
X2266438Y23585394D01*
X2287288Y23584937D01*
X2295396Y23584758D01*
X2295778Y23584749D01*
X2302918Y23584571D01*
X2338664Y23579528D01*
X2366817Y23582971D01*
X2375924Y23582743D01*
X2380331Y23581329D01*
X2393707Y23581010D01*
X2396283Y23580570D01*
X2411618Y23577950D01*
X2442011Y23580773D01*
X2448860Y23581384D01*
X2485831Y23580570D01*
X2512294Y23587042D01*
X2521626Y23587874D01*
X2526306Y23586942D01*
X2539629Y23588167D01*
X2556959Y23587189D01*
X2586937Y23593437D01*
X2600764Y23595512D01*
X2631241Y23598341D01*
X2649345Y23605040D01*
X2667067Y23610135D01*
X2679591Y23612745D01*
X2691123Y23614586D01*
X2727298Y23618617D01*
X2739885Y23623541D01*
X2759748Y23629449D01*
X2772978Y23632205D01*
X2805481Y23648604D01*
X2816135Y23653362D01*
X2941937Y23702562D01*
X2995838Y23721492D01*
X3003190Y23726518D01*
X3011482Y23729760D01*
X3045856Y23755066D01*
X3055736Y23762339D01*
X3059280Y23764854D01*
X3181205Y23848187D01*
X3231224Y23880554D01*
X3235520Y23885311D01*
X3240812Y23888927D01*
X3250319Y23900000D01*
X3278607Y23932949D01*
X3280655Y23935276D01*
X3377972Y24043003D01*
X3420369Y24088597D01*
X3422082Y24091833D01*
X3424535Y24094547D01*
X3424535Y24094548D01*
X3424542Y24094555D01*
X3452552Y24149311D01*
X3453283Y24150715D01*
X3506665Y24251456D01*
X3525208Y24277239D01*
X3537386Y24309432D01*
X3553501Y24339843D01*
X3558707Y24362542D01*
X3563586Y24378680D01*
X3628066Y24549075D01*
X3756791Y24979756D01*
X3854535Y25418508D01*
X3920804Y25863103D01*
X3955261Y26311287D01*
X3957731Y26760788D01*
X3928202Y27209324D01*
X3904477Y27381337D01*
X3905459Y27396045D01*
X3895504Y27446402D01*
X3888497Y27497244D01*
X3888496Y27497246D01*
X3888496Y27497249D01*
X3886559Y27504307D01*
X3882311Y27530556D01*
X3882241Y27531877D01*
X3881971Y27536974D01*
X3873147Y27564067D01*
X3869409Y27578411D01*
X3863886Y27606353D01*
X3855508Y27623394D01*
X3849049Y27639194D01*
X3846218Y27647760D01*
X3841309Y27675708D01*
X3826392Y27707748D01*
X3824124Y27714613D01*
X3824120Y27714710D01*
X3823955Y27715130D01*
X3812742Y27749565D01*
X3813472Y27749804D01*
X3805734Y27775885D01*
X3797002Y27842086D01*
X3796326Y27848508D01*
X3783649Y28009230D01*
X3783310Y28015686D01*
X3779118Y28175272D01*
X3779238Y28184873D01*
X3784769Y28292660D01*
X3795458Y28500971D01*
X3796757Y28513585D01*
X3845027Y28824839D01*
X3847610Y28837252D01*
X3927502Y29141927D01*
X3931353Y29154039D01*
X3951105Y29206669D01*
X4042019Y29448912D01*
X4047076Y29460537D01*
X4187371Y29742551D01*
X4193596Y29753603D01*
X4362021Y30019747D01*
X4369353Y30030116D01*
X4561277Y30273964D01*
X4564858Y30278304D01*
X4566868Y30280631D01*
X4598663Y30313927D01*
X4603882Y30323472D01*
X4611389Y30332159D01*
X4611435Y30332228D01*
X4611435Y30332230D01*
X4611438Y30332232D01*
X4635597Y30381452D01*
X4661904Y30429546D01*
X4664558Y30440454D01*
X4669506Y30450533D01*
X4679592Y30501740D01*
X4680739Y30506955D01*
X4702760Y30597503D01*
X4720138Y30810722D01*
X4703879Y31024029D01*
X4654385Y31232150D01*
X4572880Y31429941D01*
X4546292Y31473476D01*
X4461381Y31612510D01*
X4322639Y31775347D01*
X4241391Y31844861D01*
X4160090Y31914421D01*
X3977751Y32026298D01*
X3977747Y32026300D01*
X3977745Y32026301D01*
X3977746Y32026301D01*
X3780128Y32108210D01*
X3780125Y32108211D01*
X3572113Y32158132D01*
X3358839Y32174831D01*
X3358837Y32174831D01*
X3358836Y32174831D01*
X3198895Y32162128D01*
X3145581Y32157893D01*
X2937613Y32107736D01*
X2740092Y32025604D01*
X2740086Y32025601D01*
X2557880Y31913525D01*
X2477782Y31844861D01*
X2477343Y31844487D01*
X1983692Y31425272D01*
X1919851Y31396881D01*
X1850795Y31407513D01*
X1798449Y31453792D01*
X1779433Y31521024D01*
X1781622Y31543016D01*
X1865990Y31985459D01*
X1866072Y31985880D01*
X1965558Y32489216D01*
X1967234Y32496521D01*
X2036739Y32762425D01*
X2041090Y32775876D01*
X2139281Y33029012D01*
X2145146Y33041896D01*
X2271584Y33282178D01*
X2278869Y33294288D01*
X2431900Y33518575D01*
X2440526Y33529784D01*
X2618148Y33735142D01*
X2628009Y33745305D01*
X2827893Y33929042D01*
X2838840Y33938005D01*
X3058390Y34097737D01*
X3070288Y34105395D01*
X3306645Y34239038D01*
X3319332Y34245283D01*
X3569376Y34351075D01*
X3582710Y34355838D01*
X3843192Y34432407D01*
X3856989Y34435619D01*
X4124502Y34481963D01*
X4138572Y34483579D01*
X4413160Y34499297D01*
X4420247Y34499500D01*
X4482598Y34499500D01*
X10166401Y34499500D01*
X10233440Y34479815D01*
G37*
%TD.AperFunction*%
M02*
