%TF.GenerationSoftware,KiCad,Pcbnew,10.0.1*%
%TF.CreationDate,2026-07-06T15:17:52+01:00*%
%TF.ProjectId,panel-front,70616e65-6c2d-4667-926f-6e742e6b6963,rev?*%
%TF.SameCoordinates,PX4b571c0PY7270e00*%
%TF.FileFunction,Soldermask,Top*%
%TF.FilePolarity,Negative*%
%FSLAX46Y46*%
G04 Gerber Fmt 4.6, Leading zero omitted, Abs format (unit mm)*
G04 Created by KiCad (PCBNEW 10.0.1) date 2026-07-06 15:17:52*
%MOMM*%
%LPD*%
G01*
G04 APERTURE LIST*
%ADD10C,0.000000*%
%ADD11C,4.100000*%
%ADD12C,5.800000*%
G04 APERTURE END LIST*
D10*
%TO.C,G\u002A\u002A\u002A*%
G36*
X97708640Y6748221D02*
G01*
X97758309Y6737393D01*
X97796912Y6717774D01*
X97827840Y6688064D01*
X97834998Y6678590D01*
X97857046Y6647677D01*
X97859719Y6019525D01*
X97860102Y5911812D01*
X97860321Y5809324D01*
X97860380Y5713682D01*
X97860287Y5626504D01*
X97860048Y5549409D01*
X97859667Y5484016D01*
X97859151Y5431944D01*
X97858505Y5394812D01*
X97857737Y5374239D01*
X97857361Y5370848D01*
X97841658Y5338971D01*
X97812375Y5306586D01*
X97774123Y5278288D01*
X97753528Y5267319D01*
X97701158Y5250638D01*
X97642018Y5244060D01*
X97583173Y5247642D01*
X97531689Y5261442D01*
X97522863Y5265450D01*
X97479415Y5297190D01*
X97454029Y5329202D01*
X97426555Y5372481D01*
X97429268Y6005356D01*
X97429817Y6130181D01*
X97430345Y6237518D01*
X97430898Y6328771D01*
X97431524Y6405342D01*
X97432269Y6468636D01*
X97433179Y6520057D01*
X97434301Y6561007D01*
X97435682Y6592890D01*
X97437367Y6617110D01*
X97439405Y6635070D01*
X97441840Y6648175D01*
X97444720Y6657827D01*
X97448092Y6665430D01*
X97451356Y6671291D01*
X97471713Y6696152D01*
X97500352Y6720127D01*
X97512754Y6727967D01*
X97535540Y6739417D01*
X97557896Y6746477D01*
X97585469Y6750157D01*
X97623905Y6751468D01*
X97644514Y6751555D01*
X97708640Y6748221D01*
G37*
G36*
X97697129Y5174167D02*
G01*
X97740394Y5162693D01*
X97743777Y5161224D01*
X97778453Y5139393D01*
X97812778Y5107918D01*
X97840533Y5073157D01*
X97852956Y5049657D01*
X97854614Y5035926D01*
X97856147Y5004658D01*
X97857534Y4957206D01*
X97858758Y4894926D01*
X97859800Y4819171D01*
X97860640Y4731296D01*
X97861261Y4632655D01*
X97861644Y4524602D01*
X97861769Y4412639D01*
X97861712Y4286437D01*
X97861521Y4177816D01*
X97861170Y4085466D01*
X97860630Y4008075D01*
X97859876Y3944335D01*
X97858879Y3892934D01*
X97857612Y3852562D01*
X97856048Y3821909D01*
X97854160Y3799664D01*
X97851920Y3784517D01*
X97849301Y3775158D01*
X97848444Y3773295D01*
X97815180Y3728781D01*
X97768837Y3693045D01*
X97713914Y3667938D01*
X97654909Y3655315D01*
X97596320Y3657027D01*
X97576698Y3661369D01*
X97521851Y3684762D01*
X97476425Y3720291D01*
X97446063Y3762128D01*
X97442302Y3770048D01*
X97439078Y3778913D01*
X97436351Y3790157D01*
X97434079Y3805215D01*
X97432220Y3825523D01*
X97430733Y3852515D01*
X97429577Y3887628D01*
X97428710Y3932294D01*
X97428090Y3987951D01*
X97427677Y4056033D01*
X97427429Y4137974D01*
X97427304Y4235211D01*
X97427262Y4349177D01*
X97427258Y4413723D01*
X97427279Y4536848D01*
X97427368Y4642511D01*
X97427564Y4732142D01*
X97427907Y4807171D01*
X97428438Y4869028D01*
X97429195Y4919144D01*
X97430218Y4958947D01*
X97431548Y4989868D01*
X97433223Y5013338D01*
X97435283Y5030785D01*
X97437768Y5043640D01*
X97440718Y5053333D01*
X97444172Y5061294D01*
X97445285Y5063505D01*
X97480633Y5113604D01*
X97527396Y5151635D01*
X97552113Y5164171D01*
X97594509Y5175037D01*
X97645675Y5178325D01*
X97697129Y5174167D01*
G37*
G36*
X97052595Y5167711D02*
G01*
X97102621Y5139941D01*
X97142484Y5098483D01*
X97148520Y5089325D01*
X97176942Y5043351D01*
X97176942Y4215895D01*
X97176942Y3388440D01*
X97144787Y3322521D01*
X97098836Y3248480D01*
X97037055Y3179996D01*
X96962204Y3119261D01*
X96877043Y3068467D01*
X96784331Y3029805D01*
X96770769Y3025443D01*
X96725532Y3015146D01*
X96667100Y3007241D01*
X96601051Y3002011D01*
X96532965Y2999741D01*
X96468420Y3000716D01*
X96412994Y3005220D01*
X96402747Y3006686D01*
X96288561Y3033376D01*
X96184722Y3075852D01*
X96091286Y3134081D01*
X96008309Y3208032D01*
X95984003Y3234979D01*
X95948453Y3286684D01*
X95920509Y3347724D01*
X95900783Y3414102D01*
X95889889Y3481821D01*
X95888441Y3546881D01*
X95897051Y3605286D01*
X95916332Y3653038D01*
X95919185Y3657549D01*
X95944348Y3690145D01*
X95971553Y3711380D01*
X96006476Y3724443D01*
X96052050Y3732196D01*
X96120173Y3733461D01*
X96177759Y3719240D01*
X96225491Y3689105D01*
X96264053Y3642624D01*
X96293918Y3579948D01*
X96319331Y3519608D01*
X96348010Y3472050D01*
X96383835Y3431174D01*
X96395476Y3420276D01*
X96425776Y3396942D01*
X96456583Y3384368D01*
X96485672Y3379205D01*
X96554625Y3377569D01*
X96616805Y3389855D01*
X96669551Y3415070D01*
X96710201Y3452222D01*
X96720356Y3466689D01*
X96742431Y3502195D01*
X96747154Y4267312D01*
X96748013Y4405354D01*
X96748799Y4525777D01*
X96749551Y4629853D01*
X96750308Y4718854D01*
X96751111Y4794053D01*
X96751998Y4856722D01*
X96753010Y4908134D01*
X96754186Y4949560D01*
X96755565Y4982273D01*
X96757188Y5007545D01*
X96759093Y5026649D01*
X96761320Y5040857D01*
X96763909Y5051441D01*
X96766899Y5059674D01*
X96770330Y5066827D01*
X96772125Y5070213D01*
X96793814Y5104985D01*
X96818520Y5129922D01*
X96852487Y5150570D01*
X96873794Y5160533D01*
X96934956Y5178843D01*
X96995632Y5180957D01*
X97052595Y5167711D01*
G37*
G36*
X97045566Y7485993D02*
G01*
X97100489Y7466219D01*
X97142326Y7434066D01*
X97170056Y7390097D01*
X97171590Y7386203D01*
X97175434Y7366765D01*
X97178602Y7333050D01*
X97180781Y7289667D01*
X97181660Y7241229D01*
X97181665Y7237430D01*
X97181665Y7115248D01*
X97254871Y7115213D01*
X97308196Y7112142D01*
X97348418Y7101537D01*
X97380551Y7081221D01*
X97409608Y7049019D01*
X97410691Y7047570D01*
X97433163Y7011239D01*
X97447159Y6971791D01*
X97454122Y6923745D01*
X97455596Y6876757D01*
X97452592Y6819563D01*
X97442383Y6776394D01*
X97423177Y6743177D01*
X97393180Y6715838D01*
X97381222Y6707801D01*
X97357506Y6694068D01*
X97335746Y6685936D01*
X97309568Y6681980D01*
X97272596Y6680775D01*
X97260106Y6680737D01*
X97181665Y6680737D01*
X97181510Y6026609D01*
X97181354Y5372481D01*
X97160257Y5334698D01*
X97127364Y5294751D01*
X97080359Y5266033D01*
X97020833Y5249272D01*
X96964410Y5244962D01*
X96921553Y5246300D01*
X96889214Y5251474D01*
X96859132Y5262220D01*
X96840945Y5270938D01*
X96800903Y5296040D01*
X96774201Y5325409D01*
X96768563Y5334698D01*
X96747465Y5372481D01*
X96747310Y6020876D01*
X96747246Y6148151D01*
X96747102Y6257836D01*
X96746846Y6351229D01*
X96746450Y6429631D01*
X96745882Y6494342D01*
X96745113Y6546664D01*
X96744113Y6587894D01*
X96742851Y6619335D01*
X96741299Y6642287D01*
X96739425Y6658049D01*
X96737200Y6667922D01*
X96734594Y6673206D01*
X96732213Y6675004D01*
X96715013Y6678116D01*
X96686096Y6680198D01*
X96660900Y6680737D01*
X96608084Y6685562D01*
X96567351Y6701363D01*
X96534163Y6730130D01*
X96526374Y6739764D01*
X96501695Y6785854D01*
X96487215Y6842411D01*
X96483142Y6903867D01*
X96489684Y6964655D01*
X96507051Y7019208D01*
X96515325Y7035119D01*
X96544915Y7073119D01*
X96582945Y7098177D01*
X96632294Y7111660D01*
X96683394Y7115041D01*
X96747154Y7115248D01*
X96747154Y7233625D01*
X96748080Y7294663D01*
X96751566Y7340597D01*
X96758677Y7375156D01*
X96770473Y7402069D01*
X96788020Y7425065D01*
X96806887Y7443125D01*
X96842254Y7468076D01*
X96883015Y7483730D01*
X96933833Y7491436D01*
X96978579Y7492824D01*
X97045566Y7485993D01*
G37*
G36*
X96144603Y6781457D02*
G01*
X96251120Y6762860D01*
X96343967Y6731570D01*
X96423015Y6687648D01*
X96488135Y6631153D01*
X96539198Y6562148D01*
X96552490Y6537553D01*
X96569431Y6490265D01*
X96577108Y6438898D01*
X96575136Y6390086D01*
X96563299Y6350787D01*
X96530753Y6307589D01*
X96484719Y6274513D01*
X96428707Y6253435D01*
X96367696Y6246226D01*
X96333771Y6247800D01*
X96304488Y6253840D01*
X96275797Y6266329D01*
X96243646Y6287249D01*
X96203983Y6318579D01*
X96182210Y6336940D01*
X96130101Y6377343D01*
X96083880Y6402938D01*
X96039288Y6414851D01*
X95992067Y6414210D01*
X95937960Y6402144D01*
X95937041Y6401872D01*
X95900101Y6385955D01*
X95870673Y6364009D01*
X95852996Y6339741D01*
X95849795Y6325571D01*
X95855641Y6311404D01*
X95870426Y6290072D01*
X95879105Y6279623D01*
X95898203Y6261171D01*
X95921505Y6246654D01*
X95954153Y6233407D01*
X95990094Y6222037D01*
X96079418Y6195302D01*
X96152867Y6172663D01*
X96212812Y6153308D01*
X96261619Y6136422D01*
X96301659Y6121194D01*
X96335298Y6106809D01*
X96359538Y6095188D01*
X96440986Y6046282D01*
X96505446Y5989905D01*
X96553591Y5925290D01*
X96586095Y5851669D01*
X96592240Y5830293D01*
X96600053Y5795470D01*
X96603270Y5764914D01*
X96602165Y5730916D01*
X96597332Y5688155D01*
X96580752Y5597119D01*
X96556042Y5520111D01*
X96521510Y5453400D01*
X96475464Y5393253D01*
X96452945Y5369704D01*
X96384289Y5315036D01*
X96303613Y5274874D01*
X96218184Y5250674D01*
X96174100Y5243577D01*
X96121524Y5237560D01*
X96065997Y5233001D01*
X96013065Y5230282D01*
X95968270Y5229784D01*
X95939531Y5231544D01*
X95837331Y5247846D01*
X95748492Y5268441D01*
X95667680Y5294894D01*
X95589563Y5328767D01*
X95563711Y5341714D01*
X95488890Y5390079D01*
X95428378Y5450702D01*
X95381772Y5523987D01*
X95380667Y5526219D01*
X95367644Y5555424D01*
X95360883Y5580784D01*
X95359091Y5610071D01*
X95360668Y5646380D01*
X95371721Y5711597D01*
X95395620Y5762962D01*
X95432367Y5800476D01*
X95481961Y5824140D01*
X95544405Y5833955D01*
X95557624Y5834254D01*
X95622266Y5827872D01*
X95677662Y5807134D01*
X95726755Y5770479D01*
X95767816Y5722824D01*
X95803621Y5676923D01*
X95834674Y5644769D01*
X95864903Y5623331D01*
X95898240Y5609579D01*
X95922526Y5603514D01*
X95976887Y5597111D01*
X96029892Y5599564D01*
X96077576Y5609908D01*
X96115974Y5627182D01*
X96141122Y5650420D01*
X96145131Y5657604D01*
X96148776Y5686762D01*
X96136395Y5718138D01*
X96110304Y5749417D01*
X96072817Y5778282D01*
X96026249Y5802419D01*
X95986760Y5816025D01*
X95956102Y5824455D01*
X95914373Y5835921D01*
X95868720Y5848461D01*
X95849795Y5853658D01*
X95749354Y5886416D01*
X95660673Y5925919D01*
X95585332Y5971156D01*
X95524911Y6021113D01*
X95480990Y6074778D01*
X95467620Y6098639D01*
X95442750Y6169476D01*
X95430779Y6249402D01*
X95431426Y6333970D01*
X95444414Y6418730D01*
X95469463Y6499235D01*
X95496194Y6554486D01*
X95536506Y6607699D01*
X95592943Y6657394D01*
X95662825Y6701850D01*
X95743472Y6739349D01*
X95827331Y6766886D01*
X95870391Y6776685D01*
X95915375Y6782950D01*
X95968181Y6786294D01*
X96024544Y6787298D01*
X96144603Y6781457D01*
G37*
G36*
X99501048Y5194293D02*
G01*
X99576198Y5184033D01*
X99636976Y5170956D01*
X99684358Y5156123D01*
X99723824Y5137010D01*
X99760855Y5111091D01*
X99791006Y5085044D01*
X99845185Y5022812D01*
X99888174Y4945738D01*
X99919660Y4854427D01*
X99927764Y4819897D01*
X99931616Y4799774D01*
X99934842Y4778144D01*
X99937494Y4753207D01*
X99939627Y4723160D01*
X99941295Y4686203D01*
X99942553Y4640533D01*
X99943455Y4584351D01*
X99944054Y4515855D01*
X99944406Y4433242D01*
X99944564Y4334713D01*
X99944588Y4261116D01*
X99944588Y3782626D01*
X99915840Y3746315D01*
X99875288Y3708124D01*
X99823174Y3677863D01*
X99766230Y3658748D01*
X99721884Y3653644D01*
X99659970Y3662416D01*
X99601833Y3687056D01*
X99552261Y3725050D01*
X99526608Y3756153D01*
X99495908Y3801876D01*
X99495908Y4249820D01*
X99495922Y4356639D01*
X99495831Y4446214D01*
X99495440Y4520194D01*
X99494551Y4580228D01*
X99492970Y4627963D01*
X99490499Y4665049D01*
X99486943Y4693133D01*
X99482104Y4713863D01*
X99475787Y4728889D01*
X99467795Y4739858D01*
X99457932Y4748418D01*
X99446001Y4756219D01*
X99434779Y4763055D01*
X99395820Y4778022D01*
X99351632Y4781007D01*
X99307957Y4772969D01*
X99270537Y4754871D01*
X99247550Y4731709D01*
X99244347Y4723703D01*
X99241582Y4709264D01*
X99239197Y4686910D01*
X99237136Y4655162D01*
X99235340Y4612539D01*
X99233753Y4557563D01*
X99232317Y4488752D01*
X99230975Y4404627D01*
X99229669Y4303709D01*
X99229120Y4256237D01*
X99227934Y4151833D01*
X99226864Y4064612D01*
X99225817Y3992870D01*
X99224700Y3934899D01*
X99223420Y3888993D01*
X99221883Y3853446D01*
X99219996Y3826551D01*
X99217666Y3806602D01*
X99214800Y3791892D01*
X99211304Y3780715D01*
X99207085Y3771365D01*
X99202128Y3762272D01*
X99170004Y3721951D01*
X99124614Y3687749D01*
X99071447Y3663500D01*
X99053587Y3658445D01*
X98997172Y3653518D01*
X98939522Y3663439D01*
X98885478Y3686257D01*
X98839878Y3720025D01*
X98811332Y3755954D01*
X98787467Y3796677D01*
X98787467Y4249845D01*
X98787467Y4703012D01*
X98761490Y4727892D01*
X98724961Y4754637D01*
X98682047Y4773927D01*
X98641188Y4782056D01*
X98637994Y4782113D01*
X98611372Y4775389D01*
X98578509Y4757084D01*
X98567870Y4749401D01*
X98525028Y4716689D01*
X98521095Y4260576D01*
X98520096Y4153308D01*
X98519067Y4063311D01*
X98517945Y3988964D01*
X98516669Y3928645D01*
X98515176Y3880734D01*
X98513404Y3843609D01*
X98511292Y3815651D01*
X98508778Y3795236D01*
X98505798Y3780746D01*
X98502353Y3770696D01*
X98473834Y3727831D01*
X98431845Y3693281D01*
X98380569Y3668641D01*
X98324192Y3655503D01*
X98266898Y3655461D01*
X98225239Y3665194D01*
X98168192Y3690924D01*
X98127315Y3722509D01*
X98101443Y3759410D01*
X98097489Y3768274D01*
X98094173Y3778689D01*
X98091441Y3792287D01*
X98089239Y3810700D01*
X98087513Y3835559D01*
X98086209Y3868498D01*
X98085272Y3911149D01*
X98084649Y3965145D01*
X98084287Y4032117D01*
X98084130Y4113697D01*
X98084125Y4211519D01*
X98084175Y4281481D01*
X98084372Y4400263D01*
X98084832Y4501889D01*
X98085695Y4588095D01*
X98087102Y4660618D01*
X98089193Y4721193D01*
X98092109Y4771557D01*
X98095990Y4813444D01*
X98100975Y4848592D01*
X98107207Y4878735D01*
X98114824Y4905611D01*
X98123968Y4930954D01*
X98134778Y4956501D01*
X98139627Y4967224D01*
X98168540Y5016310D01*
X98208429Y5065230D01*
X98254024Y5108454D01*
X98300055Y5140456D01*
X98309415Y5145297D01*
X98387481Y5173626D01*
X98480224Y5190669D01*
X98587114Y5196345D01*
X98635639Y5195337D01*
X98736590Y5186501D01*
X98823344Y5168277D01*
X98898496Y5139932D01*
X98960432Y5103720D01*
X99014168Y5066078D01*
X99067904Y5103720D01*
X99136000Y5141548D01*
X99217123Y5170113D01*
X99307511Y5188822D01*
X99403406Y5197080D01*
X99501048Y5194293D01*
G37*
G36*
X99506076Y6780801D02*
G01*
X99586936Y6769824D01*
X99658132Y6752536D01*
X99709307Y6732680D01*
X99757603Y6701484D01*
X99805652Y6657156D01*
X99848608Y6604887D01*
X99881624Y6549869D01*
X99883361Y6546214D01*
X99895687Y6519207D01*
X99906170Y6494017D01*
X99914974Y6468874D01*
X99922264Y6442012D01*
X99928203Y6411664D01*
X99932959Y6376061D01*
X99936693Y6333438D01*
X99939573Y6282026D01*
X99941762Y6220058D01*
X99943424Y6145766D01*
X99944725Y6057384D01*
X99945830Y5953145D01*
X99946592Y5867724D01*
X99950776Y5380593D01*
X99919172Y5339157D01*
X99872330Y5292212D01*
X99816893Y5261037D01*
X99755441Y5246172D01*
X99690555Y5248155D01*
X99624816Y5267526D01*
X99609779Y5274531D01*
X99569612Y5297733D01*
X99541366Y5322735D01*
X99523257Y5347224D01*
X99495908Y5390349D01*
X99495908Y5840628D01*
X99495889Y5944496D01*
X99495786Y6031142D01*
X99495528Y6102235D01*
X99495048Y6159444D01*
X99494275Y6204440D01*
X99493141Y6238891D01*
X99491576Y6264467D01*
X99489511Y6282838D01*
X99486876Y6295672D01*
X99483603Y6304640D01*
X99479622Y6311411D01*
X99476183Y6315985D01*
X99439056Y6348985D01*
X99391815Y6366192D01*
X99358165Y6369023D01*
X99313026Y6362311D01*
X99274067Y6344001D01*
X99246667Y6316834D01*
X99242909Y6310309D01*
X99240023Y6297574D01*
X99237510Y6270995D01*
X99235347Y6229800D01*
X99233512Y6173214D01*
X99231982Y6100463D01*
X99230736Y6010774D01*
X99229751Y5903372D01*
X99229333Y5840053D01*
X99226700Y5391373D01*
X99203801Y5351394D01*
X99167407Y5305978D01*
X99118514Y5271550D01*
X99061454Y5250520D01*
X99012458Y5244962D01*
X98945787Y5251840D01*
X98889879Y5273002D01*
X98858645Y5294377D01*
X98843920Y5306435D01*
X98831548Y5317394D01*
X98821315Y5328932D01*
X98813005Y5342726D01*
X98806404Y5360454D01*
X98801297Y5383794D01*
X98797469Y5414423D01*
X98794705Y5454020D01*
X98792791Y5504261D01*
X98791511Y5566825D01*
X98790651Y5643390D01*
X98789996Y5735633D01*
X98789394Y5835183D01*
X98788739Y5939350D01*
X98788116Y6026278D01*
X98787444Y6097619D01*
X98786641Y6155025D01*
X98785624Y6200149D01*
X98784312Y6234643D01*
X98782623Y6260159D01*
X98780474Y6278350D01*
X98777783Y6290868D01*
X98774468Y6299366D01*
X98770448Y6305494D01*
X98765779Y6310758D01*
X98731250Y6338626D01*
X98689465Y6359257D01*
X98648626Y6368785D01*
X98642166Y6369023D01*
X98607509Y6361472D01*
X98568653Y6337910D01*
X98568584Y6337857D01*
X98527705Y6306692D01*
X98521370Y5840468D01*
X98515034Y5374244D01*
X98487889Y5335579D01*
X98449680Y5294001D01*
X98402035Y5266181D01*
X98342554Y5250958D01*
X98306357Y5247644D01*
X98262101Y5247006D01*
X98229594Y5250735D01*
X98202016Y5259727D01*
X98196889Y5262050D01*
X98149445Y5291961D01*
X98112327Y5330650D01*
X98089551Y5373787D01*
X98087839Y5379552D01*
X98085201Y5397184D01*
X98083139Y5428829D01*
X98081644Y5475228D01*
X98080706Y5537123D01*
X98080317Y5615254D01*
X98080468Y5710363D01*
X98081151Y5823190D01*
X98081780Y5896218D01*
X98082933Y6011674D01*
X98084163Y6110026D01*
X98085630Y6193063D01*
X98087494Y6262573D01*
X98089916Y6320345D01*
X98093057Y6368167D01*
X98097078Y6407827D01*
X98102139Y6441114D01*
X98108402Y6469815D01*
X98116026Y6495720D01*
X98125173Y6520616D01*
X98136003Y6546292D01*
X98141268Y6558128D01*
X98168042Y6603800D01*
X98205937Y6650414D01*
X98249803Y6692709D01*
X98294492Y6725426D01*
X98316188Y6736837D01*
X98388634Y6761113D01*
X98472999Y6776848D01*
X98564352Y6784050D01*
X98657765Y6782725D01*
X98748307Y6772881D01*
X98831050Y6754523D01*
X98882953Y6736070D01*
X98920581Y6717194D01*
X98958920Y6693886D01*
X98974046Y6683150D01*
X99015269Y6651684D01*
X99051691Y6680531D01*
X99120684Y6723811D01*
X99203479Y6755900D01*
X99298301Y6776295D01*
X99403375Y6784495D01*
X99420128Y6784642D01*
X99506076Y6780801D01*
G37*
G36*
X103104239Y5704131D02*
G01*
X103104249Y5441422D01*
X103104269Y5196916D01*
X103104287Y4969927D01*
X103104286Y4759766D01*
X103104254Y4565746D01*
X103104175Y4387179D01*
X103104036Y4223378D01*
X103103823Y4073654D01*
X103103521Y3937320D01*
X103103117Y3813687D01*
X103102595Y3702069D01*
X103101942Y3601778D01*
X103101144Y3512125D01*
X103100186Y3432424D01*
X103099054Y3361986D01*
X103097734Y3300123D01*
X103096212Y3246148D01*
X103094474Y3199373D01*
X103092505Y3159111D01*
X103090292Y3124673D01*
X103087819Y3095372D01*
X103085074Y3070520D01*
X103082041Y3049429D01*
X103078707Y3031412D01*
X103075057Y3015781D01*
X103071077Y3001848D01*
X103066753Y2988925D01*
X103062071Y2976325D01*
X103057017Y2963360D01*
X103051576Y2949341D01*
X103047164Y2937534D01*
X102991990Y2812848D01*
X102921892Y2698566D01*
X102838195Y2595777D01*
X102742222Y2505570D01*
X102635300Y2429037D01*
X102518751Y2367267D01*
X102393901Y2321350D01*
X102263554Y2292600D01*
X102253257Y2291355D01*
X102239012Y2290188D01*
X102220247Y2289097D01*
X102196386Y2288080D01*
X102166855Y2287135D01*
X102131079Y2286260D01*
X102088484Y2285451D01*
X102038496Y2284708D01*
X101980541Y2284029D01*
X101914042Y2283410D01*
X101838427Y2282850D01*
X101753121Y2282347D01*
X101657549Y2281898D01*
X101551137Y2281502D01*
X101433310Y2281156D01*
X101303494Y2280859D01*
X101161115Y2280607D01*
X101005598Y2280400D01*
X100836368Y2280234D01*
X100652851Y2280108D01*
X100454473Y2280020D01*
X100240660Y2279967D01*
X100010836Y2279947D01*
X99764427Y2279958D01*
X99500859Y2279999D01*
X99219557Y2280066D01*
X98919948Y2280158D01*
X98914986Y2280160D01*
X98667416Y2280266D01*
X98424431Y2280417D01*
X98186728Y2280610D01*
X97955003Y2280843D01*
X97729954Y2281114D01*
X97512276Y2281422D01*
X97302666Y2281764D01*
X97101821Y2282138D01*
X96910437Y2282543D01*
X96729210Y2282976D01*
X96558838Y2283436D01*
X96400016Y2283921D01*
X96253441Y2284428D01*
X96119809Y2284956D01*
X95999818Y2285503D01*
X95894163Y2286067D01*
X95803542Y2286645D01*
X95728650Y2287237D01*
X95670184Y2287839D01*
X95628840Y2288451D01*
X95605316Y2289070D01*
X95600267Y2289407D01*
X95466434Y2318186D01*
X95339756Y2363857D01*
X95221546Y2425354D01*
X95113115Y2501610D01*
X95015775Y2591559D01*
X94930838Y2694134D01*
X94859614Y2808269D01*
X94803417Y2932896D01*
X94801052Y2939311D01*
X94795378Y2954445D01*
X94790097Y2968113D01*
X94785194Y2981003D01*
X94780656Y2993802D01*
X94776467Y3007199D01*
X94772615Y3021880D01*
X94769085Y3038533D01*
X94765864Y3057847D01*
X94762936Y3080508D01*
X94760289Y3107204D01*
X94757908Y3138623D01*
X94755780Y3175452D01*
X94753889Y3218379D01*
X94752223Y3268091D01*
X94750767Y3325277D01*
X94749507Y3390623D01*
X94748429Y3464818D01*
X94747520Y3548549D01*
X94746764Y3642503D01*
X94746149Y3747369D01*
X94745660Y3863833D01*
X94745283Y3992584D01*
X94745004Y4134308D01*
X94744809Y4289694D01*
X94744684Y4459430D01*
X94744615Y4644202D01*
X94744589Y4844698D01*
X94744590Y5061607D01*
X94744606Y5295615D01*
X94744622Y5547411D01*
X94744625Y5709048D01*
X94744625Y7606435D01*
X95245017Y7606435D01*
X95247499Y5455133D01*
X95249981Y3303831D01*
X95291738Y3224827D01*
X95342760Y3143381D01*
X95404733Y3069357D01*
X95474592Y3005503D01*
X95549269Y2954565D01*
X95625701Y2919291D01*
X95636762Y2915635D01*
X95643614Y2914509D01*
X95657101Y2913450D01*
X95677740Y2912455D01*
X95706045Y2911524D01*
X95742532Y2910654D01*
X95787716Y2909842D01*
X95842112Y2909088D01*
X95906236Y2908388D01*
X95980603Y2907742D01*
X96065728Y2907147D01*
X96162126Y2906601D01*
X96270313Y2906102D01*
X96390804Y2905648D01*
X96524113Y2905237D01*
X96670757Y2904868D01*
X96831251Y2904538D01*
X97006109Y2904244D01*
X97195848Y2903986D01*
X97400982Y2903762D01*
X97622026Y2903568D01*
X97859496Y2903404D01*
X98113907Y2903267D01*
X98385775Y2903155D01*
X98675614Y2903067D01*
X98916353Y2903013D01*
X99210123Y2902957D01*
X99485602Y2902909D01*
X99743389Y2902872D01*
X99984083Y2902850D01*
X100208286Y2902847D01*
X100416597Y2902864D01*
X100609615Y2902906D01*
X100787940Y2902976D01*
X100952174Y2903077D01*
X101102915Y2903213D01*
X101240763Y2903386D01*
X101366318Y2903601D01*
X101480181Y2903860D01*
X101582950Y2904166D01*
X101675227Y2904524D01*
X101757611Y2904935D01*
X101830702Y2905405D01*
X101895099Y2905935D01*
X101951403Y2906529D01*
X102000214Y2907190D01*
X102042131Y2907922D01*
X102077754Y2908729D01*
X102107684Y2909612D01*
X102132520Y2910576D01*
X102152863Y2911624D01*
X102169311Y2912759D01*
X102182466Y2913984D01*
X102192926Y2915304D01*
X102201293Y2916720D01*
X102208165Y2918236D01*
X102214142Y2919857D01*
X102218373Y2921133D01*
X102297076Y2954418D01*
X102371370Y3002861D01*
X102438699Y3063529D01*
X102496509Y3133488D01*
X102542244Y3209802D01*
X102573350Y3289537D01*
X102584486Y3341615D01*
X102585593Y3359079D01*
X102586638Y3395066D01*
X102587621Y3449206D01*
X102588540Y3521130D01*
X102589394Y3610468D01*
X102590179Y3716851D01*
X102590896Y3839910D01*
X102591542Y3979276D01*
X102592116Y4134579D01*
X102592616Y4305450D01*
X102593041Y4491520D01*
X102593388Y4692419D01*
X102593657Y4907779D01*
X102593845Y5137229D01*
X102593951Y5380400D01*
X102593973Y5507085D01*
X102594161Y7606435D01*
X98919589Y7606435D01*
X95245017Y7606435D01*
X94744625Y7606435D01*
X94744625Y8239309D01*
X98924432Y8239309D01*
X103104239Y8239309D01*
X103104239Y5704131D01*
G37*
G36*
X101434106Y7286155D02*
G01*
X101488772Y7264944D01*
X101532020Y7230658D01*
X101561812Y7185801D01*
X101576112Y7132876D01*
X101577048Y7110525D01*
X101575829Y7092616D01*
X101572644Y7057769D01*
X101567689Y7007814D01*
X101561157Y6944584D01*
X101553240Y6869907D01*
X101544134Y6785614D01*
X101534032Y6693537D01*
X101523127Y6595505D01*
X101513666Y6511461D01*
X101502358Y6411506D01*
X101491710Y6317272D01*
X101481905Y6230412D01*
X101473131Y6152576D01*
X101465573Y6085415D01*
X101459417Y6030581D01*
X101454848Y5989724D01*
X101452053Y5964495D01*
X101451208Y5956515D01*
X101460345Y5955884D01*
X101486519Y5955296D01*
X101527878Y5954764D01*
X101582567Y5954302D01*
X101648732Y5953921D01*
X101724519Y5953636D01*
X101808075Y5953459D01*
X101890745Y5953404D01*
X101997762Y5953399D01*
X102087598Y5953247D01*
X102161966Y5952745D01*
X102222575Y5951688D01*
X102271136Y5949871D01*
X102309362Y5947090D01*
X102338964Y5943140D01*
X102361652Y5937817D01*
X102379137Y5930916D01*
X102393132Y5922233D01*
X102405346Y5911563D01*
X102417491Y5898703D01*
X102425807Y5889462D01*
X102455304Y5844218D01*
X102469476Y5793320D01*
X102467098Y5741826D01*
X102464204Y5730829D01*
X102457972Y5719093D01*
X102442121Y5692459D01*
X102417270Y5651909D01*
X102384039Y5598422D01*
X102343047Y5532978D01*
X102294916Y5456556D01*
X102240263Y5370136D01*
X102179710Y5274698D01*
X102113875Y5171222D01*
X102043379Y5060688D01*
X101968840Y4944075D01*
X101890880Y4822363D01*
X101810117Y4696532D01*
X101803233Y4685818D01*
X101721847Y4559160D01*
X101642872Y4436244D01*
X101566958Y4318079D01*
X101494750Y4205673D01*
X101426897Y4100036D01*
X101364047Y4002175D01*
X101306848Y3913100D01*
X101255946Y3833819D01*
X101211990Y3765341D01*
X101175627Y3708674D01*
X101147505Y3664827D01*
X101128273Y3634808D01*
X101118576Y3619627D01*
X101118369Y3619301D01*
X101095222Y3587779D01*
X101069536Y3560221D01*
X101051418Y3545728D01*
X101014594Y3530103D01*
X100970126Y3521214D01*
X100926832Y3520296D01*
X100902530Y3524865D01*
X100855914Y3548657D01*
X100817874Y3584848D01*
X100791703Y3629156D01*
X100780695Y3677304D01*
X100780549Y3683370D01*
X100782379Y3698881D01*
X100787663Y3731289D01*
X100796096Y3778980D01*
X100807373Y3840337D01*
X100821188Y3913745D01*
X100837235Y3997589D01*
X100855209Y4090251D01*
X100874803Y4190118D01*
X100895712Y4295572D01*
X100908069Y4357397D01*
X100929485Y4464358D01*
X100949772Y4565908D01*
X100968630Y4660526D01*
X100985757Y4746690D01*
X101000852Y4822880D01*
X101013614Y4887573D01*
X101023743Y4939247D01*
X101030936Y4976382D01*
X101034893Y4997455D01*
X101035589Y5001783D01*
X101026483Y5003560D01*
X101000523Y5005106D01*
X100959747Y5006384D01*
X100906192Y5007359D01*
X100841894Y5007996D01*
X100768891Y5008259D01*
X100689220Y5008114D01*
X100674065Y5008040D01*
X100577773Y5007541D01*
X100498452Y5007343D01*
X100434181Y5007709D01*
X100383038Y5008902D01*
X100343102Y5011185D01*
X100312452Y5014822D01*
X100289167Y5020075D01*
X100271326Y5027208D01*
X100257007Y5036484D01*
X100244290Y5048165D01*
X100231254Y5062516D01*
X100225110Y5069528D01*
X100196943Y5115296D01*
X100186024Y5168630D01*
X100187968Y5205415D01*
X100193016Y5218114D01*
X100206426Y5246141D01*
X100227522Y5288235D01*
X100255628Y5343135D01*
X100265943Y5363035D01*
X100659540Y5363035D01*
X100986891Y5358313D01*
X101085829Y5356641D01*
X101166825Y5354721D01*
X101230829Y5352507D01*
X101278789Y5349956D01*
X101311655Y5347023D01*
X101330375Y5343664D01*
X101334200Y5342143D01*
X101364864Y5317499D01*
X101394475Y5282157D01*
X101417179Y5243689D01*
X101424035Y5225908D01*
X101426989Y5213747D01*
X101428468Y5199781D01*
X101428162Y5181842D01*
X101425761Y5157762D01*
X101420957Y5125375D01*
X101413439Y5082513D01*
X101402900Y5027010D01*
X101389029Y4956696D01*
X101377172Y4897507D01*
X101360215Y4813015D01*
X101346708Y4745288D01*
X101336337Y4692577D01*
X101328788Y4653132D01*
X101323747Y4625204D01*
X101320899Y4607046D01*
X101319931Y4596908D01*
X101320528Y4593041D01*
X101322376Y4593697D01*
X101322654Y4593983D01*
X101328276Y4602413D01*
X101343225Y4625377D01*
X101366622Y4661508D01*
X101397588Y4709445D01*
X101435241Y4767821D01*
X101478702Y4835274D01*
X101527092Y4910438D01*
X101579530Y4991950D01*
X101635138Y5078446D01*
X101643814Y5091947D01*
X101699750Y5179058D01*
X101752545Y5261405D01*
X101801330Y5337625D01*
X101845235Y5406354D01*
X101883392Y5466229D01*
X101914932Y5515885D01*
X101938987Y5553960D01*
X101954687Y5579089D01*
X101961163Y5589909D01*
X101961286Y5590218D01*
X101952181Y5591164D01*
X101926229Y5592040D01*
X101885475Y5592821D01*
X101831963Y5593482D01*
X101767739Y5594000D01*
X101694846Y5594349D01*
X101615331Y5594506D01*
X101599981Y5594512D01*
X101501255Y5594797D01*
X101414180Y5595597D01*
X101340088Y5596880D01*
X101280315Y5598612D01*
X101236194Y5600760D01*
X101209061Y5603290D01*
X101202995Y5604474D01*
X101157550Y5625997D01*
X101118057Y5661278D01*
X101090038Y5705186D01*
X101087276Y5711913D01*
X101082377Y5725875D01*
X101079044Y5739964D01*
X101077376Y5756873D01*
X101077470Y5779292D01*
X101079424Y5809912D01*
X101083337Y5851425D01*
X101089305Y5906520D01*
X101096722Y5971755D01*
X101103723Y6034204D01*
X101109717Y6090467D01*
X101114438Y6137802D01*
X101117619Y6173469D01*
X101118995Y6194726D01*
X101118854Y6199391D01*
X101113942Y6193069D01*
X101100957Y6171617D01*
X101080748Y6136556D01*
X101054165Y6089409D01*
X101022058Y6031695D01*
X100985277Y5964937D01*
X100944672Y5890657D01*
X100901092Y5810374D01*
X100887709Y5785613D01*
X100659540Y5363035D01*
X100265943Y5363035D01*
X100290068Y5409580D01*
X100330163Y5486309D01*
X100375239Y5572060D01*
X100424619Y5665574D01*
X100477625Y5765588D01*
X100533582Y5870842D01*
X100591813Y5980076D01*
X100651642Y6092027D01*
X100712392Y6205434D01*
X100773386Y6319038D01*
X100833949Y6431577D01*
X100893403Y6541789D01*
X100951072Y6648414D01*
X101006279Y6750191D01*
X101058349Y6845859D01*
X101106604Y6934156D01*
X101150368Y7013823D01*
X101188965Y7083597D01*
X101221717Y7142218D01*
X101247950Y7188424D01*
X101266985Y7220955D01*
X101278147Y7238550D01*
X101279882Y7240753D01*
X101312745Y7264914D01*
X101355926Y7281731D01*
X101401532Y7288878D01*
X101434106Y7286155D01*
G37*
%TD*%
D11*
%TO.C,REF\u002A\u002A*%
X132500000Y4750000D03*
D12*
X132500000Y4750000D03*
%TD*%
D11*
%TO.C,REF\u002A\u002A*%
X132500000Y30250000D03*
D12*
X132500000Y30250000D03*
%TD*%
D11*
%TO.C,REF\u002A\u002A*%
X7500000Y30250000D03*
D12*
X7500000Y30250000D03*
%TD*%
D11*
%TO.C,REF\u002A\u002A*%
X7500000Y4750000D03*
D12*
X7500000Y4750000D03*
%TD*%
M02*
