%TF.GenerationSoftware,KiCad,Pcbnew,9.0.6*%
%TF.CreationDate,2026-01-21T11:57:53-05:00*%
%TF.ProjectId,panel-front,70616e65-6c2d-4667-926f-6e742e6b6963,rev?*%
%TF.SameCoordinates,PX4b571c0PY72e4d78*%
%TF.FileFunction,Copper,L1,Top*%
%TF.FilePolarity,Positive*%
%FSLAX46Y46*%
G04 Gerber Fmt 4.6, Leading zero omitted, Abs format (unit mm)*
G04 Created by KiCad (PCBNEW 9.0.6) date 2026-01-21 11:57:53*
%MOMM*%
%LPD*%
G01*
G04 APERTURE LIST*
%TA.AperFunction,ComponentPad*%
%ADD10C,3.600000*%
%TD*%
%TA.AperFunction,ConnectorPad*%
%ADD11C,5.600000*%
%TD*%
G04 APERTURE END LIST*
D10*
X132500000Y4750000D03*
D11*
X132500000Y4750000D03*
D10*
X132500000Y30250000D03*
D11*
X132500000Y30250000D03*
D10*
X7500000Y30250000D03*
D11*
X7500000Y30250000D03*
D10*
X7500000Y4750000D03*
D11*
X7500000Y4750000D03*
%TA.AperFunction,Conductor*%
G36*
X136003032Y34499352D02*
G01*
X136336929Y34482948D01*
X136349037Y34481755D01*
X136452146Y34466461D01*
X136676699Y34433151D01*
X136688617Y34430781D01*
X137009951Y34350291D01*
X137021588Y34346760D01*
X137092806Y34321278D01*
X137333467Y34235168D01*
X137344688Y34230521D01*
X137644163Y34088880D01*
X137654871Y34083156D01*
X137938988Y33912863D01*
X137949106Y33906103D01*
X138215170Y33708776D01*
X138224576Y33701056D01*
X138470013Y33478605D01*
X138478604Y33470014D01*
X138665755Y33263525D01*
X138701055Y33224577D01*
X138708775Y33215171D01*
X138906102Y32949107D01*
X138912862Y32938989D01*
X139041776Y32723908D01*
X139083148Y32654884D01*
X139088885Y32644152D01*
X139230514Y32344703D01*
X139235170Y32333460D01*
X139346759Y32021589D01*
X139350292Y32009945D01*
X139430777Y31688631D01*
X139433151Y31676695D01*
X139481754Y31349038D01*
X139482947Y31336929D01*
X139499351Y31003034D01*
X139499500Y30996949D01*
X139499500Y4003052D01*
X139499351Y3996967D01*
X139482947Y3663072D01*
X139481754Y3650963D01*
X139433151Y3323306D01*
X139430777Y3311370D01*
X139350292Y2990056D01*
X139346759Y2978412D01*
X139235170Y2666541D01*
X139230514Y2655298D01*
X139088885Y2355849D01*
X139083148Y2345117D01*
X138912862Y2061012D01*
X138906102Y2050894D01*
X138708775Y1784830D01*
X138701055Y1775424D01*
X138478611Y1529994D01*
X138470006Y1521389D01*
X138224576Y1298945D01*
X138215170Y1291225D01*
X137949106Y1093898D01*
X137938988Y1087138D01*
X137654883Y916852D01*
X137644151Y911115D01*
X137344702Y769486D01*
X137333459Y764830D01*
X137021588Y653241D01*
X137009944Y649708D01*
X136688630Y569223D01*
X136676694Y566849D01*
X136349037Y518246D01*
X136336928Y517053D01*
X136021989Y501581D01*
X136003031Y500649D01*
X135996949Y500500D01*
X4003051Y500500D01*
X3996968Y500649D01*
X3976900Y501635D01*
X3663071Y517053D01*
X3650962Y518246D01*
X3323305Y566849D01*
X3311369Y569223D01*
X2990055Y649708D01*
X2978411Y653241D01*
X2666540Y764830D01*
X2655301Y769485D01*
X2355844Y911117D01*
X2345121Y916850D01*
X2061011Y1087138D01*
X2050893Y1093898D01*
X1784829Y1291225D01*
X1775423Y1298945D01*
X1736475Y1334245D01*
X1529986Y1521396D01*
X1521395Y1529987D01*
X1298944Y1775424D01*
X1291224Y1784830D01*
X1093897Y2050894D01*
X1087137Y2061012D01*
X916844Y2345129D01*
X911120Y2355837D01*
X769479Y2655312D01*
X764829Y2666541D01*
X759184Y2682317D01*
X653240Y2978412D01*
X649707Y2990056D01*
X640958Y3024985D01*
X569219Y3311383D01*
X566848Y3323306D01*
X545211Y3469169D01*
X518245Y3650963D01*
X517052Y3663073D01*
X513747Y3730339D01*
X500649Y3996968D01*
X500500Y4003052D01*
X500500Y4900777D01*
X5199500Y4900777D01*
X5199500Y4599224D01*
X5199501Y4599207D01*
X5238861Y4300234D01*
X5316913Y4008940D01*
X5432314Y3730339D01*
X5432318Y3730329D01*
X5583099Y3469169D01*
X5766679Y3229922D01*
X5766685Y3229915D01*
X5979914Y3016686D01*
X5979921Y3016680D01*
X6219168Y2833100D01*
X6480328Y2682319D01*
X6480329Y2682319D01*
X6480332Y2682317D01*
X6666072Y2605381D01*
X6758939Y2566914D01*
X6758940Y2566914D01*
X6758942Y2566913D01*
X7050232Y2488862D01*
X7349217Y2449500D01*
X7349224Y2449500D01*
X7650776Y2449500D01*
X7650783Y2449500D01*
X7949768Y2488862D01*
X8241058Y2566913D01*
X8519668Y2682317D01*
X8780832Y2833100D01*
X9020080Y3016681D01*
X9233319Y3229920D01*
X9416900Y3469168D01*
X9567683Y3730332D01*
X9683087Y4008942D01*
X9761138Y4300232D01*
X9800500Y4599217D01*
X9800500Y4900783D01*
X9761138Y5199768D01*
X9683087Y5491058D01*
X9567683Y5769668D01*
X9416900Y6030832D01*
X9233319Y6270080D01*
X9233314Y6270086D01*
X9020085Y6483315D01*
X9020078Y6483321D01*
X8780831Y6666901D01*
X8519671Y6817682D01*
X8519661Y6817686D01*
X8241060Y6933087D01*
X7949766Y7011139D01*
X7650793Y7050499D01*
X7650788Y7050500D01*
X7650783Y7050500D01*
X7349217Y7050500D01*
X7349211Y7050500D01*
X7349206Y7050499D01*
X7050233Y7011139D01*
X6758939Y6933087D01*
X6480338Y6817686D01*
X6480328Y6817682D01*
X6219168Y6666901D01*
X5979921Y6483321D01*
X5979914Y6483315D01*
X5766685Y6270086D01*
X5766679Y6270079D01*
X5583099Y6030832D01*
X5432318Y5769672D01*
X5432314Y5769662D01*
X5316913Y5491061D01*
X5238861Y5199767D01*
X5199501Y4900794D01*
X5199500Y4900777D01*
X500500Y4900777D01*
X500500Y23900008D01*
X9200000Y23900008D01*
X9200000Y9824993D01*
X9200509Y9767881D01*
X9208660Y9653913D01*
X9224920Y9540818D01*
X9249203Y9429191D01*
X9249204Y9429189D01*
X9249206Y9429183D01*
X9281395Y9319560D01*
X9321322Y9212511D01*
X9368784Y9108584D01*
X9423539Y9008308D01*
X9485308Y8912193D01*
X9485312Y8912188D01*
X9485315Y8912183D01*
X9553774Y8820732D01*
X9553776Y8820730D01*
X9628595Y8734384D01*
X9628604Y8734375D01*
X9628616Y8734362D01*
X9709361Y8653617D01*
X9709374Y8653605D01*
X9709384Y8653595D01*
X9795730Y8578776D01*
X9887193Y8510308D01*
X9983308Y8448539D01*
X10083584Y8393784D01*
X10187511Y8346322D01*
X10294560Y8306395D01*
X10404183Y8274206D01*
X10404188Y8274205D01*
X10404190Y8274204D01*
X10515817Y8249921D01*
X10515824Y8249920D01*
X10628913Y8233660D01*
X10742874Y8225510D01*
X10769239Y8225275D01*
X10799993Y8225000D01*
X10800000Y8225000D01*
X39700007Y8225000D01*
X39728563Y8225255D01*
X39757126Y8225510D01*
X39871087Y8233660D01*
X39984176Y8249920D01*
X39984177Y8249921D01*
X39984182Y8249921D01*
X40095809Y8274204D01*
X40095809Y8274205D01*
X40095817Y8274206D01*
X40205440Y8306395D01*
X40312489Y8346322D01*
X40416416Y8393784D01*
X40516692Y8448539D01*
X40612807Y8510308D01*
X40704270Y8578776D01*
X40790616Y8653595D01*
X40871405Y8734384D01*
X40946224Y8820730D01*
X41014692Y8912193D01*
X41076461Y9008308D01*
X41131216Y9108584D01*
X41178678Y9212511D01*
X41218605Y9319560D01*
X41250794Y9429183D01*
X41275080Y9540824D01*
X41291340Y9653913D01*
X41299490Y9767874D01*
X41300000Y9825000D01*
X41300000Y23900000D01*
X41300000Y23900008D01*
X52200000Y23900008D01*
X52200000Y9824993D01*
X52200509Y9767881D01*
X52208660Y9653913D01*
X52224920Y9540818D01*
X52249203Y9429191D01*
X52249204Y9429189D01*
X52249206Y9429183D01*
X52281395Y9319560D01*
X52321322Y9212511D01*
X52368784Y9108584D01*
X52423539Y9008308D01*
X52485308Y8912193D01*
X52485312Y8912188D01*
X52485315Y8912183D01*
X52553774Y8820732D01*
X52553776Y8820730D01*
X52628595Y8734384D01*
X52628604Y8734375D01*
X52628616Y8734362D01*
X52709361Y8653617D01*
X52709374Y8653605D01*
X52709384Y8653595D01*
X52795730Y8578776D01*
X52887193Y8510308D01*
X52983308Y8448539D01*
X53083584Y8393784D01*
X53187511Y8346322D01*
X53294560Y8306395D01*
X53404183Y8274206D01*
X53404188Y8274205D01*
X53404190Y8274204D01*
X53515817Y8249921D01*
X53515824Y8249920D01*
X53628913Y8233660D01*
X53742874Y8225510D01*
X53769239Y8225275D01*
X53799993Y8225000D01*
X53800000Y8225000D01*
X82700007Y8225000D01*
X82728563Y8225255D01*
X82757126Y8225510D01*
X82871087Y8233660D01*
X82984176Y8249920D01*
X82984177Y8249921D01*
X82984182Y8249921D01*
X83095809Y8274204D01*
X83095809Y8274205D01*
X83095817Y8274206D01*
X83205440Y8306395D01*
X83312489Y8346322D01*
X83416416Y8393784D01*
X83516692Y8448539D01*
X83612807Y8510308D01*
X83704270Y8578776D01*
X83790616Y8653595D01*
X83871405Y8734384D01*
X83946224Y8820730D01*
X84014692Y8912193D01*
X84076461Y9008308D01*
X84131216Y9108584D01*
X84178678Y9212511D01*
X84218605Y9319560D01*
X84250794Y9429183D01*
X84275080Y9540824D01*
X84291340Y9653913D01*
X84299490Y9767874D01*
X84300000Y9825000D01*
X84300000Y17510741D01*
X92199500Y17510741D01*
X92199500Y16989260D01*
X92236701Y16469115D01*
X92310915Y15952940D01*
X92421760Y15443396D01*
X92421763Y15443386D01*
X92568675Y14943052D01*
X92568680Y14943035D01*
X92568684Y14943025D01*
X92750919Y14454431D01*
X92750921Y14454428D01*
X92967539Y13980099D01*
X92967543Y13980092D01*
X93217459Y13522405D01*
X93499393Y13083706D01*
X93499396Y13083701D01*
X93811895Y12666250D01*
X94049649Y12391868D01*
X94153397Y12272136D01*
X94153406Y12272127D01*
X94153418Y12272114D01*
X94522113Y11903419D01*
X94522126Y11903407D01*
X94522136Y11903397D01*
X94676163Y11769932D01*
X94916249Y11561896D01*
X95333700Y11249397D01*
X95333705Y11249394D01*
X95772398Y10967463D01*
X96230087Y10717546D01*
X96230091Y10717544D01*
X96230098Y10717540D01*
X96704427Y10500922D01*
X96704430Y10500920D01*
X96704437Y10500918D01*
X96704438Y10500917D01*
X97193035Y10318680D01*
X97693385Y10171764D01*
X97693395Y10171761D01*
X98202939Y10060916D01*
X98202946Y10060915D01*
X98719115Y9986701D01*
X99239262Y9949500D01*
X99760738Y9949500D01*
X100280885Y9986701D01*
X100797054Y10060915D01*
X100797055Y10060916D01*
X100797060Y10060916D01*
X101306604Y10171761D01*
X101306607Y10171762D01*
X101306612Y10171763D01*
X101806965Y10318680D01*
X102295562Y10500917D01*
X102511176Y10599385D01*
X102769901Y10717540D01*
X102769905Y10717543D01*
X102769913Y10717546D01*
X103227602Y10967463D01*
X103666295Y11249394D01*
X103787149Y11339864D01*
X104083750Y11561896D01*
X104101214Y11577030D01*
X104477864Y11903397D01*
X104846603Y12272136D01*
X105188097Y12666242D01*
X105188096Y12666242D01*
X105188104Y12666250D01*
X105500603Y13083701D01*
X105500602Y13083701D01*
X105500606Y13083705D01*
X105782537Y13522398D01*
X106032454Y13980087D01*
X106032457Y13980095D01*
X106032460Y13980099D01*
X106249078Y14454428D01*
X106249080Y14454431D01*
X106249083Y14454438D01*
X106431320Y14943035D01*
X106578237Y15443388D01*
X106689085Y15952946D01*
X106763299Y16469115D01*
X106800500Y16989262D01*
X106800500Y17510738D01*
X106800500Y17510741D01*
X115199500Y17510741D01*
X115199500Y16989260D01*
X115236701Y16469115D01*
X115310915Y15952940D01*
X115421760Y15443396D01*
X115421763Y15443386D01*
X115568675Y14943052D01*
X115568680Y14943035D01*
X115568684Y14943025D01*
X115750919Y14454431D01*
X115750921Y14454428D01*
X115967539Y13980099D01*
X115967543Y13980092D01*
X116217459Y13522405D01*
X116499393Y13083706D01*
X116499396Y13083701D01*
X116811895Y12666250D01*
X117049649Y12391868D01*
X117153397Y12272136D01*
X117153406Y12272127D01*
X117153418Y12272114D01*
X117522113Y11903419D01*
X117522126Y11903407D01*
X117522136Y11903397D01*
X117676163Y11769932D01*
X117916249Y11561896D01*
X118333700Y11249397D01*
X118333705Y11249394D01*
X118772398Y10967463D01*
X119230087Y10717546D01*
X119230091Y10717544D01*
X119230098Y10717540D01*
X119704427Y10500922D01*
X119704430Y10500920D01*
X119704437Y10500918D01*
X119704438Y10500917D01*
X120193035Y10318680D01*
X120693385Y10171764D01*
X120693395Y10171761D01*
X121202939Y10060916D01*
X121202946Y10060915D01*
X121719115Y9986701D01*
X122239262Y9949500D01*
X122760738Y9949500D01*
X123280885Y9986701D01*
X123797054Y10060915D01*
X123797055Y10060916D01*
X123797060Y10060916D01*
X124306604Y10171761D01*
X124306607Y10171762D01*
X124306612Y10171763D01*
X124806965Y10318680D01*
X125295562Y10500917D01*
X125511176Y10599385D01*
X125769901Y10717540D01*
X125769905Y10717543D01*
X125769913Y10717546D01*
X126227602Y10967463D01*
X126666295Y11249394D01*
X126787149Y11339864D01*
X127083750Y11561896D01*
X127101214Y11577030D01*
X127477864Y11903397D01*
X127846603Y12272136D01*
X128188097Y12666242D01*
X128188096Y12666242D01*
X128188104Y12666250D01*
X128500603Y13083701D01*
X128500602Y13083701D01*
X128500606Y13083705D01*
X128782537Y13522398D01*
X129032454Y13980087D01*
X129032457Y13980095D01*
X129032460Y13980099D01*
X129249078Y14454428D01*
X129249080Y14454431D01*
X129249083Y14454438D01*
X129431320Y14943035D01*
X129578237Y15443388D01*
X129689085Y15952946D01*
X129763299Y16469115D01*
X129800500Y16989262D01*
X129800500Y17510738D01*
X129763299Y18030885D01*
X129689085Y18547054D01*
X129689084Y18547061D01*
X129578239Y19056605D01*
X129578236Y19056615D01*
X129468493Y19430364D01*
X129431320Y19556965D01*
X129249083Y20045562D01*
X129249082Y20045563D01*
X129249080Y20045570D01*
X129249078Y20045573D01*
X129032460Y20519902D01*
X129032456Y20519909D01*
X128782540Y20977596D01*
X128782537Y20977602D01*
X128500606Y21416295D01*
X128500603Y21416300D01*
X128188104Y21833751D01*
X127980068Y22073837D01*
X127846603Y22227864D01*
X127846593Y22227874D01*
X127846581Y22227887D01*
X127477886Y22596582D01*
X127477873Y22596594D01*
X127477864Y22596603D01*
X127305117Y22746289D01*
X127083750Y22938105D01*
X126666299Y23250604D01*
X126666294Y23250607D01*
X126483151Y23368306D01*
X126227602Y23532537D01*
X125769913Y23782454D01*
X125769908Y23782457D01*
X125769901Y23782461D01*
X125295572Y23999079D01*
X125295569Y23999081D01*
X124956814Y24125430D01*
X124806965Y24181320D01*
X124797215Y24184183D01*
X124306614Y24328237D01*
X124306604Y24328240D01*
X123797060Y24439085D01*
X123280885Y24513299D01*
X122760740Y24550500D01*
X122760738Y24550500D01*
X122239262Y24550500D01*
X122239259Y24550500D01*
X121719114Y24513299D01*
X121202939Y24439085D01*
X120693395Y24328240D01*
X120693385Y24328237D01*
X120193051Y24181325D01*
X120193043Y24181323D01*
X120193035Y24181320D01*
X120193026Y24181317D01*
X120193024Y24181316D01*
X119704430Y23999081D01*
X119704427Y23999079D01*
X119230098Y23782461D01*
X119230091Y23782457D01*
X118772404Y23532541D01*
X118333705Y23250607D01*
X118333700Y23250604D01*
X117916249Y22938105D01*
X117522139Y22596606D01*
X117522113Y22596582D01*
X117153418Y22227887D01*
X117153394Y22227861D01*
X116811895Y21833751D01*
X116499396Y21416300D01*
X116499393Y21416295D01*
X116217459Y20977596D01*
X115967543Y20519909D01*
X115967539Y20519902D01*
X115750921Y20045573D01*
X115750919Y20045570D01*
X115568684Y19556976D01*
X115568675Y19556949D01*
X115421763Y19056615D01*
X115421760Y19056605D01*
X115310915Y18547061D01*
X115236701Y18030886D01*
X115199500Y17510741D01*
X106800500Y17510741D01*
X106763299Y18030885D01*
X106689085Y18547054D01*
X106689084Y18547061D01*
X106578239Y19056605D01*
X106578236Y19056615D01*
X106468493Y19430364D01*
X106431320Y19556965D01*
X106249083Y20045562D01*
X106249082Y20045563D01*
X106249080Y20045570D01*
X106249078Y20045573D01*
X106032460Y20519902D01*
X106032456Y20519909D01*
X105782540Y20977596D01*
X105782537Y20977602D01*
X105500606Y21416295D01*
X105500603Y21416300D01*
X105188104Y21833751D01*
X104980068Y22073837D01*
X104846603Y22227864D01*
X104846593Y22227874D01*
X104846581Y22227887D01*
X104477886Y22596582D01*
X104477873Y22596594D01*
X104477864Y22596603D01*
X104305117Y22746289D01*
X104083750Y22938105D01*
X103666299Y23250604D01*
X103666294Y23250607D01*
X103483151Y23368306D01*
X103227602Y23532537D01*
X102769913Y23782454D01*
X102769908Y23782457D01*
X102769901Y23782461D01*
X102295572Y23999079D01*
X102295569Y23999081D01*
X101956814Y24125430D01*
X101806965Y24181320D01*
X101797215Y24184183D01*
X101306614Y24328237D01*
X101306604Y24328240D01*
X100797060Y24439085D01*
X100280885Y24513299D01*
X99760740Y24550500D01*
X99760738Y24550500D01*
X99239262Y24550500D01*
X99239259Y24550500D01*
X98719114Y24513299D01*
X98202939Y24439085D01*
X97693395Y24328240D01*
X97693385Y24328237D01*
X97193051Y24181325D01*
X97193043Y24181323D01*
X97193035Y24181320D01*
X97193026Y24181317D01*
X97193024Y24181316D01*
X96704430Y23999081D01*
X96704427Y23999079D01*
X96230098Y23782461D01*
X96230091Y23782457D01*
X95772404Y23532541D01*
X95333705Y23250607D01*
X95333700Y23250604D01*
X94916249Y22938105D01*
X94522139Y22596606D01*
X94522113Y22596582D01*
X94153418Y22227887D01*
X94153394Y22227861D01*
X93811895Y21833751D01*
X93499396Y21416300D01*
X93499393Y21416295D01*
X93217459Y20977596D01*
X92967543Y20519909D01*
X92967539Y20519902D01*
X92750921Y20045573D01*
X92750919Y20045570D01*
X92568684Y19556976D01*
X92568675Y19556949D01*
X92421763Y19056615D01*
X92421760Y19056605D01*
X92310915Y18547061D01*
X92236701Y18030886D01*
X92199500Y17510741D01*
X84300000Y17510741D01*
X84300000Y23900000D01*
X84299490Y23957126D01*
X84291340Y24071087D01*
X84275080Y24184176D01*
X84275079Y24184183D01*
X84250796Y24295810D01*
X84250795Y24295812D01*
X84241274Y24328237D01*
X84218605Y24405440D01*
X84178678Y24512489D01*
X84131216Y24616416D01*
X84076461Y24716692D01*
X84014692Y24812807D01*
X83946224Y24904270D01*
X83871405Y24990616D01*
X83871395Y24990626D01*
X83871383Y24990639D01*
X83790638Y25071384D01*
X83790625Y25071396D01*
X83790616Y25071405D01*
X83704270Y25146224D01*
X83704268Y25146226D01*
X83612817Y25214685D01*
X83612812Y25214688D01*
X83612807Y25214692D01*
X83516692Y25276461D01*
X83416416Y25331216D01*
X83416412Y25331218D01*
X83312501Y25378673D01*
X83312495Y25378676D01*
X83312489Y25378678D01*
X83205440Y25418605D01*
X83095811Y25450796D01*
X83095809Y25450797D01*
X82984182Y25475080D01*
X82871087Y25491340D01*
X82757119Y25499491D01*
X82700007Y25500000D01*
X82700000Y25500000D01*
X53800000Y25500000D01*
X53799993Y25500000D01*
X53742880Y25499491D01*
X53628912Y25491340D01*
X53515817Y25475080D01*
X53404190Y25450797D01*
X53404188Y25450796D01*
X53294559Y25418605D01*
X53187498Y25378673D01*
X53083587Y25331218D01*
X52983314Y25276465D01*
X52887187Y25214688D01*
X52887182Y25214685D01*
X52795731Y25146226D01*
X52709387Y25071408D01*
X52709361Y25071384D01*
X52628616Y24990639D01*
X52628592Y24990613D01*
X52553774Y24904269D01*
X52485315Y24812818D01*
X52485312Y24812813D01*
X52423535Y24716686D01*
X52368782Y24616413D01*
X52321327Y24512502D01*
X52281395Y24405441D01*
X52249204Y24295812D01*
X52249203Y24295810D01*
X52224920Y24184183D01*
X52208660Y24071088D01*
X52200509Y23957120D01*
X52200000Y23900008D01*
X41300000Y23900008D01*
X41299490Y23957126D01*
X41291340Y24071087D01*
X41275080Y24184176D01*
X41275079Y24184183D01*
X41250796Y24295810D01*
X41250795Y24295812D01*
X41241274Y24328237D01*
X41218605Y24405440D01*
X41178678Y24512489D01*
X41131216Y24616416D01*
X41076461Y24716692D01*
X41014692Y24812807D01*
X40946224Y24904270D01*
X40871405Y24990616D01*
X40871395Y24990626D01*
X40871383Y24990639D01*
X40790638Y25071384D01*
X40790625Y25071396D01*
X40790616Y25071405D01*
X40704270Y25146224D01*
X40704268Y25146226D01*
X40612817Y25214685D01*
X40612812Y25214688D01*
X40612807Y25214692D01*
X40516692Y25276461D01*
X40416416Y25331216D01*
X40416412Y25331218D01*
X40312501Y25378673D01*
X40312495Y25378676D01*
X40312489Y25378678D01*
X40205440Y25418605D01*
X40095811Y25450796D01*
X40095809Y25450797D01*
X39984182Y25475080D01*
X39871087Y25491340D01*
X39757119Y25499491D01*
X39700007Y25500000D01*
X39700000Y25500000D01*
X10800000Y25500000D01*
X10799993Y25500000D01*
X10742880Y25499491D01*
X10628912Y25491340D01*
X10515817Y25475080D01*
X10404190Y25450797D01*
X10404188Y25450796D01*
X10294559Y25418605D01*
X10187498Y25378673D01*
X10083587Y25331218D01*
X9983314Y25276465D01*
X9887187Y25214688D01*
X9887182Y25214685D01*
X9795731Y25146226D01*
X9709387Y25071408D01*
X9709361Y25071384D01*
X9628616Y24990639D01*
X9628592Y24990613D01*
X9553774Y24904269D01*
X9485315Y24812818D01*
X9485312Y24812813D01*
X9423535Y24716686D01*
X9368782Y24616413D01*
X9321327Y24512502D01*
X9281395Y24405441D01*
X9249204Y24295812D01*
X9249203Y24295810D01*
X9224920Y24184183D01*
X9208660Y24071088D01*
X9200509Y23957120D01*
X9200000Y23900008D01*
X500500Y23900008D01*
X500500Y30996949D01*
X500649Y31003033D01*
X517052Y31336928D01*
X518245Y31349038D01*
X566849Y31676704D01*
X569218Y31688615D01*
X649710Y32009957D01*
X653240Y32021589D01*
X764835Y32333475D01*
X769476Y32344682D01*
X911124Y32644172D01*
X916840Y32654864D01*
X1087145Y32939002D01*
X1093888Y32949095D01*
X1291232Y33215182D01*
X1298935Y33224567D01*
X1521405Y33470025D01*
X1529975Y33478595D01*
X1775433Y33701065D01*
X1784818Y33708768D01*
X2050905Y33906112D01*
X2060998Y33912855D01*
X2345136Y34083160D01*
X2355828Y34088876D01*
X2655318Y34230524D01*
X2666525Y34235165D01*
X2978412Y34346761D01*
X2990043Y34350290D01*
X3311385Y34430782D01*
X3323296Y34433151D01*
X3650962Y34481756D01*
X3663068Y34482948D01*
X3996967Y34499352D01*
X4003051Y34499500D01*
X4065892Y34499500D01*
X135934108Y34499500D01*
X135996949Y34499500D01*
X136003032Y34499352D01*
G37*
%TD.AperFunction*%
M02*
