%TF.GenerationSoftware,KiCad,Pcbnew,10.0.1*%
%TF.CreationDate,2026-05-28T14:28:40-04:00*%
%TF.ProjectId,panel-front,70616e65-6c2d-4667-926f-6e742e6b6963,rev?*%
%TF.SameCoordinates,PX4b571c0PY7270e00*%
%TF.FileFunction,Legend,Top*%
%TF.FilePolarity,Positive*%
%FSLAX46Y46*%
G04 Gerber Fmt 4.6, Leading zero omitted, Abs format (unit mm)*
G04 Created by KiCad (PCBNEW 10.0.1) date 2026-05-28 14:28:40*
%MOMM*%
%LPD*%
G01*
G04 APERTURE LIST*
%ADD10C,0.100000*%
%ADD11C,0.500000*%
%ADD12C,0.300000*%
%ADD13C,0.200000*%
G04 APERTURE END LIST*
D10*
X12000000Y25682107D02*
X10207104Y25682107D01*
X9000000Y24475003D01*
X9000000Y26475003D01*
X10500000Y27767893D01*
X12000000Y27767893D01*
X12000000Y25682107D01*
G36*
X12000000Y25682107D02*
G01*
X10207104Y25682107D01*
X9000000Y24475003D01*
X9000000Y26475003D01*
X10500000Y27767893D01*
X12000000Y27767893D01*
X12000000Y25682107D01*
G37*
X41500000Y26475000D02*
X41500000Y24475000D01*
X40292896Y25682104D01*
X23000000Y25682104D01*
X23000000Y27767890D01*
X40000000Y27767890D01*
X41500000Y26475000D01*
G36*
X41500000Y26475000D02*
G01*
X41500000Y24475000D01*
X40292896Y25682104D01*
X23000000Y25682104D01*
X23000000Y27767890D01*
X40000000Y27767890D01*
X41500000Y26475000D01*
G37*
X55000000Y25682107D02*
X53207104Y25682107D01*
X52000000Y24475003D01*
X52000000Y26475003D01*
X53500000Y27767893D01*
X55000000Y27767893D01*
X55000000Y25682107D01*
G36*
X55000000Y25682107D02*
G01*
X53207104Y25682107D01*
X52000000Y24475003D01*
X52000000Y26475003D01*
X53500000Y27767893D01*
X55000000Y27767893D01*
X55000000Y25682107D01*
G37*
X84500000Y26475000D02*
X84500000Y24475000D01*
X83292896Y25682104D01*
X66000000Y25682104D01*
X66000000Y27767890D01*
X83000000Y27767890D01*
X84500000Y26475000D01*
G36*
X84500000Y26475000D02*
G01*
X84500000Y24475000D01*
X83292896Y25682104D01*
X66000000Y25682104D01*
X66000000Y27767890D01*
X83000000Y27767890D01*
X84500000Y26475000D01*
G37*
X84500000Y26475000D02*
X84500000Y24475000D01*
X83292896Y25682104D01*
X81500000Y25682104D01*
X81500000Y27767890D01*
X83000000Y27767890D01*
X84500000Y26475000D01*
G36*
X84500000Y26475000D02*
G01*
X84500000Y24475000D01*
X83292896Y25682104D01*
X81500000Y25682104D01*
X81500000Y27767890D01*
X83000000Y27767890D01*
X84500000Y26475000D01*
G37*
D11*
X9000000Y25767896D02*
G75*
G02*
X11000000Y27767900I2000000J4D01*
G01*
X9000000Y23682107D02*
G75*
G02*
X11000000Y25682100I2000000J-7D01*
G01*
X9000000Y9975000D02*
X9000000Y25767900D01*
X11000000Y27767893D02*
X12000000Y27767893D01*
X11000000Y25682107D02*
X12000000Y25682107D01*
X11000000Y7975000D02*
G75*
G02*
X9000000Y9975000I0J2000000D01*
G01*
X12000000Y25767893D02*
X12000000Y27767893D01*
X23000000Y27767890D02*
X39500000Y27767890D01*
X23000000Y25767890D02*
X23000000Y27767890D01*
X23000000Y25767890D02*
X39750000Y25767890D01*
D12*
X31250000Y21475000D02*
X32250000Y21475000D01*
X31250000Y20725000D02*
X31250000Y21475000D01*
X31250000Y12975000D02*
X31250000Y13725000D01*
X32250000Y17225000D02*
G75*
G02*
X31250000Y17225000I-500000J0D01*
G01*
X31250000Y17225000D02*
G75*
G02*
X32250000Y17225000I500000J0D01*
G01*
X35250000Y17225000D02*
G75*
G02*
X28250000Y17225000I-3500000J0D01*
G01*
X28250000Y17225000D02*
G75*
G02*
X35250000Y17225000I3500000J0D01*
G01*
X32250000Y21475000D02*
X32250000Y20725000D01*
X32250000Y13725000D02*
X32250000Y12975000D01*
X32250000Y12975000D02*
X31250000Y12975000D01*
D13*
X32500000Y17975000D02*
X35500000Y20975000D01*
X34500000Y14475000D02*
X35500000Y13475000D01*
X35500000Y20975000D02*
X36250000Y20975000D01*
X35500000Y13475000D02*
X36250000Y13475000D01*
D11*
X39500000Y27767890D02*
G75*
G02*
X41499990Y25767893I0J-1999990D01*
G01*
X39500000Y25767104D02*
G75*
G02*
X41500004Y23767104I0J-2000004D01*
G01*
X39500000Y7975000D02*
X11000000Y7975000D01*
X41500000Y25767893D02*
X41500000Y9975000D01*
X41500000Y9975000D02*
G75*
G02*
X39500000Y7975000I-2000000J0D01*
G01*
X52000000Y25767896D02*
G75*
G02*
X54000000Y27767900I2000000J4D01*
G01*
X52000000Y23682107D02*
G75*
G02*
X54000000Y25682100I2000000J-7D01*
G01*
X52000000Y9975000D02*
X52000000Y25767900D01*
X54000000Y27767893D02*
X55000000Y27767893D01*
X54000000Y25682107D02*
X55000000Y25682107D01*
X54000000Y7975000D02*
G75*
G02*
X52000000Y9975000I0J2000000D01*
G01*
X55000000Y25767893D02*
X55000000Y27767893D01*
X66000000Y27767890D02*
X82500000Y27767890D01*
X66000000Y25767890D02*
X66000000Y27767890D01*
X66000000Y25767890D02*
X82750000Y25767890D01*
X67000000Y7975000D02*
X54000000Y7975000D01*
D12*
X74250000Y21475000D02*
X75250000Y21475000D01*
X74250000Y20725000D02*
X74250000Y21475000D01*
X74250000Y12975000D02*
X74250000Y13725000D01*
X75250000Y17225000D02*
G75*
G02*
X74250000Y17225000I-500000J0D01*
G01*
X74250000Y17225000D02*
G75*
G02*
X75250000Y17225000I500000J0D01*
G01*
X78250000Y17225000D02*
G75*
G02*
X71250000Y17225000I-3500000J0D01*
G01*
X71250000Y17225000D02*
G75*
G02*
X78250000Y17225000I3500000J0D01*
G01*
X75250000Y21475000D02*
X75250000Y20725000D01*
X75250000Y13725000D02*
X75250000Y12975000D01*
X75250000Y12975000D02*
X74250000Y12975000D01*
D13*
X75500000Y17975000D02*
X78500000Y20975000D01*
X77500000Y14475000D02*
X78500000Y13475000D01*
X78500000Y20975000D02*
X79250000Y20975000D01*
X78500000Y13475000D02*
X79250000Y13475000D01*
D11*
X81500000Y27767890D02*
X82500000Y27767890D01*
X81500000Y25767890D02*
X81500000Y27767890D01*
X82500000Y27767890D02*
G75*
G02*
X84499990Y25767893I0J-1999990D01*
G01*
X82500000Y25767104D02*
G75*
G02*
X84500004Y23767104I0J-2000004D01*
G01*
X82500000Y7975000D02*
X54000000Y7975000D01*
X84500000Y25767893D02*
X84500000Y9975000D01*
X84500000Y9975000D02*
G75*
G02*
X82500000Y7975000I-2000000J0D01*
G01*
D12*
X37642857Y20439529D02*
X37571429Y20368100D01*
X37571429Y20368100D02*
X37357143Y20296672D01*
X37357143Y20296672D02*
X37214286Y20296672D01*
X37214286Y20296672D02*
X37000000Y20368100D01*
X37000000Y20368100D02*
X36857143Y20510958D01*
X36857143Y20510958D02*
X36785714Y20653815D01*
X36785714Y20653815D02*
X36714286Y20939529D01*
X36714286Y20939529D02*
X36714286Y21153815D01*
X36714286Y21153815D02*
X36785714Y21439529D01*
X36785714Y21439529D02*
X36857143Y21582386D01*
X36857143Y21582386D02*
X37000000Y21725243D01*
X37000000Y21725243D02*
X37214286Y21796672D01*
X37214286Y21796672D02*
X37357143Y21796672D01*
X37357143Y21796672D02*
X37571429Y21725243D01*
X37571429Y21725243D02*
X37642857Y21653815D01*
X38442857Y21330958D02*
X38557143Y21330958D01*
X38557143Y21330958D02*
X38671429Y21273815D01*
X38671429Y21273815D02*
X38728572Y21216672D01*
X38728572Y21216672D02*
X38785714Y21102386D01*
X38785714Y21102386D02*
X38842857Y20873815D01*
X38842857Y20873815D02*
X38842857Y20588100D01*
X38842857Y20588100D02*
X38785714Y20359529D01*
X38785714Y20359529D02*
X38728572Y20245243D01*
X38728572Y20245243D02*
X38671429Y20188100D01*
X38671429Y20188100D02*
X38557143Y20130958D01*
X38557143Y20130958D02*
X38442857Y20130958D01*
X38442857Y20130958D02*
X38328572Y20188100D01*
X38328572Y20188100D02*
X38271429Y20245243D01*
X38271429Y20245243D02*
X38214286Y20359529D01*
X38214286Y20359529D02*
X38157143Y20588100D01*
X38157143Y20588100D02*
X38157143Y20873815D01*
X38157143Y20873815D02*
X38214286Y21102386D01*
X38214286Y21102386D02*
X38271429Y21216672D01*
X38271429Y21216672D02*
X38328572Y21273815D01*
X38328572Y21273815D02*
X38442857Y21330958D01*
X36821429Y13225243D02*
X37535715Y13225243D01*
X36678572Y12796672D02*
X37178572Y14296672D01*
X37178572Y14296672D02*
X37678572Y12796672D01*
X38335714Y13830958D02*
X38450000Y13830958D01*
X38450000Y13830958D02*
X38564286Y13773815D01*
X38564286Y13773815D02*
X38621429Y13716672D01*
X38621429Y13716672D02*
X38678571Y13602386D01*
X38678571Y13602386D02*
X38735714Y13373815D01*
X38735714Y13373815D02*
X38735714Y13088100D01*
X38735714Y13088100D02*
X38678571Y12859529D01*
X38678571Y12859529D02*
X38621429Y12745243D01*
X38621429Y12745243D02*
X38564286Y12688100D01*
X38564286Y12688100D02*
X38450000Y12630958D01*
X38450000Y12630958D02*
X38335714Y12630958D01*
X38335714Y12630958D02*
X38221429Y12688100D01*
X38221429Y12688100D02*
X38164286Y12745243D01*
X38164286Y12745243D02*
X38107143Y12859529D01*
X38107143Y12859529D02*
X38050000Y13088100D01*
X38050000Y13088100D02*
X38050000Y13373815D01*
X38050000Y13373815D02*
X38107143Y13602386D01*
X38107143Y13602386D02*
X38164286Y13716672D01*
X38164286Y13716672D02*
X38221429Y13773815D01*
X38221429Y13773815D02*
X38335714Y13830958D01*
X80642857Y20439529D02*
X80571429Y20368100D01*
X80571429Y20368100D02*
X80357143Y20296672D01*
X80357143Y20296672D02*
X80214286Y20296672D01*
X80214286Y20296672D02*
X80000000Y20368100D01*
X80000000Y20368100D02*
X79857143Y20510958D01*
X79857143Y20510958D02*
X79785714Y20653815D01*
X79785714Y20653815D02*
X79714286Y20939529D01*
X79714286Y20939529D02*
X79714286Y21153815D01*
X79714286Y21153815D02*
X79785714Y21439529D01*
X79785714Y21439529D02*
X79857143Y21582386D01*
X79857143Y21582386D02*
X80000000Y21725243D01*
X80000000Y21725243D02*
X80214286Y21796672D01*
X80214286Y21796672D02*
X80357143Y21796672D01*
X80357143Y21796672D02*
X80571429Y21725243D01*
X80571429Y21725243D02*
X80642857Y21653815D01*
X81842857Y20130958D02*
X81157143Y20130958D01*
X81500000Y20130958D02*
X81500000Y21330958D01*
X81500000Y21330958D02*
X81385714Y21159529D01*
X81385714Y21159529D02*
X81271429Y21045243D01*
X81271429Y21045243D02*
X81157143Y20988100D01*
X79821429Y13225243D02*
X80535715Y13225243D01*
X79678572Y12796672D02*
X80178572Y14296672D01*
X80178572Y14296672D02*
X80678572Y12796672D01*
X81735714Y12630958D02*
X81050000Y12630958D01*
X81392857Y12630958D02*
X81392857Y13830958D01*
X81392857Y13830958D02*
X81278571Y13659529D01*
X81278571Y13659529D02*
X81164286Y13545243D01*
X81164286Y13545243D02*
X81050000Y13488100D01*
D11*
X15357143Y26332548D02*
X15238095Y26213500D01*
X15238095Y26213500D02*
X14880953Y26094453D01*
X14880953Y26094453D02*
X14642857Y26094453D01*
X14642857Y26094453D02*
X14285714Y26213500D01*
X14285714Y26213500D02*
X14047619Y26451596D01*
X14047619Y26451596D02*
X13928572Y26689691D01*
X13928572Y26689691D02*
X13809524Y27165881D01*
X13809524Y27165881D02*
X13809524Y27523024D01*
X13809524Y27523024D02*
X13928572Y27999215D01*
X13928572Y27999215D02*
X14047619Y28237310D01*
X14047619Y28237310D02*
X14285714Y28475405D01*
X14285714Y28475405D02*
X14642857Y28594453D01*
X14642857Y28594453D02*
X14880953Y28594453D01*
X14880953Y28594453D02*
X15238095Y28475405D01*
X15238095Y28475405D02*
X15357143Y28356358D01*
X16428572Y26094453D02*
X16428572Y28594453D01*
X17500000Y26094453D02*
X17500000Y27403977D01*
X17500000Y27403977D02*
X17380953Y27642072D01*
X17380953Y27642072D02*
X17142857Y27761120D01*
X17142857Y27761120D02*
X16785714Y27761120D01*
X16785714Y27761120D02*
X16547619Y27642072D01*
X16547619Y27642072D02*
X16428572Y27523024D01*
X18690477Y26332548D02*
X18809524Y26213500D01*
X18809524Y26213500D02*
X18690477Y26094453D01*
X18690477Y26094453D02*
X18571429Y26213500D01*
X18571429Y26213500D02*
X18690477Y26332548D01*
X18690477Y26332548D02*
X18690477Y26094453D01*
X20357143Y28594453D02*
X20595238Y28594453D01*
X20595238Y28594453D02*
X20833334Y28475405D01*
X20833334Y28475405D02*
X20952381Y28356358D01*
X20952381Y28356358D02*
X21071429Y28118262D01*
X21071429Y28118262D02*
X21190476Y27642072D01*
X21190476Y27642072D02*
X21190476Y27046834D01*
X21190476Y27046834D02*
X21071429Y26570643D01*
X21071429Y26570643D02*
X20952381Y26332548D01*
X20952381Y26332548D02*
X20833334Y26213500D01*
X20833334Y26213500D02*
X20595238Y26094453D01*
X20595238Y26094453D02*
X20357143Y26094453D01*
X20357143Y26094453D02*
X20119048Y26213500D01*
X20119048Y26213500D02*
X20000000Y26332548D01*
X20000000Y26332548D02*
X19880953Y26570643D01*
X19880953Y26570643D02*
X19761905Y27046834D01*
X19761905Y27046834D02*
X19761905Y27642072D01*
X19761905Y27642072D02*
X19880953Y28118262D01*
X19880953Y28118262D02*
X20000000Y28356358D01*
X20000000Y28356358D02*
X20119048Y28475405D01*
X20119048Y28475405D02*
X20357143Y28594453D01*
X58357143Y26332548D02*
X58238095Y26213500D01*
X58238095Y26213500D02*
X57880953Y26094453D01*
X57880953Y26094453D02*
X57642857Y26094453D01*
X57642857Y26094453D02*
X57285714Y26213500D01*
X57285714Y26213500D02*
X57047619Y26451596D01*
X57047619Y26451596D02*
X56928572Y26689691D01*
X56928572Y26689691D02*
X56809524Y27165881D01*
X56809524Y27165881D02*
X56809524Y27523024D01*
X56809524Y27523024D02*
X56928572Y27999215D01*
X56928572Y27999215D02*
X57047619Y28237310D01*
X57047619Y28237310D02*
X57285714Y28475405D01*
X57285714Y28475405D02*
X57642857Y28594453D01*
X57642857Y28594453D02*
X57880953Y28594453D01*
X57880953Y28594453D02*
X58238095Y28475405D01*
X58238095Y28475405D02*
X58357143Y28356358D01*
X59428572Y26094453D02*
X59428572Y28594453D01*
X60500000Y26094453D02*
X60500000Y27403977D01*
X60500000Y27403977D02*
X60380953Y27642072D01*
X60380953Y27642072D02*
X60142857Y27761120D01*
X60142857Y27761120D02*
X59785714Y27761120D01*
X59785714Y27761120D02*
X59547619Y27642072D01*
X59547619Y27642072D02*
X59428572Y27523024D01*
X61690477Y26332548D02*
X61809524Y26213500D01*
X61809524Y26213500D02*
X61690477Y26094453D01*
X61690477Y26094453D02*
X61571429Y26213500D01*
X61571429Y26213500D02*
X61690477Y26332548D01*
X61690477Y26332548D02*
X61690477Y26094453D01*
X64190476Y26094453D02*
X62761905Y26094453D01*
X63476191Y26094453D02*
X63476191Y28594453D01*
X63476191Y28594453D02*
X63238095Y28237310D01*
X63238095Y28237310D02*
X63000000Y27999215D01*
X63000000Y27999215D02*
X62761905Y27880167D01*
X94500000Y28594453D02*
X95928571Y28594453D01*
X95214285Y26094453D02*
X95214285Y28594453D01*
X96761905Y26094453D02*
X96761905Y27761120D01*
X96761905Y27284929D02*
X96880952Y27523024D01*
X96880952Y27523024D02*
X97000000Y27642072D01*
X97000000Y27642072D02*
X97238095Y27761120D01*
X97238095Y27761120D02*
X97476190Y27761120D01*
X98309524Y26094453D02*
X98309524Y27761120D01*
X98309524Y28594453D02*
X98190476Y28475405D01*
X98190476Y28475405D02*
X98309524Y28356358D01*
X98309524Y28356358D02*
X98428571Y28475405D01*
X98428571Y28475405D02*
X98309524Y28594453D01*
X98309524Y28594453D02*
X98309524Y28356358D01*
X100571428Y27761120D02*
X100571428Y25737310D01*
X100571428Y25737310D02*
X100452381Y25499215D01*
X100452381Y25499215D02*
X100333333Y25380167D01*
X100333333Y25380167D02*
X100095238Y25261120D01*
X100095238Y25261120D02*
X99738095Y25261120D01*
X99738095Y25261120D02*
X99500000Y25380167D01*
X100571428Y26213500D02*
X100333333Y26094453D01*
X100333333Y26094453D02*
X99857142Y26094453D01*
X99857142Y26094453D02*
X99619047Y26213500D01*
X99619047Y26213500D02*
X99500000Y26332548D01*
X99500000Y26332548D02*
X99380952Y26570643D01*
X99380952Y26570643D02*
X99380952Y27284929D01*
X99380952Y27284929D02*
X99500000Y27523024D01*
X99500000Y27523024D02*
X99619047Y27642072D01*
X99619047Y27642072D02*
X99857142Y27761120D01*
X99857142Y27761120D02*
X100333333Y27761120D01*
X100333333Y27761120D02*
X100571428Y27642072D01*
X101761905Y26332548D02*
X101880952Y26213500D01*
X101880952Y26213500D02*
X101761905Y26094453D01*
X101761905Y26094453D02*
X101642857Y26213500D01*
X101642857Y26213500D02*
X101761905Y26332548D01*
X101761905Y26332548D02*
X101761905Y26094453D01*
X103428571Y28594453D02*
X103666666Y28594453D01*
X103666666Y28594453D02*
X103904762Y28475405D01*
X103904762Y28475405D02*
X104023809Y28356358D01*
X104023809Y28356358D02*
X104142857Y28118262D01*
X104142857Y28118262D02*
X104261904Y27642072D01*
X104261904Y27642072D02*
X104261904Y27046834D01*
X104261904Y27046834D02*
X104142857Y26570643D01*
X104142857Y26570643D02*
X104023809Y26332548D01*
X104023809Y26332548D02*
X103904762Y26213500D01*
X103904762Y26213500D02*
X103666666Y26094453D01*
X103666666Y26094453D02*
X103428571Y26094453D01*
X103428571Y26094453D02*
X103190476Y26213500D01*
X103190476Y26213500D02*
X103071428Y26332548D01*
X103071428Y26332548D02*
X102952381Y26570643D01*
X102952381Y26570643D02*
X102833333Y27046834D01*
X102833333Y27046834D02*
X102833333Y27642072D01*
X102833333Y27642072D02*
X102952381Y28118262D01*
X102952381Y28118262D02*
X103071428Y28356358D01*
X103071428Y28356358D02*
X103190476Y28475405D01*
X103190476Y28475405D02*
X103428571Y28594453D01*
X117500000Y28594453D02*
X118928571Y28594453D01*
X118214285Y26094453D02*
X118214285Y28594453D01*
X119761905Y26094453D02*
X119761905Y27761120D01*
X119761905Y27284929D02*
X119880952Y27523024D01*
X119880952Y27523024D02*
X120000000Y27642072D01*
X120000000Y27642072D02*
X120238095Y27761120D01*
X120238095Y27761120D02*
X120476190Y27761120D01*
X121309524Y26094453D02*
X121309524Y27761120D01*
X121309524Y28594453D02*
X121190476Y28475405D01*
X121190476Y28475405D02*
X121309524Y28356358D01*
X121309524Y28356358D02*
X121428571Y28475405D01*
X121428571Y28475405D02*
X121309524Y28594453D01*
X121309524Y28594453D02*
X121309524Y28356358D01*
X123571428Y27761120D02*
X123571428Y25737310D01*
X123571428Y25737310D02*
X123452381Y25499215D01*
X123452381Y25499215D02*
X123333333Y25380167D01*
X123333333Y25380167D02*
X123095238Y25261120D01*
X123095238Y25261120D02*
X122738095Y25261120D01*
X122738095Y25261120D02*
X122500000Y25380167D01*
X123571428Y26213500D02*
X123333333Y26094453D01*
X123333333Y26094453D02*
X122857142Y26094453D01*
X122857142Y26094453D02*
X122619047Y26213500D01*
X122619047Y26213500D02*
X122500000Y26332548D01*
X122500000Y26332548D02*
X122380952Y26570643D01*
X122380952Y26570643D02*
X122380952Y27284929D01*
X122380952Y27284929D02*
X122500000Y27523024D01*
X122500000Y27523024D02*
X122619047Y27642072D01*
X122619047Y27642072D02*
X122857142Y27761120D01*
X122857142Y27761120D02*
X123333333Y27761120D01*
X123333333Y27761120D02*
X123571428Y27642072D01*
X124761905Y26332548D02*
X124880952Y26213500D01*
X124880952Y26213500D02*
X124761905Y26094453D01*
X124761905Y26094453D02*
X124642857Y26213500D01*
X124642857Y26213500D02*
X124761905Y26332548D01*
X124761905Y26332548D02*
X124761905Y26094453D01*
X127261904Y26094453D02*
X125833333Y26094453D01*
X126547619Y26094453D02*
X126547619Y28594453D01*
X126547619Y28594453D02*
X126309523Y28237310D01*
X126309523Y28237310D02*
X126071428Y27999215D01*
X126071428Y27999215D02*
X125833333Y27880167D01*
M02*
