G04 #@! TF.GenerationSoftware,KiCad,Pcbnew,9.0.6*
G04 #@! TF.CreationDate,2026-01-16T18:39:49-05:00*
G04 #@! TF.ProjectId,panels,70616e65-6c73-42e6-9b69-6361645f7063,rev?*
G04 #@! TF.SameCoordinates,PX4b571c0PY72e4d78*
G04 #@! TF.FileFunction,Profile,NP*
%FSLAX46Y46*%
G04 Gerber Fmt 4.6, Leading zero omitted, Abs format (unit mm)*
G04 Created by KiCad (PCBNEW 9.0.6) date 2026-01-16 18:39:49*
%MOMM*%
%LPD*%
G01*
G04 APERTURE LIST*
G04 #@! TA.AperFunction,Profile*
%ADD10C,0.150000*%
G04 #@! TD*
G04 #@! TA.AperFunction,Profile*
%ADD11C,0.200000*%
G04 #@! TD*
%ADD12C,0.150000*%
G04 #@! TA.AperFunction,Profile*
%ADD13C,0.050000*%
G04 #@! TD*
G04 APERTURE END LIST*
D10*
X0Y40000000D02*
X0Y67000000D01*
X4000000Y71000000D02*
X136000000Y71000000D01*
X136000000Y36000000D02*
X4000000Y36000000D01*
X140000000Y67000000D02*
X140000000Y40000000D01*
D11*
X24300000Y17250000D02*
G75*
G02*
X10700000Y17250000I-6800000J0D01*
G01*
X10700000Y17250000D02*
G75*
G02*
X24300000Y17250000I6800000J0D01*
G01*
X129300000Y17250000D02*
G75*
G02*
X115700000Y17250000I-6800000J0D01*
G01*
X115700000Y17250000D02*
G75*
G02*
X129300000Y17250000I6800000J0D01*
G01*
X106300000Y17250000D02*
G75*
G02*
X92700000Y17250000I-6800000J0D01*
G01*
X92700000Y17250000D02*
G75*
G02*
X106300000Y17250000I6800000J0D01*
G01*
X67300000Y17250000D02*
G75*
G02*
X53700000Y17250000I-6800000J0D01*
G01*
X53700000Y17250000D02*
G75*
G02*
X67300000Y17250000I6800000J0D01*
G01*
X116500000Y49300000D02*
G75*
G02*
X110500000Y49300000I-3000000J0D01*
G01*
X110500000Y49300000D02*
G75*
G02*
X116500000Y49300000I3000000J0D01*
G01*
X124500000Y49300000D02*
G75*
G02*
X118500000Y49300000I-3000000J0D01*
G01*
X118500000Y49300000D02*
G75*
G02*
X124500000Y49300000I3000000J0D01*
G01*
D10*
X136000000Y71000000D02*
G75*
G02*
X140000000Y67000000I0J-4000000D01*
G01*
X4000000Y0D02*
G75*
G02*
X0Y4000000I0J4000000D01*
G01*
X140000000Y31000000D02*
X140000000Y4000000D01*
X136000000Y0D02*
X4000000Y0D01*
X4000000Y35000000D02*
X136000000Y35000000D01*
X0Y4000000D02*
X0Y31000000D01*
X0Y31000000D02*
G75*
G02*
X4000000Y35000000I4000000J0D01*
G01*
X136000000Y35000000D02*
G75*
G02*
X140000000Y31000000I0J-4000000D01*
G01*
X140000000Y4000000D02*
G75*
G02*
X136000000Y0I-4000000J0D01*
G01*
X28470000Y48330000D02*
X28470000Y47730000D01*
X18530000Y48330000D02*
X18530000Y47730000D01*
X20310000Y45950000D02*
G75*
G02*
X18530000Y47730000I0J1780000D01*
G01*
X26690000Y50110000D02*
G75*
G02*
X28470000Y48330000I0J-1780000D01*
G01*
X140000000Y40000000D02*
G75*
G02*
X136000000Y36000000I-4000000J0D01*
G01*
X0Y67000000D02*
G75*
G02*
X4000000Y71000000I4000000J0D01*
G01*
D11*
X38125000Y49840000D02*
G75*
G02*
X33125000Y49840000I-2500000J0D01*
G01*
X33125000Y49840000D02*
G75*
G02*
X38125000Y49840000I2500000J0D01*
G01*
X51000000Y55975000D02*
X80000000Y55975000D01*
X80000000Y45975000D01*
X51000000Y45975000D01*
X51000000Y55975000D01*
X97500000Y49300000D02*
G75*
G02*
X91500000Y49300000I-3000000J0D01*
G01*
X91500000Y49300000D02*
G75*
G02*
X97500000Y49300000I3000000J0D01*
G01*
D10*
X18530000Y48330000D02*
G75*
G02*
X20310000Y50110000I1780000J0D01*
G01*
X20310000Y45950000D02*
X26690000Y45950000D01*
X28470000Y47730000D02*
G75*
G02*
X26690000Y45950000I-1780000J0D01*
G01*
X4000000Y36000000D02*
G75*
G02*
X0Y40000000I0J4000000D01*
G01*
X20310000Y50110000D02*
X26690000Y50110000D01*
D12*
X-26695181Y45644048D02*
X-26695181Y45072620D01*
X-26695181Y45358334D02*
X-27695181Y45358334D01*
X-27695181Y45358334D02*
X-27552324Y45263096D01*
X-27552324Y45263096D02*
X-27457086Y45167858D01*
X-27457086Y45167858D02*
X-27409467Y45072620D01*
X-27599943Y46025001D02*
X-27647562Y46072620D01*
X-27647562Y46072620D02*
X-27695181Y46167858D01*
X-27695181Y46167858D02*
X-27695181Y46405953D01*
X-27695181Y46405953D02*
X-27647562Y46501191D01*
X-27647562Y46501191D02*
X-27599943Y46548810D01*
X-27599943Y46548810D02*
X-27504705Y46596429D01*
X-27504705Y46596429D02*
X-27409467Y46596429D01*
X-27409467Y46596429D02*
X-27266610Y46548810D01*
X-27266610Y46548810D02*
X-26695181Y45977382D01*
X-26695181Y45977382D02*
X-26695181Y46596429D01*
X-26790420Y47025001D02*
X-26742800Y47072620D01*
X-26742800Y47072620D02*
X-26695181Y47025001D01*
X-26695181Y47025001D02*
X-26742800Y46977382D01*
X-26742800Y46977382D02*
X-26790420Y47025001D01*
X-26790420Y47025001D02*
X-26695181Y47025001D01*
X-27695181Y47977381D02*
X-27695181Y47501191D01*
X-27695181Y47501191D02*
X-27218991Y47453572D01*
X-27218991Y47453572D02*
X-27266610Y47501191D01*
X-27266610Y47501191D02*
X-27314229Y47596429D01*
X-27314229Y47596429D02*
X-27314229Y47834524D01*
X-27314229Y47834524D02*
X-27266610Y47929762D01*
X-27266610Y47929762D02*
X-27218991Y47977381D01*
X-27218991Y47977381D02*
X-27123753Y48025000D01*
X-27123753Y48025000D02*
X-26885658Y48025000D01*
X-26885658Y48025000D02*
X-26790420Y47977381D01*
X-26790420Y47977381D02*
X-26742800Y47929762D01*
X-26742800Y47929762D02*
X-26695181Y47834524D01*
X-26695181Y47834524D02*
X-26695181Y47596429D01*
X-26695181Y47596429D02*
X-26742800Y47501191D01*
X-26742800Y47501191D02*
X-26790420Y47453572D01*
X-27695181Y48929762D02*
X-27695181Y48453572D01*
X-27695181Y48453572D02*
X-27218991Y48405953D01*
X-27218991Y48405953D02*
X-27266610Y48453572D01*
X-27266610Y48453572D02*
X-27314229Y48548810D01*
X-27314229Y48548810D02*
X-27314229Y48786905D01*
X-27314229Y48786905D02*
X-27266610Y48882143D01*
X-27266610Y48882143D02*
X-27218991Y48929762D01*
X-27218991Y48929762D02*
X-27123753Y48977381D01*
X-27123753Y48977381D02*
X-26885658Y48977381D01*
X-26885658Y48977381D02*
X-26790420Y48929762D01*
X-26790420Y48929762D02*
X-26742800Y48882143D01*
X-26742800Y48882143D02*
X-26695181Y48786905D01*
X-26695181Y48786905D02*
X-26695181Y48548810D01*
X-26695181Y48548810D02*
X-26742800Y48453572D01*
X-26742800Y48453572D02*
X-26790420Y48405953D01*
D13*
X-15750000Y40750000D02*
X-26586420Y40750000D01*
X-26586420Y53300000D02*
X44200000Y53300000D01*
X-26000000Y40750000D02*
X-26000000Y53300000D01*
X-26000000Y40750000D02*
X-26586421Y41876504D01*
X-26000000Y40750000D02*
X-25413579Y41876504D01*
X-26000000Y53300000D02*
X-25413579Y52173496D01*
X-26000000Y53300000D02*
X-26586421Y52173496D01*
D12*
X24576191Y91745181D02*
X25195238Y91745181D01*
X25195238Y91745181D02*
X24861905Y91364229D01*
X24861905Y91364229D02*
X25004762Y91364229D01*
X25004762Y91364229D02*
X25100000Y91316610D01*
X25100000Y91316610D02*
X25147619Y91268991D01*
X25147619Y91268991D02*
X25195238Y91173753D01*
X25195238Y91173753D02*
X25195238Y90935658D01*
X25195238Y90935658D02*
X25147619Y90840420D01*
X25147619Y90840420D02*
X25100000Y90792800D01*
X25100000Y90792800D02*
X25004762Y90745181D01*
X25004762Y90745181D02*
X24719048Y90745181D01*
X24719048Y90745181D02*
X24623810Y90792800D01*
X24623810Y90792800D02*
X24576191Y90840420D01*
X25528572Y91745181D02*
X26195238Y91745181D01*
X26195238Y91745181D02*
X25766667Y90745181D01*
X26576191Y90840420D02*
X26623810Y90792800D01*
X26623810Y90792800D02*
X26576191Y90745181D01*
X26576191Y90745181D02*
X26528572Y90792800D01*
X26528572Y90792800D02*
X26576191Y90840420D01*
X26576191Y90840420D02*
X26576191Y90745181D01*
X27004762Y91649943D02*
X27052381Y91697562D01*
X27052381Y91697562D02*
X27147619Y91745181D01*
X27147619Y91745181D02*
X27385714Y91745181D01*
X27385714Y91745181D02*
X27480952Y91697562D01*
X27480952Y91697562D02*
X27528571Y91649943D01*
X27528571Y91649943D02*
X27576190Y91554705D01*
X27576190Y91554705D02*
X27576190Y91459467D01*
X27576190Y91459467D02*
X27528571Y91316610D01*
X27528571Y91316610D02*
X26957143Y90745181D01*
X26957143Y90745181D02*
X27576190Y90745181D01*
D13*
X44700000Y53800000D02*
X44700000Y90636420D01*
X7500000Y90636420D02*
X7500000Y53800000D01*
X44700000Y90050000D02*
X7500000Y90050000D01*
X44700000Y90050000D02*
X43573496Y89463579D01*
X44700000Y90050000D02*
X43573496Y90636421D01*
X7500000Y90050000D02*
X8626504Y90636421D01*
X7500000Y90050000D02*
X8626504Y89463579D01*
M02*
