G04 #@! TF.GenerationSoftware,KiCad,Pcbnew,9.0.6*
G04 #@! TF.CreationDate,2026-01-16T18:39:49-05:00*
G04 #@! TF.ProjectId,panels,70616e65-6c73-42e6-9b69-6361645f7063,rev?*
G04 #@! TF.SameCoordinates,PX4b571c0PY72e4d78*
G04 #@! TF.FileFunction,Soldermask,Top*
G04 #@! TF.FilePolarity,Negative*
%FSLAX46Y46*%
G04 Gerber Fmt 4.6, Leading zero omitted, Abs format (unit mm)*
G04 Created by KiCad (PCBNEW 9.0.6) date 2026-01-16 18:39:49*
%MOMM*%
%LPD*%
G01*
G04 APERTURE LIST*
%ADD10C,0.000000*%
%ADD11C,3.600000*%
%ADD12C,5.600000*%
G04 APERTURE END LIST*
D10*
G36*
X32665895Y63415091D02*
G01*
X32660483Y57848599D01*
X32611832Y57674486D01*
X32509812Y57377470D01*
X32377079Y57107249D01*
X32213184Y56863010D01*
X32079262Y56706625D01*
X31917415Y56550965D01*
X31745105Y56418797D01*
X31549876Y56301067D01*
X31451935Y56250734D01*
X31229943Y56153940D01*
X31013322Y56086687D01*
X30785263Y56044071D01*
X30714515Y56035613D01*
X30679661Y56034087D01*
X30605673Y56032633D01*
X30494386Y56031250D01*
X30347634Y56029938D01*
X30167252Y56028697D01*
X29955075Y56027527D01*
X29712936Y56026428D01*
X29442670Y56025400D01*
X29146111Y56024443D01*
X28825093Y56023557D01*
X28481452Y56022741D01*
X28117021Y56021996D01*
X27733635Y56021321D01*
X27333127Y56020717D01*
X26917333Y56020184D01*
X26488087Y56019720D01*
X26047223Y56019327D01*
X25596576Y56019005D01*
X25137979Y56018752D01*
X24673268Y56018570D01*
X24204276Y56018458D01*
X23732839Y56018416D01*
X23260789Y56018443D01*
X22789963Y56018541D01*
X22322193Y56018708D01*
X21859315Y56018946D01*
X21403162Y56019253D01*
X20955570Y56019629D01*
X20518373Y56020075D01*
X20093404Y56020591D01*
X19682498Y56021176D01*
X19287490Y56021830D01*
X18910214Y56022554D01*
X18552505Y56023347D01*
X18216196Y56024210D01*
X17903122Y56025141D01*
X17615118Y56026141D01*
X17354017Y56027211D01*
X17121655Y56028349D01*
X16919865Y56029557D01*
X16750482Y56030833D01*
X16615340Y56032178D01*
X16516274Y56033592D01*
X16455118Y56035074D01*
X16436352Y56036096D01*
X16151813Y56086247D01*
X15879321Y56173822D01*
X15622127Y56296232D01*
X15383484Y56450889D01*
X15166642Y56635203D01*
X14974854Y56846588D01*
X14811369Y57082453D01*
X14679441Y57340211D01*
X14626033Y57477329D01*
X14613538Y57512125D01*
X14601907Y57543673D01*
X14591108Y57573469D01*
X14581112Y57603008D01*
X14571886Y57633786D01*
X14563401Y57667298D01*
X14555626Y57705040D01*
X14548529Y57748508D01*
X14542079Y57799196D01*
X14536247Y57858602D01*
X14531000Y57928219D01*
X14526309Y58009544D01*
X14522142Y58104072D01*
X14518468Y58213299D01*
X14515257Y58338720D01*
X14512477Y58481832D01*
X14510099Y58644128D01*
X14508090Y58827106D01*
X14506421Y59032261D01*
X14505059Y59261087D01*
X14503975Y59515081D01*
X14503138Y59795739D01*
X14502516Y60104555D01*
X14502080Y60443026D01*
X14501797Y60812647D01*
X14501637Y61214913D01*
X14501569Y61651320D01*
X14501563Y62123364D01*
X14501588Y62632540D01*
X14501612Y63180344D01*
X14501614Y63507269D01*
X14501552Y67588680D01*
X15604826Y67588680D01*
X15611564Y62954204D01*
X15618302Y58319728D01*
X15672347Y58193305D01*
X15738783Y58058544D01*
X15821501Y57931640D01*
X15928252Y57801443D01*
X15993888Y57730764D01*
X16113254Y57617751D01*
X16229866Y57533659D01*
X16356850Y57469643D01*
X16414487Y57447317D01*
X16424921Y57443906D01*
X16437564Y57440708D01*
X16453707Y57437718D01*
X16474637Y57434930D01*
X16501643Y57432336D01*
X16536015Y57429933D01*
X16579040Y57427713D01*
X16632007Y57425670D01*
X16696206Y57423799D01*
X16772924Y57422094D01*
X16863451Y57420548D01*
X16969075Y57419156D01*
X17091086Y57417911D01*
X17230770Y57416809D01*
X17389418Y57415842D01*
X17568319Y57415005D01*
X17768759Y57414291D01*
X17992030Y57413696D01*
X18239418Y57413212D01*
X18512214Y57412835D01*
X18811705Y57412557D01*
X19139180Y57412373D01*
X19495929Y57412278D01*
X19883239Y57412264D01*
X20302399Y57412326D01*
X20754699Y57412459D01*
X21241426Y57412656D01*
X21763870Y57412910D01*
X22323319Y57413217D01*
X22921062Y57413570D01*
X23558388Y57413964D01*
X23607676Y57413995D01*
X30696158Y57418438D01*
X30855530Y57497204D01*
X31041021Y57611209D01*
X31204109Y57756726D01*
X31339987Y57928276D01*
X31443850Y58120375D01*
X31476776Y58205883D01*
X31522570Y58340212D01*
X31523099Y62964446D01*
X31523628Y67588680D01*
X23564227Y67588680D01*
X15604826Y67588680D01*
X14501552Y67588680D01*
X14501531Y68981583D01*
X23586419Y68981583D01*
X32671307Y68981583D01*
X32665895Y63415091D01*
G37*
G36*
X19448242Y62333311D02*
G01*
X19508646Y62328026D01*
X19553446Y62315534D01*
X19595315Y62292901D01*
X19624736Y62272928D01*
X19702943Y62200176D01*
X19764767Y62109618D01*
X19817096Y62007946D01*
X19822824Y60358434D01*
X19823518Y60088141D01*
X19823708Y59829136D01*
X19823418Y59584667D01*
X19822672Y59357984D01*
X19821493Y59152338D01*
X19819905Y58970977D01*
X19817933Y58817151D01*
X19815600Y58694111D01*
X19812929Y58605104D01*
X19809946Y58553382D01*
X19809526Y58549480D01*
X19776988Y58389191D01*
X19717134Y58245852D01*
X19624943Y58109008D01*
X19564185Y58038706D01*
X19396797Y57883297D01*
X19211335Y57761118D01*
X19005870Y57671531D01*
X18778471Y57613899D01*
X18527208Y57587583D01*
X18250150Y57591946D01*
X18219354Y57594167D01*
X17967471Y57631577D01*
X17737756Y57703331D01*
X17529725Y57809640D01*
X17342895Y57950714D01*
X17297159Y57993675D01*
X17192540Y58106313D01*
X17116608Y58214642D01*
X17061276Y58332411D01*
X17021068Y58463036D01*
X16987573Y58644375D01*
X16984566Y58803684D01*
X17011112Y58939250D01*
X17066276Y59049358D01*
X17149125Y59132292D01*
X17258725Y59186338D01*
X17394140Y59209780D01*
X17428348Y59210662D01*
X17567946Y59194591D01*
X17685913Y59145193D01*
X17783796Y59061270D01*
X17863140Y58941624D01*
X17907349Y58839094D01*
X17963516Y58715349D01*
X18034502Y58605901D01*
X18113703Y58519227D01*
X18194514Y58463805D01*
X18202421Y58460312D01*
X18286189Y58439496D01*
X18390378Y58433294D01*
X18497311Y58441252D01*
X18589311Y58462917D01*
X18608547Y58470714D01*
X18692676Y58521351D01*
X18764979Y58587118D01*
X18815650Y58657694D01*
X18833534Y58707438D01*
X18835242Y58737510D01*
X18836997Y58805291D01*
X18838769Y58907522D01*
X18840527Y59040945D01*
X18842240Y59202300D01*
X18843877Y59388328D01*
X18845409Y59595771D01*
X18846803Y59821370D01*
X18848030Y60061867D01*
X18849059Y60314001D01*
X18849281Y60378357D01*
X18850314Y60674253D01*
X18851356Y60931977D01*
X18852478Y61154324D01*
X18853749Y61344091D01*
X18855238Y61504073D01*
X18857015Y61637066D01*
X18859149Y61745865D01*
X18861711Y61833266D01*
X18864769Y61902065D01*
X18868393Y61955057D01*
X18872653Y61995039D01*
X18877619Y62024805D01*
X18883359Y62047152D01*
X18889944Y62064875D01*
X18891317Y62067997D01*
X18955534Y62177869D01*
X19037783Y62256533D01*
X19142790Y62306677D01*
X19275280Y62330989D01*
X19359565Y62334321D01*
X19448242Y62333311D01*
G37*
G36*
X29007208Y66905922D02*
G01*
X29126903Y66873409D01*
X29225931Y66809839D01*
X29298864Y66720606D01*
X29340271Y66611106D01*
X29346312Y66568985D01*
X29345574Y66531230D01*
X29340506Y66456724D01*
X29331492Y66349412D01*
X29318916Y66213240D01*
X29303163Y66052153D01*
X29284616Y65870094D01*
X29263660Y65671010D01*
X29240680Y65458846D01*
X29220342Y65275628D01*
X29195961Y65057750D01*
X29173005Y64851402D01*
X29151878Y64660288D01*
X29132983Y64488112D01*
X29116721Y64338577D01*
X29103498Y64215387D01*
X29093715Y64122247D01*
X29087775Y64062859D01*
X29086047Y64041475D01*
X29087647Y64032732D01*
X29094748Y64025464D01*
X29110805Y64019535D01*
X29139274Y64014809D01*
X29183608Y64011150D01*
X29247264Y64008423D01*
X29333695Y64006492D01*
X29446358Y64005220D01*
X29588705Y64004472D01*
X29764193Y64004113D01*
X29976276Y64004006D01*
X30039205Y64004003D01*
X30271606Y64003970D01*
X30466718Y64003596D01*
X30628222Y64002465D01*
X30759796Y64000164D01*
X30865119Y63996278D01*
X30947872Y63990392D01*
X31011734Y63982092D01*
X31060383Y63970963D01*
X31097499Y63956591D01*
X31126763Y63938562D01*
X31151852Y63916460D01*
X31176446Y63889871D01*
X31190075Y63874347D01*
X31246370Y63788729D01*
X31273654Y63688874D01*
X31274324Y63565629D01*
X31273465Y63556195D01*
X31270555Y63539827D01*
X31263911Y63518826D01*
X31252439Y63491435D01*
X31235049Y63455897D01*
X31210648Y63410454D01*
X31178145Y63353349D01*
X31136448Y63282823D01*
X31084465Y63197120D01*
X31021104Y63094483D01*
X30945273Y62973153D01*
X30855881Y62831373D01*
X30751835Y62667385D01*
X30632043Y62479433D01*
X30495414Y62265758D01*
X30340856Y62024603D01*
X30167277Y61754211D01*
X29973585Y61452824D01*
X29771585Y61138732D01*
X29554850Y60801712D01*
X29359185Y60497402D01*
X29183373Y60224140D01*
X29026194Y59980264D01*
X28886430Y59764111D01*
X28762861Y59574017D01*
X28654270Y59408322D01*
X28559437Y59265361D01*
X28477144Y59143472D01*
X28406172Y59040992D01*
X28345302Y58956260D01*
X28293316Y58887612D01*
X28248994Y58833385D01*
X28211118Y58791917D01*
X28178469Y58761546D01*
X28149829Y58740608D01*
X28123979Y58727441D01*
X28099699Y58720382D01*
X28075772Y58717769D01*
X28050978Y58717939D01*
X28024099Y58719229D01*
X27998603Y58719966D01*
X27922351Y58725635D01*
X27852873Y58739158D01*
X27826289Y58748311D01*
X27740598Y58804871D01*
X27667289Y58886568D01*
X27614807Y58981186D01*
X27591601Y59076511D01*
X27591175Y59088304D01*
X27595042Y59116692D01*
X27606359Y59181834D01*
X27624473Y59280326D01*
X27648727Y59408765D01*
X27678465Y59563745D01*
X27713031Y59741864D01*
X27751771Y59939717D01*
X27794029Y60153902D01*
X27839149Y60381013D01*
X27867257Y60521744D01*
X27913657Y60753823D01*
X27957615Y60974123D01*
X27998479Y61179351D01*
X28035599Y61366217D01*
X28068324Y61531430D01*
X28096001Y61671699D01*
X28117981Y61783731D01*
X28133611Y61864238D01*
X28142240Y61909926D01*
X28143789Y61919338D01*
X28124055Y61922915D01*
X28067846Y61926232D01*
X27979656Y61929193D01*
X27863978Y61931703D01*
X27725306Y61933666D01*
X27568134Y61934986D01*
X27396953Y61935568D01*
X27380765Y61935581D01*
X27181713Y61935839D01*
X27019326Y61936484D01*
X26889303Y61937709D01*
X26787343Y61939709D01*
X26709143Y61942675D01*
X26650403Y61946803D01*
X26606820Y61952285D01*
X26574093Y61959315D01*
X26547920Y61968087D01*
X26534958Y61973634D01*
X26435106Y62039802D01*
X26360658Y62131649D01*
X26316367Y62240407D01*
X26306986Y62357311D01*
X26310724Y62387207D01*
X26321952Y62414716D01*
X26351289Y62475477D01*
X26397267Y62566755D01*
X26458421Y62685814D01*
X26497413Y62760871D01*
X27391905Y62760871D01*
X27399326Y62753798D01*
X27429505Y62747862D01*
X27485383Y62742929D01*
X27569901Y62738864D01*
X27685999Y62735533D01*
X27836619Y62732802D01*
X28024701Y62730537D01*
X28065268Y62730145D01*
X28258968Y62728241D01*
X28416256Y62726054D01*
X28541687Y62722882D01*
X28639814Y62718023D01*
X28715192Y62710777D01*
X28772375Y62700440D01*
X28815916Y62686313D01*
X28850371Y62667693D01*
X28880292Y62643880D01*
X28910234Y62614171D01*
X28925994Y62597565D01*
X28989856Y62507773D01*
X29020439Y62404133D01*
X29024596Y62337300D01*
X29020605Y62294568D01*
X29009350Y62217901D01*
X28991904Y62113477D01*
X28969340Y61987471D01*
X28942733Y61846060D01*
X28913157Y61695419D01*
X28911935Y61689325D01*
X28882678Y61543219D01*
X28856247Y61410520D01*
X28833671Y61296443D01*
X28815977Y61206205D01*
X28804191Y61145019D01*
X28799341Y61118103D01*
X28799273Y61117394D01*
X28799728Y61114734D01*
X28802160Y61115640D01*
X28808172Y61122566D01*
X28819367Y61137970D01*
X28837345Y61164307D01*
X28863710Y61204034D01*
X28900064Y61259607D01*
X28948009Y61333482D01*
X29009147Y61428115D01*
X29085081Y61545962D01*
X29177412Y61689480D01*
X29287744Y61861125D01*
X29417677Y62063352D01*
X29503108Y62196334D01*
X29620708Y62379566D01*
X29731438Y62552421D01*
X29833356Y62711847D01*
X29924519Y62854791D01*
X30002986Y62978198D01*
X30066816Y63079015D01*
X30114065Y63154188D01*
X30142792Y63200665D01*
X30151209Y63215407D01*
X30131457Y63217660D01*
X30075126Y63219740D01*
X29986607Y63221593D01*
X29870290Y63223161D01*
X29730562Y63224388D01*
X29571815Y63225219D01*
X29398437Y63225598D01*
X29351680Y63225615D01*
X29143334Y63225830D01*
X28971973Y63226569D01*
X28833616Y63227977D01*
X28724281Y63230196D01*
X28639987Y63233370D01*
X28576753Y63237642D01*
X28530598Y63243155D01*
X28497540Y63250054D01*
X28476744Y63257122D01*
X28387649Y63305191D01*
X28324070Y63369507D01*
X28284997Y63434759D01*
X28267050Y63477187D01*
X28255100Y63526155D01*
X28249168Y63587274D01*
X28249272Y63666153D01*
X28255431Y63768402D01*
X28267664Y63899631D01*
X28285990Y64065450D01*
X28287176Y64075696D01*
X28300567Y64193346D01*
X28312108Y64298974D01*
X28321002Y64384925D01*
X28326449Y64443546D01*
X28327791Y64464890D01*
X28318486Y64453266D01*
X28292031Y64409737D01*
X28250710Y64338460D01*
X28196808Y64243594D01*
X28132609Y64129299D01*
X28060397Y63999732D01*
X27982455Y63859053D01*
X27901068Y63711420D01*
X27818520Y63560992D01*
X27737096Y63411929D01*
X27659078Y63268387D01*
X27586752Y63134528D01*
X27522401Y63014508D01*
X27468310Y62912488D01*
X27426762Y62832625D01*
X27400042Y62779079D01*
X27391905Y62760871D01*
X26497413Y62760871D01*
X26533282Y62829918D01*
X26620384Y62996332D01*
X26718259Y63182319D01*
X26825442Y63385145D01*
X26940465Y63602072D01*
X27061861Y63830366D01*
X27188162Y64067290D01*
X27317903Y64310110D01*
X27449616Y64556088D01*
X27581835Y64802490D01*
X27713091Y65046580D01*
X27841919Y65285622D01*
X27966850Y65516879D01*
X28086420Y65737617D01*
X28199159Y65945100D01*
X28303602Y66136592D01*
X28398281Y66309357D01*
X28481730Y66460659D01*
X28552482Y66587763D01*
X28609068Y66687933D01*
X28650024Y66758433D01*
X28673881Y66796528D01*
X28677788Y66801560D01*
X28760020Y66861891D01*
X28865177Y66898844D01*
X28979980Y66908212D01*
X29007208Y66905922D01*
G37*
G36*
X20897385Y62340222D02*
G01*
X20974399Y62324451D01*
X21060719Y62285027D01*
X21146619Y62219078D01*
X21220375Y62138032D01*
X21270261Y62053317D01*
X21279265Y62027309D01*
X21284604Y61989126D01*
X21289207Y61915338D01*
X21293086Y61805194D01*
X21296253Y61657942D01*
X21298721Y61472834D01*
X21300502Y61249116D01*
X21301608Y60986040D01*
X21302052Y60682854D01*
X21302062Y60638509D01*
X21302131Y60369418D01*
X21302109Y60138166D01*
X21301731Y59941627D01*
X21300731Y59776674D01*
X21298842Y59640178D01*
X21295798Y59529012D01*
X21291334Y59440050D01*
X21285183Y59370163D01*
X21277079Y59316225D01*
X21266756Y59275108D01*
X21253948Y59243684D01*
X21238389Y59218826D01*
X21219813Y59197407D01*
X21197953Y59176300D01*
X21175900Y59155605D01*
X21059163Y59070889D01*
X20926233Y59020533D01*
X20785151Y59005862D01*
X20643955Y59028203D01*
X20571099Y59055840D01*
X20462615Y59126015D01*
X20402107Y59191858D01*
X20339435Y59278375D01*
X20339435Y60665132D01*
X20339435Y62051888D01*
X20400729Y62136502D01*
X20498466Y62238394D01*
X20617508Y62307520D01*
X20752324Y62342066D01*
X20897385Y62340222D01*
G37*
G36*
X23128150Y62364410D02*
G01*
X23339705Y62322093D01*
X23529826Y62254394D01*
X23692610Y62162554D01*
X23713425Y62147433D01*
X23779271Y62098026D01*
X23882771Y62172384D01*
X24029564Y62255775D01*
X24204473Y62318367D01*
X24399881Y62359398D01*
X24608169Y62378104D01*
X24821721Y62373722D01*
X25032919Y62345489D01*
X25198447Y62304176D01*
X25324513Y62247158D01*
X25447676Y62158800D01*
X25557874Y62048102D01*
X25645041Y61924059D01*
X25664087Y61887880D01*
X25697953Y61813448D01*
X25726948Y61737400D01*
X25751436Y61656018D01*
X25771778Y61565586D01*
X25788337Y61462388D01*
X25801475Y61342709D01*
X25811555Y61202831D01*
X25818938Y61039039D01*
X25823987Y60847616D01*
X25827064Y60624847D01*
X25828531Y60367014D01*
X25828788Y60198307D01*
X25828781Y59989166D01*
X25828469Y59816954D01*
X25827676Y59677632D01*
X25826229Y59567161D01*
X25823951Y59481504D01*
X25820668Y59416622D01*
X25816206Y59368476D01*
X25810388Y59333028D01*
X25803041Y59306239D01*
X25793990Y59284070D01*
X25788739Y59273394D01*
X25713662Y59168055D01*
X25613961Y59089059D01*
X25496815Y59036926D01*
X25369406Y59012178D01*
X25238915Y59015335D01*
X25112522Y59046918D01*
X24997408Y59107447D01*
X24900753Y59197444D01*
X24892164Y59208367D01*
X24825402Y59295897D01*
X24825402Y60284630D01*
X24825402Y61273363D01*
X24753639Y61347255D01*
X24662418Y61416794D01*
X24564312Y61448894D01*
X24465593Y61443478D01*
X24372531Y61400465D01*
X24318426Y61352725D01*
X24251854Y61280249D01*
X24251854Y60303643D01*
X24251854Y59327037D01*
X24202646Y59243302D01*
X24125236Y59147116D01*
X24025482Y59075877D01*
X23910604Y59029704D01*
X23787824Y59008718D01*
X23664363Y59013039D01*
X23547441Y59042789D01*
X23444279Y59098086D01*
X23362098Y59179053D01*
X23331349Y59228772D01*
X23322385Y59248499D01*
X23314862Y59271957D01*
X23308623Y59302820D01*
X23303509Y59344762D01*
X23299362Y59401457D01*
X23296025Y59476580D01*
X23293340Y59573805D01*
X23291148Y59696807D01*
X23289292Y59849259D01*
X23287613Y60034837D01*
X23285954Y60257215D01*
X23285724Y60290074D01*
X23284094Y60516615D01*
X23282520Y60705757D01*
X23280838Y60861069D01*
X23278881Y60986122D01*
X23276485Y61084484D01*
X23273483Y61159723D01*
X23269710Y61215409D01*
X23265001Y61255111D01*
X23259189Y61282398D01*
X23252109Y61300838D01*
X23243596Y61314001D01*
X23237902Y61320662D01*
X23182617Y61366996D01*
X23110338Y61409521D01*
X23039702Y61438063D01*
X23012459Y61443743D01*
X22956553Y61445869D01*
X22909690Y61434311D01*
X22857386Y61403696D01*
X22811103Y61369085D01*
X22715564Y61294651D01*
X22715564Y60313148D01*
X22715434Y60083789D01*
X22714969Y59891820D01*
X22714057Y59733665D01*
X22712584Y59605747D01*
X22710436Y59504490D01*
X22707501Y59426316D01*
X22703666Y59367650D01*
X22698817Y59324914D01*
X22692841Y59294532D01*
X22685626Y59272928D01*
X22682442Y59266090D01*
X22610810Y59158934D01*
X22517736Y59082296D01*
X22399219Y59033846D01*
X22251261Y59011252D01*
X22244435Y59010840D01*
X22160150Y59007816D01*
X22099945Y59012510D01*
X22047185Y59028077D01*
X21985237Y59057672D01*
X21978290Y59061317D01*
X21867515Y59138619D01*
X21791008Y59236920D01*
X21753150Y59331270D01*
X21747895Y59371255D01*
X21743445Y59447016D01*
X21739802Y59553371D01*
X21736968Y59685137D01*
X21734943Y59837131D01*
X21733729Y60004170D01*
X21733328Y60181072D01*
X21733740Y60362652D01*
X21734967Y60543730D01*
X21737011Y60719120D01*
X21739873Y60883641D01*
X21743553Y61032109D01*
X21748054Y61159342D01*
X21752651Y61248922D01*
X21769242Y61450247D01*
X21792952Y61617340D01*
X21826138Y61756655D01*
X21871153Y61874650D01*
X21930354Y61977781D01*
X22006095Y62072505D01*
X22080043Y62146442D01*
X22172762Y62221152D01*
X22273488Y62277853D01*
X22390883Y62319829D01*
X22533607Y62350362D01*
X22664354Y62367936D01*
X22901066Y62380105D01*
X23128150Y62364410D01*
G37*
G36*
X17402505Y65821522D02*
G01*
X17646482Y65799495D01*
X17857806Y65755009D01*
X18038578Y65687294D01*
X18190898Y65595584D01*
X18306030Y65491203D01*
X18409833Y65357435D01*
X18478723Y65223948D01*
X18512797Y65094335D01*
X18512151Y64972186D01*
X18476880Y64861093D01*
X18407081Y64764647D01*
X18302851Y64686440D01*
X18284228Y64676491D01*
X18189346Y64642525D01*
X18078620Y64624407D01*
X17970033Y64623889D01*
X17893400Y64638412D01*
X17844792Y64662639D01*
X17776955Y64706996D01*
X17700898Y64763975D01*
X17659970Y64797617D01*
X17585302Y64858389D01*
X17514473Y64911153D01*
X17457920Y64948348D01*
X17436504Y64959504D01*
X17341762Y64982508D01*
X17232331Y64983438D01*
X17122672Y64964370D01*
X17027248Y64927379D01*
X16978724Y64893824D01*
X16944192Y64841571D01*
X16947011Y64785148D01*
X16984270Y64727977D01*
X17053060Y64673478D01*
X17150474Y64625071D01*
X17230591Y64597667D01*
X17325444Y64570022D01*
X17437103Y64537401D01*
X17543066Y64506377D01*
X17553628Y64503280D01*
X17780849Y64430234D01*
X17971236Y64354239D01*
X18128924Y64272661D01*
X18258046Y64182865D01*
X18362736Y64082217D01*
X18447128Y63968081D01*
X18478378Y63913876D01*
X18511964Y63846138D01*
X18533073Y63786288D01*
X18545300Y63719382D01*
X18552241Y63630476D01*
X18553669Y63600900D01*
X18545959Y63374360D01*
X18502711Y63161542D01*
X18431669Y62980746D01*
X18363569Y62871772D01*
X18271326Y62761623D01*
X18166289Y62661814D01*
X18059810Y62583855D01*
X18017088Y62560251D01*
X17879874Y62507897D01*
X17713082Y62467979D01*
X17526404Y62441264D01*
X17329535Y62428519D01*
X17132165Y62430511D01*
X16943989Y62448005D01*
X16836693Y62466866D01*
X16603602Y62529095D01*
X16397108Y62609541D01*
X16219418Y62706464D01*
X16072737Y62818123D01*
X15959271Y62942777D01*
X15881225Y63078686D01*
X15840807Y63224110D01*
X15837331Y63255390D01*
X15841582Y63403170D01*
X15879080Y63528584D01*
X15947598Y63629178D01*
X16044911Y63702498D01*
X16168792Y63746088D01*
X16293089Y63757933D01*
X16413054Y63750227D01*
X16511949Y63724194D01*
X16599171Y63674729D01*
X16684119Y63596725D01*
X16762592Y63502831D01*
X16841832Y63405019D01*
X16909006Y63336827D01*
X16973650Y63293067D01*
X17045302Y63268550D01*
X17133499Y63258087D01*
X17215644Y63256341D01*
X17352951Y63264405D01*
X17453553Y63288837D01*
X17518459Y63330000D01*
X17545272Y63374945D01*
X17545621Y63439943D01*
X17509687Y63506934D01*
X17441751Y63572174D01*
X17346094Y63631918D01*
X17226998Y63682420D01*
X17174955Y63698851D01*
X16964273Y63760941D01*
X16788798Y63816473D01*
X16643717Y63867656D01*
X16524218Y63916700D01*
X16425490Y63965812D01*
X16342720Y64017204D01*
X16271096Y64073084D01*
X16205806Y64135662D01*
X16192324Y64149997D01*
X16122477Y64232746D01*
X16075611Y64309376D01*
X16041225Y64397369D01*
X16038516Y64406014D01*
X16004591Y64568200D01*
X15996294Y64742506D01*
X16011886Y64920142D01*
X16049630Y65092317D01*
X16107788Y65250241D01*
X16184622Y65385123D01*
X16246729Y65459275D01*
X16371227Y65561218D01*
X16527038Y65652631D01*
X16704991Y65729240D01*
X16895911Y65786771D01*
X16992828Y65806950D01*
X17113505Y65820420D01*
X17266758Y65824685D01*
X17402505Y65821522D01*
G37*
G36*
X19434370Y67360349D02*
G01*
X19556281Y67335292D01*
X19658925Y67286857D01*
X19684050Y67267953D01*
X19733089Y67221798D01*
X19768597Y67173343D01*
X19793008Y67114689D01*
X19808756Y67037934D01*
X19818277Y66935179D01*
X19823486Y66815414D01*
X19832083Y66544003D01*
X19974115Y66544003D01*
X20083640Y66537550D01*
X20166582Y66514965D01*
X20235737Y66471410D01*
X20280765Y66428049D01*
X20340521Y66353271D01*
X20380320Y66274371D01*
X20404251Y66179744D01*
X20416404Y66057788D01*
X20417269Y66040686D01*
X20416602Y65907951D01*
X20398285Y65805467D01*
X20358914Y65725073D01*
X20295086Y65658610D01*
X20242291Y65621171D01*
X20187627Y65589568D01*
X20138121Y65571335D01*
X20078781Y65562923D01*
X19994618Y65560783D01*
X19987198Y65560777D01*
X19827338Y65560777D01*
X19826888Y64162753D01*
X19826751Y63888536D01*
X19826477Y63652253D01*
X19825987Y63450867D01*
X19825201Y63281346D01*
X19824042Y63140654D01*
X19822429Y63025756D01*
X19820284Y62933617D01*
X19817528Y62861204D01*
X19814081Y62805481D01*
X19809866Y62763413D01*
X19804802Y62731967D01*
X19798811Y62708107D01*
X19791814Y62688799D01*
X19788307Y62680766D01*
X19724144Y62587510D01*
X19628830Y62516067D01*
X19507353Y62468961D01*
X19364702Y62448712D01*
X19328029Y62448127D01*
X19245135Y62453289D01*
X19166020Y62465597D01*
X19125951Y62476376D01*
X19017194Y62526424D01*
X18939985Y62589871D01*
X18904662Y62637817D01*
X18896932Y62651717D01*
X18890270Y62668202D01*
X18884594Y62690235D01*
X18879828Y62720779D01*
X18875890Y62762799D01*
X18872702Y62819258D01*
X18870185Y62893118D01*
X18868258Y62987345D01*
X18866844Y63104900D01*
X18865861Y63248749D01*
X18865233Y63421853D01*
X18864877Y63627177D01*
X18864717Y63867684D01*
X18864672Y64132027D01*
X18864596Y65560777D01*
X18736436Y65560777D01*
X18603283Y65568955D01*
X18500670Y65596138D01*
X18421026Y65646303D01*
X18356780Y65723422D01*
X18326758Y65775857D01*
X18296311Y65866285D01*
X18281052Y65980192D01*
X18280911Y66103041D01*
X18295821Y66220291D01*
X18325710Y66317403D01*
X18329376Y66325153D01*
X18384181Y66412661D01*
X18453093Y66473694D01*
X18543866Y66512722D01*
X18664251Y66534214D01*
X18697166Y66537163D01*
X18864596Y66550075D01*
X18864596Y66811995D01*
X18865985Y66915736D01*
X18869775Y67008143D01*
X18875399Y67079565D01*
X18882289Y67120349D01*
X18882802Y67121802D01*
X18908639Y67165620D01*
X18951681Y67218286D01*
X18969157Y67236315D01*
X19060587Y67300011D01*
X19175769Y67342233D01*
X19303948Y67362504D01*
X19434370Y67360349D01*
G37*
G36*
X21001285Y65736796D02*
G01*
X21115463Y65693240D01*
X21142163Y65677204D01*
X21193324Y65630482D01*
X21241655Y65566358D01*
X21256088Y65540908D01*
X21302176Y65449677D01*
X21302176Y64101064D01*
X21302063Y63826676D01*
X21301681Y63590381D01*
X21300970Y63389308D01*
X21299871Y63220583D01*
X21298321Y63081334D01*
X21296261Y62968686D01*
X21293629Y62879767D01*
X21290365Y62811705D01*
X21286409Y62761625D01*
X21281700Y62726656D01*
X21276177Y62703924D01*
X21272497Y62695058D01*
X21202784Y62602463D01*
X21104381Y62529459D01*
X20985749Y62478367D01*
X20855348Y62451507D01*
X20721636Y62451200D01*
X20593075Y62479767D01*
X20550713Y62497085D01*
X20446346Y62564027D01*
X20390485Y62628150D01*
X20336479Y62709759D01*
X20332836Y64099421D01*
X20332020Y64380749D01*
X20331354Y64624059D01*
X20331139Y64832301D01*
X20331675Y65008423D01*
X20333265Y65155376D01*
X20336209Y65276108D01*
X20340809Y65373570D01*
X20347365Y65450710D01*
X20356178Y65510478D01*
X20367551Y65555824D01*
X20381784Y65589697D01*
X20399179Y65615047D01*
X20420036Y65634822D01*
X20444656Y65651973D01*
X20473342Y65669448D01*
X20494491Y65682493D01*
X20603089Y65730557D01*
X20732292Y65755560D01*
X20869293Y65757604D01*
X21001285Y65736796D01*
G37*
G36*
X24872497Y65814777D02*
G01*
X25088888Y65776897D01*
X25211083Y65742249D01*
X25342348Y65679931D01*
X25467389Y65584439D01*
X25577959Y65463517D01*
X25665813Y65324909D01*
X25674709Y65306889D01*
X25703976Y65243475D01*
X25728886Y65182682D01*
X25749824Y65120621D01*
X25767180Y65053399D01*
X25781340Y64977127D01*
X25792692Y64887914D01*
X25801623Y64781871D01*
X25808520Y64655106D01*
X25813772Y64503729D01*
X25817765Y64323850D01*
X25820888Y64111578D01*
X25823527Y63863023D01*
X25824041Y63807470D01*
X25826083Y63578496D01*
X25827604Y63386827D01*
X25828493Y63228799D01*
X25828638Y63100754D01*
X25827926Y62999027D01*
X25826246Y62919959D01*
X25823486Y62859887D01*
X25819535Y62815151D01*
X25814279Y62782088D01*
X25807609Y62757037D01*
X25799410Y62736336D01*
X25790780Y62718685D01*
X25714176Y62611723D01*
X25609536Y62528828D01*
X25484507Y62473940D01*
X25346734Y62450998D01*
X25274676Y62452807D01*
X25148348Y62480008D01*
X25028660Y62534348D01*
X24928411Y62609043D01*
X24883312Y62660261D01*
X24825402Y62740149D01*
X24825402Y63730544D01*
X24825402Y64720938D01*
X24745633Y64800707D01*
X24654944Y64869530D01*
X24559571Y64898009D01*
X24457005Y64886710D01*
X24420398Y64874047D01*
X24385675Y64860404D01*
X24356448Y64847305D01*
X24332206Y64831314D01*
X24312442Y64808995D01*
X24296647Y64776912D01*
X24284310Y64731627D01*
X24274924Y64669706D01*
X24267979Y64587711D01*
X24262967Y64482207D01*
X24259378Y64349757D01*
X24256703Y64186925D01*
X24254434Y63990275D01*
X24252061Y63756370D01*
X24251854Y63736183D01*
X24241612Y62741186D01*
X24186428Y62657830D01*
X24114624Y62580407D01*
X24015788Y62515121D01*
X23903518Y62468859D01*
X23791413Y62448508D01*
X23772332Y62448127D01*
X23638610Y62464705D01*
X23515796Y62509047D01*
X23412838Y62576587D01*
X23338681Y62662761D01*
X23333210Y62672199D01*
X23324001Y62690742D01*
X23316215Y62712859D01*
X23309665Y62742184D01*
X23304163Y62782355D01*
X23299523Y62837008D01*
X23295559Y62909779D01*
X23292083Y63004303D01*
X23288908Y63124217D01*
X23285849Y63273157D01*
X23282718Y63454760D01*
X23279329Y63672660D01*
X23278296Y63741504D01*
X23263403Y64738764D01*
X23209394Y64790507D01*
X23155025Y64830308D01*
X23085701Y64866090D01*
X23065351Y64874016D01*
X23006731Y64892173D01*
X22964465Y64893660D01*
X22917119Y64877264D01*
X22889114Y64864053D01*
X22853651Y64847654D01*
X22823842Y64833375D01*
X22799160Y64817734D01*
X22779075Y64797249D01*
X22763062Y64768435D01*
X22750592Y64727811D01*
X22741137Y64671893D01*
X22734170Y64597198D01*
X22729164Y64500244D01*
X22725590Y64377547D01*
X22722921Y64225625D01*
X22720629Y64040994D01*
X22718187Y63820172D01*
X22717144Y63728929D01*
X22705322Y62717245D01*
X22641686Y62638659D01*
X22548514Y62554042D01*
X22430551Y62492794D01*
X22298397Y62457647D01*
X22162652Y62451338D01*
X22033919Y62476600D01*
X22025316Y62479669D01*
X21958927Y62513604D01*
X21888179Y62563679D01*
X21858149Y62590168D01*
X21829638Y62619123D01*
X21805570Y62648474D01*
X21785614Y62681744D01*
X21769439Y62722456D01*
X21756715Y62774132D01*
X21747110Y62840296D01*
X21740295Y62924470D01*
X21735939Y63030178D01*
X21733710Y63160941D01*
X21733279Y63320284D01*
X21734314Y63511729D01*
X21736485Y63738798D01*
X21737939Y63870857D01*
X21741201Y64128643D01*
X21744981Y64349304D01*
X21749636Y64536685D01*
X21755526Y64694628D01*
X21763008Y64826978D01*
X21772441Y64937576D01*
X21784182Y65030267D01*
X21798590Y65108895D01*
X21816023Y65177301D01*
X21836839Y65239331D01*
X21861397Y65298826D01*
X21873490Y65325212D01*
X21940610Y65437087D01*
X22031702Y65546205D01*
X22135435Y65640934D01*
X22240477Y65709640D01*
X22254676Y65716536D01*
X22384320Y65762658D01*
X22542600Y65796716D01*
X22718549Y65817127D01*
X22901201Y65822312D01*
X22971612Y65819879D01*
X23207539Y65795522D01*
X23409574Y65749303D01*
X23578645Y65680944D01*
X23702845Y65600701D01*
X23778594Y65540075D01*
X23894248Y65621091D01*
X24051572Y65708652D01*
X24235408Y65772477D01*
X24438407Y65811891D01*
X24653220Y65826216D01*
X24872497Y65814777D01*
G37*
D11*
X132500000Y4750000D03*
D12*
X132500000Y4750000D03*
D11*
X7500000Y40750000D03*
D12*
X7500000Y40750000D03*
D11*
X132500000Y40750000D03*
D12*
X132500000Y40750000D03*
D11*
X132500000Y30250000D03*
D12*
X132500000Y30250000D03*
D11*
X132500000Y66250000D03*
D12*
X132500000Y66250000D03*
D11*
X44700000Y53300000D03*
D12*
X44700000Y53300000D03*
D11*
X7500000Y30250000D03*
D12*
X7500000Y30250000D03*
D11*
X7500000Y4750000D03*
D12*
X7500000Y4750000D03*
D11*
X7500000Y66250000D03*
D12*
X7500000Y66250000D03*
M02*
