G04 #@! TF.GenerationSoftware,KiCad,Pcbnew,9.0.6*
G04 #@! TF.CreationDate,2026-01-16T18:39:49-05:00*
G04 #@! TF.ProjectId,panels,70616e65-6c73-42e6-9b69-6361645f7063,rev?*
G04 #@! TF.SameCoordinates,PX4b571c0PY72e4d78*
G04 #@! TF.FileFunction,Legend,Top*
G04 #@! TF.FilePolarity,Positive*
%FSLAX46Y46*%
G04 Gerber Fmt 4.6, Leading zero omitted, Abs format (unit mm)*
G04 Created by KiCad (PCBNEW 9.0.6) date 2026-01-16 18:39:49*
%MOMM*%
%LPD*%
G01*
G04 APERTURE LIST*
%ADD10C,0.500000*%
%ADD11C,0.300000*%
%ADD12C,0.100000*%
%ADD13C,0.200000*%
G04 APERTURE END LIST*
D10*
X11000000Y25682107D02*
X12000000Y25682107D01*
X9000000Y23682107D02*
G75*
G02*
X11000000Y25682100I2000000J-7D01*
G01*
X66000000Y25767890D02*
X66000000Y27767890D01*
X41500000Y25767893D02*
X41500000Y9975000D01*
D11*
X32250000Y17225000D02*
G75*
G02*
X31250000Y17225000I-500000J0D01*
G01*
X31250000Y17225000D02*
G75*
G02*
X32250000Y17225000I500000J0D01*
G01*
X31250000Y12975000D02*
X31250000Y13725000D01*
X75250000Y12975000D02*
X74250000Y12975000D01*
D10*
X66000000Y25767890D02*
X82750000Y25767890D01*
D12*
X84500000Y26475000D02*
X84500000Y24475000D01*
X83292896Y25682104D01*
X66000000Y25682104D01*
X66000000Y27767890D01*
X83000000Y27767890D01*
X84500000Y26475000D01*
G36*
X84500000Y26475000D02*
G01*
X84500000Y24475000D01*
X83292896Y25682104D01*
X66000000Y25682104D01*
X66000000Y27767890D01*
X83000000Y27767890D01*
X84500000Y26475000D01*
G37*
D10*
X23000000Y27767890D02*
X39500000Y27767890D01*
D11*
X31250000Y20725000D02*
X31250000Y21475000D01*
D13*
X109625000Y57225000D02*
X125375000Y57225000D01*
D10*
X84500000Y9975000D02*
G75*
G02*
X82500000Y7975000I-2000000J0D01*
G01*
X82500000Y27767890D02*
G75*
G02*
X84499990Y25767893I0J-1999990D01*
G01*
X67000000Y7975000D02*
X54000000Y7975000D01*
D13*
X34500000Y14475000D02*
X35500000Y13475000D01*
D11*
X32250000Y13725000D02*
X32250000Y12975000D01*
D13*
X32500000Y17975000D02*
X35500000Y20975000D01*
D10*
X81500000Y27767890D02*
X82500000Y27767890D01*
X82500000Y25682104D02*
G75*
G02*
X84500004Y23682104I0J-2000004D01*
G01*
D13*
X75500000Y17975000D02*
X78500000Y20975000D01*
D12*
X41500000Y26475000D02*
X41500000Y24475000D01*
X40292896Y25682104D01*
X23000000Y25682104D01*
X23000000Y27767890D01*
X40000000Y27767890D01*
X41500000Y26475000D01*
G36*
X41500000Y26475000D02*
G01*
X41500000Y24475000D01*
X40292896Y25682104D01*
X23000000Y25682104D01*
X23000000Y27767890D01*
X40000000Y27767890D01*
X41500000Y26475000D01*
G37*
D10*
X23000000Y25767890D02*
X39750000Y25767890D01*
D13*
X78500000Y20975000D02*
X79250000Y20975000D01*
D10*
X66000000Y27767890D02*
X82500000Y27767890D01*
X55000000Y25767893D02*
X55000000Y27767893D01*
X39500000Y27767890D02*
G75*
G02*
X41499990Y25767893I0J-1999990D01*
G01*
X52000000Y9975000D02*
X52000000Y25767900D01*
D11*
X74250000Y21475000D02*
X75250000Y21475000D01*
X75250000Y13725000D02*
X75250000Y12975000D01*
D10*
X9000000Y9975000D02*
X9000000Y25767900D01*
X12000000Y25767893D02*
X12000000Y27767893D01*
X11000000Y7975000D02*
G75*
G02*
X9000000Y9975000I0J2000000D01*
G01*
D11*
X32250000Y12975000D02*
X31250000Y12975000D01*
X75250000Y17225000D02*
G75*
G02*
X74250000Y17225000I-500000J0D01*
G01*
X74250000Y17225000D02*
G75*
G02*
X75250000Y17225000I500000J0D01*
G01*
D10*
X81500000Y25767890D02*
X81500000Y27767890D01*
X52000000Y25767896D02*
G75*
G02*
X54000000Y27767900I2000000J4D01*
G01*
X54000000Y7975000D02*
G75*
G02*
X52000000Y9975000I0J2000000D01*
G01*
X54000000Y27767893D02*
X55000000Y27767893D01*
X41500000Y9975000D02*
G75*
G02*
X39500000Y7975000I-2000000J0D01*
G01*
D11*
X32250000Y21475000D02*
X32250000Y20725000D01*
D10*
X39500000Y7975000D02*
X11000000Y7975000D01*
D13*
X35500000Y20975000D02*
X36250000Y20975000D01*
D12*
X55000000Y25682107D02*
X53207104Y25682107D01*
X52000000Y24475003D01*
X52000000Y26475003D01*
X53500000Y27767893D01*
X55000000Y27767893D01*
X55000000Y25682107D01*
G36*
X55000000Y25682107D02*
G01*
X53207104Y25682107D01*
X52000000Y24475003D01*
X52000000Y26475003D01*
X53500000Y27767893D01*
X55000000Y27767893D01*
X55000000Y25682107D01*
G37*
D13*
X125375000Y57225000D02*
X126375000Y56225000D01*
X77500000Y14475000D02*
X78500000Y13475000D01*
D10*
X84500000Y25767893D02*
X84500000Y9975000D01*
D11*
X74250000Y12975000D02*
X74250000Y13725000D01*
D13*
X78500000Y13475000D02*
X79250000Y13475000D01*
D12*
X12000000Y25682107D02*
X10207104Y25682107D01*
X9000000Y24475003D01*
X9000000Y26475003D01*
X10500000Y27767893D01*
X12000000Y27767893D01*
X12000000Y25682107D01*
G36*
X12000000Y25682107D02*
G01*
X10207104Y25682107D01*
X9000000Y24475003D01*
X9000000Y26475003D01*
X10500000Y27767893D01*
X12000000Y27767893D01*
X12000000Y25682107D01*
G37*
D10*
X23000000Y25767890D02*
X23000000Y27767890D01*
D11*
X35250000Y17225000D02*
G75*
G02*
X28250000Y17225000I-3500000J0D01*
G01*
X28250000Y17225000D02*
G75*
G02*
X35250000Y17225000I3500000J0D01*
G01*
D10*
X84500000Y9975000D02*
G75*
G02*
X82500000Y7975000I-2000000J0D01*
G01*
D13*
X35500000Y13475000D02*
X36250000Y13475000D01*
D11*
X31250000Y21475000D02*
X32250000Y21475000D01*
D10*
X82500000Y25682104D02*
G75*
G02*
X84500004Y23682104I0J-2000004D01*
G01*
X54000000Y25682107D02*
X55000000Y25682107D01*
X39500000Y25682104D02*
G75*
G02*
X41500004Y23682104I0J-2000004D01*
G01*
D13*
X108625000Y56225000D02*
X109625000Y57225000D01*
D10*
X11000000Y27767893D02*
X12000000Y27767893D01*
D11*
X78250000Y17225000D02*
G75*
G02*
X71250000Y17225000I-3500000J0D01*
G01*
X71250000Y17225000D02*
G75*
G02*
X78250000Y17225000I3500000J0D01*
G01*
D10*
X52000000Y23682107D02*
G75*
G02*
X54000000Y25682100I2000000J-7D01*
G01*
X81500000Y25682104D02*
X82500000Y25682104D01*
X82500000Y7975000D02*
X54000000Y7975000D01*
D11*
X74250000Y20725000D02*
X74250000Y21475000D01*
D10*
X84500000Y25767893D02*
X84500000Y9975000D01*
D12*
X84500000Y26475000D02*
X84500000Y24475000D01*
X83292896Y25682104D01*
X81500000Y25682104D01*
X81500000Y27767890D01*
X83000000Y27767890D01*
X84500000Y26475000D01*
G36*
X84500000Y26475000D02*
G01*
X84500000Y24475000D01*
X83292896Y25682104D01*
X81500000Y25682104D01*
X81500000Y27767890D01*
X83000000Y27767890D01*
X84500000Y26475000D01*
G37*
D10*
X9000000Y25767896D02*
G75*
G02*
X11000000Y27767900I2000000J4D01*
G01*
X82500000Y27767890D02*
G75*
G02*
X84499990Y25767893I0J-1999990D01*
G01*
D11*
X75250000Y21475000D02*
X75250000Y20725000D01*
X54000242Y43617857D02*
X54071671Y43760714D01*
X54071671Y43760714D02*
X54071671Y43975000D01*
X54071671Y43975000D02*
X54000242Y44189286D01*
X54000242Y44189286D02*
X53857385Y44332143D01*
X53857385Y44332143D02*
X53714528Y44403572D01*
X53714528Y44403572D02*
X53428814Y44475000D01*
X53428814Y44475000D02*
X53214528Y44475000D01*
X53214528Y44475000D02*
X52928814Y44403572D01*
X52928814Y44403572D02*
X52785957Y44332143D01*
X52785957Y44332143D02*
X52643100Y44189286D01*
X52643100Y44189286D02*
X52571671Y43975000D01*
X52571671Y43975000D02*
X52571671Y43832143D01*
X52571671Y43832143D02*
X52643100Y43617857D01*
X52643100Y43617857D02*
X52714528Y43546429D01*
X52714528Y43546429D02*
X53214528Y43546429D01*
X53214528Y43546429D02*
X53214528Y43832143D01*
X52571671Y42903572D02*
X54071671Y42903572D01*
X54071671Y42903572D02*
X52571671Y42046429D01*
X52571671Y42046429D02*
X54071671Y42046429D01*
X52571671Y41332143D02*
X54071671Y41332143D01*
X54071671Y41332143D02*
X54071671Y40975000D01*
X54071671Y40975000D02*
X54000242Y40760714D01*
X54000242Y40760714D02*
X53857385Y40617857D01*
X53857385Y40617857D02*
X53714528Y40546428D01*
X53714528Y40546428D02*
X53428814Y40475000D01*
X53428814Y40475000D02*
X53214528Y40475000D01*
X53214528Y40475000D02*
X52928814Y40546428D01*
X52928814Y40546428D02*
X52785957Y40617857D01*
X52785957Y40617857D02*
X52643100Y40760714D01*
X52643100Y40760714D02*
X52571671Y40975000D01*
X52571671Y40975000D02*
X52571671Y41332143D01*
D10*
X15357143Y26082548D02*
X15238095Y25963500D01*
X15238095Y25963500D02*
X14880953Y25844453D01*
X14880953Y25844453D02*
X14642857Y25844453D01*
X14642857Y25844453D02*
X14285714Y25963500D01*
X14285714Y25963500D02*
X14047619Y26201596D01*
X14047619Y26201596D02*
X13928572Y26439691D01*
X13928572Y26439691D02*
X13809524Y26915881D01*
X13809524Y26915881D02*
X13809524Y27273024D01*
X13809524Y27273024D02*
X13928572Y27749215D01*
X13928572Y27749215D02*
X14047619Y27987310D01*
X14047619Y27987310D02*
X14285714Y28225405D01*
X14285714Y28225405D02*
X14642857Y28344453D01*
X14642857Y28344453D02*
X14880953Y28344453D01*
X14880953Y28344453D02*
X15238095Y28225405D01*
X15238095Y28225405D02*
X15357143Y28106358D01*
X16428572Y25844453D02*
X16428572Y28344453D01*
X17500000Y25844453D02*
X17500000Y27153977D01*
X17500000Y27153977D02*
X17380953Y27392072D01*
X17380953Y27392072D02*
X17142857Y27511120D01*
X17142857Y27511120D02*
X16785714Y27511120D01*
X16785714Y27511120D02*
X16547619Y27392072D01*
X16547619Y27392072D02*
X16428572Y27273024D01*
X18690477Y26082548D02*
X18809524Y25963500D01*
X18809524Y25963500D02*
X18690477Y25844453D01*
X18690477Y25844453D02*
X18571429Y25963500D01*
X18571429Y25963500D02*
X18690477Y26082548D01*
X18690477Y26082548D02*
X18690477Y25844453D01*
X20357143Y28344453D02*
X20595238Y28344453D01*
X20595238Y28344453D02*
X20833334Y28225405D01*
X20833334Y28225405D02*
X20952381Y28106358D01*
X20952381Y28106358D02*
X21071429Y27868262D01*
X21071429Y27868262D02*
X21190476Y27392072D01*
X21190476Y27392072D02*
X21190476Y26796834D01*
X21190476Y26796834D02*
X21071429Y26320643D01*
X21071429Y26320643D02*
X20952381Y26082548D01*
X20952381Y26082548D02*
X20833334Y25963500D01*
X20833334Y25963500D02*
X20595238Y25844453D01*
X20595238Y25844453D02*
X20357143Y25844453D01*
X20357143Y25844453D02*
X20119048Y25963500D01*
X20119048Y25963500D02*
X20000000Y26082548D01*
X20000000Y26082548D02*
X19880953Y26320643D01*
X19880953Y26320643D02*
X19761905Y26796834D01*
X19761905Y26796834D02*
X19761905Y27392072D01*
X19761905Y27392072D02*
X19880953Y27868262D01*
X19880953Y27868262D02*
X20000000Y28106358D01*
X20000000Y28106358D02*
X20119048Y28225405D01*
X20119048Y28225405D02*
X20357143Y28344453D01*
D11*
X74785956Y43617857D02*
X74857385Y43760714D01*
X74857385Y43760714D02*
X74857385Y43975000D01*
X74857385Y43975000D02*
X74785956Y44189286D01*
X74785956Y44189286D02*
X74643099Y44332143D01*
X74643099Y44332143D02*
X74500242Y44403572D01*
X74500242Y44403572D02*
X74214528Y44475000D01*
X74214528Y44475000D02*
X74000242Y44475000D01*
X74000242Y44475000D02*
X73714528Y44403572D01*
X73714528Y44403572D02*
X73571671Y44332143D01*
X73571671Y44332143D02*
X73428814Y44189286D01*
X73428814Y44189286D02*
X73357385Y43975000D01*
X73357385Y43975000D02*
X73357385Y43832143D01*
X73357385Y43832143D02*
X73428814Y43617857D01*
X73428814Y43617857D02*
X73500242Y43546429D01*
X73500242Y43546429D02*
X74000242Y43546429D01*
X74000242Y43546429D02*
X74000242Y43832143D01*
X73357385Y42903572D02*
X74857385Y42903572D01*
X74857385Y42903572D02*
X73357385Y42046429D01*
X73357385Y42046429D02*
X74857385Y42046429D01*
X73357385Y41332143D02*
X74857385Y41332143D01*
X74857385Y41332143D02*
X74857385Y40975000D01*
X74857385Y40975000D02*
X74785956Y40760714D01*
X74785956Y40760714D02*
X74643099Y40617857D01*
X74643099Y40617857D02*
X74500242Y40546428D01*
X74500242Y40546428D02*
X74214528Y40475000D01*
X74214528Y40475000D02*
X74000242Y40475000D01*
X74000242Y40475000D02*
X73714528Y40546428D01*
X73714528Y40546428D02*
X73571671Y40617857D01*
X73571671Y40617857D02*
X73428814Y40760714D01*
X73428814Y40760714D02*
X73357385Y40975000D01*
X73357385Y40975000D02*
X73357385Y41332143D01*
X77000000Y58796672D02*
X78000000Y58796672D01*
X78000000Y58796672D02*
X77357143Y57296672D01*
D10*
X94500000Y28440900D02*
X95928571Y28440900D01*
X95214285Y25940900D02*
X95214285Y28440900D01*
X96761905Y25940900D02*
X96761905Y27607567D01*
X96761905Y27131376D02*
X96880952Y27369471D01*
X96880952Y27369471D02*
X97000000Y27488519D01*
X97000000Y27488519D02*
X97238095Y27607567D01*
X97238095Y27607567D02*
X97476190Y27607567D01*
X98309524Y25940900D02*
X98309524Y27607567D01*
X98309524Y28440900D02*
X98190476Y28321852D01*
X98190476Y28321852D02*
X98309524Y28202805D01*
X98309524Y28202805D02*
X98428571Y28321852D01*
X98428571Y28321852D02*
X98309524Y28440900D01*
X98309524Y28440900D02*
X98309524Y28202805D01*
X100571428Y27607567D02*
X100571428Y25583757D01*
X100571428Y25583757D02*
X100452381Y25345662D01*
X100452381Y25345662D02*
X100333333Y25226614D01*
X100333333Y25226614D02*
X100095238Y25107567D01*
X100095238Y25107567D02*
X99738095Y25107567D01*
X99738095Y25107567D02*
X99500000Y25226614D01*
X100571428Y26059947D02*
X100333333Y25940900D01*
X100333333Y25940900D02*
X99857142Y25940900D01*
X99857142Y25940900D02*
X99619047Y26059947D01*
X99619047Y26059947D02*
X99500000Y26178995D01*
X99500000Y26178995D02*
X99380952Y26417090D01*
X99380952Y26417090D02*
X99380952Y27131376D01*
X99380952Y27131376D02*
X99500000Y27369471D01*
X99500000Y27369471D02*
X99619047Y27488519D01*
X99619047Y27488519D02*
X99857142Y27607567D01*
X99857142Y27607567D02*
X100333333Y27607567D01*
X100333333Y27607567D02*
X100571428Y27488519D01*
X101761905Y26178995D02*
X101880952Y26059947D01*
X101880952Y26059947D02*
X101761905Y25940900D01*
X101761905Y25940900D02*
X101642857Y26059947D01*
X101642857Y26059947D02*
X101761905Y26178995D01*
X101761905Y26178995D02*
X101761905Y25940900D01*
X103428571Y28440900D02*
X103666666Y28440900D01*
X103666666Y28440900D02*
X103904762Y28321852D01*
X103904762Y28321852D02*
X104023809Y28202805D01*
X104023809Y28202805D02*
X104142857Y27964709D01*
X104142857Y27964709D02*
X104261904Y27488519D01*
X104261904Y27488519D02*
X104261904Y26893281D01*
X104261904Y26893281D02*
X104142857Y26417090D01*
X104142857Y26417090D02*
X104023809Y26178995D01*
X104023809Y26178995D02*
X103904762Y26059947D01*
X103904762Y26059947D02*
X103666666Y25940900D01*
X103666666Y25940900D02*
X103428571Y25940900D01*
X103428571Y25940900D02*
X103190476Y26059947D01*
X103190476Y26059947D02*
X103071428Y26178995D01*
X103071428Y26178995D02*
X102952381Y26417090D01*
X102952381Y26417090D02*
X102833333Y26893281D01*
X102833333Y26893281D02*
X102833333Y27488519D01*
X102833333Y27488519D02*
X102952381Y27964709D01*
X102952381Y27964709D02*
X103071428Y28202805D01*
X103071428Y28202805D02*
X103190476Y28321852D01*
X103190476Y28321852D02*
X103428571Y28440900D01*
D11*
X79821429Y13225243D02*
X80535715Y13225243D01*
X79678572Y12796672D02*
X80178572Y14296672D01*
X80178572Y14296672D02*
X80678572Y12796672D01*
X81735714Y12630958D02*
X81050000Y12630958D01*
X81392857Y12630958D02*
X81392857Y13830958D01*
X81392857Y13830958D02*
X81278571Y13659529D01*
X81278571Y13659529D02*
X81164286Y13545243D01*
X81164286Y13545243D02*
X81050000Y13488100D01*
X37642857Y20439529D02*
X37571429Y20368100D01*
X37571429Y20368100D02*
X37357143Y20296672D01*
X37357143Y20296672D02*
X37214286Y20296672D01*
X37214286Y20296672D02*
X37000000Y20368100D01*
X37000000Y20368100D02*
X36857143Y20510958D01*
X36857143Y20510958D02*
X36785714Y20653815D01*
X36785714Y20653815D02*
X36714286Y20939529D01*
X36714286Y20939529D02*
X36714286Y21153815D01*
X36714286Y21153815D02*
X36785714Y21439529D01*
X36785714Y21439529D02*
X36857143Y21582386D01*
X36857143Y21582386D02*
X37000000Y21725243D01*
X37000000Y21725243D02*
X37214286Y21796672D01*
X37214286Y21796672D02*
X37357143Y21796672D01*
X37357143Y21796672D02*
X37571429Y21725243D01*
X37571429Y21725243D02*
X37642857Y21653815D01*
X38442857Y21330958D02*
X38557143Y21330958D01*
X38557143Y21330958D02*
X38671429Y21273815D01*
X38671429Y21273815D02*
X38728572Y21216672D01*
X38728572Y21216672D02*
X38785714Y21102386D01*
X38785714Y21102386D02*
X38842857Y20873815D01*
X38842857Y20873815D02*
X38842857Y20588100D01*
X38842857Y20588100D02*
X38785714Y20359529D01*
X38785714Y20359529D02*
X38728572Y20245243D01*
X38728572Y20245243D02*
X38671429Y20188100D01*
X38671429Y20188100D02*
X38557143Y20130958D01*
X38557143Y20130958D02*
X38442857Y20130958D01*
X38442857Y20130958D02*
X38328572Y20188100D01*
X38328572Y20188100D02*
X38271429Y20245243D01*
X38271429Y20245243D02*
X38214286Y20359529D01*
X38214286Y20359529D02*
X38157143Y20588100D01*
X38157143Y20588100D02*
X38157143Y20873815D01*
X38157143Y20873815D02*
X38214286Y21102386D01*
X38214286Y21102386D02*
X38271429Y21216672D01*
X38271429Y21216672D02*
X38328572Y21273815D01*
X38328572Y21273815D02*
X38442857Y21330958D01*
D10*
X58357143Y26082548D02*
X58238095Y25963500D01*
X58238095Y25963500D02*
X57880953Y25844453D01*
X57880953Y25844453D02*
X57642857Y25844453D01*
X57642857Y25844453D02*
X57285714Y25963500D01*
X57285714Y25963500D02*
X57047619Y26201596D01*
X57047619Y26201596D02*
X56928572Y26439691D01*
X56928572Y26439691D02*
X56809524Y26915881D01*
X56809524Y26915881D02*
X56809524Y27273024D01*
X56809524Y27273024D02*
X56928572Y27749215D01*
X56928572Y27749215D02*
X57047619Y27987310D01*
X57047619Y27987310D02*
X57285714Y28225405D01*
X57285714Y28225405D02*
X57642857Y28344453D01*
X57642857Y28344453D02*
X57880953Y28344453D01*
X57880953Y28344453D02*
X58238095Y28225405D01*
X58238095Y28225405D02*
X58357143Y28106358D01*
X59428572Y25844453D02*
X59428572Y28344453D01*
X60500000Y25844453D02*
X60500000Y27153977D01*
X60500000Y27153977D02*
X60380953Y27392072D01*
X60380953Y27392072D02*
X60142857Y27511120D01*
X60142857Y27511120D02*
X59785714Y27511120D01*
X59785714Y27511120D02*
X59547619Y27392072D01*
X59547619Y27392072D02*
X59428572Y27273024D01*
X61690477Y26082548D02*
X61809524Y25963500D01*
X61809524Y25963500D02*
X61690477Y25844453D01*
X61690477Y25844453D02*
X61571429Y25963500D01*
X61571429Y25963500D02*
X61690477Y26082548D01*
X61690477Y26082548D02*
X61690477Y25844453D01*
X64190476Y25844453D02*
X62761905Y25844453D01*
X63476191Y25844453D02*
X63476191Y28344453D01*
X63476191Y28344453D02*
X63238095Y27987310D01*
X63238095Y27987310D02*
X63000000Y27749215D01*
X63000000Y27749215D02*
X62761905Y27630167D01*
D11*
X53178572Y58796672D02*
X53321429Y58796672D01*
X53321429Y58796672D02*
X53464286Y58725243D01*
X53464286Y58725243D02*
X53535715Y58653815D01*
X53535715Y58653815D02*
X53607143Y58510958D01*
X53607143Y58510958D02*
X53678572Y58225243D01*
X53678572Y58225243D02*
X53678572Y57868100D01*
X53678572Y57868100D02*
X53607143Y57582386D01*
X53607143Y57582386D02*
X53535715Y57439529D01*
X53535715Y57439529D02*
X53464286Y57368100D01*
X53464286Y57368100D02*
X53321429Y57296672D01*
X53321429Y57296672D02*
X53178572Y57296672D01*
X53178572Y57296672D02*
X53035715Y57368100D01*
X53035715Y57368100D02*
X52964286Y57439529D01*
X52964286Y57439529D02*
X52892857Y57582386D01*
X52892857Y57582386D02*
X52821429Y57868100D01*
X52821429Y57868100D02*
X52821429Y58225243D01*
X52821429Y58225243D02*
X52892857Y58510958D01*
X52892857Y58510958D02*
X52964286Y58653815D01*
X52964286Y58653815D02*
X53035715Y58725243D01*
X53035715Y58725243D02*
X53178572Y58796672D01*
X63142857Y58796672D02*
X64071429Y58796672D01*
X64071429Y58796672D02*
X63571429Y58225243D01*
X63571429Y58225243D02*
X63785714Y58225243D01*
X63785714Y58225243D02*
X63928572Y58153815D01*
X63928572Y58153815D02*
X64000000Y58082386D01*
X64000000Y58082386D02*
X64071429Y57939529D01*
X64071429Y57939529D02*
X64071429Y57582386D01*
X64071429Y57582386D02*
X64000000Y57439529D01*
X64000000Y57439529D02*
X63928572Y57368100D01*
X63928572Y57368100D02*
X63785714Y57296672D01*
X63785714Y57296672D02*
X63357143Y57296672D01*
X63357143Y57296672D02*
X63214286Y57368100D01*
X63214286Y57368100D02*
X63142857Y57439529D01*
X57142858Y57296672D02*
X56285715Y57296672D01*
X56714286Y57296672D02*
X56714286Y58796672D01*
X56714286Y58796672D02*
X56571429Y58582386D01*
X56571429Y58582386D02*
X56428572Y58439529D01*
X56428572Y58439529D02*
X56285715Y58368100D01*
X71321671Y43617857D02*
X71393100Y43760714D01*
X71393100Y43760714D02*
X71393100Y43975000D01*
X71393100Y43975000D02*
X71321671Y44189286D01*
X71321671Y44189286D02*
X71178814Y44332143D01*
X71178814Y44332143D02*
X71035957Y44403572D01*
X71035957Y44403572D02*
X70750243Y44475000D01*
X70750243Y44475000D02*
X70535957Y44475000D01*
X70535957Y44475000D02*
X70250243Y44403572D01*
X70250243Y44403572D02*
X70107386Y44332143D01*
X70107386Y44332143D02*
X69964529Y44189286D01*
X69964529Y44189286D02*
X69893100Y43975000D01*
X69893100Y43975000D02*
X69893100Y43832143D01*
X69893100Y43832143D02*
X69964529Y43617857D01*
X69964529Y43617857D02*
X70035957Y43546429D01*
X70035957Y43546429D02*
X70535957Y43546429D01*
X70535957Y43546429D02*
X70535957Y43832143D01*
X69893100Y42903572D02*
X71393100Y42903572D01*
X71393100Y42903572D02*
X69893100Y42046429D01*
X69893100Y42046429D02*
X71393100Y42046429D01*
X69893100Y41332143D02*
X71393100Y41332143D01*
X71393100Y41332143D02*
X71393100Y40975000D01*
X71393100Y40975000D02*
X71321671Y40760714D01*
X71321671Y40760714D02*
X71178814Y40617857D01*
X71178814Y40617857D02*
X71035957Y40546428D01*
X71035957Y40546428D02*
X70750243Y40475000D01*
X70750243Y40475000D02*
X70535957Y40475000D01*
X70535957Y40475000D02*
X70250243Y40546428D01*
X70250243Y40546428D02*
X70107386Y40617857D01*
X70107386Y40617857D02*
X69964529Y40760714D01*
X69964529Y40760714D02*
X69893100Y40975000D01*
X69893100Y40975000D02*
X69893100Y41332143D01*
X67392858Y58296672D02*
X67392858Y57296672D01*
X67035715Y58868100D02*
X66678572Y57796672D01*
X66678572Y57796672D02*
X67607143Y57796672D01*
X80642857Y20439529D02*
X80571429Y20368100D01*
X80571429Y20368100D02*
X80357143Y20296672D01*
X80357143Y20296672D02*
X80214286Y20296672D01*
X80214286Y20296672D02*
X80000000Y20368100D01*
X80000000Y20368100D02*
X79857143Y20510958D01*
X79857143Y20510958D02*
X79785714Y20653815D01*
X79785714Y20653815D02*
X79714286Y20939529D01*
X79714286Y20939529D02*
X79714286Y21153815D01*
X79714286Y21153815D02*
X79785714Y21439529D01*
X79785714Y21439529D02*
X79857143Y21582386D01*
X79857143Y21582386D02*
X80000000Y21725243D01*
X80000000Y21725243D02*
X80214286Y21796672D01*
X80214286Y21796672D02*
X80357143Y21796672D01*
X80357143Y21796672D02*
X80571429Y21725243D01*
X80571429Y21725243D02*
X80642857Y21653815D01*
X81842857Y20130958D02*
X81157143Y20130958D01*
X81500000Y20130958D02*
X81500000Y21330958D01*
X81500000Y21330958D02*
X81385714Y21159529D01*
X81385714Y21159529D02*
X81271429Y21045243D01*
X81271429Y21045243D02*
X81157143Y20988100D01*
X70928572Y58796672D02*
X70214286Y58796672D01*
X70214286Y58796672D02*
X70142858Y58082386D01*
X70142858Y58082386D02*
X70214286Y58153815D01*
X70214286Y58153815D02*
X70357144Y58225243D01*
X70357144Y58225243D02*
X70714286Y58225243D01*
X70714286Y58225243D02*
X70857144Y58153815D01*
X70857144Y58153815D02*
X70928572Y58082386D01*
X70928572Y58082386D02*
X71000001Y57939529D01*
X71000001Y57939529D02*
X71000001Y57582386D01*
X71000001Y57582386D02*
X70928572Y57439529D01*
X70928572Y57439529D02*
X70857144Y57368100D01*
X70857144Y57368100D02*
X70714286Y57296672D01*
X70714286Y57296672D02*
X70357144Y57296672D01*
X70357144Y57296672D02*
X70214286Y57368100D01*
X70214286Y57368100D02*
X70142858Y57439529D01*
X57464528Y43617857D02*
X57535957Y43760714D01*
X57535957Y43760714D02*
X57535957Y43975000D01*
X57535957Y43975000D02*
X57464528Y44189286D01*
X57464528Y44189286D02*
X57321671Y44332143D01*
X57321671Y44332143D02*
X57178814Y44403572D01*
X57178814Y44403572D02*
X56893100Y44475000D01*
X56893100Y44475000D02*
X56678814Y44475000D01*
X56678814Y44475000D02*
X56393100Y44403572D01*
X56393100Y44403572D02*
X56250243Y44332143D01*
X56250243Y44332143D02*
X56107386Y44189286D01*
X56107386Y44189286D02*
X56035957Y43975000D01*
X56035957Y43975000D02*
X56035957Y43832143D01*
X56035957Y43832143D02*
X56107386Y43617857D01*
X56107386Y43617857D02*
X56178814Y43546429D01*
X56178814Y43546429D02*
X56678814Y43546429D01*
X56678814Y43546429D02*
X56678814Y43832143D01*
X56035957Y42903572D02*
X57535957Y42903572D01*
X57535957Y42903572D02*
X56035957Y42046429D01*
X56035957Y42046429D02*
X57535957Y42046429D01*
X56035957Y41332143D02*
X57535957Y41332143D01*
X57535957Y41332143D02*
X57535957Y40975000D01*
X57535957Y40975000D02*
X57464528Y40760714D01*
X57464528Y40760714D02*
X57321671Y40617857D01*
X57321671Y40617857D02*
X57178814Y40546428D01*
X57178814Y40546428D02*
X56893100Y40475000D01*
X56893100Y40475000D02*
X56678814Y40475000D01*
X56678814Y40475000D02*
X56393100Y40546428D01*
X56393100Y40546428D02*
X56250243Y40617857D01*
X56250243Y40617857D02*
X56107386Y40760714D01*
X56107386Y40760714D02*
X56035957Y40975000D01*
X56035957Y40975000D02*
X56035957Y41332143D01*
X67857385Y43617857D02*
X67928814Y43760714D01*
X67928814Y43760714D02*
X67928814Y43975000D01*
X67928814Y43975000D02*
X67857385Y44189286D01*
X67857385Y44189286D02*
X67714528Y44332143D01*
X67714528Y44332143D02*
X67571671Y44403572D01*
X67571671Y44403572D02*
X67285957Y44475000D01*
X67285957Y44475000D02*
X67071671Y44475000D01*
X67071671Y44475000D02*
X66785957Y44403572D01*
X66785957Y44403572D02*
X66643100Y44332143D01*
X66643100Y44332143D02*
X66500243Y44189286D01*
X66500243Y44189286D02*
X66428814Y43975000D01*
X66428814Y43975000D02*
X66428814Y43832143D01*
X66428814Y43832143D02*
X66500243Y43617857D01*
X66500243Y43617857D02*
X66571671Y43546429D01*
X66571671Y43546429D02*
X67071671Y43546429D01*
X67071671Y43546429D02*
X67071671Y43832143D01*
X66428814Y42903572D02*
X67928814Y42903572D01*
X67928814Y42903572D02*
X66428814Y42046429D01*
X66428814Y42046429D02*
X67928814Y42046429D01*
X66428814Y41332143D02*
X67928814Y41332143D01*
X67928814Y41332143D02*
X67928814Y40975000D01*
X67928814Y40975000D02*
X67857385Y40760714D01*
X67857385Y40760714D02*
X67714528Y40617857D01*
X67714528Y40617857D02*
X67571671Y40546428D01*
X67571671Y40546428D02*
X67285957Y40475000D01*
X67285957Y40475000D02*
X67071671Y40475000D01*
X67071671Y40475000D02*
X66785957Y40546428D01*
X66785957Y40546428D02*
X66643100Y40617857D01*
X66643100Y40617857D02*
X66500243Y40760714D01*
X66500243Y40760714D02*
X66428814Y40975000D01*
X66428814Y40975000D02*
X66428814Y41332143D01*
X114500000Y59352743D02*
X115214286Y59352743D01*
X114357143Y58924172D02*
X114857143Y60424172D01*
X114857143Y60424172D02*
X115357143Y58924172D01*
X116500000Y58995600D02*
X116357142Y58924172D01*
X116357142Y58924172D02*
X116071428Y58924172D01*
X116071428Y58924172D02*
X115928571Y58995600D01*
X115928571Y58995600D02*
X115857142Y59067029D01*
X115857142Y59067029D02*
X115785714Y59209886D01*
X115785714Y59209886D02*
X115785714Y59638458D01*
X115785714Y59638458D02*
X115857142Y59781315D01*
X115857142Y59781315D02*
X115928571Y59852743D01*
X115928571Y59852743D02*
X116071428Y59924172D01*
X116071428Y59924172D02*
X116357142Y59924172D01*
X116357142Y59924172D02*
X116500000Y59852743D01*
X116928571Y59924172D02*
X117499999Y59924172D01*
X117142856Y60424172D02*
X117142856Y59138458D01*
X117142856Y59138458D02*
X117214285Y58995600D01*
X117214285Y58995600D02*
X117357142Y58924172D01*
X117357142Y58924172D02*
X117499999Y58924172D01*
X117999999Y58924172D02*
X117999999Y59924172D01*
X117999999Y60424172D02*
X117928571Y60352743D01*
X117928571Y60352743D02*
X117999999Y60281315D01*
X117999999Y60281315D02*
X118071428Y60352743D01*
X118071428Y60352743D02*
X117999999Y60424172D01*
X117999999Y60424172D02*
X117999999Y60281315D01*
X118571428Y59924172D02*
X118928571Y58924172D01*
X118928571Y58924172D02*
X119285714Y59924172D01*
X120428571Y58995600D02*
X120285714Y58924172D01*
X120285714Y58924172D02*
X120000000Y58924172D01*
X120000000Y58924172D02*
X119857142Y58995600D01*
X119857142Y58995600D02*
X119785714Y59138458D01*
X119785714Y59138458D02*
X119785714Y59709886D01*
X119785714Y59709886D02*
X119857142Y59852743D01*
X119857142Y59852743D02*
X120000000Y59924172D01*
X120000000Y59924172D02*
X120285714Y59924172D01*
X120285714Y59924172D02*
X120428571Y59852743D01*
X120428571Y59852743D02*
X120500000Y59709886D01*
X120500000Y59709886D02*
X120500000Y59567029D01*
X120500000Y59567029D02*
X119785714Y59424172D01*
X59750000Y58653815D02*
X59821428Y58725243D01*
X59821428Y58725243D02*
X59964286Y58796672D01*
X59964286Y58796672D02*
X60321428Y58796672D01*
X60321428Y58796672D02*
X60464286Y58725243D01*
X60464286Y58725243D02*
X60535714Y58653815D01*
X60535714Y58653815D02*
X60607143Y58510958D01*
X60607143Y58510958D02*
X60607143Y58368100D01*
X60607143Y58368100D02*
X60535714Y58153815D01*
X60535714Y58153815D02*
X59678571Y57296672D01*
X59678571Y57296672D02*
X60607143Y57296672D01*
X91535714Y53599172D02*
X91535714Y55099172D01*
X91535714Y55099172D02*
X92107143Y55099172D01*
X92107143Y55099172D02*
X92250000Y55027743D01*
X92250000Y55027743D02*
X92321429Y54956315D01*
X92321429Y54956315D02*
X92392857Y54813458D01*
X92392857Y54813458D02*
X92392857Y54599172D01*
X92392857Y54599172D02*
X92321429Y54456315D01*
X92321429Y54456315D02*
X92250000Y54384886D01*
X92250000Y54384886D02*
X92107143Y54313458D01*
X92107143Y54313458D02*
X91535714Y54313458D01*
X93250000Y53599172D02*
X93107143Y53670600D01*
X93107143Y53670600D02*
X93035714Y53742029D01*
X93035714Y53742029D02*
X92964286Y53884886D01*
X92964286Y53884886D02*
X92964286Y54313458D01*
X92964286Y54313458D02*
X93035714Y54456315D01*
X93035714Y54456315D02*
X93107143Y54527743D01*
X93107143Y54527743D02*
X93250000Y54599172D01*
X93250000Y54599172D02*
X93464286Y54599172D01*
X93464286Y54599172D02*
X93607143Y54527743D01*
X93607143Y54527743D02*
X93678572Y54456315D01*
X93678572Y54456315D02*
X93750000Y54313458D01*
X93750000Y54313458D02*
X93750000Y53884886D01*
X93750000Y53884886D02*
X93678572Y53742029D01*
X93678572Y53742029D02*
X93607143Y53670600D01*
X93607143Y53670600D02*
X93464286Y53599172D01*
X93464286Y53599172D02*
X93250000Y53599172D01*
X94250000Y54599172D02*
X94535715Y53599172D01*
X94535715Y53599172D02*
X94821429Y54313458D01*
X94821429Y54313458D02*
X95107143Y53599172D01*
X95107143Y53599172D02*
X95392857Y54599172D01*
X96535715Y53670600D02*
X96392858Y53599172D01*
X96392858Y53599172D02*
X96107144Y53599172D01*
X96107144Y53599172D02*
X95964286Y53670600D01*
X95964286Y53670600D02*
X95892858Y53813458D01*
X95892858Y53813458D02*
X95892858Y54384886D01*
X95892858Y54384886D02*
X95964286Y54527743D01*
X95964286Y54527743D02*
X96107144Y54599172D01*
X96107144Y54599172D02*
X96392858Y54599172D01*
X96392858Y54599172D02*
X96535715Y54527743D01*
X96535715Y54527743D02*
X96607144Y54384886D01*
X96607144Y54384886D02*
X96607144Y54242029D01*
X96607144Y54242029D02*
X95892858Y54099172D01*
X97250000Y53599172D02*
X97250000Y54599172D01*
X97250000Y54313458D02*
X97321429Y54456315D01*
X97321429Y54456315D02*
X97392858Y54527743D01*
X97392858Y54527743D02*
X97535715Y54599172D01*
X97535715Y54599172D02*
X97678572Y54599172D01*
X64393099Y43617857D02*
X64464528Y43760714D01*
X64464528Y43760714D02*
X64464528Y43975000D01*
X64464528Y43975000D02*
X64393099Y44189286D01*
X64393099Y44189286D02*
X64250242Y44332143D01*
X64250242Y44332143D02*
X64107385Y44403572D01*
X64107385Y44403572D02*
X63821671Y44475000D01*
X63821671Y44475000D02*
X63607385Y44475000D01*
X63607385Y44475000D02*
X63321671Y44403572D01*
X63321671Y44403572D02*
X63178814Y44332143D01*
X63178814Y44332143D02*
X63035957Y44189286D01*
X63035957Y44189286D02*
X62964528Y43975000D01*
X62964528Y43975000D02*
X62964528Y43832143D01*
X62964528Y43832143D02*
X63035957Y43617857D01*
X63035957Y43617857D02*
X63107385Y43546429D01*
X63107385Y43546429D02*
X63607385Y43546429D01*
X63607385Y43546429D02*
X63607385Y43832143D01*
X62964528Y42903572D02*
X64464528Y42903572D01*
X64464528Y42903572D02*
X62964528Y42046429D01*
X62964528Y42046429D02*
X64464528Y42046429D01*
X62964528Y41332143D02*
X64464528Y41332143D01*
X64464528Y41332143D02*
X64464528Y40975000D01*
X64464528Y40975000D02*
X64393099Y40760714D01*
X64393099Y40760714D02*
X64250242Y40617857D01*
X64250242Y40617857D02*
X64107385Y40546428D01*
X64107385Y40546428D02*
X63821671Y40475000D01*
X63821671Y40475000D02*
X63607385Y40475000D01*
X63607385Y40475000D02*
X63321671Y40546428D01*
X63321671Y40546428D02*
X63178814Y40617857D01*
X63178814Y40617857D02*
X63035957Y40760714D01*
X63035957Y40760714D02*
X62964528Y40975000D01*
X62964528Y40975000D02*
X62964528Y41332143D01*
D10*
X59547619Y62308739D02*
X60738095Y62308739D01*
X59309524Y61594453D02*
X60142857Y64094453D01*
X60142857Y64094453D02*
X60976190Y61594453D01*
X61809524Y64094453D02*
X61809524Y62070643D01*
X61809524Y62070643D02*
X61928571Y61832548D01*
X61928571Y61832548D02*
X62047619Y61713500D01*
X62047619Y61713500D02*
X62285714Y61594453D01*
X62285714Y61594453D02*
X62761905Y61594453D01*
X62761905Y61594453D02*
X63000000Y61713500D01*
X63000000Y61713500D02*
X63119047Y61832548D01*
X63119047Y61832548D02*
X63238095Y62070643D01*
X63238095Y62070643D02*
X63238095Y64094453D01*
X64190476Y64094453D02*
X65857143Y61594453D01*
X65857143Y64094453D02*
X64190476Y61594453D01*
X68714286Y61594453D02*
X68714286Y64094453D01*
X70380952Y64094453D02*
X70857143Y64094453D01*
X70857143Y64094453D02*
X71095238Y63975405D01*
X71095238Y63975405D02*
X71333333Y63737310D01*
X71333333Y63737310D02*
X71452381Y63261120D01*
X71452381Y63261120D02*
X71452381Y62427786D01*
X71452381Y62427786D02*
X71333333Y61951596D01*
X71333333Y61951596D02*
X71095238Y61713500D01*
X71095238Y61713500D02*
X70857143Y61594453D01*
X70857143Y61594453D02*
X70380952Y61594453D01*
X70380952Y61594453D02*
X70142857Y61713500D01*
X70142857Y61713500D02*
X69904762Y61951596D01*
X69904762Y61951596D02*
X69785714Y62427786D01*
X69785714Y62427786D02*
X69785714Y63261120D01*
X69785714Y63261120D02*
X69904762Y63737310D01*
X69904762Y63737310D02*
X70142857Y63975405D01*
X70142857Y63975405D02*
X70380952Y64094453D01*
D11*
X60928813Y43617857D02*
X61000242Y43760714D01*
X61000242Y43760714D02*
X61000242Y43975000D01*
X61000242Y43975000D02*
X60928813Y44189286D01*
X60928813Y44189286D02*
X60785956Y44332143D01*
X60785956Y44332143D02*
X60643099Y44403572D01*
X60643099Y44403572D02*
X60357385Y44475000D01*
X60357385Y44475000D02*
X60143099Y44475000D01*
X60143099Y44475000D02*
X59857385Y44403572D01*
X59857385Y44403572D02*
X59714528Y44332143D01*
X59714528Y44332143D02*
X59571671Y44189286D01*
X59571671Y44189286D02*
X59500242Y43975000D01*
X59500242Y43975000D02*
X59500242Y43832143D01*
X59500242Y43832143D02*
X59571671Y43617857D01*
X59571671Y43617857D02*
X59643099Y43546429D01*
X59643099Y43546429D02*
X60143099Y43546429D01*
X60143099Y43546429D02*
X60143099Y43832143D01*
X59500242Y42903572D02*
X61000242Y42903572D01*
X61000242Y42903572D02*
X59500242Y42046429D01*
X59500242Y42046429D02*
X61000242Y42046429D01*
X59500242Y41332143D02*
X61000242Y41332143D01*
X61000242Y41332143D02*
X61000242Y40975000D01*
X61000242Y40975000D02*
X60928813Y40760714D01*
X60928813Y40760714D02*
X60785956Y40617857D01*
X60785956Y40617857D02*
X60643099Y40546428D01*
X60643099Y40546428D02*
X60357385Y40475000D01*
X60357385Y40475000D02*
X60143099Y40475000D01*
X60143099Y40475000D02*
X59857385Y40546428D01*
X59857385Y40546428D02*
X59714528Y40617857D01*
X59714528Y40617857D02*
X59571671Y40760714D01*
X59571671Y40760714D02*
X59500242Y40975000D01*
X59500242Y40975000D02*
X59500242Y41332143D01*
X74321429Y58796672D02*
X74035714Y58796672D01*
X74035714Y58796672D02*
X73892857Y58725243D01*
X73892857Y58725243D02*
X73821429Y58653815D01*
X73821429Y58653815D02*
X73678571Y58439529D01*
X73678571Y58439529D02*
X73607143Y58153815D01*
X73607143Y58153815D02*
X73607143Y57582386D01*
X73607143Y57582386D02*
X73678571Y57439529D01*
X73678571Y57439529D02*
X73750000Y57368100D01*
X73750000Y57368100D02*
X73892857Y57296672D01*
X73892857Y57296672D02*
X74178571Y57296672D01*
X74178571Y57296672D02*
X74321429Y57368100D01*
X74321429Y57368100D02*
X74392857Y57439529D01*
X74392857Y57439529D02*
X74464286Y57582386D01*
X74464286Y57582386D02*
X74464286Y57939529D01*
X74464286Y57939529D02*
X74392857Y58082386D01*
X74392857Y58082386D02*
X74321429Y58153815D01*
X74321429Y58153815D02*
X74178571Y58225243D01*
X74178571Y58225243D02*
X73892857Y58225243D01*
X73892857Y58225243D02*
X73750000Y58153815D01*
X73750000Y58153815D02*
X73678571Y58082386D01*
X73678571Y58082386D02*
X73607143Y57939529D01*
X33642857Y44424172D02*
X33142857Y45138458D01*
X32785714Y44424172D02*
X32785714Y45924172D01*
X32785714Y45924172D02*
X33357143Y45924172D01*
X33357143Y45924172D02*
X33500000Y45852743D01*
X33500000Y45852743D02*
X33571429Y45781315D01*
X33571429Y45781315D02*
X33642857Y45638458D01*
X33642857Y45638458D02*
X33642857Y45424172D01*
X33642857Y45424172D02*
X33571429Y45281315D01*
X33571429Y45281315D02*
X33500000Y45209886D01*
X33500000Y45209886D02*
X33357143Y45138458D01*
X33357143Y45138458D02*
X32785714Y45138458D01*
X34857143Y44495600D02*
X34714286Y44424172D01*
X34714286Y44424172D02*
X34428572Y44424172D01*
X34428572Y44424172D02*
X34285714Y44495600D01*
X34285714Y44495600D02*
X34214286Y44638458D01*
X34214286Y44638458D02*
X34214286Y45209886D01*
X34214286Y45209886D02*
X34285714Y45352743D01*
X34285714Y45352743D02*
X34428572Y45424172D01*
X34428572Y45424172D02*
X34714286Y45424172D01*
X34714286Y45424172D02*
X34857143Y45352743D01*
X34857143Y45352743D02*
X34928572Y45209886D01*
X34928572Y45209886D02*
X34928572Y45067029D01*
X34928572Y45067029D02*
X34214286Y44924172D01*
X35500000Y44495600D02*
X35642857Y44424172D01*
X35642857Y44424172D02*
X35928571Y44424172D01*
X35928571Y44424172D02*
X36071428Y44495600D01*
X36071428Y44495600D02*
X36142857Y44638458D01*
X36142857Y44638458D02*
X36142857Y44709886D01*
X36142857Y44709886D02*
X36071428Y44852743D01*
X36071428Y44852743D02*
X35928571Y44924172D01*
X35928571Y44924172D02*
X35714286Y44924172D01*
X35714286Y44924172D02*
X35571428Y44995600D01*
X35571428Y44995600D02*
X35500000Y45138458D01*
X35500000Y45138458D02*
X35500000Y45209886D01*
X35500000Y45209886D02*
X35571428Y45352743D01*
X35571428Y45352743D02*
X35714286Y45424172D01*
X35714286Y45424172D02*
X35928571Y45424172D01*
X35928571Y45424172D02*
X36071428Y45352743D01*
X37357143Y44495600D02*
X37214286Y44424172D01*
X37214286Y44424172D02*
X36928572Y44424172D01*
X36928572Y44424172D02*
X36785714Y44495600D01*
X36785714Y44495600D02*
X36714286Y44638458D01*
X36714286Y44638458D02*
X36714286Y45209886D01*
X36714286Y45209886D02*
X36785714Y45352743D01*
X36785714Y45352743D02*
X36928572Y45424172D01*
X36928572Y45424172D02*
X37214286Y45424172D01*
X37214286Y45424172D02*
X37357143Y45352743D01*
X37357143Y45352743D02*
X37428572Y45209886D01*
X37428572Y45209886D02*
X37428572Y45067029D01*
X37428572Y45067029D02*
X36714286Y44924172D01*
X37857143Y45424172D02*
X38428571Y45424172D01*
X38071428Y45924172D02*
X38071428Y44638458D01*
X38071428Y44638458D02*
X38142857Y44495600D01*
X38142857Y44495600D02*
X38285714Y44424172D01*
X38285714Y44424172D02*
X38428571Y44424172D01*
D10*
X117500000Y28594453D02*
X118928571Y28594453D01*
X118214285Y26094453D02*
X118214285Y28594453D01*
X119761905Y26094453D02*
X119761905Y27761120D01*
X119761905Y27284929D02*
X119880952Y27523024D01*
X119880952Y27523024D02*
X120000000Y27642072D01*
X120000000Y27642072D02*
X120238095Y27761120D01*
X120238095Y27761120D02*
X120476190Y27761120D01*
X121309524Y26094453D02*
X121309524Y27761120D01*
X121309524Y28594453D02*
X121190476Y28475405D01*
X121190476Y28475405D02*
X121309524Y28356358D01*
X121309524Y28356358D02*
X121428571Y28475405D01*
X121428571Y28475405D02*
X121309524Y28594453D01*
X121309524Y28594453D02*
X121309524Y28356358D01*
X123571428Y27761120D02*
X123571428Y25737310D01*
X123571428Y25737310D02*
X123452381Y25499215D01*
X123452381Y25499215D02*
X123333333Y25380167D01*
X123333333Y25380167D02*
X123095238Y25261120D01*
X123095238Y25261120D02*
X122738095Y25261120D01*
X122738095Y25261120D02*
X122500000Y25380167D01*
X123571428Y26213500D02*
X123333333Y26094453D01*
X123333333Y26094453D02*
X122857142Y26094453D01*
X122857142Y26094453D02*
X122619047Y26213500D01*
X122619047Y26213500D02*
X122500000Y26332548D01*
X122500000Y26332548D02*
X122380952Y26570643D01*
X122380952Y26570643D02*
X122380952Y27284929D01*
X122380952Y27284929D02*
X122500000Y27523024D01*
X122500000Y27523024D02*
X122619047Y27642072D01*
X122619047Y27642072D02*
X122857142Y27761120D01*
X122857142Y27761120D02*
X123333333Y27761120D01*
X123333333Y27761120D02*
X123571428Y27642072D01*
X124761905Y26332548D02*
X124880952Y26213500D01*
X124880952Y26213500D02*
X124761905Y26094453D01*
X124761905Y26094453D02*
X124642857Y26213500D01*
X124642857Y26213500D02*
X124761905Y26332548D01*
X124761905Y26332548D02*
X124761905Y26094453D01*
X127261904Y26094453D02*
X125833333Y26094453D01*
X126547619Y26094453D02*
X126547619Y28594453D01*
X126547619Y28594453D02*
X126309523Y28237310D01*
X126309523Y28237310D02*
X126071428Y27999215D01*
X126071428Y27999215D02*
X125833333Y27880167D01*
D11*
X78250242Y43617857D02*
X78321671Y43760714D01*
X78321671Y43760714D02*
X78321671Y43975000D01*
X78321671Y43975000D02*
X78250242Y44189286D01*
X78250242Y44189286D02*
X78107385Y44332143D01*
X78107385Y44332143D02*
X77964528Y44403572D01*
X77964528Y44403572D02*
X77678814Y44475000D01*
X77678814Y44475000D02*
X77464528Y44475000D01*
X77464528Y44475000D02*
X77178814Y44403572D01*
X77178814Y44403572D02*
X77035957Y44332143D01*
X77035957Y44332143D02*
X76893100Y44189286D01*
X76893100Y44189286D02*
X76821671Y43975000D01*
X76821671Y43975000D02*
X76821671Y43832143D01*
X76821671Y43832143D02*
X76893100Y43617857D01*
X76893100Y43617857D02*
X76964528Y43546429D01*
X76964528Y43546429D02*
X77464528Y43546429D01*
X77464528Y43546429D02*
X77464528Y43832143D01*
X76821671Y42903572D02*
X78321671Y42903572D01*
X78321671Y42903572D02*
X76821671Y42046429D01*
X76821671Y42046429D02*
X78321671Y42046429D01*
X76821671Y41332143D02*
X78321671Y41332143D01*
X78321671Y41332143D02*
X78321671Y40975000D01*
X78321671Y40975000D02*
X78250242Y40760714D01*
X78250242Y40760714D02*
X78107385Y40617857D01*
X78107385Y40617857D02*
X77964528Y40546428D01*
X77964528Y40546428D02*
X77678814Y40475000D01*
X77678814Y40475000D02*
X77464528Y40475000D01*
X77464528Y40475000D02*
X77178814Y40546428D01*
X77178814Y40546428D02*
X77035957Y40617857D01*
X77035957Y40617857D02*
X76893100Y40760714D01*
X76893100Y40760714D02*
X76821671Y40975000D01*
X76821671Y40975000D02*
X76821671Y41332143D01*
X112214285Y53742029D02*
X112142857Y53670600D01*
X112142857Y53670600D02*
X111928571Y53599172D01*
X111928571Y53599172D02*
X111785714Y53599172D01*
X111785714Y53599172D02*
X111571428Y53670600D01*
X111571428Y53670600D02*
X111428571Y53813458D01*
X111428571Y53813458D02*
X111357142Y53956315D01*
X111357142Y53956315D02*
X111285714Y54242029D01*
X111285714Y54242029D02*
X111285714Y54456315D01*
X111285714Y54456315D02*
X111357142Y54742029D01*
X111357142Y54742029D02*
X111428571Y54884886D01*
X111428571Y54884886D02*
X111571428Y55027743D01*
X111571428Y55027743D02*
X111785714Y55099172D01*
X111785714Y55099172D02*
X111928571Y55099172D01*
X111928571Y55099172D02*
X112142857Y55027743D01*
X112142857Y55027743D02*
X112214285Y54956315D01*
X112857142Y53599172D02*
X112857142Y55099172D01*
X113500000Y53599172D02*
X113500000Y54384886D01*
X113500000Y54384886D02*
X113428571Y54527743D01*
X113428571Y54527743D02*
X113285714Y54599172D01*
X113285714Y54599172D02*
X113071428Y54599172D01*
X113071428Y54599172D02*
X112928571Y54527743D01*
X112928571Y54527743D02*
X112857142Y54456315D01*
X114214285Y53742029D02*
X114285714Y53670600D01*
X114285714Y53670600D02*
X114214285Y53599172D01*
X114214285Y53599172D02*
X114142857Y53670600D01*
X114142857Y53670600D02*
X114214285Y53742029D01*
X114214285Y53742029D02*
X114214285Y53599172D01*
X115214286Y55099172D02*
X115357143Y55099172D01*
X115357143Y55099172D02*
X115500000Y55027743D01*
X115500000Y55027743D02*
X115571429Y54956315D01*
X115571429Y54956315D02*
X115642857Y54813458D01*
X115642857Y54813458D02*
X115714286Y54527743D01*
X115714286Y54527743D02*
X115714286Y54170600D01*
X115714286Y54170600D02*
X115642857Y53884886D01*
X115642857Y53884886D02*
X115571429Y53742029D01*
X115571429Y53742029D02*
X115500000Y53670600D01*
X115500000Y53670600D02*
X115357143Y53599172D01*
X115357143Y53599172D02*
X115214286Y53599172D01*
X115214286Y53599172D02*
X115071429Y53670600D01*
X115071429Y53670600D02*
X115000000Y53742029D01*
X115000000Y53742029D02*
X114928571Y53884886D01*
X114928571Y53884886D02*
X114857143Y54170600D01*
X114857143Y54170600D02*
X114857143Y54527743D01*
X114857143Y54527743D02*
X114928571Y54813458D01*
X114928571Y54813458D02*
X115000000Y54956315D01*
X115000000Y54956315D02*
X115071429Y55027743D01*
X115071429Y55027743D02*
X115214286Y55099172D01*
X36821429Y13225243D02*
X37535715Y13225243D01*
X36678572Y12796672D02*
X37178572Y14296672D01*
X37178572Y14296672D02*
X37678572Y12796672D01*
X38335714Y13830958D02*
X38450000Y13830958D01*
X38450000Y13830958D02*
X38564286Y13773815D01*
X38564286Y13773815D02*
X38621429Y13716672D01*
X38621429Y13716672D02*
X38678571Y13602386D01*
X38678571Y13602386D02*
X38735714Y13373815D01*
X38735714Y13373815D02*
X38735714Y13088100D01*
X38735714Y13088100D02*
X38678571Y12859529D01*
X38678571Y12859529D02*
X38621429Y12745243D01*
X38621429Y12745243D02*
X38564286Y12688100D01*
X38564286Y12688100D02*
X38450000Y12630958D01*
X38450000Y12630958D02*
X38335714Y12630958D01*
X38335714Y12630958D02*
X38221429Y12688100D01*
X38221429Y12688100D02*
X38164286Y12745243D01*
X38164286Y12745243D02*
X38107143Y12859529D01*
X38107143Y12859529D02*
X38050000Y13088100D01*
X38050000Y13088100D02*
X38050000Y13373815D01*
X38050000Y13373815D02*
X38107143Y13602386D01*
X38107143Y13602386D02*
X38164286Y13716672D01*
X38164286Y13716672D02*
X38221429Y13773815D01*
X38221429Y13773815D02*
X38335714Y13830958D01*
X120214285Y53742029D02*
X120142857Y53670600D01*
X120142857Y53670600D02*
X119928571Y53599172D01*
X119928571Y53599172D02*
X119785714Y53599172D01*
X119785714Y53599172D02*
X119571428Y53670600D01*
X119571428Y53670600D02*
X119428571Y53813458D01*
X119428571Y53813458D02*
X119357142Y53956315D01*
X119357142Y53956315D02*
X119285714Y54242029D01*
X119285714Y54242029D02*
X119285714Y54456315D01*
X119285714Y54456315D02*
X119357142Y54742029D01*
X119357142Y54742029D02*
X119428571Y54884886D01*
X119428571Y54884886D02*
X119571428Y55027743D01*
X119571428Y55027743D02*
X119785714Y55099172D01*
X119785714Y55099172D02*
X119928571Y55099172D01*
X119928571Y55099172D02*
X120142857Y55027743D01*
X120142857Y55027743D02*
X120214285Y54956315D01*
X120857142Y53599172D02*
X120857142Y55099172D01*
X121500000Y53599172D02*
X121500000Y54384886D01*
X121500000Y54384886D02*
X121428571Y54527743D01*
X121428571Y54527743D02*
X121285714Y54599172D01*
X121285714Y54599172D02*
X121071428Y54599172D01*
X121071428Y54599172D02*
X120928571Y54527743D01*
X120928571Y54527743D02*
X120857142Y54456315D01*
X122214285Y53742029D02*
X122285714Y53670600D01*
X122285714Y53670600D02*
X122214285Y53599172D01*
X122214285Y53599172D02*
X122142857Y53670600D01*
X122142857Y53670600D02*
X122214285Y53742029D01*
X122214285Y53742029D02*
X122214285Y53599172D01*
X123714286Y53599172D02*
X122857143Y53599172D01*
X123285714Y53599172D02*
X123285714Y55099172D01*
X123285714Y55099172D02*
X123142857Y54884886D01*
X123142857Y54884886D02*
X123000000Y54742029D01*
X123000000Y54742029D02*
X122857143Y54670600D01*
M02*
