G04 #@! TF.GenerationSoftware,KiCad,Pcbnew,5.0.2-bee76a0~70~ubuntu18.04.1*
G04 #@! TF.CreationDate,2019-03-24T20:45:15+02:00*
G04 #@! TF.ProjectId,stimjim,7374696d-6a69-46d2-9e6b-696361645f70,rev?*
G04 #@! TF.SameCoordinates,Original*
G04 #@! TF.FileFunction,Profile,NP*
%FSLAX46Y46*%
G04 Gerber Fmt 4.6, Leading zero omitted, Abs format (unit mm)*
G04 Created by KiCad (PCBNEW 5.0.2-bee76a0~70~ubuntu18.04.1) date Sun Mar 24 20:45:15 2019*
%MOMM*%
%LPD*%
G01*
G04 APERTURE LIST*
%ADD10C,0.150000*%
%ADD11C,0.200000*%
G04 APERTURE END LIST*
D10*
X284500000Y-125000000D02*
G75*
G02X280500000Y-129000000I-4000000J0D01*
G01*
X280500000Y-94000000D02*
G75*
G02X284500000Y-98000000I0J-4000000D01*
G01*
X144500000Y-98000000D02*
G75*
G02X148500000Y-94000000I4000000J0D01*
G01*
X144500000Y-125000000D02*
X144500000Y-98000000D01*
X148500000Y-94000000D02*
X280500000Y-94000000D01*
X280500000Y-129000000D02*
X148500000Y-129000000D01*
X284500000Y-98000000D02*
X284500000Y-125000000D01*
X148500000Y-129000000D02*
G75*
G02X144500000Y-125000000I0J4000000D01*
G01*
X280500000Y-58000000D02*
G75*
G02X284500000Y-62000000I0J-4000000D01*
G01*
X284500000Y-89000000D02*
G75*
G02X280500000Y-93000000I-4000000J0D01*
G01*
X148500000Y-93000000D02*
G75*
G02X144500000Y-89000000I0J4000000D01*
G01*
X144500000Y-62000000D02*
G75*
G02X148500000Y-58000000I4000000J0D01*
G01*
X14000000Y-58000000D02*
X14000000Y-137500000D01*
X143000000Y-58000000D02*
X14000000Y-58000000D01*
X143000000Y-137500000D02*
X143000000Y-58000000D01*
X14000000Y-137500000D02*
X143000000Y-137500000D01*
D11*
X181750000Y-78750000D02*
G75*
G03X181750000Y-78750000I-2500000J0D01*
G01*
X214500000Y-72500000D02*
X244000000Y-72500000D01*
X244000000Y-82500000D02*
X214500000Y-82500000D01*
X214500000Y-82500000D02*
X214500000Y-72500000D01*
X244000000Y-72500000D02*
X244000000Y-82500000D01*
X205400000Y-79500000D02*
G75*
G03X205400000Y-79500000I-3200000J0D01*
G01*
X194950000Y-79500000D02*
G75*
G03X194950000Y-79500000I-3200000J0D01*
G01*
X160750000Y-67500000D02*
X168750000Y-67500000D01*
X168750000Y-70500000D02*
X168750000Y-67500000D01*
X160750000Y-70500000D02*
X168750000Y-70500000D01*
X160750000Y-67500000D02*
X160750000Y-70500000D01*
X279000000Y-124250000D02*
G75*
G03X279000000Y-124250000I-2000000J0D01*
G01*
X224750000Y-118750000D02*
X216500000Y-118750000D01*
X211700000Y-112000000D02*
G75*
G03X211700000Y-112000000I-6600000J0D01*
G01*
X175500000Y-105000000D02*
X183750000Y-105000000D01*
X224750000Y-105000000D02*
X224750000Y-118750000D01*
X154000000Y-98750000D02*
G75*
G03X154000000Y-98750000I-2000000J0D01*
G01*
X251200000Y-112000000D02*
G75*
G03X251200000Y-112000000I-6600000J0D01*
G01*
X274100000Y-112000000D02*
G75*
G03X274100000Y-112000000I-6600000J0D01*
G01*
X183750000Y-118750000D02*
X175500000Y-118750000D01*
X216500000Y-105000000D02*
X224750000Y-105000000D01*
X183750000Y-105000000D02*
X183750000Y-118750000D01*
X279000000Y-98750000D02*
G75*
G03X279000000Y-98750000I-2000000J0D01*
G01*
X175500000Y-118750000D02*
X175500000Y-105000000D01*
X216500000Y-118750000D02*
X216500000Y-105000000D01*
X154000000Y-124250000D02*
G75*
G03X154000000Y-124250000I-2000000J0D01*
G01*
X170500000Y-112000000D02*
G75*
G03X170500000Y-112000000I-6600000J0D01*
G01*
X279000000Y-62750000D02*
G75*
G03X279000000Y-62750000I-2000000J0D01*
G01*
X279000000Y-88250000D02*
G75*
G03X279000000Y-88250000I-2000000J0D01*
G01*
X154000000Y-88250000D02*
G75*
G03X154000000Y-88250000I-2000000J0D01*
G01*
X154000000Y-62750000D02*
G75*
G03X154000000Y-62750000I-2000000J0D01*
G01*
D10*
X284500000Y-62000000D02*
X284500000Y-89000000D01*
X280500000Y-93000000D02*
X148500000Y-93000000D01*
X148500000Y-58000000D02*
X280500000Y-58000000D01*
X144500000Y-89000000D02*
X144500000Y-62000000D01*
M02*
