G04 #@! TF.GenerationSoftware,KiCad,Pcbnew,5.0.2-bee76a0~70~ubuntu18.04.1*
G04 #@! TF.CreationDate,2018-12-10T22:00:33+02:00*
G04 #@! TF.ProjectId,panels,70616e65-6c73-42e6-9b69-6361645f7063,rev?*
G04 #@! TF.SameCoordinates,Original*
G04 #@! TF.FileFunction,Profile,NP*
%FSLAX46Y46*%
G04 Gerber Fmt 4.6, Leading zero omitted, Abs format (unit mm)*
G04 Created by KiCad (PCBNEW 5.0.2-bee76a0~70~ubuntu18.04.1) date Mon Dec 10 22:00:33 2018*
%MOMM*%
%LPD*%
G01*
G04 APERTURE LIST*
%ADD10C,0.150000*%
%ADD11C,0.200000*%
G04 APERTURE END LIST*
D10*
X182600000Y-41800000D02*
X182600000Y-76800000D01*
D11*
X88600000Y-89800000D02*
X78600000Y-89800000D01*
X88600000Y-85800000D02*
X88600000Y-89800000D01*
X78600000Y-85800000D02*
X88600000Y-85800000D01*
X78600000Y-89800000D02*
X78600000Y-85800000D01*
D10*
X49600000Y-77600000D02*
X182600000Y-77600000D01*
X49600000Y-112600000D02*
X49600000Y-77600000D01*
X182600000Y-77600000D02*
X182600000Y-112600000D01*
X182600000Y-112600000D02*
X49600000Y-112600000D01*
D11*
X168300000Y-66300000D02*
X168300000Y-53300000D01*
X176300000Y-66300000D02*
X168300000Y-66300000D01*
X176300000Y-53300000D02*
X176300000Y-66300000D01*
X168300000Y-53300000D02*
X176300000Y-53300000D01*
X137300000Y-66300000D02*
X137300000Y-53300000D01*
X145300000Y-66300000D02*
X137300000Y-66300000D01*
X145300000Y-53300000D02*
X145300000Y-66300000D01*
X137300000Y-53300000D02*
X145300000Y-53300000D01*
X108200000Y-66300000D02*
X108200000Y-53300000D01*
X116200000Y-66300000D02*
X108200000Y-66300000D01*
X116200000Y-53300000D02*
X116200000Y-66300000D01*
X108200000Y-53300000D02*
X116200000Y-53300000D01*
X77300000Y-66300000D02*
X77300000Y-53300000D01*
X85300000Y-66300000D02*
X77300000Y-66300000D01*
X85300000Y-53300000D02*
X85300000Y-66300000D01*
X77300000Y-53300000D02*
X85300000Y-53300000D01*
D10*
X182600000Y-76800000D02*
X49600000Y-76800000D01*
X49600000Y-41800000D02*
X182600000Y-41800000D01*
X49600000Y-76800000D02*
X49600000Y-41800000D01*
M02*
