G04 #@! TF.GenerationSoftware,KiCad,Pcbnew,5.0.2-bee76a0~70~ubuntu18.04.1*
G04 #@! TF.CreationDate,2018-12-10T22:00:33+02:00*
G04 #@! TF.ProjectId,panels,70616e65-6c73-42e6-9b69-6361645f7063,rev?*
G04 #@! TF.SameCoordinates,Original*
G04 #@! TF.FileFunction,Legend,Top*
G04 #@! TF.FilePolarity,Positive*
%FSLAX46Y46*%
G04 Gerber Fmt 4.6, Leading zero omitted, Abs format (unit mm)*
G04 Created by KiCad (PCBNEW 5.0.2-bee76a0~70~ubuntu18.04.1) date Mon Dec 10 22:00:33 2018*
%MOMM*%
%LPD*%
G01*
G04 APERTURE LIST*
%ADD10C,0.300000*%
%ADD11C,0.250000*%
%ADD12C,0.200000*%
G04 APERTURE END LIST*
D10*
X80976190Y-91504761D02*
X80976190Y-93123809D01*
X81071428Y-93314285D01*
X81166666Y-93409523D01*
X81357142Y-93504761D01*
X81738095Y-93504761D01*
X81928571Y-93409523D01*
X82023809Y-93314285D01*
X82119047Y-93123809D01*
X82119047Y-91504761D01*
X82976190Y-93409523D02*
X83261904Y-93504761D01*
X83738095Y-93504761D01*
X83928571Y-93409523D01*
X84023809Y-93314285D01*
X84119047Y-93123809D01*
X84119047Y-92933333D01*
X84023809Y-92742857D01*
X83928571Y-92647619D01*
X83738095Y-92552380D01*
X83357142Y-92457142D01*
X83166666Y-92361904D01*
X83071428Y-92266666D01*
X82976190Y-92076190D01*
X82976190Y-91885714D01*
X83071428Y-91695238D01*
X83166666Y-91600000D01*
X83357142Y-91504761D01*
X83833333Y-91504761D01*
X84119047Y-91600000D01*
X85642857Y-92457142D02*
X85928571Y-92552380D01*
X86023809Y-92647619D01*
X86119047Y-92838095D01*
X86119047Y-93123809D01*
X86023809Y-93314285D01*
X85928571Y-93409523D01*
X85738095Y-93504761D01*
X84976190Y-93504761D01*
X84976190Y-91504761D01*
X85642857Y-91504761D01*
X85833333Y-91600000D01*
X85928571Y-91695238D01*
X86023809Y-91885714D01*
X86023809Y-92076190D01*
X85928571Y-92266666D01*
X85833333Y-92361904D01*
X85642857Y-92457142D01*
X84976190Y-92457142D01*
D11*
X97657142Y-111242857D02*
X97657142Y-110042857D01*
X98971428Y-110442857D02*
X99428571Y-110442857D01*
X99142857Y-110042857D02*
X99142857Y-111071428D01*
X99200000Y-111185714D01*
X99314285Y-111242857D01*
X99428571Y-111242857D01*
X99828571Y-111242857D02*
X99828571Y-110042857D01*
X100342857Y-111242857D02*
X100342857Y-110614285D01*
X100285714Y-110500000D01*
X100171428Y-110442857D01*
X100000000Y-110442857D01*
X99885714Y-110500000D01*
X99828571Y-110557142D01*
X100914285Y-111242857D02*
X100914285Y-110442857D01*
X100914285Y-110042857D02*
X100857142Y-110100000D01*
X100914285Y-110157142D01*
X100971428Y-110100000D01*
X100914285Y-110042857D01*
X100914285Y-110157142D01*
X101485714Y-110442857D02*
X101485714Y-111242857D01*
X101485714Y-110557142D02*
X101542857Y-110500000D01*
X101657142Y-110442857D01*
X101828571Y-110442857D01*
X101942857Y-110500000D01*
X102000000Y-110614285D01*
X102000000Y-111242857D01*
X102571428Y-111242857D02*
X102571428Y-110042857D01*
X102685714Y-110785714D02*
X103028571Y-111242857D01*
X103028571Y-110442857D02*
X102571428Y-110900000D01*
X104342857Y-110442857D02*
X104628571Y-111242857D01*
X104914285Y-110442857D02*
X104628571Y-111242857D01*
X104514285Y-111528571D01*
X104457142Y-111585714D01*
X104342857Y-111642857D01*
X105542857Y-111242857D02*
X105428571Y-111185714D01*
X105371428Y-111128571D01*
X105314285Y-111014285D01*
X105314285Y-110671428D01*
X105371428Y-110557142D01*
X105428571Y-110500000D01*
X105542857Y-110442857D01*
X105714285Y-110442857D01*
X105828571Y-110500000D01*
X105885714Y-110557142D01*
X105942857Y-110671428D01*
X105942857Y-111014285D01*
X105885714Y-111128571D01*
X105828571Y-111185714D01*
X105714285Y-111242857D01*
X105542857Y-111242857D01*
X106971428Y-110442857D02*
X106971428Y-111242857D01*
X106457142Y-110442857D02*
X106457142Y-111071428D01*
X106514285Y-111185714D01*
X106628571Y-111242857D01*
X106800000Y-111242857D01*
X106914285Y-111185714D01*
X106971428Y-111128571D01*
X107600000Y-110042857D02*
X107485714Y-110271428D01*
X108285714Y-111242857D02*
X108171428Y-111185714D01*
X108114285Y-111071428D01*
X108114285Y-110042857D01*
X108914285Y-111242857D02*
X108800000Y-111185714D01*
X108742857Y-111071428D01*
X108742857Y-110042857D01*
X110114285Y-110442857D02*
X110571428Y-110442857D01*
X110285714Y-111242857D02*
X110285714Y-110214285D01*
X110342857Y-110100000D01*
X110457142Y-110042857D01*
X110571428Y-110042857D01*
X110971428Y-111242857D02*
X110971428Y-110442857D01*
X110971428Y-110042857D02*
X110914285Y-110100000D01*
X110971428Y-110157142D01*
X111028571Y-110100000D01*
X110971428Y-110042857D01*
X110971428Y-110157142D01*
X111542857Y-110442857D02*
X111542857Y-111242857D01*
X111542857Y-110557142D02*
X111600000Y-110500000D01*
X111714285Y-110442857D01*
X111885714Y-110442857D01*
X112000000Y-110500000D01*
X112057142Y-110614285D01*
X112057142Y-111242857D01*
X113142857Y-111242857D02*
X113142857Y-110042857D01*
X113142857Y-111185714D02*
X113028571Y-111242857D01*
X112800000Y-111242857D01*
X112685714Y-111185714D01*
X112628571Y-111128571D01*
X112571428Y-111014285D01*
X112571428Y-110671428D01*
X112628571Y-110557142D01*
X112685714Y-110500000D01*
X112800000Y-110442857D01*
X113028571Y-110442857D01*
X113142857Y-110500000D01*
X114457142Y-110442857D02*
X114914285Y-110442857D01*
X114628571Y-110042857D02*
X114628571Y-111071428D01*
X114685714Y-111185714D01*
X114800000Y-111242857D01*
X114914285Y-111242857D01*
X115314285Y-111242857D02*
X115314285Y-110042857D01*
X115828571Y-111242857D02*
X115828571Y-110614285D01*
X115771428Y-110500000D01*
X115657142Y-110442857D01*
X115485714Y-110442857D01*
X115371428Y-110500000D01*
X115314285Y-110557142D01*
X116400000Y-111242857D02*
X116400000Y-110442857D01*
X116400000Y-110042857D02*
X116342857Y-110100000D01*
X116400000Y-110157142D01*
X116457142Y-110100000D01*
X116400000Y-110042857D01*
X116400000Y-110157142D01*
X116914285Y-111185714D02*
X117028571Y-111242857D01*
X117257142Y-111242857D01*
X117371428Y-111185714D01*
X117428571Y-111071428D01*
X117428571Y-111014285D01*
X117371428Y-110900000D01*
X117257142Y-110842857D01*
X117085714Y-110842857D01*
X116971428Y-110785714D01*
X116914285Y-110671428D01*
X116914285Y-110614285D01*
X116971428Y-110500000D01*
X117085714Y-110442857D01*
X117257142Y-110442857D01*
X117371428Y-110500000D01*
X118857142Y-110442857D02*
X118857142Y-111242857D01*
X118857142Y-110557142D02*
X118914285Y-110500000D01*
X119028571Y-110442857D01*
X119200000Y-110442857D01*
X119314285Y-110500000D01*
X119371428Y-110614285D01*
X119371428Y-111242857D01*
X120400000Y-111185714D02*
X120285714Y-111242857D01*
X120057142Y-111242857D01*
X119942857Y-111185714D01*
X119885714Y-111071428D01*
X119885714Y-110614285D01*
X119942857Y-110500000D01*
X120057142Y-110442857D01*
X120285714Y-110442857D01*
X120400000Y-110500000D01*
X120457142Y-110614285D01*
X120457142Y-110728571D01*
X119885714Y-110842857D01*
X120857142Y-111242857D02*
X121485714Y-110442857D01*
X120857142Y-110442857D02*
X121485714Y-111242857D01*
X121771428Y-110442857D02*
X122228571Y-110442857D01*
X121942857Y-110042857D02*
X121942857Y-111071428D01*
X122000000Y-111185714D01*
X122114285Y-111242857D01*
X122228571Y-111242857D01*
X123542857Y-110442857D02*
X123542857Y-111642857D01*
X123542857Y-110500000D02*
X123657142Y-110442857D01*
X123885714Y-110442857D01*
X124000000Y-110500000D01*
X124057142Y-110557142D01*
X124114285Y-110671428D01*
X124114285Y-111014285D01*
X124057142Y-111128571D01*
X124000000Y-111185714D01*
X123885714Y-111242857D01*
X123657142Y-111242857D01*
X123542857Y-111185714D01*
X125142857Y-111242857D02*
X125142857Y-110614285D01*
X125085714Y-110500000D01*
X124971428Y-110442857D01*
X124742857Y-110442857D01*
X124628571Y-110500000D01*
X125142857Y-111185714D02*
X125028571Y-111242857D01*
X124742857Y-111242857D01*
X124628571Y-111185714D01*
X124571428Y-111071428D01*
X124571428Y-110957142D01*
X124628571Y-110842857D01*
X124742857Y-110785714D01*
X125028571Y-110785714D01*
X125142857Y-110728571D01*
X125714285Y-111242857D02*
X125714285Y-110442857D01*
X125714285Y-110671428D02*
X125771428Y-110557142D01*
X125828571Y-110500000D01*
X125942857Y-110442857D01*
X126057142Y-110442857D01*
X126285714Y-110442857D02*
X126742857Y-110442857D01*
X126457142Y-110042857D02*
X126457142Y-111071428D01*
X126514285Y-111185714D01*
X126628571Y-111242857D01*
X126742857Y-111242857D01*
X128000000Y-111185714D02*
X128114285Y-111242857D01*
X128342857Y-111242857D01*
X128457142Y-111185714D01*
X128514285Y-111071428D01*
X128514285Y-111014285D01*
X128457142Y-110900000D01*
X128342857Y-110842857D01*
X128171428Y-110842857D01*
X128057142Y-110785714D01*
X128000000Y-110671428D01*
X128000000Y-110614285D01*
X128057142Y-110500000D01*
X128171428Y-110442857D01*
X128342857Y-110442857D01*
X128457142Y-110500000D01*
X129028571Y-111242857D02*
X129028571Y-110042857D01*
X129542857Y-111242857D02*
X129542857Y-110614285D01*
X129485714Y-110500000D01*
X129371428Y-110442857D01*
X129200000Y-110442857D01*
X129085714Y-110500000D01*
X129028571Y-110557142D01*
X130285714Y-111242857D02*
X130171428Y-111185714D01*
X130114285Y-111128571D01*
X130057142Y-111014285D01*
X130057142Y-110671428D01*
X130114285Y-110557142D01*
X130171428Y-110500000D01*
X130285714Y-110442857D01*
X130457142Y-110442857D01*
X130571428Y-110500000D01*
X130628571Y-110557142D01*
X130685714Y-110671428D01*
X130685714Y-111014285D01*
X130628571Y-111128571D01*
X130571428Y-111185714D01*
X130457142Y-111242857D01*
X130285714Y-111242857D01*
X131714285Y-111185714D02*
X131600000Y-111242857D01*
X131371428Y-111242857D01*
X131257142Y-111185714D01*
X131200000Y-111128571D01*
X131142857Y-111014285D01*
X131142857Y-110671428D01*
X131200000Y-110557142D01*
X131257142Y-110500000D01*
X131371428Y-110442857D01*
X131600000Y-110442857D01*
X131714285Y-110500000D01*
X132228571Y-111242857D02*
X132228571Y-110042857D01*
X132342857Y-110785714D02*
X132685714Y-111242857D01*
X132685714Y-110442857D02*
X132228571Y-110900000D01*
X133200000Y-111242857D02*
X133200000Y-110442857D01*
X133200000Y-110042857D02*
X133142857Y-110100000D01*
X133200000Y-110157142D01*
X133257142Y-110100000D01*
X133200000Y-110042857D01*
X133200000Y-110157142D01*
X133771428Y-110442857D02*
X133771428Y-111242857D01*
X133771428Y-110557142D02*
X133828571Y-110500000D01*
X133942857Y-110442857D01*
X134114285Y-110442857D01*
X134228571Y-110500000D01*
X134285714Y-110614285D01*
X134285714Y-111242857D01*
X135371428Y-110442857D02*
X135371428Y-111414285D01*
X135314285Y-111528571D01*
X135257142Y-111585714D01*
X135142857Y-111642857D01*
X134971428Y-111642857D01*
X134857142Y-111585714D01*
X135371428Y-111185714D02*
X135257142Y-111242857D01*
X135028571Y-111242857D01*
X134914285Y-111185714D01*
X134857142Y-111128571D01*
X134800000Y-111014285D01*
X134800000Y-110671428D01*
X134857142Y-110557142D01*
X134914285Y-110500000D01*
X135028571Y-110442857D01*
X135257142Y-110442857D01*
X135371428Y-110500000D01*
X135942857Y-111128571D02*
X136000000Y-111185714D01*
X135942857Y-111242857D01*
X135885714Y-111185714D01*
X135942857Y-111128571D01*
X135942857Y-111242857D01*
D10*
X105600000Y-83957142D02*
X105600000Y-80957142D01*
X106600000Y-83100000D01*
X107600000Y-80957142D01*
X107600000Y-83957142D01*
X109028571Y-83957142D02*
X109028571Y-80957142D01*
X112171428Y-83671428D02*
X112028571Y-83814285D01*
X111600000Y-83957142D01*
X111314285Y-83957142D01*
X110885714Y-83814285D01*
X110600000Y-83528571D01*
X110457142Y-83242857D01*
X110314285Y-82671428D01*
X110314285Y-82242857D01*
X110457142Y-81671428D01*
X110600000Y-81385714D01*
X110885714Y-81100000D01*
X111314285Y-80957142D01*
X111600000Y-80957142D01*
X112028571Y-81100000D01*
X112171428Y-81242857D01*
X115171428Y-83957142D02*
X114171428Y-82528571D01*
X113457142Y-83957142D02*
X113457142Y-80957142D01*
X114600000Y-80957142D01*
X114885714Y-81100000D01*
X115028571Y-81242857D01*
X115171428Y-81528571D01*
X115171428Y-81957142D01*
X115028571Y-82242857D01*
X114885714Y-82385714D01*
X114600000Y-82528571D01*
X113457142Y-82528571D01*
X117028571Y-80957142D02*
X117600000Y-80957142D01*
X117885714Y-81100000D01*
X118171428Y-81385714D01*
X118314285Y-81957142D01*
X118314285Y-82957142D01*
X118171428Y-83528571D01*
X117885714Y-83814285D01*
X117600000Y-83957142D01*
X117028571Y-83957142D01*
X116742857Y-83814285D01*
X116457142Y-83528571D01*
X116314285Y-82957142D01*
X116314285Y-81957142D01*
X116457142Y-81385714D01*
X116742857Y-81100000D01*
X117028571Y-80957142D01*
X119457142Y-83814285D02*
X119885714Y-83957142D01*
X120600000Y-83957142D01*
X120885714Y-83814285D01*
X121028571Y-83671428D01*
X121171428Y-83385714D01*
X121171428Y-83100000D01*
X121028571Y-82814285D01*
X120885714Y-82671428D01*
X120600000Y-82528571D01*
X120028571Y-82385714D01*
X119742857Y-82242857D01*
X119600000Y-82100000D01*
X119457142Y-81814285D01*
X119457142Y-81528571D01*
X119600000Y-81242857D01*
X119742857Y-81100000D01*
X120028571Y-80957142D01*
X120742857Y-80957142D01*
X121171428Y-81100000D01*
X122028571Y-80957142D02*
X123742857Y-80957142D01*
X122885714Y-83957142D02*
X122885714Y-80957142D01*
X124742857Y-83957142D02*
X124742857Y-80957142D01*
X126171428Y-83957142D02*
X126171428Y-80957142D01*
X127171428Y-83100000D01*
X128171428Y-80957142D01*
X128171428Y-83957142D01*
X129600000Y-83671428D02*
X129742857Y-83814285D01*
X129600000Y-83957142D01*
X129457142Y-83814285D01*
X129600000Y-83671428D01*
X129600000Y-83957142D01*
D11*
X105700000Y-50400000D02*
X106271428Y-50400000D01*
X105585714Y-50742857D02*
X105985714Y-49542857D01*
X106385714Y-50742857D01*
X108042857Y-49542857D02*
X108042857Y-50400000D01*
X107985714Y-50571428D01*
X107871428Y-50685714D01*
X107700000Y-50742857D01*
X107585714Y-50742857D01*
X108842857Y-49542857D02*
X109071428Y-49542857D01*
X109185714Y-49600000D01*
X109300000Y-49714285D01*
X109357142Y-49942857D01*
X109357142Y-50342857D01*
X109300000Y-50571428D01*
X109185714Y-50685714D01*
X109071428Y-50742857D01*
X108842857Y-50742857D01*
X108728571Y-50685714D01*
X108614285Y-50571428D01*
X108557142Y-50342857D01*
X108557142Y-49942857D01*
X108614285Y-49714285D01*
X108728571Y-49600000D01*
X108842857Y-49542857D01*
X110442857Y-50742857D02*
X109871428Y-50742857D01*
X109871428Y-49542857D01*
X110671428Y-49542857D02*
X111357142Y-49542857D01*
X111014285Y-50742857D02*
X111014285Y-49542857D01*
X112557142Y-49542857D02*
X112842857Y-50742857D01*
X113071428Y-49885714D01*
X113300000Y-50742857D01*
X113585714Y-49542857D01*
X114042857Y-50742857D02*
X114042857Y-49542857D01*
X114042857Y-50114285D02*
X114728571Y-50114285D01*
X114728571Y-50742857D02*
X114728571Y-49542857D01*
X115300000Y-50114285D02*
X115700000Y-50114285D01*
X115871428Y-50742857D02*
X115300000Y-50742857D01*
X115300000Y-49542857D01*
X115871428Y-49542857D01*
X116385714Y-50742857D02*
X116385714Y-49542857D01*
X117071428Y-50742857D01*
X117071428Y-49542857D01*
X118785714Y-50171428D02*
X118785714Y-50742857D01*
X118385714Y-49542857D02*
X118785714Y-50171428D01*
X119185714Y-49542857D01*
X119814285Y-49542857D02*
X120042857Y-49542857D01*
X120157142Y-49600000D01*
X120271428Y-49714285D01*
X120328571Y-49942857D01*
X120328571Y-50342857D01*
X120271428Y-50571428D01*
X120157142Y-50685714D01*
X120042857Y-50742857D01*
X119814285Y-50742857D01*
X119700000Y-50685714D01*
X119585714Y-50571428D01*
X119528571Y-50342857D01*
X119528571Y-49942857D01*
X119585714Y-49714285D01*
X119700000Y-49600000D01*
X119814285Y-49542857D01*
X120842857Y-49542857D02*
X120842857Y-50514285D01*
X120900000Y-50628571D01*
X120957142Y-50685714D01*
X121071428Y-50742857D01*
X121300000Y-50742857D01*
X121414285Y-50685714D01*
X121471428Y-50628571D01*
X121528571Y-50514285D01*
X121528571Y-49542857D01*
X123014285Y-50742857D02*
X123014285Y-49542857D01*
X123700000Y-50742857D01*
X123700000Y-49542857D01*
X124271428Y-50114285D02*
X124671428Y-50114285D01*
X124842857Y-50742857D02*
X124271428Y-50742857D01*
X124271428Y-49542857D01*
X124842857Y-49542857D01*
X125357142Y-50114285D02*
X125757142Y-50114285D01*
X125928571Y-50742857D02*
X125357142Y-50742857D01*
X125357142Y-49542857D01*
X125928571Y-49542857D01*
X126442857Y-50742857D02*
X126442857Y-49542857D01*
X126728571Y-49542857D01*
X126900000Y-49600000D01*
X127014285Y-49714285D01*
X127071428Y-49828571D01*
X127128571Y-50057142D01*
X127128571Y-50228571D01*
X127071428Y-50457142D01*
X127014285Y-50571428D01*
X126900000Y-50685714D01*
X126728571Y-50742857D01*
X126442857Y-50742857D01*
X128557142Y-50742857D02*
X128557142Y-49542857D01*
X128957142Y-49542857D02*
X129642857Y-49542857D01*
X129300000Y-50742857D02*
X129300000Y-49542857D01*
X130042857Y-50628571D02*
X130100000Y-50685714D01*
X130042857Y-50742857D01*
X129985714Y-50685714D01*
X130042857Y-50628571D01*
X130042857Y-50742857D01*
D10*
X105600000Y-48157142D02*
X105600000Y-45157142D01*
X106600000Y-47300000D01*
X107600000Y-45157142D01*
X107600000Y-48157142D01*
X109028571Y-48157142D02*
X109028571Y-45157142D01*
X112171428Y-47871428D02*
X112028571Y-48014285D01*
X111600000Y-48157142D01*
X111314285Y-48157142D01*
X110885714Y-48014285D01*
X110600000Y-47728571D01*
X110457142Y-47442857D01*
X110314285Y-46871428D01*
X110314285Y-46442857D01*
X110457142Y-45871428D01*
X110600000Y-45585714D01*
X110885714Y-45300000D01*
X111314285Y-45157142D01*
X111600000Y-45157142D01*
X112028571Y-45300000D01*
X112171428Y-45442857D01*
X115171428Y-48157142D02*
X114171428Y-46728571D01*
X113457142Y-48157142D02*
X113457142Y-45157142D01*
X114600000Y-45157142D01*
X114885714Y-45300000D01*
X115028571Y-45442857D01*
X115171428Y-45728571D01*
X115171428Y-46157142D01*
X115028571Y-46442857D01*
X114885714Y-46585714D01*
X114600000Y-46728571D01*
X113457142Y-46728571D01*
X117028571Y-45157142D02*
X117600000Y-45157142D01*
X117885714Y-45300000D01*
X118171428Y-45585714D01*
X118314285Y-46157142D01*
X118314285Y-47157142D01*
X118171428Y-47728571D01*
X117885714Y-48014285D01*
X117600000Y-48157142D01*
X117028571Y-48157142D01*
X116742857Y-48014285D01*
X116457142Y-47728571D01*
X116314285Y-47157142D01*
X116314285Y-46157142D01*
X116457142Y-45585714D01*
X116742857Y-45300000D01*
X117028571Y-45157142D01*
X119457142Y-48014285D02*
X119885714Y-48157142D01*
X120600000Y-48157142D01*
X120885714Y-48014285D01*
X121028571Y-47871428D01*
X121171428Y-47585714D01*
X121171428Y-47300000D01*
X121028571Y-47014285D01*
X120885714Y-46871428D01*
X120600000Y-46728571D01*
X120028571Y-46585714D01*
X119742857Y-46442857D01*
X119600000Y-46300000D01*
X119457142Y-46014285D01*
X119457142Y-45728571D01*
X119600000Y-45442857D01*
X119742857Y-45300000D01*
X120028571Y-45157142D01*
X120742857Y-45157142D01*
X121171428Y-45300000D01*
X122028571Y-45157142D02*
X123742857Y-45157142D01*
X122885714Y-48157142D02*
X122885714Y-45157142D01*
X124742857Y-48157142D02*
X124742857Y-45157142D01*
X126171428Y-48157142D02*
X126171428Y-45157142D01*
X127171428Y-47300000D01*
X128171428Y-45157142D01*
X128171428Y-48157142D01*
X129600000Y-47871428D02*
X129742857Y-48014285D01*
X129600000Y-48157142D01*
X129457142Y-48014285D01*
X129600000Y-47871428D01*
X129600000Y-48157142D01*
X69785714Y-69704761D02*
X70166666Y-69704761D01*
X70357142Y-69800000D01*
X70547619Y-69990476D01*
X70642857Y-70371428D01*
X70642857Y-71038095D01*
X70547619Y-71419047D01*
X70357142Y-71609523D01*
X70166666Y-71704761D01*
X69785714Y-71704761D01*
X69595238Y-71609523D01*
X69404761Y-71419047D01*
X69309523Y-71038095D01*
X69309523Y-70371428D01*
X69404761Y-69990476D01*
X69595238Y-69800000D01*
X69785714Y-69704761D01*
X71500000Y-69704761D02*
X71500000Y-71323809D01*
X71595238Y-71514285D01*
X71690476Y-71609523D01*
X71880952Y-71704761D01*
X72261904Y-71704761D01*
X72452380Y-71609523D01*
X72547619Y-71514285D01*
X72642857Y-71323809D01*
X72642857Y-69704761D01*
X73309523Y-69704761D02*
X74452380Y-69704761D01*
X73880952Y-71704761D02*
X73880952Y-69704761D01*
X77690476Y-71704761D02*
X76547619Y-71704761D01*
X77119047Y-71704761D02*
X77119047Y-69704761D01*
X76928571Y-69990476D01*
X76738095Y-70180952D01*
X76547619Y-70276190D01*
X100785714Y-69704761D02*
X101166666Y-69704761D01*
X101357142Y-69800000D01*
X101547619Y-69990476D01*
X101642857Y-70371428D01*
X101642857Y-71038095D01*
X101547619Y-71419047D01*
X101357142Y-71609523D01*
X101166666Y-71704761D01*
X100785714Y-71704761D01*
X100595238Y-71609523D01*
X100404761Y-71419047D01*
X100309523Y-71038095D01*
X100309523Y-70371428D01*
X100404761Y-69990476D01*
X100595238Y-69800000D01*
X100785714Y-69704761D01*
X102500000Y-69704761D02*
X102500000Y-71323809D01*
X102595238Y-71514285D01*
X102690476Y-71609523D01*
X102880952Y-71704761D01*
X103261904Y-71704761D01*
X103452380Y-71609523D01*
X103547619Y-71514285D01*
X103642857Y-71323809D01*
X103642857Y-69704761D01*
X104309523Y-69704761D02*
X105452380Y-69704761D01*
X104880952Y-71704761D02*
X104880952Y-69704761D01*
X108023809Y-69704761D02*
X108214285Y-69704761D01*
X108404761Y-69800000D01*
X108500000Y-69895238D01*
X108595238Y-70085714D01*
X108690476Y-70466666D01*
X108690476Y-70942857D01*
X108595238Y-71323809D01*
X108500000Y-71514285D01*
X108404761Y-71609523D01*
X108214285Y-71704761D01*
X108023809Y-71704761D01*
X107833333Y-71609523D01*
X107738095Y-71514285D01*
X107642857Y-71323809D01*
X107547619Y-70942857D01*
X107547619Y-70466666D01*
X107642857Y-70085714D01*
X107738095Y-69895238D01*
X107833333Y-69800000D01*
X108023809Y-69704761D01*
D12*
X60500000Y-68800000D02*
X59500000Y-67800000D01*
X61500000Y-68800000D02*
X60500000Y-68800000D01*
X84500000Y-68800000D02*
X61500000Y-68800000D01*
X85500000Y-67800000D02*
X84500000Y-68800000D01*
X91500000Y-68800000D02*
X90500000Y-67800000D01*
X115500000Y-68800000D02*
X91500000Y-68800000D01*
X116500000Y-67800000D02*
X115500000Y-68800000D01*
X121500000Y-68800000D02*
X120500000Y-67800000D01*
X144500000Y-68800000D02*
X121500000Y-68800000D01*
X145500000Y-67800000D02*
X144500000Y-68800000D01*
X175500000Y-68800000D02*
X176500000Y-67800000D01*
X152500000Y-68800000D02*
X175500000Y-68800000D01*
X151500000Y-67800000D02*
X152500000Y-68800000D01*
D10*
X129738095Y-71704761D02*
X129738095Y-69704761D01*
X130690476Y-71704761D02*
X130690476Y-69704761D01*
X131833333Y-71704761D01*
X131833333Y-69704761D01*
X135357142Y-71704761D02*
X134214285Y-71704761D01*
X134785714Y-71704761D02*
X134785714Y-69704761D01*
X134595238Y-69990476D01*
X134404761Y-70180952D01*
X134214285Y-70276190D01*
X161738095Y-71704761D02*
X161738095Y-69704761D01*
X162690476Y-71704761D02*
X162690476Y-69704761D01*
X163833333Y-71704761D01*
X163833333Y-69704761D01*
X166690476Y-69704761D02*
X166880952Y-69704761D01*
X167071428Y-69800000D01*
X167166666Y-69895238D01*
X167261904Y-70085714D01*
X167357142Y-70466666D01*
X167357142Y-70942857D01*
X167261904Y-71323809D01*
X167166666Y-71514285D01*
X167071428Y-71609523D01*
X166880952Y-71704761D01*
X166690476Y-71704761D01*
X166500000Y-71609523D01*
X166404761Y-71514285D01*
X166309523Y-71323809D01*
X166214285Y-70942857D01*
X166214285Y-70466666D01*
X166309523Y-70085714D01*
X166404761Y-69895238D01*
X166500000Y-69800000D01*
X166690476Y-69704761D01*
M02*
