G04 #@! TF.GenerationSoftware,KiCad,Pcbnew,5.0.2-bee76a0~70~ubuntu18.04.1*
G04 #@! TF.CreationDate,2018-12-10T22:04:31+02:00*
G04 #@! TF.ProjectId,CombinedPCB,436f6d62-696e-4656-9450-43422e6b6963,rev?*
G04 #@! TF.SameCoordinates,Original*
G04 #@! TF.FileFunction,Soldermask,Bot*
G04 #@! TF.FilePolarity,Negative*
%FSLAX46Y46*%
G04 Gerber Fmt 4.6, Leading zero omitted, Abs format (unit mm)*
G04 Created by KiCad (PCBNEW 5.0.2-bee76a0~70~ubuntu18.04.1) date Mon Dec 10 22:04:31 2018*
%MOMM*%
%LPD*%
G01*
G04 APERTURE LIST*
%ADD10C,0.100000*%
G04 APERTURE END LIST*
D10*
G36*
X73271000Y-122561000D02*
X71569000Y-122561000D01*
X71569000Y-120859000D01*
X73271000Y-120859000D01*
X73271000Y-122561000D01*
X73271000Y-122561000D01*
G37*
G36*
X57428228Y-120891703D02*
X57583100Y-120955853D01*
X57722481Y-121048985D01*
X57841015Y-121167519D01*
X57934147Y-121306900D01*
X57998297Y-121461772D01*
X58031000Y-121626184D01*
X58031000Y-121793816D01*
X57998297Y-121958228D01*
X57934147Y-122113100D01*
X57841015Y-122252481D01*
X57722481Y-122371015D01*
X57583100Y-122464147D01*
X57428228Y-122528297D01*
X57263816Y-122561000D01*
X57096184Y-122561000D01*
X56931772Y-122528297D01*
X56776900Y-122464147D01*
X56637519Y-122371015D01*
X56518985Y-122252481D01*
X56425853Y-122113100D01*
X56361703Y-121958228D01*
X56329000Y-121793816D01*
X56329000Y-121626184D01*
X56361703Y-121461772D01*
X56425853Y-121306900D01*
X56518985Y-121167519D01*
X56637519Y-121048985D01*
X56776900Y-120955853D01*
X56931772Y-120891703D01*
X57096184Y-120859000D01*
X57263816Y-120859000D01*
X57428228Y-120891703D01*
X57428228Y-120891703D01*
G37*
G36*
X40442006Y-116883582D02*
X40842565Y-117049499D01*
X41203059Y-117290373D01*
X41509627Y-117596941D01*
X41750501Y-117957435D01*
X41916418Y-118357994D01*
X42001000Y-118783219D01*
X42001000Y-119216781D01*
X41916418Y-119642006D01*
X41750501Y-120042565D01*
X41509627Y-120403059D01*
X41203059Y-120709627D01*
X40842565Y-120950501D01*
X40442006Y-121116418D01*
X40016781Y-121201000D01*
X39583219Y-121201000D01*
X39157994Y-121116418D01*
X38757435Y-120950501D01*
X38396941Y-120709627D01*
X38090373Y-120403059D01*
X37849499Y-120042565D01*
X37683582Y-119642006D01*
X37599000Y-119216781D01*
X37599000Y-118783219D01*
X37683582Y-118357994D01*
X37849499Y-117957435D01*
X38090373Y-117596941D01*
X38396941Y-117290373D01*
X38757435Y-117049499D01*
X39157994Y-116883582D01*
X39583219Y-116799000D01*
X40016781Y-116799000D01*
X40442006Y-116883582D01*
X40442006Y-116883582D01*
G37*
G36*
X155442006Y-116883582D02*
X155842565Y-117049499D01*
X156203059Y-117290373D01*
X156509627Y-117596941D01*
X156750501Y-117957435D01*
X156916418Y-118357994D01*
X157001000Y-118783219D01*
X157001000Y-119216781D01*
X156916418Y-119642006D01*
X156750501Y-120042565D01*
X156509627Y-120403059D01*
X156203059Y-120709627D01*
X155842565Y-120950501D01*
X155442006Y-121116418D01*
X155016781Y-121201000D01*
X154583219Y-121201000D01*
X154157994Y-121116418D01*
X153757435Y-120950501D01*
X153396941Y-120709627D01*
X153090373Y-120403059D01*
X152849499Y-120042565D01*
X152683582Y-119642006D01*
X152599000Y-119216781D01*
X152599000Y-118783219D01*
X152683582Y-118357994D01*
X152849499Y-117957435D01*
X153090373Y-117596941D01*
X153396941Y-117290373D01*
X153757435Y-117049499D01*
X154157994Y-116883582D01*
X154583219Y-116799000D01*
X155016781Y-116799000D01*
X155442006Y-116883582D01*
X155442006Y-116883582D01*
G37*
G36*
X72668228Y-118351703D02*
X72823100Y-118415853D01*
X72962481Y-118508985D01*
X73081015Y-118627519D01*
X73174147Y-118766900D01*
X73238297Y-118921772D01*
X73271000Y-119086184D01*
X73271000Y-119253816D01*
X73238297Y-119418228D01*
X73174147Y-119573100D01*
X73081015Y-119712481D01*
X72962481Y-119831015D01*
X72823100Y-119924147D01*
X72668228Y-119988297D01*
X72503816Y-120021000D01*
X72336184Y-120021000D01*
X72171772Y-119988297D01*
X72016900Y-119924147D01*
X71877519Y-119831015D01*
X71758985Y-119712481D01*
X71665853Y-119573100D01*
X71601703Y-119418228D01*
X71569000Y-119253816D01*
X71569000Y-119086184D01*
X71601703Y-118921772D01*
X71665853Y-118766900D01*
X71758985Y-118627519D01*
X71877519Y-118508985D01*
X72016900Y-118415853D01*
X72171772Y-118351703D01*
X72336184Y-118319000D01*
X72503816Y-118319000D01*
X72668228Y-118351703D01*
X72668228Y-118351703D01*
G37*
G36*
X57428228Y-118351703D02*
X57583100Y-118415853D01*
X57722481Y-118508985D01*
X57841015Y-118627519D01*
X57934147Y-118766900D01*
X57998297Y-118921772D01*
X58031000Y-119086184D01*
X58031000Y-119253816D01*
X57998297Y-119418228D01*
X57934147Y-119573100D01*
X57841015Y-119712481D01*
X57722481Y-119831015D01*
X57583100Y-119924147D01*
X57428228Y-119988297D01*
X57263816Y-120021000D01*
X57096184Y-120021000D01*
X56931772Y-119988297D01*
X56776900Y-119924147D01*
X56637519Y-119831015D01*
X56518985Y-119712481D01*
X56425853Y-119573100D01*
X56361703Y-119418228D01*
X56329000Y-119253816D01*
X56329000Y-119086184D01*
X56361703Y-118921772D01*
X56425853Y-118766900D01*
X56518985Y-118627519D01*
X56637519Y-118508985D01*
X56776900Y-118415853D01*
X56931772Y-118351703D01*
X57096184Y-118319000D01*
X57263816Y-118319000D01*
X57428228Y-118351703D01*
X57428228Y-118351703D01*
G37*
G36*
X72668228Y-115811703D02*
X72823100Y-115875853D01*
X72962481Y-115968985D01*
X73081015Y-116087519D01*
X73174147Y-116226900D01*
X73238297Y-116381772D01*
X73271000Y-116546184D01*
X73271000Y-116713816D01*
X73238297Y-116878228D01*
X73174147Y-117033100D01*
X73081015Y-117172481D01*
X72962481Y-117291015D01*
X72823100Y-117384147D01*
X72668228Y-117448297D01*
X72503816Y-117481000D01*
X72336184Y-117481000D01*
X72171772Y-117448297D01*
X72016900Y-117384147D01*
X71877519Y-117291015D01*
X71758985Y-117172481D01*
X71665853Y-117033100D01*
X71601703Y-116878228D01*
X71569000Y-116713816D01*
X71569000Y-116546184D01*
X71601703Y-116381772D01*
X71665853Y-116226900D01*
X71758985Y-116087519D01*
X71877519Y-115968985D01*
X72016900Y-115875853D01*
X72171772Y-115811703D01*
X72336184Y-115779000D01*
X72503816Y-115779000D01*
X72668228Y-115811703D01*
X72668228Y-115811703D01*
G37*
G36*
X57428228Y-115811703D02*
X57583100Y-115875853D01*
X57722481Y-115968985D01*
X57841015Y-116087519D01*
X57934147Y-116226900D01*
X57998297Y-116381772D01*
X58031000Y-116546184D01*
X58031000Y-116713816D01*
X57998297Y-116878228D01*
X57934147Y-117033100D01*
X57841015Y-117172481D01*
X57722481Y-117291015D01*
X57583100Y-117384147D01*
X57428228Y-117448297D01*
X57263816Y-117481000D01*
X57096184Y-117481000D01*
X56931772Y-117448297D01*
X56776900Y-117384147D01*
X56637519Y-117291015D01*
X56518985Y-117172481D01*
X56425853Y-117033100D01*
X56361703Y-116878228D01*
X56329000Y-116713816D01*
X56329000Y-116546184D01*
X56361703Y-116381772D01*
X56425853Y-116226900D01*
X56518985Y-116087519D01*
X56637519Y-115968985D01*
X56776900Y-115875853D01*
X56931772Y-115811703D01*
X57096184Y-115779000D01*
X57263816Y-115779000D01*
X57428228Y-115811703D01*
X57428228Y-115811703D01*
G37*
G36*
X72668228Y-113271703D02*
X72823100Y-113335853D01*
X72962481Y-113428985D01*
X73081015Y-113547519D01*
X73174147Y-113686900D01*
X73238297Y-113841772D01*
X73271000Y-114006184D01*
X73271000Y-114173816D01*
X73238297Y-114338228D01*
X73174147Y-114493100D01*
X73081015Y-114632481D01*
X72962481Y-114751015D01*
X72823100Y-114844147D01*
X72668228Y-114908297D01*
X72503816Y-114941000D01*
X72336184Y-114941000D01*
X72171772Y-114908297D01*
X72016900Y-114844147D01*
X71877519Y-114751015D01*
X71758985Y-114632481D01*
X71665853Y-114493100D01*
X71601703Y-114338228D01*
X71569000Y-114173816D01*
X71569000Y-114006184D01*
X71601703Y-113841772D01*
X71665853Y-113686900D01*
X71758985Y-113547519D01*
X71877519Y-113428985D01*
X72016900Y-113335853D01*
X72171772Y-113271703D01*
X72336184Y-113239000D01*
X72503816Y-113239000D01*
X72668228Y-113271703D01*
X72668228Y-113271703D01*
G37*
G36*
X57428228Y-113271703D02*
X57583100Y-113335853D01*
X57722481Y-113428985D01*
X57841015Y-113547519D01*
X57934147Y-113686900D01*
X57998297Y-113841772D01*
X58031000Y-114006184D01*
X58031000Y-114173816D01*
X57998297Y-114338228D01*
X57934147Y-114493100D01*
X57841015Y-114632481D01*
X57722481Y-114751015D01*
X57583100Y-114844147D01*
X57428228Y-114908297D01*
X57263816Y-114941000D01*
X57096184Y-114941000D01*
X56931772Y-114908297D01*
X56776900Y-114844147D01*
X56637519Y-114751015D01*
X56518985Y-114632481D01*
X56425853Y-114493100D01*
X56361703Y-114338228D01*
X56329000Y-114173816D01*
X56329000Y-114006184D01*
X56361703Y-113841772D01*
X56425853Y-113686900D01*
X56518985Y-113547519D01*
X56637519Y-113428985D01*
X56776900Y-113335853D01*
X56931772Y-113271703D01*
X57096184Y-113239000D01*
X57263816Y-113239000D01*
X57428228Y-113271703D01*
X57428228Y-113271703D01*
G37*
G36*
X57428228Y-110731703D02*
X57583100Y-110795853D01*
X57722481Y-110888985D01*
X57841015Y-111007519D01*
X57934147Y-111146900D01*
X57998297Y-111301772D01*
X58031000Y-111466184D01*
X58031000Y-111633816D01*
X57998297Y-111798228D01*
X57934147Y-111953100D01*
X57841015Y-112092481D01*
X57722481Y-112211015D01*
X57583100Y-112304147D01*
X57428228Y-112368297D01*
X57263816Y-112401000D01*
X57096184Y-112401000D01*
X56931772Y-112368297D01*
X56776900Y-112304147D01*
X56637519Y-112211015D01*
X56518985Y-112092481D01*
X56425853Y-111953100D01*
X56361703Y-111798228D01*
X56329000Y-111633816D01*
X56329000Y-111466184D01*
X56361703Y-111301772D01*
X56425853Y-111146900D01*
X56518985Y-111007519D01*
X56637519Y-110888985D01*
X56776900Y-110795853D01*
X56931772Y-110731703D01*
X57096184Y-110699000D01*
X57263816Y-110699000D01*
X57428228Y-110731703D01*
X57428228Y-110731703D01*
G37*
G36*
X72668228Y-110731703D02*
X72823100Y-110795853D01*
X72962481Y-110888985D01*
X73081015Y-111007519D01*
X73174147Y-111146900D01*
X73238297Y-111301772D01*
X73271000Y-111466184D01*
X73271000Y-111633816D01*
X73238297Y-111798228D01*
X73174147Y-111953100D01*
X73081015Y-112092481D01*
X72962481Y-112211015D01*
X72823100Y-112304147D01*
X72668228Y-112368297D01*
X72503816Y-112401000D01*
X72336184Y-112401000D01*
X72171772Y-112368297D01*
X72016900Y-112304147D01*
X71877519Y-112211015D01*
X71758985Y-112092481D01*
X71665853Y-111953100D01*
X71601703Y-111798228D01*
X71569000Y-111633816D01*
X71569000Y-111466184D01*
X71601703Y-111301772D01*
X71665853Y-111146900D01*
X71758985Y-111007519D01*
X71877519Y-110888985D01*
X72016900Y-110795853D01*
X72171772Y-110731703D01*
X72336184Y-110699000D01*
X72503816Y-110699000D01*
X72668228Y-110731703D01*
X72668228Y-110731703D01*
G37*
G36*
X72668228Y-108191703D02*
X72823100Y-108255853D01*
X72962481Y-108348985D01*
X73081015Y-108467519D01*
X73174147Y-108606900D01*
X73238297Y-108761772D01*
X73271000Y-108926184D01*
X73271000Y-109093816D01*
X73238297Y-109258228D01*
X73174147Y-109413100D01*
X73081015Y-109552481D01*
X72962481Y-109671015D01*
X72823100Y-109764147D01*
X72668228Y-109828297D01*
X72503816Y-109861000D01*
X72336184Y-109861000D01*
X72171772Y-109828297D01*
X72016900Y-109764147D01*
X71877519Y-109671015D01*
X71758985Y-109552481D01*
X71665853Y-109413100D01*
X71601703Y-109258228D01*
X71569000Y-109093816D01*
X71569000Y-108926184D01*
X71601703Y-108761772D01*
X71665853Y-108606900D01*
X71758985Y-108467519D01*
X71877519Y-108348985D01*
X72016900Y-108255853D01*
X72171772Y-108191703D01*
X72336184Y-108159000D01*
X72503816Y-108159000D01*
X72668228Y-108191703D01*
X72668228Y-108191703D01*
G37*
G36*
X57428228Y-108191703D02*
X57583100Y-108255853D01*
X57722481Y-108348985D01*
X57841015Y-108467519D01*
X57934147Y-108606900D01*
X57998297Y-108761772D01*
X58031000Y-108926184D01*
X58031000Y-109093816D01*
X57998297Y-109258228D01*
X57934147Y-109413100D01*
X57841015Y-109552481D01*
X57722481Y-109671015D01*
X57583100Y-109764147D01*
X57428228Y-109828297D01*
X57263816Y-109861000D01*
X57096184Y-109861000D01*
X56931772Y-109828297D01*
X56776900Y-109764147D01*
X56637519Y-109671015D01*
X56518985Y-109552481D01*
X56425853Y-109413100D01*
X56361703Y-109258228D01*
X56329000Y-109093816D01*
X56329000Y-108926184D01*
X56361703Y-108761772D01*
X56425853Y-108606900D01*
X56518985Y-108467519D01*
X56637519Y-108348985D01*
X56776900Y-108255853D01*
X56931772Y-108191703D01*
X57096184Y-108159000D01*
X57263816Y-108159000D01*
X57428228Y-108191703D01*
X57428228Y-108191703D01*
G37*
G36*
X57428228Y-105651703D02*
X57583100Y-105715853D01*
X57722481Y-105808985D01*
X57841015Y-105927519D01*
X57934147Y-106066900D01*
X57998297Y-106221772D01*
X58031000Y-106386184D01*
X58031000Y-106553816D01*
X57998297Y-106718228D01*
X57934147Y-106873100D01*
X57841015Y-107012481D01*
X57722481Y-107131015D01*
X57583100Y-107224147D01*
X57428228Y-107288297D01*
X57263816Y-107321000D01*
X57096184Y-107321000D01*
X56931772Y-107288297D01*
X56776900Y-107224147D01*
X56637519Y-107131015D01*
X56518985Y-107012481D01*
X56425853Y-106873100D01*
X56361703Y-106718228D01*
X56329000Y-106553816D01*
X56329000Y-106386184D01*
X56361703Y-106221772D01*
X56425853Y-106066900D01*
X56518985Y-105927519D01*
X56637519Y-105808985D01*
X56776900Y-105715853D01*
X56931772Y-105651703D01*
X57096184Y-105619000D01*
X57263816Y-105619000D01*
X57428228Y-105651703D01*
X57428228Y-105651703D01*
G37*
G36*
X72668228Y-105651703D02*
X72823100Y-105715853D01*
X72962481Y-105808985D01*
X73081015Y-105927519D01*
X73174147Y-106066900D01*
X73238297Y-106221772D01*
X73271000Y-106386184D01*
X73271000Y-106553816D01*
X73238297Y-106718228D01*
X73174147Y-106873100D01*
X73081015Y-107012481D01*
X72962481Y-107131015D01*
X72823100Y-107224147D01*
X72668228Y-107288297D01*
X72503816Y-107321000D01*
X72336184Y-107321000D01*
X72171772Y-107288297D01*
X72016900Y-107224147D01*
X71877519Y-107131015D01*
X71758985Y-107012481D01*
X71665853Y-106873100D01*
X71601703Y-106718228D01*
X71569000Y-106553816D01*
X71569000Y-106386184D01*
X71601703Y-106221772D01*
X71665853Y-106066900D01*
X71758985Y-105927519D01*
X71877519Y-105808985D01*
X72016900Y-105715853D01*
X72171772Y-105651703D01*
X72336184Y-105619000D01*
X72503816Y-105619000D01*
X72668228Y-105651703D01*
X72668228Y-105651703D01*
G37*
G36*
X72668228Y-103111703D02*
X72823100Y-103175853D01*
X72962481Y-103268985D01*
X73081015Y-103387519D01*
X73174147Y-103526900D01*
X73238297Y-103681772D01*
X73271000Y-103846184D01*
X73271000Y-104013816D01*
X73238297Y-104178228D01*
X73174147Y-104333100D01*
X73081015Y-104472481D01*
X72962481Y-104591015D01*
X72823100Y-104684147D01*
X72668228Y-104748297D01*
X72503816Y-104781000D01*
X72336184Y-104781000D01*
X72171772Y-104748297D01*
X72016900Y-104684147D01*
X71877519Y-104591015D01*
X71758985Y-104472481D01*
X71665853Y-104333100D01*
X71601703Y-104178228D01*
X71569000Y-104013816D01*
X71569000Y-103846184D01*
X71601703Y-103681772D01*
X71665853Y-103526900D01*
X71758985Y-103387519D01*
X71877519Y-103268985D01*
X72016900Y-103175853D01*
X72171772Y-103111703D01*
X72336184Y-103079000D01*
X72503816Y-103079000D01*
X72668228Y-103111703D01*
X72668228Y-103111703D01*
G37*
G36*
X57428228Y-103111703D02*
X57583100Y-103175853D01*
X57722481Y-103268985D01*
X57841015Y-103387519D01*
X57934147Y-103526900D01*
X57998297Y-103681772D01*
X58031000Y-103846184D01*
X58031000Y-104013816D01*
X57998297Y-104178228D01*
X57934147Y-104333100D01*
X57841015Y-104472481D01*
X57722481Y-104591015D01*
X57583100Y-104684147D01*
X57428228Y-104748297D01*
X57263816Y-104781000D01*
X57096184Y-104781000D01*
X56931772Y-104748297D01*
X56776900Y-104684147D01*
X56637519Y-104591015D01*
X56518985Y-104472481D01*
X56425853Y-104333100D01*
X56361703Y-104178228D01*
X56329000Y-104013816D01*
X56329000Y-103846184D01*
X56361703Y-103681772D01*
X56425853Y-103526900D01*
X56518985Y-103387519D01*
X56637519Y-103268985D01*
X56776900Y-103175853D01*
X56931772Y-103111703D01*
X57096184Y-103079000D01*
X57263816Y-103079000D01*
X57428228Y-103111703D01*
X57428228Y-103111703D01*
G37*
G36*
X72668228Y-100571703D02*
X72823100Y-100635853D01*
X72962481Y-100728985D01*
X73081015Y-100847519D01*
X73174147Y-100986900D01*
X73238297Y-101141772D01*
X73271000Y-101306184D01*
X73271000Y-101473816D01*
X73238297Y-101638228D01*
X73174147Y-101793100D01*
X73081015Y-101932481D01*
X72962481Y-102051015D01*
X72823100Y-102144147D01*
X72668228Y-102208297D01*
X72503816Y-102241000D01*
X72336184Y-102241000D01*
X72171772Y-102208297D01*
X72016900Y-102144147D01*
X71877519Y-102051015D01*
X71758985Y-101932481D01*
X71665853Y-101793100D01*
X71601703Y-101638228D01*
X71569000Y-101473816D01*
X71569000Y-101306184D01*
X71601703Y-101141772D01*
X71665853Y-100986900D01*
X71758985Y-100847519D01*
X71877519Y-100728985D01*
X72016900Y-100635853D01*
X72171772Y-100571703D01*
X72336184Y-100539000D01*
X72503816Y-100539000D01*
X72668228Y-100571703D01*
X72668228Y-100571703D01*
G37*
G36*
X57428228Y-100571703D02*
X57583100Y-100635853D01*
X57722481Y-100728985D01*
X57841015Y-100847519D01*
X57934147Y-100986900D01*
X57998297Y-101141772D01*
X58031000Y-101306184D01*
X58031000Y-101473816D01*
X57998297Y-101638228D01*
X57934147Y-101793100D01*
X57841015Y-101932481D01*
X57722481Y-102051015D01*
X57583100Y-102144147D01*
X57428228Y-102208297D01*
X57263816Y-102241000D01*
X57096184Y-102241000D01*
X56931772Y-102208297D01*
X56776900Y-102144147D01*
X56637519Y-102051015D01*
X56518985Y-101932481D01*
X56425853Y-101793100D01*
X56361703Y-101638228D01*
X56329000Y-101473816D01*
X56329000Y-101306184D01*
X56361703Y-101141772D01*
X56425853Y-100986900D01*
X56518985Y-100847519D01*
X56637519Y-100728985D01*
X56776900Y-100635853D01*
X56931772Y-100571703D01*
X57096184Y-100539000D01*
X57263816Y-100539000D01*
X57428228Y-100571703D01*
X57428228Y-100571703D01*
G37*
G36*
X72668228Y-98031703D02*
X72823100Y-98095853D01*
X72962481Y-98188985D01*
X73081015Y-98307519D01*
X73174147Y-98446900D01*
X73238297Y-98601772D01*
X73271000Y-98766184D01*
X73271000Y-98933816D01*
X73238297Y-99098228D01*
X73174147Y-99253100D01*
X73081015Y-99392481D01*
X72962481Y-99511015D01*
X72823100Y-99604147D01*
X72668228Y-99668297D01*
X72503816Y-99701000D01*
X72336184Y-99701000D01*
X72171772Y-99668297D01*
X72016900Y-99604147D01*
X71877519Y-99511015D01*
X71758985Y-99392481D01*
X71665853Y-99253100D01*
X71601703Y-99098228D01*
X71569000Y-98933816D01*
X71569000Y-98766184D01*
X71601703Y-98601772D01*
X71665853Y-98446900D01*
X71758985Y-98307519D01*
X71877519Y-98188985D01*
X72016900Y-98095853D01*
X72171772Y-98031703D01*
X72336184Y-97999000D01*
X72503816Y-97999000D01*
X72668228Y-98031703D01*
X72668228Y-98031703D01*
G37*
G36*
X57428228Y-98031703D02*
X57583100Y-98095853D01*
X57722481Y-98188985D01*
X57841015Y-98307519D01*
X57934147Y-98446900D01*
X57998297Y-98601772D01*
X58031000Y-98766184D01*
X58031000Y-98933816D01*
X57998297Y-99098228D01*
X57934147Y-99253100D01*
X57841015Y-99392481D01*
X57722481Y-99511015D01*
X57583100Y-99604147D01*
X57428228Y-99668297D01*
X57263816Y-99701000D01*
X57096184Y-99701000D01*
X56931772Y-99668297D01*
X56776900Y-99604147D01*
X56637519Y-99511015D01*
X56518985Y-99392481D01*
X56425853Y-99253100D01*
X56361703Y-99098228D01*
X56329000Y-98933816D01*
X56329000Y-98766184D01*
X56361703Y-98601772D01*
X56425853Y-98446900D01*
X56518985Y-98307519D01*
X56637519Y-98188985D01*
X56776900Y-98095853D01*
X56931772Y-98031703D01*
X57096184Y-97999000D01*
X57263816Y-97999000D01*
X57428228Y-98031703D01*
X57428228Y-98031703D01*
G37*
G36*
X72668228Y-95491703D02*
X72823100Y-95555853D01*
X72962481Y-95648985D01*
X73081015Y-95767519D01*
X73174147Y-95906900D01*
X73238297Y-96061772D01*
X73271000Y-96226184D01*
X73271000Y-96393816D01*
X73238297Y-96558228D01*
X73174147Y-96713100D01*
X73081015Y-96852481D01*
X72962481Y-96971015D01*
X72823100Y-97064147D01*
X72668228Y-97128297D01*
X72503816Y-97161000D01*
X72336184Y-97161000D01*
X72171772Y-97128297D01*
X72016900Y-97064147D01*
X71877519Y-96971015D01*
X71758985Y-96852481D01*
X71665853Y-96713100D01*
X71601703Y-96558228D01*
X71569000Y-96393816D01*
X71569000Y-96226184D01*
X71601703Y-96061772D01*
X71665853Y-95906900D01*
X71758985Y-95767519D01*
X71877519Y-95648985D01*
X72016900Y-95555853D01*
X72171772Y-95491703D01*
X72336184Y-95459000D01*
X72503816Y-95459000D01*
X72668228Y-95491703D01*
X72668228Y-95491703D01*
G37*
G36*
X57428228Y-95491703D02*
X57583100Y-95555853D01*
X57722481Y-95648985D01*
X57841015Y-95767519D01*
X57934147Y-95906900D01*
X57998297Y-96061772D01*
X58031000Y-96226184D01*
X58031000Y-96393816D01*
X57998297Y-96558228D01*
X57934147Y-96713100D01*
X57841015Y-96852481D01*
X57722481Y-96971015D01*
X57583100Y-97064147D01*
X57428228Y-97128297D01*
X57263816Y-97161000D01*
X57096184Y-97161000D01*
X56931772Y-97128297D01*
X56776900Y-97064147D01*
X56637519Y-96971015D01*
X56518985Y-96852481D01*
X56425853Y-96713100D01*
X56361703Y-96558228D01*
X56329000Y-96393816D01*
X56329000Y-96226184D01*
X56361703Y-96061772D01*
X56425853Y-95906900D01*
X56518985Y-95767519D01*
X56637519Y-95648985D01*
X56776900Y-95555853D01*
X56931772Y-95491703D01*
X57096184Y-95459000D01*
X57263816Y-95459000D01*
X57428228Y-95491703D01*
X57428228Y-95491703D01*
G37*
G36*
X72668228Y-92951703D02*
X72823100Y-93015853D01*
X72962481Y-93108985D01*
X73081015Y-93227519D01*
X73174147Y-93366900D01*
X73238297Y-93521772D01*
X73271000Y-93686184D01*
X73271000Y-93853816D01*
X73238297Y-94018228D01*
X73174147Y-94173100D01*
X73081015Y-94312481D01*
X72962481Y-94431015D01*
X72823100Y-94524147D01*
X72668228Y-94588297D01*
X72503816Y-94621000D01*
X72336184Y-94621000D01*
X72171772Y-94588297D01*
X72016900Y-94524147D01*
X71877519Y-94431015D01*
X71758985Y-94312481D01*
X71665853Y-94173100D01*
X71601703Y-94018228D01*
X71569000Y-93853816D01*
X71569000Y-93686184D01*
X71601703Y-93521772D01*
X71665853Y-93366900D01*
X71758985Y-93227519D01*
X71877519Y-93108985D01*
X72016900Y-93015853D01*
X72171772Y-92951703D01*
X72336184Y-92919000D01*
X72503816Y-92919000D01*
X72668228Y-92951703D01*
X72668228Y-92951703D01*
G37*
G36*
X57428228Y-92951703D02*
X57583100Y-93015853D01*
X57722481Y-93108985D01*
X57841015Y-93227519D01*
X57934147Y-93366900D01*
X57998297Y-93521772D01*
X58031000Y-93686184D01*
X58031000Y-93853816D01*
X57998297Y-94018228D01*
X57934147Y-94173100D01*
X57841015Y-94312481D01*
X57722481Y-94431015D01*
X57583100Y-94524147D01*
X57428228Y-94588297D01*
X57263816Y-94621000D01*
X57096184Y-94621000D01*
X56931772Y-94588297D01*
X56776900Y-94524147D01*
X56637519Y-94431015D01*
X56518985Y-94312481D01*
X56425853Y-94173100D01*
X56361703Y-94018228D01*
X56329000Y-93853816D01*
X56329000Y-93686184D01*
X56361703Y-93521772D01*
X56425853Y-93366900D01*
X56518985Y-93227519D01*
X56637519Y-93108985D01*
X56776900Y-93015853D01*
X56931772Y-92951703D01*
X57096184Y-92919000D01*
X57263816Y-92919000D01*
X57428228Y-92951703D01*
X57428228Y-92951703D01*
G37*
G36*
X57428228Y-90411703D02*
X57583100Y-90475853D01*
X57722481Y-90568985D01*
X57841015Y-90687519D01*
X57934147Y-90826900D01*
X57998297Y-90981772D01*
X58031000Y-91146184D01*
X58031000Y-91313816D01*
X57998297Y-91478228D01*
X57934147Y-91633100D01*
X57841015Y-91772481D01*
X57722481Y-91891015D01*
X57583100Y-91984147D01*
X57428228Y-92048297D01*
X57263816Y-92081000D01*
X57096184Y-92081000D01*
X56931772Y-92048297D01*
X56776900Y-91984147D01*
X56637519Y-91891015D01*
X56518985Y-91772481D01*
X56425853Y-91633100D01*
X56361703Y-91478228D01*
X56329000Y-91313816D01*
X56329000Y-91146184D01*
X56361703Y-90981772D01*
X56425853Y-90826900D01*
X56518985Y-90687519D01*
X56637519Y-90568985D01*
X56776900Y-90475853D01*
X56931772Y-90411703D01*
X57096184Y-90379000D01*
X57263816Y-90379000D01*
X57428228Y-90411703D01*
X57428228Y-90411703D01*
G37*
G36*
X72668228Y-90411703D02*
X72823100Y-90475853D01*
X72962481Y-90568985D01*
X73081015Y-90687519D01*
X73174147Y-90826900D01*
X73238297Y-90981772D01*
X73271000Y-91146184D01*
X73271000Y-91313816D01*
X73238297Y-91478228D01*
X73174147Y-91633100D01*
X73081015Y-91772481D01*
X72962481Y-91891015D01*
X72823100Y-91984147D01*
X72668228Y-92048297D01*
X72503816Y-92081000D01*
X72336184Y-92081000D01*
X72171772Y-92048297D01*
X72016900Y-91984147D01*
X71877519Y-91891015D01*
X71758985Y-91772481D01*
X71665853Y-91633100D01*
X71601703Y-91478228D01*
X71569000Y-91313816D01*
X71569000Y-91146184D01*
X71601703Y-90981772D01*
X71665853Y-90826900D01*
X71758985Y-90687519D01*
X71877519Y-90568985D01*
X72016900Y-90475853D01*
X72171772Y-90411703D01*
X72336184Y-90379000D01*
X72503816Y-90379000D01*
X72668228Y-90411703D01*
X72668228Y-90411703D01*
G37*
G36*
X72668228Y-87871703D02*
X72823100Y-87935853D01*
X72962481Y-88028985D01*
X73081015Y-88147519D01*
X73174147Y-88286900D01*
X73238297Y-88441772D01*
X73271000Y-88606184D01*
X73271000Y-88773816D01*
X73238297Y-88938228D01*
X73174147Y-89093100D01*
X73081015Y-89232481D01*
X72962481Y-89351015D01*
X72823100Y-89444147D01*
X72668228Y-89508297D01*
X72503816Y-89541000D01*
X72336184Y-89541000D01*
X72171772Y-89508297D01*
X72016900Y-89444147D01*
X71877519Y-89351015D01*
X71758985Y-89232481D01*
X71665853Y-89093100D01*
X71601703Y-88938228D01*
X71569000Y-88773816D01*
X71569000Y-88606184D01*
X71601703Y-88441772D01*
X71665853Y-88286900D01*
X71758985Y-88147519D01*
X71877519Y-88028985D01*
X72016900Y-87935853D01*
X72171772Y-87871703D01*
X72336184Y-87839000D01*
X72503816Y-87839000D01*
X72668228Y-87871703D01*
X72668228Y-87871703D01*
G37*
G36*
X57428228Y-87871703D02*
X57583100Y-87935853D01*
X57722481Y-88028985D01*
X57841015Y-88147519D01*
X57934147Y-88286900D01*
X57998297Y-88441772D01*
X58031000Y-88606184D01*
X58031000Y-88773816D01*
X57998297Y-88938228D01*
X57934147Y-89093100D01*
X57841015Y-89232481D01*
X57722481Y-89351015D01*
X57583100Y-89444147D01*
X57428228Y-89508297D01*
X57263816Y-89541000D01*
X57096184Y-89541000D01*
X56931772Y-89508297D01*
X56776900Y-89444147D01*
X56637519Y-89351015D01*
X56518985Y-89232481D01*
X56425853Y-89093100D01*
X56361703Y-88938228D01*
X56329000Y-88773816D01*
X56329000Y-88606184D01*
X56361703Y-88441772D01*
X56425853Y-88286900D01*
X56518985Y-88147519D01*
X56637519Y-88028985D01*
X56776900Y-87935853D01*
X56931772Y-87871703D01*
X57096184Y-87839000D01*
X57263816Y-87839000D01*
X57428228Y-87871703D01*
X57428228Y-87871703D01*
G37*
G36*
X57428228Y-85331703D02*
X57583100Y-85395853D01*
X57722481Y-85488985D01*
X57841015Y-85607519D01*
X57934147Y-85746900D01*
X57998297Y-85901772D01*
X58031000Y-86066184D01*
X58031000Y-86233816D01*
X57998297Y-86398228D01*
X57934147Y-86553100D01*
X57841015Y-86692481D01*
X57722481Y-86811015D01*
X57583100Y-86904147D01*
X57428228Y-86968297D01*
X57263816Y-87001000D01*
X57096184Y-87001000D01*
X56931772Y-86968297D01*
X56776900Y-86904147D01*
X56637519Y-86811015D01*
X56518985Y-86692481D01*
X56425853Y-86553100D01*
X56361703Y-86398228D01*
X56329000Y-86233816D01*
X56329000Y-86066184D01*
X56361703Y-85901772D01*
X56425853Y-85746900D01*
X56518985Y-85607519D01*
X56637519Y-85488985D01*
X56776900Y-85395853D01*
X56931772Y-85331703D01*
X57096184Y-85299000D01*
X57263816Y-85299000D01*
X57428228Y-85331703D01*
X57428228Y-85331703D01*
G37*
G36*
X72668228Y-85331703D02*
X72823100Y-85395853D01*
X72962481Y-85488985D01*
X73081015Y-85607519D01*
X73174147Y-85746900D01*
X73238297Y-85901772D01*
X73271000Y-86066184D01*
X73271000Y-86233816D01*
X73238297Y-86398228D01*
X73174147Y-86553100D01*
X73081015Y-86692481D01*
X72962481Y-86811015D01*
X72823100Y-86904147D01*
X72668228Y-86968297D01*
X72503816Y-87001000D01*
X72336184Y-87001000D01*
X72171772Y-86968297D01*
X72016900Y-86904147D01*
X71877519Y-86811015D01*
X71758985Y-86692481D01*
X71665853Y-86553100D01*
X71601703Y-86398228D01*
X71569000Y-86233816D01*
X71569000Y-86066184D01*
X71601703Y-85901772D01*
X71665853Y-85746900D01*
X71758985Y-85607519D01*
X71877519Y-85488985D01*
X72016900Y-85395853D01*
X72171772Y-85331703D01*
X72336184Y-85299000D01*
X72503816Y-85299000D01*
X72668228Y-85331703D01*
X72668228Y-85331703D01*
G37*
G36*
X57428228Y-82791703D02*
X57583100Y-82855853D01*
X57722481Y-82948985D01*
X57841015Y-83067519D01*
X57934147Y-83206900D01*
X57998297Y-83361772D01*
X58031000Y-83526184D01*
X58031000Y-83693816D01*
X57998297Y-83858228D01*
X57934147Y-84013100D01*
X57841015Y-84152481D01*
X57722481Y-84271015D01*
X57583100Y-84364147D01*
X57428228Y-84428297D01*
X57263816Y-84461000D01*
X57096184Y-84461000D01*
X56931772Y-84428297D01*
X56776900Y-84364147D01*
X56637519Y-84271015D01*
X56518985Y-84152481D01*
X56425853Y-84013100D01*
X56361703Y-83858228D01*
X56329000Y-83693816D01*
X56329000Y-83526184D01*
X56361703Y-83361772D01*
X56425853Y-83206900D01*
X56518985Y-83067519D01*
X56637519Y-82948985D01*
X56776900Y-82855853D01*
X56931772Y-82791703D01*
X57096184Y-82759000D01*
X57263816Y-82759000D01*
X57428228Y-82791703D01*
X57428228Y-82791703D01*
G37*
G36*
X72668228Y-82791703D02*
X72823100Y-82855853D01*
X72962481Y-82948985D01*
X73081015Y-83067519D01*
X73174147Y-83206900D01*
X73238297Y-83361772D01*
X73271000Y-83526184D01*
X73271000Y-83693816D01*
X73238297Y-83858228D01*
X73174147Y-84013100D01*
X73081015Y-84152481D01*
X72962481Y-84271015D01*
X72823100Y-84364147D01*
X72668228Y-84428297D01*
X72503816Y-84461000D01*
X72336184Y-84461000D01*
X72171772Y-84428297D01*
X72016900Y-84364147D01*
X71877519Y-84271015D01*
X71758985Y-84152481D01*
X71665853Y-84013100D01*
X71601703Y-83858228D01*
X71569000Y-83693816D01*
X71569000Y-83526184D01*
X71601703Y-83361772D01*
X71665853Y-83206900D01*
X71758985Y-83067519D01*
X71877519Y-82948985D01*
X72016900Y-82855853D01*
X72171772Y-82791703D01*
X72336184Y-82759000D01*
X72503816Y-82759000D01*
X72668228Y-82791703D01*
X72668228Y-82791703D01*
G37*
G36*
X79267396Y-80175546D02*
X79440466Y-80247234D01*
X79596230Y-80351312D01*
X79728688Y-80483770D01*
X79832766Y-80639534D01*
X79904454Y-80812604D01*
X79941000Y-80996333D01*
X79941000Y-81183667D01*
X79904454Y-81367396D01*
X79832766Y-81540466D01*
X79728688Y-81696230D01*
X79596230Y-81828688D01*
X79440466Y-81932766D01*
X79267396Y-82004454D01*
X79083667Y-82041000D01*
X78896333Y-82041000D01*
X78712604Y-82004454D01*
X78539534Y-81932766D01*
X78383770Y-81828688D01*
X78251312Y-81696230D01*
X78147234Y-81540466D01*
X78075546Y-81367396D01*
X78039000Y-81183667D01*
X78039000Y-80996333D01*
X78075546Y-80812604D01*
X78147234Y-80639534D01*
X78251312Y-80483770D01*
X78383770Y-80351312D01*
X78539534Y-80247234D01*
X78712604Y-80175546D01*
X78896333Y-80139000D01*
X79083667Y-80139000D01*
X79267396Y-80175546D01*
X79267396Y-80175546D01*
G37*
G36*
X57428228Y-80251703D02*
X57583100Y-80315853D01*
X57722481Y-80408985D01*
X57841015Y-80527519D01*
X57934147Y-80666900D01*
X57998297Y-80821772D01*
X58031000Y-80986184D01*
X58031000Y-81153816D01*
X57998297Y-81318228D01*
X57934147Y-81473100D01*
X57841015Y-81612481D01*
X57722481Y-81731015D01*
X57583100Y-81824147D01*
X57428228Y-81888297D01*
X57263816Y-81921000D01*
X57096184Y-81921000D01*
X56931772Y-81888297D01*
X56776900Y-81824147D01*
X56637519Y-81731015D01*
X56518985Y-81612481D01*
X56425853Y-81473100D01*
X56361703Y-81318228D01*
X56329000Y-81153816D01*
X56329000Y-80986184D01*
X56361703Y-80821772D01*
X56425853Y-80666900D01*
X56518985Y-80527519D01*
X56637519Y-80408985D01*
X56776900Y-80315853D01*
X56931772Y-80251703D01*
X57096184Y-80219000D01*
X57263816Y-80219000D01*
X57428228Y-80251703D01*
X57428228Y-80251703D01*
G37*
G36*
X72668228Y-80251703D02*
X72823100Y-80315853D01*
X72962481Y-80408985D01*
X73081015Y-80527519D01*
X73174147Y-80666900D01*
X73238297Y-80821772D01*
X73271000Y-80986184D01*
X73271000Y-81153816D01*
X73238297Y-81318228D01*
X73174147Y-81473100D01*
X73081015Y-81612481D01*
X72962481Y-81731015D01*
X72823100Y-81824147D01*
X72668228Y-81888297D01*
X72503816Y-81921000D01*
X72336184Y-81921000D01*
X72171772Y-81888297D01*
X72016900Y-81824147D01*
X71877519Y-81731015D01*
X71758985Y-81612481D01*
X71665853Y-81473100D01*
X71601703Y-81318228D01*
X71569000Y-81153816D01*
X71569000Y-80986184D01*
X71601703Y-80821772D01*
X71665853Y-80666900D01*
X71758985Y-80527519D01*
X71877519Y-80408985D01*
X72016900Y-80315853D01*
X72171772Y-80251703D01*
X72336184Y-80219000D01*
X72503816Y-80219000D01*
X72668228Y-80251703D01*
X72668228Y-80251703D01*
G37*
G36*
X72668228Y-77711703D02*
X72823100Y-77775853D01*
X72962481Y-77868985D01*
X73081015Y-77987519D01*
X73174147Y-78126900D01*
X73238297Y-78281772D01*
X73271000Y-78446184D01*
X73271000Y-78613816D01*
X73238297Y-78778228D01*
X73174147Y-78933100D01*
X73081015Y-79072481D01*
X72962481Y-79191015D01*
X72823100Y-79284147D01*
X72668228Y-79348297D01*
X72503816Y-79381000D01*
X72336184Y-79381000D01*
X72171772Y-79348297D01*
X72016900Y-79284147D01*
X71877519Y-79191015D01*
X71758985Y-79072481D01*
X71665853Y-78933100D01*
X71601703Y-78778228D01*
X71569000Y-78613816D01*
X71569000Y-78446184D01*
X71601703Y-78281772D01*
X71665853Y-78126900D01*
X71758985Y-77987519D01*
X71877519Y-77868985D01*
X72016900Y-77775853D01*
X72171772Y-77711703D01*
X72336184Y-77679000D01*
X72503816Y-77679000D01*
X72668228Y-77711703D01*
X72668228Y-77711703D01*
G37*
G36*
X57428228Y-77711703D02*
X57583100Y-77775853D01*
X57722481Y-77868985D01*
X57841015Y-77987519D01*
X57934147Y-78126900D01*
X57998297Y-78281772D01*
X58031000Y-78446184D01*
X58031000Y-78613816D01*
X57998297Y-78778228D01*
X57934147Y-78933100D01*
X57841015Y-79072481D01*
X57722481Y-79191015D01*
X57583100Y-79284147D01*
X57428228Y-79348297D01*
X57263816Y-79381000D01*
X57096184Y-79381000D01*
X56931772Y-79348297D01*
X56776900Y-79284147D01*
X56637519Y-79191015D01*
X56518985Y-79072481D01*
X56425853Y-78933100D01*
X56361703Y-78778228D01*
X56329000Y-78613816D01*
X56329000Y-78446184D01*
X56361703Y-78281772D01*
X56425853Y-78126900D01*
X56518985Y-77987519D01*
X56637519Y-77868985D01*
X56776900Y-77775853D01*
X56931772Y-77711703D01*
X57096184Y-77679000D01*
X57263816Y-77679000D01*
X57428228Y-77711703D01*
X57428228Y-77711703D01*
G37*
G36*
X99727142Y-77308242D02*
X99875102Y-77369530D01*
X100008258Y-77458502D01*
X100121498Y-77571742D01*
X100210470Y-77704898D01*
X100271758Y-77852858D01*
X100303000Y-78009925D01*
X100303000Y-78170075D01*
X100271758Y-78327142D01*
X100210470Y-78475102D01*
X100121498Y-78608258D01*
X100008258Y-78721498D01*
X99875102Y-78810470D01*
X99727142Y-78871758D01*
X99570075Y-78903000D01*
X99409925Y-78903000D01*
X99252858Y-78871758D01*
X99104898Y-78810470D01*
X98971742Y-78721498D01*
X98858502Y-78608258D01*
X98769530Y-78475102D01*
X98708242Y-78327142D01*
X98677000Y-78170075D01*
X98677000Y-78009925D01*
X98708242Y-77852858D01*
X98769530Y-77704898D01*
X98858502Y-77571742D01*
X98971742Y-77458502D01*
X99104898Y-77369530D01*
X99252858Y-77308242D01*
X99409925Y-77277000D01*
X99570075Y-77277000D01*
X99727142Y-77308242D01*
X99727142Y-77308242D01*
G37*
G36*
X76727142Y-77308242D02*
X76875102Y-77369530D01*
X77008258Y-77458502D01*
X77121498Y-77571742D01*
X77210470Y-77704898D01*
X77271758Y-77852858D01*
X77303000Y-78009925D01*
X77303000Y-78170075D01*
X77271758Y-78327142D01*
X77210470Y-78475102D01*
X77121498Y-78608258D01*
X77008258Y-78721498D01*
X76875102Y-78810470D01*
X76727142Y-78871758D01*
X76570075Y-78903000D01*
X76409925Y-78903000D01*
X76252858Y-78871758D01*
X76104898Y-78810470D01*
X75971742Y-78721498D01*
X75858502Y-78608258D01*
X75769530Y-78475102D01*
X75708242Y-78327142D01*
X75677000Y-78170075D01*
X75677000Y-78009925D01*
X75708242Y-77852858D01*
X75769530Y-77704898D01*
X75858502Y-77571742D01*
X75971742Y-77458502D01*
X76104898Y-77369530D01*
X76252858Y-77308242D01*
X76409925Y-77277000D01*
X76570075Y-77277000D01*
X76727142Y-77308242D01*
X76727142Y-77308242D01*
G37*
G36*
X57428228Y-75171703D02*
X57583100Y-75235853D01*
X57722481Y-75328985D01*
X57841015Y-75447519D01*
X57934147Y-75586900D01*
X57998297Y-75741772D01*
X58031000Y-75906184D01*
X58031000Y-76073816D01*
X57998297Y-76238228D01*
X57934147Y-76393100D01*
X57841015Y-76532481D01*
X57722481Y-76651015D01*
X57583100Y-76744147D01*
X57428228Y-76808297D01*
X57263816Y-76841000D01*
X57096184Y-76841000D01*
X56931772Y-76808297D01*
X56776900Y-76744147D01*
X56637519Y-76651015D01*
X56518985Y-76532481D01*
X56425853Y-76393100D01*
X56361703Y-76238228D01*
X56329000Y-76073816D01*
X56329000Y-75906184D01*
X56361703Y-75741772D01*
X56425853Y-75586900D01*
X56518985Y-75447519D01*
X56637519Y-75328985D01*
X56776900Y-75235853D01*
X56931772Y-75171703D01*
X57096184Y-75139000D01*
X57263816Y-75139000D01*
X57428228Y-75171703D01*
X57428228Y-75171703D01*
G37*
G36*
X72668228Y-75171703D02*
X72823100Y-75235853D01*
X72962481Y-75328985D01*
X73081015Y-75447519D01*
X73174147Y-75586900D01*
X73238297Y-75741772D01*
X73271000Y-75906184D01*
X73271000Y-76073816D01*
X73238297Y-76238228D01*
X73174147Y-76393100D01*
X73081015Y-76532481D01*
X72962481Y-76651015D01*
X72823100Y-76744147D01*
X72668228Y-76808297D01*
X72503816Y-76841000D01*
X72336184Y-76841000D01*
X72171772Y-76808297D01*
X72016900Y-76744147D01*
X71877519Y-76651015D01*
X71758985Y-76532481D01*
X71665853Y-76393100D01*
X71601703Y-76238228D01*
X71569000Y-76073816D01*
X71569000Y-75906184D01*
X71601703Y-75741772D01*
X71665853Y-75586900D01*
X71758985Y-75447519D01*
X71877519Y-75328985D01*
X72016900Y-75235853D01*
X72171772Y-75171703D01*
X72336184Y-75139000D01*
X72503816Y-75139000D01*
X72668228Y-75171703D01*
X72668228Y-75171703D01*
G37*
G36*
X76727142Y-74808242D02*
X76875102Y-74869530D01*
X77008258Y-74958502D01*
X77121498Y-75071742D01*
X77210470Y-75204898D01*
X77271758Y-75352858D01*
X77303000Y-75509925D01*
X77303000Y-75670075D01*
X77271758Y-75827142D01*
X77239017Y-75906184D01*
X77210471Y-75975100D01*
X77144512Y-76073816D01*
X77121498Y-76108258D01*
X77008258Y-76221498D01*
X76875102Y-76310470D01*
X76727142Y-76371758D01*
X76570075Y-76403000D01*
X76409925Y-76403000D01*
X76252858Y-76371758D01*
X76104898Y-76310470D01*
X75971742Y-76221498D01*
X75858502Y-76108258D01*
X75835489Y-76073816D01*
X75769529Y-75975100D01*
X75740983Y-75906184D01*
X75708242Y-75827142D01*
X75677000Y-75670075D01*
X75677000Y-75509925D01*
X75708242Y-75352858D01*
X75769530Y-75204898D01*
X75858502Y-75071742D01*
X75971742Y-74958502D01*
X76104898Y-74869530D01*
X76252858Y-74808242D01*
X76409925Y-74777000D01*
X76570075Y-74777000D01*
X76727142Y-74808242D01*
X76727142Y-74808242D01*
G37*
G36*
X99727142Y-74808242D02*
X99875102Y-74869530D01*
X100008258Y-74958502D01*
X100121498Y-75071742D01*
X100210470Y-75204898D01*
X100271758Y-75352858D01*
X100303000Y-75509925D01*
X100303000Y-75670075D01*
X100271758Y-75827142D01*
X100239017Y-75906184D01*
X100210471Y-75975100D01*
X100144512Y-76073816D01*
X100121498Y-76108258D01*
X100008258Y-76221498D01*
X99875102Y-76310470D01*
X99727142Y-76371758D01*
X99570075Y-76403000D01*
X99409925Y-76403000D01*
X99252858Y-76371758D01*
X99104898Y-76310470D01*
X98971742Y-76221498D01*
X98858502Y-76108258D01*
X98835489Y-76073816D01*
X98769529Y-75975100D01*
X98740983Y-75906184D01*
X98708242Y-75827142D01*
X98677000Y-75670075D01*
X98677000Y-75509925D01*
X98708242Y-75352858D01*
X98769530Y-75204898D01*
X98858502Y-75071742D01*
X98971742Y-74958502D01*
X99104898Y-74869530D01*
X99252858Y-74808242D01*
X99409925Y-74777000D01*
X99570075Y-74777000D01*
X99727142Y-74808242D01*
X99727142Y-74808242D01*
G37*
G36*
X57428228Y-72631703D02*
X57583100Y-72695853D01*
X57722481Y-72788985D01*
X57841015Y-72907519D01*
X57934147Y-73046900D01*
X57998297Y-73201772D01*
X58031000Y-73366184D01*
X58031000Y-73533816D01*
X57998297Y-73698228D01*
X57934147Y-73853100D01*
X57841015Y-73992481D01*
X57722481Y-74111015D01*
X57583100Y-74204147D01*
X57428228Y-74268297D01*
X57263816Y-74301000D01*
X57096184Y-74301000D01*
X56931772Y-74268297D01*
X56776900Y-74204147D01*
X56637519Y-74111015D01*
X56518985Y-73992481D01*
X56425853Y-73853100D01*
X56361703Y-73698228D01*
X56329000Y-73533816D01*
X56329000Y-73366184D01*
X56361703Y-73201772D01*
X56425853Y-73046900D01*
X56518985Y-72907519D01*
X56637519Y-72788985D01*
X56776900Y-72695853D01*
X56931772Y-72631703D01*
X57096184Y-72599000D01*
X57263816Y-72599000D01*
X57428228Y-72631703D01*
X57428228Y-72631703D01*
G37*
G36*
X72668228Y-72631703D02*
X72823100Y-72695853D01*
X72962481Y-72788985D01*
X73081015Y-72907519D01*
X73174147Y-73046900D01*
X73238297Y-73201772D01*
X73271000Y-73366184D01*
X73271000Y-73533816D01*
X73238297Y-73698228D01*
X73174147Y-73853100D01*
X73081015Y-73992481D01*
X72962481Y-74111015D01*
X72823100Y-74204147D01*
X72668228Y-74268297D01*
X72503816Y-74301000D01*
X72336184Y-74301000D01*
X72171772Y-74268297D01*
X72016900Y-74204147D01*
X71877519Y-74111015D01*
X71758985Y-73992481D01*
X71665853Y-73853100D01*
X71601703Y-73698228D01*
X71569000Y-73533816D01*
X71569000Y-73366184D01*
X71601703Y-73201772D01*
X71665853Y-73046900D01*
X71758985Y-72907519D01*
X71877519Y-72788985D01*
X72016900Y-72695853D01*
X72171772Y-72631703D01*
X72336184Y-72599000D01*
X72503816Y-72599000D01*
X72668228Y-72631703D01*
X72668228Y-72631703D01*
G37*
G36*
X72668228Y-70091703D02*
X72823100Y-70155853D01*
X72962481Y-70248985D01*
X73081015Y-70367519D01*
X73174147Y-70506900D01*
X73238297Y-70661772D01*
X73271000Y-70826184D01*
X73271000Y-70993816D01*
X73238297Y-71158228D01*
X73174147Y-71313100D01*
X73081015Y-71452481D01*
X72962481Y-71571015D01*
X72823100Y-71664147D01*
X72668228Y-71728297D01*
X72503816Y-71761000D01*
X72336184Y-71761000D01*
X72171772Y-71728297D01*
X72016900Y-71664147D01*
X71877519Y-71571015D01*
X71758985Y-71452481D01*
X71665853Y-71313100D01*
X71601703Y-71158228D01*
X71569000Y-70993816D01*
X71569000Y-70826184D01*
X71601703Y-70661772D01*
X71665853Y-70506900D01*
X71758985Y-70367519D01*
X71877519Y-70248985D01*
X72016900Y-70155853D01*
X72171772Y-70091703D01*
X72336184Y-70059000D01*
X72503816Y-70059000D01*
X72668228Y-70091703D01*
X72668228Y-70091703D01*
G37*
G36*
X57428228Y-70091703D02*
X57583100Y-70155853D01*
X57722481Y-70248985D01*
X57841015Y-70367519D01*
X57934147Y-70506900D01*
X57998297Y-70661772D01*
X58031000Y-70826184D01*
X58031000Y-70993816D01*
X57998297Y-71158228D01*
X57934147Y-71313100D01*
X57841015Y-71452481D01*
X57722481Y-71571015D01*
X57583100Y-71664147D01*
X57428228Y-71728297D01*
X57263816Y-71761000D01*
X57096184Y-71761000D01*
X56931772Y-71728297D01*
X56776900Y-71664147D01*
X56637519Y-71571015D01*
X56518985Y-71452481D01*
X56425853Y-71313100D01*
X56361703Y-71158228D01*
X56329000Y-70993816D01*
X56329000Y-70826184D01*
X56361703Y-70661772D01*
X56425853Y-70506900D01*
X56518985Y-70367519D01*
X56637519Y-70248985D01*
X56776900Y-70155853D01*
X56931772Y-70091703D01*
X57096184Y-70059000D01*
X57263816Y-70059000D01*
X57428228Y-70091703D01*
X57428228Y-70091703D01*
G37*
G36*
X99727142Y-69808242D02*
X99875102Y-69869530D01*
X100008258Y-69958502D01*
X100121498Y-70071742D01*
X100210470Y-70204898D01*
X100271758Y-70352858D01*
X100303000Y-70509925D01*
X100303000Y-70670075D01*
X100271758Y-70827142D01*
X100210470Y-70975102D01*
X100121498Y-71108258D01*
X100008258Y-71221498D01*
X99875102Y-71310470D01*
X99727142Y-71371758D01*
X99570075Y-71403000D01*
X99409925Y-71403000D01*
X99252858Y-71371758D01*
X99104898Y-71310470D01*
X98971742Y-71221498D01*
X98858502Y-71108258D01*
X98769530Y-70975102D01*
X98708242Y-70827142D01*
X98677000Y-70670075D01*
X98677000Y-70509925D01*
X98708242Y-70352858D01*
X98769530Y-70204898D01*
X98858502Y-70071742D01*
X98971742Y-69958502D01*
X99104898Y-69869530D01*
X99252858Y-69808242D01*
X99409925Y-69777000D01*
X99570075Y-69777000D01*
X99727142Y-69808242D01*
X99727142Y-69808242D01*
G37*
G36*
X40442006Y-65883582D02*
X40842565Y-66049499D01*
X41203059Y-66290373D01*
X41509627Y-66596941D01*
X41750501Y-66957435D01*
X41916418Y-67357994D01*
X42001000Y-67783219D01*
X42001000Y-68216781D01*
X41916418Y-68642006D01*
X41750501Y-69042565D01*
X41509627Y-69403059D01*
X41203059Y-69709627D01*
X40842565Y-69950501D01*
X40442006Y-70116418D01*
X40016781Y-70201000D01*
X39583219Y-70201000D01*
X39157994Y-70116418D01*
X38757435Y-69950501D01*
X38396941Y-69709627D01*
X38090373Y-69403059D01*
X37849499Y-69042565D01*
X37683582Y-68642006D01*
X37599000Y-68216781D01*
X37599000Y-67783219D01*
X37683582Y-67357994D01*
X37849499Y-66957435D01*
X38090373Y-66596941D01*
X38396941Y-66290373D01*
X38757435Y-66049499D01*
X39157994Y-65883582D01*
X39583219Y-65799000D01*
X40016781Y-65799000D01*
X40442006Y-65883582D01*
X40442006Y-65883582D01*
G37*
G36*
X155442006Y-65883582D02*
X155842565Y-66049499D01*
X156203059Y-66290373D01*
X156509627Y-66596941D01*
X156750501Y-66957435D01*
X156916418Y-67357994D01*
X157001000Y-67783219D01*
X157001000Y-68216781D01*
X156916418Y-68642006D01*
X156750501Y-69042565D01*
X156509627Y-69403059D01*
X156203059Y-69709627D01*
X155842565Y-69950501D01*
X155442006Y-70116418D01*
X155016781Y-70201000D01*
X154583219Y-70201000D01*
X154157994Y-70116418D01*
X153757435Y-69950501D01*
X153396941Y-69709627D01*
X153090373Y-69403059D01*
X152849499Y-69042565D01*
X152683582Y-68642006D01*
X152599000Y-68216781D01*
X152599000Y-67783219D01*
X152683582Y-67357994D01*
X152849499Y-66957435D01*
X153090373Y-66596941D01*
X153396941Y-66290373D01*
X153757435Y-66049499D01*
X154157994Y-65883582D01*
X154583219Y-65799000D01*
X155016781Y-65799000D01*
X155442006Y-65883582D01*
X155442006Y-65883582D01*
G37*
G36*
X57428228Y-67551703D02*
X57583100Y-67615853D01*
X57722481Y-67708985D01*
X57841015Y-67827519D01*
X57934147Y-67966900D01*
X57998297Y-68121772D01*
X58031000Y-68286184D01*
X58031000Y-68453816D01*
X57998297Y-68618228D01*
X57934147Y-68773100D01*
X57841015Y-68912481D01*
X57722481Y-69031015D01*
X57583100Y-69124147D01*
X57428228Y-69188297D01*
X57263816Y-69221000D01*
X57096184Y-69221000D01*
X56931772Y-69188297D01*
X56776900Y-69124147D01*
X56637519Y-69031015D01*
X56518985Y-68912481D01*
X56425853Y-68773100D01*
X56361703Y-68618228D01*
X56329000Y-68453816D01*
X56329000Y-68286184D01*
X56361703Y-68121772D01*
X56425853Y-67966900D01*
X56518985Y-67827519D01*
X56637519Y-67708985D01*
X56776900Y-67615853D01*
X56931772Y-67551703D01*
X57096184Y-67519000D01*
X57263816Y-67519000D01*
X57428228Y-67551703D01*
X57428228Y-67551703D01*
G37*
G36*
X72668228Y-67551703D02*
X72823100Y-67615853D01*
X72962481Y-67708985D01*
X73081015Y-67827519D01*
X73174147Y-67966900D01*
X73238297Y-68121772D01*
X73271000Y-68286184D01*
X73271000Y-68453816D01*
X73238297Y-68618228D01*
X73174147Y-68773100D01*
X73081015Y-68912481D01*
X72962481Y-69031015D01*
X72823100Y-69124147D01*
X72668228Y-69188297D01*
X72503816Y-69221000D01*
X72336184Y-69221000D01*
X72171772Y-69188297D01*
X72016900Y-69124147D01*
X71877519Y-69031015D01*
X71758985Y-68912481D01*
X71665853Y-68773100D01*
X71601703Y-68618228D01*
X71569000Y-68453816D01*
X71569000Y-68286184D01*
X71601703Y-68121772D01*
X71665853Y-67966900D01*
X71758985Y-67827519D01*
X71877519Y-67708985D01*
X72016900Y-67615853D01*
X72171772Y-67551703D01*
X72336184Y-67519000D01*
X72503816Y-67519000D01*
X72668228Y-67551703D01*
X72668228Y-67551703D01*
G37*
G36*
X76727142Y-67308242D02*
X76875102Y-67369530D01*
X77008258Y-67458502D01*
X77121498Y-67571742D01*
X77210470Y-67704898D01*
X77271758Y-67852858D01*
X77303000Y-68009925D01*
X77303000Y-68170075D01*
X77271758Y-68327142D01*
X77210470Y-68475102D01*
X77121498Y-68608258D01*
X77008258Y-68721498D01*
X76875102Y-68810470D01*
X76727142Y-68871758D01*
X76570075Y-68903000D01*
X76409925Y-68903000D01*
X76252858Y-68871758D01*
X76104898Y-68810470D01*
X75971742Y-68721498D01*
X75858502Y-68608258D01*
X75769530Y-68475102D01*
X75708242Y-68327142D01*
X75677000Y-68170075D01*
X75677000Y-68009925D01*
X75708242Y-67852858D01*
X75769530Y-67704898D01*
X75858502Y-67571742D01*
X75971742Y-67458502D01*
X76104898Y-67369530D01*
X76252858Y-67308242D01*
X76409925Y-67277000D01*
X76570075Y-67277000D01*
X76727142Y-67308242D01*
X76727142Y-67308242D01*
G37*
G36*
X99727142Y-67308242D02*
X99875102Y-67369530D01*
X100008258Y-67458502D01*
X100121498Y-67571742D01*
X100210470Y-67704898D01*
X100271758Y-67852858D01*
X100303000Y-68009925D01*
X100303000Y-68170075D01*
X100271758Y-68327142D01*
X100210470Y-68475102D01*
X100121498Y-68608258D01*
X100008258Y-68721498D01*
X99875102Y-68810470D01*
X99727142Y-68871758D01*
X99570075Y-68903000D01*
X99409925Y-68903000D01*
X99252858Y-68871758D01*
X99104898Y-68810470D01*
X98971742Y-68721498D01*
X98858502Y-68608258D01*
X98769530Y-68475102D01*
X98708242Y-68327142D01*
X98677000Y-68170075D01*
X98677000Y-68009925D01*
X98708242Y-67852858D01*
X98769530Y-67704898D01*
X98858502Y-67571742D01*
X98971742Y-67458502D01*
X99104898Y-67369530D01*
X99252858Y-67308242D01*
X99409925Y-67277000D01*
X99570075Y-67277000D01*
X99727142Y-67308242D01*
X99727142Y-67308242D01*
G37*
G36*
X72668228Y-65011703D02*
X72823100Y-65075853D01*
X72962481Y-65168985D01*
X73081015Y-65287519D01*
X73174147Y-65426900D01*
X73238297Y-65581772D01*
X73271000Y-65746184D01*
X73271000Y-65913816D01*
X73238297Y-66078228D01*
X73174147Y-66233100D01*
X73081015Y-66372481D01*
X72962481Y-66491015D01*
X72823100Y-66584147D01*
X72668228Y-66648297D01*
X72503816Y-66681000D01*
X72336184Y-66681000D01*
X72171772Y-66648297D01*
X72016900Y-66584147D01*
X71877519Y-66491015D01*
X71758985Y-66372481D01*
X71665853Y-66233100D01*
X71601703Y-66078228D01*
X71569000Y-65913816D01*
X71569000Y-65746184D01*
X71601703Y-65581772D01*
X71665853Y-65426900D01*
X71758985Y-65287519D01*
X71877519Y-65168985D01*
X72016900Y-65075853D01*
X72171772Y-65011703D01*
X72336184Y-64979000D01*
X72503816Y-64979000D01*
X72668228Y-65011703D01*
X72668228Y-65011703D01*
G37*
G36*
X57428228Y-65011703D02*
X57583100Y-65075853D01*
X57722481Y-65168985D01*
X57841015Y-65287519D01*
X57934147Y-65426900D01*
X57998297Y-65581772D01*
X58031000Y-65746184D01*
X58031000Y-65913816D01*
X57998297Y-66078228D01*
X57934147Y-66233100D01*
X57841015Y-66372481D01*
X57722481Y-66491015D01*
X57583100Y-66584147D01*
X57428228Y-66648297D01*
X57263816Y-66681000D01*
X57096184Y-66681000D01*
X56931772Y-66648297D01*
X56776900Y-66584147D01*
X56637519Y-66491015D01*
X56518985Y-66372481D01*
X56425853Y-66233100D01*
X56361703Y-66078228D01*
X56329000Y-65913816D01*
X56329000Y-65746184D01*
X56361703Y-65581772D01*
X56425853Y-65426900D01*
X56518985Y-65287519D01*
X56637519Y-65168985D01*
X56776900Y-65075853D01*
X56931772Y-65011703D01*
X57096184Y-64979000D01*
X57263816Y-64979000D01*
X57428228Y-65011703D01*
X57428228Y-65011703D01*
G37*
G36*
X97267396Y-64175546D02*
X97440466Y-64247234D01*
X97596230Y-64351312D01*
X97728688Y-64483770D01*
X97832766Y-64639534D01*
X97904454Y-64812604D01*
X97941000Y-64996333D01*
X97941000Y-65183667D01*
X97904454Y-65367396D01*
X97832766Y-65540466D01*
X97728688Y-65696230D01*
X97596230Y-65828688D01*
X97440466Y-65932766D01*
X97267396Y-66004454D01*
X97083667Y-66041000D01*
X96896333Y-66041000D01*
X96712604Y-66004454D01*
X96539534Y-65932766D01*
X96383770Y-65828688D01*
X96251312Y-65696230D01*
X96147234Y-65540466D01*
X96075546Y-65367396D01*
X96039000Y-65183667D01*
X96039000Y-64996333D01*
X96075546Y-64812604D01*
X96147234Y-64639534D01*
X96251312Y-64483770D01*
X96383770Y-64351312D01*
X96539534Y-64247234D01*
X96712604Y-64175546D01*
X96896333Y-64139000D01*
X97083667Y-64139000D01*
X97267396Y-64175546D01*
X97267396Y-64175546D01*
G37*
G36*
X57428228Y-62471703D02*
X57583100Y-62535853D01*
X57722481Y-62628985D01*
X57841015Y-62747519D01*
X57934147Y-62886900D01*
X57998297Y-63041772D01*
X58031000Y-63206184D01*
X58031000Y-63373816D01*
X57998297Y-63538228D01*
X57934147Y-63693100D01*
X57841015Y-63832481D01*
X57722481Y-63951015D01*
X57583100Y-64044147D01*
X57428228Y-64108297D01*
X57263816Y-64141000D01*
X57096184Y-64141000D01*
X56931772Y-64108297D01*
X56776900Y-64044147D01*
X56637519Y-63951015D01*
X56518985Y-63832481D01*
X56425853Y-63693100D01*
X56361703Y-63538228D01*
X56329000Y-63373816D01*
X56329000Y-63206184D01*
X56361703Y-63041772D01*
X56425853Y-62886900D01*
X56518985Y-62747519D01*
X56637519Y-62628985D01*
X56776900Y-62535853D01*
X56931772Y-62471703D01*
X57096184Y-62439000D01*
X57263816Y-62439000D01*
X57428228Y-62471703D01*
X57428228Y-62471703D01*
G37*
G36*
X72668228Y-62471703D02*
X72823100Y-62535853D01*
X72962481Y-62628985D01*
X73081015Y-62747519D01*
X73174147Y-62886900D01*
X73238297Y-63041772D01*
X73271000Y-63206184D01*
X73271000Y-63373816D01*
X73238297Y-63538228D01*
X73174147Y-63693100D01*
X73081015Y-63832481D01*
X72962481Y-63951015D01*
X72823100Y-64044147D01*
X72668228Y-64108297D01*
X72503816Y-64141000D01*
X72336184Y-64141000D01*
X72171772Y-64108297D01*
X72016900Y-64044147D01*
X71877519Y-63951015D01*
X71758985Y-63832481D01*
X71665853Y-63693100D01*
X71601703Y-63538228D01*
X71569000Y-63373816D01*
X71569000Y-63206184D01*
X71601703Y-63041772D01*
X71665853Y-62886900D01*
X71758985Y-62747519D01*
X71877519Y-62628985D01*
X72016900Y-62535853D01*
X72171772Y-62471703D01*
X72336184Y-62439000D01*
X72503816Y-62439000D01*
X72668228Y-62471703D01*
X72668228Y-62471703D01*
G37*
G36*
X56562812Y-56133624D02*
X56726784Y-56201544D01*
X56874354Y-56300147D01*
X56999853Y-56425646D01*
X57098456Y-56573216D01*
X57166376Y-56737188D01*
X57201000Y-56911259D01*
X57201000Y-57088741D01*
X57166376Y-57262812D01*
X57098456Y-57426784D01*
X56999853Y-57574354D01*
X56874354Y-57699853D01*
X56726784Y-57798456D01*
X56562812Y-57866376D01*
X56388741Y-57901000D01*
X56211259Y-57901000D01*
X56037188Y-57866376D01*
X55873216Y-57798456D01*
X55725646Y-57699853D01*
X55600147Y-57574354D01*
X55501544Y-57426784D01*
X55433624Y-57262812D01*
X55399000Y-57088741D01*
X55399000Y-56911259D01*
X55433624Y-56737188D01*
X55501544Y-56573216D01*
X55600147Y-56425646D01*
X55725646Y-56300147D01*
X55873216Y-56201544D01*
X56037188Y-56133624D01*
X56211259Y-56099000D01*
X56388741Y-56099000D01*
X56562812Y-56133624D01*
X56562812Y-56133624D01*
G37*
G36*
X54062812Y-56133624D02*
X54226784Y-56201544D01*
X54374354Y-56300147D01*
X54499853Y-56425646D01*
X54598456Y-56573216D01*
X54666376Y-56737188D01*
X54701000Y-56911259D01*
X54701000Y-57088741D01*
X54666376Y-57262812D01*
X54598456Y-57426784D01*
X54499853Y-57574354D01*
X54374354Y-57699853D01*
X54226784Y-57798456D01*
X54062812Y-57866376D01*
X53888741Y-57901000D01*
X53711259Y-57901000D01*
X53537188Y-57866376D01*
X53373216Y-57798456D01*
X53225646Y-57699853D01*
X53100147Y-57574354D01*
X53001544Y-57426784D01*
X52933624Y-57262812D01*
X52899000Y-57088741D01*
X52899000Y-56911259D01*
X52933624Y-56737188D01*
X53001544Y-56573216D01*
X53100147Y-56425646D01*
X53225646Y-56300147D01*
X53373216Y-56201544D01*
X53537188Y-56133624D01*
X53711259Y-56099000D01*
X53888741Y-56099000D01*
X54062812Y-56133624D01*
X54062812Y-56133624D01*
G37*
G36*
X145162812Y-56133624D02*
X145326784Y-56201544D01*
X145474354Y-56300147D01*
X145599853Y-56425646D01*
X145698456Y-56573216D01*
X145766376Y-56737188D01*
X145801000Y-56911259D01*
X145801000Y-57088741D01*
X145766376Y-57262812D01*
X145698456Y-57426784D01*
X145599853Y-57574354D01*
X145474354Y-57699853D01*
X145326784Y-57798456D01*
X145162812Y-57866376D01*
X144988741Y-57901000D01*
X144811259Y-57901000D01*
X144637188Y-57866376D01*
X144473216Y-57798456D01*
X144325646Y-57699853D01*
X144200147Y-57574354D01*
X144101544Y-57426784D01*
X144033624Y-57262812D01*
X143999000Y-57088741D01*
X143999000Y-56911259D01*
X144033624Y-56737188D01*
X144101544Y-56573216D01*
X144200147Y-56425646D01*
X144325646Y-56300147D01*
X144473216Y-56201544D01*
X144637188Y-56133624D01*
X144811259Y-56099000D01*
X144988741Y-56099000D01*
X145162812Y-56133624D01*
X145162812Y-56133624D01*
G37*
G36*
X147662812Y-56133624D02*
X147826784Y-56201544D01*
X147974354Y-56300147D01*
X148099853Y-56425646D01*
X148198456Y-56573216D01*
X148266376Y-56737188D01*
X148301000Y-56911259D01*
X148301000Y-57088741D01*
X148266376Y-57262812D01*
X148198456Y-57426784D01*
X148099853Y-57574354D01*
X147974354Y-57699853D01*
X147826784Y-57798456D01*
X147662812Y-57866376D01*
X147488741Y-57901000D01*
X147311259Y-57901000D01*
X147137188Y-57866376D01*
X146973216Y-57798456D01*
X146825646Y-57699853D01*
X146700147Y-57574354D01*
X146601544Y-57426784D01*
X146533624Y-57262812D01*
X146499000Y-57088741D01*
X146499000Y-56911259D01*
X146533624Y-56737188D01*
X146601544Y-56573216D01*
X146700147Y-56425646D01*
X146825646Y-56300147D01*
X146973216Y-56201544D01*
X147137188Y-56133624D01*
X147311259Y-56099000D01*
X147488741Y-56099000D01*
X147662812Y-56133624D01*
X147662812Y-56133624D01*
G37*
G36*
X114162812Y-56133624D02*
X114326784Y-56201544D01*
X114474354Y-56300147D01*
X114599853Y-56425646D01*
X114698456Y-56573216D01*
X114766376Y-56737188D01*
X114801000Y-56911259D01*
X114801000Y-57088741D01*
X114766376Y-57262812D01*
X114698456Y-57426784D01*
X114599853Y-57574354D01*
X114474354Y-57699853D01*
X114326784Y-57798456D01*
X114162812Y-57866376D01*
X113988741Y-57901000D01*
X113811259Y-57901000D01*
X113637188Y-57866376D01*
X113473216Y-57798456D01*
X113325646Y-57699853D01*
X113200147Y-57574354D01*
X113101544Y-57426784D01*
X113033624Y-57262812D01*
X112999000Y-57088741D01*
X112999000Y-56911259D01*
X113033624Y-56737188D01*
X113101544Y-56573216D01*
X113200147Y-56425646D01*
X113325646Y-56300147D01*
X113473216Y-56201544D01*
X113637188Y-56133624D01*
X113811259Y-56099000D01*
X113988741Y-56099000D01*
X114162812Y-56133624D01*
X114162812Y-56133624D01*
G37*
G36*
X116662812Y-56133624D02*
X116826784Y-56201544D01*
X116974354Y-56300147D01*
X117099853Y-56425646D01*
X117198456Y-56573216D01*
X117266376Y-56737188D01*
X117301000Y-56911259D01*
X117301000Y-57088741D01*
X117266376Y-57262812D01*
X117198456Y-57426784D01*
X117099853Y-57574354D01*
X116974354Y-57699853D01*
X116826784Y-57798456D01*
X116662812Y-57866376D01*
X116488741Y-57901000D01*
X116311259Y-57901000D01*
X116137188Y-57866376D01*
X115973216Y-57798456D01*
X115825646Y-57699853D01*
X115700147Y-57574354D01*
X115601544Y-57426784D01*
X115533624Y-57262812D01*
X115499000Y-57088741D01*
X115499000Y-56911259D01*
X115533624Y-56737188D01*
X115601544Y-56573216D01*
X115700147Y-56425646D01*
X115825646Y-56300147D01*
X115973216Y-56201544D01*
X116137188Y-56133624D01*
X116311259Y-56099000D01*
X116488741Y-56099000D01*
X116662812Y-56133624D01*
X116662812Y-56133624D01*
G37*
G36*
X84462812Y-56133624D02*
X84626784Y-56201544D01*
X84774354Y-56300147D01*
X84899853Y-56425646D01*
X84998456Y-56573216D01*
X85066376Y-56737188D01*
X85101000Y-56911259D01*
X85101000Y-57088741D01*
X85066376Y-57262812D01*
X84998456Y-57426784D01*
X84899853Y-57574354D01*
X84774354Y-57699853D01*
X84626784Y-57798456D01*
X84462812Y-57866376D01*
X84288741Y-57901000D01*
X84111259Y-57901000D01*
X83937188Y-57866376D01*
X83773216Y-57798456D01*
X83625646Y-57699853D01*
X83500147Y-57574354D01*
X83401544Y-57426784D01*
X83333624Y-57262812D01*
X83299000Y-57088741D01*
X83299000Y-56911259D01*
X83333624Y-56737188D01*
X83401544Y-56573216D01*
X83500147Y-56425646D01*
X83625646Y-56300147D01*
X83773216Y-56201544D01*
X83937188Y-56133624D01*
X84111259Y-56099000D01*
X84288741Y-56099000D01*
X84462812Y-56133624D01*
X84462812Y-56133624D01*
G37*
G36*
X86962812Y-56133624D02*
X87126784Y-56201544D01*
X87274354Y-56300147D01*
X87399853Y-56425646D01*
X87498456Y-56573216D01*
X87566376Y-56737188D01*
X87601000Y-56911259D01*
X87601000Y-57088741D01*
X87566376Y-57262812D01*
X87498456Y-57426784D01*
X87399853Y-57574354D01*
X87274354Y-57699853D01*
X87126784Y-57798456D01*
X86962812Y-57866376D01*
X86788741Y-57901000D01*
X86611259Y-57901000D01*
X86437188Y-57866376D01*
X86273216Y-57798456D01*
X86125646Y-57699853D01*
X86000147Y-57574354D01*
X85901544Y-57426784D01*
X85833624Y-57262812D01*
X85799000Y-57088741D01*
X85799000Y-56911259D01*
X85833624Y-56737188D01*
X85901544Y-56573216D01*
X86000147Y-56425646D01*
X86125646Y-56300147D01*
X86273216Y-56201544D01*
X86437188Y-56133624D01*
X86611259Y-56099000D01*
X86788741Y-56099000D01*
X86962812Y-56133624D01*
X86962812Y-56133624D01*
G37*
G36*
X44062812Y-53713624D02*
X44226784Y-53781544D01*
X44374354Y-53880147D01*
X44499853Y-54005646D01*
X44598456Y-54153216D01*
X44666376Y-54317188D01*
X44701000Y-54491259D01*
X44701000Y-54668741D01*
X44666376Y-54842812D01*
X44598456Y-55006784D01*
X44499853Y-55154354D01*
X44374354Y-55279853D01*
X44226784Y-55378456D01*
X44062812Y-55446376D01*
X43888741Y-55481000D01*
X43711259Y-55481000D01*
X43537188Y-55446376D01*
X43373216Y-55378456D01*
X43225646Y-55279853D01*
X43100147Y-55154354D01*
X43001544Y-55006784D01*
X42933624Y-54842812D01*
X42899000Y-54668741D01*
X42899000Y-54491259D01*
X42933624Y-54317188D01*
X43001544Y-54153216D01*
X43100147Y-54005646D01*
X43225646Y-53880147D01*
X43373216Y-53781544D01*
X43537188Y-53713624D01*
X43711259Y-53679000D01*
X43888741Y-53679000D01*
X44062812Y-53713624D01*
X44062812Y-53713624D01*
G37*
G36*
X135062812Y-53713624D02*
X135226784Y-53781544D01*
X135374354Y-53880147D01*
X135499853Y-54005646D01*
X135598456Y-54153216D01*
X135666376Y-54317188D01*
X135701000Y-54491259D01*
X135701000Y-54668741D01*
X135666376Y-54842812D01*
X135598456Y-55006784D01*
X135499853Y-55154354D01*
X135374354Y-55279853D01*
X135226784Y-55378456D01*
X135062812Y-55446376D01*
X134888741Y-55481000D01*
X134711259Y-55481000D01*
X134537188Y-55446376D01*
X134373216Y-55378456D01*
X134225646Y-55279853D01*
X134100147Y-55154354D01*
X134001544Y-55006784D01*
X133933624Y-54842812D01*
X133899000Y-54668741D01*
X133899000Y-54491259D01*
X133933624Y-54317188D01*
X134001544Y-54153216D01*
X134100147Y-54005646D01*
X134225646Y-53880147D01*
X134373216Y-53781544D01*
X134537188Y-53713624D01*
X134711259Y-53679000D01*
X134888741Y-53679000D01*
X135062812Y-53713624D01*
X135062812Y-53713624D01*
G37*
G36*
X132522812Y-53713624D02*
X132686784Y-53781544D01*
X132834354Y-53880147D01*
X132959853Y-54005646D01*
X133058456Y-54153216D01*
X133126376Y-54317188D01*
X133161000Y-54491259D01*
X133161000Y-54668741D01*
X133126376Y-54842812D01*
X133058456Y-55006784D01*
X132959853Y-55154354D01*
X132834354Y-55279853D01*
X132686784Y-55378456D01*
X132522812Y-55446376D01*
X132348741Y-55481000D01*
X132171259Y-55481000D01*
X131997188Y-55446376D01*
X131833216Y-55378456D01*
X131685646Y-55279853D01*
X131560147Y-55154354D01*
X131461544Y-55006784D01*
X131393624Y-54842812D01*
X131359000Y-54668741D01*
X131359000Y-54491259D01*
X131393624Y-54317188D01*
X131461544Y-54153216D01*
X131560147Y-54005646D01*
X131685646Y-53880147D01*
X131833216Y-53781544D01*
X131997188Y-53713624D01*
X132171259Y-53679000D01*
X132348741Y-53679000D01*
X132522812Y-53713624D01*
X132522812Y-53713624D01*
G37*
G36*
X104162812Y-53713624D02*
X104326784Y-53781544D01*
X104474354Y-53880147D01*
X104599853Y-54005646D01*
X104698456Y-54153216D01*
X104766376Y-54317188D01*
X104801000Y-54491259D01*
X104801000Y-54668741D01*
X104766376Y-54842812D01*
X104698456Y-55006784D01*
X104599853Y-55154354D01*
X104474354Y-55279853D01*
X104326784Y-55378456D01*
X104162812Y-55446376D01*
X103988741Y-55481000D01*
X103811259Y-55481000D01*
X103637188Y-55446376D01*
X103473216Y-55378456D01*
X103325646Y-55279853D01*
X103200147Y-55154354D01*
X103101544Y-55006784D01*
X103033624Y-54842812D01*
X102999000Y-54668741D01*
X102999000Y-54491259D01*
X103033624Y-54317188D01*
X103101544Y-54153216D01*
X103200147Y-54005646D01*
X103325646Y-53880147D01*
X103473216Y-53781544D01*
X103637188Y-53713624D01*
X103811259Y-53679000D01*
X103988741Y-53679000D01*
X104162812Y-53713624D01*
X104162812Y-53713624D01*
G37*
G36*
X72522812Y-53713624D02*
X72686784Y-53781544D01*
X72834354Y-53880147D01*
X72959853Y-54005646D01*
X73058456Y-54153216D01*
X73126376Y-54317188D01*
X73161000Y-54491259D01*
X73161000Y-54668741D01*
X73126376Y-54842812D01*
X73058456Y-55006784D01*
X72959853Y-55154354D01*
X72834354Y-55279853D01*
X72686784Y-55378456D01*
X72522812Y-55446376D01*
X72348741Y-55481000D01*
X72171259Y-55481000D01*
X71997188Y-55446376D01*
X71833216Y-55378456D01*
X71685646Y-55279853D01*
X71560147Y-55154354D01*
X71461544Y-55006784D01*
X71393624Y-54842812D01*
X71359000Y-54668741D01*
X71359000Y-54491259D01*
X71393624Y-54317188D01*
X71461544Y-54153216D01*
X71560147Y-54005646D01*
X71685646Y-53880147D01*
X71833216Y-53781544D01*
X71997188Y-53713624D01*
X72171259Y-53679000D01*
X72348741Y-53679000D01*
X72522812Y-53713624D01*
X72522812Y-53713624D01*
G37*
G36*
X75062812Y-53713624D02*
X75226784Y-53781544D01*
X75374354Y-53880147D01*
X75499853Y-54005646D01*
X75598456Y-54153216D01*
X75666376Y-54317188D01*
X75701000Y-54491259D01*
X75701000Y-54668741D01*
X75666376Y-54842812D01*
X75598456Y-55006784D01*
X75499853Y-55154354D01*
X75374354Y-55279853D01*
X75226784Y-55378456D01*
X75062812Y-55446376D01*
X74888741Y-55481000D01*
X74711259Y-55481000D01*
X74537188Y-55446376D01*
X74373216Y-55378456D01*
X74225646Y-55279853D01*
X74100147Y-55154354D01*
X74001544Y-55006784D01*
X73933624Y-54842812D01*
X73899000Y-54668741D01*
X73899000Y-54491259D01*
X73933624Y-54317188D01*
X74001544Y-54153216D01*
X74100147Y-54005646D01*
X74225646Y-53880147D01*
X74373216Y-53781544D01*
X74537188Y-53713624D01*
X74711259Y-53679000D01*
X74888741Y-53679000D01*
X75062812Y-53713624D01*
X75062812Y-53713624D01*
G37*
G36*
X41522812Y-53713624D02*
X41686784Y-53781544D01*
X41834354Y-53880147D01*
X41959853Y-54005646D01*
X42058456Y-54153216D01*
X42126376Y-54317188D01*
X42161000Y-54491259D01*
X42161000Y-54668741D01*
X42126376Y-54842812D01*
X42058456Y-55006784D01*
X41959853Y-55154354D01*
X41834354Y-55279853D01*
X41686784Y-55378456D01*
X41522812Y-55446376D01*
X41348741Y-55481000D01*
X41171259Y-55481000D01*
X40997188Y-55446376D01*
X40833216Y-55378456D01*
X40685646Y-55279853D01*
X40560147Y-55154354D01*
X40461544Y-55006784D01*
X40393624Y-54842812D01*
X40359000Y-54668741D01*
X40359000Y-54491259D01*
X40393624Y-54317188D01*
X40461544Y-54153216D01*
X40560147Y-54005646D01*
X40685646Y-53880147D01*
X40833216Y-53781544D01*
X40997188Y-53713624D01*
X41171259Y-53679000D01*
X41348741Y-53679000D01*
X41522812Y-53713624D01*
X41522812Y-53713624D01*
G37*
G36*
X101622812Y-53713624D02*
X101786784Y-53781544D01*
X101934354Y-53880147D01*
X102059853Y-54005646D01*
X102158456Y-54153216D01*
X102226376Y-54317188D01*
X102261000Y-54491259D01*
X102261000Y-54668741D01*
X102226376Y-54842812D01*
X102158456Y-55006784D01*
X102059853Y-55154354D01*
X101934354Y-55279853D01*
X101786784Y-55378456D01*
X101622812Y-55446376D01*
X101448741Y-55481000D01*
X101271259Y-55481000D01*
X101097188Y-55446376D01*
X100933216Y-55378456D01*
X100785646Y-55279853D01*
X100660147Y-55154354D01*
X100561544Y-55006784D01*
X100493624Y-54842812D01*
X100459000Y-54668741D01*
X100459000Y-54491259D01*
X100493624Y-54317188D01*
X100561544Y-54153216D01*
X100660147Y-54005646D01*
X100785646Y-53880147D01*
X100933216Y-53781544D01*
X101097188Y-53713624D01*
X101271259Y-53679000D01*
X101448741Y-53679000D01*
X101622812Y-53713624D01*
X101622812Y-53713624D01*
G37*
G36*
X81952527Y-50388736D02*
X82052410Y-50408604D01*
X82334674Y-50525521D01*
X82588705Y-50695259D01*
X82804741Y-50911295D01*
X82974479Y-51165326D01*
X83091396Y-51447590D01*
X83151000Y-51747240D01*
X83151000Y-52052760D01*
X83091396Y-52352410D01*
X82974479Y-52634674D01*
X82804741Y-52888705D01*
X82588705Y-53104741D01*
X82334674Y-53274479D01*
X82052410Y-53391396D01*
X81952527Y-53411264D01*
X81752762Y-53451000D01*
X81447238Y-53451000D01*
X81247473Y-53411264D01*
X81147590Y-53391396D01*
X80865326Y-53274479D01*
X80611295Y-53104741D01*
X80395259Y-52888705D01*
X80225521Y-52634674D01*
X80108604Y-52352410D01*
X80049000Y-52052760D01*
X80049000Y-51747240D01*
X80108604Y-51447590D01*
X80225521Y-51165326D01*
X80395259Y-50911295D01*
X80611295Y-50695259D01*
X80865326Y-50525521D01*
X81147590Y-50408604D01*
X81247473Y-50388736D01*
X81447238Y-50349000D01*
X81752762Y-50349000D01*
X81952527Y-50388736D01*
X81952527Y-50388736D01*
G37*
G36*
X61752527Y-50388736D02*
X61852410Y-50408604D01*
X62134674Y-50525521D01*
X62388705Y-50695259D01*
X62604741Y-50911295D01*
X62774479Y-51165326D01*
X62891396Y-51447590D01*
X62951000Y-51747240D01*
X62951000Y-52052760D01*
X62891396Y-52352410D01*
X62774479Y-52634674D01*
X62604741Y-52888705D01*
X62388705Y-53104741D01*
X62134674Y-53274479D01*
X61852410Y-53391396D01*
X61752527Y-53411264D01*
X61552762Y-53451000D01*
X61247238Y-53451000D01*
X61047473Y-53411264D01*
X60947590Y-53391396D01*
X60665326Y-53274479D01*
X60411295Y-53104741D01*
X60195259Y-52888705D01*
X60025521Y-52634674D01*
X59908604Y-52352410D01*
X59849000Y-52052760D01*
X59849000Y-51747240D01*
X59908604Y-51447590D01*
X60025521Y-51165326D01*
X60195259Y-50911295D01*
X60411295Y-50695259D01*
X60665326Y-50525521D01*
X60947590Y-50408604D01*
X61047473Y-50388736D01*
X61247238Y-50349000D01*
X61552762Y-50349000D01*
X61752527Y-50388736D01*
X61752527Y-50388736D01*
G37*
G36*
X92152527Y-50388736D02*
X92252410Y-50408604D01*
X92534674Y-50525521D01*
X92788705Y-50695259D01*
X93004741Y-50911295D01*
X93174479Y-51165326D01*
X93291396Y-51447590D01*
X93351000Y-51747240D01*
X93351000Y-52052760D01*
X93291396Y-52352410D01*
X93174479Y-52634674D01*
X93004741Y-52888705D01*
X92788705Y-53104741D01*
X92534674Y-53274479D01*
X92252410Y-53391396D01*
X92152527Y-53411264D01*
X91952762Y-53451000D01*
X91647238Y-53451000D01*
X91447473Y-53411264D01*
X91347590Y-53391396D01*
X91065326Y-53274479D01*
X90811295Y-53104741D01*
X90595259Y-52888705D01*
X90425521Y-52634674D01*
X90308604Y-52352410D01*
X90249000Y-52052760D01*
X90249000Y-51747240D01*
X90308604Y-51447590D01*
X90425521Y-51165326D01*
X90595259Y-50911295D01*
X90811295Y-50695259D01*
X91065326Y-50525521D01*
X91347590Y-50408604D01*
X91447473Y-50388736D01*
X91647238Y-50349000D01*
X91952762Y-50349000D01*
X92152527Y-50388736D01*
X92152527Y-50388736D01*
G37*
G36*
X111652527Y-50388736D02*
X111752410Y-50408604D01*
X112034674Y-50525521D01*
X112288705Y-50695259D01*
X112504741Y-50911295D01*
X112674479Y-51165326D01*
X112791396Y-51447590D01*
X112851000Y-51747240D01*
X112851000Y-52052760D01*
X112791396Y-52352410D01*
X112674479Y-52634674D01*
X112504741Y-52888705D01*
X112288705Y-53104741D01*
X112034674Y-53274479D01*
X111752410Y-53391396D01*
X111652527Y-53411264D01*
X111452762Y-53451000D01*
X111147238Y-53451000D01*
X110947473Y-53411264D01*
X110847590Y-53391396D01*
X110565326Y-53274479D01*
X110311295Y-53104741D01*
X110095259Y-52888705D01*
X109925521Y-52634674D01*
X109808604Y-52352410D01*
X109749000Y-52052760D01*
X109749000Y-51747240D01*
X109808604Y-51447590D01*
X109925521Y-51165326D01*
X110095259Y-50911295D01*
X110311295Y-50695259D01*
X110565326Y-50525521D01*
X110847590Y-50408604D01*
X110947473Y-50388736D01*
X111147238Y-50349000D01*
X111452762Y-50349000D01*
X111652527Y-50388736D01*
X111652527Y-50388736D01*
G37*
G36*
X121852527Y-50388736D02*
X121952410Y-50408604D01*
X122234674Y-50525521D01*
X122488705Y-50695259D01*
X122704741Y-50911295D01*
X122874479Y-51165326D01*
X122991396Y-51447590D01*
X123051000Y-51747240D01*
X123051000Y-52052760D01*
X122991396Y-52352410D01*
X122874479Y-52634674D01*
X122704741Y-52888705D01*
X122488705Y-53104741D01*
X122234674Y-53274479D01*
X121952410Y-53391396D01*
X121852527Y-53411264D01*
X121652762Y-53451000D01*
X121347238Y-53451000D01*
X121147473Y-53411264D01*
X121047590Y-53391396D01*
X120765326Y-53274479D01*
X120511295Y-53104741D01*
X120295259Y-52888705D01*
X120125521Y-52634674D01*
X120008604Y-52352410D01*
X119949000Y-52052760D01*
X119949000Y-51747240D01*
X120008604Y-51447590D01*
X120125521Y-51165326D01*
X120295259Y-50911295D01*
X120511295Y-50695259D01*
X120765326Y-50525521D01*
X121047590Y-50408604D01*
X121147473Y-50388736D01*
X121347238Y-50349000D01*
X121652762Y-50349000D01*
X121852527Y-50388736D01*
X121852527Y-50388736D01*
G37*
G36*
X142652527Y-50388736D02*
X142752410Y-50408604D01*
X143034674Y-50525521D01*
X143288705Y-50695259D01*
X143504741Y-50911295D01*
X143674479Y-51165326D01*
X143791396Y-51447590D01*
X143851000Y-51747240D01*
X143851000Y-52052760D01*
X143791396Y-52352410D01*
X143674479Y-52634674D01*
X143504741Y-52888705D01*
X143288705Y-53104741D01*
X143034674Y-53274479D01*
X142752410Y-53391396D01*
X142652527Y-53411264D01*
X142452762Y-53451000D01*
X142147238Y-53451000D01*
X141947473Y-53411264D01*
X141847590Y-53391396D01*
X141565326Y-53274479D01*
X141311295Y-53104741D01*
X141095259Y-52888705D01*
X140925521Y-52634674D01*
X140808604Y-52352410D01*
X140749000Y-52052760D01*
X140749000Y-51747240D01*
X140808604Y-51447590D01*
X140925521Y-51165326D01*
X141095259Y-50911295D01*
X141311295Y-50695259D01*
X141565326Y-50525521D01*
X141847590Y-50408604D01*
X141947473Y-50388736D01*
X142147238Y-50349000D01*
X142452762Y-50349000D01*
X142652527Y-50388736D01*
X142652527Y-50388736D01*
G37*
G36*
X152852527Y-50388736D02*
X152952410Y-50408604D01*
X153234674Y-50525521D01*
X153488705Y-50695259D01*
X153704741Y-50911295D01*
X153874479Y-51165326D01*
X153991396Y-51447590D01*
X154051000Y-51747240D01*
X154051000Y-52052760D01*
X153991396Y-52352410D01*
X153874479Y-52634674D01*
X153704741Y-52888705D01*
X153488705Y-53104741D01*
X153234674Y-53274479D01*
X152952410Y-53391396D01*
X152852527Y-53411264D01*
X152652762Y-53451000D01*
X152347238Y-53451000D01*
X152147473Y-53411264D01*
X152047590Y-53391396D01*
X151765326Y-53274479D01*
X151511295Y-53104741D01*
X151295259Y-52888705D01*
X151125521Y-52634674D01*
X151008604Y-52352410D01*
X150949000Y-52052760D01*
X150949000Y-51747240D01*
X151008604Y-51447590D01*
X151125521Y-51165326D01*
X151295259Y-50911295D01*
X151511295Y-50695259D01*
X151765326Y-50525521D01*
X152047590Y-50408604D01*
X152147473Y-50388736D01*
X152347238Y-50349000D01*
X152652762Y-50349000D01*
X152852527Y-50388736D01*
X152852527Y-50388736D01*
G37*
G36*
X51552527Y-50388736D02*
X51652410Y-50408604D01*
X51934674Y-50525521D01*
X52188705Y-50695259D01*
X52404741Y-50911295D01*
X52574479Y-51165326D01*
X52691396Y-51447590D01*
X52751000Y-51747240D01*
X52751000Y-52052760D01*
X52691396Y-52352410D01*
X52574479Y-52634674D01*
X52404741Y-52888705D01*
X52188705Y-53104741D01*
X51934674Y-53274479D01*
X51652410Y-53391396D01*
X51552527Y-53411264D01*
X51352762Y-53451000D01*
X51047238Y-53451000D01*
X50847473Y-53411264D01*
X50747590Y-53391396D01*
X50465326Y-53274479D01*
X50211295Y-53104741D01*
X49995259Y-52888705D01*
X49825521Y-52634674D01*
X49708604Y-52352410D01*
X49649000Y-52052760D01*
X49649000Y-51747240D01*
X49708604Y-51447590D01*
X49825521Y-51165326D01*
X49995259Y-50911295D01*
X50211295Y-50695259D01*
X50465326Y-50525521D01*
X50747590Y-50408604D01*
X50847473Y-50388736D01*
X51047238Y-50349000D01*
X51352762Y-50349000D01*
X51552527Y-50388736D01*
X51552527Y-50388736D01*
G37*
G36*
X41522812Y-48633624D02*
X41686784Y-48701544D01*
X41834354Y-48800147D01*
X41959853Y-48925646D01*
X42058456Y-49073216D01*
X42126376Y-49237188D01*
X42161000Y-49411259D01*
X42161000Y-49588741D01*
X42126376Y-49762812D01*
X42058456Y-49926784D01*
X41959853Y-50074354D01*
X41834354Y-50199853D01*
X41686784Y-50298456D01*
X41522812Y-50366376D01*
X41348741Y-50401000D01*
X41171259Y-50401000D01*
X40997188Y-50366376D01*
X40833216Y-50298456D01*
X40685646Y-50199853D01*
X40560147Y-50074354D01*
X40461544Y-49926784D01*
X40393624Y-49762812D01*
X40359000Y-49588741D01*
X40359000Y-49411259D01*
X40393624Y-49237188D01*
X40461544Y-49073216D01*
X40560147Y-48925646D01*
X40685646Y-48800147D01*
X40833216Y-48701544D01*
X40997188Y-48633624D01*
X41171259Y-48599000D01*
X41348741Y-48599000D01*
X41522812Y-48633624D01*
X41522812Y-48633624D01*
G37*
G36*
X44062812Y-48633624D02*
X44226784Y-48701544D01*
X44374354Y-48800147D01*
X44499853Y-48925646D01*
X44598456Y-49073216D01*
X44666376Y-49237188D01*
X44701000Y-49411259D01*
X44701000Y-49588741D01*
X44666376Y-49762812D01*
X44598456Y-49926784D01*
X44499853Y-50074354D01*
X44374354Y-50199853D01*
X44226784Y-50298456D01*
X44062812Y-50366376D01*
X43888741Y-50401000D01*
X43711259Y-50401000D01*
X43537188Y-50366376D01*
X43373216Y-50298456D01*
X43225646Y-50199853D01*
X43100147Y-50074354D01*
X43001544Y-49926784D01*
X42933624Y-49762812D01*
X42899000Y-49588741D01*
X42899000Y-49411259D01*
X42933624Y-49237188D01*
X43001544Y-49073216D01*
X43100147Y-48925646D01*
X43225646Y-48800147D01*
X43373216Y-48701544D01*
X43537188Y-48633624D01*
X43711259Y-48599000D01*
X43888741Y-48599000D01*
X44062812Y-48633624D01*
X44062812Y-48633624D01*
G37*
G36*
X104162812Y-48633624D02*
X104326784Y-48701544D01*
X104474354Y-48800147D01*
X104599853Y-48925646D01*
X104698456Y-49073216D01*
X104766376Y-49237188D01*
X104801000Y-49411259D01*
X104801000Y-49588741D01*
X104766376Y-49762812D01*
X104698456Y-49926784D01*
X104599853Y-50074354D01*
X104474354Y-50199853D01*
X104326784Y-50298456D01*
X104162812Y-50366376D01*
X103988741Y-50401000D01*
X103811259Y-50401000D01*
X103637188Y-50366376D01*
X103473216Y-50298456D01*
X103325646Y-50199853D01*
X103200147Y-50074354D01*
X103101544Y-49926784D01*
X103033624Y-49762812D01*
X102999000Y-49588741D01*
X102999000Y-49411259D01*
X103033624Y-49237188D01*
X103101544Y-49073216D01*
X103200147Y-48925646D01*
X103325646Y-48800147D01*
X103473216Y-48701544D01*
X103637188Y-48633624D01*
X103811259Y-48599000D01*
X103988741Y-48599000D01*
X104162812Y-48633624D01*
X104162812Y-48633624D01*
G37*
G36*
X72522812Y-48633624D02*
X72686784Y-48701544D01*
X72834354Y-48800147D01*
X72959853Y-48925646D01*
X73058456Y-49073216D01*
X73126376Y-49237188D01*
X73161000Y-49411259D01*
X73161000Y-49588741D01*
X73126376Y-49762812D01*
X73058456Y-49926784D01*
X72959853Y-50074354D01*
X72834354Y-50199853D01*
X72686784Y-50298456D01*
X72522812Y-50366376D01*
X72348741Y-50401000D01*
X72171259Y-50401000D01*
X71997188Y-50366376D01*
X71833216Y-50298456D01*
X71685646Y-50199853D01*
X71560147Y-50074354D01*
X71461544Y-49926784D01*
X71393624Y-49762812D01*
X71359000Y-49588741D01*
X71359000Y-49411259D01*
X71393624Y-49237188D01*
X71461544Y-49073216D01*
X71560147Y-48925646D01*
X71685646Y-48800147D01*
X71833216Y-48701544D01*
X71997188Y-48633624D01*
X72171259Y-48599000D01*
X72348741Y-48599000D01*
X72522812Y-48633624D01*
X72522812Y-48633624D01*
G37*
G36*
X75062812Y-48633624D02*
X75226784Y-48701544D01*
X75374354Y-48800147D01*
X75499853Y-48925646D01*
X75598456Y-49073216D01*
X75666376Y-49237188D01*
X75701000Y-49411259D01*
X75701000Y-49588741D01*
X75666376Y-49762812D01*
X75598456Y-49926784D01*
X75499853Y-50074354D01*
X75374354Y-50199853D01*
X75226784Y-50298456D01*
X75062812Y-50366376D01*
X74888741Y-50401000D01*
X74711259Y-50401000D01*
X74537188Y-50366376D01*
X74373216Y-50298456D01*
X74225646Y-50199853D01*
X74100147Y-50074354D01*
X74001544Y-49926784D01*
X73933624Y-49762812D01*
X73899000Y-49588741D01*
X73899000Y-49411259D01*
X73933624Y-49237188D01*
X74001544Y-49073216D01*
X74100147Y-48925646D01*
X74225646Y-48800147D01*
X74373216Y-48701544D01*
X74537188Y-48633624D01*
X74711259Y-48599000D01*
X74888741Y-48599000D01*
X75062812Y-48633624D01*
X75062812Y-48633624D01*
G37*
G36*
X101622812Y-48633624D02*
X101786784Y-48701544D01*
X101934354Y-48800147D01*
X102059853Y-48925646D01*
X102158456Y-49073216D01*
X102226376Y-49237188D01*
X102261000Y-49411259D01*
X102261000Y-49588741D01*
X102226376Y-49762812D01*
X102158456Y-49926784D01*
X102059853Y-50074354D01*
X101934354Y-50199853D01*
X101786784Y-50298456D01*
X101622812Y-50366376D01*
X101448741Y-50401000D01*
X101271259Y-50401000D01*
X101097188Y-50366376D01*
X100933216Y-50298456D01*
X100785646Y-50199853D01*
X100660147Y-50074354D01*
X100561544Y-49926784D01*
X100493624Y-49762812D01*
X100459000Y-49588741D01*
X100459000Y-49411259D01*
X100493624Y-49237188D01*
X100561544Y-49073216D01*
X100660147Y-48925646D01*
X100785646Y-48800147D01*
X100933216Y-48701544D01*
X101097188Y-48633624D01*
X101271259Y-48599000D01*
X101448741Y-48599000D01*
X101622812Y-48633624D01*
X101622812Y-48633624D01*
G37*
G36*
X135062812Y-48633624D02*
X135226784Y-48701544D01*
X135374354Y-48800147D01*
X135499853Y-48925646D01*
X135598456Y-49073216D01*
X135666376Y-49237188D01*
X135701000Y-49411259D01*
X135701000Y-49588741D01*
X135666376Y-49762812D01*
X135598456Y-49926784D01*
X135499853Y-50074354D01*
X135374354Y-50199853D01*
X135226784Y-50298456D01*
X135062812Y-50366376D01*
X134888741Y-50401000D01*
X134711259Y-50401000D01*
X134537188Y-50366376D01*
X134373216Y-50298456D01*
X134225646Y-50199853D01*
X134100147Y-50074354D01*
X134001544Y-49926784D01*
X133933624Y-49762812D01*
X133899000Y-49588741D01*
X133899000Y-49411259D01*
X133933624Y-49237188D01*
X134001544Y-49073216D01*
X134100147Y-48925646D01*
X134225646Y-48800147D01*
X134373216Y-48701544D01*
X134537188Y-48633624D01*
X134711259Y-48599000D01*
X134888741Y-48599000D01*
X135062812Y-48633624D01*
X135062812Y-48633624D01*
G37*
G36*
X132522812Y-48633624D02*
X132686784Y-48701544D01*
X132834354Y-48800147D01*
X132959853Y-48925646D01*
X133058456Y-49073216D01*
X133126376Y-49237188D01*
X133161000Y-49411259D01*
X133161000Y-49588741D01*
X133126376Y-49762812D01*
X133058456Y-49926784D01*
X132959853Y-50074354D01*
X132834354Y-50199853D01*
X132686784Y-50298456D01*
X132522812Y-50366376D01*
X132348741Y-50401000D01*
X132171259Y-50401000D01*
X131997188Y-50366376D01*
X131833216Y-50298456D01*
X131685646Y-50199853D01*
X131560147Y-50074354D01*
X131461544Y-49926784D01*
X131393624Y-49762812D01*
X131359000Y-49588741D01*
X131359000Y-49411259D01*
X131393624Y-49237188D01*
X131461544Y-49073216D01*
X131560147Y-48925646D01*
X131685646Y-48800147D01*
X131833216Y-48701544D01*
X131997188Y-48633624D01*
X132171259Y-48599000D01*
X132348741Y-48599000D01*
X132522812Y-48633624D01*
X132522812Y-48633624D01*
G37*
M02*
