G04 #@! TF.GenerationSoftware,KiCad,Pcbnew,5.0.2-bee76a0~70~ubuntu18.04.1*
G04 #@! TF.CreationDate,2018-12-10T22:04:31+02:00*
G04 #@! TF.ProjectId,CombinedPCB,436f6d62-696e-4656-9450-43422e6b6963,rev?*
G04 #@! TF.SameCoordinates,Original*
G04 #@! TF.FileFunction,Legend,Top*
G04 #@! TF.FilePolarity,Positive*
%FSLAX46Y46*%
G04 Gerber Fmt 4.6, Leading zero omitted, Abs format (unit mm)*
G04 Created by KiCad (PCBNEW 5.0.2-bee76a0~70~ubuntu18.04.1) date Mon Dec 10 22:04:31 2018*
%MOMM*%
%LPD*%
G01*
G04 APERTURE LIST*
%ADD10C,0.200000*%
%ADD11C,0.250000*%
%ADD12C,0.300000*%
%ADD13C,0.150000*%
%ADD14C,0.120000*%
G04 APERTURE END LIST*
D10*
X100123607Y-84900000D02*
G75*
G03X100123607Y-84900000I-223607J0D01*
G01*
X119223607Y-113800000D02*
G75*
G03X119223607Y-113800000I-223607J0D01*
G01*
X129223607Y-110800000D02*
G75*
G03X129223607Y-110800000I-223607J0D01*
G01*
X84560555Y-87700000D02*
G75*
G03X84560555Y-87700000I-360555J0D01*
G01*
X84123607Y-103900000D02*
G75*
G03X84123607Y-103900000I-223607J0D01*
G01*
X99941421Y-109500000D02*
G75*
G03X99941421Y-109500000I-141421J0D01*
G01*
X99923607Y-102900000D02*
G75*
G03X99923607Y-102900000I-223607J0D01*
G01*
X99741421Y-96000000D02*
G75*
G03X99741421Y-96000000I-141421J0D01*
G01*
X115723607Y-99900000D02*
G75*
G03X115723607Y-99900000I-223607J0D01*
G01*
X129223607Y-99900000D02*
G75*
G03X129223607Y-99900000I-223607J0D01*
G01*
X117841421Y-86000000D02*
G75*
G03X117841421Y-86000000I-141421J0D01*
G01*
X114341421Y-71600000D02*
G75*
G03X114341421Y-71600000I-141421J0D01*
G01*
X111223607Y-65700000D02*
G75*
G03X111223607Y-65700000I-223607J0D01*
G01*
X121323607Y-65600000D02*
G75*
G03X121323607Y-65600000I-223607J0D01*
G01*
X131741421Y-65900000D02*
G75*
G03X131741421Y-65900000I-141421J0D01*
G01*
X128982843Y-71700000D02*
G75*
G03X128982843Y-71700000I-282843J0D01*
G01*
X128923607Y-82100000D02*
G75*
G03X128923607Y-82100000I-223607J0D01*
G01*
D11*
X154117857Y-98042857D02*
X153317857Y-98042857D01*
X153432142Y-98042857D02*
X153375000Y-97985714D01*
X153317857Y-97871428D01*
X153317857Y-97700000D01*
X153375000Y-97585714D01*
X153489285Y-97528571D01*
X154117857Y-97528571D01*
X153489285Y-97528571D02*
X153375000Y-97471428D01*
X153317857Y-97357142D01*
X153317857Y-97185714D01*
X153375000Y-97071428D01*
X153489285Y-97014285D01*
X154117857Y-97014285D01*
X154117857Y-96442857D02*
X153317857Y-96442857D01*
X152917857Y-96442857D02*
X152975000Y-96500000D01*
X153032142Y-96442857D01*
X152975000Y-96385714D01*
X152917857Y-96442857D01*
X153032142Y-96442857D01*
X154060714Y-95357142D02*
X154117857Y-95471428D01*
X154117857Y-95700000D01*
X154060714Y-95814285D01*
X154003571Y-95871428D01*
X153889285Y-95928571D01*
X153546428Y-95928571D01*
X153432142Y-95871428D01*
X153375000Y-95814285D01*
X153317857Y-95700000D01*
X153317857Y-95471428D01*
X153375000Y-95357142D01*
X154117857Y-94842857D02*
X153317857Y-94842857D01*
X153546428Y-94842857D02*
X153432142Y-94785714D01*
X153375000Y-94728571D01*
X153317857Y-94614285D01*
X153317857Y-94500000D01*
X154117857Y-93928571D02*
X154060714Y-94042857D01*
X154003571Y-94100000D01*
X153889285Y-94157142D01*
X153546428Y-94157142D01*
X153432142Y-94100000D01*
X153375000Y-94042857D01*
X153317857Y-93928571D01*
X153317857Y-93757142D01*
X153375000Y-93642857D01*
X153432142Y-93585714D01*
X153546428Y-93528571D01*
X153889285Y-93528571D01*
X154003571Y-93585714D01*
X154060714Y-93642857D01*
X154117857Y-93757142D01*
X154117857Y-93928571D01*
X154060714Y-93071428D02*
X154117857Y-92900000D01*
X154117857Y-92614285D01*
X154060714Y-92500000D01*
X154003571Y-92442857D01*
X153889285Y-92385714D01*
X153775000Y-92385714D01*
X153660714Y-92442857D01*
X153603571Y-92500000D01*
X153546428Y-92614285D01*
X153489285Y-92842857D01*
X153432142Y-92957142D01*
X153375000Y-93014285D01*
X153260714Y-93071428D01*
X153146428Y-93071428D01*
X153032142Y-93014285D01*
X152975000Y-92957142D01*
X152917857Y-92842857D01*
X152917857Y-92557142D01*
X152975000Y-92385714D01*
X153317857Y-92042857D02*
X153317857Y-91585714D01*
X152917857Y-91871428D02*
X153946428Y-91871428D01*
X154060714Y-91814285D01*
X154117857Y-91700000D01*
X154117857Y-91585714D01*
X154117857Y-91185714D02*
X153317857Y-91185714D01*
X152917857Y-91185714D02*
X152975000Y-91242857D01*
X153032142Y-91185714D01*
X152975000Y-91128571D01*
X152917857Y-91185714D01*
X153032142Y-91185714D01*
X154117857Y-90614285D02*
X153317857Y-90614285D01*
X153432142Y-90614285D02*
X153375000Y-90557142D01*
X153317857Y-90442857D01*
X153317857Y-90271428D01*
X153375000Y-90157142D01*
X153489285Y-90100000D01*
X154117857Y-90100000D01*
X153489285Y-90100000D02*
X153375000Y-90042857D01*
X153317857Y-89928571D01*
X153317857Y-89757142D01*
X153375000Y-89642857D01*
X153489285Y-89585714D01*
X154117857Y-89585714D01*
X153317857Y-88214285D02*
X154117857Y-87928571D01*
X153317857Y-87642857D01*
X152917857Y-86957142D02*
X152917857Y-86842857D01*
X152975000Y-86728571D01*
X153032142Y-86671428D01*
X153146428Y-86614285D01*
X153375000Y-86557142D01*
X153660714Y-86557142D01*
X153889285Y-86614285D01*
X154003571Y-86671428D01*
X154060714Y-86728571D01*
X154117857Y-86842857D01*
X154117857Y-86957142D01*
X154060714Y-87071428D01*
X154003571Y-87128571D01*
X153889285Y-87185714D01*
X153660714Y-87242857D01*
X153375000Y-87242857D01*
X153146428Y-87185714D01*
X153032142Y-87128571D01*
X152975000Y-87071428D01*
X152917857Y-86957142D01*
X154003571Y-86042857D02*
X154060714Y-85985714D01*
X154117857Y-86042857D01*
X154060714Y-86100000D01*
X154003571Y-86042857D01*
X154117857Y-86042857D01*
X154117857Y-84842857D02*
X154117857Y-85528571D01*
X154117857Y-85185714D02*
X152917857Y-85185714D01*
X153089285Y-85300000D01*
X153203571Y-85414285D01*
X153260714Y-85528571D01*
X152917857Y-83757142D02*
X152917857Y-84328571D01*
X153489285Y-84385714D01*
X153432142Y-84328571D01*
X153375000Y-84214285D01*
X153375000Y-83928571D01*
X153432142Y-83814285D01*
X153489285Y-83757142D01*
X153603571Y-83700000D01*
X153889285Y-83700000D01*
X154003571Y-83757142D01*
X154060714Y-83814285D01*
X154117857Y-83928571D01*
X154117857Y-84214285D01*
X154060714Y-84328571D01*
X154003571Y-84385714D01*
X156167857Y-104757142D02*
X154967857Y-104757142D01*
X155425000Y-104757142D02*
X155367857Y-104642857D01*
X155367857Y-104414285D01*
X155425000Y-104300000D01*
X155482142Y-104242857D01*
X155596428Y-104185714D01*
X155939285Y-104185714D01*
X156053571Y-104242857D01*
X156110714Y-104300000D01*
X156167857Y-104414285D01*
X156167857Y-104642857D01*
X156110714Y-104757142D01*
X155367857Y-103785714D02*
X156167857Y-103500000D01*
X155367857Y-103214285D02*
X156167857Y-103500000D01*
X156453571Y-103614285D01*
X156510714Y-103671428D01*
X156567857Y-103785714D01*
X155367857Y-101842857D02*
X156167857Y-101842857D01*
X155482142Y-101842857D02*
X155425000Y-101785714D01*
X155367857Y-101671428D01*
X155367857Y-101500000D01*
X155425000Y-101385714D01*
X155539285Y-101328571D01*
X156167857Y-101328571D01*
X156167857Y-100242857D02*
X155539285Y-100242857D01*
X155425000Y-100300000D01*
X155367857Y-100414285D01*
X155367857Y-100642857D01*
X155425000Y-100757142D01*
X156110714Y-100242857D02*
X156167857Y-100357142D01*
X156167857Y-100642857D01*
X156110714Y-100757142D01*
X155996428Y-100814285D01*
X155882142Y-100814285D01*
X155767857Y-100757142D01*
X155710714Y-100642857D01*
X155710714Y-100357142D01*
X155653571Y-100242857D01*
X155367857Y-99842857D02*
X155367857Y-99385714D01*
X154967857Y-99671428D02*
X155996428Y-99671428D01*
X156110714Y-99614285D01*
X156167857Y-99500000D01*
X156167857Y-99385714D01*
X156110714Y-98528571D02*
X156167857Y-98642857D01*
X156167857Y-98871428D01*
X156110714Y-98985714D01*
X155996428Y-99042857D01*
X155539285Y-99042857D01*
X155425000Y-98985714D01*
X155367857Y-98871428D01*
X155367857Y-98642857D01*
X155425000Y-98528571D01*
X155539285Y-98471428D01*
X155653571Y-98471428D01*
X155767857Y-99042857D01*
X156110714Y-96528571D02*
X156167857Y-96642857D01*
X156167857Y-96871428D01*
X156110714Y-96985714D01*
X156053571Y-97042857D01*
X155939285Y-97100000D01*
X155596428Y-97100000D01*
X155482142Y-97042857D01*
X155425000Y-96985714D01*
X155367857Y-96871428D01*
X155367857Y-96642857D01*
X155425000Y-96528571D01*
X156110714Y-95557142D02*
X156167857Y-95671428D01*
X156167857Y-95900000D01*
X156110714Y-96014285D01*
X155996428Y-96071428D01*
X155539285Y-96071428D01*
X155425000Y-96014285D01*
X155367857Y-95900000D01*
X155367857Y-95671428D01*
X155425000Y-95557142D01*
X155539285Y-95500000D01*
X155653571Y-95500000D01*
X155767857Y-96071428D01*
X156167857Y-94985714D02*
X155367857Y-94985714D01*
X155596428Y-94985714D02*
X155482142Y-94928571D01*
X155425000Y-94871428D01*
X155367857Y-94757142D01*
X155367857Y-94642857D01*
X156167857Y-94242857D02*
X155367857Y-94242857D01*
X155482142Y-94242857D02*
X155425000Y-94185714D01*
X155367857Y-94071428D01*
X155367857Y-93900000D01*
X155425000Y-93785714D01*
X155539285Y-93728571D01*
X156167857Y-93728571D01*
X155539285Y-93728571D02*
X155425000Y-93671428D01*
X155367857Y-93557142D01*
X155367857Y-93385714D01*
X155425000Y-93271428D01*
X155539285Y-93214285D01*
X156167857Y-93214285D01*
X156167857Y-92128571D02*
X155539285Y-92128571D01*
X155425000Y-92185714D01*
X155367857Y-92300000D01*
X155367857Y-92528571D01*
X155425000Y-92642857D01*
X156110714Y-92128571D02*
X156167857Y-92242857D01*
X156167857Y-92528571D01*
X156110714Y-92642857D01*
X155996428Y-92700000D01*
X155882142Y-92700000D01*
X155767857Y-92642857D01*
X155710714Y-92528571D01*
X155710714Y-92242857D01*
X155653571Y-92128571D01*
X156167857Y-91557142D02*
X154967857Y-91557142D01*
X155710714Y-91442857D02*
X156167857Y-91100000D01*
X155367857Y-91100000D02*
X155825000Y-91557142D01*
X156167857Y-88700000D02*
X156167857Y-88757142D01*
X156110714Y-88871428D01*
X155939285Y-89042857D01*
X155596428Y-89328571D01*
X155425000Y-89442857D01*
X155253571Y-89500000D01*
X155139285Y-89500000D01*
X155025000Y-89442857D01*
X154967857Y-89328571D01*
X154967857Y-89271428D01*
X155025000Y-89157142D01*
X155139285Y-89100000D01*
X155196428Y-89100000D01*
X155310714Y-89157142D01*
X155367857Y-89214285D01*
X155596428Y-89557142D01*
X155653571Y-89614285D01*
X155767857Y-89671428D01*
X155939285Y-89671428D01*
X156053571Y-89614285D01*
X156110714Y-89557142D01*
X156167857Y-89442857D01*
X156167857Y-89271428D01*
X156110714Y-89157142D01*
X156053571Y-89100000D01*
X155825000Y-88928571D01*
X155653571Y-88871428D01*
X155539285Y-88871428D01*
X155367857Y-87271428D02*
X156396428Y-87271428D01*
X156510714Y-87328571D01*
X156567857Y-87442857D01*
X156567857Y-87500000D01*
X154967857Y-87271428D02*
X155025000Y-87328571D01*
X155082142Y-87271428D01*
X155025000Y-87214285D01*
X154967857Y-87271428D01*
X155082142Y-87271428D01*
X156167857Y-86528571D02*
X156110714Y-86642857D01*
X156053571Y-86700000D01*
X155939285Y-86757142D01*
X155596428Y-86757142D01*
X155482142Y-86700000D01*
X155425000Y-86642857D01*
X155367857Y-86528571D01*
X155367857Y-86357142D01*
X155425000Y-86242857D01*
X155482142Y-86185714D01*
X155596428Y-86128571D01*
X155939285Y-86128571D01*
X156053571Y-86185714D01*
X156110714Y-86242857D01*
X156167857Y-86357142D01*
X156167857Y-86528571D01*
X155367857Y-85614285D02*
X156167857Y-85614285D01*
X155482142Y-85614285D02*
X155425000Y-85557142D01*
X155367857Y-85442857D01*
X155367857Y-85271428D01*
X155425000Y-85157142D01*
X155539285Y-85100000D01*
X156167857Y-85100000D01*
X155367857Y-83614285D02*
X156167857Y-83614285D01*
X155482142Y-83614285D02*
X155425000Y-83557142D01*
X155367857Y-83442857D01*
X155367857Y-83271428D01*
X155425000Y-83157142D01*
X155539285Y-83100000D01*
X156167857Y-83100000D01*
X156110714Y-82071428D02*
X156167857Y-82185714D01*
X156167857Y-82414285D01*
X156110714Y-82528571D01*
X155996428Y-82585714D01*
X155539285Y-82585714D01*
X155425000Y-82528571D01*
X155367857Y-82414285D01*
X155367857Y-82185714D01*
X155425000Y-82071428D01*
X155539285Y-82014285D01*
X155653571Y-82014285D01*
X155767857Y-82585714D01*
X155367857Y-81614285D02*
X156167857Y-81385714D01*
X155596428Y-81157142D01*
X156167857Y-80928571D01*
X155367857Y-80700000D01*
X156167857Y-80242857D02*
X155367857Y-80242857D01*
X155482142Y-80242857D02*
X155425000Y-80185714D01*
X155367857Y-80071428D01*
X155367857Y-79900000D01*
X155425000Y-79785714D01*
X155539285Y-79728571D01*
X156167857Y-79728571D01*
X155539285Y-79728571D02*
X155425000Y-79671428D01*
X155367857Y-79557142D01*
X155367857Y-79385714D01*
X155425000Y-79271428D01*
X155539285Y-79214285D01*
X156167857Y-79214285D01*
X156167857Y-78128571D02*
X155539285Y-78128571D01*
X155425000Y-78185714D01*
X155367857Y-78300000D01*
X155367857Y-78528571D01*
X155425000Y-78642857D01*
X156110714Y-78128571D02*
X156167857Y-78242857D01*
X156167857Y-78528571D01*
X156110714Y-78642857D01*
X155996428Y-78700000D01*
X155882142Y-78700000D01*
X155767857Y-78642857D01*
X155710714Y-78528571D01*
X155710714Y-78242857D01*
X155653571Y-78128571D01*
X155367857Y-77557142D02*
X156167857Y-77557142D01*
X155482142Y-77557142D02*
X155425000Y-77500000D01*
X155367857Y-77385714D01*
X155367857Y-77214285D01*
X155425000Y-77100000D01*
X155539285Y-77042857D01*
X156167857Y-77042857D01*
D12*
X66376190Y-173704761D02*
X66376190Y-175323809D01*
X66471428Y-175514285D01*
X66566666Y-175609523D01*
X66757142Y-175704761D01*
X67138095Y-175704761D01*
X67328571Y-175609523D01*
X67423809Y-175514285D01*
X67519047Y-175323809D01*
X67519047Y-173704761D01*
X68376190Y-175609523D02*
X68661904Y-175704761D01*
X69138095Y-175704761D01*
X69328571Y-175609523D01*
X69423809Y-175514285D01*
X69519047Y-175323809D01*
X69519047Y-175133333D01*
X69423809Y-174942857D01*
X69328571Y-174847619D01*
X69138095Y-174752380D01*
X68757142Y-174657142D01*
X68566666Y-174561904D01*
X68471428Y-174466666D01*
X68376190Y-174276190D01*
X68376190Y-174085714D01*
X68471428Y-173895238D01*
X68566666Y-173800000D01*
X68757142Y-173704761D01*
X69233333Y-173704761D01*
X69519047Y-173800000D01*
X71042857Y-174657142D02*
X71328571Y-174752380D01*
X71423809Y-174847619D01*
X71519047Y-175038095D01*
X71519047Y-175323809D01*
X71423809Y-175514285D01*
X71328571Y-175609523D01*
X71138095Y-175704761D01*
X70376190Y-175704761D01*
X70376190Y-173704761D01*
X71042857Y-173704761D01*
X71233333Y-173800000D01*
X71328571Y-173895238D01*
X71423809Y-174085714D01*
X71423809Y-174276190D01*
X71328571Y-174466666D01*
X71233333Y-174561904D01*
X71042857Y-174657142D01*
X70376190Y-174657142D01*
D11*
X83057142Y-193442857D02*
X83057142Y-192242857D01*
X84371428Y-192642857D02*
X84828571Y-192642857D01*
X84542857Y-192242857D02*
X84542857Y-193271428D01*
X84600000Y-193385714D01*
X84714285Y-193442857D01*
X84828571Y-193442857D01*
X85228571Y-193442857D02*
X85228571Y-192242857D01*
X85742857Y-193442857D02*
X85742857Y-192814285D01*
X85685714Y-192700000D01*
X85571428Y-192642857D01*
X85400000Y-192642857D01*
X85285714Y-192700000D01*
X85228571Y-192757142D01*
X86314285Y-193442857D02*
X86314285Y-192642857D01*
X86314285Y-192242857D02*
X86257142Y-192300000D01*
X86314285Y-192357142D01*
X86371428Y-192300000D01*
X86314285Y-192242857D01*
X86314285Y-192357142D01*
X86885714Y-192642857D02*
X86885714Y-193442857D01*
X86885714Y-192757142D02*
X86942857Y-192700000D01*
X87057142Y-192642857D01*
X87228571Y-192642857D01*
X87342857Y-192700000D01*
X87400000Y-192814285D01*
X87400000Y-193442857D01*
X87971428Y-193442857D02*
X87971428Y-192242857D01*
X88085714Y-192985714D02*
X88428571Y-193442857D01*
X88428571Y-192642857D02*
X87971428Y-193100000D01*
X89742857Y-192642857D02*
X90028571Y-193442857D01*
X90314285Y-192642857D02*
X90028571Y-193442857D01*
X89914285Y-193728571D01*
X89857142Y-193785714D01*
X89742857Y-193842857D01*
X90942857Y-193442857D02*
X90828571Y-193385714D01*
X90771428Y-193328571D01*
X90714285Y-193214285D01*
X90714285Y-192871428D01*
X90771428Y-192757142D01*
X90828571Y-192700000D01*
X90942857Y-192642857D01*
X91114285Y-192642857D01*
X91228571Y-192700000D01*
X91285714Y-192757142D01*
X91342857Y-192871428D01*
X91342857Y-193214285D01*
X91285714Y-193328571D01*
X91228571Y-193385714D01*
X91114285Y-193442857D01*
X90942857Y-193442857D01*
X92371428Y-192642857D02*
X92371428Y-193442857D01*
X91857142Y-192642857D02*
X91857142Y-193271428D01*
X91914285Y-193385714D01*
X92028571Y-193442857D01*
X92200000Y-193442857D01*
X92314285Y-193385714D01*
X92371428Y-193328571D01*
X93000000Y-192242857D02*
X92885714Y-192471428D01*
X93685714Y-193442857D02*
X93571428Y-193385714D01*
X93514285Y-193271428D01*
X93514285Y-192242857D01*
X94314285Y-193442857D02*
X94200000Y-193385714D01*
X94142857Y-193271428D01*
X94142857Y-192242857D01*
X95514285Y-192642857D02*
X95971428Y-192642857D01*
X95685714Y-193442857D02*
X95685714Y-192414285D01*
X95742857Y-192300000D01*
X95857142Y-192242857D01*
X95971428Y-192242857D01*
X96371428Y-193442857D02*
X96371428Y-192642857D01*
X96371428Y-192242857D02*
X96314285Y-192300000D01*
X96371428Y-192357142D01*
X96428571Y-192300000D01*
X96371428Y-192242857D01*
X96371428Y-192357142D01*
X96942857Y-192642857D02*
X96942857Y-193442857D01*
X96942857Y-192757142D02*
X97000000Y-192700000D01*
X97114285Y-192642857D01*
X97285714Y-192642857D01*
X97400000Y-192700000D01*
X97457142Y-192814285D01*
X97457142Y-193442857D01*
X98542857Y-193442857D02*
X98542857Y-192242857D01*
X98542857Y-193385714D02*
X98428571Y-193442857D01*
X98200000Y-193442857D01*
X98085714Y-193385714D01*
X98028571Y-193328571D01*
X97971428Y-193214285D01*
X97971428Y-192871428D01*
X98028571Y-192757142D01*
X98085714Y-192700000D01*
X98200000Y-192642857D01*
X98428571Y-192642857D01*
X98542857Y-192700000D01*
X99857142Y-192642857D02*
X100314285Y-192642857D01*
X100028571Y-192242857D02*
X100028571Y-193271428D01*
X100085714Y-193385714D01*
X100200000Y-193442857D01*
X100314285Y-193442857D01*
X100714285Y-193442857D02*
X100714285Y-192242857D01*
X101228571Y-193442857D02*
X101228571Y-192814285D01*
X101171428Y-192700000D01*
X101057142Y-192642857D01*
X100885714Y-192642857D01*
X100771428Y-192700000D01*
X100714285Y-192757142D01*
X101800000Y-193442857D02*
X101800000Y-192642857D01*
X101800000Y-192242857D02*
X101742857Y-192300000D01*
X101800000Y-192357142D01*
X101857142Y-192300000D01*
X101800000Y-192242857D01*
X101800000Y-192357142D01*
X102314285Y-193385714D02*
X102428571Y-193442857D01*
X102657142Y-193442857D01*
X102771428Y-193385714D01*
X102828571Y-193271428D01*
X102828571Y-193214285D01*
X102771428Y-193100000D01*
X102657142Y-193042857D01*
X102485714Y-193042857D01*
X102371428Y-192985714D01*
X102314285Y-192871428D01*
X102314285Y-192814285D01*
X102371428Y-192700000D01*
X102485714Y-192642857D01*
X102657142Y-192642857D01*
X102771428Y-192700000D01*
X104257142Y-192642857D02*
X104257142Y-193442857D01*
X104257142Y-192757142D02*
X104314285Y-192700000D01*
X104428571Y-192642857D01*
X104600000Y-192642857D01*
X104714285Y-192700000D01*
X104771428Y-192814285D01*
X104771428Y-193442857D01*
X105800000Y-193385714D02*
X105685714Y-193442857D01*
X105457142Y-193442857D01*
X105342857Y-193385714D01*
X105285714Y-193271428D01*
X105285714Y-192814285D01*
X105342857Y-192700000D01*
X105457142Y-192642857D01*
X105685714Y-192642857D01*
X105800000Y-192700000D01*
X105857142Y-192814285D01*
X105857142Y-192928571D01*
X105285714Y-193042857D01*
X106257142Y-193442857D02*
X106885714Y-192642857D01*
X106257142Y-192642857D02*
X106885714Y-193442857D01*
X107171428Y-192642857D02*
X107628571Y-192642857D01*
X107342857Y-192242857D02*
X107342857Y-193271428D01*
X107400000Y-193385714D01*
X107514285Y-193442857D01*
X107628571Y-193442857D01*
X108942857Y-192642857D02*
X108942857Y-193842857D01*
X108942857Y-192700000D02*
X109057142Y-192642857D01*
X109285714Y-192642857D01*
X109400000Y-192700000D01*
X109457142Y-192757142D01*
X109514285Y-192871428D01*
X109514285Y-193214285D01*
X109457142Y-193328571D01*
X109400000Y-193385714D01*
X109285714Y-193442857D01*
X109057142Y-193442857D01*
X108942857Y-193385714D01*
X110542857Y-193442857D02*
X110542857Y-192814285D01*
X110485714Y-192700000D01*
X110371428Y-192642857D01*
X110142857Y-192642857D01*
X110028571Y-192700000D01*
X110542857Y-193385714D02*
X110428571Y-193442857D01*
X110142857Y-193442857D01*
X110028571Y-193385714D01*
X109971428Y-193271428D01*
X109971428Y-193157142D01*
X110028571Y-193042857D01*
X110142857Y-192985714D01*
X110428571Y-192985714D01*
X110542857Y-192928571D01*
X111114285Y-193442857D02*
X111114285Y-192642857D01*
X111114285Y-192871428D02*
X111171428Y-192757142D01*
X111228571Y-192700000D01*
X111342857Y-192642857D01*
X111457142Y-192642857D01*
X111685714Y-192642857D02*
X112142857Y-192642857D01*
X111857142Y-192242857D02*
X111857142Y-193271428D01*
X111914285Y-193385714D01*
X112028571Y-193442857D01*
X112142857Y-193442857D01*
X113400000Y-193385714D02*
X113514285Y-193442857D01*
X113742857Y-193442857D01*
X113857142Y-193385714D01*
X113914285Y-193271428D01*
X113914285Y-193214285D01*
X113857142Y-193100000D01*
X113742857Y-193042857D01*
X113571428Y-193042857D01*
X113457142Y-192985714D01*
X113400000Y-192871428D01*
X113400000Y-192814285D01*
X113457142Y-192700000D01*
X113571428Y-192642857D01*
X113742857Y-192642857D01*
X113857142Y-192700000D01*
X114428571Y-193442857D02*
X114428571Y-192242857D01*
X114942857Y-193442857D02*
X114942857Y-192814285D01*
X114885714Y-192700000D01*
X114771428Y-192642857D01*
X114600000Y-192642857D01*
X114485714Y-192700000D01*
X114428571Y-192757142D01*
X115685714Y-193442857D02*
X115571428Y-193385714D01*
X115514285Y-193328571D01*
X115457142Y-193214285D01*
X115457142Y-192871428D01*
X115514285Y-192757142D01*
X115571428Y-192700000D01*
X115685714Y-192642857D01*
X115857142Y-192642857D01*
X115971428Y-192700000D01*
X116028571Y-192757142D01*
X116085714Y-192871428D01*
X116085714Y-193214285D01*
X116028571Y-193328571D01*
X115971428Y-193385714D01*
X115857142Y-193442857D01*
X115685714Y-193442857D01*
X117114285Y-193385714D02*
X117000000Y-193442857D01*
X116771428Y-193442857D01*
X116657142Y-193385714D01*
X116600000Y-193328571D01*
X116542857Y-193214285D01*
X116542857Y-192871428D01*
X116600000Y-192757142D01*
X116657142Y-192700000D01*
X116771428Y-192642857D01*
X117000000Y-192642857D01*
X117114285Y-192700000D01*
X117628571Y-193442857D02*
X117628571Y-192242857D01*
X117742857Y-192985714D02*
X118085714Y-193442857D01*
X118085714Y-192642857D02*
X117628571Y-193100000D01*
X118600000Y-193442857D02*
X118600000Y-192642857D01*
X118600000Y-192242857D02*
X118542857Y-192300000D01*
X118600000Y-192357142D01*
X118657142Y-192300000D01*
X118600000Y-192242857D01*
X118600000Y-192357142D01*
X119171428Y-192642857D02*
X119171428Y-193442857D01*
X119171428Y-192757142D02*
X119228571Y-192700000D01*
X119342857Y-192642857D01*
X119514285Y-192642857D01*
X119628571Y-192700000D01*
X119685714Y-192814285D01*
X119685714Y-193442857D01*
X120771428Y-192642857D02*
X120771428Y-193614285D01*
X120714285Y-193728571D01*
X120657142Y-193785714D01*
X120542857Y-193842857D01*
X120371428Y-193842857D01*
X120257142Y-193785714D01*
X120771428Y-193385714D02*
X120657142Y-193442857D01*
X120428571Y-193442857D01*
X120314285Y-193385714D01*
X120257142Y-193328571D01*
X120200000Y-193214285D01*
X120200000Y-192871428D01*
X120257142Y-192757142D01*
X120314285Y-192700000D01*
X120428571Y-192642857D01*
X120657142Y-192642857D01*
X120771428Y-192700000D01*
X121342857Y-193328571D02*
X121400000Y-193385714D01*
X121342857Y-193442857D01*
X121285714Y-193385714D01*
X121342857Y-193328571D01*
X121342857Y-193442857D01*
D12*
X91000000Y-166157142D02*
X91000000Y-163157142D01*
X92000000Y-165300000D01*
X93000000Y-163157142D01*
X93000000Y-166157142D01*
X94428571Y-166157142D02*
X94428571Y-163157142D01*
X97571428Y-165871428D02*
X97428571Y-166014285D01*
X97000000Y-166157142D01*
X96714285Y-166157142D01*
X96285714Y-166014285D01*
X96000000Y-165728571D01*
X95857142Y-165442857D01*
X95714285Y-164871428D01*
X95714285Y-164442857D01*
X95857142Y-163871428D01*
X96000000Y-163585714D01*
X96285714Y-163300000D01*
X96714285Y-163157142D01*
X97000000Y-163157142D01*
X97428571Y-163300000D01*
X97571428Y-163442857D01*
X100571428Y-166157142D02*
X99571428Y-164728571D01*
X98857142Y-166157142D02*
X98857142Y-163157142D01*
X100000000Y-163157142D01*
X100285714Y-163300000D01*
X100428571Y-163442857D01*
X100571428Y-163728571D01*
X100571428Y-164157142D01*
X100428571Y-164442857D01*
X100285714Y-164585714D01*
X100000000Y-164728571D01*
X98857142Y-164728571D01*
X102428571Y-163157142D02*
X103000000Y-163157142D01*
X103285714Y-163300000D01*
X103571428Y-163585714D01*
X103714285Y-164157142D01*
X103714285Y-165157142D01*
X103571428Y-165728571D01*
X103285714Y-166014285D01*
X103000000Y-166157142D01*
X102428571Y-166157142D01*
X102142857Y-166014285D01*
X101857142Y-165728571D01*
X101714285Y-165157142D01*
X101714285Y-164157142D01*
X101857142Y-163585714D01*
X102142857Y-163300000D01*
X102428571Y-163157142D01*
X104857142Y-166014285D02*
X105285714Y-166157142D01*
X106000000Y-166157142D01*
X106285714Y-166014285D01*
X106428571Y-165871428D01*
X106571428Y-165585714D01*
X106571428Y-165300000D01*
X106428571Y-165014285D01*
X106285714Y-164871428D01*
X106000000Y-164728571D01*
X105428571Y-164585714D01*
X105142857Y-164442857D01*
X105000000Y-164300000D01*
X104857142Y-164014285D01*
X104857142Y-163728571D01*
X105000000Y-163442857D01*
X105142857Y-163300000D01*
X105428571Y-163157142D01*
X106142857Y-163157142D01*
X106571428Y-163300000D01*
X107428571Y-163157142D02*
X109142857Y-163157142D01*
X108285714Y-166157142D02*
X108285714Y-163157142D01*
X110142857Y-166157142D02*
X110142857Y-163157142D01*
X111571428Y-166157142D02*
X111571428Y-163157142D01*
X112571428Y-165300000D01*
X113571428Y-163157142D01*
X113571428Y-166157142D01*
X115000000Y-165871428D02*
X115142857Y-166014285D01*
X115000000Y-166157142D01*
X114857142Y-166014285D01*
X115000000Y-165871428D01*
X115000000Y-166157142D01*
D11*
X91100000Y-132600000D02*
X91671428Y-132600000D01*
X90985714Y-132942857D02*
X91385714Y-131742857D01*
X91785714Y-132942857D01*
X93442857Y-131742857D02*
X93442857Y-132600000D01*
X93385714Y-132771428D01*
X93271428Y-132885714D01*
X93100000Y-132942857D01*
X92985714Y-132942857D01*
X94242857Y-131742857D02*
X94471428Y-131742857D01*
X94585714Y-131800000D01*
X94700000Y-131914285D01*
X94757142Y-132142857D01*
X94757142Y-132542857D01*
X94700000Y-132771428D01*
X94585714Y-132885714D01*
X94471428Y-132942857D01*
X94242857Y-132942857D01*
X94128571Y-132885714D01*
X94014285Y-132771428D01*
X93957142Y-132542857D01*
X93957142Y-132142857D01*
X94014285Y-131914285D01*
X94128571Y-131800000D01*
X94242857Y-131742857D01*
X95842857Y-132942857D02*
X95271428Y-132942857D01*
X95271428Y-131742857D01*
X96071428Y-131742857D02*
X96757142Y-131742857D01*
X96414285Y-132942857D02*
X96414285Y-131742857D01*
X97957142Y-131742857D02*
X98242857Y-132942857D01*
X98471428Y-132085714D01*
X98700000Y-132942857D01*
X98985714Y-131742857D01*
X99442857Y-132942857D02*
X99442857Y-131742857D01*
X99442857Y-132314285D02*
X100128571Y-132314285D01*
X100128571Y-132942857D02*
X100128571Y-131742857D01*
X100700000Y-132314285D02*
X101100000Y-132314285D01*
X101271428Y-132942857D02*
X100700000Y-132942857D01*
X100700000Y-131742857D01*
X101271428Y-131742857D01*
X101785714Y-132942857D02*
X101785714Y-131742857D01*
X102471428Y-132942857D01*
X102471428Y-131742857D01*
X104185714Y-132371428D02*
X104185714Y-132942857D01*
X103785714Y-131742857D02*
X104185714Y-132371428D01*
X104585714Y-131742857D01*
X105214285Y-131742857D02*
X105442857Y-131742857D01*
X105557142Y-131800000D01*
X105671428Y-131914285D01*
X105728571Y-132142857D01*
X105728571Y-132542857D01*
X105671428Y-132771428D01*
X105557142Y-132885714D01*
X105442857Y-132942857D01*
X105214285Y-132942857D01*
X105100000Y-132885714D01*
X104985714Y-132771428D01*
X104928571Y-132542857D01*
X104928571Y-132142857D01*
X104985714Y-131914285D01*
X105100000Y-131800000D01*
X105214285Y-131742857D01*
X106242857Y-131742857D02*
X106242857Y-132714285D01*
X106300000Y-132828571D01*
X106357142Y-132885714D01*
X106471428Y-132942857D01*
X106700000Y-132942857D01*
X106814285Y-132885714D01*
X106871428Y-132828571D01*
X106928571Y-132714285D01*
X106928571Y-131742857D01*
X108414285Y-132942857D02*
X108414285Y-131742857D01*
X109100000Y-132942857D01*
X109100000Y-131742857D01*
X109671428Y-132314285D02*
X110071428Y-132314285D01*
X110242857Y-132942857D02*
X109671428Y-132942857D01*
X109671428Y-131742857D01*
X110242857Y-131742857D01*
X110757142Y-132314285D02*
X111157142Y-132314285D01*
X111328571Y-132942857D02*
X110757142Y-132942857D01*
X110757142Y-131742857D01*
X111328571Y-131742857D01*
X111842857Y-132942857D02*
X111842857Y-131742857D01*
X112128571Y-131742857D01*
X112300000Y-131800000D01*
X112414285Y-131914285D01*
X112471428Y-132028571D01*
X112528571Y-132257142D01*
X112528571Y-132428571D01*
X112471428Y-132657142D01*
X112414285Y-132771428D01*
X112300000Y-132885714D01*
X112128571Y-132942857D01*
X111842857Y-132942857D01*
X113957142Y-132942857D02*
X113957142Y-131742857D01*
X114357142Y-131742857D02*
X115042857Y-131742857D01*
X114700000Y-132942857D02*
X114700000Y-131742857D01*
X115442857Y-132828571D02*
X115500000Y-132885714D01*
X115442857Y-132942857D01*
X115385714Y-132885714D01*
X115442857Y-132828571D01*
X115442857Y-132942857D01*
D12*
X91000000Y-130357142D02*
X91000000Y-127357142D01*
X92000000Y-129500000D01*
X93000000Y-127357142D01*
X93000000Y-130357142D01*
X94428571Y-130357142D02*
X94428571Y-127357142D01*
X97571428Y-130071428D02*
X97428571Y-130214285D01*
X97000000Y-130357142D01*
X96714285Y-130357142D01*
X96285714Y-130214285D01*
X96000000Y-129928571D01*
X95857142Y-129642857D01*
X95714285Y-129071428D01*
X95714285Y-128642857D01*
X95857142Y-128071428D01*
X96000000Y-127785714D01*
X96285714Y-127500000D01*
X96714285Y-127357142D01*
X97000000Y-127357142D01*
X97428571Y-127500000D01*
X97571428Y-127642857D01*
X100571428Y-130357142D02*
X99571428Y-128928571D01*
X98857142Y-130357142D02*
X98857142Y-127357142D01*
X100000000Y-127357142D01*
X100285714Y-127500000D01*
X100428571Y-127642857D01*
X100571428Y-127928571D01*
X100571428Y-128357142D01*
X100428571Y-128642857D01*
X100285714Y-128785714D01*
X100000000Y-128928571D01*
X98857142Y-128928571D01*
X102428571Y-127357142D02*
X103000000Y-127357142D01*
X103285714Y-127500000D01*
X103571428Y-127785714D01*
X103714285Y-128357142D01*
X103714285Y-129357142D01*
X103571428Y-129928571D01*
X103285714Y-130214285D01*
X103000000Y-130357142D01*
X102428571Y-130357142D01*
X102142857Y-130214285D01*
X101857142Y-129928571D01*
X101714285Y-129357142D01*
X101714285Y-128357142D01*
X101857142Y-127785714D01*
X102142857Y-127500000D01*
X102428571Y-127357142D01*
X104857142Y-130214285D02*
X105285714Y-130357142D01*
X106000000Y-130357142D01*
X106285714Y-130214285D01*
X106428571Y-130071428D01*
X106571428Y-129785714D01*
X106571428Y-129500000D01*
X106428571Y-129214285D01*
X106285714Y-129071428D01*
X106000000Y-128928571D01*
X105428571Y-128785714D01*
X105142857Y-128642857D01*
X105000000Y-128500000D01*
X104857142Y-128214285D01*
X104857142Y-127928571D01*
X105000000Y-127642857D01*
X105142857Y-127500000D01*
X105428571Y-127357142D01*
X106142857Y-127357142D01*
X106571428Y-127500000D01*
X107428571Y-127357142D02*
X109142857Y-127357142D01*
X108285714Y-130357142D02*
X108285714Y-127357142D01*
X110142857Y-130357142D02*
X110142857Y-127357142D01*
X111571428Y-130357142D02*
X111571428Y-127357142D01*
X112571428Y-129500000D01*
X113571428Y-127357142D01*
X113571428Y-130357142D01*
X115000000Y-130071428D02*
X115142857Y-130214285D01*
X115000000Y-130357142D01*
X114857142Y-130214285D01*
X115000000Y-130071428D01*
X115000000Y-130357142D01*
X55185714Y-151904761D02*
X55566666Y-151904761D01*
X55757142Y-152000000D01*
X55947619Y-152190476D01*
X56042857Y-152571428D01*
X56042857Y-153238095D01*
X55947619Y-153619047D01*
X55757142Y-153809523D01*
X55566666Y-153904761D01*
X55185714Y-153904761D01*
X54995238Y-153809523D01*
X54804761Y-153619047D01*
X54709523Y-153238095D01*
X54709523Y-152571428D01*
X54804761Y-152190476D01*
X54995238Y-152000000D01*
X55185714Y-151904761D01*
X56900000Y-151904761D02*
X56900000Y-153523809D01*
X56995238Y-153714285D01*
X57090476Y-153809523D01*
X57280952Y-153904761D01*
X57661904Y-153904761D01*
X57852380Y-153809523D01*
X57947619Y-153714285D01*
X58042857Y-153523809D01*
X58042857Y-151904761D01*
X58709523Y-151904761D02*
X59852380Y-151904761D01*
X59280952Y-153904761D02*
X59280952Y-151904761D01*
X63090476Y-153904761D02*
X61947619Y-153904761D01*
X62519047Y-153904761D02*
X62519047Y-151904761D01*
X62328571Y-152190476D01*
X62138095Y-152380952D01*
X61947619Y-152476190D01*
X86185714Y-151904761D02*
X86566666Y-151904761D01*
X86757142Y-152000000D01*
X86947619Y-152190476D01*
X87042857Y-152571428D01*
X87042857Y-153238095D01*
X86947619Y-153619047D01*
X86757142Y-153809523D01*
X86566666Y-153904761D01*
X86185714Y-153904761D01*
X85995238Y-153809523D01*
X85804761Y-153619047D01*
X85709523Y-153238095D01*
X85709523Y-152571428D01*
X85804761Y-152190476D01*
X85995238Y-152000000D01*
X86185714Y-151904761D01*
X87900000Y-151904761D02*
X87900000Y-153523809D01*
X87995238Y-153714285D01*
X88090476Y-153809523D01*
X88280952Y-153904761D01*
X88661904Y-153904761D01*
X88852380Y-153809523D01*
X88947619Y-153714285D01*
X89042857Y-153523809D01*
X89042857Y-151904761D01*
X89709523Y-151904761D02*
X90852380Y-151904761D01*
X90280952Y-153904761D02*
X90280952Y-151904761D01*
X93423809Y-151904761D02*
X93614285Y-151904761D01*
X93804761Y-152000000D01*
X93900000Y-152095238D01*
X93995238Y-152285714D01*
X94090476Y-152666666D01*
X94090476Y-153142857D01*
X93995238Y-153523809D01*
X93900000Y-153714285D01*
X93804761Y-153809523D01*
X93614285Y-153904761D01*
X93423809Y-153904761D01*
X93233333Y-153809523D01*
X93138095Y-153714285D01*
X93042857Y-153523809D01*
X92947619Y-153142857D01*
X92947619Y-152666666D01*
X93042857Y-152285714D01*
X93138095Y-152095238D01*
X93233333Y-152000000D01*
X93423809Y-151904761D01*
D10*
X45900000Y-151000000D02*
X44900000Y-150000000D01*
X46900000Y-151000000D02*
X45900000Y-151000000D01*
X69900000Y-151000000D02*
X46900000Y-151000000D01*
X70900000Y-150000000D02*
X69900000Y-151000000D01*
X76900000Y-151000000D02*
X75900000Y-150000000D01*
X100900000Y-151000000D02*
X76900000Y-151000000D01*
X101900000Y-150000000D02*
X100900000Y-151000000D01*
X106900000Y-151000000D02*
X105900000Y-150000000D01*
X129900000Y-151000000D02*
X106900000Y-151000000D01*
X130900000Y-150000000D02*
X129900000Y-151000000D01*
X160900000Y-151000000D02*
X161900000Y-150000000D01*
X137900000Y-151000000D02*
X160900000Y-151000000D01*
X136900000Y-150000000D02*
X137900000Y-151000000D01*
D12*
X115138095Y-153904761D02*
X115138095Y-151904761D01*
X116090476Y-153904761D02*
X116090476Y-151904761D01*
X117233333Y-153904761D01*
X117233333Y-151904761D01*
X120757142Y-153904761D02*
X119614285Y-153904761D01*
X120185714Y-153904761D02*
X120185714Y-151904761D01*
X119995238Y-152190476D01*
X119804761Y-152380952D01*
X119614285Y-152476190D01*
X147138095Y-153904761D02*
X147138095Y-151904761D01*
X148090476Y-153904761D02*
X148090476Y-151904761D01*
X149233333Y-153904761D01*
X149233333Y-151904761D01*
X152090476Y-151904761D02*
X152280952Y-151904761D01*
X152471428Y-152000000D01*
X152566666Y-152095238D01*
X152661904Y-152285714D01*
X152757142Y-152666666D01*
X152757142Y-153142857D01*
X152661904Y-153523809D01*
X152566666Y-153714285D01*
X152471428Y-153809523D01*
X152280952Y-153904761D01*
X152090476Y-153904761D01*
X151900000Y-153809523D01*
X151804761Y-153714285D01*
X151709523Y-153523809D01*
X151614285Y-153142857D01*
X151614285Y-152666666D01*
X151709523Y-152285714D01*
X151804761Y-152095238D01*
X151900000Y-152000000D01*
X152090476Y-151904761D01*
D13*
G04 #@! TO.C,U1*
X60990000Y-106470000D02*
X63530000Y-106470000D01*
X63530000Y-106470000D02*
X63530000Y-103930000D01*
X63530000Y-103930000D02*
X60990000Y-103930000D01*
X60990000Y-103930000D02*
X60990000Y-106470000D01*
X69880000Y-98850000D02*
X69880000Y-102660000D01*
X69880000Y-102660000D02*
X67340000Y-102660000D01*
X67340000Y-102660000D02*
X67340000Y-98850000D01*
X67340000Y-98850000D02*
X69880000Y-98850000D01*
X71150000Y-84880000D02*
X58450000Y-84880000D01*
X58450000Y-97580000D02*
X71150000Y-97580000D01*
X71150000Y-97580000D02*
X71150000Y-84880000D01*
X58450000Y-97580000D02*
X58450000Y-84880000D01*
X69880000Y-63290000D02*
X69880000Y-62020000D01*
X68610000Y-63290000D02*
X68610000Y-62020000D01*
X67340000Y-63290000D02*
X67340000Y-62020000D01*
X66070000Y-63290000D02*
X66070000Y-62020000D01*
X64800000Y-63290000D02*
X64800000Y-62020000D01*
X63530000Y-63290000D02*
X63530000Y-62020000D01*
X62260000Y-63290000D02*
X62260000Y-62020000D01*
X60990000Y-63290000D02*
X60990000Y-62020000D01*
X59720000Y-63290000D02*
X59720000Y-62020000D01*
X71150000Y-62020000D02*
X69880000Y-63290000D01*
X69880000Y-63290000D02*
X59720000Y-63290000D01*
X59720000Y-63290000D02*
X58450000Y-62020000D01*
X58450000Y-62020000D02*
X58450000Y-74720000D01*
X58450000Y-74720000D02*
X71150000Y-74720000D01*
X71150000Y-74720000D02*
X71150000Y-62020000D01*
X55910000Y-62020000D02*
X55910000Y-122980000D01*
X73690000Y-122980000D02*
X73690000Y-62020000D01*
X68610000Y-122980000D02*
X68610000Y-124250000D01*
X68610000Y-124250000D02*
X60990000Y-124250000D01*
X60990000Y-124250000D02*
X60990000Y-122980000D01*
X68610000Y-117900000D02*
X60990000Y-117900000D01*
X60990000Y-117900000D02*
X60990000Y-122980000D01*
X68610000Y-117900000D02*
X68610000Y-122980000D01*
X62260000Y-78530000D02*
X67340000Y-78530000D01*
X67340000Y-78530000D02*
X67340000Y-81070000D01*
X67340000Y-81070000D02*
X62260000Y-81070000D01*
X62260000Y-81070000D02*
X62260000Y-78530000D01*
X55910000Y-62020000D02*
X73690000Y-62020000D01*
X73690000Y-122980000D02*
X55910000Y-122980000D01*
G04 #@! TO.C,J12*
X140000000Y-44500000D02*
X140000000Y-58900000D01*
X140000000Y-58900000D02*
X154800000Y-58900000D01*
X154800000Y-58900000D02*
X154800000Y-44500000D01*
X154800000Y-44500000D02*
X140000000Y-44500000D01*
X153800000Y-35800000D02*
X140800000Y-35800000D01*
X140800000Y-44500000D02*
X140800000Y-35800000D01*
X153800000Y-44500000D02*
X153800000Y-35800000D01*
X152800000Y-35800000D02*
X152800000Y-23800000D01*
X141800000Y-23800000D02*
X141800000Y-35800000D01*
X152800000Y-23800000D02*
X141800000Y-23800000D01*
G04 #@! TO.C,J1*
X61700000Y-23800000D02*
X50700000Y-23800000D01*
X50700000Y-23800000D02*
X50700000Y-35800000D01*
X61700000Y-35800000D02*
X61700000Y-23800000D01*
X62700000Y-44500000D02*
X62700000Y-35800000D01*
X49700000Y-44500000D02*
X49700000Y-35800000D01*
X62700000Y-35800000D02*
X49700000Y-35800000D01*
X63700000Y-44500000D02*
X48900000Y-44500000D01*
X63700000Y-58900000D02*
X63700000Y-44500000D01*
X48900000Y-58900000D02*
X63700000Y-58900000D01*
X48900000Y-44500000D02*
X48900000Y-58900000D01*
G04 #@! TO.C,J10*
X121800000Y-23800000D02*
X110800000Y-23800000D01*
X110800000Y-23800000D02*
X110800000Y-35800000D01*
X121800000Y-35800000D02*
X121800000Y-23800000D01*
X122800000Y-44500000D02*
X122800000Y-35800000D01*
X109800000Y-44500000D02*
X109800000Y-35800000D01*
X122800000Y-35800000D02*
X109800000Y-35800000D01*
X123800000Y-44500000D02*
X109000000Y-44500000D01*
X123800000Y-58900000D02*
X123800000Y-44500000D01*
X109000000Y-58900000D02*
X123800000Y-58900000D01*
X109000000Y-44500000D02*
X109000000Y-58900000D01*
G04 #@! TO.C,J5*
X79300000Y-44500000D02*
X79300000Y-58900000D01*
X79300000Y-58900000D02*
X94100000Y-58900000D01*
X94100000Y-58900000D02*
X94100000Y-44500000D01*
X94100000Y-44500000D02*
X79300000Y-44500000D01*
X93100000Y-35800000D02*
X80100000Y-35800000D01*
X80100000Y-44500000D02*
X80100000Y-35800000D01*
X93100000Y-44500000D02*
X93100000Y-35800000D01*
X92100000Y-35800000D02*
X92100000Y-23800000D01*
X81100000Y-23800000D02*
X81100000Y-35800000D01*
X92100000Y-23800000D02*
X81100000Y-23800000D01*
D14*
G04 #@! TO.C,C42*
X96304000Y-99215221D02*
X96304000Y-99540779D01*
X95284000Y-99215221D02*
X95284000Y-99540779D01*
G04 #@! TO.C,C34*
X99385779Y-114870000D02*
X99060221Y-114870000D01*
X99385779Y-115890000D02*
X99060221Y-115890000D01*
G04 #@! TO.C,C32*
X106878779Y-111572000D02*
X106553221Y-111572000D01*
X106878779Y-110552000D02*
X106553221Y-110552000D01*
D13*
G04 #@! TO.C,U19*
X98926000Y-102441000D02*
X97526000Y-102441000D01*
X98926000Y-107541000D02*
X103076000Y-107541000D01*
X98926000Y-102391000D02*
X103076000Y-102391000D01*
X98926000Y-107541000D02*
X98926000Y-107396000D01*
X103076000Y-107541000D02*
X103076000Y-107396000D01*
X103076000Y-102391000D02*
X103076000Y-102536000D01*
X98926000Y-102391000D02*
X98926000Y-102441000D01*
G04 #@! TO.C,U20*
X99020000Y-108995000D02*
X99020000Y-109045000D01*
X103170000Y-108995000D02*
X103170000Y-109140000D01*
X103170000Y-114145000D02*
X103170000Y-114000000D01*
X99020000Y-114145000D02*
X99020000Y-114000000D01*
X99020000Y-108995000D02*
X103170000Y-108995000D01*
X99020000Y-114145000D02*
X103170000Y-114145000D01*
X99020000Y-109045000D02*
X97620000Y-109045000D01*
D14*
G04 #@! TO.C,C29*
X134908000Y-100231221D02*
X134908000Y-100556779D01*
X135928000Y-100231221D02*
X135928000Y-100556779D01*
G04 #@! TO.C,C30*
X124912779Y-104206000D02*
X124587221Y-104206000D01*
X124912779Y-103186000D02*
X124587221Y-103186000D01*
G04 #@! TO.C,C27*
X134654000Y-72037221D02*
X134654000Y-72362779D01*
X135674000Y-72037221D02*
X135674000Y-72362779D01*
G04 #@! TO.C,C28*
X124150779Y-76012000D02*
X123825221Y-76012000D01*
X124150779Y-74992000D02*
X123825221Y-74992000D01*
G04 #@! TO.C,C10*
X101488000Y-63828436D02*
X101488000Y-65032564D01*
X103308000Y-63828436D02*
X103308000Y-65032564D01*
G04 #@! TO.C,C26*
X103308000Y-69910436D02*
X103308000Y-71114564D01*
X101488000Y-69910436D02*
X101488000Y-71114564D01*
D13*
G04 #@! TO.C,U17*
X128263000Y-99393000D02*
X126863000Y-99393000D01*
X128263000Y-104493000D02*
X132413000Y-104493000D01*
X128263000Y-99343000D02*
X132413000Y-99343000D01*
X128263000Y-104493000D02*
X128263000Y-104348000D01*
X132413000Y-104493000D02*
X132413000Y-104348000D01*
X132413000Y-99343000D02*
X132413000Y-99488000D01*
X128263000Y-99343000D02*
X128263000Y-99393000D01*
G04 #@! TO.C,U15*
X127849000Y-71022000D02*
X127849000Y-71072000D01*
X131999000Y-71022000D02*
X131999000Y-71167000D01*
X131999000Y-76172000D02*
X131999000Y-76027000D01*
X127849000Y-76172000D02*
X127849000Y-76027000D01*
X127849000Y-71022000D02*
X131999000Y-71022000D01*
X127849000Y-76172000D02*
X131999000Y-76172000D01*
X127849000Y-71072000D02*
X126449000Y-71072000D01*
D14*
G04 #@! TO.C,R15*
X123825221Y-72202000D02*
X124150779Y-72202000D01*
X123825221Y-71182000D02*
X124150779Y-71182000D01*
G04 #@! TO.C,R12*
X121331279Y-98110000D02*
X121005721Y-98110000D01*
X121331279Y-97090000D02*
X121005721Y-97090000D01*
G04 #@! TO.C,R11*
X124150779Y-68896000D02*
X123825221Y-68896000D01*
X124150779Y-69916000D02*
X123825221Y-69916000D01*
G04 #@! TO.C,R10*
X120594779Y-69916000D02*
X120269221Y-69916000D01*
X120594779Y-68896000D02*
X120269221Y-68896000D01*
G04 #@! TO.C,R16*
X124587221Y-100396000D02*
X124912779Y-100396000D01*
X124587221Y-99376000D02*
X124912779Y-99376000D01*
G04 #@! TO.C,R17*
X129921221Y-69150000D02*
X130246779Y-69150000D01*
X129921221Y-70170000D02*
X130246779Y-70170000D01*
G04 #@! TO.C,R14*
X124912779Y-97090000D02*
X124587221Y-97090000D01*
X124912779Y-98110000D02*
X124587221Y-98110000D01*
G04 #@! TO.C,R18*
X130175221Y-97090000D02*
X130500779Y-97090000D01*
X130175221Y-98110000D02*
X130500779Y-98110000D01*
G04 #@! TO.C,C1*
X78402064Y-62090000D02*
X77197936Y-62090000D01*
X78402064Y-63910000D02*
X77197936Y-63910000D01*
D13*
G04 #@! TO.C,U7*
X83460800Y-87241400D02*
X81935800Y-87241400D01*
X83460800Y-97616400D02*
X91210800Y-97616400D01*
X83460800Y-86966400D02*
X91210800Y-86966400D01*
X83460800Y-97616400D02*
X83460800Y-97261400D01*
X91210800Y-97616400D02*
X91210800Y-97261400D01*
X91210800Y-86966400D02*
X91210800Y-87321400D01*
X83460800Y-86966400D02*
X83460800Y-87241400D01*
D14*
G04 #@! TO.C,C6*
X117800779Y-66932000D02*
X117475221Y-66932000D01*
X117800779Y-67952000D02*
X117475221Y-67952000D01*
G04 #@! TO.C,R8*
X116865621Y-110657600D02*
X117191179Y-110657600D01*
X116865621Y-109637600D02*
X117191179Y-109637600D01*
D13*
G04 #@! TO.C,U10*
X98803000Y-95608000D02*
X97453000Y-95608000D01*
X98803000Y-100733000D02*
X103453000Y-100733000D01*
X98803000Y-95483000D02*
X103453000Y-95483000D01*
X98803000Y-100733000D02*
X98803000Y-100508000D01*
X103453000Y-100733000D02*
X103453000Y-100508000D01*
X103453000Y-95483000D02*
X103453000Y-95708000D01*
X98803000Y-95483000D02*
X98803000Y-95608000D01*
D14*
G04 #@! TO.C,C2*
X107894779Y-66932000D02*
X107569221Y-66932000D01*
X107894779Y-67952000D02*
X107569221Y-67952000D01*
G04 #@! TO.C,C3*
X82931221Y-102428000D02*
X83256779Y-102428000D01*
X82931221Y-101408000D02*
X83256779Y-101408000D01*
G04 #@! TO.C,C5*
X83185221Y-86172000D02*
X83510779Y-86172000D01*
X83185221Y-85152000D02*
X83510779Y-85152000D01*
G04 #@! TO.C,C7*
X114206731Y-64751391D02*
X114206731Y-65076949D01*
X115226731Y-64751391D02*
X115226731Y-65076949D01*
G04 #@! TO.C,C8*
X124366731Y-64751391D02*
X124366731Y-65076949D01*
X125386731Y-64751391D02*
X125386731Y-65076949D01*
G04 #@! TO.C,C9*
X91059221Y-102428000D02*
X91384779Y-102428000D01*
X91059221Y-101408000D02*
X91384779Y-101408000D01*
G04 #@! TO.C,C11*
X91384779Y-85152000D02*
X91059221Y-85152000D01*
X91384779Y-86172000D02*
X91059221Y-86172000D01*
G04 #@! TO.C,C12*
X134908000Y-63240721D02*
X134908000Y-63566279D01*
X135928000Y-63240721D02*
X135928000Y-63566279D01*
G04 #@! TO.C,C13*
X96304000Y-102390221D02*
X96304000Y-102715779D01*
X95284000Y-102390221D02*
X95284000Y-102715779D01*
G04 #@! TO.C,C14*
X135928000Y-67096779D02*
X135928000Y-66771221D01*
X134908000Y-67096779D02*
X134908000Y-66771221D01*
G04 #@! TO.C,C15*
X105489484Y-87812864D02*
X105489484Y-88138422D01*
X106509484Y-87812864D02*
X106509484Y-88138422D01*
G04 #@! TO.C,C16*
X105698000Y-99977221D02*
X105698000Y-100302779D01*
X106718000Y-99977221D02*
X106718000Y-100302779D01*
G04 #@! TO.C,C17*
X106718000Y-97127779D02*
X106718000Y-96802221D01*
X105698000Y-97127779D02*
X105698000Y-96802221D01*
D13*
G04 #@! TO.C,U2*
X99490000Y-81090000D02*
X76490000Y-81090000D01*
X99490000Y-65090000D02*
X99490000Y-81090000D01*
X76490000Y-65090000D02*
X99490000Y-65090000D01*
X76490000Y-81090000D02*
X76490000Y-65090000D01*
G04 #@! TO.C,U3*
X111711731Y-66169170D02*
X113111731Y-66169170D01*
X111711731Y-61069170D02*
X107561731Y-61069170D01*
X111711731Y-66219170D02*
X107561731Y-66219170D01*
X111711731Y-61069170D02*
X111711731Y-61214170D01*
X107561731Y-61069170D02*
X107561731Y-61214170D01*
X107561731Y-66219170D02*
X107561731Y-66074170D01*
X111711731Y-66219170D02*
X111711731Y-66169170D01*
G04 #@! TO.C,U4*
X121871731Y-66169170D02*
X123271731Y-66169170D01*
X121871731Y-61069170D02*
X117721731Y-61069170D01*
X121871731Y-66219170D02*
X117721731Y-66219170D01*
X121871731Y-61069170D02*
X121871731Y-61214170D01*
X117721731Y-61069170D02*
X117721731Y-61214170D01*
X117721731Y-66219170D02*
X117721731Y-66074170D01*
X121871731Y-66219170D02*
X121871731Y-66169170D01*
G04 #@! TO.C,U5*
X83283000Y-103472000D02*
X81758000Y-103472000D01*
X83283000Y-113847000D02*
X91033000Y-113847000D01*
X83283000Y-103197000D02*
X91033000Y-103197000D01*
X83283000Y-113847000D02*
X83283000Y-113492000D01*
X91033000Y-113847000D02*
X91033000Y-113492000D01*
X91033000Y-103197000D02*
X91033000Y-103552000D01*
X83283000Y-103197000D02*
X83283000Y-103472000D01*
G04 #@! TO.C,U8*
X132285731Y-66423170D02*
X133685731Y-66423170D01*
X132285731Y-61323170D02*
X128135731Y-61323170D01*
X132285731Y-66473170D02*
X128135731Y-66473170D01*
X132285731Y-61323170D02*
X132285731Y-61468170D01*
X128135731Y-61323170D02*
X128135731Y-61468170D01*
X128135731Y-66473170D02*
X128135731Y-66328170D01*
X132285731Y-66473170D02*
X132285731Y-66423170D01*
G04 #@! TO.C,U9*
X99053000Y-84285000D02*
X97678000Y-84285000D01*
X99053000Y-93160000D02*
X103203000Y-93160000D01*
X99053000Y-84260000D02*
X103203000Y-84260000D01*
X99053000Y-93160000D02*
X99053000Y-93045000D01*
X103203000Y-93160000D02*
X103203000Y-93045000D01*
X103203000Y-84260000D02*
X103203000Y-84375000D01*
X99053000Y-84260000D02*
X99053000Y-84285000D01*
D14*
G04 #@! TO.C,C18*
X121192000Y-100485221D02*
X121192000Y-100810779D01*
X122212000Y-100485221D02*
X122212000Y-100810779D01*
G04 #@! TO.C,C19*
X113318000Y-106352721D02*
X113318000Y-106678279D01*
X114338000Y-106352721D02*
X114338000Y-106678279D01*
G04 #@! TO.C,C20*
X112048000Y-78133221D02*
X112048000Y-78458779D01*
X113068000Y-78133221D02*
X113068000Y-78458779D01*
G04 #@! TO.C,C21*
X119922000Y-72037221D02*
X119922000Y-72362779D01*
X120942000Y-72037221D02*
X120942000Y-72362779D01*
G04 #@! TO.C,C22*
X120430000Y-116741221D02*
X120430000Y-117066779D01*
X121450000Y-116741221D02*
X121450000Y-117066779D01*
G04 #@! TO.C,C23*
X116022779Y-119950000D02*
X115697221Y-119950000D01*
X116022779Y-120970000D02*
X115697221Y-120970000D01*
G04 #@! TO.C,C24*
X124841221Y-113858000D02*
X125166779Y-113858000D01*
X124841221Y-112838000D02*
X125166779Y-112838000D01*
G04 #@! TO.C,C25*
X134908000Y-112423221D02*
X134908000Y-112748779D01*
X135928000Y-112423221D02*
X135928000Y-112748779D01*
G04 #@! TO.C,C31*
X119160000Y-89055221D02*
X119160000Y-89380779D01*
X120180000Y-89055221D02*
X120180000Y-89380779D01*
G04 #@! TO.C,C33*
X114752779Y-91756000D02*
X114427221Y-91756000D01*
X114752779Y-92776000D02*
X114427221Y-92776000D01*
G04 #@! TO.C,C36*
X124079221Y-85156000D02*
X124404779Y-85156000D01*
X124079221Y-84136000D02*
X124404779Y-84136000D01*
G04 #@! TO.C,C40*
X134654000Y-83695721D02*
X134654000Y-84021279D01*
X135674000Y-83695721D02*
X135674000Y-84021279D01*
G04 #@! TO.C,R1*
X109952279Y-73722000D02*
X109626721Y-73722000D01*
X109952279Y-74742000D02*
X109626721Y-74742000D01*
G04 #@! TO.C,R2*
X111196779Y-101916000D02*
X110871221Y-101916000D01*
X111196779Y-102936000D02*
X110871221Y-102936000D01*
G04 #@! TO.C,R3*
X115468521Y-80685600D02*
X115794079Y-80685600D01*
X115468521Y-79665600D02*
X115794079Y-79665600D01*
G04 #@! TO.C,R4*
X116662421Y-106390400D02*
X116987979Y-106390400D01*
X116662421Y-105370400D02*
X116987979Y-105370400D01*
G04 #@! TO.C,R5*
X115468721Y-78552000D02*
X115794279Y-78552000D01*
X115468721Y-77532000D02*
X115794279Y-77532000D01*
G04 #@! TO.C,R6*
X116789321Y-108498600D02*
X117114879Y-108498600D01*
X116789321Y-107478600D02*
X117114879Y-107478600D01*
G04 #@! TO.C,R7*
X115544721Y-82641400D02*
X115870279Y-82641400D01*
X115544721Y-81621400D02*
X115870279Y-81621400D01*
G04 #@! TO.C,R9*
X126022000Y-117701779D02*
X126022000Y-117376221D01*
X125002000Y-117701779D02*
X125002000Y-117376221D01*
G04 #@! TO.C,R13*
X124494000Y-89055221D02*
X124494000Y-89380779D01*
X125514000Y-89055221D02*
X125514000Y-89380779D01*
D13*
G04 #@! TO.C,U12*
X113437000Y-71072000D02*
X112037000Y-71072000D01*
X113437000Y-76172000D02*
X117587000Y-76172000D01*
X113437000Y-71022000D02*
X117587000Y-71022000D01*
X113437000Y-76172000D02*
X113437000Y-76027000D01*
X117587000Y-76172000D02*
X117587000Y-76027000D01*
X117587000Y-71022000D02*
X117587000Y-71167000D01*
X113437000Y-71022000D02*
X113437000Y-71072000D01*
G04 #@! TO.C,U13*
X114801000Y-99393000D02*
X113401000Y-99393000D01*
X114801000Y-104493000D02*
X118951000Y-104493000D01*
X114801000Y-99343000D02*
X118951000Y-99343000D01*
X114801000Y-104493000D02*
X114801000Y-104348000D01*
X118951000Y-104493000D02*
X118951000Y-104348000D01*
X118951000Y-99343000D02*
X118951000Y-99488000D01*
X114801000Y-99343000D02*
X114801000Y-99393000D01*
G04 #@! TO.C,U14*
X119502600Y-113051000D02*
X119502600Y-111651000D01*
X114402600Y-113051000D02*
X114402600Y-117201000D01*
X119552600Y-113051000D02*
X119552600Y-117201000D01*
X114402600Y-113051000D02*
X114547600Y-113051000D01*
X114402600Y-117201000D02*
X114547600Y-117201000D01*
X119552600Y-117201000D02*
X119407600Y-117201000D01*
X119552600Y-113051000D02*
X119502600Y-113051000D01*
G04 #@! TO.C,U16*
X128263000Y-110330000D02*
X126888000Y-110330000D01*
X128263000Y-120455000D02*
X132413000Y-120455000D01*
X128263000Y-110305000D02*
X132413000Y-110305000D01*
X128263000Y-120455000D02*
X128263000Y-120350000D01*
X132413000Y-120455000D02*
X132413000Y-120350000D01*
X132413000Y-110305000D02*
X132413000Y-110410000D01*
X128263000Y-110305000D02*
X128263000Y-110330000D01*
G04 #@! TO.C,U18*
X127915000Y-81501000D02*
X126540000Y-81501000D01*
X127915000Y-91626000D02*
X132065000Y-91626000D01*
X127915000Y-81476000D02*
X132065000Y-81476000D01*
X127915000Y-91626000D02*
X127915000Y-91521000D01*
X132065000Y-91626000D02*
X132065000Y-91521000D01*
X132065000Y-81476000D02*
X132065000Y-81581000D01*
X127915000Y-81476000D02*
X127915000Y-81501000D01*
D14*
G04 #@! TO.C,C4*
X104936000Y-77904721D02*
X104936000Y-78230279D01*
X105956000Y-77904721D02*
X105956000Y-78230279D01*
G04 #@! TO.C,U6*
X101892000Y-76462000D02*
X103352000Y-76462000D01*
X101892000Y-79622000D02*
X104052000Y-79622000D01*
X101892000Y-79622000D02*
X101892000Y-78692000D01*
X101892000Y-76462000D02*
X101892000Y-77392000D01*
D13*
G04 #@! TO.C,U11*
X118207100Y-85245600D02*
X118207100Y-83845600D01*
X113107100Y-85245600D02*
X113107100Y-89395600D01*
X118257100Y-85245600D02*
X118257100Y-89395600D01*
X113107100Y-85245600D02*
X113252100Y-85245600D01*
X113107100Y-89395600D02*
X113252100Y-89395600D01*
X118257100Y-89395600D02*
X118112100Y-89395600D01*
X118257100Y-85245600D02*
X118207100Y-85245600D01*
G04 #@! TO.C,J3*
X44700000Y-44500000D02*
X44700000Y-49500000D01*
X36700000Y-44500000D02*
X44700000Y-44500000D01*
X36700000Y-57500000D02*
X36700000Y-44500000D01*
X44700000Y-57500000D02*
X36700000Y-57500000D01*
X44700000Y-49500000D02*
X44700000Y-57500000D01*
X42200000Y-57500000D02*
X42200000Y-44500000D01*
X42200000Y-44500000D02*
X39600000Y-44500000D01*
X39600000Y-44500000D02*
X39600000Y-57500000D01*
G04 #@! TO.C,J7*
X75700000Y-44500000D02*
X75700000Y-49500000D01*
X67700000Y-44500000D02*
X75700000Y-44500000D01*
X67700000Y-57500000D02*
X67700000Y-44500000D01*
X75700000Y-57500000D02*
X67700000Y-57500000D01*
X75700000Y-49500000D02*
X75700000Y-57500000D01*
X73200000Y-57500000D02*
X73200000Y-44500000D01*
X73200000Y-44500000D02*
X70600000Y-44500000D01*
X70600000Y-44500000D02*
X70600000Y-57500000D01*
G04 #@! TO.C,J9*
X99700000Y-44500000D02*
X99700000Y-57500000D01*
X102300000Y-44500000D02*
X99700000Y-44500000D01*
X102300000Y-57500000D02*
X102300000Y-44500000D01*
X104800000Y-49500000D02*
X104800000Y-57500000D01*
X104800000Y-57500000D02*
X96800000Y-57500000D01*
X96800000Y-57500000D02*
X96800000Y-44500000D01*
X96800000Y-44500000D02*
X104800000Y-44500000D01*
X104800000Y-44500000D02*
X104800000Y-49500000D01*
G04 #@! TO.C,J11*
X130600000Y-44500000D02*
X130600000Y-57500000D01*
X133200000Y-44500000D02*
X130600000Y-44500000D01*
X133200000Y-57500000D02*
X133200000Y-44500000D01*
X135700000Y-49500000D02*
X135700000Y-57500000D01*
X135700000Y-57500000D02*
X127700000Y-57500000D01*
X127700000Y-57500000D02*
X127700000Y-44500000D01*
X127700000Y-44500000D02*
X135700000Y-44500000D01*
X135700000Y-44500000D02*
X135700000Y-49500000D01*
G04 #@! TO.C,U1*
X54092380Y-93261904D02*
X54901904Y-93261904D01*
X54997142Y-93214285D01*
X55044761Y-93166666D01*
X55092380Y-93071428D01*
X55092380Y-92880952D01*
X55044761Y-92785714D01*
X54997142Y-92738095D01*
X54901904Y-92690476D01*
X54092380Y-92690476D01*
X55092380Y-91690476D02*
X55092380Y-92261904D01*
X55092380Y-91976190D02*
X54092380Y-91976190D01*
X54235238Y-92071428D01*
X54330476Y-92166666D01*
X54378095Y-92261904D01*
G04 #@! TO.C,J12*
X146690476Y-52252380D02*
X146690476Y-52966666D01*
X146642857Y-53109523D01*
X146547619Y-53204761D01*
X146404761Y-53252380D01*
X146309523Y-53252380D01*
X147690476Y-53252380D02*
X147119047Y-53252380D01*
X147404761Y-53252380D02*
X147404761Y-52252380D01*
X147309523Y-52395238D01*
X147214285Y-52490476D01*
X147119047Y-52538095D01*
X148071428Y-52347619D02*
X148119047Y-52300000D01*
X148214285Y-52252380D01*
X148452380Y-52252380D01*
X148547619Y-52300000D01*
X148595238Y-52347619D01*
X148642857Y-52442857D01*
X148642857Y-52538095D01*
X148595238Y-52680952D01*
X148023809Y-53252380D01*
X148642857Y-53252380D01*
G04 #@! TO.C,J1*
X56066666Y-52252380D02*
X56066666Y-52966666D01*
X56019047Y-53109523D01*
X55923809Y-53204761D01*
X55780952Y-53252380D01*
X55685714Y-53252380D01*
X57066666Y-53252380D02*
X56495238Y-53252380D01*
X56780952Y-53252380D02*
X56780952Y-52252380D01*
X56685714Y-52395238D01*
X56590476Y-52490476D01*
X56495238Y-52538095D01*
G04 #@! TO.C,J10*
X115690476Y-52252380D02*
X115690476Y-52966666D01*
X115642857Y-53109523D01*
X115547619Y-53204761D01*
X115404761Y-53252380D01*
X115309523Y-53252380D01*
X116690476Y-53252380D02*
X116119047Y-53252380D01*
X116404761Y-53252380D02*
X116404761Y-52252380D01*
X116309523Y-52395238D01*
X116214285Y-52490476D01*
X116119047Y-52538095D01*
X117309523Y-52252380D02*
X117404761Y-52252380D01*
X117500000Y-52300000D01*
X117547619Y-52347619D01*
X117595238Y-52442857D01*
X117642857Y-52633333D01*
X117642857Y-52871428D01*
X117595238Y-53061904D01*
X117547619Y-53157142D01*
X117500000Y-53204761D01*
X117404761Y-53252380D01*
X117309523Y-53252380D01*
X117214285Y-53204761D01*
X117166666Y-53157142D01*
X117119047Y-53061904D01*
X117071428Y-52871428D01*
X117071428Y-52633333D01*
X117119047Y-52442857D01*
X117166666Y-52347619D01*
X117214285Y-52300000D01*
X117309523Y-52252380D01*
G04 #@! TO.C,J5*
X86466666Y-52252380D02*
X86466666Y-52966666D01*
X86419047Y-53109523D01*
X86323809Y-53204761D01*
X86180952Y-53252380D01*
X86085714Y-53252380D01*
X87419047Y-52252380D02*
X86942857Y-52252380D01*
X86895238Y-52728571D01*
X86942857Y-52680952D01*
X87038095Y-52633333D01*
X87276190Y-52633333D01*
X87371428Y-52680952D01*
X87419047Y-52728571D01*
X87466666Y-52823809D01*
X87466666Y-53061904D01*
X87419047Y-53157142D01*
X87371428Y-53204761D01*
X87276190Y-53252380D01*
X87038095Y-53252380D01*
X86942857Y-53204761D01*
X86895238Y-53157142D01*
G04 #@! TO.C,C42*
X96151142Y-97142857D02*
X96198761Y-97190476D01*
X96246380Y-97333333D01*
X96246380Y-97428571D01*
X96198761Y-97571428D01*
X96103523Y-97666666D01*
X96008285Y-97714285D01*
X95817809Y-97761904D01*
X95674952Y-97761904D01*
X95484476Y-97714285D01*
X95389238Y-97666666D01*
X95294000Y-97571428D01*
X95246380Y-97428571D01*
X95246380Y-97333333D01*
X95294000Y-97190476D01*
X95341619Y-97142857D01*
X95579714Y-96285714D02*
X96246380Y-96285714D01*
X95198761Y-96523809D02*
X95913047Y-96761904D01*
X95913047Y-96142857D01*
X95341619Y-95809523D02*
X95294000Y-95761904D01*
X95246380Y-95666666D01*
X95246380Y-95428571D01*
X95294000Y-95333333D01*
X95341619Y-95285714D01*
X95436857Y-95238095D01*
X95532095Y-95238095D01*
X95674952Y-95285714D01*
X96246380Y-95857142D01*
X96246380Y-95238095D01*
G04 #@! TO.C,C34*
X98580142Y-117167142D02*
X98532523Y-117214761D01*
X98389666Y-117262380D01*
X98294428Y-117262380D01*
X98151571Y-117214761D01*
X98056333Y-117119523D01*
X98008714Y-117024285D01*
X97961095Y-116833809D01*
X97961095Y-116690952D01*
X98008714Y-116500476D01*
X98056333Y-116405238D01*
X98151571Y-116310000D01*
X98294428Y-116262380D01*
X98389666Y-116262380D01*
X98532523Y-116310000D01*
X98580142Y-116357619D01*
X98913476Y-116262380D02*
X99532523Y-116262380D01*
X99199190Y-116643333D01*
X99342047Y-116643333D01*
X99437285Y-116690952D01*
X99484904Y-116738571D01*
X99532523Y-116833809D01*
X99532523Y-117071904D01*
X99484904Y-117167142D01*
X99437285Y-117214761D01*
X99342047Y-117262380D01*
X99056333Y-117262380D01*
X98961095Y-117214761D01*
X98913476Y-117167142D01*
X100389666Y-116595714D02*
X100389666Y-117262380D01*
X100151571Y-116214761D02*
X99913476Y-116929047D01*
X100532523Y-116929047D01*
G04 #@! TO.C,C32*
X106073142Y-112849142D02*
X106025523Y-112896761D01*
X105882666Y-112944380D01*
X105787428Y-112944380D01*
X105644571Y-112896761D01*
X105549333Y-112801523D01*
X105501714Y-112706285D01*
X105454095Y-112515809D01*
X105454095Y-112372952D01*
X105501714Y-112182476D01*
X105549333Y-112087238D01*
X105644571Y-111992000D01*
X105787428Y-111944380D01*
X105882666Y-111944380D01*
X106025523Y-111992000D01*
X106073142Y-112039619D01*
X106406476Y-111944380D02*
X107025523Y-111944380D01*
X106692190Y-112325333D01*
X106835047Y-112325333D01*
X106930285Y-112372952D01*
X106977904Y-112420571D01*
X107025523Y-112515809D01*
X107025523Y-112753904D01*
X106977904Y-112849142D01*
X106930285Y-112896761D01*
X106835047Y-112944380D01*
X106549333Y-112944380D01*
X106454095Y-112896761D01*
X106406476Y-112849142D01*
X107406476Y-112039619D02*
X107454095Y-111992000D01*
X107549333Y-111944380D01*
X107787428Y-111944380D01*
X107882666Y-111992000D01*
X107930285Y-112039619D01*
X107977904Y-112134857D01*
X107977904Y-112230095D01*
X107930285Y-112372952D01*
X107358857Y-112944380D01*
X107977904Y-112944380D01*
G04 #@! TO.C,U19*
X99762904Y-101252380D02*
X99762904Y-102061904D01*
X99810523Y-102157142D01*
X99858142Y-102204761D01*
X99953380Y-102252380D01*
X100143857Y-102252380D01*
X100239095Y-102204761D01*
X100286714Y-102157142D01*
X100334333Y-102061904D01*
X100334333Y-101252380D01*
X101334333Y-102252380D02*
X100762904Y-102252380D01*
X101048619Y-102252380D02*
X101048619Y-101252380D01*
X100953380Y-101395238D01*
X100858142Y-101490476D01*
X100762904Y-101538095D01*
X101810523Y-102252380D02*
X102001000Y-102252380D01*
X102096238Y-102204761D01*
X102143857Y-102157142D01*
X102239095Y-102014285D01*
X102286714Y-101823809D01*
X102286714Y-101442857D01*
X102239095Y-101347619D01*
X102191476Y-101300000D01*
X102096238Y-101252380D01*
X101905761Y-101252380D01*
X101810523Y-101300000D01*
X101762904Y-101347619D01*
X101715285Y-101442857D01*
X101715285Y-101680952D01*
X101762904Y-101776190D01*
X101810523Y-101823809D01*
X101905761Y-101871428D01*
X102096238Y-101871428D01*
X102191476Y-101823809D01*
X102239095Y-101776190D01*
X102286714Y-101680952D01*
G04 #@! TO.C,U20*
X99861904Y-107852380D02*
X99861904Y-108661904D01*
X99909523Y-108757142D01*
X99957142Y-108804761D01*
X100052380Y-108852380D01*
X100242857Y-108852380D01*
X100338095Y-108804761D01*
X100385714Y-108757142D01*
X100433333Y-108661904D01*
X100433333Y-107852380D01*
X100861904Y-107947619D02*
X100909523Y-107900000D01*
X101004761Y-107852380D01*
X101242857Y-107852380D01*
X101338095Y-107900000D01*
X101385714Y-107947619D01*
X101433333Y-108042857D01*
X101433333Y-108138095D01*
X101385714Y-108280952D01*
X100814285Y-108852380D01*
X101433333Y-108852380D01*
X102052380Y-107852380D02*
X102147619Y-107852380D01*
X102242857Y-107900000D01*
X102290476Y-107947619D01*
X102338095Y-108042857D01*
X102385714Y-108233333D01*
X102385714Y-108471428D01*
X102338095Y-108661904D01*
X102290476Y-108757142D01*
X102242857Y-108804761D01*
X102147619Y-108852380D01*
X102052380Y-108852380D01*
X101957142Y-108804761D01*
X101909523Y-108757142D01*
X101861904Y-108661904D01*
X101814285Y-108471428D01*
X101814285Y-108233333D01*
X101861904Y-108042857D01*
X101909523Y-107947619D01*
X101957142Y-107900000D01*
X102052380Y-107852380D01*
G04 #@! TO.C,C29*
X135857142Y-98142857D02*
X135904761Y-98190476D01*
X135952380Y-98333333D01*
X135952380Y-98428571D01*
X135904761Y-98571428D01*
X135809523Y-98666666D01*
X135714285Y-98714285D01*
X135523809Y-98761904D01*
X135380952Y-98761904D01*
X135190476Y-98714285D01*
X135095238Y-98666666D01*
X135000000Y-98571428D01*
X134952380Y-98428571D01*
X134952380Y-98333333D01*
X135000000Y-98190476D01*
X135047619Y-98142857D01*
X135047619Y-97761904D02*
X135000000Y-97714285D01*
X134952380Y-97619047D01*
X134952380Y-97380952D01*
X135000000Y-97285714D01*
X135047619Y-97238095D01*
X135142857Y-97190476D01*
X135238095Y-97190476D01*
X135380952Y-97238095D01*
X135952380Y-97809523D01*
X135952380Y-97190476D01*
X135952380Y-96714285D02*
X135952380Y-96523809D01*
X135904761Y-96428571D01*
X135857142Y-96380952D01*
X135714285Y-96285714D01*
X135523809Y-96238095D01*
X135142857Y-96238095D01*
X135047619Y-96285714D01*
X135000000Y-96333333D01*
X134952380Y-96428571D01*
X134952380Y-96619047D01*
X135000000Y-96714285D01*
X135047619Y-96761904D01*
X135142857Y-96809523D01*
X135380952Y-96809523D01*
X135476190Y-96761904D01*
X135523809Y-96714285D01*
X135571428Y-96619047D01*
X135571428Y-96428571D01*
X135523809Y-96333333D01*
X135476190Y-96285714D01*
X135380952Y-96238095D01*
G04 #@! TO.C,C30*
X124107142Y-105483142D02*
X124059523Y-105530761D01*
X123916666Y-105578380D01*
X123821428Y-105578380D01*
X123678571Y-105530761D01*
X123583333Y-105435523D01*
X123535714Y-105340285D01*
X123488095Y-105149809D01*
X123488095Y-105006952D01*
X123535714Y-104816476D01*
X123583333Y-104721238D01*
X123678571Y-104626000D01*
X123821428Y-104578380D01*
X123916666Y-104578380D01*
X124059523Y-104626000D01*
X124107142Y-104673619D01*
X124440476Y-104578380D02*
X125059523Y-104578380D01*
X124726190Y-104959333D01*
X124869047Y-104959333D01*
X124964285Y-105006952D01*
X125011904Y-105054571D01*
X125059523Y-105149809D01*
X125059523Y-105387904D01*
X125011904Y-105483142D01*
X124964285Y-105530761D01*
X124869047Y-105578380D01*
X124583333Y-105578380D01*
X124488095Y-105530761D01*
X124440476Y-105483142D01*
X125678571Y-104578380D02*
X125773809Y-104578380D01*
X125869047Y-104626000D01*
X125916666Y-104673619D01*
X125964285Y-104768857D01*
X126011904Y-104959333D01*
X126011904Y-105197428D01*
X125964285Y-105387904D01*
X125916666Y-105483142D01*
X125869047Y-105530761D01*
X125773809Y-105578380D01*
X125678571Y-105578380D01*
X125583333Y-105530761D01*
X125535714Y-105483142D01*
X125488095Y-105387904D01*
X125440476Y-105197428D01*
X125440476Y-104959333D01*
X125488095Y-104768857D01*
X125535714Y-104673619D01*
X125583333Y-104626000D01*
X125678571Y-104578380D01*
G04 #@! TO.C,C27*
X136951142Y-72842857D02*
X136998761Y-72890476D01*
X137046380Y-73033333D01*
X137046380Y-73128571D01*
X136998761Y-73271428D01*
X136903523Y-73366666D01*
X136808285Y-73414285D01*
X136617809Y-73461904D01*
X136474952Y-73461904D01*
X136284476Y-73414285D01*
X136189238Y-73366666D01*
X136094000Y-73271428D01*
X136046380Y-73128571D01*
X136046380Y-73033333D01*
X136094000Y-72890476D01*
X136141619Y-72842857D01*
X136141619Y-72461904D02*
X136094000Y-72414285D01*
X136046380Y-72319047D01*
X136046380Y-72080952D01*
X136094000Y-71985714D01*
X136141619Y-71938095D01*
X136236857Y-71890476D01*
X136332095Y-71890476D01*
X136474952Y-71938095D01*
X137046380Y-72509523D01*
X137046380Y-71890476D01*
X136046380Y-71557142D02*
X136046380Y-70890476D01*
X137046380Y-71319047D01*
G04 #@! TO.C,C28*
X123345142Y-77289142D02*
X123297523Y-77336761D01*
X123154666Y-77384380D01*
X123059428Y-77384380D01*
X122916571Y-77336761D01*
X122821333Y-77241523D01*
X122773714Y-77146285D01*
X122726095Y-76955809D01*
X122726095Y-76812952D01*
X122773714Y-76622476D01*
X122821333Y-76527238D01*
X122916571Y-76432000D01*
X123059428Y-76384380D01*
X123154666Y-76384380D01*
X123297523Y-76432000D01*
X123345142Y-76479619D01*
X123726095Y-76479619D02*
X123773714Y-76432000D01*
X123868952Y-76384380D01*
X124107047Y-76384380D01*
X124202285Y-76432000D01*
X124249904Y-76479619D01*
X124297523Y-76574857D01*
X124297523Y-76670095D01*
X124249904Y-76812952D01*
X123678476Y-77384380D01*
X124297523Y-77384380D01*
X124868952Y-76812952D02*
X124773714Y-76765333D01*
X124726095Y-76717714D01*
X124678476Y-76622476D01*
X124678476Y-76574857D01*
X124726095Y-76479619D01*
X124773714Y-76432000D01*
X124868952Y-76384380D01*
X125059428Y-76384380D01*
X125154666Y-76432000D01*
X125202285Y-76479619D01*
X125249904Y-76574857D01*
X125249904Y-76622476D01*
X125202285Y-76717714D01*
X125154666Y-76765333D01*
X125059428Y-76812952D01*
X124868952Y-76812952D01*
X124773714Y-76860571D01*
X124726095Y-76908190D01*
X124678476Y-77003428D01*
X124678476Y-77193904D01*
X124726095Y-77289142D01*
X124773714Y-77336761D01*
X124868952Y-77384380D01*
X125059428Y-77384380D01*
X125154666Y-77336761D01*
X125202285Y-77289142D01*
X125249904Y-77193904D01*
X125249904Y-77003428D01*
X125202285Y-76908190D01*
X125154666Y-76860571D01*
X125059428Y-76812952D01*
G04 #@! TO.C,C10*
X104270143Y-65268356D02*
X104317762Y-65315975D01*
X104365381Y-65458832D01*
X104365381Y-65554070D01*
X104317762Y-65696927D01*
X104222524Y-65792165D01*
X104127286Y-65839784D01*
X103936810Y-65887403D01*
X103793953Y-65887403D01*
X103603477Y-65839784D01*
X103508239Y-65792165D01*
X103413001Y-65696927D01*
X103365381Y-65554070D01*
X103365381Y-65458832D01*
X103413001Y-65315975D01*
X103460620Y-65268356D01*
X104365381Y-64315975D02*
X104365381Y-64887403D01*
X104365381Y-64601689D02*
X103365381Y-64601689D01*
X103508239Y-64696927D01*
X103603477Y-64792165D01*
X103651096Y-64887403D01*
X103365381Y-63696927D02*
X103365381Y-63601689D01*
X103413001Y-63506451D01*
X103460620Y-63458832D01*
X103555858Y-63411213D01*
X103746334Y-63363594D01*
X103984429Y-63363594D01*
X104174905Y-63411213D01*
X104270143Y-63458832D01*
X104317762Y-63506451D01*
X104365381Y-63601689D01*
X104365381Y-63696927D01*
X104317762Y-63792165D01*
X104270143Y-63839784D01*
X104174905Y-63887403D01*
X103984429Y-63935022D01*
X103746334Y-63935022D01*
X103555858Y-63887403D01*
X103460620Y-63839784D01*
X103413001Y-63792165D01*
X103365381Y-63696927D01*
G04 #@! TO.C,C26*
X104575142Y-71155357D02*
X104622761Y-71202976D01*
X104670380Y-71345833D01*
X104670380Y-71441071D01*
X104622761Y-71583928D01*
X104527523Y-71679166D01*
X104432285Y-71726785D01*
X104241809Y-71774404D01*
X104098952Y-71774404D01*
X103908476Y-71726785D01*
X103813238Y-71679166D01*
X103718000Y-71583928D01*
X103670380Y-71441071D01*
X103670380Y-71345833D01*
X103718000Y-71202976D01*
X103765619Y-71155357D01*
X103765619Y-70774404D02*
X103718000Y-70726785D01*
X103670380Y-70631547D01*
X103670380Y-70393452D01*
X103718000Y-70298214D01*
X103765619Y-70250595D01*
X103860857Y-70202976D01*
X103956095Y-70202976D01*
X104098952Y-70250595D01*
X104670380Y-70822023D01*
X104670380Y-70202976D01*
X103670380Y-69345833D02*
X103670380Y-69536309D01*
X103718000Y-69631547D01*
X103765619Y-69679166D01*
X103908476Y-69774404D01*
X104098952Y-69822023D01*
X104479904Y-69822023D01*
X104575142Y-69774404D01*
X104622761Y-69726785D01*
X104670380Y-69631547D01*
X104670380Y-69441071D01*
X104622761Y-69345833D01*
X104575142Y-69298214D01*
X104479904Y-69250595D01*
X104241809Y-69250595D01*
X104146571Y-69298214D01*
X104098952Y-69345833D01*
X104051333Y-69441071D01*
X104051333Y-69631547D01*
X104098952Y-69726785D01*
X104146571Y-69774404D01*
X104241809Y-69822023D01*
G04 #@! TO.C,U17*
X129061904Y-104652380D02*
X129061904Y-105461904D01*
X129109523Y-105557142D01*
X129157142Y-105604761D01*
X129252380Y-105652380D01*
X129442857Y-105652380D01*
X129538095Y-105604761D01*
X129585714Y-105557142D01*
X129633333Y-105461904D01*
X129633333Y-104652380D01*
X130633333Y-105652380D02*
X130061904Y-105652380D01*
X130347619Y-105652380D02*
X130347619Y-104652380D01*
X130252380Y-104795238D01*
X130157142Y-104890476D01*
X130061904Y-104938095D01*
X130966666Y-104652380D02*
X131633333Y-104652380D01*
X131204761Y-105652380D01*
G04 #@! TO.C,U15*
X128661904Y-76352380D02*
X128661904Y-77161904D01*
X128709523Y-77257142D01*
X128757142Y-77304761D01*
X128852380Y-77352380D01*
X129042857Y-77352380D01*
X129138095Y-77304761D01*
X129185714Y-77257142D01*
X129233333Y-77161904D01*
X129233333Y-76352380D01*
X130233333Y-77352380D02*
X129661904Y-77352380D01*
X129947619Y-77352380D02*
X129947619Y-76352380D01*
X129852380Y-76495238D01*
X129757142Y-76590476D01*
X129661904Y-76638095D01*
X131138095Y-76352380D02*
X130661904Y-76352380D01*
X130614285Y-76828571D01*
X130661904Y-76780952D01*
X130757142Y-76733333D01*
X130995238Y-76733333D01*
X131090476Y-76780952D01*
X131138095Y-76828571D01*
X131185714Y-76923809D01*
X131185714Y-77161904D01*
X131138095Y-77257142D01*
X131090476Y-77304761D01*
X130995238Y-77352380D01*
X130757142Y-77352380D01*
X130661904Y-77304761D01*
X130614285Y-77257142D01*
G04 #@! TO.C,R15*
X123357142Y-73352380D02*
X123023809Y-72876190D01*
X122785714Y-73352380D02*
X122785714Y-72352380D01*
X123166666Y-72352380D01*
X123261904Y-72400000D01*
X123309523Y-72447619D01*
X123357142Y-72542857D01*
X123357142Y-72685714D01*
X123309523Y-72780952D01*
X123261904Y-72828571D01*
X123166666Y-72876190D01*
X122785714Y-72876190D01*
X124309523Y-73352380D02*
X123738095Y-73352380D01*
X124023809Y-73352380D02*
X124023809Y-72352380D01*
X123928571Y-72495238D01*
X123833333Y-72590476D01*
X123738095Y-72638095D01*
X125214285Y-72352380D02*
X124738095Y-72352380D01*
X124690476Y-72828571D01*
X124738095Y-72780952D01*
X124833333Y-72733333D01*
X125071428Y-72733333D01*
X125166666Y-72780952D01*
X125214285Y-72828571D01*
X125261904Y-72923809D01*
X125261904Y-73161904D01*
X125214285Y-73257142D01*
X125166666Y-73304761D01*
X125071428Y-73352380D01*
X124833333Y-73352380D01*
X124738095Y-73304761D01*
X124690476Y-73257142D01*
G04 #@! TO.C,R12*
X120457142Y-96752380D02*
X120123809Y-96276190D01*
X119885714Y-96752380D02*
X119885714Y-95752380D01*
X120266666Y-95752380D01*
X120361904Y-95800000D01*
X120409523Y-95847619D01*
X120457142Y-95942857D01*
X120457142Y-96085714D01*
X120409523Y-96180952D01*
X120361904Y-96228571D01*
X120266666Y-96276190D01*
X119885714Y-96276190D01*
X121409523Y-96752380D02*
X120838095Y-96752380D01*
X121123809Y-96752380D02*
X121123809Y-95752380D01*
X121028571Y-95895238D01*
X120933333Y-95990476D01*
X120838095Y-96038095D01*
X121790476Y-95847619D02*
X121838095Y-95800000D01*
X121933333Y-95752380D01*
X122171428Y-95752380D01*
X122266666Y-95800000D01*
X122314285Y-95847619D01*
X122361904Y-95942857D01*
X122361904Y-96038095D01*
X122314285Y-96180952D01*
X121742857Y-96752380D01*
X122361904Y-96752380D01*
G04 #@! TO.C,R11*
X123457142Y-68552380D02*
X123123809Y-68076190D01*
X122885714Y-68552380D02*
X122885714Y-67552380D01*
X123266666Y-67552380D01*
X123361904Y-67600000D01*
X123409523Y-67647619D01*
X123457142Y-67742857D01*
X123457142Y-67885714D01*
X123409523Y-67980952D01*
X123361904Y-68028571D01*
X123266666Y-68076190D01*
X122885714Y-68076190D01*
X124409523Y-68552380D02*
X123838095Y-68552380D01*
X124123809Y-68552380D02*
X124123809Y-67552380D01*
X124028571Y-67695238D01*
X123933333Y-67790476D01*
X123838095Y-67838095D01*
X125361904Y-68552380D02*
X124790476Y-68552380D01*
X125076190Y-68552380D02*
X125076190Y-67552380D01*
X124980952Y-67695238D01*
X124885714Y-67790476D01*
X124790476Y-67838095D01*
G04 #@! TO.C,R10*
X120157142Y-68652380D02*
X119823809Y-68176190D01*
X119585714Y-68652380D02*
X119585714Y-67652380D01*
X119966666Y-67652380D01*
X120061904Y-67700000D01*
X120109523Y-67747619D01*
X120157142Y-67842857D01*
X120157142Y-67985714D01*
X120109523Y-68080952D01*
X120061904Y-68128571D01*
X119966666Y-68176190D01*
X119585714Y-68176190D01*
X121109523Y-68652380D02*
X120538095Y-68652380D01*
X120823809Y-68652380D02*
X120823809Y-67652380D01*
X120728571Y-67795238D01*
X120633333Y-67890476D01*
X120538095Y-67938095D01*
X121728571Y-67652380D02*
X121823809Y-67652380D01*
X121919047Y-67700000D01*
X121966666Y-67747619D01*
X122014285Y-67842857D01*
X122061904Y-68033333D01*
X122061904Y-68271428D01*
X122014285Y-68461904D01*
X121966666Y-68557142D01*
X121919047Y-68604761D01*
X121823809Y-68652380D01*
X121728571Y-68652380D01*
X121633333Y-68604761D01*
X121585714Y-68557142D01*
X121538095Y-68461904D01*
X121490476Y-68271428D01*
X121490476Y-68033333D01*
X121538095Y-67842857D01*
X121585714Y-67747619D01*
X121633333Y-67700000D01*
X121728571Y-67652380D01*
G04 #@! TO.C,R16*
X124457142Y-101652380D02*
X124123809Y-101176190D01*
X123885714Y-101652380D02*
X123885714Y-100652380D01*
X124266666Y-100652380D01*
X124361904Y-100700000D01*
X124409523Y-100747619D01*
X124457142Y-100842857D01*
X124457142Y-100985714D01*
X124409523Y-101080952D01*
X124361904Y-101128571D01*
X124266666Y-101176190D01*
X123885714Y-101176190D01*
X125409523Y-101652380D02*
X124838095Y-101652380D01*
X125123809Y-101652380D02*
X125123809Y-100652380D01*
X125028571Y-100795238D01*
X124933333Y-100890476D01*
X124838095Y-100938095D01*
X126266666Y-100652380D02*
X126076190Y-100652380D01*
X125980952Y-100700000D01*
X125933333Y-100747619D01*
X125838095Y-100890476D01*
X125790476Y-101080952D01*
X125790476Y-101461904D01*
X125838095Y-101557142D01*
X125885714Y-101604761D01*
X125980952Y-101652380D01*
X126171428Y-101652380D01*
X126266666Y-101604761D01*
X126314285Y-101557142D01*
X126361904Y-101461904D01*
X126361904Y-101223809D01*
X126314285Y-101128571D01*
X126266666Y-101080952D01*
X126171428Y-101033333D01*
X125980952Y-101033333D01*
X125885714Y-101080952D01*
X125838095Y-101128571D01*
X125790476Y-101223809D01*
G04 #@! TO.C,R17*
X129441142Y-68682380D02*
X129107809Y-68206190D01*
X128869714Y-68682380D02*
X128869714Y-67682380D01*
X129250666Y-67682380D01*
X129345904Y-67730000D01*
X129393523Y-67777619D01*
X129441142Y-67872857D01*
X129441142Y-68015714D01*
X129393523Y-68110952D01*
X129345904Y-68158571D01*
X129250666Y-68206190D01*
X128869714Y-68206190D01*
X130393523Y-68682380D02*
X129822095Y-68682380D01*
X130107809Y-68682380D02*
X130107809Y-67682380D01*
X130012571Y-67825238D01*
X129917333Y-67920476D01*
X129822095Y-67968095D01*
X130726857Y-67682380D02*
X131393523Y-67682380D01*
X130964952Y-68682380D01*
G04 #@! TO.C,R14*
X124107142Y-96752380D02*
X123773809Y-96276190D01*
X123535714Y-96752380D02*
X123535714Y-95752380D01*
X123916666Y-95752380D01*
X124011904Y-95800000D01*
X124059523Y-95847619D01*
X124107142Y-95942857D01*
X124107142Y-96085714D01*
X124059523Y-96180952D01*
X124011904Y-96228571D01*
X123916666Y-96276190D01*
X123535714Y-96276190D01*
X125059523Y-96752380D02*
X124488095Y-96752380D01*
X124773809Y-96752380D02*
X124773809Y-95752380D01*
X124678571Y-95895238D01*
X124583333Y-95990476D01*
X124488095Y-96038095D01*
X125916666Y-96085714D02*
X125916666Y-96752380D01*
X125678571Y-95704761D02*
X125440476Y-96419047D01*
X126059523Y-96419047D01*
G04 #@! TO.C,R18*
X129695142Y-96622380D02*
X129361809Y-96146190D01*
X129123714Y-96622380D02*
X129123714Y-95622380D01*
X129504666Y-95622380D01*
X129599904Y-95670000D01*
X129647523Y-95717619D01*
X129695142Y-95812857D01*
X129695142Y-95955714D01*
X129647523Y-96050952D01*
X129599904Y-96098571D01*
X129504666Y-96146190D01*
X129123714Y-96146190D01*
X130647523Y-96622380D02*
X130076095Y-96622380D01*
X130361809Y-96622380D02*
X130361809Y-95622380D01*
X130266571Y-95765238D01*
X130171333Y-95860476D01*
X130076095Y-95908095D01*
X131218952Y-96050952D02*
X131123714Y-96003333D01*
X131076095Y-95955714D01*
X131028476Y-95860476D01*
X131028476Y-95812857D01*
X131076095Y-95717619D01*
X131123714Y-95670000D01*
X131218952Y-95622380D01*
X131409428Y-95622380D01*
X131504666Y-95670000D01*
X131552285Y-95717619D01*
X131599904Y-95812857D01*
X131599904Y-95860476D01*
X131552285Y-95955714D01*
X131504666Y-96003333D01*
X131409428Y-96050952D01*
X131218952Y-96050952D01*
X131123714Y-96098571D01*
X131076095Y-96146190D01*
X131028476Y-96241428D01*
X131028476Y-96431904D01*
X131076095Y-96527142D01*
X131123714Y-96574761D01*
X131218952Y-96622380D01*
X131409428Y-96622380D01*
X131504666Y-96574761D01*
X131552285Y-96527142D01*
X131599904Y-96431904D01*
X131599904Y-96241428D01*
X131552285Y-96146190D01*
X131504666Y-96098571D01*
X131409428Y-96050952D01*
G04 #@! TO.C,C1*
X81233333Y-63357142D02*
X81185714Y-63404761D01*
X81042857Y-63452380D01*
X80947619Y-63452380D01*
X80804761Y-63404761D01*
X80709523Y-63309523D01*
X80661904Y-63214285D01*
X80614285Y-63023809D01*
X80614285Y-62880952D01*
X80661904Y-62690476D01*
X80709523Y-62595238D01*
X80804761Y-62500000D01*
X80947619Y-62452380D01*
X81042857Y-62452380D01*
X81185714Y-62500000D01*
X81233333Y-62547619D01*
X82185714Y-63452380D02*
X81614285Y-63452380D01*
X81900000Y-63452380D02*
X81900000Y-62452380D01*
X81804761Y-62595238D01*
X81709523Y-62690476D01*
X81614285Y-62738095D01*
G04 #@! TO.C,U7*
X86573895Y-85493780D02*
X86573895Y-86303304D01*
X86621514Y-86398542D01*
X86669133Y-86446161D01*
X86764371Y-86493780D01*
X86954847Y-86493780D01*
X87050085Y-86446161D01*
X87097704Y-86398542D01*
X87145323Y-86303304D01*
X87145323Y-85493780D01*
X87526276Y-85493780D02*
X88192942Y-85493780D01*
X87764371Y-86493780D01*
G04 #@! TO.C,C6*
X117318833Y-69145342D02*
X117271214Y-69192961D01*
X117128357Y-69240580D01*
X117033119Y-69240580D01*
X116890261Y-69192961D01*
X116795023Y-69097723D01*
X116747404Y-69002485D01*
X116699785Y-68812009D01*
X116699785Y-68669152D01*
X116747404Y-68478676D01*
X116795023Y-68383438D01*
X116890261Y-68288200D01*
X117033119Y-68240580D01*
X117128357Y-68240580D01*
X117271214Y-68288200D01*
X117318833Y-68335819D01*
X118175976Y-68240580D02*
X117985500Y-68240580D01*
X117890261Y-68288200D01*
X117842642Y-68335819D01*
X117747404Y-68478676D01*
X117699785Y-68669152D01*
X117699785Y-69050104D01*
X117747404Y-69145342D01*
X117795023Y-69192961D01*
X117890261Y-69240580D01*
X118080738Y-69240580D01*
X118175976Y-69192961D01*
X118223595Y-69145342D01*
X118271214Y-69050104D01*
X118271214Y-68812009D01*
X118223595Y-68716771D01*
X118175976Y-68669152D01*
X118080738Y-68621533D01*
X117890261Y-68621533D01*
X117795023Y-68669152D01*
X117747404Y-68716771D01*
X117699785Y-68812009D01*
G04 #@! TO.C,R8*
X119333333Y-110650780D02*
X119000000Y-110174590D01*
X118761904Y-110650780D02*
X118761904Y-109650780D01*
X119142857Y-109650780D01*
X119238095Y-109698400D01*
X119285714Y-109746019D01*
X119333333Y-109841257D01*
X119333333Y-109984114D01*
X119285714Y-110079352D01*
X119238095Y-110126971D01*
X119142857Y-110174590D01*
X118761904Y-110174590D01*
X119904761Y-110079352D02*
X119809523Y-110031733D01*
X119761904Y-109984114D01*
X119714285Y-109888876D01*
X119714285Y-109841257D01*
X119761904Y-109746019D01*
X119809523Y-109698400D01*
X119904761Y-109650780D01*
X120095238Y-109650780D01*
X120190476Y-109698400D01*
X120238095Y-109746019D01*
X120285714Y-109841257D01*
X120285714Y-109888876D01*
X120238095Y-109984114D01*
X120190476Y-110031733D01*
X120095238Y-110079352D01*
X119904761Y-110079352D01*
X119809523Y-110126971D01*
X119761904Y-110174590D01*
X119714285Y-110269828D01*
X119714285Y-110460304D01*
X119761904Y-110555542D01*
X119809523Y-110603161D01*
X119904761Y-110650780D01*
X120095238Y-110650780D01*
X120190476Y-110603161D01*
X120238095Y-110555542D01*
X120285714Y-110460304D01*
X120285714Y-110269828D01*
X120238095Y-110174590D01*
X120190476Y-110126971D01*
X120095238Y-110079352D01*
G04 #@! TO.C,U10*
X99889904Y-94010380D02*
X99889904Y-94819904D01*
X99937523Y-94915142D01*
X99985142Y-94962761D01*
X100080380Y-95010380D01*
X100270857Y-95010380D01*
X100366095Y-94962761D01*
X100413714Y-94915142D01*
X100461333Y-94819904D01*
X100461333Y-94010380D01*
X101461333Y-95010380D02*
X100889904Y-95010380D01*
X101175619Y-95010380D02*
X101175619Y-94010380D01*
X101080380Y-94153238D01*
X100985142Y-94248476D01*
X100889904Y-94296095D01*
X102080380Y-94010380D02*
X102175619Y-94010380D01*
X102270857Y-94058000D01*
X102318476Y-94105619D01*
X102366095Y-94200857D01*
X102413714Y-94391333D01*
X102413714Y-94629428D01*
X102366095Y-94819904D01*
X102318476Y-94915142D01*
X102270857Y-94962761D01*
X102175619Y-95010380D01*
X102080380Y-95010380D01*
X101985142Y-94962761D01*
X101937523Y-94915142D01*
X101889904Y-94819904D01*
X101842285Y-94629428D01*
X101842285Y-94391333D01*
X101889904Y-94200857D01*
X101937523Y-94105619D01*
X101985142Y-94058000D01*
X102080380Y-94010380D01*
G04 #@! TO.C,C2*
X105233333Y-67857142D02*
X105185714Y-67904761D01*
X105042857Y-67952380D01*
X104947619Y-67952380D01*
X104804761Y-67904761D01*
X104709523Y-67809523D01*
X104661904Y-67714285D01*
X104614285Y-67523809D01*
X104614285Y-67380952D01*
X104661904Y-67190476D01*
X104709523Y-67095238D01*
X104804761Y-67000000D01*
X104947619Y-66952380D01*
X105042857Y-66952380D01*
X105185714Y-67000000D01*
X105233333Y-67047619D01*
X105614285Y-67047619D02*
X105661904Y-67000000D01*
X105757142Y-66952380D01*
X105995238Y-66952380D01*
X106090476Y-67000000D01*
X106138095Y-67047619D01*
X106185714Y-67142857D01*
X106185714Y-67238095D01*
X106138095Y-67380952D01*
X105566666Y-67952380D01*
X106185714Y-67952380D01*
G04 #@! TO.C,C3*
X83333733Y-100751142D02*
X83286114Y-100798761D01*
X83143257Y-100846380D01*
X83048019Y-100846380D01*
X82905161Y-100798761D01*
X82809923Y-100703523D01*
X82762304Y-100608285D01*
X82714685Y-100417809D01*
X82714685Y-100274952D01*
X82762304Y-100084476D01*
X82809923Y-99989238D01*
X82905161Y-99894000D01*
X83048019Y-99846380D01*
X83143257Y-99846380D01*
X83286114Y-99894000D01*
X83333733Y-99941619D01*
X83667066Y-99846380D02*
X84286114Y-99846380D01*
X83952780Y-100227333D01*
X84095638Y-100227333D01*
X84190876Y-100274952D01*
X84238495Y-100322571D01*
X84286114Y-100417809D01*
X84286114Y-100655904D01*
X84238495Y-100751142D01*
X84190876Y-100798761D01*
X84095638Y-100846380D01*
X83809923Y-100846380D01*
X83714685Y-100798761D01*
X83667066Y-100751142D01*
G04 #@! TO.C,C5*
X83181333Y-84589142D02*
X83133714Y-84636761D01*
X82990857Y-84684380D01*
X82895619Y-84684380D01*
X82752761Y-84636761D01*
X82657523Y-84541523D01*
X82609904Y-84446285D01*
X82562285Y-84255809D01*
X82562285Y-84112952D01*
X82609904Y-83922476D01*
X82657523Y-83827238D01*
X82752761Y-83732000D01*
X82895619Y-83684380D01*
X82990857Y-83684380D01*
X83133714Y-83732000D01*
X83181333Y-83779619D01*
X84086095Y-83684380D02*
X83609904Y-83684380D01*
X83562285Y-84160571D01*
X83609904Y-84112952D01*
X83705142Y-84065333D01*
X83943238Y-84065333D01*
X84038476Y-84112952D01*
X84086095Y-84160571D01*
X84133714Y-84255809D01*
X84133714Y-84493904D01*
X84086095Y-84589142D01*
X84038476Y-84636761D01*
X83943238Y-84684380D01*
X83705142Y-84684380D01*
X83609904Y-84636761D01*
X83562285Y-84589142D01*
G04 #@! TO.C,C7*
X115057142Y-62866666D02*
X115104761Y-62914285D01*
X115152380Y-63057142D01*
X115152380Y-63152380D01*
X115104761Y-63295238D01*
X115009523Y-63390476D01*
X114914285Y-63438095D01*
X114723809Y-63485714D01*
X114580952Y-63485714D01*
X114390476Y-63438095D01*
X114295238Y-63390476D01*
X114200000Y-63295238D01*
X114152380Y-63152380D01*
X114152380Y-63057142D01*
X114200000Y-62914285D01*
X114247619Y-62866666D01*
X114152380Y-62533333D02*
X114152380Y-61866666D01*
X115152380Y-62295238D01*
G04 #@! TO.C,C8*
X125257142Y-62666666D02*
X125304761Y-62714285D01*
X125352380Y-62857142D01*
X125352380Y-62952380D01*
X125304761Y-63095238D01*
X125209523Y-63190476D01*
X125114285Y-63238095D01*
X124923809Y-63285714D01*
X124780952Y-63285714D01*
X124590476Y-63238095D01*
X124495238Y-63190476D01*
X124400000Y-63095238D01*
X124352380Y-62952380D01*
X124352380Y-62857142D01*
X124400000Y-62714285D01*
X124447619Y-62666666D01*
X124780952Y-62095238D02*
X124733333Y-62190476D01*
X124685714Y-62238095D01*
X124590476Y-62285714D01*
X124542857Y-62285714D01*
X124447619Y-62238095D01*
X124400000Y-62190476D01*
X124352380Y-62095238D01*
X124352380Y-61904761D01*
X124400000Y-61809523D01*
X124447619Y-61761904D01*
X124542857Y-61714285D01*
X124590476Y-61714285D01*
X124685714Y-61761904D01*
X124733333Y-61809523D01*
X124780952Y-61904761D01*
X124780952Y-62095238D01*
X124828571Y-62190476D01*
X124876190Y-62238095D01*
X124971428Y-62285714D01*
X125161904Y-62285714D01*
X125257142Y-62238095D01*
X125304761Y-62190476D01*
X125352380Y-62095238D01*
X125352380Y-61904761D01*
X125304761Y-61809523D01*
X125257142Y-61761904D01*
X125161904Y-61714285D01*
X124971428Y-61714285D01*
X124876190Y-61761904D01*
X124828571Y-61809523D01*
X124780952Y-61904761D01*
G04 #@! TO.C,C9*
X90750533Y-100649542D02*
X90702914Y-100697161D01*
X90560057Y-100744780D01*
X90464819Y-100744780D01*
X90321961Y-100697161D01*
X90226723Y-100601923D01*
X90179104Y-100506685D01*
X90131485Y-100316209D01*
X90131485Y-100173352D01*
X90179104Y-99982876D01*
X90226723Y-99887638D01*
X90321961Y-99792400D01*
X90464819Y-99744780D01*
X90560057Y-99744780D01*
X90702914Y-99792400D01*
X90750533Y-99840019D01*
X91226723Y-100744780D02*
X91417200Y-100744780D01*
X91512438Y-100697161D01*
X91560057Y-100649542D01*
X91655295Y-100506685D01*
X91702914Y-100316209D01*
X91702914Y-99935257D01*
X91655295Y-99840019D01*
X91607676Y-99792400D01*
X91512438Y-99744780D01*
X91321961Y-99744780D01*
X91226723Y-99792400D01*
X91179104Y-99840019D01*
X91131485Y-99935257D01*
X91131485Y-100173352D01*
X91179104Y-100268590D01*
X91226723Y-100316209D01*
X91321961Y-100363828D01*
X91512438Y-100363828D01*
X91607676Y-100316209D01*
X91655295Y-100268590D01*
X91702914Y-100173352D01*
G04 #@! TO.C,C11*
X90579142Y-84657142D02*
X90531523Y-84704761D01*
X90388666Y-84752380D01*
X90293428Y-84752380D01*
X90150571Y-84704761D01*
X90055333Y-84609523D01*
X90007714Y-84514285D01*
X89960095Y-84323809D01*
X89960095Y-84180952D01*
X90007714Y-83990476D01*
X90055333Y-83895238D01*
X90150571Y-83800000D01*
X90293428Y-83752380D01*
X90388666Y-83752380D01*
X90531523Y-83800000D01*
X90579142Y-83847619D01*
X91531523Y-84752380D02*
X90960095Y-84752380D01*
X91245809Y-84752380D02*
X91245809Y-83752380D01*
X91150571Y-83895238D01*
X91055333Y-83990476D01*
X90960095Y-84038095D01*
X92483904Y-84752380D02*
X91912476Y-84752380D01*
X92198190Y-84752380D02*
X92198190Y-83752380D01*
X92102952Y-83895238D01*
X92007714Y-83990476D01*
X91912476Y-84038095D01*
G04 #@! TO.C,C12*
X135857142Y-61142857D02*
X135904761Y-61190476D01*
X135952380Y-61333333D01*
X135952380Y-61428571D01*
X135904761Y-61571428D01*
X135809523Y-61666666D01*
X135714285Y-61714285D01*
X135523809Y-61761904D01*
X135380952Y-61761904D01*
X135190476Y-61714285D01*
X135095238Y-61666666D01*
X135000000Y-61571428D01*
X134952380Y-61428571D01*
X134952380Y-61333333D01*
X135000000Y-61190476D01*
X135047619Y-61142857D01*
X135952380Y-60190476D02*
X135952380Y-60761904D01*
X135952380Y-60476190D02*
X134952380Y-60476190D01*
X135095238Y-60571428D01*
X135190476Y-60666666D01*
X135238095Y-60761904D01*
X135047619Y-59809523D02*
X135000000Y-59761904D01*
X134952380Y-59666666D01*
X134952380Y-59428571D01*
X135000000Y-59333333D01*
X135047619Y-59285714D01*
X135142857Y-59238095D01*
X135238095Y-59238095D01*
X135380952Y-59285714D01*
X135952380Y-59857142D01*
X135952380Y-59238095D01*
G04 #@! TO.C,C13*
X96151142Y-106243857D02*
X96198761Y-106291476D01*
X96246380Y-106434333D01*
X96246380Y-106529571D01*
X96198761Y-106672428D01*
X96103523Y-106767666D01*
X96008285Y-106815285D01*
X95817809Y-106862904D01*
X95674952Y-106862904D01*
X95484476Y-106815285D01*
X95389238Y-106767666D01*
X95294000Y-106672428D01*
X95246380Y-106529571D01*
X95246380Y-106434333D01*
X95294000Y-106291476D01*
X95341619Y-106243857D01*
X96246380Y-105291476D02*
X96246380Y-105862904D01*
X96246380Y-105577190D02*
X95246380Y-105577190D01*
X95389238Y-105672428D01*
X95484476Y-105767666D01*
X95532095Y-105862904D01*
X95246380Y-104958142D02*
X95246380Y-104339095D01*
X95627333Y-104672428D01*
X95627333Y-104529571D01*
X95674952Y-104434333D01*
X95722571Y-104386714D01*
X95817809Y-104339095D01*
X96055904Y-104339095D01*
X96151142Y-104386714D01*
X96198761Y-104434333D01*
X96246380Y-104529571D01*
X96246380Y-104815285D01*
X96198761Y-104910523D01*
X96151142Y-104958142D01*
G04 #@! TO.C,C14*
X137324542Y-67703857D02*
X137372161Y-67751476D01*
X137419780Y-67894333D01*
X137419780Y-67989571D01*
X137372161Y-68132428D01*
X137276923Y-68227666D01*
X137181685Y-68275285D01*
X136991209Y-68322904D01*
X136848352Y-68322904D01*
X136657876Y-68275285D01*
X136562638Y-68227666D01*
X136467400Y-68132428D01*
X136419780Y-67989571D01*
X136419780Y-67894333D01*
X136467400Y-67751476D01*
X136515019Y-67703857D01*
X137419780Y-66751476D02*
X137419780Y-67322904D01*
X137419780Y-67037190D02*
X136419780Y-67037190D01*
X136562638Y-67132428D01*
X136657876Y-67227666D01*
X136705495Y-67322904D01*
X136753114Y-65894333D02*
X137419780Y-65894333D01*
X136372161Y-66132428D02*
X137086447Y-66370523D01*
X137086447Y-65751476D01*
G04 #@! TO.C,C15*
X107956826Y-88593100D02*
X108004445Y-88640719D01*
X108052064Y-88783576D01*
X108052064Y-88878814D01*
X108004445Y-89021671D01*
X107909207Y-89116909D01*
X107813969Y-89164528D01*
X107623493Y-89212147D01*
X107480636Y-89212147D01*
X107290160Y-89164528D01*
X107194922Y-89116909D01*
X107099684Y-89021671D01*
X107052064Y-88878814D01*
X107052064Y-88783576D01*
X107099684Y-88640719D01*
X107147303Y-88593100D01*
X108052064Y-87640719D02*
X108052064Y-88212147D01*
X108052064Y-87926433D02*
X107052064Y-87926433D01*
X107194922Y-88021671D01*
X107290160Y-88116909D01*
X107337779Y-88212147D01*
X107052064Y-86735957D02*
X107052064Y-87212147D01*
X107528255Y-87259766D01*
X107480636Y-87212147D01*
X107433017Y-87116909D01*
X107433017Y-86878814D01*
X107480636Y-86783576D01*
X107528255Y-86735957D01*
X107623493Y-86688338D01*
X107861588Y-86688338D01*
X107956826Y-86735957D01*
X108004445Y-86783576D01*
X108052064Y-86878814D01*
X108052064Y-87116909D01*
X108004445Y-87212147D01*
X107956826Y-87259766D01*
G04 #@! TO.C,C16*
X106565142Y-97760357D02*
X106612761Y-97807976D01*
X106660380Y-97950833D01*
X106660380Y-98046071D01*
X106612761Y-98188928D01*
X106517523Y-98284166D01*
X106422285Y-98331785D01*
X106231809Y-98379404D01*
X106088952Y-98379404D01*
X105898476Y-98331785D01*
X105803238Y-98284166D01*
X105708000Y-98188928D01*
X105660380Y-98046071D01*
X105660380Y-97950833D01*
X105708000Y-97807976D01*
X105755619Y-97760357D01*
X106660380Y-96807976D02*
X106660380Y-97379404D01*
X106660380Y-97093690D02*
X105660380Y-97093690D01*
X105803238Y-97188928D01*
X105898476Y-97284166D01*
X105946095Y-97379404D01*
X105660380Y-95950833D02*
X105660380Y-96141309D01*
X105708000Y-96236547D01*
X105755619Y-96284166D01*
X105898476Y-96379404D01*
X106088952Y-96427023D01*
X106469904Y-96427023D01*
X106565142Y-96379404D01*
X106612761Y-96331785D01*
X106660380Y-96236547D01*
X106660380Y-96046071D01*
X106612761Y-95950833D01*
X106565142Y-95903214D01*
X106469904Y-95855595D01*
X106231809Y-95855595D01*
X106136571Y-95903214D01*
X106088952Y-95950833D01*
X106041333Y-96046071D01*
X106041333Y-96236547D01*
X106088952Y-96331785D01*
X106136571Y-96379404D01*
X106231809Y-96427023D01*
G04 #@! TO.C,C17*
X106565142Y-100655857D02*
X106612761Y-100703476D01*
X106660380Y-100846333D01*
X106660380Y-100941571D01*
X106612761Y-101084428D01*
X106517523Y-101179666D01*
X106422285Y-101227285D01*
X106231809Y-101274904D01*
X106088952Y-101274904D01*
X105898476Y-101227285D01*
X105803238Y-101179666D01*
X105708000Y-101084428D01*
X105660380Y-100941571D01*
X105660380Y-100846333D01*
X105708000Y-100703476D01*
X105755619Y-100655857D01*
X106660380Y-99703476D02*
X106660380Y-100274904D01*
X106660380Y-99989190D02*
X105660380Y-99989190D01*
X105803238Y-100084428D01*
X105898476Y-100179666D01*
X105946095Y-100274904D01*
X105660380Y-99370142D02*
X105660380Y-98703476D01*
X106660380Y-99132047D01*
G04 #@! TO.C,U2*
X79728095Y-76042380D02*
X79728095Y-76851904D01*
X79775714Y-76947142D01*
X79823333Y-76994761D01*
X79918571Y-77042380D01*
X80109047Y-77042380D01*
X80204285Y-76994761D01*
X80251904Y-76947142D01*
X80299523Y-76851904D01*
X80299523Y-76042380D01*
X80728095Y-76137619D02*
X80775714Y-76090000D01*
X80870952Y-76042380D01*
X81109047Y-76042380D01*
X81204285Y-76090000D01*
X81251904Y-76137619D01*
X81299523Y-76232857D01*
X81299523Y-76328095D01*
X81251904Y-76470952D01*
X80680476Y-77042380D01*
X81299523Y-77042380D01*
G04 #@! TO.C,U3*
X108838095Y-59952380D02*
X108838095Y-60761904D01*
X108885714Y-60857142D01*
X108933333Y-60904761D01*
X109028571Y-60952380D01*
X109219047Y-60952380D01*
X109314285Y-60904761D01*
X109361904Y-60857142D01*
X109409523Y-60761904D01*
X109409523Y-59952380D01*
X109790476Y-59952380D02*
X110409523Y-59952380D01*
X110076190Y-60333333D01*
X110219047Y-60333333D01*
X110314285Y-60380952D01*
X110361904Y-60428571D01*
X110409523Y-60523809D01*
X110409523Y-60761904D01*
X110361904Y-60857142D01*
X110314285Y-60904761D01*
X110219047Y-60952380D01*
X109933333Y-60952380D01*
X109838095Y-60904761D01*
X109790476Y-60857142D01*
G04 #@! TO.C,U4*
X119238095Y-59852380D02*
X119238095Y-60661904D01*
X119285714Y-60757142D01*
X119333333Y-60804761D01*
X119428571Y-60852380D01*
X119619047Y-60852380D01*
X119714285Y-60804761D01*
X119761904Y-60757142D01*
X119809523Y-60661904D01*
X119809523Y-59852380D01*
X120714285Y-60185714D02*
X120714285Y-60852380D01*
X120476190Y-59804761D02*
X120238095Y-60519047D01*
X120857142Y-60519047D01*
G04 #@! TO.C,U5*
X86396095Y-101724380D02*
X86396095Y-102533904D01*
X86443714Y-102629142D01*
X86491333Y-102676761D01*
X86586571Y-102724380D01*
X86777047Y-102724380D01*
X86872285Y-102676761D01*
X86919904Y-102629142D01*
X86967523Y-102533904D01*
X86967523Y-101724380D01*
X87919904Y-101724380D02*
X87443714Y-101724380D01*
X87396095Y-102200571D01*
X87443714Y-102152952D01*
X87538952Y-102105333D01*
X87777047Y-102105333D01*
X87872285Y-102152952D01*
X87919904Y-102200571D01*
X87967523Y-102295809D01*
X87967523Y-102533904D01*
X87919904Y-102629142D01*
X87872285Y-102676761D01*
X87777047Y-102724380D01*
X87538952Y-102724380D01*
X87443714Y-102676761D01*
X87396095Y-102629142D01*
G04 #@! TO.C,U8*
X129538095Y-60152380D02*
X129538095Y-60961904D01*
X129585714Y-61057142D01*
X129633333Y-61104761D01*
X129728571Y-61152380D01*
X129919047Y-61152380D01*
X130014285Y-61104761D01*
X130061904Y-61057142D01*
X130109523Y-60961904D01*
X130109523Y-60152380D01*
X130728571Y-60580952D02*
X130633333Y-60533333D01*
X130585714Y-60485714D01*
X130538095Y-60390476D01*
X130538095Y-60342857D01*
X130585714Y-60247619D01*
X130633333Y-60200000D01*
X130728571Y-60152380D01*
X130919047Y-60152380D01*
X131014285Y-60200000D01*
X131061904Y-60247619D01*
X131109523Y-60342857D01*
X131109523Y-60390476D01*
X131061904Y-60485714D01*
X131014285Y-60533333D01*
X130919047Y-60580952D01*
X130728571Y-60580952D01*
X130633333Y-60628571D01*
X130585714Y-60676190D01*
X130538095Y-60771428D01*
X130538095Y-60961904D01*
X130585714Y-61057142D01*
X130633333Y-61104761D01*
X130728571Y-61152380D01*
X130919047Y-61152380D01*
X131014285Y-61104761D01*
X131061904Y-61057142D01*
X131109523Y-60961904D01*
X131109523Y-60771428D01*
X131061904Y-60676190D01*
X131014285Y-60628571D01*
X130919047Y-60580952D01*
G04 #@! TO.C,U9*
X100366095Y-82787380D02*
X100366095Y-83596904D01*
X100413714Y-83692142D01*
X100461333Y-83739761D01*
X100556571Y-83787380D01*
X100747047Y-83787380D01*
X100842285Y-83739761D01*
X100889904Y-83692142D01*
X100937523Y-83596904D01*
X100937523Y-82787380D01*
X101461333Y-83787380D02*
X101651809Y-83787380D01*
X101747047Y-83739761D01*
X101794666Y-83692142D01*
X101889904Y-83549285D01*
X101937523Y-83358809D01*
X101937523Y-82977857D01*
X101889904Y-82882619D01*
X101842285Y-82835000D01*
X101747047Y-82787380D01*
X101556571Y-82787380D01*
X101461333Y-82835000D01*
X101413714Y-82882619D01*
X101366095Y-82977857D01*
X101366095Y-83215952D01*
X101413714Y-83311190D01*
X101461333Y-83358809D01*
X101556571Y-83406428D01*
X101747047Y-83406428D01*
X101842285Y-83358809D01*
X101889904Y-83311190D01*
X101937523Y-83215952D01*
G04 #@! TO.C,C18*
X122057142Y-104042857D02*
X122104761Y-104090476D01*
X122152380Y-104233333D01*
X122152380Y-104328571D01*
X122104761Y-104471428D01*
X122009523Y-104566666D01*
X121914285Y-104614285D01*
X121723809Y-104661904D01*
X121580952Y-104661904D01*
X121390476Y-104614285D01*
X121295238Y-104566666D01*
X121200000Y-104471428D01*
X121152380Y-104328571D01*
X121152380Y-104233333D01*
X121200000Y-104090476D01*
X121247619Y-104042857D01*
X122152380Y-103090476D02*
X122152380Y-103661904D01*
X122152380Y-103376190D02*
X121152380Y-103376190D01*
X121295238Y-103471428D01*
X121390476Y-103566666D01*
X121438095Y-103661904D01*
X121580952Y-102519047D02*
X121533333Y-102614285D01*
X121485714Y-102661904D01*
X121390476Y-102709523D01*
X121342857Y-102709523D01*
X121247619Y-102661904D01*
X121200000Y-102614285D01*
X121152380Y-102519047D01*
X121152380Y-102328571D01*
X121200000Y-102233333D01*
X121247619Y-102185714D01*
X121342857Y-102138095D01*
X121390476Y-102138095D01*
X121485714Y-102185714D01*
X121533333Y-102233333D01*
X121580952Y-102328571D01*
X121580952Y-102519047D01*
X121628571Y-102614285D01*
X121676190Y-102661904D01*
X121771428Y-102709523D01*
X121961904Y-102709523D01*
X122057142Y-102661904D01*
X122104761Y-102614285D01*
X122152380Y-102519047D01*
X122152380Y-102328571D01*
X122104761Y-102233333D01*
X122057142Y-102185714D01*
X121961904Y-102138095D01*
X121771428Y-102138095D01*
X121676190Y-102185714D01*
X121628571Y-102233333D01*
X121580952Y-102328571D01*
G04 #@! TO.C,C19*
X112757142Y-108042857D02*
X112804761Y-108090476D01*
X112852380Y-108233333D01*
X112852380Y-108328571D01*
X112804761Y-108471428D01*
X112709523Y-108566666D01*
X112614285Y-108614285D01*
X112423809Y-108661904D01*
X112280952Y-108661904D01*
X112090476Y-108614285D01*
X111995238Y-108566666D01*
X111900000Y-108471428D01*
X111852380Y-108328571D01*
X111852380Y-108233333D01*
X111900000Y-108090476D01*
X111947619Y-108042857D01*
X112852380Y-107090476D02*
X112852380Y-107661904D01*
X112852380Y-107376190D02*
X111852380Y-107376190D01*
X111995238Y-107471428D01*
X112090476Y-107566666D01*
X112138095Y-107661904D01*
X112852380Y-106614285D02*
X112852380Y-106423809D01*
X112804761Y-106328571D01*
X112757142Y-106280952D01*
X112614285Y-106185714D01*
X112423809Y-106138095D01*
X112042857Y-106138095D01*
X111947619Y-106185714D01*
X111900000Y-106233333D01*
X111852380Y-106328571D01*
X111852380Y-106519047D01*
X111900000Y-106614285D01*
X111947619Y-106661904D01*
X112042857Y-106709523D01*
X112280952Y-106709523D01*
X112376190Y-106661904D01*
X112423809Y-106614285D01*
X112471428Y-106519047D01*
X112471428Y-106328571D01*
X112423809Y-106233333D01*
X112376190Y-106185714D01*
X112280952Y-106138095D01*
G04 #@! TO.C,C20*
X111457142Y-78938857D02*
X111504761Y-78986476D01*
X111552380Y-79129333D01*
X111552380Y-79224571D01*
X111504761Y-79367428D01*
X111409523Y-79462666D01*
X111314285Y-79510285D01*
X111123809Y-79557904D01*
X110980952Y-79557904D01*
X110790476Y-79510285D01*
X110695238Y-79462666D01*
X110600000Y-79367428D01*
X110552380Y-79224571D01*
X110552380Y-79129333D01*
X110600000Y-78986476D01*
X110647619Y-78938857D01*
X110647619Y-78557904D02*
X110600000Y-78510285D01*
X110552380Y-78415047D01*
X110552380Y-78176952D01*
X110600000Y-78081714D01*
X110647619Y-78034095D01*
X110742857Y-77986476D01*
X110838095Y-77986476D01*
X110980952Y-78034095D01*
X111552380Y-78605523D01*
X111552380Y-77986476D01*
X110552380Y-77367428D02*
X110552380Y-77272190D01*
X110600000Y-77176952D01*
X110647619Y-77129333D01*
X110742857Y-77081714D01*
X110933333Y-77034095D01*
X111171428Y-77034095D01*
X111361904Y-77081714D01*
X111457142Y-77129333D01*
X111504761Y-77176952D01*
X111552380Y-77272190D01*
X111552380Y-77367428D01*
X111504761Y-77462666D01*
X111457142Y-77510285D01*
X111361904Y-77557904D01*
X111171428Y-77605523D01*
X110933333Y-77605523D01*
X110742857Y-77557904D01*
X110647619Y-77510285D01*
X110600000Y-77462666D01*
X110552380Y-77367428D01*
G04 #@! TO.C,C21*
X120957142Y-75542857D02*
X121004761Y-75590476D01*
X121052380Y-75733333D01*
X121052380Y-75828571D01*
X121004761Y-75971428D01*
X120909523Y-76066666D01*
X120814285Y-76114285D01*
X120623809Y-76161904D01*
X120480952Y-76161904D01*
X120290476Y-76114285D01*
X120195238Y-76066666D01*
X120100000Y-75971428D01*
X120052380Y-75828571D01*
X120052380Y-75733333D01*
X120100000Y-75590476D01*
X120147619Y-75542857D01*
X120147619Y-75161904D02*
X120100000Y-75114285D01*
X120052380Y-75019047D01*
X120052380Y-74780952D01*
X120100000Y-74685714D01*
X120147619Y-74638095D01*
X120242857Y-74590476D01*
X120338095Y-74590476D01*
X120480952Y-74638095D01*
X121052380Y-75209523D01*
X121052380Y-74590476D01*
X121052380Y-73638095D02*
X121052380Y-74209523D01*
X121052380Y-73923809D02*
X120052380Y-73923809D01*
X120195238Y-74019047D01*
X120290476Y-74114285D01*
X120338095Y-74209523D01*
G04 #@! TO.C,C22*
X121357142Y-120342857D02*
X121404761Y-120390476D01*
X121452380Y-120533333D01*
X121452380Y-120628571D01*
X121404761Y-120771428D01*
X121309523Y-120866666D01*
X121214285Y-120914285D01*
X121023809Y-120961904D01*
X120880952Y-120961904D01*
X120690476Y-120914285D01*
X120595238Y-120866666D01*
X120500000Y-120771428D01*
X120452380Y-120628571D01*
X120452380Y-120533333D01*
X120500000Y-120390476D01*
X120547619Y-120342857D01*
X120547619Y-119961904D02*
X120500000Y-119914285D01*
X120452380Y-119819047D01*
X120452380Y-119580952D01*
X120500000Y-119485714D01*
X120547619Y-119438095D01*
X120642857Y-119390476D01*
X120738095Y-119390476D01*
X120880952Y-119438095D01*
X121452380Y-120009523D01*
X121452380Y-119390476D01*
X120547619Y-119009523D02*
X120500000Y-118961904D01*
X120452380Y-118866666D01*
X120452380Y-118628571D01*
X120500000Y-118533333D01*
X120547619Y-118485714D01*
X120642857Y-118438095D01*
X120738095Y-118438095D01*
X120880952Y-118485714D01*
X121452380Y-119057142D01*
X121452380Y-118438095D01*
G04 #@! TO.C,C23*
X115057142Y-122257142D02*
X115009523Y-122304761D01*
X114866666Y-122352380D01*
X114771428Y-122352380D01*
X114628571Y-122304761D01*
X114533333Y-122209523D01*
X114485714Y-122114285D01*
X114438095Y-121923809D01*
X114438095Y-121780952D01*
X114485714Y-121590476D01*
X114533333Y-121495238D01*
X114628571Y-121400000D01*
X114771428Y-121352380D01*
X114866666Y-121352380D01*
X115009523Y-121400000D01*
X115057142Y-121447619D01*
X115438095Y-121447619D02*
X115485714Y-121400000D01*
X115580952Y-121352380D01*
X115819047Y-121352380D01*
X115914285Y-121400000D01*
X115961904Y-121447619D01*
X116009523Y-121542857D01*
X116009523Y-121638095D01*
X115961904Y-121780952D01*
X115390476Y-122352380D01*
X116009523Y-122352380D01*
X116342857Y-121352380D02*
X116961904Y-121352380D01*
X116628571Y-121733333D01*
X116771428Y-121733333D01*
X116866666Y-121780952D01*
X116914285Y-121828571D01*
X116961904Y-121923809D01*
X116961904Y-122161904D01*
X116914285Y-122257142D01*
X116866666Y-122304761D01*
X116771428Y-122352380D01*
X116485714Y-122352380D01*
X116390476Y-122304761D01*
X116342857Y-122257142D01*
G04 #@! TO.C,C24*
X124361142Y-114975142D02*
X124313523Y-115022761D01*
X124170666Y-115070380D01*
X124075428Y-115070380D01*
X123932571Y-115022761D01*
X123837333Y-114927523D01*
X123789714Y-114832285D01*
X123742095Y-114641809D01*
X123742095Y-114498952D01*
X123789714Y-114308476D01*
X123837333Y-114213238D01*
X123932571Y-114118000D01*
X124075428Y-114070380D01*
X124170666Y-114070380D01*
X124313523Y-114118000D01*
X124361142Y-114165619D01*
X124742095Y-114165619D02*
X124789714Y-114118000D01*
X124884952Y-114070380D01*
X125123047Y-114070380D01*
X125218285Y-114118000D01*
X125265904Y-114165619D01*
X125313523Y-114260857D01*
X125313523Y-114356095D01*
X125265904Y-114498952D01*
X124694476Y-115070380D01*
X125313523Y-115070380D01*
X126170666Y-114403714D02*
X126170666Y-115070380D01*
X125932571Y-114022761D02*
X125694476Y-114737047D01*
X126313523Y-114737047D01*
G04 #@! TO.C,C25*
X137205142Y-113228857D02*
X137252761Y-113276476D01*
X137300380Y-113419333D01*
X137300380Y-113514571D01*
X137252761Y-113657428D01*
X137157523Y-113752666D01*
X137062285Y-113800285D01*
X136871809Y-113847904D01*
X136728952Y-113847904D01*
X136538476Y-113800285D01*
X136443238Y-113752666D01*
X136348000Y-113657428D01*
X136300380Y-113514571D01*
X136300380Y-113419333D01*
X136348000Y-113276476D01*
X136395619Y-113228857D01*
X136395619Y-112847904D02*
X136348000Y-112800285D01*
X136300380Y-112705047D01*
X136300380Y-112466952D01*
X136348000Y-112371714D01*
X136395619Y-112324095D01*
X136490857Y-112276476D01*
X136586095Y-112276476D01*
X136728952Y-112324095D01*
X137300380Y-112895523D01*
X137300380Y-112276476D01*
X136300380Y-111371714D02*
X136300380Y-111847904D01*
X136776571Y-111895523D01*
X136728952Y-111847904D01*
X136681333Y-111752666D01*
X136681333Y-111514571D01*
X136728952Y-111419333D01*
X136776571Y-111371714D01*
X136871809Y-111324095D01*
X137109904Y-111324095D01*
X137205142Y-111371714D01*
X137252761Y-111419333D01*
X137300380Y-111514571D01*
X137300380Y-111752666D01*
X137252761Y-111847904D01*
X137205142Y-111895523D01*
G04 #@! TO.C,C31*
X120057142Y-92642857D02*
X120104761Y-92690476D01*
X120152380Y-92833333D01*
X120152380Y-92928571D01*
X120104761Y-93071428D01*
X120009523Y-93166666D01*
X119914285Y-93214285D01*
X119723809Y-93261904D01*
X119580952Y-93261904D01*
X119390476Y-93214285D01*
X119295238Y-93166666D01*
X119200000Y-93071428D01*
X119152380Y-92928571D01*
X119152380Y-92833333D01*
X119200000Y-92690476D01*
X119247619Y-92642857D01*
X119152380Y-92309523D02*
X119152380Y-91690476D01*
X119533333Y-92023809D01*
X119533333Y-91880952D01*
X119580952Y-91785714D01*
X119628571Y-91738095D01*
X119723809Y-91690476D01*
X119961904Y-91690476D01*
X120057142Y-91738095D01*
X120104761Y-91785714D01*
X120152380Y-91880952D01*
X120152380Y-92166666D01*
X120104761Y-92261904D01*
X120057142Y-92309523D01*
X120152380Y-90738095D02*
X120152380Y-91309523D01*
X120152380Y-91023809D02*
X119152380Y-91023809D01*
X119295238Y-91119047D01*
X119390476Y-91214285D01*
X119438095Y-91309523D01*
G04 #@! TO.C,C33*
X113757142Y-94057142D02*
X113709523Y-94104761D01*
X113566666Y-94152380D01*
X113471428Y-94152380D01*
X113328571Y-94104761D01*
X113233333Y-94009523D01*
X113185714Y-93914285D01*
X113138095Y-93723809D01*
X113138095Y-93580952D01*
X113185714Y-93390476D01*
X113233333Y-93295238D01*
X113328571Y-93200000D01*
X113471428Y-93152380D01*
X113566666Y-93152380D01*
X113709523Y-93200000D01*
X113757142Y-93247619D01*
X114090476Y-93152380D02*
X114709523Y-93152380D01*
X114376190Y-93533333D01*
X114519047Y-93533333D01*
X114614285Y-93580952D01*
X114661904Y-93628571D01*
X114709523Y-93723809D01*
X114709523Y-93961904D01*
X114661904Y-94057142D01*
X114614285Y-94104761D01*
X114519047Y-94152380D01*
X114233333Y-94152380D01*
X114138095Y-94104761D01*
X114090476Y-94057142D01*
X115042857Y-93152380D02*
X115661904Y-93152380D01*
X115328571Y-93533333D01*
X115471428Y-93533333D01*
X115566666Y-93580952D01*
X115614285Y-93628571D01*
X115661904Y-93723809D01*
X115661904Y-93961904D01*
X115614285Y-94057142D01*
X115566666Y-94104761D01*
X115471428Y-94152380D01*
X115185714Y-94152380D01*
X115090476Y-94104761D01*
X115042857Y-94057142D01*
G04 #@! TO.C,C36*
X123599142Y-86527142D02*
X123551523Y-86574761D01*
X123408666Y-86622380D01*
X123313428Y-86622380D01*
X123170571Y-86574761D01*
X123075333Y-86479523D01*
X123027714Y-86384285D01*
X122980095Y-86193809D01*
X122980095Y-86050952D01*
X123027714Y-85860476D01*
X123075333Y-85765238D01*
X123170571Y-85670000D01*
X123313428Y-85622380D01*
X123408666Y-85622380D01*
X123551523Y-85670000D01*
X123599142Y-85717619D01*
X123932476Y-85622380D02*
X124551523Y-85622380D01*
X124218190Y-86003333D01*
X124361047Y-86003333D01*
X124456285Y-86050952D01*
X124503904Y-86098571D01*
X124551523Y-86193809D01*
X124551523Y-86431904D01*
X124503904Y-86527142D01*
X124456285Y-86574761D01*
X124361047Y-86622380D01*
X124075333Y-86622380D01*
X123980095Y-86574761D01*
X123932476Y-86527142D01*
X125408666Y-85622380D02*
X125218190Y-85622380D01*
X125122952Y-85670000D01*
X125075333Y-85717619D01*
X124980095Y-85860476D01*
X124932476Y-86050952D01*
X124932476Y-86431904D01*
X124980095Y-86527142D01*
X125027714Y-86574761D01*
X125122952Y-86622380D01*
X125313428Y-86622380D01*
X125408666Y-86574761D01*
X125456285Y-86527142D01*
X125503904Y-86431904D01*
X125503904Y-86193809D01*
X125456285Y-86098571D01*
X125408666Y-86050952D01*
X125313428Y-86003333D01*
X125122952Y-86003333D01*
X125027714Y-86050952D01*
X124980095Y-86098571D01*
X124932476Y-86193809D01*
G04 #@! TO.C,C40*
X137070542Y-84526857D02*
X137118161Y-84574476D01*
X137165780Y-84717333D01*
X137165780Y-84812571D01*
X137118161Y-84955428D01*
X137022923Y-85050666D01*
X136927685Y-85098285D01*
X136737209Y-85145904D01*
X136594352Y-85145904D01*
X136403876Y-85098285D01*
X136308638Y-85050666D01*
X136213400Y-84955428D01*
X136165780Y-84812571D01*
X136165780Y-84717333D01*
X136213400Y-84574476D01*
X136261019Y-84526857D01*
X136499114Y-83669714D02*
X137165780Y-83669714D01*
X136118161Y-83907809D02*
X136832447Y-84145904D01*
X136832447Y-83526857D01*
X136165780Y-82955428D02*
X136165780Y-82860190D01*
X136213400Y-82764952D01*
X136261019Y-82717333D01*
X136356257Y-82669714D01*
X136546733Y-82622095D01*
X136784828Y-82622095D01*
X136975304Y-82669714D01*
X137070542Y-82717333D01*
X137118161Y-82764952D01*
X137165780Y-82860190D01*
X137165780Y-82955428D01*
X137118161Y-83050666D01*
X137070542Y-83098285D01*
X136975304Y-83145904D01*
X136784828Y-83193523D01*
X136546733Y-83193523D01*
X136356257Y-83145904D01*
X136261019Y-83098285D01*
X136213400Y-83050666D01*
X136165780Y-82955428D01*
G04 #@! TO.C,R1*
X109622833Y-76114380D02*
X109289500Y-75638190D01*
X109051404Y-76114380D02*
X109051404Y-75114380D01*
X109432357Y-75114380D01*
X109527595Y-75162000D01*
X109575214Y-75209619D01*
X109622833Y-75304857D01*
X109622833Y-75447714D01*
X109575214Y-75542952D01*
X109527595Y-75590571D01*
X109432357Y-75638190D01*
X109051404Y-75638190D01*
X110575214Y-76114380D02*
X110003785Y-76114380D01*
X110289500Y-76114380D02*
X110289500Y-75114380D01*
X110194261Y-75257238D01*
X110099023Y-75352476D01*
X110003785Y-75400095D01*
G04 #@! TO.C,R2*
X110867333Y-101532180D02*
X110534000Y-101055990D01*
X110295904Y-101532180D02*
X110295904Y-100532180D01*
X110676857Y-100532180D01*
X110772095Y-100579800D01*
X110819714Y-100627419D01*
X110867333Y-100722657D01*
X110867333Y-100865514D01*
X110819714Y-100960752D01*
X110772095Y-101008371D01*
X110676857Y-101055990D01*
X110295904Y-101055990D01*
X111248285Y-100627419D02*
X111295904Y-100579800D01*
X111391142Y-100532180D01*
X111629238Y-100532180D01*
X111724476Y-100579800D01*
X111772095Y-100627419D01*
X111819714Y-100722657D01*
X111819714Y-100817895D01*
X111772095Y-100960752D01*
X111200666Y-101532180D01*
X111819714Y-101532180D01*
G04 #@! TO.C,R3*
X117933333Y-80577180D02*
X117600000Y-80100990D01*
X117361904Y-80577180D02*
X117361904Y-79577180D01*
X117742857Y-79577180D01*
X117838095Y-79624800D01*
X117885714Y-79672419D01*
X117933333Y-79767657D01*
X117933333Y-79910514D01*
X117885714Y-80005752D01*
X117838095Y-80053371D01*
X117742857Y-80100990D01*
X117361904Y-80100990D01*
X118266666Y-79577180D02*
X118885714Y-79577180D01*
X118552380Y-79958133D01*
X118695238Y-79958133D01*
X118790476Y-80005752D01*
X118838095Y-80053371D01*
X118885714Y-80148609D01*
X118885714Y-80386704D01*
X118838095Y-80481942D01*
X118790476Y-80529561D01*
X118695238Y-80577180D01*
X118409523Y-80577180D01*
X118314285Y-80529561D01*
X118266666Y-80481942D01*
G04 #@! TO.C,R4*
X119333333Y-106252380D02*
X119000000Y-105776190D01*
X118761904Y-106252380D02*
X118761904Y-105252380D01*
X119142857Y-105252380D01*
X119238095Y-105300000D01*
X119285714Y-105347619D01*
X119333333Y-105442857D01*
X119333333Y-105585714D01*
X119285714Y-105680952D01*
X119238095Y-105728571D01*
X119142857Y-105776190D01*
X118761904Y-105776190D01*
X120190476Y-105585714D02*
X120190476Y-106252380D01*
X119952380Y-105204761D02*
X119714285Y-105919047D01*
X120333333Y-105919047D01*
G04 #@! TO.C,R5*
X117833333Y-78452380D02*
X117500000Y-77976190D01*
X117261904Y-78452380D02*
X117261904Y-77452380D01*
X117642857Y-77452380D01*
X117738095Y-77500000D01*
X117785714Y-77547619D01*
X117833333Y-77642857D01*
X117833333Y-77785714D01*
X117785714Y-77880952D01*
X117738095Y-77928571D01*
X117642857Y-77976190D01*
X117261904Y-77976190D01*
X118738095Y-77452380D02*
X118261904Y-77452380D01*
X118214285Y-77928571D01*
X118261904Y-77880952D01*
X118357142Y-77833333D01*
X118595238Y-77833333D01*
X118690476Y-77880952D01*
X118738095Y-77928571D01*
X118785714Y-78023809D01*
X118785714Y-78261904D01*
X118738095Y-78357142D01*
X118690476Y-78404761D01*
X118595238Y-78452380D01*
X118357142Y-78452380D01*
X118261904Y-78404761D01*
X118214285Y-78357142D01*
G04 #@! TO.C,R6*
X119333333Y-108452380D02*
X119000000Y-107976190D01*
X118761904Y-108452380D02*
X118761904Y-107452380D01*
X119142857Y-107452380D01*
X119238095Y-107500000D01*
X119285714Y-107547619D01*
X119333333Y-107642857D01*
X119333333Y-107785714D01*
X119285714Y-107880952D01*
X119238095Y-107928571D01*
X119142857Y-107976190D01*
X118761904Y-107976190D01*
X120190476Y-107452380D02*
X120000000Y-107452380D01*
X119904761Y-107500000D01*
X119857142Y-107547619D01*
X119761904Y-107690476D01*
X119714285Y-107880952D01*
X119714285Y-108261904D01*
X119761904Y-108357142D01*
X119809523Y-108404761D01*
X119904761Y-108452380D01*
X120095238Y-108452380D01*
X120190476Y-108404761D01*
X120238095Y-108357142D01*
X120285714Y-108261904D01*
X120285714Y-108023809D01*
X120238095Y-107928571D01*
X120190476Y-107880952D01*
X120095238Y-107833333D01*
X119904761Y-107833333D01*
X119809523Y-107880952D01*
X119761904Y-107928571D01*
X119714285Y-108023809D01*
G04 #@! TO.C,R7*
X118133333Y-82552380D02*
X117800000Y-82076190D01*
X117561904Y-82552380D02*
X117561904Y-81552380D01*
X117942857Y-81552380D01*
X118038095Y-81600000D01*
X118085714Y-81647619D01*
X118133333Y-81742857D01*
X118133333Y-81885714D01*
X118085714Y-81980952D01*
X118038095Y-82028571D01*
X117942857Y-82076190D01*
X117561904Y-82076190D01*
X118466666Y-81552380D02*
X119133333Y-81552380D01*
X118704761Y-82552380D01*
G04 #@! TO.C,R9*
X124534380Y-117705666D02*
X124058190Y-118039000D01*
X124534380Y-118277095D02*
X123534380Y-118277095D01*
X123534380Y-117896142D01*
X123582000Y-117800904D01*
X123629619Y-117753285D01*
X123724857Y-117705666D01*
X123867714Y-117705666D01*
X123962952Y-117753285D01*
X124010571Y-117800904D01*
X124058190Y-117896142D01*
X124058190Y-118277095D01*
X124534380Y-117229476D02*
X124534380Y-117039000D01*
X124486761Y-116943761D01*
X124439142Y-116896142D01*
X124296285Y-116800904D01*
X124105809Y-116753285D01*
X123724857Y-116753285D01*
X123629619Y-116800904D01*
X123582000Y-116848523D01*
X123534380Y-116943761D01*
X123534380Y-117134238D01*
X123582000Y-117229476D01*
X123629619Y-117277095D01*
X123724857Y-117324714D01*
X123962952Y-117324714D01*
X124058190Y-117277095D01*
X124105809Y-117229476D01*
X124153428Y-117134238D01*
X124153428Y-116943761D01*
X124105809Y-116848523D01*
X124058190Y-116800904D01*
X123962952Y-116753285D01*
G04 #@! TO.C,R13*
X124052380Y-89942857D02*
X123576190Y-90276190D01*
X124052380Y-90514285D02*
X123052380Y-90514285D01*
X123052380Y-90133333D01*
X123100000Y-90038095D01*
X123147619Y-89990476D01*
X123242857Y-89942857D01*
X123385714Y-89942857D01*
X123480952Y-89990476D01*
X123528571Y-90038095D01*
X123576190Y-90133333D01*
X123576190Y-90514285D01*
X124052380Y-88990476D02*
X124052380Y-89561904D01*
X124052380Y-89276190D02*
X123052380Y-89276190D01*
X123195238Y-89371428D01*
X123290476Y-89466666D01*
X123338095Y-89561904D01*
X123052380Y-88657142D02*
X123052380Y-88038095D01*
X123433333Y-88371428D01*
X123433333Y-88228571D01*
X123480952Y-88133333D01*
X123528571Y-88085714D01*
X123623809Y-88038095D01*
X123861904Y-88038095D01*
X123957142Y-88085714D01*
X124004761Y-88133333D01*
X124052380Y-88228571D01*
X124052380Y-88514285D01*
X124004761Y-88609523D01*
X123957142Y-88657142D01*
G04 #@! TO.C,U12*
X114361904Y-69752380D02*
X114361904Y-70561904D01*
X114409523Y-70657142D01*
X114457142Y-70704761D01*
X114552380Y-70752380D01*
X114742857Y-70752380D01*
X114838095Y-70704761D01*
X114885714Y-70657142D01*
X114933333Y-70561904D01*
X114933333Y-69752380D01*
X115933333Y-70752380D02*
X115361904Y-70752380D01*
X115647619Y-70752380D02*
X115647619Y-69752380D01*
X115552380Y-69895238D01*
X115457142Y-69990476D01*
X115361904Y-70038095D01*
X116314285Y-69847619D02*
X116361904Y-69800000D01*
X116457142Y-69752380D01*
X116695238Y-69752380D01*
X116790476Y-69800000D01*
X116838095Y-69847619D01*
X116885714Y-69942857D01*
X116885714Y-70038095D01*
X116838095Y-70180952D01*
X116266666Y-70752380D01*
X116885714Y-70752380D01*
G04 #@! TO.C,U13*
X115637904Y-97870380D02*
X115637904Y-98679904D01*
X115685523Y-98775142D01*
X115733142Y-98822761D01*
X115828380Y-98870380D01*
X116018857Y-98870380D01*
X116114095Y-98822761D01*
X116161714Y-98775142D01*
X116209333Y-98679904D01*
X116209333Y-97870380D01*
X117209333Y-98870380D02*
X116637904Y-98870380D01*
X116923619Y-98870380D02*
X116923619Y-97870380D01*
X116828380Y-98013238D01*
X116733142Y-98108476D01*
X116637904Y-98156095D01*
X117542666Y-97870380D02*
X118161714Y-97870380D01*
X117828380Y-98251333D01*
X117971238Y-98251333D01*
X118066476Y-98298952D01*
X118114095Y-98346571D01*
X118161714Y-98441809D01*
X118161714Y-98679904D01*
X118114095Y-98775142D01*
X118066476Y-98822761D01*
X117971238Y-98870380D01*
X117685523Y-98870380D01*
X117590285Y-98822761D01*
X117542666Y-98775142D01*
G04 #@! TO.C,U14*
X120847619Y-112761904D02*
X120038095Y-112761904D01*
X119942857Y-112809523D01*
X119895238Y-112857142D01*
X119847619Y-112952380D01*
X119847619Y-113142857D01*
X119895238Y-113238095D01*
X119942857Y-113285714D01*
X120038095Y-113333333D01*
X120847619Y-113333333D01*
X119847619Y-114333333D02*
X119847619Y-113761904D01*
X119847619Y-114047619D02*
X120847619Y-114047619D01*
X120704761Y-113952380D01*
X120609523Y-113857142D01*
X120561904Y-113761904D01*
X120514285Y-115190476D02*
X119847619Y-115190476D01*
X120895238Y-114952380D02*
X120180952Y-114714285D01*
X120180952Y-115333333D01*
G04 #@! TO.C,U16*
X129061904Y-120652380D02*
X129061904Y-121461904D01*
X129109523Y-121557142D01*
X129157142Y-121604761D01*
X129252380Y-121652380D01*
X129442857Y-121652380D01*
X129538095Y-121604761D01*
X129585714Y-121557142D01*
X129633333Y-121461904D01*
X129633333Y-120652380D01*
X130633333Y-121652380D02*
X130061904Y-121652380D01*
X130347619Y-121652380D02*
X130347619Y-120652380D01*
X130252380Y-120795238D01*
X130157142Y-120890476D01*
X130061904Y-120938095D01*
X131490476Y-120652380D02*
X131300000Y-120652380D01*
X131204761Y-120700000D01*
X131157142Y-120747619D01*
X131061904Y-120890476D01*
X131014285Y-121080952D01*
X131014285Y-121461904D01*
X131061904Y-121557142D01*
X131109523Y-121604761D01*
X131204761Y-121652380D01*
X131395238Y-121652380D01*
X131490476Y-121604761D01*
X131538095Y-121557142D01*
X131585714Y-121461904D01*
X131585714Y-121223809D01*
X131538095Y-121128571D01*
X131490476Y-121080952D01*
X131395238Y-121033333D01*
X131204761Y-121033333D01*
X131109523Y-121080952D01*
X131061904Y-121128571D01*
X131014285Y-121223809D01*
G04 #@! TO.C,U18*
X128561904Y-91952380D02*
X128561904Y-92761904D01*
X128609523Y-92857142D01*
X128657142Y-92904761D01*
X128752380Y-92952380D01*
X128942857Y-92952380D01*
X129038095Y-92904761D01*
X129085714Y-92857142D01*
X129133333Y-92761904D01*
X129133333Y-91952380D01*
X130133333Y-92952380D02*
X129561904Y-92952380D01*
X129847619Y-92952380D02*
X129847619Y-91952380D01*
X129752380Y-92095238D01*
X129657142Y-92190476D01*
X129561904Y-92238095D01*
X130704761Y-92380952D02*
X130609523Y-92333333D01*
X130561904Y-92285714D01*
X130514285Y-92190476D01*
X130514285Y-92142857D01*
X130561904Y-92047619D01*
X130609523Y-92000000D01*
X130704761Y-91952380D01*
X130895238Y-91952380D01*
X130990476Y-92000000D01*
X131038095Y-92047619D01*
X131085714Y-92142857D01*
X131085714Y-92190476D01*
X131038095Y-92285714D01*
X130990476Y-92333333D01*
X130895238Y-92380952D01*
X130704761Y-92380952D01*
X130609523Y-92428571D01*
X130561904Y-92476190D01*
X130514285Y-92571428D01*
X130514285Y-92761904D01*
X130561904Y-92857142D01*
X130609523Y-92904761D01*
X130704761Y-92952380D01*
X130895238Y-92952380D01*
X130990476Y-92904761D01*
X131038095Y-92857142D01*
X131085714Y-92761904D01*
X131085714Y-92571428D01*
X131038095Y-92476190D01*
X130990476Y-92428571D01*
X130895238Y-92380952D01*
G04 #@! TO.C,C4*
X104520442Y-77980066D02*
X104568061Y-78027685D01*
X104615680Y-78170542D01*
X104615680Y-78265780D01*
X104568061Y-78408638D01*
X104472823Y-78503876D01*
X104377585Y-78551495D01*
X104187109Y-78599114D01*
X104044252Y-78599114D01*
X103853776Y-78551495D01*
X103758538Y-78503876D01*
X103663300Y-78408638D01*
X103615680Y-78265780D01*
X103615680Y-78170542D01*
X103663300Y-78027685D01*
X103710919Y-77980066D01*
X103949014Y-77122923D02*
X104615680Y-77122923D01*
X103568061Y-77361019D02*
X104282347Y-77599114D01*
X104282347Y-76980066D01*
G04 #@! TO.C,U6*
X101737695Y-75208380D02*
X101737695Y-76017904D01*
X101785314Y-76113142D01*
X101832933Y-76160761D01*
X101928171Y-76208380D01*
X102118647Y-76208380D01*
X102213885Y-76160761D01*
X102261504Y-76113142D01*
X102309123Y-76017904D01*
X102309123Y-75208380D01*
X103213885Y-75208380D02*
X103023409Y-75208380D01*
X102928171Y-75256000D01*
X102880552Y-75303619D01*
X102785314Y-75446476D01*
X102737695Y-75636952D01*
X102737695Y-76017904D01*
X102785314Y-76113142D01*
X102832933Y-76160761D01*
X102928171Y-76208380D01*
X103118647Y-76208380D01*
X103213885Y-76160761D01*
X103261504Y-76113142D01*
X103309123Y-76017904D01*
X103309123Y-75779809D01*
X103261504Y-75684571D01*
X103213885Y-75636952D01*
X103118647Y-75589333D01*
X102928171Y-75589333D01*
X102832933Y-75636952D01*
X102785314Y-75684571D01*
X102737695Y-75779809D01*
G04 #@! TO.C,U11*
X119447619Y-85061904D02*
X118638095Y-85061904D01*
X118542857Y-85109523D01*
X118495238Y-85157142D01*
X118447619Y-85252380D01*
X118447619Y-85442857D01*
X118495238Y-85538095D01*
X118542857Y-85585714D01*
X118638095Y-85633333D01*
X119447619Y-85633333D01*
X118447619Y-86633333D02*
X118447619Y-86061904D01*
X118447619Y-86347619D02*
X119447619Y-86347619D01*
X119304761Y-86252380D01*
X119209523Y-86157142D01*
X119161904Y-86061904D01*
X118447619Y-87585714D02*
X118447619Y-87014285D01*
X118447619Y-87300000D02*
X119447619Y-87300000D01*
X119304761Y-87204761D01*
X119209523Y-87109523D01*
X119161904Y-87014285D01*
G04 #@! TO.C,J3*
X37766666Y-50852380D02*
X37766666Y-51566666D01*
X37719047Y-51709523D01*
X37623809Y-51804761D01*
X37480952Y-51852380D01*
X37385714Y-51852380D01*
X38147619Y-50852380D02*
X38766666Y-50852380D01*
X38433333Y-51233333D01*
X38576190Y-51233333D01*
X38671428Y-51280952D01*
X38719047Y-51328571D01*
X38766666Y-51423809D01*
X38766666Y-51661904D01*
X38719047Y-51757142D01*
X38671428Y-51804761D01*
X38576190Y-51852380D01*
X38290476Y-51852380D01*
X38195238Y-51804761D01*
X38147619Y-51757142D01*
G04 #@! TO.C,J7*
X68766666Y-51052380D02*
X68766666Y-51766666D01*
X68719047Y-51909523D01*
X68623809Y-52004761D01*
X68480952Y-52052380D01*
X68385714Y-52052380D01*
X69147619Y-51052380D02*
X69814285Y-51052380D01*
X69385714Y-52052380D01*
G04 #@! TO.C,J9*
X97866666Y-51252380D02*
X97866666Y-51966666D01*
X97819047Y-52109523D01*
X97723809Y-52204761D01*
X97580952Y-52252380D01*
X97485714Y-52252380D01*
X98390476Y-52252380D02*
X98580952Y-52252380D01*
X98676190Y-52204761D01*
X98723809Y-52157142D01*
X98819047Y-52014285D01*
X98866666Y-51823809D01*
X98866666Y-51442857D01*
X98819047Y-51347619D01*
X98771428Y-51300000D01*
X98676190Y-51252380D01*
X98485714Y-51252380D01*
X98390476Y-51300000D01*
X98342857Y-51347619D01*
X98295238Y-51442857D01*
X98295238Y-51680952D01*
X98342857Y-51776190D01*
X98390476Y-51823809D01*
X98485714Y-51871428D01*
X98676190Y-51871428D01*
X98771428Y-51823809D01*
X98819047Y-51776190D01*
X98866666Y-51680952D01*
G04 #@! TO.C,J11*
X128490476Y-51152380D02*
X128490476Y-51866666D01*
X128442857Y-52009523D01*
X128347619Y-52104761D01*
X128204761Y-52152380D01*
X128109523Y-52152380D01*
X129490476Y-52152380D02*
X128919047Y-52152380D01*
X129204761Y-52152380D02*
X129204761Y-51152380D01*
X129109523Y-51295238D01*
X129014285Y-51390476D01*
X128919047Y-51438095D01*
X130442857Y-52152380D02*
X129871428Y-52152380D01*
X130157142Y-52152380D02*
X130157142Y-51152380D01*
X130061904Y-51295238D01*
X129966666Y-51390476D01*
X129871428Y-51438095D01*
G04 #@! TD*
M02*
