M48
;DRILL file {KiCad 5.0.2-bee76a0~70~ubuntu18.04.1} date Mon Dec 10 22:04:34 2018
;FORMAT={3:3/ absolute / metric / suppress leading zeros}
FMAT,2
METRIC,TZ
T1C0.400
T2C0.762
T3C1.000
T4C1.100
T5C1.200
T6C2.000
T7C3.300
T8C13.000
T9C4.300
%
G90
G05
T1
X45800Y-81500
X45800Y-83500
X45800Y-85500
X45800Y-87500
X45800Y-89500
X45800Y-91500
X45800Y-93500
X78900Y-88100
X78903Y-83249
X80800Y-94200
X82713Y-98108
X85000Y-100400
X91603Y-98870
X91857Y-114364
X92000Y-120400
X92746Y-72200
X94100Y-96000
X94524Y-86170
X94800Y-110400
X95540Y-89980
X96300Y-104900
X96302Y-90996
X96302Y-96838
X96500Y-87500
X96556Y-88964
X97572Y-60770
X99858Y-99378
X100112Y-96711
X100600Y-90400
X101001Y-73978
X101128Y-99124
X101800Y-95800
X101900Y-116300
X102017Y-103569
X102017Y-112459
X102900Y-121100
X103287Y-94806
X103414Y-108141
X103922Y-101537
X104400Y-117600
X104600Y-61300
X104700Y-115300
X104811Y-81725
X105192Y-74232
X105300Y-93500
X105446Y-106871
X106300Y-105700
X106589Y-102172
X106900Y-69500
X107732Y-96229
X107732Y-99378
X107859Y-116650
X108527Y-113600
X108621Y-97854
X109000Y-71800
X109000Y-83300
X109002Y-75756
X109002Y-100902
X109002Y-105728
X109500Y-62100
X110272Y-100902
X110780Y-117031
X111034Y-77534
X111898Y-96229
X111900Y-90400
X112304Y-91758
X112304Y-105728
X112812Y-112078
X113100Y-69100
X113828Y-87186
X115100Y-116105
X116876Y-92266
X116900Y-99200
X117638Y-101283
X118200Y-69406
X118900Y-97600
X119797Y-67442
X119800Y-62100
X120686Y-74486
X120800Y-119400
X121000Y-83700
X121448Y-90488
X121500Y-92000
X121702Y-102934
X122000Y-118472
X122100Y-73300
X122464Y-116650
X122500Y-67200
X122800Y-94300
X123988Y-86170
X124496Y-101918
X124750Y-112078
X125258Y-114872
X125512Y-83122
X125766Y-76772
X127544Y-105474
X129700Y-78900
X129830Y-82360
X130300Y-109100
X130338Y-63263
X130338Y-111316
X130400Y-118500
X132116Y-69660
X132200Y-92500
X132624Y-97600
X134800Y-118500
X135164Y-74486
X135164Y-86170
X135164Y-87694
X135418Y-102680
X135418Y-114872
X135418Y-117158
X146700Y-81000
X146700Y-83700
X146700Y-86200
X150700Y-81000
X150700Y-83700
X150700Y-86200
T2
X76490Y-68090
X76490Y-75590
X76490Y-78090
X99490Y-68090
X99490Y-70590
X99490Y-75590
X99490Y-78090
T3
X144900Y-57000
X147400Y-57000
X53800Y-57000
X56300Y-57000
X113900Y-57000
X116400Y-57000
X84200Y-57000
X86700Y-57000
T4
X57180Y-63290
X57180Y-65830
X57180Y-68370
X57180Y-70910
X57180Y-73450
X57180Y-75990
X57180Y-78530
X57180Y-81070
X57180Y-83610
X57180Y-86150
X57180Y-88690
X57180Y-91230
X57180Y-93770
X57180Y-96310
X57180Y-98850
X57180Y-101390
X57180Y-103930
X57180Y-106470
X57180Y-109010
X57180Y-111550
X57180Y-114090
X57180Y-116630
X57180Y-119170
X57180Y-121710
X72420Y-63290
X72420Y-65830
X72420Y-68370
X72420Y-70910
X72420Y-73450
X72420Y-75990
X72420Y-78530
X72420Y-81070
X72420Y-83610
X72420Y-86150
X72420Y-88690
X72420Y-91230
X72420Y-93770
X72420Y-96310
X72420Y-98850
X72420Y-101390
X72420Y-103930
X72420Y-106470
X72420Y-109010
X72420Y-111550
X72420Y-114090
X72420Y-116630
X72420Y-119170
X72420Y-121710
X132260Y-49500
X132260Y-54580
X134800Y-49500
X134800Y-54580
X101360Y-49500
X101360Y-54580
X103900Y-49500
X103900Y-54580
X41260Y-49500
X41260Y-54580
X43800Y-49500
X43800Y-54580
X72260Y-49500
X72260Y-54580
X74800Y-49500
X74800Y-54580
T5
X78990Y-81090
X96990Y-65090
T6
X81600Y-51900
X91800Y-51900
X142300Y-51900
X152500Y-51900
X51200Y-51900
X61400Y-51900
X111300Y-51900
X121500Y-51900
T7
X41000Y-128700
X41000Y-153700
X41000Y-164500
X41000Y-189500
X162000Y-128700
X162000Y-153700
X162000Y-164500
X162000Y-189500
T8
X51200Y-141700
X82200Y-141700
X111800Y-141700
X142300Y-141600
T9
X39800Y-119000
X154800Y-119000
X154800Y-68000
X39800Y-68000
T0
M30
